<?xml version="1.0" encoding="utf-8" standalone="no"?>
<!DOCTYPE svg PUBLIC "-//W3C//DTD SVG 1.1//EN"
  "http://www.w3.org/Graphics/SVG/1.1/DTD/svg11.dtd">
<!-- Created with matplotlib (https://matplotlib.org/) -->
<svg height="432pt" version="1.1" viewBox="0 0 540 432" width="540pt" xmlns="http://www.w3.org/2000/svg" xmlns:xlink="http://www.w3.org/1999/xlink">
 <defs>
  <style type="text/css">
*{stroke-linecap:butt;stroke-linejoin:round;}
  </style>
 </defs>
 <g id="figure_1">
  <g id="patch_1">
   <path d="M 0 432 
L 540 432 
L 540 0 
L 0 0 
z
" style="fill:#ffffff;"/>
  </g>
  <g id="axes_1">
   <g id="patch_2">
    <path d="M 78.05 365.56 
L 529.2 365.56 
L 529.2 110.4 
L 78.05 110.4 
z
" style="fill:#ffffff;"/>
   </g>
   <g id="matplotlib.axis_1">
    <g id="xtick_1">
     <g id="line2d_1">
      <defs>
       <path d="M 0 0 
L 0 3.5 
" id="m892bbc09ec" style="stroke:#000000;stroke-width:0.8;"/>
      </defs>
      <g>
       <use style="stroke:#000000;stroke-width:0.8;" x="98.556818" xlink:href="#m892bbc09ec" y="365.56"/>
      </g>
     </g>
     <g id="text_1">
      <!-- 0 -->
      <defs>
       <path d="M 31.78125 66.40625 
Q 24.171875 66.40625 20.328125 58.90625 
Q 16.5 51.421875 16.5 36.375 
Q 16.5 21.390625 20.328125 13.890625 
Q 24.171875 6.390625 31.78125 6.390625 
Q 39.453125 6.390625 43.28125 13.890625 
Q 47.125 21.390625 47.125 36.375 
Q 47.125 51.421875 43.28125 58.90625 
Q 39.453125 66.40625 31.78125 66.40625 
z
M 31.78125 74.21875 
Q 44.046875 74.21875 50.515625 64.515625 
Q 56.984375 54.828125 56.984375 36.375 
Q 56.984375 17.96875 50.515625 8.265625 
Q 44.046875 -1.421875 31.78125 -1.421875 
Q 19.53125 -1.421875 13.0625 8.265625 
Q 6.59375 17.96875 6.59375 36.375 
Q 6.59375 54.828125 13.0625 64.515625 
Q 19.53125 74.21875 31.78125 74.21875 
z
" id="DejaVuSans-48"/>
      </defs>
      <g transform="translate(92.194318 387.756875)scale(0.2 -0.2)">
       <use xlink:href="#DejaVuSans-48"/>
      </g>
     </g>
    </g>
    <g id="xtick_2">
     <g id="line2d_2">
      <g>
       <use style="stroke:#000000;stroke-width:0.8;" x="191.769628" xlink:href="#m892bbc09ec" y="365.56"/>
      </g>
     </g>
     <g id="text_2">
      <!-- 20 -->
      <defs>
       <path d="M 19.1875 8.296875 
L 53.609375 8.296875 
L 53.609375 0 
L 7.328125 0 
L 7.328125 8.296875 
Q 12.9375 14.109375 22.625 23.890625 
Q 32.328125 33.6875 34.8125 36.53125 
Q 39.546875 41.84375 41.421875 45.53125 
Q 43.3125 49.21875 43.3125 52.78125 
Q 43.3125 58.59375 39.234375 62.25 
Q 35.15625 65.921875 28.609375 65.921875 
Q 23.96875 65.921875 18.8125 64.3125 
Q 13.671875 62.703125 7.8125 59.421875 
L 7.8125 69.390625 
Q 13.765625 71.78125 18.9375 73 
Q 24.125 74.21875 28.421875 74.21875 
Q 39.75 74.21875 46.484375 68.546875 
Q 53.21875 62.890625 53.21875 53.421875 
Q 53.21875 48.921875 51.53125 44.890625 
Q 49.859375 40.875 45.40625 35.40625 
Q 44.1875 33.984375 37.640625 27.21875 
Q 31.109375 20.453125 19.1875 8.296875 
z
" id="DejaVuSans-50"/>
      </defs>
      <g transform="translate(179.044628 387.756875)scale(0.2 -0.2)">
       <use xlink:href="#DejaVuSans-50"/>
       <use x="63.623047" xlink:href="#DejaVuSans-48"/>
      </g>
     </g>
    </g>
    <g id="xtick_3">
     <g id="line2d_3">
      <g>
       <use style="stroke:#000000;stroke-width:0.8;" x="284.982438" xlink:href="#m892bbc09ec" y="365.56"/>
      </g>
     </g>
     <g id="text_3">
      <!-- 40 -->
      <defs>
       <path d="M 37.796875 64.3125 
L 12.890625 25.390625 
L 37.796875 25.390625 
z
M 35.203125 72.90625 
L 47.609375 72.90625 
L 47.609375 25.390625 
L 58.015625 25.390625 
L 58.015625 17.1875 
L 47.609375 17.1875 
L 47.609375 0 
L 37.796875 0 
L 37.796875 17.1875 
L 4.890625 17.1875 
L 4.890625 26.703125 
z
" id="DejaVuSans-52"/>
      </defs>
      <g transform="translate(272.257438 387.756875)scale(0.2 -0.2)">
       <use xlink:href="#DejaVuSans-52"/>
       <use x="63.623047" xlink:href="#DejaVuSans-48"/>
      </g>
     </g>
    </g>
    <g id="xtick_4">
     <g id="line2d_4">
      <g>
       <use style="stroke:#000000;stroke-width:0.8;" x="378.195248" xlink:href="#m892bbc09ec" y="365.56"/>
      </g>
     </g>
     <g id="text_4">
      <!-- 60 -->
      <defs>
       <path d="M 33.015625 40.375 
Q 26.375 40.375 22.484375 35.828125 
Q 18.609375 31.296875 18.609375 23.390625 
Q 18.609375 15.53125 22.484375 10.953125 
Q 26.375 6.390625 33.015625 6.390625 
Q 39.65625 6.390625 43.53125 10.953125 
Q 47.40625 15.53125 47.40625 23.390625 
Q 47.40625 31.296875 43.53125 35.828125 
Q 39.65625 40.375 33.015625 40.375 
z
M 52.59375 71.296875 
L 52.59375 62.3125 
Q 48.875 64.0625 45.09375 64.984375 
Q 41.3125 65.921875 37.59375 65.921875 
Q 27.828125 65.921875 22.671875 59.328125 
Q 17.53125 52.734375 16.796875 39.40625 
Q 19.671875 43.65625 24.015625 45.921875 
Q 28.375 48.1875 33.59375 48.1875 
Q 44.578125 48.1875 50.953125 41.515625 
Q 57.328125 34.859375 57.328125 23.390625 
Q 57.328125 12.15625 50.6875 5.359375 
Q 44.046875 -1.421875 33.015625 -1.421875 
Q 20.359375 -1.421875 13.671875 8.265625 
Q 6.984375 17.96875 6.984375 36.375 
Q 6.984375 53.65625 15.1875 63.9375 
Q 23.390625 74.21875 37.203125 74.21875 
Q 40.921875 74.21875 44.703125 73.484375 
Q 48.484375 72.75 52.59375 71.296875 
z
" id="DejaVuSans-54"/>
      </defs>
      <g transform="translate(365.470248 387.756875)scale(0.2 -0.2)">
       <use xlink:href="#DejaVuSans-54"/>
       <use x="63.623047" xlink:href="#DejaVuSans-48"/>
      </g>
     </g>
    </g>
    <g id="xtick_5">
     <g id="line2d_5">
      <g>
       <use style="stroke:#000000;stroke-width:0.8;" x="471.408058" xlink:href="#m892bbc09ec" y="365.56"/>
      </g>
     </g>
     <g id="text_5">
      <!-- 80 -->
      <defs>
       <path d="M 31.78125 34.625 
Q 24.75 34.625 20.71875 30.859375 
Q 16.703125 27.09375 16.703125 20.515625 
Q 16.703125 13.921875 20.71875 10.15625 
Q 24.75 6.390625 31.78125 6.390625 
Q 38.8125 6.390625 42.859375 10.171875 
Q 46.921875 13.96875 46.921875 20.515625 
Q 46.921875 27.09375 42.890625 30.859375 
Q 38.875 34.625 31.78125 34.625 
z
M 21.921875 38.8125 
Q 15.578125 40.375 12.03125 44.71875 
Q 8.5 49.078125 8.5 55.328125 
Q 8.5 64.0625 14.71875 69.140625 
Q 20.953125 74.21875 31.78125 74.21875 
Q 42.671875 74.21875 48.875 69.140625 
Q 55.078125 64.0625 55.078125 55.328125 
Q 55.078125 49.078125 51.53125 44.71875 
Q 48 40.375 41.703125 38.8125 
Q 48.828125 37.15625 52.796875 32.3125 
Q 56.78125 27.484375 56.78125 20.515625 
Q 56.78125 9.90625 50.3125 4.234375 
Q 43.84375 -1.421875 31.78125 -1.421875 
Q 19.734375 -1.421875 13.25 4.234375 
Q 6.78125 9.90625 6.78125 20.515625 
Q 6.78125 27.484375 10.78125 32.3125 
Q 14.796875 37.15625 21.921875 38.8125 
z
M 18.3125 54.390625 
Q 18.3125 48.734375 21.84375 45.5625 
Q 25.390625 42.390625 31.78125 42.390625 
Q 38.140625 42.390625 41.71875 45.5625 
Q 45.3125 48.734375 45.3125 54.390625 
Q 45.3125 60.0625 41.71875 63.234375 
Q 38.140625 66.40625 31.78125 66.40625 
Q 25.390625 66.40625 21.84375 63.234375 
Q 18.3125 60.0625 18.3125 54.390625 
z
" id="DejaVuSans-56"/>
      </defs>
      <g transform="translate(458.683058 387.756875)scale(0.2 -0.2)">
       <use xlink:href="#DejaVuSans-56"/>
       <use x="63.623047" xlink:href="#DejaVuSans-48"/>
      </g>
     </g>
    </g>
    <g id="text_6">
     <!-- number of games -->
     <defs>
      <path d="M 54.890625 33.015625 
L 54.890625 0 
L 45.90625 0 
L 45.90625 32.71875 
Q 45.90625 40.484375 42.875 44.328125 
Q 39.84375 48.1875 33.796875 48.1875 
Q 26.515625 48.1875 22.3125 43.546875 
Q 18.109375 38.921875 18.109375 30.90625 
L 18.109375 0 
L 9.078125 0 
L 9.078125 54.6875 
L 18.109375 54.6875 
L 18.109375 46.1875 
Q 21.34375 51.125 25.703125 53.5625 
Q 30.078125 56 35.796875 56 
Q 45.21875 56 50.046875 50.171875 
Q 54.890625 44.34375 54.890625 33.015625 
z
" id="DejaVuSans-110"/>
      <path d="M 8.5 21.578125 
L 8.5 54.6875 
L 17.484375 54.6875 
L 17.484375 21.921875 
Q 17.484375 14.15625 20.5 10.265625 
Q 23.53125 6.390625 29.59375 6.390625 
Q 36.859375 6.390625 41.078125 11.03125 
Q 45.3125 15.671875 45.3125 23.6875 
L 45.3125 54.6875 
L 54.296875 54.6875 
L 54.296875 0 
L 45.3125 0 
L 45.3125 8.40625 
Q 42.046875 3.421875 37.71875 1 
Q 33.40625 -1.421875 27.6875 -1.421875 
Q 18.265625 -1.421875 13.375 4.4375 
Q 8.5 10.296875 8.5 21.578125 
z
M 31.109375 56 
z
" id="DejaVuSans-117"/>
      <path d="M 52 44.1875 
Q 55.375 50.25 60.0625 53.125 
Q 64.75 56 71.09375 56 
Q 79.640625 56 84.28125 50.015625 
Q 88.921875 44.046875 88.921875 33.015625 
L 88.921875 0 
L 79.890625 0 
L 79.890625 32.71875 
Q 79.890625 40.578125 77.09375 44.375 
Q 74.3125 48.1875 68.609375 48.1875 
Q 61.625 48.1875 57.5625 43.546875 
Q 53.515625 38.921875 53.515625 30.90625 
L 53.515625 0 
L 44.484375 0 
L 44.484375 32.71875 
Q 44.484375 40.625 41.703125 44.40625 
Q 38.921875 48.1875 33.109375 48.1875 
Q 26.21875 48.1875 22.15625 43.53125 
Q 18.109375 38.875 18.109375 30.90625 
L 18.109375 0 
L 9.078125 0 
L 9.078125 54.6875 
L 18.109375 54.6875 
L 18.109375 46.1875 
Q 21.1875 51.21875 25.484375 53.609375 
Q 29.78125 56 35.6875 56 
Q 41.65625 56 45.828125 52.96875 
Q 50 49.953125 52 44.1875 
z
" id="DejaVuSans-109"/>
      <path d="M 48.6875 27.296875 
Q 48.6875 37.203125 44.609375 42.84375 
Q 40.53125 48.484375 33.40625 48.484375 
Q 26.265625 48.484375 22.1875 42.84375 
Q 18.109375 37.203125 18.109375 27.296875 
Q 18.109375 17.390625 22.1875 11.75 
Q 26.265625 6.109375 33.40625 6.109375 
Q 40.53125 6.109375 44.609375 11.75 
Q 48.6875 17.390625 48.6875 27.296875 
z
M 18.109375 46.390625 
Q 20.953125 51.265625 25.265625 53.625 
Q 29.59375 56 35.59375 56 
Q 45.5625 56 51.78125 48.09375 
Q 58.015625 40.1875 58.015625 27.296875 
Q 58.015625 14.40625 51.78125 6.484375 
Q 45.5625 -1.421875 35.59375 -1.421875 
Q 29.59375 -1.421875 25.265625 0.953125 
Q 20.953125 3.328125 18.109375 8.203125 
L 18.109375 0 
L 9.078125 0 
L 9.078125 75.984375 
L 18.109375 75.984375 
z
" id="DejaVuSans-98"/>
      <path d="M 56.203125 29.59375 
L 56.203125 25.203125 
L 14.890625 25.203125 
Q 15.484375 15.921875 20.484375 11.0625 
Q 25.484375 6.203125 34.421875 6.203125 
Q 39.59375 6.203125 44.453125 7.46875 
Q 49.3125 8.734375 54.109375 11.28125 
L 54.109375 2.78125 
Q 49.265625 0.734375 44.1875 -0.34375 
Q 39.109375 -1.421875 33.890625 -1.421875 
Q 20.796875 -1.421875 13.15625 6.1875 
Q 5.515625 13.8125 5.515625 26.8125 
Q 5.515625 40.234375 12.765625 48.109375 
Q 20.015625 56 32.328125 56 
Q 43.359375 56 49.78125 48.890625 
Q 56.203125 41.796875 56.203125 29.59375 
z
M 47.21875 32.234375 
Q 47.125 39.59375 43.09375 43.984375 
Q 39.0625 48.390625 32.421875 48.390625 
Q 24.90625 48.390625 20.390625 44.140625 
Q 15.875 39.890625 15.1875 32.171875 
z
" id="DejaVuSans-101"/>
      <path d="M 41.109375 46.296875 
Q 39.59375 47.171875 37.8125 47.578125 
Q 36.03125 48 33.890625 48 
Q 26.265625 48 22.1875 43.046875 
Q 18.109375 38.09375 18.109375 28.8125 
L 18.109375 0 
L 9.078125 0 
L 9.078125 54.6875 
L 18.109375 54.6875 
L 18.109375 46.1875 
Q 20.953125 51.171875 25.484375 53.578125 
Q 30.03125 56 36.53125 56 
Q 37.453125 56 38.578125 55.875 
Q 39.703125 55.765625 41.0625 55.515625 
z
" id="DejaVuSans-114"/>
      <path id="DejaVuSans-32"/>
      <path d="M 30.609375 48.390625 
Q 23.390625 48.390625 19.1875 42.75 
Q 14.984375 37.109375 14.984375 27.296875 
Q 14.984375 17.484375 19.15625 11.84375 
Q 23.34375 6.203125 30.609375 6.203125 
Q 37.796875 6.203125 41.984375 11.859375 
Q 46.1875 17.53125 46.1875 27.296875 
Q 46.1875 37.015625 41.984375 42.703125 
Q 37.796875 48.390625 30.609375 48.390625 
z
M 30.609375 56 
Q 42.328125 56 49.015625 48.375 
Q 55.71875 40.765625 55.71875 27.296875 
Q 55.71875 13.875 49.015625 6.21875 
Q 42.328125 -1.421875 30.609375 -1.421875 
Q 18.84375 -1.421875 12.171875 6.21875 
Q 5.515625 13.875 5.515625 27.296875 
Q 5.515625 40.765625 12.171875 48.375 
Q 18.84375 56 30.609375 56 
z
" id="DejaVuSans-111"/>
      <path d="M 37.109375 75.984375 
L 37.109375 68.5 
L 28.515625 68.5 
Q 23.6875 68.5 21.796875 66.546875 
Q 19.921875 64.59375 19.921875 59.515625 
L 19.921875 54.6875 
L 34.71875 54.6875 
L 34.71875 47.703125 
L 19.921875 47.703125 
L 19.921875 0 
L 10.890625 0 
L 10.890625 47.703125 
L 2.296875 47.703125 
L 2.296875 54.6875 
L 10.890625 54.6875 
L 10.890625 58.5 
Q 10.890625 67.625 15.140625 71.796875 
Q 19.390625 75.984375 28.609375 75.984375 
z
" id="DejaVuSans-102"/>
      <path d="M 45.40625 27.984375 
Q 45.40625 37.75 41.375 43.109375 
Q 37.359375 48.484375 30.078125 48.484375 
Q 22.859375 48.484375 18.828125 43.109375 
Q 14.796875 37.75 14.796875 27.984375 
Q 14.796875 18.265625 18.828125 12.890625 
Q 22.859375 7.515625 30.078125 7.515625 
Q 37.359375 7.515625 41.375 12.890625 
Q 45.40625 18.265625 45.40625 27.984375 
z
M 54.390625 6.78125 
Q 54.390625 -7.171875 48.1875 -13.984375 
Q 42 -20.796875 29.203125 -20.796875 
Q 24.46875 -20.796875 20.265625 -20.09375 
Q 16.0625 -19.390625 12.109375 -17.921875 
L 12.109375 -9.1875 
Q 16.0625 -11.328125 19.921875 -12.34375 
Q 23.78125 -13.375 27.78125 -13.375 
Q 36.625 -13.375 41.015625 -8.765625 
Q 45.40625 -4.15625 45.40625 5.171875 
L 45.40625 9.625 
Q 42.625 4.78125 38.28125 2.390625 
Q 33.9375 0 27.875 0 
Q 17.828125 0 11.671875 7.65625 
Q 5.515625 15.328125 5.515625 27.984375 
Q 5.515625 40.671875 11.671875 48.328125 
Q 17.828125 56 27.875 56 
Q 33.9375 56 38.28125 53.609375 
Q 42.625 51.21875 45.40625 46.390625 
L 45.40625 54.6875 
L 54.390625 54.6875 
z
" id="DejaVuSans-103"/>
      <path d="M 34.28125 27.484375 
Q 23.390625 27.484375 19.1875 25 
Q 14.984375 22.515625 14.984375 16.5 
Q 14.984375 11.71875 18.140625 8.90625 
Q 21.296875 6.109375 26.703125 6.109375 
Q 34.1875 6.109375 38.703125 11.40625 
Q 43.21875 16.703125 43.21875 25.484375 
L 43.21875 27.484375 
z
M 52.203125 31.203125 
L 52.203125 0 
L 43.21875 0 
L 43.21875 8.296875 
Q 40.140625 3.328125 35.546875 0.953125 
Q 30.953125 -1.421875 24.3125 -1.421875 
Q 15.921875 -1.421875 10.953125 3.296875 
Q 6 8.015625 6 15.921875 
Q 6 25.140625 12.171875 29.828125 
Q 18.359375 34.515625 30.609375 34.515625 
L 43.21875 34.515625 
L 43.21875 35.40625 
Q 43.21875 41.609375 39.140625 45 
Q 35.0625 48.390625 27.6875 48.390625 
Q 23 48.390625 18.546875 47.265625 
Q 14.109375 46.140625 10.015625 43.890625 
L 10.015625 52.203125 
Q 14.9375 54.109375 19.578125 55.046875 
Q 24.21875 56 28.609375 56 
Q 40.484375 56 46.34375 49.84375 
Q 52.203125 43.703125 52.203125 31.203125 
z
" id="DejaVuSans-97"/>
      <path d="M 44.28125 53.078125 
L 44.28125 44.578125 
Q 40.484375 46.53125 36.375 47.5 
Q 32.28125 48.484375 27.875 48.484375 
Q 21.1875 48.484375 17.84375 46.4375 
Q 14.5 44.390625 14.5 40.28125 
Q 14.5 37.15625 16.890625 35.375 
Q 19.28125 33.59375 26.515625 31.984375 
L 29.59375 31.296875 
Q 39.15625 29.25 43.1875 25.515625 
Q 47.21875 21.78125 47.21875 15.09375 
Q 47.21875 7.46875 41.1875 3.015625 
Q 35.15625 -1.421875 24.609375 -1.421875 
Q 20.21875 -1.421875 15.453125 -0.5625 
Q 10.6875 0.296875 5.421875 2 
L 5.421875 11.28125 
Q 10.40625 8.6875 15.234375 7.390625 
Q 20.0625 6.109375 24.8125 6.109375 
Q 31.15625 6.109375 34.5625 8.28125 
Q 37.984375 10.453125 37.984375 14.40625 
Q 37.984375 18.0625 35.515625 20.015625 
Q 33.0625 21.96875 24.703125 23.78125 
L 21.578125 24.515625 
Q 13.234375 26.265625 9.515625 29.90625 
Q 5.8125 33.546875 5.8125 39.890625 
Q 5.8125 47.609375 11.28125 51.796875 
Q 16.75 56 26.8125 56 
Q 31.78125 56 36.171875 55.265625 
Q 40.578125 54.546875 44.28125 53.078125 
z
" id="DejaVuSans-115"/>
     </defs>
     <g transform="translate(192.871094 414.912344)scale(0.25 -0.25)">
      <use xlink:href="#DejaVuSans-110"/>
      <use x="63.378906" xlink:href="#DejaVuSans-117"/>
      <use x="126.757812" xlink:href="#DejaVuSans-109"/>
      <use x="224.169922" xlink:href="#DejaVuSans-98"/>
      <use x="287.646484" xlink:href="#DejaVuSans-101"/>
      <use x="349.169922" xlink:href="#DejaVuSans-114"/>
      <use x="390.283203" xlink:href="#DejaVuSans-32"/>
      <use x="422.070312" xlink:href="#DejaVuSans-111"/>
      <use x="483.251953" xlink:href="#DejaVuSans-102"/>
      <use x="518.457031" xlink:href="#DejaVuSans-32"/>
      <use x="550.244141" xlink:href="#DejaVuSans-103"/>
      <use x="613.720703" xlink:href="#DejaVuSans-97"/>
      <use x="675" xlink:href="#DejaVuSans-109"/>
      <use x="772.412109" xlink:href="#DejaVuSans-101"/>
      <use x="833.935547" xlink:href="#DejaVuSans-115"/>
     </g>
    </g>
   </g>
   <g id="matplotlib.axis_2">
    <g id="ytick_1">
     <g id="line2d_6">
      <defs>
       <path d="M 0 0 
L -3.5 0 
" id="m0cd487d890" style="stroke:#000000;stroke-width:0.8;"/>
      </defs>
      <g>
       <use style="stroke:#000000;stroke-width:0.8;" x="78.05" xlink:href="#m0cd487d890" y="353.961818"/>
      </g>
     </g>
     <g id="text_7">
      <!-- 0.0 -->
      <defs>
       <path d="M 10.6875 12.40625 
L 21 12.40625 
L 21 0 
L 10.6875 0 
z
" id="DejaVuSans-46"/>
      </defs>
      <g transform="translate(39.24375 361.560256)scale(0.2 -0.2)">
       <use xlink:href="#DejaVuSans-48"/>
       <use x="63.623047" xlink:href="#DejaVuSans-46"/>
       <use x="95.410156" xlink:href="#DejaVuSans-48"/>
      </g>
     </g>
    </g>
    <g id="ytick_2">
     <g id="line2d_7">
      <g>
       <use style="stroke:#000000;stroke-width:0.8;" x="78.05" xlink:href="#m0cd487d890" y="307.569091"/>
      </g>
     </g>
     <g id="text_8">
      <!-- 0.2 -->
      <g transform="translate(39.24375 315.167528)scale(0.2 -0.2)">
       <use xlink:href="#DejaVuSans-48"/>
       <use x="63.623047" xlink:href="#DejaVuSans-46"/>
       <use x="95.410156" xlink:href="#DejaVuSans-50"/>
      </g>
     </g>
    </g>
    <g id="ytick_3">
     <g id="line2d_8">
      <g>
       <use style="stroke:#000000;stroke-width:0.8;" x="78.05" xlink:href="#m0cd487d890" y="261.176364"/>
      </g>
     </g>
     <g id="text_9">
      <!-- 0.4 -->
      <g transform="translate(39.24375 268.774801)scale(0.2 -0.2)">
       <use xlink:href="#DejaVuSans-48"/>
       <use x="63.623047" xlink:href="#DejaVuSans-46"/>
       <use x="95.410156" xlink:href="#DejaVuSans-52"/>
      </g>
     </g>
    </g>
    <g id="ytick_4">
     <g id="line2d_9">
      <g>
       <use style="stroke:#000000;stroke-width:0.8;" x="78.05" xlink:href="#m0cd487d890" y="214.783636"/>
      </g>
     </g>
     <g id="text_10">
      <!-- 0.6 -->
      <g transform="translate(39.24375 222.382074)scale(0.2 -0.2)">
       <use xlink:href="#DejaVuSans-48"/>
       <use x="63.623047" xlink:href="#DejaVuSans-46"/>
       <use x="95.410156" xlink:href="#DejaVuSans-54"/>
      </g>
     </g>
    </g>
    <g id="ytick_5">
     <g id="line2d_10">
      <g>
       <use style="stroke:#000000;stroke-width:0.8;" x="78.05" xlink:href="#m0cd487d890" y="168.390909"/>
      </g>
     </g>
     <g id="text_11">
      <!-- 0.8 -->
      <g transform="translate(39.24375 175.989347)scale(0.2 -0.2)">
       <use xlink:href="#DejaVuSans-48"/>
       <use x="63.623047" xlink:href="#DejaVuSans-46"/>
       <use x="95.410156" xlink:href="#DejaVuSans-56"/>
      </g>
     </g>
    </g>
    <g id="ytick_6">
     <g id="line2d_11">
      <g>
       <use style="stroke:#000000;stroke-width:0.8;" x="78.05" xlink:href="#m0cd487d890" y="121.998182"/>
      </g>
     </g>
     <g id="text_12">
      <!-- 1.0 -->
      <defs>
       <path d="M 12.40625 8.296875 
L 28.515625 8.296875 
L 28.515625 63.921875 
L 10.984375 60.40625 
L 10.984375 69.390625 
L 28.421875 72.90625 
L 38.28125 72.90625 
L 38.28125 8.296875 
L 54.390625 8.296875 
L 54.390625 0 
L 12.40625 0 
z
" id="DejaVuSans-49"/>
      </defs>
      <g transform="translate(39.24375 129.596619)scale(0.2 -0.2)">
       <use xlink:href="#DejaVuSans-49"/>
       <use x="63.623047" xlink:href="#DejaVuSans-46"/>
       <use x="95.410156" xlink:href="#DejaVuSans-48"/>
      </g>
     </g>
    </g>
    <g id="text_13">
     <!-- Def-Uncertainty -->
     <defs>
      <path d="M 19.671875 64.796875 
L 19.671875 8.109375 
L 31.59375 8.109375 
Q 46.6875 8.109375 53.6875 14.9375 
Q 60.6875 21.78125 60.6875 36.53125 
Q 60.6875 51.171875 53.6875 57.984375 
Q 46.6875 64.796875 31.59375 64.796875 
z
M 9.8125 72.90625 
L 30.078125 72.90625 
Q 51.265625 72.90625 61.171875 64.09375 
Q 71.09375 55.28125 71.09375 36.53125 
Q 71.09375 17.671875 61.125 8.828125 
Q 51.171875 0 30.078125 0 
L 9.8125 0 
z
" id="DejaVuSans-68"/>
      <path d="M 4.890625 31.390625 
L 31.203125 31.390625 
L 31.203125 23.390625 
L 4.890625 23.390625 
z
" id="DejaVuSans-45"/>
      <path d="M 8.6875 72.90625 
L 18.609375 72.90625 
L 18.609375 28.609375 
Q 18.609375 16.890625 22.84375 11.734375 
Q 27.09375 6.59375 36.625 6.59375 
Q 46.09375 6.59375 50.34375 11.734375 
Q 54.59375 16.890625 54.59375 28.609375 
L 54.59375 72.90625 
L 64.5 72.90625 
L 64.5 27.390625 
Q 64.5 13.140625 57.4375 5.859375 
Q 50.390625 -1.421875 36.625 -1.421875 
Q 22.796875 -1.421875 15.734375 5.859375 
Q 8.6875 13.140625 8.6875 27.390625 
z
" id="DejaVuSans-85"/>
      <path d="M 48.78125 52.59375 
L 48.78125 44.1875 
Q 44.96875 46.296875 41.140625 47.34375 
Q 37.3125 48.390625 33.40625 48.390625 
Q 24.65625 48.390625 19.8125 42.84375 
Q 14.984375 37.3125 14.984375 27.296875 
Q 14.984375 17.28125 19.8125 11.734375 
Q 24.65625 6.203125 33.40625 6.203125 
Q 37.3125 6.203125 41.140625 7.25 
Q 44.96875 8.296875 48.78125 10.40625 
L 48.78125 2.09375 
Q 45.015625 0.34375 40.984375 -0.53125 
Q 36.96875 -1.421875 32.421875 -1.421875 
Q 20.0625 -1.421875 12.78125 6.34375 
Q 5.515625 14.109375 5.515625 27.296875 
Q 5.515625 40.671875 12.859375 48.328125 
Q 20.21875 56 33.015625 56 
Q 37.15625 56 41.109375 55.140625 
Q 45.0625 54.296875 48.78125 52.59375 
z
" id="DejaVuSans-99"/>
      <path d="M 18.3125 70.21875 
L 18.3125 54.6875 
L 36.8125 54.6875 
L 36.8125 47.703125 
L 18.3125 47.703125 
L 18.3125 18.015625 
Q 18.3125 11.328125 20.140625 9.421875 
Q 21.96875 7.515625 27.59375 7.515625 
L 36.8125 7.515625 
L 36.8125 0 
L 27.59375 0 
Q 17.1875 0 13.234375 3.875 
Q 9.28125 7.765625 9.28125 18.015625 
L 9.28125 47.703125 
L 2.6875 47.703125 
L 2.6875 54.6875 
L 9.28125 54.6875 
L 9.28125 70.21875 
z
" id="DejaVuSans-116"/>
      <path d="M 9.421875 54.6875 
L 18.40625 54.6875 
L 18.40625 0 
L 9.421875 0 
z
M 9.421875 75.984375 
L 18.40625 75.984375 
L 18.40625 64.59375 
L 9.421875 64.59375 
z
" id="DejaVuSans-105"/>
      <path d="M 32.171875 -5.078125 
Q 28.375 -14.84375 24.75 -17.8125 
Q 21.140625 -20.796875 15.09375 -20.796875 
L 7.90625 -20.796875 
L 7.90625 -13.28125 
L 13.1875 -13.28125 
Q 16.890625 -13.28125 18.9375 -11.515625 
Q 21 -9.765625 23.484375 -3.21875 
L 25.09375 0.875 
L 2.984375 54.6875 
L 12.5 54.6875 
L 29.59375 11.921875 
L 46.6875 54.6875 
L 56.203125 54.6875 
z
" id="DejaVuSans-121"/>
     </defs>
     <g transform="translate(30.044531 337.224141)rotate(-90)scale(0.25 -0.25)">
      <use xlink:href="#DejaVuSans-68"/>
      <use x="77.001953" xlink:href="#DejaVuSans-101"/>
      <use x="138.525391" xlink:href="#DejaVuSans-102"/>
      <use x="173.652344" xlink:href="#DejaVuSans-45"/>
      <use x="209.736328" xlink:href="#DejaVuSans-85"/>
      <use x="282.929688" xlink:href="#DejaVuSans-110"/>
      <use x="346.308594" xlink:href="#DejaVuSans-99"/>
      <use x="401.289062" xlink:href="#DejaVuSans-101"/>
      <use x="462.8125" xlink:href="#DejaVuSans-114"/>
      <use x="503.925781" xlink:href="#DejaVuSans-116"/>
      <use x="543.134766" xlink:href="#DejaVuSans-97"/>
      <use x="604.414062" xlink:href="#DejaVuSans-105"/>
      <use x="632.197266" xlink:href="#DejaVuSans-110"/>
      <use x="695.576172" xlink:href="#DejaVuSans-116"/>
      <use x="734.785156" xlink:href="#DejaVuSans-121"/>
     </g>
    </g>
   </g>
   <g id="line2d_12">
    <path clip-path="url(#p79e357a3e0)" d="M 98.556818 204.467124 
L 103.217459 233.365892 
L 107.878099 250.048975 
L 112.53874 265.699339 
L 117.19938 277.066653 
L 121.860021 284.418503 
L 126.520661 292.316062 
L 131.181302 297.161735 
L 135.841942 301.462524 
L 140.502583 305.694905 
L 145.163223 309.2264 
L 149.823864 312.133828 
L 154.484504 315.257121 
L 159.145145 317.655602 
L 163.805785 319.659304 
L 168.466426 321.712755 
L 173.127066 323.54655 
L 177.787707 325.344266 
L 182.448347 326.875365 
L 187.108988 328.999091 
L 191.769628 329.913568 
L 196.430269 330.924414 
L 201.090909 331.851957 
L 205.75155 332.952375 
L 210.41219 334.113114 
L 215.072831 334.735351 
L 219.733471 335.264685 
L 224.394112 335.744755 
L 229.054752 336.24496 
L 233.715393 336.482207 
L 238.376033 337.276316 
L 243.036674 337.877568 
L 247.697314 338.31126 
L 252.357955 338.775794 
L 257.018595 338.759913 
L 261.679236 338.780345 
L 266.339876 339.118351 
L 271.000517 339.389543 
L 275.661157 339.714314 
L 280.321798 340.030779 
L 284.982438 340.371423 
L 289.643079 340.919111 
L 294.303719 340.584379 
L 298.96436 340.923729 
L 303.625 340.796835 
L 308.28564 341.068387 
L 312.946281 341.127544 
L 317.606921 340.724045 
L 322.267562 341.014652 
L 326.928202 340.76008 
L 331.588843 340.44899 
L 336.249483 341.121337 
L 340.910124 340.925251 
L 345.570764 341.737358 
L 350.231405 342.306957 
L 354.892045 342.506211 
L 359.552686 342.698767 
L 364.213326 342.884959 
L 368.873967 343.065096 
L 373.534607 344.004622 
L 378.195248 344.203966 
L 382.855888 344.109893 
L 387.516529 344.458457 
L 392.177169 344.601669 
L 396.83781 344.740629 
L 401.49845 344.875524 
L 406.159091 345.145447 
L 410.819731 345.270795 
L 415.480372 345.392629 
L 420.141012 345.511096 
L 424.801653 345.946291 
L 429.462293 346.054193 
L 434.122934 346.212245 
L 438.783574 346.313849 
L 443.444215 346.412824 
L 448.104855 346.682397 
L 452.765496 346.774259 
L 457.426136 347.174282 
L 462.086777 347.257879 
L 466.747417 347.339441 
L 471.408058 347.419043 
L 476.068698 347.612299 
L 480.729339 347.237636 
L 485.389979 347.3156 
L 490.05062 347.391776 
L 494.71126 347.466227 
L 499.371901 347.539009 
L 504.032541 347.610178 
L 508.693182 347.679787 
" style="fill:none;stroke:#1f77b4;stroke-linecap:square;stroke-width:3;"/>
    <defs>
     <path d="M 0 -5 
L -4.755283 -1.545085 
L -2.938926 4.045085 
L 2.938926 4.045085 
L 4.755283 -1.545085 
z
" id="m9139b5dfa1" style="stroke:#1f77b4;stroke-linejoin:miter;"/>
    </defs>
    <g clip-path="url(#p79e357a3e0)">
     <use style="fill:#1f77b4;stroke:#1f77b4;stroke-linejoin:miter;" x="98.556818" xlink:href="#m9139b5dfa1" y="204.467124"/>
     <use style="fill:#1f77b4;stroke:#1f77b4;stroke-linejoin:miter;" x="331.588843" xlink:href="#m9139b5dfa1" y="340.44899"/>
    </g>
   </g>
   <g id="line2d_13">
    <path clip-path="url(#p79e357a3e0)" d="M 98.556818 353.961818 
L 103.217459 353.961818 
L 107.878099 353.961818 
L 112.53874 353.961818 
L 117.19938 353.961818 
L 121.860021 353.961818 
L 126.520661 353.961818 
L 131.181302 353.961818 
L 135.841942 353.961818 
L 140.502583 353.961818 
L 145.163223 353.961818 
L 149.823864 353.961818 
L 154.484504 353.961818 
L 159.145145 353.961818 
L 163.805785 353.961818 
L 168.466426 353.961818 
L 173.127066 353.961818 
L 177.787707 353.961818 
L 182.448347 353.961818 
L 187.108988 353.961818 
L 191.769628 353.961818 
L 196.430269 353.961818 
L 201.090909 353.961818 
L 205.75155 353.961818 
L 210.41219 353.961818 
L 215.072831 353.961818 
L 219.733471 353.961818 
L 224.394112 353.961818 
L 229.054752 353.961818 
L 233.715393 353.961818 
L 238.376033 353.961818 
L 243.036674 353.961818 
L 247.697314 353.961818 
L 252.357955 353.961818 
L 257.018595 353.961818 
L 261.679236 353.961818 
L 266.339876 353.961818 
L 271.000517 353.961818 
L 275.661157 353.961818 
L 280.321798 353.961818 
L 284.982438 353.961818 
L 289.643079 353.961818 
L 294.303719 353.961818 
L 298.96436 353.961818 
L 303.625 353.961818 
L 308.28564 353.961818 
L 312.946281 353.961818 
L 317.606921 353.961818 
L 322.267562 353.961818 
L 326.928202 353.961818 
L 331.588843 353.961818 
L 336.249483 353.961818 
L 340.910124 353.961818 
L 345.570764 353.961818 
" style="fill:none;stroke:#ff7f0e;stroke-dasharray:11.1,4.8;stroke-dashoffset:0;stroke-width:3;"/>
    <defs>
     <path d="M -0 7.071068 
L 4.242641 0 
L -0 -7.071068 
L -4.242641 -0 
z
" id="m72356064c8" style="stroke:#ff7f0e;stroke-linejoin:miter;"/>
    </defs>
    <g clip-path="url(#p79e357a3e0)">
     <use style="fill:#ff7f0e;stroke:#ff7f0e;stroke-linejoin:miter;" x="98.556818" xlink:href="#m72356064c8" y="353.961818"/>
     <use style="fill:#ff7f0e;stroke:#ff7f0e;stroke-linejoin:miter;" x="331.588843" xlink:href="#m72356064c8" y="353.961818"/>
    </g>
   </g>
   <g id="line2d_14">
    <path clip-path="url(#p79e357a3e0)" d="M 98.556818 216.617882 
L 103.217459 241.301253 
L 107.878099 259.299161 
L 112.53874 272.925537 
L 117.19938 283.395239 
L 121.860021 292.784332 
L 126.520661 299.389823 
L 131.181302 303.199519 
L 135.841942 307.698262 
L 140.502583 311.236937 
L 145.163223 313.747458 
L 149.823864 316.320086 
L 154.484504 317.93684 
L 159.145145 320.637305 
L 163.805785 322.412511 
L 168.466426 323.82247 
L 173.127066 325.745975 
L 177.787707 327.274234 
L 182.448347 328.4381 
L 187.108988 329.292298 
L 191.769628 330.228095 
L 196.430269 330.544832 
L 201.090909 331.564052 
L 205.75155 332.624806 
L 210.41219 333.457202 
L 215.072831 333.964287 
L 219.733471 334.352988 
L 224.394112 334.848159 
L 229.054752 335.275288 
L 233.715393 336.027838 
L 238.376033 336.563014 
L 243.036674 336.903046 
L 247.697314 337.858097 
L 252.357955 338.10032 
L 257.018595 338.731544 
L 261.679236 338.921924 
L 266.339876 339.217169 
L 271.000517 339.846993 
L 275.661157 340.203686 
L 280.321798 340.40198 
L 284.982438 340.38687 
L 289.643079 340.655849 
L 294.303719 341.28874 
L 298.96436 341.250709 
L 303.625 341.677982 
L 308.28564 342.031345 
L 312.946281 342.247816 
L 317.606921 342.605972 
L 322.267562 342.712119 
L 326.928202 343.247403 
L 331.588843 343.75952 
L 336.249483 343.904978 
L 340.910124 344.408753 
L 345.570764 345.11084 
L 350.231405 346.007841 
L 354.892045 345.666992 
L 359.552686 345.807043 
L 364.213326 345.517841 
L 368.873967 345.655748 
L 373.534607 345.844929 
L 378.195248 345.973298 
L 382.855888 346.09767 
L 387.516529 346.166403 
L 392.177169 346.454952 
L 396.83781 346.566649 
L 401.49845 346.719501 
L 406.159091 346.824147 
L 410.819731 346.851382 
L 415.480372 346.951232 
L 420.141012 347.151439 
L 424.801653 347.535928 
L 429.462293 347.622627 
L 434.122934 347.707018 
L 438.783574 347.768756 
L 443.444215 347.877616 
L 448.104855 347.955492 
L 452.765496 348.031399 
L 457.426136 348.75127 
L 462.086777 348.815591 
L 466.747417 350.077433 
L 471.408058 350.12441 
L 476.068698 350.001434 
L 480.729339 350.238321 
L 485.389979 350.281777 
L 490.05062 350.622789 
L 494.71126 350.660894 
L 499.371901 350.037489 
" style="fill:none;stroke:#2ca02c;stroke-dasharray:19.2,4.8,3,4.8;stroke-dashoffset:0;stroke-width:3;"/>
    <defs>
     <path d="M -0 5 
L 5 -5 
L -5 -5 
z
" id="md3dadbd79e" style="stroke:#2ca02c;stroke-linejoin:miter;"/>
    </defs>
    <g clip-path="url(#p79e357a3e0)">
     <use style="fill:#2ca02c;stroke:#2ca02c;stroke-linejoin:miter;" x="98.556818" xlink:href="#md3dadbd79e" y="216.617882"/>
     <use style="fill:#2ca02c;stroke:#2ca02c;stroke-linejoin:miter;" x="331.588843" xlink:href="#md3dadbd79e" y="343.75952"/>
    </g>
   </g>
   <g id="line2d_15">
    <path clip-path="url(#p79e357a3e0)" d="M 98.556818 353.961818 
L 103.217459 353.961818 
L 107.878099 353.961818 
L 112.53874 353.961818 
L 117.19938 353.961818 
L 121.860021 353.961818 
L 126.520661 353.961818 
L 131.181302 353.961818 
L 135.841942 353.961818 
L 140.502583 353.961818 
L 145.163223 353.961818 
L 149.823864 353.961818 
L 154.484504 353.961818 
L 159.145145 353.961818 
L 163.805785 353.961818 
L 168.466426 353.961818 
L 173.127066 353.961818 
L 177.787707 353.961818 
L 182.448347 353.961818 
L 187.108988 353.961818 
L 191.769628 353.961818 
L 196.430269 353.961818 
L 201.090909 353.961818 
L 205.75155 353.961818 
L 210.41219 353.961818 
L 215.072831 353.961818 
L 219.733471 353.961818 
L 224.394112 353.961818 
L 229.054752 353.961818 
L 233.715393 353.961818 
L 238.376033 353.961818 
L 243.036674 353.961818 
L 247.697314 353.961818 
L 252.357955 353.961818 
L 257.018595 353.961818 
L 261.679236 353.961818 
L 266.339876 353.961818 
L 271.000517 353.961818 
L 275.661157 353.961818 
L 280.321798 353.961818 
L 284.982438 353.961818 
L 289.643079 353.961818 
L 294.303719 353.961818 
L 298.96436 353.961818 
L 303.625 353.961818 
L 308.28564 353.961818 
L 312.946281 353.961818 
L 317.606921 353.961818 
L 322.267562 353.961818 
L 326.928202 353.961818 
L 331.588843 353.961818 
L 336.249483 353.961818 
L 340.910124 353.961818 
L 345.570764 353.961818 
L 350.231405 353.961818 
L 354.892045 353.961818 
L 359.552686 353.961818 
L 364.213326 353.961818 
L 368.873967 353.961818 
L 373.534607 353.961818 
L 378.195248 353.961818 
L 382.855888 353.961818 
L 387.516529 353.961818 
L 392.177169 353.961818 
L 396.83781 353.961818 
L 401.49845 353.961818 
L 406.159091 353.961818 
L 410.819731 353.961818 
L 415.480372 353.961818 
L 420.141012 353.961818 
L 424.801653 353.961818 
L 429.462293 353.961818 
L 434.122934 353.961818 
L 438.783574 353.961818 
L 443.444215 353.961818 
L 448.104855 353.961818 
L 452.765496 353.961818 
L 457.426136 353.961818 
L 462.086777 353.961818 
L 466.747417 353.961818 
L 471.408058 353.961818 
L 476.068698 353.961818 
" style="fill:none;stroke:#d62728;stroke-dasharray:3,4.95;stroke-dashoffset:0;stroke-width:3;"/>
    <defs>
     <path d="M -5 5 
L 5 -5 
M -5 -5 
L 5 5 
" id="m7345eb7b07" style="stroke:#d62728;"/>
    </defs>
    <g clip-path="url(#p79e357a3e0)">
     <use style="fill:#d62728;stroke:#d62728;" x="98.556818" xlink:href="#m7345eb7b07" y="353.961818"/>
     <use style="fill:#d62728;stroke:#d62728;" x="331.588843" xlink:href="#m7345eb7b07" y="353.961818"/>
    </g>
   </g>
   <g id="line2d_16">
    <path clip-path="url(#p79e357a3e0)" d="M 98.556818 121.998182 
L 103.217459 121.998182 
L 107.878099 121.998182 
L 112.53874 121.998182 
L 117.19938 121.998182 
L 121.860021 121.998182 
L 126.520661 121.998182 
L 131.181302 121.998182 
L 135.841942 121.998182 
L 140.502583 121.998182 
L 145.163223 121.998182 
L 149.823864 121.998182 
L 154.484504 121.998182 
L 159.145145 121.998182 
L 163.805785 121.998182 
L 168.466426 121.998182 
L 173.127066 121.998182 
L 177.787707 121.998182 
L 182.448347 121.998182 
L 187.108988 121.998182 
L 191.769628 121.998182 
L 196.430269 121.998182 
L 201.090909 121.998182 
L 205.75155 121.998182 
L 210.41219 121.998182 
L 215.072831 121.998182 
L 219.733471 121.998182 
L 224.394112 121.998182 
L 229.054752 121.998182 
L 233.715393 121.998182 
L 238.376033 121.998182 
L 243.036674 121.998182 
L 247.697314 121.998182 
L 252.357955 121.998182 
L 257.018595 121.998182 
L 261.679236 121.998182 
L 266.339876 121.998182 
L 271.000517 121.998182 
L 275.661157 121.998182 
L 280.321798 121.998182 
L 284.982438 121.998182 
L 289.643079 121.998182 
L 294.303719 121.998182 
L 298.96436 121.998182 
" style="fill:none;stroke:#9467bd;stroke-linecap:square;stroke-width:3;"/>
    <defs>
     <path d="M -5 5 
L 5 5 
L 5 -5 
L -5 -5 
z
" id="m0e82415048" style="stroke:#9467bd;stroke-linejoin:miter;"/>
    </defs>
    <g clip-path="url(#p79e357a3e0)">
     <use style="fill:#9467bd;stroke:#9467bd;stroke-linejoin:miter;" x="98.556818" xlink:href="#m0e82415048" y="121.998182"/>
    </g>
   </g>
   <g id="line2d_17">
    <path clip-path="url(#p79e357a3e0)" d="M 98.556818 205.114923 
L 103.217459 232.229604 
L 107.878099 252.650252 
L 112.53874 266.745795 
L 117.19938 274.355923 
L 121.860021 271.979786 
L 126.520661 279.798157 
" style="fill:none;stroke:#8c564b;stroke-dasharray:11.1,4.8;stroke-dashoffset:0;stroke-width:3;"/>
    <defs>
     <path d="M 0 -5 
L -1.12257 -1.545085 
L -4.755283 -1.545085 
L -1.816356 0.59017 
L -2.938926 4.045085 
L -0 1.90983 
L 2.938926 4.045085 
L 1.816356 0.59017 
L 4.755283 -1.545085 
L 1.12257 -1.545085 
z
" id="m92cf9e4249" style="stroke:#8c564b;stroke-linejoin:bevel;"/>
    </defs>
    <g clip-path="url(#p79e357a3e0)">
     <use style="fill:#8c564b;stroke:#8c564b;stroke-linejoin:bevel;" x="98.556818" xlink:href="#m92cf9e4249" y="205.114923"/>
    </g>
   </g>
   <g id="line2d_18">
    <path clip-path="url(#p79e357a3e0)" d="M 98.556818 353.961818 
L 103.217459 353.961818 
L 107.878099 353.961818 
L 112.53874 353.961818 
L 117.19938 353.961818 
L 121.860021 353.961818 
" style="fill:none;stroke:#e377c2;stroke-dasharray:19.2,4.8,3,4.8;stroke-dashoffset:0;stroke-width:3;"/>
    <defs>
     <path d="M 0 0 
L 0 5 
M 0 0 
L 4 -2.5 
M 0 0 
L -4 -2.5 
" id="m8d88747c5e" style="stroke:#e377c2;"/>
    </defs>
    <g clip-path="url(#p79e357a3e0)">
     <use style="fill:#e377c2;stroke:#e377c2;" x="98.556818" xlink:href="#m8d88747c5e" y="353.961818"/>
    </g>
   </g>
   <g id="line2d_19">
    <path clip-path="url(#p79e357a3e0)" d="M 98.556818 121.998182 
L 103.217459 121.998182 
L 107.878099 121.998182 
L 112.53874 121.998182 
L 117.19938 121.998182 
L 121.860021 121.998182 
" style="fill:none;stroke:#7f7f7f;stroke-dasharray:3,4.95;stroke-dashoffset:0;stroke-width:3;"/>
    <defs>
     <path d="M 0 2.5 
C 0.663008 2.5 1.29895 2.236584 1.767767 1.767767 
C 2.236584 1.29895 2.5 0.663008 2.5 0 
C 2.5 -0.663008 2.236584 -1.29895 1.767767 -1.767767 
C 1.29895 -2.236584 0.663008 -2.5 0 -2.5 
C -0.663008 -2.5 -1.29895 -2.236584 -1.767767 -1.767767 
C -2.236584 -1.29895 -2.5 -0.663008 -2.5 0 
C -2.5 0.663008 -2.236584 1.29895 -1.767767 1.767767 
C -1.29895 2.236584 -0.663008 2.5 0 2.5 
z
" id="md1bb50e67f" style="stroke:#7f7f7f;"/>
    </defs>
    <g clip-path="url(#p79e357a3e0)">
     <use style="fill:#7f7f7f;stroke:#7f7f7f;" x="98.556818" xlink:href="#md1bb50e67f" y="121.998182"/>
    </g>
   </g>
   <g id="patch_3">
    <path d="M 78.05 365.56 
L 78.05 110.4 
" style="fill:none;stroke:#000000;stroke-linecap:square;stroke-linejoin:miter;stroke-width:0.8;"/>
   </g>
   <g id="patch_4">
    <path d="M 529.2 365.56 
L 529.2 110.4 
" style="fill:none;stroke:#000000;stroke-linecap:square;stroke-linejoin:miter;stroke-width:0.8;"/>
   </g>
   <g id="patch_5">
    <path d="M 78.05 365.56 
L 529.2 365.56 
" style="fill:none;stroke:#000000;stroke-linecap:square;stroke-linejoin:miter;stroke-width:0.8;"/>
   </g>
   <g id="patch_6">
    <path d="M 78.05 110.4 
L 529.2 110.4 
" style="fill:none;stroke:#000000;stroke-linecap:square;stroke-linejoin:miter;stroke-width:0.8;"/>
   </g>
   <g id="legend_1">
    <g id="patch_7">
     <path d="M 88.55 102.9 
L 518.7 102.9 
Q 521.7 102.9 521.7 99.9 
L 521.7 13.33125 
Q 521.7 10.33125 518.7 10.33125 
L 88.55 10.33125 
Q 85.55 10.33125 85.55 13.33125 
L 85.55 99.9 
Q 85.55 102.9 88.55 102.9 
z
" style="fill:#ffffff;opacity:0.8;stroke:#cccccc;stroke-linejoin:miter;"/>
    </g>
    <g id="line2d_20">
     <path d="M 91.55 22.478906 
L 121.55 22.478906 
" style="fill:none;stroke:#1f77b4;stroke-linecap:square;stroke-width:3;"/>
    </g>
    <g id="line2d_21">
     <g>
      <use style="fill:#1f77b4;stroke:#1f77b4;stroke-linejoin:miter;" x="106.55" xlink:href="#m9139b5dfa1" y="22.478906"/>
     </g>
    </g>
    <g id="text_14">
     <!-- DD-IPI -->
     <defs>
      <path d="M 9.8125 72.90625 
L 19.671875 72.90625 
L 19.671875 0 
L 9.8125 0 
z
" id="DejaVuSans-73"/>
      <path d="M 19.671875 64.796875 
L 19.671875 37.40625 
L 32.078125 37.40625 
Q 38.96875 37.40625 42.71875 40.96875 
Q 46.484375 44.53125 46.484375 51.125 
Q 46.484375 57.671875 42.71875 61.234375 
Q 38.96875 64.796875 32.078125 64.796875 
z
M 9.8125 72.90625 
L 32.078125 72.90625 
Q 44.34375 72.90625 50.609375 67.359375 
Q 56.890625 61.8125 56.890625 51.125 
Q 56.890625 40.328125 50.609375 34.8125 
Q 44.34375 29.296875 32.078125 29.296875 
L 19.671875 29.296875 
L 19.671875 0 
L 9.8125 0 
z
" id="DejaVuSans-80"/>
     </defs>
     <g transform="translate(133.55 27.728906)scale(0.15 -0.15)">
      <use xlink:href="#DejaVuSans-68"/>
      <use x="77.001953" xlink:href="#DejaVuSans-68"/>
      <use x="154.003906" xlink:href="#DejaVuSans-45"/>
      <use x="190.087891" xlink:href="#DejaVuSans-73"/>
      <use x="219.580078" xlink:href="#DejaVuSans-80"/>
      <use x="279.882812" xlink:href="#DejaVuSans-73"/>
     </g>
    </g>
    <g id="line2d_22">
     <path d="M 91.55 44.496094 
L 121.55 44.496094 
" style="fill:none;stroke:#ff7f0e;stroke-dasharray:11.1,4.8;stroke-dashoffset:0;stroke-width:3;"/>
    </g>
    <g id="line2d_23">
     <g>
      <use style="fill:#ff7f0e;stroke:#ff7f0e;stroke-linejoin:miter;" x="106.55" xlink:href="#m72356064c8" y="44.496094"/>
     </g>
    </g>
    <g id="text_15">
     <!-- DD-PI -->
     <g transform="translate(133.55 49.746094)scale(0.15 -0.15)">
      <use xlink:href="#DejaVuSans-68"/>
      <use x="77.001953" xlink:href="#DejaVuSans-68"/>
      <use x="154.003906" xlink:href="#DejaVuSans-45"/>
      <use x="190.087891" xlink:href="#DejaVuSans-80"/>
      <use x="250.390625" xlink:href="#DejaVuSans-73"/>
     </g>
    </g>
    <g id="line2d_24">
     <path d="M 91.55 66.513281 
L 121.55 66.513281 
" style="fill:none;stroke:#2ca02c;stroke-dasharray:19.2,4.8,3,4.8;stroke-dashoffset:0;stroke-width:3;"/>
    </g>
    <g id="line2d_25">
     <g>
      <use style="fill:#2ca02c;stroke:#2ca02c;stroke-linejoin:miter;" x="106.55" xlink:href="#md3dadbd79e" y="66.513281"/>
     </g>
    </g>
    <g id="text_16">
     <!-- DD-ML-IPI -->
     <defs>
      <path d="M 9.8125 72.90625 
L 24.515625 72.90625 
L 43.109375 23.296875 
L 61.8125 72.90625 
L 76.515625 72.90625 
L 76.515625 0 
L 66.890625 0 
L 66.890625 64.015625 
L 48.09375 14.015625 
L 38.1875 14.015625 
L 19.390625 64.015625 
L 19.390625 0 
L 9.8125 0 
z
" id="DejaVuSans-77"/>
      <path d="M 9.8125 72.90625 
L 19.671875 72.90625 
L 19.671875 8.296875 
L 55.171875 8.296875 
L 55.171875 0 
L 9.8125 0 
z
" id="DejaVuSans-76"/>
     </defs>
     <g transform="translate(133.55 71.763281)scale(0.15 -0.15)">
      <use xlink:href="#DejaVuSans-68"/>
      <use x="77.001953" xlink:href="#DejaVuSans-68"/>
      <use x="154.003906" xlink:href="#DejaVuSans-45"/>
      <use x="190.087891" xlink:href="#DejaVuSans-77"/>
      <use x="276.367188" xlink:href="#DejaVuSans-76"/>
      <use x="332.064453" xlink:href="#DejaVuSans-45"/>
      <use x="368.148438" xlink:href="#DejaVuSans-73"/>
      <use x="397.640625" xlink:href="#DejaVuSans-80"/>
      <use x="457.943359" xlink:href="#DejaVuSans-73"/>
     </g>
    </g>
    <g id="line2d_26">
     <path d="M 91.55 88.530469 
L 121.55 88.530469 
" style="fill:none;stroke:#d62728;stroke-dasharray:3,4.95;stroke-dashoffset:0;stroke-width:3;"/>
    </g>
    <g id="line2d_27">
     <g>
      <use style="fill:#d62728;stroke:#d62728;" x="106.55" xlink:href="#m7345eb7b07" y="88.530469"/>
     </g>
    </g>
    <g id="text_17">
     <!-- DD-ML-PI -->
     <g transform="translate(133.55 93.780469)scale(0.15 -0.15)">
      <use xlink:href="#DejaVuSans-68"/>
      <use x="77.001953" xlink:href="#DejaVuSans-68"/>
      <use x="154.003906" xlink:href="#DejaVuSans-45"/>
      <use x="190.087891" xlink:href="#DejaVuSans-77"/>
      <use x="276.367188" xlink:href="#DejaVuSans-76"/>
      <use x="332.064453" xlink:href="#DejaVuSans-45"/>
      <use x="368.148438" xlink:href="#DejaVuSans-80"/>
      <use x="428.451172" xlink:href="#DejaVuSans-73"/>
     </g>
    </g>
    <g id="line2d_28">
     <path d="M 356.946094 22.478906 
L 386.946094 22.478906 
" style="fill:none;stroke:#9467bd;stroke-linecap:square;stroke-width:3;"/>
    </g>
    <g id="line2d_29">
     <g>
      <use style="fill:#9467bd;stroke:#9467bd;stroke-linejoin:miter;" x="371.946094" xlink:href="#m0e82415048" y="22.478906"/>
     </g>
    </g>
    <g id="text_18">
     <!-- DD-Random -->
     <defs>
      <path d="M 44.390625 34.1875 
Q 47.5625 33.109375 50.5625 29.59375 
Q 53.5625 26.078125 56.59375 19.921875 
L 66.609375 0 
L 56 0 
L 46.6875 18.703125 
Q 43.0625 26.03125 39.671875 28.421875 
Q 36.28125 30.8125 30.421875 30.8125 
L 19.671875 30.8125 
L 19.671875 0 
L 9.8125 0 
L 9.8125 72.90625 
L 32.078125 72.90625 
Q 44.578125 72.90625 50.734375 67.671875 
Q 56.890625 62.453125 56.890625 51.90625 
Q 56.890625 45.015625 53.6875 40.46875 
Q 50.484375 35.9375 44.390625 34.1875 
z
M 19.671875 64.796875 
L 19.671875 38.921875 
L 32.078125 38.921875 
Q 39.203125 38.921875 42.84375 42.21875 
Q 46.484375 45.515625 46.484375 51.90625 
Q 46.484375 58.296875 42.84375 61.546875 
Q 39.203125 64.796875 32.078125 64.796875 
z
" id="DejaVuSans-82"/>
      <path d="M 45.40625 46.390625 
L 45.40625 75.984375 
L 54.390625 75.984375 
L 54.390625 0 
L 45.40625 0 
L 45.40625 8.203125 
Q 42.578125 3.328125 38.25 0.953125 
Q 33.9375 -1.421875 27.875 -1.421875 
Q 17.96875 -1.421875 11.734375 6.484375 
Q 5.515625 14.40625 5.515625 27.296875 
Q 5.515625 40.1875 11.734375 48.09375 
Q 17.96875 56 27.875 56 
Q 33.9375 56 38.25 53.625 
Q 42.578125 51.265625 45.40625 46.390625 
z
M 14.796875 27.296875 
Q 14.796875 17.390625 18.875 11.75 
Q 22.953125 6.109375 30.078125 6.109375 
Q 37.203125 6.109375 41.296875 11.75 
Q 45.40625 17.390625 45.40625 27.296875 
Q 45.40625 37.203125 41.296875 42.84375 
Q 37.203125 48.484375 30.078125 48.484375 
Q 22.953125 48.484375 18.875 42.84375 
Q 14.796875 37.203125 14.796875 27.296875 
z
" id="DejaVuSans-100"/>
     </defs>
     <g transform="translate(398.946094 27.728906)scale(0.15 -0.15)">
      <use xlink:href="#DejaVuSans-68"/>
      <use x="77.001953" xlink:href="#DejaVuSans-68"/>
      <use x="154.003906" xlink:href="#DejaVuSans-45"/>
      <use x="190.087891" xlink:href="#DejaVuSans-82"/>
      <use x="259.539062" xlink:href="#DejaVuSans-97"/>
      <use x="320.818359" xlink:href="#DejaVuSans-110"/>
      <use x="384.197266" xlink:href="#DejaVuSans-100"/>
      <use x="447.673828" xlink:href="#DejaVuSans-111"/>
      <use x="508.855469" xlink:href="#DejaVuSans-109"/>
     </g>
    </g>
    <g id="line2d_30">
     <path d="M 356.946094 44.496094 
L 386.946094 44.496094 
" style="fill:none;stroke:#8c564b;stroke-dasharray:11.1,4.8;stroke-dashoffset:0;stroke-width:3;"/>
    </g>
    <g id="line2d_31">
     <g>
      <use style="fill:#8c564b;stroke:#8c564b;stroke-linejoin:bevel;" x="371.946094" xlink:href="#m92cf9e4249" y="44.496094"/>
     </g>
    </g>
    <g id="text_19">
     <!-- No-DD-IPI -->
     <defs>
      <path d="M 9.8125 72.90625 
L 23.09375 72.90625 
L 55.421875 11.921875 
L 55.421875 72.90625 
L 64.984375 72.90625 
L 64.984375 0 
L 51.703125 0 
L 19.390625 60.984375 
L 19.390625 0 
L 9.8125 0 
z
" id="DejaVuSans-78"/>
     </defs>
     <g transform="translate(398.946094 49.746094)scale(0.15 -0.15)">
      <use xlink:href="#DejaVuSans-78"/>
      <use x="74.804688" xlink:href="#DejaVuSans-111"/>
      <use x="136.001953" xlink:href="#DejaVuSans-45"/>
      <use x="172.085938" xlink:href="#DejaVuSans-68"/>
      <use x="249.087891" xlink:href="#DejaVuSans-68"/>
      <use x="326.089844" xlink:href="#DejaVuSans-45"/>
      <use x="362.173828" xlink:href="#DejaVuSans-73"/>
      <use x="391.666016" xlink:href="#DejaVuSans-80"/>
      <use x="451.96875" xlink:href="#DejaVuSans-73"/>
     </g>
    </g>
    <g id="line2d_32">
     <path d="M 356.946094 66.513281 
L 386.946094 66.513281 
" style="fill:none;stroke:#e377c2;stroke-dasharray:19.2,4.8,3,4.8;stroke-dashoffset:0;stroke-width:3;"/>
    </g>
    <g id="line2d_33">
     <g>
      <use style="fill:#e377c2;stroke:#e377c2;" x="371.946094" xlink:href="#m8d88747c5e" y="66.513281"/>
     </g>
    </g>
    <g id="text_20">
     <!-- No-DD-PI -->
     <g transform="translate(398.946094 71.763281)scale(0.15 -0.15)">
      <use xlink:href="#DejaVuSans-78"/>
      <use x="74.804688" xlink:href="#DejaVuSans-111"/>
      <use x="136.001953" xlink:href="#DejaVuSans-45"/>
      <use x="172.085938" xlink:href="#DejaVuSans-68"/>
      <use x="249.087891" xlink:href="#DejaVuSans-68"/>
      <use x="326.089844" xlink:href="#DejaVuSans-45"/>
      <use x="362.173828" xlink:href="#DejaVuSans-80"/>
      <use x="422.476562" xlink:href="#DejaVuSans-73"/>
     </g>
    </g>
    <g id="line2d_34">
     <path d="M 356.946094 88.530469 
L 386.946094 88.530469 
" style="fill:none;stroke:#7f7f7f;stroke-dasharray:3,4.95;stroke-dashoffset:0;stroke-width:3;"/>
    </g>
    <g id="line2d_35">
     <g>
      <use style="fill:#7f7f7f;stroke:#7f7f7f;" x="371.946094" xlink:href="#md1bb50e67f" y="88.530469"/>
     </g>
    </g>
    <g id="text_21">
     <!-- No-DD-Random -->
     <g transform="translate(398.946094 93.780469)scale(0.15 -0.15)">
      <use xlink:href="#DejaVuSans-78"/>
      <use x="74.804688" xlink:href="#DejaVuSans-111"/>
      <use x="136.001953" xlink:href="#DejaVuSans-45"/>
      <use x="172.085938" xlink:href="#DejaVuSans-68"/>
      <use x="249.087891" xlink:href="#DejaVuSans-68"/>
      <use x="326.089844" xlink:href="#DejaVuSans-45"/>
      <use x="362.173828" xlink:href="#DejaVuSans-82"/>
      <use x="431.625" xlink:href="#DejaVuSans-97"/>
      <use x="492.904297" xlink:href="#DejaVuSans-110"/>
      <use x="556.283203" xlink:href="#DejaVuSans-100"/>
      <use x="619.759766" xlink:href="#DejaVuSans-111"/>
      <use x="680.941406" xlink:href="#DejaVuSans-109"/>
     </g>
    </g>
   </g>
  </g>
 </g>
 <defs>
  <clipPath id="p79e357a3e0">
   <rect height="255.16" width="451.15" x="78.05" y="110.4"/>
  </clipPath>
 </defs>
</svg>
