<?xml version="1.0" encoding="utf-8" standalone="no"?>
<!DOCTYPE svg PUBLIC "-//W3C//DTD SVG 1.1//EN"
  "http://www.w3.org/Graphics/SVG/1.1/DTD/svg11.dtd">
<!-- Created with matplotlib (https://matplotlib.org/) -->
<svg height="432pt" version="1.1" viewBox="0 0 540 432" width="540pt" xmlns="http://www.w3.org/2000/svg" xmlns:xlink="http://www.w3.org/1999/xlink">
 <defs>
  <style type="text/css">
*{stroke-linecap:butt;stroke-linejoin:round;}
  </style>
 </defs>
 <g id="figure_1">
  <g id="patch_1">
   <path d="M 0 432 
L 540 432 
L 540 0 
L 0 0 
z
" style="fill:#ffffff;"/>
  </g>
  <g id="axes_1">
   <g id="patch_2">
    <path d="M 51.05 365.56 
L 529.2 365.56 
L 529.2 25.245 
L 51.05 25.245 
z
" style="fill:#ffffff;"/>
   </g>
   <g id="matplotlib.axis_1">
    <g id="xtick_1">
     <g id="line2d_1">
      <defs>
       <path d="M 0 0 
L 0 3.5 
" id="m8f2eb36042" style="stroke:#000000;stroke-width:0.8;"/>
      </defs>
      <g>
       <use style="stroke:#000000;stroke-width:0.8;" x="72.784091" xlink:href="#m8f2eb36042" y="365.56"/>
      </g>
     </g>
     <g id="text_1">
      <!-- 0 -->
      <defs>
       <path d="M 31.78125 66.40625 
Q 24.171875 66.40625 20.328125 58.90625 
Q 16.5 51.421875 16.5 36.375 
Q 16.5 21.390625 20.328125 13.890625 
Q 24.171875 6.390625 31.78125 6.390625 
Q 39.453125 6.390625 43.28125 13.890625 
Q 47.125 21.390625 47.125 36.375 
Q 47.125 51.421875 43.28125 58.90625 
Q 39.453125 66.40625 31.78125 66.40625 
z
M 31.78125 74.21875 
Q 44.046875 74.21875 50.515625 64.515625 
Q 56.984375 54.828125 56.984375 36.375 
Q 56.984375 17.96875 50.515625 8.265625 
Q 44.046875 -1.421875 31.78125 -1.421875 
Q 19.53125 -1.421875 13.0625 8.265625 
Q 6.59375 17.96875 6.59375 36.375 
Q 6.59375 54.828125 13.0625 64.515625 
Q 19.53125 74.21875 31.78125 74.21875 
z
" id="DejaVuSans-48"/>
      </defs>
      <g transform="translate(66.421591 387.756875)scale(0.2 -0.2)">
       <use xlink:href="#DejaVuSans-48"/>
      </g>
     </g>
    </g>
    <g id="xtick_2">
     <g id="line2d_2">
      <g>
       <use style="stroke:#000000;stroke-width:0.8;" x="127.807106" xlink:href="#m8f2eb36042" y="365.56"/>
      </g>
     </g>
     <g id="text_2">
      <!-- 10 -->
      <defs>
       <path d="M 12.40625 8.296875 
L 28.515625 8.296875 
L 28.515625 63.921875 
L 10.984375 60.40625 
L 10.984375 69.390625 
L 28.421875 72.90625 
L 38.28125 72.90625 
L 38.28125 8.296875 
L 54.390625 8.296875 
L 54.390625 0 
L 12.40625 0 
z
" id="DejaVuSans-49"/>
      </defs>
      <g transform="translate(115.082106 387.756875)scale(0.2 -0.2)">
       <use xlink:href="#DejaVuSans-49"/>
       <use x="63.623047" xlink:href="#DejaVuSans-48"/>
      </g>
     </g>
    </g>
    <g id="xtick_3">
     <g id="line2d_3">
      <g>
       <use style="stroke:#000000;stroke-width:0.8;" x="182.830121" xlink:href="#m8f2eb36042" y="365.56"/>
      </g>
     </g>
     <g id="text_3">
      <!-- 20 -->
      <defs>
       <path d="M 19.1875 8.296875 
L 53.609375 8.296875 
L 53.609375 0 
L 7.328125 0 
L 7.328125 8.296875 
Q 12.9375 14.109375 22.625 23.890625 
Q 32.328125 33.6875 34.8125 36.53125 
Q 39.546875 41.84375 41.421875 45.53125 
Q 43.3125 49.21875 43.3125 52.78125 
Q 43.3125 58.59375 39.234375 62.25 
Q 35.15625 65.921875 28.609375 65.921875 
Q 23.96875 65.921875 18.8125 64.3125 
Q 13.671875 62.703125 7.8125 59.421875 
L 7.8125 69.390625 
Q 13.765625 71.78125 18.9375 73 
Q 24.125 74.21875 28.421875 74.21875 
Q 39.75 74.21875 46.484375 68.546875 
Q 53.21875 62.890625 53.21875 53.421875 
Q 53.21875 48.921875 51.53125 44.890625 
Q 49.859375 40.875 45.40625 35.40625 
Q 44.1875 33.984375 37.640625 27.21875 
Q 31.109375 20.453125 19.1875 8.296875 
z
" id="DejaVuSans-50"/>
      </defs>
      <g transform="translate(170.105121 387.756875)scale(0.2 -0.2)">
       <use xlink:href="#DejaVuSans-50"/>
       <use x="63.623047" xlink:href="#DejaVuSans-48"/>
      </g>
     </g>
    </g>
    <g id="xtick_4">
     <g id="line2d_4">
      <g>
       <use style="stroke:#000000;stroke-width:0.8;" x="237.853136" xlink:href="#m8f2eb36042" y="365.56"/>
      </g>
     </g>
     <g id="text_4">
      <!-- 30 -->
      <defs>
       <path d="M 40.578125 39.3125 
Q 47.65625 37.796875 51.625 33 
Q 55.609375 28.21875 55.609375 21.1875 
Q 55.609375 10.40625 48.1875 4.484375 
Q 40.765625 -1.421875 27.09375 -1.421875 
Q 22.515625 -1.421875 17.65625 -0.515625 
Q 12.796875 0.390625 7.625 2.203125 
L 7.625 11.71875 
Q 11.71875 9.328125 16.59375 8.109375 
Q 21.484375 6.890625 26.8125 6.890625 
Q 36.078125 6.890625 40.9375 10.546875 
Q 45.796875 14.203125 45.796875 21.1875 
Q 45.796875 27.640625 41.28125 31.265625 
Q 36.765625 34.90625 28.71875 34.90625 
L 20.21875 34.90625 
L 20.21875 43.015625 
L 29.109375 43.015625 
Q 36.375 43.015625 40.234375 45.921875 
Q 44.09375 48.828125 44.09375 54.296875 
Q 44.09375 59.90625 40.109375 62.90625 
Q 36.140625 65.921875 28.71875 65.921875 
Q 24.65625 65.921875 20.015625 65.03125 
Q 15.375 64.15625 9.8125 62.3125 
L 9.8125 71.09375 
Q 15.4375 72.65625 20.34375 73.4375 
Q 25.25 74.21875 29.59375 74.21875 
Q 40.828125 74.21875 47.359375 69.109375 
Q 53.90625 64.015625 53.90625 55.328125 
Q 53.90625 49.265625 50.4375 45.09375 
Q 46.96875 40.921875 40.578125 39.3125 
z
" id="DejaVuSans-51"/>
      </defs>
      <g transform="translate(225.128136 387.756875)scale(0.2 -0.2)">
       <use xlink:href="#DejaVuSans-51"/>
       <use x="63.623047" xlink:href="#DejaVuSans-48"/>
      </g>
     </g>
    </g>
    <g id="xtick_5">
     <g id="line2d_5">
      <g>
       <use style="stroke:#000000;stroke-width:0.8;" x="292.876151" xlink:href="#m8f2eb36042" y="365.56"/>
      </g>
     </g>
     <g id="text_5">
      <!-- 40 -->
      <defs>
       <path d="M 37.796875 64.3125 
L 12.890625 25.390625 
L 37.796875 25.390625 
z
M 35.203125 72.90625 
L 47.609375 72.90625 
L 47.609375 25.390625 
L 58.015625 25.390625 
L 58.015625 17.1875 
L 47.609375 17.1875 
L 47.609375 0 
L 37.796875 0 
L 37.796875 17.1875 
L 4.890625 17.1875 
L 4.890625 26.703125 
z
" id="DejaVuSans-52"/>
      </defs>
      <g transform="translate(280.151151 387.756875)scale(0.2 -0.2)">
       <use xlink:href="#DejaVuSans-52"/>
       <use x="63.623047" xlink:href="#DejaVuSans-48"/>
      </g>
     </g>
    </g>
    <g id="xtick_6">
     <g id="line2d_6">
      <g>
       <use style="stroke:#000000;stroke-width:0.8;" x="347.899166" xlink:href="#m8f2eb36042" y="365.56"/>
      </g>
     </g>
     <g id="text_6">
      <!-- 50 -->
      <defs>
       <path d="M 10.796875 72.90625 
L 49.515625 72.90625 
L 49.515625 64.59375 
L 19.828125 64.59375 
L 19.828125 46.734375 
Q 21.96875 47.46875 24.109375 47.828125 
Q 26.265625 48.1875 28.421875 48.1875 
Q 40.625 48.1875 47.75 41.5 
Q 54.890625 34.8125 54.890625 23.390625 
Q 54.890625 11.625 47.5625 5.09375 
Q 40.234375 -1.421875 26.90625 -1.421875 
Q 22.3125 -1.421875 17.546875 -0.640625 
Q 12.796875 0.140625 7.71875 1.703125 
L 7.71875 11.625 
Q 12.109375 9.234375 16.796875 8.0625 
Q 21.484375 6.890625 26.703125 6.890625 
Q 35.15625 6.890625 40.078125 11.328125 
Q 45.015625 15.765625 45.015625 23.390625 
Q 45.015625 31 40.078125 35.4375 
Q 35.15625 39.890625 26.703125 39.890625 
Q 22.75 39.890625 18.8125 39.015625 
Q 14.890625 38.140625 10.796875 36.28125 
z
" id="DejaVuSans-53"/>
      </defs>
      <g transform="translate(335.174166 387.756875)scale(0.2 -0.2)">
       <use xlink:href="#DejaVuSans-53"/>
       <use x="63.623047" xlink:href="#DejaVuSans-48"/>
      </g>
     </g>
    </g>
    <g id="xtick_7">
     <g id="line2d_7">
      <g>
       <use style="stroke:#000000;stroke-width:0.8;" x="402.922181" xlink:href="#m8f2eb36042" y="365.56"/>
      </g>
     </g>
     <g id="text_7">
      <!-- 60 -->
      <defs>
       <path d="M 33.015625 40.375 
Q 26.375 40.375 22.484375 35.828125 
Q 18.609375 31.296875 18.609375 23.390625 
Q 18.609375 15.53125 22.484375 10.953125 
Q 26.375 6.390625 33.015625 6.390625 
Q 39.65625 6.390625 43.53125 10.953125 
Q 47.40625 15.53125 47.40625 23.390625 
Q 47.40625 31.296875 43.53125 35.828125 
Q 39.65625 40.375 33.015625 40.375 
z
M 52.59375 71.296875 
L 52.59375 62.3125 
Q 48.875 64.0625 45.09375 64.984375 
Q 41.3125 65.921875 37.59375 65.921875 
Q 27.828125 65.921875 22.671875 59.328125 
Q 17.53125 52.734375 16.796875 39.40625 
Q 19.671875 43.65625 24.015625 45.921875 
Q 28.375 48.1875 33.59375 48.1875 
Q 44.578125 48.1875 50.953125 41.515625 
Q 57.328125 34.859375 57.328125 23.390625 
Q 57.328125 12.15625 50.6875 5.359375 
Q 44.046875 -1.421875 33.015625 -1.421875 
Q 20.359375 -1.421875 13.671875 8.265625 
Q 6.984375 17.96875 6.984375 36.375 
Q 6.984375 53.65625 15.1875 63.9375 
Q 23.390625 74.21875 37.203125 74.21875 
Q 40.921875 74.21875 44.703125 73.484375 
Q 48.484375 72.75 52.59375 71.296875 
z
" id="DejaVuSans-54"/>
      </defs>
      <g transform="translate(390.197181 387.756875)scale(0.2 -0.2)">
       <use xlink:href="#DejaVuSans-54"/>
       <use x="63.623047" xlink:href="#DejaVuSans-48"/>
      </g>
     </g>
    </g>
    <g id="xtick_8">
     <g id="line2d_8">
      <g>
       <use style="stroke:#000000;stroke-width:0.8;" x="457.945196" xlink:href="#m8f2eb36042" y="365.56"/>
      </g>
     </g>
     <g id="text_8">
      <!-- 70 -->
      <defs>
       <path d="M 8.203125 72.90625 
L 55.078125 72.90625 
L 55.078125 68.703125 
L 28.609375 0 
L 18.3125 0 
L 43.21875 64.59375 
L 8.203125 64.59375 
z
" id="DejaVuSans-55"/>
      </defs>
      <g transform="translate(445.220196 387.756875)scale(0.2 -0.2)">
       <use xlink:href="#DejaVuSans-55"/>
       <use x="63.623047" xlink:href="#DejaVuSans-48"/>
      </g>
     </g>
    </g>
    <g id="xtick_9">
     <g id="line2d_9">
      <g>
       <use style="stroke:#000000;stroke-width:0.8;" x="512.968211" xlink:href="#m8f2eb36042" y="365.56"/>
      </g>
     </g>
     <g id="text_9">
      <!-- 80 -->
      <defs>
       <path d="M 31.78125 34.625 
Q 24.75 34.625 20.71875 30.859375 
Q 16.703125 27.09375 16.703125 20.515625 
Q 16.703125 13.921875 20.71875 10.15625 
Q 24.75 6.390625 31.78125 6.390625 
Q 38.8125 6.390625 42.859375 10.171875 
Q 46.921875 13.96875 46.921875 20.515625 
Q 46.921875 27.09375 42.890625 30.859375 
Q 38.875 34.625 31.78125 34.625 
z
M 21.921875 38.8125 
Q 15.578125 40.375 12.03125 44.71875 
Q 8.5 49.078125 8.5 55.328125 
Q 8.5 64.0625 14.71875 69.140625 
Q 20.953125 74.21875 31.78125 74.21875 
Q 42.671875 74.21875 48.875 69.140625 
Q 55.078125 64.0625 55.078125 55.328125 
Q 55.078125 49.078125 51.53125 44.71875 
Q 48 40.375 41.703125 38.8125 
Q 48.828125 37.15625 52.796875 32.3125 
Q 56.78125 27.484375 56.78125 20.515625 
Q 56.78125 9.90625 50.3125 4.234375 
Q 43.84375 -1.421875 31.78125 -1.421875 
Q 19.734375 -1.421875 13.25 4.234375 
Q 6.78125 9.90625 6.78125 20.515625 
Q 6.78125 27.484375 10.78125 32.3125 
Q 14.796875 37.15625 21.921875 38.8125 
z
M 18.3125 54.390625 
Q 18.3125 48.734375 21.84375 45.5625 
Q 25.390625 42.390625 31.78125 42.390625 
Q 38.140625 42.390625 41.71875 45.5625 
Q 45.3125 48.734375 45.3125 54.390625 
Q 45.3125 60.0625 41.71875 63.234375 
Q 38.140625 66.40625 31.78125 66.40625 
Q 25.390625 66.40625 21.84375 63.234375 
Q 18.3125 60.0625 18.3125 54.390625 
z
" id="DejaVuSans-56"/>
      </defs>
      <g transform="translate(500.243211 387.756875)scale(0.2 -0.2)">
       <use xlink:href="#DejaVuSans-56"/>
       <use x="63.623047" xlink:href="#DejaVuSans-48"/>
      </g>
     </g>
    </g>
    <g id="text_10">
     <!-- # of game -->
     <defs>
      <path d="M 51.125 44 
L 36.921875 44 
L 32.8125 27.6875 
L 47.125 27.6875 
z
M 43.796875 71.78125 
L 38.71875 51.515625 
L 52.984375 51.515625 
L 58.109375 71.78125 
L 65.921875 71.78125 
L 60.890625 51.515625 
L 76.125 51.515625 
L 76.125 44 
L 58.984375 44 
L 54.984375 27.6875 
L 70.515625 27.6875 
L 70.515625 20.21875 
L 53.078125 20.21875 
L 48 0 
L 40.1875 0 
L 45.21875 20.21875 
L 30.90625 20.21875 
L 25.875 0 
L 18.015625 0 
L 23.09375 20.21875 
L 7.71875 20.21875 
L 7.71875 27.6875 
L 24.90625 27.6875 
L 29 44 
L 13.28125 44 
L 13.28125 51.515625 
L 30.90625 51.515625 
L 35.890625 71.78125 
z
" id="DejaVuSans-35"/>
      <path id="DejaVuSans-32"/>
      <path d="M 30.609375 48.390625 
Q 23.390625 48.390625 19.1875 42.75 
Q 14.984375 37.109375 14.984375 27.296875 
Q 14.984375 17.484375 19.15625 11.84375 
Q 23.34375 6.203125 30.609375 6.203125 
Q 37.796875 6.203125 41.984375 11.859375 
Q 46.1875 17.53125 46.1875 27.296875 
Q 46.1875 37.015625 41.984375 42.703125 
Q 37.796875 48.390625 30.609375 48.390625 
z
M 30.609375 56 
Q 42.328125 56 49.015625 48.375 
Q 55.71875 40.765625 55.71875 27.296875 
Q 55.71875 13.875 49.015625 6.21875 
Q 42.328125 -1.421875 30.609375 -1.421875 
Q 18.84375 -1.421875 12.171875 6.21875 
Q 5.515625 13.875 5.515625 27.296875 
Q 5.515625 40.765625 12.171875 48.375 
Q 18.84375 56 30.609375 56 
z
" id="DejaVuSans-111"/>
      <path d="M 37.109375 75.984375 
L 37.109375 68.5 
L 28.515625 68.5 
Q 23.6875 68.5 21.796875 66.546875 
Q 19.921875 64.59375 19.921875 59.515625 
L 19.921875 54.6875 
L 34.71875 54.6875 
L 34.71875 47.703125 
L 19.921875 47.703125 
L 19.921875 0 
L 10.890625 0 
L 10.890625 47.703125 
L 2.296875 47.703125 
L 2.296875 54.6875 
L 10.890625 54.6875 
L 10.890625 58.5 
Q 10.890625 67.625 15.140625 71.796875 
Q 19.390625 75.984375 28.609375 75.984375 
z
" id="DejaVuSans-102"/>
      <path d="M 45.40625 27.984375 
Q 45.40625 37.75 41.375 43.109375 
Q 37.359375 48.484375 30.078125 48.484375 
Q 22.859375 48.484375 18.828125 43.109375 
Q 14.796875 37.75 14.796875 27.984375 
Q 14.796875 18.265625 18.828125 12.890625 
Q 22.859375 7.515625 30.078125 7.515625 
Q 37.359375 7.515625 41.375 12.890625 
Q 45.40625 18.265625 45.40625 27.984375 
z
M 54.390625 6.78125 
Q 54.390625 -7.171875 48.1875 -13.984375 
Q 42 -20.796875 29.203125 -20.796875 
Q 24.46875 -20.796875 20.265625 -20.09375 
Q 16.0625 -19.390625 12.109375 -17.921875 
L 12.109375 -9.1875 
Q 16.0625 -11.328125 19.921875 -12.34375 
Q 23.78125 -13.375 27.78125 -13.375 
Q 36.625 -13.375 41.015625 -8.765625 
Q 45.40625 -4.15625 45.40625 5.171875 
L 45.40625 9.625 
Q 42.625 4.78125 38.28125 2.390625 
Q 33.9375 0 27.875 0 
Q 17.828125 0 11.671875 7.65625 
Q 5.515625 15.328125 5.515625 27.984375 
Q 5.515625 40.671875 11.671875 48.328125 
Q 17.828125 56 27.875 56 
Q 33.9375 56 38.28125 53.609375 
Q 42.625 51.21875 45.40625 46.390625 
L 45.40625 54.6875 
L 54.390625 54.6875 
z
" id="DejaVuSans-103"/>
      <path d="M 34.28125 27.484375 
Q 23.390625 27.484375 19.1875 25 
Q 14.984375 22.515625 14.984375 16.5 
Q 14.984375 11.71875 18.140625 8.90625 
Q 21.296875 6.109375 26.703125 6.109375 
Q 34.1875 6.109375 38.703125 11.40625 
Q 43.21875 16.703125 43.21875 25.484375 
L 43.21875 27.484375 
z
M 52.203125 31.203125 
L 52.203125 0 
L 43.21875 0 
L 43.21875 8.296875 
Q 40.140625 3.328125 35.546875 0.953125 
Q 30.953125 -1.421875 24.3125 -1.421875 
Q 15.921875 -1.421875 10.953125 3.296875 
Q 6 8.015625 6 15.921875 
Q 6 25.140625 12.171875 29.828125 
Q 18.359375 34.515625 30.609375 34.515625 
L 43.21875 34.515625 
L 43.21875 35.40625 
Q 43.21875 41.609375 39.140625 45 
Q 35.0625 48.390625 27.6875 48.390625 
Q 23 48.390625 18.546875 47.265625 
Q 14.109375 46.140625 10.015625 43.890625 
L 10.015625 52.203125 
Q 14.9375 54.109375 19.578125 55.046875 
Q 24.21875 56 28.609375 56 
Q 40.484375 56 46.34375 49.84375 
Q 52.203125 43.703125 52.203125 31.203125 
z
" id="DejaVuSans-97"/>
      <path d="M 52 44.1875 
Q 55.375 50.25 60.0625 53.125 
Q 64.75 56 71.09375 56 
Q 79.640625 56 84.28125 50.015625 
Q 88.921875 44.046875 88.921875 33.015625 
L 88.921875 0 
L 79.890625 0 
L 79.890625 32.71875 
Q 79.890625 40.578125 77.09375 44.375 
Q 74.3125 48.1875 68.609375 48.1875 
Q 61.625 48.1875 57.5625 43.546875 
Q 53.515625 38.921875 53.515625 30.90625 
L 53.515625 0 
L 44.484375 0 
L 44.484375 32.71875 
Q 44.484375 40.625 41.703125 44.40625 
Q 38.921875 48.1875 33.109375 48.1875 
Q 26.21875 48.1875 22.15625 43.53125 
Q 18.109375 38.875 18.109375 30.90625 
L 18.109375 0 
L 9.078125 0 
L 9.078125 54.6875 
L 18.109375 54.6875 
L 18.109375 46.1875 
Q 21.1875 51.21875 25.484375 53.609375 
Q 29.78125 56 35.6875 56 
Q 41.65625 56 45.828125 52.96875 
Q 50 49.953125 52 44.1875 
z
" id="DejaVuSans-109"/>
      <path d="M 56.203125 29.59375 
L 56.203125 25.203125 
L 14.890625 25.203125 
Q 15.484375 15.921875 20.484375 11.0625 
Q 25.484375 6.203125 34.421875 6.203125 
Q 39.59375 6.203125 44.453125 7.46875 
Q 49.3125 8.734375 54.109375 11.28125 
L 54.109375 2.78125 
Q 49.265625 0.734375 44.1875 -0.34375 
Q 39.109375 -1.421875 33.890625 -1.421875 
Q 20.796875 -1.421875 13.15625 6.1875 
Q 5.515625 13.8125 5.515625 26.8125 
Q 5.515625 40.234375 12.765625 48.109375 
Q 20.015625 56 32.328125 56 
Q 43.359375 56 49.78125 48.890625 
Q 56.203125 41.796875 56.203125 29.59375 
z
M 47.21875 32.234375 
Q 47.125 39.59375 43.09375 43.984375 
Q 39.0625 48.390625 32.421875 48.390625 
Q 24.90625 48.390625 20.390625 44.140625 
Q 15.875 39.890625 15.1875 32.171875 
z
" id="DejaVuSans-101"/>
     </defs>
     <g transform="translate(224.193359 414.912344)scale(0.25 -0.25)">
      <use xlink:href="#DejaVuSans-35"/>
      <use x="83.789062" xlink:href="#DejaVuSans-32"/>
      <use x="115.576172" xlink:href="#DejaVuSans-111"/>
      <use x="176.757812" xlink:href="#DejaVuSans-102"/>
      <use x="211.962891" xlink:href="#DejaVuSans-32"/>
      <use x="243.75" xlink:href="#DejaVuSans-103"/>
      <use x="307.226562" xlink:href="#DejaVuSans-97"/>
      <use x="368.505859" xlink:href="#DejaVuSans-109"/>
      <use x="465.917969" xlink:href="#DejaVuSans-101"/>
     </g>
    </g>
   </g>
   <g id="matplotlib.axis_2">
    <g id="ytick_1">
     <g id="line2d_10">
      <defs>
       <path d="M 0 0 
L -3.5 0 
" id="mfadeb8036d" style="stroke:#000000;stroke-width:0.8;"/>
      </defs>
      <g>
       <use style="stroke:#000000;stroke-width:0.8;" x="51.05" xlink:href="#mfadeb8036d" y="350.091136"/>
      </g>
     </g>
     <g id="text_11">
      <!-- 0 -->
      <g transform="translate(31.325 357.689574)scale(0.2 -0.2)">
       <use xlink:href="#DejaVuSans-48"/>
      </g>
     </g>
    </g>
    <g id="ytick_2">
     <g id="line2d_11">
      <g>
       <use style="stroke:#000000;stroke-width:0.8;" x="51.05" xlink:href="#mfadeb8036d" y="298.528258"/>
      </g>
     </g>
     <g id="text_12">
      <!-- 1 -->
      <g transform="translate(31.325 306.126695)scale(0.2 -0.2)">
       <use xlink:href="#DejaVuSans-49"/>
      </g>
     </g>
    </g>
    <g id="ytick_3">
     <g id="line2d_12">
      <g>
       <use style="stroke:#000000;stroke-width:0.8;" x="51.05" xlink:href="#mfadeb8036d" y="246.965379"/>
      </g>
     </g>
     <g id="text_13">
      <!-- 2 -->
      <g transform="translate(31.325 254.563816)scale(0.2 -0.2)">
       <use xlink:href="#DejaVuSans-50"/>
      </g>
     </g>
    </g>
    <g id="ytick_4">
     <g id="line2d_13">
      <g>
       <use style="stroke:#000000;stroke-width:0.8;" x="51.05" xlink:href="#mfadeb8036d" y="195.4025"/>
      </g>
     </g>
     <g id="text_14">
      <!-- 3 -->
      <g transform="translate(31.325 203.000937)scale(0.2 -0.2)">
       <use xlink:href="#DejaVuSans-51"/>
      </g>
     </g>
    </g>
    <g id="ytick_5">
     <g id="line2d_14">
      <g>
       <use style="stroke:#000000;stroke-width:0.8;" x="51.05" xlink:href="#mfadeb8036d" y="143.839621"/>
      </g>
     </g>
     <g id="text_15">
      <!-- 4 -->
      <g transform="translate(31.325 151.438059)scale(0.2 -0.2)">
       <use xlink:href="#DejaVuSans-52"/>
      </g>
     </g>
    </g>
    <g id="ytick_6">
     <g id="line2d_15">
      <g>
       <use style="stroke:#000000;stroke-width:0.8;" x="51.05" xlink:href="#mfadeb8036d" y="92.276742"/>
      </g>
     </g>
     <g id="text_16">
      <!-- 5 -->
      <g transform="translate(31.325 99.87518)scale(0.2 -0.2)">
       <use xlink:href="#DejaVuSans-53"/>
      </g>
     </g>
    </g>
    <g id="ytick_7">
     <g id="line2d_16">
      <g>
       <use style="stroke:#000000;stroke-width:0.8;" x="51.05" xlink:href="#mfadeb8036d" y="40.713864"/>
      </g>
     </g>
     <g id="text_17">
      <!-- 6 -->
      <g transform="translate(31.325 48.312301)scale(0.2 -0.2)">
       <use xlink:href="#DejaVuSans-54"/>
      </g>
     </g>
    </g>
    <g id="text_18">
     <!-- # of attacker (top is total, bottom is inside) -->
     <defs>
      <path d="M 18.3125 70.21875 
L 18.3125 54.6875 
L 36.8125 54.6875 
L 36.8125 47.703125 
L 18.3125 47.703125 
L 18.3125 18.015625 
Q 18.3125 11.328125 20.140625 9.421875 
Q 21.96875 7.515625 27.59375 7.515625 
L 36.8125 7.515625 
L 36.8125 0 
L 27.59375 0 
Q 17.1875 0 13.234375 3.875 
Q 9.28125 7.765625 9.28125 18.015625 
L 9.28125 47.703125 
L 2.6875 47.703125 
L 2.6875 54.6875 
L 9.28125 54.6875 
L 9.28125 70.21875 
z
" id="DejaVuSans-116"/>
      <path d="M 48.78125 52.59375 
L 48.78125 44.1875 
Q 44.96875 46.296875 41.140625 47.34375 
Q 37.3125 48.390625 33.40625 48.390625 
Q 24.65625 48.390625 19.8125 42.84375 
Q 14.984375 37.3125 14.984375 27.296875 
Q 14.984375 17.28125 19.8125 11.734375 
Q 24.65625 6.203125 33.40625 6.203125 
Q 37.3125 6.203125 41.140625 7.25 
Q 44.96875 8.296875 48.78125 10.40625 
L 48.78125 2.09375 
Q 45.015625 0.34375 40.984375 -0.53125 
Q 36.96875 -1.421875 32.421875 -1.421875 
Q 20.0625 -1.421875 12.78125 6.34375 
Q 5.515625 14.109375 5.515625 27.296875 
Q 5.515625 40.671875 12.859375 48.328125 
Q 20.21875 56 33.015625 56 
Q 37.15625 56 41.109375 55.140625 
Q 45.0625 54.296875 48.78125 52.59375 
z
" id="DejaVuSans-99"/>
      <path d="M 9.078125 75.984375 
L 18.109375 75.984375 
L 18.109375 31.109375 
L 44.921875 54.6875 
L 56.390625 54.6875 
L 27.390625 29.109375 
L 57.625 0 
L 45.90625 0 
L 18.109375 26.703125 
L 18.109375 0 
L 9.078125 0 
z
" id="DejaVuSans-107"/>
      <path d="M 41.109375 46.296875 
Q 39.59375 47.171875 37.8125 47.578125 
Q 36.03125 48 33.890625 48 
Q 26.265625 48 22.1875 43.046875 
Q 18.109375 38.09375 18.109375 28.8125 
L 18.109375 0 
L 9.078125 0 
L 9.078125 54.6875 
L 18.109375 54.6875 
L 18.109375 46.1875 
Q 20.953125 51.171875 25.484375 53.578125 
Q 30.03125 56 36.53125 56 
Q 37.453125 56 38.578125 55.875 
Q 39.703125 55.765625 41.0625 55.515625 
z
" id="DejaVuSans-114"/>
      <path d="M 31 75.875 
Q 24.46875 64.65625 21.28125 53.65625 
Q 18.109375 42.671875 18.109375 31.390625 
Q 18.109375 20.125 21.3125 9.0625 
Q 24.515625 -2 31 -13.1875 
L 23.1875 -13.1875 
Q 15.875 -1.703125 12.234375 9.375 
Q 8.59375 20.453125 8.59375 31.390625 
Q 8.59375 42.28125 12.203125 53.3125 
Q 15.828125 64.359375 23.1875 75.875 
z
" id="DejaVuSans-40"/>
      <path d="M 18.109375 8.203125 
L 18.109375 -20.796875 
L 9.078125 -20.796875 
L 9.078125 54.6875 
L 18.109375 54.6875 
L 18.109375 46.390625 
Q 20.953125 51.265625 25.265625 53.625 
Q 29.59375 56 35.59375 56 
Q 45.5625 56 51.78125 48.09375 
Q 58.015625 40.1875 58.015625 27.296875 
Q 58.015625 14.40625 51.78125 6.484375 
Q 45.5625 -1.421875 35.59375 -1.421875 
Q 29.59375 -1.421875 25.265625 0.953125 
Q 20.953125 3.328125 18.109375 8.203125 
z
M 48.6875 27.296875 
Q 48.6875 37.203125 44.609375 42.84375 
Q 40.53125 48.484375 33.40625 48.484375 
Q 26.265625 48.484375 22.1875 42.84375 
Q 18.109375 37.203125 18.109375 27.296875 
Q 18.109375 17.390625 22.1875 11.75 
Q 26.265625 6.109375 33.40625 6.109375 
Q 40.53125 6.109375 44.609375 11.75 
Q 48.6875 17.390625 48.6875 27.296875 
z
" id="DejaVuSans-112"/>
      <path d="M 9.421875 54.6875 
L 18.40625 54.6875 
L 18.40625 0 
L 9.421875 0 
z
M 9.421875 75.984375 
L 18.40625 75.984375 
L 18.40625 64.59375 
L 9.421875 64.59375 
z
" id="DejaVuSans-105"/>
      <path d="M 44.28125 53.078125 
L 44.28125 44.578125 
Q 40.484375 46.53125 36.375 47.5 
Q 32.28125 48.484375 27.875 48.484375 
Q 21.1875 48.484375 17.84375 46.4375 
Q 14.5 44.390625 14.5 40.28125 
Q 14.5 37.15625 16.890625 35.375 
Q 19.28125 33.59375 26.515625 31.984375 
L 29.59375 31.296875 
Q 39.15625 29.25 43.1875 25.515625 
Q 47.21875 21.78125 47.21875 15.09375 
Q 47.21875 7.46875 41.1875 3.015625 
Q 35.15625 -1.421875 24.609375 -1.421875 
Q 20.21875 -1.421875 15.453125 -0.5625 
Q 10.6875 0.296875 5.421875 2 
L 5.421875 11.28125 
Q 10.40625 8.6875 15.234375 7.390625 
Q 20.0625 6.109375 24.8125 6.109375 
Q 31.15625 6.109375 34.5625 8.28125 
Q 37.984375 10.453125 37.984375 14.40625 
Q 37.984375 18.0625 35.515625 20.015625 
Q 33.0625 21.96875 24.703125 23.78125 
L 21.578125 24.515625 
Q 13.234375 26.265625 9.515625 29.90625 
Q 5.8125 33.546875 5.8125 39.890625 
Q 5.8125 47.609375 11.28125 51.796875 
Q 16.75 56 26.8125 56 
Q 31.78125 56 36.171875 55.265625 
Q 40.578125 54.546875 44.28125 53.078125 
z
" id="DejaVuSans-115"/>
      <path d="M 9.421875 75.984375 
L 18.40625 75.984375 
L 18.40625 0 
L 9.421875 0 
z
" id="DejaVuSans-108"/>
      <path d="M 11.71875 12.40625 
L 22.015625 12.40625 
L 22.015625 4 
L 14.015625 -11.625 
L 7.71875 -11.625 
L 11.71875 4 
z
" id="DejaVuSans-44"/>
      <path d="M 48.6875 27.296875 
Q 48.6875 37.203125 44.609375 42.84375 
Q 40.53125 48.484375 33.40625 48.484375 
Q 26.265625 48.484375 22.1875 42.84375 
Q 18.109375 37.203125 18.109375 27.296875 
Q 18.109375 17.390625 22.1875 11.75 
Q 26.265625 6.109375 33.40625 6.109375 
Q 40.53125 6.109375 44.609375 11.75 
Q 48.6875 17.390625 48.6875 27.296875 
z
M 18.109375 46.390625 
Q 20.953125 51.265625 25.265625 53.625 
Q 29.59375 56 35.59375 56 
Q 45.5625 56 51.78125 48.09375 
Q 58.015625 40.1875 58.015625 27.296875 
Q 58.015625 14.40625 51.78125 6.484375 
Q 45.5625 -1.421875 35.59375 -1.421875 
Q 29.59375 -1.421875 25.265625 0.953125 
Q 20.953125 3.328125 18.109375 8.203125 
L 18.109375 0 
L 9.078125 0 
L 9.078125 75.984375 
L 18.109375 75.984375 
z
" id="DejaVuSans-98"/>
      <path d="M 54.890625 33.015625 
L 54.890625 0 
L 45.90625 0 
L 45.90625 32.71875 
Q 45.90625 40.484375 42.875 44.328125 
Q 39.84375 48.1875 33.796875 48.1875 
Q 26.515625 48.1875 22.3125 43.546875 
Q 18.109375 38.921875 18.109375 30.90625 
L 18.109375 0 
L 9.078125 0 
L 9.078125 54.6875 
L 18.109375 54.6875 
L 18.109375 46.1875 
Q 21.34375 51.125 25.703125 53.5625 
Q 30.078125 56 35.796875 56 
Q 45.21875 56 50.046875 50.171875 
Q 54.890625 44.34375 54.890625 33.015625 
z
" id="DejaVuSans-110"/>
      <path d="M 45.40625 46.390625 
L 45.40625 75.984375 
L 54.390625 75.984375 
L 54.390625 0 
L 45.40625 0 
L 45.40625 8.203125 
Q 42.578125 3.328125 38.25 0.953125 
Q 33.9375 -1.421875 27.875 -1.421875 
Q 17.96875 -1.421875 11.734375 6.484375 
Q 5.515625 14.40625 5.515625 27.296875 
Q 5.515625 40.1875 11.734375 48.09375 
Q 17.96875 56 27.875 56 
Q 33.9375 56 38.25 53.625 
Q 42.578125 51.265625 45.40625 46.390625 
z
M 14.796875 27.296875 
Q 14.796875 17.390625 18.875 11.75 
Q 22.953125 6.109375 30.078125 6.109375 
Q 37.203125 6.109375 41.296875 11.75 
Q 45.40625 17.390625 45.40625 27.296875 
Q 45.40625 37.203125 41.296875 42.84375 
Q 37.203125 48.484375 30.078125 48.484375 
Q 22.953125 48.484375 18.875 42.84375 
Q 14.796875 37.203125 14.796875 27.296875 
z
" id="DejaVuSans-100"/>
      <path d="M 8.015625 75.875 
L 15.828125 75.875 
Q 23.140625 64.359375 26.78125 53.3125 
Q 30.421875 42.28125 30.421875 31.390625 
Q 30.421875 20.453125 26.78125 9.375 
Q 23.140625 -1.703125 15.828125 -13.1875 
L 8.015625 -13.1875 
Q 14.5 -2 17.703125 9.0625 
Q 20.90625 20.125 20.90625 31.390625 
Q 20.90625 42.671875 17.703125 53.65625 
Q 14.5 64.65625 8.015625 75.875 
z
" id="DejaVuSans-41"/>
     </defs>
     <g transform="translate(23.858854 376.294427)rotate(-90)scale(0.166667 -0.166667)">
      <use xlink:href="#DejaVuSans-35"/>
      <use x="83.789062" xlink:href="#DejaVuSans-32"/>
      <use x="115.576172" xlink:href="#DejaVuSans-111"/>
      <use x="176.757812" xlink:href="#DejaVuSans-102"/>
      <use x="211.962891" xlink:href="#DejaVuSans-32"/>
      <use x="243.75" xlink:href="#DejaVuSans-97"/>
      <use x="305.029297" xlink:href="#DejaVuSans-116"/>
      <use x="344.238281" xlink:href="#DejaVuSans-116"/>
      <use x="383.447266" xlink:href="#DejaVuSans-97"/>
      <use x="444.726562" xlink:href="#DejaVuSans-99"/>
      <use x="499.707031" xlink:href="#DejaVuSans-107"/>
      <use x="557.570312" xlink:href="#DejaVuSans-101"/>
      <use x="619.09375" xlink:href="#DejaVuSans-114"/>
      <use x="660.207031" xlink:href="#DejaVuSans-32"/>
      <use x="691.994141" xlink:href="#DejaVuSans-40"/>
      <use x="731.007812" xlink:href="#DejaVuSans-116"/>
      <use x="770.216797" xlink:href="#DejaVuSans-111"/>
      <use x="831.398438" xlink:href="#DejaVuSans-112"/>
      <use x="894.875" xlink:href="#DejaVuSans-32"/>
      <use x="926.662109" xlink:href="#DejaVuSans-105"/>
      <use x="954.445312" xlink:href="#DejaVuSans-115"/>
      <use x="1006.544922" xlink:href="#DejaVuSans-32"/>
      <use x="1038.332031" xlink:href="#DejaVuSans-116"/>
      <use x="1077.541016" xlink:href="#DejaVuSans-111"/>
      <use x="1138.722656" xlink:href="#DejaVuSans-116"/>
      <use x="1177.931641" xlink:href="#DejaVuSans-97"/>
      <use x="1239.210938" xlink:href="#DejaVuSans-108"/>
      <use x="1266.994141" xlink:href="#DejaVuSans-44"/>
      <use x="1298.78125" xlink:href="#DejaVuSans-32"/>
      <use x="1330.568359" xlink:href="#DejaVuSans-98"/>
      <use x="1394.044922" xlink:href="#DejaVuSans-111"/>
      <use x="1455.226562" xlink:href="#DejaVuSans-116"/>
      <use x="1494.435547" xlink:href="#DejaVuSans-116"/>
      <use x="1533.644531" xlink:href="#DejaVuSans-111"/>
      <use x="1594.826172" xlink:href="#DejaVuSans-109"/>
      <use x="1692.238281" xlink:href="#DejaVuSans-32"/>
      <use x="1724.025391" xlink:href="#DejaVuSans-105"/>
      <use x="1751.808594" xlink:href="#DejaVuSans-115"/>
      <use x="1803.908203" xlink:href="#DejaVuSans-32"/>
      <use x="1835.695312" xlink:href="#DejaVuSans-105"/>
      <use x="1863.478516" xlink:href="#DejaVuSans-110"/>
      <use x="1926.857422" xlink:href="#DejaVuSans-115"/>
      <use x="1978.957031" xlink:href="#DejaVuSans-105"/>
      <use x="2006.740234" xlink:href="#DejaVuSans-100"/>
      <use x="2070.216797" xlink:href="#DejaVuSans-101"/>
      <use x="2131.740234" xlink:href="#DejaVuSans-41"/>
     </g>
    </g>
   </g>
   <g id="line2d_17">
    <path clip-path="url(#pbff85ef138)" d="M 72.784091 298.528258 
L 78.286392 293.423533 
L 83.788694 288.164119 
L 89.290995 283.420334 
L 94.793297 278.573423 
L 100.295598 274.087453 
L 105.7979 270.323363 
L 111.300201 265.940518 
L 116.802503 261.506111 
L 122.304804 258.055284 
L 127.807106 254.502292 
L 133.309407 250.085594 
L 138.811709 247.01977 
L 144.31401 244.050955 
L 149.816312 240.564882 
L 155.318613 238.382008 
L 160.820915 235.117169 
L 166.323216 232.70637 
L 171.825518 228.683994 
L 177.327819 225.23654 
L 182.830121 222.73931 
L 188.332422 220.879434 
L 193.834724 217.954177 
L 199.337025 213.666941 
L 204.839327 210.720915 
L 210.341628 207.627134 
L 215.84393 207.891779 
L 221.346231 209.465103 
L 226.848533 208.923433 
L 232.350834 209.608599 
L 237.853136 207.534942 
L 243.355437 208.954282 
L 248.857739 210.871364 
L 254.36004 207.433838 
L 259.862342 206.41593 
L 265.364643 206.491291 
L 270.866945 200.255477 
L 276.369246 197.492887 
L 281.871548 197.211724 
L 287.373849 196.394094 
L 292.876151 196.601637 
L 298.378452 201.131709 
L 303.880754 202.277551 
L 309.383055 203.041445 
L 314.885357 201.131709 
L 320.387658 192.947125 
L 325.88996 189.673291 
L 331.392261 185.089924 
L 336.894563 201.84786 
L 342.396864 195.4025 
L 347.899166 202.768626 
L 353.401467 186.808687 
L 358.903769 195.4025 
L 364.40607 174.777348 
L 369.908372 174.777348 
L 375.410673 195.4025 
L 380.912975 182.51178 
L 386.415276 169.621061 
L 391.917578 169.621061 
L 397.419879 156.730341 
L 402.922181 156.730341 
L 408.424482 156.730341 
L 413.926784 246.965379 
L 419.429085 246.965379 
L 424.931387 246.965379 
L 430.433688 221.183939 
L 435.93599 246.965379 
L 441.438291 195.4025 
L 446.940593 143.839621 
L 452.442894 143.839621 
L 457.945196 143.839621 
L 463.447497 143.839621 
L 468.949799 143.839621 
L 474.4521 92.276742 
L 479.954402 92.276742 
L 485.456703 92.276742 
L 490.959005 92.276742 
L 496.461306 143.839621 
L 501.963608 143.839621 
L 507.465909 143.839621 
" style="fill:none;stroke:#1f77b4;stroke-linecap:square;stroke-width:1.5;"/>
   </g>
   <g id="line2d_18">
    <path clip-path="url(#pbff85ef138)" d="M 72.784091 350.091136 
L 78.286392 350.091136 
L 83.788694 349.472382 
L 89.290995 347.203615 
L 94.793297 342.923896 
L 100.295598 338.953555 
L 105.7979 335.189464 
L 111.300201 331.88944 
L 116.802503 328.898793 
L 122.304804 325.42387 
L 127.807106 322.17857 
L 133.309407 319.100524 
L 138.811709 316.640535 
L 144.31401 313.268515 
L 149.816312 310.790891 
L 155.318613 309.179156 
L 160.820915 307.530249 
L 166.323216 304.649549 
L 171.825518 303.450169 
L 177.327819 302.235956 
L 182.830121 299.565171 
L 188.332422 298.020749 
L 193.834724 295.015182 
L 199.337025 293.185598 
L 204.839327 291.689679 
L 210.341628 290.06505 
L 215.84393 291.748363 
L 221.346231 291.802665 
L 226.848533 291.882375 
L 232.350834 291.162132 
L 237.853136 296.101769 
L 243.355437 297.206132 
L 248.857739 297.734983 
L 254.36004 293.80166 
L 259.862342 293.021542 
L 265.364643 292.429422 
L 270.866945 288.215682 
L 276.369246 283.895549 
L 281.871548 286.768303 
L 287.373849 283.65435 
L 292.876151 281.740344 
L 298.378452 281.340631 
L 303.880754 279.621869 
L 309.383055 279.430895 
L 314.885357 271.79195 
L 320.387658 276.429881 
L 325.88996 275.611423 
L 331.392261 283.059394 
L 336.894563 292.082898 
L 342.396864 292.082898 
L 347.899166 298.528258 
L 353.401467 307.122071 
L 358.903769 319.153409 
L 364.40607 319.153409 
L 369.908372 319.153409 
L 375.410673 337.200417 
L 380.912975 324.309697 
L 386.415276 324.309697 
L 391.917578 311.418977 
L 397.419879 311.418977 
L 402.922181 298.528258 
L 408.424482 285.637538 
L 413.926784 298.528258 
L 419.429085 298.528258 
L 424.931387 298.528258 
L 430.433688 298.528258 
L 435.93599 350.091136 
L 441.438291 350.091136 
L 446.940593 350.091136 
L 452.442894 298.528258 
L 457.945196 298.528258 
L 463.447497 298.528258 
L 468.949799 246.965379 
L 474.4521 246.965379 
L 479.954402 246.965379 
L 485.456703 246.965379 
L 490.959005 195.4025 
L 496.461306 246.965379 
L 501.963608 246.965379 
L 507.465909 246.965379 
" style="fill:none;stroke:#1f77b4;stroke-linecap:square;stroke-width:1.5;"/>
   </g>
   <g id="line2d_19">
    <path clip-path="url(#pbff85ef138)" d="M 72.784091 298.528258 
L 78.286392 293.37197 
L 83.788694 289.762568 
L 89.290995 284.60628 
L 94.793297 278.934364 
L 100.295598 276.35622 
L 105.7979 271.199932 
L 111.300201 269.361377 
L 116.802503 267.278028 
L 122.304804 265.194679 
L 127.807106 264.328389 
L 133.309407 258.660052 
L 138.811709 257.707645 
L 144.31401 251.90225 
L 149.816312 247.551321 
L 155.318613 246.965379 
L 160.820915 243.821301 
L 166.323216 239.032628 
L 171.825518 233.902783 
L 177.327819 230.02329 
L 182.830121 234.074659 
L 188.332422 232.595396 
L 193.834724 230.426342 
L 199.337025 228.023913 
L 204.839327 225.871474 
L 210.341628 222.473011 
L 215.84393 221.920552 
L 221.346231 215.362324 
L 226.848533 207.777591 
L 232.350834 203.544007 
L 237.853136 202.277551 
L 243.355437 199.085563 
L 248.857739 182.51178 
L 254.36004 179.933636 
L 259.862342 179.933636 
L 265.364643 182.51178 
L 270.866945 203.996313 
L 276.369246 203.996313 
L 281.871548 195.4025 
L 287.373849 221.183939 
L 292.876151 221.183939 
L 298.378452 92.276742 
L 303.880754 40.713864 
L 309.383055 40.713864 
" style="fill:none;stroke:#ff7f0e;stroke-linecap:square;stroke-width:1.5;"/>
   </g>
   <g id="line2d_20">
    <path clip-path="url(#pbff85ef138)" d="M 72.784091 350.091136 
L 78.286392 350.091136 
L 83.788694 348.54425 
L 89.290995 341.841076 
L 94.793297 336.684788 
L 100.295598 335.137902 
L 105.7979 331.012871 
L 111.300201 327.695139 
L 116.802503 326.132627 
L 122.304804 325.090953 
L 127.807106 323.257393 
L 133.309407 320.854453 
L 138.811709 322.161244 
L 144.31401 316.081578 
L 149.816312 315.52057 
L 155.318613 313.345177 
L 160.820915 312.362201 
L 166.323216 311.088446 
L 171.825518 307.465823 
L 177.327819 304.421158 
L 182.830121 299.333928 
L 188.332422 295.992378 
L 193.834724 300.474027 
L 199.337025 297.475954 
L 204.839327 299.700141 
L 210.341628 295.950114 
L 215.84393 294.108582 
L 221.346231 288.548346 
L 226.848533 292.340712 
L 232.350834 284.959079 
L 237.853136 291.653207 
L 243.355437 283.796006 
L 248.857739 285.637538 
L 254.36004 277.903106 
L 259.862342 277.903106 
L 265.364643 266.301458 
L 270.866945 272.746818 
L 276.369246 272.746818 
L 281.871548 272.746818 
L 287.373849 324.309697 
L 292.876151 324.309697 
L 298.378452 350.091136 
L 303.880754 350.091136 
L 309.383055 298.528258 
" style="fill:none;stroke:#ff7f0e;stroke-linecap:square;stroke-width:1.5;"/>
   </g>
   <g id="line2d_21">
    <path clip-path="url(#pbff85ef138)" d="M 72.784091 298.528258 
L 78.286392 294.918856 
L 83.788694 289.762568 
L 89.290995 286.153167 
L 94.793297 280.996879 
L 100.295598 280.48125 
L 105.7979 276.871848 
L 111.300201 272.746818 
L 116.802503 270.168674 
L 122.304804 267.4853 
L 127.807106 264.854541 
L 133.309407 261.077325 
L 138.811709 257.277955 
L 144.31401 251.955335 
L 149.816312 245.832129 
L 155.318613 241.23617 
L 160.820915 237.11629 
L 166.323216 231.730892 
L 171.825518 229.777753 
L 177.327819 223.639315 
L 182.830121 218.039861 
L 188.332422 213.720891 
L 193.834724 209.840106 
L 199.337025 214.73858 
L 204.839327 212.333595 
L 210.341628 213.408585 
L 215.84393 209.152601 
L 221.346231 206.257843 
L 226.848533 201.468721 
L 232.350834 198.496273 
L 237.853136 198.693748 
L 243.355437 198.765296 
L 248.857739 197.857875 
L 254.36004 193.929275 
L 259.862342 195.4025 
L 265.364643 201.590045 
L 270.866945 191.105593 
L 276.369246 200.090034 
L 281.871548 195.4025 
L 287.373849 195.4025 
L 292.876151 183.270058 
L 298.378452 188.036374 
L 303.880754 195.4025 
L 309.383055 188.95714 
L 314.885357 212.590126 
L 320.387658 236.652803 
L 325.88996 226.340227 
L 331.392261 221.183939 
L 336.894563 212.590126 
L 342.396864 212.590126 
L 347.899166 212.590126 
L 353.401467 212.590126 
L 358.903769 195.4025 
L 364.40607 195.4025 
L 369.908372 272.746818 
L 375.410673 272.746818 
L 380.912975 272.746818 
L 386.415276 298.528258 
L 391.917578 298.528258 
L 397.419879 298.528258 
L 402.922181 298.528258 
L 408.424482 298.528258 
L 413.926784 246.965379 
L 419.429085 246.965379 
L 424.931387 246.965379 
L 430.433688 246.965379 
L 435.93599 246.965379 
L 441.438291 246.965379 
L 446.940593 246.965379 
L 452.442894 246.965379 
" style="fill:none;stroke:#2ca02c;stroke-linecap:square;stroke-width:1.5;"/>
   </g>
   <g id="line2d_22">
    <path clip-path="url(#pbff85ef138)" d="M 72.784091 350.091136 
L 78.286392 350.091136 
L 83.788694 349.575508 
L 89.290995 346.481735 
L 94.793297 342.356705 
L 100.295598 340.809818 
L 105.7979 334.622273 
L 111.300201 334.622273 
L 116.802503 331.5285 
L 122.304804 329.571215 
L 127.807106 325.888152 
L 133.309407 322.952779 
L 138.811709 321.867245 
L 144.31401 318.488082 
L 149.816312 314.393759 
L 155.318613 315.142963 
L 160.820915 310.115421 
L 166.323216 303.801734 
L 171.825518 299.713611 
L 177.327819 297.914414 
L 182.830121 294.126548 
L 188.332422 288.351374 
L 193.834724 284.090652 
L 199.337025 284.205236 
L 204.839327 282.366758 
L 210.341628 280.522173 
L 215.84393 275.324962 
L 221.346231 272.294512 
L 226.848533 272.2413 
L 232.350834 268.621788 
L 237.853136 266.712864 
L 243.355437 264.900293 
L 248.857739 264.153005 
L 254.36004 263.170855 
L 259.862342 260.71548 
L 265.364643 265.528015 
L 270.866945 257.707645 
L 276.369246 258.684215 
L 281.871548 256.78688 
L 287.373849 256.06471 
L 292.876151 246.965379 
L 298.378452 258.014567 
L 303.880754 256.340448 
L 309.383055 259.856098 
L 314.885357 289.934444 
L 320.387658 298.528258 
L 325.88996 298.528258 
L 331.392261 311.418977 
L 336.894563 315.715884 
L 342.396864 315.715884 
L 347.899166 315.715884 
L 353.401467 298.528258 
L 358.903769 298.528258 
L 364.40607 298.528258 
L 369.908372 324.309697 
L 375.410673 298.528258 
L 380.912975 298.528258 
L 386.415276 350.091136 
L 391.917578 350.091136 
L 397.419879 350.091136 
L 402.922181 350.091136 
L 408.424482 350.091136 
L 413.926784 350.091136 
L 419.429085 350.091136 
L 424.931387 350.091136 
L 430.433688 298.528258 
L 435.93599 298.528258 
L 441.438291 298.528258 
L 446.940593 298.528258 
L 452.442894 298.528258 
" style="fill:none;stroke:#2ca02c;stroke-linecap:square;stroke-width:1.5;"/>
   </g>
   <g id="line2d_23">
    <path clip-path="url(#pbff85ef138)" d="M 72.784091 298.528258 
L 78.286392 291.309455 
L 83.788694 287.700053 
L 89.290995 282.543765 
L 94.793297 277.387477 
L 100.295598 269.653045 
L 105.7979 266.757191 
L 111.300201 261.69763 
L 116.802503 258.014567 
L 122.304804 252.812716 
L 127.807106 249.091683 
L 133.309407 248.050913 
L 138.811709 245.30206 
L 144.31401 243.638741 
L 149.816312 240.800252 
L 155.318613 237.332753 
L 160.820915 232.233128 
L 166.323216 229.973066 
L 171.825518 226.340227 
L 177.327819 219.894867 
L 182.830121 219.827022 
L 188.332422 219.418087 
L 193.834724 218.568431 
L 199.337025 212.590126 
L 204.839327 210.134751 
L 210.341628 207.815786 
L 215.84393 211.187055 
L 221.346231 212.216482 
L 226.848533 209.152601 
L 232.350834 210.494074 
L 237.853136 213.912251 
L 243.355437 215.454731 
L 248.857739 209.90456 
L 254.36004 214.308889 
L 259.862342 215.234376 
L 265.364643 210.134751 
L 270.866945 216.027652 
L 276.369246 217.113186 
L 281.871548 212.590126 
L 287.373849 203.335251 
L 292.876151 204.777569 
L 298.378452 200.090034 
L 303.880754 205.715076 
L 309.383055 212.590126 
L 314.885357 208.29322 
L 320.387658 201.84786 
L 325.88996 210.134751 
L 331.392261 188.036374 
L 336.894563 203.996313 
L 342.396864 203.996313 
L 347.899166 203.996313 
L 353.401467 205.715076 
L 358.903769 195.4025 
L 364.40607 195.4025 
L 369.908372 229.777753 
L 375.410673 212.590126 
L 380.912975 246.965379 
L 386.415276 246.965379 
L 391.917578 246.965379 
L 397.419879 246.965379 
L 402.922181 246.965379 
L 408.424482 246.965379 
" style="fill:none;stroke:#d62728;stroke-linecap:square;stroke-width:1.5;"/>
   </g>
   <g id="line2d_24">
    <path clip-path="url(#pbff85ef138)" d="M 72.784091 350.091136 
L 78.286392 350.091136 
L 83.788694 343.903591 
L 89.290995 342.356705 
L 94.793297 338.747303 
L 100.295598 333.075386 
L 105.7979 333.424347 
L 111.300201 329.045063 
L 116.802503 324.309697 
L 122.304804 319.7913 
L 127.807106 315.538692 
L 133.309407 310.469135 
L 138.811709 307.39929 
L 144.31401 303.518214 
L 149.816312 297.967792 
L 155.318613 297.395007 
L 160.820915 293.995257 
L 166.323216 291.496956 
L 171.825518 288.215682 
L 177.327819 286.92661 
L 182.830121 289.029833 
L 188.332422 280.869737 
L 193.834724 276.109615 
L 199.337025 272.746818 
L 204.839327 272.746818 
L 210.341628 271.79195 
L 215.84393 274.325274 
L 221.346231 274.988682 
L 226.848533 274.465581 
L 232.350834 279.66379 
L 237.853136 276.052131 
L 243.355437 279.908329 
L 248.857739 272.746818 
L 254.36004 279.621869 
L 259.862342 278.696381 
L 265.364643 288.706757 
L 270.866945 285.637538 
L 276.369246 287.672915 
L 281.871548 305.403308 
L 287.373849 294.561882 
L 292.876151 298.528258 
L 298.378452 298.528258 
L 303.880754 293.37197 
L 309.383055 298.528258 
L 314.885357 304.973617 
L 320.387658 298.528258 
L 325.88996 298.528258 
L 331.392261 291.162132 
L 336.894563 307.122071 
L 342.396864 307.122071 
L 347.899166 281.340631 
L 353.401467 277.903106 
L 358.903769 285.637538 
L 364.40607 285.637538 
L 369.908372 298.528258 
L 375.410673 298.528258 
L 380.912975 272.746818 
L 386.415276 272.746818 
L 391.917578 272.746818 
L 397.419879 272.746818 
L 402.922181 272.746818 
L 408.424482 272.746818 
" style="fill:none;stroke:#d62728;stroke-linecap:square;stroke-width:1.5;"/>
   </g>
   <g id="line2d_25">
    <path clip-path="url(#pbff85ef138)" d="M 72.784091 298.528258 
L 78.286392 293.73291 
L 83.788694 288.421933 
L 89.290995 282.698454 
L 94.793297 277.43904 
L 100.295598 272.437441 
L 105.7979 267.662791 
L 111.300201 262.310244 
L 116.802503 257.381599 
L 122.304804 253.280266 
L 127.807106 248.841367 
L 133.309407 244.85169 
L 138.811709 240.722609 
L 144.31401 236.798051 
L 149.816312 232.597787 
L 155.318613 228.579249 
L 160.820915 225.294024 
L 166.323216 222.462358 
L 171.825518 222.283622 
L 177.327819 219.018019 
L 182.830121 217.920466 
L 188.332422 217.043854 
L 193.834724 213.654846 
L 199.337025 212.502434 
L 204.839327 208.452364 
L 210.341628 207.935144 
L 215.84393 200.23652 
L 221.346231 195.858809 
L 226.848533 194.835875 
L 232.350834 199.308779 
L 237.853136 198.215021 
L 243.355437 198.918151 
L 248.857739 193.885945 
L 254.36004 197.385688 
L 259.862342 189.336279 
L 265.364643 174.777348 
L 270.866945 152.433434 
L 276.369246 156.730341 
L 281.871548 135.245808 
L 287.373849 169.621061 
L 292.876151 143.839621 
L 298.378452 195.4025 
L 303.880754 221.183939 
L 309.383055 195.4025 
L 314.885357 195.4025 
L 320.387658 143.839621 
" style="fill:none;stroke:#9467bd;stroke-linecap:square;stroke-width:1.5;"/>
   </g>
   <g id="line2d_26">
    <path clip-path="url(#pbff85ef138)" d="M 72.784091 350.091136 
L 78.286392 350.091136 
L 83.788694 348.956753 
L 89.290995 348.080184 
L 94.793297 347.358304 
L 100.295598 345.914543 
L 105.7979 344.413542 
L 111.300201 342.54787 
L 116.802503 340.037671 
L 122.304804 338.557335 
L 127.807106 335.833625 
L 133.309407 333.570991 
L 138.811709 332.443306 
L 144.31401 329.822502 
L 149.816312 327.701032 
L 155.318613 325.903162 
L 160.820915 323.188765 
L 166.323216 320.474442 
L 171.825518 319.300033 
L 177.327819 315.43641 
L 182.830121 314.356103 
L 188.332422 314.14767 
L 193.834724 313.814598 
L 199.337025 311.418977 
L 204.839327 307.44036 
L 210.341628 305.331693 
L 215.84393 303.765112 
L 221.346231 295.790406 
L 226.848533 299.661508 
L 232.350834 300.090769 
L 237.853136 296.653244 
L 243.355437 290.325072 
L 248.857739 292.462037 
L 254.36004 288.612319 
L 259.862342 277.296484 
L 265.364643 260.71548 
L 270.866945 251.262285 
L 276.369246 259.856098 
L 281.871548 246.965379 
L 287.373849 234.074659 
L 292.876151 229.777753 
L 298.378452 272.746818 
L 303.880754 298.528258 
L 309.383055 246.965379 
L 314.885357 246.965379 
L 320.387658 246.965379 
" style="fill:none;stroke:#9467bd;stroke-linecap:square;stroke-width:1.5;"/>
   </g>
   <g id="line2d_27">
    <path clip-path="url(#pbff85ef138)" d="M 72.784091 298.528258 
L 78.286392 292.340712 
L 83.788694 288.215682 
L 89.290995 282.44951 
L 94.793297 275.460654 
L 100.295598 246.965379 
" style="fill:none;stroke:#8c564b;stroke-linecap:square;stroke-width:1.5;"/>
   </g>
   <g id="line2d_28">
    <path clip-path="url(#pbff85ef138)" d="M 72.784091 350.091136 
L 78.286392 350.091136 
L 83.788694 350.091136 
L 89.290995 350.091136 
L 94.793297 348.734219 
L 100.295598 350.091136 
" style="fill:none;stroke:#8c564b;stroke-linecap:square;stroke-width:1.5;"/>
   </g>
   <g id="line2d_29">
    <path clip-path="url(#pbff85ef138)" d="M 72.784091 298.528258 
L 78.286392 294.918856 
L 83.788694 287.700053 
L 89.290995 285.077072 
L 94.793297 289.724839 
L 100.295598 285.637538 
L 105.7979 246.965379 
" style="fill:none;stroke:#e377c2;stroke-linecap:square;stroke-width:1.5;"/>
   </g>
   <g id="line2d_30">
    <path clip-path="url(#pbff85ef138)" d="M 72.784091 350.091136 
L 78.286392 350.091136 
L 83.788694 349.059879 
L 89.290995 350.091136 
L 94.793297 350.091136 
L 100.295598 350.091136 
L 105.7979 350.091136 
" style="fill:none;stroke:#e377c2;stroke-linecap:square;stroke-width:1.5;"/>
   </g>
   <g id="line2d_31">
    <path clip-path="url(#pbff85ef138)" d="M 72.784091 298.528258 
L 78.286392 291.825083 
L 83.788694 287.700053 
L 89.290995 282.620561 
L 94.793297 285.307007 
L 100.295598 264.153005 
" style="fill:none;stroke:#7f7f7f;stroke-linecap:square;stroke-width:1.5;"/>
   </g>
   <g id="line2d_32">
    <path clip-path="url(#pbff85ef138)" d="M 72.784091 350.091136 
L 78.286392 350.091136 
L 83.788694 350.091136 
L 89.290995 349.542595 
L 94.793297 350.091136 
L 100.295598 350.091136 
" style="fill:none;stroke:#7f7f7f;stroke-linecap:square;stroke-width:1.5;"/>
   </g>
   <g id="patch_3">
    <path d="M 51.05 365.56 
L 51.05 25.245 
" style="fill:none;stroke:#000000;stroke-linecap:square;stroke-linejoin:miter;stroke-width:0.8;"/>
   </g>
   <g id="patch_4">
    <path d="M 529.2 365.56 
L 529.2 25.245 
" style="fill:none;stroke:#000000;stroke-linecap:square;stroke-linejoin:miter;stroke-width:0.8;"/>
   </g>
   <g id="patch_5">
    <path d="M 51.05 365.56 
L 529.2 365.56 
" style="fill:none;stroke:#000000;stroke-linecap:square;stroke-linejoin:miter;stroke-width:0.8;"/>
   </g>
   <g id="patch_6">
    <path d="M 51.05 25.245 
L 529.2 25.245 
" style="fill:none;stroke:#000000;stroke-linecap:square;stroke-linejoin:miter;stroke-width:0.8;"/>
   </g>
   <g id="legend_1">
    <g id="patch_7">
     <path d="M 60.383333 192.478333 
L 206.83125 192.478333 
Q 209.497917 192.478333 209.497917 189.811667 
L 209.497917 34.578333 
Q 209.497917 31.911667 206.83125 31.911667 
L 60.383333 31.911667 
Q 57.716667 31.911667 57.716667 34.578333 
L 57.716667 189.811667 
Q 57.716667 192.478333 60.383333 192.478333 
z
" style="fill:#ffffff;opacity:0.8;stroke:#cccccc;stroke-linejoin:miter;"/>
    </g>
    <g id="line2d_33">
     <path d="M 63.05 42.709583 
L 89.716667 42.709583 
" style="fill:none;stroke:#1f77b4;stroke-linecap:square;stroke-width:1.5;"/>
    </g>
    <g id="line2d_34"/>
    <g id="text_19">
     <!-- DD-IPI -->
     <defs>
      <path d="M 19.671875 64.796875 
L 19.671875 8.109375 
L 31.59375 8.109375 
Q 46.6875 8.109375 53.6875 14.9375 
Q 60.6875 21.78125 60.6875 36.53125 
Q 60.6875 51.171875 53.6875 57.984375 
Q 46.6875 64.796875 31.59375 64.796875 
z
M 9.8125 72.90625 
L 30.078125 72.90625 
Q 51.265625 72.90625 61.171875 64.09375 
Q 71.09375 55.28125 71.09375 36.53125 
Q 71.09375 17.671875 61.125 8.828125 
Q 51.171875 0 30.078125 0 
L 9.8125 0 
z
" id="DejaVuSans-68"/>
      <path d="M 4.890625 31.390625 
L 31.203125 31.390625 
L 31.203125 23.390625 
L 4.890625 23.390625 
z
" id="DejaVuSans-45"/>
      <path d="M 9.8125 72.90625 
L 19.671875 72.90625 
L 19.671875 0 
L 9.8125 0 
z
" id="DejaVuSans-73"/>
      <path d="M 19.671875 64.796875 
L 19.671875 37.40625 
L 32.078125 37.40625 
Q 38.96875 37.40625 42.71875 40.96875 
Q 46.484375 44.53125 46.484375 51.125 
Q 46.484375 57.671875 42.71875 61.234375 
Q 38.96875 64.796875 32.078125 64.796875 
z
M 9.8125 72.90625 
L 32.078125 72.90625 
Q 44.34375 72.90625 50.609375 67.359375 
Q 56.890625 61.8125 56.890625 51.125 
Q 56.890625 40.328125 50.609375 34.8125 
Q 44.34375 29.296875 32.078125 29.296875 
L 19.671875 29.296875 
L 19.671875 0 
L 9.8125 0 
z
" id="DejaVuSans-80"/>
     </defs>
     <g transform="translate(100.383333 47.37625)scale(0.133333 -0.133333)">
      <use xlink:href="#DejaVuSans-68"/>
      <use x="77.001953" xlink:href="#DejaVuSans-68"/>
      <use x="154.003906" xlink:href="#DejaVuSans-45"/>
      <use x="190.087891" xlink:href="#DejaVuSans-73"/>
      <use x="219.580078" xlink:href="#DejaVuSans-80"/>
      <use x="279.882812" xlink:href="#DejaVuSans-73"/>
     </g>
    </g>
    <g id="line2d_35">
     <path d="M 63.05 62.280417 
L 89.716667 62.280417 
" style="fill:none;stroke:#ff7f0e;stroke-linecap:square;stroke-width:1.5;"/>
    </g>
    <g id="line2d_36"/>
    <g id="text_20">
     <!-- DD-PI -->
     <g transform="translate(100.383333 66.947083)scale(0.133333 -0.133333)">
      <use xlink:href="#DejaVuSans-68"/>
      <use x="77.001953" xlink:href="#DejaVuSans-68"/>
      <use x="154.003906" xlink:href="#DejaVuSans-45"/>
      <use x="190.087891" xlink:href="#DejaVuSans-80"/>
      <use x="250.390625" xlink:href="#DejaVuSans-73"/>
     </g>
    </g>
    <g id="line2d_37">
     <path d="M 63.05 81.85125 
L 89.716667 81.85125 
" style="fill:none;stroke:#2ca02c;stroke-linecap:square;stroke-width:1.5;"/>
    </g>
    <g id="line2d_38"/>
    <g id="text_21">
     <!-- DD-ML-IPI -->
     <defs>
      <path d="M 9.8125 72.90625 
L 24.515625 72.90625 
L 43.109375 23.296875 
L 61.8125 72.90625 
L 76.515625 72.90625 
L 76.515625 0 
L 66.890625 0 
L 66.890625 64.015625 
L 48.09375 14.015625 
L 38.1875 14.015625 
L 19.390625 64.015625 
L 19.390625 0 
L 9.8125 0 
z
" id="DejaVuSans-77"/>
      <path d="M 9.8125 72.90625 
L 19.671875 72.90625 
L 19.671875 8.296875 
L 55.171875 8.296875 
L 55.171875 0 
L 9.8125 0 
z
" id="DejaVuSans-76"/>
     </defs>
     <g transform="translate(100.383333 86.517917)scale(0.133333 -0.133333)">
      <use xlink:href="#DejaVuSans-68"/>
      <use x="77.001953" xlink:href="#DejaVuSans-68"/>
      <use x="154.003906" xlink:href="#DejaVuSans-45"/>
      <use x="190.087891" xlink:href="#DejaVuSans-77"/>
      <use x="276.367188" xlink:href="#DejaVuSans-76"/>
      <use x="332.064453" xlink:href="#DejaVuSans-45"/>
      <use x="368.148438" xlink:href="#DejaVuSans-73"/>
      <use x="397.640625" xlink:href="#DejaVuSans-80"/>
      <use x="457.943359" xlink:href="#DejaVuSans-73"/>
     </g>
    </g>
    <g id="line2d_39">
     <path d="M 63.05 101.422083 
L 89.716667 101.422083 
" style="fill:none;stroke:#d62728;stroke-linecap:square;stroke-width:1.5;"/>
    </g>
    <g id="line2d_40"/>
    <g id="text_22">
     <!-- DD-ML-PI -->
     <g transform="translate(100.383333 106.08875)scale(0.133333 -0.133333)">
      <use xlink:href="#DejaVuSans-68"/>
      <use x="77.001953" xlink:href="#DejaVuSans-68"/>
      <use x="154.003906" xlink:href="#DejaVuSans-45"/>
      <use x="190.087891" xlink:href="#DejaVuSans-77"/>
      <use x="276.367188" xlink:href="#DejaVuSans-76"/>
      <use x="332.064453" xlink:href="#DejaVuSans-45"/>
      <use x="368.148438" xlink:href="#DejaVuSans-80"/>
      <use x="428.451172" xlink:href="#DejaVuSans-73"/>
     </g>
    </g>
    <g id="line2d_41">
     <path d="M 63.05 120.992917 
L 89.716667 120.992917 
" style="fill:none;stroke:#9467bd;stroke-linecap:square;stroke-width:1.5;"/>
    </g>
    <g id="line2d_42"/>
    <g id="text_23">
     <!-- DD-Random -->
     <defs>
      <path d="M 44.390625 34.1875 
Q 47.5625 33.109375 50.5625 29.59375 
Q 53.5625 26.078125 56.59375 19.921875 
L 66.609375 0 
L 56 0 
L 46.6875 18.703125 
Q 43.0625 26.03125 39.671875 28.421875 
Q 36.28125 30.8125 30.421875 30.8125 
L 19.671875 30.8125 
L 19.671875 0 
L 9.8125 0 
L 9.8125 72.90625 
L 32.078125 72.90625 
Q 44.578125 72.90625 50.734375 67.671875 
Q 56.890625 62.453125 56.890625 51.90625 
Q 56.890625 45.015625 53.6875 40.46875 
Q 50.484375 35.9375 44.390625 34.1875 
z
M 19.671875 64.796875 
L 19.671875 38.921875 
L 32.078125 38.921875 
Q 39.203125 38.921875 42.84375 42.21875 
Q 46.484375 45.515625 46.484375 51.90625 
Q 46.484375 58.296875 42.84375 61.546875 
Q 39.203125 64.796875 32.078125 64.796875 
z
" id="DejaVuSans-82"/>
     </defs>
     <g transform="translate(100.383333 125.659583)scale(0.133333 -0.133333)">
      <use xlink:href="#DejaVuSans-68"/>
      <use x="77.001953" xlink:href="#DejaVuSans-68"/>
      <use x="154.003906" xlink:href="#DejaVuSans-45"/>
      <use x="190.087891" xlink:href="#DejaVuSans-82"/>
      <use x="259.539062" xlink:href="#DejaVuSans-97"/>
      <use x="320.818359" xlink:href="#DejaVuSans-110"/>
      <use x="384.197266" xlink:href="#DejaVuSans-100"/>
      <use x="447.673828" xlink:href="#DejaVuSans-111"/>
      <use x="508.855469" xlink:href="#DejaVuSans-109"/>
     </g>
    </g>
    <g id="line2d_43">
     <path d="M 63.05 140.56375 
L 89.716667 140.56375 
" style="fill:none;stroke:#8c564b;stroke-linecap:square;stroke-width:1.5;"/>
    </g>
    <g id="line2d_44"/>
    <g id="text_24">
     <!-- No-DD-IPI -->
     <defs>
      <path d="M 9.8125 72.90625 
L 23.09375 72.90625 
L 55.421875 11.921875 
L 55.421875 72.90625 
L 64.984375 72.90625 
L 64.984375 0 
L 51.703125 0 
L 19.390625 60.984375 
L 19.390625 0 
L 9.8125 0 
z
" id="DejaVuSans-78"/>
     </defs>
     <g transform="translate(100.383333 145.230417)scale(0.133333 -0.133333)">
      <use xlink:href="#DejaVuSans-78"/>
      <use x="74.804688" xlink:href="#DejaVuSans-111"/>
      <use x="136.001953" xlink:href="#DejaVuSans-45"/>
      <use x="172.085938" xlink:href="#DejaVuSans-68"/>
      <use x="249.087891" xlink:href="#DejaVuSans-68"/>
      <use x="326.089844" xlink:href="#DejaVuSans-45"/>
      <use x="362.173828" xlink:href="#DejaVuSans-73"/>
      <use x="391.666016" xlink:href="#DejaVuSans-80"/>
      <use x="451.96875" xlink:href="#DejaVuSans-73"/>
     </g>
    </g>
    <g id="line2d_45">
     <path d="M 63.05 160.134583 
L 89.716667 160.134583 
" style="fill:none;stroke:#e377c2;stroke-linecap:square;stroke-width:1.5;"/>
    </g>
    <g id="line2d_46"/>
    <g id="text_25">
     <!-- No-DD-PI -->
     <g transform="translate(100.383333 164.80125)scale(0.133333 -0.133333)">
      <use xlink:href="#DejaVuSans-78"/>
      <use x="74.804688" xlink:href="#DejaVuSans-111"/>
      <use x="136.001953" xlink:href="#DejaVuSans-45"/>
      <use x="172.085938" xlink:href="#DejaVuSans-68"/>
      <use x="249.087891" xlink:href="#DejaVuSans-68"/>
      <use x="326.089844" xlink:href="#DejaVuSans-45"/>
      <use x="362.173828" xlink:href="#DejaVuSans-80"/>
      <use x="422.476562" xlink:href="#DejaVuSans-73"/>
     </g>
    </g>
    <g id="line2d_47">
     <path d="M 63.05 179.705417 
L 89.716667 179.705417 
" style="fill:none;stroke:#7f7f7f;stroke-linecap:square;stroke-width:1.5;"/>
    </g>
    <g id="line2d_48"/>
    <g id="text_26">
     <!-- No-DD-Random -->
     <g transform="translate(100.383333 184.372083)scale(0.133333 -0.133333)">
      <use xlink:href="#DejaVuSans-78"/>
      <use x="74.804688" xlink:href="#DejaVuSans-111"/>
      <use x="136.001953" xlink:href="#DejaVuSans-45"/>
      <use x="172.085938" xlink:href="#DejaVuSans-68"/>
      <use x="249.087891" xlink:href="#DejaVuSans-68"/>
      <use x="326.089844" xlink:href="#DejaVuSans-45"/>
      <use x="362.173828" xlink:href="#DejaVuSans-82"/>
      <use x="431.625" xlink:href="#DejaVuSans-97"/>
      <use x="492.904297" xlink:href="#DejaVuSans-110"/>
      <use x="556.283203" xlink:href="#DejaVuSans-100"/>
      <use x="619.759766" xlink:href="#DejaVuSans-111"/>
      <use x="680.941406" xlink:href="#DejaVuSans-109"/>
     </g>
    </g>
   </g>
  </g>
 </g>
 <defs>
  <clipPath id="pbff85ef138">
   <rect height="340.315" width="478.15" x="51.05" y="25.245"/>
  </clipPath>
 </defs>
</svg>
