<?xml version="1.0" encoding="utf-8" standalone="no"?>
<!DOCTYPE svg PUBLIC "-//W3C//DTD SVG 1.1//EN"
  "http://www.w3.org/Graphics/SVG/1.1/DTD/svg11.dtd">
<!-- Created with matplotlib (https://matplotlib.org/) -->
<svg height="432pt" version="1.1" viewBox="0 0 540 432" width="540pt" xmlns="http://www.w3.org/2000/svg" xmlns:xlink="http://www.w3.org/1999/xlink">
 <defs>
  <style type="text/css">
*{stroke-linecap:butt;stroke-linejoin:round;}
  </style>
 </defs>
 <g id="figure_1">
  <g id="patch_1">
   <path d="M 0 432 
L 540 432 
L 540 0 
L 0 0 
z
" style="fill:#ffffff;"/>
  </g>
  <g id="axes_1">
   <g id="patch_2">
    <path d="M 51.05 365.56 
L 529.2 365.56 
L 529.2 25.245 
L 51.05 25.245 
z
" style="fill:#ffffff;"/>
   </g>
   <g id="matplotlib.axis_1">
    <g id="xtick_1">
     <g id="line2d_1">
      <defs>
       <path d="M 0 0 
L 0 3.5 
" id="m4d77b83db9" style="stroke:#000000;stroke-width:0.8;"/>
      </defs>
      <g>
       <use style="stroke:#000000;stroke-width:0.8;" x="72.784091" xlink:href="#m4d77b83db9" y="365.56"/>
      </g>
     </g>
     <g id="text_1">
      <!-- 0 -->
      <defs>
       <path d="M 31.78125 66.40625 
Q 24.171875 66.40625 20.328125 58.90625 
Q 16.5 51.421875 16.5 36.375 
Q 16.5 21.390625 20.328125 13.890625 
Q 24.171875 6.390625 31.78125 6.390625 
Q 39.453125 6.390625 43.28125 13.890625 
Q 47.125 21.390625 47.125 36.375 
Q 47.125 51.421875 43.28125 58.90625 
Q 39.453125 66.40625 31.78125 66.40625 
z
M 31.78125 74.21875 
Q 44.046875 74.21875 50.515625 64.515625 
Q 56.984375 54.828125 56.984375 36.375 
Q 56.984375 17.96875 50.515625 8.265625 
Q 44.046875 -1.421875 31.78125 -1.421875 
Q 19.53125 -1.421875 13.0625 8.265625 
Q 6.59375 17.96875 6.59375 36.375 
Q 6.59375 54.828125 13.0625 64.515625 
Q 19.53125 74.21875 31.78125 74.21875 
z
" id="DejaVuSans-48"/>
      </defs>
      <g transform="translate(66.421591 387.756875)scale(0.2 -0.2)">
       <use xlink:href="#DejaVuSans-48"/>
      </g>
     </g>
    </g>
    <g id="xtick_2">
     <g id="line2d_2">
      <g>
       <use style="stroke:#000000;stroke-width:0.8;" x="131.524877" xlink:href="#m4d77b83db9" y="365.56"/>
      </g>
     </g>
     <g id="text_2">
      <!-- 10 -->
      <defs>
       <path d="M 12.40625 8.296875 
L 28.515625 8.296875 
L 28.515625 63.921875 
L 10.984375 60.40625 
L 10.984375 69.390625 
L 28.421875 72.90625 
L 38.28125 72.90625 
L 38.28125 8.296875 
L 54.390625 8.296875 
L 54.390625 0 
L 12.40625 0 
z
" id="DejaVuSans-49"/>
      </defs>
      <g transform="translate(118.799877 387.756875)scale(0.2 -0.2)">
       <use xlink:href="#DejaVuSans-49"/>
       <use x="63.623047" xlink:href="#DejaVuSans-48"/>
      </g>
     </g>
    </g>
    <g id="xtick_3">
     <g id="line2d_3">
      <g>
       <use style="stroke:#000000;stroke-width:0.8;" x="190.265663" xlink:href="#m4d77b83db9" y="365.56"/>
      </g>
     </g>
     <g id="text_3">
      <!-- 20 -->
      <defs>
       <path d="M 19.1875 8.296875 
L 53.609375 8.296875 
L 53.609375 0 
L 7.328125 0 
L 7.328125 8.296875 
Q 12.9375 14.109375 22.625 23.890625 
Q 32.328125 33.6875 34.8125 36.53125 
Q 39.546875 41.84375 41.421875 45.53125 
Q 43.3125 49.21875 43.3125 52.78125 
Q 43.3125 58.59375 39.234375 62.25 
Q 35.15625 65.921875 28.609375 65.921875 
Q 23.96875 65.921875 18.8125 64.3125 
Q 13.671875 62.703125 7.8125 59.421875 
L 7.8125 69.390625 
Q 13.765625 71.78125 18.9375 73 
Q 24.125 74.21875 28.421875 74.21875 
Q 39.75 74.21875 46.484375 68.546875 
Q 53.21875 62.890625 53.21875 53.421875 
Q 53.21875 48.921875 51.53125 44.890625 
Q 49.859375 40.875 45.40625 35.40625 
Q 44.1875 33.984375 37.640625 27.21875 
Q 31.109375 20.453125 19.1875 8.296875 
z
" id="DejaVuSans-50"/>
      </defs>
      <g transform="translate(177.540663 387.756875)scale(0.2 -0.2)">
       <use xlink:href="#DejaVuSans-50"/>
       <use x="63.623047" xlink:href="#DejaVuSans-48"/>
      </g>
     </g>
    </g>
    <g id="xtick_4">
     <g id="line2d_4">
      <g>
       <use style="stroke:#000000;stroke-width:0.8;" x="249.00645" xlink:href="#m4d77b83db9" y="365.56"/>
      </g>
     </g>
     <g id="text_4">
      <!-- 30 -->
      <defs>
       <path d="M 40.578125 39.3125 
Q 47.65625 37.796875 51.625 33 
Q 55.609375 28.21875 55.609375 21.1875 
Q 55.609375 10.40625 48.1875 4.484375 
Q 40.765625 -1.421875 27.09375 -1.421875 
Q 22.515625 -1.421875 17.65625 -0.515625 
Q 12.796875 0.390625 7.625 2.203125 
L 7.625 11.71875 
Q 11.71875 9.328125 16.59375 8.109375 
Q 21.484375 6.890625 26.8125 6.890625 
Q 36.078125 6.890625 40.9375 10.546875 
Q 45.796875 14.203125 45.796875 21.1875 
Q 45.796875 27.640625 41.28125 31.265625 
Q 36.765625 34.90625 28.71875 34.90625 
L 20.21875 34.90625 
L 20.21875 43.015625 
L 29.109375 43.015625 
Q 36.375 43.015625 40.234375 45.921875 
Q 44.09375 48.828125 44.09375 54.296875 
Q 44.09375 59.90625 40.109375 62.90625 
Q 36.140625 65.921875 28.71875 65.921875 
Q 24.65625 65.921875 20.015625 65.03125 
Q 15.375 64.15625 9.8125 62.3125 
L 9.8125 71.09375 
Q 15.4375 72.65625 20.34375 73.4375 
Q 25.25 74.21875 29.59375 74.21875 
Q 40.828125 74.21875 47.359375 69.109375 
Q 53.90625 64.015625 53.90625 55.328125 
Q 53.90625 49.265625 50.4375 45.09375 
Q 46.96875 40.921875 40.578125 39.3125 
z
" id="DejaVuSans-51"/>
      </defs>
      <g transform="translate(236.28145 387.756875)scale(0.2 -0.2)">
       <use xlink:href="#DejaVuSans-51"/>
       <use x="63.623047" xlink:href="#DejaVuSans-48"/>
      </g>
     </g>
    </g>
    <g id="xtick_5">
     <g id="line2d_5">
      <g>
       <use style="stroke:#000000;stroke-width:0.8;" x="307.747236" xlink:href="#m4d77b83db9" y="365.56"/>
      </g>
     </g>
     <g id="text_5">
      <!-- 40 -->
      <defs>
       <path d="M 37.796875 64.3125 
L 12.890625 25.390625 
L 37.796875 25.390625 
z
M 35.203125 72.90625 
L 47.609375 72.90625 
L 47.609375 25.390625 
L 58.015625 25.390625 
L 58.015625 17.1875 
L 47.609375 17.1875 
L 47.609375 0 
L 37.796875 0 
L 37.796875 17.1875 
L 4.890625 17.1875 
L 4.890625 26.703125 
z
" id="DejaVuSans-52"/>
      </defs>
      <g transform="translate(295.022236 387.756875)scale(0.2 -0.2)">
       <use xlink:href="#DejaVuSans-52"/>
       <use x="63.623047" xlink:href="#DejaVuSans-48"/>
      </g>
     </g>
    </g>
    <g id="xtick_6">
     <g id="line2d_6">
      <g>
       <use style="stroke:#000000;stroke-width:0.8;" x="366.488022" xlink:href="#m4d77b83db9" y="365.56"/>
      </g>
     </g>
     <g id="text_6">
      <!-- 50 -->
      <defs>
       <path d="M 10.796875 72.90625 
L 49.515625 72.90625 
L 49.515625 64.59375 
L 19.828125 64.59375 
L 19.828125 46.734375 
Q 21.96875 47.46875 24.109375 47.828125 
Q 26.265625 48.1875 28.421875 48.1875 
Q 40.625 48.1875 47.75 41.5 
Q 54.890625 34.8125 54.890625 23.390625 
Q 54.890625 11.625 47.5625 5.09375 
Q 40.234375 -1.421875 26.90625 -1.421875 
Q 22.3125 -1.421875 17.546875 -0.640625 
Q 12.796875 0.140625 7.71875 1.703125 
L 7.71875 11.625 
Q 12.109375 9.234375 16.796875 8.0625 
Q 21.484375 6.890625 26.703125 6.890625 
Q 35.15625 6.890625 40.078125 11.328125 
Q 45.015625 15.765625 45.015625 23.390625 
Q 45.015625 31 40.078125 35.4375 
Q 35.15625 39.890625 26.703125 39.890625 
Q 22.75 39.890625 18.8125 39.015625 
Q 14.890625 38.140625 10.796875 36.28125 
z
" id="DejaVuSans-53"/>
      </defs>
      <g transform="translate(353.763022 387.756875)scale(0.2 -0.2)">
       <use xlink:href="#DejaVuSans-53"/>
       <use x="63.623047" xlink:href="#DejaVuSans-48"/>
      </g>
     </g>
    </g>
    <g id="xtick_7">
     <g id="line2d_7">
      <g>
       <use style="stroke:#000000;stroke-width:0.8;" x="425.228808" xlink:href="#m4d77b83db9" y="365.56"/>
      </g>
     </g>
     <g id="text_7">
      <!-- 60 -->
      <defs>
       <path d="M 33.015625 40.375 
Q 26.375 40.375 22.484375 35.828125 
Q 18.609375 31.296875 18.609375 23.390625 
Q 18.609375 15.53125 22.484375 10.953125 
Q 26.375 6.390625 33.015625 6.390625 
Q 39.65625 6.390625 43.53125 10.953125 
Q 47.40625 15.53125 47.40625 23.390625 
Q 47.40625 31.296875 43.53125 35.828125 
Q 39.65625 40.375 33.015625 40.375 
z
M 52.59375 71.296875 
L 52.59375 62.3125 
Q 48.875 64.0625 45.09375 64.984375 
Q 41.3125 65.921875 37.59375 65.921875 
Q 27.828125 65.921875 22.671875 59.328125 
Q 17.53125 52.734375 16.796875 39.40625 
Q 19.671875 43.65625 24.015625 45.921875 
Q 28.375 48.1875 33.59375 48.1875 
Q 44.578125 48.1875 50.953125 41.515625 
Q 57.328125 34.859375 57.328125 23.390625 
Q 57.328125 12.15625 50.6875 5.359375 
Q 44.046875 -1.421875 33.015625 -1.421875 
Q 20.359375 -1.421875 13.671875 8.265625 
Q 6.984375 17.96875 6.984375 36.375 
Q 6.984375 53.65625 15.1875 63.9375 
Q 23.390625 74.21875 37.203125 74.21875 
Q 40.921875 74.21875 44.703125 73.484375 
Q 48.484375 72.75 52.59375 71.296875 
z
" id="DejaVuSans-54"/>
      </defs>
      <g transform="translate(412.503808 387.756875)scale(0.2 -0.2)">
       <use xlink:href="#DejaVuSans-54"/>
       <use x="63.623047" xlink:href="#DejaVuSans-48"/>
      </g>
     </g>
    </g>
    <g id="xtick_8">
     <g id="line2d_8">
      <g>
       <use style="stroke:#000000;stroke-width:0.8;" x="483.969595" xlink:href="#m4d77b83db9" y="365.56"/>
      </g>
     </g>
     <g id="text_8">
      <!-- 70 -->
      <defs>
       <path d="M 8.203125 72.90625 
L 55.078125 72.90625 
L 55.078125 68.703125 
L 28.609375 0 
L 18.3125 0 
L 43.21875 64.59375 
L 8.203125 64.59375 
z
" id="DejaVuSans-55"/>
      </defs>
      <g transform="translate(471.244595 387.756875)scale(0.2 -0.2)">
       <use xlink:href="#DejaVuSans-55"/>
       <use x="63.623047" xlink:href="#DejaVuSans-48"/>
      </g>
     </g>
    </g>
    <g id="text_9">
     <!-- # of game -->
     <defs>
      <path d="M 51.125 44 
L 36.921875 44 
L 32.8125 27.6875 
L 47.125 27.6875 
z
M 43.796875 71.78125 
L 38.71875 51.515625 
L 52.984375 51.515625 
L 58.109375 71.78125 
L 65.921875 71.78125 
L 60.890625 51.515625 
L 76.125 51.515625 
L 76.125 44 
L 58.984375 44 
L 54.984375 27.6875 
L 70.515625 27.6875 
L 70.515625 20.21875 
L 53.078125 20.21875 
L 48 0 
L 40.1875 0 
L 45.21875 20.21875 
L 30.90625 20.21875 
L 25.875 0 
L 18.015625 0 
L 23.09375 20.21875 
L 7.71875 20.21875 
L 7.71875 27.6875 
L 24.90625 27.6875 
L 29 44 
L 13.28125 44 
L 13.28125 51.515625 
L 30.90625 51.515625 
L 35.890625 71.78125 
z
" id="DejaVuSans-35"/>
      <path id="DejaVuSans-32"/>
      <path d="M 30.609375 48.390625 
Q 23.390625 48.390625 19.1875 42.75 
Q 14.984375 37.109375 14.984375 27.296875 
Q 14.984375 17.484375 19.15625 11.84375 
Q 23.34375 6.203125 30.609375 6.203125 
Q 37.796875 6.203125 41.984375 11.859375 
Q 46.1875 17.53125 46.1875 27.296875 
Q 46.1875 37.015625 41.984375 42.703125 
Q 37.796875 48.390625 30.609375 48.390625 
z
M 30.609375 56 
Q 42.328125 56 49.015625 48.375 
Q 55.71875 40.765625 55.71875 27.296875 
Q 55.71875 13.875 49.015625 6.21875 
Q 42.328125 -1.421875 30.609375 -1.421875 
Q 18.84375 -1.421875 12.171875 6.21875 
Q 5.515625 13.875 5.515625 27.296875 
Q 5.515625 40.765625 12.171875 48.375 
Q 18.84375 56 30.609375 56 
z
" id="DejaVuSans-111"/>
      <path d="M 37.109375 75.984375 
L 37.109375 68.5 
L 28.515625 68.5 
Q 23.6875 68.5 21.796875 66.546875 
Q 19.921875 64.59375 19.921875 59.515625 
L 19.921875 54.6875 
L 34.71875 54.6875 
L 34.71875 47.703125 
L 19.921875 47.703125 
L 19.921875 0 
L 10.890625 0 
L 10.890625 47.703125 
L 2.296875 47.703125 
L 2.296875 54.6875 
L 10.890625 54.6875 
L 10.890625 58.5 
Q 10.890625 67.625 15.140625 71.796875 
Q 19.390625 75.984375 28.609375 75.984375 
z
" id="DejaVuSans-102"/>
      <path d="M 45.40625 27.984375 
Q 45.40625 37.75 41.375 43.109375 
Q 37.359375 48.484375 30.078125 48.484375 
Q 22.859375 48.484375 18.828125 43.109375 
Q 14.796875 37.75 14.796875 27.984375 
Q 14.796875 18.265625 18.828125 12.890625 
Q 22.859375 7.515625 30.078125 7.515625 
Q 37.359375 7.515625 41.375 12.890625 
Q 45.40625 18.265625 45.40625 27.984375 
z
M 54.390625 6.78125 
Q 54.390625 -7.171875 48.1875 -13.984375 
Q 42 -20.796875 29.203125 -20.796875 
Q 24.46875 -20.796875 20.265625 -20.09375 
Q 16.0625 -19.390625 12.109375 -17.921875 
L 12.109375 -9.1875 
Q 16.0625 -11.328125 19.921875 -12.34375 
Q 23.78125 -13.375 27.78125 -13.375 
Q 36.625 -13.375 41.015625 -8.765625 
Q 45.40625 -4.15625 45.40625 5.171875 
L 45.40625 9.625 
Q 42.625 4.78125 38.28125 2.390625 
Q 33.9375 0 27.875 0 
Q 17.828125 0 11.671875 7.65625 
Q 5.515625 15.328125 5.515625 27.984375 
Q 5.515625 40.671875 11.671875 48.328125 
Q 17.828125 56 27.875 56 
Q 33.9375 56 38.28125 53.609375 
Q 42.625 51.21875 45.40625 46.390625 
L 45.40625 54.6875 
L 54.390625 54.6875 
z
" id="DejaVuSans-103"/>
      <path d="M 34.28125 27.484375 
Q 23.390625 27.484375 19.1875 25 
Q 14.984375 22.515625 14.984375 16.5 
Q 14.984375 11.71875 18.140625 8.90625 
Q 21.296875 6.109375 26.703125 6.109375 
Q 34.1875 6.109375 38.703125 11.40625 
Q 43.21875 16.703125 43.21875 25.484375 
L 43.21875 27.484375 
z
M 52.203125 31.203125 
L 52.203125 0 
L 43.21875 0 
L 43.21875 8.296875 
Q 40.140625 3.328125 35.546875 0.953125 
Q 30.953125 -1.421875 24.3125 -1.421875 
Q 15.921875 -1.421875 10.953125 3.296875 
Q 6 8.015625 6 15.921875 
Q 6 25.140625 12.171875 29.828125 
Q 18.359375 34.515625 30.609375 34.515625 
L 43.21875 34.515625 
L 43.21875 35.40625 
Q 43.21875 41.609375 39.140625 45 
Q 35.0625 48.390625 27.6875 48.390625 
Q 23 48.390625 18.546875 47.265625 
Q 14.109375 46.140625 10.015625 43.890625 
L 10.015625 52.203125 
Q 14.9375 54.109375 19.578125 55.046875 
Q 24.21875 56 28.609375 56 
Q 40.484375 56 46.34375 49.84375 
Q 52.203125 43.703125 52.203125 31.203125 
z
" id="DejaVuSans-97"/>
      <path d="M 52 44.1875 
Q 55.375 50.25 60.0625 53.125 
Q 64.75 56 71.09375 56 
Q 79.640625 56 84.28125 50.015625 
Q 88.921875 44.046875 88.921875 33.015625 
L 88.921875 0 
L 79.890625 0 
L 79.890625 32.71875 
Q 79.890625 40.578125 77.09375 44.375 
Q 74.3125 48.1875 68.609375 48.1875 
Q 61.625 48.1875 57.5625 43.546875 
Q 53.515625 38.921875 53.515625 30.90625 
L 53.515625 0 
L 44.484375 0 
L 44.484375 32.71875 
Q 44.484375 40.625 41.703125 44.40625 
Q 38.921875 48.1875 33.109375 48.1875 
Q 26.21875 48.1875 22.15625 43.53125 
Q 18.109375 38.875 18.109375 30.90625 
L 18.109375 0 
L 9.078125 0 
L 9.078125 54.6875 
L 18.109375 54.6875 
L 18.109375 46.1875 
Q 21.1875 51.21875 25.484375 53.609375 
Q 29.78125 56 35.6875 56 
Q 41.65625 56 45.828125 52.96875 
Q 50 49.953125 52 44.1875 
z
" id="DejaVuSans-109"/>
      <path d="M 56.203125 29.59375 
L 56.203125 25.203125 
L 14.890625 25.203125 
Q 15.484375 15.921875 20.484375 11.0625 
Q 25.484375 6.203125 34.421875 6.203125 
Q 39.59375 6.203125 44.453125 7.46875 
Q 49.3125 8.734375 54.109375 11.28125 
L 54.109375 2.78125 
Q 49.265625 0.734375 44.1875 -0.34375 
Q 39.109375 -1.421875 33.890625 -1.421875 
Q 20.796875 -1.421875 13.15625 6.1875 
Q 5.515625 13.8125 5.515625 26.8125 
Q 5.515625 40.234375 12.765625 48.109375 
Q 20.015625 56 32.328125 56 
Q 43.359375 56 49.78125 48.890625 
Q 56.203125 41.796875 56.203125 29.59375 
z
M 47.21875 32.234375 
Q 47.125 39.59375 43.09375 43.984375 
Q 39.0625 48.390625 32.421875 48.390625 
Q 24.90625 48.390625 20.390625 44.140625 
Q 15.875 39.890625 15.1875 32.171875 
z
" id="DejaVuSans-101"/>
     </defs>
     <g transform="translate(224.193359 414.912344)scale(0.25 -0.25)">
      <use xlink:href="#DejaVuSans-35"/>
      <use x="83.789062" xlink:href="#DejaVuSans-32"/>
      <use x="115.576172" xlink:href="#DejaVuSans-111"/>
      <use x="176.757812" xlink:href="#DejaVuSans-102"/>
      <use x="211.962891" xlink:href="#DejaVuSans-32"/>
      <use x="243.75" xlink:href="#DejaVuSans-103"/>
      <use x="307.226562" xlink:href="#DejaVuSans-97"/>
      <use x="368.505859" xlink:href="#DejaVuSans-109"/>
      <use x="465.917969" xlink:href="#DejaVuSans-101"/>
     </g>
    </g>
   </g>
   <g id="matplotlib.axis_2">
    <g id="ytick_1">
     <g id="line2d_9">
      <defs>
       <path d="M 0 0 
L -3.5 0 
" id="m378a551405" style="stroke:#000000;stroke-width:0.8;"/>
      </defs>
      <g>
       <use style="stroke:#000000;stroke-width:0.8;" x="51.05" xlink:href="#m378a551405" y="350.091136"/>
      </g>
     </g>
     <g id="text_10">
      <!-- 0 -->
      <g transform="translate(31.325 357.689574)scale(0.2 -0.2)">
       <use xlink:href="#DejaVuSans-48"/>
      </g>
     </g>
    </g>
    <g id="ytick_2">
     <g id="line2d_10">
      <g>
       <use style="stroke:#000000;stroke-width:0.8;" x="51.05" xlink:href="#m378a551405" y="305.894383"/>
      </g>
     </g>
     <g id="text_11">
      <!-- 1 -->
      <g transform="translate(31.325 313.492821)scale(0.2 -0.2)">
       <use xlink:href="#DejaVuSans-49"/>
      </g>
     </g>
    </g>
    <g id="ytick_3">
     <g id="line2d_11">
      <g>
       <use style="stroke:#000000;stroke-width:0.8;" x="51.05" xlink:href="#m378a551405" y="261.69763"/>
      </g>
     </g>
     <g id="text_12">
      <!-- 2 -->
      <g transform="translate(31.325 269.296067)scale(0.2 -0.2)">
       <use xlink:href="#DejaVuSans-50"/>
      </g>
     </g>
    </g>
    <g id="ytick_4">
     <g id="line2d_12">
      <g>
       <use style="stroke:#000000;stroke-width:0.8;" x="51.05" xlink:href="#m378a551405" y="217.500877"/>
      </g>
     </g>
     <g id="text_13">
      <!-- 3 -->
      <g transform="translate(31.325 225.099314)scale(0.2 -0.2)">
       <use xlink:href="#DejaVuSans-51"/>
      </g>
     </g>
    </g>
    <g id="ytick_5">
     <g id="line2d_13">
      <g>
       <use style="stroke:#000000;stroke-width:0.8;" x="51.05" xlink:href="#m378a551405" y="173.304123"/>
      </g>
     </g>
     <g id="text_14">
      <!-- 4 -->
      <g transform="translate(31.325 180.902561)scale(0.2 -0.2)">
       <use xlink:href="#DejaVuSans-52"/>
      </g>
     </g>
    </g>
    <g id="ytick_6">
     <g id="line2d_14">
      <g>
       <use style="stroke:#000000;stroke-width:0.8;" x="51.05" xlink:href="#m378a551405" y="129.10737"/>
      </g>
     </g>
     <g id="text_15">
      <!-- 5 -->
      <g transform="translate(31.325 136.705808)scale(0.2 -0.2)">
       <use xlink:href="#DejaVuSans-53"/>
      </g>
     </g>
    </g>
    <g id="ytick_7">
     <g id="line2d_15">
      <g>
       <use style="stroke:#000000;stroke-width:0.8;" x="51.05" xlink:href="#m378a551405" y="84.910617"/>
      </g>
     </g>
     <g id="text_16">
      <!-- 6 -->
      <g transform="translate(31.325 92.509054)scale(0.2 -0.2)">
       <use xlink:href="#DejaVuSans-54"/>
      </g>
     </g>
    </g>
    <g id="ytick_8">
     <g id="line2d_16">
      <g>
       <use style="stroke:#000000;stroke-width:0.8;" x="51.05" xlink:href="#m378a551405" y="40.713864"/>
      </g>
     </g>
     <g id="text_17">
      <!-- 7 -->
      <g transform="translate(31.325 48.312301)scale(0.2 -0.2)">
       <use xlink:href="#DejaVuSans-55"/>
      </g>
     </g>
    </g>
    <g id="text_18">
     <!-- # of attacker (top is total, bottom is inside) -->
     <defs>
      <path d="M 18.3125 70.21875 
L 18.3125 54.6875 
L 36.8125 54.6875 
L 36.8125 47.703125 
L 18.3125 47.703125 
L 18.3125 18.015625 
Q 18.3125 11.328125 20.140625 9.421875 
Q 21.96875 7.515625 27.59375 7.515625 
L 36.8125 7.515625 
L 36.8125 0 
L 27.59375 0 
Q 17.1875 0 13.234375 3.875 
Q 9.28125 7.765625 9.28125 18.015625 
L 9.28125 47.703125 
L 2.6875 47.703125 
L 2.6875 54.6875 
L 9.28125 54.6875 
L 9.28125 70.21875 
z
" id="DejaVuSans-116"/>
      <path d="M 48.78125 52.59375 
L 48.78125 44.1875 
Q 44.96875 46.296875 41.140625 47.34375 
Q 37.3125 48.390625 33.40625 48.390625 
Q 24.65625 48.390625 19.8125 42.84375 
Q 14.984375 37.3125 14.984375 27.296875 
Q 14.984375 17.28125 19.8125 11.734375 
Q 24.65625 6.203125 33.40625 6.203125 
Q 37.3125 6.203125 41.140625 7.25 
Q 44.96875 8.296875 48.78125 10.40625 
L 48.78125 2.09375 
Q 45.015625 0.34375 40.984375 -0.53125 
Q 36.96875 -1.421875 32.421875 -1.421875 
Q 20.0625 -1.421875 12.78125 6.34375 
Q 5.515625 14.109375 5.515625 27.296875 
Q 5.515625 40.671875 12.859375 48.328125 
Q 20.21875 56 33.015625 56 
Q 37.15625 56 41.109375 55.140625 
Q 45.0625 54.296875 48.78125 52.59375 
z
" id="DejaVuSans-99"/>
      <path d="M 9.078125 75.984375 
L 18.109375 75.984375 
L 18.109375 31.109375 
L 44.921875 54.6875 
L 56.390625 54.6875 
L 27.390625 29.109375 
L 57.625 0 
L 45.90625 0 
L 18.109375 26.703125 
L 18.109375 0 
L 9.078125 0 
z
" id="DejaVuSans-107"/>
      <path d="M 41.109375 46.296875 
Q 39.59375 47.171875 37.8125 47.578125 
Q 36.03125 48 33.890625 48 
Q 26.265625 48 22.1875 43.046875 
Q 18.109375 38.09375 18.109375 28.8125 
L 18.109375 0 
L 9.078125 0 
L 9.078125 54.6875 
L 18.109375 54.6875 
L 18.109375 46.1875 
Q 20.953125 51.171875 25.484375 53.578125 
Q 30.03125 56 36.53125 56 
Q 37.453125 56 38.578125 55.875 
Q 39.703125 55.765625 41.0625 55.515625 
z
" id="DejaVuSans-114"/>
      <path d="M 31 75.875 
Q 24.46875 64.65625 21.28125 53.65625 
Q 18.109375 42.671875 18.109375 31.390625 
Q 18.109375 20.125 21.3125 9.0625 
Q 24.515625 -2 31 -13.1875 
L 23.1875 -13.1875 
Q 15.875 -1.703125 12.234375 9.375 
Q 8.59375 20.453125 8.59375 31.390625 
Q 8.59375 42.28125 12.203125 53.3125 
Q 15.828125 64.359375 23.1875 75.875 
z
" id="DejaVuSans-40"/>
      <path d="M 18.109375 8.203125 
L 18.109375 -20.796875 
L 9.078125 -20.796875 
L 9.078125 54.6875 
L 18.109375 54.6875 
L 18.109375 46.390625 
Q 20.953125 51.265625 25.265625 53.625 
Q 29.59375 56 35.59375 56 
Q 45.5625 56 51.78125 48.09375 
Q 58.015625 40.1875 58.015625 27.296875 
Q 58.015625 14.40625 51.78125 6.484375 
Q 45.5625 -1.421875 35.59375 -1.421875 
Q 29.59375 -1.421875 25.265625 0.953125 
Q 20.953125 3.328125 18.109375 8.203125 
z
M 48.6875 27.296875 
Q 48.6875 37.203125 44.609375 42.84375 
Q 40.53125 48.484375 33.40625 48.484375 
Q 26.265625 48.484375 22.1875 42.84375 
Q 18.109375 37.203125 18.109375 27.296875 
Q 18.109375 17.390625 22.1875 11.75 
Q 26.265625 6.109375 33.40625 6.109375 
Q 40.53125 6.109375 44.609375 11.75 
Q 48.6875 17.390625 48.6875 27.296875 
z
" id="DejaVuSans-112"/>
      <path d="M 9.421875 54.6875 
L 18.40625 54.6875 
L 18.40625 0 
L 9.421875 0 
z
M 9.421875 75.984375 
L 18.40625 75.984375 
L 18.40625 64.59375 
L 9.421875 64.59375 
z
" id="DejaVuSans-105"/>
      <path d="M 44.28125 53.078125 
L 44.28125 44.578125 
Q 40.484375 46.53125 36.375 47.5 
Q 32.28125 48.484375 27.875 48.484375 
Q 21.1875 48.484375 17.84375 46.4375 
Q 14.5 44.390625 14.5 40.28125 
Q 14.5 37.15625 16.890625 35.375 
Q 19.28125 33.59375 26.515625 31.984375 
L 29.59375 31.296875 
Q 39.15625 29.25 43.1875 25.515625 
Q 47.21875 21.78125 47.21875 15.09375 
Q 47.21875 7.46875 41.1875 3.015625 
Q 35.15625 -1.421875 24.609375 -1.421875 
Q 20.21875 -1.421875 15.453125 -0.5625 
Q 10.6875 0.296875 5.421875 2 
L 5.421875 11.28125 
Q 10.40625 8.6875 15.234375 7.390625 
Q 20.0625 6.109375 24.8125 6.109375 
Q 31.15625 6.109375 34.5625 8.28125 
Q 37.984375 10.453125 37.984375 14.40625 
Q 37.984375 18.0625 35.515625 20.015625 
Q 33.0625 21.96875 24.703125 23.78125 
L 21.578125 24.515625 
Q 13.234375 26.265625 9.515625 29.90625 
Q 5.8125 33.546875 5.8125 39.890625 
Q 5.8125 47.609375 11.28125 51.796875 
Q 16.75 56 26.8125 56 
Q 31.78125 56 36.171875 55.265625 
Q 40.578125 54.546875 44.28125 53.078125 
z
" id="DejaVuSans-115"/>
      <path d="M 9.421875 75.984375 
L 18.40625 75.984375 
L 18.40625 0 
L 9.421875 0 
z
" id="DejaVuSans-108"/>
      <path d="M 11.71875 12.40625 
L 22.015625 12.40625 
L 22.015625 4 
L 14.015625 -11.625 
L 7.71875 -11.625 
L 11.71875 4 
z
" id="DejaVuSans-44"/>
      <path d="M 48.6875 27.296875 
Q 48.6875 37.203125 44.609375 42.84375 
Q 40.53125 48.484375 33.40625 48.484375 
Q 26.265625 48.484375 22.1875 42.84375 
Q 18.109375 37.203125 18.109375 27.296875 
Q 18.109375 17.390625 22.1875 11.75 
Q 26.265625 6.109375 33.40625 6.109375 
Q 40.53125 6.109375 44.609375 11.75 
Q 48.6875 17.390625 48.6875 27.296875 
z
M 18.109375 46.390625 
Q 20.953125 51.265625 25.265625 53.625 
Q 29.59375 56 35.59375 56 
Q 45.5625 56 51.78125 48.09375 
Q 58.015625 40.1875 58.015625 27.296875 
Q 58.015625 14.40625 51.78125 6.484375 
Q 45.5625 -1.421875 35.59375 -1.421875 
Q 29.59375 -1.421875 25.265625 0.953125 
Q 20.953125 3.328125 18.109375 8.203125 
L 18.109375 0 
L 9.078125 0 
L 9.078125 75.984375 
L 18.109375 75.984375 
z
" id="DejaVuSans-98"/>
      <path d="M 54.890625 33.015625 
L 54.890625 0 
L 45.90625 0 
L 45.90625 32.71875 
Q 45.90625 40.484375 42.875 44.328125 
Q 39.84375 48.1875 33.796875 48.1875 
Q 26.515625 48.1875 22.3125 43.546875 
Q 18.109375 38.921875 18.109375 30.90625 
L 18.109375 0 
L 9.078125 0 
L 9.078125 54.6875 
L 18.109375 54.6875 
L 18.109375 46.1875 
Q 21.34375 51.125 25.703125 53.5625 
Q 30.078125 56 35.796875 56 
Q 45.21875 56 50.046875 50.171875 
Q 54.890625 44.34375 54.890625 33.015625 
z
" id="DejaVuSans-110"/>
      <path d="M 45.40625 46.390625 
L 45.40625 75.984375 
L 54.390625 75.984375 
L 54.390625 0 
L 45.40625 0 
L 45.40625 8.203125 
Q 42.578125 3.328125 38.25 0.953125 
Q 33.9375 -1.421875 27.875 -1.421875 
Q 17.96875 -1.421875 11.734375 6.484375 
Q 5.515625 14.40625 5.515625 27.296875 
Q 5.515625 40.1875 11.734375 48.09375 
Q 17.96875 56 27.875 56 
Q 33.9375 56 38.25 53.625 
Q 42.578125 51.265625 45.40625 46.390625 
z
M 14.796875 27.296875 
Q 14.796875 17.390625 18.875 11.75 
Q 22.953125 6.109375 30.078125 6.109375 
Q 37.203125 6.109375 41.296875 11.75 
Q 45.40625 17.390625 45.40625 27.296875 
Q 45.40625 37.203125 41.296875 42.84375 
Q 37.203125 48.484375 30.078125 48.484375 
Q 22.953125 48.484375 18.875 42.84375 
Q 14.796875 37.203125 14.796875 27.296875 
z
" id="DejaVuSans-100"/>
      <path d="M 8.015625 75.875 
L 15.828125 75.875 
Q 23.140625 64.359375 26.78125 53.3125 
Q 30.421875 42.28125 30.421875 31.390625 
Q 30.421875 20.453125 26.78125 9.375 
Q 23.140625 -1.703125 15.828125 -13.1875 
L 8.015625 -13.1875 
Q 14.5 -2 17.703125 9.0625 
Q 20.90625 20.125 20.90625 31.390625 
Q 20.90625 42.671875 17.703125 53.65625 
Q 14.5 64.65625 8.015625 75.875 
z
" id="DejaVuSans-41"/>
     </defs>
     <g transform="translate(23.858854 376.294427)rotate(-90)scale(0.166667 -0.166667)">
      <use xlink:href="#DejaVuSans-35"/>
      <use x="83.789062" xlink:href="#DejaVuSans-32"/>
      <use x="115.576172" xlink:href="#DejaVuSans-111"/>
      <use x="176.757812" xlink:href="#DejaVuSans-102"/>
      <use x="211.962891" xlink:href="#DejaVuSans-32"/>
      <use x="243.75" xlink:href="#DejaVuSans-97"/>
      <use x="305.029297" xlink:href="#DejaVuSans-116"/>
      <use x="344.238281" xlink:href="#DejaVuSans-116"/>
      <use x="383.447266" xlink:href="#DejaVuSans-97"/>
      <use x="444.726562" xlink:href="#DejaVuSans-99"/>
      <use x="499.707031" xlink:href="#DejaVuSans-107"/>
      <use x="557.570312" xlink:href="#DejaVuSans-101"/>
      <use x="619.09375" xlink:href="#DejaVuSans-114"/>
      <use x="660.207031" xlink:href="#DejaVuSans-32"/>
      <use x="691.994141" xlink:href="#DejaVuSans-40"/>
      <use x="731.007812" xlink:href="#DejaVuSans-116"/>
      <use x="770.216797" xlink:href="#DejaVuSans-111"/>
      <use x="831.398438" xlink:href="#DejaVuSans-112"/>
      <use x="894.875" xlink:href="#DejaVuSans-32"/>
      <use x="926.662109" xlink:href="#DejaVuSans-105"/>
      <use x="954.445312" xlink:href="#DejaVuSans-115"/>
      <use x="1006.544922" xlink:href="#DejaVuSans-32"/>
      <use x="1038.332031" xlink:href="#DejaVuSans-116"/>
      <use x="1077.541016" xlink:href="#DejaVuSans-111"/>
      <use x="1138.722656" xlink:href="#DejaVuSans-116"/>
      <use x="1177.931641" xlink:href="#DejaVuSans-97"/>
      <use x="1239.210938" xlink:href="#DejaVuSans-108"/>
      <use x="1266.994141" xlink:href="#DejaVuSans-44"/>
      <use x="1298.78125" xlink:href="#DejaVuSans-32"/>
      <use x="1330.568359" xlink:href="#DejaVuSans-98"/>
      <use x="1394.044922" xlink:href="#DejaVuSans-111"/>
      <use x="1455.226562" xlink:href="#DejaVuSans-116"/>
      <use x="1494.435547" xlink:href="#DejaVuSans-116"/>
      <use x="1533.644531" xlink:href="#DejaVuSans-111"/>
      <use x="1594.826172" xlink:href="#DejaVuSans-109"/>
      <use x="1692.238281" xlink:href="#DejaVuSans-32"/>
      <use x="1724.025391" xlink:href="#DejaVuSans-105"/>
      <use x="1751.808594" xlink:href="#DejaVuSans-115"/>
      <use x="1803.908203" xlink:href="#DejaVuSans-32"/>
      <use x="1835.695312" xlink:href="#DejaVuSans-105"/>
      <use x="1863.478516" xlink:href="#DejaVuSans-110"/>
      <use x="1926.857422" xlink:href="#DejaVuSans-115"/>
      <use x="1978.957031" xlink:href="#DejaVuSans-105"/>
      <use x="2006.740234" xlink:href="#DejaVuSans-100"/>
      <use x="2070.216797" xlink:href="#DejaVuSans-101"/>
      <use x="2131.740234" xlink:href="#DejaVuSans-41"/>
     </g>
    </g>
   </g>
   <g id="line2d_17">
    <path clip-path="url(#p149951d0c9)" d="M 72.784091 305.894383 
L 78.65817 301.474708 
L 84.532248 294.403227 
L 90.406327 290.425519 
L 96.280405 285.121909 
L 102.154484 282.028136 
L 108.028563 280.260266 
L 113.902641 274.956656 
L 119.77672 270.536981 
L 125.650799 269.653045 
L 131.524877 268.76911 
L 137.398956 267.109477 
L 143.273034 267.165269 
L 149.147113 263.108165 
L 155.021192 258.718073 
L 160.89527 255.768797 
L 166.769349 254.137659 
L 172.643428 252.982777 
L 178.517506 244.860771 
L 184.391585 243.876358 
L 190.265663 245.217485 
L 196.139742 238.299349 
L 202.013821 231.93247 
L 207.887899 233.215278 
L 213.761978 235.82636 
L 219.636057 234.946963 
L 225.510135 234.609297 
L 231.384214 228.959294 
L 237.258292 232.233128 
L 243.132371 236.442342 
L 249.00645 236.110036 
L 254.880528 232.233128 
L 260.754607 225.300304 
L 266.628686 245.626083 
L 272.502764 223.814699 
L 278.376843 223.814699 
L 284.250921 246.965379 
L 290.125 246.965379 
L 295.999079 232.233128 
L 301.873157 232.233128 
L 307.747236 217.500877 
L 313.621314 217.500877 
L 319.495393 217.500877 
L 325.369472 217.500877 
L 331.24355 208.661526 
L 337.117629 184.353312 
L 342.991708 184.353312 
L 348.865786 188.036374 
L 354.739865 173.304123 
L 360.613943 173.304123 
L 366.488022 202.768626 
L 372.362101 188.036374 
L 378.236179 261.69763 
L 384.110258 217.500877 
L 389.984337 173.304123 
L 395.858415 173.304123 
L 401.732494 129.10737 
L 407.606572 129.10737 
L 413.480651 129.10737 
L 419.35473 129.10737 
L 425.228808 129.10737 
L 431.102887 129.10737 
L 436.976966 129.10737 
L 442.851044 129.10737 
L 448.725123 84.910617 
L 454.599201 84.910617 
L 460.47328 84.910617 
L 466.347359 84.910617 
L 472.221437 84.910617 
L 478.095516 84.910617 
L 483.969595 84.910617 
L 489.843673 84.910617 
L 495.717752 84.910617 
L 501.59183 84.910617 
L 507.465909 40.713864 
" style="fill:none;stroke:#1f77b4;stroke-linecap:square;stroke-width:1.5;"/>
   </g>
   <g id="line2d_18">
    <path clip-path="url(#p149951d0c9)" d="M 72.784091 350.091136 
L 78.65817 350.091136 
L 84.532248 349.649169 
L 90.406327 345.229494 
L 96.280405 343.019656 
L 102.154484 339.925883 
L 108.028563 336.390143 
L 113.902641 335.06424 
L 119.77672 331.5285 
L 125.650799 330.644565 
L 131.524877 328.434727 
L 137.398956 329.345722 
L 143.273034 327.764941 
L 149.147113 324.701512 
L 155.021192 319.79898 
L 160.89527 320.446973 
L 166.769349 319.269716 
L 172.643428 320.211641 
L 178.517506 316.41742 
L 184.391585 312.310041 
L 190.265663 309.639871 
L 196.139742 307.627589 
L 202.013821 303.188459 
L 207.887899 300.983633 
L 213.761978 300.504535 
L 219.636057 302.405166 
L 225.510135 304.468681 
L 231.384214 304.257466 
L 237.258292 300.369789 
L 243.132371 301.685169 
L 249.00645 301.242093 
L 254.880528 296.072882 
L 260.754607 295.495147 
L 266.628686 321.96593 
L 272.502764 324.835849 
L 278.376843 312.208205 
L 284.250921 342.725011 
L 290.125 335.358885 
L 295.999079 320.626634 
L 301.873157 313.260509 
L 307.747236 305.894383 
L 313.621314 314.733734 
L 319.495393 314.733734 
L 325.369472 314.733734 
L 331.24355 279.376331 
L 337.117629 261.69763 
L 342.991708 250.648442 
L 348.865786 261.69763 
L 354.739865 246.965379 
L 360.613943 246.965379 
L 366.488022 276.429881 
L 372.362101 276.429881 
L 378.236179 283.796006 
L 384.110258 261.69763 
L 389.984337 261.69763 
L 395.858415 261.69763 
L 401.732494 261.69763 
L 407.606572 261.69763 
L 413.480651 261.69763 
L 419.35473 261.69763 
L 425.228808 261.69763 
L 431.102887 261.69763 
L 436.976966 217.500877 
L 442.851044 217.500877 
L 448.725123 217.500877 
L 454.599201 173.304123 
L 460.47328 173.304123 
L 466.347359 173.304123 
L 472.221437 173.304123 
L 478.095516 173.304123 
L 483.969595 173.304123 
L 489.843673 173.304123 
L 495.717752 173.304123 
L 501.59183 173.304123 
L 507.465909 173.304123 
" style="fill:none;stroke:#1f77b4;stroke-linecap:square;stroke-width:1.5;"/>
   </g>
   <g id="line2d_19">
    <path clip-path="url(#p149951d0c9)" d="M 72.784091 305.894383 
L 78.65817 302.358643 
L 84.532248 299.26487 
L 90.406327 294.845195 
L 96.280405 292.19339 
L 102.154484 288.657649 
L 108.028563 284.679942 
L 113.902641 278.934364 
L 119.77672 277.166494 
L 125.650799 275.398623 
L 131.524877 272.746818 
L 137.398956 272.746818 
L 143.273034 269.524138 
L 149.147113 269.301372 
L 155.021192 266.777716 
L 160.89527 262.217592 
L 166.769349 257.385752 
L 172.643428 255.215439 
L 178.517506 253.489661 
L 184.391585 248.778579 
L 190.265663 246.482354 
L 196.139742 247.521313 
L 202.013821 245.71157 
L 207.887899 240.603725 
L 213.761978 235.632878 
L 219.636057 233.099731 
L 225.510135 228.550065 
L 231.384214 232.741136 
L 237.258292 234.795258 
L 243.132371 248.438604 
L 249.00645 243.088471 
L 254.880528 238.299349 
L 260.754607 235.179578 
L 266.628686 233.285431 
L 272.502764 235.91619 
L 278.376843 229.554537 
L 284.250921 237.143878 
L 290.125 245.123847 
L 295.999079 246.965379 
L 301.873157 235.179578 
L 307.747236 217.500877 
L 313.621314 195.4025 
" style="fill:none;stroke:#ff7f0e;stroke-linecap:square;stroke-width:1.5;"/>
   </g>
   <g id="line2d_20">
    <path clip-path="url(#p149951d0c9)" d="M 72.784091 350.091136 
L 78.65817 350.091136 
L 84.532248 346.113429 
L 90.406327 343.461623 
L 96.280405 341.251786 
L 102.154484 340.367851 
L 108.028563 335.506208 
L 113.902641 332.854403 
L 119.77672 328.876695 
L 125.650799 328.434727 
L 131.524877 327.550792 
L 137.398956 324.015052 
L 143.273034 322.007783 
L 149.147113 323.002804 
L 155.021192 321.134643 
L 160.89527 318.373466 
L 166.769349 315.057125 
L 172.643428 316.501604 
L 178.517506 316.62788 
L 184.391585 318.133484 
L 190.265663 308.792531 
L 196.139742 310.897789 
L 202.013821 310.596165 
L 207.887899 311.921213 
L 213.761978 311.560634 
L 219.636057 305.894383 
L 225.510135 304.513235 
L 231.384214 308.942435 
L 237.258292 305.894383 
L 243.132371 308.104221 
L 249.00645 305.894383 
L 254.880528 303.294574 
L 260.754607 302.947933 
L 266.628686 293.266739 
L 272.502764 291.162132 
L 278.376843 293.840723 
L 284.250921 300.983633 
L 290.125 300.369789 
L 295.999079 313.260509 
L 301.873157 314.733734 
L 307.747236 320.626634 
L 313.621314 305.894383 
" style="fill:none;stroke:#ff7f0e;stroke-linecap:square;stroke-width:1.5;"/>
   </g>
   <g id="line2d_21">
    <path clip-path="url(#p149951d0c9)" d="M 72.784091 305.894383 
L 78.65817 302.80061 
L 84.532248 298.380935 
L 90.406327 295.287162 
L 96.280405 290.867487 
L 102.154484 290.425519 
L 108.028563 287.331747 
L 113.902641 283.796006 
L 119.77672 281.586169 
L 125.650799 279.286134 
L 131.524877 277.031197 
L 137.398956 273.793583 
L 143.273034 270.536981 
L 149.147113 265.974735 
L 155.021192 260.726273 
L 160.89527 256.78688 
L 166.769349 253.255553 
L 172.643428 248.639498 
L 178.517506 246.965379 
L 184.391585 241.703861 
L 190.265663 236.904329 
L 196.139742 233.202355 
L 202.013821 229.875968 
L 207.887899 234.074659 
L 213.761978 232.013243 
L 219.636057 232.934663 
L 225.510135 229.286677 
L 231.384214 226.805456 
L 237.258292 222.700495 
L 243.132371 220.152682 
L 249.00645 220.321946 
L 254.880528 220.383274 
L 260.754607 219.605484 
L 266.628686 216.238112 
L 272.502764 217.500877 
L 278.376843 222.804487 
L 284.250921 213.817814 
L 290.125 221.518763 
L 295.999079 217.500877 
L 301.873157 217.500877 
L 307.747236 207.101641 
L 313.621314 211.187055 
L 319.495393 217.500877 
L 325.369472 211.976282 
L 331.24355 232.233128 
L 337.117629 252.858279 
L 342.991708 244.018929 
L 348.865786 239.599253 
L 354.739865 232.233128 
L 360.613943 232.233128 
L 366.488022 232.233128 
L 372.362101 232.233128 
L 378.236179 217.500877 
L 384.110258 217.500877 
L 389.984337 283.796006 
L 395.858415 283.796006 
L 401.732494 283.796006 
L 407.606572 305.894383 
L 413.480651 305.894383 
L 419.35473 305.894383 
L 425.228808 305.894383 
L 431.102887 305.894383 
L 436.976966 261.69763 
L 442.851044 261.69763 
L 448.725123 261.69763 
L 454.599201 261.69763 
L 460.47328 261.69763 
L 466.347359 261.69763 
L 472.221437 261.69763 
L 478.095516 261.69763 
" style="fill:none;stroke:#2ca02c;stroke-linecap:square;stroke-width:1.5;"/>
   </g>
   <g id="line2d_22">
    <path clip-path="url(#p149951d0c9)" d="M 72.784091 350.091136 
L 78.65817 350.091136 
L 84.532248 349.649169 
L 90.406327 346.997364 
L 96.280405 343.461623 
L 102.154484 342.135721 
L 108.028563 336.83211 
L 113.902641 336.83211 
L 119.77672 334.180305 
L 125.650799 332.502633 
L 131.524877 329.345722 
L 137.398956 326.829687 
L 143.273034 325.899229 
L 149.147113 323.002804 
L 155.021192 319.493384 
L 160.89527 320.135559 
L 166.769349 315.826238 
L 172.643428 310.414506 
L 178.517506 306.9104 
L 184.391585 305.368231 
L 190.265663 302.12149 
L 196.139742 297.17134 
L 202.013821 293.519292 
L 207.887899 293.617507 
L 213.761978 292.041669 
L 219.636057 290.460596 
L 225.510135 286.005844 
L 231.384214 283.408316 
L 237.258292 283.362705 
L 243.132371 280.260266 
L 249.00645 278.624046 
L 254.880528 277.070414 
L 260.754607 276.429881 
L 266.628686 275.588038 
L 272.502764 273.483431 
L 278.376843 277.608461 
L 284.250921 270.905287 
L 290.125 271.742347 
L 295.999079 270.116059 
L 301.873157 269.497057 
L 307.747236 261.69763 
L 313.621314 271.168363 
L 319.495393 269.733403 
L 325.369472 272.746818 
L 331.24355 298.528258 
L 337.117629 305.894383 
L 342.991708 305.894383 
L 348.865786 316.943571 
L 354.739865 320.626634 
L 360.613943 320.626634 
L 366.488022 320.626634 
L 372.362101 305.894383 
L 378.236179 305.894383 
L 384.110258 305.894383 
L 389.984337 327.99276 
L 395.858415 305.894383 
L 401.732494 305.894383 
L 407.606572 350.091136 
L 413.480651 350.091136 
L 419.35473 350.091136 
L 425.228808 350.091136 
L 431.102887 350.091136 
L 436.976966 350.091136 
L 442.851044 350.091136 
L 448.725123 350.091136 
L 454.599201 305.894383 
L 460.47328 305.894383 
L 466.347359 305.894383 
L 472.221437 305.894383 
L 478.095516 305.894383 
" style="fill:none;stroke:#2ca02c;stroke-linecap:square;stroke-width:1.5;"/>
   </g>
   <g id="line2d_23">
    <path clip-path="url(#p149951d0c9)" d="M 72.784091 305.894383 
L 78.65817 299.706838 
L 84.532248 296.613065 
L 90.406327 292.19339 
L 96.280405 287.773714 
L 102.154484 281.144201 
L 108.028563 278.66204 
L 113.902641 274.325274 
L 119.77672 271.168363 
L 125.650799 266.709633 
L 131.524877 263.520176 
L 137.398956 262.628088 
L 143.273034 260.271928 
L 149.147113 258.846226 
L 155.021192 256.413235 
L 160.89527 253.441094 
L 166.769349 249.069986 
L 172.643428 247.132791 
L 178.517506 244.018929 
L 184.391585 238.494334 
L 190.265663 238.436181 
L 196.139742 238.085666 
L 202.013821 237.357389 
L 207.887899 232.233128 
L 213.761978 230.12852 
L 219.636057 228.140836 
L 225.510135 231.030495 
L 231.384214 231.912861 
L 237.258292 229.286677 
L 243.132371 230.436512 
L 249.00645 233.366378 
L 254.880528 234.688503 
L 260.754607 229.931213 
L 266.628686 233.706353 
L 272.502764 234.499628 
L 278.376843 230.12852 
L 284.250921 235.179578 
L 290.125 236.110036 
L 295.999079 232.233128 
L 301.873157 224.300377 
L 307.747236 225.53665 
L 313.621314 221.518763 
L 319.495393 226.340227 
L 325.369472 232.233128 
L 331.24355 228.550065 
L 337.117629 223.025471 
L 342.991708 230.12852 
L 348.865786 211.187055 
L 354.739865 224.867002 
L 360.613943 224.867002 
L 366.488022 224.867002 
L 372.362101 226.340227 
L 378.236179 217.500877 
L 384.110258 217.500877 
L 389.984337 246.965379 
L 395.858415 232.233128 
L 401.732494 261.69763 
L 407.606572 261.69763 
L 413.480651 261.69763 
L 419.35473 261.69763 
L 425.228808 261.69763 
L 431.102887 261.69763 
" style="fill:none;stroke:#d62728;stroke-linecap:square;stroke-width:1.5;"/>
   </g>
   <g id="line2d_24">
    <path clip-path="url(#p149951d0c9)" d="M 72.784091 350.091136 
L 78.65817 350.091136 
L 84.532248 344.787526 
L 90.406327 343.461623 
L 96.280405 340.367851 
L 102.154484 335.506208 
L 108.028563 335.805317 
L 113.902641 332.051645 
L 119.77672 327.99276 
L 125.650799 324.119848 
L 131.524877 320.474755 
L 137.398956 316.129421 
L 143.273034 313.498126 
L 149.147113 310.171488 
L 155.021192 305.413984 
L 160.89527 304.923026 
L 166.769349 302.008954 
L 172.643428 299.867553 
L 178.517506 297.055032 
L 184.391585 295.950114 
L 190.265663 297.752876 
L 196.139742 290.758509 
L 202.013821 286.678403 
L 207.887899 283.796006 
L 213.761978 283.796006 
L 219.636057 282.977548 
L 225.510135 285.148968 
L 231.384214 285.717604 
L 237.258292 285.269232 
L 243.132371 289.724839 
L 249.00645 286.629132 
L 254.880528 289.934444 
L 260.754607 283.796006 
L 266.628686 289.688907 
L 272.502764 288.895632 
L 278.376843 297.475954 
L 284.250921 294.845195 
L 290.125 296.589803 
L 295.999079 311.787284 
L 301.873157 302.494633 
L 307.747236 305.894383 
L 313.621314 305.894383 
L 319.495393 301.474708 
L 325.369472 305.894383 
L 331.24355 311.418977 
L 337.117629 305.894383 
L 342.991708 305.894383 
L 348.865786 299.580561 
L 354.739865 313.260509 
L 360.613943 313.260509 
L 366.488022 291.162132 
L 372.362101 288.215682 
L 378.236179 294.845195 
L 384.110258 294.845195 
L 389.984337 305.894383 
L 395.858415 305.894383 
L 401.732494 283.796006 
L 407.606572 283.796006 
L 413.480651 283.796006 
L 419.35473 283.796006 
L 425.228808 283.796006 
L 431.102887 283.796006 
" style="fill:none;stroke:#d62728;stroke-linecap:square;stroke-width:1.5;"/>
   </g>
   <g id="line2d_25">
    <path clip-path="url(#p149951d0c9)" d="M 72.784091 305.894383 
L 78.65817 299.26487 
L 84.532248 296.171097 
L 90.406327 291.751422 
L 96.280405 289.099617 
L 102.154484 286.447812 
L 108.028563 280.702234 
L 113.902641 276.724526 
L 119.77672 273.630753 
L 125.650799 270.095013 
L 131.524877 268.913426 
L 137.398956 265.09738 
L 143.273034 264.892576 
L 149.147113 265.23337 
L 155.021192 263.769353 
L 160.89527 255.968421 
L 166.769349 252.858279 
L 172.643428 250.648442 
L 178.517506 250.33275 
L 184.391585 241.177709 
L 190.265663 246.965379 
L 196.139742 238.54695 
L 202.013821 225.787768 
L 207.887899 227.700127 
L 213.761978 229.554537 
L 219.636057 261.69763 
L 225.510135 255.383808 
L 231.384214 261.69763 
L 237.258292 246.965379 
L 243.132371 217.500877 
L 249.00645 217.500877 
L 254.880528 217.500877 
L 260.754607 217.500877 
L 266.628686 261.69763 
L 272.502764 261.69763 
" style="fill:none;stroke:#9467bd;stroke-linecap:square;stroke-width:1.5;"/>
   </g>
   <g id="line2d_26">
    <path clip-path="url(#p149951d0c9)" d="M 72.784091 350.091136 
L 78.65817 350.091136 
L 84.532248 349.649169 
L 90.406327 348.765234 
L 96.280405 348.765234 
L 102.154484 346.997364 
L 108.028563 345.229494 
L 113.902641 344.787526 
L 119.77672 343.461623 
L 125.650799 343.019656 
L 131.524877 339.718429 
L 137.398956 336.977814 
L 143.273034 337.311352 
L 149.147113 333.591015 
L 155.021192 332.82678 
L 160.89527 327.99276 
L 166.769349 328.483835 
L 172.643428 326.887841 
L 178.517506 328.624142 
L 184.391585 323.257393 
L 190.265663 325.537385 
L 196.139742 320.626634 
L 202.013821 314.181274 
L 207.887899 316.093634 
L 213.761978 305.894383 
L 219.636057 322.468166 
L 225.510135 318.522027 
L 231.384214 320.626634 
L 237.258292 291.162132 
L 243.132371 305.894383 
L 249.00645 305.894383 
L 254.880528 305.894383 
L 260.754607 305.894383 
L 266.628686 350.091136 
L 272.502764 350.091136 
" style="fill:none;stroke:#9467bd;stroke-linecap:square;stroke-width:1.5;"/>
   </g>
   <g id="line2d_27">
    <path clip-path="url(#p149951d0c9)" d="M 72.784091 305.894383 
L 78.65817 300.590773 
L 84.532248 297.055032 
L 90.406327 292.1126 
L 96.280405 286.122151 
L 102.154484 261.69763 
" style="fill:none;stroke:#8c564b;stroke-linecap:square;stroke-width:1.5;"/>
   </g>
   <g id="line2d_28">
    <path clip-path="url(#p149951d0c9)" d="M 72.784091 350.091136 
L 78.65817 350.091136 
L 84.532248 350.091136 
L 90.406327 350.091136 
L 96.280405 348.928064 
L 102.154484 350.091136 
" style="fill:none;stroke:#8c564b;stroke-linecap:square;stroke-width:1.5;"/>
   </g>
   <g id="line2d_29">
    <path clip-path="url(#p149951d0c9)" d="M 72.784091 305.894383 
L 78.65817 302.80061 
L 84.532248 296.613065 
L 90.406327 294.364795 
L 96.280405 298.348596 
L 102.154484 294.845195 
L 108.028563 261.69763 
" style="fill:none;stroke:#e377c2;stroke-linecap:square;stroke-width:1.5;"/>
   </g>
   <g id="line2d_30">
    <path clip-path="url(#p149951d0c9)" d="M 72.784091 350.091136 
L 78.65817 350.091136 
L 84.532248 349.207201 
L 90.406327 350.091136 
L 96.280405 350.091136 
L 102.154484 350.091136 
L 108.028563 350.091136 
" style="fill:none;stroke:#e377c2;stroke-linecap:square;stroke-width:1.5;"/>
   </g>
   <g id="line2d_31">
    <path clip-path="url(#p149951d0c9)" d="M 72.784091 305.894383 
L 78.65817 300.148805 
L 84.532248 296.613065 
L 90.406327 292.259215 
L 96.280405 294.561882 
L 102.154484 276.429881 
" style="fill:none;stroke:#7f7f7f;stroke-linecap:square;stroke-width:1.5;"/>
   </g>
   <g id="line2d_32">
    <path clip-path="url(#p149951d0c9)" d="M 72.784091 350.091136 
L 78.65817 350.091136 
L 84.532248 350.091136 
L 90.406327 349.620958 
L 96.280405 350.091136 
L 102.154484 350.091136 
" style="fill:none;stroke:#7f7f7f;stroke-linecap:square;stroke-width:1.5;"/>
   </g>
   <g id="patch_3">
    <path d="M 51.05 365.56 
L 51.05 25.245 
" style="fill:none;stroke:#000000;stroke-linecap:square;stroke-linejoin:miter;stroke-width:0.8;"/>
   </g>
   <g id="patch_4">
    <path d="M 529.2 365.56 
L 529.2 25.245 
" style="fill:none;stroke:#000000;stroke-linecap:square;stroke-linejoin:miter;stroke-width:0.8;"/>
   </g>
   <g id="patch_5">
    <path d="M 51.05 365.56 
L 529.2 365.56 
" style="fill:none;stroke:#000000;stroke-linecap:square;stroke-linejoin:miter;stroke-width:0.8;"/>
   </g>
   <g id="patch_6">
    <path d="M 51.05 25.245 
L 529.2 25.245 
" style="fill:none;stroke:#000000;stroke-linecap:square;stroke-linejoin:miter;stroke-width:0.8;"/>
   </g>
   <g id="legend_1">
    <g id="patch_7">
     <path d="M 60.383333 192.478333 
L 206.83125 192.478333 
Q 209.497917 192.478333 209.497917 189.811667 
L 209.497917 34.578333 
Q 209.497917 31.911667 206.83125 31.911667 
L 60.383333 31.911667 
Q 57.716667 31.911667 57.716667 34.578333 
L 57.716667 189.811667 
Q 57.716667 192.478333 60.383333 192.478333 
z
" style="fill:#ffffff;opacity:0.8;stroke:#cccccc;stroke-linejoin:miter;"/>
    </g>
    <g id="line2d_33">
     <path d="M 63.05 42.709583 
L 89.716667 42.709583 
" style="fill:none;stroke:#1f77b4;stroke-linecap:square;stroke-width:1.5;"/>
    </g>
    <g id="line2d_34"/>
    <g id="text_19">
     <!-- DD-IPI -->
     <defs>
      <path d="M 19.671875 64.796875 
L 19.671875 8.109375 
L 31.59375 8.109375 
Q 46.6875 8.109375 53.6875 14.9375 
Q 60.6875 21.78125 60.6875 36.53125 
Q 60.6875 51.171875 53.6875 57.984375 
Q 46.6875 64.796875 31.59375 64.796875 
z
M 9.8125 72.90625 
L 30.078125 72.90625 
Q 51.265625 72.90625 61.171875 64.09375 
Q 71.09375 55.28125 71.09375 36.53125 
Q 71.09375 17.671875 61.125 8.828125 
Q 51.171875 0 30.078125 0 
L 9.8125 0 
z
" id="DejaVuSans-68"/>
      <path d="M 4.890625 31.390625 
L 31.203125 31.390625 
L 31.203125 23.390625 
L 4.890625 23.390625 
z
" id="DejaVuSans-45"/>
      <path d="M 9.8125 72.90625 
L 19.671875 72.90625 
L 19.671875 0 
L 9.8125 0 
z
" id="DejaVuSans-73"/>
      <path d="M 19.671875 64.796875 
L 19.671875 37.40625 
L 32.078125 37.40625 
Q 38.96875 37.40625 42.71875 40.96875 
Q 46.484375 44.53125 46.484375 51.125 
Q 46.484375 57.671875 42.71875 61.234375 
Q 38.96875 64.796875 32.078125 64.796875 
z
M 9.8125 72.90625 
L 32.078125 72.90625 
Q 44.34375 72.90625 50.609375 67.359375 
Q 56.890625 61.8125 56.890625 51.125 
Q 56.890625 40.328125 50.609375 34.8125 
Q 44.34375 29.296875 32.078125 29.296875 
L 19.671875 29.296875 
L 19.671875 0 
L 9.8125 0 
z
" id="DejaVuSans-80"/>
     </defs>
     <g transform="translate(100.383333 47.37625)scale(0.133333 -0.133333)">
      <use xlink:href="#DejaVuSans-68"/>
      <use x="77.001953" xlink:href="#DejaVuSans-68"/>
      <use x="154.003906" xlink:href="#DejaVuSans-45"/>
      <use x="190.087891" xlink:href="#DejaVuSans-73"/>
      <use x="219.580078" xlink:href="#DejaVuSans-80"/>
      <use x="279.882812" xlink:href="#DejaVuSans-73"/>
     </g>
    </g>
    <g id="line2d_35">
     <path d="M 63.05 62.280417 
L 89.716667 62.280417 
" style="fill:none;stroke:#ff7f0e;stroke-linecap:square;stroke-width:1.5;"/>
    </g>
    <g id="line2d_36"/>
    <g id="text_20">
     <!-- DD-PI -->
     <g transform="translate(100.383333 66.947083)scale(0.133333 -0.133333)">
      <use xlink:href="#DejaVuSans-68"/>
      <use x="77.001953" xlink:href="#DejaVuSans-68"/>
      <use x="154.003906" xlink:href="#DejaVuSans-45"/>
      <use x="190.087891" xlink:href="#DejaVuSans-80"/>
      <use x="250.390625" xlink:href="#DejaVuSans-73"/>
     </g>
    </g>
    <g id="line2d_37">
     <path d="M 63.05 81.85125 
L 89.716667 81.85125 
" style="fill:none;stroke:#2ca02c;stroke-linecap:square;stroke-width:1.5;"/>
    </g>
    <g id="line2d_38"/>
    <g id="text_21">
     <!-- DD-ML-IPI -->
     <defs>
      <path d="M 9.8125 72.90625 
L 24.515625 72.90625 
L 43.109375 23.296875 
L 61.8125 72.90625 
L 76.515625 72.90625 
L 76.515625 0 
L 66.890625 0 
L 66.890625 64.015625 
L 48.09375 14.015625 
L 38.1875 14.015625 
L 19.390625 64.015625 
L 19.390625 0 
L 9.8125 0 
z
" id="DejaVuSans-77"/>
      <path d="M 9.8125 72.90625 
L 19.671875 72.90625 
L 19.671875 8.296875 
L 55.171875 8.296875 
L 55.171875 0 
L 9.8125 0 
z
" id="DejaVuSans-76"/>
     </defs>
     <g transform="translate(100.383333 86.517917)scale(0.133333 -0.133333)">
      <use xlink:href="#DejaVuSans-68"/>
      <use x="77.001953" xlink:href="#DejaVuSans-68"/>
      <use x="154.003906" xlink:href="#DejaVuSans-45"/>
      <use x="190.087891" xlink:href="#DejaVuSans-77"/>
      <use x="276.367188" xlink:href="#DejaVuSans-76"/>
      <use x="332.064453" xlink:href="#DejaVuSans-45"/>
      <use x="368.148438" xlink:href="#DejaVuSans-73"/>
      <use x="397.640625" xlink:href="#DejaVuSans-80"/>
      <use x="457.943359" xlink:href="#DejaVuSans-73"/>
     </g>
    </g>
    <g id="line2d_39">
     <path d="M 63.05 101.422083 
L 89.716667 101.422083 
" style="fill:none;stroke:#d62728;stroke-linecap:square;stroke-width:1.5;"/>
    </g>
    <g id="line2d_40"/>
    <g id="text_22">
     <!-- DD-ML-PI -->
     <g transform="translate(100.383333 106.08875)scale(0.133333 -0.133333)">
      <use xlink:href="#DejaVuSans-68"/>
      <use x="77.001953" xlink:href="#DejaVuSans-68"/>
      <use x="154.003906" xlink:href="#DejaVuSans-45"/>
      <use x="190.087891" xlink:href="#DejaVuSans-77"/>
      <use x="276.367188" xlink:href="#DejaVuSans-76"/>
      <use x="332.064453" xlink:href="#DejaVuSans-45"/>
      <use x="368.148438" xlink:href="#DejaVuSans-80"/>
      <use x="428.451172" xlink:href="#DejaVuSans-73"/>
     </g>
    </g>
    <g id="line2d_41">
     <path d="M 63.05 120.992917 
L 89.716667 120.992917 
" style="fill:none;stroke:#9467bd;stroke-linecap:square;stroke-width:1.5;"/>
    </g>
    <g id="line2d_42"/>
    <g id="text_23">
     <!-- DD-Random -->
     <defs>
      <path d="M 44.390625 34.1875 
Q 47.5625 33.109375 50.5625 29.59375 
Q 53.5625 26.078125 56.59375 19.921875 
L 66.609375 0 
L 56 0 
L 46.6875 18.703125 
Q 43.0625 26.03125 39.671875 28.421875 
Q 36.28125 30.8125 30.421875 30.8125 
L 19.671875 30.8125 
L 19.671875 0 
L 9.8125 0 
L 9.8125 72.90625 
L 32.078125 72.90625 
Q 44.578125 72.90625 50.734375 67.671875 
Q 56.890625 62.453125 56.890625 51.90625 
Q 56.890625 45.015625 53.6875 40.46875 
Q 50.484375 35.9375 44.390625 34.1875 
z
M 19.671875 64.796875 
L 19.671875 38.921875 
L 32.078125 38.921875 
Q 39.203125 38.921875 42.84375 42.21875 
Q 46.484375 45.515625 46.484375 51.90625 
Q 46.484375 58.296875 42.84375 61.546875 
Q 39.203125 64.796875 32.078125 64.796875 
z
" id="DejaVuSans-82"/>
     </defs>
     <g transform="translate(100.383333 125.659583)scale(0.133333 -0.133333)">
      <use xlink:href="#DejaVuSans-68"/>
      <use x="77.001953" xlink:href="#DejaVuSans-68"/>
      <use x="154.003906" xlink:href="#DejaVuSans-45"/>
      <use x="190.087891" xlink:href="#DejaVuSans-82"/>
      <use x="259.539062" xlink:href="#DejaVuSans-97"/>
      <use x="320.818359" xlink:href="#DejaVuSans-110"/>
      <use x="384.197266" xlink:href="#DejaVuSans-100"/>
      <use x="447.673828" xlink:href="#DejaVuSans-111"/>
      <use x="508.855469" xlink:href="#DejaVuSans-109"/>
     </g>
    </g>
    <g id="line2d_43">
     <path d="M 63.05 140.56375 
L 89.716667 140.56375 
" style="fill:none;stroke:#8c564b;stroke-linecap:square;stroke-width:1.5;"/>
    </g>
    <g id="line2d_44"/>
    <g id="text_24">
     <!-- No-DD-IPI -->
     <defs>
      <path d="M 9.8125 72.90625 
L 23.09375 72.90625 
L 55.421875 11.921875 
L 55.421875 72.90625 
L 64.984375 72.90625 
L 64.984375 0 
L 51.703125 0 
L 19.390625 60.984375 
L 19.390625 0 
L 9.8125 0 
z
" id="DejaVuSans-78"/>
     </defs>
     <g transform="translate(100.383333 145.230417)scale(0.133333 -0.133333)">
      <use xlink:href="#DejaVuSans-78"/>
      <use x="74.804688" xlink:href="#DejaVuSans-111"/>
      <use x="136.001953" xlink:href="#DejaVuSans-45"/>
      <use x="172.085938" xlink:href="#DejaVuSans-68"/>
      <use x="249.087891" xlink:href="#DejaVuSans-68"/>
      <use x="326.089844" xlink:href="#DejaVuSans-45"/>
      <use x="362.173828" xlink:href="#DejaVuSans-73"/>
      <use x="391.666016" xlink:href="#DejaVuSans-80"/>
      <use x="451.96875" xlink:href="#DejaVuSans-73"/>
     </g>
    </g>
    <g id="line2d_45">
     <path d="M 63.05 160.134583 
L 89.716667 160.134583 
" style="fill:none;stroke:#e377c2;stroke-linecap:square;stroke-width:1.5;"/>
    </g>
    <g id="line2d_46"/>
    <g id="text_25">
     <!-- No-DD-PI -->
     <g transform="translate(100.383333 164.80125)scale(0.133333 -0.133333)">
      <use xlink:href="#DejaVuSans-78"/>
      <use x="74.804688" xlink:href="#DejaVuSans-111"/>
      <use x="136.001953" xlink:href="#DejaVuSans-45"/>
      <use x="172.085938" xlink:href="#DejaVuSans-68"/>
      <use x="249.087891" xlink:href="#DejaVuSans-68"/>
      <use x="326.089844" xlink:href="#DejaVuSans-45"/>
      <use x="362.173828" xlink:href="#DejaVuSans-80"/>
      <use x="422.476562" xlink:href="#DejaVuSans-73"/>
     </g>
    </g>
    <g id="line2d_47">
     <path d="M 63.05 179.705417 
L 89.716667 179.705417 
" style="fill:none;stroke:#7f7f7f;stroke-linecap:square;stroke-width:1.5;"/>
    </g>
    <g id="line2d_48"/>
    <g id="text_26">
     <!-- No-DD-Random -->
     <g transform="translate(100.383333 184.372083)scale(0.133333 -0.133333)">
      <use xlink:href="#DejaVuSans-78"/>
      <use x="74.804688" xlink:href="#DejaVuSans-111"/>
      <use x="136.001953" xlink:href="#DejaVuSans-45"/>
      <use x="172.085938" xlink:href="#DejaVuSans-68"/>
      <use x="249.087891" xlink:href="#DejaVuSans-68"/>
      <use x="326.089844" xlink:href="#DejaVuSans-45"/>
      <use x="362.173828" xlink:href="#DejaVuSans-82"/>
      <use x="431.625" xlink:href="#DejaVuSans-97"/>
      <use x="492.904297" xlink:href="#DejaVuSans-110"/>
      <use x="556.283203" xlink:href="#DejaVuSans-100"/>
      <use x="619.759766" xlink:href="#DejaVuSans-111"/>
      <use x="680.941406" xlink:href="#DejaVuSans-109"/>
     </g>
    </g>
   </g>
  </g>
 </g>
 <defs>
  <clipPath id="p149951d0c9">
   <rect height="340.315" width="478.15" x="51.05" y="25.245"/>
  </clipPath>
 </defs>
</svg>
