<?xml version="1.0" encoding="utf-8" standalone="no"?>
<!DOCTYPE svg PUBLIC "-//W3C//DTD SVG 1.1//EN"
  "http://www.w3.org/Graphics/SVG/1.1/DTD/svg11.dtd">
<!-- Created with matplotlib (https://matplotlib.org/) -->
<svg height="432pt" version="1.1" viewBox="0 0 540 432" width="540pt" xmlns="http://www.w3.org/2000/svg" xmlns:xlink="http://www.w3.org/1999/xlink">
 <defs>
  <style type="text/css">
*{stroke-linecap:butt;stroke-linejoin:round;}
  </style>
 </defs>
 <g id="figure_1">
  <g id="patch_1">
   <path d="M 0 432 
L 540 432 
L 540 0 
L 0 0 
z
" style="fill:#ffffff;"/>
  </g>
  <g id="axes_1">
   <g id="patch_2">
    <path d="M 63.74 365.56 
L 529.2 365.56 
L 529.2 25.245 
L 63.74 25.245 
z
" style="fill:#ffffff;"/>
   </g>
   <g id="matplotlib.axis_1">
    <g id="xtick_1">
     <g id="line2d_1">
      <defs>
       <path d="M 0 0 
L 0 3.5 
" id="mf8f12cb8b1" style="stroke:#000000;stroke-width:0.8;"/>
      </defs>
      <g>
       <use style="stroke:#000000;stroke-width:0.8;" x="84.897273" xlink:href="#mf8f12cb8b1" y="365.56"/>
      </g>
     </g>
     <g id="text_1">
      <!-- 0 -->
      <defs>
       <path d="M 31.78125 66.40625 
Q 24.171875 66.40625 20.328125 58.90625 
Q 16.5 51.421875 16.5 36.375 
Q 16.5 21.390625 20.328125 13.890625 
Q 24.171875 6.390625 31.78125 6.390625 
Q 39.453125 6.390625 43.28125 13.890625 
Q 47.125 21.390625 47.125 36.375 
Q 47.125 51.421875 43.28125 58.90625 
Q 39.453125 66.40625 31.78125 66.40625 
z
M 31.78125 74.21875 
Q 44.046875 74.21875 50.515625 64.515625 
Q 56.984375 54.828125 56.984375 36.375 
Q 56.984375 17.96875 50.515625 8.265625 
Q 44.046875 -1.421875 31.78125 -1.421875 
Q 19.53125 -1.421875 13.0625 8.265625 
Q 6.59375 17.96875 6.59375 36.375 
Q 6.59375 54.828125 13.0625 64.515625 
Q 19.53125 74.21875 31.78125 74.21875 
z
" id="DejaVuSans-48"/>
      </defs>
      <g transform="translate(78.534773 387.756875)scale(0.2 -0.2)">
       <use xlink:href="#DejaVuSans-48"/>
      </g>
     </g>
    </g>
    <g id="xtick_2">
     <g id="line2d_2">
      <g>
       <use style="stroke:#000000;stroke-width:0.8;" x="181.066694" xlink:href="#mf8f12cb8b1" y="365.56"/>
      </g>
     </g>
     <g id="text_2">
      <!-- 20 -->
      <defs>
       <path d="M 19.1875 8.296875 
L 53.609375 8.296875 
L 53.609375 0 
L 7.328125 0 
L 7.328125 8.296875 
Q 12.9375 14.109375 22.625 23.890625 
Q 32.328125 33.6875 34.8125 36.53125 
Q 39.546875 41.84375 41.421875 45.53125 
Q 43.3125 49.21875 43.3125 52.78125 
Q 43.3125 58.59375 39.234375 62.25 
Q 35.15625 65.921875 28.609375 65.921875 
Q 23.96875 65.921875 18.8125 64.3125 
Q 13.671875 62.703125 7.8125 59.421875 
L 7.8125 69.390625 
Q 13.765625 71.78125 18.9375 73 
Q 24.125 74.21875 28.421875 74.21875 
Q 39.75 74.21875 46.484375 68.546875 
Q 53.21875 62.890625 53.21875 53.421875 
Q 53.21875 48.921875 51.53125 44.890625 
Q 49.859375 40.875 45.40625 35.40625 
Q 44.1875 33.984375 37.640625 27.21875 
Q 31.109375 20.453125 19.1875 8.296875 
z
" id="DejaVuSans-50"/>
      </defs>
      <g transform="translate(168.341694 387.756875)scale(0.2 -0.2)">
       <use xlink:href="#DejaVuSans-50"/>
       <use x="63.623047" xlink:href="#DejaVuSans-48"/>
      </g>
     </g>
    </g>
    <g id="xtick_3">
     <g id="line2d_3">
      <g>
       <use style="stroke:#000000;stroke-width:0.8;" x="277.236116" xlink:href="#mf8f12cb8b1" y="365.56"/>
      </g>
     </g>
     <g id="text_3">
      <!-- 40 -->
      <defs>
       <path d="M 37.796875 64.3125 
L 12.890625 25.390625 
L 37.796875 25.390625 
z
M 35.203125 72.90625 
L 47.609375 72.90625 
L 47.609375 25.390625 
L 58.015625 25.390625 
L 58.015625 17.1875 
L 47.609375 17.1875 
L 47.609375 0 
L 37.796875 0 
L 37.796875 17.1875 
L 4.890625 17.1875 
L 4.890625 26.703125 
z
" id="DejaVuSans-52"/>
      </defs>
      <g transform="translate(264.511116 387.756875)scale(0.2 -0.2)">
       <use xlink:href="#DejaVuSans-52"/>
       <use x="63.623047" xlink:href="#DejaVuSans-48"/>
      </g>
     </g>
    </g>
    <g id="xtick_4">
     <g id="line2d_4">
      <g>
       <use style="stroke:#000000;stroke-width:0.8;" x="373.405537" xlink:href="#mf8f12cb8b1" y="365.56"/>
      </g>
     </g>
     <g id="text_4">
      <!-- 60 -->
      <defs>
       <path d="M 33.015625 40.375 
Q 26.375 40.375 22.484375 35.828125 
Q 18.609375 31.296875 18.609375 23.390625 
Q 18.609375 15.53125 22.484375 10.953125 
Q 26.375 6.390625 33.015625 6.390625 
Q 39.65625 6.390625 43.53125 10.953125 
Q 47.40625 15.53125 47.40625 23.390625 
Q 47.40625 31.296875 43.53125 35.828125 
Q 39.65625 40.375 33.015625 40.375 
z
M 52.59375 71.296875 
L 52.59375 62.3125 
Q 48.875 64.0625 45.09375 64.984375 
Q 41.3125 65.921875 37.59375 65.921875 
Q 27.828125 65.921875 22.671875 59.328125 
Q 17.53125 52.734375 16.796875 39.40625 
Q 19.671875 43.65625 24.015625 45.921875 
Q 28.375 48.1875 33.59375 48.1875 
Q 44.578125 48.1875 50.953125 41.515625 
Q 57.328125 34.859375 57.328125 23.390625 
Q 57.328125 12.15625 50.6875 5.359375 
Q 44.046875 -1.421875 33.015625 -1.421875 
Q 20.359375 -1.421875 13.671875 8.265625 
Q 6.984375 17.96875 6.984375 36.375 
Q 6.984375 53.65625 15.1875 63.9375 
Q 23.390625 74.21875 37.203125 74.21875 
Q 40.921875 74.21875 44.703125 73.484375 
Q 48.484375 72.75 52.59375 71.296875 
z
" id="DejaVuSans-54"/>
      </defs>
      <g transform="translate(360.680537 387.756875)scale(0.2 -0.2)">
       <use xlink:href="#DejaVuSans-54"/>
       <use x="63.623047" xlink:href="#DejaVuSans-48"/>
      </g>
     </g>
    </g>
    <g id="xtick_5">
     <g id="line2d_5">
      <g>
       <use style="stroke:#000000;stroke-width:0.8;" x="469.574959" xlink:href="#mf8f12cb8b1" y="365.56"/>
      </g>
     </g>
     <g id="text_5">
      <!-- 80 -->
      <defs>
       <path d="M 31.78125 34.625 
Q 24.75 34.625 20.71875 30.859375 
Q 16.703125 27.09375 16.703125 20.515625 
Q 16.703125 13.921875 20.71875 10.15625 
Q 24.75 6.390625 31.78125 6.390625 
Q 38.8125 6.390625 42.859375 10.171875 
Q 46.921875 13.96875 46.921875 20.515625 
Q 46.921875 27.09375 42.890625 30.859375 
Q 38.875 34.625 31.78125 34.625 
z
M 21.921875 38.8125 
Q 15.578125 40.375 12.03125 44.71875 
Q 8.5 49.078125 8.5 55.328125 
Q 8.5 64.0625 14.71875 69.140625 
Q 20.953125 74.21875 31.78125 74.21875 
Q 42.671875 74.21875 48.875 69.140625 
Q 55.078125 64.0625 55.078125 55.328125 
Q 55.078125 49.078125 51.53125 44.71875 
Q 48 40.375 41.703125 38.8125 
Q 48.828125 37.15625 52.796875 32.3125 
Q 56.78125 27.484375 56.78125 20.515625 
Q 56.78125 9.90625 50.3125 4.234375 
Q 43.84375 -1.421875 31.78125 -1.421875 
Q 19.734375 -1.421875 13.25 4.234375 
Q 6.78125 9.90625 6.78125 20.515625 
Q 6.78125 27.484375 10.78125 32.3125 
Q 14.796875 37.15625 21.921875 38.8125 
z
M 18.3125 54.390625 
Q 18.3125 48.734375 21.84375 45.5625 
Q 25.390625 42.390625 31.78125 42.390625 
Q 38.140625 42.390625 41.71875 45.5625 
Q 45.3125 48.734375 45.3125 54.390625 
Q 45.3125 60.0625 41.71875 63.234375 
Q 38.140625 66.40625 31.78125 66.40625 
Q 25.390625 66.40625 21.84375 63.234375 
Q 18.3125 60.0625 18.3125 54.390625 
z
" id="DejaVuSans-56"/>
      </defs>
      <g transform="translate(456.849959 387.756875)scale(0.2 -0.2)">
       <use xlink:href="#DejaVuSans-56"/>
       <use x="63.623047" xlink:href="#DejaVuSans-48"/>
      </g>
     </g>
    </g>
    <g id="text_6">
     <!-- # of game -->
     <defs>
      <path d="M 51.125 44 
L 36.921875 44 
L 32.8125 27.6875 
L 47.125 27.6875 
z
M 43.796875 71.78125 
L 38.71875 51.515625 
L 52.984375 51.515625 
L 58.109375 71.78125 
L 65.921875 71.78125 
L 60.890625 51.515625 
L 76.125 51.515625 
L 76.125 44 
L 58.984375 44 
L 54.984375 27.6875 
L 70.515625 27.6875 
L 70.515625 20.21875 
L 53.078125 20.21875 
L 48 0 
L 40.1875 0 
L 45.21875 20.21875 
L 30.90625 20.21875 
L 25.875 0 
L 18.015625 0 
L 23.09375 20.21875 
L 7.71875 20.21875 
L 7.71875 27.6875 
L 24.90625 27.6875 
L 29 44 
L 13.28125 44 
L 13.28125 51.515625 
L 30.90625 51.515625 
L 35.890625 71.78125 
z
" id="DejaVuSans-35"/>
      <path id="DejaVuSans-32"/>
      <path d="M 30.609375 48.390625 
Q 23.390625 48.390625 19.1875 42.75 
Q 14.984375 37.109375 14.984375 27.296875 
Q 14.984375 17.484375 19.15625 11.84375 
Q 23.34375 6.203125 30.609375 6.203125 
Q 37.796875 6.203125 41.984375 11.859375 
Q 46.1875 17.53125 46.1875 27.296875 
Q 46.1875 37.015625 41.984375 42.703125 
Q 37.796875 48.390625 30.609375 48.390625 
z
M 30.609375 56 
Q 42.328125 56 49.015625 48.375 
Q 55.71875 40.765625 55.71875 27.296875 
Q 55.71875 13.875 49.015625 6.21875 
Q 42.328125 -1.421875 30.609375 -1.421875 
Q 18.84375 -1.421875 12.171875 6.21875 
Q 5.515625 13.875 5.515625 27.296875 
Q 5.515625 40.765625 12.171875 48.375 
Q 18.84375 56 30.609375 56 
z
" id="DejaVuSans-111"/>
      <path d="M 37.109375 75.984375 
L 37.109375 68.5 
L 28.515625 68.5 
Q 23.6875 68.5 21.796875 66.546875 
Q 19.921875 64.59375 19.921875 59.515625 
L 19.921875 54.6875 
L 34.71875 54.6875 
L 34.71875 47.703125 
L 19.921875 47.703125 
L 19.921875 0 
L 10.890625 0 
L 10.890625 47.703125 
L 2.296875 47.703125 
L 2.296875 54.6875 
L 10.890625 54.6875 
L 10.890625 58.5 
Q 10.890625 67.625 15.140625 71.796875 
Q 19.390625 75.984375 28.609375 75.984375 
z
" id="DejaVuSans-102"/>
      <path d="M 45.40625 27.984375 
Q 45.40625 37.75 41.375 43.109375 
Q 37.359375 48.484375 30.078125 48.484375 
Q 22.859375 48.484375 18.828125 43.109375 
Q 14.796875 37.75 14.796875 27.984375 
Q 14.796875 18.265625 18.828125 12.890625 
Q 22.859375 7.515625 30.078125 7.515625 
Q 37.359375 7.515625 41.375 12.890625 
Q 45.40625 18.265625 45.40625 27.984375 
z
M 54.390625 6.78125 
Q 54.390625 -7.171875 48.1875 -13.984375 
Q 42 -20.796875 29.203125 -20.796875 
Q 24.46875 -20.796875 20.265625 -20.09375 
Q 16.0625 -19.390625 12.109375 -17.921875 
L 12.109375 -9.1875 
Q 16.0625 -11.328125 19.921875 -12.34375 
Q 23.78125 -13.375 27.78125 -13.375 
Q 36.625 -13.375 41.015625 -8.765625 
Q 45.40625 -4.15625 45.40625 5.171875 
L 45.40625 9.625 
Q 42.625 4.78125 38.28125 2.390625 
Q 33.9375 0 27.875 0 
Q 17.828125 0 11.671875 7.65625 
Q 5.515625 15.328125 5.515625 27.984375 
Q 5.515625 40.671875 11.671875 48.328125 
Q 17.828125 56 27.875 56 
Q 33.9375 56 38.28125 53.609375 
Q 42.625 51.21875 45.40625 46.390625 
L 45.40625 54.6875 
L 54.390625 54.6875 
z
" id="DejaVuSans-103"/>
      <path d="M 34.28125 27.484375 
Q 23.390625 27.484375 19.1875 25 
Q 14.984375 22.515625 14.984375 16.5 
Q 14.984375 11.71875 18.140625 8.90625 
Q 21.296875 6.109375 26.703125 6.109375 
Q 34.1875 6.109375 38.703125 11.40625 
Q 43.21875 16.703125 43.21875 25.484375 
L 43.21875 27.484375 
z
M 52.203125 31.203125 
L 52.203125 0 
L 43.21875 0 
L 43.21875 8.296875 
Q 40.140625 3.328125 35.546875 0.953125 
Q 30.953125 -1.421875 24.3125 -1.421875 
Q 15.921875 -1.421875 10.953125 3.296875 
Q 6 8.015625 6 15.921875 
Q 6 25.140625 12.171875 29.828125 
Q 18.359375 34.515625 30.609375 34.515625 
L 43.21875 34.515625 
L 43.21875 35.40625 
Q 43.21875 41.609375 39.140625 45 
Q 35.0625 48.390625 27.6875 48.390625 
Q 23 48.390625 18.546875 47.265625 
Q 14.109375 46.140625 10.015625 43.890625 
L 10.015625 52.203125 
Q 14.9375 54.109375 19.578125 55.046875 
Q 24.21875 56 28.609375 56 
Q 40.484375 56 46.34375 49.84375 
Q 52.203125 43.703125 52.203125 31.203125 
z
" id="DejaVuSans-97"/>
      <path d="M 52 44.1875 
Q 55.375 50.25 60.0625 53.125 
Q 64.75 56 71.09375 56 
Q 79.640625 56 84.28125 50.015625 
Q 88.921875 44.046875 88.921875 33.015625 
L 88.921875 0 
L 79.890625 0 
L 79.890625 32.71875 
Q 79.890625 40.578125 77.09375 44.375 
Q 74.3125 48.1875 68.609375 48.1875 
Q 61.625 48.1875 57.5625 43.546875 
Q 53.515625 38.921875 53.515625 30.90625 
L 53.515625 0 
L 44.484375 0 
L 44.484375 32.71875 
Q 44.484375 40.625 41.703125 44.40625 
Q 38.921875 48.1875 33.109375 48.1875 
Q 26.21875 48.1875 22.15625 43.53125 
Q 18.109375 38.875 18.109375 30.90625 
L 18.109375 0 
L 9.078125 0 
L 9.078125 54.6875 
L 18.109375 54.6875 
L 18.109375 46.1875 
Q 21.1875 51.21875 25.484375 53.609375 
Q 29.78125 56 35.6875 56 
Q 41.65625 56 45.828125 52.96875 
Q 50 49.953125 52 44.1875 
z
" id="DejaVuSans-109"/>
      <path d="M 56.203125 29.59375 
L 56.203125 25.203125 
L 14.890625 25.203125 
Q 15.484375 15.921875 20.484375 11.0625 
Q 25.484375 6.203125 34.421875 6.203125 
Q 39.59375 6.203125 44.453125 7.46875 
Q 49.3125 8.734375 54.109375 11.28125 
L 54.109375 2.78125 
Q 49.265625 0.734375 44.1875 -0.34375 
Q 39.109375 -1.421875 33.890625 -1.421875 
Q 20.796875 -1.421875 13.15625 6.1875 
Q 5.515625 13.8125 5.515625 26.8125 
Q 5.515625 40.234375 12.765625 48.109375 
Q 20.015625 56 32.328125 56 
Q 43.359375 56 49.78125 48.890625 
Q 56.203125 41.796875 56.203125 29.59375 
z
M 47.21875 32.234375 
Q 47.125 39.59375 43.09375 43.984375 
Q 39.0625 48.390625 32.421875 48.390625 
Q 24.90625 48.390625 20.390625 44.140625 
Q 15.875 39.890625 15.1875 32.171875 
z
" id="DejaVuSans-101"/>
     </defs>
     <g transform="translate(230.538359 414.912344)scale(0.25 -0.25)">
      <use xlink:href="#DejaVuSans-35"/>
      <use x="83.789062" xlink:href="#DejaVuSans-32"/>
      <use x="115.576172" xlink:href="#DejaVuSans-111"/>
      <use x="176.757812" xlink:href="#DejaVuSans-102"/>
      <use x="211.962891" xlink:href="#DejaVuSans-32"/>
      <use x="243.75" xlink:href="#DejaVuSans-103"/>
      <use x="307.226562" xlink:href="#DejaVuSans-97"/>
      <use x="368.505859" xlink:href="#DejaVuSans-109"/>
      <use x="465.917969" xlink:href="#DejaVuSans-101"/>
     </g>
    </g>
   </g>
   <g id="matplotlib.axis_2">
    <g id="ytick_1">
     <g id="line2d_6">
      <defs>
       <path d="M 0 0 
L -3.5 0 
" id="m7a9fd8bad8" style="stroke:#000000;stroke-width:0.8;"/>
      </defs>
      <g>
       <use style="stroke:#000000;stroke-width:0.8;" x="63.74" xlink:href="#m7a9fd8bad8" y="350.091136"/>
      </g>
     </g>
     <g id="text_7">
      <!-- 0 -->
      <g transform="translate(44.015 357.689574)scale(0.2 -0.2)">
       <use xlink:href="#DejaVuSans-48"/>
      </g>
     </g>
    </g>
    <g id="ytick_2">
     <g id="line2d_7">
      <g>
       <use style="stroke:#000000;stroke-width:0.8;" x="63.74" xlink:href="#m7a9fd8bad8" y="311.418977"/>
      </g>
     </g>
     <g id="text_8">
      <!-- 2 -->
      <g transform="translate(44.015 319.017415)scale(0.2 -0.2)">
       <use xlink:href="#DejaVuSans-50"/>
      </g>
     </g>
    </g>
    <g id="ytick_3">
     <g id="line2d_8">
      <g>
       <use style="stroke:#000000;stroke-width:0.8;" x="63.74" xlink:href="#m7a9fd8bad8" y="272.746818"/>
      </g>
     </g>
     <g id="text_9">
      <!-- 4 -->
      <g transform="translate(44.015 280.345256)scale(0.2 -0.2)">
       <use xlink:href="#DejaVuSans-52"/>
      </g>
     </g>
    </g>
    <g id="ytick_4">
     <g id="line2d_9">
      <g>
       <use style="stroke:#000000;stroke-width:0.8;" x="63.74" xlink:href="#m7a9fd8bad8" y="234.074659"/>
      </g>
     </g>
     <g id="text_10">
      <!-- 6 -->
      <g transform="translate(44.015 241.673097)scale(0.2 -0.2)">
       <use xlink:href="#DejaVuSans-54"/>
      </g>
     </g>
    </g>
    <g id="ytick_5">
     <g id="line2d_10">
      <g>
       <use style="stroke:#000000;stroke-width:0.8;" x="63.74" xlink:href="#m7a9fd8bad8" y="195.4025"/>
      </g>
     </g>
     <g id="text_11">
      <!-- 8 -->
      <g transform="translate(44.015 203.000937)scale(0.2 -0.2)">
       <use xlink:href="#DejaVuSans-56"/>
      </g>
     </g>
    </g>
    <g id="ytick_6">
     <g id="line2d_11">
      <g>
       <use style="stroke:#000000;stroke-width:0.8;" x="63.74" xlink:href="#m7a9fd8bad8" y="156.730341"/>
      </g>
     </g>
     <g id="text_12">
      <!-- 10 -->
      <defs>
       <path d="M 12.40625 8.296875 
L 28.515625 8.296875 
L 28.515625 63.921875 
L 10.984375 60.40625 
L 10.984375 69.390625 
L 28.421875 72.90625 
L 38.28125 72.90625 
L 38.28125 8.296875 
L 54.390625 8.296875 
L 54.390625 0 
L 12.40625 0 
z
" id="DejaVuSans-49"/>
      </defs>
      <g transform="translate(31.29 164.328778)scale(0.2 -0.2)">
       <use xlink:href="#DejaVuSans-49"/>
       <use x="63.623047" xlink:href="#DejaVuSans-48"/>
      </g>
     </g>
    </g>
    <g id="ytick_7">
     <g id="line2d_12">
      <g>
       <use style="stroke:#000000;stroke-width:0.8;" x="63.74" xlink:href="#m7a9fd8bad8" y="118.058182"/>
      </g>
     </g>
     <g id="text_13">
      <!-- 12 -->
      <g transform="translate(31.29 125.656619)scale(0.2 -0.2)">
       <use xlink:href="#DejaVuSans-49"/>
       <use x="63.623047" xlink:href="#DejaVuSans-50"/>
      </g>
     </g>
    </g>
    <g id="ytick_8">
     <g id="line2d_13">
      <g>
       <use style="stroke:#000000;stroke-width:0.8;" x="63.74" xlink:href="#m7a9fd8bad8" y="79.386023"/>
      </g>
     </g>
     <g id="text_14">
      <!-- 14 -->
      <g transform="translate(31.29 86.98446)scale(0.2 -0.2)">
       <use xlink:href="#DejaVuSans-49"/>
       <use x="63.623047" xlink:href="#DejaVuSans-52"/>
      </g>
     </g>
    </g>
    <g id="ytick_9">
     <g id="line2d_14">
      <g>
       <use style="stroke:#000000;stroke-width:0.8;" x="63.74" xlink:href="#m7a9fd8bad8" y="40.713864"/>
      </g>
     </g>
     <g id="text_15">
      <!-- 16 -->
      <g transform="translate(31.29 48.312301)scale(0.2 -0.2)">
       <use xlink:href="#DejaVuSans-49"/>
       <use x="63.623047" xlink:href="#DejaVuSans-54"/>
      </g>
     </g>
    </g>
    <g id="text_16">
     <!-- # of attacker (top is total, bottom is inside) -->
     <defs>
      <path d="M 18.3125 70.21875 
L 18.3125 54.6875 
L 36.8125 54.6875 
L 36.8125 47.703125 
L 18.3125 47.703125 
L 18.3125 18.015625 
Q 18.3125 11.328125 20.140625 9.421875 
Q 21.96875 7.515625 27.59375 7.515625 
L 36.8125 7.515625 
L 36.8125 0 
L 27.59375 0 
Q 17.1875 0 13.234375 3.875 
Q 9.28125 7.765625 9.28125 18.015625 
L 9.28125 47.703125 
L 2.6875 47.703125 
L 2.6875 54.6875 
L 9.28125 54.6875 
L 9.28125 70.21875 
z
" id="DejaVuSans-116"/>
      <path d="M 48.78125 52.59375 
L 48.78125 44.1875 
Q 44.96875 46.296875 41.140625 47.34375 
Q 37.3125 48.390625 33.40625 48.390625 
Q 24.65625 48.390625 19.8125 42.84375 
Q 14.984375 37.3125 14.984375 27.296875 
Q 14.984375 17.28125 19.8125 11.734375 
Q 24.65625 6.203125 33.40625 6.203125 
Q 37.3125 6.203125 41.140625 7.25 
Q 44.96875 8.296875 48.78125 10.40625 
L 48.78125 2.09375 
Q 45.015625 0.34375 40.984375 -0.53125 
Q 36.96875 -1.421875 32.421875 -1.421875 
Q 20.0625 -1.421875 12.78125 6.34375 
Q 5.515625 14.109375 5.515625 27.296875 
Q 5.515625 40.671875 12.859375 48.328125 
Q 20.21875 56 33.015625 56 
Q 37.15625 56 41.109375 55.140625 
Q 45.0625 54.296875 48.78125 52.59375 
z
" id="DejaVuSans-99"/>
      <path d="M 9.078125 75.984375 
L 18.109375 75.984375 
L 18.109375 31.109375 
L 44.921875 54.6875 
L 56.390625 54.6875 
L 27.390625 29.109375 
L 57.625 0 
L 45.90625 0 
L 18.109375 26.703125 
L 18.109375 0 
L 9.078125 0 
z
" id="DejaVuSans-107"/>
      <path d="M 41.109375 46.296875 
Q 39.59375 47.171875 37.8125 47.578125 
Q 36.03125 48 33.890625 48 
Q 26.265625 48 22.1875 43.046875 
Q 18.109375 38.09375 18.109375 28.8125 
L 18.109375 0 
L 9.078125 0 
L 9.078125 54.6875 
L 18.109375 54.6875 
L 18.109375 46.1875 
Q 20.953125 51.171875 25.484375 53.578125 
Q 30.03125 56 36.53125 56 
Q 37.453125 56 38.578125 55.875 
Q 39.703125 55.765625 41.0625 55.515625 
z
" id="DejaVuSans-114"/>
      <path d="M 31 75.875 
Q 24.46875 64.65625 21.28125 53.65625 
Q 18.109375 42.671875 18.109375 31.390625 
Q 18.109375 20.125 21.3125 9.0625 
Q 24.515625 -2 31 -13.1875 
L 23.1875 -13.1875 
Q 15.875 -1.703125 12.234375 9.375 
Q 8.59375 20.453125 8.59375 31.390625 
Q 8.59375 42.28125 12.203125 53.3125 
Q 15.828125 64.359375 23.1875 75.875 
z
" id="DejaVuSans-40"/>
      <path d="M 18.109375 8.203125 
L 18.109375 -20.796875 
L 9.078125 -20.796875 
L 9.078125 54.6875 
L 18.109375 54.6875 
L 18.109375 46.390625 
Q 20.953125 51.265625 25.265625 53.625 
Q 29.59375 56 35.59375 56 
Q 45.5625 56 51.78125 48.09375 
Q 58.015625 40.1875 58.015625 27.296875 
Q 58.015625 14.40625 51.78125 6.484375 
Q 45.5625 -1.421875 35.59375 -1.421875 
Q 29.59375 -1.421875 25.265625 0.953125 
Q 20.953125 3.328125 18.109375 8.203125 
z
M 48.6875 27.296875 
Q 48.6875 37.203125 44.609375 42.84375 
Q 40.53125 48.484375 33.40625 48.484375 
Q 26.265625 48.484375 22.1875 42.84375 
Q 18.109375 37.203125 18.109375 27.296875 
Q 18.109375 17.390625 22.1875 11.75 
Q 26.265625 6.109375 33.40625 6.109375 
Q 40.53125 6.109375 44.609375 11.75 
Q 48.6875 17.390625 48.6875 27.296875 
z
" id="DejaVuSans-112"/>
      <path d="M 9.421875 54.6875 
L 18.40625 54.6875 
L 18.40625 0 
L 9.421875 0 
z
M 9.421875 75.984375 
L 18.40625 75.984375 
L 18.40625 64.59375 
L 9.421875 64.59375 
z
" id="DejaVuSans-105"/>
      <path d="M 44.28125 53.078125 
L 44.28125 44.578125 
Q 40.484375 46.53125 36.375 47.5 
Q 32.28125 48.484375 27.875 48.484375 
Q 21.1875 48.484375 17.84375 46.4375 
Q 14.5 44.390625 14.5 40.28125 
Q 14.5 37.15625 16.890625 35.375 
Q 19.28125 33.59375 26.515625 31.984375 
L 29.59375 31.296875 
Q 39.15625 29.25 43.1875 25.515625 
Q 47.21875 21.78125 47.21875 15.09375 
Q 47.21875 7.46875 41.1875 3.015625 
Q 35.15625 -1.421875 24.609375 -1.421875 
Q 20.21875 -1.421875 15.453125 -0.5625 
Q 10.6875 0.296875 5.421875 2 
L 5.421875 11.28125 
Q 10.40625 8.6875 15.234375 7.390625 
Q 20.0625 6.109375 24.8125 6.109375 
Q 31.15625 6.109375 34.5625 8.28125 
Q 37.984375 10.453125 37.984375 14.40625 
Q 37.984375 18.0625 35.515625 20.015625 
Q 33.0625 21.96875 24.703125 23.78125 
L 21.578125 24.515625 
Q 13.234375 26.265625 9.515625 29.90625 
Q 5.8125 33.546875 5.8125 39.890625 
Q 5.8125 47.609375 11.28125 51.796875 
Q 16.75 56 26.8125 56 
Q 31.78125 56 36.171875 55.265625 
Q 40.578125 54.546875 44.28125 53.078125 
z
" id="DejaVuSans-115"/>
      <path d="M 9.421875 75.984375 
L 18.40625 75.984375 
L 18.40625 0 
L 9.421875 0 
z
" id="DejaVuSans-108"/>
      <path d="M 11.71875 12.40625 
L 22.015625 12.40625 
L 22.015625 4 
L 14.015625 -11.625 
L 7.71875 -11.625 
L 11.71875 4 
z
" id="DejaVuSans-44"/>
      <path d="M 48.6875 27.296875 
Q 48.6875 37.203125 44.609375 42.84375 
Q 40.53125 48.484375 33.40625 48.484375 
Q 26.265625 48.484375 22.1875 42.84375 
Q 18.109375 37.203125 18.109375 27.296875 
Q 18.109375 17.390625 22.1875 11.75 
Q 26.265625 6.109375 33.40625 6.109375 
Q 40.53125 6.109375 44.609375 11.75 
Q 48.6875 17.390625 48.6875 27.296875 
z
M 18.109375 46.390625 
Q 20.953125 51.265625 25.265625 53.625 
Q 29.59375 56 35.59375 56 
Q 45.5625 56 51.78125 48.09375 
Q 58.015625 40.1875 58.015625 27.296875 
Q 58.015625 14.40625 51.78125 6.484375 
Q 45.5625 -1.421875 35.59375 -1.421875 
Q 29.59375 -1.421875 25.265625 0.953125 
Q 20.953125 3.328125 18.109375 8.203125 
L 18.109375 0 
L 9.078125 0 
L 9.078125 75.984375 
L 18.109375 75.984375 
z
" id="DejaVuSans-98"/>
      <path d="M 54.890625 33.015625 
L 54.890625 0 
L 45.90625 0 
L 45.90625 32.71875 
Q 45.90625 40.484375 42.875 44.328125 
Q 39.84375 48.1875 33.796875 48.1875 
Q 26.515625 48.1875 22.3125 43.546875 
Q 18.109375 38.921875 18.109375 30.90625 
L 18.109375 0 
L 9.078125 0 
L 9.078125 54.6875 
L 18.109375 54.6875 
L 18.109375 46.1875 
Q 21.34375 51.125 25.703125 53.5625 
Q 30.078125 56 35.796875 56 
Q 45.21875 56 50.046875 50.171875 
Q 54.890625 44.34375 54.890625 33.015625 
z
" id="DejaVuSans-110"/>
      <path d="M 45.40625 46.390625 
L 45.40625 75.984375 
L 54.390625 75.984375 
L 54.390625 0 
L 45.40625 0 
L 45.40625 8.203125 
Q 42.578125 3.328125 38.25 0.953125 
Q 33.9375 -1.421875 27.875 -1.421875 
Q 17.96875 -1.421875 11.734375 6.484375 
Q 5.515625 14.40625 5.515625 27.296875 
Q 5.515625 40.1875 11.734375 48.09375 
Q 17.96875 56 27.875 56 
Q 33.9375 56 38.25 53.625 
Q 42.578125 51.265625 45.40625 46.390625 
z
M 14.796875 27.296875 
Q 14.796875 17.390625 18.875 11.75 
Q 22.953125 6.109375 30.078125 6.109375 
Q 37.203125 6.109375 41.296875 11.75 
Q 45.40625 17.390625 45.40625 27.296875 
Q 45.40625 37.203125 41.296875 42.84375 
Q 37.203125 48.484375 30.078125 48.484375 
Q 22.953125 48.484375 18.875 42.84375 
Q 14.796875 37.203125 14.796875 27.296875 
z
" id="DejaVuSans-100"/>
      <path d="M 8.015625 75.875 
L 15.828125 75.875 
Q 23.140625 64.359375 26.78125 53.3125 
Q 30.421875 42.28125 30.421875 31.390625 
Q 30.421875 20.453125 26.78125 9.375 
Q 23.140625 -1.703125 15.828125 -13.1875 
L 8.015625 -13.1875 
Q 14.5 -2 17.703125 9.0625 
Q 20.90625 20.125 20.90625 31.390625 
Q 20.90625 42.671875 17.703125 53.65625 
Q 14.5 64.65625 8.015625 75.875 
z
" id="DejaVuSans-41"/>
     </defs>
     <g transform="translate(23.823854 376.294427)rotate(-90)scale(0.166667 -0.166667)">
      <use xlink:href="#DejaVuSans-35"/>
      <use x="83.789062" xlink:href="#DejaVuSans-32"/>
      <use x="115.576172" xlink:href="#DejaVuSans-111"/>
      <use x="176.757812" xlink:href="#DejaVuSans-102"/>
      <use x="211.962891" xlink:href="#DejaVuSans-32"/>
      <use x="243.75" xlink:href="#DejaVuSans-97"/>
      <use x="305.029297" xlink:href="#DejaVuSans-116"/>
      <use x="344.238281" xlink:href="#DejaVuSans-116"/>
      <use x="383.447266" xlink:href="#DejaVuSans-97"/>
      <use x="444.726562" xlink:href="#DejaVuSans-99"/>
      <use x="499.707031" xlink:href="#DejaVuSans-107"/>
      <use x="557.570312" xlink:href="#DejaVuSans-101"/>
      <use x="619.09375" xlink:href="#DejaVuSans-114"/>
      <use x="660.207031" xlink:href="#DejaVuSans-32"/>
      <use x="691.994141" xlink:href="#DejaVuSans-40"/>
      <use x="731.007812" xlink:href="#DejaVuSans-116"/>
      <use x="770.216797" xlink:href="#DejaVuSans-111"/>
      <use x="831.398438" xlink:href="#DejaVuSans-112"/>
      <use x="894.875" xlink:href="#DejaVuSans-32"/>
      <use x="926.662109" xlink:href="#DejaVuSans-105"/>
      <use x="954.445312" xlink:href="#DejaVuSans-115"/>
      <use x="1006.544922" xlink:href="#DejaVuSans-32"/>
      <use x="1038.332031" xlink:href="#DejaVuSans-116"/>
      <use x="1077.541016" xlink:href="#DejaVuSans-111"/>
      <use x="1138.722656" xlink:href="#DejaVuSans-116"/>
      <use x="1177.931641" xlink:href="#DejaVuSans-97"/>
      <use x="1239.210938" xlink:href="#DejaVuSans-108"/>
      <use x="1266.994141" xlink:href="#DejaVuSans-44"/>
      <use x="1298.78125" xlink:href="#DejaVuSans-32"/>
      <use x="1330.568359" xlink:href="#DejaVuSans-98"/>
      <use x="1394.044922" xlink:href="#DejaVuSans-111"/>
      <use x="1455.226562" xlink:href="#DejaVuSans-116"/>
      <use x="1494.435547" xlink:href="#DejaVuSans-116"/>
      <use x="1533.644531" xlink:href="#DejaVuSans-111"/>
      <use x="1594.826172" xlink:href="#DejaVuSans-109"/>
      <use x="1692.238281" xlink:href="#DejaVuSans-32"/>
      <use x="1724.025391" xlink:href="#DejaVuSans-105"/>
      <use x="1751.808594" xlink:href="#DejaVuSans-115"/>
      <use x="1803.908203" xlink:href="#DejaVuSans-32"/>
      <use x="1835.695312" xlink:href="#DejaVuSans-105"/>
      <use x="1863.478516" xlink:href="#DejaVuSans-110"/>
      <use x="1926.857422" xlink:href="#DejaVuSans-115"/>
      <use x="1978.957031" xlink:href="#DejaVuSans-105"/>
      <use x="2006.740234" xlink:href="#DejaVuSans-100"/>
      <use x="2070.216797" xlink:href="#DejaVuSans-101"/>
      <use x="2131.740234" xlink:href="#DejaVuSans-41"/>
     </g>
    </g>
   </g>
   <g id="line2d_15">
    <path clip-path="url(#pab4afba462)" d="M 84.897273 330.755057 
L 89.705744 327.854645 
L 94.514215 325.727676 
L 99.322686 323.794068 
L 104.131157 322.053821 
L 108.939628 319.733491 
L 113.748099 317.219801 
L 118.55657 315.479554 
L 123.365041 313.159224 
L 128.173512 311.805699 
L 132.981983 310.258812 
L 137.790455 307.938483 
L 142.598926 306.004875 
L 147.407397 304.387676 
L 152.215868 302.478639 
L 157.024339 301.219727 
L 161.83281 299.773384 
L 166.641281 296.975159 
L 171.449752 296.049273 
L 176.258223 292.082898 
L 181.066694 289.87306 
L 185.875165 287.599169 
L 190.683636 287.620726 
L 195.492107 287.092942 
L 200.300579 283.941391 
L 205.10905 281.724284 
L 209.917521 279.192178 
L 214.725992 278.547642 
L 219.534463 277.580838 
L 224.342934 276.429881 
L 229.151405 276.308728 
L 233.959876 277.043725 
L 238.768347 277.718953 
L 243.576818 275.676527 
L 248.385289 273.994307 
L 253.19376 270.81321 
L 258.002231 274.977904 
L 262.810702 274.293705 
L 267.619174 274.358158 
L 272.427645 276.109615 
L 277.236116 274.504644 
L 282.044587 273.625731 
L 286.853058 270.471985 
L 291.661529 268.197152 
L 296.47 260.661768 
L 301.278471 260.661768 
L 306.086942 259.856098 
L 310.895413 263.822474 
L 315.703884 260.847692 
L 320.512355 256.633419 
L 325.320826 249.895088 
L 330.129298 240.520019 
L 334.937769 241.325689 
L 339.74624 245.123847 
L 344.554711 234.074659 
L 349.363182 234.074659 
L 354.171653 234.074659 
L 358.980124 234.074659 
L 363.788595 234.074659 
L 368.597066 221.183939 
L 373.405537 195.4025 
L 378.214008 176.06642 
L 383.022479 185.73446 
L 387.83095 185.73446 
L 392.639421 185.73446 
L 397.447893 185.73446 
L 402.256364 176.06642 
L 407.064835 176.06642 
L 411.873306 176.06642 
L 416.681777 176.06642 
L 421.490248 185.73446 
L 426.298719 185.73446 
L 431.10719 195.4025 
L 435.915661 195.4025 
L 440.724132 195.4025 
L 445.532603 185.73446 
L 450.341074 185.73446 
L 455.149545 195.4025 
L 459.958017 195.4025 
L 464.766488 195.4025 
L 469.574959 195.4025 
L 474.38343 185.73446 
L 479.191901 176.06642 
L 484.000372 176.06642 
L 488.808843 176.06642 
L 493.617314 176.06642 
L 498.425785 176.06642 
L 503.234256 176.06642 
L 508.042727 176.06642 
" style="fill:none;stroke:#1f77b4;stroke-linecap:square;stroke-width:1.5;"/>
   </g>
   <g id="line2d_16">
    <path clip-path="url(#pab4afba462)" d="M 84.897273 350.091136 
L 89.705744 350.091136 
L 94.514215 350.091136 
L 99.322686 350.091136 
L 104.131157 349.704415 
L 108.939628 349.317693 
L 113.748099 348.157528 
L 118.55657 347.964168 
L 123.365041 346.997364 
L 128.173512 345.837199 
L 132.981983 344.290312 
L 137.790455 343.516869 
L 142.598926 341.969983 
L 147.407397 340.520754 
L 152.215868 339.279565 
L 157.024339 339.041948 
L 161.83281 338.225815 
L 166.641281 337.511036 
L 171.449752 335.713026 
L 176.258223 335.257979 
L 181.066694 334.622273 
L 185.875165 333.557387 
L 190.683636 333.134882 
L 195.492107 332.938163 
L 200.300579 331.094286 
L 205.10905 330.755057 
L 209.917521 329.322755 
L 214.725992 329.20817 
L 219.534463 329.546552 
L 224.342934 329.373908 
L 229.151405 327.701992 
L 233.959876 328.06949 
L 238.768347 326.887841 
L 243.576818 324.895639 
L 248.385289 325.765101 
L 253.19376 325.598769 
L 258.002231 327.03658 
L 262.810702 326.887841 
L 267.619174 326.726707 
L 272.427645 327.39226 
L 277.236116 326.360493 
L 282.044587 326.360493 
L 286.853058 328.480224 
L 291.661529 328.480224 
L 296.47 327.129542 
L 301.278471 325.921037 
L 306.086942 326.887841 
L 310.895413 327.780275 
L 315.703884 326.292885 
L 320.512355 325.921037 
L 325.320826 323.723755 
L 330.129298 322.161244 
L 334.937769 318.670007 
L 339.74624 316.943571 
L 344.554711 316.252997 
L 349.363182 301.750937 
L 354.171653 292.082898 
L 358.980124 292.082898 
L 363.788595 292.082898 
L 368.597066 285.637538 
L 373.405537 272.746818 
L 378.214008 272.746818 
L 383.022479 263.078778 
L 387.83095 263.078778 
L 392.639421 263.078778 
L 397.447893 263.078778 
L 402.256364 263.078778 
L 407.064835 263.078778 
L 411.873306 263.078778 
L 416.681777 263.078778 
L 421.490248 272.746818 
L 426.298719 263.078778 
L 431.10719 282.414858 
L 435.915661 282.414858 
L 440.724132 282.414858 
L 445.532603 282.414858 
L 450.341074 282.414858 
L 455.149545 292.082898 
L 459.958017 292.082898 
L 464.766488 292.082898 
L 469.574959 292.082898 
L 474.38343 292.082898 
L 479.191901 292.082898 
L 484.000372 292.082898 
L 488.808843 292.082898 
L 493.617314 292.082898 
L 498.425785 292.082898 
L 503.234256 272.746818 
L 508.042727 272.746818 
" style="fill:none;stroke:#1f77b4;stroke-linecap:square;stroke-width:1.5;"/>
   </g>
   <g id="line2d_17">
    <path clip-path="url(#pab4afba462)" d="M 84.897273 330.755057 
L 89.705744 328.628088 
L 94.514215 325.921037 
L 99.322686 324.18079 
L 104.131157 322.247182 
L 108.939628 320.313574 
L 113.748099 318.766687 
L 118.55657 318.186605 
L 123.365041 316.639719 
L 128.173512 315.479554 
L 132.981983 313.932668 
L 137.790455 312.395547 
L 142.598926 312.017 
L 147.407397 310.998628 
L 152.215868 310.085455 
L 157.024339 308.237091 
L 161.83281 306.19301 
L 166.641281 305.618153 
L 171.449752 305.358415 
L 176.258223 303.811339 
L 181.066694 304.084602 
L 185.875165 301.392862 
L 190.683636 298.528258 
L 195.492107 295.159092 
L 200.300579 294.066085 
L 205.10905 292.620011 
L 209.917521 293.840723 
L 214.725992 290.874393 
L 219.534463 292.082898 
L 224.342934 291.339202 
L 229.151405 291.309455 
L 233.959876 288.567247 
L 238.768347 290.241366 
L 243.576818 289.029833 
L 248.385289 286.994456 
L 253.19376 285.258399 
L 258.002231 280.183772 
L 262.810702 282.414858 
L 267.619174 276.262469 
L 272.427645 274.895271 
L 277.236116 270.598365 
L 282.044587 268.449912 
L 286.853058 258.244759 
L 291.661529 259.856098 
L 296.47 248.576719 
L 301.278471 253.410739 
L 306.086942 253.410739 
L 310.895413 253.410739 
L 315.703884 246.965379 
L 320.512355 240.520019 
L 325.320826 234.074659 
L 330.129298 224.406619 
L 334.937769 224.406619 
L 339.74624 253.410739 
" style="fill:none;stroke:#ff7f0e;stroke-linecap:square;stroke-width:1.5;"/>
   </g>
   <g id="line2d_18">
    <path clip-path="url(#pab4afba462)" d="M 84.897273 350.091136 
L 89.705744 350.091136 
L 94.514215 348.930972 
L 99.322686 346.804003 
L 104.131157 345.837199 
L 108.939628 343.516869 
L 113.748099 342.550065 
L 118.55657 341.969983 
L 123.365041 340.616457 
L 128.173512 339.069571 
L 132.981983 338.489489 
L 137.790455 337.200417 
L 142.598926 336.535947 
L 147.407397 335.589077 
L 152.215868 336.089148 
L 157.024339 335.405506 
L 161.83281 334.935831 
L 166.641281 333.241124 
L 171.449752 332.775244 
L 176.258223 332.022996 
L 181.066694 331.755199 
L 185.875165 330.038906 
L 190.683636 328.338047 
L 195.492107 327.239406 
L 200.300579 326.292885 
L 205.10905 325.383924 
L 209.917521 326.067522 
L 214.725992 325.316784 
L 219.534463 325.230463 
L 224.342934 324.805494 
L 229.151405 324.567511 
L 233.959876 322.844842 
L 238.768347 321.5474 
L 243.576818 320.578173 
L 248.385289 319.560484 
L 253.19376 317.106059 
L 258.002231 317.36854 
L 262.810702 317.864337 
L 267.619174 314.934628 
L 272.427645 313.567431 
L 277.236116 313.567431 
L 282.044587 315.715884 
L 286.853058 313.835987 
L 291.661529 317.864337 
L 296.47 311.418977 
L 301.278471 324.309697 
L 306.086942 324.309697 
L 310.895413 324.309697 
L 315.703884 324.309697 
L 320.512355 324.309697 
L 325.320826 321.087017 
L 330.129298 321.087017 
L 334.937769 321.087017 
L 339.74624 330.755057 
" style="fill:none;stroke:#ff7f0e;stroke-linecap:square;stroke-width:1.5;"/>
   </g>
   <g id="line2d_19">
    <path clip-path="url(#pab4afba462)" d="M 84.897273 330.755057 
L 89.705744 328.628088 
L 94.514215 326.887841 
L 99.322686 324.760872 
L 104.131157 321.86046 
L 108.939628 320.313574 
L 113.748099 317.799884 
L 118.55657 315.479554 
L 123.365041 313.932668 
L 128.173512 311.99906 
L 132.981983 309.872091 
L 137.790455 308.325205 
L 142.598926 306.778318 
L 147.407397 305.697076 
L 152.215868 304.641382 
L 157.024339 302.463319 
L 161.83281 299.983661 
L 166.641281 299.307367 
L 171.449752 296.645343 
L 176.258223 295.861212 
L 181.066694 292.318704 
L 185.875165 291.348616 
L 190.683636 292.082898 
L 195.492107 290.073954 
L 200.300579 289.208616 
L 205.10905 288.042523 
L 209.917521 286.781069 
L 214.725992 286.060184 
L 219.534463 285.867729 
L 224.342934 281.467011 
L 229.151405 278.4339 
L 233.959876 277.482185 
L 238.768347 276.184343 
L 243.576818 274.545523 
L 248.385289 273.207201 
L 253.19376 273.690042 
L 258.002231 273.713622 
L 262.810702 272.746818 
L 267.619174 273.315526 
L 272.427645 270.329808 
L 277.236116 267.756862 
L 282.044587 263.412159 
L 286.853058 263.822474 
L 291.661529 264.836604 
L 296.47 262.618396 
L 301.278471 262.111974 
L 306.086942 261.14517 
L 310.895413 259.516869 
L 315.703884 259.516869 
L 320.512355 260.235237 
L 325.320826 260.847692 
L 330.129298 258.684215 
L 334.937769 253.410739 
L 339.74624 250.993729 
L 344.554711 256.633419 
L 349.363182 241.809091 
L 354.171653 241.809091 
L 358.980124 237.941875 
L 363.788595 237.941875 
L 368.597066 230.207443 
L 373.405537 230.207443 
L 378.214008 230.207443 
L 383.022479 226.340227 
L 387.83095 230.207443 
L 392.639421 230.207443 
L 397.447893 226.340227 
L 402.256364 226.340227 
L 407.064835 222.473011 
L 411.873306 222.473011 
L 416.681777 226.340227 
L 421.490248 222.473011 
L 426.298719 222.473011 
L 431.10719 222.473011 
L 435.915661 218.605795 
L 440.724132 200.23652 
L 445.532603 200.23652 
L 450.341074 200.23652 
L 455.149545 188.95714 
L 459.958017 188.95714 
L 464.766488 205.07054 
L 469.574959 205.07054 
L 474.38343 195.4025 
L 479.191901 176.06642 
L 484.000372 176.06642 
L 488.808843 156.730341 
L 493.617314 156.730341 
L 498.425785 137.394261 
" style="fill:none;stroke:#2ca02c;stroke-linecap:square;stroke-width:1.5;"/>
   </g>
   <g id="line2d_20">
    <path clip-path="url(#pab4afba462)" d="M 84.897273 350.091136 
L 89.705744 350.091136 
L 94.514215 350.091136 
L 99.322686 350.091136 
L 104.131157 349.511054 
L 108.939628 349.124332 
L 113.748099 347.964168 
L 118.55657 347.577446 
L 123.365041 345.837199 
L 128.173512 345.063756 
L 132.981983 344.483673 
L 137.790455 343.71023 
L 142.598926 342.936787 
L 147.407397 341.804245 
L 152.215868 340.323426 
L 157.024339 339.303639 
L 161.83281 339.279565 
L 166.641281 336.70462 
L 171.449752 335.534762 
L 176.258223 334.755625 
L 181.066694 332.169892 
L 185.875165 331.244578 
L 190.683636 330.503939 
L 195.492107 329.750585 
L 200.300579 329.187267 
L 205.10905 329.023468 
L 209.917521 329.195696 
L 214.725992 327.268223 
L 219.534463 328.338047 
L 224.342934 326.205391 
L 229.151405 325.067975 
L 233.959876 326.01969 
L 238.768347 327.317532 
L 243.576818 327.157647 
L 248.385289 325.690846 
L 253.19376 324.624105 
L 258.002231 324.954233 
L 262.810702 322.053821 
L 267.619174 323.36185 
L 272.427645 321.087017 
L 277.236116 319.527656 
L 282.044587 318.753352 
L 286.853058 316.624845 
L 291.661529 315.813541 
L 296.47 316.943571 
L 301.278471 316.252997 
L 306.086942 315.286193 
L 310.895413 314.472042 
L 315.703884 314.472042 
L 320.512355 317.106059 
L 325.320826 320.343322 
L 330.129298 318.450279 
L 334.937769 317.219801 
L 339.74624 318.670007 
L 344.554711 324.309697 
L 349.363182 323.020625 
L 354.171653 319.153409 
L 358.980124 319.153409 
L 363.788595 319.153409 
L 368.597066 315.286193 
L 373.405537 315.286193 
L 378.214008 311.418977 
L 383.022479 311.418977 
L 387.83095 315.286193 
L 392.639421 315.286193 
L 397.447893 315.286193 
L 402.256364 315.286193 
L 407.064835 311.418977 
L 411.873306 311.418977 
L 416.681777 315.286193 
L 421.490248 315.286193 
L 426.298719 311.418977 
L 431.10719 303.684545 
L 435.915661 303.684545 
L 440.724132 311.418977 
L 445.532603 311.418977 
L 450.341074 301.750937 
L 455.149545 285.637538 
L 459.958017 285.637538 
L 464.766488 292.082898 
L 469.574959 292.082898 
L 474.38343 292.082898 
L 479.191901 272.746818 
L 484.000372 272.746818 
L 488.808843 272.746818 
L 493.617314 272.746818 
L 498.425785 272.746818 
" style="fill:none;stroke:#2ca02c;stroke-linecap:square;stroke-width:1.5;"/>
   </g>
   <g id="line2d_21">
    <path clip-path="url(#pab4afba462)" d="M 84.897273 330.755057 
L 89.705744 328.241366 
L 94.514215 326.887841 
L 99.322686 325.534315 
L 104.131157 324.18079 
L 108.939628 323.020625 
L 113.748099 321.280378 
L 118.55657 319.926852 
L 123.365041 318.960048 
L 128.173512 317.219801 
L 132.981983 314.899472 
L 137.790455 314.126028 
L 142.598926 311.809605 
L 147.407397 310.613307 
L 152.215868 308.976525 
L 157.024339 306.687809 
L 161.83281 306.584957 
L 166.641281 305.486317 
L 171.449752 304.344802 
L 176.258223 304.002399 
L 181.066694 302.556607 
L 185.875165 300.253072 
L 190.683636 298.00847 
L 195.492107 298.189028 
L 200.300579 296.379804 
L 205.10905 292.90571 
L 209.917521 289.665888 
L 214.725992 286.711765 
L 219.534463 284.900925 
L 224.342934 284.465654 
L 229.151405 282.121887 
L 233.959876 279.77812 
L 238.768347 276.327574 
L 243.576818 274.895271 
L 248.385289 275.163828 
L 253.19376 271.867905 
L 258.002231 270.81321 
L 262.810702 269.524138 
L 267.619174 268.197152 
L 272.427645 265.012386 
L 277.236116 263.723314 
L 282.044587 260.316481 
L 286.853058 257.872911 
L 291.661529 257.872911 
L 296.47 255.559192 
L 301.278471 253.410739 
L 306.086942 253.410739 
L 310.895413 243.742699 
L 315.703884 221.183939 
L 320.512355 224.406619 
L 325.320826 224.406619 
L 330.129298 205.07054 
L 334.937769 205.07054 
L 339.74624 205.07054 
L 344.554711 208.29322 
L 349.363182 208.29322 
L 354.171653 214.73858 
L 358.980124 185.73446 
L 363.788595 185.73446 
L 368.597066 176.06642 
L 373.405537 176.06642 
L 378.214008 176.06642 
L 383.022479 176.06642 
L 387.83095 176.06642 
L 392.639421 176.06642 
L 397.447893 166.398381 
L 402.256364 166.398381 
L 407.064835 156.730341 
L 411.873306 166.398381 
L 416.681777 166.398381 
L 421.490248 166.398381 
L 426.298719 166.398381 
L 431.10719 156.730341 
L 435.915661 79.386023 
L 440.724132 79.386023 
L 445.532603 79.386023 
L 450.341074 79.386023 
L 455.149545 60.049943 
L 459.958017 60.049943 
L 464.766488 40.713864 
L 469.574959 40.713864 
L 474.38343 40.713864 
" style="fill:none;stroke:#d62728;stroke-linecap:square;stroke-width:1.5;"/>
   </g>
   <g id="line2d_22">
    <path clip-path="url(#pab4afba462)" d="M 84.897273 350.091136 
L 89.705744 350.091136 
L 94.514215 349.317693 
L 99.322686 347.964168 
L 104.131157 346.417281 
L 108.939628 346.22392 
L 113.748099 344.870395 
L 118.55657 344.096952 
L 123.365041 342.936787 
L 128.173512 340.423097 
L 132.981983 339.649653 
L 137.790455 338.682849 
L 142.598926 336.809789 
L 147.407397 337.200417 
L 152.215868 335.232886 
L 157.024339 334.252007 
L 161.83281 332.016105 
L 166.641281 329.656416 
L 171.449752 328.86861 
L 176.258223 326.78189 
L 181.066694 325.383924 
L 185.875165 324.763596 
L 190.683636 324.517612 
L 195.492107 325.327385 
L 200.300579 325.383924 
L 205.10905 326.229591 
L 209.917521 324.954233 
L 214.725992 321.62413 
L 219.534463 320.258328 
L 224.342934 319.622163 
L 229.151405 319.036221 
L 233.959876 317.278395 
L 238.768347 315.715884 
L 243.576818 314.999733 
L 248.385289 314.641657 
L 253.19376 314.055715 
L 258.002231 313.352585 
L 262.810702 313.567431 
L 267.619174 311.418977 
L 272.427645 312.708049 
L 277.236116 308.840833 
L 282.044587 304.513235 
L 286.853058 302.494633 
L 291.661529 301.007242 
L 296.47 304.973617 
L 301.278471 294.231351 
L 306.086942 294.231351 
L 310.895413 287.248878 
L 315.703884 285.637538 
L 320.512355 288.860218 
L 325.320826 288.860218 
L 330.129298 267.912798 
L 334.937769 263.078778 
L 339.74624 263.078778 
L 344.554711 266.301458 
L 349.363182 266.301458 
L 354.171653 272.746818 
L 358.980124 272.746818 
L 363.788595 272.746818 
L 368.597066 272.746818 
L 373.405537 282.414858 
L 378.214008 282.414858 
L 383.022479 282.414858 
L 387.83095 282.414858 
L 392.639421 282.414858 
L 397.447893 282.414858 
L 402.256364 282.414858 
L 407.064835 282.414858 
L 411.873306 292.082898 
L 416.681777 282.414858 
L 421.490248 282.414858 
L 426.298719 282.414858 
L 431.10719 282.414858 
L 435.915661 253.410739 
L 440.724132 253.410739 
L 445.532603 253.410739 
L 450.341074 253.410739 
L 455.149545 253.410739 
L 459.958017 234.074659 
L 464.766488 234.074659 
L 469.574959 214.73858 
L 474.38343 214.73858 
" style="fill:none;stroke:#d62728;stroke-linecap:square;stroke-width:1.5;"/>
   </g>
   <g id="line2d_23">
    <path clip-path="url(#pab4afba462)" d="M 84.897273 330.755057 
L 89.705744 328.434727 
L 94.514215 326.501119 
L 99.322686 324.18079 
L 104.131157 322.633903 
L 108.939628 320.120213 
L 113.748099 317.799884 
L 118.55657 315.715884 
L 123.365041 314.153372 
L 128.173512 313.176803 
L 132.981983 311.219636 
L 137.790455 308.89688 
L 142.598926 307.371891 
L 147.407397 304.565683 
L 152.215868 302.67801 
L 157.024339 299.93818 
L 161.83281 298.965231 
L 166.641281 298.002106 
L 171.449752 297.147109 
L 176.258223 295.644807 
L 181.066694 294.661042 
L 185.875165 294.313984 
L 190.683636 292.082898 
L 195.492107 290.047521 
L 200.300579 286.395816 
L 205.10905 285.258399 
L 209.917521 274.358158 
L 214.725992 274.680426 
L 219.534463 270.598365 
L 224.342934 275.509115 
L 229.151405 288.215682 
L 233.959876 288.215682 
L 238.768347 285.637538 
L 243.576818 285.637538 
L 248.385289 272.746818 
L 253.19376 253.410739 
L 258.002231 253.410739 
L 262.810702 253.410739 
L 267.619174 253.410739 
L 272.427645 253.410739 
L 277.236116 253.410739 
L 282.044587 243.742699 
L 286.853058 243.742699 
L 291.661529 176.06642 
" style="fill:none;stroke:#9467bd;stroke-linecap:square;stroke-width:1.5;"/>
   </g>
   <g id="line2d_24">
    <path clip-path="url(#pab4afba462)" d="M 84.897273 350.091136 
L 89.705744 350.091136 
L 94.514215 350.091136 
L 99.322686 350.091136 
L 104.131157 349.897776 
L 108.939628 349.511054 
L 113.748099 349.317693 
L 118.55657 348.919253 
L 123.365041 349.114567 
L 128.173512 348.919253 
L 132.981983 349.293772 
L 137.790455 349.040262 
L 142.598926 348.742108 
L 147.407397 348.622573 
L 152.215868 348.50187 
L 157.024339 348.278379 
L 161.83281 348.452486 
L 166.641281 348.118067 
L 171.449752 348.249605 
L 176.258223 347.038071 
L 181.066694 346.868456 
L 185.875165 347.116355 
L 190.683636 347.569039 
L 195.492107 347.038071 
L 200.300579 345.541471 
L 205.10905 345.541471 
L 209.917521 343.645777 
L 214.725992 342.356705 
L 219.534463 343.645777 
L 224.342934 344.566542 
L 229.151405 346.22392 
L 233.959876 346.22392 
L 238.768347 343.645777 
L 243.576818 343.645777 
L 248.385289 340.423097 
L 253.19376 340.423097 
L 258.002231 340.423097 
L 262.810702 340.423097 
L 267.619174 340.423097 
L 272.427645 340.423097 
L 277.236116 340.423097 
L 282.044587 340.423097 
L 286.853058 340.423097 
L 291.661529 330.755057 
" style="fill:none;stroke:#9467bd;stroke-linecap:square;stroke-width:1.5;"/>
   </g>
   <g id="line2d_25">
    <path clip-path="url(#pab4afba462)" d="M 84.897273 330.755057 
L 89.705744 329.594892 
L 94.514215 327.081202 
L 99.322686 324.805494 
L 104.131157 325.782922 
L 108.939628 324.309697 
L 113.748099 330.755057 
" style="fill:none;stroke:#8c564b;stroke-linecap:square;stroke-width:1.5;"/>
   </g>
   <g id="line2d_26">
    <path clip-path="url(#pab4afba462)" d="M 84.897273 350.091136 
L 89.705744 350.091136 
L 94.514215 350.091136 
L 99.322686 350.091136 
L 104.131157 350.091136 
L 108.939628 350.091136 
L 113.748099 350.091136 
" style="fill:none;stroke:#8c564b;stroke-linecap:square;stroke-width:1.5;"/>
   </g>
   <g id="line2d_27">
    <path clip-path="url(#pab4afba462)" d="M 84.897273 330.755057 
L 89.705744 328.821449 
L 94.514215 326.887841 
L 99.322686 325.970872 
L 104.131157 324.188086 
L 108.939628 323.504027 
" style="fill:none;stroke:#e377c2;stroke-linecap:square;stroke-width:1.5;"/>
   </g>
   <g id="line2d_28">
    <path clip-path="url(#pab4afba462)" d="M 84.897273 350.091136 
L 89.705744 350.091136 
L 94.514215 350.091136 
L 99.322686 350.091136 
L 104.131157 349.726305 
L 108.939628 350.091136 
" style="fill:none;stroke:#e377c2;stroke-linecap:square;stroke-width:1.5;"/>
   </g>
   <g id="line2d_29">
    <path clip-path="url(#pab4afba462)" d="M 84.897273 330.755057 
L 89.705744 328.628088 
L 94.514215 325.534315 
L 99.322686 323.248108 
L 104.131157 319.475677 
L 108.939628 327.532377 
" style="fill:none;stroke:#7f7f7f;stroke-linecap:square;stroke-width:1.5;"/>
   </g>
   <g id="line2d_30">
    <path clip-path="url(#pab4afba462)" d="M 84.897273 350.091136 
L 89.705744 350.091136 
L 94.514215 350.091136 
L 99.322686 350.091136 
L 104.131157 350.091136 
L 108.939628 350.091136 
" style="fill:none;stroke:#7f7f7f;stroke-linecap:square;stroke-width:1.5;"/>
   </g>
   <g id="patch_3">
    <path d="M 63.74 365.56 
L 63.74 25.245 
" style="fill:none;stroke:#000000;stroke-linecap:square;stroke-linejoin:miter;stroke-width:0.8;"/>
   </g>
   <g id="patch_4">
    <path d="M 529.2 365.56 
L 529.2 25.245 
" style="fill:none;stroke:#000000;stroke-linecap:square;stroke-linejoin:miter;stroke-width:0.8;"/>
   </g>
   <g id="patch_5">
    <path d="M 63.74 365.56 
L 529.2 365.56 
" style="fill:none;stroke:#000000;stroke-linecap:square;stroke-linejoin:miter;stroke-width:0.8;"/>
   </g>
   <g id="patch_6">
    <path d="M 63.74 25.245 
L 529.2 25.245 
" style="fill:none;stroke:#000000;stroke-linecap:square;stroke-linejoin:miter;stroke-width:0.8;"/>
   </g>
   <g id="legend_1">
    <g id="patch_7">
     <path d="M 73.073333 192.478333 
L 219.52125 192.478333 
Q 222.187917 192.478333 222.187917 189.811667 
L 222.187917 34.578333 
Q 222.187917 31.911667 219.52125 31.911667 
L 73.073333 31.911667 
Q 70.406667 31.911667 70.406667 34.578333 
L 70.406667 189.811667 
Q 70.406667 192.478333 73.073333 192.478333 
z
" style="fill:#ffffff;opacity:0.8;stroke:#cccccc;stroke-linejoin:miter;"/>
    </g>
    <g id="line2d_31">
     <path d="M 75.74 42.709583 
L 102.406667 42.709583 
" style="fill:none;stroke:#1f77b4;stroke-linecap:square;stroke-width:1.5;"/>
    </g>
    <g id="line2d_32"/>
    <g id="text_17">
     <!-- DD-IPI -->
     <defs>
      <path d="M 19.671875 64.796875 
L 19.671875 8.109375 
L 31.59375 8.109375 
Q 46.6875 8.109375 53.6875 14.9375 
Q 60.6875 21.78125 60.6875 36.53125 
Q 60.6875 51.171875 53.6875 57.984375 
Q 46.6875 64.796875 31.59375 64.796875 
z
M 9.8125 72.90625 
L 30.078125 72.90625 
Q 51.265625 72.90625 61.171875 64.09375 
Q 71.09375 55.28125 71.09375 36.53125 
Q 71.09375 17.671875 61.125 8.828125 
Q 51.171875 0 30.078125 0 
L 9.8125 0 
z
" id="DejaVuSans-68"/>
      <path d="M 4.890625 31.390625 
L 31.203125 31.390625 
L 31.203125 23.390625 
L 4.890625 23.390625 
z
" id="DejaVuSans-45"/>
      <path d="M 9.8125 72.90625 
L 19.671875 72.90625 
L 19.671875 0 
L 9.8125 0 
z
" id="DejaVuSans-73"/>
      <path d="M 19.671875 64.796875 
L 19.671875 37.40625 
L 32.078125 37.40625 
Q 38.96875 37.40625 42.71875 40.96875 
Q 46.484375 44.53125 46.484375 51.125 
Q 46.484375 57.671875 42.71875 61.234375 
Q 38.96875 64.796875 32.078125 64.796875 
z
M 9.8125 72.90625 
L 32.078125 72.90625 
Q 44.34375 72.90625 50.609375 67.359375 
Q 56.890625 61.8125 56.890625 51.125 
Q 56.890625 40.328125 50.609375 34.8125 
Q 44.34375 29.296875 32.078125 29.296875 
L 19.671875 29.296875 
L 19.671875 0 
L 9.8125 0 
z
" id="DejaVuSans-80"/>
     </defs>
     <g transform="translate(113.073333 47.37625)scale(0.133333 -0.133333)">
      <use xlink:href="#DejaVuSans-68"/>
      <use x="77.001953" xlink:href="#DejaVuSans-68"/>
      <use x="154.003906" xlink:href="#DejaVuSans-45"/>
      <use x="190.087891" xlink:href="#DejaVuSans-73"/>
      <use x="219.580078" xlink:href="#DejaVuSans-80"/>
      <use x="279.882812" xlink:href="#DejaVuSans-73"/>
     </g>
    </g>
    <g id="line2d_33">
     <path d="M 75.74 62.280417 
L 102.406667 62.280417 
" style="fill:none;stroke:#ff7f0e;stroke-linecap:square;stroke-width:1.5;"/>
    </g>
    <g id="line2d_34"/>
    <g id="text_18">
     <!-- DD-PI -->
     <g transform="translate(113.073333 66.947083)scale(0.133333 -0.133333)">
      <use xlink:href="#DejaVuSans-68"/>
      <use x="77.001953" xlink:href="#DejaVuSans-68"/>
      <use x="154.003906" xlink:href="#DejaVuSans-45"/>
      <use x="190.087891" xlink:href="#DejaVuSans-80"/>
      <use x="250.390625" xlink:href="#DejaVuSans-73"/>
     </g>
    </g>
    <g id="line2d_35">
     <path d="M 75.74 81.85125 
L 102.406667 81.85125 
" style="fill:none;stroke:#2ca02c;stroke-linecap:square;stroke-width:1.5;"/>
    </g>
    <g id="line2d_36"/>
    <g id="text_19">
     <!-- DD-ML-IPI -->
     <defs>
      <path d="M 9.8125 72.90625 
L 24.515625 72.90625 
L 43.109375 23.296875 
L 61.8125 72.90625 
L 76.515625 72.90625 
L 76.515625 0 
L 66.890625 0 
L 66.890625 64.015625 
L 48.09375 14.015625 
L 38.1875 14.015625 
L 19.390625 64.015625 
L 19.390625 0 
L 9.8125 0 
z
" id="DejaVuSans-77"/>
      <path d="M 9.8125 72.90625 
L 19.671875 72.90625 
L 19.671875 8.296875 
L 55.171875 8.296875 
L 55.171875 0 
L 9.8125 0 
z
" id="DejaVuSans-76"/>
     </defs>
     <g transform="translate(113.073333 86.517917)scale(0.133333 -0.133333)">
      <use xlink:href="#DejaVuSans-68"/>
      <use x="77.001953" xlink:href="#DejaVuSans-68"/>
      <use x="154.003906" xlink:href="#DejaVuSans-45"/>
      <use x="190.087891" xlink:href="#DejaVuSans-77"/>
      <use x="276.367188" xlink:href="#DejaVuSans-76"/>
      <use x="332.064453" xlink:href="#DejaVuSans-45"/>
      <use x="368.148438" xlink:href="#DejaVuSans-73"/>
      <use x="397.640625" xlink:href="#DejaVuSans-80"/>
      <use x="457.943359" xlink:href="#DejaVuSans-73"/>
     </g>
    </g>
    <g id="line2d_37">
     <path d="M 75.74 101.422083 
L 102.406667 101.422083 
" style="fill:none;stroke:#d62728;stroke-linecap:square;stroke-width:1.5;"/>
    </g>
    <g id="line2d_38"/>
    <g id="text_20">
     <!-- DD-ML-PI -->
     <g transform="translate(113.073333 106.08875)scale(0.133333 -0.133333)">
      <use xlink:href="#DejaVuSans-68"/>
      <use x="77.001953" xlink:href="#DejaVuSans-68"/>
      <use x="154.003906" xlink:href="#DejaVuSans-45"/>
      <use x="190.087891" xlink:href="#DejaVuSans-77"/>
      <use x="276.367188" xlink:href="#DejaVuSans-76"/>
      <use x="332.064453" xlink:href="#DejaVuSans-45"/>
      <use x="368.148438" xlink:href="#DejaVuSans-80"/>
      <use x="428.451172" xlink:href="#DejaVuSans-73"/>
     </g>
    </g>
    <g id="line2d_39">
     <path d="M 75.74 120.992917 
L 102.406667 120.992917 
" style="fill:none;stroke:#9467bd;stroke-linecap:square;stroke-width:1.5;"/>
    </g>
    <g id="line2d_40"/>
    <g id="text_21">
     <!-- DD-Random -->
     <defs>
      <path d="M 44.390625 34.1875 
Q 47.5625 33.109375 50.5625 29.59375 
Q 53.5625 26.078125 56.59375 19.921875 
L 66.609375 0 
L 56 0 
L 46.6875 18.703125 
Q 43.0625 26.03125 39.671875 28.421875 
Q 36.28125 30.8125 30.421875 30.8125 
L 19.671875 30.8125 
L 19.671875 0 
L 9.8125 0 
L 9.8125 72.90625 
L 32.078125 72.90625 
Q 44.578125 72.90625 50.734375 67.671875 
Q 56.890625 62.453125 56.890625 51.90625 
Q 56.890625 45.015625 53.6875 40.46875 
Q 50.484375 35.9375 44.390625 34.1875 
z
M 19.671875 64.796875 
L 19.671875 38.921875 
L 32.078125 38.921875 
Q 39.203125 38.921875 42.84375 42.21875 
Q 46.484375 45.515625 46.484375 51.90625 
Q 46.484375 58.296875 42.84375 61.546875 
Q 39.203125 64.796875 32.078125 64.796875 
z
" id="DejaVuSans-82"/>
     </defs>
     <g transform="translate(113.073333 125.659583)scale(0.133333 -0.133333)">
      <use xlink:href="#DejaVuSans-68"/>
      <use x="77.001953" xlink:href="#DejaVuSans-68"/>
      <use x="154.003906" xlink:href="#DejaVuSans-45"/>
      <use x="190.087891" xlink:href="#DejaVuSans-82"/>
      <use x="259.539062" xlink:href="#DejaVuSans-97"/>
      <use x="320.818359" xlink:href="#DejaVuSans-110"/>
      <use x="384.197266" xlink:href="#DejaVuSans-100"/>
      <use x="447.673828" xlink:href="#DejaVuSans-111"/>
      <use x="508.855469" xlink:href="#DejaVuSans-109"/>
     </g>
    </g>
    <g id="line2d_41">
     <path d="M 75.74 140.56375 
L 102.406667 140.56375 
" style="fill:none;stroke:#8c564b;stroke-linecap:square;stroke-width:1.5;"/>
    </g>
    <g id="line2d_42"/>
    <g id="text_22">
     <!-- No-DD-IPI -->
     <defs>
      <path d="M 9.8125 72.90625 
L 23.09375 72.90625 
L 55.421875 11.921875 
L 55.421875 72.90625 
L 64.984375 72.90625 
L 64.984375 0 
L 51.703125 0 
L 19.390625 60.984375 
L 19.390625 0 
L 9.8125 0 
z
" id="DejaVuSans-78"/>
     </defs>
     <g transform="translate(113.073333 145.230417)scale(0.133333 -0.133333)">
      <use xlink:href="#DejaVuSans-78"/>
      <use x="74.804688" xlink:href="#DejaVuSans-111"/>
      <use x="136.001953" xlink:href="#DejaVuSans-45"/>
      <use x="172.085938" xlink:href="#DejaVuSans-68"/>
      <use x="249.087891" xlink:href="#DejaVuSans-68"/>
      <use x="326.089844" xlink:href="#DejaVuSans-45"/>
      <use x="362.173828" xlink:href="#DejaVuSans-73"/>
      <use x="391.666016" xlink:href="#DejaVuSans-80"/>
      <use x="451.96875" xlink:href="#DejaVuSans-73"/>
     </g>
    </g>
    <g id="line2d_43">
     <path d="M 75.74 160.134583 
L 102.406667 160.134583 
" style="fill:none;stroke:#e377c2;stroke-linecap:square;stroke-width:1.5;"/>
    </g>
    <g id="line2d_44"/>
    <g id="text_23">
     <!-- No-DD-PI -->
     <g transform="translate(113.073333 164.80125)scale(0.133333 -0.133333)">
      <use xlink:href="#DejaVuSans-78"/>
      <use x="74.804688" xlink:href="#DejaVuSans-111"/>
      <use x="136.001953" xlink:href="#DejaVuSans-45"/>
      <use x="172.085938" xlink:href="#DejaVuSans-68"/>
      <use x="249.087891" xlink:href="#DejaVuSans-68"/>
      <use x="326.089844" xlink:href="#DejaVuSans-45"/>
      <use x="362.173828" xlink:href="#DejaVuSans-80"/>
      <use x="422.476562" xlink:href="#DejaVuSans-73"/>
     </g>
    </g>
    <g id="line2d_45">
     <path d="M 75.74 179.705417 
L 102.406667 179.705417 
" style="fill:none;stroke:#7f7f7f;stroke-linecap:square;stroke-width:1.5;"/>
    </g>
    <g id="line2d_46"/>
    <g id="text_24">
     <!-- No-DD-Random -->
     <g transform="translate(113.073333 184.372083)scale(0.133333 -0.133333)">
      <use xlink:href="#DejaVuSans-78"/>
      <use x="74.804688" xlink:href="#DejaVuSans-111"/>
      <use x="136.001953" xlink:href="#DejaVuSans-45"/>
      <use x="172.085938" xlink:href="#DejaVuSans-68"/>
      <use x="249.087891" xlink:href="#DejaVuSans-68"/>
      <use x="326.089844" xlink:href="#DejaVuSans-45"/>
      <use x="362.173828" xlink:href="#DejaVuSans-82"/>
      <use x="431.625" xlink:href="#DejaVuSans-97"/>
      <use x="492.904297" xlink:href="#DejaVuSans-110"/>
      <use x="556.283203" xlink:href="#DejaVuSans-100"/>
      <use x="619.759766" xlink:href="#DejaVuSans-111"/>
      <use x="680.941406" xlink:href="#DejaVuSans-109"/>
     </g>
    </g>
   </g>
  </g>
 </g>
 <defs>
  <clipPath id="pab4afba462">
   <rect height="340.315" width="465.46" x="63.74" y="25.245"/>
  </clipPath>
 </defs>
</svg>
