<?xml version="1.0" encoding="utf-8" standalone="no"?>
<!DOCTYPE svg PUBLIC "-//W3C//DTD SVG 1.1//EN"
  "http://www.w3.org/Graphics/SVG/1.1/DTD/svg11.dtd">
<!-- Created with matplotlib (https://matplotlib.org/) -->
<svg height="432pt" version="1.1" viewBox="0 0 540 432" width="540pt" xmlns="http://www.w3.org/2000/svg" xmlns:xlink="http://www.w3.org/1999/xlink">
 <defs>
  <style type="text/css">
*{stroke-linecap:butt;stroke-linejoin:round;}
  </style>
 </defs>
 <g id="figure_1">
  <g id="patch_1">
   <path d="M 0 432 
L 540 432 
L 540 0 
L 0 0 
z
" style="fill:#ffffff;"/>
  </g>
  <g id="axes_1">
   <g id="patch_2">
    <path d="M 71.66 365.56 
L 529.2 365.56 
L 529.2 10.8 
L 71.66 10.8 
z
" style="fill:#ffffff;"/>
   </g>
   <g id="patch_3">
    <path clip-path="url(#pbc092861f3)" d="M 92.457273 365.56 
L 94.684558 365.56 
L 94.684558 207.888889 
L 92.457273 207.888889 
z
" style="fill:#1f77b4;"/>
   </g>
   <g id="patch_4">
    <path clip-path="url(#pbc092861f3)" d="M 100.809591 365.56 
L 103.036876 365.56 
L 103.036876 162.84 
L 100.809591 162.84 
z
" style="fill:#1f77b4;"/>
   </g>
   <g id="patch_5">
    <path clip-path="url(#pbc092861f3)" d="M 109.161909 365.56 
L 111.389194 365.56 
L 111.389194 112.16 
L 109.161909 112.16 
z
" style="fill:#1f77b4;"/>
   </g>
   <g id="patch_6">
    <path clip-path="url(#pbc092861f3)" d="M 117.514228 365.56 
L 119.741513 365.56 
L 119.741513 230.413333 
L 117.514228 230.413333 
z
" style="fill:#1f77b4;"/>
   </g>
   <g id="patch_7">
    <path clip-path="url(#pbc092861f3)" d="M 125.866546 365.56 
L 128.093831 365.56 
L 128.093831 196.626667 
L 125.866546 196.626667 
z
" style="fill:#1f77b4;"/>
   </g>
   <g id="patch_8">
    <path clip-path="url(#pbc092861f3)" d="M 134.218865 365.56 
L 136.446149 365.56 
L 136.446149 89.635556 
L 134.218865 89.635556 
z
" style="fill:#1f77b4;"/>
   </g>
   <g id="patch_9">
    <path clip-path="url(#pbc092861f3)" d="M 142.571183 365.56 
L 144.798468 365.56 
L 144.798468 162.84 
L 142.571183 162.84 
z
" style="fill:#1f77b4;"/>
   </g>
   <g id="patch_10">
    <path clip-path="url(#pbc092861f3)" d="M 150.923501 365.56 
L 153.150786 365.56 
L 153.150786 157.208889 
L 150.923501 157.208889 
z
" style="fill:#1f77b4;"/>
   </g>
   <g id="patch_11">
    <path clip-path="url(#pbc092861f3)" d="M 159.27582 365.56 
L 161.503105 365.56 
L 161.503105 157.208889 
L 159.27582 157.208889 
z
" style="fill:#1f77b4;"/>
   </g>
   <g id="patch_12">
    <path clip-path="url(#pbc092861f3)" d="M 167.628138 365.56 
L 169.855423 365.56 
L 169.855423 157.208889 
L 167.628138 157.208889 
z
" style="fill:#1f77b4;"/>
   </g>
   <g id="patch_13">
    <path clip-path="url(#pbc092861f3)" d="M 175.980456 365.56 
L 178.207741 365.56 
L 178.207741 123.422222 
L 175.980456 123.422222 
z
" style="fill:#1f77b4;"/>
   </g>
   <g id="patch_14">
    <path clip-path="url(#pbc092861f3)" d="M 184.332775 365.56 
L 186.56006 365.56 
L 186.56006 213.52 
L 184.332775 213.52 
z
" style="fill:#1f77b4;"/>
   </g>
   <g id="patch_15">
    <path clip-path="url(#pbc092861f3)" d="M 192.685093 365.56 
L 194.912378 365.56 
L 194.912378 117.791111 
L 192.685093 117.791111 
z
" style="fill:#1f77b4;"/>
   </g>
   <g id="patch_16">
    <path clip-path="url(#pbc092861f3)" d="M 201.037411 365.56 
L 203.264696 365.56 
L 203.264696 174.102222 
L 201.037411 174.102222 
z
" style="fill:#1f77b4;"/>
   </g>
   <g id="patch_17">
    <path clip-path="url(#pbc092861f3)" d="M 209.38973 365.56 
L 211.617015 365.56 
L 211.617015 213.52 
L 209.38973 213.52 
z
" style="fill:#1f77b4;"/>
   </g>
   <g id="patch_18">
    <path clip-path="url(#pbc092861f3)" d="M 217.742048 365.56 
L 219.969333 365.56 
L 219.969333 145.946667 
L 217.742048 145.946667 
z
" style="fill:#1f77b4;"/>
   </g>
   <g id="patch_19">
    <path clip-path="url(#pbc092861f3)" d="M 226.094367 365.56 
L 228.321651 365.56 
L 228.321651 185.364444 
L 226.094367 185.364444 
z
" style="fill:#1f77b4;"/>
   </g>
   <g id="patch_20">
    <path clip-path="url(#pbc092861f3)" d="M 234.446685 365.56 
L 236.67397 365.56 
L 236.67397 185.364444 
L 234.446685 185.364444 
z
" style="fill:#1f77b4;"/>
   </g>
   <g id="patch_21">
    <path clip-path="url(#pbc092861f3)" d="M 242.799003 365.56 
L 245.026288 365.56 
L 245.026288 145.946667 
L 242.799003 145.946667 
z
" style="fill:#1f77b4;"/>
   </g>
   <g id="patch_22">
    <path clip-path="url(#pbc092861f3)" d="M 251.151322 365.56 
L 253.378607 365.56 
L 253.378607 123.422222 
L 251.151322 123.422222 
z
" style="fill:#1f77b4;"/>
   </g>
   <g id="patch_23">
    <path clip-path="url(#pbc092861f3)" d="M 259.50364 365.56 
L 261.730925 365.56 
L 261.730925 89.635556 
L 259.50364 89.635556 
z
" style="fill:#1f77b4;"/>
   </g>
   <g id="patch_24">
    <path clip-path="url(#pbc092861f3)" d="M 267.855958 365.56 
L 270.083243 365.56 
L 270.083243 236.044444 
L 267.855958 236.044444 
z
" style="fill:#1f77b4;"/>
   </g>
   <g id="patch_25">
    <path clip-path="url(#pbc092861f3)" d="M 276.208277 365.56 
L 278.435562 365.56 
L 278.435562 134.684444 
L 276.208277 134.684444 
z
" style="fill:#1f77b4;"/>
   </g>
   <g id="patch_26">
    <path clip-path="url(#pbc092861f3)" d="M 284.560595 365.56 
L 286.78788 365.56 
L 286.78788 224.782222 
L 284.560595 224.782222 
z
" style="fill:#1f77b4;"/>
   </g>
   <g id="patch_27">
    <path clip-path="url(#pbc092861f3)" d="M 292.912913 365.56 
L 295.140198 365.56 
L 295.140198 100.897778 
L 292.912913 100.897778 
z
" style="fill:#1f77b4;"/>
   </g>
   <g id="patch_28">
    <path clip-path="url(#pbc092861f3)" d="M 301.265232 365.56 
L 303.492517 365.56 
L 303.492517 179.733333 
L 301.265232 179.733333 
z
" style="fill:#1f77b4;"/>
   </g>
   <g id="patch_29">
    <path clip-path="url(#pbc092861f3)" d="M 309.61755 365.56 
L 311.844835 365.56 
L 311.844835 179.733333 
L 309.61755 179.733333 
z
" style="fill:#1f77b4;"/>
   </g>
   <g id="patch_30">
    <path clip-path="url(#pbc092861f3)" d="M 317.969869 365.56 
L 320.197153 365.56 
L 320.197153 117.791111 
L 317.969869 117.791111 
z
" style="fill:#1f77b4;"/>
   </g>
   <g id="patch_31">
    <path clip-path="url(#pbc092861f3)" d="M 326.322187 365.56 
L 328.549472 365.56 
L 328.549472 168.471111 
L 326.322187 168.471111 
z
" style="fill:#1f77b4;"/>
   </g>
   <g id="patch_32">
    <path clip-path="url(#pbc092861f3)" d="M 334.674505 365.56 
L 336.90179 365.56 
L 336.90179 117.791111 
L 334.674505 117.791111 
z
" style="fill:#1f77b4;"/>
   </g>
   <g id="patch_33">
    <path clip-path="url(#pbc092861f3)" d="M 343.026824 365.56 
L 345.254109 365.56 
L 345.254109 134.684444 
L 343.026824 134.684444 
z
" style="fill:#1f77b4;"/>
   </g>
   <g id="patch_34">
    <path clip-path="url(#pbc092861f3)" d="M 351.379142 365.56 
L 353.606427 365.56 
L 353.606427 129.053333 
L 351.379142 129.053333 
z
" style="fill:#1f77b4;"/>
   </g>
   <g id="patch_35">
    <path clip-path="url(#pbc092861f3)" d="M 359.73146 365.56 
L 361.958745 365.56 
L 361.958745 123.422222 
L 359.73146 123.422222 
z
" style="fill:#1f77b4;"/>
   </g>
   <g id="patch_36">
    <path clip-path="url(#pbc092861f3)" d="M 368.083779 365.56 
L 370.311064 365.56 
L 370.311064 213.52 
L 368.083779 213.52 
z
" style="fill:#1f77b4;"/>
   </g>
   <g id="patch_37">
    <path clip-path="url(#pbc092861f3)" d="M 376.436097 365.56 
L 378.663382 365.56 
L 378.663382 179.733333 
L 376.436097 179.733333 
z
" style="fill:#1f77b4;"/>
   </g>
   <g id="patch_38">
    <path clip-path="url(#pbc092861f3)" d="M 384.788415 365.56 
L 387.0157 365.56 
L 387.0157 168.471111 
L 384.788415 168.471111 
z
" style="fill:#1f77b4;"/>
   </g>
   <g id="patch_39">
    <path clip-path="url(#pbc092861f3)" d="M 393.140734 365.56 
L 395.368019 365.56 
L 395.368019 196.626667 
L 393.140734 196.626667 
z
" style="fill:#1f77b4;"/>
   </g>
   <g id="patch_40">
    <path clip-path="url(#pbc092861f3)" d="M 401.493052 365.56 
L 403.720337 365.56 
L 403.720337 162.84 
L 401.493052 162.84 
z
" style="fill:#1f77b4;"/>
   </g>
   <g id="patch_41">
    <path clip-path="url(#pbc092861f3)" d="M 409.845371 365.56 
L 412.072655 365.56 
L 412.072655 100.897778 
L 409.845371 100.897778 
z
" style="fill:#1f77b4;"/>
   </g>
   <g id="patch_42">
    <path clip-path="url(#pbc092861f3)" d="M 418.197689 365.56 
L 420.424974 365.56 
L 420.424974 112.16 
L 418.197689 112.16 
z
" style="fill:#1f77b4;"/>
   </g>
   <g id="patch_43">
    <path clip-path="url(#pbc092861f3)" d="M 426.550007 365.56 
L 428.777292 365.56 
L 428.777292 134.684444 
L 426.550007 134.684444 
z
" style="fill:#1f77b4;"/>
   </g>
   <g id="patch_44">
    <path clip-path="url(#pbc092861f3)" d="M 434.902326 365.56 
L 437.129611 365.56 
L 437.129611 162.84 
L 434.902326 162.84 
z
" style="fill:#1f77b4;"/>
   </g>
   <g id="patch_45">
    <path clip-path="url(#pbc092861f3)" d="M 443.254644 365.56 
L 445.481929 365.56 
L 445.481929 157.208889 
L 443.254644 157.208889 
z
" style="fill:#1f77b4;"/>
   </g>
   <g id="patch_46">
    <path clip-path="url(#pbc092861f3)" d="M 451.606962 365.56 
L 453.834247 365.56 
L 453.834247 106.528889 
L 451.606962 106.528889 
z
" style="fill:#1f77b4;"/>
   </g>
   <g id="patch_47">
    <path clip-path="url(#pbc092861f3)" d="M 459.959281 365.56 
L 462.186566 365.56 
L 462.186566 219.151111 
L 459.959281 219.151111 
z
" style="fill:#1f77b4;"/>
   </g>
   <g id="patch_48">
    <path clip-path="url(#pbc092861f3)" d="M 468.311599 365.56 
L 470.538884 365.56 
L 470.538884 129.053333 
L 468.311599 129.053333 
z
" style="fill:#1f77b4;"/>
   </g>
   <g id="patch_49">
    <path clip-path="url(#pbc092861f3)" d="M 476.663917 365.56 
L 478.891202 365.56 
L 478.891202 179.733333 
L 476.663917 179.733333 
z
" style="fill:#1f77b4;"/>
   </g>
   <g id="patch_50">
    <path clip-path="url(#pbc092861f3)" d="M 485.016236 365.56 
L 487.243521 365.56 
L 487.243521 179.733333 
L 485.016236 179.733333 
z
" style="fill:#1f77b4;"/>
   </g>
   <g id="patch_51">
    <path clip-path="url(#pbc092861f3)" d="M 493.368554 365.56 
L 495.595839 365.56 
L 495.595839 224.782222 
L 493.368554 224.782222 
z
" style="fill:#1f77b4;"/>
   </g>
   <g id="patch_52">
    <path clip-path="url(#pbc092861f3)" d="M 501.720873 365.56 
L 503.948157 365.56 
L 503.948157 157.208889 
L 501.720873 157.208889 
z
" style="fill:#1f77b4;"/>
   </g>
   <g id="patch_53">
    <path clip-path="url(#pbc092861f3)" d="M 94.684558 365.56 
L 96.911843 365.56 
L 96.911843 140.315556 
L 94.684558 140.315556 
z
" style="fill:#ff7f0e;"/>
   </g>
   <g id="patch_54">
    <path clip-path="url(#pbc092861f3)" d="M 103.036876 365.56 
L 105.264161 365.56 
L 105.264161 162.84 
L 103.036876 162.84 
z
" style="fill:#ff7f0e;"/>
   </g>
   <g id="patch_55">
    <path clip-path="url(#pbc092861f3)" d="M 111.389194 365.56 
L 113.616479 365.56 
L 113.616479 185.364444 
L 111.389194 185.364444 
z
" style="fill:#ff7f0e;"/>
   </g>
   <g id="patch_56">
    <path clip-path="url(#pbc092861f3)" d="M 119.741513 365.56 
L 121.968798 365.56 
L 121.968798 89.635556 
L 119.741513 89.635556 
z
" style="fill:#ff7f0e;"/>
   </g>
   <g id="patch_57">
    <path clip-path="url(#pbc092861f3)" d="M 128.093831 365.56 
L 130.321116 365.56 
L 130.321116 151.577778 
L 128.093831 151.577778 
z
" style="fill:#ff7f0e;"/>
   </g>
   <g id="patch_58">
    <path clip-path="url(#pbc092861f3)" d="M 136.446149 365.56 
L 138.673434 365.56 
L 138.673434 168.471111 
L 136.446149 168.471111 
z
" style="fill:#ff7f0e;"/>
   </g>
   <g id="patch_59">
    <path clip-path="url(#pbc092861f3)" d="M 144.798468 365.56 
L 147.025753 365.56 
L 147.025753 123.422222 
L 144.798468 123.422222 
z
" style="fill:#ff7f0e;"/>
   </g>
   <g id="patch_60">
    <path clip-path="url(#pbc092861f3)" d="M 153.150786 365.56 
L 155.378071 365.56 
L 155.378071 95.266667 
L 153.150786 95.266667 
z
" style="fill:#ff7f0e;"/>
   </g>
   <g id="patch_61">
    <path clip-path="url(#pbc092861f3)" d="M 161.503105 365.56 
L 163.730389 365.56 
L 163.730389 123.422222 
L 161.503105 123.422222 
z
" style="fill:#ff7f0e;"/>
   </g>
   <g id="patch_62">
    <path clip-path="url(#pbc092861f3)" d="M 169.855423 365.56 
L 172.082708 365.56 
L 172.082708 185.364444 
L 169.855423 185.364444 
z
" style="fill:#ff7f0e;"/>
   </g>
   <g id="patch_63">
    <path clip-path="url(#pbc092861f3)" d="M 178.207741 365.56 
L 180.435026 365.56 
L 180.435026 123.422222 
L 178.207741 123.422222 
z
" style="fill:#ff7f0e;"/>
   </g>
   <g id="patch_64">
    <path clip-path="url(#pbc092861f3)" d="M 186.56006 365.56 
L 188.787345 365.56 
L 188.787345 84.004444 
L 186.56006 84.004444 
z
" style="fill:#ff7f0e;"/>
   </g>
   <g id="patch_65">
    <path clip-path="url(#pbc092861f3)" d="M 194.912378 365.56 
L 197.139663 365.56 
L 197.139663 100.897778 
L 194.912378 100.897778 
z
" style="fill:#ff7f0e;"/>
   </g>
   <g id="patch_66">
    <path clip-path="url(#pbc092861f3)" d="M 203.264696 365.56 
L 205.491981 365.56 
L 205.491981 50.217778 
L 203.264696 50.217778 
z
" style="fill:#ff7f0e;"/>
   </g>
   <g id="patch_67">
    <path clip-path="url(#pbc092861f3)" d="M 211.617015 365.56 
L 213.8443 365.56 
L 213.8443 230.413333 
L 211.617015 230.413333 
z
" style="fill:#ff7f0e;"/>
   </g>
   <g id="patch_68">
    <path clip-path="url(#pbc092861f3)" d="M 219.969333 365.56 
L 222.196618 365.56 
L 222.196618 151.577778 
L 219.969333 151.577778 
z
" style="fill:#ff7f0e;"/>
   </g>
   <g id="patch_69">
    <path clip-path="url(#pbc092861f3)" d="M 228.321651 365.56 
L 230.548936 365.56 
L 230.548936 151.577778 
L 228.321651 151.577778 
z
" style="fill:#ff7f0e;"/>
   </g>
   <g id="patch_70">
    <path clip-path="url(#pbc092861f3)" d="M 236.67397 365.56 
L 238.901255 365.56 
L 238.901255 230.413333 
L 236.67397 230.413333 
z
" style="fill:#ff7f0e;"/>
   </g>
   <g id="patch_71">
    <path clip-path="url(#pbc092861f3)" d="M 245.026288 365.56 
L 247.253573 365.56 
L 247.253573 145.946667 
L 245.026288 145.946667 
z
" style="fill:#ff7f0e;"/>
   </g>
   <g id="patch_72">
    <path clip-path="url(#pbc092861f3)" d="M 253.378607 365.56 
L 255.605891 365.56 
L 255.605891 140.315556 
L 253.378607 140.315556 
z
" style="fill:#ff7f0e;"/>
   </g>
   <g id="patch_73">
    <path clip-path="url(#pbc092861f3)" d="M 261.730925 365.56 
L 263.95821 365.56 
L 263.95821 162.84 
L 261.730925 162.84 
z
" style="fill:#ff7f0e;"/>
   </g>
   <g id="patch_74">
    <path clip-path="url(#pbc092861f3)" d="M 270.083243 365.56 
L 272.310528 365.56 
L 272.310528 95.266667 
L 270.083243 95.266667 
z
" style="fill:#ff7f0e;"/>
   </g>
   <g id="patch_75">
    <path clip-path="url(#pbc092861f3)" d="M 278.435562 365.56 
L 280.662847 365.56 
L 280.662847 84.004444 
L 278.435562 84.004444 
z
" style="fill:#ff7f0e;"/>
   </g>
   <g id="patch_76">
    <path clip-path="url(#pbc092861f3)" d="M 286.78788 365.56 
L 289.015165 365.56 
L 289.015165 190.995556 
L 286.78788 190.995556 
z
" style="fill:#ff7f0e;"/>
   </g>
   <g id="patch_77">
    <path clip-path="url(#pbc092861f3)" d="M 295.140198 365.56 
L 297.367483 365.56 
L 297.367483 140.315556 
L 295.140198 140.315556 
z
" style="fill:#ff7f0e;"/>
   </g>
   <g id="patch_78">
    <path clip-path="url(#pbc092861f3)" d="M 303.492517 365.56 
L 305.719802 365.56 
L 305.719802 123.422222 
L 303.492517 123.422222 
z
" style="fill:#ff7f0e;"/>
   </g>
   <g id="patch_79">
    <path clip-path="url(#pbc092861f3)" d="M 311.844835 365.56 
L 314.07212 365.56 
L 314.07212 162.84 
L 311.844835 162.84 
z
" style="fill:#ff7f0e;"/>
   </g>
   <g id="patch_80">
    <path clip-path="url(#pbc092861f3)" d="M 320.197153 365.56 
L 322.424438 365.56 
L 322.424438 179.733333 
L 320.197153 179.733333 
z
" style="fill:#ff7f0e;"/>
   </g>
   <g id="patch_81">
    <path clip-path="url(#pbc092861f3)" d="M 328.549472 365.56 
L 330.776757 365.56 
L 330.776757 134.684444 
L 328.549472 134.684444 
z
" style="fill:#ff7f0e;"/>
   </g>
   <g id="patch_82">
    <path clip-path="url(#pbc092861f3)" d="M 336.90179 365.56 
L 339.129075 365.56 
L 339.129075 129.053333 
L 336.90179 129.053333 
z
" style="fill:#ff7f0e;"/>
   </g>
   <g id="patch_83">
    <path clip-path="url(#pbc092861f3)" d="M 345.254109 365.56 
L 347.481393 365.56 
L 347.481393 61.48 
L 345.254109 61.48 
z
" style="fill:#ff7f0e;"/>
   </g>
   <g id="patch_84">
    <path clip-path="url(#pbc092861f3)" d="M 353.606427 365.56 
L 355.833712 365.56 
L 355.833712 27.693333 
L 353.606427 27.693333 
z
" style="fill:#ff7f0e;"/>
   </g>
   <g id="patch_85">
    <path clip-path="url(#pbc092861f3)" d="M 361.958745 365.56 
L 364.18603 365.56 
L 364.18603 55.848889 
L 361.958745 55.848889 
z
" style="fill:#ff7f0e;"/>
   </g>
   <g id="patch_86">
    <path clip-path="url(#pbc092861f3)" d="M 370.311064 365.56 
L 372.538349 365.56 
L 372.538349 207.888889 
L 370.311064 207.888889 
z
" style="fill:#ff7f0e;"/>
   </g>
   <g id="patch_87">
    <path clip-path="url(#pbc092861f3)" d="M 378.663382 365.56 
L 380.890667 365.56 
L 380.890667 112.16 
L 378.663382 112.16 
z
" style="fill:#ff7f0e;"/>
   </g>
   <g id="patch_88">
    <path clip-path="url(#pbc092861f3)" d="M 387.0157 365.56 
L 389.242985 365.56 
L 389.242985 72.742222 
L 387.0157 72.742222 
z
" style="fill:#ff7f0e;"/>
   </g>
   <g id="patch_89">
    <path clip-path="url(#pbc092861f3)" d="M 395.368019 365.56 
L 397.595304 365.56 
L 397.595304 134.684444 
L 395.368019 134.684444 
z
" style="fill:#ff7f0e;"/>
   </g>
   <g id="patch_90">
    <path clip-path="url(#pbc092861f3)" d="M 403.720337 365.56 
L 405.947622 365.56 
L 405.947622 151.577778 
L 403.720337 151.577778 
z
" style="fill:#ff7f0e;"/>
   </g>
   <g id="patch_91">
    <path clip-path="url(#pbc092861f3)" d="M 412.072655 365.56 
L 414.29994 365.56 
L 414.29994 140.315556 
L 412.072655 140.315556 
z
" style="fill:#ff7f0e;"/>
   </g>
   <g id="patch_92">
    <path clip-path="url(#pbc092861f3)" d="M 420.424974 365.56 
L 422.652259 365.56 
L 422.652259 151.577778 
L 420.424974 151.577778 
z
" style="fill:#ff7f0e;"/>
   </g>
   <g id="patch_93">
    <path clip-path="url(#pbc092861f3)" d="M 428.777292 365.56 
L 431.004577 365.56 
L 431.004577 151.577778 
L 428.777292 151.577778 
z
" style="fill:#ff7f0e;"/>
   </g>
   <g id="patch_94">
    <path clip-path="url(#pbc092861f3)" d="M 437.129611 365.56 
L 439.356895 365.56 
L 439.356895 185.364444 
L 437.129611 185.364444 
z
" style="fill:#ff7f0e;"/>
   </g>
   <g id="patch_95">
    <path clip-path="url(#pbc092861f3)" d="M 445.481929 365.56 
L 447.709214 365.56 
L 447.709214 162.84 
L 445.481929 162.84 
z
" style="fill:#ff7f0e;"/>
   </g>
   <g id="patch_96">
    <path clip-path="url(#pbc092861f3)" d="M 453.834247 365.56 
L 456.061532 365.56 
L 456.061532 162.84 
L 453.834247 162.84 
z
" style="fill:#ff7f0e;"/>
   </g>
   <g id="patch_97">
    <path clip-path="url(#pbc092861f3)" d="M 462.186566 365.56 
L 464.413851 365.56 
L 464.413851 247.306667 
L 462.186566 247.306667 
z
" style="fill:#ff7f0e;"/>
   </g>
   <g id="patch_98">
    <path clip-path="url(#pbc092861f3)" d="M 470.538884 365.56 
L 472.766169 365.56 
L 472.766169 168.471111 
L 470.538884 168.471111 
z
" style="fill:#ff7f0e;"/>
   </g>
   <g id="patch_99">
    <path clip-path="url(#pbc092861f3)" d="M 478.891202 365.56 
L 481.118487 365.56 
L 481.118487 129.053333 
L 478.891202 129.053333 
z
" style="fill:#ff7f0e;"/>
   </g>
   <g id="patch_100">
    <path clip-path="url(#pbc092861f3)" d="M 487.243521 365.56 
L 489.470806 365.56 
L 489.470806 162.84 
L 487.243521 162.84 
z
" style="fill:#ff7f0e;"/>
   </g>
   <g id="patch_101">
    <path clip-path="url(#pbc092861f3)" d="M 495.595839 365.56 
L 497.823124 365.56 
L 497.823124 134.684444 
L 495.595839 134.684444 
z
" style="fill:#ff7f0e;"/>
   </g>
   <g id="patch_102">
    <path clip-path="url(#pbc092861f3)" d="M 503.948157 365.56 
L 506.175442 365.56 
L 506.175442 106.528889 
L 503.948157 106.528889 
z
" style="fill:#ff7f0e;"/>
   </g>
   <g id="patch_103">
    <path clip-path="url(#pbc092861f3)" d="M 96.911843 365.56 
L 99.139127 365.56 
L 99.139127 157.208889 
L 96.911843 157.208889 
z
" style="fill:#2ca02c;"/>
   </g>
   <g id="patch_104">
    <path clip-path="url(#pbc092861f3)" d="M 105.264161 365.56 
L 107.491446 365.56 
L 107.491446 202.257778 
L 105.264161 202.257778 
z
" style="fill:#2ca02c;"/>
   </g>
   <g id="patch_105">
    <path clip-path="url(#pbc092861f3)" d="M 113.616479 365.56 
L 115.843764 365.56 
L 115.843764 95.266667 
L 113.616479 95.266667 
z
" style="fill:#2ca02c;"/>
   </g>
   <g id="patch_106">
    <path clip-path="url(#pbc092861f3)" d="M 121.968798 365.56 
L 124.196083 365.56 
L 124.196083 185.364444 
L 121.968798 185.364444 
z
" style="fill:#2ca02c;"/>
   </g>
   <g id="patch_107">
    <path clip-path="url(#pbc092861f3)" d="M 130.321116 365.56 
L 132.548401 365.56 
L 132.548401 157.208889 
L 130.321116 157.208889 
z
" style="fill:#2ca02c;"/>
   </g>
   <g id="patch_108">
    <path clip-path="url(#pbc092861f3)" d="M 138.673434 365.56 
L 140.900719 365.56 
L 140.900719 174.102222 
L 138.673434 174.102222 
z
" style="fill:#2ca02c;"/>
   </g>
   <g id="patch_109">
    <path clip-path="url(#pbc092861f3)" d="M 147.025753 365.56 
L 149.253038 365.56 
L 149.253038 190.995556 
L 147.025753 190.995556 
z
" style="fill:#2ca02c;"/>
   </g>
   <g id="patch_110">
    <path clip-path="url(#pbc092861f3)" d="M 155.378071 365.56 
L 157.605356 365.56 
L 157.605356 157.208889 
L 155.378071 157.208889 
z
" style="fill:#2ca02c;"/>
   </g>
   <g id="patch_111">
    <path clip-path="url(#pbc092861f3)" d="M 163.730389 365.56 
L 165.957674 365.56 
L 165.957674 207.888889 
L 163.730389 207.888889 
z
" style="fill:#2ca02c;"/>
   </g>
   <g id="patch_112">
    <path clip-path="url(#pbc092861f3)" d="M 172.082708 365.56 
L 174.309993 365.56 
L 174.309993 202.257778 
L 172.082708 202.257778 
z
" style="fill:#2ca02c;"/>
   </g>
   <g id="patch_113">
    <path clip-path="url(#pbc092861f3)" d="M 180.435026 365.56 
L 182.662311 365.56 
L 182.662311 129.053333 
L 180.435026 129.053333 
z
" style="fill:#2ca02c;"/>
   </g>
   <g id="patch_114">
    <path clip-path="url(#pbc092861f3)" d="M 188.787345 365.56 
L 191.014629 365.56 
L 191.014629 145.946667 
L 188.787345 145.946667 
z
" style="fill:#2ca02c;"/>
   </g>
   <g id="patch_115">
    <path clip-path="url(#pbc092861f3)" d="M 197.139663 365.56 
L 199.366948 365.56 
L 199.366948 185.364444 
L 197.139663 185.364444 
z
" style="fill:#2ca02c;"/>
   </g>
   <g id="patch_116">
    <path clip-path="url(#pbc092861f3)" d="M 205.491981 365.56 
L 207.719266 365.56 
L 207.719266 157.208889 
L 205.491981 157.208889 
z
" style="fill:#2ca02c;"/>
   </g>
   <g id="patch_117">
    <path clip-path="url(#pbc092861f3)" d="M 213.8443 365.56 
L 216.071585 365.56 
L 216.071585 230.413333 
L 213.8443 230.413333 
z
" style="fill:#2ca02c;"/>
   </g>
   <g id="patch_118">
    <path clip-path="url(#pbc092861f3)" d="M 222.196618 365.56 
L 224.423903 365.56 
L 224.423903 168.471111 
L 222.196618 168.471111 
z
" style="fill:#2ca02c;"/>
   </g>
   <g id="patch_119">
    <path clip-path="url(#pbc092861f3)" d="M 230.548936 365.56 
L 232.776221 365.56 
L 232.776221 129.053333 
L 230.548936 129.053333 
z
" style="fill:#2ca02c;"/>
   </g>
   <g id="patch_120">
    <path clip-path="url(#pbc092861f3)" d="M 238.901255 365.56 
L 241.12854 365.56 
L 241.12854 162.84 
L 238.901255 162.84 
z
" style="fill:#2ca02c;"/>
   </g>
   <g id="patch_121">
    <path clip-path="url(#pbc092861f3)" d="M 247.253573 365.56 
L 249.480858 365.56 
L 249.480858 213.52 
L 247.253573 213.52 
z
" style="fill:#2ca02c;"/>
   </g>
   <g id="patch_122">
    <path clip-path="url(#pbc092861f3)" d="M 255.605891 365.56 
L 257.833176 365.56 
L 257.833176 151.577778 
L 255.605891 151.577778 
z
" style="fill:#2ca02c;"/>
   </g>
   <g id="patch_123">
    <path clip-path="url(#pbc092861f3)" d="M 263.95821 365.56 
L 266.185495 365.56 
L 266.185495 168.471111 
L 263.95821 168.471111 
z
" style="fill:#2ca02c;"/>
   </g>
   <g id="patch_124">
    <path clip-path="url(#pbc092861f3)" d="M 272.310528 365.56 
L 274.537813 365.56 
L 274.537813 129.053333 
L 272.310528 129.053333 
z
" style="fill:#2ca02c;"/>
   </g>
   <g id="patch_125">
    <path clip-path="url(#pbc092861f3)" d="M 280.662847 365.56 
L 282.890131 365.56 
L 282.890131 129.053333 
L 280.662847 129.053333 
z
" style="fill:#2ca02c;"/>
   </g>
   <g id="patch_126">
    <path clip-path="url(#pbc092861f3)" d="M 289.015165 365.56 
L 291.24245 365.56 
L 291.24245 151.577778 
L 289.015165 151.577778 
z
" style="fill:#2ca02c;"/>
   </g>
   <g id="patch_127">
    <path clip-path="url(#pbc092861f3)" d="M 297.367483 365.56 
L 299.594768 365.56 
L 299.594768 123.422222 
L 297.367483 123.422222 
z
" style="fill:#2ca02c;"/>
   </g>
   <g id="patch_128">
    <path clip-path="url(#pbc092861f3)" d="M 305.719802 365.56 
L 307.947087 365.56 
L 307.947087 112.16 
L 305.719802 112.16 
z
" style="fill:#2ca02c;"/>
   </g>
   <g id="patch_129">
    <path clip-path="url(#pbc092861f3)" d="M 314.07212 365.56 
L 316.299405 365.56 
L 316.299405 134.684444 
L 314.07212 134.684444 
z
" style="fill:#2ca02c;"/>
   </g>
   <g id="patch_130">
    <path clip-path="url(#pbc092861f3)" d="M 322.424438 365.56 
L 324.651723 365.56 
L 324.651723 106.528889 
L 322.424438 106.528889 
z
" style="fill:#2ca02c;"/>
   </g>
   <g id="patch_131">
    <path clip-path="url(#pbc092861f3)" d="M 330.776757 365.56 
L 333.004042 365.56 
L 333.004042 129.053333 
L 330.776757 129.053333 
z
" style="fill:#2ca02c;"/>
   </g>
   <g id="patch_132">
    <path clip-path="url(#pbc092861f3)" d="M 339.129075 365.56 
L 341.35636 365.56 
L 341.35636 162.84 
L 339.129075 162.84 
z
" style="fill:#2ca02c;"/>
   </g>
   <g id="patch_133">
    <path clip-path="url(#pbc092861f3)" d="M 347.481393 365.56 
L 349.708678 365.56 
L 349.708678 179.733333 
L 347.481393 179.733333 
z
" style="fill:#2ca02c;"/>
   </g>
   <g id="patch_134">
    <path clip-path="url(#pbc092861f3)" d="M 355.833712 365.56 
L 358.060997 365.56 
L 358.060997 168.471111 
L 355.833712 168.471111 
z
" style="fill:#2ca02c;"/>
   </g>
   <g id="patch_135">
    <path clip-path="url(#pbc092861f3)" d="M 364.18603 365.56 
L 366.413315 365.56 
L 366.413315 190.995556 
L 364.18603 190.995556 
z
" style="fill:#2ca02c;"/>
   </g>
   <g id="patch_136">
    <path clip-path="url(#pbc092861f3)" d="M 372.538349 365.56 
L 374.765633 365.56 
L 374.765633 190.995556 
L 372.538349 190.995556 
z
" style="fill:#2ca02c;"/>
   </g>
   <g id="patch_137">
    <path clip-path="url(#pbc092861f3)" d="M 380.890667 365.56 
L 383.117952 365.56 
L 383.117952 123.422222 
L 380.890667 123.422222 
z
" style="fill:#2ca02c;"/>
   </g>
   <g id="patch_138">
    <path clip-path="url(#pbc092861f3)" d="M 389.242985 365.56 
L 391.47027 365.56 
L 391.47027 207.888889 
L 389.242985 207.888889 
z
" style="fill:#2ca02c;"/>
   </g>
   <g id="patch_139">
    <path clip-path="url(#pbc092861f3)" d="M 397.595304 365.56 
L 399.822589 365.56 
L 399.822589 202.257778 
L 397.595304 202.257778 
z
" style="fill:#2ca02c;"/>
   </g>
   <g id="patch_140">
    <path clip-path="url(#pbc092861f3)" d="M 405.947622 365.56 
L 408.174907 365.56 
L 408.174907 190.995556 
L 405.947622 190.995556 
z
" style="fill:#2ca02c;"/>
   </g>
   <g id="patch_141">
    <path clip-path="url(#pbc092861f3)" d="M 414.29994 365.56 
L 416.527225 365.56 
L 416.527225 179.733333 
L 414.29994 179.733333 
z
" style="fill:#2ca02c;"/>
   </g>
   <g id="patch_142">
    <path clip-path="url(#pbc092861f3)" d="M 422.652259 365.56 
L 424.879544 365.56 
L 424.879544 117.791111 
L 422.652259 117.791111 
z
" style="fill:#2ca02c;"/>
   </g>
   <g id="patch_143">
    <path clip-path="url(#pbc092861f3)" d="M 431.004577 365.56 
L 433.231862 365.56 
L 433.231862 67.111111 
L 431.004577 67.111111 
z
" style="fill:#2ca02c;"/>
   </g>
   <g id="patch_144">
    <path clip-path="url(#pbc092861f3)" d="M 439.356895 365.56 
L 441.58418 365.56 
L 441.58418 168.471111 
L 439.356895 168.471111 
z
" style="fill:#2ca02c;"/>
   </g>
   <g id="patch_145">
    <path clip-path="url(#pbc092861f3)" d="M 447.709214 365.56 
L 449.936499 365.56 
L 449.936499 185.364444 
L 447.709214 185.364444 
z
" style="fill:#2ca02c;"/>
   </g>
   <g id="patch_146">
    <path clip-path="url(#pbc092861f3)" d="M 456.061532 365.56 
L 458.288817 365.56 
L 458.288817 117.791111 
L 456.061532 117.791111 
z
" style="fill:#2ca02c;"/>
   </g>
   <g id="patch_147">
    <path clip-path="url(#pbc092861f3)" d="M 464.413851 365.56 
L 466.641135 365.56 
L 466.641135 202.257778 
L 464.413851 202.257778 
z
" style="fill:#2ca02c;"/>
   </g>
   <g id="patch_148">
    <path clip-path="url(#pbc092861f3)" d="M 472.766169 365.56 
L 474.993454 365.56 
L 474.993454 202.257778 
L 472.766169 202.257778 
z
" style="fill:#2ca02c;"/>
   </g>
   <g id="patch_149">
    <path clip-path="url(#pbc092861f3)" d="M 481.118487 365.56 
L 483.345772 365.56 
L 483.345772 112.16 
L 481.118487 112.16 
z
" style="fill:#2ca02c;"/>
   </g>
   <g id="patch_150">
    <path clip-path="url(#pbc092861f3)" d="M 489.470806 365.56 
L 491.698091 365.56 
L 491.698091 145.946667 
L 489.470806 145.946667 
z
" style="fill:#2ca02c;"/>
   </g>
   <g id="patch_151">
    <path clip-path="url(#pbc092861f3)" d="M 497.823124 365.56 
L 500.050409 365.56 
L 500.050409 145.946667 
L 497.823124 145.946667 
z
" style="fill:#2ca02c;"/>
   </g>
   <g id="patch_152">
    <path clip-path="url(#pbc092861f3)" d="M 506.175442 365.56 
L 508.402727 365.56 
L 508.402727 174.102222 
L 506.175442 174.102222 
z
" style="fill:#2ca02c;"/>
   </g>
   <g id="matplotlib.axis_1">
    <g id="xtick_1">
     <g id="line2d_1">
      <defs>
       <path d="M 0 0 
L 0 3.5 
" id="m105d7d02a4" style="stroke:#000000;stroke-width:0.8;"/>
      </defs>
      <g>
       <use style="stroke:#000000;stroke-width:0.8;" x="95.7982" xlink:href="#m105d7d02a4" y="365.56"/>
      </g>
     </g>
     <g id="text_1">
      <!-- 0 -->
      <defs>
       <path d="M 31.78125 66.40625 
Q 24.171875 66.40625 20.328125 58.90625 
Q 16.5 51.421875 16.5 36.375 
Q 16.5 21.390625 20.328125 13.890625 
Q 24.171875 6.390625 31.78125 6.390625 
Q 39.453125 6.390625 43.28125 13.890625 
Q 47.125 21.390625 47.125 36.375 
Q 47.125 51.421875 43.28125 58.90625 
Q 39.453125 66.40625 31.78125 66.40625 
z
M 31.78125 74.21875 
Q 44.046875 74.21875 50.515625 64.515625 
Q 56.984375 54.828125 56.984375 36.375 
Q 56.984375 17.96875 50.515625 8.265625 
Q 44.046875 -1.421875 31.78125 -1.421875 
Q 19.53125 -1.421875 13.0625 8.265625 
Q 6.59375 17.96875 6.59375 36.375 
Q 6.59375 54.828125 13.0625 64.515625 
Q 19.53125 74.21875 31.78125 74.21875 
z
" id="DejaVuSans-48"/>
      </defs>
      <g transform="translate(89.4357 387.756875)scale(0.2 -0.2)">
       <use xlink:href="#DejaVuSans-48"/>
      </g>
     </g>
    </g>
    <g id="xtick_2">
     <g id="line2d_2">
      <g>
       <use style="stroke:#000000;stroke-width:0.8;" x="145.91211" xlink:href="#m105d7d02a4" y="365.56"/>
      </g>
     </g>
     <g id="text_2">
      <!-- 6 -->
      <defs>
       <path d="M 33.015625 40.375 
Q 26.375 40.375 22.484375 35.828125 
Q 18.609375 31.296875 18.609375 23.390625 
Q 18.609375 15.53125 22.484375 10.953125 
Q 26.375 6.390625 33.015625 6.390625 
Q 39.65625 6.390625 43.53125 10.953125 
Q 47.40625 15.53125 47.40625 23.390625 
Q 47.40625 31.296875 43.53125 35.828125 
Q 39.65625 40.375 33.015625 40.375 
z
M 52.59375 71.296875 
L 52.59375 62.3125 
Q 48.875 64.0625 45.09375 64.984375 
Q 41.3125 65.921875 37.59375 65.921875 
Q 27.828125 65.921875 22.671875 59.328125 
Q 17.53125 52.734375 16.796875 39.40625 
Q 19.671875 43.65625 24.015625 45.921875 
Q 28.375 48.1875 33.59375 48.1875 
Q 44.578125 48.1875 50.953125 41.515625 
Q 57.328125 34.859375 57.328125 23.390625 
Q 57.328125 12.15625 50.6875 5.359375 
Q 44.046875 -1.421875 33.015625 -1.421875 
Q 20.359375 -1.421875 13.671875 8.265625 
Q 6.984375 17.96875 6.984375 36.375 
Q 6.984375 53.65625 15.1875 63.9375 
Q 23.390625 74.21875 37.203125 74.21875 
Q 40.921875 74.21875 44.703125 73.484375 
Q 48.484375 72.75 52.59375 71.296875 
z
" id="DejaVuSans-54"/>
      </defs>
      <g transform="translate(139.54961 387.756875)scale(0.2 -0.2)">
       <use xlink:href="#DejaVuSans-54"/>
      </g>
     </g>
    </g>
    <g id="xtick_3">
     <g id="line2d_3">
      <g>
       <use style="stroke:#000000;stroke-width:0.8;" x="196.02602" xlink:href="#m105d7d02a4" y="365.56"/>
      </g>
     </g>
     <g id="text_3">
      <!-- 12 -->
      <defs>
       <path d="M 12.40625 8.296875 
L 28.515625 8.296875 
L 28.515625 63.921875 
L 10.984375 60.40625 
L 10.984375 69.390625 
L 28.421875 72.90625 
L 38.28125 72.90625 
L 38.28125 8.296875 
L 54.390625 8.296875 
L 54.390625 0 
L 12.40625 0 
z
" id="DejaVuSans-49"/>
       <path d="M 19.1875 8.296875 
L 53.609375 8.296875 
L 53.609375 0 
L 7.328125 0 
L 7.328125 8.296875 
Q 12.9375 14.109375 22.625 23.890625 
Q 32.328125 33.6875 34.8125 36.53125 
Q 39.546875 41.84375 41.421875 45.53125 
Q 43.3125 49.21875 43.3125 52.78125 
Q 43.3125 58.59375 39.234375 62.25 
Q 35.15625 65.921875 28.609375 65.921875 
Q 23.96875 65.921875 18.8125 64.3125 
Q 13.671875 62.703125 7.8125 59.421875 
L 7.8125 69.390625 
Q 13.765625 71.78125 18.9375 73 
Q 24.125 74.21875 28.421875 74.21875 
Q 39.75 74.21875 46.484375 68.546875 
Q 53.21875 62.890625 53.21875 53.421875 
Q 53.21875 48.921875 51.53125 44.890625 
Q 49.859375 40.875 45.40625 35.40625 
Q 44.1875 33.984375 37.640625 27.21875 
Q 31.109375 20.453125 19.1875 8.296875 
z
" id="DejaVuSans-50"/>
      </defs>
      <g transform="translate(183.30102 387.756875)scale(0.2 -0.2)">
       <use xlink:href="#DejaVuSans-49"/>
       <use x="63.623047" xlink:href="#DejaVuSans-50"/>
      </g>
     </g>
    </g>
    <g id="xtick_4">
     <g id="line2d_4">
      <g>
       <use style="stroke:#000000;stroke-width:0.8;" x="246.139931" xlink:href="#m105d7d02a4" y="365.56"/>
      </g>
     </g>
     <g id="text_4">
      <!-- 18 -->
      <defs>
       <path d="M 31.78125 34.625 
Q 24.75 34.625 20.71875 30.859375 
Q 16.703125 27.09375 16.703125 20.515625 
Q 16.703125 13.921875 20.71875 10.15625 
Q 24.75 6.390625 31.78125 6.390625 
Q 38.8125 6.390625 42.859375 10.171875 
Q 46.921875 13.96875 46.921875 20.515625 
Q 46.921875 27.09375 42.890625 30.859375 
Q 38.875 34.625 31.78125 34.625 
z
M 21.921875 38.8125 
Q 15.578125 40.375 12.03125 44.71875 
Q 8.5 49.078125 8.5 55.328125 
Q 8.5 64.0625 14.71875 69.140625 
Q 20.953125 74.21875 31.78125 74.21875 
Q 42.671875 74.21875 48.875 69.140625 
Q 55.078125 64.0625 55.078125 55.328125 
Q 55.078125 49.078125 51.53125 44.71875 
Q 48 40.375 41.703125 38.8125 
Q 48.828125 37.15625 52.796875 32.3125 
Q 56.78125 27.484375 56.78125 20.515625 
Q 56.78125 9.90625 50.3125 4.234375 
Q 43.84375 -1.421875 31.78125 -1.421875 
Q 19.734375 -1.421875 13.25 4.234375 
Q 6.78125 9.90625 6.78125 20.515625 
Q 6.78125 27.484375 10.78125 32.3125 
Q 14.796875 37.15625 21.921875 38.8125 
z
M 18.3125 54.390625 
Q 18.3125 48.734375 21.84375 45.5625 
Q 25.390625 42.390625 31.78125 42.390625 
Q 38.140625 42.390625 41.71875 45.5625 
Q 45.3125 48.734375 45.3125 54.390625 
Q 45.3125 60.0625 41.71875 63.234375 
Q 38.140625 66.40625 31.78125 66.40625 
Q 25.390625 66.40625 21.84375 63.234375 
Q 18.3125 60.0625 18.3125 54.390625 
z
" id="DejaVuSans-56"/>
      </defs>
      <g transform="translate(233.414931 387.756875)scale(0.2 -0.2)">
       <use xlink:href="#DejaVuSans-49"/>
       <use x="63.623047" xlink:href="#DejaVuSans-56"/>
      </g>
     </g>
    </g>
    <g id="xtick_5">
     <g id="line2d_5">
      <g>
       <use style="stroke:#000000;stroke-width:0.8;" x="296.253841" xlink:href="#m105d7d02a4" y="365.56"/>
      </g>
     </g>
     <g id="text_5">
      <!-- 24 -->
      <defs>
       <path d="M 37.796875 64.3125 
L 12.890625 25.390625 
L 37.796875 25.390625 
z
M 35.203125 72.90625 
L 47.609375 72.90625 
L 47.609375 25.390625 
L 58.015625 25.390625 
L 58.015625 17.1875 
L 47.609375 17.1875 
L 47.609375 0 
L 37.796875 0 
L 37.796875 17.1875 
L 4.890625 17.1875 
L 4.890625 26.703125 
z
" id="DejaVuSans-52"/>
      </defs>
      <g transform="translate(283.528841 387.756875)scale(0.2 -0.2)">
       <use xlink:href="#DejaVuSans-50"/>
       <use x="63.623047" xlink:href="#DejaVuSans-52"/>
      </g>
     </g>
    </g>
    <g id="xtick_6">
     <g id="line2d_6">
      <g>
       <use style="stroke:#000000;stroke-width:0.8;" x="346.367751" xlink:href="#m105d7d02a4" y="365.56"/>
      </g>
     </g>
     <g id="text_6">
      <!-- 30 -->
      <defs>
       <path d="M 40.578125 39.3125 
Q 47.65625 37.796875 51.625 33 
Q 55.609375 28.21875 55.609375 21.1875 
Q 55.609375 10.40625 48.1875 4.484375 
Q 40.765625 -1.421875 27.09375 -1.421875 
Q 22.515625 -1.421875 17.65625 -0.515625 
Q 12.796875 0.390625 7.625 2.203125 
L 7.625 11.71875 
Q 11.71875 9.328125 16.59375 8.109375 
Q 21.484375 6.890625 26.8125 6.890625 
Q 36.078125 6.890625 40.9375 10.546875 
Q 45.796875 14.203125 45.796875 21.1875 
Q 45.796875 27.640625 41.28125 31.265625 
Q 36.765625 34.90625 28.71875 34.90625 
L 20.21875 34.90625 
L 20.21875 43.015625 
L 29.109375 43.015625 
Q 36.375 43.015625 40.234375 45.921875 
Q 44.09375 48.828125 44.09375 54.296875 
Q 44.09375 59.90625 40.109375 62.90625 
Q 36.140625 65.921875 28.71875 65.921875 
Q 24.65625 65.921875 20.015625 65.03125 
Q 15.375 64.15625 9.8125 62.3125 
L 9.8125 71.09375 
Q 15.4375 72.65625 20.34375 73.4375 
Q 25.25 74.21875 29.59375 74.21875 
Q 40.828125 74.21875 47.359375 69.109375 
Q 53.90625 64.015625 53.90625 55.328125 
Q 53.90625 49.265625 50.4375 45.09375 
Q 46.96875 40.921875 40.578125 39.3125 
z
" id="DejaVuSans-51"/>
      </defs>
      <g transform="translate(333.642751 387.756875)scale(0.2 -0.2)">
       <use xlink:href="#DejaVuSans-51"/>
       <use x="63.623047" xlink:href="#DejaVuSans-48"/>
      </g>
     </g>
    </g>
    <g id="xtick_7">
     <g id="line2d_7">
      <g>
       <use style="stroke:#000000;stroke-width:0.8;" x="396.481661" xlink:href="#m105d7d02a4" y="365.56"/>
      </g>
     </g>
     <g id="text_7">
      <!-- 36 -->
      <g transform="translate(383.756661 387.756875)scale(0.2 -0.2)">
       <use xlink:href="#DejaVuSans-51"/>
       <use x="63.623047" xlink:href="#DejaVuSans-54"/>
      </g>
     </g>
    </g>
    <g id="xtick_8">
     <g id="line2d_8">
      <g>
       <use style="stroke:#000000;stroke-width:0.8;" x="446.595571" xlink:href="#m105d7d02a4" y="365.56"/>
      </g>
     </g>
     <g id="text_8">
      <!-- 42 -->
      <g transform="translate(433.870571 387.756875)scale(0.2 -0.2)">
       <use xlink:href="#DejaVuSans-52"/>
       <use x="63.623047" xlink:href="#DejaVuSans-50"/>
      </g>
     </g>
    </g>
    <g id="xtick_9">
     <g id="line2d_9">
      <g>
       <use style="stroke:#000000;stroke-width:0.8;" x="496.709482" xlink:href="#m105d7d02a4" y="365.56"/>
      </g>
     </g>
     <g id="text_9">
      <!-- 48 -->
      <g transform="translate(483.984482 387.756875)scale(0.2 -0.2)">
       <use xlink:href="#DejaVuSans-52"/>
       <use x="63.623047" xlink:href="#DejaVuSans-56"/>
      </g>
     </g>
    </g>
    <g id="text_10">
     <!-- Simulation ID -->
     <defs>
      <path d="M 53.515625 70.515625 
L 53.515625 60.890625 
Q 47.90625 63.578125 42.921875 64.890625 
Q 37.9375 66.21875 33.296875 66.21875 
Q 25.25 66.21875 20.875 63.09375 
Q 16.5 59.96875 16.5 54.203125 
Q 16.5 49.359375 19.40625 46.890625 
Q 22.3125 44.4375 30.421875 42.921875 
L 36.375 41.703125 
Q 47.40625 39.59375 52.65625 34.296875 
Q 57.90625 29 57.90625 20.125 
Q 57.90625 9.515625 50.796875 4.046875 
Q 43.703125 -1.421875 29.984375 -1.421875 
Q 24.8125 -1.421875 18.96875 -0.25 
Q 13.140625 0.921875 6.890625 3.21875 
L 6.890625 13.375 
Q 12.890625 10.015625 18.65625 8.296875 
Q 24.421875 6.59375 29.984375 6.59375 
Q 38.421875 6.59375 43.015625 9.90625 
Q 47.609375 13.234375 47.609375 19.390625 
Q 47.609375 24.75 44.3125 27.78125 
Q 41.015625 30.8125 33.5 32.328125 
L 27.484375 33.5 
Q 16.453125 35.6875 11.515625 40.375 
Q 6.59375 45.0625 6.59375 53.421875 
Q 6.59375 63.09375 13.40625 68.65625 
Q 20.21875 74.21875 32.171875 74.21875 
Q 37.3125 74.21875 42.625 73.28125 
Q 47.953125 72.359375 53.515625 70.515625 
z
" id="DejaVuSans-83"/>
      <path d="M 9.421875 54.6875 
L 18.40625 54.6875 
L 18.40625 0 
L 9.421875 0 
z
M 9.421875 75.984375 
L 18.40625 75.984375 
L 18.40625 64.59375 
L 9.421875 64.59375 
z
" id="DejaVuSans-105"/>
      <path d="M 52 44.1875 
Q 55.375 50.25 60.0625 53.125 
Q 64.75 56 71.09375 56 
Q 79.640625 56 84.28125 50.015625 
Q 88.921875 44.046875 88.921875 33.015625 
L 88.921875 0 
L 79.890625 0 
L 79.890625 32.71875 
Q 79.890625 40.578125 77.09375 44.375 
Q 74.3125 48.1875 68.609375 48.1875 
Q 61.625 48.1875 57.5625 43.546875 
Q 53.515625 38.921875 53.515625 30.90625 
L 53.515625 0 
L 44.484375 0 
L 44.484375 32.71875 
Q 44.484375 40.625 41.703125 44.40625 
Q 38.921875 48.1875 33.109375 48.1875 
Q 26.21875 48.1875 22.15625 43.53125 
Q 18.109375 38.875 18.109375 30.90625 
L 18.109375 0 
L 9.078125 0 
L 9.078125 54.6875 
L 18.109375 54.6875 
L 18.109375 46.1875 
Q 21.1875 51.21875 25.484375 53.609375 
Q 29.78125 56 35.6875 56 
Q 41.65625 56 45.828125 52.96875 
Q 50 49.953125 52 44.1875 
z
" id="DejaVuSans-109"/>
      <path d="M 8.5 21.578125 
L 8.5 54.6875 
L 17.484375 54.6875 
L 17.484375 21.921875 
Q 17.484375 14.15625 20.5 10.265625 
Q 23.53125 6.390625 29.59375 6.390625 
Q 36.859375 6.390625 41.078125 11.03125 
Q 45.3125 15.671875 45.3125 23.6875 
L 45.3125 54.6875 
L 54.296875 54.6875 
L 54.296875 0 
L 45.3125 0 
L 45.3125 8.40625 
Q 42.046875 3.421875 37.71875 1 
Q 33.40625 -1.421875 27.6875 -1.421875 
Q 18.265625 -1.421875 13.375 4.4375 
Q 8.5 10.296875 8.5 21.578125 
z
M 31.109375 56 
z
" id="DejaVuSans-117"/>
      <path d="M 9.421875 75.984375 
L 18.40625 75.984375 
L 18.40625 0 
L 9.421875 0 
z
" id="DejaVuSans-108"/>
      <path d="M 34.28125 27.484375 
Q 23.390625 27.484375 19.1875 25 
Q 14.984375 22.515625 14.984375 16.5 
Q 14.984375 11.71875 18.140625 8.90625 
Q 21.296875 6.109375 26.703125 6.109375 
Q 34.1875 6.109375 38.703125 11.40625 
Q 43.21875 16.703125 43.21875 25.484375 
L 43.21875 27.484375 
z
M 52.203125 31.203125 
L 52.203125 0 
L 43.21875 0 
L 43.21875 8.296875 
Q 40.140625 3.328125 35.546875 0.953125 
Q 30.953125 -1.421875 24.3125 -1.421875 
Q 15.921875 -1.421875 10.953125 3.296875 
Q 6 8.015625 6 15.921875 
Q 6 25.140625 12.171875 29.828125 
Q 18.359375 34.515625 30.609375 34.515625 
L 43.21875 34.515625 
L 43.21875 35.40625 
Q 43.21875 41.609375 39.140625 45 
Q 35.0625 48.390625 27.6875 48.390625 
Q 23 48.390625 18.546875 47.265625 
Q 14.109375 46.140625 10.015625 43.890625 
L 10.015625 52.203125 
Q 14.9375 54.109375 19.578125 55.046875 
Q 24.21875 56 28.609375 56 
Q 40.484375 56 46.34375 49.84375 
Q 52.203125 43.703125 52.203125 31.203125 
z
" id="DejaVuSans-97"/>
      <path d="M 18.3125 70.21875 
L 18.3125 54.6875 
L 36.8125 54.6875 
L 36.8125 47.703125 
L 18.3125 47.703125 
L 18.3125 18.015625 
Q 18.3125 11.328125 20.140625 9.421875 
Q 21.96875 7.515625 27.59375 7.515625 
L 36.8125 7.515625 
L 36.8125 0 
L 27.59375 0 
Q 17.1875 0 13.234375 3.875 
Q 9.28125 7.765625 9.28125 18.015625 
L 9.28125 47.703125 
L 2.6875 47.703125 
L 2.6875 54.6875 
L 9.28125 54.6875 
L 9.28125 70.21875 
z
" id="DejaVuSans-116"/>
      <path d="M 30.609375 48.390625 
Q 23.390625 48.390625 19.1875 42.75 
Q 14.984375 37.109375 14.984375 27.296875 
Q 14.984375 17.484375 19.15625 11.84375 
Q 23.34375 6.203125 30.609375 6.203125 
Q 37.796875 6.203125 41.984375 11.859375 
Q 46.1875 17.53125 46.1875 27.296875 
Q 46.1875 37.015625 41.984375 42.703125 
Q 37.796875 48.390625 30.609375 48.390625 
z
M 30.609375 56 
Q 42.328125 56 49.015625 48.375 
Q 55.71875 40.765625 55.71875 27.296875 
Q 55.71875 13.875 49.015625 6.21875 
Q 42.328125 -1.421875 30.609375 -1.421875 
Q 18.84375 -1.421875 12.171875 6.21875 
Q 5.515625 13.875 5.515625 27.296875 
Q 5.515625 40.765625 12.171875 48.375 
Q 18.84375 56 30.609375 56 
z
" id="DejaVuSans-111"/>
      <path d="M 54.890625 33.015625 
L 54.890625 0 
L 45.90625 0 
L 45.90625 32.71875 
Q 45.90625 40.484375 42.875 44.328125 
Q 39.84375 48.1875 33.796875 48.1875 
Q 26.515625 48.1875 22.3125 43.546875 
Q 18.109375 38.921875 18.109375 30.90625 
L 18.109375 0 
L 9.078125 0 
L 9.078125 54.6875 
L 18.109375 54.6875 
L 18.109375 46.1875 
Q 21.34375 51.125 25.703125 53.5625 
Q 30.078125 56 35.796875 56 
Q 45.21875 56 50.046875 50.171875 
Q 54.890625 44.34375 54.890625 33.015625 
z
" id="DejaVuSans-110"/>
      <path id="DejaVuSans-32"/>
      <path d="M 9.8125 72.90625 
L 19.671875 72.90625 
L 19.671875 0 
L 9.8125 0 
z
" id="DejaVuSans-73"/>
      <path d="M 19.671875 64.796875 
L 19.671875 8.109375 
L 31.59375 8.109375 
Q 46.6875 8.109375 53.6875 14.9375 
Q 60.6875 21.78125 60.6875 36.53125 
Q 60.6875 51.171875 53.6875 57.984375 
Q 46.6875 64.796875 31.59375 64.796875 
z
M 9.8125 72.90625 
L 30.078125 72.90625 
Q 51.265625 72.90625 61.171875 64.09375 
Q 71.09375 55.28125 71.09375 36.53125 
Q 71.09375 17.671875 61.125 8.828125 
Q 51.171875 0 30.078125 0 
L 9.8125 0 
z
" id="DejaVuSans-68"/>
     </defs>
     <g transform="translate(216.562813 414.912344)scale(0.25 -0.25)">
      <use xlink:href="#DejaVuSans-83"/>
      <use x="63.476562" xlink:href="#DejaVuSans-105"/>
      <use x="91.259766" xlink:href="#DejaVuSans-109"/>
      <use x="188.671875" xlink:href="#DejaVuSans-117"/>
      <use x="252.050781" xlink:href="#DejaVuSans-108"/>
      <use x="279.833984" xlink:href="#DejaVuSans-97"/>
      <use x="341.113281" xlink:href="#DejaVuSans-116"/>
      <use x="380.322266" xlink:href="#DejaVuSans-105"/>
      <use x="408.105469" xlink:href="#DejaVuSans-111"/>
      <use x="469.287109" xlink:href="#DejaVuSans-110"/>
      <use x="532.666016" xlink:href="#DejaVuSans-32"/>
      <use x="564.453125" xlink:href="#DejaVuSans-73"/>
      <use x="593.945312" xlink:href="#DejaVuSans-68"/>
     </g>
    </g>
   </g>
   <g id="matplotlib.axis_2">
    <g id="ytick_1">
     <g id="line2d_10">
      <defs>
       <path d="M 0 0 
L -3.5 0 
" id="m265faf794b" style="stroke:#000000;stroke-width:0.8;"/>
      </defs>
      <g>
       <use style="stroke:#000000;stroke-width:0.8;" x="71.66" xlink:href="#m265faf794b" y="365.56"/>
      </g>
     </g>
     <g id="text_11">
      <!-- 0 -->
      <g transform="translate(51.935 373.158437)scale(0.2 -0.2)">
       <use xlink:href="#DejaVuSans-48"/>
      </g>
     </g>
    </g>
    <g id="ytick_2">
     <g id="line2d_11">
      <g>
       <use style="stroke:#000000;stroke-width:0.8;" x="71.66" xlink:href="#m265faf794b" y="309.248889"/>
      </g>
     </g>
     <g id="text_12">
      <!-- 10 -->
      <g transform="translate(39.21 316.847326)scale(0.2 -0.2)">
       <use xlink:href="#DejaVuSans-49"/>
       <use x="63.623047" xlink:href="#DejaVuSans-48"/>
      </g>
     </g>
    </g>
    <g id="ytick_3">
     <g id="line2d_12">
      <g>
       <use style="stroke:#000000;stroke-width:0.8;" x="71.66" xlink:href="#m265faf794b" y="252.937778"/>
      </g>
     </g>
     <g id="text_13">
      <!-- 20 -->
      <g transform="translate(39.21 260.536215)scale(0.2 -0.2)">
       <use xlink:href="#DejaVuSans-50"/>
       <use x="63.623047" xlink:href="#DejaVuSans-48"/>
      </g>
     </g>
    </g>
    <g id="ytick_4">
     <g id="line2d_13">
      <g>
       <use style="stroke:#000000;stroke-width:0.8;" x="71.66" xlink:href="#m265faf794b" y="196.626667"/>
      </g>
     </g>
     <g id="text_14">
      <!-- 30 -->
      <g transform="translate(39.21 204.225104)scale(0.2 -0.2)">
       <use xlink:href="#DejaVuSans-51"/>
       <use x="63.623047" xlink:href="#DejaVuSans-48"/>
      </g>
     </g>
    </g>
    <g id="ytick_5">
     <g id="line2d_14">
      <g>
       <use style="stroke:#000000;stroke-width:0.8;" x="71.66" xlink:href="#m265faf794b" y="140.315556"/>
      </g>
     </g>
     <g id="text_15">
      <!-- 40 -->
      <g transform="translate(39.21 147.913993)scale(0.2 -0.2)">
       <use xlink:href="#DejaVuSans-52"/>
       <use x="63.623047" xlink:href="#DejaVuSans-48"/>
      </g>
     </g>
    </g>
    <g id="ytick_6">
     <g id="line2d_15">
      <g>
       <use style="stroke:#000000;stroke-width:0.8;" x="71.66" xlink:href="#m265faf794b" y="84.004444"/>
      </g>
     </g>
     <g id="text_16">
      <!-- 50 -->
      <defs>
       <path d="M 10.796875 72.90625 
L 49.515625 72.90625 
L 49.515625 64.59375 
L 19.828125 64.59375 
L 19.828125 46.734375 
Q 21.96875 47.46875 24.109375 47.828125 
Q 26.265625 48.1875 28.421875 48.1875 
Q 40.625 48.1875 47.75 41.5 
Q 54.890625 34.8125 54.890625 23.390625 
Q 54.890625 11.625 47.5625 5.09375 
Q 40.234375 -1.421875 26.90625 -1.421875 
Q 22.3125 -1.421875 17.546875 -0.640625 
Q 12.796875 0.140625 7.71875 1.703125 
L 7.71875 11.625 
Q 12.109375 9.234375 16.796875 8.0625 
Q 21.484375 6.890625 26.703125 6.890625 
Q 35.15625 6.890625 40.078125 11.328125 
Q 45.015625 15.765625 45.015625 23.390625 
Q 45.015625 31 40.078125 35.4375 
Q 35.15625 39.890625 26.703125 39.890625 
Q 22.75 39.890625 18.8125 39.015625 
Q 14.890625 38.140625 10.796875 36.28125 
z
" id="DejaVuSans-53"/>
      </defs>
      <g transform="translate(39.21 91.602882)scale(0.2 -0.2)">
       <use xlink:href="#DejaVuSans-53"/>
       <use x="63.623047" xlink:href="#DejaVuSans-48"/>
      </g>
     </g>
    </g>
    <g id="ytick_7">
     <g id="line2d_16">
      <g>
       <use style="stroke:#000000;stroke-width:0.8;" x="71.66" xlink:href="#m265faf794b" y="27.693333"/>
      </g>
     </g>
     <g id="text_17">
      <!-- 60 -->
      <g transform="translate(39.21 35.291771)scale(0.2 -0.2)">
       <use xlink:href="#DejaVuSans-54"/>
       <use x="63.623047" xlink:href="#DejaVuSans-48"/>
      </g>
     </g>
    </g>
    <g id="text_18">
     <!-- TTSF -->
     <defs>
      <path d="M -0.296875 72.90625 
L 61.375 72.90625 
L 61.375 64.59375 
L 35.5 64.59375 
L 35.5 0 
L 25.59375 0 
L 25.59375 64.59375 
L -0.296875 64.59375 
z
" id="DejaVuSans-84"/>
      <path d="M 9.8125 72.90625 
L 51.703125 72.90625 
L 51.703125 64.59375 
L 19.671875 64.59375 
L 19.671875 43.109375 
L 48.578125 43.109375 
L 48.578125 34.8125 
L 19.671875 34.8125 
L 19.671875 0 
L 9.8125 0 
z
" id="DejaVuSans-70"/>
     </defs>
     <g transform="translate(30.010781 218.572578)rotate(-90)scale(0.25 -0.25)">
      <use xlink:href="#DejaVuSans-84"/>
      <use x="61.068359" xlink:href="#DejaVuSans-84"/>
      <use x="122.152344" xlink:href="#DejaVuSans-83"/>
      <use x="185.628906" xlink:href="#DejaVuSans-70"/>
     </g>
    </g>
   </g>
   <g id="line2d_17">
    <path clip-path="url(#pbc092861f3)" d="M 71.66 159.686578 
L 529.2 159.686578 
" style="fill:none;stroke:#1f77b4;stroke-dasharray:9.6,2.4,1.5,2.4;stroke-dashoffset:0;stroke-width:1.5;"/>
   </g>
   <g id="line2d_18">
    <path clip-path="url(#pbc092861f3)" d="M 71.66 139.301956 
L 529.2 139.301956 
" style="fill:none;stroke:#ff7f0e;stroke-dasharray:9.6,2.4,1.5,2.4;stroke-dashoffset:0;stroke-width:1.5;"/>
   </g>
   <g id="line2d_19">
    <path clip-path="url(#pbc092861f3)" d="M 71.66 160.474933 
L 529.2 160.474933 
" style="fill:none;stroke:#2ca02c;stroke-dasharray:9.6,2.4,1.5,2.4;stroke-dashoffset:0;stroke-width:1.5;"/>
   </g>
   <g id="patch_153">
    <path d="M 71.66 365.56 
L 71.66 10.8 
" style="fill:none;stroke:#000000;stroke-linecap:square;stroke-linejoin:miter;stroke-width:0.8;"/>
   </g>
   <g id="patch_154">
    <path d="M 529.2 365.56 
L 529.2 10.8 
" style="fill:none;stroke:#000000;stroke-linecap:square;stroke-linejoin:miter;stroke-width:0.8;"/>
   </g>
   <g id="patch_155">
    <path d="M 71.66 365.56 
L 529.2 365.56 
" style="fill:none;stroke:#000000;stroke-linecap:square;stroke-linejoin:miter;stroke-width:0.8;"/>
   </g>
   <g id="patch_156">
    <path d="M 71.66 10.8 
L 529.2 10.8 
" style="fill:none;stroke:#000000;stroke-linecap:square;stroke-linejoin:miter;stroke-width:0.8;"/>
   </g>
   <g id="legend_1">
    <g id="patch_157">
     <path d="M 414.035938 62.834375 
L 522.2 62.834375 
Q 524.2 62.834375 524.2 60.834375 
L 524.2 17.8 
Q 524.2 15.8 522.2 15.8 
L 414.035938 15.8 
Q 412.035938 15.8 412.035938 17.8 
L 412.035938 60.834375 
Q 412.035938 62.834375 414.035938 62.834375 
z
" style="fill:#ffffff;opacity:0.8;stroke:#cccccc;stroke-linejoin:miter;"/>
    </g>
    <g id="patch_158">
     <path d="M 416.035938 27.398438 
L 436.035938 27.398438 
L 436.035938 20.398438 
L 416.035938 20.398438 
z
" style="fill:#1f77b4;"/>
    </g>
    <g id="text_19">
     <!-- DD-IPI -->
     <defs>
      <path d="M 4.890625 31.390625 
L 31.203125 31.390625 
L 31.203125 23.390625 
L 4.890625 23.390625 
z
" id="DejaVuSans-45"/>
      <path d="M 19.671875 64.796875 
L 19.671875 37.40625 
L 32.078125 37.40625 
Q 38.96875 37.40625 42.71875 40.96875 
Q 46.484375 44.53125 46.484375 51.125 
Q 46.484375 57.671875 42.71875 61.234375 
Q 38.96875 64.796875 32.078125 64.796875 
z
M 9.8125 72.90625 
L 32.078125 72.90625 
Q 44.34375 72.90625 50.609375 67.359375 
Q 56.890625 61.8125 56.890625 51.125 
Q 56.890625 40.328125 50.609375 34.8125 
Q 44.34375 29.296875 32.078125 29.296875 
L 19.671875 29.296875 
L 19.671875 0 
L 9.8125 0 
z
" id="DejaVuSans-80"/>
     </defs>
     <g transform="translate(444.035938 27.398438)scale(0.1 -0.1)">
      <use xlink:href="#DejaVuSans-68"/>
      <use x="77.001953" xlink:href="#DejaVuSans-68"/>
      <use x="154.003906" xlink:href="#DejaVuSans-45"/>
      <use x="190.087891" xlink:href="#DejaVuSans-73"/>
      <use x="219.580078" xlink:href="#DejaVuSans-80"/>
      <use x="279.882812" xlink:href="#DejaVuSans-73"/>
     </g>
    </g>
    <g id="patch_159">
     <path d="M 416.035938 42.076563 
L 436.035938 42.076563 
L 436.035938 35.076563 
L 416.035938 35.076563 
z
" style="fill:#ff7f0e;"/>
    </g>
    <g id="text_20">
     <!-- DD-Random-IPI -->
     <defs>
      <path d="M 44.390625 34.1875 
Q 47.5625 33.109375 50.5625 29.59375 
Q 53.5625 26.078125 56.59375 19.921875 
L 66.609375 0 
L 56 0 
L 46.6875 18.703125 
Q 43.0625 26.03125 39.671875 28.421875 
Q 36.28125 30.8125 30.421875 30.8125 
L 19.671875 30.8125 
L 19.671875 0 
L 9.8125 0 
L 9.8125 72.90625 
L 32.078125 72.90625 
Q 44.578125 72.90625 50.734375 67.671875 
Q 56.890625 62.453125 56.890625 51.90625 
Q 56.890625 45.015625 53.6875 40.46875 
Q 50.484375 35.9375 44.390625 34.1875 
z
M 19.671875 64.796875 
L 19.671875 38.921875 
L 32.078125 38.921875 
Q 39.203125 38.921875 42.84375 42.21875 
Q 46.484375 45.515625 46.484375 51.90625 
Q 46.484375 58.296875 42.84375 61.546875 
Q 39.203125 64.796875 32.078125 64.796875 
z
" id="DejaVuSans-82"/>
      <path d="M 45.40625 46.390625 
L 45.40625 75.984375 
L 54.390625 75.984375 
L 54.390625 0 
L 45.40625 0 
L 45.40625 8.203125 
Q 42.578125 3.328125 38.25 0.953125 
Q 33.9375 -1.421875 27.875 -1.421875 
Q 17.96875 -1.421875 11.734375 6.484375 
Q 5.515625 14.40625 5.515625 27.296875 
Q 5.515625 40.1875 11.734375 48.09375 
Q 17.96875 56 27.875 56 
Q 33.9375 56 38.25 53.625 
Q 42.578125 51.265625 45.40625 46.390625 
z
M 14.796875 27.296875 
Q 14.796875 17.390625 18.875 11.75 
Q 22.953125 6.109375 30.078125 6.109375 
Q 37.203125 6.109375 41.296875 11.75 
Q 45.40625 17.390625 45.40625 27.296875 
Q 45.40625 37.203125 41.296875 42.84375 
Q 37.203125 48.484375 30.078125 48.484375 
Q 22.953125 48.484375 18.875 42.84375 
Q 14.796875 37.203125 14.796875 27.296875 
z
" id="DejaVuSans-100"/>
     </defs>
     <g transform="translate(444.035938 42.076563)scale(0.1 -0.1)">
      <use xlink:href="#DejaVuSans-68"/>
      <use x="77.001953" xlink:href="#DejaVuSans-68"/>
      <use x="154.003906" xlink:href="#DejaVuSans-45"/>
      <use x="190.087891" xlink:href="#DejaVuSans-82"/>
      <use x="259.539062" xlink:href="#DejaVuSans-97"/>
      <use x="320.818359" xlink:href="#DejaVuSans-110"/>
      <use x="384.197266" xlink:href="#DejaVuSans-100"/>
      <use x="447.673828" xlink:href="#DejaVuSans-111"/>
      <use x="508.855469" xlink:href="#DejaVuSans-109"/>
      <use x="606.267578" xlink:href="#DejaVuSans-45"/>
      <use x="642.351562" xlink:href="#DejaVuSans-73"/>
      <use x="671.84375" xlink:href="#DejaVuSans-80"/>
      <use x="732.146484" xlink:href="#DejaVuSans-73"/>
     </g>
    </g>
    <g id="patch_160">
     <path d="M 416.035938 56.754687 
L 436.035938 56.754687 
L 436.035938 49.754687 
L 416.035938 49.754687 
z
" style="fill:#2ca02c;"/>
    </g>
    <g id="text_21">
     <!-- DD-PI -->
     <g transform="translate(444.035938 56.754687)scale(0.1 -0.1)">
      <use xlink:href="#DejaVuSans-68"/>
      <use x="77.001953" xlink:href="#DejaVuSans-68"/>
      <use x="154.003906" xlink:href="#DejaVuSans-45"/>
      <use x="190.087891" xlink:href="#DejaVuSans-80"/>
      <use x="250.390625" xlink:href="#DejaVuSans-73"/>
     </g>
    </g>
   </g>
  </g>
 </g>
 <defs>
  <clipPath id="pbc092861f3">
   <rect height="354.76" width="457.54" x="71.66" y="10.8"/>
  </clipPath>
 </defs>
</svg>
