<?xml version="1.0" encoding="utf-8" standalone="no"?>
<!DOCTYPE svg PUBLIC "-//W3C//DTD SVG 1.1//EN"
  "http://www.w3.org/Graphics/SVG/1.1/DTD/svg11.dtd">
<!-- Created with matplotlib (https://matplotlib.org/) -->
<svg height="432pt" version="1.1" viewBox="0 0 540 432" width="540pt" xmlns="http://www.w3.org/2000/svg" xmlns:xlink="http://www.w3.org/1999/xlink">
 <defs>
  <style type="text/css">
*{stroke-linecap:butt;stroke-linejoin:round;}
  </style>
 </defs>
 <g id="figure_1">
  <g id="patch_1">
   <path d="M 0 432 
L 540 432 
L 540 0 
L 0 0 
z
" style="fill:#ffffff;"/>
  </g>
  <g id="axes_1">
   <g id="patch_2">
    <path d="M 70.13 365.56 
L 518.497449 365.56 
L 518.497449 88.5 
L 70.13 88.5 
z
" style="fill:#ffffff;"/>
   </g>
   <g id="matplotlib.axis_1">
    <g id="xtick_1">
     <g id="line2d_1">
      <defs>
       <path d="M 0 0 
L 0 3.5 
" id="ma23ad5562c" style="stroke:#000000;stroke-width:0.8;"/>
      </defs>
      <g>
       <use style="stroke:#000000;stroke-width:0.8;" x="90.510339" xlink:href="#ma23ad5562c" y="365.56"/>
      </g>
     </g>
     <g id="text_1">
      <!-- 0 -->
      <defs>
       <path d="M 31.78125 66.40625 
Q 24.171875 66.40625 20.328125 58.90625 
Q 16.5 51.421875 16.5 36.375 
Q 16.5 21.390625 20.328125 13.890625 
Q 24.171875 6.390625 31.78125 6.390625 
Q 39.453125 6.390625 43.28125 13.890625 
Q 47.125 21.390625 47.125 36.375 
Q 47.125 51.421875 43.28125 58.90625 
Q 39.453125 66.40625 31.78125 66.40625 
z
M 31.78125 74.21875 
Q 44.046875 74.21875 50.515625 64.515625 
Q 56.984375 54.828125 56.984375 36.375 
Q 56.984375 17.96875 50.515625 8.265625 
Q 44.046875 -1.421875 31.78125 -1.421875 
Q 19.53125 -1.421875 13.0625 8.265625 
Q 6.59375 17.96875 6.59375 36.375 
Q 6.59375 54.828125 13.0625 64.515625 
Q 19.53125 74.21875 31.78125 74.21875 
z
" id="DejaVuSans-48"/>
      </defs>
      <g transform="translate(84.147839 387.756875)scale(0.2 -0.2)">
       <use xlink:href="#DejaVuSans-48"/>
      </g>
     </g>
    </g>
    <g id="xtick_2">
     <g id="line2d_2">
      <g>
       <use style="stroke:#000000;stroke-width:0.8;" x="151.34717" xlink:href="#ma23ad5562c" y="365.56"/>
      </g>
     </g>
     <g id="text_2">
      <!-- 10 -->
      <defs>
       <path d="M 12.40625 8.296875 
L 28.515625 8.296875 
L 28.515625 63.921875 
L 10.984375 60.40625 
L 10.984375 69.390625 
L 28.421875 72.90625 
L 38.28125 72.90625 
L 38.28125 8.296875 
L 54.390625 8.296875 
L 54.390625 0 
L 12.40625 0 
z
" id="DejaVuSans-49"/>
      </defs>
      <g transform="translate(138.62217 387.756875)scale(0.2 -0.2)">
       <use xlink:href="#DejaVuSans-49"/>
       <use x="63.623047" xlink:href="#DejaVuSans-48"/>
      </g>
     </g>
    </g>
    <g id="xtick_3">
     <g id="line2d_3">
      <g>
       <use style="stroke:#000000;stroke-width:0.8;" x="212.184002" xlink:href="#ma23ad5562c" y="365.56"/>
      </g>
     </g>
     <g id="text_3">
      <!-- 20 -->
      <defs>
       <path d="M 19.1875 8.296875 
L 53.609375 8.296875 
L 53.609375 0 
L 7.328125 0 
L 7.328125 8.296875 
Q 12.9375 14.109375 22.625 23.890625 
Q 32.328125 33.6875 34.8125 36.53125 
Q 39.546875 41.84375 41.421875 45.53125 
Q 43.3125 49.21875 43.3125 52.78125 
Q 43.3125 58.59375 39.234375 62.25 
Q 35.15625 65.921875 28.609375 65.921875 
Q 23.96875 65.921875 18.8125 64.3125 
Q 13.671875 62.703125 7.8125 59.421875 
L 7.8125 69.390625 
Q 13.765625 71.78125 18.9375 73 
Q 24.125 74.21875 28.421875 74.21875 
Q 39.75 74.21875 46.484375 68.546875 
Q 53.21875 62.890625 53.21875 53.421875 
Q 53.21875 48.921875 51.53125 44.890625 
Q 49.859375 40.875 45.40625 35.40625 
Q 44.1875 33.984375 37.640625 27.21875 
Q 31.109375 20.453125 19.1875 8.296875 
z
" id="DejaVuSans-50"/>
      </defs>
      <g transform="translate(199.459002 387.756875)scale(0.2 -0.2)">
       <use xlink:href="#DejaVuSans-50"/>
       <use x="63.623047" xlink:href="#DejaVuSans-48"/>
      </g>
     </g>
    </g>
    <g id="xtick_4">
     <g id="line2d_4">
      <g>
       <use style="stroke:#000000;stroke-width:0.8;" x="273.020833" xlink:href="#ma23ad5562c" y="365.56"/>
      </g>
     </g>
     <g id="text_4">
      <!-- 30 -->
      <defs>
       <path d="M 40.578125 39.3125 
Q 47.65625 37.796875 51.625 33 
Q 55.609375 28.21875 55.609375 21.1875 
Q 55.609375 10.40625 48.1875 4.484375 
Q 40.765625 -1.421875 27.09375 -1.421875 
Q 22.515625 -1.421875 17.65625 -0.515625 
Q 12.796875 0.390625 7.625 2.203125 
L 7.625 11.71875 
Q 11.71875 9.328125 16.59375 8.109375 
Q 21.484375 6.890625 26.8125 6.890625 
Q 36.078125 6.890625 40.9375 10.546875 
Q 45.796875 14.203125 45.796875 21.1875 
Q 45.796875 27.640625 41.28125 31.265625 
Q 36.765625 34.90625 28.71875 34.90625 
L 20.21875 34.90625 
L 20.21875 43.015625 
L 29.109375 43.015625 
Q 36.375 43.015625 40.234375 45.921875 
Q 44.09375 48.828125 44.09375 54.296875 
Q 44.09375 59.90625 40.109375 62.90625 
Q 36.140625 65.921875 28.71875 65.921875 
Q 24.65625 65.921875 20.015625 65.03125 
Q 15.375 64.15625 9.8125 62.3125 
L 9.8125 71.09375 
Q 15.4375 72.65625 20.34375 73.4375 
Q 25.25 74.21875 29.59375 74.21875 
Q 40.828125 74.21875 47.359375 69.109375 
Q 53.90625 64.015625 53.90625 55.328125 
Q 53.90625 49.265625 50.4375 45.09375 
Q 46.96875 40.921875 40.578125 39.3125 
z
" id="DejaVuSans-51"/>
      </defs>
      <g transform="translate(260.295833 387.756875)scale(0.2 -0.2)">
       <use xlink:href="#DejaVuSans-51"/>
       <use x="63.623047" xlink:href="#DejaVuSans-48"/>
      </g>
     </g>
    </g>
    <g id="xtick_5">
     <g id="line2d_5">
      <g>
       <use style="stroke:#000000;stroke-width:0.8;" x="333.857665" xlink:href="#ma23ad5562c" y="365.56"/>
      </g>
     </g>
     <g id="text_5">
      <!-- 40 -->
      <defs>
       <path d="M 37.796875 64.3125 
L 12.890625 25.390625 
L 37.796875 25.390625 
z
M 35.203125 72.90625 
L 47.609375 72.90625 
L 47.609375 25.390625 
L 58.015625 25.390625 
L 58.015625 17.1875 
L 47.609375 17.1875 
L 47.609375 0 
L 37.796875 0 
L 37.796875 17.1875 
L 4.890625 17.1875 
L 4.890625 26.703125 
z
" id="DejaVuSans-52"/>
      </defs>
      <g transform="translate(321.132665 387.756875)scale(0.2 -0.2)">
       <use xlink:href="#DejaVuSans-52"/>
       <use x="63.623047" xlink:href="#DejaVuSans-48"/>
      </g>
     </g>
    </g>
    <g id="xtick_6">
     <g id="line2d_6">
      <g>
       <use style="stroke:#000000;stroke-width:0.8;" x="394.694497" xlink:href="#ma23ad5562c" y="365.56"/>
      </g>
     </g>
     <g id="text_6">
      <!-- 50 -->
      <defs>
       <path d="M 10.796875 72.90625 
L 49.515625 72.90625 
L 49.515625 64.59375 
L 19.828125 64.59375 
L 19.828125 46.734375 
Q 21.96875 47.46875 24.109375 47.828125 
Q 26.265625 48.1875 28.421875 48.1875 
Q 40.625 48.1875 47.75 41.5 
Q 54.890625 34.8125 54.890625 23.390625 
Q 54.890625 11.625 47.5625 5.09375 
Q 40.234375 -1.421875 26.90625 -1.421875 
Q 22.3125 -1.421875 17.546875 -0.640625 
Q 12.796875 0.140625 7.71875 1.703125 
L 7.71875 11.625 
Q 12.109375 9.234375 16.796875 8.0625 
Q 21.484375 6.890625 26.703125 6.890625 
Q 35.15625 6.890625 40.078125 11.328125 
Q 45.015625 15.765625 45.015625 23.390625 
Q 45.015625 31 40.078125 35.4375 
Q 35.15625 39.890625 26.703125 39.890625 
Q 22.75 39.890625 18.8125 39.015625 
Q 14.890625 38.140625 10.796875 36.28125 
z
" id="DejaVuSans-53"/>
      </defs>
      <g transform="translate(381.969497 387.756875)scale(0.2 -0.2)">
       <use xlink:href="#DejaVuSans-53"/>
       <use x="63.623047" xlink:href="#DejaVuSans-48"/>
      </g>
     </g>
    </g>
    <g id="xtick_7">
     <g id="line2d_7">
      <g>
       <use style="stroke:#000000;stroke-width:0.8;" x="455.531328" xlink:href="#ma23ad5562c" y="365.56"/>
      </g>
     </g>
     <g id="text_7">
      <!-- 60 -->
      <defs>
       <path d="M 33.015625 40.375 
Q 26.375 40.375 22.484375 35.828125 
Q 18.609375 31.296875 18.609375 23.390625 
Q 18.609375 15.53125 22.484375 10.953125 
Q 26.375 6.390625 33.015625 6.390625 
Q 39.65625 6.390625 43.53125 10.953125 
Q 47.40625 15.53125 47.40625 23.390625 
Q 47.40625 31.296875 43.53125 35.828125 
Q 39.65625 40.375 33.015625 40.375 
z
M 52.59375 71.296875 
L 52.59375 62.3125 
Q 48.875 64.0625 45.09375 64.984375 
Q 41.3125 65.921875 37.59375 65.921875 
Q 27.828125 65.921875 22.671875 59.328125 
Q 17.53125 52.734375 16.796875 39.40625 
Q 19.671875 43.65625 24.015625 45.921875 
Q 28.375 48.1875 33.59375 48.1875 
Q 44.578125 48.1875 50.953125 41.515625 
Q 57.328125 34.859375 57.328125 23.390625 
Q 57.328125 12.15625 50.6875 5.359375 
Q 44.046875 -1.421875 33.015625 -1.421875 
Q 20.359375 -1.421875 13.671875 8.265625 
Q 6.984375 17.96875 6.984375 36.375 
Q 6.984375 53.65625 15.1875 63.9375 
Q 23.390625 74.21875 37.203125 74.21875 
Q 40.921875 74.21875 44.703125 73.484375 
Q 48.484375 72.75 52.59375 71.296875 
z
" id="DejaVuSans-54"/>
      </defs>
      <g transform="translate(442.806328 387.756875)scale(0.2 -0.2)">
       <use xlink:href="#DejaVuSans-54"/>
       <use x="63.623047" xlink:href="#DejaVuSans-48"/>
      </g>
     </g>
    </g>
    <g id="xtick_8">
     <g id="line2d_8">
      <g>
       <use style="stroke:#000000;stroke-width:0.8;" x="516.36816" xlink:href="#ma23ad5562c" y="365.56"/>
      </g>
     </g>
     <g id="text_8">
      <!-- 70 -->
      <defs>
       <path d="M 8.203125 72.90625 
L 55.078125 72.90625 
L 55.078125 68.703125 
L 28.609375 0 
L 18.3125 0 
L 43.21875 64.59375 
L 8.203125 64.59375 
z
" id="DejaVuSans-55"/>
      </defs>
      <g transform="translate(503.64316 387.756875)scale(0.2 -0.2)">
       <use xlink:href="#DejaVuSans-55"/>
       <use x="63.623047" xlink:href="#DejaVuSans-48"/>
      </g>
     </g>
    </g>
    <g id="text_9">
     <!-- # of games -->
     <defs>
      <path d="M 51.125 44 
L 36.921875 44 
L 32.8125 27.6875 
L 47.125 27.6875 
z
M 43.796875 71.78125 
L 38.71875 51.515625 
L 52.984375 51.515625 
L 58.109375 71.78125 
L 65.921875 71.78125 
L 60.890625 51.515625 
L 76.125 51.515625 
L 76.125 44 
L 58.984375 44 
L 54.984375 27.6875 
L 70.515625 27.6875 
L 70.515625 20.21875 
L 53.078125 20.21875 
L 48 0 
L 40.1875 0 
L 45.21875 20.21875 
L 30.90625 20.21875 
L 25.875 0 
L 18.015625 0 
L 23.09375 20.21875 
L 7.71875 20.21875 
L 7.71875 27.6875 
L 24.90625 27.6875 
L 29 44 
L 13.28125 44 
L 13.28125 51.515625 
L 30.90625 51.515625 
L 35.890625 71.78125 
z
" id="DejaVuSans-35"/>
      <path id="DejaVuSans-32"/>
      <path d="M 30.609375 48.390625 
Q 23.390625 48.390625 19.1875 42.75 
Q 14.984375 37.109375 14.984375 27.296875 
Q 14.984375 17.484375 19.15625 11.84375 
Q 23.34375 6.203125 30.609375 6.203125 
Q 37.796875 6.203125 41.984375 11.859375 
Q 46.1875 17.53125 46.1875 27.296875 
Q 46.1875 37.015625 41.984375 42.703125 
Q 37.796875 48.390625 30.609375 48.390625 
z
M 30.609375 56 
Q 42.328125 56 49.015625 48.375 
Q 55.71875 40.765625 55.71875 27.296875 
Q 55.71875 13.875 49.015625 6.21875 
Q 42.328125 -1.421875 30.609375 -1.421875 
Q 18.84375 -1.421875 12.171875 6.21875 
Q 5.515625 13.875 5.515625 27.296875 
Q 5.515625 40.765625 12.171875 48.375 
Q 18.84375 56 30.609375 56 
z
" id="DejaVuSans-111"/>
      <path d="M 37.109375 75.984375 
L 37.109375 68.5 
L 28.515625 68.5 
Q 23.6875 68.5 21.796875 66.546875 
Q 19.921875 64.59375 19.921875 59.515625 
L 19.921875 54.6875 
L 34.71875 54.6875 
L 34.71875 47.703125 
L 19.921875 47.703125 
L 19.921875 0 
L 10.890625 0 
L 10.890625 47.703125 
L 2.296875 47.703125 
L 2.296875 54.6875 
L 10.890625 54.6875 
L 10.890625 58.5 
Q 10.890625 67.625 15.140625 71.796875 
Q 19.390625 75.984375 28.609375 75.984375 
z
" id="DejaVuSans-102"/>
      <path d="M 45.40625 27.984375 
Q 45.40625 37.75 41.375 43.109375 
Q 37.359375 48.484375 30.078125 48.484375 
Q 22.859375 48.484375 18.828125 43.109375 
Q 14.796875 37.75 14.796875 27.984375 
Q 14.796875 18.265625 18.828125 12.890625 
Q 22.859375 7.515625 30.078125 7.515625 
Q 37.359375 7.515625 41.375 12.890625 
Q 45.40625 18.265625 45.40625 27.984375 
z
M 54.390625 6.78125 
Q 54.390625 -7.171875 48.1875 -13.984375 
Q 42 -20.796875 29.203125 -20.796875 
Q 24.46875 -20.796875 20.265625 -20.09375 
Q 16.0625 -19.390625 12.109375 -17.921875 
L 12.109375 -9.1875 
Q 16.0625 -11.328125 19.921875 -12.34375 
Q 23.78125 -13.375 27.78125 -13.375 
Q 36.625 -13.375 41.015625 -8.765625 
Q 45.40625 -4.15625 45.40625 5.171875 
L 45.40625 9.625 
Q 42.625 4.78125 38.28125 2.390625 
Q 33.9375 0 27.875 0 
Q 17.828125 0 11.671875 7.65625 
Q 5.515625 15.328125 5.515625 27.984375 
Q 5.515625 40.671875 11.671875 48.328125 
Q 17.828125 56 27.875 56 
Q 33.9375 56 38.28125 53.609375 
Q 42.625 51.21875 45.40625 46.390625 
L 45.40625 54.6875 
L 54.390625 54.6875 
z
" id="DejaVuSans-103"/>
      <path d="M 34.28125 27.484375 
Q 23.390625 27.484375 19.1875 25 
Q 14.984375 22.515625 14.984375 16.5 
Q 14.984375 11.71875 18.140625 8.90625 
Q 21.296875 6.109375 26.703125 6.109375 
Q 34.1875 6.109375 38.703125 11.40625 
Q 43.21875 16.703125 43.21875 25.484375 
L 43.21875 27.484375 
z
M 52.203125 31.203125 
L 52.203125 0 
L 43.21875 0 
L 43.21875 8.296875 
Q 40.140625 3.328125 35.546875 0.953125 
Q 30.953125 -1.421875 24.3125 -1.421875 
Q 15.921875 -1.421875 10.953125 3.296875 
Q 6 8.015625 6 15.921875 
Q 6 25.140625 12.171875 29.828125 
Q 18.359375 34.515625 30.609375 34.515625 
L 43.21875 34.515625 
L 43.21875 35.40625 
Q 43.21875 41.609375 39.140625 45 
Q 35.0625 48.390625 27.6875 48.390625 
Q 23 48.390625 18.546875 47.265625 
Q 14.109375 46.140625 10.015625 43.890625 
L 10.015625 52.203125 
Q 14.9375 54.109375 19.578125 55.046875 
Q 24.21875 56 28.609375 56 
Q 40.484375 56 46.34375 49.84375 
Q 52.203125 43.703125 52.203125 31.203125 
z
" id="DejaVuSans-97"/>
      <path d="M 52 44.1875 
Q 55.375 50.25 60.0625 53.125 
Q 64.75 56 71.09375 56 
Q 79.640625 56 84.28125 50.015625 
Q 88.921875 44.046875 88.921875 33.015625 
L 88.921875 0 
L 79.890625 0 
L 79.890625 32.71875 
Q 79.890625 40.578125 77.09375 44.375 
Q 74.3125 48.1875 68.609375 48.1875 
Q 61.625 48.1875 57.5625 43.546875 
Q 53.515625 38.921875 53.515625 30.90625 
L 53.515625 0 
L 44.484375 0 
L 44.484375 32.71875 
Q 44.484375 40.625 41.703125 44.40625 
Q 38.921875 48.1875 33.109375 48.1875 
Q 26.21875 48.1875 22.15625 43.53125 
Q 18.109375 38.875 18.109375 30.90625 
L 18.109375 0 
L 9.078125 0 
L 9.078125 54.6875 
L 18.109375 54.6875 
L 18.109375 46.1875 
Q 21.1875 51.21875 25.484375 53.609375 
Q 29.78125 56 35.6875 56 
Q 41.65625 56 45.828125 52.96875 
Q 50 49.953125 52 44.1875 
z
" id="DejaVuSans-109"/>
      <path d="M 56.203125 29.59375 
L 56.203125 25.203125 
L 14.890625 25.203125 
Q 15.484375 15.921875 20.484375 11.0625 
Q 25.484375 6.203125 34.421875 6.203125 
Q 39.59375 6.203125 44.453125 7.46875 
Q 49.3125 8.734375 54.109375 11.28125 
L 54.109375 2.78125 
Q 49.265625 0.734375 44.1875 -0.34375 
Q 39.109375 -1.421875 33.890625 -1.421875 
Q 20.796875 -1.421875 13.15625 6.1875 
Q 5.515625 13.8125 5.515625 26.8125 
Q 5.515625 40.234375 12.765625 48.109375 
Q 20.015625 56 32.328125 56 
Q 43.359375 56 49.78125 48.890625 
Q 56.203125 41.796875 56.203125 29.59375 
z
M 47.21875 32.234375 
Q 47.125 39.59375 43.09375 43.984375 
Q 39.0625 48.390625 32.421875 48.390625 
Q 24.90625 48.390625 20.390625 44.140625 
Q 15.875 39.890625 15.1875 32.171875 
z
" id="DejaVuSans-101"/>
      <path d="M 44.28125 53.078125 
L 44.28125 44.578125 
Q 40.484375 46.53125 36.375 47.5 
Q 32.28125 48.484375 27.875 48.484375 
Q 21.1875 48.484375 17.84375 46.4375 
Q 14.5 44.390625 14.5 40.28125 
Q 14.5 37.15625 16.890625 35.375 
Q 19.28125 33.59375 26.515625 31.984375 
L 29.59375 31.296875 
Q 39.15625 29.25 43.1875 25.515625 
Q 47.21875 21.78125 47.21875 15.09375 
Q 47.21875 7.46875 41.1875 3.015625 
Q 35.15625 -1.421875 24.609375 -1.421875 
Q 20.21875 -1.421875 15.453125 -0.5625 
Q 10.6875 0.296875 5.421875 2 
L 5.421875 11.28125 
Q 10.40625 8.6875 15.234375 7.390625 
Q 20.0625 6.109375 24.8125 6.109375 
Q 31.15625 6.109375 34.5625 8.28125 
Q 37.984375 10.453125 37.984375 14.40625 
Q 37.984375 18.0625 35.515625 20.015625 
Q 33.0625 21.96875 24.703125 23.78125 
L 21.578125 24.515625 
Q 13.234375 26.265625 9.515625 29.90625 
Q 5.8125 33.546875 5.8125 39.890625 
Q 5.8125 47.609375 11.28125 51.796875 
Q 16.75 56 26.8125 56 
Q 31.78125 56 36.171875 55.265625 
Q 40.578125 54.546875 44.28125 53.078125 
z
" id="DejaVuSans-115"/>
     </defs>
     <g transform="translate(221.870365 414.912344)scale(0.25 -0.25)">
      <use xlink:href="#DejaVuSans-35"/>
      <use x="83.789062" xlink:href="#DejaVuSans-32"/>
      <use x="115.576172" xlink:href="#DejaVuSans-111"/>
      <use x="176.757812" xlink:href="#DejaVuSans-102"/>
      <use x="211.962891" xlink:href="#DejaVuSans-32"/>
      <use x="243.75" xlink:href="#DejaVuSans-103"/>
      <use x="307.226562" xlink:href="#DejaVuSans-97"/>
      <use x="368.505859" xlink:href="#DejaVuSans-109"/>
      <use x="465.917969" xlink:href="#DejaVuSans-101"/>
      <use x="527.441406" xlink:href="#DejaVuSans-115"/>
     </g>
    </g>
   </g>
   <g id="matplotlib.axis_2">
    <g id="ytick_1">
     <g id="line2d_9">
      <defs>
       <path d="M 0 0 
L -3.5 0 
" id="mc04982eda2" style="stroke:#000000;stroke-width:0.8;"/>
      </defs>
      <g>
       <use style="stroke:#000000;stroke-width:0.8;" x="70.13" xlink:href="#mc04982eda2" y="352.966364"/>
      </g>
     </g>
     <g id="text_10">
      <!-- 0.0 -->
      <defs>
       <path d="M 10.6875 12.40625 
L 21 12.40625 
L 21 0 
L 10.6875 0 
z
" id="DejaVuSans-46"/>
      </defs>
      <g transform="translate(31.32375 360.564801)scale(0.2 -0.2)">
       <use xlink:href="#DejaVuSans-48"/>
       <use x="63.623047" xlink:href="#DejaVuSans-46"/>
       <use x="95.410156" xlink:href="#DejaVuSans-48"/>
      </g>
     </g>
    </g>
    <g id="ytick_2">
     <g id="line2d_10">
      <g>
       <use style="stroke:#000000;stroke-width:0.8;" x="70.13" xlink:href="#mc04982eda2" y="306.19"/>
      </g>
     </g>
     <g id="text_11">
      <!-- 0.1 -->
      <g transform="translate(31.32375 313.788437)scale(0.2 -0.2)">
       <use xlink:href="#DejaVuSans-48"/>
       <use x="63.623047" xlink:href="#DejaVuSans-46"/>
       <use x="95.410156" xlink:href="#DejaVuSans-49"/>
      </g>
     </g>
    </g>
    <g id="ytick_3">
     <g id="line2d_11">
      <g>
       <use style="stroke:#000000;stroke-width:0.8;" x="70.13" xlink:href="#mc04982eda2" y="259.413636"/>
      </g>
     </g>
     <g id="text_12">
      <!-- 0.2 -->
      <g transform="translate(31.32375 267.012074)scale(0.2 -0.2)">
       <use xlink:href="#DejaVuSans-48"/>
       <use x="63.623047" xlink:href="#DejaVuSans-46"/>
       <use x="95.410156" xlink:href="#DejaVuSans-50"/>
      </g>
     </g>
    </g>
    <g id="ytick_4">
     <g id="line2d_12">
      <g>
       <use style="stroke:#000000;stroke-width:0.8;" x="70.13" xlink:href="#mc04982eda2" y="212.637273"/>
      </g>
     </g>
     <g id="text_13">
      <!-- 0.3 -->
      <g transform="translate(31.32375 220.23571)scale(0.2 -0.2)">
       <use xlink:href="#DejaVuSans-48"/>
       <use x="63.623047" xlink:href="#DejaVuSans-46"/>
       <use x="95.410156" xlink:href="#DejaVuSans-51"/>
      </g>
     </g>
    </g>
    <g id="ytick_5">
     <g id="line2d_13">
      <g>
       <use style="stroke:#000000;stroke-width:0.8;" x="70.13" xlink:href="#mc04982eda2" y="165.860909"/>
      </g>
     </g>
     <g id="text_14">
      <!-- 0.4 -->
      <g transform="translate(31.32375 173.459347)scale(0.2 -0.2)">
       <use xlink:href="#DejaVuSans-48"/>
       <use x="63.623047" xlink:href="#DejaVuSans-46"/>
       <use x="95.410156" xlink:href="#DejaVuSans-52"/>
      </g>
     </g>
    </g>
    <g id="ytick_6">
     <g id="line2d_14">
      <g>
       <use style="stroke:#000000;stroke-width:0.8;" x="70.13" xlink:href="#mc04982eda2" y="119.084545"/>
      </g>
     </g>
     <g id="text_15">
      <!-- 0.5 -->
      <g transform="translate(31.32375 126.682983)scale(0.2 -0.2)">
       <use xlink:href="#DejaVuSans-48"/>
       <use x="63.623047" xlink:href="#DejaVuSans-46"/>
       <use x="95.410156" xlink:href="#DejaVuSans-53"/>
      </g>
     </g>
    </g>
    <g id="text_16">
     <!-- Percentage of Att strategy used -->
     <defs>
      <path d="M 19.671875 64.796875 
L 19.671875 37.40625 
L 32.078125 37.40625 
Q 38.96875 37.40625 42.71875 40.96875 
Q 46.484375 44.53125 46.484375 51.125 
Q 46.484375 57.671875 42.71875 61.234375 
Q 38.96875 64.796875 32.078125 64.796875 
z
M 9.8125 72.90625 
L 32.078125 72.90625 
Q 44.34375 72.90625 50.609375 67.359375 
Q 56.890625 61.8125 56.890625 51.125 
Q 56.890625 40.328125 50.609375 34.8125 
Q 44.34375 29.296875 32.078125 29.296875 
L 19.671875 29.296875 
L 19.671875 0 
L 9.8125 0 
z
" id="DejaVuSans-80"/>
      <path d="M 41.109375 46.296875 
Q 39.59375 47.171875 37.8125 47.578125 
Q 36.03125 48 33.890625 48 
Q 26.265625 48 22.1875 43.046875 
Q 18.109375 38.09375 18.109375 28.8125 
L 18.109375 0 
L 9.078125 0 
L 9.078125 54.6875 
L 18.109375 54.6875 
L 18.109375 46.1875 
Q 20.953125 51.171875 25.484375 53.578125 
Q 30.03125 56 36.53125 56 
Q 37.453125 56 38.578125 55.875 
Q 39.703125 55.765625 41.0625 55.515625 
z
" id="DejaVuSans-114"/>
      <path d="M 48.78125 52.59375 
L 48.78125 44.1875 
Q 44.96875 46.296875 41.140625 47.34375 
Q 37.3125 48.390625 33.40625 48.390625 
Q 24.65625 48.390625 19.8125 42.84375 
Q 14.984375 37.3125 14.984375 27.296875 
Q 14.984375 17.28125 19.8125 11.734375 
Q 24.65625 6.203125 33.40625 6.203125 
Q 37.3125 6.203125 41.140625 7.25 
Q 44.96875 8.296875 48.78125 10.40625 
L 48.78125 2.09375 
Q 45.015625 0.34375 40.984375 -0.53125 
Q 36.96875 -1.421875 32.421875 -1.421875 
Q 20.0625 -1.421875 12.78125 6.34375 
Q 5.515625 14.109375 5.515625 27.296875 
Q 5.515625 40.671875 12.859375 48.328125 
Q 20.21875 56 33.015625 56 
Q 37.15625 56 41.109375 55.140625 
Q 45.0625 54.296875 48.78125 52.59375 
z
" id="DejaVuSans-99"/>
      <path d="M 54.890625 33.015625 
L 54.890625 0 
L 45.90625 0 
L 45.90625 32.71875 
Q 45.90625 40.484375 42.875 44.328125 
Q 39.84375 48.1875 33.796875 48.1875 
Q 26.515625 48.1875 22.3125 43.546875 
Q 18.109375 38.921875 18.109375 30.90625 
L 18.109375 0 
L 9.078125 0 
L 9.078125 54.6875 
L 18.109375 54.6875 
L 18.109375 46.1875 
Q 21.34375 51.125 25.703125 53.5625 
Q 30.078125 56 35.796875 56 
Q 45.21875 56 50.046875 50.171875 
Q 54.890625 44.34375 54.890625 33.015625 
z
" id="DejaVuSans-110"/>
      <path d="M 18.3125 70.21875 
L 18.3125 54.6875 
L 36.8125 54.6875 
L 36.8125 47.703125 
L 18.3125 47.703125 
L 18.3125 18.015625 
Q 18.3125 11.328125 20.140625 9.421875 
Q 21.96875 7.515625 27.59375 7.515625 
L 36.8125 7.515625 
L 36.8125 0 
L 27.59375 0 
Q 17.1875 0 13.234375 3.875 
Q 9.28125 7.765625 9.28125 18.015625 
L 9.28125 47.703125 
L 2.6875 47.703125 
L 2.6875 54.6875 
L 9.28125 54.6875 
L 9.28125 70.21875 
z
" id="DejaVuSans-116"/>
      <path d="M 34.1875 63.1875 
L 20.796875 26.90625 
L 47.609375 26.90625 
z
M 28.609375 72.90625 
L 39.796875 72.90625 
L 67.578125 0 
L 57.328125 0 
L 50.6875 18.703125 
L 17.828125 18.703125 
L 11.1875 0 
L 0.78125 0 
z
" id="DejaVuSans-65"/>
      <path d="M 32.171875 -5.078125 
Q 28.375 -14.84375 24.75 -17.8125 
Q 21.140625 -20.796875 15.09375 -20.796875 
L 7.90625 -20.796875 
L 7.90625 -13.28125 
L 13.1875 -13.28125 
Q 16.890625 -13.28125 18.9375 -11.515625 
Q 21 -9.765625 23.484375 -3.21875 
L 25.09375 0.875 
L 2.984375 54.6875 
L 12.5 54.6875 
L 29.59375 11.921875 
L 46.6875 54.6875 
L 56.203125 54.6875 
z
" id="DejaVuSans-121"/>
      <path d="M 8.5 21.578125 
L 8.5 54.6875 
L 17.484375 54.6875 
L 17.484375 21.921875 
Q 17.484375 14.15625 20.5 10.265625 
Q 23.53125 6.390625 29.59375 6.390625 
Q 36.859375 6.390625 41.078125 11.03125 
Q 45.3125 15.671875 45.3125 23.6875 
L 45.3125 54.6875 
L 54.296875 54.6875 
L 54.296875 0 
L 45.3125 0 
L 45.3125 8.40625 
Q 42.046875 3.421875 37.71875 1 
Q 33.40625 -1.421875 27.6875 -1.421875 
Q 18.265625 -1.421875 13.375 4.4375 
Q 8.5 10.296875 8.5 21.578125 
z
M 31.109375 56 
z
" id="DejaVuSans-117"/>
      <path d="M 45.40625 46.390625 
L 45.40625 75.984375 
L 54.390625 75.984375 
L 54.390625 0 
L 45.40625 0 
L 45.40625 8.203125 
Q 42.578125 3.328125 38.25 0.953125 
Q 33.9375 -1.421875 27.875 -1.421875 
Q 17.96875 -1.421875 11.734375 6.484375 
Q 5.515625 14.40625 5.515625 27.296875 
Q 5.515625 40.1875 11.734375 48.09375 
Q 17.96875 56 27.875 56 
Q 33.9375 56 38.25 53.625 
Q 42.578125 51.265625 45.40625 46.390625 
z
M 14.796875 27.296875 
Q 14.796875 17.390625 18.875 11.75 
Q 22.953125 6.109375 30.078125 6.109375 
Q 37.203125 6.109375 41.296875 11.75 
Q 45.40625 17.390625 45.40625 27.296875 
Q 45.40625 37.203125 41.296875 42.84375 
Q 37.203125 48.484375 30.078125 48.484375 
Q 22.953125 48.484375 18.875 42.84375 
Q 14.796875 37.203125 14.796875 27.296875 
z
" id="DejaVuSans-100"/>
     </defs>
     <g transform="translate(23.857604 360.041719)rotate(-90)scale(0.166667 -0.166667)">
      <use xlink:href="#DejaVuSans-80"/>
      <use x="60.255859" xlink:href="#DejaVuSans-101"/>
      <use x="121.779297" xlink:href="#DejaVuSans-114"/>
      <use x="162.861328" xlink:href="#DejaVuSans-99"/>
      <use x="217.841797" xlink:href="#DejaVuSans-101"/>
      <use x="279.365234" xlink:href="#DejaVuSans-110"/>
      <use x="342.744141" xlink:href="#DejaVuSans-116"/>
      <use x="381.953125" xlink:href="#DejaVuSans-97"/>
      <use x="443.232422" xlink:href="#DejaVuSans-103"/>
      <use x="506.708984" xlink:href="#DejaVuSans-101"/>
      <use x="568.232422" xlink:href="#DejaVuSans-32"/>
      <use x="600.019531" xlink:href="#DejaVuSans-111"/>
      <use x="661.201172" xlink:href="#DejaVuSans-102"/>
      <use x="696.40625" xlink:href="#DejaVuSans-32"/>
      <use x="728.193359" xlink:href="#DejaVuSans-65"/>
      <use x="796.585938" xlink:href="#DejaVuSans-116"/>
      <use x="835.794922" xlink:href="#DejaVuSans-116"/>
      <use x="875.003906" xlink:href="#DejaVuSans-32"/>
      <use x="906.791016" xlink:href="#DejaVuSans-115"/>
      <use x="958.890625" xlink:href="#DejaVuSans-116"/>
      <use x="998.099609" xlink:href="#DejaVuSans-114"/>
      <use x="1039.212891" xlink:href="#DejaVuSans-97"/>
      <use x="1100.492188" xlink:href="#DejaVuSans-116"/>
      <use x="1139.701172" xlink:href="#DejaVuSans-101"/>
      <use x="1201.224609" xlink:href="#DejaVuSans-103"/>
      <use x="1264.701172" xlink:href="#DejaVuSans-121"/>
      <use x="1323.880859" xlink:href="#DejaVuSans-32"/>
      <use x="1355.667969" xlink:href="#DejaVuSans-117"/>
      <use x="1419.046875" xlink:href="#DejaVuSans-115"/>
      <use x="1471.146484" xlink:href="#DejaVuSans-101"/>
      <use x="1532.669922" xlink:href="#DejaVuSans-100"/>
     </g>
    </g>
   </g>
   <g id="line2d_15">
    <path clip-path="url(#pc89e8538dc)" d="M 90.510339 119.084545 
L 96.594022 119.084545 
L 102.677705 136.350988 
L 108.761388 104.90989 
L 114.845071 171.163493 
L 120.928754 132.47172 
L 127.012438 181.272775 
L 133.096121 182.870496 
L 139.179804 175.575188 
L 145.263487 175.407106 
L 151.34717 145.16802 
L 157.430853 170.171359 
L 163.514537 183.004853 
L 169.59822 185.121765 
L 175.681903 174.647629 
L 181.765586 172.916902 
L 187.849269 188.616978 
L 193.932952 193.414856 
L 200.016636 185.316565 
L 206.100319 191.957196 
L 212.184002 195.314442 
L 218.267685 193.573527 
L 224.351368 200.519719 
L 230.435051 185.490276 
L 236.518735 196.778163 
L 242.602418 201.551545 
L 248.686101 202.171671 
L 254.769784 200.544931 
L 260.853467 208.308083 
L 266.93715 198.522539 
L 273.020833 199.248985 
L 279.104517 193.391588 
L 285.1882 213.045115 
L 291.271883 211.652841 
L 297.355566 199.007074 
L 303.439249 191.606039 
L 309.522932 195.435642 
L 315.606616 205.282499 
L 321.690299 204.816619 
L 327.773982 208.759439 
L 333.857665 201.595381 
L 339.941348 210.617457 
L 346.025031 200.556396 
L 352.108715 196.445455 
L 358.192398 203.819075 
L 364.276081 208.977213 
L 370.359764 195.207458 
L 376.443447 195.114239 
L 382.52713 211.496386 
L 388.610814 207.884594 
L 394.694497 211.177683 
L 400.77818 211.41865 
L 406.861863 224.359816 
L 412.945546 213.482629 
L 419.029229 200.782989 
L 425.112913 209.644845 
L 431.196596 190.758006 
L 437.280279 207.230959 
L 443.363962 184.571455 
L 449.447645 197.045152 
L 455.531328 155.066364 
L 461.615012 202.928971 
L 467.698695 179.720572 
L 473.782378 195.627686 
L 479.866061 168.435755 
L 485.949744 179.720572 
L 492.033427 216.889669 
L 498.117111 225.394463 
" style="fill:none;stroke:#1f77b4;stroke-linecap:square;stroke-width:1.5;"/>
   </g>
   <g id="line2d_16">
    <path clip-path="url(#pc89e8538dc)" d="M 90.510339 352.966364 
L 96.594022 348.288727 
L 102.677705 334.130244 
L 108.761388 310.442397 
L 114.845071 320.772105 
L 120.928754 323.042091 
L 127.012438 309.704987 
L 133.096121 305.717511 
L 139.179804 305.45087 
L 145.263487 314.781577 
L 151.34717 308.624458 
L 157.430853 295.493698 
L 163.514537 296.805169 
L 169.59822 290.368583 
L 175.681903 296.111115 
L 181.765586 298.82987 
L 187.849269 302.97197 
L 193.932952 288.16558 
L 200.016636 287.76922 
L 206.100319 285.017541 
L 212.184002 287.828743 
L 218.267685 287.307383 
L 224.351368 278.263165 
L 230.435051 286.978279 
L 236.518735 290.891566 
L 242.602418 284.9842 
L 248.686101 282.820574 
L 254.769784 285.987824 
L 260.853467 282.57304 
L 266.93715 286.824858 
L 273.020833 288.834812 
L 279.104517 289.7812 
L 285.1882 278.613592 
L 291.271883 285.643967 
L 297.355566 288.532697 
L 303.439249 286.7905 
L 309.522932 285.668757 
L 315.606616 277.359285 
L 321.690299 283.613395 
L 327.773982 283.589503 
L 333.857665 280.162685 
L 339.941348 273.776769 
L 346.025031 285.813808 
L 352.108715 284.600909 
L 358.192398 289.097939 
L 364.276081 278.156358 
L 370.359764 277.055492 
L 376.443447 294.55625 
L 382.52713 282.801818 
L 388.610814 281.676184 
L 394.694497 275.121598 
L 400.77818 286.410816 
L 406.861863 280.127257 
L 412.945546 276.884326 
L 419.029229 285.685293 
L 425.112913 278.943162 
L 431.196596 266.203754 
L 437.280279 282.449233 
L 443.363962 282.801818 
L 449.447645 293.34943 
L 455.531328 289.998182 
L 461.615012 273.534803 
L 467.698695 300.992626 
L 473.782378 280.67562 
L 479.866061 301.46945 
L 485.949744 275.005758 
L 492.033427 276.423223 
L 498.117111 276.423223 
" style="fill:none;stroke:#ff7f0e;stroke-linecap:square;stroke-width:1.5;"/>
   </g>
   <g id="line2d_17">
    <path clip-path="url(#pc89e8538dc)" d="M 90.510339 352.966364 
L 96.594022 352.966364 
L 102.677705 352.966364 
L 108.761388 352.966364 
L 114.845071 352.966364 
L 120.928754 351.391402 
L 127.012438 350.262528 
L 133.096121 350.603921 
L 139.179804 351.910464 
L 145.263487 350.102505 
L 151.34717 348.619118 
L 157.430853 349.773438 
L 163.514537 349.271548 
L 169.59822 348.839037 
L 175.681903 345.859458 
L 181.765586 348.100162 
L 187.849269 344.921289 
L 193.932952 346.976375 
L 200.016636 345.204799 
L 206.100319 346.073005 
L 212.184002 345.414176 
L 218.267685 347.985337 
L 224.351368 343.411303 
L 230.435051 346.701672 
L 236.518735 347.359608 
L 242.602418 344.854855 
L 248.686101 345.089029 
L 254.769784 346.449533 
L 260.853467 342.759332 
L 266.93715 346.147652 
L 273.020833 345.693713 
L 279.104517 343.617538 
L 285.1882 343.868345 
L 291.271883 343.757168 
L 297.355566 343.053492 
L 303.439249 342.692485 
L 309.522932 345.421789 
L 315.606616 342.375489 
L 321.690299 345.883507 
L 327.773982 341.15109 
L 333.857665 345.079298 
L 339.941348 345.913039 
L 346.025031 344.736884 
L 352.108715 344.330727 
L 358.192398 345.345699 
L 364.276081 344.520073 
L 370.359764 343.212453 
L 376.443447 345.72544 
L 382.52713 345.550599 
L 388.610814 341.710019 
L 394.694497 341.845683 
L 400.77818 345.467147 
L 406.861863 346.137697 
L 412.945546 345.921731 
L 419.029229 341.752852 
L 425.112913 345.091555 
L 431.196596 343.535645 
L 437.280279 343.564079 
L 443.363962 348.288727 
L 449.447645 334.622692 
L 455.531328 343.970909 
L 461.615012 344.140635 
L 467.698695 352.966364 
L 473.782378 348.713967 
L 479.866061 344.383545 
L 485.949744 344.304074 
L 492.033427 352.966364 
L 498.117111 344.46157 
" style="fill:none;stroke:#2ca02c;stroke-linecap:square;stroke-width:1.5;"/>
   </g>
   <g id="line2d_18">
    <path clip-path="url(#pc89e8538dc)" d="M 90.510339 352.966364 
L 96.594022 352.966364 
L 102.677705 352.966364 
L 108.761388 350.603921 
L 114.845071 352.966364 
L 120.928754 351.391402 
L 127.012438 351.614446 
L 133.096121 351.785142 
L 139.179804 348.742764 
L 145.263487 352.011744 
L 151.34717 350.358016 
L 157.430853 349.773438 
L 163.514537 351.488437 
L 169.59822 346.087487 
L 175.681903 349.735952 
L 181.765586 345.667061 
L 187.849269 347.79453 
L 193.932952 347.52092 
L 200.016636 349.3443 
L 206.100319 348.042536 
L 212.184002 344.470152 
L 218.267685 347.532517 
L 224.351368 345.582908 
L 230.435051 344.613442 
L 236.518735 345.757677 
L 242.602418 347.172429 
L 248.686101 344.713918 
L 254.769784 346.449533 
L 260.853467 345.927031 
L 266.93715 344.102038 
L 273.020833 345.693713 
L 279.104517 343.295165 
L 285.1882 343.868345 
L 291.271883 344.074726 
L 297.355566 346.770819 
L 303.439249 346.016387 
L 309.522932 345.120006 
L 315.606616 344.140635 
L 321.690299 343.522555 
L 327.773982 343.574736 
L 333.857665 344.169252 
L 339.941348 343.027589 
L 346.025031 345.066063 
L 352.108715 344.690545 
L 358.192398 345.345699 
L 364.276081 341.704642 
L 370.359764 342.364287 
L 376.443447 345.242712 
L 382.52713 348.402816 
L 388.610814 347.963544 
L 394.694497 344.625853 
L 400.77818 341.717539 
L 406.861863 344.999586 
L 412.945546 345.921731 
L 419.029229 341.752852 
L 425.112913 348.241478 
L 431.196596 339.763358 
L 437.280279 350.615793 
L 443.363962 334.255818 
L 449.447645 343.794528 
L 455.531328 352.966364 
L 461.615012 344.140635 
L 467.698695 344.304074 
L 473.782378 335.956777 
L 479.866061 352.966364 
L 485.949744 344.304074 
L 492.033427 352.966364 
L 498.117111 352.966364 
" style="fill:none;stroke:#d62728;stroke-linecap:square;stroke-width:1.5;"/>
   </g>
   <g id="line2d_19">
    <path clip-path="url(#pc89e8538dc)" d="M 90.510339 352.966364 
L 96.594022 352.966364 
L 102.677705 352.966364 
L 108.761388 352.966364 
L 114.845071 351.072584 
L 120.928754 348.241478 
L 127.012438 350.262528 
L 133.096121 349.4227 
L 139.179804 349.798664 
L 145.263487 346.284026 
L 151.34717 350.358016 
L 157.430853 349.773438 
L 163.514537 343.359843 
L 169.59822 349.526925 
L 175.681903 347.151622 
L 181.765586 342.625685 
L 187.849269 345.495937 
L 193.932952 344.798198 
L 200.016636 346.239674 
L 206.100319 341.149177 
L 212.184002 340.694058 
L 218.267685 340.740209 
L 224.351368 337.33081 
L 230.435051 340.019334 
L 236.518735 339.750439 
L 242.602418 341.764757 
L 248.686101 338.712139 
L 254.769784 336.674287 
L 260.853467 336.775899 
L 266.93715 334.555842 
L 273.020833 329.164963 
L 279.104517 335.88058 
L 285.1882 332.260529 
L 291.271883 337.405998 
L 297.355566 333.14062 
L 303.439249 333.022953 
L 309.522932 332.746903 
L 315.606616 331.196232 
L 321.690299 325.225176 
L 327.773982 330.244684 
L 333.857665 329.608517 
L 339.941348 334.371236 
L 346.025031 332.886433 
L 352.108715 331.737091 
L 358.192398 329.741482 
L 364.276081 332.856147 
L 370.359764 329.641794 
L 376.443447 331.243594 
L 382.52713 333.000843 
L 388.610814 323.574798 
L 394.694497 333.505172 
L 400.77818 326.719105 
L 406.861863 325.651699 
L 412.945546 337.468171 
L 419.029229 332.14127 
L 425.112913 340.36667 
L 431.196596 335.99107 
L 437.280279 343.564079 
L 443.363962 320.222909 
L 449.447645 339.20861 
L 455.531328 339.473182 
L 461.615012 330.902041 
L 467.698695 335.641785 
L 473.782378 327.451983 
L 479.866061 335.800726 
L 485.949744 344.304074 
L 492.033427 327.451983 
L 498.117111 352.966364 
" style="fill:none;stroke:#9467bd;stroke-linecap:square;stroke-width:1.5;"/>
   </g>
   <g id="line2d_20">
    <path clip-path="url(#pc89e8538dc)" d="M 90.510339 352.966364 
L 96.594022 352.966364 
L 102.677705 352.966364 
L 108.761388 352.966364 
L 114.845071 352.966364 
L 120.928754 351.391402 
L 127.012438 352.966364 
L 133.096121 351.785142 
L 139.179804 352.966364 
L 145.263487 352.966364 
L 151.34717 350.358016 
L 157.430853 352.168132 
L 163.514537 350.749474 
L 169.59822 350.902701 
L 175.681903 352.320281 
L 181.765586 351.141538 
L 187.849269 351.242419 
L 193.932952 350.788186 
L 200.016636 352.448926 
L 206.100319 350.50445 
L 212.184002 351.550328 
L 218.267685 349.343799 
L 224.351368 350.360438 
L 230.435051 349.625195 
L 236.518735 351.364433 
L 242.602418 350.262528 
L 248.686101 349.965474 
L 254.769784 350.432041 
L 260.853467 346.982931 
L 266.93715 349.557008 
L 273.020833 349.330039 
L 279.104517 349.742631 
L 285.1882 349.515391 
L 291.271883 346.297636 
L 297.355566 349.868591 
L 303.439249 348.735943 
L 309.522932 346.025355 
L 315.606616 348.84769 
L 321.690299 348.244459 
L 327.773982 349.330895 
L 333.857665 346.596042 
L 339.941348 350.080913 
L 346.025031 345.724421 
L 352.108715 347.209273 
L 358.192398 351.15192 
L 364.276081 347.737707 
L 370.359764 346.605117 
L 376.443447 350.069994 
L 382.52713 347.261929 
L 388.610814 348.588896 
L 394.694497 346.710981 
L 400.77818 346.404549 
L 406.861863 347.275808 
L 412.945546 351.557437 
L 419.029229 349.762503 
L 425.112913 349.81644 
L 431.196596 352.966364 
L 437.280279 343.564079 
L 443.363962 348.288727 
L 449.447645 348.380446 
L 455.531328 343.970909 
L 461.615012 348.553499 
L 467.698695 344.304074 
L 473.782378 348.713967 
L 479.866061 348.674954 
L 485.949744 352.966364 
L 492.033427 352.966364 
L 498.117111 352.966364 
" style="fill:none;stroke:#8c564b;stroke-linecap:square;stroke-width:1.5;"/>
   </g>
   <g id="line2d_21">
    <path clip-path="url(#pc89e8538dc)" d="M 90.510339 352.966364 
L 96.594022 352.966364 
L 102.677705 352.966364 
L 108.761388 352.966364 
L 114.845071 352.966364 
L 120.928754 352.966364 
L 127.012438 352.966364 
L 133.096121 349.4227 
L 139.179804 346.630964 
L 145.263487 349.147885 
L 151.34717 349.488567 
L 157.430853 346.580512 
L 163.514537 345.576733 
L 169.59822 344.711711 
L 175.681903 344.567293 
L 181.765586 348.708437 
L 187.849269 348.369178 
L 193.932952 345.887286 
L 200.016636 344.687361 
L 206.100319 342.133943 
L 212.184002 344.942164 
L 218.267685 342.09867 
L 224.351368 347.754513 
L 230.435051 342.107565 
L 236.518735 341.352369 
L 242.602418 342.151019 
L 248.686101 342.08814 
L 254.769784 341.742933 
L 260.853467 341.351465 
L 266.93715 345.124845 
L 273.020833 340.735088 
L 279.104517 341.683299 
L 285.1882 341.044822 
L 291.271883 338.993791 
L 297.355566 339.336165 
L 303.439249 339.972929 
L 309.522932 339.084346 
L 315.606616 337.962624 
L 321.690299 338.800651 
L 327.773982 337.212666 
L 333.857665 335.67549 
L 339.941348 335.974264 
L 346.025031 339.470017 
L 352.108715 337.854 
L 358.192398 333.007481 
L 364.276081 339.291416 
L 370.359764 338.971622 
L 376.443447 333.174507 
L 382.52713 335.85306 
L 388.610814 342.335372 
L 394.694497 336.285342 
L 400.77818 344.529745 
L 406.861863 335.894698 
L 412.945546 333.241391 
L 419.029229 340.150922 
L 425.112913 332.491861 
L 431.196596 341.649501 
L 437.280279 334.161795 
L 443.363962 343.611091 
L 449.447645 343.794528 
L 455.531328 334.975455 
L 461.615012 348.553499 
L 467.698695 331.31064 
L 473.782378 344.46157 
L 479.866061 340.092135 
L 485.949744 335.641785 
L 492.033427 318.94719 
L 498.117111 344.46157 
" style="fill:none;stroke:#e377c2;stroke-linecap:square;stroke-width:1.5;"/>
   </g>
   <g id="line2d_22">
    <path clip-path="url(#pc89e8538dc)" d="M 90.510339 352.966364 
L 96.594022 352.966364 
L 102.677705 352.966364 
L 108.761388 352.966364 
L 114.845071 352.966364 
L 120.928754 352.966364 
L 127.012438 352.966364 
L 133.096121 351.785142 
L 139.179804 352.966364 
L 145.263487 352.966364 
L 151.34717 352.966364 
L 157.430853 352.966364 
L 163.514537 352.227401 
L 169.59822 352.278476 
L 175.681903 352.966364 
L 181.765586 352.358088 
L 187.849269 352.966364 
L 193.932952 352.421819 
L 200.016636 352.448926 
L 206.100319 350.996833 
L 212.184002 352.966364 
L 218.267685 351.155081 
L 224.351368 351.22908 
L 230.435051 351.295779 
L 236.518735 351.364433 
L 242.602418 352.193839 
L 248.686101 351.090808 
L 254.769784 350.794087 
L 260.853467 350.854564 
L 266.93715 350.92075 
L 273.020833 350.321764 
L 279.104517 351.032124 
L 285.1882 351.39774 
L 291.271883 350.425896 
L 297.355566 350.797923 
L 303.439249 351.153326 
L 309.522932 349.646751 
L 315.606616 351.495409 
L 321.690299 351.19565 
L 327.773982 349.633851 
L 333.857665 350.842923 
L 339.941348 349.439702 
L 346.025031 350.991288 
L 352.108715 349.008364 
L 358.192398 350.426142 
L 364.276081 350.553138 
L 370.359764 350.421865 
L 376.443447 351.518179 
L 382.52713 347.261929 
L 388.610814 351.090306 
L 394.694497 352.966364 
L 400.77818 350.154157 
L 406.861863 349.552031 
L 412.945546 350.14851 
L 419.029229 346.558643 
L 425.112913 352.966364 
L 431.196596 347.307933 
L 437.280279 345.914651 
L 443.363962 348.288727 
L 449.447645 348.380446 
L 455.531328 352.966364 
L 461.615012 352.966364 
L 467.698695 348.635219 
L 473.782378 352.966364 
L 479.866061 348.674954 
L 485.949744 344.304074 
L 492.033427 352.966364 
L 498.117111 352.966364 
" style="fill:none;stroke:#7f7f7f;stroke-linecap:square;stroke-width:1.5;"/>
   </g>
   <g id="line2d_23">
    <path clip-path="url(#pc89e8538dc)" d="M 90.510339 119.084545 
L 96.594022 123.762182 
L 102.677705 120.654222 
L 108.761388 178.145611 
L 114.845071 101.093636 
L 120.928754 145.071414 
L 127.012438 106.917283 
L 133.096121 115.540882 
L 139.179804 124.891995 
L 145.263487 115.266067 
L 151.34717 152.993062 
L 157.430853 142.233258 
L 163.514537 136.450178 
L 169.59822 141.096952 
L 175.681903 145.573923 
L 181.765586 148.585893 
L 187.849269 126.554972 
L 193.932952 138.960416 
L 200.016636 145.473866 
L 206.100319 153.058957 
L 212.184002 145.753209 
L 218.267685 149.197113 
L 224.351368 154.481701 
L 230.435051 162.102094 
L 236.518735 144.314947 
L 242.602418 143.998463 
L 248.686101 152.281885 
L 254.769784 149.858469 
L 260.853467 153.401291 
L 266.93715 153.178105 
L 273.020833 159.910559 
L 279.104517 160.509513 
L 285.1882 155.319757 
L 291.271883 150.681614 
L 297.355566 158.426255 
L 303.439249 168.943073 
L 309.522932 169.784088 
L 315.606616 170.273774 
L 321.690299 167.631623 
L 327.773982 165.436771 
L 333.857665 175.204048 
L 339.941348 165.732667 
L 346.025031 163.688326 
L 352.108715 173.057273 
L 358.192398 160.998199 
L 364.276081 165.136941 
L 370.359764 185.453547 
L 376.443447 162.28872 
L 382.52713 157.304257 
L 388.610814 164.109922 
L 394.694497 166.69496 
L 400.77818 156.111927 
L 406.861863 154.935043 
L 412.945546 154.307711 
L 419.029229 170.346314 
L 425.112913 151.371261 
L 431.196596 190.758006 
L 437.280279 157.868968 
L 443.363962 198.604364 
L 449.447645 160.357807 
L 455.531328 195.545909 
L 461.615012 163.21319 
L 467.698695 171.058283 
L 473.782378 174.365702 
L 479.866061 168.435755 
L 485.949744 188.382862 
L 492.033427 157.356116 
L 498.117111 106.327355 
" style="fill:none;stroke:#bcbd22;stroke-linecap:square;stroke-width:1.5;"/>
   </g>
   <g id="patch_3">
    <path d="M 70.13 365.56 
L 70.13 88.5 
" style="fill:none;stroke:#000000;stroke-linecap:square;stroke-linejoin:miter;stroke-width:0.8;"/>
   </g>
   <g id="patch_4">
    <path d="M 518.497449 365.56 
L 518.497449 88.5 
" style="fill:none;stroke:#000000;stroke-linecap:square;stroke-linejoin:miter;stroke-width:0.8;"/>
   </g>
   <g id="patch_5">
    <path d="M 70.13 365.56 
L 518.497449 365.56 
" style="fill:none;stroke:#000000;stroke-linecap:square;stroke-linejoin:miter;stroke-width:0.8;"/>
   </g>
   <g id="patch_6">
    <path d="M 70.13 88.5 
L 518.497449 88.5 
" style="fill:none;stroke:#000000;stroke-linecap:square;stroke-linejoin:miter;stroke-width:0.8;"/>
   </g>
   <g id="legend_1">
    <g id="patch_7">
     <path d="M 80.63 81 
L 507.997449 81 
Q 510.997449 81 510.997449 78 
L 510.997449 13.448438 
Q 510.997449 10.448438 507.997449 10.448438 
L 80.63 10.448438 
Q 77.63 10.448438 77.63 13.448438 
L 77.63 78 
Q 77.63 81 80.63 81 
z
" style="fill:#ffffff;opacity:0.8;stroke:#cccccc;stroke-linejoin:miter;"/>
    </g>
    <g id="line2d_24">
     <path d="M 83.63 22.596094 
L 113.63 22.596094 
" style="fill:none;stroke:#1f77b4;stroke-linecap:square;stroke-width:1.5;"/>
    </g>
    <g id="line2d_25"/>
    <g id="text_17">
     <!-- Stra 1 -->
     <defs>
      <path d="M 53.515625 70.515625 
L 53.515625 60.890625 
Q 47.90625 63.578125 42.921875 64.890625 
Q 37.9375 66.21875 33.296875 66.21875 
Q 25.25 66.21875 20.875 63.09375 
Q 16.5 59.96875 16.5 54.203125 
Q 16.5 49.359375 19.40625 46.890625 
Q 22.3125 44.4375 30.421875 42.921875 
L 36.375 41.703125 
Q 47.40625 39.59375 52.65625 34.296875 
Q 57.90625 29 57.90625 20.125 
Q 57.90625 9.515625 50.796875 4.046875 
Q 43.703125 -1.421875 29.984375 -1.421875 
Q 24.8125 -1.421875 18.96875 -0.25 
Q 13.140625 0.921875 6.890625 3.21875 
L 6.890625 13.375 
Q 12.890625 10.015625 18.65625 8.296875 
Q 24.421875 6.59375 29.984375 6.59375 
Q 38.421875 6.59375 43.015625 9.90625 
Q 47.609375 13.234375 47.609375 19.390625 
Q 47.609375 24.75 44.3125 27.78125 
Q 41.015625 30.8125 33.5 32.328125 
L 27.484375 33.5 
Q 16.453125 35.6875 11.515625 40.375 
Q 6.59375 45.0625 6.59375 53.421875 
Q 6.59375 63.09375 13.40625 68.65625 
Q 20.21875 74.21875 32.171875 74.21875 
Q 37.3125 74.21875 42.625 73.28125 
Q 47.953125 72.359375 53.515625 70.515625 
z
" id="DejaVuSans-83"/>
     </defs>
     <g transform="translate(125.63 27.846094)scale(0.15 -0.15)">
      <use xlink:href="#DejaVuSans-83"/>
      <use x="63.476562" xlink:href="#DejaVuSans-116"/>
      <use x="102.685547" xlink:href="#DejaVuSans-114"/>
      <use x="143.798828" xlink:href="#DejaVuSans-97"/>
      <use x="205.078125" xlink:href="#DejaVuSans-32"/>
      <use x="236.865234" xlink:href="#DejaVuSans-49"/>
     </g>
    </g>
    <g id="line2d_26">
     <path d="M 83.63 44.613281 
L 113.63 44.613281 
" style="fill:none;stroke:#ff7f0e;stroke-linecap:square;stroke-width:1.5;"/>
    </g>
    <g id="line2d_27"/>
    <g id="text_18">
     <!-- Stra 2 -->
     <g transform="translate(125.63 49.863281)scale(0.15 -0.15)">
      <use xlink:href="#DejaVuSans-83"/>
      <use x="63.476562" xlink:href="#DejaVuSans-116"/>
      <use x="102.685547" xlink:href="#DejaVuSans-114"/>
      <use x="143.798828" xlink:href="#DejaVuSans-97"/>
      <use x="205.078125" xlink:href="#DejaVuSans-32"/>
      <use x="236.865234" xlink:href="#DejaVuSans-50"/>
     </g>
    </g>
    <g id="line2d_28">
     <path d="M 83.63 66.630469 
L 113.63 66.630469 
" style="fill:none;stroke:#2ca02c;stroke-linecap:square;stroke-width:1.5;"/>
    </g>
    <g id="line2d_29"/>
    <g id="text_19">
     <!-- Stra 3 -->
     <g transform="translate(125.63 71.880469)scale(0.15 -0.15)">
      <use xlink:href="#DejaVuSans-83"/>
      <use x="63.476562" xlink:href="#DejaVuSans-116"/>
      <use x="102.685547" xlink:href="#DejaVuSans-114"/>
      <use x="143.798828" xlink:href="#DejaVuSans-97"/>
      <use x="205.078125" xlink:href="#DejaVuSans-32"/>
      <use x="236.865234" xlink:href="#DejaVuSans-51"/>
     </g>
    </g>
    <g id="line2d_30">
     <path d="M 195.061598 22.596094 
L 225.061598 22.596094 
" style="fill:none;stroke:#d62728;stroke-linecap:square;stroke-width:1.5;"/>
    </g>
    <g id="line2d_31"/>
    <g id="text_20">
     <!-- Stra 4 -->
     <g transform="translate(237.061598 27.846094)scale(0.15 -0.15)">
      <use xlink:href="#DejaVuSans-83"/>
      <use x="63.476562" xlink:href="#DejaVuSans-116"/>
      <use x="102.685547" xlink:href="#DejaVuSans-114"/>
      <use x="143.798828" xlink:href="#DejaVuSans-97"/>
      <use x="205.078125" xlink:href="#DejaVuSans-32"/>
      <use x="236.865234" xlink:href="#DejaVuSans-52"/>
     </g>
    </g>
    <g id="line2d_32">
     <path d="M 195.061598 44.613281 
L 225.061598 44.613281 
" style="fill:none;stroke:#9467bd;stroke-linecap:square;stroke-width:1.5;"/>
    </g>
    <g id="line2d_33"/>
    <g id="text_21">
     <!-- Stra 5 -->
     <g transform="translate(237.061598 49.863281)scale(0.15 -0.15)">
      <use xlink:href="#DejaVuSans-83"/>
      <use x="63.476562" xlink:href="#DejaVuSans-116"/>
      <use x="102.685547" xlink:href="#DejaVuSans-114"/>
      <use x="143.798828" xlink:href="#DejaVuSans-97"/>
      <use x="205.078125" xlink:href="#DejaVuSans-32"/>
      <use x="236.865234" xlink:href="#DejaVuSans-53"/>
     </g>
    </g>
    <g id="line2d_34">
     <path d="M 306.493195 22.596094 
L 336.493195 22.596094 
" style="fill:none;stroke:#8c564b;stroke-linecap:square;stroke-width:1.5;"/>
    </g>
    <g id="line2d_35"/>
    <g id="text_22">
     <!-- Stra 6 -->
     <g transform="translate(348.493195 27.846094)scale(0.15 -0.15)">
      <use xlink:href="#DejaVuSans-83"/>
      <use x="63.476562" xlink:href="#DejaVuSans-116"/>
      <use x="102.685547" xlink:href="#DejaVuSans-114"/>
      <use x="143.798828" xlink:href="#DejaVuSans-97"/>
      <use x="205.078125" xlink:href="#DejaVuSans-32"/>
      <use x="236.865234" xlink:href="#DejaVuSans-54"/>
     </g>
    </g>
    <g id="line2d_36">
     <path d="M 306.493195 44.613281 
L 336.493195 44.613281 
" style="fill:none;stroke:#e377c2;stroke-linecap:square;stroke-width:1.5;"/>
    </g>
    <g id="line2d_37"/>
    <g id="text_23">
     <!-- Stra 7 -->
     <g transform="translate(348.493195 49.863281)scale(0.15 -0.15)">
      <use xlink:href="#DejaVuSans-83"/>
      <use x="63.476562" xlink:href="#DejaVuSans-116"/>
      <use x="102.685547" xlink:href="#DejaVuSans-114"/>
      <use x="143.798828" xlink:href="#DejaVuSans-97"/>
      <use x="205.078125" xlink:href="#DejaVuSans-32"/>
      <use x="236.865234" xlink:href="#DejaVuSans-55"/>
     </g>
    </g>
    <g id="line2d_38">
     <path d="M 417.924793 22.596094 
L 447.924793 22.596094 
" style="fill:none;stroke:#7f7f7f;stroke-linecap:square;stroke-width:1.5;"/>
    </g>
    <g id="line2d_39"/>
    <g id="text_24">
     <!-- Stra 8 -->
     <defs>
      <path d="M 31.78125 34.625 
Q 24.75 34.625 20.71875 30.859375 
Q 16.703125 27.09375 16.703125 20.515625 
Q 16.703125 13.921875 20.71875 10.15625 
Q 24.75 6.390625 31.78125 6.390625 
Q 38.8125 6.390625 42.859375 10.171875 
Q 46.921875 13.96875 46.921875 20.515625 
Q 46.921875 27.09375 42.890625 30.859375 
Q 38.875 34.625 31.78125 34.625 
z
M 21.921875 38.8125 
Q 15.578125 40.375 12.03125 44.71875 
Q 8.5 49.078125 8.5 55.328125 
Q 8.5 64.0625 14.71875 69.140625 
Q 20.953125 74.21875 31.78125 74.21875 
Q 42.671875 74.21875 48.875 69.140625 
Q 55.078125 64.0625 55.078125 55.328125 
Q 55.078125 49.078125 51.53125 44.71875 
Q 48 40.375 41.703125 38.8125 
Q 48.828125 37.15625 52.796875 32.3125 
Q 56.78125 27.484375 56.78125 20.515625 
Q 56.78125 9.90625 50.3125 4.234375 
Q 43.84375 -1.421875 31.78125 -1.421875 
Q 19.734375 -1.421875 13.25 4.234375 
Q 6.78125 9.90625 6.78125 20.515625 
Q 6.78125 27.484375 10.78125 32.3125 
Q 14.796875 37.15625 21.921875 38.8125 
z
M 18.3125 54.390625 
Q 18.3125 48.734375 21.84375 45.5625 
Q 25.390625 42.390625 31.78125 42.390625 
Q 38.140625 42.390625 41.71875 45.5625 
Q 45.3125 48.734375 45.3125 54.390625 
Q 45.3125 60.0625 41.71875 63.234375 
Q 38.140625 66.40625 31.78125 66.40625 
Q 25.390625 66.40625 21.84375 63.234375 
Q 18.3125 60.0625 18.3125 54.390625 
z
" id="DejaVuSans-56"/>
     </defs>
     <g transform="translate(459.924793 27.846094)scale(0.15 -0.15)">
      <use xlink:href="#DejaVuSans-83"/>
      <use x="63.476562" xlink:href="#DejaVuSans-116"/>
      <use x="102.685547" xlink:href="#DejaVuSans-114"/>
      <use x="143.798828" xlink:href="#DejaVuSans-97"/>
      <use x="205.078125" xlink:href="#DejaVuSans-32"/>
      <use x="236.865234" xlink:href="#DejaVuSans-56"/>
     </g>
    </g>
    <g id="line2d_40">
     <path d="M 417.924793 44.613281 
L 447.924793 44.613281 
" style="fill:none;stroke:#bcbd22;stroke-linecap:square;stroke-width:1.5;"/>
    </g>
    <g id="line2d_41"/>
    <g id="text_25">
     <!-- Stra 9 -->
     <defs>
      <path d="M 10.984375 1.515625 
L 10.984375 10.5 
Q 14.703125 8.734375 18.5 7.8125 
Q 22.3125 6.890625 25.984375 6.890625 
Q 35.75 6.890625 40.890625 13.453125 
Q 46.046875 20.015625 46.78125 33.40625 
Q 43.953125 29.203125 39.59375 26.953125 
Q 35.25 24.703125 29.984375 24.703125 
Q 19.046875 24.703125 12.671875 31.3125 
Q 6.296875 37.9375 6.296875 49.421875 
Q 6.296875 60.640625 12.9375 67.421875 
Q 19.578125 74.21875 30.609375 74.21875 
Q 43.265625 74.21875 49.921875 64.515625 
Q 56.59375 54.828125 56.59375 36.375 
Q 56.59375 19.140625 48.40625 8.859375 
Q 40.234375 -1.421875 26.421875 -1.421875 
Q 22.703125 -1.421875 18.890625 -0.6875 
Q 15.09375 0.046875 10.984375 1.515625 
z
M 30.609375 32.421875 
Q 37.25 32.421875 41.125 36.953125 
Q 45.015625 41.5 45.015625 49.421875 
Q 45.015625 57.28125 41.125 61.84375 
Q 37.25 66.40625 30.609375 66.40625 
Q 23.96875 66.40625 20.09375 61.84375 
Q 16.21875 57.28125 16.21875 49.421875 
Q 16.21875 41.5 20.09375 36.953125 
Q 23.96875 32.421875 30.609375 32.421875 
z
" id="DejaVuSans-57"/>
     </defs>
     <g transform="translate(459.924793 49.863281)scale(0.15 -0.15)">
      <use xlink:href="#DejaVuSans-83"/>
      <use x="63.476562" xlink:href="#DejaVuSans-116"/>
      <use x="102.685547" xlink:href="#DejaVuSans-114"/>
      <use x="143.798828" xlink:href="#DejaVuSans-97"/>
      <use x="205.078125" xlink:href="#DejaVuSans-32"/>
      <use x="236.865234" xlink:href="#DejaVuSans-57"/>
     </g>
    </g>
   </g>
  </g>
 </g>
 <defs>
  <clipPath id="pc89e8538dc">
   <rect height="277.06" width="448.367449" x="70.13" y="88.5"/>
  </clipPath>
 </defs>
</svg>
