<?xml version="1.0" encoding="utf-8" standalone="no"?>
<!DOCTYPE svg PUBLIC "-//W3C//DTD SVG 1.1//EN"
  "http://www.w3.org/Graphics/SVG/1.1/DTD/svg11.dtd">
<!-- Created with matplotlib (https://matplotlib.org/) -->
<svg height="432pt" version="1.1" viewBox="0 0 540 432" width="540pt" xmlns="http://www.w3.org/2000/svg" xmlns:xlink="http://www.w3.org/1999/xlink">
 <defs>
  <style type="text/css">
*{stroke-linecap:butt;stroke-linejoin:round;}
  </style>
 </defs>
 <g id="figure_1">
  <g id="patch_1">
   <path d="M 0 432 
L 540 432 
L 540 0 
L 0 0 
z
" style="fill:#ffffff;"/>
  </g>
  <g id="axes_1">
   <g id="patch_2">
    <path d="M 82.82 365.56 
L 529.2 365.56 
L 529.2 66.6 
L 82.82 66.6 
z
" style="fill:#ffffff;"/>
   </g>
   <g id="matplotlib.axis_1">
    <g id="xtick_1">
     <g id="line2d_1">
      <defs>
       <path d="M 0 0 
L 0 3.5 
" id="m875c034c90" style="stroke:#000000;stroke-width:0.8;"/>
      </defs>
      <g>
       <use style="stroke:#000000;stroke-width:0.8;" x="103.11" xlink:href="#m875c034c90" y="365.56"/>
      </g>
     </g>
     <g id="text_1">
      <!-- 0 -->
      <defs>
       <path d="M 31.78125 66.40625 
Q 24.171875 66.40625 20.328125 58.90625 
Q 16.5 51.421875 16.5 36.375 
Q 16.5 21.390625 20.328125 13.890625 
Q 24.171875 6.390625 31.78125 6.390625 
Q 39.453125 6.390625 43.28125 13.890625 
Q 47.125 21.390625 47.125 36.375 
Q 47.125 51.421875 43.28125 58.90625 
Q 39.453125 66.40625 31.78125 66.40625 
z
M 31.78125 74.21875 
Q 44.046875 74.21875 50.515625 64.515625 
Q 56.984375 54.828125 56.984375 36.375 
Q 56.984375 17.96875 50.515625 8.265625 
Q 44.046875 -1.421875 31.78125 -1.421875 
Q 19.53125 -1.421875 13.0625 8.265625 
Q 6.59375 17.96875 6.59375 36.375 
Q 6.59375 54.828125 13.0625 64.515625 
Q 19.53125 74.21875 31.78125 74.21875 
z
" id="DejaVuSans-48"/>
      </defs>
      <g transform="translate(96.7475 387.756875)scale(0.2 -0.2)">
       <use xlink:href="#DejaVuSans-48"/>
      </g>
     </g>
    </g>
    <g id="xtick_2">
     <g id="line2d_2">
      <g>
       <use style="stroke:#000000;stroke-width:0.8;" x="182.678627" xlink:href="#m875c034c90" y="365.56"/>
      </g>
     </g>
     <g id="text_2">
      <!-- 100 -->
      <defs>
       <path d="M 12.40625 8.296875 
L 28.515625 8.296875 
L 28.515625 63.921875 
L 10.984375 60.40625 
L 10.984375 69.390625 
L 28.421875 72.90625 
L 38.28125 72.90625 
L 38.28125 8.296875 
L 54.390625 8.296875 
L 54.390625 0 
L 12.40625 0 
z
" id="DejaVuSans-49"/>
      </defs>
      <g transform="translate(163.591127 387.756875)scale(0.2 -0.2)">
       <use xlink:href="#DejaVuSans-49"/>
       <use x="63.623047" xlink:href="#DejaVuSans-48"/>
       <use x="127.246094" xlink:href="#DejaVuSans-48"/>
      </g>
     </g>
    </g>
    <g id="xtick_3">
     <g id="line2d_3">
      <g>
       <use style="stroke:#000000;stroke-width:0.8;" x="262.247255" xlink:href="#m875c034c90" y="365.56"/>
      </g>
     </g>
     <g id="text_3">
      <!-- 200 -->
      <defs>
       <path d="M 19.1875 8.296875 
L 53.609375 8.296875 
L 53.609375 0 
L 7.328125 0 
L 7.328125 8.296875 
Q 12.9375 14.109375 22.625 23.890625 
Q 32.328125 33.6875 34.8125 36.53125 
Q 39.546875 41.84375 41.421875 45.53125 
Q 43.3125 49.21875 43.3125 52.78125 
Q 43.3125 58.59375 39.234375 62.25 
Q 35.15625 65.921875 28.609375 65.921875 
Q 23.96875 65.921875 18.8125 64.3125 
Q 13.671875 62.703125 7.8125 59.421875 
L 7.8125 69.390625 
Q 13.765625 71.78125 18.9375 73 
Q 24.125 74.21875 28.421875 74.21875 
Q 39.75 74.21875 46.484375 68.546875 
Q 53.21875 62.890625 53.21875 53.421875 
Q 53.21875 48.921875 51.53125 44.890625 
Q 49.859375 40.875 45.40625 35.40625 
Q 44.1875 33.984375 37.640625 27.21875 
Q 31.109375 20.453125 19.1875 8.296875 
z
" id="DejaVuSans-50"/>
      </defs>
      <g transform="translate(243.159755 387.756875)scale(0.2 -0.2)">
       <use xlink:href="#DejaVuSans-50"/>
       <use x="63.623047" xlink:href="#DejaVuSans-48"/>
       <use x="127.246094" xlink:href="#DejaVuSans-48"/>
      </g>
     </g>
    </g>
    <g id="xtick_4">
     <g id="line2d_4">
      <g>
       <use style="stroke:#000000;stroke-width:0.8;" x="341.815882" xlink:href="#m875c034c90" y="365.56"/>
      </g>
     </g>
     <g id="text_4">
      <!-- 300 -->
      <defs>
       <path d="M 40.578125 39.3125 
Q 47.65625 37.796875 51.625 33 
Q 55.609375 28.21875 55.609375 21.1875 
Q 55.609375 10.40625 48.1875 4.484375 
Q 40.765625 -1.421875 27.09375 -1.421875 
Q 22.515625 -1.421875 17.65625 -0.515625 
Q 12.796875 0.390625 7.625 2.203125 
L 7.625 11.71875 
Q 11.71875 9.328125 16.59375 8.109375 
Q 21.484375 6.890625 26.8125 6.890625 
Q 36.078125 6.890625 40.9375 10.546875 
Q 45.796875 14.203125 45.796875 21.1875 
Q 45.796875 27.640625 41.28125 31.265625 
Q 36.765625 34.90625 28.71875 34.90625 
L 20.21875 34.90625 
L 20.21875 43.015625 
L 29.109375 43.015625 
Q 36.375 43.015625 40.234375 45.921875 
Q 44.09375 48.828125 44.09375 54.296875 
Q 44.09375 59.90625 40.109375 62.90625 
Q 36.140625 65.921875 28.71875 65.921875 
Q 24.65625 65.921875 20.015625 65.03125 
Q 15.375 64.15625 9.8125 62.3125 
L 9.8125 71.09375 
Q 15.4375 72.65625 20.34375 73.4375 
Q 25.25 74.21875 29.59375 74.21875 
Q 40.828125 74.21875 47.359375 69.109375 
Q 53.90625 64.015625 53.90625 55.328125 
Q 53.90625 49.265625 50.4375 45.09375 
Q 46.96875 40.921875 40.578125 39.3125 
z
" id="DejaVuSans-51"/>
      </defs>
      <g transform="translate(322.728382 387.756875)scale(0.2 -0.2)">
       <use xlink:href="#DejaVuSans-51"/>
       <use x="63.623047" xlink:href="#DejaVuSans-48"/>
       <use x="127.246094" xlink:href="#DejaVuSans-48"/>
      </g>
     </g>
    </g>
    <g id="xtick_5">
     <g id="line2d_5">
      <g>
       <use style="stroke:#000000;stroke-width:0.8;" x="421.38451" xlink:href="#m875c034c90" y="365.56"/>
      </g>
     </g>
     <g id="text_5">
      <!-- 400 -->
      <defs>
       <path d="M 37.796875 64.3125 
L 12.890625 25.390625 
L 37.796875 25.390625 
z
M 35.203125 72.90625 
L 47.609375 72.90625 
L 47.609375 25.390625 
L 58.015625 25.390625 
L 58.015625 17.1875 
L 47.609375 17.1875 
L 47.609375 0 
L 37.796875 0 
L 37.796875 17.1875 
L 4.890625 17.1875 
L 4.890625 26.703125 
z
" id="DejaVuSans-52"/>
      </defs>
      <g transform="translate(402.29701 387.756875)scale(0.2 -0.2)">
       <use xlink:href="#DejaVuSans-52"/>
       <use x="63.623047" xlink:href="#DejaVuSans-48"/>
       <use x="127.246094" xlink:href="#DejaVuSans-48"/>
      </g>
     </g>
    </g>
    <g id="xtick_6">
     <g id="line2d_6">
      <g>
       <use style="stroke:#000000;stroke-width:0.8;" x="500.953137" xlink:href="#m875c034c90" y="365.56"/>
      </g>
     </g>
     <g id="text_6">
      <!-- 500 -->
      <defs>
       <path d="M 10.796875 72.90625 
L 49.515625 72.90625 
L 49.515625 64.59375 
L 19.828125 64.59375 
L 19.828125 46.734375 
Q 21.96875 47.46875 24.109375 47.828125 
Q 26.265625 48.1875 28.421875 48.1875 
Q 40.625 48.1875 47.75 41.5 
Q 54.890625 34.8125 54.890625 23.390625 
Q 54.890625 11.625 47.5625 5.09375 
Q 40.234375 -1.421875 26.90625 -1.421875 
Q 22.3125 -1.421875 17.546875 -0.640625 
Q 12.796875 0.140625 7.71875 1.703125 
L 7.71875 11.625 
Q 12.109375 9.234375 16.796875 8.0625 
Q 21.484375 6.890625 26.703125 6.890625 
Q 35.15625 6.890625 40.078125 11.328125 
Q 45.015625 15.765625 45.015625 23.390625 
Q 45.015625 31 40.078125 35.4375 
Q 35.15625 39.890625 26.703125 39.890625 
Q 22.75 39.890625 18.8125 39.015625 
Q 14.890625 38.140625 10.796875 36.28125 
z
" id="DejaVuSans-53"/>
      </defs>
      <g transform="translate(481.865637 387.756875)scale(0.2 -0.2)">
       <use xlink:href="#DejaVuSans-53"/>
       <use x="63.623047" xlink:href="#DejaVuSans-48"/>
       <use x="127.246094" xlink:href="#DejaVuSans-48"/>
      </g>
     </g>
    </g>
    <g id="text_7">
     <!-- # of games -->
     <defs>
      <path d="M 51.125 44 
L 36.921875 44 
L 32.8125 27.6875 
L 47.125 27.6875 
z
M 43.796875 71.78125 
L 38.71875 51.515625 
L 52.984375 51.515625 
L 58.109375 71.78125 
L 65.921875 71.78125 
L 60.890625 51.515625 
L 76.125 51.515625 
L 76.125 44 
L 58.984375 44 
L 54.984375 27.6875 
L 70.515625 27.6875 
L 70.515625 20.21875 
L 53.078125 20.21875 
L 48 0 
L 40.1875 0 
L 45.21875 20.21875 
L 30.90625 20.21875 
L 25.875 0 
L 18.015625 0 
L 23.09375 20.21875 
L 7.71875 20.21875 
L 7.71875 27.6875 
L 24.90625 27.6875 
L 29 44 
L 13.28125 44 
L 13.28125 51.515625 
L 30.90625 51.515625 
L 35.890625 71.78125 
z
" id="DejaVuSans-35"/>
      <path id="DejaVuSans-32"/>
      <path d="M 30.609375 48.390625 
Q 23.390625 48.390625 19.1875 42.75 
Q 14.984375 37.109375 14.984375 27.296875 
Q 14.984375 17.484375 19.15625 11.84375 
Q 23.34375 6.203125 30.609375 6.203125 
Q 37.796875 6.203125 41.984375 11.859375 
Q 46.1875 17.53125 46.1875 27.296875 
Q 46.1875 37.015625 41.984375 42.703125 
Q 37.796875 48.390625 30.609375 48.390625 
z
M 30.609375 56 
Q 42.328125 56 49.015625 48.375 
Q 55.71875 40.765625 55.71875 27.296875 
Q 55.71875 13.875 49.015625 6.21875 
Q 42.328125 -1.421875 30.609375 -1.421875 
Q 18.84375 -1.421875 12.171875 6.21875 
Q 5.515625 13.875 5.515625 27.296875 
Q 5.515625 40.765625 12.171875 48.375 
Q 18.84375 56 30.609375 56 
z
" id="DejaVuSans-111"/>
      <path d="M 37.109375 75.984375 
L 37.109375 68.5 
L 28.515625 68.5 
Q 23.6875 68.5 21.796875 66.546875 
Q 19.921875 64.59375 19.921875 59.515625 
L 19.921875 54.6875 
L 34.71875 54.6875 
L 34.71875 47.703125 
L 19.921875 47.703125 
L 19.921875 0 
L 10.890625 0 
L 10.890625 47.703125 
L 2.296875 47.703125 
L 2.296875 54.6875 
L 10.890625 54.6875 
L 10.890625 58.5 
Q 10.890625 67.625 15.140625 71.796875 
Q 19.390625 75.984375 28.609375 75.984375 
z
" id="DejaVuSans-102"/>
      <path d="M 45.40625 27.984375 
Q 45.40625 37.75 41.375 43.109375 
Q 37.359375 48.484375 30.078125 48.484375 
Q 22.859375 48.484375 18.828125 43.109375 
Q 14.796875 37.75 14.796875 27.984375 
Q 14.796875 18.265625 18.828125 12.890625 
Q 22.859375 7.515625 30.078125 7.515625 
Q 37.359375 7.515625 41.375 12.890625 
Q 45.40625 18.265625 45.40625 27.984375 
z
M 54.390625 6.78125 
Q 54.390625 -7.171875 48.1875 -13.984375 
Q 42 -20.796875 29.203125 -20.796875 
Q 24.46875 -20.796875 20.265625 -20.09375 
Q 16.0625 -19.390625 12.109375 -17.921875 
L 12.109375 -9.1875 
Q 16.0625 -11.328125 19.921875 -12.34375 
Q 23.78125 -13.375 27.78125 -13.375 
Q 36.625 -13.375 41.015625 -8.765625 
Q 45.40625 -4.15625 45.40625 5.171875 
L 45.40625 9.625 
Q 42.625 4.78125 38.28125 2.390625 
Q 33.9375 0 27.875 0 
Q 17.828125 0 11.671875 7.65625 
Q 5.515625 15.328125 5.515625 27.984375 
Q 5.515625 40.671875 11.671875 48.328125 
Q 17.828125 56 27.875 56 
Q 33.9375 56 38.28125 53.609375 
Q 42.625 51.21875 45.40625 46.390625 
L 45.40625 54.6875 
L 54.390625 54.6875 
z
" id="DejaVuSans-103"/>
      <path d="M 34.28125 27.484375 
Q 23.390625 27.484375 19.1875 25 
Q 14.984375 22.515625 14.984375 16.5 
Q 14.984375 11.71875 18.140625 8.90625 
Q 21.296875 6.109375 26.703125 6.109375 
Q 34.1875 6.109375 38.703125 11.40625 
Q 43.21875 16.703125 43.21875 25.484375 
L 43.21875 27.484375 
z
M 52.203125 31.203125 
L 52.203125 0 
L 43.21875 0 
L 43.21875 8.296875 
Q 40.140625 3.328125 35.546875 0.953125 
Q 30.953125 -1.421875 24.3125 -1.421875 
Q 15.921875 -1.421875 10.953125 3.296875 
Q 6 8.015625 6 15.921875 
Q 6 25.140625 12.171875 29.828125 
Q 18.359375 34.515625 30.609375 34.515625 
L 43.21875 34.515625 
L 43.21875 35.40625 
Q 43.21875 41.609375 39.140625 45 
Q 35.0625 48.390625 27.6875 48.390625 
Q 23 48.390625 18.546875 47.265625 
Q 14.109375 46.140625 10.015625 43.890625 
L 10.015625 52.203125 
Q 14.9375 54.109375 19.578125 55.046875 
Q 24.21875 56 28.609375 56 
Q 40.484375 56 46.34375 49.84375 
Q 52.203125 43.703125 52.203125 31.203125 
z
" id="DejaVuSans-97"/>
      <path d="M 52 44.1875 
Q 55.375 50.25 60.0625 53.125 
Q 64.75 56 71.09375 56 
Q 79.640625 56 84.28125 50.015625 
Q 88.921875 44.046875 88.921875 33.015625 
L 88.921875 0 
L 79.890625 0 
L 79.890625 32.71875 
Q 79.890625 40.578125 77.09375 44.375 
Q 74.3125 48.1875 68.609375 48.1875 
Q 61.625 48.1875 57.5625 43.546875 
Q 53.515625 38.921875 53.515625 30.90625 
L 53.515625 0 
L 44.484375 0 
L 44.484375 32.71875 
Q 44.484375 40.625 41.703125 44.40625 
Q 38.921875 48.1875 33.109375 48.1875 
Q 26.21875 48.1875 22.15625 43.53125 
Q 18.109375 38.875 18.109375 30.90625 
L 18.109375 0 
L 9.078125 0 
L 9.078125 54.6875 
L 18.109375 54.6875 
L 18.109375 46.1875 
Q 21.1875 51.21875 25.484375 53.609375 
Q 29.78125 56 35.6875 56 
Q 41.65625 56 45.828125 52.96875 
Q 50 49.953125 52 44.1875 
z
" id="DejaVuSans-109"/>
      <path d="M 56.203125 29.59375 
L 56.203125 25.203125 
L 14.890625 25.203125 
Q 15.484375 15.921875 20.484375 11.0625 
Q 25.484375 6.203125 34.421875 6.203125 
Q 39.59375 6.203125 44.453125 7.46875 
Q 49.3125 8.734375 54.109375 11.28125 
L 54.109375 2.78125 
Q 49.265625 0.734375 44.1875 -0.34375 
Q 39.109375 -1.421875 33.890625 -1.421875 
Q 20.796875 -1.421875 13.15625 6.1875 
Q 5.515625 13.8125 5.515625 26.8125 
Q 5.515625 40.234375 12.765625 48.109375 
Q 20.015625 56 32.328125 56 
Q 43.359375 56 49.78125 48.890625 
Q 56.203125 41.796875 56.203125 29.59375 
z
M 47.21875 32.234375 
Q 47.125 39.59375 43.09375 43.984375 
Q 39.0625 48.390625 32.421875 48.390625 
Q 24.90625 48.390625 20.390625 44.140625 
Q 15.875 39.890625 15.1875 32.171875 
z
" id="DejaVuSans-101"/>
      <path d="M 44.28125 53.078125 
L 44.28125 44.578125 
Q 40.484375 46.53125 36.375 47.5 
Q 32.28125 48.484375 27.875 48.484375 
Q 21.1875 48.484375 17.84375 46.4375 
Q 14.5 44.390625 14.5 40.28125 
Q 14.5 37.15625 16.890625 35.375 
Q 19.28125 33.59375 26.515625 31.984375 
L 29.59375 31.296875 
Q 39.15625 29.25 43.1875 25.515625 
Q 47.21875 21.78125 47.21875 15.09375 
Q 47.21875 7.46875 41.1875 3.015625 
Q 35.15625 -1.421875 24.609375 -1.421875 
Q 20.21875 -1.421875 15.453125 -0.5625 
Q 10.6875 0.296875 5.421875 2 
L 5.421875 11.28125 
Q 10.40625 8.6875 15.234375 7.390625 
Q 20.0625 6.109375 24.8125 6.109375 
Q 31.15625 6.109375 34.5625 8.28125 
Q 37.984375 10.453125 37.984375 14.40625 
Q 37.984375 18.0625 35.515625 20.015625 
Q 33.0625 21.96875 24.703125 23.78125 
L 21.578125 24.515625 
Q 13.234375 26.265625 9.515625 29.90625 
Q 5.8125 33.546875 5.8125 39.890625 
Q 5.8125 47.609375 11.28125 51.796875 
Q 16.75 56 26.8125 56 
Q 31.78125 56 36.171875 55.265625 
Q 40.578125 54.546875 44.28125 53.078125 
z
" id="DejaVuSans-115"/>
     </defs>
     <g transform="translate(233.566641 414.912344)scale(0.25 -0.25)">
      <use xlink:href="#DejaVuSans-35"/>
      <use x="83.789062" xlink:href="#DejaVuSans-32"/>
      <use x="115.576172" xlink:href="#DejaVuSans-111"/>
      <use x="176.757812" xlink:href="#DejaVuSans-102"/>
      <use x="211.962891" xlink:href="#DejaVuSans-32"/>
      <use x="243.75" xlink:href="#DejaVuSans-103"/>
      <use x="307.226562" xlink:href="#DejaVuSans-97"/>
      <use x="368.505859" xlink:href="#DejaVuSans-109"/>
      <use x="465.917969" xlink:href="#DejaVuSans-101"/>
      <use x="527.441406" xlink:href="#DejaVuSans-115"/>
     </g>
    </g>
   </g>
   <g id="matplotlib.axis_2">
    <g id="ytick_1">
     <g id="line2d_7">
      <defs>
       <path d="M 0 0 
L -3.5 0 
" id="m6f56addfd6" style="stroke:#000000;stroke-width:0.8;"/>
      </defs>
      <g>
       <use style="stroke:#000000;stroke-width:0.8;" x="82.82" xlink:href="#m6f56addfd6" y="351.812591"/>
      </g>
     </g>
     <g id="text_8">
      <!-- 0.94 -->
      <defs>
       <path d="M 10.6875 12.40625 
L 21 12.40625 
L 21 0 
L 10.6875 0 
z
" id="DejaVuSans-46"/>
       <path d="M 10.984375 1.515625 
L 10.984375 10.5 
Q 14.703125 8.734375 18.5 7.8125 
Q 22.3125 6.890625 25.984375 6.890625 
Q 35.75 6.890625 40.890625 13.453125 
Q 46.046875 20.015625 46.78125 33.40625 
Q 43.953125 29.203125 39.59375 26.953125 
Q 35.25 24.703125 29.984375 24.703125 
Q 19.046875 24.703125 12.671875 31.3125 
Q 6.296875 37.9375 6.296875 49.421875 
Q 6.296875 60.640625 12.9375 67.421875 
Q 19.578125 74.21875 30.609375 74.21875 
Q 43.265625 74.21875 49.921875 64.515625 
Q 56.59375 54.828125 56.59375 36.375 
Q 56.59375 19.140625 48.40625 8.859375 
Q 40.234375 -1.421875 26.421875 -1.421875 
Q 22.703125 -1.421875 18.890625 -0.6875 
Q 15.09375 0.046875 10.984375 1.515625 
z
M 30.609375 32.421875 
Q 37.25 32.421875 41.125 36.953125 
Q 45.015625 41.5 45.015625 49.421875 
Q 45.015625 57.28125 41.125 61.84375 
Q 37.25 66.40625 30.609375 66.40625 
Q 23.96875 66.40625 20.09375 61.84375 
Q 16.21875 57.28125 16.21875 49.421875 
Q 16.21875 41.5 20.09375 36.953125 
Q 23.96875 32.421875 30.609375 32.421875 
z
" id="DejaVuSans-57"/>
      </defs>
      <g transform="translate(31.28875 359.411029)scale(0.2 -0.2)">
       <use xlink:href="#DejaVuSans-48"/>
       <use x="63.623047" xlink:href="#DejaVuSans-46"/>
       <use x="95.410156" xlink:href="#DejaVuSans-57"/>
       <use x="159.033203" xlink:href="#DejaVuSans-52"/>
      </g>
     </g>
    </g>
    <g id="ytick_2">
     <g id="line2d_8">
      <g>
       <use style="stroke:#000000;stroke-width:0.8;" x="82.82" xlink:href="#m6f56addfd6" y="306.542008"/>
      </g>
     </g>
     <g id="text_9">
      <!-- 0.95 -->
      <g transform="translate(31.28875 314.140445)scale(0.2 -0.2)">
       <use xlink:href="#DejaVuSans-48"/>
       <use x="63.623047" xlink:href="#DejaVuSans-46"/>
       <use x="95.410156" xlink:href="#DejaVuSans-57"/>
       <use x="159.033203" xlink:href="#DejaVuSans-53"/>
      </g>
     </g>
    </g>
    <g id="ytick_3">
     <g id="line2d_9">
      <g>
       <use style="stroke:#000000;stroke-width:0.8;" x="82.82" xlink:href="#m6f56addfd6" y="261.271425"/>
      </g>
     </g>
     <g id="text_10">
      <!-- 0.96 -->
      <defs>
       <path d="M 33.015625 40.375 
Q 26.375 40.375 22.484375 35.828125 
Q 18.609375 31.296875 18.609375 23.390625 
Q 18.609375 15.53125 22.484375 10.953125 
Q 26.375 6.390625 33.015625 6.390625 
Q 39.65625 6.390625 43.53125 10.953125 
Q 47.40625 15.53125 47.40625 23.390625 
Q 47.40625 31.296875 43.53125 35.828125 
Q 39.65625 40.375 33.015625 40.375 
z
M 52.59375 71.296875 
L 52.59375 62.3125 
Q 48.875 64.0625 45.09375 64.984375 
Q 41.3125 65.921875 37.59375 65.921875 
Q 27.828125 65.921875 22.671875 59.328125 
Q 17.53125 52.734375 16.796875 39.40625 
Q 19.671875 43.65625 24.015625 45.921875 
Q 28.375 48.1875 33.59375 48.1875 
Q 44.578125 48.1875 50.953125 41.515625 
Q 57.328125 34.859375 57.328125 23.390625 
Q 57.328125 12.15625 50.6875 5.359375 
Q 44.046875 -1.421875 33.015625 -1.421875 
Q 20.359375 -1.421875 13.671875 8.265625 
Q 6.984375 17.96875 6.984375 36.375 
Q 6.984375 53.65625 15.1875 63.9375 
Q 23.390625 74.21875 37.203125 74.21875 
Q 40.921875 74.21875 44.703125 73.484375 
Q 48.484375 72.75 52.59375 71.296875 
z
" id="DejaVuSans-54"/>
      </defs>
      <g transform="translate(31.28875 268.869862)scale(0.2 -0.2)">
       <use xlink:href="#DejaVuSans-48"/>
       <use x="63.623047" xlink:href="#DejaVuSans-46"/>
       <use x="95.410156" xlink:href="#DejaVuSans-57"/>
       <use x="159.033203" xlink:href="#DejaVuSans-54"/>
      </g>
     </g>
    </g>
    <g id="ytick_4">
     <g id="line2d_10">
      <g>
       <use style="stroke:#000000;stroke-width:0.8;" x="82.82" xlink:href="#m6f56addfd6" y="216.000841"/>
      </g>
     </g>
     <g id="text_11">
      <!-- 0.97 -->
      <defs>
       <path d="M 8.203125 72.90625 
L 55.078125 72.90625 
L 55.078125 68.703125 
L 28.609375 0 
L 18.3125 0 
L 43.21875 64.59375 
L 8.203125 64.59375 
z
" id="DejaVuSans-55"/>
      </defs>
      <g transform="translate(31.28875 223.599279)scale(0.2 -0.2)">
       <use xlink:href="#DejaVuSans-48"/>
       <use x="63.623047" xlink:href="#DejaVuSans-46"/>
       <use x="95.410156" xlink:href="#DejaVuSans-57"/>
       <use x="159.033203" xlink:href="#DejaVuSans-55"/>
      </g>
     </g>
    </g>
    <g id="ytick_5">
     <g id="line2d_11">
      <g>
       <use style="stroke:#000000;stroke-width:0.8;" x="82.82" xlink:href="#m6f56addfd6" y="170.730258"/>
      </g>
     </g>
     <g id="text_12">
      <!-- 0.98 -->
      <defs>
       <path d="M 31.78125 34.625 
Q 24.75 34.625 20.71875 30.859375 
Q 16.703125 27.09375 16.703125 20.515625 
Q 16.703125 13.921875 20.71875 10.15625 
Q 24.75 6.390625 31.78125 6.390625 
Q 38.8125 6.390625 42.859375 10.171875 
Q 46.921875 13.96875 46.921875 20.515625 
Q 46.921875 27.09375 42.890625 30.859375 
Q 38.875 34.625 31.78125 34.625 
z
M 21.921875 38.8125 
Q 15.578125 40.375 12.03125 44.71875 
Q 8.5 49.078125 8.5 55.328125 
Q 8.5 64.0625 14.71875 69.140625 
Q 20.953125 74.21875 31.78125 74.21875 
Q 42.671875 74.21875 48.875 69.140625 
Q 55.078125 64.0625 55.078125 55.328125 
Q 55.078125 49.078125 51.53125 44.71875 
Q 48 40.375 41.703125 38.8125 
Q 48.828125 37.15625 52.796875 32.3125 
Q 56.78125 27.484375 56.78125 20.515625 
Q 56.78125 9.90625 50.3125 4.234375 
Q 43.84375 -1.421875 31.78125 -1.421875 
Q 19.734375 -1.421875 13.25 4.234375 
Q 6.78125 9.90625 6.78125 20.515625 
Q 6.78125 27.484375 10.78125 32.3125 
Q 14.796875 37.15625 21.921875 38.8125 
z
M 18.3125 54.390625 
Q 18.3125 48.734375 21.84375 45.5625 
Q 25.390625 42.390625 31.78125 42.390625 
Q 38.140625 42.390625 41.71875 45.5625 
Q 45.3125 48.734375 45.3125 54.390625 
Q 45.3125 60.0625 41.71875 63.234375 
Q 38.140625 66.40625 31.78125 66.40625 
Q 25.390625 66.40625 21.84375 63.234375 
Q 18.3125 60.0625 18.3125 54.390625 
z
" id="DejaVuSans-56"/>
      </defs>
      <g transform="translate(31.28875 178.328695)scale(0.2 -0.2)">
       <use xlink:href="#DejaVuSans-48"/>
       <use x="63.623047" xlink:href="#DejaVuSans-46"/>
       <use x="95.410156" xlink:href="#DejaVuSans-57"/>
       <use x="159.033203" xlink:href="#DejaVuSans-56"/>
      </g>
     </g>
    </g>
    <g id="ytick_6">
     <g id="line2d_12">
      <g>
       <use style="stroke:#000000;stroke-width:0.8;" x="82.82" xlink:href="#m6f56addfd6" y="125.459674"/>
      </g>
     </g>
     <g id="text_13">
      <!-- 0.99 -->
      <g transform="translate(31.28875 133.058112)scale(0.2 -0.2)">
       <use xlink:href="#DejaVuSans-48"/>
       <use x="63.623047" xlink:href="#DejaVuSans-46"/>
       <use x="95.410156" xlink:href="#DejaVuSans-57"/>
       <use x="159.033203" xlink:href="#DejaVuSans-57"/>
      </g>
     </g>
    </g>
    <g id="ytick_7">
     <g id="line2d_13">
      <g>
       <use style="stroke:#000000;stroke-width:0.8;" x="82.82" xlink:href="#m6f56addfd6" y="80.189091"/>
      </g>
     </g>
     <g id="text_14">
      <!-- 1.00 -->
      <g transform="translate(31.28875 87.787528)scale(0.2 -0.2)">
       <use xlink:href="#DejaVuSans-49"/>
       <use x="63.623047" xlink:href="#DejaVuSans-46"/>
       <use x="95.410156" xlink:href="#DejaVuSans-48"/>
       <use x="159.033203" xlink:href="#DejaVuSans-48"/>
      </g>
     </g>
    </g>
    <g id="text_15">
     <!-- defense impact Value -->
     <defs>
      <path d="M 45.40625 46.390625 
L 45.40625 75.984375 
L 54.390625 75.984375 
L 54.390625 0 
L 45.40625 0 
L 45.40625 8.203125 
Q 42.578125 3.328125 38.25 0.953125 
Q 33.9375 -1.421875 27.875 -1.421875 
Q 17.96875 -1.421875 11.734375 6.484375 
Q 5.515625 14.40625 5.515625 27.296875 
Q 5.515625 40.1875 11.734375 48.09375 
Q 17.96875 56 27.875 56 
Q 33.9375 56 38.25 53.625 
Q 42.578125 51.265625 45.40625 46.390625 
z
M 14.796875 27.296875 
Q 14.796875 17.390625 18.875 11.75 
Q 22.953125 6.109375 30.078125 6.109375 
Q 37.203125 6.109375 41.296875 11.75 
Q 45.40625 17.390625 45.40625 27.296875 
Q 45.40625 37.203125 41.296875 42.84375 
Q 37.203125 48.484375 30.078125 48.484375 
Q 22.953125 48.484375 18.875 42.84375 
Q 14.796875 37.203125 14.796875 27.296875 
z
" id="DejaVuSans-100"/>
      <path d="M 54.890625 33.015625 
L 54.890625 0 
L 45.90625 0 
L 45.90625 32.71875 
Q 45.90625 40.484375 42.875 44.328125 
Q 39.84375 48.1875 33.796875 48.1875 
Q 26.515625 48.1875 22.3125 43.546875 
Q 18.109375 38.921875 18.109375 30.90625 
L 18.109375 0 
L 9.078125 0 
L 9.078125 54.6875 
L 18.109375 54.6875 
L 18.109375 46.1875 
Q 21.34375 51.125 25.703125 53.5625 
Q 30.078125 56 35.796875 56 
Q 45.21875 56 50.046875 50.171875 
Q 54.890625 44.34375 54.890625 33.015625 
z
" id="DejaVuSans-110"/>
      <path d="M 9.421875 54.6875 
L 18.40625 54.6875 
L 18.40625 0 
L 9.421875 0 
z
M 9.421875 75.984375 
L 18.40625 75.984375 
L 18.40625 64.59375 
L 9.421875 64.59375 
z
" id="DejaVuSans-105"/>
      <path d="M 18.109375 8.203125 
L 18.109375 -20.796875 
L 9.078125 -20.796875 
L 9.078125 54.6875 
L 18.109375 54.6875 
L 18.109375 46.390625 
Q 20.953125 51.265625 25.265625 53.625 
Q 29.59375 56 35.59375 56 
Q 45.5625 56 51.78125 48.09375 
Q 58.015625 40.1875 58.015625 27.296875 
Q 58.015625 14.40625 51.78125 6.484375 
Q 45.5625 -1.421875 35.59375 -1.421875 
Q 29.59375 -1.421875 25.265625 0.953125 
Q 20.953125 3.328125 18.109375 8.203125 
z
M 48.6875 27.296875 
Q 48.6875 37.203125 44.609375 42.84375 
Q 40.53125 48.484375 33.40625 48.484375 
Q 26.265625 48.484375 22.1875 42.84375 
Q 18.109375 37.203125 18.109375 27.296875 
Q 18.109375 17.390625 22.1875 11.75 
Q 26.265625 6.109375 33.40625 6.109375 
Q 40.53125 6.109375 44.609375 11.75 
Q 48.6875 17.390625 48.6875 27.296875 
z
" id="DejaVuSans-112"/>
      <path d="M 48.78125 52.59375 
L 48.78125 44.1875 
Q 44.96875 46.296875 41.140625 47.34375 
Q 37.3125 48.390625 33.40625 48.390625 
Q 24.65625 48.390625 19.8125 42.84375 
Q 14.984375 37.3125 14.984375 27.296875 
Q 14.984375 17.28125 19.8125 11.734375 
Q 24.65625 6.203125 33.40625 6.203125 
Q 37.3125 6.203125 41.140625 7.25 
Q 44.96875 8.296875 48.78125 10.40625 
L 48.78125 2.09375 
Q 45.015625 0.34375 40.984375 -0.53125 
Q 36.96875 -1.421875 32.421875 -1.421875 
Q 20.0625 -1.421875 12.78125 6.34375 
Q 5.515625 14.109375 5.515625 27.296875 
Q 5.515625 40.671875 12.859375 48.328125 
Q 20.21875 56 33.015625 56 
Q 37.15625 56 41.109375 55.140625 
Q 45.0625 54.296875 48.78125 52.59375 
z
" id="DejaVuSans-99"/>
      <path d="M 18.3125 70.21875 
L 18.3125 54.6875 
L 36.8125 54.6875 
L 36.8125 47.703125 
L 18.3125 47.703125 
L 18.3125 18.015625 
Q 18.3125 11.328125 20.140625 9.421875 
Q 21.96875 7.515625 27.59375 7.515625 
L 36.8125 7.515625 
L 36.8125 0 
L 27.59375 0 
Q 17.1875 0 13.234375 3.875 
Q 9.28125 7.765625 9.28125 18.015625 
L 9.28125 47.703125 
L 2.6875 47.703125 
L 2.6875 54.6875 
L 9.28125 54.6875 
L 9.28125 70.21875 
z
" id="DejaVuSans-116"/>
      <path d="M 28.609375 0 
L 0.78125 72.90625 
L 11.078125 72.90625 
L 34.1875 11.53125 
L 57.328125 72.90625 
L 67.578125 72.90625 
L 39.796875 0 
z
" id="DejaVuSans-86"/>
      <path d="M 9.421875 75.984375 
L 18.40625 75.984375 
L 18.40625 0 
L 9.421875 0 
z
" id="DejaVuSans-108"/>
      <path d="M 8.5 21.578125 
L 8.5 54.6875 
L 17.484375 54.6875 
L 17.484375 21.921875 
Q 17.484375 14.15625 20.5 10.265625 
Q 23.53125 6.390625 29.59375 6.390625 
Q 36.859375 6.390625 41.078125 11.03125 
Q 45.3125 15.671875 45.3125 23.6875 
L 45.3125 54.6875 
L 54.296875 54.6875 
L 54.296875 0 
L 45.3125 0 
L 45.3125 8.40625 
Q 42.046875 3.421875 37.71875 1 
Q 33.40625 -1.421875 27.6875 -1.421875 
Q 18.265625 -1.421875 13.375 4.4375 
Q 8.5 10.296875 8.5 21.578125 
z
M 31.109375 56 
z
" id="DejaVuSans-117"/>
     </defs>
     <g transform="translate(23.822604 306.806562)rotate(-90)scale(0.166667 -0.166667)">
      <use xlink:href="#DejaVuSans-100"/>
      <use x="63.476562" xlink:href="#DejaVuSans-101"/>
      <use x="125" xlink:href="#DejaVuSans-102"/>
      <use x="160.205078" xlink:href="#DejaVuSans-101"/>
      <use x="221.728516" xlink:href="#DejaVuSans-110"/>
      <use x="285.107422" xlink:href="#DejaVuSans-115"/>
      <use x="337.207031" xlink:href="#DejaVuSans-101"/>
      <use x="398.730469" xlink:href="#DejaVuSans-32"/>
      <use x="430.517578" xlink:href="#DejaVuSans-105"/>
      <use x="458.300781" xlink:href="#DejaVuSans-109"/>
      <use x="555.712891" xlink:href="#DejaVuSans-112"/>
      <use x="619.189453" xlink:href="#DejaVuSans-97"/>
      <use x="680.46875" xlink:href="#DejaVuSans-99"/>
      <use x="735.449219" xlink:href="#DejaVuSans-116"/>
      <use x="774.658203" xlink:href="#DejaVuSans-32"/>
      <use x="806.445312" xlink:href="#DejaVuSans-86"/>
      <use x="874.744141" xlink:href="#DejaVuSans-97"/>
      <use x="936.023438" xlink:href="#DejaVuSans-108"/>
      <use x="963.806641" xlink:href="#DejaVuSans-117"/>
      <use x="1027.185547" xlink:href="#DejaVuSans-101"/>
     </g>
    </g>
   </g>
   <g id="line2d_14">
    <path clip-path="url(#p48dfe76a01)" d="M 103.11 80.189091 
L 109.47549 80.189091 
L 110.271176 85.676434 
L 115.045294 85.676434 
L 115.84098 161.584685 
L 116.636667 209.69521 
L 117.432353 207.755386 
L 118.228039 202.268042 
L 119.023725 202.268042 
L 119.819412 213.449708 
L 121.410784 213.449708 
L 122.206471 198.207087 
L 123.002157 122.298836 
L 123.797843 144.934128 
L 125.389216 137.88241 
L 126.184902 137.88241 
L 126.980588 139.711525 
L 127.776275 136.053296 
L 128.571961 149.466802 
L 129.367647 149.466802 
L 130.163333 151.753195 
L 130.95902 146.265852 
L 131.754706 146.265852 
L 132.550392 143.979458 
L 133.346078 116.542741 
L 134.141765 116.542741 
L 134.937451 171.004625 
L 138.915882 171.004625 
L 139.711569 157.286266 
L 140.507255 130.2611 
L 141.302941 132.547493 
L 142.098627 117.228659 
L 142.894314 117.685938 
L 144.485686 117.685938 
L 145.281373 119.2102 
L 146.077059 119.2102 
L 146.872745 125.55113 
L 147.668431 125.55113 
L 148.464118 128.11189 
L 149.259804 94.273272 
L 153.238235 94.273272 
L 154.033922 86.956814 
L 154.829608 83.298586 
L 155.625294 83.298586 
L 156.42098 80.189091 
L 159.603725 80.189091 
L 160.399412 81.380422 
L 161.195098 144.063121 
L 161.990784 144.063121 
L 162.786471 122.294252 
L 163.582157 122.294252 
L 164.377843 129.519254 
L 165.173529 186.630947 
L 165.969216 186.630947 
L 166.764902 177.929817 
L 167.560588 175.506241 
L 168.356275 175.506241 
L 169.151961 205.947932 
L 169.947647 206.130843 
L 170.743333 207.091128 
L 171.53902 203.661539 
L 172.334706 204.957161 
L 173.130392 208.61539 
L 173.926078 156.028349 
L 174.721765 156.028349 
L 175.517451 153.58953 
L 176.313137 125.89151 
L 177.108824 125.89151 
L 177.90451 142.35568 
L 178.700196 142.35568 
L 179.495882 135.953779 
L 180.291569 135.953779 
L 181.087255 135.664208 
L 181.882941 134.488348 
L 183.474314 134.488348 
L 184.27 143.372619 
L 185.065686 136.056161 
L 185.861373 109.010709 
L 186.657059 102.515047 
L 187.452745 92.454917 
L 188.248431 101.60049 
L 189.044118 106.173276 
L 189.839804 106.173276 
L 190.63549 104.882136 
L 191.431176 99.394793 
L 193.022549 99.394793 
L 193.818235 90.249221 
L 194.613922 85.917107 
L 197.796667 85.859346 
L 199.388039 91.346689 
L 200.183725 96.230249 
L 200.979412 91.657463 
L 201.775098 91.657463 
L 202.570784 88.652489 
L 203.366471 88.652489 
L 204.162157 91.701013 
L 204.957843 108.205028 
L 205.753529 91.238788 
L 206.549216 92.086439 
L 207.344902 92.086439 
L 208.140588 86.176035 
L 208.936275 98.513736 
L 209.731961 99.291421 
L 210.527647 99.291421 
L 211.323333 143.605311 
L 212.11902 163.202966 
L 212.914706 164.913872 
L 213.710392 164.913872 
L 214.506078 145.316217 
L 215.301765 150.16897 
L 216.097451 150.16897 
L 216.893137 145.347324 
L 217.688824 145.347324 
L 218.48451 144.725177 
L 219.280196 144.725177 
L 220.075882 110.210114 
L 220.871569 130.345079 
L 221.667255 134.58387 
L 222.462941 137.860588 
L 223.258627 136.717392 
L 224.054314 116.489164 
L 224.85 116.489164 
L 225.645686 145.476569 
L 227.237059 145.476569 
L 228.032745 146.067459 
L 228.828431 136.382989 
L 229.624118 135.420792 
L 230.419804 159.554941 
L 231.21549 133.134399 
L 234.398235 133.134399 
L 235.193922 148.37702 
L 235.989608 149.926745 
L 236.785294 149.926745 
L 237.58098 119.787927 
L 238.376667 102.327183 
L 239.172353 104.193626 
L 239.968039 94.830302 
L 240.763725 89.023589 
L 241.559412 89.239065 
L 243.150784 89.239065 
L 243.946471 84.947763 
L 244.742157 84.722793 
L 245.537843 84.722793 
L 246.333529 81.633129 
L 247.924902 81.633129 
L 248.720588 90.658365 
L 249.516275 90.658365 
L 250.311961 92.613832 
L 251.107647 83.680475 
L 251.903333 82.253196 
L 253.494706 82.253196 
L 254.290392 83.999746 
L 255.086078 84.108622 
L 255.881765 123.553201 
L 256.677451 119.63367 
L 257.473137 140.967861 
L 259.06451 140.967861 
L 259.860196 211.678631 
L 260.655882 210.897876 
L 261.451569 210.897876 
L 262.247255 351.970909 
L 263.042941 309.101038 
L 263.838627 172.122926 
L 264.634314 138.73667 
L 270.204118 138.73667 
L 270.999804 135.540636 
L 271.79549 135.540636 
L 272.591176 142.466561 
L 273.386863 101.52876 
L 274.182549 112.337164 
L 274.978235 103.191591 
L 275.773922 103.191591 
L 276.569608 102.290891 
L 277.365294 111.725547 
L 278.16098 119.248306 
L 278.956667 120.694944 
L 279.752353 147.792936 
L 280.548039 150.393084 
L 281.343725 147.104196 
L 282.139412 162.53477 
L 282.935098 153.998903 
L 283.730784 132.049529 
L 284.526471 132.049529 
L 285.322157 103.725139 
L 286.117843 103.725139 
L 286.913529 87.976082 
L 289.300588 87.976082 
L 290.096275 88.330036 
L 291.687647 88.330036 
L 292.483333 82.564564 
L 293.27902 82.677682 
L 295.666078 82.677682 
L 296.461765 82.802112 
L 300.440196 82.802112 
L 301.235882 82.939639 
L 306.01 82.939639 
L 306.805686 83.092447 
L 317.149608 83.092447 
L 317.945294 83.455367 
L 318.74098 80.189091 
L 342.611569 80.189091 
L 343.407255 113.978152 
L 348.181373 113.978152 
L 348.977059 80.189091 
L 352.159804 80.189091 
L 352.95549 82.475484 
L 357.729608 82.475484 
L 358.525294 82.315968 
L 360.912353 82.315968 
L 361.708039 80.189091 
L 386.374314 80.189091 
L 387.17 83.854725 
L 391.148431 83.854725 
L 391.944118 84.771134 
L 392.739804 80.189091 
L 395.922549 80.189091 
L 396.718235 94.479048 
L 397.513922 94.479048 
L 398.309608 138.840044 
L 400.696667 138.840044 
L 401.492353 231.016967 
L 403.083725 231.016967 
L 403.879412 152.815695 
L 407.062157 152.815695 
L 407.857843 104.030756 
L 408.653529 104.030756 
L 409.449216 80.189091 
L 508.91 80.189091 
L 508.91 80.189091 
" style="fill:none;stroke:#1f77b4;stroke-linecap:square;stroke-width:1.5;"/>
   </g>
   <g id="line2d_15">
    <path clip-path="url(#p48dfe76a01)" d="M 103.11 80.189091 
L 104.701373 80.189091 
L 105.497059 91.163778 
L 109.47549 91.163778 
L 110.271176 80.189091 
L 113.453922 80.189091 
L 114.249608 85.06673 
L 115.045294 94.212302 
L 115.84098 99.699645 
L 116.636667 98.32781 
L 117.432353 97.641892 
L 122.206471 97.641892 
L 123.002157 113.189365 
L 123.797843 104.043792 
L 124.593529 104.043792 
L 125.389216 109.454923 
L 126.184902 106.711251 
L 126.980588 120.124757 
L 127.776275 112.808299 
L 128.571961 107.930661 
L 129.367647 115.247118 
L 130.163333 127.136363 
L 130.95902 132.623706 
L 131.754706 115.551971 
L 132.550392 115.551971 
L 133.346078 110.064627 
L 134.937451 110.064627 
L 135.733137 107.549595 
L 136.528824 106.223487 
L 137.32451 106.223487 
L 138.120196 102.565258 
L 139.711569 102.565258 
L 140.507255 125.886468 
L 141.302941 125.886468 
L 142.098627 117.045748 
L 142.894314 117.045748 
L 143.69 121.161255 
L 144.485686 121.161255 
L 145.281373 112.93024 
L 147.668431 112.93024 
L 148.464118 114.302076 
L 149.259804 86.865359 
L 150.851176 86.773903 
L 151.646863 90.432132 
L 154.829608 90.432132 
L 155.625294 89.151752 
L 156.42098 89.151752 
L 157.216667 85.493523 
L 159.603725 85.493523 
L 160.399412 80.189091 
L 161.990784 80.189091 
L 162.786471 129.575182 
L 163.582157 129.575182 
L 164.377843 138.949394 
L 165.173529 138.949394 
L 165.969216 83.03438 
L 166.764902 84.131849 
L 168.356275 84.131849 
L 169.151961 83.03438 
L 169.947647 86.875521 
L 171.53902 86.875521 
L 172.334706 94.191978 
L 173.130392 86.875521 
L 173.926078 88.818955 
L 174.721765 88.818955 
L 175.517451 93.14677 
L 176.313137 94.649257 
L 177.108824 94.649257 
L 177.90451 117.934366 
L 178.700196 117.284014 
L 179.495882 117.284014 
L 180.291569 143.326031 
L 181.087255 139.484891 
L 181.882941 143.326031 
L 182.678627 141.496917 
L 183.474314 143.097392 
L 184.27 119.812283 
L 185.861373 119.812283 
L 186.657059 144.04805 
L 187.452745 144.04805 
L 188.248431 146.85189 
L 189.044118 146.85189 
L 189.839804 146.2117 
L 190.63549 122.433212 
L 191.431176 122.158845 
L 192.226863 122.158845 
L 193.022549 91.412301 
L 193.818235 87.427158 
L 194.613922 87.396673 
L 195.409608 86.590992 
L 196.205294 89.779106 
L 197.00098 97.878897 
L 197.796667 97.878897 
L 198.592353 90.987628 
L 199.388039 92.098162 
L 200.183725 92.801667 
L 200.979412 92.801667 
L 201.775098 92.098162 
L 204.957843 92.098162 
L 205.753529 99.981004 
L 206.549216 100.38492 
L 207.344902 108.643932 
L 208.140588 104.786616 
L 208.936275 104.786616 
L 209.731961 105.753167 
L 210.527647 102.031156 
L 211.323333 96.7429 
L 212.11902 93.489722 
L 212.914706 96.569353 
L 213.710392 100.768851 
L 214.506078 100.768851 
L 215.301765 109.634457 
L 216.097451 105.808248 
L 218.48451 105.808248 
L 219.280196 94.809564 
L 220.871569 94.809564 
L 221.667255 102.648626 
L 222.462941 109.085496 
L 223.258627 107.815277 
L 224.054314 116.297649 
L 224.85 108.993893 
L 225.645686 109.606762 
L 227.237059 109.606762 
L 228.032745 110.246276 
L 228.828431 110.246276 
L 229.624118 107.455311 
L 230.419804 109.233617 
L 231.21549 104.660831 
L 232.011176 103.840876 
L 232.806863 95.305008 
L 233.602549 157.291666 
L 235.193922 157.291666 
L 235.989608 159.043997 
L 236.785294 149.733548 
L 237.58098 168.960035 
L 238.376667 173.187223 
L 239.172353 175.661674 
L 239.968039 174.05823 
L 240.763725 174.05823 
L 241.559412 176.776688 
L 242.355098 177.371522 
L 243.150784 177.371522 
L 243.946471 202.660048 
L 244.742157 137.417544 
L 245.537843 150.315146 
L 246.333529 139.964929 
L 247.129216 166.360038 
L 247.924902 159.24013 
L 248.720588 159.24013 
L 249.516275 158.788868 
L 250.311961 158.788868 
L 251.903333 107.42469 
L 252.69902 165.219627 
L 254.290392 165.219627 
L 255.086078 170.262092 
L 255.881765 168.955581 
L 256.677451 168.955581 
L 257.473137 168.404578 
L 258.268824 168.404578 
L 259.06451 159.716756 
L 259.860196 96.274067 
L 260.655882 128.886924 
L 261.451569 117.613736 
L 262.247255 114.755745 
L 263.042941 114.755745 
L 263.838627 115.870798 
L 264.634314 121.771167 
L 265.43 121.771167 
L 266.225686 129.068992 
L 267.021373 129.068992 
L 267.817059 146.356039 
L 268.612745 146.356039 
L 269.408431 111.54386 
L 270.204118 111.54386 
L 270.999804 104.773963 
L 271.79549 91.989829 
L 272.591176 92.383187 
L 273.386863 92.383187 
L 274.182549 80.189091 
L 277.365294 80.189091 
L 278.16098 112.85185 
L 278.956667 114.061581 
L 279.752353 115.909172 
L 280.548039 117.283021 
L 281.343725 151.690839 
L 282.139412 162.665526 
L 282.935098 176.167279 
L 284.526471 176.167279 
L 285.322157 180.16637 
L 286.117843 180.16637 
L 286.913529 169.83739 
L 287.709216 171.651157 
L 288.504902 114.988371 
L 289.300588 114.988371 
L 290.096275 101.831424 
L 290.891961 101.831424 
L 291.687647 96.635076 
L 292.483333 96.635076 
L 293.27902 97.418219 
L 294.074706 97.418219 
L 294.870392 84.353115 
L 295.666078 82.366608 
L 297.257451 82.475484 
L 298.053137 80.189091 
L 298.848824 80.189091 
L 299.64451 81.560927 
L 306.01 81.633129 
L 307.601373 81.713353 
L 308.397059 80.189091 
L 317.149608 80.189091 
L 317.945294 81.560927 
L 326.697843 81.652382 
L 327.493529 81.877504 
L 328.289216 81.877504 
L 329.084902 82.12188 
L 331.471961 82.12188 
L 332.267647 89.846953 
L 333.063333 89.846953 
L 333.85902 82.282946 
L 334.654706 82.701717 
L 335.450392 82.701717 
L 337.041765 83.329873 
L 337.837451 80.586201 
L 338.633137 80.189091 
L 347.385686 80.189091 
L 348.181373 82.366608 
L 348.977059 82.366608 
L 349.772745 82.729528 
L 356.138235 82.729528 
L 356.933922 82.366608 
L 360.912353 82.366608 
L 361.708039 80.189091 
L 388.761373 80.189091 
L 389.557059 129.242616 
L 390.352745 80.189091 
L 393.53549 80.189091 
L 394.331176 95.578275 
L 400.696667 95.578275 
L 401.492353 80.189091 
L 508.91 80.189091 
L 508.91 80.189091 
" style="fill:none;stroke:#ff7f0e;stroke-linecap:square;stroke-width:1.5;"/>
   </g>
   <g id="line2d_16">
    <path clip-path="url(#p48dfe76a01)" d="M 103.11 80.189091 
L 103.905686 80.189091 
L 104.701373 91.163778 
L 111.066863 91.163778 
L 111.862549 111.466949 
L 112.658235 100.492262 
L 114.249608 100.492262 
L 115.045294 103.235933 
L 115.84098 103.235933 
L 116.636667 96.651121 
L 120.615098 96.651121 
L 121.410784 82.932763 
L 122.206471 82.932763 
L 123.002157 99.178187 
L 123.797843 85.676434 
L 124.593529 85.676434 
L 125.389216 98.480236 
L 126.184902 98.480236 
L 126.980588 112.655873 
L 127.776275 112.655873 
L 128.571961 117.960305 
L 129.367647 128.934992 
L 130.163333 128.934992 
L 130.95902 144.177613 
L 131.754706 156.981414 
L 132.550392 156.981414 
L 133.346078 134.425544 
L 134.141765 133.002365 
L 134.937451 144.647727 
L 135.733137 160.645946 
L 136.528824 169.029388 
L 137.32451 172.382764 
L 138.120196 172.562409 
L 138.915882 172.562409 
L 139.711569 149.3283 
L 140.507255 148.713152 
L 141.302941 151.783451 
L 142.098627 148.430074 
L 143.69 148.430074 
L 144.485686 143.125642 
L 145.281373 116.701471 
L 146.077059 110.00274 
L 146.872745 110.00274 
L 147.668431 99.028053 
L 148.464118 93.227835 
L 149.259804 91.39872 
L 150.05549 88.524398 
L 150.851176 95.612216 
L 151.646863 95.612216 
L 152.442549 88.496319 
L 153.238235 83.84732 
L 159.603725 83.84732 
L 160.399412 80.189091 
L 161.195098 91.621056 
L 161.990784 91.621056 
L 162.786471 96.193843 
L 165.173529 96.193843 
L 165.969216 91.621056 
L 166.764902 91.621056 
L 167.560588 82.018205 
L 168.356275 82.018205 
L 169.151961 82.932763 
L 169.947647 111.398357 
L 170.743333 113.227471 
L 171.53902 123.744879 
L 173.926078 123.744879 
L 174.721765 132.832748 
L 175.517451 134.966715 
L 176.313137 135.251244 
L 177.108824 135.251244 
L 177.90451 135.860948 
L 178.700196 131.593015 
L 179.495882 101.274056 
L 180.291569 116.983793 
L 181.087255 98.646519 
L 182.678627 98.646519 
L 183.474314 108.883324 
L 184.27 108.883324 
L 185.065686 100.652309 
L 185.861373 108.883324 
L 186.657059 120.772568 
L 187.452745 127.022043 
L 188.248431 122.106298 
L 189.044118 133.219554 
L 189.839804 136.898148 
L 190.63549 136.898148 
L 191.431176 124.704051 
L 192.226863 127.523936 
L 193.022549 127.523936 
L 193.818235 124.763636 
L 194.613922 111.959834 
L 195.409608 114.742014 
L 196.205294 102.641415 
L 197.00098 101.726858 
L 197.796667 94.410456 
L 198.592353 105.814107 
L 199.388039 91.361932 
L 200.183725 91.361932 
L 201.775098 91.69727 
L 202.570784 91.69727 
L 203.366471 87.663838 
L 204.162157 86.819631 
L 205.753529 86.819631 
L 206.549216 88.121475 
L 208.140588 88.121475 
L 208.936275 86.099495 
L 209.731961 86.099495 
L 210.527647 88.199244 
L 211.323333 89.293366 
L 212.11902 88.671218 
L 214.506078 88.671218 
L 215.301765 93.337326 
L 216.097451 91.704188 
L 216.893137 112.141743 
L 217.688824 89.277812 
L 218.48451 86.167073 
L 219.280196 87.3336 
L 220.075882 87.3336 
L 220.871569 86.239478 
L 221.667255 88.520687 
L 222.462941 87.635746 
L 223.258627 85.349353 
L 224.054314 111.921988 
L 224.85 87.676694 
L 225.645686 90.430493 
L 226.441373 92.719748 
L 228.032745 90.175582 
L 228.828431 96.591943 
L 229.624118 95.686232 
L 230.419804 95.686232 
L 231.21549 93.627141 
L 233.602549 93.627141 
L 234.398235 91.236142 
L 235.193922 91.236142 
L 235.989608 91.487211 
L 236.785294 91.487211 
L 237.58098 111.784876 
L 238.376667 92.025217 
L 239.968039 92.025217 
L 240.763725 95.944748 
L 241.559412 98.373774 
L 243.946471 98.373774 
L 244.742157 102.488847 
L 245.537843 102.488847 
L 246.333529 103.075683 
L 247.129216 103.075683 
L 247.924902 118.719425 
L 248.720588 118.719425 
L 249.516275 115.453149 
L 250.311961 119.888408 
L 251.107647 118.798558 
L 251.903333 126.246446 
L 252.69902 111.672361 
L 253.494706 111.672361 
L 254.290392 115.341881 
L 255.086078 116.346246 
L 255.881765 116.346246 
L 256.677451 112.571883 
L 257.473137 118.076413 
L 258.268824 100.59223 
L 259.06451 108.661853 
L 259.860196 111.797115 
L 263.042941 111.797115 
L 263.838627 112.816728 
L 264.634314 146.375079 
L 265.43 139.983012 
L 266.225686 139.983012 
L 267.021373 164.076187 
L 269.408431 164.076187 
L 270.204118 129.235911 
L 271.79549 129.235911 
L 272.591176 158.72323 
L 274.978235 158.72323 
L 275.773922 170.501618 
L 276.569608 149.161949 
L 277.365294 115.667605 
L 278.16098 116.934694 
L 278.956667 148.780884 
L 279.752353 117.44883 
L 280.548039 97.77673 
L 281.343725 98.480236 
L 282.139412 98.480236 
L 282.935098 114.942266 
L 283.730784 114.942266 
L 284.526471 124.087838 
L 285.322157 116.390315 
L 286.117843 116.390315 
L 286.913529 117.964281 
L 289.300588 117.964281 
L 290.096275 122.452721 
L 292.483333 122.452721 
L 293.27902 124.465275 
L 295.666078 124.465275 
L 296.461765 126.679084 
L 300.440196 126.679084 
L 301.235882 129.125926 
L 303.622941 129.125926 
L 304.418627 125.916953 
L 305.214314 80.189091 
L 314.762549 80.189091 
L 315.558235 87.447482 
L 316.353922 80.189091 
L 320.332353 80.189091 
L 321.128039 114.519011 
L 322.719412 114.519011 
L 323.515098 115.501162 
L 325.106471 115.501162 
L 325.902157 126.090772 
L 326.697843 126.090772 
L 327.493529 92.407872 
L 328.289216 80.189091 
L 330.676275 80.189091 
L 331.471961 88.334945 
L 332.267647 89.013766 
L 333.85902 89.013766 
L 334.654706 90.778701 
L 335.450392 90.778701 
L 336.246078 91.955324 
L 337.041765 93.426104 
L 342.611569 93.426104 
L 343.407255 95.317105 
L 344.998627 95.317105 
L 345.794314 80.189091 
L 349.772745 80.189091 
L 350.568431 82.660867 
L 353.751176 82.660867 
L 354.546863 82.419718 
L 360.912353 82.419718 
L 361.708039 80.189091 
L 391.148431 80.189091 
L 391.944118 96.193843 
L 396.718235 96.193843 
L 397.513922 80.189091 
L 399.90098 80.189091 
L 400.696667 84.165427 
L 401.492353 85.490872 
L 402.288039 102.036847 
L 403.083725 155.131976 
L 407.062157 155.131976 
L 407.857843 80.189091 
L 508.91 80.189091 
L 508.91 80.189091 
" style="fill:none;stroke:#2ca02c;stroke-linecap:square;stroke-width:1.5;"/>
   </g>
   <g id="line2d_17">
    <path clip-path="url(#p48dfe76a01)" d="M 103.11 80.189091 
L 111.066863 80.189091 
L 112.658235 96.651121 
L 115.84098 96.651121 
L 116.636667 88.420106 
L 117.432353 88.420106 
L 118.228039 102.138465 
L 121.410784 102.138465 
L 122.206471 147.766619 
L 123.002157 147.766619 
L 123.797843 152.339406 
L 124.593529 152.339406 
L 125.389216 154.066664 
L 126.184902 110.36948 
L 126.980588 99.089941 
L 130.163333 99.089941 
L 130.95902 96.651121 
L 132.550392 96.651121 
L 133.346078 116.771381 
L 134.141765 129.346543 
L 134.937451 108.86046 
L 135.733137 108.86046 
L 136.528824 94.070763 
L 139.711569 94.070763 
L 140.507255 81.495601 
L 141.302941 88.812059 
L 142.098627 87.505549 
L 142.894314 80.189091 
L 143.69 91.506737 
L 146.077059 91.506737 
L 146.872745 95.68757 
L 149.259804 95.68757 
L 150.05549 115.69351 
L 150.851176 123.924525 
L 151.646863 121.142746 
L 152.442549 121.469374 
L 153.238235 113.238359 
L 154.033922 155.003139 
L 154.829608 107.751015 
L 156.42098 107.751015 
L 157.216667 137.931404 
L 158.012353 133.423944 
L 161.990784 133.423944 
L 162.786471 138.911287 
L 163.582157 207.44211 
L 165.969216 207.44211 
L 166.764902 187.43617 
L 167.560588 163.352829 
L 168.356275 161.889538 
L 169.151961 156.402194 
L 169.947647 156.402194 
L 170.743333 180.079065 
L 173.130392 180.079065 
L 173.926078 179.113699 
L 174.721765 171.61433 
L 176.313137 171.61433 
L 177.108824 101.498275 
L 178.700196 101.498275 
L 179.495882 101.357372 
L 181.087255 101.357372 
L 181.882941 114.161173 
L 182.678627 111.284037 
L 184.27 111.284037 
L 185.065686 94.456184 
L 185.861373 94.456184 
L 186.657059 81.652382 
L 188.248431 81.652382 
L 189.044118 105.295724 
L 189.839804 108.268035 
L 190.63549 122.138819 
L 191.431176 108.268035 
L 192.226863 84.624694 
L 193.818235 84.624694 
L 194.613922 81.652382 
L 197.796667 81.652382 
L 198.592353 83.473183 
L 199.388039 101.992967 
L 200.183725 101.992967 
L 200.979412 84.126438 
L 201.775098 81.840045 
L 202.570784 82.571691 
L 203.366471 82.571691 
L 204.162157 85.201043 
L 204.957843 92.415883 
L 205.753529 91.418184 
L 206.549216 90.980763 
L 207.344902 101.583198 
L 208.140588 100.83662 
L 208.936275 109.50225 
L 209.731961 106.819238 
L 210.527647 106.819238 
L 212.11902 109.712225 
L 217.688824 109.712225 
L 218.48451 116.011471 
L 219.280196 98.046954 
L 220.075882 98.580224 
L 220.871569 98.580224 
L 221.667255 98.046954 
L 222.462941 98.418993 
L 224.85 98.418993 
L 225.645686 114.095814 
L 226.441373 81.745784 
L 227.237059 81.745784 
L 228.032745 80.189091 
L 232.011176 80.189091 
L 232.806863 88.685738 
L 233.602549 80.189091 
L 240.763725 80.189091 
L 241.559412 80.587417 
L 243.946471 80.587417 
L 244.742157 87.6429 
L 245.537843 90.456922 
L 246.333529 90.727128 
L 247.129216 90.727128 
L 247.924902 90.297355 
L 248.720588 121.705176 
L 249.516275 93.426104 
L 250.311961 102.570093 
L 251.903333 103.813482 
L 253.494706 103.813482 
L 254.290392 129.217849 
L 255.086078 130.618671 
L 256.677451 130.618671 
L 257.473137 104.920007 
L 258.268824 110.299755 
L 259.06451 110.299755 
L 259.860196 112.181672 
L 260.655882 101.323185 
L 261.451569 101.323185 
L 262.247255 115.255893 
L 263.042941 115.255893 
L 263.838627 116.38708 
L 265.43 116.38708 
L 266.225686 113.242804 
L 267.021373 104.702796 
L 267.817059 108.495891 
L 271.79549 108.495891 
L 272.591176 109.439451 
L 273.386863 94.577896 
L 274.182549 90.20567 
L 276.569608 90.20567 
L 278.956667 91.318623 
L 279.752353 91.318623 
L 280.548039 84.711627 
L 281.343725 80.189091 
L 284.526471 80.189091 
L 285.322157 107.340009 
L 286.117843 107.340009 
L 286.913529 108.520484 
L 289.300588 108.520484 
L 290.096275 109.808274 
L 292.483333 109.808274 
L 293.27902 111.218712 
L 295.666078 111.218712 
L 296.461765 80.189091 
L 298.053137 80.189091 
L 298.848824 109.15007 
L 300.440196 109.15007 
L 301.235882 80.189091 
L 312.37549 80.189091 
L 313.171176 94.845457 
L 317.149608 94.845457 
L 317.945294 96.677503 
L 318.74098 81.508164 
L 321.128039 81.459309 
L 326.697843 81.543991 
L 327.493529 81.752437 
L 328.289216 81.752437 
L 329.084902 81.596102 
L 330.676275 81.596102 
L 331.471961 132.600256 
L 332.267647 136.967853 
L 333.85902 136.967853 
L 334.654706 82.018205 
L 335.450392 82.018205 
L 337.041765 82.475484 
L 342.611569 82.475484 
L 343.407255 82.802112 
L 348.977059 82.802112 
L 349.772745 83.237615 
L 350.568431 83.237615 
L 351.364118 82.59582 
L 352.95549 82.59582 
L 353.751176 80.189091 
L 407.857843 80.189091 
L 408.653529 114.051776 
L 409.449216 80.189091 
L 508.91 80.189091 
L 508.91 80.189091 
" style="fill:none;stroke:#d62728;stroke-linecap:square;stroke-width:1.5;"/>
   </g>
   <g id="line2d_18">
    <path clip-path="url(#p48dfe76a01)" d="M 103.11 80.189091 
L 111.862549 80.189091 
L 112.658235 85.676434 
L 113.453922 114.220247 
L 114.249608 108.732904 
L 115.045294 108.732904 
L 115.84098 89.71974 
L 116.636667 138.183251 
L 117.432353 143.147131 
L 118.228039 166.197584 
L 120.615098 166.197584 
L 121.410784 142.493303 
L 124.593529 142.493303 
L 125.389216 106.145669 
L 126.184902 113.143236 
L 126.980588 80.189091 
L 127.776275 80.189091 
L 128.571961 89.334663 
L 129.367647 89.334663 
L 130.163333 102.331003 
L 130.95902 99.908229 
L 132.550392 117.154165 
L 133.346078 114.816199 
L 134.141765 101.881747 
L 134.937451 98.704864 
L 135.733137 104.107972 
L 136.528824 104.107972 
L 137.32451 103.342632 
L 138.120196 103.342632 
L 138.915882 94.068127 
L 139.711569 94.068127 
L 140.507255 95.693243 
L 141.302941 93.414872 
L 142.098627 93.414872 
L 142.894314 82.841307 
L 143.69 80.189091 
L 144.485686 85.483896 
L 145.281373 85.483896 
L 146.077059 111.472564 
L 146.872745 106.177759 
L 147.668431 106.177759 
L 148.464118 100.690416 
L 149.259804 100.520402 
L 150.05549 95.947616 
L 150.851176 119.178573 
L 152.442549 119.178573 
L 153.238235 117.138407 
L 154.033922 117.138407 
L 154.829608 118.997605 
L 158.808039 118.997605 
L 159.603725 120.359127 
L 161.195098 120.359127 
L 161.990784 81.550612 
L 162.786471 81.550612 
L 163.582157 124.438533 
L 164.377843 135.41322 
L 165.173529 139.649064 
L 165.969216 139.649064 
L 166.764902 128.674377 
L 167.560588 127.312856 
L 168.356275 127.312856 
L 169.151961 162.715848 
L 169.947647 119.827927 
L 170.743333 93.955584 
L 171.53902 93.955584 
L 172.334706 89.71974 
L 173.130392 84.296576 
L 174.721765 84.296576 
L 175.517451 85.071314 
L 176.313137 85.071314 
L 177.108824 96.644675 
L 177.90451 96.644675 
L 178.700196 96.453808 
L 179.495882 91.571585 
L 180.291569 91.571585 
L 181.087255 122.307928 
L 181.882941 122.359807 
L 182.678627 137.778921 
L 185.861373 137.778921 
L 186.657059 107.042577 
L 189.839804 107.050235 
L 190.63549 129.004766 
L 191.431176 143.257419 
L 192.226863 123.719588 
L 193.022549 123.719588 
L 193.818235 104.081534 
L 194.613922 104.081534 
L 195.409608 91.839303 
L 196.205294 91.839303 
L 197.00098 95.324548 
L 197.796667 98.279272 
L 199.388039 98.279272 
L 200.183725 98.676382 
L 200.979412 98.279272 
L 201.775098 93.315392 
L 202.570784 97.209517 
L 203.366471 110.671158 
L 204.162157 112.728912 
L 204.957843 105.096735 
L 205.753529 105.46029 
L 206.549216 122.681443 
L 207.344902 122.681443 
L 208.140588 121.958128 
L 208.936275 121.958128 
L 209.731961 102.74569 
L 212.914706 102.74569 
L 213.710392 99.253477 
L 214.506078 118.303829 
L 216.097451 118.303829 
L 217.688824 132.661409 
L 218.48451 113.211105 
L 219.280196 118.482269 
L 220.075882 115.610818 
L 220.871569 120.356741 
L 221.667255 125.866023 
L 222.462941 128.591336 
L 223.258627 131.909781 
L 224.054314 131.909781 
L 224.85 134.45565 
L 225.645686 121.631658 
L 226.441373 146.400489 
L 227.237059 120.208103 
L 228.032745 119.325354 
L 228.828431 95.744636 
L 229.624118 96.090315 
L 230.419804 113.739665 
L 231.21549 113.739665 
L 232.011176 112.766277 
L 234.398235 112.766277 
L 235.193922 104.866092 
L 235.989608 99.322591 
L 236.785294 98.239563 
L 237.58098 98.841245 
L 238.376667 99.729443 
L 240.763725 99.729443 
L 241.559412 111.505926 
L 243.946471 111.505926 
L 244.742157 113.111917 
L 245.537843 113.111917 
L 246.333529 101.786322 
L 249.516275 101.786322 
L 250.311961 120.137635 
L 251.107647 110.956201 
L 251.903333 111.810843 
L 252.69902 140.145627 
L 253.494706 89.013766 
L 254.290392 89.013766 
L 255.086078 80.189091 
L 259.860196 80.189091 
L 260.655882 87.945153 
L 261.451569 87.945153 
L 262.247255 103.014074 
L 263.042941 100.354852 
L 263.838627 101.005361 
L 265.43 101.005361 
L 266.225686 88.195349 
L 267.021373 88.195349 
L 267.817059 91.956403 
L 268.612745 83.950145 
L 269.408431 83.950145 
L 270.204118 91.694811 
L 270.999804 98.099817 
L 271.79549 98.099817 
L 272.591176 98.696841 
L 274.182549 98.696841 
L 274.978235 103.269628 
L 276.569608 103.269628 
L 277.365294 84.919559 
L 278.956667 85.269964 
L 279.752353 80.189091 
L 280.548039 116.845434 
L 281.343725 136.314025 
L 283.730784 136.314025 
L 284.526471 98.191428 
L 285.322157 98.941526 
L 286.117843 124.257551 
L 286.913529 106.605813 
L 288.504902 106.523596 
L 289.300588 170.165897 
L 290.096275 174.255752 
L 290.891961 106.517254 
L 292.483333 106.517254 
L 293.27902 107.770976 
L 295.666078 107.770976 
L 296.461765 109.15007 
L 297.257451 109.15007 
L 298.053137 80.189091 
L 311.579804 80.189091 
L 312.37549 152.218273 
L 317.149608 152.218273 
L 317.945294 109.972369 
L 322.719412 109.972369 
L 323.515098 94.308571 
L 325.106471 94.308571 
L 325.902157 94.529188 
L 326.697843 94.529188 
L 327.493529 96.735357 
L 328.289216 96.735357 
L 329.084902 100.808284 
L 329.880588 80.443649 
L 330.676275 90.218674 
L 331.471961 90.218674 
L 332.267647 92.88327 
L 333.063333 92.88327 
L 333.85902 144.454137 
L 334.654706 95.09118 
L 335.450392 95.09118 
L 336.246078 94.308571 
L 337.041765 96.073506 
L 337.837451 80.189091 
L 338.633137 82.26763 
L 342.611569 82.26763 
L 343.407255 82.564564 
L 348.977059 82.564564 
L 349.772745 80.189091 
L 383.987255 80.189091 
L 384.782941 84.001351 
L 391.148431 84.001351 
L 391.944118 80.189091 
L 394.331176 80.189091 
L 395.126863 84.601428 
L 397.513922 84.601428 
L 398.309608 80.189091 
L 403.083725 80.189091 
L 403.879412 148.780884 
L 405.470784 148.780884 
L 406.266471 88.821925 
L 407.062157 88.821925 
L 407.857843 93.138342 
L 408.653529 93.138342 
L 409.449216 80.189091 
L 508.91 80.189091 
L 508.91 80.189091 
" style="fill:none;stroke:#9467bd;stroke-linecap:square;stroke-width:1.5;"/>
   </g>
   <g id="line2d_19">
    <path clip-path="url(#p48dfe76a01)" d="M 103.11 80.189091 
L 107.884118 80.189091 
L 108.679804 84.304598 
L 109.47549 84.304598 
L 111.066863 113.57043 
L 111.862549 118.143216 
L 114.249608 118.143216 
L 115.045294 114.027709 
L 119.819412 114.027709 
L 120.615098 128.179279 
L 122.206471 128.179279 
L 123.002157 155.311144 
L 123.797843 144.336457 
L 125.389216 144.336457 
L 126.184902 149.70948 
L 126.980588 149.70948 
L 127.776275 150.966997 
L 128.571961 150.966997 
L 129.367647 201.398296 
L 130.163333 243.467929 
L 130.95902 197.740067 
L 131.754706 197.740067 
L 132.550392 198.523973 
L 133.346078 206.694018 
L 134.141765 182.000972 
L 134.937451 141.028808 
L 135.733137 150.17438 
L 136.528824 150.17438 
L 137.32451 145.601594 
L 138.915882 145.601594 
L 139.711569 147.461194 
L 140.507255 147.461194 
L 141.302941 140.754441 
L 142.098627 132.752065 
L 142.894314 119.719624 
L 143.69 111.969955 
L 146.077059 111.969955 
L 146.872745 109.531136 
L 147.668431 108.769005 
L 148.464118 108.769005 
L 149.259804 99.623432 
L 150.05549 106.253972 
L 150.851176 106.253972 
L 151.646863 98.32781 
L 152.442549 101.071481 
L 153.238235 101.071481 
L 154.033922 99.013727 
L 154.829608 96.270056 
L 155.625294 102.671956 
L 156.42098 102.671956 
L 157.216667 105.415628 
L 158.012353 92.383187 
L 158.808039 84.533238 
L 159.603725 85.676434 
L 160.399412 133.538263 
L 161.990784 133.538263 
L 162.786471 130.794592 
L 163.582157 130.794592 
L 164.377843 133.995542 
L 165.173529 130.997827 
L 167.560588 130.997827 
L 168.356275 134.046351 
L 169.151961 118.956156 
L 169.947647 121.699828 
L 170.743333 121.699828 
L 171.53902 160.720937 
L 172.334706 160.720937 
L 173.130392 125.205631 
L 173.926078 125.002396 
L 174.721765 125.002396 
L 175.517451 136.89164 
L 176.313137 141.464426 
L 177.108824 141.464426 
L 177.90451 167.072029 
L 178.700196 165.242914 
L 179.495882 164.328357 
L 180.291569 170.272979 
L 181.882941 170.272979 
L 182.678627 144.874762 
L 185.065686 144.874762 
L 185.861373 156.345235 
L 186.657059 182.562543 
L 187.452745 182.562543 
L 188.248431 154.973399 
L 189.044118 154.973399 
L 189.839804 108.788259 
L 191.431176 108.788259 
L 192.226863 107.090959 
L 193.022549 122.838746 
L 193.818235 122.838746 
L 194.613922 116.581249 
L 195.409608 116.973202 
L 199.388039 116.973202 
L 200.183725 115.144088 
L 201.775098 115.144088 
L 202.570784 116.93662 
L 203.366471 116.225297 
L 204.162157 111.443126 
L 204.957843 114.20473 
L 205.753529 113.881945 
L 206.549216 90.713461 
L 207.344902 90.713461 
L 208.140588 122.286292 
L 208.936275 125.90097 
L 210.527647 125.90097 
L 211.323333 119.058514 
L 212.11902 91.528475 
L 212.914706 89.454649 
L 213.710392 89.221344 
L 214.506078 80.889007 
L 215.301765 80.889007 
L 216.097451 87.732633 
L 216.893137 88.027334 
L 217.688824 89.631821 
L 218.48451 92.431486 
L 219.280196 83.983374 
L 220.075882 83.983374 
L 220.871569 85.849817 
L 221.667255 86.255032 
L 222.462941 88.459945 
L 224.054314 88.459945 
L 224.85 90.402389 
L 225.645686 93.052026 
L 226.441373 88.18736 
L 227.237059 88.18736 
L 228.032745 88.361236 
L 228.828431 85.876026 
L 229.624118 86.002402 
L 230.419804 86.002402 
L 231.21549 98.880593 
L 233.602549 98.880593 
L 234.398235 117.316906 
L 235.193922 117.316906 
L 235.989608 118.16072 
L 236.785294 103.572657 
L 237.58098 164.369928 
L 238.376667 105.774918 
L 239.172353 105.774918 
L 239.968039 113.940608 
L 240.763725 113.940608 
L 241.559412 114.763816 
L 242.355098 105.841306 
L 243.150784 105.841306 
L 243.946471 101.380051 
L 244.742157 102.466767 
L 245.537843 97.77673 
L 246.333529 97.276871 
L 247.129216 97.276871 
L 247.924902 103.02628 
L 248.720588 94.362054 
L 249.516275 111.660423 
L 250.311961 111.660423 
L 251.107647 88.937878 
L 251.903333 89.1809 
L 253.494706 89.1809 
L 254.290392 100.512585 
L 255.086078 101.093256 
L 255.881765 101.093256 
L 256.677451 136.155104 
L 257.473137 137.801163 
L 258.268824 107.087833 
L 259.06451 147.884259 
L 259.860196 152.115207 
L 260.655882 136.396255 
L 261.451569 136.396255 
L 262.247255 132.109268 
L 263.042941 132.109268 
L 263.838627 133.523802 
L 267.021373 133.523802 
L 267.817059 88.779334 
L 270.999804 88.779334 
L 271.79549 99.365291 
L 272.591176 100.004498 
L 276.569608 100.004498 
L 277.365294 106.206668 
L 278.16098 111.218712 
L 278.956667 112.367957 
L 279.752353 116.884289 
L 280.548039 118.295643 
L 281.343725 117.99079 
L 282.935098 117.99079 
L 283.730784 103.967579 
L 284.526471 117.685938 
L 285.322157 123.603341 
L 286.117843 123.603341 
L 286.913529 120.946533 
L 288.504902 120.946533 
L 289.300588 118.295643 
L 290.096275 120.027759 
L 290.891961 120.027759 
L 291.687647 102.360176 
L 293.27902 104.447397 
L 294.074706 81.220546 
L 295.666078 81.220546 
L 296.461765 80.189091 
L 304.418627 80.189091 
L 305.214314 85.00255 
L 306.01 85.00255 
L 306.805686 80.189091 
L 325.106471 80.189091 
L 325.902157 81.450549 
L 326.697843 80.189091 
L 338.633137 80.189091 
L 339.428824 82.206497 
L 341.815882 82.206497 
L 342.611569 80.189091 
L 345.794314 80.189091 
L 346.59 82.428823 
L 348.977059 82.428823 
L 349.772745 82.802112 
L 351.364118 82.802112 
L 352.159804 82.534109 
L 360.116667 82.534109 
L 360.912353 82.22144 
L 361.708039 80.189091 
L 404.675098 80.189091 
L 405.470784 123.458466 
L 406.266471 123.458466 
L 407.062157 188.440164 
L 407.857843 177.661639 
L 408.653529 177.661639 
L 409.449216 80.189091 
L 508.91 80.189091 
L 508.91 80.189091 
" style="fill:none;stroke:#8c564b;stroke-linecap:square;stroke-width:1.5;"/>
   </g>
   <g id="line2d_20">
    <path clip-path="url(#p48dfe76a01)" d="M 103.11 80.189091 
L 106.292745 80.189091 
L 107.088431 110.36948 
L 107.884118 80.189091 
L 108.679804 80.189091 
L 109.47549 87.505549 
L 118.228039 87.505549 
L 119.023725 133.089007 
L 119.819412 133.089007 
L 120.615098 146.350087 
L 121.410784 146.350087 
L 122.206471 141.777301 
L 123.797843 141.777301 
L 124.593529 144.782275 
L 126.184902 144.782275 
L 126.980588 151.184175 
L 130.95902 151.184175 
L 131.754706 161.858021 
L 132.550392 169.784184 
L 133.346078 167.642194 
L 134.141765 177.702324 
L 134.937451 167.028478 
L 135.733137 167.028478 
L 136.528824 169.975385 
L 137.32451 159.915255 
L 138.120196 87.985863 
L 138.915882 87.757224 
L 139.711569 91.415453 
L 142.098627 91.415453 
L 142.894314 85.023179 
L 147.668431 85.023179 
L 148.464118 82.018205 
L 149.259804 85.036244 
L 150.05549 87.027485 
L 150.851176 89.53163 
L 151.646863 97.814418 
L 152.442549 101.211345 
L 153.238235 108.527803 
L 159.603725 108.527803 
L 160.399412 103.236436 
L 161.195098 103.236436 
L 161.990784 120.841663 
L 162.786471 126.329006 
L 163.582157 126.329006 
L 164.377843 121.474818 
L 165.969216 121.474818 
L 166.764902 124.218489 
L 167.560588 116.292327 
L 168.356275 128.05092 
L 169.151961 177.010217 
L 169.947647 179.753889 
L 170.743333 129.880034 
L 171.53902 129.880034 
L 172.334706 114.027709 
L 173.130392 114.027709 
L 173.926078 115.508421 
L 174.721765 115.508421 
L 175.517451 116.248776 
L 176.313137 116.248776 
L 177.108824 114.289011 
L 177.90451 92.339637 
L 178.700196 91.42508 
L 179.495882 91.42508 
L 180.291569 84.108622 
L 181.087255 89.595965 
L 181.882941 89.595965 
L 182.678627 85.676434 
L 183.474314 85.676434 
L 184.27 95.206354 
L 185.065686 95.206354 
L 185.861373 120.819974 
L 186.657059 116.472545 
L 189.839804 116.472545 
L 190.63549 134.76369 
L 191.431176 140.892828 
L 192.226863 117.419192 
L 194.613922 117.419192 
L 195.409608 109.5234 
L 197.00098 109.5234 
L 197.796667 109.218547 
L 199.388039 109.218547 
L 200.183725 111.047662 
L 200.979412 111.047662 
L 201.775098 112.419498 
L 202.570784 119.278677 
L 203.366471 112.419498 
L 204.162157 111.276301 
L 204.957843 111.276301 
L 205.753529 87.136135 
L 206.549216 97.276715 
L 208.140588 97.276715 
L 208.936275 96.091672 
L 209.731961 103.090834 
L 210.527647 99.605286 
L 211.323333 103.151529 
L 212.11902 102.39741 
L 212.914706 97.500353 
L 213.710392 98.445854 
L 214.506078 97.512632 
L 215.301765 98.01035 
L 216.893137 98.01035 
L 217.688824 97.310434 
L 218.48451 94.199695 
L 219.280196 86.255032 
L 220.075882 86.255032 
L 220.871569 94.334767 
L 221.667255 95.579062 
L 222.462941 95.899687 
L 223.258627 95.899687 
L 224.054314 90.985947 
L 224.85 91.224113 
L 225.645686 87.323935 
L 226.441373 87.323935 
L 227.237059 92.581188 
L 228.032745 92.850581 
L 228.828431 92.850581 
L 229.624118 93.131948 
L 232.011176 93.131948 
L 232.806863 85.68 
L 233.602549 110.745643 
L 235.193922 110.745643 
L 235.989608 85.804793 
L 236.785294 85.804793 
L 237.58098 114.557919 
L 238.376667 116.194529 
L 239.172353 158.856676 
L 239.968039 158.856676 
L 240.763725 163.211711 
L 242.355098 181.824498 
L 243.150784 174.853788 
L 243.946471 174.853788 
L 244.742157 179.708388 
L 245.537843 179.903806 
L 246.333529 182.527877 
L 247.924902 182.527877 
L 248.720588 182.928999 
L 249.516275 162.82014 
L 250.311961 162.82014 
L 251.107647 92.084514 
L 251.903333 92.414943 
L 252.69902 97.636952 
L 253.494706 95.992725 
L 254.290392 95.992725 
L 255.086078 96.444257 
L 256.677451 96.444257 
L 257.473137 96.92235 
L 258.268824 120.777288 
L 259.06451 120.777288 
L 259.860196 111.346211 
L 260.655882 111.346211 
L 261.451569 114.525726 
L 263.042941 114.525726 
L 263.838627 148.085391 
L 264.634314 139.623019 
L 271.79549 139.733651 
L 272.591176 141.71847 
L 273.386863 145.224272 
L 274.182549 145.224272 
L 274.978235 134.554438 
L 275.773922 134.554438 
L 276.569608 144.716185 
L 278.16098 149.325263 
L 278.956667 146.96306 
L 279.752353 146.96306 
L 281.343725 152.304978 
L 282.139412 80.189091 
L 282.935098 80.189091 
L 283.730784 88.420106 
L 284.526471 88.420106 
L 285.322157 89.109488 
L 286.117843 89.109488 
L 286.913529 89.497332 
L 287.709216 116.564319 
L 289.300588 116.564319 
L 290.096275 118.217739 
L 290.891961 108.864312 
L 291.687647 109.947341 
L 292.483333 109.947341 
L 293.27902 110.229799 
L 294.074706 110.229799 
L 294.870392 80.585003 
L 295.666078 80.189091 
L 297.257451 80.189091 
L 298.053137 85.905074 
L 300.440196 85.905074 
L 301.235882 86.205915 
L 306.01 86.205915 
L 306.805686 85.632884 
L 310.784118 85.632884 
L 311.579804 121.891845 
L 313.966863 121.891845 
L 314.762549 85.632884 
L 315.558235 80.189091 
L 321.923725 80.189091 
L 322.719412 161.641845 
L 323.515098 80.189091 
L 329.084902 80.189091 
L 329.880588 81.550715 
L 331.471961 81.550715 
L 332.267647 81.664183 
L 333.85902 81.664183 
L 334.654706 81.959202 
L 335.450392 81.959202 
L 336.246078 80.189091 
L 508.91 80.189091 
L 508.91 80.189091 
" style="fill:none;stroke:#e377c2;stroke-linecap:square;stroke-width:1.5;"/>
   </g>
   <g id="line2d_21">
    <path clip-path="url(#p48dfe76a01)" d="M 103.11 80.189091 
L 111.862549 80.189091 
L 112.658235 130.794592 
L 113.453922 130.794592 
L 114.249608 122.387083 
L 115.045294 122.387083 
L 115.84098 170.858617 
L 117.432353 170.858617 
L 118.228039 171.773174 
L 119.023725 160.976585 
L 120.615098 160.976585 
L 121.410784 167.012663 
L 122.206471 192.315413 
L 123.002157 186.279335 
L 123.797843 186.279335 
L 124.593529 196.94917 
L 125.389216 196.034613 
L 126.980588 122.387083 
L 127.776275 215.214643 
L 128.571961 228.933001 
L 129.367647 231.981526 
L 130.163333 230.60969 
L 130.95902 230.60969 
L 131.754706 238.840705 
L 132.550392 275.270568 
L 133.346078 144.055672 
L 134.141765 120.505823 
L 134.937451 123.821093 
L 137.32451 123.78098 
L 138.120196 123.78098 
L 138.915882 120.46571 
L 139.711569 123.209382 
L 140.507255 112.234695 
L 141.302941 111.091499 
L 142.098627 100.116812 
L 142.894314 95.668738 
L 143.69 95.668738 
L 144.485686 94.906607 
L 145.281373 94.906607 
L 146.077059 92.162935 
L 146.872745 92.162935 
L 147.668431 100.461339 
L 148.464118 100.461339 
L 149.259804 137.500907 
L 151.646863 137.500907 
L 152.442549 136.11784 
L 153.238235 154.336783 
L 154.829608 154.336783 
L 156.42098 136.322047 
L 157.216667 89.75183 
L 158.012353 92.800354 
L 158.808039 122.066186 
L 159.603725 131.211758 
L 160.399412 131.211758 
L 161.195098 142.186445 
L 161.990784 144.015559 
L 162.786471 144.015559 
L 163.582157 121.151628 
L 164.377843 138.063918 
L 165.173529 140.121671 
L 165.969216 173.045732 
L 166.764902 173.045732 
L 167.560588 153.84003 
L 168.356275 151.782276 
L 171.53902 151.782276 
L 172.334706 192.480074 
L 173.130392 186.99273 
L 173.926078 186.99273 
L 174.721765 142.219537 
L 175.517451 113.543531 
L 176.313137 113.543531 
L 177.108824 148.074996 
L 177.90451 148.074996 
L 178.700196 115.150935 
L 180.291569 115.150935 
L 181.087255 83.05829 
L 181.882941 113.734581 
L 183.474314 113.734581 
L 184.27 150.21258 
L 185.065686 154.876821 
L 185.861373 156.888847 
L 186.657059 154.876821 
L 187.452745 157.529037 
L 188.248431 157.529037 
L 189.044118 150.21258 
L 189.839804 148.524166 
L 190.63549 137.549479 
L 192.226863 137.549479 
L 193.022549 146.695052 
L 193.818235 176.875441 
L 196.205294 176.875441 
L 197.00098 148.93331 
L 197.796667 149.978518 
L 198.592353 123.456358 
L 199.388039 127.349759 
L 200.183725 123.365471 
L 200.979412 84.80164 
L 201.775098 93.032656 
L 202.570784 95.384374 
L 203.366471 92.640703 
L 204.162157 92.640703 
L 204.957843 93.776798 
L 205.753529 93.776798 
L 206.549216 94.054099 
L 208.140588 98.853524 
L 208.936275 94.187416 
L 209.731961 86.721643 
L 210.527647 87.38823 
L 211.323333 89.876821 
L 212.11902 101.808726 
L 212.914706 101.808726 
L 213.710392 114.87383 
L 214.506078 118.517838 
L 215.301765 118.357857 
L 216.097451 133.600478 
L 216.893137 123.535016 
L 217.688824 135.526914 
L 218.48451 149.735214 
L 219.280196 146.935549 
L 220.075882 148.257613 
L 220.871569 148.724224 
L 221.667255 136.592342 
L 222.462941 137.76741 
L 223.258627 179.781017 
L 224.054314 179.781017 
L 224.85 168.156848 
L 225.645686 170.028502 
L 226.441373 169.542036 
L 227.237059 169.542036 
L 228.032745 178.234948 
L 228.828431 164.317772 
L 229.624118 166.187299 
L 230.419804 163.900905 
L 231.21549 163.900905 
L 232.011176 162.783113 
L 232.806863 149.608497 
L 233.602549 162.115263 
L 234.398235 141.791769 
L 235.193922 141.791769 
L 235.989608 147.348908 
L 236.785294 131.647943 
L 237.58098 131.647943 
L 238.376667 105.155531 
L 239.172353 95.628893 
L 239.968039 100.22225 
L 240.763725 94.052617 
L 241.559412 93.052376 
L 242.355098 93.052376 
L 243.150784 92.401776 
L 243.946471 92.401776 
L 244.742157 93.028068 
L 245.537843 93.028068 
L 246.333529 93.365935 
L 247.129216 93.365935 
L 247.924902 118.939548 
L 248.720588 118.939548 
L 249.516275 130.285559 
L 250.311961 136.302383 
L 251.903333 139.419788 
L 252.69902 142.9764 
L 253.494706 142.9764 
L 254.290392 95.976091 
L 255.086078 150.216736 
L 256.677451 150.216736 
L 257.473137 137.482064 
L 258.268824 152.468506 
L 259.06451 137.482064 
L 259.860196 141.062875 
L 261.451569 141.062875 
L 262.247255 97.29451 
L 263.042941 91.757151 
L 263.838627 92.130314 
L 264.634314 97.7263 
L 265.43 107.08149 
L 266.225686 97.247542 
L 267.817059 97.247542 
L 268.612745 92.789485 
L 269.408431 96.174434 
L 270.204118 101.007117 
L 271.79549 101.007117 
L 272.591176 98.203271 
L 273.386863 116.494416 
L 274.182549 114.099147 
L 274.978235 114.593863 
L 275.773922 112.416346 
L 276.569608 94.125201 
L 277.365294 103.452941 
L 278.16098 109.602235 
L 278.956667 92.626283 
L 279.752353 92.626283 
L 280.548039 87.377083 
L 281.343725 87.664602 
L 284.526471 87.664602 
L 285.322157 100.04461 
L 286.117843 100.04461 
L 286.913529 126.091354 
L 289.300588 126.091354 
L 290.096275 128.17782 
L 292.483333 128.17782 
L 293.27902 130.462998 
L 294.074706 102.881113 
L 295.666078 102.881113 
L 296.461765 80.189091 
L 323.515098 80.189091 
L 324.310784 123.599361 
L 325.106471 119.212492 
L 325.902157 119.212492 
L 326.697843 116.375989 
L 327.493529 121.943204 
L 331.471961 121.943204 
L 332.267647 106.437485 
L 333.063333 106.437485 
L 333.85902 105.00849 
L 334.654706 109.972369 
L 335.450392 80.189091 
L 359.32098 80.189091 
L 360.116667 82.26763 
L 360.912353 82.26763 
L 361.708039 80.189091 
L 394.331176 80.189091 
L 395.126863 95.008305 
L 395.922549 80.189091 
L 398.309608 80.189091 
L 399.105294 98.241045 
L 399.90098 93.986291 
L 400.696667 93.986291 
L 401.492353 98.585357 
L 403.879412 98.585357 
L 404.675098 80.189091 
L 508.91 80.189091 
L 508.91 80.189091 
" style="fill:none;stroke:#7f7f7f;stroke-linecap:square;stroke-width:1.5;"/>
   </g>
   <g id="patch_3">
    <path d="M 82.82 365.56 
L 82.82 66.6 
" style="fill:none;stroke:#000000;stroke-linecap:square;stroke-linejoin:miter;stroke-width:0.8;"/>
   </g>
   <g id="patch_4">
    <path d="M 529.2 365.56 
L 529.2 66.6 
" style="fill:none;stroke:#000000;stroke-linecap:square;stroke-linejoin:miter;stroke-width:0.8;"/>
   </g>
   <g id="patch_5">
    <path d="M 82.82 365.56 
L 529.2 365.56 
" style="fill:none;stroke:#000000;stroke-linecap:square;stroke-linejoin:miter;stroke-width:0.8;"/>
   </g>
   <g id="patch_6">
    <path d="M 82.82 66.6 
L 529.2 66.6 
" style="fill:none;stroke:#000000;stroke-linecap:square;stroke-linejoin:miter;stroke-width:0.8;"/>
   </g>
   <g id="legend_1">
    <g id="patch_7">
     <path d="M 93.32 59.1 
L 518.7 59.1 
Q 521.7 59.1 521.7 56.1 
L 521.7 13.565625 
Q 521.7 10.565625 518.7 10.565625 
L 93.32 10.565625 
Q 90.32 10.565625 90.32 13.565625 
L 90.32 56.1 
Q 90.32 59.1 93.32 59.1 
z
" style="fill:#ffffff;opacity:0.8;stroke:#cccccc;stroke-linejoin:miter;"/>
    </g>
    <g id="line2d_22">
     <path d="M 96.32 22.713281 
L 126.32 22.713281 
" style="fill:none;stroke:#1f77b4;stroke-linecap:square;stroke-width:1.5;"/>
    </g>
    <g id="line2d_23"/>
    <g id="text_16">
     <!-- Stra 1 -->
     <defs>
      <path d="M 53.515625 70.515625 
L 53.515625 60.890625 
Q 47.90625 63.578125 42.921875 64.890625 
Q 37.9375 66.21875 33.296875 66.21875 
Q 25.25 66.21875 20.875 63.09375 
Q 16.5 59.96875 16.5 54.203125 
Q 16.5 49.359375 19.40625 46.890625 
Q 22.3125 44.4375 30.421875 42.921875 
L 36.375 41.703125 
Q 47.40625 39.59375 52.65625 34.296875 
Q 57.90625 29 57.90625 20.125 
Q 57.90625 9.515625 50.796875 4.046875 
Q 43.703125 -1.421875 29.984375 -1.421875 
Q 24.8125 -1.421875 18.96875 -0.25 
Q 13.140625 0.921875 6.890625 3.21875 
L 6.890625 13.375 
Q 12.890625 10.015625 18.65625 8.296875 
Q 24.421875 6.59375 29.984375 6.59375 
Q 38.421875 6.59375 43.015625 9.90625 
Q 47.609375 13.234375 47.609375 19.390625 
Q 47.609375 24.75 44.3125 27.78125 
Q 41.015625 30.8125 33.5 32.328125 
L 27.484375 33.5 
Q 16.453125 35.6875 11.515625 40.375 
Q 6.59375 45.0625 6.59375 53.421875 
Q 6.59375 63.09375 13.40625 68.65625 
Q 20.21875 74.21875 32.171875 74.21875 
Q 37.3125 74.21875 42.625 73.28125 
Q 47.953125 72.359375 53.515625 70.515625 
z
" id="DejaVuSans-83"/>
      <path d="M 41.109375 46.296875 
Q 39.59375 47.171875 37.8125 47.578125 
Q 36.03125 48 33.890625 48 
Q 26.265625 48 22.1875 43.046875 
Q 18.109375 38.09375 18.109375 28.8125 
L 18.109375 0 
L 9.078125 0 
L 9.078125 54.6875 
L 18.109375 54.6875 
L 18.109375 46.1875 
Q 20.953125 51.171875 25.484375 53.578125 
Q 30.03125 56 36.53125 56 
Q 37.453125 56 38.578125 55.875 
Q 39.703125 55.765625 41.0625 55.515625 
z
" id="DejaVuSans-114"/>
     </defs>
     <g transform="translate(138.32 27.963281)scale(0.15 -0.15)">
      <use xlink:href="#DejaVuSans-83"/>
      <use x="63.476562" xlink:href="#DejaVuSans-116"/>
      <use x="102.685547" xlink:href="#DejaVuSans-114"/>
      <use x="143.798828" xlink:href="#DejaVuSans-97"/>
      <use x="205.078125" xlink:href="#DejaVuSans-32"/>
      <use x="236.865234" xlink:href="#DejaVuSans-49"/>
     </g>
    </g>
    <g id="line2d_24">
     <path d="M 96.32 44.730469 
L 126.32 44.730469 
" style="fill:none;stroke:#ff7f0e;stroke-linecap:square;stroke-width:1.5;"/>
    </g>
    <g id="line2d_25"/>
    <g id="text_17">
     <!-- Stra 2 -->
     <g transform="translate(138.32 49.980469)scale(0.15 -0.15)">
      <use xlink:href="#DejaVuSans-83"/>
      <use x="63.476562" xlink:href="#DejaVuSans-116"/>
      <use x="102.685547" xlink:href="#DejaVuSans-114"/>
      <use x="143.798828" xlink:href="#DejaVuSans-97"/>
      <use x="205.078125" xlink:href="#DejaVuSans-32"/>
      <use x="236.865234" xlink:href="#DejaVuSans-50"/>
     </g>
    </g>
    <g id="line2d_26">
     <path d="M 207.089115 22.713281 
L 237.089115 22.713281 
" style="fill:none;stroke:#2ca02c;stroke-linecap:square;stroke-width:1.5;"/>
    </g>
    <g id="line2d_27"/>
    <g id="text_18">
     <!-- Stra 3 -->
     <g transform="translate(249.089115 27.963281)scale(0.15 -0.15)">
      <use xlink:href="#DejaVuSans-83"/>
      <use x="63.476562" xlink:href="#DejaVuSans-116"/>
      <use x="102.685547" xlink:href="#DejaVuSans-114"/>
      <use x="143.798828" xlink:href="#DejaVuSans-97"/>
      <use x="205.078125" xlink:href="#DejaVuSans-32"/>
      <use x="236.865234" xlink:href="#DejaVuSans-51"/>
     </g>
    </g>
    <g id="line2d_28">
     <path d="M 207.089115 44.730469 
L 237.089115 44.730469 
" style="fill:none;stroke:#d62728;stroke-linecap:square;stroke-width:1.5;"/>
    </g>
    <g id="line2d_29"/>
    <g id="text_19">
     <!-- Stra 4 -->
     <g transform="translate(249.089115 49.980469)scale(0.15 -0.15)">
      <use xlink:href="#DejaVuSans-83"/>
      <use x="63.476562" xlink:href="#DejaVuSans-116"/>
      <use x="102.685547" xlink:href="#DejaVuSans-114"/>
      <use x="143.798828" xlink:href="#DejaVuSans-97"/>
      <use x="205.078125" xlink:href="#DejaVuSans-32"/>
      <use x="236.865234" xlink:href="#DejaVuSans-52"/>
     </g>
    </g>
    <g id="line2d_30">
     <path d="M 317.858229 22.713281 
L 347.858229 22.713281 
" style="fill:none;stroke:#9467bd;stroke-linecap:square;stroke-width:1.5;"/>
    </g>
    <g id="line2d_31"/>
    <g id="text_20">
     <!-- Stra 5 -->
     <g transform="translate(359.858229 27.963281)scale(0.15 -0.15)">
      <use xlink:href="#DejaVuSans-83"/>
      <use x="63.476562" xlink:href="#DejaVuSans-116"/>
      <use x="102.685547" xlink:href="#DejaVuSans-114"/>
      <use x="143.798828" xlink:href="#DejaVuSans-97"/>
      <use x="205.078125" xlink:href="#DejaVuSans-32"/>
      <use x="236.865234" xlink:href="#DejaVuSans-53"/>
     </g>
    </g>
    <g id="line2d_32">
     <path d="M 317.858229 44.730469 
L 347.858229 44.730469 
" style="fill:none;stroke:#8c564b;stroke-linecap:square;stroke-width:1.5;"/>
    </g>
    <g id="line2d_33"/>
    <g id="text_21">
     <!-- Stra 6 -->
     <g transform="translate(359.858229 49.980469)scale(0.15 -0.15)">
      <use xlink:href="#DejaVuSans-83"/>
      <use x="63.476562" xlink:href="#DejaVuSans-116"/>
      <use x="102.685547" xlink:href="#DejaVuSans-114"/>
      <use x="143.798828" xlink:href="#DejaVuSans-97"/>
      <use x="205.078125" xlink:href="#DejaVuSans-32"/>
      <use x="236.865234" xlink:href="#DejaVuSans-54"/>
     </g>
    </g>
    <g id="line2d_34">
     <path d="M 428.627344 22.713281 
L 458.627344 22.713281 
" style="fill:none;stroke:#e377c2;stroke-linecap:square;stroke-width:1.5;"/>
    </g>
    <g id="line2d_35"/>
    <g id="text_22">
     <!-- Stra 7 -->
     <g transform="translate(470.627344 27.963281)scale(0.15 -0.15)">
      <use xlink:href="#DejaVuSans-83"/>
      <use x="63.476562" xlink:href="#DejaVuSans-116"/>
      <use x="102.685547" xlink:href="#DejaVuSans-114"/>
      <use x="143.798828" xlink:href="#DejaVuSans-97"/>
      <use x="205.078125" xlink:href="#DejaVuSans-32"/>
      <use x="236.865234" xlink:href="#DejaVuSans-55"/>
     </g>
    </g>
    <g id="line2d_36">
     <path d="M 428.627344 44.730469 
L 458.627344 44.730469 
" style="fill:none;stroke:#7f7f7f;stroke-linecap:square;stroke-width:1.5;"/>
    </g>
    <g id="line2d_37"/>
    <g id="text_23">
     <!-- Stra 8 -->
     <g transform="translate(470.627344 49.980469)scale(0.15 -0.15)">
      <use xlink:href="#DejaVuSans-83"/>
      <use x="63.476562" xlink:href="#DejaVuSans-116"/>
      <use x="102.685547" xlink:href="#DejaVuSans-114"/>
      <use x="143.798828" xlink:href="#DejaVuSans-97"/>
      <use x="205.078125" xlink:href="#DejaVuSans-32"/>
      <use x="236.865234" xlink:href="#DejaVuSans-56"/>
     </g>
    </g>
   </g>
  </g>
 </g>
 <defs>
  <clipPath id="p48dfe76a01">
   <rect height="298.96" width="446.38" x="82.82" y="66.6"/>
  </clipPath>
 </defs>
</svg>
