<?xml version="1.0" encoding="utf-8" standalone="no"?>
<!DOCTYPE svg PUBLIC "-//W3C//DTD SVG 1.1//EN"
  "http://www.w3.org/Graphics/SVG/1.1/DTD/svg11.dtd">
<!-- Created with matplotlib (https://matplotlib.org/) -->
<svg height="432pt" version="1.1" viewBox="0 0 540 432" width="540pt" xmlns="http://www.w3.org/2000/svg" xmlns:xlink="http://www.w3.org/1999/xlink">
 <defs>
  <style type="text/css">
*{stroke-linecap:butt;stroke-linejoin:round;}
  </style>
 </defs>
 <g id="figure_1">
  <g id="patch_1">
   <path d="M 0 432 
L 540 432 
L 540 0 
L 0 0 
z
" style="fill:#ffffff;"/>
  </g>
  <g id="axes_1">
   <g id="patch_2">
    <path d="M 51.05 365.56 
L 518.497449 365.56 
L 518.497449 88.5 
L 51.05 88.5 
z
" style="fill:#ffffff;"/>
   </g>
   <g id="matplotlib.axis_1">
    <g id="xtick_1">
     <g id="line2d_1">
      <defs>
       <path d="M 0 0 
L 0 3.5 
" id="m03b7ebfefd" style="stroke:#000000;stroke-width:0.8;"/>
      </defs>
      <g>
       <use style="stroke:#000000;stroke-width:0.8;" x="72.297611" xlink:href="#m03b7ebfefd" y="365.56"/>
      </g>
     </g>
     <g id="text_1">
      <!-- 0 -->
      <defs>
       <path d="M 31.78125 66.40625 
Q 24.171875 66.40625 20.328125 58.90625 
Q 16.5 51.421875 16.5 36.375 
Q 16.5 21.390625 20.328125 13.890625 
Q 24.171875 6.390625 31.78125 6.390625 
Q 39.453125 6.390625 43.28125 13.890625 
Q 47.125 21.390625 47.125 36.375 
Q 47.125 51.421875 43.28125 58.90625 
Q 39.453125 66.40625 31.78125 66.40625 
z
M 31.78125 74.21875 
Q 44.046875 74.21875 50.515625 64.515625 
Q 56.984375 54.828125 56.984375 36.375 
Q 56.984375 17.96875 50.515625 8.265625 
Q 44.046875 -1.421875 31.78125 -1.421875 
Q 19.53125 -1.421875 13.0625 8.265625 
Q 6.59375 17.96875 6.59375 36.375 
Q 6.59375 54.828125 13.0625 64.515625 
Q 19.53125 74.21875 31.78125 74.21875 
z
" id="DejaVuSans-48"/>
      </defs>
      <g transform="translate(65.935111 387.756875)scale(0.2 -0.2)">
       <use xlink:href="#DejaVuSans-48"/>
      </g>
     </g>
    </g>
    <g id="xtick_2">
     <g id="line2d_2">
      <g>
       <use style="stroke:#000000;stroke-width:0.8;" x="135.723317" xlink:href="#m03b7ebfefd" y="365.56"/>
      </g>
     </g>
     <g id="text_2">
      <!-- 10 -->
      <defs>
       <path d="M 12.40625 8.296875 
L 28.515625 8.296875 
L 28.515625 63.921875 
L 10.984375 60.40625 
L 10.984375 69.390625 
L 28.421875 72.90625 
L 38.28125 72.90625 
L 38.28125 8.296875 
L 54.390625 8.296875 
L 54.390625 0 
L 12.40625 0 
z
" id="DejaVuSans-49"/>
      </defs>
      <g transform="translate(122.998317 387.756875)scale(0.2 -0.2)">
       <use xlink:href="#DejaVuSans-49"/>
       <use x="63.623047" xlink:href="#DejaVuSans-48"/>
      </g>
     </g>
    </g>
    <g id="xtick_3">
     <g id="line2d_3">
      <g>
       <use style="stroke:#000000;stroke-width:0.8;" x="199.149022" xlink:href="#m03b7ebfefd" y="365.56"/>
      </g>
     </g>
     <g id="text_3">
      <!-- 20 -->
      <defs>
       <path d="M 19.1875 8.296875 
L 53.609375 8.296875 
L 53.609375 0 
L 7.328125 0 
L 7.328125 8.296875 
Q 12.9375 14.109375 22.625 23.890625 
Q 32.328125 33.6875 34.8125 36.53125 
Q 39.546875 41.84375 41.421875 45.53125 
Q 43.3125 49.21875 43.3125 52.78125 
Q 43.3125 58.59375 39.234375 62.25 
Q 35.15625 65.921875 28.609375 65.921875 
Q 23.96875 65.921875 18.8125 64.3125 
Q 13.671875 62.703125 7.8125 59.421875 
L 7.8125 69.390625 
Q 13.765625 71.78125 18.9375 73 
Q 24.125 74.21875 28.421875 74.21875 
Q 39.75 74.21875 46.484375 68.546875 
Q 53.21875 62.890625 53.21875 53.421875 
Q 53.21875 48.921875 51.53125 44.890625 
Q 49.859375 40.875 45.40625 35.40625 
Q 44.1875 33.984375 37.640625 27.21875 
Q 31.109375 20.453125 19.1875 8.296875 
z
" id="DejaVuSans-50"/>
      </defs>
      <g transform="translate(186.424022 387.756875)scale(0.2 -0.2)">
       <use xlink:href="#DejaVuSans-50"/>
       <use x="63.623047" xlink:href="#DejaVuSans-48"/>
      </g>
     </g>
    </g>
    <g id="xtick_4">
     <g id="line2d_4">
      <g>
       <use style="stroke:#000000;stroke-width:0.8;" x="262.574728" xlink:href="#m03b7ebfefd" y="365.56"/>
      </g>
     </g>
     <g id="text_4">
      <!-- 30 -->
      <defs>
       <path d="M 40.578125 39.3125 
Q 47.65625 37.796875 51.625 33 
Q 55.609375 28.21875 55.609375 21.1875 
Q 55.609375 10.40625 48.1875 4.484375 
Q 40.765625 -1.421875 27.09375 -1.421875 
Q 22.515625 -1.421875 17.65625 -0.515625 
Q 12.796875 0.390625 7.625 2.203125 
L 7.625 11.71875 
Q 11.71875 9.328125 16.59375 8.109375 
Q 21.484375 6.890625 26.8125 6.890625 
Q 36.078125 6.890625 40.9375 10.546875 
Q 45.796875 14.203125 45.796875 21.1875 
Q 45.796875 27.640625 41.28125 31.265625 
Q 36.765625 34.90625 28.71875 34.90625 
L 20.21875 34.90625 
L 20.21875 43.015625 
L 29.109375 43.015625 
Q 36.375 43.015625 40.234375 45.921875 
Q 44.09375 48.828125 44.09375 54.296875 
Q 44.09375 59.90625 40.109375 62.90625 
Q 36.140625 65.921875 28.71875 65.921875 
Q 24.65625 65.921875 20.015625 65.03125 
Q 15.375 64.15625 9.8125 62.3125 
L 9.8125 71.09375 
Q 15.4375 72.65625 20.34375 73.4375 
Q 25.25 74.21875 29.59375 74.21875 
Q 40.828125 74.21875 47.359375 69.109375 
Q 53.90625 64.015625 53.90625 55.328125 
Q 53.90625 49.265625 50.4375 45.09375 
Q 46.96875 40.921875 40.578125 39.3125 
z
" id="DejaVuSans-51"/>
      </defs>
      <g transform="translate(249.849728 387.756875)scale(0.2 -0.2)">
       <use xlink:href="#DejaVuSans-51"/>
       <use x="63.623047" xlink:href="#DejaVuSans-48"/>
      </g>
     </g>
    </g>
    <g id="xtick_5">
     <g id="line2d_5">
      <g>
       <use style="stroke:#000000;stroke-width:0.8;" x="326.000433" xlink:href="#m03b7ebfefd" y="365.56"/>
      </g>
     </g>
     <g id="text_5">
      <!-- 40 -->
      <defs>
       <path d="M 37.796875 64.3125 
L 12.890625 25.390625 
L 37.796875 25.390625 
z
M 35.203125 72.90625 
L 47.609375 72.90625 
L 47.609375 25.390625 
L 58.015625 25.390625 
L 58.015625 17.1875 
L 47.609375 17.1875 
L 47.609375 0 
L 37.796875 0 
L 37.796875 17.1875 
L 4.890625 17.1875 
L 4.890625 26.703125 
z
" id="DejaVuSans-52"/>
      </defs>
      <g transform="translate(313.275433 387.756875)scale(0.2 -0.2)">
       <use xlink:href="#DejaVuSans-52"/>
       <use x="63.623047" xlink:href="#DejaVuSans-48"/>
      </g>
     </g>
    </g>
    <g id="xtick_6">
     <g id="line2d_6">
      <g>
       <use style="stroke:#000000;stroke-width:0.8;" x="389.426139" xlink:href="#m03b7ebfefd" y="365.56"/>
      </g>
     </g>
     <g id="text_6">
      <!-- 50 -->
      <defs>
       <path d="M 10.796875 72.90625 
L 49.515625 72.90625 
L 49.515625 64.59375 
L 19.828125 64.59375 
L 19.828125 46.734375 
Q 21.96875 47.46875 24.109375 47.828125 
Q 26.265625 48.1875 28.421875 48.1875 
Q 40.625 48.1875 47.75 41.5 
Q 54.890625 34.8125 54.890625 23.390625 
Q 54.890625 11.625 47.5625 5.09375 
Q 40.234375 -1.421875 26.90625 -1.421875 
Q 22.3125 -1.421875 17.546875 -0.640625 
Q 12.796875 0.140625 7.71875 1.703125 
L 7.71875 11.625 
Q 12.109375 9.234375 16.796875 8.0625 
Q 21.484375 6.890625 26.703125 6.890625 
Q 35.15625 6.890625 40.078125 11.328125 
Q 45.015625 15.765625 45.015625 23.390625 
Q 45.015625 31 40.078125 35.4375 
Q 35.15625 39.890625 26.703125 39.890625 
Q 22.75 39.890625 18.8125 39.015625 
Q 14.890625 38.140625 10.796875 36.28125 
z
" id="DejaVuSans-53"/>
      </defs>
      <g transform="translate(376.701139 387.756875)scale(0.2 -0.2)">
       <use xlink:href="#DejaVuSans-53"/>
       <use x="63.623047" xlink:href="#DejaVuSans-48"/>
      </g>
     </g>
    </g>
    <g id="xtick_7">
     <g id="line2d_7">
      <g>
       <use style="stroke:#000000;stroke-width:0.8;" x="452.851844" xlink:href="#m03b7ebfefd" y="365.56"/>
      </g>
     </g>
     <g id="text_7">
      <!-- 60 -->
      <defs>
       <path d="M 33.015625 40.375 
Q 26.375 40.375 22.484375 35.828125 
Q 18.609375 31.296875 18.609375 23.390625 
Q 18.609375 15.53125 22.484375 10.953125 
Q 26.375 6.390625 33.015625 6.390625 
Q 39.65625 6.390625 43.53125 10.953125 
Q 47.40625 15.53125 47.40625 23.390625 
Q 47.40625 31.296875 43.53125 35.828125 
Q 39.65625 40.375 33.015625 40.375 
z
M 52.59375 71.296875 
L 52.59375 62.3125 
Q 48.875 64.0625 45.09375 64.984375 
Q 41.3125 65.921875 37.59375 65.921875 
Q 27.828125 65.921875 22.671875 59.328125 
Q 17.53125 52.734375 16.796875 39.40625 
Q 19.671875 43.65625 24.015625 45.921875 
Q 28.375 48.1875 33.59375 48.1875 
Q 44.578125 48.1875 50.953125 41.515625 
Q 57.328125 34.859375 57.328125 23.390625 
Q 57.328125 12.15625 50.6875 5.359375 
Q 44.046875 -1.421875 33.015625 -1.421875 
Q 20.359375 -1.421875 13.671875 8.265625 
Q 6.984375 17.96875 6.984375 36.375 
Q 6.984375 53.65625 15.1875 63.9375 
Q 23.390625 74.21875 37.203125 74.21875 
Q 40.921875 74.21875 44.703125 73.484375 
Q 48.484375 72.75 52.59375 71.296875 
z
" id="DejaVuSans-54"/>
      </defs>
      <g transform="translate(440.126844 387.756875)scale(0.2 -0.2)">
       <use xlink:href="#DejaVuSans-54"/>
       <use x="63.623047" xlink:href="#DejaVuSans-48"/>
      </g>
     </g>
    </g>
    <g id="xtick_8">
     <g id="line2d_8">
      <g>
       <use style="stroke:#000000;stroke-width:0.8;" x="516.277549" xlink:href="#m03b7ebfefd" y="365.56"/>
      </g>
     </g>
     <g id="text_8">
      <!-- 70 -->
      <defs>
       <path d="M 8.203125 72.90625 
L 55.078125 72.90625 
L 55.078125 68.703125 
L 28.609375 0 
L 18.3125 0 
L 43.21875 64.59375 
L 8.203125 64.59375 
z
" id="DejaVuSans-55"/>
      </defs>
      <g transform="translate(503.552549 387.756875)scale(0.2 -0.2)">
       <use xlink:href="#DejaVuSans-55"/>
       <use x="63.623047" xlink:href="#DejaVuSans-48"/>
      </g>
     </g>
    </g>
    <g id="text_9">
     <!-- # of games -->
     <defs>
      <path d="M 51.125 44 
L 36.921875 44 
L 32.8125 27.6875 
L 47.125 27.6875 
z
M 43.796875 71.78125 
L 38.71875 51.515625 
L 52.984375 51.515625 
L 58.109375 71.78125 
L 65.921875 71.78125 
L 60.890625 51.515625 
L 76.125 51.515625 
L 76.125 44 
L 58.984375 44 
L 54.984375 27.6875 
L 70.515625 27.6875 
L 70.515625 20.21875 
L 53.078125 20.21875 
L 48 0 
L 40.1875 0 
L 45.21875 20.21875 
L 30.90625 20.21875 
L 25.875 0 
L 18.015625 0 
L 23.09375 20.21875 
L 7.71875 20.21875 
L 7.71875 27.6875 
L 24.90625 27.6875 
L 29 44 
L 13.28125 44 
L 13.28125 51.515625 
L 30.90625 51.515625 
L 35.890625 71.78125 
z
" id="DejaVuSans-35"/>
      <path id="DejaVuSans-32"/>
      <path d="M 30.609375 48.390625 
Q 23.390625 48.390625 19.1875 42.75 
Q 14.984375 37.109375 14.984375 27.296875 
Q 14.984375 17.484375 19.15625 11.84375 
Q 23.34375 6.203125 30.609375 6.203125 
Q 37.796875 6.203125 41.984375 11.859375 
Q 46.1875 17.53125 46.1875 27.296875 
Q 46.1875 37.015625 41.984375 42.703125 
Q 37.796875 48.390625 30.609375 48.390625 
z
M 30.609375 56 
Q 42.328125 56 49.015625 48.375 
Q 55.71875 40.765625 55.71875 27.296875 
Q 55.71875 13.875 49.015625 6.21875 
Q 42.328125 -1.421875 30.609375 -1.421875 
Q 18.84375 -1.421875 12.171875 6.21875 
Q 5.515625 13.875 5.515625 27.296875 
Q 5.515625 40.765625 12.171875 48.375 
Q 18.84375 56 30.609375 56 
z
" id="DejaVuSans-111"/>
      <path d="M 37.109375 75.984375 
L 37.109375 68.5 
L 28.515625 68.5 
Q 23.6875 68.5 21.796875 66.546875 
Q 19.921875 64.59375 19.921875 59.515625 
L 19.921875 54.6875 
L 34.71875 54.6875 
L 34.71875 47.703125 
L 19.921875 47.703125 
L 19.921875 0 
L 10.890625 0 
L 10.890625 47.703125 
L 2.296875 47.703125 
L 2.296875 54.6875 
L 10.890625 54.6875 
L 10.890625 58.5 
Q 10.890625 67.625 15.140625 71.796875 
Q 19.390625 75.984375 28.609375 75.984375 
z
" id="DejaVuSans-102"/>
      <path d="M 45.40625 27.984375 
Q 45.40625 37.75 41.375 43.109375 
Q 37.359375 48.484375 30.078125 48.484375 
Q 22.859375 48.484375 18.828125 43.109375 
Q 14.796875 37.75 14.796875 27.984375 
Q 14.796875 18.265625 18.828125 12.890625 
Q 22.859375 7.515625 30.078125 7.515625 
Q 37.359375 7.515625 41.375 12.890625 
Q 45.40625 18.265625 45.40625 27.984375 
z
M 54.390625 6.78125 
Q 54.390625 -7.171875 48.1875 -13.984375 
Q 42 -20.796875 29.203125 -20.796875 
Q 24.46875 -20.796875 20.265625 -20.09375 
Q 16.0625 -19.390625 12.109375 -17.921875 
L 12.109375 -9.1875 
Q 16.0625 -11.328125 19.921875 -12.34375 
Q 23.78125 -13.375 27.78125 -13.375 
Q 36.625 -13.375 41.015625 -8.765625 
Q 45.40625 -4.15625 45.40625 5.171875 
L 45.40625 9.625 
Q 42.625 4.78125 38.28125 2.390625 
Q 33.9375 0 27.875 0 
Q 17.828125 0 11.671875 7.65625 
Q 5.515625 15.328125 5.515625 27.984375 
Q 5.515625 40.671875 11.671875 48.328125 
Q 17.828125 56 27.875 56 
Q 33.9375 56 38.28125 53.609375 
Q 42.625 51.21875 45.40625 46.390625 
L 45.40625 54.6875 
L 54.390625 54.6875 
z
" id="DejaVuSans-103"/>
      <path d="M 34.28125 27.484375 
Q 23.390625 27.484375 19.1875 25 
Q 14.984375 22.515625 14.984375 16.5 
Q 14.984375 11.71875 18.140625 8.90625 
Q 21.296875 6.109375 26.703125 6.109375 
Q 34.1875 6.109375 38.703125 11.40625 
Q 43.21875 16.703125 43.21875 25.484375 
L 43.21875 27.484375 
z
M 52.203125 31.203125 
L 52.203125 0 
L 43.21875 0 
L 43.21875 8.296875 
Q 40.140625 3.328125 35.546875 0.953125 
Q 30.953125 -1.421875 24.3125 -1.421875 
Q 15.921875 -1.421875 10.953125 3.296875 
Q 6 8.015625 6 15.921875 
Q 6 25.140625 12.171875 29.828125 
Q 18.359375 34.515625 30.609375 34.515625 
L 43.21875 34.515625 
L 43.21875 35.40625 
Q 43.21875 41.609375 39.140625 45 
Q 35.0625 48.390625 27.6875 48.390625 
Q 23 48.390625 18.546875 47.265625 
Q 14.109375 46.140625 10.015625 43.890625 
L 10.015625 52.203125 
Q 14.9375 54.109375 19.578125 55.046875 
Q 24.21875 56 28.609375 56 
Q 40.484375 56 46.34375 49.84375 
Q 52.203125 43.703125 52.203125 31.203125 
z
" id="DejaVuSans-97"/>
      <path d="M 52 44.1875 
Q 55.375 50.25 60.0625 53.125 
Q 64.75 56 71.09375 56 
Q 79.640625 56 84.28125 50.015625 
Q 88.921875 44.046875 88.921875 33.015625 
L 88.921875 0 
L 79.890625 0 
L 79.890625 32.71875 
Q 79.890625 40.578125 77.09375 44.375 
Q 74.3125 48.1875 68.609375 48.1875 
Q 61.625 48.1875 57.5625 43.546875 
Q 53.515625 38.921875 53.515625 30.90625 
L 53.515625 0 
L 44.484375 0 
L 44.484375 32.71875 
Q 44.484375 40.625 41.703125 44.40625 
Q 38.921875 48.1875 33.109375 48.1875 
Q 26.21875 48.1875 22.15625 43.53125 
Q 18.109375 38.875 18.109375 30.90625 
L 18.109375 0 
L 9.078125 0 
L 9.078125 54.6875 
L 18.109375 54.6875 
L 18.109375 46.1875 
Q 21.1875 51.21875 25.484375 53.609375 
Q 29.78125 56 35.6875 56 
Q 41.65625 56 45.828125 52.96875 
Q 50 49.953125 52 44.1875 
z
" id="DejaVuSans-109"/>
      <path d="M 56.203125 29.59375 
L 56.203125 25.203125 
L 14.890625 25.203125 
Q 15.484375 15.921875 20.484375 11.0625 
Q 25.484375 6.203125 34.421875 6.203125 
Q 39.59375 6.203125 44.453125 7.46875 
Q 49.3125 8.734375 54.109375 11.28125 
L 54.109375 2.78125 
Q 49.265625 0.734375 44.1875 -0.34375 
Q 39.109375 -1.421875 33.890625 -1.421875 
Q 20.796875 -1.421875 13.15625 6.1875 
Q 5.515625 13.8125 5.515625 26.8125 
Q 5.515625 40.234375 12.765625 48.109375 
Q 20.015625 56 32.328125 56 
Q 43.359375 56 49.78125 48.890625 
Q 56.203125 41.796875 56.203125 29.59375 
z
M 47.21875 32.234375 
Q 47.125 39.59375 43.09375 43.984375 
Q 39.0625 48.390625 32.421875 48.390625 
Q 24.90625 48.390625 20.390625 44.140625 
Q 15.875 39.890625 15.1875 32.171875 
z
" id="DejaVuSans-101"/>
      <path d="M 44.28125 53.078125 
L 44.28125 44.578125 
Q 40.484375 46.53125 36.375 47.5 
Q 32.28125 48.484375 27.875 48.484375 
Q 21.1875 48.484375 17.84375 46.4375 
Q 14.5 44.390625 14.5 40.28125 
Q 14.5 37.15625 16.890625 35.375 
Q 19.28125 33.59375 26.515625 31.984375 
L 29.59375 31.296875 
Q 39.15625 29.25 43.1875 25.515625 
Q 47.21875 21.78125 47.21875 15.09375 
Q 47.21875 7.46875 41.1875 3.015625 
Q 35.15625 -1.421875 24.609375 -1.421875 
Q 20.21875 -1.421875 15.453125 -0.5625 
Q 10.6875 0.296875 5.421875 2 
L 5.421875 11.28125 
Q 10.40625 8.6875 15.234375 7.390625 
Q 20.0625 6.109375 24.8125 6.109375 
Q 31.15625 6.109375 34.5625 8.28125 
Q 37.984375 10.453125 37.984375 14.40625 
Q 37.984375 18.0625 35.515625 20.015625 
Q 33.0625 21.96875 24.703125 23.78125 
L 21.578125 24.515625 
Q 13.234375 26.265625 9.515625 29.90625 
Q 5.8125 33.546875 5.8125 39.890625 
Q 5.8125 47.609375 11.28125 51.796875 
Q 16.75 56 26.8125 56 
Q 31.78125 56 36.171875 55.265625 
Q 40.578125 54.546875 44.28125 53.078125 
z
" id="DejaVuSans-115"/>
     </defs>
     <g transform="translate(212.330365 414.912344)scale(0.25 -0.25)">
      <use xlink:href="#DejaVuSans-35"/>
      <use x="83.789062" xlink:href="#DejaVuSans-32"/>
      <use x="115.576172" xlink:href="#DejaVuSans-111"/>
      <use x="176.757812" xlink:href="#DejaVuSans-102"/>
      <use x="211.962891" xlink:href="#DejaVuSans-32"/>
      <use x="243.75" xlink:href="#DejaVuSans-103"/>
      <use x="307.226562" xlink:href="#DejaVuSans-97"/>
      <use x="368.505859" xlink:href="#DejaVuSans-109"/>
      <use x="465.917969" xlink:href="#DejaVuSans-101"/>
      <use x="527.441406" xlink:href="#DejaVuSans-115"/>
     </g>
    </g>
   </g>
   <g id="matplotlib.axis_2">
    <g id="ytick_1">
     <g id="line2d_9">
      <defs>
       <path d="M 0 0 
L -3.5 0 
" id="m07355d9446" style="stroke:#000000;stroke-width:0.8;"/>
      </defs>
      <g>
       <use style="stroke:#000000;stroke-width:0.8;" x="51.05" xlink:href="#m07355d9446" y="352.966364"/>
      </g>
     </g>
     <g id="text_10">
      <!-- 1 -->
      <g transform="translate(31.325 360.564801)scale(0.2 -0.2)">
       <use xlink:href="#DejaVuSans-49"/>
      </g>
     </g>
    </g>
    <g id="ytick_2">
     <g id="line2d_10">
      <g>
       <use style="stroke:#000000;stroke-width:0.8;" x="51.05" xlink:href="#m07355d9446" y="321.482273"/>
      </g>
     </g>
     <g id="text_11">
      <!-- 2 -->
      <g transform="translate(31.325 329.08071)scale(0.2 -0.2)">
       <use xlink:href="#DejaVuSans-50"/>
      </g>
     </g>
    </g>
    <g id="ytick_3">
     <g id="line2d_11">
      <g>
       <use style="stroke:#000000;stroke-width:0.8;" x="51.05" xlink:href="#m07355d9446" y="289.998182"/>
      </g>
     </g>
     <g id="text_12">
      <!-- 3 -->
      <g transform="translate(31.325 297.596619)scale(0.2 -0.2)">
       <use xlink:href="#DejaVuSans-51"/>
      </g>
     </g>
    </g>
    <g id="ytick_4">
     <g id="line2d_12">
      <g>
       <use style="stroke:#000000;stroke-width:0.8;" x="51.05" xlink:href="#m07355d9446" y="258.514091"/>
      </g>
     </g>
     <g id="text_13">
      <!-- 4 -->
      <g transform="translate(31.325 266.112528)scale(0.2 -0.2)">
       <use xlink:href="#DejaVuSans-52"/>
      </g>
     </g>
    </g>
    <g id="ytick_5">
     <g id="line2d_13">
      <g>
       <use style="stroke:#000000;stroke-width:0.8;" x="51.05" xlink:href="#m07355d9446" y="227.03"/>
      </g>
     </g>
     <g id="text_14">
      <!-- 5 -->
      <g transform="translate(31.325 234.628437)scale(0.2 -0.2)">
       <use xlink:href="#DejaVuSans-53"/>
      </g>
     </g>
    </g>
    <g id="ytick_6">
     <g id="line2d_14">
      <g>
       <use style="stroke:#000000;stroke-width:0.8;" x="51.05" xlink:href="#m07355d9446" y="195.545909"/>
      </g>
     </g>
     <g id="text_15">
      <!-- 6 -->
      <g transform="translate(31.325 203.144347)scale(0.2 -0.2)">
       <use xlink:href="#DejaVuSans-54"/>
      </g>
     </g>
    </g>
    <g id="ytick_7">
     <g id="line2d_15">
      <g>
       <use style="stroke:#000000;stroke-width:0.8;" x="51.05" xlink:href="#m07355d9446" y="164.061818"/>
      </g>
     </g>
     <g id="text_16">
      <!-- 7 -->
      <g transform="translate(31.325 171.660256)scale(0.2 -0.2)">
       <use xlink:href="#DejaVuSans-55"/>
      </g>
     </g>
    </g>
    <g id="ytick_8">
     <g id="line2d_16">
      <g>
       <use style="stroke:#000000;stroke-width:0.8;" x="51.05" xlink:href="#m07355d9446" y="132.577727"/>
      </g>
     </g>
     <g id="text_17">
      <!-- 8 -->
      <defs>
       <path d="M 31.78125 34.625 
Q 24.75 34.625 20.71875 30.859375 
Q 16.703125 27.09375 16.703125 20.515625 
Q 16.703125 13.921875 20.71875 10.15625 
Q 24.75 6.390625 31.78125 6.390625 
Q 38.8125 6.390625 42.859375 10.171875 
Q 46.921875 13.96875 46.921875 20.515625 
Q 46.921875 27.09375 42.890625 30.859375 
Q 38.875 34.625 31.78125 34.625 
z
M 21.921875 38.8125 
Q 15.578125 40.375 12.03125 44.71875 
Q 8.5 49.078125 8.5 55.328125 
Q 8.5 64.0625 14.71875 69.140625 
Q 20.953125 74.21875 31.78125 74.21875 
Q 42.671875 74.21875 48.875 69.140625 
Q 55.078125 64.0625 55.078125 55.328125 
Q 55.078125 49.078125 51.53125 44.71875 
Q 48 40.375 41.703125 38.8125 
Q 48.828125 37.15625 52.796875 32.3125 
Q 56.78125 27.484375 56.78125 20.515625 
Q 56.78125 9.90625 50.3125 4.234375 
Q 43.84375 -1.421875 31.78125 -1.421875 
Q 19.734375 -1.421875 13.25 4.234375 
Q 6.78125 9.90625 6.78125 20.515625 
Q 6.78125 27.484375 10.78125 32.3125 
Q 14.796875 37.15625 21.921875 38.8125 
z
M 18.3125 54.390625 
Q 18.3125 48.734375 21.84375 45.5625 
Q 25.390625 42.390625 31.78125 42.390625 
Q 38.140625 42.390625 41.71875 45.5625 
Q 45.3125 48.734375 45.3125 54.390625 
Q 45.3125 60.0625 41.71875 63.234375 
Q 38.140625 66.40625 31.78125 66.40625 
Q 25.390625 66.40625 21.84375 63.234375 
Q 18.3125 60.0625 18.3125 54.390625 
z
" id="DejaVuSans-56"/>
      </defs>
      <g transform="translate(31.325 140.176165)scale(0.2 -0.2)">
       <use xlink:href="#DejaVuSans-56"/>
      </g>
     </g>
    </g>
    <g id="ytick_9">
     <g id="line2d_17">
      <g>
       <use style="stroke:#000000;stroke-width:0.8;" x="51.05" xlink:href="#m07355d9446" y="101.093636"/>
      </g>
     </g>
     <g id="text_18">
      <!-- 9 -->
      <defs>
       <path d="M 10.984375 1.515625 
L 10.984375 10.5 
Q 14.703125 8.734375 18.5 7.8125 
Q 22.3125 6.890625 25.984375 6.890625 
Q 35.75 6.890625 40.890625 13.453125 
Q 46.046875 20.015625 46.78125 33.40625 
Q 43.953125 29.203125 39.59375 26.953125 
Q 35.25 24.703125 29.984375 24.703125 
Q 19.046875 24.703125 12.671875 31.3125 
Q 6.296875 37.9375 6.296875 49.421875 
Q 6.296875 60.640625 12.9375 67.421875 
Q 19.578125 74.21875 30.609375 74.21875 
Q 43.265625 74.21875 49.921875 64.515625 
Q 56.59375 54.828125 56.59375 36.375 
Q 56.59375 19.140625 48.40625 8.859375 
Q 40.234375 -1.421875 26.421875 -1.421875 
Q 22.703125 -1.421875 18.890625 -0.6875 
Q 15.09375 0.046875 10.984375 1.515625 
z
M 30.609375 32.421875 
Q 37.25 32.421875 41.125 36.953125 
Q 45.015625 41.5 45.015625 49.421875 
Q 45.015625 57.28125 41.125 61.84375 
Q 37.25 66.40625 30.609375 66.40625 
Q 23.96875 66.40625 20.09375 61.84375 
Q 16.21875 57.28125 16.21875 49.421875 
Q 16.21875 41.5 20.09375 36.953125 
Q 23.96875 32.421875 30.609375 32.421875 
z
" id="DejaVuSans-57"/>
      </defs>
      <g transform="translate(31.325 108.692074)scale(0.2 -0.2)">
       <use xlink:href="#DejaVuSans-57"/>
      </g>
     </g>
    </g>
    <g id="text_19">
     <!-- DHEU Value -->
     <defs>
      <path d="M 19.671875 64.796875 
L 19.671875 8.109375 
L 31.59375 8.109375 
Q 46.6875 8.109375 53.6875 14.9375 
Q 60.6875 21.78125 60.6875 36.53125 
Q 60.6875 51.171875 53.6875 57.984375 
Q 46.6875 64.796875 31.59375 64.796875 
z
M 9.8125 72.90625 
L 30.078125 72.90625 
Q 51.265625 72.90625 61.171875 64.09375 
Q 71.09375 55.28125 71.09375 36.53125 
Q 71.09375 17.671875 61.125 8.828125 
Q 51.171875 0 30.078125 0 
L 9.8125 0 
z
" id="DejaVuSans-68"/>
      <path d="M 9.8125 72.90625 
L 19.671875 72.90625 
L 19.671875 43.015625 
L 55.515625 43.015625 
L 55.515625 72.90625 
L 65.375 72.90625 
L 65.375 0 
L 55.515625 0 
L 55.515625 34.71875 
L 19.671875 34.71875 
L 19.671875 0 
L 9.8125 0 
z
" id="DejaVuSans-72"/>
      <path d="M 9.8125 72.90625 
L 55.90625 72.90625 
L 55.90625 64.59375 
L 19.671875 64.59375 
L 19.671875 43.015625 
L 54.390625 43.015625 
L 54.390625 34.71875 
L 19.671875 34.71875 
L 19.671875 8.296875 
L 56.78125 8.296875 
L 56.78125 0 
L 9.8125 0 
z
" id="DejaVuSans-69"/>
      <path d="M 8.6875 72.90625 
L 18.609375 72.90625 
L 18.609375 28.609375 
Q 18.609375 16.890625 22.84375 11.734375 
Q 27.09375 6.59375 36.625 6.59375 
Q 46.09375 6.59375 50.34375 11.734375 
Q 54.59375 16.890625 54.59375 28.609375 
L 54.59375 72.90625 
L 64.5 72.90625 
L 64.5 27.390625 
Q 64.5 13.140625 57.4375 5.859375 
Q 50.390625 -1.421875 36.625 -1.421875 
Q 22.796875 -1.421875 15.734375 5.859375 
Q 8.6875 13.140625 8.6875 27.390625 
z
" id="DejaVuSans-85"/>
      <path d="M 28.609375 0 
L 0.78125 72.90625 
L 11.078125 72.90625 
L 34.1875 11.53125 
L 57.328125 72.90625 
L 67.578125 72.90625 
L 39.796875 0 
z
" id="DejaVuSans-86"/>
      <path d="M 9.421875 75.984375 
L 18.40625 75.984375 
L 18.40625 0 
L 9.421875 0 
z
" id="DejaVuSans-108"/>
      <path d="M 8.5 21.578125 
L 8.5 54.6875 
L 17.484375 54.6875 
L 17.484375 21.921875 
Q 17.484375 14.15625 20.5 10.265625 
Q 23.53125 6.390625 29.59375 6.390625 
Q 36.859375 6.390625 41.078125 11.03125 
Q 45.3125 15.671875 45.3125 23.6875 
L 45.3125 54.6875 
L 54.296875 54.6875 
L 54.296875 0 
L 45.3125 0 
L 45.3125 8.40625 
Q 42.046875 3.421875 37.71875 1 
Q 33.40625 -1.421875 27.6875 -1.421875 
Q 18.265625 -1.421875 13.375 4.4375 
Q 8.5 10.296875 8.5 21.578125 
z
M 31.109375 56 
z
" id="DejaVuSans-117"/>
     </defs>
     <g transform="translate(23.858854 277.24875)rotate(-90)scale(0.166667 -0.166667)">
      <use xlink:href="#DejaVuSans-68"/>
      <use x="77.001953" xlink:href="#DejaVuSans-72"/>
      <use x="152.197266" xlink:href="#DejaVuSans-69"/>
      <use x="215.380859" xlink:href="#DejaVuSans-85"/>
      <use x="288.574219" xlink:href="#DejaVuSans-32"/>
      <use x="320.361328" xlink:href="#DejaVuSans-86"/>
      <use x="388.660156" xlink:href="#DejaVuSans-97"/>
      <use x="449.939453" xlink:href="#DejaVuSans-108"/>
      <use x="477.722656" xlink:href="#DejaVuSans-117"/>
      <use x="541.101562" xlink:href="#DejaVuSans-101"/>
     </g>
    </g>
   </g>
   <g id="line2d_18">
    <path clip-path="url(#p4631b6b904)" d="M 72.297611 352.966364 
L 78.640182 295.875212 
L 84.982752 262.292182 
L 91.325323 242.142364 
L 97.667894 218.634234 
L 104.010464 228.709758 
L 110.353035 232.068126 
L 116.695605 228.714084 
L 123.038176 211.923303 
L 129.380746 218.637434 
L 135.723317 215.277345 
L 142.065887 215.278522 
L 148.408458 201.843992 
L 154.751028 221.992682 
L 161.093599 201.843059 
L 167.436169 205.203635 
L 173.77874 201.845816 
L 180.121311 201.845418 
L 186.463881 188.411919 
L 192.806452 198.488422 
L 199.149022 208.562566 
L 205.491593 201.846014 
L 211.834163 191.769256 
L 218.176734 201.844156 
L 224.519304 195.125523 
L 230.861875 191.768396 
L 237.204445 205.201382 
L 243.547016 208.559718 
L 249.889587 201.842485 
L 256.232157 198.48467 
L 262.574728 191.767714 
L 268.917298 185.051333 
L 275.259869 188.409494 
L 281.602439 202.543827 
L 287.94501 192.047623 
L 294.28758 199.043718 
L 300.630151 202.915408 
L 306.972721 188.62346 
L 313.315292 192.352719 
L 319.657863 200.315724 
L 326.000433 200.669909 
L 332.343004 189.248767 
L 338.685574 185.052054 
L 345.028145 189.992476 
L 351.370715 200.315437 
L 357.713286 202.420647 
L 364.055856 191.269688 
L 370.398427 192.353617 
L 376.740997 193.889924 
L 383.083568 194.92929 
L 389.426139 196.247342 
L 395.768709 185.052648 
L 402.11128 185.052084 
L 408.45385 185.052848 
L 414.796421 185.052806 
L 421.138991 185.050606 
L 427.481562 185.050652 
L 433.824132 185.049984 
L 440.166703 185.049892 
L 446.509273 185.051233 
L 452.851844 185.051017 
L 459.194415 185.053453 
L 465.536985 185.049974 
L 471.879556 185.049974 
L 478.222126 185.05018 
L 484.564697 185.048112 
L 490.907267 185.048112 
L 497.249838 185.054224 
" style="fill:none;stroke:#1f77b4;stroke-linecap:square;stroke-width:1.5;"/>
   </g>
   <g id="line2d_19">
    <path clip-path="url(#p4631b6b904)" d="M 72.297611 352.966364 
L 78.640182 324.420788 
L 84.982752 307.629273 
L 91.325323 297.554364 
L 97.667894 285.799586 
L 104.010464 290.836933 
L 110.353035 292.515607 
L 116.695605 290.837124 
L 123.038176 282.441953 
L 129.380746 285.802105 
L 135.723317 284.121363 
L 142.065887 284.122423 
L 148.408458 277.40534 
L 154.751028 287.480717 
L 161.093599 277.404937 
L 167.436169 279.085416 
L 173.77874 277.405725 
L 180.121311 277.406405 
L 186.463881 270.689616 
L 192.806452 275.72715 
L 199.149022 280.763244 
L 205.491593 277.406206 
L 211.834163 272.367711 
L 218.176734 277.406183 
L 224.519304 274.046558 
L 230.861875 272.367848 
L 237.204445 279.083102 
L 243.547016 280.761319 
L 249.889587 277.403935 
L 256.232157 275.725276 
L 262.574728 272.368283 
L 268.917298 269.010051 
L 275.259869 270.6902 
L 281.602439 277.754655 
L 287.94501 272.507074 
L 294.28758 276.00614 
L 300.630151 277.939501 
L 306.972721 270.79508 
L 313.315292 272.658561 
L 319.657863 276.639396 
L 326.000433 276.819046 
L 332.343004 271.107068 
L 338.685574 269.008789 
L 345.028145 271.47982 
L 351.370715 276.642483 
L 357.713286 277.69494 
L 364.055856 272.120039 
L 370.398427 272.662319 
L 376.740997 273.432161 
L 383.083568 273.951278 
L 389.426139 274.611457 
L 395.768709 269.011497 
L 402.11128 269.010233 
L 408.45385 269.009312 
L 414.796421 269.009489 
L 421.138991 269.00913 
L 427.481562 269.008793 
L 433.824132 269.008733 
L 440.166703 269.008675 
L 446.509273 269.007796 
L 452.851844 269.008135 
L 459.194415 269.00688 
L 465.536985 269.007375 
L 471.879556 269.007375 
L 478.222126 269.00831 
L 484.564697 269.006998 
L 490.907267 269.00485 
L 497.249838 269.008025 
" style="fill:none;stroke:#ff7f0e;stroke-linecap:square;stroke-width:1.5;"/>
   </g>
   <g id="line2d_20">
    <path clip-path="url(#p4631b6b904)" d="M 72.297611 352.966364 
L 78.640182 324.420788 
L 84.982752 307.629273 
L 91.325323 297.554364 
L 97.667894 285.799586 
L 104.010464 290.836933 
L 110.353035 292.515157 
L 116.695605 290.837228 
L 123.038176 282.442199 
L 129.380746 285.801171 
L 135.723317 284.122157 
L 142.065887 284.121776 
L 148.408458 277.405626 
L 154.751028 287.478702 
L 161.093599 277.405167 
L 167.436169 279.084615 
L 173.77874 277.405201 
L 180.121311 277.405353 
L 186.463881 270.688321 
L 192.806452 275.725527 
L 199.149022 280.763096 
L 205.491593 277.405518 
L 211.834163 272.368164 
L 218.176734 277.405075 
L 224.519304 274.046986 
L 230.861875 272.367812 
L 237.204445 279.083896 
L 243.547016 280.76293 
L 249.889587 277.405621 
L 256.232157 275.727231 
L 262.574728 272.369172 
L 268.917298 269.009534 
L 275.259869 270.688182 
L 281.602439 277.755178 
L 287.94501 272.507104 
L 294.28758 276.005249 
L 300.630151 277.940737 
L 306.972721 270.796657 
L 313.315292 272.661992 
L 319.657863 276.641137 
L 326.000433 276.81817 
L 332.343004 271.107072 
L 338.685574 269.008457 
L 345.028145 271.479374 
L 351.370715 276.643083 
L 357.713286 277.696007 
L 364.055856 272.120049 
L 370.398427 272.659502 
L 376.740997 273.428798 
L 383.083568 273.948487 
L 389.426139 274.608737 
L 395.768709 269.01012 
L 402.11128 269.010857 
L 408.45385 269.010012 
L 414.796421 269.009598 
L 421.138991 269.010468 
L 427.481562 269.008182 
L 433.824132 269.008668 
L 440.166703 269.010107 
L 446.509273 269.010107 
L 452.851844 269.009752 
L 459.194415 269.009768 
L 465.536985 269.010271 
L 471.879556 269.010271 
L 478.222126 269.010374 
L 484.564697 269.008556 
L 490.907267 269.008556 
L 497.249838 269.011731 
" style="fill:none;stroke:#2ca02c;stroke-linecap:square;stroke-width:1.5;"/>
   </g>
   <g id="line2d_21">
    <path clip-path="url(#p4631b6b904)" d="M 72.297611 352.966364 
L 78.640182 352.966364 
L 84.982752 352.966364 
L 91.325323 352.966364 
L 97.667894 352.966364 
L 104.010464 352.966364 
L 110.353035 352.966364 
L 116.695605 352.966364 
L 123.038176 352.966364 
L 129.380746 352.966364 
L 135.723317 352.966364 
L 142.065887 352.966041 
L 148.408458 352.966041 
L 154.751028 352.965748 
L 161.093599 352.96553 
L 167.436169 352.965266 
L 173.77874 352.965309 
L 180.121311 352.965518 
L 186.463881 352.96552 
L 192.806452 352.965516 
L 199.149022 352.965484 
L 205.491593 352.965581 
L 211.834163 352.965272 
L 218.176734 352.96498 
L 224.519304 352.965194 
L 230.861875 352.965147 
L 237.204445 352.964943 
L 243.547016 352.964872 
L 249.889587 352.965351 
L 256.232157 352.965297 
L 262.574728 352.965021 
L 268.917298 352.965086 
L 275.259869 352.964734 
L 281.602439 352.965086 
L 287.94501 352.965001 
L 294.28758 352.964311 
L 300.630151 352.964822 
L 306.972721 352.964756 
L 313.315292 352.964744 
L 319.657863 352.964731 
L 326.000433 352.96492 
L 332.343004 352.965219 
L 338.685574 352.964969 
L 345.028145 352.964938 
L 351.370715 352.965062 
L 357.713286 352.964867 
L 364.055856 352.965132 
L 370.398427 352.964559 
L 376.740997 352.964882 
L 383.083568 352.965335 
L 389.426139 352.965197 
L 395.768709 352.966033 
L 402.11128 352.966123 
L 408.45385 352.966054 
L 414.796421 352.966002 
L 421.138991 352.966002 
L 427.481562 352.965937 
L 433.824132 352.966042 
L 440.166703 352.965721 
L 446.509273 352.965721 
L 452.851844 352.965721 
L 459.194415 352.965721 
L 465.536985 352.965721 
L 471.879556 352.965721 
L 478.222126 352.966245 
L 484.564697 352.966125 
L 490.907267 352.966125 
L 497.249838 352.966364 
" style="fill:none;stroke:#d62728;stroke-linecap:square;stroke-width:1.5;"/>
   </g>
   <g id="line2d_22">
    <path clip-path="url(#p4631b6b904)" d="M 72.297611 352.966364 
L 78.640182 352.966364 
L 84.982752 352.966364 
L 91.325323 352.966364 
L 97.667894 352.966364 
L 104.010464 352.966364 
L 110.353035 352.966364 
L 116.695605 352.966364 
L 123.038176 352.966364 
L 129.380746 352.966364 
L 135.723317 352.96602 
L 142.065887 352.96602 
L 148.408458 352.966239 
L 154.751028 352.965486 
L 161.093599 352.966084 
L 167.436169 352.965953 
L 173.77874 352.965839 
L 180.121311 352.965657 
L 186.463881 352.964635 
L 192.806452 352.965388 
L 199.149022 352.964734 
L 205.491593 352.964724 
L 211.834163 352.964233 
L 218.176734 352.964178 
L 224.519304 352.964105 
L 230.861875 352.964188 
L 237.204445 352.964151 
L 243.547016 352.963919 
L 249.889587 352.96368 
L 256.232157 352.963881 
L 262.574728 352.964201 
L 268.917298 352.963048 
L 275.259869 352.962973 
L 281.602439 352.962661 
L 287.94501 352.962725 
L 294.28758 352.963304 
L 300.630151 352.962038 
L 306.972721 352.962361 
L 313.315292 352.962384 
L 319.657863 352.962022 
L 326.000433 352.962662 
L 332.343004 352.962243 
L 338.685574 352.962131 
L 345.028145 352.963858 
L 351.370715 352.963939 
L 357.713286 352.964847 
L 364.055856 352.964135 
L 370.398427 352.964601 
L 376.740997 352.965118 
L 383.083568 352.964993 
L 389.426139 352.96517 
L 395.768709 352.96522 
L 402.11128 352.965426 
L 408.45385 352.965274 
L 414.796421 352.966082 
L 421.138991 352.966082 
L 427.481562 352.966026 
L 433.824132 352.965942 
L 440.166703 352.966158 
L 446.509273 352.966158 
L 452.851844 352.966158 
L 459.194415 352.966158 
L 465.536985 352.966158 
L 471.879556 352.966158 
L 478.222126 352.966158 
L 484.564697 352.966364 
L 490.907267 352.966364 
L 497.249838 352.966157 
" style="fill:none;stroke:#9467bd;stroke-linecap:square;stroke-width:1.5;"/>
   </g>
   <g id="line2d_23">
    <path clip-path="url(#p4631b6b904)" d="M 72.297611 352.966364 
L 78.640182 295.875212 
L 84.982752 262.292182 
L 91.325323 242.142364 
L 97.667894 218.633778 
L 104.010464 228.707502 
L 110.353035 232.067001 
L 116.695605 228.71004 
L 123.038176 211.917379 
L 129.380746 218.634433 
L 135.723317 215.276457 
L 142.065887 215.276948 
L 148.408458 201.842987 
L 154.751028 221.993892 
L 161.093599 201.84145 
L 167.436169 205.203514 
L 173.77874 201.845362 
L 180.121311 201.843445 
L 186.463881 188.410631 
L 192.806452 198.486339 
L 199.149022 208.558384 
L 205.491593 201.84113 
L 211.834163 191.766248 
L 218.176734 201.843008 
L 224.519304 195.125323 
L 230.861875 191.767962 
L 237.204445 205.200897 
L 243.547016 208.557755 
L 249.889587 201.842575 
L 256.232157 198.484863 
L 262.574728 191.769034 
L 268.917298 185.051913 
L 275.259869 188.411592 
L 281.602439 202.543065 
L 287.94501 192.047792 
L 294.28758 199.044018 
L 300.630151 202.91459 
L 306.972721 188.625302 
L 313.315292 192.351969 
L 319.657863 200.31545 
L 326.000433 200.670374 
L 332.343004 189.247405 
L 338.685574 185.051053 
L 345.028145 189.991438 
L 351.370715 200.316657 
L 357.713286 202.421065 
L 364.055856 191.269503 
L 370.398427 192.352816 
L 376.740997 193.892506 
L 383.083568 194.93154 
L 389.426139 196.248583 
L 395.768709 185.051668 
L 402.11128 185.052025 
L 408.45385 185.052161 
L 414.796421 185.051974 
L 421.138991 185.051538 
L 427.481562 185.051235 
L 433.824132 185.051894 
L 440.166703 185.051844 
L 446.509273 185.05038 
L 452.851844 185.04967 
L 459.194415 185.047162 
L 465.536985 185.048502 
L 471.879556 185.049671 
L 478.222126 185.049877 
L 484.564697 185.044428 
L 490.907267 185.044428 
L 497.249838 185.05054 
" style="fill:none;stroke:#8c564b;stroke-linecap:square;stroke-width:1.5;"/>
   </g>
   <g id="line2d_24">
    <path clip-path="url(#p4631b6b904)" d="M 72.297611 352.966364 
L 78.640182 324.420788 
L 84.982752 307.629273 
L 91.325323 297.554364 
L 97.667894 285.799586 
L 104.010464 290.836933 
L 110.353035 292.515157 
L 116.695605 290.836674 
L 123.038176 282.442581 
L 129.380746 285.800054 
L 135.723317 284.120706 
L 142.065887 284.120333 
L 148.408458 277.403882 
L 154.751028 287.480285 
L 161.093599 277.402866 
L 167.436169 279.084251 
L 173.77874 277.405172 
L 180.121311 277.406224 
L 186.463881 270.689384 
L 192.806452 275.729086 
L 199.149022 280.762214 
L 205.491593 277.405526 
L 211.834163 272.367711 
L 218.176734 277.405895 
L 224.519304 274.047844 
L 230.861875 272.369679 
L 237.204445 279.082728 
L 243.547016 280.763782 
L 249.889587 277.404035 
L 256.232157 275.725662 
L 262.574728 272.367428 
L 268.917298 269.008099 
L 275.259869 270.686664 
L 281.602439 277.753099 
L 287.94501 272.504903 
L 294.28758 276.003844 
L 300.630151 277.938749 
L 306.972721 270.793781 
L 313.315292 272.658591 
L 319.657863 276.638953 
L 326.000433 276.816911 
L 332.343004 271.105551 
L 338.685574 269.007343 
L 345.028145 271.477572 
L 351.370715 276.639969 
L 357.713286 277.693455 
L 364.055856 272.11663 
L 370.398427 272.657552 
L 376.740997 273.428138 
L 383.083568 273.948374 
L 389.426139 274.60801 
L 395.768709 269.009847 
L 402.11128 269.008695 
L 408.45385 269.008373 
L 414.796421 269.00864 
L 421.138991 269.008281 
L 427.481562 269.008174 
L 433.824132 269.008599 
L 440.166703 269.009067 
L 446.509273 269.009067 
L 452.851844 269.011338 
L 459.194415 269.010084 
L 465.536985 269.010579 
L 471.879556 269.010263 
L 478.222126 269.010366 
L 484.564697 269.008153 
L 490.907267 269.008153 
L 497.249838 269.011328 
" style="fill:none;stroke:#e377c2;stroke-linecap:square;stroke-width:1.5;"/>
   </g>
   <g id="line2d_25">
    <path clip-path="url(#p4631b6b904)" d="M 72.297611 352.966364 
L 78.640182 324.420788 
L 84.982752 307.629273 
L 91.325323 297.554364 
L 97.667894 285.801737 
L 104.010464 290.839935 
L 110.353035 292.51808 
L 116.695605 290.840261 
L 123.038176 282.444624 
L 129.380746 285.803446 
L 135.723317 284.121593 
L 142.065887 284.124259 
L 148.408458 277.407219 
L 154.751028 287.480033 
L 161.093599 277.407046 
L 167.436169 279.087277 
L 173.77874 277.406948 
L 180.121311 277.407212 
L 186.463881 270.689972 
L 192.806452 275.726128 
L 199.149022 280.763998 
L 205.491593 277.404528 
L 211.834163 272.36678 
L 218.176734 277.403415 
L 224.519304 274.044581 
L 230.861875 272.3663 
L 237.204445 279.082468 
L 243.547016 280.761271 
L 249.889587 277.405435 
L 256.232157 275.725868 
L 262.574728 272.36709 
L 268.917298 269.008249 
L 275.259869 270.686585 
L 281.602439 277.755759 
L 287.94501 272.507035 
L 294.28758 276.004889 
L 300.630151 277.938661 
L 306.972721 270.794152 
L 313.315292 272.658418 
L 319.657863 276.640727 
L 326.000433 276.81881 
L 332.343004 271.109346 
L 338.685574 269.011135 
L 345.028145 271.48137 
L 351.370715 276.642535 
L 357.713286 277.696223 
L 364.055856 272.120108 
L 370.398427 272.661639 
L 376.740997 273.431479 
L 383.083568 273.952528 
L 389.426139 274.607699 
L 395.768709 269.012239 
L 402.11128 269.012809 
L 408.45385 269.012836 
L 414.796421 269.012664 
L 421.138991 269.010253 
L 427.481562 269.010699 
L 433.824132 269.010427 
L 440.166703 269.007622 
L 446.509273 269.009441 
L 452.851844 269.009086 
L 459.194415 269.012776 
L 465.536985 269.013271 
L 471.879556 269.008327 
L 478.222126 269.00843 
L 484.564697 269.004872 
L 490.907267 269.004872 
L 497.249838 269.008047 
" style="fill:none;stroke:#7f7f7f;stroke-linecap:square;stroke-width:1.5;"/>
   </g>
   <g id="line2d_26">
    <path clip-path="url(#p4631b6b904)" d="M 72.297611 352.966364 
L 78.640182 267.329636 
L 84.982752 216.955091 
L 91.325323 186.730364 
L 97.667894 151.468182 
L 104.010464 166.580545 
L 110.353035 171.618 
L 116.695605 166.580545 
L 123.038176 141.393273 
L 129.380746 151.468182 
L 135.723317 146.430727 
L 142.065887 146.430727 
L 148.408458 126.280909 
L 154.751028 156.505636 
L 161.093599 126.280909 
L 167.436169 131.318364 
L 173.77874 126.280909 
L 180.121311 126.280909 
L 186.463881 106.131091 
L 192.806452 121.243455 
L 199.149022 136.355818 
L 205.491593 126.280909 
L 211.834163 111.168545 
L 218.176734 126.280909 
L 224.519304 116.206 
L 230.861875 111.168545 
L 237.204445 131.318364 
L 243.547016 136.355818 
L 249.889587 126.280909 
L 256.232157 121.243455 
L 262.574728 111.168545 
L 268.917298 101.093636 
L 275.259869 106.131091 
L 281.602439 127.330379 
L 287.94501 111.588333 
L 294.28758 122.08303 
L 300.630151 127.888607 
L 306.972721 106.452631 
L 313.315292 112.044625 
L 319.657863 123.991157 
L 326.000433 124.523658 
L 332.343004 107.390455 
L 338.685574 101.093636 
L 345.028145 108.501658 
L 351.370715 123.991157 
L 357.713286 127.149436 
L 364.055856 110.422256 
L 370.398427 112.044625 
L 376.740997 114.350096 
L 383.083568 115.909679 
L 389.426139 117.885152 
L 395.768709 101.093636 
L 402.11128 101.093636 
L 408.45385 101.093636 
L 414.796421 101.093636 
L 421.138991 101.093636 
L 427.481562 101.093636 
L 433.824132 101.093636 
L 440.166703 101.093636 
L 446.509273 101.093636 
L 452.851844 101.093636 
L 459.194415 101.093636 
L 465.536985 101.093636 
L 471.879556 101.093636 
L 478.222126 101.093636 
L 484.564697 101.093636 
L 490.907267 101.093636 
L 497.249838 101.093636 
" style="fill:none;stroke:#bcbd22;stroke-linecap:square;stroke-width:1.5;"/>
   </g>
   <g id="patch_3">
    <path d="M 51.05 365.56 
L 51.05 88.5 
" style="fill:none;stroke:#000000;stroke-linecap:square;stroke-linejoin:miter;stroke-width:0.8;"/>
   </g>
   <g id="patch_4">
    <path d="M 518.497449 365.56 
L 518.497449 88.5 
" style="fill:none;stroke:#000000;stroke-linecap:square;stroke-linejoin:miter;stroke-width:0.8;"/>
   </g>
   <g id="patch_5">
    <path d="M 51.05 365.56 
L 518.497449 365.56 
" style="fill:none;stroke:#000000;stroke-linecap:square;stroke-linejoin:miter;stroke-width:0.8;"/>
   </g>
   <g id="patch_6">
    <path d="M 51.05 88.5 
L 518.497449 88.5 
" style="fill:none;stroke:#000000;stroke-linecap:square;stroke-linejoin:miter;stroke-width:0.8;"/>
   </g>
   <g id="legend_1">
    <g id="patch_7">
     <path d="M 61.55 81 
L 507.997449 81 
Q 510.997449 81 510.997449 78 
L 510.997449 13.448438 
Q 510.997449 10.448438 507.997449 10.448438 
L 61.55 10.448438 
Q 58.55 10.448438 58.55 13.448438 
L 58.55 78 
Q 58.55 81 61.55 81 
z
" style="fill:#ffffff;opacity:0.8;stroke:#cccccc;stroke-linejoin:miter;"/>
    </g>
    <g id="line2d_27">
     <path d="M 64.55 22.596094 
L 94.55 22.596094 
" style="fill:none;stroke:#1f77b4;stroke-linecap:square;stroke-width:1.5;"/>
    </g>
    <g id="line2d_28"/>
    <g id="text_20">
     <!-- Stra 1 -->
     <defs>
      <path d="M 53.515625 70.515625 
L 53.515625 60.890625 
Q 47.90625 63.578125 42.921875 64.890625 
Q 37.9375 66.21875 33.296875 66.21875 
Q 25.25 66.21875 20.875 63.09375 
Q 16.5 59.96875 16.5 54.203125 
Q 16.5 49.359375 19.40625 46.890625 
Q 22.3125 44.4375 30.421875 42.921875 
L 36.375 41.703125 
Q 47.40625 39.59375 52.65625 34.296875 
Q 57.90625 29 57.90625 20.125 
Q 57.90625 9.515625 50.796875 4.046875 
Q 43.703125 -1.421875 29.984375 -1.421875 
Q 24.8125 -1.421875 18.96875 -0.25 
Q 13.140625 0.921875 6.890625 3.21875 
L 6.890625 13.375 
Q 12.890625 10.015625 18.65625 8.296875 
Q 24.421875 6.59375 29.984375 6.59375 
Q 38.421875 6.59375 43.015625 9.90625 
Q 47.609375 13.234375 47.609375 19.390625 
Q 47.609375 24.75 44.3125 27.78125 
Q 41.015625 30.8125 33.5 32.328125 
L 27.484375 33.5 
Q 16.453125 35.6875 11.515625 40.375 
Q 6.59375 45.0625 6.59375 53.421875 
Q 6.59375 63.09375 13.40625 68.65625 
Q 20.21875 74.21875 32.171875 74.21875 
Q 37.3125 74.21875 42.625 73.28125 
Q 47.953125 72.359375 53.515625 70.515625 
z
" id="DejaVuSans-83"/>
      <path d="M 18.3125 70.21875 
L 18.3125 54.6875 
L 36.8125 54.6875 
L 36.8125 47.703125 
L 18.3125 47.703125 
L 18.3125 18.015625 
Q 18.3125 11.328125 20.140625 9.421875 
Q 21.96875 7.515625 27.59375 7.515625 
L 36.8125 7.515625 
L 36.8125 0 
L 27.59375 0 
Q 17.1875 0 13.234375 3.875 
Q 9.28125 7.765625 9.28125 18.015625 
L 9.28125 47.703125 
L 2.6875 47.703125 
L 2.6875 54.6875 
L 9.28125 54.6875 
L 9.28125 70.21875 
z
" id="DejaVuSans-116"/>
      <path d="M 41.109375 46.296875 
Q 39.59375 47.171875 37.8125 47.578125 
Q 36.03125 48 33.890625 48 
Q 26.265625 48 22.1875 43.046875 
Q 18.109375 38.09375 18.109375 28.8125 
L 18.109375 0 
L 9.078125 0 
L 9.078125 54.6875 
L 18.109375 54.6875 
L 18.109375 46.1875 
Q 20.953125 51.171875 25.484375 53.578125 
Q 30.03125 56 36.53125 56 
Q 37.453125 56 38.578125 55.875 
Q 39.703125 55.765625 41.0625 55.515625 
z
" id="DejaVuSans-114"/>
     </defs>
     <g transform="translate(106.55 27.846094)scale(0.15 -0.15)">
      <use xlink:href="#DejaVuSans-83"/>
      <use x="63.476562" xlink:href="#DejaVuSans-116"/>
      <use x="102.685547" xlink:href="#DejaVuSans-114"/>
      <use x="143.798828" xlink:href="#DejaVuSans-97"/>
      <use x="205.078125" xlink:href="#DejaVuSans-32"/>
      <use x="236.865234" xlink:href="#DejaVuSans-49"/>
     </g>
    </g>
    <g id="line2d_29">
     <path d="M 64.55 44.613281 
L 94.55 44.613281 
" style="fill:none;stroke:#ff7f0e;stroke-linecap:square;stroke-width:1.5;"/>
    </g>
    <g id="line2d_30"/>
    <g id="text_21">
     <!-- Stra 2 -->
     <g transform="translate(106.55 49.863281)scale(0.15 -0.15)">
      <use xlink:href="#DejaVuSans-83"/>
      <use x="63.476562" xlink:href="#DejaVuSans-116"/>
      <use x="102.685547" xlink:href="#DejaVuSans-114"/>
      <use x="143.798828" xlink:href="#DejaVuSans-97"/>
      <use x="205.078125" xlink:href="#DejaVuSans-32"/>
      <use x="236.865234" xlink:href="#DejaVuSans-50"/>
     </g>
    </g>
    <g id="line2d_31">
     <path d="M 64.55 66.630469 
L 94.55 66.630469 
" style="fill:none;stroke:#2ca02c;stroke-linecap:square;stroke-width:1.5;"/>
    </g>
    <g id="line2d_32"/>
    <g id="text_22">
     <!-- Stra 3 -->
     <g transform="translate(106.55 71.880469)scale(0.15 -0.15)">
      <use xlink:href="#DejaVuSans-83"/>
      <use x="63.476562" xlink:href="#DejaVuSans-116"/>
      <use x="102.685547" xlink:href="#DejaVuSans-114"/>
      <use x="143.798828" xlink:href="#DejaVuSans-97"/>
      <use x="205.078125" xlink:href="#DejaVuSans-32"/>
      <use x="236.865234" xlink:href="#DejaVuSans-51"/>
     </g>
    </g>
    <g id="line2d_33">
     <path d="M 182.341598 22.596094 
L 212.341598 22.596094 
" style="fill:none;stroke:#d62728;stroke-linecap:square;stroke-width:1.5;"/>
    </g>
    <g id="line2d_34"/>
    <g id="text_23">
     <!-- Stra 4 -->
     <g transform="translate(224.341598 27.846094)scale(0.15 -0.15)">
      <use xlink:href="#DejaVuSans-83"/>
      <use x="63.476562" xlink:href="#DejaVuSans-116"/>
      <use x="102.685547" xlink:href="#DejaVuSans-114"/>
      <use x="143.798828" xlink:href="#DejaVuSans-97"/>
      <use x="205.078125" xlink:href="#DejaVuSans-32"/>
      <use x="236.865234" xlink:href="#DejaVuSans-52"/>
     </g>
    </g>
    <g id="line2d_35">
     <path d="M 182.341598 44.613281 
L 212.341598 44.613281 
" style="fill:none;stroke:#9467bd;stroke-linecap:square;stroke-width:1.5;"/>
    </g>
    <g id="line2d_36"/>
    <g id="text_24">
     <!-- Stra 5 -->
     <g transform="translate(224.341598 49.863281)scale(0.15 -0.15)">
      <use xlink:href="#DejaVuSans-83"/>
      <use x="63.476562" xlink:href="#DejaVuSans-116"/>
      <use x="102.685547" xlink:href="#DejaVuSans-114"/>
      <use x="143.798828" xlink:href="#DejaVuSans-97"/>
      <use x="205.078125" xlink:href="#DejaVuSans-32"/>
      <use x="236.865234" xlink:href="#DejaVuSans-53"/>
     </g>
    </g>
    <g id="line2d_37">
     <path d="M 300.133195 22.596094 
L 330.133195 22.596094 
" style="fill:none;stroke:#8c564b;stroke-linecap:square;stroke-width:1.5;"/>
    </g>
    <g id="line2d_38"/>
    <g id="text_25">
     <!-- Stra 6 -->
     <g transform="translate(342.133195 27.846094)scale(0.15 -0.15)">
      <use xlink:href="#DejaVuSans-83"/>
      <use x="63.476562" xlink:href="#DejaVuSans-116"/>
      <use x="102.685547" xlink:href="#DejaVuSans-114"/>
      <use x="143.798828" xlink:href="#DejaVuSans-97"/>
      <use x="205.078125" xlink:href="#DejaVuSans-32"/>
      <use x="236.865234" xlink:href="#DejaVuSans-54"/>
     </g>
    </g>
    <g id="line2d_39">
     <path d="M 300.133195 44.613281 
L 330.133195 44.613281 
" style="fill:none;stroke:#e377c2;stroke-linecap:square;stroke-width:1.5;"/>
    </g>
    <g id="line2d_40"/>
    <g id="text_26">
     <!-- Stra 7 -->
     <g transform="translate(342.133195 49.863281)scale(0.15 -0.15)">
      <use xlink:href="#DejaVuSans-83"/>
      <use x="63.476562" xlink:href="#DejaVuSans-116"/>
      <use x="102.685547" xlink:href="#DejaVuSans-114"/>
      <use x="143.798828" xlink:href="#DejaVuSans-97"/>
      <use x="205.078125" xlink:href="#DejaVuSans-32"/>
      <use x="236.865234" xlink:href="#DejaVuSans-55"/>
     </g>
    </g>
    <g id="line2d_41">
     <path d="M 417.924793 22.596094 
L 447.924793 22.596094 
" style="fill:none;stroke:#7f7f7f;stroke-linecap:square;stroke-width:1.5;"/>
    </g>
    <g id="line2d_42"/>
    <g id="text_27">
     <!-- Stra 8 -->
     <g transform="translate(459.924793 27.846094)scale(0.15 -0.15)">
      <use xlink:href="#DejaVuSans-83"/>
      <use x="63.476562" xlink:href="#DejaVuSans-116"/>
      <use x="102.685547" xlink:href="#DejaVuSans-114"/>
      <use x="143.798828" xlink:href="#DejaVuSans-97"/>
      <use x="205.078125" xlink:href="#DejaVuSans-32"/>
      <use x="236.865234" xlink:href="#DejaVuSans-56"/>
     </g>
    </g>
    <g id="line2d_43">
     <path d="M 417.924793 44.613281 
L 447.924793 44.613281 
" style="fill:none;stroke:#bcbd22;stroke-linecap:square;stroke-width:1.5;"/>
    </g>
    <g id="line2d_44"/>
    <g id="text_28">
     <!-- Stra 9 -->
     <g transform="translate(459.924793 49.863281)scale(0.15 -0.15)">
      <use xlink:href="#DejaVuSans-83"/>
      <use x="63.476562" xlink:href="#DejaVuSans-116"/>
      <use x="102.685547" xlink:href="#DejaVuSans-114"/>
      <use x="143.798828" xlink:href="#DejaVuSans-97"/>
      <use x="205.078125" xlink:href="#DejaVuSans-32"/>
      <use x="236.865234" xlink:href="#DejaVuSans-57"/>
     </g>
    </g>
   </g>
  </g>
 </g>
 <defs>
  <clipPath id="p4631b6b904">
   <rect height="277.06" width="467.447449" x="51.05" y="88.5"/>
  </clipPath>
 </defs>
</svg>
