<?xml version="1.0" encoding="utf-8" standalone="no"?>
<!DOCTYPE svg PUBLIC "-//W3C//DTD SVG 1.1//EN"
  "http://www.w3.org/Graphics/SVG/1.1/DTD/svg11.dtd">
<!-- Created with matplotlib (https://matplotlib.org/) -->
<svg height="432pt" version="1.1" viewBox="0 0 540 432" width="540pt" xmlns="http://www.w3.org/2000/svg" xmlns:xlink="http://www.w3.org/1999/xlink">
 <defs>
  <style type="text/css">
*{stroke-linecap:butt;stroke-linejoin:round;}
  </style>
 </defs>
 <g id="figure_1">
  <g id="patch_1">
   <path d="M 0 432 
L 540 432 
L 540 0 
L 0 0 
z
" style="fill:#ffffff;"/>
  </g>
  <g id="axes_1">
   <g id="patch_2">
    <path d="M 51.05 365.56 
L 529.2 365.56 
L 529.2 88.5 
L 51.05 88.5 
z
" style="fill:#ffffff;"/>
   </g>
   <g id="matplotlib.axis_1">
    <g id="xtick_1">
     <g id="line2d_1">
      <defs>
       <path d="M 0 0 
L 0 3.5 
" id="m1152a53f7c" style="stroke:#000000;stroke-width:0.8;"/>
      </defs>
      <g>
       <use style="stroke:#000000;stroke-width:0.8;" x="72.784091" xlink:href="#m1152a53f7c" y="365.56"/>
      </g>
     </g>
     <g id="text_1">
      <!-- 0 -->
      <defs>
       <path d="M 31.78125 66.40625 
Q 24.171875 66.40625 20.328125 58.90625 
Q 16.5 51.421875 16.5 36.375 
Q 16.5 21.390625 20.328125 13.890625 
Q 24.171875 6.390625 31.78125 6.390625 
Q 39.453125 6.390625 43.28125 13.890625 
Q 47.125 21.390625 47.125 36.375 
Q 47.125 51.421875 43.28125 58.90625 
Q 39.453125 66.40625 31.78125 66.40625 
z
M 31.78125 74.21875 
Q 44.046875 74.21875 50.515625 64.515625 
Q 56.984375 54.828125 56.984375 36.375 
Q 56.984375 17.96875 50.515625 8.265625 
Q 44.046875 -1.421875 31.78125 -1.421875 
Q 19.53125 -1.421875 13.0625 8.265625 
Q 6.59375 17.96875 6.59375 36.375 
Q 6.59375 54.828125 13.0625 64.515625 
Q 19.53125 74.21875 31.78125 74.21875 
z
" id="DejaVuSans-48"/>
      </defs>
      <g transform="translate(66.421591 387.756875)scale(0.2 -0.2)">
       <use xlink:href="#DejaVuSans-48"/>
      </g>
     </g>
    </g>
    <g id="xtick_2">
     <g id="line2d_2">
      <g>
       <use style="stroke:#000000;stroke-width:0.8;" x="172.710946" xlink:href="#m1152a53f7c" y="365.56"/>
      </g>
     </g>
     <g id="text_2">
      <!-- 20 -->
      <defs>
       <path d="M 19.1875 8.296875 
L 53.609375 8.296875 
L 53.609375 0 
L 7.328125 0 
L 7.328125 8.296875 
Q 12.9375 14.109375 22.625 23.890625 
Q 32.328125 33.6875 34.8125 36.53125 
Q 39.546875 41.84375 41.421875 45.53125 
Q 43.3125 49.21875 43.3125 52.78125 
Q 43.3125 58.59375 39.234375 62.25 
Q 35.15625 65.921875 28.609375 65.921875 
Q 23.96875 65.921875 18.8125 64.3125 
Q 13.671875 62.703125 7.8125 59.421875 
L 7.8125 69.390625 
Q 13.765625 71.78125 18.9375 73 
Q 24.125 74.21875 28.421875 74.21875 
Q 39.75 74.21875 46.484375 68.546875 
Q 53.21875 62.890625 53.21875 53.421875 
Q 53.21875 48.921875 51.53125 44.890625 
Q 49.859375 40.875 45.40625 35.40625 
Q 44.1875 33.984375 37.640625 27.21875 
Q 31.109375 20.453125 19.1875 8.296875 
z
" id="DejaVuSans-50"/>
      </defs>
      <g transform="translate(159.985946 387.756875)scale(0.2 -0.2)">
       <use xlink:href="#DejaVuSans-50"/>
       <use x="63.623047" xlink:href="#DejaVuSans-48"/>
      </g>
     </g>
    </g>
    <g id="xtick_3">
     <g id="line2d_3">
      <g>
       <use style="stroke:#000000;stroke-width:0.8;" x="272.6378" xlink:href="#m1152a53f7c" y="365.56"/>
      </g>
     </g>
     <g id="text_3">
      <!-- 40 -->
      <defs>
       <path d="M 37.796875 64.3125 
L 12.890625 25.390625 
L 37.796875 25.390625 
z
M 35.203125 72.90625 
L 47.609375 72.90625 
L 47.609375 25.390625 
L 58.015625 25.390625 
L 58.015625 17.1875 
L 47.609375 17.1875 
L 47.609375 0 
L 37.796875 0 
L 37.796875 17.1875 
L 4.890625 17.1875 
L 4.890625 26.703125 
z
" id="DejaVuSans-52"/>
      </defs>
      <g transform="translate(259.9128 387.756875)scale(0.2 -0.2)">
       <use xlink:href="#DejaVuSans-52"/>
       <use x="63.623047" xlink:href="#DejaVuSans-48"/>
      </g>
     </g>
    </g>
    <g id="xtick_4">
     <g id="line2d_4">
      <g>
       <use style="stroke:#000000;stroke-width:0.8;" x="372.564655" xlink:href="#m1152a53f7c" y="365.56"/>
      </g>
     </g>
     <g id="text_4">
      <!-- 60 -->
      <defs>
       <path d="M 33.015625 40.375 
Q 26.375 40.375 22.484375 35.828125 
Q 18.609375 31.296875 18.609375 23.390625 
Q 18.609375 15.53125 22.484375 10.953125 
Q 26.375 6.390625 33.015625 6.390625 
Q 39.65625 6.390625 43.53125 10.953125 
Q 47.40625 15.53125 47.40625 23.390625 
Q 47.40625 31.296875 43.53125 35.828125 
Q 39.65625 40.375 33.015625 40.375 
z
M 52.59375 71.296875 
L 52.59375 62.3125 
Q 48.875 64.0625 45.09375 64.984375 
Q 41.3125 65.921875 37.59375 65.921875 
Q 27.828125 65.921875 22.671875 59.328125 
Q 17.53125 52.734375 16.796875 39.40625 
Q 19.671875 43.65625 24.015625 45.921875 
Q 28.375 48.1875 33.59375 48.1875 
Q 44.578125 48.1875 50.953125 41.515625 
Q 57.328125 34.859375 57.328125 23.390625 
Q 57.328125 12.15625 50.6875 5.359375 
Q 44.046875 -1.421875 33.015625 -1.421875 
Q 20.359375 -1.421875 13.671875 8.265625 
Q 6.984375 17.96875 6.984375 36.375 
Q 6.984375 53.65625 15.1875 63.9375 
Q 23.390625 74.21875 37.203125 74.21875 
Q 40.921875 74.21875 44.703125 73.484375 
Q 48.484375 72.75 52.59375 71.296875 
z
" id="DejaVuSans-54"/>
      </defs>
      <g transform="translate(359.839655 387.756875)scale(0.2 -0.2)">
       <use xlink:href="#DejaVuSans-54"/>
       <use x="63.623047" xlink:href="#DejaVuSans-48"/>
      </g>
     </g>
    </g>
    <g id="xtick_5">
     <g id="line2d_5">
      <g>
       <use style="stroke:#000000;stroke-width:0.8;" x="472.49151" xlink:href="#m1152a53f7c" y="365.56"/>
      </g>
     </g>
     <g id="text_5">
      <!-- 80 -->
      <defs>
       <path d="M 31.78125 34.625 
Q 24.75 34.625 20.71875 30.859375 
Q 16.703125 27.09375 16.703125 20.515625 
Q 16.703125 13.921875 20.71875 10.15625 
Q 24.75 6.390625 31.78125 6.390625 
Q 38.8125 6.390625 42.859375 10.171875 
Q 46.921875 13.96875 46.921875 20.515625 
Q 46.921875 27.09375 42.890625 30.859375 
Q 38.875 34.625 31.78125 34.625 
z
M 21.921875 38.8125 
Q 15.578125 40.375 12.03125 44.71875 
Q 8.5 49.078125 8.5 55.328125 
Q 8.5 64.0625 14.71875 69.140625 
Q 20.953125 74.21875 31.78125 74.21875 
Q 42.671875 74.21875 48.875 69.140625 
Q 55.078125 64.0625 55.078125 55.328125 
Q 55.078125 49.078125 51.53125 44.71875 
Q 48 40.375 41.703125 38.8125 
Q 48.828125 37.15625 52.796875 32.3125 
Q 56.78125 27.484375 56.78125 20.515625 
Q 56.78125 9.90625 50.3125 4.234375 
Q 43.84375 -1.421875 31.78125 -1.421875 
Q 19.734375 -1.421875 13.25 4.234375 
Q 6.78125 9.90625 6.78125 20.515625 
Q 6.78125 27.484375 10.78125 32.3125 
Q 14.796875 37.15625 21.921875 38.8125 
z
M 18.3125 54.390625 
Q 18.3125 48.734375 21.84375 45.5625 
Q 25.390625 42.390625 31.78125 42.390625 
Q 38.140625 42.390625 41.71875 45.5625 
Q 45.3125 48.734375 45.3125 54.390625 
Q 45.3125 60.0625 41.71875 63.234375 
Q 38.140625 66.40625 31.78125 66.40625 
Q 25.390625 66.40625 21.84375 63.234375 
Q 18.3125 60.0625 18.3125 54.390625 
z
" id="DejaVuSans-56"/>
      </defs>
      <g transform="translate(459.76651 387.756875)scale(0.2 -0.2)">
       <use xlink:href="#DejaVuSans-56"/>
       <use x="63.623047" xlink:href="#DejaVuSans-48"/>
      </g>
     </g>
    </g>
    <g id="text_6">
     <!-- # of games -->
     <defs>
      <path d="M 51.125 44 
L 36.921875 44 
L 32.8125 27.6875 
L 47.125 27.6875 
z
M 43.796875 71.78125 
L 38.71875 51.515625 
L 52.984375 51.515625 
L 58.109375 71.78125 
L 65.921875 71.78125 
L 60.890625 51.515625 
L 76.125 51.515625 
L 76.125 44 
L 58.984375 44 
L 54.984375 27.6875 
L 70.515625 27.6875 
L 70.515625 20.21875 
L 53.078125 20.21875 
L 48 0 
L 40.1875 0 
L 45.21875 20.21875 
L 30.90625 20.21875 
L 25.875 0 
L 18.015625 0 
L 23.09375 20.21875 
L 7.71875 20.21875 
L 7.71875 27.6875 
L 24.90625 27.6875 
L 29 44 
L 13.28125 44 
L 13.28125 51.515625 
L 30.90625 51.515625 
L 35.890625 71.78125 
z
" id="DejaVuSans-35"/>
      <path id="DejaVuSans-32"/>
      <path d="M 30.609375 48.390625 
Q 23.390625 48.390625 19.1875 42.75 
Q 14.984375 37.109375 14.984375 27.296875 
Q 14.984375 17.484375 19.15625 11.84375 
Q 23.34375 6.203125 30.609375 6.203125 
Q 37.796875 6.203125 41.984375 11.859375 
Q 46.1875 17.53125 46.1875 27.296875 
Q 46.1875 37.015625 41.984375 42.703125 
Q 37.796875 48.390625 30.609375 48.390625 
z
M 30.609375 56 
Q 42.328125 56 49.015625 48.375 
Q 55.71875 40.765625 55.71875 27.296875 
Q 55.71875 13.875 49.015625 6.21875 
Q 42.328125 -1.421875 30.609375 -1.421875 
Q 18.84375 -1.421875 12.171875 6.21875 
Q 5.515625 13.875 5.515625 27.296875 
Q 5.515625 40.765625 12.171875 48.375 
Q 18.84375 56 30.609375 56 
z
" id="DejaVuSans-111"/>
      <path d="M 37.109375 75.984375 
L 37.109375 68.5 
L 28.515625 68.5 
Q 23.6875 68.5 21.796875 66.546875 
Q 19.921875 64.59375 19.921875 59.515625 
L 19.921875 54.6875 
L 34.71875 54.6875 
L 34.71875 47.703125 
L 19.921875 47.703125 
L 19.921875 0 
L 10.890625 0 
L 10.890625 47.703125 
L 2.296875 47.703125 
L 2.296875 54.6875 
L 10.890625 54.6875 
L 10.890625 58.5 
Q 10.890625 67.625 15.140625 71.796875 
Q 19.390625 75.984375 28.609375 75.984375 
z
" id="DejaVuSans-102"/>
      <path d="M 45.40625 27.984375 
Q 45.40625 37.75 41.375 43.109375 
Q 37.359375 48.484375 30.078125 48.484375 
Q 22.859375 48.484375 18.828125 43.109375 
Q 14.796875 37.75 14.796875 27.984375 
Q 14.796875 18.265625 18.828125 12.890625 
Q 22.859375 7.515625 30.078125 7.515625 
Q 37.359375 7.515625 41.375 12.890625 
Q 45.40625 18.265625 45.40625 27.984375 
z
M 54.390625 6.78125 
Q 54.390625 -7.171875 48.1875 -13.984375 
Q 42 -20.796875 29.203125 -20.796875 
Q 24.46875 -20.796875 20.265625 -20.09375 
Q 16.0625 -19.390625 12.109375 -17.921875 
L 12.109375 -9.1875 
Q 16.0625 -11.328125 19.921875 -12.34375 
Q 23.78125 -13.375 27.78125 -13.375 
Q 36.625 -13.375 41.015625 -8.765625 
Q 45.40625 -4.15625 45.40625 5.171875 
L 45.40625 9.625 
Q 42.625 4.78125 38.28125 2.390625 
Q 33.9375 0 27.875 0 
Q 17.828125 0 11.671875 7.65625 
Q 5.515625 15.328125 5.515625 27.984375 
Q 5.515625 40.671875 11.671875 48.328125 
Q 17.828125 56 27.875 56 
Q 33.9375 56 38.28125 53.609375 
Q 42.625 51.21875 45.40625 46.390625 
L 45.40625 54.6875 
L 54.390625 54.6875 
z
" id="DejaVuSans-103"/>
      <path d="M 34.28125 27.484375 
Q 23.390625 27.484375 19.1875 25 
Q 14.984375 22.515625 14.984375 16.5 
Q 14.984375 11.71875 18.140625 8.90625 
Q 21.296875 6.109375 26.703125 6.109375 
Q 34.1875 6.109375 38.703125 11.40625 
Q 43.21875 16.703125 43.21875 25.484375 
L 43.21875 27.484375 
z
M 52.203125 31.203125 
L 52.203125 0 
L 43.21875 0 
L 43.21875 8.296875 
Q 40.140625 3.328125 35.546875 0.953125 
Q 30.953125 -1.421875 24.3125 -1.421875 
Q 15.921875 -1.421875 10.953125 3.296875 
Q 6 8.015625 6 15.921875 
Q 6 25.140625 12.171875 29.828125 
Q 18.359375 34.515625 30.609375 34.515625 
L 43.21875 34.515625 
L 43.21875 35.40625 
Q 43.21875 41.609375 39.140625 45 
Q 35.0625 48.390625 27.6875 48.390625 
Q 23 48.390625 18.546875 47.265625 
Q 14.109375 46.140625 10.015625 43.890625 
L 10.015625 52.203125 
Q 14.9375 54.109375 19.578125 55.046875 
Q 24.21875 56 28.609375 56 
Q 40.484375 56 46.34375 49.84375 
Q 52.203125 43.703125 52.203125 31.203125 
z
" id="DejaVuSans-97"/>
      <path d="M 52 44.1875 
Q 55.375 50.25 60.0625 53.125 
Q 64.75 56 71.09375 56 
Q 79.640625 56 84.28125 50.015625 
Q 88.921875 44.046875 88.921875 33.015625 
L 88.921875 0 
L 79.890625 0 
L 79.890625 32.71875 
Q 79.890625 40.578125 77.09375 44.375 
Q 74.3125 48.1875 68.609375 48.1875 
Q 61.625 48.1875 57.5625 43.546875 
Q 53.515625 38.921875 53.515625 30.90625 
L 53.515625 0 
L 44.484375 0 
L 44.484375 32.71875 
Q 44.484375 40.625 41.703125 44.40625 
Q 38.921875 48.1875 33.109375 48.1875 
Q 26.21875 48.1875 22.15625 43.53125 
Q 18.109375 38.875 18.109375 30.90625 
L 18.109375 0 
L 9.078125 0 
L 9.078125 54.6875 
L 18.109375 54.6875 
L 18.109375 46.1875 
Q 21.1875 51.21875 25.484375 53.609375 
Q 29.78125 56 35.6875 56 
Q 41.65625 56 45.828125 52.96875 
Q 50 49.953125 52 44.1875 
z
" id="DejaVuSans-109"/>
      <path d="M 56.203125 29.59375 
L 56.203125 25.203125 
L 14.890625 25.203125 
Q 15.484375 15.921875 20.484375 11.0625 
Q 25.484375 6.203125 34.421875 6.203125 
Q 39.59375 6.203125 44.453125 7.46875 
Q 49.3125 8.734375 54.109375 11.28125 
L 54.109375 2.78125 
Q 49.265625 0.734375 44.1875 -0.34375 
Q 39.109375 -1.421875 33.890625 -1.421875 
Q 20.796875 -1.421875 13.15625 6.1875 
Q 5.515625 13.8125 5.515625 26.8125 
Q 5.515625 40.234375 12.765625 48.109375 
Q 20.015625 56 32.328125 56 
Q 43.359375 56 49.78125 48.890625 
Q 56.203125 41.796875 56.203125 29.59375 
z
M 47.21875 32.234375 
Q 47.125 39.59375 43.09375 43.984375 
Q 39.0625 48.390625 32.421875 48.390625 
Q 24.90625 48.390625 20.390625 44.140625 
Q 15.875 39.890625 15.1875 32.171875 
z
" id="DejaVuSans-101"/>
      <path d="M 44.28125 53.078125 
L 44.28125 44.578125 
Q 40.484375 46.53125 36.375 47.5 
Q 32.28125 48.484375 27.875 48.484375 
Q 21.1875 48.484375 17.84375 46.4375 
Q 14.5 44.390625 14.5 40.28125 
Q 14.5 37.15625 16.890625 35.375 
Q 19.28125 33.59375 26.515625 31.984375 
L 29.59375 31.296875 
Q 39.15625 29.25 43.1875 25.515625 
Q 47.21875 21.78125 47.21875 15.09375 
Q 47.21875 7.46875 41.1875 3.015625 
Q 35.15625 -1.421875 24.609375 -1.421875 
Q 20.21875 -1.421875 15.453125 -0.5625 
Q 10.6875 0.296875 5.421875 2 
L 5.421875 11.28125 
Q 10.40625 8.6875 15.234375 7.390625 
Q 20.0625 6.109375 24.8125 6.109375 
Q 31.15625 6.109375 34.5625 8.28125 
Q 37.984375 10.453125 37.984375 14.40625 
Q 37.984375 18.0625 35.515625 20.015625 
Q 33.0625 21.96875 24.703125 23.78125 
L 21.578125 24.515625 
Q 13.234375 26.265625 9.515625 29.90625 
Q 5.8125 33.546875 5.8125 39.890625 
Q 5.8125 47.609375 11.28125 51.796875 
Q 16.75 56 26.8125 56 
Q 31.78125 56 36.171875 55.265625 
Q 40.578125 54.546875 44.28125 53.078125 
z
" id="DejaVuSans-115"/>
     </defs>
     <g transform="translate(217.681641 414.912344)scale(0.25 -0.25)">
      <use xlink:href="#DejaVuSans-35"/>
      <use x="83.789062" xlink:href="#DejaVuSans-32"/>
      <use x="115.576172" xlink:href="#DejaVuSans-111"/>
      <use x="176.757812" xlink:href="#DejaVuSans-102"/>
      <use x="211.962891" xlink:href="#DejaVuSans-32"/>
      <use x="243.75" xlink:href="#DejaVuSans-103"/>
      <use x="307.226562" xlink:href="#DejaVuSans-97"/>
      <use x="368.505859" xlink:href="#DejaVuSans-109"/>
      <use x="465.917969" xlink:href="#DejaVuSans-101"/>
      <use x="527.441406" xlink:href="#DejaVuSans-115"/>
     </g>
    </g>
   </g>
   <g id="matplotlib.axis_2">
    <g id="ytick_1">
     <g id="line2d_6">
      <defs>
       <path d="M 0 0 
L -3.5 0 
" id="m607d6f8f39" style="stroke:#000000;stroke-width:0.8;"/>
      </defs>
      <g>
       <use style="stroke:#000000;stroke-width:0.8;" x="51.05" xlink:href="#m607d6f8f39" y="352.966364"/>
      </g>
     </g>
     <g id="text_7">
      <!-- 1 -->
      <defs>
       <path d="M 12.40625 8.296875 
L 28.515625 8.296875 
L 28.515625 63.921875 
L 10.984375 60.40625 
L 10.984375 69.390625 
L 28.421875 72.90625 
L 38.28125 72.90625 
L 38.28125 8.296875 
L 54.390625 8.296875 
L 54.390625 0 
L 12.40625 0 
z
" id="DejaVuSans-49"/>
      </defs>
      <g transform="translate(31.325 360.564801)scale(0.2 -0.2)">
       <use xlink:href="#DejaVuSans-49"/>
      </g>
     </g>
    </g>
    <g id="ytick_2">
     <g id="line2d_7">
      <g>
       <use style="stroke:#000000;stroke-width:0.8;" x="51.05" xlink:href="#m607d6f8f39" y="321.482273"/>
      </g>
     </g>
     <g id="text_8">
      <!-- 2 -->
      <g transform="translate(31.325 329.08071)scale(0.2 -0.2)">
       <use xlink:href="#DejaVuSans-50"/>
      </g>
     </g>
    </g>
    <g id="ytick_3">
     <g id="line2d_8">
      <g>
       <use style="stroke:#000000;stroke-width:0.8;" x="51.05" xlink:href="#m607d6f8f39" y="289.998182"/>
      </g>
     </g>
     <g id="text_9">
      <!-- 3 -->
      <defs>
       <path d="M 40.578125 39.3125 
Q 47.65625 37.796875 51.625 33 
Q 55.609375 28.21875 55.609375 21.1875 
Q 55.609375 10.40625 48.1875 4.484375 
Q 40.765625 -1.421875 27.09375 -1.421875 
Q 22.515625 -1.421875 17.65625 -0.515625 
Q 12.796875 0.390625 7.625 2.203125 
L 7.625 11.71875 
Q 11.71875 9.328125 16.59375 8.109375 
Q 21.484375 6.890625 26.8125 6.890625 
Q 36.078125 6.890625 40.9375 10.546875 
Q 45.796875 14.203125 45.796875 21.1875 
Q 45.796875 27.640625 41.28125 31.265625 
Q 36.765625 34.90625 28.71875 34.90625 
L 20.21875 34.90625 
L 20.21875 43.015625 
L 29.109375 43.015625 
Q 36.375 43.015625 40.234375 45.921875 
Q 44.09375 48.828125 44.09375 54.296875 
Q 44.09375 59.90625 40.109375 62.90625 
Q 36.140625 65.921875 28.71875 65.921875 
Q 24.65625 65.921875 20.015625 65.03125 
Q 15.375 64.15625 9.8125 62.3125 
L 9.8125 71.09375 
Q 15.4375 72.65625 20.34375 73.4375 
Q 25.25 74.21875 29.59375 74.21875 
Q 40.828125 74.21875 47.359375 69.109375 
Q 53.90625 64.015625 53.90625 55.328125 
Q 53.90625 49.265625 50.4375 45.09375 
Q 46.96875 40.921875 40.578125 39.3125 
z
" id="DejaVuSans-51"/>
      </defs>
      <g transform="translate(31.325 297.596619)scale(0.2 -0.2)">
       <use xlink:href="#DejaVuSans-51"/>
      </g>
     </g>
    </g>
    <g id="ytick_4">
     <g id="line2d_9">
      <g>
       <use style="stroke:#000000;stroke-width:0.8;" x="51.05" xlink:href="#m607d6f8f39" y="258.514091"/>
      </g>
     </g>
     <g id="text_10">
      <!-- 4 -->
      <g transform="translate(31.325 266.112528)scale(0.2 -0.2)">
       <use xlink:href="#DejaVuSans-52"/>
      </g>
     </g>
    </g>
    <g id="ytick_5">
     <g id="line2d_10">
      <g>
       <use style="stroke:#000000;stroke-width:0.8;" x="51.05" xlink:href="#m607d6f8f39" y="227.03"/>
      </g>
     </g>
     <g id="text_11">
      <!-- 5 -->
      <defs>
       <path d="M 10.796875 72.90625 
L 49.515625 72.90625 
L 49.515625 64.59375 
L 19.828125 64.59375 
L 19.828125 46.734375 
Q 21.96875 47.46875 24.109375 47.828125 
Q 26.265625 48.1875 28.421875 48.1875 
Q 40.625 48.1875 47.75 41.5 
Q 54.890625 34.8125 54.890625 23.390625 
Q 54.890625 11.625 47.5625 5.09375 
Q 40.234375 -1.421875 26.90625 -1.421875 
Q 22.3125 -1.421875 17.546875 -0.640625 
Q 12.796875 0.140625 7.71875 1.703125 
L 7.71875 11.625 
Q 12.109375 9.234375 16.796875 8.0625 
Q 21.484375 6.890625 26.703125 6.890625 
Q 35.15625 6.890625 40.078125 11.328125 
Q 45.015625 15.765625 45.015625 23.390625 
Q 45.015625 31 40.078125 35.4375 
Q 35.15625 39.890625 26.703125 39.890625 
Q 22.75 39.890625 18.8125 39.015625 
Q 14.890625 38.140625 10.796875 36.28125 
z
" id="DejaVuSans-53"/>
      </defs>
      <g transform="translate(31.325 234.628437)scale(0.2 -0.2)">
       <use xlink:href="#DejaVuSans-53"/>
      </g>
     </g>
    </g>
    <g id="ytick_6">
     <g id="line2d_11">
      <g>
       <use style="stroke:#000000;stroke-width:0.8;" x="51.05" xlink:href="#m607d6f8f39" y="195.545909"/>
      </g>
     </g>
     <g id="text_12">
      <!-- 6 -->
      <g transform="translate(31.325 203.144347)scale(0.2 -0.2)">
       <use xlink:href="#DejaVuSans-54"/>
      </g>
     </g>
    </g>
    <g id="ytick_7">
     <g id="line2d_12">
      <g>
       <use style="stroke:#000000;stroke-width:0.8;" x="51.05" xlink:href="#m607d6f8f39" y="164.061818"/>
      </g>
     </g>
     <g id="text_13">
      <!-- 7 -->
      <defs>
       <path d="M 8.203125 72.90625 
L 55.078125 72.90625 
L 55.078125 68.703125 
L 28.609375 0 
L 18.3125 0 
L 43.21875 64.59375 
L 8.203125 64.59375 
z
" id="DejaVuSans-55"/>
      </defs>
      <g transform="translate(31.325 171.660256)scale(0.2 -0.2)">
       <use xlink:href="#DejaVuSans-55"/>
      </g>
     </g>
    </g>
    <g id="ytick_8">
     <g id="line2d_13">
      <g>
       <use style="stroke:#000000;stroke-width:0.8;" x="51.05" xlink:href="#m607d6f8f39" y="132.577727"/>
      </g>
     </g>
     <g id="text_14">
      <!-- 8 -->
      <g transform="translate(31.325 140.176165)scale(0.2 -0.2)">
       <use xlink:href="#DejaVuSans-56"/>
      </g>
     </g>
    </g>
    <g id="ytick_9">
     <g id="line2d_14">
      <g>
       <use style="stroke:#000000;stroke-width:0.8;" x="51.05" xlink:href="#m607d6f8f39" y="101.093636"/>
      </g>
     </g>
     <g id="text_15">
      <!-- 9 -->
      <defs>
       <path d="M 10.984375 1.515625 
L 10.984375 10.5 
Q 14.703125 8.734375 18.5 7.8125 
Q 22.3125 6.890625 25.984375 6.890625 
Q 35.75 6.890625 40.890625 13.453125 
Q 46.046875 20.015625 46.78125 33.40625 
Q 43.953125 29.203125 39.59375 26.953125 
Q 35.25 24.703125 29.984375 24.703125 
Q 19.046875 24.703125 12.671875 31.3125 
Q 6.296875 37.9375 6.296875 49.421875 
Q 6.296875 60.640625 12.9375 67.421875 
Q 19.578125 74.21875 30.609375 74.21875 
Q 43.265625 74.21875 49.921875 64.515625 
Q 56.59375 54.828125 56.59375 36.375 
Q 56.59375 19.140625 48.40625 8.859375 
Q 40.234375 -1.421875 26.421875 -1.421875 
Q 22.703125 -1.421875 18.890625 -0.6875 
Q 15.09375 0.046875 10.984375 1.515625 
z
M 30.609375 32.421875 
Q 37.25 32.421875 41.125 36.953125 
Q 45.015625 41.5 45.015625 49.421875 
Q 45.015625 57.28125 41.125 61.84375 
Q 37.25 66.40625 30.609375 66.40625 
Q 23.96875 66.40625 20.09375 61.84375 
Q 16.21875 57.28125 16.21875 49.421875 
Q 16.21875 41.5 20.09375 36.953125 
Q 23.96875 32.421875 30.609375 32.421875 
z
" id="DejaVuSans-57"/>
      </defs>
      <g transform="translate(31.325 108.692074)scale(0.2 -0.2)">
       <use xlink:href="#DejaVuSans-57"/>
      </g>
     </g>
    </g>
    <g id="text_16">
     <!-- AHEU Value -->
     <defs>
      <path d="M 34.1875 63.1875 
L 20.796875 26.90625 
L 47.609375 26.90625 
z
M 28.609375 72.90625 
L 39.796875 72.90625 
L 67.578125 0 
L 57.328125 0 
L 50.6875 18.703125 
L 17.828125 18.703125 
L 11.1875 0 
L 0.78125 0 
z
" id="DejaVuSans-65"/>
      <path d="M 9.8125 72.90625 
L 19.671875 72.90625 
L 19.671875 43.015625 
L 55.515625 43.015625 
L 55.515625 72.90625 
L 65.375 72.90625 
L 65.375 0 
L 55.515625 0 
L 55.515625 34.71875 
L 19.671875 34.71875 
L 19.671875 0 
L 9.8125 0 
z
" id="DejaVuSans-72"/>
      <path d="M 9.8125 72.90625 
L 55.90625 72.90625 
L 55.90625 64.59375 
L 19.671875 64.59375 
L 19.671875 43.015625 
L 54.390625 43.015625 
L 54.390625 34.71875 
L 19.671875 34.71875 
L 19.671875 8.296875 
L 56.78125 8.296875 
L 56.78125 0 
L 9.8125 0 
z
" id="DejaVuSans-69"/>
      <path d="M 8.6875 72.90625 
L 18.609375 72.90625 
L 18.609375 28.609375 
Q 18.609375 16.890625 22.84375 11.734375 
Q 27.09375 6.59375 36.625 6.59375 
Q 46.09375 6.59375 50.34375 11.734375 
Q 54.59375 16.890625 54.59375 28.609375 
L 54.59375 72.90625 
L 64.5 72.90625 
L 64.5 27.390625 
Q 64.5 13.140625 57.4375 5.859375 
Q 50.390625 -1.421875 36.625 -1.421875 
Q 22.796875 -1.421875 15.734375 5.859375 
Q 8.6875 13.140625 8.6875 27.390625 
z
" id="DejaVuSans-85"/>
      <path d="M 28.609375 0 
L 0.78125 72.90625 
L 11.078125 72.90625 
L 34.1875 11.53125 
L 57.328125 72.90625 
L 67.578125 72.90625 
L 39.796875 0 
z
" id="DejaVuSans-86"/>
      <path d="M 9.421875 75.984375 
L 18.40625 75.984375 
L 18.40625 0 
L 9.421875 0 
z
" id="DejaVuSans-108"/>
      <path d="M 8.5 21.578125 
L 8.5 54.6875 
L 17.484375 54.6875 
L 17.484375 21.921875 
Q 17.484375 14.15625 20.5 10.265625 
Q 23.53125 6.390625 29.59375 6.390625 
Q 36.859375 6.390625 41.078125 11.03125 
Q 45.3125 15.671875 45.3125 23.6875 
L 45.3125 54.6875 
L 54.296875 54.6875 
L 54.296875 0 
L 45.3125 0 
L 45.3125 8.40625 
Q 42.046875 3.421875 37.71875 1 
Q 33.40625 -1.421875 27.6875 -1.421875 
Q 18.265625 -1.421875 13.375 4.4375 
Q 8.5 10.296875 8.5 21.578125 
z
M 31.109375 56 
z
" id="DejaVuSans-117"/>
     </defs>
     <g transform="translate(23.858854 276.532604)rotate(-90)scale(0.166667 -0.166667)">
      <use xlink:href="#DejaVuSans-65"/>
      <use x="68.408203" xlink:href="#DejaVuSans-72"/>
      <use x="143.603516" xlink:href="#DejaVuSans-69"/>
      <use x="206.787109" xlink:href="#DejaVuSans-85"/>
      <use x="279.980469" xlink:href="#DejaVuSans-32"/>
      <use x="311.767578" xlink:href="#DejaVuSans-86"/>
      <use x="380.066406" xlink:href="#DejaVuSans-97"/>
      <use x="441.345703" xlink:href="#DejaVuSans-108"/>
      <use x="469.128906" xlink:href="#DejaVuSans-117"/>
      <use x="532.507812" xlink:href="#DejaVuSans-101"/>
     </g>
    </g>
   </g>
   <g id="line2d_15">
    <path clip-path="url(#p54cf635253)" d="M 72.784091 185.051212 
L 77.780434 302.969156 
L 82.776776 307.524419 
L 87.773119 313.605385 
L 92.769462 307.775281 
L 97.765805 304.435049 
L 102.762147 301.971689 
L 107.75849 297.978874 
L 112.754833 294.726791 
L 117.751176 288.742943 
L 122.747518 286.314401 
L 127.743861 283.705809 
L 132.740204 282.516472 
L 137.736546 280.146214 
L 142.732889 277.966886 
L 147.729232 276.109356 
L 152.725575 273.621525 
L 157.721917 271.68101 
L 162.71826 270.267027 
L 167.714603 269.611818 
L 172.710946 267.560131 
L 177.707288 266.956959 
L 182.703631 265.598523 
L 187.699974 265.421395 
L 192.696317 264.408719 
L 197.692659 262.930185 
L 202.689002 261.884834 
L 207.685345 260.890182 
L 212.681688 260.223901 
L 217.67803 258.826542 
L 222.674373 258.801516 
L 227.670716 258.799393 
L 232.667059 257.623606 
L 237.663401 258.029078 
L 242.659744 256.810836 
L 247.656087 256.536974 
L 252.652429 255.933156 
L 257.648772 255.040741 
L 262.645115 254.119814 
L 267.641458 254.03722 
L 272.6378 252.90365 
L 277.634143 253.199758 
L 282.630486 252.414588 
L 287.626829 252.041607 
L 292.623171 251.49684 
L 297.619514 251.276941 
L 302.615857 250.843897 
L 307.6122 250.551117 
L 312.608542 249.317711 
L 317.604885 248.701942 
L 322.601228 248.552981 
L 327.597571 248.544449 
L 332.593913 248.553036 
L 337.590256 248.162856 
L 342.586599 247.982462 
L 347.582941 247.725195 
L 352.579284 248.131182 
L 357.575627 247.475098 
L 362.57197 247.687647 
L 367.568312 247.134294 
L 372.564655 246.83806 
L 377.560998 246.785999 
L 382.557341 247.169613 
L 387.553683 246.348983 
L 392.550026 246.042683 
L 397.546369 246.640107 
L 402.542712 247.308118 
L 407.539054 247.419848 
L 412.535397 247.970882 
L 417.53174 248.063362 
L 422.528083 246.913638 
L 427.524425 247.323936 
L 432.520768 246.62567 
L 437.517111 248.065041 
L 442.513454 248.20068 
L 447.509796 248.187074 
L 452.506139 249.939503 
L 457.502482 247.456339 
L 462.498824 247.140748 
L 467.495167 247.870528 
L 472.49151 248.529154 
L 477.487853 251.298342 
L 482.484195 254.548294 
L 487.480538 255.984861 
L 492.476881 254.985118 
L 497.473224 250.351549 
L 502.469566 250.351549 
L 507.465909 245.691838 
" style="fill:none;stroke:#1f77b4;stroke-linecap:square;stroke-width:1.5;"/>
   </g>
   <g id="line2d_16">
    <path clip-path="url(#p54cf635253)" d="M 72.784091 352.966364 
L 77.780434 308.747135 
L 82.776776 309.097855 
L 87.773119 308.990481 
L 92.769462 313.871073 
L 97.765805 317.371077 
L 102.762147 319.869556 
L 107.75849 323.050448 
L 112.754833 325.37109 
L 117.751176 328.494244 
L 122.747518 330.079605 
L 127.743861 331.300969 
L 132.740204 331.772384 
L 137.736546 333.062119 
L 142.732889 334.011293 
L 147.729232 335.206028 
L 152.725575 336.501342 
L 157.721917 337.148562 
L 162.71826 337.749437 
L 167.714603 337.994937 
L 172.710946 338.868638 
L 177.707288 338.984916 
L 182.703631 339.435951 
L 187.699974 339.672327 
L 192.696317 340.224352 
L 197.692659 341.019257 
L 202.689002 341.291947 
L 207.685345 341.83041 
L 212.681688 341.959253 
L 217.67803 342.445688 
L 222.674373 342.399274 
L 227.670716 342.333115 
L 232.667059 342.763525 
L 237.663401 342.560069 
L 242.659744 342.980252 
L 247.656087 342.984854 
L 252.652429 343.03859 
L 257.648772 343.491788 
L 262.645115 343.780912 
L 267.641458 343.869278 
L 272.6378 344.245251 
L 277.634143 344.050527 
L 282.630486 344.317657 
L 287.626829 344.471035 
L 292.623171 344.701823 
L 297.619514 344.868085 
L 302.615857 344.957516 
L 307.6122 345.042269 
L 312.608542 345.403126 
L 317.604885 345.432055 
L 322.601228 345.41666 
L 327.597571 345.353064 
L 332.593913 345.288755 
L 337.590256 345.375001 
L 342.586599 345.458128 
L 347.582941 345.650839 
L 352.579284 345.339403 
L 357.575627 345.429935 
L 362.57197 345.628166 
L 367.568312 345.852623 
L 372.564655 345.883957 
L 377.560998 345.958634 
L 382.557341 345.79351 
L 387.553683 346.065191 
L 392.550026 346.106073 
L 397.546369 345.970343 
L 402.542712 345.527182 
L 407.539054 345.42373 
L 412.535397 345.095804 
L 417.53174 345.090889 
L 422.528083 345.860694 
L 427.524425 345.599121 
L 432.520768 346.030814 
L 437.517111 345.866647 
L 442.513454 345.409847 
L 447.509796 345.279692 
L 452.506139 344.937318 
L 457.502482 346.044225 
L 462.498824 345.903125 
L 467.495167 345.749458 
L 472.49151 345.039401 
L 477.487853 344.073802 
L 482.484195 342.301001 
L 487.480538 342.779828 
L 492.476881 343.610924 
L 497.473224 349.430685 
L 502.469566 349.430685 
L 507.465909 349.418703 
" style="fill:none;stroke:#ff7f0e;stroke-linecap:square;stroke-width:1.5;"/>
   </g>
   <g id="line2d_17">
    <path clip-path="url(#p54cf635253)" d="M 72.784091 352.966364 
L 77.780434 308.747135 
L 82.776776 300.865072 
L 87.773119 292.269516 
L 92.769462 286.752587 
L 97.765805 282.175404 
L 102.762147 278.491378 
L 107.75849 273.349105 
L 112.754833 269.949302 
L 117.751176 268.604281 
L 122.747518 266.587601 
L 127.743861 266.775175 
L 132.740204 266.833025 
L 137.736546 266.80827 
L 142.732889 267.539907 
L 147.729232 266.804966 
L 152.725575 266.731243 
L 157.721917 267.50149 
L 162.71826 267.993509 
L 167.714603 268.409602 
L 172.710946 268.551749 
L 177.707288 267.867675 
L 182.703631 268.63806 
L 187.699974 269.177529 
L 192.696317 269.033154 
L 197.692659 268.909302 
L 202.689002 268.821883 
L 207.685345 268.764743 
L 212.681688 268.616171 
L 217.67803 268.76326 
L 222.674373 269.538407 
L 227.670716 270.541118 
L 232.667059 271.006095 
L 237.663401 270.919324 
L 242.659744 271.408235 
L 247.656087 271.48535 
L 252.652429 272.993267 
L 257.648772 272.352343 
L 262.645115 272.808955 
L 267.641458 273.307174 
L 272.6378 273.74734 
L 277.634143 273.593571 
L 282.630486 273.593213 
L 287.626829 273.911528 
L 292.623171 274.449416 
L 297.619514 274.484872 
L 302.615857 275.10016 
L 307.6122 275.206069 
L 312.608542 276.570828 
L 317.604885 277.020604 
L 322.601228 277.380001 
L 327.597571 277.277338 
L 332.593913 278.197866 
L 337.590256 279.002117 
L 342.586599 277.829806 
L 347.582941 277.40751 
L 352.579284 277.924193 
L 357.575627 278.199917 
L 362.57197 278.058225 
L 367.568312 279.106281 
L 372.564655 279.900776 
L 377.560998 280.188275 
L 382.557341 280.439968 
L 387.553683 279.909407 
L 392.550026 280.270152 
L 397.546369 279.068253 
L 402.542712 278.382539 
L 407.539054 278.451729 
L 412.535397 279.194607 
L 417.53174 278.678632 
L 422.528083 278.37715 
L 427.524425 278.373349 
L 432.520768 278.652037 
L 437.517111 276.082152 
L 442.513454 278.126283 
L 447.509796 278.485829 
L 452.506139 278.435699 
L 457.502482 278.29933 
L 462.498824 278.241519 
L 467.495167 276.78023 
L 472.49151 276.765409 
L 477.487853 275.670869 
L 482.484195 271.364822 
L 487.480538 265.3783 
L 492.476881 266.800798 
L 497.473224 265.454546 
L 502.469566 265.454546 
L 507.465909 258.461531 
" style="fill:none;stroke:#2ca02c;stroke-linecap:square;stroke-width:1.5;"/>
   </g>
   <g id="line2d_18">
    <path clip-path="url(#p54cf635253)" d="M 72.784091 352.966364 
L 77.780434 308.747135 
L 82.776776 300.865072 
L 87.773119 291.927297 
L 92.769462 286.344125 
L 97.765805 281.434638 
L 102.762147 277.642744 
L 107.75849 273.472903 
L 112.754833 271.021196 
L 117.751176 269.677585 
L 122.747518 267.168093 
L 127.743861 266.4974 
L 132.740204 266.949736 
L 137.736546 266.395784 
L 142.732889 266.067484 
L 147.729232 265.643378 
L 152.725575 265.522002 
L 157.721917 266.153921 
L 162.71826 267.377146 
L 167.714603 266.569985 
L 172.710946 266.83552 
L 177.707288 268.33951 
L 182.703631 269.64736 
L 187.699974 269.146939 
L 192.696317 268.89646 
L 197.692659 269.27298 
L 202.689002 269.392122 
L 207.685345 269.422922 
L 212.681688 269.705452 
L 217.67803 269.089792 
L 222.674373 270.262417 
L 227.670716 270.685344 
L 232.667059 271.092687 
L 237.663401 271.294388 
L 242.659744 272.023841 
L 247.656087 272.215501 
L 252.652429 273.171713 
L 257.648772 272.299455 
L 262.645115 272.401252 
L 267.641458 272.245291 
L 272.6378 273.028207 
L 277.634143 273.452272 
L 282.630486 273.145836 
L 287.626829 274.057009 
L 292.623171 274.816211 
L 297.619514 274.643547 
L 302.615857 275.409607 
L 307.6122 276.030201 
L 312.608542 276.980186 
L 317.604885 277.844969 
L 322.601228 278.769127 
L 327.597571 278.343217 
L 332.593913 279.261977 
L 337.590256 279.051149 
L 342.586599 278.492564 
L 347.582941 278.742047 
L 352.579284 278.40414 
L 357.575627 278.287391 
L 362.57197 277.407532 
L 367.568312 277.497218 
L 372.564655 277.292765 
L 377.560998 276.703398 
L 382.557341 278.004731 
L 387.553683 278.06214 
L 392.550026 278.141441 
L 397.546369 277.121623 
L 402.542712 277.185957 
L 407.539054 278.00023 
L 412.535397 278.545605 
L 417.53174 277.868133 
L 422.528083 276.465719 
L 427.524425 278.050411 
L 432.520768 277.397862 
L 437.517111 278.060017 
L 442.513454 278.326865 
L 447.509796 277.594207 
L 452.506139 274.162512 
L 457.502482 273.303854 
L 462.498824 274.372765 
L 467.495167 277.061912 
L 472.49151 279.498206 
L 477.487853 276.903897 
L 482.484195 278.224069 
L 487.480538 277.692174 
L 492.476881 283.553517 
L 497.473224 272.501539 
L 502.469566 272.501539 
L 507.465909 272.504988 
" style="fill:none;stroke:#d62728;stroke-linecap:square;stroke-width:1.5;"/>
   </g>
   <g id="line2d_19">
    <path clip-path="url(#p54cf635253)" d="M 72.784091 185.051212 
L 77.780434 170.311469 
L 82.776776 167.684115 
L 87.773119 164.613626 
L 92.769462 163.203683 
L 97.765805 162.82821 
L 102.762147 162.990663 
L 107.75849 161.781297 
L 112.754833 162.616085 
L 117.751176 162.963445 
L 122.747518 163.146272 
L 127.743861 162.111685 
L 132.740204 162.21395 
L 137.736546 161.686011 
L 142.732889 162.33644 
L 147.729232 161.527281 
L 152.725575 161.745342 
L 157.721917 161.481418 
L 162.71826 161.819999 
L 167.714603 161.876969 
L 172.710946 161.252839 
L 177.707288 161.243711 
L 182.703631 161.480274 
L 187.699974 161.284524 
L 192.696317 160.890949 
L 197.692659 160.889437 
L 202.689002 161.54594 
L 207.685345 161.141309 
L 212.681688 161.737958 
L 217.67803 161.871671 
L 222.674373 161.631658 
L 227.670716 161.618095 
L 232.667059 161.995254 
L 237.663401 162.399255 
L 242.659744 162.658278 
L 247.656087 162.554346 
L 252.652429 162.416356 
L 257.648772 162.654797 
L 262.645115 162.471618 
L 267.641458 162.60254 
L 272.6378 163.04266 
L 277.634143 163.167346 
L 282.630486 163.196973 
L 287.626829 163.214602 
L 292.623171 163.014853 
L 297.619514 162.805867 
L 302.615857 162.946595 
L 307.6122 162.824459 
L 312.608542 163.284832 
L 317.604885 163.637781 
L 322.601228 163.806857 
L 327.597571 163.564886 
L 332.593913 163.216968 
L 337.590256 163.640887 
L 342.586599 164.163561 
L 347.582941 164.075883 
L 352.579284 164.566778 
L 357.575627 164.113577 
L 362.57197 163.663073 
L 367.568312 163.455937 
L 372.564655 163.750339 
L 377.560998 163.717891 
L 382.557341 163.581645 
L 387.553683 163.26709 
L 392.550026 163.541653 
L 397.546369 163.292202 
L 402.542712 163.025381 
L 407.539054 163.301509 
L 412.535397 163.315675 
L 417.53174 163.359764 
L 422.528083 163.098221 
L 427.524425 163.28872 
L 432.520768 164.175529 
L 437.517111 163.732338 
L 442.513454 163.862584 
L 447.509796 163.102825 
L 452.506139 162.209499 
L 457.502482 162.775241 
L 462.498824 162.81483 
L 467.495167 162.778774 
L 472.49151 164.112242 
L 477.487853 163.670883 
L 482.484195 164.381047 
L 487.480538 163.314264 
L 492.476881 162.367017 
L 497.473224 162.883696 
L 502.469566 162.887529 
L 507.465909 158.228325 
" style="fill:none;stroke:#9467bd;stroke-linecap:square;stroke-width:1.5;"/>
   </g>
   <g id="line2d_20">
    <path clip-path="url(#p54cf635253)" d="M 72.784091 352.966364 
L 77.780434 308.747135 
L 82.776776 300.865072 
L 87.773119 291.699152 
L 92.769462 285.371663 
L 97.765805 279.144519 
L 102.762147 273.970642 
L 107.75849 267.512603 
L 112.754833 262.56739 
L 117.751176 258.936344 
L 122.747518 255.993161 
L 127.743861 252.706203 
L 132.740204 251.163219 
L 137.736546 249.424781 
L 142.732889 248.555223 
L 147.729232 247.083417 
L 152.725575 245.862862 
L 157.721917 245.38711 
L 162.71826 245.537277 
L 167.714603 244.833842 
L 172.710946 244.456277 
L 177.707288 244.218587 
L 182.703631 244.463903 
L 187.699974 244.63158 
L 192.696317 244.111435 
L 197.692659 244.027739 
L 202.689002 244.045605 
L 207.685345 244.234165 
L 212.681688 244.62165 
L 217.67803 244.988286 
L 222.674373 245.530664 
L 227.670716 245.502653 
L 232.667059 246.066513 
L 237.663401 245.745234 
L 242.659744 246.270265 
L 247.656087 246.347665 
L 252.652429 246.119619 
L 257.648772 245.971533 
L 262.645115 245.699346 
L 267.641458 245.050513 
L 272.6378 245.413381 
L 277.634143 246.622741 
L 282.630486 246.409783 
L 287.626829 246.471684 
L 292.623171 247.329712 
L 297.619514 247.795743 
L 302.615857 248.501285 
L 307.6122 248.852096 
L 312.608542 249.157222 
L 317.604885 249.846605 
L 322.601228 250.351316 
L 327.597571 249.938278 
L 332.593913 250.522122 
L 337.590256 250.785216 
L 342.586599 251.016202 
L 347.582941 251.624081 
L 352.579284 251.937206 
L 357.575627 252.104541 
L 362.57197 252.470565 
L 367.568312 253.144152 
L 372.564655 253.966322 
L 377.560998 254.968156 
L 382.557341 255.859943 
L 387.553683 255.621231 
L 392.550026 255.323483 
L 397.546369 254.318256 
L 402.542712 255.25478 
L 407.539054 257.315896 
L 412.535397 257.252097 
L 417.53174 257.299239 
L 422.528083 256.921183 
L 427.524425 255.888886 
L 432.520768 256.258088 
L 437.517111 256.932603 
L 442.513454 258.891902 
L 447.509796 258.727716 
L 452.506139 256.633177 
L 457.502482 256.573914 
L 462.498824 257.342382 
L 467.495167 257.901225 
L 472.49151 260.456476 
L 477.487853 260.219143 
L 482.484195 259.739318 
L 487.480538 252.358387 
L 492.476881 251.066648 
L 497.473224 251.517626 
L 502.469566 265.510556 
L 507.465909 258.51754 
" style="fill:none;stroke:#8c564b;stroke-linecap:square;stroke-width:1.5;"/>
   </g>
   <g id="line2d_21">
    <path clip-path="url(#p54cf635253)" d="M 72.784091 269.008788 
L 77.780434 239.529302 
L 82.776776 234.274594 
L 87.773119 228.384179 
L 92.769462 225.468031 
L 97.765805 221.989322 
L 102.762147 218.857365 
L 107.75849 215.730684 
L 112.754833 213.827421 
L 117.751176 214.916279 
L 122.747518 214.073715 
L 127.743861 214.087556 
L 132.740204 215.464547 
L 137.736546 216.322246 
L 142.732889 215.804513 
L 147.729232 215.509315 
L 152.725575 215.444103 
L 157.721917 215.971333 
L 162.71826 216.415566 
L 167.714603 215.904829 
L 172.710946 215.778259 
L 177.707288 215.786976 
L 182.703631 216.284776 
L 187.699974 216.224228 
L 192.696317 215.726729 
L 197.692659 216.066008 
L 202.689002 216.089915 
L 207.685345 216.708081 
L 212.681688 217.233122 
L 217.67803 217.435962 
L 222.674373 217.607656 
L 227.670716 217.451348 
L 232.667059 217.822359 
L 237.663401 217.92863 
L 242.659744 218.427205 
L 247.656087 218.896238 
L 252.652429 219.203605 
L 257.648772 218.778796 
L 262.645115 219.128954 
L 267.641458 218.765256 
L 272.6378 218.852925 
L 277.634143 218.916354 
L 282.630486 219.342365 
L 287.626829 219.37498 
L 292.623171 219.167002 
L 297.619514 219.025984 
L 302.615857 219.78084 
L 307.6122 219.329247 
L 312.608542 219.846757 
L 317.604885 220.177685 
L 322.601228 220.814578 
L 327.597571 221.09352 
L 332.593913 221.448937 
L 337.590256 221.863662 
L 342.586599 221.33078 
L 347.582941 221.241524 
L 352.579284 221.410128 
L 357.575627 221.636084 
L 362.57197 220.826181 
L 367.568312 221.661219 
L 372.564655 221.667061 
L 377.560998 221.414363 
L 382.557341 221.835181 
L 387.553683 222.245318 
L 392.550026 221.560657 
L 397.546369 221.033668 
L 402.542712 221.140378 
L 407.539054 221.04296 
L 412.535397 221.338681 
L 417.53174 220.985174 
L 422.528083 220.046233 
L 427.524425 221.167397 
L 432.520768 219.826923 
L 437.517111 219.660017 
L 442.513454 221.077646 
L 447.509796 222.69725 
L 452.506139 221.313321 
L 457.502482 219.913649 
L 462.498824 219.917362 
L 467.495167 219.601323 
L 472.49151 221.067643 
L 477.487853 220.538475 
L 482.484195 220.452905 
L 487.480538 219.786509 
L 492.476881 218.52967 
L 497.473224 217.70138 
L 502.469566 217.70138 
L 507.465909 215.371525 
" style="fill:none;stroke:#e377c2;stroke-linecap:square;stroke-width:1.5;"/>
   </g>
   <g id="line2d_22">
    <path clip-path="url(#p54cf635253)" d="M 72.784091 352.966364 
L 77.780434 308.747135 
L 82.776776 300.865072 
L 87.773119 291.699152 
L 92.769462 285.371663 
L 97.765805 278.974227 
L 102.762147 273.592044 
L 107.75849 267.208387 
L 112.754833 262.605539 
L 117.751176 259.315516 
L 122.747518 255.572773 
L 127.743861 252.831339 
L 132.740204 250.843799 
L 137.736546 249.255825 
L 142.732889 247.977426 
L 147.729232 246.403315 
L 152.725575 245.968073 
L 157.721917 245.551392 
L 162.71826 246.587475 
L 167.714603 245.525291 
L 172.710946 244.9897 
L 177.707288 244.72326 
L 182.703631 245.783185 
L 187.699974 245.085929 
L 192.696317 244.133565 
L 197.692659 244.043237 
L 202.689002 244.356879 
L 207.685345 244.713164 
L 212.681688 245.240519 
L 217.67803 244.731427 
L 222.674373 245.522564 
L 227.670716 245.645362 
L 232.667059 246.365193 
L 237.663401 246.122347 
L 242.659744 246.429063 
L 247.656087 246.628291 
L 252.652429 246.731411 
L 257.648772 246.809604 
L 262.645115 246.541479 
L 267.641458 245.197949 
L 272.6378 246.286888 
L 277.634143 247.336665 
L 282.630486 247.599122 
L 287.626829 247.972354 
L 292.623171 249.078461 
L 297.619514 249.380642 
L 302.615857 249.745091 
L 307.6122 249.28442 
L 312.608542 249.34602 
L 317.604885 249.681279 
L 322.601228 250.121954 
L 327.597571 250.235662 
L 332.593913 251.069951 
L 337.590256 251.747671 
L 342.586599 252.219203 
L 347.582941 252.999567 
L 352.579284 252.226405 
L 357.575627 251.609988 
L 362.57197 251.689435 
L 367.568312 252.580609 
L 372.564655 253.099926 
L 377.560998 252.958291 
L 382.557341 254.083251 
L 387.553683 254.795177 
L 392.550026 255.157738 
L 397.546369 254.788373 
L 402.542712 254.361248 
L 407.539054 255.735072 
L 412.535397 256.648979 
L 417.53174 256.973739 
L 422.528083 257.344997 
L 427.524425 258.294841 
L 432.520768 259.497922 
L 437.517111 260.198617 
L 442.513454 261.506972 
L 447.509796 261.936862 
L 452.506139 260.08011 
L 457.502482 257.362565 
L 462.498824 257.322032 
L 467.495167 257.205071 
L 472.49151 259.729688 
L 477.487853 260.094365 
L 482.484195 260.067849 
L 487.480538 253.790721 
L 492.476881 255.344493 
L 497.473224 265.494564 
L 502.469566 265.494564 
L 507.465909 258.501549 
" style="fill:none;stroke:#7f7f7f;stroke-linecap:square;stroke-width:1.5;"/>
   </g>
   <g id="line2d_23">
    <path clip-path="url(#p54cf635253)" d="M 72.784091 101.093636 
L 77.780434 101.093636 
L 82.776776 101.093636 
L 87.773119 101.823858 
L 92.769462 102.542931 
L 97.765805 103.478215 
L 102.762147 104.335448 
L 107.75849 105.949436 
L 112.754833 106.900256 
L 117.751176 107.330744 
L 122.747518 107.804167 
L 127.743861 108.129312 
L 132.740204 108.214596 
L 137.736546 107.98351 
L 142.732889 107.669359 
L 147.729232 107.563781 
L 152.725575 107.582297 
L 157.721917 107.258867 
L 162.71826 107.407404 
L 167.714603 107.221632 
L 172.710946 107.074699 
L 177.707288 107.345263 
L 182.703631 106.882826 
L 187.699974 107.081827 
L 192.696317 107.208676 
L 197.692659 106.828711 
L 202.689002 106.495222 
L 207.685345 106.528189 
L 212.681688 106.162732 
L 217.67803 105.672843 
L 222.674373 105.756324 
L 227.670716 105.84975 
L 232.667059 105.929662 
L 237.663401 105.441634 
L 242.659744 105.388821 
L 247.656087 105.210116 
L 252.652429 105.670405 
L 257.648772 105.463706 
L 262.645115 105.423043 
L 267.641458 105.446716 
L 272.6378 105.112823 
L 277.634143 105.014334 
L 282.630486 105.253944 
L 287.626829 105.171294 
L 292.623171 105.315768 
L 297.619514 105.679474 
L 302.615857 105.609348 
L 307.6122 105.712817 
L 312.608542 105.224366 
L 317.604885 105.190096 
L 322.601228 105.003341 
L 327.597571 105.159533 
L 332.593913 105.017795 
L 337.590256 104.826979 
L 342.586599 104.883368 
L 347.582941 105.10781 
L 352.579284 105.07856 
L 357.575627 104.911191 
L 362.57197 104.889123 
L 367.568312 104.922152 
L 372.564655 104.41569 
L 377.560998 104.710867 
L 382.557341 104.6084 
L 387.553683 104.542516 
L 392.550026 104.637636 
L 397.546369 104.602976 
L 402.542712 104.61066 
L 407.539054 104.294575 
L 412.535397 104.256826 
L 417.53174 104.952602 
L 422.528083 105.0841 
L 427.524425 104.721067 
L 432.520768 104.404538 
L 437.517111 104.503692 
L 442.513454 104.242504 
L 447.509796 104.086639 
L 452.506139 103.968958 
L 457.502482 103.548907 
L 462.498824 104.314398 
L 467.495167 104.82724 
L 472.49151 103.288058 
L 477.487853 103.247976 
L 482.484195 102.668073 
L 487.480538 101.817409 
L 492.476881 102.95406 
L 497.473224 101.093636 
L 502.469566 101.093636 
L 507.465909 101.093636 
" style="fill:none;stroke:#bcbd22;stroke-linecap:square;stroke-width:1.5;"/>
   </g>
   <g id="patch_3">
    <path d="M 51.05 365.56 
L 51.05 88.5 
" style="fill:none;stroke:#000000;stroke-linecap:square;stroke-linejoin:miter;stroke-width:0.8;"/>
   </g>
   <g id="patch_4">
    <path d="M 529.2 365.56 
L 529.2 88.5 
" style="fill:none;stroke:#000000;stroke-linecap:square;stroke-linejoin:miter;stroke-width:0.8;"/>
   </g>
   <g id="patch_5">
    <path d="M 51.05 365.56 
L 529.2 365.56 
" style="fill:none;stroke:#000000;stroke-linecap:square;stroke-linejoin:miter;stroke-width:0.8;"/>
   </g>
   <g id="patch_6">
    <path d="M 51.05 88.5 
L 529.2 88.5 
" style="fill:none;stroke:#000000;stroke-linecap:square;stroke-linejoin:miter;stroke-width:0.8;"/>
   </g>
   <g id="legend_1">
    <g id="patch_7">
     <path d="M 61.55 81 
L 518.7 81 
Q 521.7 81 521.7 78 
L 521.7 13.448438 
Q 521.7 10.448438 518.7 10.448438 
L 61.55 10.448438 
Q 58.55 10.448438 58.55 13.448438 
L 58.55 78 
Q 58.55 81 61.55 81 
z
" style="fill:#ffffff;opacity:0.8;stroke:#cccccc;stroke-linejoin:miter;"/>
    </g>
    <g id="line2d_24">
     <path d="M 64.55 22.596094 
L 94.55 22.596094 
" style="fill:none;stroke:#1f77b4;stroke-linecap:square;stroke-width:1.5;"/>
    </g>
    <g id="line2d_25"/>
    <g id="text_17">
     <!-- Stra 1 -->
     <defs>
      <path d="M 53.515625 70.515625 
L 53.515625 60.890625 
Q 47.90625 63.578125 42.921875 64.890625 
Q 37.9375 66.21875 33.296875 66.21875 
Q 25.25 66.21875 20.875 63.09375 
Q 16.5 59.96875 16.5 54.203125 
Q 16.5 49.359375 19.40625 46.890625 
Q 22.3125 44.4375 30.421875 42.921875 
L 36.375 41.703125 
Q 47.40625 39.59375 52.65625 34.296875 
Q 57.90625 29 57.90625 20.125 
Q 57.90625 9.515625 50.796875 4.046875 
Q 43.703125 -1.421875 29.984375 -1.421875 
Q 24.8125 -1.421875 18.96875 -0.25 
Q 13.140625 0.921875 6.890625 3.21875 
L 6.890625 13.375 
Q 12.890625 10.015625 18.65625 8.296875 
Q 24.421875 6.59375 29.984375 6.59375 
Q 38.421875 6.59375 43.015625 9.90625 
Q 47.609375 13.234375 47.609375 19.390625 
Q 47.609375 24.75 44.3125 27.78125 
Q 41.015625 30.8125 33.5 32.328125 
L 27.484375 33.5 
Q 16.453125 35.6875 11.515625 40.375 
Q 6.59375 45.0625 6.59375 53.421875 
Q 6.59375 63.09375 13.40625 68.65625 
Q 20.21875 74.21875 32.171875 74.21875 
Q 37.3125 74.21875 42.625 73.28125 
Q 47.953125 72.359375 53.515625 70.515625 
z
" id="DejaVuSans-83"/>
      <path d="M 18.3125 70.21875 
L 18.3125 54.6875 
L 36.8125 54.6875 
L 36.8125 47.703125 
L 18.3125 47.703125 
L 18.3125 18.015625 
Q 18.3125 11.328125 20.140625 9.421875 
Q 21.96875 7.515625 27.59375 7.515625 
L 36.8125 7.515625 
L 36.8125 0 
L 27.59375 0 
Q 17.1875 0 13.234375 3.875 
Q 9.28125 7.765625 9.28125 18.015625 
L 9.28125 47.703125 
L 2.6875 47.703125 
L 2.6875 54.6875 
L 9.28125 54.6875 
L 9.28125 70.21875 
z
" id="DejaVuSans-116"/>
      <path d="M 41.109375 46.296875 
Q 39.59375 47.171875 37.8125 47.578125 
Q 36.03125 48 33.890625 48 
Q 26.265625 48 22.1875 43.046875 
Q 18.109375 38.09375 18.109375 28.8125 
L 18.109375 0 
L 9.078125 0 
L 9.078125 54.6875 
L 18.109375 54.6875 
L 18.109375 46.1875 
Q 20.953125 51.171875 25.484375 53.578125 
Q 30.03125 56 36.53125 56 
Q 37.453125 56 38.578125 55.875 
Q 39.703125 55.765625 41.0625 55.515625 
z
" id="DejaVuSans-114"/>
     </defs>
     <g transform="translate(106.55 27.846094)scale(0.15 -0.15)">
      <use xlink:href="#DejaVuSans-83"/>
      <use x="63.476562" xlink:href="#DejaVuSans-116"/>
      <use x="102.685547" xlink:href="#DejaVuSans-114"/>
      <use x="143.798828" xlink:href="#DejaVuSans-97"/>
      <use x="205.078125" xlink:href="#DejaVuSans-32"/>
      <use x="236.865234" xlink:href="#DejaVuSans-49"/>
     </g>
    </g>
    <g id="line2d_26">
     <path d="M 64.55 44.613281 
L 94.55 44.613281 
" style="fill:none;stroke:#ff7f0e;stroke-linecap:square;stroke-width:1.5;"/>
    </g>
    <g id="line2d_27"/>
    <g id="text_18">
     <!-- Stra 2 -->
     <g transform="translate(106.55 49.863281)scale(0.15 -0.15)">
      <use xlink:href="#DejaVuSans-83"/>
      <use x="63.476562" xlink:href="#DejaVuSans-116"/>
      <use x="102.685547" xlink:href="#DejaVuSans-114"/>
      <use x="143.798828" xlink:href="#DejaVuSans-97"/>
      <use x="205.078125" xlink:href="#DejaVuSans-32"/>
      <use x="236.865234" xlink:href="#DejaVuSans-50"/>
     </g>
    </g>
    <g id="line2d_28">
     <path d="M 64.55 66.630469 
L 94.55 66.630469 
" style="fill:none;stroke:#2ca02c;stroke-linecap:square;stroke-width:1.5;"/>
    </g>
    <g id="line2d_29"/>
    <g id="text_19">
     <!-- Stra 3 -->
     <g transform="translate(106.55 71.880469)scale(0.15 -0.15)">
      <use xlink:href="#DejaVuSans-83"/>
      <use x="63.476562" xlink:href="#DejaVuSans-116"/>
      <use x="102.685547" xlink:href="#DejaVuSans-114"/>
      <use x="143.798828" xlink:href="#DejaVuSans-97"/>
      <use x="205.078125" xlink:href="#DejaVuSans-32"/>
      <use x="236.865234" xlink:href="#DejaVuSans-51"/>
     </g>
    </g>
    <g id="line2d_30">
     <path d="M 185.909115 22.596094 
L 215.909115 22.596094 
" style="fill:none;stroke:#d62728;stroke-linecap:square;stroke-width:1.5;"/>
    </g>
    <g id="line2d_31"/>
    <g id="text_20">
     <!-- Stra 4 -->
     <g transform="translate(227.909115 27.846094)scale(0.15 -0.15)">
      <use xlink:href="#DejaVuSans-83"/>
      <use x="63.476562" xlink:href="#DejaVuSans-116"/>
      <use x="102.685547" xlink:href="#DejaVuSans-114"/>
      <use x="143.798828" xlink:href="#DejaVuSans-97"/>
      <use x="205.078125" xlink:href="#DejaVuSans-32"/>
      <use x="236.865234" xlink:href="#DejaVuSans-52"/>
     </g>
    </g>
    <g id="line2d_32">
     <path d="M 185.909115 44.613281 
L 215.909115 44.613281 
" style="fill:none;stroke:#9467bd;stroke-linecap:square;stroke-width:1.5;"/>
    </g>
    <g id="line2d_33"/>
    <g id="text_21">
     <!-- Stra 5 -->
     <g transform="translate(227.909115 49.863281)scale(0.15 -0.15)">
      <use xlink:href="#DejaVuSans-83"/>
      <use x="63.476562" xlink:href="#DejaVuSans-116"/>
      <use x="102.685547" xlink:href="#DejaVuSans-114"/>
      <use x="143.798828" xlink:href="#DejaVuSans-97"/>
      <use x="205.078125" xlink:href="#DejaVuSans-32"/>
      <use x="236.865234" xlink:href="#DejaVuSans-53"/>
     </g>
    </g>
    <g id="line2d_34">
     <path d="M 307.268229 22.596094 
L 337.268229 22.596094 
" style="fill:none;stroke:#8c564b;stroke-linecap:square;stroke-width:1.5;"/>
    </g>
    <g id="line2d_35"/>
    <g id="text_22">
     <!-- Stra 6 -->
     <g transform="translate(349.268229 27.846094)scale(0.15 -0.15)">
      <use xlink:href="#DejaVuSans-83"/>
      <use x="63.476562" xlink:href="#DejaVuSans-116"/>
      <use x="102.685547" xlink:href="#DejaVuSans-114"/>
      <use x="143.798828" xlink:href="#DejaVuSans-97"/>
      <use x="205.078125" xlink:href="#DejaVuSans-32"/>
      <use x="236.865234" xlink:href="#DejaVuSans-54"/>
     </g>
    </g>
    <g id="line2d_36">
     <path d="M 307.268229 44.613281 
L 337.268229 44.613281 
" style="fill:none;stroke:#e377c2;stroke-linecap:square;stroke-width:1.5;"/>
    </g>
    <g id="line2d_37"/>
    <g id="text_23">
     <!-- Stra 7 -->
     <g transform="translate(349.268229 49.863281)scale(0.15 -0.15)">
      <use xlink:href="#DejaVuSans-83"/>
      <use x="63.476562" xlink:href="#DejaVuSans-116"/>
      <use x="102.685547" xlink:href="#DejaVuSans-114"/>
      <use x="143.798828" xlink:href="#DejaVuSans-97"/>
      <use x="205.078125" xlink:href="#DejaVuSans-32"/>
      <use x="236.865234" xlink:href="#DejaVuSans-55"/>
     </g>
    </g>
    <g id="line2d_38">
     <path d="M 428.627344 22.596094 
L 458.627344 22.596094 
" style="fill:none;stroke:#7f7f7f;stroke-linecap:square;stroke-width:1.5;"/>
    </g>
    <g id="line2d_39"/>
    <g id="text_24">
     <!-- Stra 8 -->
     <g transform="translate(470.627344 27.846094)scale(0.15 -0.15)">
      <use xlink:href="#DejaVuSans-83"/>
      <use x="63.476562" xlink:href="#DejaVuSans-116"/>
      <use x="102.685547" xlink:href="#DejaVuSans-114"/>
      <use x="143.798828" xlink:href="#DejaVuSans-97"/>
      <use x="205.078125" xlink:href="#DejaVuSans-32"/>
      <use x="236.865234" xlink:href="#DejaVuSans-56"/>
     </g>
    </g>
    <g id="line2d_40">
     <path d="M 428.627344 44.613281 
L 458.627344 44.613281 
" style="fill:none;stroke:#bcbd22;stroke-linecap:square;stroke-width:1.5;"/>
    </g>
    <g id="line2d_41"/>
    <g id="text_25">
     <!-- Stra 9 -->
     <g transform="translate(470.627344 49.863281)scale(0.15 -0.15)">
      <use xlink:href="#DejaVuSans-83"/>
      <use x="63.476562" xlink:href="#DejaVuSans-116"/>
      <use x="102.685547" xlink:href="#DejaVuSans-114"/>
      <use x="143.798828" xlink:href="#DejaVuSans-97"/>
      <use x="205.078125" xlink:href="#DejaVuSans-32"/>
      <use x="236.865234" xlink:href="#DejaVuSans-57"/>
     </g>
    </g>
   </g>
  </g>
 </g>
 <defs>
  <clipPath id="p54cf635253">
   <rect height="277.06" width="478.15" x="51.05" y="88.5"/>
  </clipPath>
 </defs>
</svg>
