<?xml version="1.0" encoding="utf-8" standalone="no"?>
<!DOCTYPE svg PUBLIC "-//W3C//DTD SVG 1.1//EN"
  "http://www.w3.org/Graphics/SVG/1.1/DTD/svg11.dtd">
<!-- Created with matplotlib (https://matplotlib.org/) -->
<svg height="432pt" version="1.1" viewBox="0 0 540 432" width="540pt" xmlns="http://www.w3.org/2000/svg" xmlns:xlink="http://www.w3.org/1999/xlink">
 <defs>
  <style type="text/css">
*{stroke-linecap:butt;stroke-linejoin:round;}
  </style>
 </defs>
 <g id="figure_1">
  <g id="patch_1">
   <path d="M 0 432 
L 540 432 
L 540 0 
L 0 0 
z
" style="fill:#ffffff;"/>
  </g>
  <g id="axes_1">
   <g id="patch_2">
    <path d="M 89.12 365.56 
L 529.2 365.56 
L 529.2 88.5 
L 89.12 88.5 
z
" style="fill:#ffffff;"/>
   </g>
   <g id="matplotlib.axis_1">
    <g id="xtick_1">
     <g id="line2d_1">
      <defs>
       <path d="M 0 0 
L 0 3.5 
" id="mcb596596f9" style="stroke:#000000;stroke-width:0.8;"/>
      </defs>
      <g>
       <use style="stroke:#000000;stroke-width:0.8;" x="109.123636" xlink:href="#mcb596596f9" y="365.56"/>
      </g>
     </g>
     <g id="text_1">
      <!-- 0 -->
      <defs>
       <path d="M 31.78125 66.40625 
Q 24.171875 66.40625 20.328125 58.90625 
Q 16.5 51.421875 16.5 36.375 
Q 16.5 21.390625 20.328125 13.890625 
Q 24.171875 6.390625 31.78125 6.390625 
Q 39.453125 6.390625 43.28125 13.890625 
Q 47.125 21.390625 47.125 36.375 
Q 47.125 51.421875 43.28125 58.90625 
Q 39.453125 66.40625 31.78125 66.40625 
z
M 31.78125 74.21875 
Q 44.046875 74.21875 50.515625 64.515625 
Q 56.984375 54.828125 56.984375 36.375 
Q 56.984375 17.96875 50.515625 8.265625 
Q 44.046875 -1.421875 31.78125 -1.421875 
Q 19.53125 -1.421875 13.0625 8.265625 
Q 6.59375 17.96875 6.59375 36.375 
Q 6.59375 54.828125 13.0625 64.515625 
Q 19.53125 74.21875 31.78125 74.21875 
z
" id="DejaVuSans-48"/>
      </defs>
      <g transform="translate(102.761136 387.756875)scale(0.2 -0.2)">
       <use xlink:href="#DejaVuSans-48"/>
      </g>
     </g>
    </g>
    <g id="xtick_2">
     <g id="line2d_2">
      <g>
       <use style="stroke:#000000;stroke-width:0.8;" x="201.094378" xlink:href="#mcb596596f9" y="365.56"/>
      </g>
     </g>
     <g id="text_2">
      <!-- 20 -->
      <defs>
       <path d="M 19.1875 8.296875 
L 53.609375 8.296875 
L 53.609375 0 
L 7.328125 0 
L 7.328125 8.296875 
Q 12.9375 14.109375 22.625 23.890625 
Q 32.328125 33.6875 34.8125 36.53125 
Q 39.546875 41.84375 41.421875 45.53125 
Q 43.3125 49.21875 43.3125 52.78125 
Q 43.3125 58.59375 39.234375 62.25 
Q 35.15625 65.921875 28.609375 65.921875 
Q 23.96875 65.921875 18.8125 64.3125 
Q 13.671875 62.703125 7.8125 59.421875 
L 7.8125 69.390625 
Q 13.765625 71.78125 18.9375 73 
Q 24.125 74.21875 28.421875 74.21875 
Q 39.75 74.21875 46.484375 68.546875 
Q 53.21875 62.890625 53.21875 53.421875 
Q 53.21875 48.921875 51.53125 44.890625 
Q 49.859375 40.875 45.40625 35.40625 
Q 44.1875 33.984375 37.640625 27.21875 
Q 31.109375 20.453125 19.1875 8.296875 
z
" id="DejaVuSans-50"/>
      </defs>
      <g transform="translate(188.369378 387.756875)scale(0.2 -0.2)">
       <use xlink:href="#DejaVuSans-50"/>
       <use x="63.623047" xlink:href="#DejaVuSans-48"/>
      </g>
     </g>
    </g>
    <g id="xtick_3">
     <g id="line2d_3">
      <g>
       <use style="stroke:#000000;stroke-width:0.8;" x="293.06512" xlink:href="#mcb596596f9" y="365.56"/>
      </g>
     </g>
     <g id="text_3">
      <!-- 40 -->
      <defs>
       <path d="M 37.796875 64.3125 
L 12.890625 25.390625 
L 37.796875 25.390625 
z
M 35.203125 72.90625 
L 47.609375 72.90625 
L 47.609375 25.390625 
L 58.015625 25.390625 
L 58.015625 17.1875 
L 47.609375 17.1875 
L 47.609375 0 
L 37.796875 0 
L 37.796875 17.1875 
L 4.890625 17.1875 
L 4.890625 26.703125 
z
" id="DejaVuSans-52"/>
      </defs>
      <g transform="translate(280.34012 387.756875)scale(0.2 -0.2)">
       <use xlink:href="#DejaVuSans-52"/>
       <use x="63.623047" xlink:href="#DejaVuSans-48"/>
      </g>
     </g>
    </g>
    <g id="xtick_4">
     <g id="line2d_4">
      <g>
       <use style="stroke:#000000;stroke-width:0.8;" x="385.035862" xlink:href="#mcb596596f9" y="365.56"/>
      </g>
     </g>
     <g id="text_4">
      <!-- 60 -->
      <defs>
       <path d="M 33.015625 40.375 
Q 26.375 40.375 22.484375 35.828125 
Q 18.609375 31.296875 18.609375 23.390625 
Q 18.609375 15.53125 22.484375 10.953125 
Q 26.375 6.390625 33.015625 6.390625 
Q 39.65625 6.390625 43.53125 10.953125 
Q 47.40625 15.53125 47.40625 23.390625 
Q 47.40625 31.296875 43.53125 35.828125 
Q 39.65625 40.375 33.015625 40.375 
z
M 52.59375 71.296875 
L 52.59375 62.3125 
Q 48.875 64.0625 45.09375 64.984375 
Q 41.3125 65.921875 37.59375 65.921875 
Q 27.828125 65.921875 22.671875 59.328125 
Q 17.53125 52.734375 16.796875 39.40625 
Q 19.671875 43.65625 24.015625 45.921875 
Q 28.375 48.1875 33.59375 48.1875 
Q 44.578125 48.1875 50.953125 41.515625 
Q 57.328125 34.859375 57.328125 23.390625 
Q 57.328125 12.15625 50.6875 5.359375 
Q 44.046875 -1.421875 33.015625 -1.421875 
Q 20.359375 -1.421875 13.671875 8.265625 
Q 6.984375 17.96875 6.984375 36.375 
Q 6.984375 53.65625 15.1875 63.9375 
Q 23.390625 74.21875 37.203125 74.21875 
Q 40.921875 74.21875 44.703125 73.484375 
Q 48.484375 72.75 52.59375 71.296875 
z
" id="DejaVuSans-54"/>
      </defs>
      <g transform="translate(372.310862 387.756875)scale(0.2 -0.2)">
       <use xlink:href="#DejaVuSans-54"/>
       <use x="63.623047" xlink:href="#DejaVuSans-48"/>
      </g>
     </g>
    </g>
    <g id="xtick_5">
     <g id="line2d_5">
      <g>
       <use style="stroke:#000000;stroke-width:0.8;" x="477.006604" xlink:href="#mcb596596f9" y="365.56"/>
      </g>
     </g>
     <g id="text_5">
      <!-- 80 -->
      <defs>
       <path d="M 31.78125 34.625 
Q 24.75 34.625 20.71875 30.859375 
Q 16.703125 27.09375 16.703125 20.515625 
Q 16.703125 13.921875 20.71875 10.15625 
Q 24.75 6.390625 31.78125 6.390625 
Q 38.8125 6.390625 42.859375 10.171875 
Q 46.921875 13.96875 46.921875 20.515625 
Q 46.921875 27.09375 42.890625 30.859375 
Q 38.875 34.625 31.78125 34.625 
z
M 21.921875 38.8125 
Q 15.578125 40.375 12.03125 44.71875 
Q 8.5 49.078125 8.5 55.328125 
Q 8.5 64.0625 14.71875 69.140625 
Q 20.953125 74.21875 31.78125 74.21875 
Q 42.671875 74.21875 48.875 69.140625 
Q 55.078125 64.0625 55.078125 55.328125 
Q 55.078125 49.078125 51.53125 44.71875 
Q 48 40.375 41.703125 38.8125 
Q 48.828125 37.15625 52.796875 32.3125 
Q 56.78125 27.484375 56.78125 20.515625 
Q 56.78125 9.90625 50.3125 4.234375 
Q 43.84375 -1.421875 31.78125 -1.421875 
Q 19.734375 -1.421875 13.25 4.234375 
Q 6.78125 9.90625 6.78125 20.515625 
Q 6.78125 27.484375 10.78125 32.3125 
Q 14.796875 37.15625 21.921875 38.8125 
z
M 18.3125 54.390625 
Q 18.3125 48.734375 21.84375 45.5625 
Q 25.390625 42.390625 31.78125 42.390625 
Q 38.140625 42.390625 41.71875 45.5625 
Q 45.3125 48.734375 45.3125 54.390625 
Q 45.3125 60.0625 41.71875 63.234375 
Q 38.140625 66.40625 31.78125 66.40625 
Q 25.390625 66.40625 21.84375 63.234375 
Q 18.3125 60.0625 18.3125 54.390625 
z
" id="DejaVuSans-56"/>
      </defs>
      <g transform="translate(464.281604 387.756875)scale(0.2 -0.2)">
       <use xlink:href="#DejaVuSans-56"/>
       <use x="63.623047" xlink:href="#DejaVuSans-48"/>
      </g>
     </g>
    </g>
    <g id="text_6">
     <!-- # of games -->
     <defs>
      <path d="M 51.125 44 
L 36.921875 44 
L 32.8125 27.6875 
L 47.125 27.6875 
z
M 43.796875 71.78125 
L 38.71875 51.515625 
L 52.984375 51.515625 
L 58.109375 71.78125 
L 65.921875 71.78125 
L 60.890625 51.515625 
L 76.125 51.515625 
L 76.125 44 
L 58.984375 44 
L 54.984375 27.6875 
L 70.515625 27.6875 
L 70.515625 20.21875 
L 53.078125 20.21875 
L 48 0 
L 40.1875 0 
L 45.21875 20.21875 
L 30.90625 20.21875 
L 25.875 0 
L 18.015625 0 
L 23.09375 20.21875 
L 7.71875 20.21875 
L 7.71875 27.6875 
L 24.90625 27.6875 
L 29 44 
L 13.28125 44 
L 13.28125 51.515625 
L 30.90625 51.515625 
L 35.890625 71.78125 
z
" id="DejaVuSans-35"/>
      <path id="DejaVuSans-32"/>
      <path d="M 30.609375 48.390625 
Q 23.390625 48.390625 19.1875 42.75 
Q 14.984375 37.109375 14.984375 27.296875 
Q 14.984375 17.484375 19.15625 11.84375 
Q 23.34375 6.203125 30.609375 6.203125 
Q 37.796875 6.203125 41.984375 11.859375 
Q 46.1875 17.53125 46.1875 27.296875 
Q 46.1875 37.015625 41.984375 42.703125 
Q 37.796875 48.390625 30.609375 48.390625 
z
M 30.609375 56 
Q 42.328125 56 49.015625 48.375 
Q 55.71875 40.765625 55.71875 27.296875 
Q 55.71875 13.875 49.015625 6.21875 
Q 42.328125 -1.421875 30.609375 -1.421875 
Q 18.84375 -1.421875 12.171875 6.21875 
Q 5.515625 13.875 5.515625 27.296875 
Q 5.515625 40.765625 12.171875 48.375 
Q 18.84375 56 30.609375 56 
z
" id="DejaVuSans-111"/>
      <path d="M 37.109375 75.984375 
L 37.109375 68.5 
L 28.515625 68.5 
Q 23.6875 68.5 21.796875 66.546875 
Q 19.921875 64.59375 19.921875 59.515625 
L 19.921875 54.6875 
L 34.71875 54.6875 
L 34.71875 47.703125 
L 19.921875 47.703125 
L 19.921875 0 
L 10.890625 0 
L 10.890625 47.703125 
L 2.296875 47.703125 
L 2.296875 54.6875 
L 10.890625 54.6875 
L 10.890625 58.5 
Q 10.890625 67.625 15.140625 71.796875 
Q 19.390625 75.984375 28.609375 75.984375 
z
" id="DejaVuSans-102"/>
      <path d="M 45.40625 27.984375 
Q 45.40625 37.75 41.375 43.109375 
Q 37.359375 48.484375 30.078125 48.484375 
Q 22.859375 48.484375 18.828125 43.109375 
Q 14.796875 37.75 14.796875 27.984375 
Q 14.796875 18.265625 18.828125 12.890625 
Q 22.859375 7.515625 30.078125 7.515625 
Q 37.359375 7.515625 41.375 12.890625 
Q 45.40625 18.265625 45.40625 27.984375 
z
M 54.390625 6.78125 
Q 54.390625 -7.171875 48.1875 -13.984375 
Q 42 -20.796875 29.203125 -20.796875 
Q 24.46875 -20.796875 20.265625 -20.09375 
Q 16.0625 -19.390625 12.109375 -17.921875 
L 12.109375 -9.1875 
Q 16.0625 -11.328125 19.921875 -12.34375 
Q 23.78125 -13.375 27.78125 -13.375 
Q 36.625 -13.375 41.015625 -8.765625 
Q 45.40625 -4.15625 45.40625 5.171875 
L 45.40625 9.625 
Q 42.625 4.78125 38.28125 2.390625 
Q 33.9375 0 27.875 0 
Q 17.828125 0 11.671875 7.65625 
Q 5.515625 15.328125 5.515625 27.984375 
Q 5.515625 40.671875 11.671875 48.328125 
Q 17.828125 56 27.875 56 
Q 33.9375 56 38.28125 53.609375 
Q 42.625 51.21875 45.40625 46.390625 
L 45.40625 54.6875 
L 54.390625 54.6875 
z
" id="DejaVuSans-103"/>
      <path d="M 34.28125 27.484375 
Q 23.390625 27.484375 19.1875 25 
Q 14.984375 22.515625 14.984375 16.5 
Q 14.984375 11.71875 18.140625 8.90625 
Q 21.296875 6.109375 26.703125 6.109375 
Q 34.1875 6.109375 38.703125 11.40625 
Q 43.21875 16.703125 43.21875 25.484375 
L 43.21875 27.484375 
z
M 52.203125 31.203125 
L 52.203125 0 
L 43.21875 0 
L 43.21875 8.296875 
Q 40.140625 3.328125 35.546875 0.953125 
Q 30.953125 -1.421875 24.3125 -1.421875 
Q 15.921875 -1.421875 10.953125 3.296875 
Q 6 8.015625 6 15.921875 
Q 6 25.140625 12.171875 29.828125 
Q 18.359375 34.515625 30.609375 34.515625 
L 43.21875 34.515625 
L 43.21875 35.40625 
Q 43.21875 41.609375 39.140625 45 
Q 35.0625 48.390625 27.6875 48.390625 
Q 23 48.390625 18.546875 47.265625 
Q 14.109375 46.140625 10.015625 43.890625 
L 10.015625 52.203125 
Q 14.9375 54.109375 19.578125 55.046875 
Q 24.21875 56 28.609375 56 
Q 40.484375 56 46.34375 49.84375 
Q 52.203125 43.703125 52.203125 31.203125 
z
" id="DejaVuSans-97"/>
      <path d="M 52 44.1875 
Q 55.375 50.25 60.0625 53.125 
Q 64.75 56 71.09375 56 
Q 79.640625 56 84.28125 50.015625 
Q 88.921875 44.046875 88.921875 33.015625 
L 88.921875 0 
L 79.890625 0 
L 79.890625 32.71875 
Q 79.890625 40.578125 77.09375 44.375 
Q 74.3125 48.1875 68.609375 48.1875 
Q 61.625 48.1875 57.5625 43.546875 
Q 53.515625 38.921875 53.515625 30.90625 
L 53.515625 0 
L 44.484375 0 
L 44.484375 32.71875 
Q 44.484375 40.625 41.703125 44.40625 
Q 38.921875 48.1875 33.109375 48.1875 
Q 26.21875 48.1875 22.15625 43.53125 
Q 18.109375 38.875 18.109375 30.90625 
L 18.109375 0 
L 9.078125 0 
L 9.078125 54.6875 
L 18.109375 54.6875 
L 18.109375 46.1875 
Q 21.1875 51.21875 25.484375 53.609375 
Q 29.78125 56 35.6875 56 
Q 41.65625 56 45.828125 52.96875 
Q 50 49.953125 52 44.1875 
z
" id="DejaVuSans-109"/>
      <path d="M 56.203125 29.59375 
L 56.203125 25.203125 
L 14.890625 25.203125 
Q 15.484375 15.921875 20.484375 11.0625 
Q 25.484375 6.203125 34.421875 6.203125 
Q 39.59375 6.203125 44.453125 7.46875 
Q 49.3125 8.734375 54.109375 11.28125 
L 54.109375 2.78125 
Q 49.265625 0.734375 44.1875 -0.34375 
Q 39.109375 -1.421875 33.890625 -1.421875 
Q 20.796875 -1.421875 13.15625 6.1875 
Q 5.515625 13.8125 5.515625 26.8125 
Q 5.515625 40.234375 12.765625 48.109375 
Q 20.015625 56 32.328125 56 
Q 43.359375 56 49.78125 48.890625 
Q 56.203125 41.796875 56.203125 29.59375 
z
M 47.21875 32.234375 
Q 47.125 39.59375 43.09375 43.984375 
Q 39.0625 48.390625 32.421875 48.390625 
Q 24.90625 48.390625 20.390625 44.140625 
Q 15.875 39.890625 15.1875 32.171875 
z
" id="DejaVuSans-101"/>
      <path d="M 44.28125 53.078125 
L 44.28125 44.578125 
Q 40.484375 46.53125 36.375 47.5 
Q 32.28125 48.484375 27.875 48.484375 
Q 21.1875 48.484375 17.84375 46.4375 
Q 14.5 44.390625 14.5 40.28125 
Q 14.5 37.15625 16.890625 35.375 
Q 19.28125 33.59375 26.515625 31.984375 
L 29.59375 31.296875 
Q 39.15625 29.25 43.1875 25.515625 
Q 47.21875 21.78125 47.21875 15.09375 
Q 47.21875 7.46875 41.1875 3.015625 
Q 35.15625 -1.421875 24.609375 -1.421875 
Q 20.21875 -1.421875 15.453125 -0.5625 
Q 10.6875 0.296875 5.421875 2 
L 5.421875 11.28125 
Q 10.40625 8.6875 15.234375 7.390625 
Q 20.0625 6.109375 24.8125 6.109375 
Q 31.15625 6.109375 34.5625 8.28125 
Q 37.984375 10.453125 37.984375 14.40625 
Q 37.984375 18.0625 35.515625 20.015625 
Q 33.0625 21.96875 24.703125 23.78125 
L 21.578125 24.515625 
Q 13.234375 26.265625 9.515625 29.90625 
Q 5.8125 33.546875 5.8125 39.890625 
Q 5.8125 47.609375 11.28125 51.796875 
Q 16.75 56 26.8125 56 
Q 31.78125 56 36.171875 55.265625 
Q 40.578125 54.546875 44.28125 53.078125 
z
" id="DejaVuSans-115"/>
     </defs>
     <g transform="translate(236.716641 414.912344)scale(0.25 -0.25)">
      <use xlink:href="#DejaVuSans-35"/>
      <use x="83.789062" xlink:href="#DejaVuSans-32"/>
      <use x="115.576172" xlink:href="#DejaVuSans-111"/>
      <use x="176.757812" xlink:href="#DejaVuSans-102"/>
      <use x="211.962891" xlink:href="#DejaVuSans-32"/>
      <use x="243.75" xlink:href="#DejaVuSans-103"/>
      <use x="307.226562" xlink:href="#DejaVuSans-97"/>
      <use x="368.505859" xlink:href="#DejaVuSans-109"/>
      <use x="465.917969" xlink:href="#DejaVuSans-101"/>
      <use x="527.441406" xlink:href="#DejaVuSans-115"/>
     </g>
    </g>
   </g>
   <g id="matplotlib.axis_2">
    <g id="ytick_1">
     <g id="line2d_6">
      <defs>
       <path d="M 0 0 
L -3.5 0 
" id="m45fb9b7766" style="stroke:#000000;stroke-width:0.8;"/>
      </defs>
      <g>
       <use style="stroke:#000000;stroke-width:0.8;" x="89.12" xlink:href="#m45fb9b7766" y="352.966364"/>
      </g>
     </g>
     <g id="text_7">
      <!-- 0 -->
      <g transform="translate(69.395 360.564801)scale(0.2 -0.2)">
       <use xlink:href="#DejaVuSans-48"/>
      </g>
     </g>
    </g>
    <g id="ytick_2">
     <g id="line2d_7">
      <g>
       <use style="stroke:#000000;stroke-width:0.8;" x="89.12" xlink:href="#m45fb9b7766" y="301.793522"/>
      </g>
     </g>
     <g id="text_8">
      <!-- 500 -->
      <defs>
       <path d="M 10.796875 72.90625 
L 49.515625 72.90625 
L 49.515625 64.59375 
L 19.828125 64.59375 
L 19.828125 46.734375 
Q 21.96875 47.46875 24.109375 47.828125 
Q 26.265625 48.1875 28.421875 48.1875 
Q 40.625 48.1875 47.75 41.5 
Q 54.890625 34.8125 54.890625 23.390625 
Q 54.890625 11.625 47.5625 5.09375 
Q 40.234375 -1.421875 26.90625 -1.421875 
Q 22.3125 -1.421875 17.546875 -0.640625 
Q 12.796875 0.140625 7.71875 1.703125 
L 7.71875 11.625 
Q 12.109375 9.234375 16.796875 8.0625 
Q 21.484375 6.890625 26.703125 6.890625 
Q 35.15625 6.890625 40.078125 11.328125 
Q 45.015625 15.765625 45.015625 23.390625 
Q 45.015625 31 40.078125 35.4375 
Q 35.15625 39.890625 26.703125 39.890625 
Q 22.75 39.890625 18.8125 39.015625 
Q 14.890625 38.140625 10.796875 36.28125 
z
" id="DejaVuSans-53"/>
      </defs>
      <g transform="translate(43.945 309.391959)scale(0.2 -0.2)">
       <use xlink:href="#DejaVuSans-53"/>
       <use x="63.623047" xlink:href="#DejaVuSans-48"/>
       <use x="127.246094" xlink:href="#DejaVuSans-48"/>
      </g>
     </g>
    </g>
    <g id="ytick_3">
     <g id="line2d_8">
      <g>
       <use style="stroke:#000000;stroke-width:0.8;" x="89.12" xlink:href="#m45fb9b7766" y="250.62068"/>
      </g>
     </g>
     <g id="text_9">
      <!-- 1000 -->
      <defs>
       <path d="M 12.40625 8.296875 
L 28.515625 8.296875 
L 28.515625 63.921875 
L 10.984375 60.40625 
L 10.984375 69.390625 
L 28.421875 72.90625 
L 38.28125 72.90625 
L 38.28125 8.296875 
L 54.390625 8.296875 
L 54.390625 0 
L 12.40625 0 
z
" id="DejaVuSans-49"/>
      </defs>
      <g transform="translate(31.22 258.219118)scale(0.2 -0.2)">
       <use xlink:href="#DejaVuSans-49"/>
       <use x="63.623047" xlink:href="#DejaVuSans-48"/>
       <use x="127.246094" xlink:href="#DejaVuSans-48"/>
       <use x="190.869141" xlink:href="#DejaVuSans-48"/>
      </g>
     </g>
    </g>
    <g id="ytick_4">
     <g id="line2d_9">
      <g>
       <use style="stroke:#000000;stroke-width:0.8;" x="89.12" xlink:href="#m45fb9b7766" y="199.447838"/>
      </g>
     </g>
     <g id="text_10">
      <!-- 1500 -->
      <g transform="translate(31.22 207.046276)scale(0.2 -0.2)">
       <use xlink:href="#DejaVuSans-49"/>
       <use x="63.623047" xlink:href="#DejaVuSans-53"/>
       <use x="127.246094" xlink:href="#DejaVuSans-48"/>
       <use x="190.869141" xlink:href="#DejaVuSans-48"/>
      </g>
     </g>
    </g>
    <g id="ytick_5">
     <g id="line2d_10">
      <g>
       <use style="stroke:#000000;stroke-width:0.8;" x="89.12" xlink:href="#m45fb9b7766" y="148.274996"/>
      </g>
     </g>
     <g id="text_11">
      <!-- 2000 -->
      <g transform="translate(31.22 155.873434)scale(0.2 -0.2)">
       <use xlink:href="#DejaVuSans-50"/>
       <use x="63.623047" xlink:href="#DejaVuSans-48"/>
       <use x="127.246094" xlink:href="#DejaVuSans-48"/>
       <use x="190.869141" xlink:href="#DejaVuSans-48"/>
      </g>
     </g>
    </g>
    <g id="ytick_6">
     <g id="line2d_11">
      <g>
       <use style="stroke:#000000;stroke-width:0.8;" x="89.12" xlink:href="#m45fb9b7766" y="97.102155"/>
      </g>
     </g>
     <g id="text_12">
      <!-- 2500 -->
      <g transform="translate(31.22 104.700592)scale(0.2 -0.2)">
       <use xlink:href="#DejaVuSans-50"/>
       <use x="63.623047" xlink:href="#DejaVuSans-53"/>
       <use x="127.246094" xlink:href="#DejaVuSans-48"/>
       <use x="190.869141" xlink:href="#DejaVuSans-48"/>
      </g>
     </g>
    </g>
    <g id="text_13">
     <!-- Number of Att strategy used -->
     <defs>
      <path d="M 9.8125 72.90625 
L 23.09375 72.90625 
L 55.421875 11.921875 
L 55.421875 72.90625 
L 64.984375 72.90625 
L 64.984375 0 
L 51.703125 0 
L 19.390625 60.984375 
L 19.390625 0 
L 9.8125 0 
z
" id="DejaVuSans-78"/>
      <path d="M 8.5 21.578125 
L 8.5 54.6875 
L 17.484375 54.6875 
L 17.484375 21.921875 
Q 17.484375 14.15625 20.5 10.265625 
Q 23.53125 6.390625 29.59375 6.390625 
Q 36.859375 6.390625 41.078125 11.03125 
Q 45.3125 15.671875 45.3125 23.6875 
L 45.3125 54.6875 
L 54.296875 54.6875 
L 54.296875 0 
L 45.3125 0 
L 45.3125 8.40625 
Q 42.046875 3.421875 37.71875 1 
Q 33.40625 -1.421875 27.6875 -1.421875 
Q 18.265625 -1.421875 13.375 4.4375 
Q 8.5 10.296875 8.5 21.578125 
z
M 31.109375 56 
z
" id="DejaVuSans-117"/>
      <path d="M 48.6875 27.296875 
Q 48.6875 37.203125 44.609375 42.84375 
Q 40.53125 48.484375 33.40625 48.484375 
Q 26.265625 48.484375 22.1875 42.84375 
Q 18.109375 37.203125 18.109375 27.296875 
Q 18.109375 17.390625 22.1875 11.75 
Q 26.265625 6.109375 33.40625 6.109375 
Q 40.53125 6.109375 44.609375 11.75 
Q 48.6875 17.390625 48.6875 27.296875 
z
M 18.109375 46.390625 
Q 20.953125 51.265625 25.265625 53.625 
Q 29.59375 56 35.59375 56 
Q 45.5625 56 51.78125 48.09375 
Q 58.015625 40.1875 58.015625 27.296875 
Q 58.015625 14.40625 51.78125 6.484375 
Q 45.5625 -1.421875 35.59375 -1.421875 
Q 29.59375 -1.421875 25.265625 0.953125 
Q 20.953125 3.328125 18.109375 8.203125 
L 18.109375 0 
L 9.078125 0 
L 9.078125 75.984375 
L 18.109375 75.984375 
z
" id="DejaVuSans-98"/>
      <path d="M 41.109375 46.296875 
Q 39.59375 47.171875 37.8125 47.578125 
Q 36.03125 48 33.890625 48 
Q 26.265625 48 22.1875 43.046875 
Q 18.109375 38.09375 18.109375 28.8125 
L 18.109375 0 
L 9.078125 0 
L 9.078125 54.6875 
L 18.109375 54.6875 
L 18.109375 46.1875 
Q 20.953125 51.171875 25.484375 53.578125 
Q 30.03125 56 36.53125 56 
Q 37.453125 56 38.578125 55.875 
Q 39.703125 55.765625 41.0625 55.515625 
z
" id="DejaVuSans-114"/>
      <path d="M 34.1875 63.1875 
L 20.796875 26.90625 
L 47.609375 26.90625 
z
M 28.609375 72.90625 
L 39.796875 72.90625 
L 67.578125 0 
L 57.328125 0 
L 50.6875 18.703125 
L 17.828125 18.703125 
L 11.1875 0 
L 0.78125 0 
z
" id="DejaVuSans-65"/>
      <path d="M 18.3125 70.21875 
L 18.3125 54.6875 
L 36.8125 54.6875 
L 36.8125 47.703125 
L 18.3125 47.703125 
L 18.3125 18.015625 
Q 18.3125 11.328125 20.140625 9.421875 
Q 21.96875 7.515625 27.59375 7.515625 
L 36.8125 7.515625 
L 36.8125 0 
L 27.59375 0 
Q 17.1875 0 13.234375 3.875 
Q 9.28125 7.765625 9.28125 18.015625 
L 9.28125 47.703125 
L 2.6875 47.703125 
L 2.6875 54.6875 
L 9.28125 54.6875 
L 9.28125 70.21875 
z
" id="DejaVuSans-116"/>
      <path d="M 32.171875 -5.078125 
Q 28.375 -14.84375 24.75 -17.8125 
Q 21.140625 -20.796875 15.09375 -20.796875 
L 7.90625 -20.796875 
L 7.90625 -13.28125 
L 13.1875 -13.28125 
Q 16.890625 -13.28125 18.9375 -11.515625 
Q 21 -9.765625 23.484375 -3.21875 
L 25.09375 0.875 
L 2.984375 54.6875 
L 12.5 54.6875 
L 29.59375 11.921875 
L 46.6875 54.6875 
L 56.203125 54.6875 
z
" id="DejaVuSans-121"/>
      <path d="M 45.40625 46.390625 
L 45.40625 75.984375 
L 54.390625 75.984375 
L 54.390625 0 
L 45.40625 0 
L 45.40625 8.203125 
Q 42.578125 3.328125 38.25 0.953125 
Q 33.9375 -1.421875 27.875 -1.421875 
Q 17.96875 -1.421875 11.734375 6.484375 
Q 5.515625 14.40625 5.515625 27.296875 
Q 5.515625 40.1875 11.734375 48.09375 
Q 17.96875 56 27.875 56 
Q 33.9375 56 38.25 53.625 
Q 42.578125 51.265625 45.40625 46.390625 
z
M 14.796875 27.296875 
Q 14.796875 17.390625 18.875 11.75 
Q 22.953125 6.109375 30.078125 6.109375 
Q 37.203125 6.109375 41.296875 11.75 
Q 45.40625 17.390625 45.40625 27.296875 
Q 45.40625 37.203125 41.296875 42.84375 
Q 37.203125 48.484375 30.078125 48.484375 
Q 22.953125 48.484375 18.875 42.84375 
Q 14.796875 37.203125 14.796875 27.296875 
z
" id="DejaVuSans-100"/>
     </defs>
     <g transform="translate(23.753854 346.164115)rotate(-90)scale(0.166667 -0.166667)">
      <use xlink:href="#DejaVuSans-78"/>
      <use x="74.804688" xlink:href="#DejaVuSans-117"/>
      <use x="138.183594" xlink:href="#DejaVuSans-109"/>
      <use x="235.595703" xlink:href="#DejaVuSans-98"/>
      <use x="299.072266" xlink:href="#DejaVuSans-101"/>
      <use x="360.595703" xlink:href="#DejaVuSans-114"/>
      <use x="401.708984" xlink:href="#DejaVuSans-32"/>
      <use x="433.496094" xlink:href="#DejaVuSans-111"/>
      <use x="494.677734" xlink:href="#DejaVuSans-102"/>
      <use x="529.882812" xlink:href="#DejaVuSans-32"/>
      <use x="561.669922" xlink:href="#DejaVuSans-65"/>
      <use x="630.0625" xlink:href="#DejaVuSans-116"/>
      <use x="669.271484" xlink:href="#DejaVuSans-116"/>
      <use x="708.480469" xlink:href="#DejaVuSans-32"/>
      <use x="740.267578" xlink:href="#DejaVuSans-115"/>
      <use x="792.367188" xlink:href="#DejaVuSans-116"/>
      <use x="831.576172" xlink:href="#DejaVuSans-114"/>
      <use x="872.689453" xlink:href="#DejaVuSans-97"/>
      <use x="933.96875" xlink:href="#DejaVuSans-116"/>
      <use x="973.177734" xlink:href="#DejaVuSans-101"/>
      <use x="1034.701172" xlink:href="#DejaVuSans-103"/>
      <use x="1098.177734" xlink:href="#DejaVuSans-121"/>
      <use x="1157.357422" xlink:href="#DejaVuSans-32"/>
      <use x="1189.144531" xlink:href="#DejaVuSans-117"/>
      <use x="1252.523438" xlink:href="#DejaVuSans-115"/>
      <use x="1304.623047" xlink:href="#DejaVuSans-101"/>
      <use x="1366.146484" xlink:href="#DejaVuSans-100"/>
     </g>
    </g>
   </g>
   <g id="line2d_12">
    <path clip-path="url(#p87960d64bf)" d="M 109.123636 301.793522 
L 113.722173 286.441669 
L 118.320711 270.885125 
L 122.919248 263.618582 
L 127.517785 253.281668 
L 132.116322 242.33068 
L 136.714859 236.189939 
L 141.313396 229.128087 
L 145.911933 225.034259 
L 150.51047 215.516111 
L 155.109007 202.211172 
L 159.707544 193.511789 
L 164.306082 186.859319 
L 168.904619 173.55438 
L 173.503156 171.814504 
L 178.101693 164.957343 
L 182.70023 158.816602 
L 187.298767 152.47117 
L 191.897304 143.976478 
L 196.495841 140.087342 
L 201.094378 135.891169 
L 205.692915 130.466848 
L 210.291452 124.735489 
L 214.88999 118.390057 
L 219.488527 118.901785 
L 224.087064 113.272773 
L 228.685601 112.658699 
L 233.284138 111.942279 
L 237.882675 105.596846 
L 242.481212 103.447587 
L 247.079749 106.722649 
L 251.678286 108.257834 
L 256.276823 103.447587 
L 260.875361 106.824995 
L 265.473898 101.093636 
L 270.072435 103.242896 
L 274.670972 112.351662 
L 279.269509 107.439069 
L 283.868046 106.620303 
L 288.466583 104.675735 
L 293.06512 108.053143 
L 297.663657 107.950797 
L 302.262194 109.793019 
L 306.860731 119.311168 
L 311.459269 122.58623 
L 316.057806 127.498823 
L 320.656343 133.434872 
L 325.25488 144.181169 
L 329.853417 139.677959 
L 334.451954 138.449811 
L 339.050491 142.543638 
L 343.649028 146.228083 
L 348.247565 157.179071 
L 352.846102 163.115121 
L 357.444639 171.20043 
L 362.043177 176.624751 
L 366.641714 183.99364 
L 371.240251 192.897715 
L 375.838788 194.125863 
L 380.437325 203.644011 
L 385.035862 211.934012 
L 389.634399 219.09821 
L 394.232936 225.238951 
L 398.831473 229.742161 
L 403.43001 241.204877 
L 408.028548 250.927717 
L 412.627085 257.068458 
L 417.225622 263.106853 
L 421.824159 271.294508 
L 426.422696 280.915002 
L 431.021233 286.646361 
L 435.61977 294.117596 
L 440.218307 301.895868 
L 444.816844 314.586732 
L 449.415381 318.885251 
L 454.013918 321.546239 
L 458.612456 321.853276 
L 463.210993 327.994017 
L 467.80953 330.962042 
L 472.408067 335.26056 
L 477.006604 339.354388 
L 481.605141 340.684882 
L 486.203678 343.345869 
L 490.802215 347.849079 
L 495.400752 348.565499 
L 499.999289 351.840561 
L 504.597827 352.045252 
L 509.196364 351.840561 
" style="fill:none;stroke:#1f77b4;stroke-linecap:square;stroke-width:1.5;"/>
   </g>
   <g id="line2d_13">
    <path clip-path="url(#p87960d64bf)" d="M 109.123636 352.966364 
L 113.722173 346.620931 
L 118.320711 341.91303 
L 122.919248 334.953523 
L 127.517785 331.985499 
L 132.116322 329.631548 
L 136.714859 324.002535 
L 141.313396 322.876733 
L 145.911933 318.578214 
L 150.51047 316.5313 
L 155.109007 318.373523 
L 159.707544 316.5313 
L 164.306082 311.925745 
L 168.904619 311.106979 
L 173.503156 304.556855 
L 178.101693 302.202905 
L 182.70023 302.612287 
L 187.298767 300.360682 
L 191.897304 301.281793 
L 196.495841 296.164509 
L 201.094378 299.644262 
L 205.692915 297.904386 
L 210.291452 293.094139 
L 214.88999 292.480065 
L 219.488527 290.535497 
L 224.087064 293.29883 
L 228.685601 292.787102 
L 233.284138 292.173028 
L 237.882675 292.275373 
L 242.481212 289.921423 
L 247.079749 289.51204 
L 251.678286 289.307348 
L 256.276823 291.661299 
L 260.875361 289.000311 
L 265.473898 291.865991 
L 270.072435 297.290312 
L 274.670972 288.0792 
L 279.269509 289.000311 
L 283.868046 289.921423 
L 288.466583 293.708213 
L 293.06512 290.433151 
L 297.663657 294.526978 
L 302.262194 297.495003 
L 306.860731 296.676238 
L 311.459269 295.243398 
L 316.057806 292.991793 
L 320.656343 295.755127 
L 325.25488 293.094139 
L 329.853417 300.974756 
L 334.451954 302.202905 
L 339.050491 300.667719 
L 343.649028 303.73809 
L 348.247565 305.375621 
L 352.846102 304.045127 
L 357.444639 307.934263 
L 362.043177 309.981177 
L 366.641714 311.823399 
L 371.240251 312.949201 
L 375.838788 315.917226 
L 380.437325 312.232782 
L 385.035862 317.554757 
L 389.634399 319.294634 
L 394.232936 320.011054 
L 398.831473 321.546239 
L 403.43001 321.955622 
L 408.028548 326.049449 
L 412.627085 329.529202 
L 417.225622 330.655005 
L 421.824159 331.371424 
L 426.422696 336.386363 
L 431.021233 338.12624 
L 435.61977 337.716857 
L 440.218307 341.298956 
L 444.816844 344.266981 
L 449.415381 344.9834 
L 454.013918 344.778709 
L 458.612456 345.597474 
L 463.210993 346.620931 
L 467.80953 347.746734 
L 472.408067 348.156117 
L 477.006604 348.974882 
L 481.605141 349.998339 
L 486.203678 349.998339 
L 490.802215 351.738215 
L 495.400752 351.124141 
L 499.999289 352.864018 
L 504.597827 352.659327 
L 509.196364 352.659327 
" style="fill:none;stroke:#ff7f0e;stroke-linecap:square;stroke-width:1.5;"/>
   </g>
   <g id="line2d_14">
    <path clip-path="url(#p87960d64bf)" d="M 109.123636 352.966364 
L 113.722173 352.966364 
L 118.320711 352.454635 
L 122.919248 352.045252 
L 127.517785 350.612413 
L 132.116322 349.793647 
L 136.714859 350.510067 
L 141.313396 348.974882 
L 145.911933 347.644388 
L 150.51047 346.620931 
L 155.109007 344.369326 
L 159.707544 345.392783 
L 164.306082 344.471672 
L 168.904619 342.322413 
L 173.503156 344.574018 
L 178.101693 343.448215 
L 182.70023 342.62945 
L 187.298767 343.959943 
L 191.897304 342.424758 
L 196.495841 343.448215 
L 201.094378 343.959943 
L 205.692915 342.424758 
L 210.291452 341.094264 
L 214.88999 341.810684 
L 219.488527 343.141178 
L 224.087064 342.424758 
L 228.685601 341.503647 
L 233.284138 342.015375 
L 237.882675 340.889573 
L 242.481212 340.582536 
L 247.079749 338.842659 
L 251.678286 341.298956 
L 256.276823 341.298956 
L 260.875361 342.220067 
L 265.473898 342.731795 
L 270.072435 338.330931 
L 274.670972 343.038832 
L 279.269509 340.48019 
L 283.868046 339.456733 
L 288.466583 341.91303 
L 293.06512 341.708338 
L 297.663657 342.322413 
L 302.262194 341.91303 
L 306.860731 339.252042 
L 311.459269 340.889573 
L 316.057806 342.220067 
L 320.656343 341.810684 
L 325.25488 340.275499 
L 329.853417 343.141178 
L 334.451954 341.810684 
L 339.050491 343.345869 
L 343.649028 342.322413 
L 348.247565 341.810684 
L 352.846102 344.9834 
L 357.444639 342.62945 
L 362.043177 341.094264 
L 366.641714 343.038832 
L 371.240251 344.676363 
L 375.838788 345.69982 
L 380.437325 345.495129 
L 385.035862 345.188092 
L 389.634399 346.825623 
L 394.232936 347.746734 
L 398.831473 346.723277 
L 403.43001 348.258462 
L 408.028548 348.258462 
L 412.627085 349.077228 
L 417.225622 348.360808 
L 421.824159 348.258462 
L 426.422696 349.588956 
L 431.021233 349.895993 
L 435.61977 350.305376 
L 440.218307 351.431178 
L 444.816844 351.63587 
L 449.415381 351.328833 
L 454.013918 351.226487 
L 458.612456 352.147598 
L 463.210993 351.431178 
L 467.80953 351.738215 
L 472.408067 352.147598 
L 477.006604 352.556981 
L 481.605141 352.864018 
L 486.203678 352.556981 
L 490.802215 352.659327 
L 495.400752 352.659327 
L 499.999289 352.966364 
L 504.597827 352.966364 
L 509.196364 352.864018 
" style="fill:none;stroke:#2ca02c;stroke-linecap:square;stroke-width:1.5;"/>
   </g>
   <g id="line2d_15">
    <path clip-path="url(#p87960d64bf)" d="M 109.123636 352.966364 
L 113.722173 352.966364 
L 118.320711 352.761672 
L 122.919248 352.249944 
L 127.517785 351.226487 
L 132.116322 349.895993 
L 136.714859 348.872536 
L 141.313396 347.849079 
L 145.911933 347.951425 
L 150.51047 347.951425 
L 155.109007 345.904511 
L 159.707544 344.881055 
L 164.306082 345.188092 
L 168.904619 346.313894 
L 173.503156 343.959943 
L 178.101693 343.243524 
L 182.70023 343.141178 
L 187.298767 342.731795 
L 191.897304 342.731795 
L 196.495841 342.527104 
L 201.094378 341.298956 
L 205.692915 341.19661 
L 210.291452 342.731795 
L 214.88999 342.015375 
L 219.488527 339.866116 
L 224.087064 342.424758 
L 228.685601 340.582536 
L 233.284138 342.015375 
L 237.882675 342.424758 
L 242.481212 339.661425 
L 247.079749 342.424758 
L 251.678286 341.298956 
L 256.276823 341.298956 
L 260.875361 342.220067 
L 265.473898 339.76377 
L 270.072435 339.866116 
L 274.670972 341.708338 
L 279.269509 341.19661 
L 283.868046 342.220067 
L 288.466583 339.866116 
L 293.06512 341.503647 
L 297.663657 342.936487 
L 302.262194 339.559079 
L 306.860731 340.070808 
L 311.459269 342.117721 
L 316.057806 340.173153 
L 320.656343 341.605993 
L 325.25488 343.345869 
L 329.853417 341.19661 
L 334.451954 341.708338 
L 339.050491 344.062289 
L 343.649028 340.582536 
L 348.247565 345.802166 
L 352.846102 344.676363 
L 357.444639 344.062289 
L 362.043177 346.723277 
L 366.641714 344.574018 
L 371.240251 345.085746 
L 375.838788 346.41624 
L 380.437325 344.881055 
L 385.035862 345.188092 
L 389.634399 345.392783 
L 394.232936 347.030314 
L 398.831473 347.644388 
L 403.43001 347.644388 
L 408.028548 348.770191 
L 412.627085 348.258462 
L 417.225622 349.179573 
L 421.824159 349.588956 
L 426.422696 350.20303 
L 431.021233 349.588956 
L 435.61977 350.407722 
L 440.218307 350.510067 
L 444.816844 351.328833 
L 449.415381 351.942907 
L 454.013918 351.533524 
L 458.612456 351.63587 
L 463.210993 351.942907 
L 467.80953 351.942907 
L 472.408067 351.942907 
L 477.006604 352.556981 
L 481.605141 352.454635 
L 486.203678 352.35229 
L 490.802215 352.556981 
L 495.400752 352.966364 
L 499.999289 352.966364 
L 504.597827 352.864018 
L 509.196364 352.966364 
" style="fill:none;stroke:#d62728;stroke-linecap:square;stroke-width:1.5;"/>
   </g>
   <g id="line2d_16">
    <path clip-path="url(#p87960d64bf)" d="M 109.123636 352.966364 
L 113.722173 352.966364 
L 118.320711 352.761672 
L 122.919248 351.840561 
L 127.517785 350.100684 
L 132.116322 348.360808 
L 136.714859 347.439697 
L 141.313396 345.188092 
L 145.911933 343.857598 
L 150.51047 341.503647 
L 155.109007 342.527104 
L 159.707544 340.070808 
L 164.306082 338.433277 
L 168.904619 335.874634 
L 173.503156 337.40982 
L 178.101693 334.953523 
L 182.70023 334.032412 
L 187.298767 332.19019 
L 191.897304 329.119819 
L 196.495841 330.75735 
L 201.094378 328.505745 
L 205.692915 327.379943 
L 210.291452 326.663523 
L 214.88999 326.356486 
L 219.488527 324.514264 
L 224.087064 320.420436 
L 228.685601 323.797844 
L 233.284138 318.987597 
L 237.882675 319.806362 
L 242.481212 320.625128 
L 247.079749 317.657103 
L 251.678286 319.294634 
L 256.276823 315.712535 
L 260.875361 319.192288 
L 265.473898 318.475868 
L 270.072435 320.932165 
L 274.670972 315.507843 
L 279.269509 315.507843 
L 283.868046 312.130436 
L 288.466583 316.224263 
L 293.06512 315.917226 
L 297.663657 314.996115 
L 302.262194 317.554757 
L 306.860731 316.121918 
L 311.459269 316.326609 
L 316.057806 316.735992 
L 320.656343 317.24772 
L 325.25488 315.917226 
L 329.853417 315.81488 
L 334.451954 315.405498 
L 339.050491 318.066486 
L 343.649028 318.271177 
L 348.247565 317.043029 
L 352.846102 315.303152 
L 357.444639 321.75093 
L 362.043177 322.774387 
L 366.641714 323.081424 
L 371.240251 325.025992 
L 375.838788 326.25414 
L 380.437325 329.733893 
L 385.035862 330.040931 
L 389.634399 330.450313 
L 394.232936 331.883153 
L 398.831473 331.780807 
L 403.43001 332.90661 
L 408.028548 336.079326 
L 412.627085 335.97698 
L 417.225622 338.330931 
L 421.824159 339.866116 
L 426.422696 340.582536 
L 431.021233 341.503647 
L 435.61977 342.527104 
L 440.218307 343.959943 
L 444.816844 346.41624 
L 449.415381 347.644388 
L 454.013918 348.258462 
L 458.612456 347.542042 
L 463.210993 348.667845 
L 467.80953 350.100684 
L 472.408067 349.793647 
L 477.006604 350.305376 
L 481.605141 350.407722 
L 486.203678 351.328833 
L 490.802215 352.249944 
L 495.400752 352.249944 
L 499.999289 352.659327 
L 504.597827 352.864018 
L 509.196364 352.966364 
" style="fill:none;stroke:#9467bd;stroke-linecap:square;stroke-width:1.5;"/>
   </g>
   <g id="line2d_17">
    <path clip-path="url(#p87960d64bf)" d="M 109.123636 352.966364 
L 113.722173 352.966364 
L 118.320711 352.966364 
L 122.919248 352.966364 
L 127.517785 352.761672 
L 132.116322 352.556981 
L 136.714859 352.659327 
L 141.313396 352.249944 
L 145.911933 352.249944 
L 150.51047 350.20303 
L 155.109007 351.124141 
L 159.707544 349.48661 
L 164.306082 349.691302 
L 168.904619 349.077228 
L 173.503156 347.951425 
L 178.101693 348.667845 
L 182.70023 348.667845 
L 187.298767 348.974882 
L 191.897304 347.746734 
L 196.495841 347.030314 
L 201.094378 347.849079 
L 205.692915 348.360808 
L 210.291452 346.518586 
L 214.88999 346.620931 
L 219.488527 346.518586 
L 224.087064 345.904511 
L 228.685601 345.802166 
L 233.284138 345.904511 
L 237.882675 344.369326 
L 242.481212 346.109203 
L 247.079749 347.337351 
L 251.678286 345.085746 
L 256.276823 346.006857 
L 260.875361 345.802166 
L 265.473898 344.574018 
L 270.072435 346.006857 
L 274.670972 345.188092 
L 279.269509 345.495129 
L 283.868046 345.085746 
L 288.466583 346.313894 
L 293.06512 343.755252 
L 297.663657 346.211549 
L 302.262194 345.085746 
L 306.860731 344.471672 
L 311.459269 344.062289 
L 316.057806 344.369326 
L 320.656343 345.802166 
L 325.25488 346.927968 
L 329.853417 345.188092 
L 334.451954 345.904511 
L 339.050491 345.290437 
L 343.649028 347.030314 
L 348.247565 346.41624 
L 352.846102 345.188092 
L 357.444639 346.723277 
L 362.043177 345.392783 
L 366.641714 345.597474 
L 371.240251 346.620931 
L 375.838788 347.13266 
L 380.437325 347.439697 
L 385.035862 346.825623 
L 389.634399 348.258462 
L 394.232936 349.077228 
L 398.831473 348.463154 
L 403.43001 349.895993 
L 408.028548 349.077228 
L 412.627085 348.974882 
L 417.225622 350.407722 
L 421.824159 350.714759 
L 426.422696 350.305376 
L 431.021233 351.021796 
L 435.61977 350.407722 
L 440.218307 351.021796 
L 444.816844 351.124141 
L 449.415381 351.840561 
L 454.013918 351.840561 
L 458.612456 351.738215 
L 463.210993 351.840561 
L 467.80953 352.147598 
L 472.408067 352.045252 
L 477.006604 352.454635 
L 481.605141 352.556981 
L 486.203678 352.659327 
L 490.802215 352.966364 
L 495.400752 352.761672 
L 499.999289 352.864018 
L 504.597827 352.966364 
L 509.196364 352.966364 
" style="fill:none;stroke:#8c564b;stroke-linecap:square;stroke-width:1.5;"/>
   </g>
   <g id="line2d_18">
    <path clip-path="url(#p87960d64bf)" d="M 109.123636 352.966364 
L 113.722173 352.966364 
L 118.320711 352.454635 
L 122.919248 351.328833 
L 127.517785 350.714759 
L 132.116322 350.817104 
L 136.714859 348.770191 
L 141.313396 347.849079 
L 145.911933 343.959943 
L 150.51047 344.9834 
L 155.109007 344.062289 
L 159.707544 341.810684 
L 164.306082 340.377845 
L 168.904619 342.424758 
L 173.503156 338.842659 
L 178.101693 340.48019 
L 182.70023 336.284017 
L 187.298767 337.205128 
L 191.897304 337.000437 
L 196.495841 335.97698 
L 201.094378 335.567597 
L 205.692915 334.134758 
L 210.291452 335.97698 
L 214.88999 333.623029 
L 219.488527 331.371424 
L 224.087064 334.134758 
L 228.685601 331.47377 
L 233.284138 330.962042 
L 237.882675 329.836239 
L 242.481212 329.529202 
L 247.079749 328.915128 
L 251.678286 329.733893 
L 256.276823 330.245622 
L 260.875361 329.426856 
L 265.473898 327.482288 
L 270.072435 328.915128 
L 274.670972 327.072906 
L 279.269509 330.347968 
L 283.868046 329.017474 
L 288.466583 327.482288 
L 293.06512 328.198708 
L 297.663657 328.301054 
L 302.262194 329.733893 
L 306.860731 331.166733 
L 311.459269 330.450313 
L 316.057806 327.072906 
L 320.656343 329.426856 
L 325.25488 328.608091 
L 329.853417 327.277597 
L 334.451954 329.426856 
L 339.050491 329.529202 
L 343.649028 329.426856 
L 348.247565 330.655005 
L 352.846102 334.748832 
L 357.444639 332.599573 
L 362.043177 331.985499 
L 366.641714 335.362906 
L 371.240251 335.669943 
L 375.838788 334.339449 
L 380.437325 339.559079 
L 385.035862 338.535622 
L 389.634399 336.488709 
L 394.232936 338.535622 
L 398.831473 339.76377 
L 403.43001 339.047351 
L 408.028548 340.173153 
L 412.627085 342.834141 
L 417.225622 342.936487 
L 421.824159 343.243524 
L 426.422696 346.006857 
L 431.021233 345.290437 
L 435.61977 346.211549 
L 440.218307 347.746734 
L 444.816844 349.691302 
L 449.415381 349.48661 
L 454.013918 349.48661 
L 458.612456 350.612413 
L 463.210993 350.91945 
L 467.80953 350.407722 
L 472.408067 350.714759 
L 477.006604 351.533524 
L 481.605141 351.840561 
L 486.203678 351.942907 
L 490.802215 352.761672 
L 495.400752 352.147598 
L 499.999289 352.966364 
L 504.597827 352.864018 
L 509.196364 352.864018 
" style="fill:none;stroke:#e377c2;stroke-linecap:square;stroke-width:1.5;"/>
   </g>
   <g id="line2d_19">
    <path clip-path="url(#p87960d64bf)" d="M 109.123636 352.966364 
L 113.722173 352.966364 
L 118.320711 352.966364 
L 122.919248 352.966364 
L 127.517785 352.966364 
L 132.116322 352.864018 
L 136.714859 352.454635 
L 141.313396 351.738215 
L 145.911933 351.738215 
L 150.51047 351.226487 
L 155.109007 350.100684 
L 159.707544 350.612413 
L 164.306082 349.691302 
L 168.904619 348.770191 
L 173.503156 348.770191 
L 178.101693 347.13266 
L 182.70023 348.667845 
L 187.298767 346.620931 
L 191.897304 347.849079 
L 196.495841 346.825623 
L 201.094378 346.927968 
L 205.692915 346.518586 
L 210.291452 347.337351 
L 214.88999 348.258462 
L 219.488527 346.211549 
L 224.087064 345.188092 
L 228.685601 344.9834 
L 233.284138 345.904511 
L 237.882675 345.802166 
L 242.481212 345.495129 
L 247.079749 346.006857 
L 251.678286 345.904511 
L 256.276823 345.69982 
L 260.875361 345.188092 
L 265.473898 345.495129 
L 270.072435 344.369326 
L 274.670972 345.290437 
L 279.269509 345.904511 
L 283.868046 345.904511 
L 288.466583 344.369326 
L 293.06512 344.676363 
L 297.663657 344.574018 
L 302.262194 344.778709 
L 306.860731 344.164635 
L 311.459269 344.574018 
L 316.057806 344.778709 
L 320.656343 345.188092 
L 325.25488 347.13266 
L 329.853417 347.030314 
L 334.451954 346.313894 
L 339.050491 345.802166 
L 343.649028 345.290437 
L 348.247565 345.085746 
L 352.846102 346.825623 
L 357.444639 345.69982 
L 362.043177 348.053771 
L 366.641714 347.542042 
L 371.240251 346.927968 
L 375.838788 346.620931 
L 380.437325 346.211549 
L 385.035862 347.337351 
L 389.634399 347.644388 
L 394.232936 347.13266 
L 398.831473 347.951425 
L 403.43001 349.48661 
L 408.028548 349.691302 
L 412.627085 349.895993 
L 417.225622 348.872536 
L 421.824159 350.305376 
L 426.422696 350.510067 
L 431.021233 349.793647 
L 435.61977 350.817104 
L 440.218307 350.100684 
L 444.816844 351.738215 
L 449.415381 352.35229 
L 454.013918 351.738215 
L 458.612456 352.454635 
L 463.210993 351.63587 
L 467.80953 352.659327 
L 472.408067 352.454635 
L 477.006604 352.556981 
L 481.605141 352.454635 
L 486.203678 352.864018 
L 490.802215 352.864018 
L 495.400752 352.966364 
L 499.999289 352.966364 
L 504.597827 352.966364 
L 509.196364 352.966364 
" style="fill:none;stroke:#7f7f7f;stroke-linecap:square;stroke-width:1.5;"/>
   </g>
   <g id="line2d_20">
    <path clip-path="url(#p87960d64bf)" d="M 109.123636 352.966364 
L 113.722173 352.966364 
L 118.320711 352.045252 
L 122.919248 351.738215 
L 127.517785 350.510067 
L 132.116322 349.077228 
L 136.714859 345.597474 
L 141.313396 344.471672 
L 145.911933 343.857598 
L 150.51047 341.401301 
L 155.109007 338.842659 
L 159.707544 337.512165 
L 164.306082 335.26056 
L 168.904619 335.567597 
L 173.503156 330.450313 
L 178.101693 330.450313 
L 182.70023 327.891671 
L 187.298767 326.561177 
L 191.897304 324.002535 
L 196.495841 321.75093 
L 201.094378 316.428955 
L 205.692915 318.987597 
L 210.291452 315.712535 
L 214.88999 314.689078 
L 219.488527 315.917226 
L 224.087064 314.586732 
L 228.685601 313.051547 
L 233.284138 311.516362 
L 237.882675 312.949201 
L 242.481212 310.902288 
L 247.079749 308.343646 
L 251.678286 307.115497 
L 256.276823 306.80846 
L 260.875361 304.352164 
L 265.473898 307.217843 
L 270.072435 302.714633 
L 274.670972 303.533398 
L 279.269509 302.30525 
L 283.868046 303.328707 
L 288.466583 303.124016 
L 293.06512 302.816979 
L 297.663657 298.825497 
L 302.262194 304.556855 
L 306.860731 302.509942 
L 311.459269 303.840436 
L 316.057806 304.863892 
L 320.656343 306.501423 
L 325.25488 307.52488 
L 329.853417 304.147473 
L 334.451954 304.147473 
L 339.050491 302.816979 
L 343.649028 305.273275 
L 348.247565 308.2413 
L 352.846102 305.580312 
L 357.444639 305.887349 
L 362.043177 309.469448 
L 366.641714 312.02809 
L 371.240251 312.130436 
L 375.838788 317.24772 
L 380.437325 315.917226 
L 385.035862 318.578214 
L 389.634399 322.365004 
L 394.232936 320.625128 
L 398.831473 323.490807 
L 403.43001 325.128338 
L 408.028548 325.640066 
L 412.627085 330.347968 
L 417.225622 332.087844 
L 421.824159 333.930066 
L 426.422696 335.567597 
L 431.021233 338.842659 
L 435.61977 339.76377 
L 440.218307 343.345869 
L 444.816844 345.597474 
L 449.415381 345.597474 
L 454.013918 346.41624 
L 458.612456 346.620931 
L 463.210993 347.849079 
L 467.80953 348.565499 
L 472.408067 349.998339 
L 477.006604 349.384265 
L 481.605141 350.100684 
L 486.203678 350.817104 
L 490.802215 352.147598 
L 495.400752 352.249944 
L 499.999289 352.761672 
L 504.597827 352.659327 
L 509.196364 352.761672 
" style="fill:none;stroke:#bcbd22;stroke-linecap:square;stroke-width:1.5;"/>
   </g>
   <g id="patch_3">
    <path d="M 89.12 365.56 
L 89.12 88.5 
" style="fill:none;stroke:#000000;stroke-linecap:square;stroke-linejoin:miter;stroke-width:0.8;"/>
   </g>
   <g id="patch_4">
    <path d="M 529.2 365.56 
L 529.2 88.5 
" style="fill:none;stroke:#000000;stroke-linecap:square;stroke-linejoin:miter;stroke-width:0.8;"/>
   </g>
   <g id="patch_5">
    <path d="M 89.12 365.56 
L 529.2 365.56 
" style="fill:none;stroke:#000000;stroke-linecap:square;stroke-linejoin:miter;stroke-width:0.8;"/>
   </g>
   <g id="patch_6">
    <path d="M 89.12 88.5 
L 529.2 88.5 
" style="fill:none;stroke:#000000;stroke-linecap:square;stroke-linejoin:miter;stroke-width:0.8;"/>
   </g>
   <g id="legend_1">
    <g id="patch_7">
     <path d="M 99.62 81 
L 518.7 81 
Q 521.7 81 521.7 78 
L 521.7 13.448438 
Q 521.7 10.448438 518.7 10.448438 
L 99.62 10.448438 
Q 96.62 10.448438 96.62 13.448438 
L 96.62 78 
Q 96.62 81 99.62 81 
z
" style="fill:#ffffff;opacity:0.8;stroke:#cccccc;stroke-linejoin:miter;"/>
    </g>
    <g id="line2d_21">
     <path d="M 102.62 22.596094 
L 132.62 22.596094 
" style="fill:none;stroke:#1f77b4;stroke-linecap:square;stroke-width:1.5;"/>
    </g>
    <g id="line2d_22"/>
    <g id="text_14">
     <!-- Stra 1 -->
     <defs>
      <path d="M 53.515625 70.515625 
L 53.515625 60.890625 
Q 47.90625 63.578125 42.921875 64.890625 
Q 37.9375 66.21875 33.296875 66.21875 
Q 25.25 66.21875 20.875 63.09375 
Q 16.5 59.96875 16.5 54.203125 
Q 16.5 49.359375 19.40625 46.890625 
Q 22.3125 44.4375 30.421875 42.921875 
L 36.375 41.703125 
Q 47.40625 39.59375 52.65625 34.296875 
Q 57.90625 29 57.90625 20.125 
Q 57.90625 9.515625 50.796875 4.046875 
Q 43.703125 -1.421875 29.984375 -1.421875 
Q 24.8125 -1.421875 18.96875 -0.25 
Q 13.140625 0.921875 6.890625 3.21875 
L 6.890625 13.375 
Q 12.890625 10.015625 18.65625 8.296875 
Q 24.421875 6.59375 29.984375 6.59375 
Q 38.421875 6.59375 43.015625 9.90625 
Q 47.609375 13.234375 47.609375 19.390625 
Q 47.609375 24.75 44.3125 27.78125 
Q 41.015625 30.8125 33.5 32.328125 
L 27.484375 33.5 
Q 16.453125 35.6875 11.515625 40.375 
Q 6.59375 45.0625 6.59375 53.421875 
Q 6.59375 63.09375 13.40625 68.65625 
Q 20.21875 74.21875 32.171875 74.21875 
Q 37.3125 74.21875 42.625 73.28125 
Q 47.953125 72.359375 53.515625 70.515625 
z
" id="DejaVuSans-83"/>
     </defs>
     <g transform="translate(144.62 27.846094)scale(0.15 -0.15)">
      <use xlink:href="#DejaVuSans-83"/>
      <use x="63.476562" xlink:href="#DejaVuSans-116"/>
      <use x="102.685547" xlink:href="#DejaVuSans-114"/>
      <use x="143.798828" xlink:href="#DejaVuSans-97"/>
      <use x="205.078125" xlink:href="#DejaVuSans-32"/>
      <use x="236.865234" xlink:href="#DejaVuSans-49"/>
     </g>
    </g>
    <g id="line2d_23">
     <path d="M 102.62 44.613281 
L 132.62 44.613281 
" style="fill:none;stroke:#ff7f0e;stroke-linecap:square;stroke-width:1.5;"/>
    </g>
    <g id="line2d_24"/>
    <g id="text_15">
     <!-- Stra 2 -->
     <g transform="translate(144.62 49.863281)scale(0.15 -0.15)">
      <use xlink:href="#DejaVuSans-83"/>
      <use x="63.476562" xlink:href="#DejaVuSans-116"/>
      <use x="102.685547" xlink:href="#DejaVuSans-114"/>
      <use x="143.798828" xlink:href="#DejaVuSans-97"/>
      <use x="205.078125" xlink:href="#DejaVuSans-32"/>
      <use x="236.865234" xlink:href="#DejaVuSans-50"/>
     </g>
    </g>
    <g id="line2d_25">
     <path d="M 102.62 66.630469 
L 132.62 66.630469 
" style="fill:none;stroke:#2ca02c;stroke-linecap:square;stroke-width:1.5;"/>
    </g>
    <g id="line2d_26"/>
    <g id="text_16">
     <!-- Stra 3 -->
     <defs>
      <path d="M 40.578125 39.3125 
Q 47.65625 37.796875 51.625 33 
Q 55.609375 28.21875 55.609375 21.1875 
Q 55.609375 10.40625 48.1875 4.484375 
Q 40.765625 -1.421875 27.09375 -1.421875 
Q 22.515625 -1.421875 17.65625 -0.515625 
Q 12.796875 0.390625 7.625 2.203125 
L 7.625 11.71875 
Q 11.71875 9.328125 16.59375 8.109375 
Q 21.484375 6.890625 26.8125 6.890625 
Q 36.078125 6.890625 40.9375 10.546875 
Q 45.796875 14.203125 45.796875 21.1875 
Q 45.796875 27.640625 41.28125 31.265625 
Q 36.765625 34.90625 28.71875 34.90625 
L 20.21875 34.90625 
L 20.21875 43.015625 
L 29.109375 43.015625 
Q 36.375 43.015625 40.234375 45.921875 
Q 44.09375 48.828125 44.09375 54.296875 
Q 44.09375 59.90625 40.109375 62.90625 
Q 36.140625 65.921875 28.71875 65.921875 
Q 24.65625 65.921875 20.015625 65.03125 
Q 15.375 64.15625 9.8125 62.3125 
L 9.8125 71.09375 
Q 15.4375 72.65625 20.34375 73.4375 
Q 25.25 74.21875 29.59375 74.21875 
Q 40.828125 74.21875 47.359375 69.109375 
Q 53.90625 64.015625 53.90625 55.328125 
Q 53.90625 49.265625 50.4375 45.09375 
Q 46.96875 40.921875 40.578125 39.3125 
z
" id="DejaVuSans-51"/>
     </defs>
     <g transform="translate(144.62 71.880469)scale(0.15 -0.15)">
      <use xlink:href="#DejaVuSans-83"/>
      <use x="63.476562" xlink:href="#DejaVuSans-116"/>
      <use x="102.685547" xlink:href="#DejaVuSans-114"/>
      <use x="143.798828" xlink:href="#DejaVuSans-97"/>
      <use x="205.078125" xlink:href="#DejaVuSans-32"/>
      <use x="236.865234" xlink:href="#DejaVuSans-51"/>
     </g>
    </g>
    <g id="line2d_27">
     <path d="M 211.289115 22.596094 
L 241.289115 22.596094 
" style="fill:none;stroke:#d62728;stroke-linecap:square;stroke-width:1.5;"/>
    </g>
    <g id="line2d_28"/>
    <g id="text_17">
     <!-- Stra 4 -->
     <g transform="translate(253.289115 27.846094)scale(0.15 -0.15)">
      <use xlink:href="#DejaVuSans-83"/>
      <use x="63.476562" xlink:href="#DejaVuSans-116"/>
      <use x="102.685547" xlink:href="#DejaVuSans-114"/>
      <use x="143.798828" xlink:href="#DejaVuSans-97"/>
      <use x="205.078125" xlink:href="#DejaVuSans-32"/>
      <use x="236.865234" xlink:href="#DejaVuSans-52"/>
     </g>
    </g>
    <g id="line2d_29">
     <path d="M 211.289115 44.613281 
L 241.289115 44.613281 
" style="fill:none;stroke:#9467bd;stroke-linecap:square;stroke-width:1.5;"/>
    </g>
    <g id="line2d_30"/>
    <g id="text_18">
     <!-- Stra 5 -->
     <g transform="translate(253.289115 49.863281)scale(0.15 -0.15)">
      <use xlink:href="#DejaVuSans-83"/>
      <use x="63.476562" xlink:href="#DejaVuSans-116"/>
      <use x="102.685547" xlink:href="#DejaVuSans-114"/>
      <use x="143.798828" xlink:href="#DejaVuSans-97"/>
      <use x="205.078125" xlink:href="#DejaVuSans-32"/>
      <use x="236.865234" xlink:href="#DejaVuSans-53"/>
     </g>
    </g>
    <g id="line2d_31">
     <path d="M 319.958229 22.596094 
L 349.958229 22.596094 
" style="fill:none;stroke:#8c564b;stroke-linecap:square;stroke-width:1.5;"/>
    </g>
    <g id="line2d_32"/>
    <g id="text_19">
     <!-- Stra 6 -->
     <g transform="translate(361.958229 27.846094)scale(0.15 -0.15)">
      <use xlink:href="#DejaVuSans-83"/>
      <use x="63.476562" xlink:href="#DejaVuSans-116"/>
      <use x="102.685547" xlink:href="#DejaVuSans-114"/>
      <use x="143.798828" xlink:href="#DejaVuSans-97"/>
      <use x="205.078125" xlink:href="#DejaVuSans-32"/>
      <use x="236.865234" xlink:href="#DejaVuSans-54"/>
     </g>
    </g>
    <g id="line2d_33">
     <path d="M 319.958229 44.613281 
L 349.958229 44.613281 
" style="fill:none;stroke:#e377c2;stroke-linecap:square;stroke-width:1.5;"/>
    </g>
    <g id="line2d_34"/>
    <g id="text_20">
     <!-- Stra 7 -->
     <defs>
      <path d="M 8.203125 72.90625 
L 55.078125 72.90625 
L 55.078125 68.703125 
L 28.609375 0 
L 18.3125 0 
L 43.21875 64.59375 
L 8.203125 64.59375 
z
" id="DejaVuSans-55"/>
     </defs>
     <g transform="translate(361.958229 49.863281)scale(0.15 -0.15)">
      <use xlink:href="#DejaVuSans-83"/>
      <use x="63.476562" xlink:href="#DejaVuSans-116"/>
      <use x="102.685547" xlink:href="#DejaVuSans-114"/>
      <use x="143.798828" xlink:href="#DejaVuSans-97"/>
      <use x="205.078125" xlink:href="#DejaVuSans-32"/>
      <use x="236.865234" xlink:href="#DejaVuSans-55"/>
     </g>
    </g>
    <g id="line2d_35">
     <path d="M 428.627344 22.596094 
L 458.627344 22.596094 
" style="fill:none;stroke:#7f7f7f;stroke-linecap:square;stroke-width:1.5;"/>
    </g>
    <g id="line2d_36"/>
    <g id="text_21">
     <!-- Stra 8 -->
     <g transform="translate(470.627344 27.846094)scale(0.15 -0.15)">
      <use xlink:href="#DejaVuSans-83"/>
      <use x="63.476562" xlink:href="#DejaVuSans-116"/>
      <use x="102.685547" xlink:href="#DejaVuSans-114"/>
      <use x="143.798828" xlink:href="#DejaVuSans-97"/>
      <use x="205.078125" xlink:href="#DejaVuSans-32"/>
      <use x="236.865234" xlink:href="#DejaVuSans-56"/>
     </g>
    </g>
    <g id="line2d_37">
     <path d="M 428.627344 44.613281 
L 458.627344 44.613281 
" style="fill:none;stroke:#bcbd22;stroke-linecap:square;stroke-width:1.5;"/>
    </g>
    <g id="line2d_38"/>
    <g id="text_22">
     <!-- Stra 9 -->
     <defs>
      <path d="M 10.984375 1.515625 
L 10.984375 10.5 
Q 14.703125 8.734375 18.5 7.8125 
Q 22.3125 6.890625 25.984375 6.890625 
Q 35.75 6.890625 40.890625 13.453125 
Q 46.046875 20.015625 46.78125 33.40625 
Q 43.953125 29.203125 39.59375 26.953125 
Q 35.25 24.703125 29.984375 24.703125 
Q 19.046875 24.703125 12.671875 31.3125 
Q 6.296875 37.9375 6.296875 49.421875 
Q 6.296875 60.640625 12.9375 67.421875 
Q 19.578125 74.21875 30.609375 74.21875 
Q 43.265625 74.21875 49.921875 64.515625 
Q 56.59375 54.828125 56.59375 36.375 
Q 56.59375 19.140625 48.40625 8.859375 
Q 40.234375 -1.421875 26.421875 -1.421875 
Q 22.703125 -1.421875 18.890625 -0.6875 
Q 15.09375 0.046875 10.984375 1.515625 
z
M 30.609375 32.421875 
Q 37.25 32.421875 41.125 36.953125 
Q 45.015625 41.5 45.015625 49.421875 
Q 45.015625 57.28125 41.125 61.84375 
Q 37.25 66.40625 30.609375 66.40625 
Q 23.96875 66.40625 20.09375 61.84375 
Q 16.21875 57.28125 16.21875 49.421875 
Q 16.21875 41.5 20.09375 36.953125 
Q 23.96875 32.421875 30.609375 32.421875 
z
" id="DejaVuSans-57"/>
     </defs>
     <g transform="translate(470.627344 49.863281)scale(0.15 -0.15)">
      <use xlink:href="#DejaVuSans-83"/>
      <use x="63.476562" xlink:href="#DejaVuSans-116"/>
      <use x="102.685547" xlink:href="#DejaVuSans-114"/>
      <use x="143.798828" xlink:href="#DejaVuSans-97"/>
      <use x="205.078125" xlink:href="#DejaVuSans-32"/>
      <use x="236.865234" xlink:href="#DejaVuSans-57"/>
     </g>
    </g>
   </g>
  </g>
 </g>
 <defs>
  <clipPath id="p87960d64bf">
   <rect height="277.06" width="440.08" x="89.12" y="88.5"/>
  </clipPath>
 </defs>
</svg>
