<?xml version="1.0" encoding="utf-8" standalone="no"?>
<!DOCTYPE svg PUBLIC "-//W3C//DTD SVG 1.1//EN"
  "http://www.w3.org/Graphics/SVG/1.1/DTD/svg11.dtd">
<!-- Created with matplotlib (https://matplotlib.org/) -->
<svg height="432pt" version="1.1" viewBox="0 0 540 432" width="540pt" xmlns="http://www.w3.org/2000/svg" xmlns:xlink="http://www.w3.org/1999/xlink">
 <defs>
  <style type="text/css">
*{stroke-linecap:butt;stroke-linejoin:round;}
  </style>
 </defs>
 <g id="figure_1">
  <g id="patch_1">
   <path d="M 0 432 
L 540 432 
L 540 0 
L 0 0 
z
" style="fill:#ffffff;"/>
  </g>
  <g id="axes_1">
   <g id="patch_2">
    <path d="M 89.12 365.56 
L 529.2 365.56 
L 529.2 66.6 
L 89.12 66.6 
z
" style="fill:#ffffff;"/>
   </g>
   <g id="matplotlib.axis_1">
    <g id="xtick_1">
     <g id="line2d_1">
      <defs>
       <path d="M 0 0 
L 0 3.5 
" id="m9830ac415e" style="stroke:#000000;stroke-width:0.8;"/>
      </defs>
      <g>
       <use style="stroke:#000000;stroke-width:0.8;" x="109.123636" xlink:href="#m9830ac415e" y="365.56"/>
      </g>
     </g>
     <g id="text_1">
      <!-- 0 -->
      <defs>
       <path d="M 31.78125 66.40625 
Q 24.171875 66.40625 20.328125 58.90625 
Q 16.5 51.421875 16.5 36.375 
Q 16.5 21.390625 20.328125 13.890625 
Q 24.171875 6.390625 31.78125 6.390625 
Q 39.453125 6.390625 43.28125 13.890625 
Q 47.125 21.390625 47.125 36.375 
Q 47.125 51.421875 43.28125 58.90625 
Q 39.453125 66.40625 31.78125 66.40625 
z
M 31.78125 74.21875 
Q 44.046875 74.21875 50.515625 64.515625 
Q 56.984375 54.828125 56.984375 36.375 
Q 56.984375 17.96875 50.515625 8.265625 
Q 44.046875 -1.421875 31.78125 -1.421875 
Q 19.53125 -1.421875 13.0625 8.265625 
Q 6.59375 17.96875 6.59375 36.375 
Q 6.59375 54.828125 13.0625 64.515625 
Q 19.53125 74.21875 31.78125 74.21875 
z
" id="DejaVuSans-48"/>
      </defs>
      <g transform="translate(102.761136 387.756875)scale(0.2 -0.2)">
       <use xlink:href="#DejaVuSans-48"/>
      </g>
     </g>
    </g>
    <g id="xtick_2">
     <g id="line2d_2">
      <g>
       <use style="stroke:#000000;stroke-width:0.8;" x="201.094378" xlink:href="#m9830ac415e" y="365.56"/>
      </g>
     </g>
     <g id="text_2">
      <!-- 20 -->
      <defs>
       <path d="M 19.1875 8.296875 
L 53.609375 8.296875 
L 53.609375 0 
L 7.328125 0 
L 7.328125 8.296875 
Q 12.9375 14.109375 22.625 23.890625 
Q 32.328125 33.6875 34.8125 36.53125 
Q 39.546875 41.84375 41.421875 45.53125 
Q 43.3125 49.21875 43.3125 52.78125 
Q 43.3125 58.59375 39.234375 62.25 
Q 35.15625 65.921875 28.609375 65.921875 
Q 23.96875 65.921875 18.8125 64.3125 
Q 13.671875 62.703125 7.8125 59.421875 
L 7.8125 69.390625 
Q 13.765625 71.78125 18.9375 73 
Q 24.125 74.21875 28.421875 74.21875 
Q 39.75 74.21875 46.484375 68.546875 
Q 53.21875 62.890625 53.21875 53.421875 
Q 53.21875 48.921875 51.53125 44.890625 
Q 49.859375 40.875 45.40625 35.40625 
Q 44.1875 33.984375 37.640625 27.21875 
Q 31.109375 20.453125 19.1875 8.296875 
z
" id="DejaVuSans-50"/>
      </defs>
      <g transform="translate(188.369378 387.756875)scale(0.2 -0.2)">
       <use xlink:href="#DejaVuSans-50"/>
       <use x="63.623047" xlink:href="#DejaVuSans-48"/>
      </g>
     </g>
    </g>
    <g id="xtick_3">
     <g id="line2d_3">
      <g>
       <use style="stroke:#000000;stroke-width:0.8;" x="293.06512" xlink:href="#m9830ac415e" y="365.56"/>
      </g>
     </g>
     <g id="text_3">
      <!-- 40 -->
      <defs>
       <path d="M 37.796875 64.3125 
L 12.890625 25.390625 
L 37.796875 25.390625 
z
M 35.203125 72.90625 
L 47.609375 72.90625 
L 47.609375 25.390625 
L 58.015625 25.390625 
L 58.015625 17.1875 
L 47.609375 17.1875 
L 47.609375 0 
L 37.796875 0 
L 37.796875 17.1875 
L 4.890625 17.1875 
L 4.890625 26.703125 
z
" id="DejaVuSans-52"/>
      </defs>
      <g transform="translate(280.34012 387.756875)scale(0.2 -0.2)">
       <use xlink:href="#DejaVuSans-52"/>
       <use x="63.623047" xlink:href="#DejaVuSans-48"/>
      </g>
     </g>
    </g>
    <g id="xtick_4">
     <g id="line2d_4">
      <g>
       <use style="stroke:#000000;stroke-width:0.8;" x="385.035862" xlink:href="#m9830ac415e" y="365.56"/>
      </g>
     </g>
     <g id="text_4">
      <!-- 60 -->
      <defs>
       <path d="M 33.015625 40.375 
Q 26.375 40.375 22.484375 35.828125 
Q 18.609375 31.296875 18.609375 23.390625 
Q 18.609375 15.53125 22.484375 10.953125 
Q 26.375 6.390625 33.015625 6.390625 
Q 39.65625 6.390625 43.53125 10.953125 
Q 47.40625 15.53125 47.40625 23.390625 
Q 47.40625 31.296875 43.53125 35.828125 
Q 39.65625 40.375 33.015625 40.375 
z
M 52.59375 71.296875 
L 52.59375 62.3125 
Q 48.875 64.0625 45.09375 64.984375 
Q 41.3125 65.921875 37.59375 65.921875 
Q 27.828125 65.921875 22.671875 59.328125 
Q 17.53125 52.734375 16.796875 39.40625 
Q 19.671875 43.65625 24.015625 45.921875 
Q 28.375 48.1875 33.59375 48.1875 
Q 44.578125 48.1875 50.953125 41.515625 
Q 57.328125 34.859375 57.328125 23.390625 
Q 57.328125 12.15625 50.6875 5.359375 
Q 44.046875 -1.421875 33.015625 -1.421875 
Q 20.359375 -1.421875 13.671875 8.265625 
Q 6.984375 17.96875 6.984375 36.375 
Q 6.984375 53.65625 15.1875 63.9375 
Q 23.390625 74.21875 37.203125 74.21875 
Q 40.921875 74.21875 44.703125 73.484375 
Q 48.484375 72.75 52.59375 71.296875 
z
" id="DejaVuSans-54"/>
      </defs>
      <g transform="translate(372.310862 387.756875)scale(0.2 -0.2)">
       <use xlink:href="#DejaVuSans-54"/>
       <use x="63.623047" xlink:href="#DejaVuSans-48"/>
      </g>
     </g>
    </g>
    <g id="xtick_5">
     <g id="line2d_5">
      <g>
       <use style="stroke:#000000;stroke-width:0.8;" x="477.006604" xlink:href="#m9830ac415e" y="365.56"/>
      </g>
     </g>
     <g id="text_5">
      <!-- 80 -->
      <defs>
       <path d="M 31.78125 34.625 
Q 24.75 34.625 20.71875 30.859375 
Q 16.703125 27.09375 16.703125 20.515625 
Q 16.703125 13.921875 20.71875 10.15625 
Q 24.75 6.390625 31.78125 6.390625 
Q 38.8125 6.390625 42.859375 10.171875 
Q 46.921875 13.96875 46.921875 20.515625 
Q 46.921875 27.09375 42.890625 30.859375 
Q 38.875 34.625 31.78125 34.625 
z
M 21.921875 38.8125 
Q 15.578125 40.375 12.03125 44.71875 
Q 8.5 49.078125 8.5 55.328125 
Q 8.5 64.0625 14.71875 69.140625 
Q 20.953125 74.21875 31.78125 74.21875 
Q 42.671875 74.21875 48.875 69.140625 
Q 55.078125 64.0625 55.078125 55.328125 
Q 55.078125 49.078125 51.53125 44.71875 
Q 48 40.375 41.703125 38.8125 
Q 48.828125 37.15625 52.796875 32.3125 
Q 56.78125 27.484375 56.78125 20.515625 
Q 56.78125 9.90625 50.3125 4.234375 
Q 43.84375 -1.421875 31.78125 -1.421875 
Q 19.734375 -1.421875 13.25 4.234375 
Q 6.78125 9.90625 6.78125 20.515625 
Q 6.78125 27.484375 10.78125 32.3125 
Q 14.796875 37.15625 21.921875 38.8125 
z
M 18.3125 54.390625 
Q 18.3125 48.734375 21.84375 45.5625 
Q 25.390625 42.390625 31.78125 42.390625 
Q 38.140625 42.390625 41.71875 45.5625 
Q 45.3125 48.734375 45.3125 54.390625 
Q 45.3125 60.0625 41.71875 63.234375 
Q 38.140625 66.40625 31.78125 66.40625 
Q 25.390625 66.40625 21.84375 63.234375 
Q 18.3125 60.0625 18.3125 54.390625 
z
" id="DejaVuSans-56"/>
      </defs>
      <g transform="translate(464.281604 387.756875)scale(0.2 -0.2)">
       <use xlink:href="#DejaVuSans-56"/>
       <use x="63.623047" xlink:href="#DejaVuSans-48"/>
      </g>
     </g>
    </g>
    <g id="text_6">
     <!-- # of games -->
     <defs>
      <path d="M 51.125 44 
L 36.921875 44 
L 32.8125 27.6875 
L 47.125 27.6875 
z
M 43.796875 71.78125 
L 38.71875 51.515625 
L 52.984375 51.515625 
L 58.109375 71.78125 
L 65.921875 71.78125 
L 60.890625 51.515625 
L 76.125 51.515625 
L 76.125 44 
L 58.984375 44 
L 54.984375 27.6875 
L 70.515625 27.6875 
L 70.515625 20.21875 
L 53.078125 20.21875 
L 48 0 
L 40.1875 0 
L 45.21875 20.21875 
L 30.90625 20.21875 
L 25.875 0 
L 18.015625 0 
L 23.09375 20.21875 
L 7.71875 20.21875 
L 7.71875 27.6875 
L 24.90625 27.6875 
L 29 44 
L 13.28125 44 
L 13.28125 51.515625 
L 30.90625 51.515625 
L 35.890625 71.78125 
z
" id="DejaVuSans-35"/>
      <path id="DejaVuSans-32"/>
      <path d="M 30.609375 48.390625 
Q 23.390625 48.390625 19.1875 42.75 
Q 14.984375 37.109375 14.984375 27.296875 
Q 14.984375 17.484375 19.15625 11.84375 
Q 23.34375 6.203125 30.609375 6.203125 
Q 37.796875 6.203125 41.984375 11.859375 
Q 46.1875 17.53125 46.1875 27.296875 
Q 46.1875 37.015625 41.984375 42.703125 
Q 37.796875 48.390625 30.609375 48.390625 
z
M 30.609375 56 
Q 42.328125 56 49.015625 48.375 
Q 55.71875 40.765625 55.71875 27.296875 
Q 55.71875 13.875 49.015625 6.21875 
Q 42.328125 -1.421875 30.609375 -1.421875 
Q 18.84375 -1.421875 12.171875 6.21875 
Q 5.515625 13.875 5.515625 27.296875 
Q 5.515625 40.765625 12.171875 48.375 
Q 18.84375 56 30.609375 56 
z
" id="DejaVuSans-111"/>
      <path d="M 37.109375 75.984375 
L 37.109375 68.5 
L 28.515625 68.5 
Q 23.6875 68.5 21.796875 66.546875 
Q 19.921875 64.59375 19.921875 59.515625 
L 19.921875 54.6875 
L 34.71875 54.6875 
L 34.71875 47.703125 
L 19.921875 47.703125 
L 19.921875 0 
L 10.890625 0 
L 10.890625 47.703125 
L 2.296875 47.703125 
L 2.296875 54.6875 
L 10.890625 54.6875 
L 10.890625 58.5 
Q 10.890625 67.625 15.140625 71.796875 
Q 19.390625 75.984375 28.609375 75.984375 
z
" id="DejaVuSans-102"/>
      <path d="M 45.40625 27.984375 
Q 45.40625 37.75 41.375 43.109375 
Q 37.359375 48.484375 30.078125 48.484375 
Q 22.859375 48.484375 18.828125 43.109375 
Q 14.796875 37.75 14.796875 27.984375 
Q 14.796875 18.265625 18.828125 12.890625 
Q 22.859375 7.515625 30.078125 7.515625 
Q 37.359375 7.515625 41.375 12.890625 
Q 45.40625 18.265625 45.40625 27.984375 
z
M 54.390625 6.78125 
Q 54.390625 -7.171875 48.1875 -13.984375 
Q 42 -20.796875 29.203125 -20.796875 
Q 24.46875 -20.796875 20.265625 -20.09375 
Q 16.0625 -19.390625 12.109375 -17.921875 
L 12.109375 -9.1875 
Q 16.0625 -11.328125 19.921875 -12.34375 
Q 23.78125 -13.375 27.78125 -13.375 
Q 36.625 -13.375 41.015625 -8.765625 
Q 45.40625 -4.15625 45.40625 5.171875 
L 45.40625 9.625 
Q 42.625 4.78125 38.28125 2.390625 
Q 33.9375 0 27.875 0 
Q 17.828125 0 11.671875 7.65625 
Q 5.515625 15.328125 5.515625 27.984375 
Q 5.515625 40.671875 11.671875 48.328125 
Q 17.828125 56 27.875 56 
Q 33.9375 56 38.28125 53.609375 
Q 42.625 51.21875 45.40625 46.390625 
L 45.40625 54.6875 
L 54.390625 54.6875 
z
" id="DejaVuSans-103"/>
      <path d="M 34.28125 27.484375 
Q 23.390625 27.484375 19.1875 25 
Q 14.984375 22.515625 14.984375 16.5 
Q 14.984375 11.71875 18.140625 8.90625 
Q 21.296875 6.109375 26.703125 6.109375 
Q 34.1875 6.109375 38.703125 11.40625 
Q 43.21875 16.703125 43.21875 25.484375 
L 43.21875 27.484375 
z
M 52.203125 31.203125 
L 52.203125 0 
L 43.21875 0 
L 43.21875 8.296875 
Q 40.140625 3.328125 35.546875 0.953125 
Q 30.953125 -1.421875 24.3125 -1.421875 
Q 15.921875 -1.421875 10.953125 3.296875 
Q 6 8.015625 6 15.921875 
Q 6 25.140625 12.171875 29.828125 
Q 18.359375 34.515625 30.609375 34.515625 
L 43.21875 34.515625 
L 43.21875 35.40625 
Q 43.21875 41.609375 39.140625 45 
Q 35.0625 48.390625 27.6875 48.390625 
Q 23 48.390625 18.546875 47.265625 
Q 14.109375 46.140625 10.015625 43.890625 
L 10.015625 52.203125 
Q 14.9375 54.109375 19.578125 55.046875 
Q 24.21875 56 28.609375 56 
Q 40.484375 56 46.34375 49.84375 
Q 52.203125 43.703125 52.203125 31.203125 
z
" id="DejaVuSans-97"/>
      <path d="M 52 44.1875 
Q 55.375 50.25 60.0625 53.125 
Q 64.75 56 71.09375 56 
Q 79.640625 56 84.28125 50.015625 
Q 88.921875 44.046875 88.921875 33.015625 
L 88.921875 0 
L 79.890625 0 
L 79.890625 32.71875 
Q 79.890625 40.578125 77.09375 44.375 
Q 74.3125 48.1875 68.609375 48.1875 
Q 61.625 48.1875 57.5625 43.546875 
Q 53.515625 38.921875 53.515625 30.90625 
L 53.515625 0 
L 44.484375 0 
L 44.484375 32.71875 
Q 44.484375 40.625 41.703125 44.40625 
Q 38.921875 48.1875 33.109375 48.1875 
Q 26.21875 48.1875 22.15625 43.53125 
Q 18.109375 38.875 18.109375 30.90625 
L 18.109375 0 
L 9.078125 0 
L 9.078125 54.6875 
L 18.109375 54.6875 
L 18.109375 46.1875 
Q 21.1875 51.21875 25.484375 53.609375 
Q 29.78125 56 35.6875 56 
Q 41.65625 56 45.828125 52.96875 
Q 50 49.953125 52 44.1875 
z
" id="DejaVuSans-109"/>
      <path d="M 56.203125 29.59375 
L 56.203125 25.203125 
L 14.890625 25.203125 
Q 15.484375 15.921875 20.484375 11.0625 
Q 25.484375 6.203125 34.421875 6.203125 
Q 39.59375 6.203125 44.453125 7.46875 
Q 49.3125 8.734375 54.109375 11.28125 
L 54.109375 2.78125 
Q 49.265625 0.734375 44.1875 -0.34375 
Q 39.109375 -1.421875 33.890625 -1.421875 
Q 20.796875 -1.421875 13.15625 6.1875 
Q 5.515625 13.8125 5.515625 26.8125 
Q 5.515625 40.234375 12.765625 48.109375 
Q 20.015625 56 32.328125 56 
Q 43.359375 56 49.78125 48.890625 
Q 56.203125 41.796875 56.203125 29.59375 
z
M 47.21875 32.234375 
Q 47.125 39.59375 43.09375 43.984375 
Q 39.0625 48.390625 32.421875 48.390625 
Q 24.90625 48.390625 20.390625 44.140625 
Q 15.875 39.890625 15.1875 32.171875 
z
" id="DejaVuSans-101"/>
      <path d="M 44.28125 53.078125 
L 44.28125 44.578125 
Q 40.484375 46.53125 36.375 47.5 
Q 32.28125 48.484375 27.875 48.484375 
Q 21.1875 48.484375 17.84375 46.4375 
Q 14.5 44.390625 14.5 40.28125 
Q 14.5 37.15625 16.890625 35.375 
Q 19.28125 33.59375 26.515625 31.984375 
L 29.59375 31.296875 
Q 39.15625 29.25 43.1875 25.515625 
Q 47.21875 21.78125 47.21875 15.09375 
Q 47.21875 7.46875 41.1875 3.015625 
Q 35.15625 -1.421875 24.609375 -1.421875 
Q 20.21875 -1.421875 15.453125 -0.5625 
Q 10.6875 0.296875 5.421875 2 
L 5.421875 11.28125 
Q 10.40625 8.6875 15.234375 7.390625 
Q 20.0625 6.109375 24.8125 6.109375 
Q 31.15625 6.109375 34.5625 8.28125 
Q 37.984375 10.453125 37.984375 14.40625 
Q 37.984375 18.0625 35.515625 20.015625 
Q 33.0625 21.96875 24.703125 23.78125 
L 21.578125 24.515625 
Q 13.234375 26.265625 9.515625 29.90625 
Q 5.8125 33.546875 5.8125 39.890625 
Q 5.8125 47.609375 11.28125 51.796875 
Q 16.75 56 26.8125 56 
Q 31.78125 56 36.171875 55.265625 
Q 40.578125 54.546875 44.28125 53.078125 
z
" id="DejaVuSans-115"/>
     </defs>
     <g transform="translate(236.716641 414.912344)scale(0.25 -0.25)">
      <use xlink:href="#DejaVuSans-35"/>
      <use x="83.789062" xlink:href="#DejaVuSans-32"/>
      <use x="115.576172" xlink:href="#DejaVuSans-111"/>
      <use x="176.757812" xlink:href="#DejaVuSans-102"/>
      <use x="211.962891" xlink:href="#DejaVuSans-32"/>
      <use x="243.75" xlink:href="#DejaVuSans-103"/>
      <use x="307.226562" xlink:href="#DejaVuSans-97"/>
      <use x="368.505859" xlink:href="#DejaVuSans-109"/>
      <use x="465.917969" xlink:href="#DejaVuSans-101"/>
      <use x="527.441406" xlink:href="#DejaVuSans-115"/>
     </g>
    </g>
   </g>
   <g id="matplotlib.axis_2">
    <g id="ytick_1">
     <g id="line2d_6">
      <defs>
       <path d="M 0 0 
L -3.5 0 
" id="m1203c2f23e" style="stroke:#000000;stroke-width:0.8;"/>
      </defs>
      <g>
       <use style="stroke:#000000;stroke-width:0.8;" x="89.12" xlink:href="#m1203c2f23e" y="351.970909"/>
      </g>
     </g>
     <g id="text_7">
      <!-- 0 -->
      <g transform="translate(69.395 359.569347)scale(0.2 -0.2)">
       <use xlink:href="#DejaVuSans-48"/>
      </g>
     </g>
    </g>
    <g id="ytick_2">
     <g id="line2d_7">
      <g>
       <use style="stroke:#000000;stroke-width:0.8;" x="89.12" xlink:href="#m1203c2f23e" y="290.258416"/>
      </g>
     </g>
     <g id="text_8">
      <!-- 500 -->
      <defs>
       <path d="M 10.796875 72.90625 
L 49.515625 72.90625 
L 49.515625 64.59375 
L 19.828125 64.59375 
L 19.828125 46.734375 
Q 21.96875 47.46875 24.109375 47.828125 
Q 26.265625 48.1875 28.421875 48.1875 
Q 40.625 48.1875 47.75 41.5 
Q 54.890625 34.8125 54.890625 23.390625 
Q 54.890625 11.625 47.5625 5.09375 
Q 40.234375 -1.421875 26.90625 -1.421875 
Q 22.3125 -1.421875 17.546875 -0.640625 
Q 12.796875 0.140625 7.71875 1.703125 
L 7.71875 11.625 
Q 12.109375 9.234375 16.796875 8.0625 
Q 21.484375 6.890625 26.703125 6.890625 
Q 35.15625 6.890625 40.078125 11.328125 
Q 45.015625 15.765625 45.015625 23.390625 
Q 45.015625 31 40.078125 35.4375 
Q 35.15625 39.890625 26.703125 39.890625 
Q 22.75 39.890625 18.8125 39.015625 
Q 14.890625 38.140625 10.796875 36.28125 
z
" id="DejaVuSans-53"/>
      </defs>
      <g transform="translate(43.945 297.856854)scale(0.2 -0.2)">
       <use xlink:href="#DejaVuSans-53"/>
       <use x="63.623047" xlink:href="#DejaVuSans-48"/>
       <use x="127.246094" xlink:href="#DejaVuSans-48"/>
      </g>
     </g>
    </g>
    <g id="ytick_3">
     <g id="line2d_8">
      <g>
       <use style="stroke:#000000;stroke-width:0.8;" x="89.12" xlink:href="#m1203c2f23e" y="228.545924"/>
      </g>
     </g>
     <g id="text_9">
      <!-- 1000 -->
      <defs>
       <path d="M 12.40625 8.296875 
L 28.515625 8.296875 
L 28.515625 63.921875 
L 10.984375 60.40625 
L 10.984375 69.390625 
L 28.421875 72.90625 
L 38.28125 72.90625 
L 38.28125 8.296875 
L 54.390625 8.296875 
L 54.390625 0 
L 12.40625 0 
z
" id="DejaVuSans-49"/>
      </defs>
      <g transform="translate(31.22 236.144361)scale(0.2 -0.2)">
       <use xlink:href="#DejaVuSans-49"/>
       <use x="63.623047" xlink:href="#DejaVuSans-48"/>
       <use x="127.246094" xlink:href="#DejaVuSans-48"/>
       <use x="190.869141" xlink:href="#DejaVuSans-48"/>
      </g>
     </g>
    </g>
    <g id="ytick_4">
     <g id="line2d_9">
      <g>
       <use style="stroke:#000000;stroke-width:0.8;" x="89.12" xlink:href="#m1203c2f23e" y="166.833431"/>
      </g>
     </g>
     <g id="text_10">
      <!-- 1500 -->
      <g transform="translate(31.22 174.431868)scale(0.2 -0.2)">
       <use xlink:href="#DejaVuSans-49"/>
       <use x="63.623047" xlink:href="#DejaVuSans-53"/>
       <use x="127.246094" xlink:href="#DejaVuSans-48"/>
       <use x="190.869141" xlink:href="#DejaVuSans-48"/>
      </g>
     </g>
    </g>
    <g id="ytick_5">
     <g id="line2d_10">
      <g>
       <use style="stroke:#000000;stroke-width:0.8;" x="89.12" xlink:href="#m1203c2f23e" y="105.120938"/>
      </g>
     </g>
     <g id="text_11">
      <!-- 2000 -->
      <g transform="translate(31.22 112.719375)scale(0.2 -0.2)">
       <use xlink:href="#DejaVuSans-50"/>
       <use x="63.623047" xlink:href="#DejaVuSans-48"/>
       <use x="127.246094" xlink:href="#DejaVuSans-48"/>
       <use x="190.869141" xlink:href="#DejaVuSans-48"/>
      </g>
     </g>
    </g>
    <g id="text_12">
     <!-- Number of Attackers in CKC -->
     <defs>
      <path d="M 9.8125 72.90625 
L 23.09375 72.90625 
L 55.421875 11.921875 
L 55.421875 72.90625 
L 64.984375 72.90625 
L 64.984375 0 
L 51.703125 0 
L 19.390625 60.984375 
L 19.390625 0 
L 9.8125 0 
z
" id="DejaVuSans-78"/>
      <path d="M 8.5 21.578125 
L 8.5 54.6875 
L 17.484375 54.6875 
L 17.484375 21.921875 
Q 17.484375 14.15625 20.5 10.265625 
Q 23.53125 6.390625 29.59375 6.390625 
Q 36.859375 6.390625 41.078125 11.03125 
Q 45.3125 15.671875 45.3125 23.6875 
L 45.3125 54.6875 
L 54.296875 54.6875 
L 54.296875 0 
L 45.3125 0 
L 45.3125 8.40625 
Q 42.046875 3.421875 37.71875 1 
Q 33.40625 -1.421875 27.6875 -1.421875 
Q 18.265625 -1.421875 13.375 4.4375 
Q 8.5 10.296875 8.5 21.578125 
z
M 31.109375 56 
z
" id="DejaVuSans-117"/>
      <path d="M 48.6875 27.296875 
Q 48.6875 37.203125 44.609375 42.84375 
Q 40.53125 48.484375 33.40625 48.484375 
Q 26.265625 48.484375 22.1875 42.84375 
Q 18.109375 37.203125 18.109375 27.296875 
Q 18.109375 17.390625 22.1875 11.75 
Q 26.265625 6.109375 33.40625 6.109375 
Q 40.53125 6.109375 44.609375 11.75 
Q 48.6875 17.390625 48.6875 27.296875 
z
M 18.109375 46.390625 
Q 20.953125 51.265625 25.265625 53.625 
Q 29.59375 56 35.59375 56 
Q 45.5625 56 51.78125 48.09375 
Q 58.015625 40.1875 58.015625 27.296875 
Q 58.015625 14.40625 51.78125 6.484375 
Q 45.5625 -1.421875 35.59375 -1.421875 
Q 29.59375 -1.421875 25.265625 0.953125 
Q 20.953125 3.328125 18.109375 8.203125 
L 18.109375 0 
L 9.078125 0 
L 9.078125 75.984375 
L 18.109375 75.984375 
z
" id="DejaVuSans-98"/>
      <path d="M 41.109375 46.296875 
Q 39.59375 47.171875 37.8125 47.578125 
Q 36.03125 48 33.890625 48 
Q 26.265625 48 22.1875 43.046875 
Q 18.109375 38.09375 18.109375 28.8125 
L 18.109375 0 
L 9.078125 0 
L 9.078125 54.6875 
L 18.109375 54.6875 
L 18.109375 46.1875 
Q 20.953125 51.171875 25.484375 53.578125 
Q 30.03125 56 36.53125 56 
Q 37.453125 56 38.578125 55.875 
Q 39.703125 55.765625 41.0625 55.515625 
z
" id="DejaVuSans-114"/>
      <path d="M 34.1875 63.1875 
L 20.796875 26.90625 
L 47.609375 26.90625 
z
M 28.609375 72.90625 
L 39.796875 72.90625 
L 67.578125 0 
L 57.328125 0 
L 50.6875 18.703125 
L 17.828125 18.703125 
L 11.1875 0 
L 0.78125 0 
z
" id="DejaVuSans-65"/>
      <path d="M 18.3125 70.21875 
L 18.3125 54.6875 
L 36.8125 54.6875 
L 36.8125 47.703125 
L 18.3125 47.703125 
L 18.3125 18.015625 
Q 18.3125 11.328125 20.140625 9.421875 
Q 21.96875 7.515625 27.59375 7.515625 
L 36.8125 7.515625 
L 36.8125 0 
L 27.59375 0 
Q 17.1875 0 13.234375 3.875 
Q 9.28125 7.765625 9.28125 18.015625 
L 9.28125 47.703125 
L 2.6875 47.703125 
L 2.6875 54.6875 
L 9.28125 54.6875 
L 9.28125 70.21875 
z
" id="DejaVuSans-116"/>
      <path d="M 48.78125 52.59375 
L 48.78125 44.1875 
Q 44.96875 46.296875 41.140625 47.34375 
Q 37.3125 48.390625 33.40625 48.390625 
Q 24.65625 48.390625 19.8125 42.84375 
Q 14.984375 37.3125 14.984375 27.296875 
Q 14.984375 17.28125 19.8125 11.734375 
Q 24.65625 6.203125 33.40625 6.203125 
Q 37.3125 6.203125 41.140625 7.25 
Q 44.96875 8.296875 48.78125 10.40625 
L 48.78125 2.09375 
Q 45.015625 0.34375 40.984375 -0.53125 
Q 36.96875 -1.421875 32.421875 -1.421875 
Q 20.0625 -1.421875 12.78125 6.34375 
Q 5.515625 14.109375 5.515625 27.296875 
Q 5.515625 40.671875 12.859375 48.328125 
Q 20.21875 56 33.015625 56 
Q 37.15625 56 41.109375 55.140625 
Q 45.0625 54.296875 48.78125 52.59375 
z
" id="DejaVuSans-99"/>
      <path d="M 9.078125 75.984375 
L 18.109375 75.984375 
L 18.109375 31.109375 
L 44.921875 54.6875 
L 56.390625 54.6875 
L 27.390625 29.109375 
L 57.625 0 
L 45.90625 0 
L 18.109375 26.703125 
L 18.109375 0 
L 9.078125 0 
z
" id="DejaVuSans-107"/>
      <path d="M 9.421875 54.6875 
L 18.40625 54.6875 
L 18.40625 0 
L 9.421875 0 
z
M 9.421875 75.984375 
L 18.40625 75.984375 
L 18.40625 64.59375 
L 9.421875 64.59375 
z
" id="DejaVuSans-105"/>
      <path d="M 54.890625 33.015625 
L 54.890625 0 
L 45.90625 0 
L 45.90625 32.71875 
Q 45.90625 40.484375 42.875 44.328125 
Q 39.84375 48.1875 33.796875 48.1875 
Q 26.515625 48.1875 22.3125 43.546875 
Q 18.109375 38.921875 18.109375 30.90625 
L 18.109375 0 
L 9.078125 0 
L 9.078125 54.6875 
L 18.109375 54.6875 
L 18.109375 46.1875 
Q 21.34375 51.125 25.703125 53.5625 
Q 30.078125 56 35.796875 56 
Q 45.21875 56 50.046875 50.171875 
Q 54.890625 44.34375 54.890625 33.015625 
z
" id="DejaVuSans-110"/>
      <path d="M 64.40625 67.28125 
L 64.40625 56.890625 
Q 59.421875 61.53125 53.78125 63.8125 
Q 48.140625 66.109375 41.796875 66.109375 
Q 29.296875 66.109375 22.65625 58.46875 
Q 16.015625 50.828125 16.015625 36.375 
Q 16.015625 21.96875 22.65625 14.328125 
Q 29.296875 6.6875 41.796875 6.6875 
Q 48.140625 6.6875 53.78125 8.984375 
Q 59.421875 11.28125 64.40625 15.921875 
L 64.40625 5.609375 
Q 59.234375 2.09375 53.4375 0.328125 
Q 47.65625 -1.421875 41.21875 -1.421875 
Q 24.65625 -1.421875 15.125 8.703125 
Q 5.609375 18.84375 5.609375 36.375 
Q 5.609375 53.953125 15.125 64.078125 
Q 24.65625 74.21875 41.21875 74.21875 
Q 47.75 74.21875 53.53125 72.484375 
Q 59.328125 70.75 64.40625 67.28125 
z
" id="DejaVuSans-67"/>
      <path d="M 9.8125 72.90625 
L 19.671875 72.90625 
L 19.671875 42.09375 
L 52.390625 72.90625 
L 65.09375 72.90625 
L 28.90625 38.921875 
L 67.671875 0 
L 54.6875 0 
L 19.671875 35.109375 
L 19.671875 0 
L 9.8125 0 
z
" id="DejaVuSans-75"/>
     </defs>
     <g transform="translate(23.753854 332.513594)rotate(-90)scale(0.166667 -0.166667)">
      <use xlink:href="#DejaVuSans-78"/>
      <use x="74.804688" xlink:href="#DejaVuSans-117"/>
      <use x="138.183594" xlink:href="#DejaVuSans-109"/>
      <use x="235.595703" xlink:href="#DejaVuSans-98"/>
      <use x="299.072266" xlink:href="#DejaVuSans-101"/>
      <use x="360.595703" xlink:href="#DejaVuSans-114"/>
      <use x="401.708984" xlink:href="#DejaVuSans-32"/>
      <use x="433.496094" xlink:href="#DejaVuSans-111"/>
      <use x="494.677734" xlink:href="#DejaVuSans-102"/>
      <use x="529.882812" xlink:href="#DejaVuSans-32"/>
      <use x="561.669922" xlink:href="#DejaVuSans-65"/>
      <use x="630.0625" xlink:href="#DejaVuSans-116"/>
      <use x="669.271484" xlink:href="#DejaVuSans-116"/>
      <use x="708.480469" xlink:href="#DejaVuSans-97"/>
      <use x="769.759766" xlink:href="#DejaVuSans-99"/>
      <use x="824.740234" xlink:href="#DejaVuSans-107"/>
      <use x="882.603516" xlink:href="#DejaVuSans-101"/>
      <use x="944.126953" xlink:href="#DejaVuSans-114"/>
      <use x="985.240234" xlink:href="#DejaVuSans-115"/>
      <use x="1037.339844" xlink:href="#DejaVuSans-32"/>
      <use x="1069.126953" xlink:href="#DejaVuSans-105"/>
      <use x="1096.910156" xlink:href="#DejaVuSans-110"/>
      <use x="1160.289062" xlink:href="#DejaVuSans-32"/>
      <use x="1192.076172" xlink:href="#DejaVuSans-67"/>
      <use x="1261.900391" xlink:href="#DejaVuSans-75"/>
      <use x="1327.398438" xlink:href="#DejaVuSans-67"/>
     </g>
    </g>
   </g>
   <g id="line2d_11">
    <path clip-path="url(#pa146134ec3)" d="M 109.123636 299.26844 
L 113.722173 289.147591 
L 118.320711 280.631267 
L 122.919248 279.643868 
L 127.517785 276.805093 
L 132.116322 277.175368 
L 136.714859 277.298793 
L 141.313396 279.150168 
L 145.911933 281.371817 
L 150.51047 277.545643 
L 155.109007 273.102343 
L 159.707544 273.349193 
L 164.306082 271.868093 
L 168.904619 274.583443 
L 173.503156 275.200568 
L 178.101693 275.447418 
L 182.70023 276.928518 
L 187.298767 277.792493 
L 191.897304 275.817693 
L 196.495841 274.706868 
L 201.094378 275.200568 
L 205.692915 276.805093 
L 210.291452 277.175368 
L 214.88999 278.779893 
L 219.488527 279.643868 
L 224.087064 281.865517 
L 228.685601 283.346617 
L 233.284138 286.308817 
L 237.882675 285.938542 
L 242.481212 282.852917 
L 247.079749 282.729492 
L 251.678286 284.457442 
L 256.276823 284.580867 
L 260.875361 287.049367 
L 265.473898 283.963742 
L 270.072435 288.900741 
L 274.670972 290.752116 
L 279.269509 290.628691 
L 283.868046 290.998966 
L 288.466583 292.973766 
L 293.06512 294.208016 
L 297.663657 295.442266 
L 302.262194 298.404465 
L 306.860731 299.26844 
L 311.459269 301.24324 
L 316.057806 301.98379 
L 320.656343 305.43969 
L 325.25488 307.784764 
L 329.853417 305.68654 
L 334.451954 304.45229 
L 339.050491 306.427089 
L 343.649028 307.908189 
L 348.247565 311.240664 
L 352.846102 311.857789 
L 357.444639 312.228064 
L 362.043177 313.462314 
L 366.641714 316.177663 
L 371.240251 318.893013 
L 375.838788 320.003838 
L 380.437325 321.978638 
L 385.035862 323.583162 
L 389.634399 326.545362 
L 394.232936 327.409337 
L 398.831473 327.903037 
L 403.43001 327.656187 
L 408.028548 328.149887 
L 412.627085 330.618387 
L 417.225622 332.222911 
L 421.824159 334.321136 
L 426.422696 336.172511 
L 431.021233 337.900461 
L 435.61977 339.998685 
L 440.218307 342.960885 
L 444.816844 344.441985 
L 449.415381 345.182535 
L 454.013918 345.30596 
L 458.612456 345.79966 
L 463.210993 346.663635 
L 467.80953 347.28076 
L 472.408067 347.28076 
L 477.006604 347.77446 
L 481.605141 347.651035 
L 486.203678 348.638434 
L 490.802215 350.736659 
L 495.400752 350.860084 
L 499.999289 351.847484 
L 504.597827 351.847484 
L 509.196364 351.847484 
" style="fill:none;stroke:#1f77b4;stroke-linecap:square;stroke-width:1.5;"/>
   </g>
   <g id="line2d_12">
    <path clip-path="url(#pa146134ec3)" d="M 109.123636 342.960885 
L 113.722173 329.877837 
L 118.320711 316.671363 
L 122.919248 304.45229 
L 127.517785 291.739516 
L 132.116322 277.298793 
L 136.714859 266.437394 
L 141.313396 253.971471 
L 145.911933 243.233497 
L 150.51047 233.729773 
L 155.109007 225.336874 
L 159.707544 212.006975 
L 164.306082 200.405027 
L 168.904619 185.223754 
L 173.503156 174.48578 
L 178.101693 165.105481 
L 182.70023 155.354907 
L 187.298767 146.962008 
L 191.897304 137.951984 
L 196.495841 136.347459 
L 201.094378 130.42306 
L 205.692915 120.795911 
L 210.291452 110.181362 
L 214.88999 102.158738 
L 219.488527 98.949689 
L 224.087064 96.234339 
L 228.685601 91.420765 
L 233.284138 85.743215 
L 237.882675 82.287316 
L 242.481212 81.423341 
L 247.079749 83.521566 
L 251.678286 86.60719 
L 256.276823 81.793616 
L 260.875361 82.657591 
L 265.473898 84.015265 
L 270.072435 84.262115 
L 274.670972 83.521566 
L 279.269509 81.176491 
L 283.868046 80.189091 
L 288.466583 83.027866 
L 293.06512 82.534166 
L 297.663657 83.151291 
L 302.262194 91.54419 
L 306.860731 95.864064 
L 311.459269 97.468589 
L 316.057806 97.715439 
L 320.656343 108.083138 
L 325.25488 114.501237 
L 329.853417 117.586862 
L 334.451954 120.549061 
L 339.050491 123.511261 
L 343.649028 128.69511 
L 348.247565 137.458284 
L 352.846102 143.752958 
L 357.444639 154.367507 
L 362.043177 160.415332 
L 366.641714 166.956856 
L 371.240251 174.362355 
L 375.838788 179.546204 
L 380.437325 186.704853 
L 385.035862 195.468027 
L 389.634399 201.639277 
L 394.232936 208.304226 
L 398.831473 215.0926 
L 403.43001 226.447699 
L 408.028548 238.049647 
L 412.627085 248.540771 
L 417.225622 255.082295 
L 421.824159 262.61122 
L 426.422696 275.077143 
L 431.021233 280.631267 
L 435.61977 286.679092 
L 440.218307 295.812541 
L 444.816844 310.746964 
L 449.415381 315.313688 
L 454.013918 317.411913 
L 458.612456 318.893013 
L 463.210993 324.323712 
L 467.80953 328.643587 
L 472.408067 332.593186 
L 477.006604 337.653611 
L 481.605141 339.504986 
L 486.203678 342.09691 
L 490.802215 346.416785 
L 495.400752 346.29336 
L 499.999289 350.613234 
L 504.597827 350.736659 
L 509.196364 350.860084 
" style="fill:none;stroke:#ff7f0e;stroke-linecap:square;stroke-width:1.5;"/>
   </g>
   <g id="line2d_13">
    <path clip-path="url(#pa146134ec3)" d="M 109.123636 351.970909 
L 113.722173 349.008709 
L 118.320711 344.195135 
L 122.919248 337.653611 
L 127.517785 332.099486 
L 132.116322 326.792212 
L 136.714859 318.152463 
L 141.313396 313.215464 
L 145.911933 308.772164 
L 150.51047 303.835165 
L 155.109007 300.379265 
L 159.707544 300.872965 
L 164.306082 299.391865 
L 168.904619 295.318841 
L 173.503156 290.998966 
L 178.101693 290.011566 
L 182.70023 286.925942 
L 187.298767 284.334017 
L 191.897304 282.729492 
L 196.495841 276.187968 
L 201.094378 276.805093 
L 205.692915 279.643868 
L 210.291452 277.792493 
L 214.88999 277.669068 
L 219.488527 273.966318 
L 224.087064 270.757269 
L 228.685601 271.004119 
L 233.284138 270.880694 
L 237.882675 271.250969 
L 242.481212 268.288769 
L 247.079749 268.165344 
L 251.678286 269.152744 
L 256.276823 267.795069 
L 260.875361 267.301369 
L 265.473898 266.807669 
L 270.072435 269.029319 
L 274.670972 271.250969 
L 279.269509 270.510419 
L 283.868046 269.276169 
L 288.466583 269.769869 
L 293.06512 271.127544 
L 297.663657 276.928518 
L 302.262194 276.187968 
L 306.860731 275.694268 
L 311.459269 277.051943 
L 316.057806 276.928518 
L 320.656343 279.643868 
L 325.25488 281.742092 
L 329.853417 280.878117 
L 334.451954 282.359217 
L 339.050491 286.308817 
L 343.649028 284.827717 
L 348.247565 290.381841 
L 352.846102 291.492666 
L 357.444639 294.331441 
L 362.043177 297.78734 
L 366.641714 302.107215 
L 371.240251 304.822565 
L 375.838788 307.784764 
L 380.437325 308.031614 
L 385.035862 311.981214 
L 389.634399 313.832589 
L 394.232936 316.547938 
L 398.831473 317.782188 
L 403.43001 321.855213 
L 408.028548 325.187687 
L 412.627085 326.668787 
L 417.225622 329.384137 
L 421.824159 330.865237 
L 426.422696 335.555386 
L 431.021233 337.653611 
L 435.61977 338.270736 
L 440.218307 341.726635 
L 444.816844 344.195135 
L 449.415381 345.429385 
L 454.013918 345.05911 
L 458.612456 345.429385 
L 463.210993 346.04651 
L 467.80953 347.03391 
L 472.408067 348.761859 
L 477.006604 348.885284 
L 481.605141 349.132134 
L 486.203678 349.255559 
L 490.802215 350.736659 
L 495.400752 350.860084 
L 499.999289 351.847484 
L 504.597827 351.724059 
L 509.196364 351.600634 
" style="fill:none;stroke:#2ca02c;stroke-linecap:square;stroke-width:1.5;"/>
   </g>
   <g id="line2d_14">
    <path clip-path="url(#pa146134ec3)" d="M 109.123636 351.970909 
L 113.722173 351.970909 
L 118.320711 351.230359 
L 122.919248 350.119534 
L 127.517785 348.26816 
L 132.116322 346.29336 
L 136.714859 344.935685 
L 141.313396 342.34376 
L 145.911933 339.258136 
L 150.51047 338.394161 
L 155.109007 336.295936 
L 159.707544 332.840036 
L 164.306082 331.852636 
L 168.904619 333.210311 
L 173.503156 331.976061 
L 178.101693 329.137287 
L 182.70023 328.767012 
L 187.298767 330.001262 
L 191.897304 327.779612 
L 196.495841 326.545362 
L 201.094378 324.940837 
L 205.692915 323.459737 
L 210.291452 322.472338 
L 214.88999 321.855213 
L 219.488527 321.978638 
L 224.087064 322.595763 
L 228.685601 321.238088 
L 233.284138 321.855213 
L 237.882675 319.386713 
L 242.481212 320.867813 
L 247.079749 320.250688 
L 251.678286 319.016438 
L 256.276823 321.608363 
L 260.875361 321.361513 
L 265.473898 319.263288 
L 270.072435 318.646163 
L 274.670972 317.782188 
L 279.269509 319.263288 
L 283.868046 319.016438 
L 288.466583 319.386713 
L 293.06512 318.646163 
L 297.663657 316.794788 
L 302.262194 317.165063 
L 306.860731 316.301088 
L 311.459269 320.250688 
L 316.057806 320.003838 
L 320.656343 320.374113 
L 325.25488 320.374113 
L 329.853417 319.756988 
L 334.451954 319.016438 
L 339.050491 318.152463 
L 343.649028 320.374113 
L 348.247565 320.991238 
L 352.846102 321.855213 
L 357.444639 323.336312 
L 362.043177 324.693987 
L 366.641714 325.681387 
L 371.240251 328.396737 
L 375.838788 328.890437 
L 380.437325 330.865237 
L 385.035862 332.840036 
L 389.634399 334.691411 
L 394.232936 335.431961 
L 398.831473 337.036486 
L 403.43001 336.295936 
L 408.028548 337.283336 
L 412.627085 339.504986 
L 417.225622 339.381561 
L 421.824159 341.10951 
L 426.422696 342.09691 
L 431.021233 342.714035 
L 435.61977 343.57801 
L 440.218307 344.935685 
L 444.816844 346.78706 
L 449.415381 347.157335 
L 454.013918 347.52761 
L 458.612456 347.77446 
L 463.210993 347.77446 
L 467.80953 348.885284 
L 472.408067 348.515009 
L 477.006604 349.872684 
L 481.605141 350.242959 
L 486.203678 350.242959 
L 490.802215 351.230359 
L 495.400752 351.106934 
L 499.999289 351.724059 
L 504.597827 351.724059 
L 509.196364 351.724059 
" style="fill:none;stroke:#d62728;stroke-linecap:square;stroke-width:1.5;"/>
   </g>
   <g id="line2d_15">
    <path clip-path="url(#pa146134ec3)" d="M 109.123636 351.970909 
L 113.722173 351.970909 
L 118.320711 351.970909 
L 122.919248 351.724059 
L 127.517785 351.353784 
L 132.116322 350.366384 
L 136.714859 349.008709 
L 141.313396 348.761859 
L 145.911933 346.910485 
L 150.51047 344.81226 
L 155.109007 343.57801 
L 159.707544 340.36896 
L 164.306082 337.777036 
L 168.904619 335.925661 
L 173.503156 335.925661 
L 178.101693 336.419361 
L 182.70023 335.678811 
L 187.298767 333.580586 
L 191.897304 334.074286 
L 196.495841 334.321136 
L 201.094378 332.716611 
L 205.692915 330.618387 
L 210.291452 330.618387 
L 214.88999 328.520162 
L 219.488527 329.384137 
L 224.087064 328.149887 
L 228.685601 328.520162 
L 233.284138 327.162487 
L 237.882675 327.779612 
L 242.481212 327.409337 
L 247.079749 328.643587 
L 251.678286 327.779612 
L 256.276823 327.532762 
L 260.875361 327.779612 
L 265.473898 327.903037 
L 270.072435 326.298512 
L 274.670972 324.447137 
L 279.269509 323.089462 
L 283.868046 324.693987 
L 288.466583 323.336312 
L 293.06512 322.719188 
L 297.663657 323.953437 
L 302.262194 323.830012 
L 306.860731 325.681387 
L 311.459269 324.693987 
L 316.057806 325.681387 
L 320.656343 326.668787 
L 325.25488 328.396737 
L 329.853417 327.285912 
L 334.451954 327.903037 
L 339.050491 326.545362 
L 343.649028 325.311112 
L 348.247565 326.421937 
L 352.846102 325.064262 
L 357.444639 325.681387 
L 362.043177 328.026462 
L 366.641714 331.112087 
L 371.240251 332.222911 
L 375.838788 332.840036 
L 380.437325 331.976061 
L 385.035862 331.852636 
L 389.634399 334.444561 
L 394.232936 336.049086 
L 398.831473 336.295936 
L 403.43001 339.875261 
L 408.028548 339.998685 
L 412.627085 340.12211 
L 417.225622 340.492385 
L 421.824159 341.232935 
L 426.422696 341.85006 
L 431.021233 342.59061 
L 435.61977 344.195135 
L 440.218307 345.429385 
L 444.816844 347.52761 
L 449.415381 348.26816 
L 454.013918 348.638434 
L 458.612456 348.26816 
L 463.210993 349.255559 
L 467.80953 349.378984 
L 472.408067 349.502409 
L 477.006604 350.366384 
L 481.605141 350.736659 
L 486.203678 351.230359 
L 490.802215 351.600634 
L 495.400752 351.477209 
L 499.999289 351.724059 
L 504.597827 351.847484 
L 509.196364 351.847484 
" style="fill:none;stroke:#9467bd;stroke-linecap:square;stroke-width:1.5;"/>
   </g>
   <g id="line2d_16">
    <path clip-path="url(#pa146134ec3)" d="M 109.123636 351.970909 
L 113.722173 351.970909 
L 118.320711 351.970909 
L 122.919248 351.970909 
L 127.517785 351.724059 
L 132.116322 351.353784 
L 136.714859 350.736659 
L 141.313396 349.625834 
L 145.911933 348.885284 
L 150.51047 347.28076 
L 155.109007 344.688835 
L 159.707544 342.59061 
L 164.306082 339.134711 
L 168.904619 335.802236 
L 173.503156 331.358937 
L 178.101693 328.396737 
L 182.70023 325.434537 
L 187.298767 322.348913 
L 191.897304 318.646163 
L 196.495841 314.943413 
L 201.094378 312.721764 
L 205.692915 310.993814 
L 210.291452 307.784764 
L 214.88999 305.43969 
L 219.488527 301.73694 
L 224.087064 299.638715 
L 228.685601 297.663915 
L 233.284138 294.948566 
L 237.882675 291.245816 
L 242.481212 287.789917 
L 247.079749 284.704292 
L 251.678286 282.852917 
L 256.276823 280.384417 
L 260.875361 280.014143 
L 265.473898 277.545643 
L 270.072435 275.941118 
L 274.670972 275.447418 
L 279.269509 273.596043 
L 283.868046 269.276169 
L 288.466583 269.769869 
L 293.06512 268.288769 
L 297.663657 265.573419 
L 302.262194 266.560819 
L 306.860731 264.832869 
L 311.459269 264.586019 
L 316.057806 263.722044 
L 320.656343 265.203144 
L 325.25488 264.956294 
L 329.853417 263.475194 
L 334.451954 261.500395 
L 339.050491 262.981495 
L 343.649028 264.092319 
L 348.247565 268.165344 
L 352.846102 268.905894 
L 357.444639 269.893294 
L 362.043177 271.868093 
L 366.641714 272.238368 
L 371.240251 273.596043 
L 375.838788 277.422218 
L 380.437325 280.631267 
L 385.035862 283.840317 
L 389.634399 286.061967 
L 394.232936 287.296217 
L 398.831473 288.777316 
L 403.43001 292.973766 
L 408.028548 299.51529 
L 412.627085 303.588315 
L 417.225622 306.920789 
L 421.824159 310.993814 
L 426.422696 316.301088 
L 431.021233 318.399313 
L 435.61977 321.114663 
L 440.218307 325.928237 
L 444.816844 333.333736 
L 449.415381 334.938261 
L 454.013918 335.678811 
L 458.612456 337.530186 
L 463.210993 340.12211 
L 467.80953 341.85006 
L 472.408067 343.948285 
L 477.006604 344.688835 
L 481.605141 346.416785 
L 486.203678 347.651035 
L 490.802215 350.366384 
L 495.400752 350.366384 
L 499.999289 351.847484 
L 504.597827 351.724059 
L 509.196364 351.724059 
" style="fill:none;stroke:#8c564b;stroke-linecap:square;stroke-width:1.5;"/>
   </g>
   <g id="patch_3">
    <path d="M 89.12 365.56 
L 89.12 66.6 
" style="fill:none;stroke:#000000;stroke-linecap:square;stroke-linejoin:miter;stroke-width:0.8;"/>
   </g>
   <g id="patch_4">
    <path d="M 529.2 365.56 
L 529.2 66.6 
" style="fill:none;stroke:#000000;stroke-linecap:square;stroke-linejoin:miter;stroke-width:0.8;"/>
   </g>
   <g id="patch_5">
    <path d="M 89.12 365.56 
L 529.2 365.56 
" style="fill:none;stroke:#000000;stroke-linecap:square;stroke-linejoin:miter;stroke-width:0.8;"/>
   </g>
   <g id="patch_6">
    <path d="M 89.12 66.6 
L 529.2 66.6 
" style="fill:none;stroke:#000000;stroke-linecap:square;stroke-linejoin:miter;stroke-width:0.8;"/>
   </g>
   <g id="legend_1">
    <g id="patch_7">
     <path d="M 99.62 59.1 
L 518.7 59.1 
Q 521.7 59.1 521.7 56.1 
L 521.7 13.565625 
Q 521.7 10.565625 518.7 10.565625 
L 99.62 10.565625 
Q 96.62 10.565625 96.62 13.565625 
L 96.62 56.1 
Q 96.62 59.1 99.62 59.1 
z
" style="fill:#ffffff;opacity:0.8;stroke:#cccccc;stroke-linejoin:miter;"/>
    </g>
    <g id="line2d_17">
     <path d="M 102.62 22.713281 
L 132.62 22.713281 
" style="fill:none;stroke:#1f77b4;stroke-linecap:square;stroke-width:1.5;"/>
    </g>
    <g id="line2d_18"/>
    <g id="text_13">
     <!-- CKC #0 -->
     <g transform="translate(144.62 27.963281)scale(0.15 -0.15)">
      <use xlink:href="#DejaVuSans-67"/>
      <use x="69.824219" xlink:href="#DejaVuSans-75"/>
      <use x="135.322266" xlink:href="#DejaVuSans-67"/>
      <use x="205.146484" xlink:href="#DejaVuSans-32"/>
      <use x="236.933594" xlink:href="#DejaVuSans-35"/>
      <use x="320.722656" xlink:href="#DejaVuSans-48"/>
     </g>
    </g>
    <g id="line2d_19">
     <path d="M 102.62 44.730469 
L 132.62 44.730469 
" style="fill:none;stroke:#ff7f0e;stroke-linecap:square;stroke-width:1.5;"/>
    </g>
    <g id="line2d_20"/>
    <g id="text_14">
     <!-- CKC #1 -->
     <g transform="translate(144.62 49.980469)scale(0.15 -0.15)">
      <use xlink:href="#DejaVuSans-67"/>
      <use x="69.824219" xlink:href="#DejaVuSans-75"/>
      <use x="135.322266" xlink:href="#DejaVuSans-67"/>
      <use x="205.146484" xlink:href="#DejaVuSans-32"/>
      <use x="236.933594" xlink:href="#DejaVuSans-35"/>
      <use x="320.722656" xlink:href="#DejaVuSans-49"/>
     </g>
    </g>
    <g id="line2d_21">
     <path d="M 207.095365 22.713281 
L 237.095365 22.713281 
" style="fill:none;stroke:#2ca02c;stroke-linecap:square;stroke-width:1.5;"/>
    </g>
    <g id="line2d_22"/>
    <g id="text_15">
     <!-- CKC #2 -->
     <g transform="translate(249.095365 27.963281)scale(0.15 -0.15)">
      <use xlink:href="#DejaVuSans-67"/>
      <use x="69.824219" xlink:href="#DejaVuSans-75"/>
      <use x="135.322266" xlink:href="#DejaVuSans-67"/>
      <use x="205.146484" xlink:href="#DejaVuSans-32"/>
      <use x="236.933594" xlink:href="#DejaVuSans-35"/>
      <use x="320.722656" xlink:href="#DejaVuSans-50"/>
     </g>
    </g>
    <g id="line2d_23">
     <path d="M 207.095365 44.730469 
L 237.095365 44.730469 
" style="fill:none;stroke:#d62728;stroke-linecap:square;stroke-width:1.5;"/>
    </g>
    <g id="line2d_24"/>
    <g id="text_16">
     <!-- CKC #3 -->
     <defs>
      <path d="M 40.578125 39.3125 
Q 47.65625 37.796875 51.625 33 
Q 55.609375 28.21875 55.609375 21.1875 
Q 55.609375 10.40625 48.1875 4.484375 
Q 40.765625 -1.421875 27.09375 -1.421875 
Q 22.515625 -1.421875 17.65625 -0.515625 
Q 12.796875 0.390625 7.625 2.203125 
L 7.625 11.71875 
Q 11.71875 9.328125 16.59375 8.109375 
Q 21.484375 6.890625 26.8125 6.890625 
Q 36.078125 6.890625 40.9375 10.546875 
Q 45.796875 14.203125 45.796875 21.1875 
Q 45.796875 27.640625 41.28125 31.265625 
Q 36.765625 34.90625 28.71875 34.90625 
L 20.21875 34.90625 
L 20.21875 43.015625 
L 29.109375 43.015625 
Q 36.375 43.015625 40.234375 45.921875 
Q 44.09375 48.828125 44.09375 54.296875 
Q 44.09375 59.90625 40.109375 62.90625 
Q 36.140625 65.921875 28.71875 65.921875 
Q 24.65625 65.921875 20.015625 65.03125 
Q 15.375 64.15625 9.8125 62.3125 
L 9.8125 71.09375 
Q 15.4375 72.65625 20.34375 73.4375 
Q 25.25 74.21875 29.59375 74.21875 
Q 40.828125 74.21875 47.359375 69.109375 
Q 53.90625 64.015625 53.90625 55.328125 
Q 53.90625 49.265625 50.4375 45.09375 
Q 46.96875 40.921875 40.578125 39.3125 
z
" id="DejaVuSans-51"/>
     </defs>
     <g transform="translate(249.095365 49.980469)scale(0.15 -0.15)">
      <use xlink:href="#DejaVuSans-67"/>
      <use x="69.824219" xlink:href="#DejaVuSans-75"/>
      <use x="135.322266" xlink:href="#DejaVuSans-67"/>
      <use x="205.146484" xlink:href="#DejaVuSans-32"/>
      <use x="236.933594" xlink:href="#DejaVuSans-35"/>
      <use x="320.722656" xlink:href="#DejaVuSans-51"/>
     </g>
    </g>
    <g id="line2d_25">
     <path d="M 311.570729 22.713281 
L 341.570729 22.713281 
" style="fill:none;stroke:#9467bd;stroke-linecap:square;stroke-width:1.5;"/>
    </g>
    <g id="line2d_26"/>
    <g id="text_17">
     <!-- CKC #4 -->
     <g transform="translate(353.570729 27.963281)scale(0.15 -0.15)">
      <use xlink:href="#DejaVuSans-67"/>
      <use x="69.824219" xlink:href="#DejaVuSans-75"/>
      <use x="135.322266" xlink:href="#DejaVuSans-67"/>
      <use x="205.146484" xlink:href="#DejaVuSans-32"/>
      <use x="236.933594" xlink:href="#DejaVuSans-35"/>
      <use x="320.722656" xlink:href="#DejaVuSans-52"/>
     </g>
    </g>
    <g id="line2d_27">
     <path d="M 416.046094 22.713281 
L 446.046094 22.713281 
" style="fill:none;stroke:#8c564b;stroke-linecap:square;stroke-width:1.5;"/>
    </g>
    <g id="line2d_28"/>
    <g id="text_18">
     <!-- CKC #5 -->
     <g transform="translate(458.046094 27.963281)scale(0.15 -0.15)">
      <use xlink:href="#DejaVuSans-67"/>
      <use x="69.824219" xlink:href="#DejaVuSans-75"/>
      <use x="135.322266" xlink:href="#DejaVuSans-67"/>
      <use x="205.146484" xlink:href="#DejaVuSans-32"/>
      <use x="236.933594" xlink:href="#DejaVuSans-35"/>
      <use x="320.722656" xlink:href="#DejaVuSans-53"/>
     </g>
    </g>
   </g>
  </g>
 </g>
 <defs>
  <clipPath id="pa146134ec3">
   <rect height="298.96" width="440.08" x="89.12" y="66.6"/>
  </clipPath>
 </defs>
</svg>
