<?xml version="1.0" encoding="utf-8" standalone="no"?>
<!DOCTYPE svg PUBLIC "-//W3C//DTD SVG 1.1//EN"
  "http://www.w3.org/Graphics/SVG/1.1/DTD/svg11.dtd">
<!-- Created with matplotlib (https://matplotlib.org/) -->
<svg height="432pt" version="1.1" viewBox="0 0 540 432" width="540pt" xmlns="http://www.w3.org/2000/svg" xmlns:xlink="http://www.w3.org/1999/xlink">
 <defs>
  <style type="text/css">
*{stroke-linecap:butt;stroke-linejoin:round;}
  </style>
 </defs>
 <g id="figure_1">
  <g id="patch_1">
   <path d="M 0 432 
L 540 432 
L 540 0 
L 0 0 
z
" style="fill:#ffffff;"/>
  </g>
  <g id="axes_1">
   <g id="patch_2">
    <path d="M 70.13 365.56 
L 529.2 365.56 
L 529.2 88.5 
L 70.13 88.5 
z
" style="fill:#ffffff;"/>
   </g>
   <g id="matplotlib.axis_1">
    <g id="xtick_1">
     <g id="line2d_1">
      <defs>
       <path d="M 0 0 
L 0 3.5 
" id="m3b39f5a29b" style="stroke:#000000;stroke-width:0.8;"/>
      </defs>
      <g>
       <use style="stroke:#000000;stroke-width:0.8;" x="90.996818" xlink:href="#m3b39f5a29b" y="365.56"/>
      </g>
     </g>
     <g id="text_1">
      <!-- 0 -->
      <defs>
       <path d="M 31.78125 66.40625 
Q 24.171875 66.40625 20.328125 58.90625 
Q 16.5 51.421875 16.5 36.375 
Q 16.5 21.390625 20.328125 13.890625 
Q 24.171875 6.390625 31.78125 6.390625 
Q 39.453125 6.390625 43.28125 13.890625 
Q 47.125 21.390625 47.125 36.375 
Q 47.125 51.421875 43.28125 58.90625 
Q 39.453125 66.40625 31.78125 66.40625 
z
M 31.78125 74.21875 
Q 44.046875 74.21875 50.515625 64.515625 
Q 56.984375 54.828125 56.984375 36.375 
Q 56.984375 17.96875 50.515625 8.265625 
Q 44.046875 -1.421875 31.78125 -1.421875 
Q 19.53125 -1.421875 13.0625 8.265625 
Q 6.59375 17.96875 6.59375 36.375 
Q 6.59375 54.828125 13.0625 64.515625 
Q 19.53125 74.21875 31.78125 74.21875 
z
" id="DejaVuSans-48"/>
      </defs>
      <g transform="translate(84.634318 387.756875)scale(0.2 -0.2)">
       <use xlink:href="#DejaVuSans-48"/>
      </g>
     </g>
    </g>
    <g id="xtick_2">
     <g id="line2d_2">
      <g>
       <use style="stroke:#000000;stroke-width:0.8;" x="186.936212" xlink:href="#m3b39f5a29b" y="365.56"/>
      </g>
     </g>
     <g id="text_2">
      <!-- 20 -->
      <defs>
       <path d="M 19.1875 8.296875 
L 53.609375 8.296875 
L 53.609375 0 
L 7.328125 0 
L 7.328125 8.296875 
Q 12.9375 14.109375 22.625 23.890625 
Q 32.328125 33.6875 34.8125 36.53125 
Q 39.546875 41.84375 41.421875 45.53125 
Q 43.3125 49.21875 43.3125 52.78125 
Q 43.3125 58.59375 39.234375 62.25 
Q 35.15625 65.921875 28.609375 65.921875 
Q 23.96875 65.921875 18.8125 64.3125 
Q 13.671875 62.703125 7.8125 59.421875 
L 7.8125 69.390625 
Q 13.765625 71.78125 18.9375 73 
Q 24.125 74.21875 28.421875 74.21875 
Q 39.75 74.21875 46.484375 68.546875 
Q 53.21875 62.890625 53.21875 53.421875 
Q 53.21875 48.921875 51.53125 44.890625 
Q 49.859375 40.875 45.40625 35.40625 
Q 44.1875 33.984375 37.640625 27.21875 
Q 31.109375 20.453125 19.1875 8.296875 
z
" id="DejaVuSans-50"/>
      </defs>
      <g transform="translate(174.211212 387.756875)scale(0.2 -0.2)">
       <use xlink:href="#DejaVuSans-50"/>
       <use x="63.623047" xlink:href="#DejaVuSans-48"/>
      </g>
     </g>
    </g>
    <g id="xtick_3">
     <g id="line2d_3">
      <g>
       <use style="stroke:#000000;stroke-width:0.8;" x="282.875606" xlink:href="#m3b39f5a29b" y="365.56"/>
      </g>
     </g>
     <g id="text_3">
      <!-- 40 -->
      <defs>
       <path d="M 37.796875 64.3125 
L 12.890625 25.390625 
L 37.796875 25.390625 
z
M 35.203125 72.90625 
L 47.609375 72.90625 
L 47.609375 25.390625 
L 58.015625 25.390625 
L 58.015625 17.1875 
L 47.609375 17.1875 
L 47.609375 0 
L 37.796875 0 
L 37.796875 17.1875 
L 4.890625 17.1875 
L 4.890625 26.703125 
z
" id="DejaVuSans-52"/>
      </defs>
      <g transform="translate(270.150606 387.756875)scale(0.2 -0.2)">
       <use xlink:href="#DejaVuSans-52"/>
       <use x="63.623047" xlink:href="#DejaVuSans-48"/>
      </g>
     </g>
    </g>
    <g id="xtick_4">
     <g id="line2d_4">
      <g>
       <use style="stroke:#000000;stroke-width:0.8;" x="378.815" xlink:href="#m3b39f5a29b" y="365.56"/>
      </g>
     </g>
     <g id="text_4">
      <!-- 60 -->
      <defs>
       <path d="M 33.015625 40.375 
Q 26.375 40.375 22.484375 35.828125 
Q 18.609375 31.296875 18.609375 23.390625 
Q 18.609375 15.53125 22.484375 10.953125 
Q 26.375 6.390625 33.015625 6.390625 
Q 39.65625 6.390625 43.53125 10.953125 
Q 47.40625 15.53125 47.40625 23.390625 
Q 47.40625 31.296875 43.53125 35.828125 
Q 39.65625 40.375 33.015625 40.375 
z
M 52.59375 71.296875 
L 52.59375 62.3125 
Q 48.875 64.0625 45.09375 64.984375 
Q 41.3125 65.921875 37.59375 65.921875 
Q 27.828125 65.921875 22.671875 59.328125 
Q 17.53125 52.734375 16.796875 39.40625 
Q 19.671875 43.65625 24.015625 45.921875 
Q 28.375 48.1875 33.59375 48.1875 
Q 44.578125 48.1875 50.953125 41.515625 
Q 57.328125 34.859375 57.328125 23.390625 
Q 57.328125 12.15625 50.6875 5.359375 
Q 44.046875 -1.421875 33.015625 -1.421875 
Q 20.359375 -1.421875 13.671875 8.265625 
Q 6.984375 17.96875 6.984375 36.375 
Q 6.984375 53.65625 15.1875 63.9375 
Q 23.390625 74.21875 37.203125 74.21875 
Q 40.921875 74.21875 44.703125 73.484375 
Q 48.484375 72.75 52.59375 71.296875 
z
" id="DejaVuSans-54"/>
      </defs>
      <g transform="translate(366.09 387.756875)scale(0.2 -0.2)">
       <use xlink:href="#DejaVuSans-54"/>
       <use x="63.623047" xlink:href="#DejaVuSans-48"/>
      </g>
     </g>
    </g>
    <g id="xtick_5">
     <g id="line2d_5">
      <g>
       <use style="stroke:#000000;stroke-width:0.8;" x="474.754394" xlink:href="#m3b39f5a29b" y="365.56"/>
      </g>
     </g>
     <g id="text_5">
      <!-- 80 -->
      <defs>
       <path d="M 31.78125 34.625 
Q 24.75 34.625 20.71875 30.859375 
Q 16.703125 27.09375 16.703125 20.515625 
Q 16.703125 13.921875 20.71875 10.15625 
Q 24.75 6.390625 31.78125 6.390625 
Q 38.8125 6.390625 42.859375 10.171875 
Q 46.921875 13.96875 46.921875 20.515625 
Q 46.921875 27.09375 42.890625 30.859375 
Q 38.875 34.625 31.78125 34.625 
z
M 21.921875 38.8125 
Q 15.578125 40.375 12.03125 44.71875 
Q 8.5 49.078125 8.5 55.328125 
Q 8.5 64.0625 14.71875 69.140625 
Q 20.953125 74.21875 31.78125 74.21875 
Q 42.671875 74.21875 48.875 69.140625 
Q 55.078125 64.0625 55.078125 55.328125 
Q 55.078125 49.078125 51.53125 44.71875 
Q 48 40.375 41.703125 38.8125 
Q 48.828125 37.15625 52.796875 32.3125 
Q 56.78125 27.484375 56.78125 20.515625 
Q 56.78125 9.90625 50.3125 4.234375 
Q 43.84375 -1.421875 31.78125 -1.421875 
Q 19.734375 -1.421875 13.25 4.234375 
Q 6.78125 9.90625 6.78125 20.515625 
Q 6.78125 27.484375 10.78125 32.3125 
Q 14.796875 37.15625 21.921875 38.8125 
z
M 18.3125 54.390625 
Q 18.3125 48.734375 21.84375 45.5625 
Q 25.390625 42.390625 31.78125 42.390625 
Q 38.140625 42.390625 41.71875 45.5625 
Q 45.3125 48.734375 45.3125 54.390625 
Q 45.3125 60.0625 41.71875 63.234375 
Q 38.140625 66.40625 31.78125 66.40625 
Q 25.390625 66.40625 21.84375 63.234375 
Q 18.3125 60.0625 18.3125 54.390625 
z
" id="DejaVuSans-56"/>
      </defs>
      <g transform="translate(462.029394 387.756875)scale(0.2 -0.2)">
       <use xlink:href="#DejaVuSans-56"/>
       <use x="63.623047" xlink:href="#DejaVuSans-48"/>
      </g>
     </g>
    </g>
    <g id="text_6">
     <!-- # of games -->
     <defs>
      <path d="M 51.125 44 
L 36.921875 44 
L 32.8125 27.6875 
L 47.125 27.6875 
z
M 43.796875 71.78125 
L 38.71875 51.515625 
L 52.984375 51.515625 
L 58.109375 71.78125 
L 65.921875 71.78125 
L 60.890625 51.515625 
L 76.125 51.515625 
L 76.125 44 
L 58.984375 44 
L 54.984375 27.6875 
L 70.515625 27.6875 
L 70.515625 20.21875 
L 53.078125 20.21875 
L 48 0 
L 40.1875 0 
L 45.21875 20.21875 
L 30.90625 20.21875 
L 25.875 0 
L 18.015625 0 
L 23.09375 20.21875 
L 7.71875 20.21875 
L 7.71875 27.6875 
L 24.90625 27.6875 
L 29 44 
L 13.28125 44 
L 13.28125 51.515625 
L 30.90625 51.515625 
L 35.890625 71.78125 
z
" id="DejaVuSans-35"/>
      <path id="DejaVuSans-32"/>
      <path d="M 30.609375 48.390625 
Q 23.390625 48.390625 19.1875 42.75 
Q 14.984375 37.109375 14.984375 27.296875 
Q 14.984375 17.484375 19.15625 11.84375 
Q 23.34375 6.203125 30.609375 6.203125 
Q 37.796875 6.203125 41.984375 11.859375 
Q 46.1875 17.53125 46.1875 27.296875 
Q 46.1875 37.015625 41.984375 42.703125 
Q 37.796875 48.390625 30.609375 48.390625 
z
M 30.609375 56 
Q 42.328125 56 49.015625 48.375 
Q 55.71875 40.765625 55.71875 27.296875 
Q 55.71875 13.875 49.015625 6.21875 
Q 42.328125 -1.421875 30.609375 -1.421875 
Q 18.84375 -1.421875 12.171875 6.21875 
Q 5.515625 13.875 5.515625 27.296875 
Q 5.515625 40.765625 12.171875 48.375 
Q 18.84375 56 30.609375 56 
z
" id="DejaVuSans-111"/>
      <path d="M 37.109375 75.984375 
L 37.109375 68.5 
L 28.515625 68.5 
Q 23.6875 68.5 21.796875 66.546875 
Q 19.921875 64.59375 19.921875 59.515625 
L 19.921875 54.6875 
L 34.71875 54.6875 
L 34.71875 47.703125 
L 19.921875 47.703125 
L 19.921875 0 
L 10.890625 0 
L 10.890625 47.703125 
L 2.296875 47.703125 
L 2.296875 54.6875 
L 10.890625 54.6875 
L 10.890625 58.5 
Q 10.890625 67.625 15.140625 71.796875 
Q 19.390625 75.984375 28.609375 75.984375 
z
" id="DejaVuSans-102"/>
      <path d="M 45.40625 27.984375 
Q 45.40625 37.75 41.375 43.109375 
Q 37.359375 48.484375 30.078125 48.484375 
Q 22.859375 48.484375 18.828125 43.109375 
Q 14.796875 37.75 14.796875 27.984375 
Q 14.796875 18.265625 18.828125 12.890625 
Q 22.859375 7.515625 30.078125 7.515625 
Q 37.359375 7.515625 41.375 12.890625 
Q 45.40625 18.265625 45.40625 27.984375 
z
M 54.390625 6.78125 
Q 54.390625 -7.171875 48.1875 -13.984375 
Q 42 -20.796875 29.203125 -20.796875 
Q 24.46875 -20.796875 20.265625 -20.09375 
Q 16.0625 -19.390625 12.109375 -17.921875 
L 12.109375 -9.1875 
Q 16.0625 -11.328125 19.921875 -12.34375 
Q 23.78125 -13.375 27.78125 -13.375 
Q 36.625 -13.375 41.015625 -8.765625 
Q 45.40625 -4.15625 45.40625 5.171875 
L 45.40625 9.625 
Q 42.625 4.78125 38.28125 2.390625 
Q 33.9375 0 27.875 0 
Q 17.828125 0 11.671875 7.65625 
Q 5.515625 15.328125 5.515625 27.984375 
Q 5.515625 40.671875 11.671875 48.328125 
Q 17.828125 56 27.875 56 
Q 33.9375 56 38.28125 53.609375 
Q 42.625 51.21875 45.40625 46.390625 
L 45.40625 54.6875 
L 54.390625 54.6875 
z
" id="DejaVuSans-103"/>
      <path d="M 34.28125 27.484375 
Q 23.390625 27.484375 19.1875 25 
Q 14.984375 22.515625 14.984375 16.5 
Q 14.984375 11.71875 18.140625 8.90625 
Q 21.296875 6.109375 26.703125 6.109375 
Q 34.1875 6.109375 38.703125 11.40625 
Q 43.21875 16.703125 43.21875 25.484375 
L 43.21875 27.484375 
z
M 52.203125 31.203125 
L 52.203125 0 
L 43.21875 0 
L 43.21875 8.296875 
Q 40.140625 3.328125 35.546875 0.953125 
Q 30.953125 -1.421875 24.3125 -1.421875 
Q 15.921875 -1.421875 10.953125 3.296875 
Q 6 8.015625 6 15.921875 
Q 6 25.140625 12.171875 29.828125 
Q 18.359375 34.515625 30.609375 34.515625 
L 43.21875 34.515625 
L 43.21875 35.40625 
Q 43.21875 41.609375 39.140625 45 
Q 35.0625 48.390625 27.6875 48.390625 
Q 23 48.390625 18.546875 47.265625 
Q 14.109375 46.140625 10.015625 43.890625 
L 10.015625 52.203125 
Q 14.9375 54.109375 19.578125 55.046875 
Q 24.21875 56 28.609375 56 
Q 40.484375 56 46.34375 49.84375 
Q 52.203125 43.703125 52.203125 31.203125 
z
" id="DejaVuSans-97"/>
      <path d="M 52 44.1875 
Q 55.375 50.25 60.0625 53.125 
Q 64.75 56 71.09375 56 
Q 79.640625 56 84.28125 50.015625 
Q 88.921875 44.046875 88.921875 33.015625 
L 88.921875 0 
L 79.890625 0 
L 79.890625 32.71875 
Q 79.890625 40.578125 77.09375 44.375 
Q 74.3125 48.1875 68.609375 48.1875 
Q 61.625 48.1875 57.5625 43.546875 
Q 53.515625 38.921875 53.515625 30.90625 
L 53.515625 0 
L 44.484375 0 
L 44.484375 32.71875 
Q 44.484375 40.625 41.703125 44.40625 
Q 38.921875 48.1875 33.109375 48.1875 
Q 26.21875 48.1875 22.15625 43.53125 
Q 18.109375 38.875 18.109375 30.90625 
L 18.109375 0 
L 9.078125 0 
L 9.078125 54.6875 
L 18.109375 54.6875 
L 18.109375 46.1875 
Q 21.1875 51.21875 25.484375 53.609375 
Q 29.78125 56 35.6875 56 
Q 41.65625 56 45.828125 52.96875 
Q 50 49.953125 52 44.1875 
z
" id="DejaVuSans-109"/>
      <path d="M 56.203125 29.59375 
L 56.203125 25.203125 
L 14.890625 25.203125 
Q 15.484375 15.921875 20.484375 11.0625 
Q 25.484375 6.203125 34.421875 6.203125 
Q 39.59375 6.203125 44.453125 7.46875 
Q 49.3125 8.734375 54.109375 11.28125 
L 54.109375 2.78125 
Q 49.265625 0.734375 44.1875 -0.34375 
Q 39.109375 -1.421875 33.890625 -1.421875 
Q 20.796875 -1.421875 13.15625 6.1875 
Q 5.515625 13.8125 5.515625 26.8125 
Q 5.515625 40.234375 12.765625 48.109375 
Q 20.015625 56 32.328125 56 
Q 43.359375 56 49.78125 48.890625 
Q 56.203125 41.796875 56.203125 29.59375 
z
M 47.21875 32.234375 
Q 47.125 39.59375 43.09375 43.984375 
Q 39.0625 48.390625 32.421875 48.390625 
Q 24.90625 48.390625 20.390625 44.140625 
Q 15.875 39.890625 15.1875 32.171875 
z
" id="DejaVuSans-101"/>
      <path d="M 44.28125 53.078125 
L 44.28125 44.578125 
Q 40.484375 46.53125 36.375 47.5 
Q 32.28125 48.484375 27.875 48.484375 
Q 21.1875 48.484375 17.84375 46.4375 
Q 14.5 44.390625 14.5 40.28125 
Q 14.5 37.15625 16.890625 35.375 
Q 19.28125 33.59375 26.515625 31.984375 
L 29.59375 31.296875 
Q 39.15625 29.25 43.1875 25.515625 
Q 47.21875 21.78125 47.21875 15.09375 
Q 47.21875 7.46875 41.1875 3.015625 
Q 35.15625 -1.421875 24.609375 -1.421875 
Q 20.21875 -1.421875 15.453125 -0.5625 
Q 10.6875 0.296875 5.421875 2 
L 5.421875 11.28125 
Q 10.40625 8.6875 15.234375 7.390625 
Q 20.0625 6.109375 24.8125 6.109375 
Q 31.15625 6.109375 34.5625 8.28125 
Q 37.984375 10.453125 37.984375 14.40625 
Q 37.984375 18.0625 35.515625 20.015625 
Q 33.0625 21.96875 24.703125 23.78125 
L 21.578125 24.515625 
Q 13.234375 26.265625 9.515625 29.90625 
Q 5.8125 33.546875 5.8125 39.890625 
Q 5.8125 47.609375 11.28125 51.796875 
Q 16.75 56 26.8125 56 
Q 31.78125 56 36.171875 55.265625 
Q 40.578125 54.546875 44.28125 53.078125 
z
" id="DejaVuSans-115"/>
     </defs>
     <g transform="translate(227.221641 414.912344)scale(0.25 -0.25)">
      <use xlink:href="#DejaVuSans-35"/>
      <use x="83.789062" xlink:href="#DejaVuSans-32"/>
      <use x="115.576172" xlink:href="#DejaVuSans-111"/>
      <use x="176.757812" xlink:href="#DejaVuSans-102"/>
      <use x="211.962891" xlink:href="#DejaVuSans-32"/>
      <use x="243.75" xlink:href="#DejaVuSans-103"/>
      <use x="307.226562" xlink:href="#DejaVuSans-97"/>
      <use x="368.505859" xlink:href="#DejaVuSans-109"/>
      <use x="465.917969" xlink:href="#DejaVuSans-101"/>
      <use x="527.441406" xlink:href="#DejaVuSans-115"/>
     </g>
    </g>
   </g>
   <g id="matplotlib.axis_2">
    <g id="ytick_1">
     <g id="line2d_6">
      <defs>
       <path d="M 0 0 
L -3.5 0 
" id="m6444ed159a" style="stroke:#000000;stroke-width:0.8;"/>
      </defs>
      <g>
       <use style="stroke:#000000;stroke-width:0.8;" x="70.13" xlink:href="#m6444ed159a" y="352.966364"/>
      </g>
     </g>
     <g id="text_7">
      <!-- 0.0 -->
      <defs>
       <path d="M 10.6875 12.40625 
L 21 12.40625 
L 21 0 
L 10.6875 0 
z
" id="DejaVuSans-46"/>
      </defs>
      <g transform="translate(31.32375 360.564801)scale(0.2 -0.2)">
       <use xlink:href="#DejaVuSans-48"/>
       <use x="63.623047" xlink:href="#DejaVuSans-46"/>
       <use x="95.410156" xlink:href="#DejaVuSans-48"/>
      </g>
     </g>
    </g>
    <g id="ytick_2">
     <g id="line2d_7">
      <g>
       <use style="stroke:#000000;stroke-width:0.8;" x="70.13" xlink:href="#m6444ed159a" y="302.591818"/>
      </g>
     </g>
     <g id="text_8">
      <!-- 0.2 -->
      <g transform="translate(31.32375 310.190256)scale(0.2 -0.2)">
       <use xlink:href="#DejaVuSans-48"/>
       <use x="63.623047" xlink:href="#DejaVuSans-46"/>
       <use x="95.410156" xlink:href="#DejaVuSans-50"/>
      </g>
     </g>
    </g>
    <g id="ytick_3">
     <g id="line2d_8">
      <g>
       <use style="stroke:#000000;stroke-width:0.8;" x="70.13" xlink:href="#m6444ed159a" y="252.217273"/>
      </g>
     </g>
     <g id="text_9">
      <!-- 0.4 -->
      <g transform="translate(31.32375 259.81571)scale(0.2 -0.2)">
       <use xlink:href="#DejaVuSans-48"/>
       <use x="63.623047" xlink:href="#DejaVuSans-46"/>
       <use x="95.410156" xlink:href="#DejaVuSans-52"/>
      </g>
     </g>
    </g>
    <g id="ytick_4">
     <g id="line2d_9">
      <g>
       <use style="stroke:#000000;stroke-width:0.8;" x="70.13" xlink:href="#m6444ed159a" y="201.842727"/>
      </g>
     </g>
     <g id="text_10">
      <!-- 0.6 -->
      <g transform="translate(31.32375 209.441165)scale(0.2 -0.2)">
       <use xlink:href="#DejaVuSans-48"/>
       <use x="63.623047" xlink:href="#DejaVuSans-46"/>
       <use x="95.410156" xlink:href="#DejaVuSans-54"/>
      </g>
     </g>
    </g>
    <g id="ytick_5">
     <g id="line2d_10">
      <g>
       <use style="stroke:#000000;stroke-width:0.8;" x="70.13" xlink:href="#m6444ed159a" y="151.468182"/>
      </g>
     </g>
     <g id="text_11">
      <!-- 0.8 -->
      <g transform="translate(31.32375 159.066619)scale(0.2 -0.2)">
       <use xlink:href="#DejaVuSans-48"/>
       <use x="63.623047" xlink:href="#DejaVuSans-46"/>
       <use x="95.410156" xlink:href="#DejaVuSans-56"/>
      </g>
     </g>
    </g>
    <g id="ytick_6">
     <g id="line2d_11">
      <g>
       <use style="stroke:#000000;stroke-width:0.8;" x="70.13" xlink:href="#m6444ed159a" y="101.093636"/>
      </g>
     </g>
     <g id="text_12">
      <!-- 1.0 -->
      <defs>
       <path d="M 12.40625 8.296875 
L 28.515625 8.296875 
L 28.515625 63.921875 
L 10.984375 60.40625 
L 10.984375 69.390625 
L 28.421875 72.90625 
L 38.28125 72.90625 
L 38.28125 8.296875 
L 54.390625 8.296875 
L 54.390625 0 
L 12.40625 0 
z
" id="DejaVuSans-49"/>
      </defs>
      <g transform="translate(31.32375 108.692074)scale(0.2 -0.2)">
       <use xlink:href="#DejaVuSans-49"/>
       <use x="63.623047" xlink:href="#DejaVuSans-46"/>
       <use x="95.410156" xlink:href="#DejaVuSans-48"/>
      </g>
     </g>
    </g>
    <g id="text_13">
     <!-- Percentage of Att strategy used -->
     <defs>
      <path d="M 19.671875 64.796875 
L 19.671875 37.40625 
L 32.078125 37.40625 
Q 38.96875 37.40625 42.71875 40.96875 
Q 46.484375 44.53125 46.484375 51.125 
Q 46.484375 57.671875 42.71875 61.234375 
Q 38.96875 64.796875 32.078125 64.796875 
z
M 9.8125 72.90625 
L 32.078125 72.90625 
Q 44.34375 72.90625 50.609375 67.359375 
Q 56.890625 61.8125 56.890625 51.125 
Q 56.890625 40.328125 50.609375 34.8125 
Q 44.34375 29.296875 32.078125 29.296875 
L 19.671875 29.296875 
L 19.671875 0 
L 9.8125 0 
z
" id="DejaVuSans-80"/>
      <path d="M 41.109375 46.296875 
Q 39.59375 47.171875 37.8125 47.578125 
Q 36.03125 48 33.890625 48 
Q 26.265625 48 22.1875 43.046875 
Q 18.109375 38.09375 18.109375 28.8125 
L 18.109375 0 
L 9.078125 0 
L 9.078125 54.6875 
L 18.109375 54.6875 
L 18.109375 46.1875 
Q 20.953125 51.171875 25.484375 53.578125 
Q 30.03125 56 36.53125 56 
Q 37.453125 56 38.578125 55.875 
Q 39.703125 55.765625 41.0625 55.515625 
z
" id="DejaVuSans-114"/>
      <path d="M 48.78125 52.59375 
L 48.78125 44.1875 
Q 44.96875 46.296875 41.140625 47.34375 
Q 37.3125 48.390625 33.40625 48.390625 
Q 24.65625 48.390625 19.8125 42.84375 
Q 14.984375 37.3125 14.984375 27.296875 
Q 14.984375 17.28125 19.8125 11.734375 
Q 24.65625 6.203125 33.40625 6.203125 
Q 37.3125 6.203125 41.140625 7.25 
Q 44.96875 8.296875 48.78125 10.40625 
L 48.78125 2.09375 
Q 45.015625 0.34375 40.984375 -0.53125 
Q 36.96875 -1.421875 32.421875 -1.421875 
Q 20.0625 -1.421875 12.78125 6.34375 
Q 5.515625 14.109375 5.515625 27.296875 
Q 5.515625 40.671875 12.859375 48.328125 
Q 20.21875 56 33.015625 56 
Q 37.15625 56 41.109375 55.140625 
Q 45.0625 54.296875 48.78125 52.59375 
z
" id="DejaVuSans-99"/>
      <path d="M 54.890625 33.015625 
L 54.890625 0 
L 45.90625 0 
L 45.90625 32.71875 
Q 45.90625 40.484375 42.875 44.328125 
Q 39.84375 48.1875 33.796875 48.1875 
Q 26.515625 48.1875 22.3125 43.546875 
Q 18.109375 38.921875 18.109375 30.90625 
L 18.109375 0 
L 9.078125 0 
L 9.078125 54.6875 
L 18.109375 54.6875 
L 18.109375 46.1875 
Q 21.34375 51.125 25.703125 53.5625 
Q 30.078125 56 35.796875 56 
Q 45.21875 56 50.046875 50.171875 
Q 54.890625 44.34375 54.890625 33.015625 
z
" id="DejaVuSans-110"/>
      <path d="M 18.3125 70.21875 
L 18.3125 54.6875 
L 36.8125 54.6875 
L 36.8125 47.703125 
L 18.3125 47.703125 
L 18.3125 18.015625 
Q 18.3125 11.328125 20.140625 9.421875 
Q 21.96875 7.515625 27.59375 7.515625 
L 36.8125 7.515625 
L 36.8125 0 
L 27.59375 0 
Q 17.1875 0 13.234375 3.875 
Q 9.28125 7.765625 9.28125 18.015625 
L 9.28125 47.703125 
L 2.6875 47.703125 
L 2.6875 54.6875 
L 9.28125 54.6875 
L 9.28125 70.21875 
z
" id="DejaVuSans-116"/>
      <path d="M 34.1875 63.1875 
L 20.796875 26.90625 
L 47.609375 26.90625 
z
M 28.609375 72.90625 
L 39.796875 72.90625 
L 67.578125 0 
L 57.328125 0 
L 50.6875 18.703125 
L 17.828125 18.703125 
L 11.1875 0 
L 0.78125 0 
z
" id="DejaVuSans-65"/>
      <path d="M 32.171875 -5.078125 
Q 28.375 -14.84375 24.75 -17.8125 
Q 21.140625 -20.796875 15.09375 -20.796875 
L 7.90625 -20.796875 
L 7.90625 -13.28125 
L 13.1875 -13.28125 
Q 16.890625 -13.28125 18.9375 -11.515625 
Q 21 -9.765625 23.484375 -3.21875 
L 25.09375 0.875 
L 2.984375 54.6875 
L 12.5 54.6875 
L 29.59375 11.921875 
L 46.6875 54.6875 
L 56.203125 54.6875 
z
" id="DejaVuSans-121"/>
      <path d="M 8.5 21.578125 
L 8.5 54.6875 
L 17.484375 54.6875 
L 17.484375 21.921875 
Q 17.484375 14.15625 20.5 10.265625 
Q 23.53125 6.390625 29.59375 6.390625 
Q 36.859375 6.390625 41.078125 11.03125 
Q 45.3125 15.671875 45.3125 23.6875 
L 45.3125 54.6875 
L 54.296875 54.6875 
L 54.296875 0 
L 45.3125 0 
L 45.3125 8.40625 
Q 42.046875 3.421875 37.71875 1 
Q 33.40625 -1.421875 27.6875 -1.421875 
Q 18.265625 -1.421875 13.375 4.4375 
Q 8.5 10.296875 8.5 21.578125 
z
M 31.109375 56 
z
" id="DejaVuSans-117"/>
      <path d="M 45.40625 46.390625 
L 45.40625 75.984375 
L 54.390625 75.984375 
L 54.390625 0 
L 45.40625 0 
L 45.40625 8.203125 
Q 42.578125 3.328125 38.25 0.953125 
Q 33.9375 -1.421875 27.875 -1.421875 
Q 17.96875 -1.421875 11.734375 6.484375 
Q 5.515625 14.40625 5.515625 27.296875 
Q 5.515625 40.1875 11.734375 48.09375 
Q 17.96875 56 27.875 56 
Q 33.9375 56 38.25 53.625 
Q 42.578125 51.265625 45.40625 46.390625 
z
M 14.796875 27.296875 
Q 14.796875 17.390625 18.875 11.75 
Q 22.953125 6.109375 30.078125 6.109375 
Q 37.203125 6.109375 41.296875 11.75 
Q 45.40625 17.390625 45.40625 27.296875 
Q 45.40625 37.203125 41.296875 42.84375 
Q 37.203125 48.484375 30.078125 48.484375 
Q 22.953125 48.484375 18.875 42.84375 
Q 14.796875 37.203125 14.796875 27.296875 
z
" id="DejaVuSans-100"/>
     </defs>
     <g transform="translate(23.857604 360.041719)rotate(-90)scale(0.166667 -0.166667)">
      <use xlink:href="#DejaVuSans-80"/>
      <use x="60.255859" xlink:href="#DejaVuSans-101"/>
      <use x="121.779297" xlink:href="#DejaVuSans-114"/>
      <use x="162.861328" xlink:href="#DejaVuSans-99"/>
      <use x="217.841797" xlink:href="#DejaVuSans-101"/>
      <use x="279.365234" xlink:href="#DejaVuSans-110"/>
      <use x="342.744141" xlink:href="#DejaVuSans-116"/>
      <use x="381.953125" xlink:href="#DejaVuSans-97"/>
      <use x="443.232422" xlink:href="#DejaVuSans-103"/>
      <use x="506.708984" xlink:href="#DejaVuSans-101"/>
      <use x="568.232422" xlink:href="#DejaVuSans-32"/>
      <use x="600.019531" xlink:href="#DejaVuSans-111"/>
      <use x="661.201172" xlink:href="#DejaVuSans-102"/>
      <use x="696.40625" xlink:href="#DejaVuSans-32"/>
      <use x="728.193359" xlink:href="#DejaVuSans-65"/>
      <use x="796.585938" xlink:href="#DejaVuSans-116"/>
      <use x="835.794922" xlink:href="#DejaVuSans-116"/>
      <use x="875.003906" xlink:href="#DejaVuSans-32"/>
      <use x="906.791016" xlink:href="#DejaVuSans-115"/>
      <use x="958.890625" xlink:href="#DejaVuSans-116"/>
      <use x="998.099609" xlink:href="#DejaVuSans-114"/>
      <use x="1039.212891" xlink:href="#DejaVuSans-97"/>
      <use x="1100.492188" xlink:href="#DejaVuSans-116"/>
      <use x="1139.701172" xlink:href="#DejaVuSans-101"/>
      <use x="1201.224609" xlink:href="#DejaVuSans-103"/>
      <use x="1264.701172" xlink:href="#DejaVuSans-121"/>
      <use x="1323.880859" xlink:href="#DejaVuSans-32"/>
      <use x="1355.667969" xlink:href="#DejaVuSans-117"/>
      <use x="1419.046875" xlink:href="#DejaVuSans-115"/>
      <use x="1471.146484" xlink:href="#DejaVuSans-101"/>
      <use x="1532.669922" xlink:href="#DejaVuSans-100"/>
     </g>
    </g>
   </g>
   <g id="line2d_12">
    <path clip-path="url(#pba017efcba)" d="M 90.996818 101.093636 
L 95.793788 123.026374 
L 100.590758 136.458403 
L 105.387727 153.795267 
L 110.184697 163.526953 
L 114.981667 168.872775 
L 119.778636 180.154108 
L 124.575606 185.604475 
L 129.372576 193.31073 
L 134.169545 196.144355 
L 138.966515 194.21218 
L 143.763485 196.624647 
L 148.560455 200.717039 
L 153.357424 198.042542 
L 158.154394 205.002631 
L 162.951364 205.518881 
L 167.748333 206.535912 
L 172.545303 206.854823 
L 177.342273 206.975984 
L 182.139242 208.880755 
L 186.936212 209.31967 
L 191.733182 209.020173 
L 196.530152 210.264082 
L 201.327121 209.717656 
L 206.124091 212.504787 
L 210.921061 210.927855 
L 215.71803 212.224535 
L 220.515 213.497689 
L 225.31197 212.241356 
L 230.108939 213.437686 
L 234.905909 215.425333 
L 239.702879 215.815899 
L 244.499848 214.694418 
L 249.296818 215.948967 
L 254.093788 214.450435 
L 258.890758 214.736617 
L 263.687727 219.74864 
L 268.484697 218.24113 
L 273.281667 218.957156 
L 278.078636 216.724839 
L 282.875606 218.757627 
L 287.672576 217.64695 
L 292.469545 215.707281 
L 297.266515 220.104664 
L 302.063485 220.063056 
L 306.860455 222.713871 
L 311.657424 221.290273 
L 316.454394 224.607542 
L 321.251364 222.652867 
L 326.048333 221.609002 
L 330.845303 221.96451 
L 335.642273 222.308195 
L 340.439242 222.881988 
L 345.236212 224.50227 
L 350.033182 225.158945 
L 354.830152 224.075152 
L 359.627121 223.863019 
L 364.424091 224.85939 
L 369.221061 220.903366 
L 374.01803 223.979944 
L 378.815 224.035971 
L 383.61197 223.719786 
L 388.408939 223.981069 
L 393.205909 223.42567 
L 398.002879 225.689631 
L 402.799848 225.754049 
L 407.596818 222.215812 
L 412.393788 221.956734 
L 417.190758 222.872877 
L 421.987727 220.143592 
L 426.784697 220.380233 
L 431.581667 223.425381 
L 436.378636 218.11176 
L 441.175606 215.48125 
L 445.972576 215.917968 
L 450.769545 220.787001 
L 455.566515 214.253847 
L 460.363485 221.366909 
L 465.160455 215.871082 
L 469.957424 222.50534 
L 474.754394 226.075937 
L 479.551364 220.40177 
L 484.348333 224.292253 
L 489.145303 208.211923 
L 493.942273 229.89219 
L 498.739242 199.044141 
L 503.536212 227.03 
L 508.333182 199.044141 
" style="fill:none;stroke:#1f77b4;stroke-linecap:square;stroke-width:1.5;"/>
   </g>
   <g id="line2d_13">
    <path clip-path="url(#pba017efcba)" d="M 90.996818 352.966364 
L 95.793788 331.033626 
L 100.590758 323.810678 
L 105.387727 312.81274 
L 110.184697 313.094619 
L 114.981667 314.138114 
L 119.778636 310.104078 
L 124.575606 312.301574 
L 129.372576 310.050929 
L 134.169545 311.39627 
L 138.966515 316.538045 
L 143.763485 317.242582 
L 148.560455 315.349617 
L 153.357424 316.820418 
L 158.154394 313.425773 
L 162.951364 313.154741 
L 167.748333 314.988619 
L 172.545303 314.629798 
L 177.342273 316.861985 
L 182.139242 314.520444 
L 186.936212 317.681155 
L 191.733182 317.343985 
L 196.530152 315.531012 
L 201.327121 316.029197 
L 206.124091 315.501754 
L 210.921061 317.608357 
L 215.71803 317.720965 
L 220.515 317.788278 
L 225.31197 318.440121 
L 230.108939 317.712194 
L 234.905909 317.523538 
L 239.702879 317.28774 
L 244.499848 318.993888 
L 249.296818 317.358932 
L 254.093788 319.364572 
L 258.890758 322.147928 
L 263.687727 317.04121 
L 268.484697 317.867043 
L 273.281667 318.670696 
L 278.078636 320.450353 
L 282.875606 318.69911 
L 287.672576 320.690931 
L 292.469545 321.65558 
L 297.266515 320.958508 
L 302.063485 319.666734 
L 306.860455 318.319082 
L 311.657424 318.650776 
L 316.454394 316.157584 
L 321.251364 321.200886 
L 326.048333 321.881797 
L 330.845303 320.407051 
L 335.642273 321.854196 
L 340.439242 321.346272 
L 345.236212 319.863487 
L 350.033182 321.302364 
L 354.830152 321.547728 
L 359.627121 321.531146 
L 364.424091 320.93962 
L 369.221061 322.16301 
L 374.01803 317.780212 
L 378.815 320.59342 
L 383.61197 320.457094 
L 388.408939 319.686504 
L 393.205909 319.935639 
L 398.002879 317.650567 
L 402.799848 319.408852 
L 407.596818 321.01132 
L 412.393788 320.437777 
L 417.190758 318.568211 
L 421.987727 322.402033 
L 426.784697 323.298171 
L 431.581667 319.398353 
L 436.378636 322.157897 
L 441.175606 321.803071 
L 445.972576 320.864938 
L 450.769545 318.52223 
L 455.566515 320.113399 
L 460.363485 319.527158 
L 465.160455 320.446087 
L 469.957424 317.523195 
L 474.754394 315.757893 
L 479.551364 320.92992 
L 484.348333 313.269032 
L 489.145303 318.225298 
L 493.942273 301.446942 
L 498.739242 338.973434 
L 503.536212 310.987576 
L 508.333182 310.987576 
" style="fill:none;stroke:#ff7f0e;stroke-linecap:square;stroke-width:1.5;"/>
   </g>
   <g id="line2d_14">
    <path clip-path="url(#pba017efcba)" d="M 90.996818 352.966364 
L 95.793788 352.966364 
L 100.590758 351.616563 
L 105.387727 350.913053 
L 110.184697 348.492948 
L 114.981667 347.687084 
L 119.778636 349.331399 
L 124.575606 347.572055 
L 129.372576 346.324689 
L 134.169545 345.726628 
L 138.966515 343.913172 
L 143.763485 345.540634 
L 148.560455 345.180354 
L 153.357424 343.775219 
L 158.154394 346.111547 
L 162.951364 345.501684 
L 167.748333 345.170119 
L 172.545303 346.402905 
L 177.342273 345.6025 
L 182.139242 346.524074 
L 186.936212 347.006482 
L 191.733182 346.146466 
L 196.530152 345.543285 
L 201.327121 346.153925 
L 206.124091 347.070294 
L 210.921061 346.71958 
L 215.71803 346.252954 
L 220.515 346.62957 
L 225.31197 346.096049 
L 230.108939 346.041437 
L 234.905909 345.077477 
L 239.702879 346.427195 
L 244.499848 346.500817 
L 249.296818 346.984315 
L 254.093788 347.337923 
L 258.890758 344.865194 
L 263.687727 347.469928 
L 268.484697 346.114976 
L 273.281667 345.617292 
L 278.078636 346.901201 
L 282.875606 346.797136 
L 287.672576 347.087826 
L 292.469545 346.727314 
L 297.266515 345.168086 
L 302.063485 345.99942 
L 306.860455 346.758233 
L 311.657424 346.275131 
L 316.454394 345.164161 
L 321.251364 346.963439 
L 326.048333 346.135279 
L 330.845303 346.976979 
L 335.642273 346.239408 
L 340.439242 345.554342 
L 345.236212 347.564639 
L 350.033182 345.698036 
L 354.830152 344.288836 
L 359.627121 345.381249 
L 364.424091 346.331667 
L 369.221061 346.924822 
L 374.01803 346.512622 
L 378.815 345.855544 
L 383.61197 347.037622 
L 388.408939 347.69533 
L 393.205909 346.403255 
L 398.002879 347.60489 
L 402.799848 347.096989 
L 407.596818 347.66378 
L 412.393788 346.251747 
L 417.190758 345.46724 
L 421.987727 346.740296 
L 426.784697 346.828117 
L 431.581667 347.108858 
L 436.378636 348.912618 
L 441.175606 348.200213 
L 445.972576 346.381456 
L 450.769545 345.646985 
L 455.566515 349.316034 
L 460.363485 344.876233 
L 465.160455 345.314534 
L 469.957424 346.933484 
L 474.754394 349.15011 
L 479.551364 351.861659 
L 484.348333 347.49087 
L 489.145303 344.281097 
L 493.942273 344.379793 
L 498.739242 352.966364 
L 503.536212 352.966364 
L 508.333182 338.973434 
" style="fill:none;stroke:#2ca02c;stroke-linecap:square;stroke-width:1.5;"/>
   </g>
   <g id="line2d_15">
    <path clip-path="url(#pba017efcba)" d="M 90.996818 352.966364 
L 95.793788 352.966364 
L 100.590758 352.426444 
L 105.387727 351.369345 
L 110.184697 349.659926 
L 114.981667 347.857383 
L 119.778636 346.90809 
L 124.575606 346.050583 
L 129.372576 346.707863 
L 134.169545 347.244637 
L 138.966515 345.529813 
L 143.763485 345.038895 
L 148.560455 345.837005 
L 153.357424 347.221898 
L 158.154394 345.609975 
L 162.951364 345.341154 
L 167.748333 345.556072 
L 172.545303 345.507888 
L 177.342273 345.816982 
L 182.139242 345.900627 
L 186.936212 345.245608 
L 191.733182 345.351915 
L 196.530152 346.567158 
L 201.327121 346.278924 
L 206.124091 345.104937 
L 210.921061 346.71958 
L 215.71803 345.713484 
L 220.515 346.62957 
L 225.31197 346.969394 
L 230.108939 345.52636 
L 234.905909 347.078281 
L 239.702879 346.427195 
L 244.499848 346.500817 
L 249.296818 346.984315 
L 254.093788 345.705675 
L 258.890758 345.714967 
L 263.687727 346.733293 
L 268.484697 346.508089 
L 273.281667 347.120511 
L 278.078636 345.778023 
L 282.875606 346.684969 
L 287.672576 347.426972 
L 292.469545 345.398628 
L 297.266515 345.633655 
L 302.063485 346.707923 
L 306.860455 345.575732 
L 311.657424 346.152356 
L 316.454394 347.05179 
L 321.251364 345.77536 
L 326.048333 346.072609 
L 330.845303 347.422997 
L 335.642273 345.13981 
L 340.439242 348.20635 
L 345.236212 347.35688 
L 350.033182 346.705527 
L 354.830152 348.403181 
L 359.627121 346.554205 
L 364.424091 346.659307 
L 369.221061 347.520467 
L 374.01803 345.982178 
L 378.815 345.855544 
L 383.61197 345.654248 
L 388.408939 346.971855 
L 393.205909 347.371583 
L 398.002879 346.905567 
L 402.799848 347.734965 
L 407.596818 346.547446 
L 412.393788 347.445457 
L 417.190758 347.586558 
L 421.987727 347.872308 
L 426.784697 346.214292 
L 431.581667 347.334147 
L 436.378636 346.480371 
L 441.175606 347.100332 
L 445.972576 348.850796 
L 450.769545 346.93864 
L 455.566515 347.034578 
L 460.363485 347.572943 
L 465.160455 346.589839 
L 469.957424 345.425264 
L 474.754394 349.15011 
L 479.551364 347.442839 
L 484.348333 344.753123 
L 489.145303 341.386008 
L 493.942273 352.966364 
L 498.739242 352.966364 
L 503.536212 338.973434 
L 508.333182 352.966364 
" style="fill:none;stroke:#d62728;stroke-linecap:square;stroke-width:1.5;"/>
   </g>
   <g id="line2d_16">
    <path clip-path="url(#pba017efcba)" d="M 90.996818 352.966364 
L 95.793788 352.966364 
L 100.590758 352.426444 
L 105.387727 350.456762 
L 110.184697 347.520467 
L 114.981667 345.302893 
L 119.778636 344.787694 
L 124.575606 342.454377 
L 129.372576 341.598883 
L 134.169545 339.888132 
L 138.966515 341.973202 
L 143.763485 340.322553 
L 148.560455 339.64572 
L 153.357424 338.207506 
L 158.154394 340.259874 
L 162.951364 338.839659 
L 167.748333 338.686114 
L 172.545303 337.825658 
L 177.342273 336.308304 
L 182.139242 337.934355 
L 186.936212 336.779867 
L 191.733182 336.413214 
L 196.530152 336.520406 
L 201.327121 336.71651 
L 206.124091 335.892328 
L 210.921061 333.680178 
L 215.71803 335.883135 
L 220.515 333.304538 
L 225.31197 334.102109 
L 230.108939 334.881433 
L 234.905909 333.244146 
L 239.702879 334.094551 
L 244.499848 332.321988 
L 249.296818 334.16564 
L 254.093788 333.998518 
L 258.890758 335.234433 
L 263.687727 332.227237 
L 268.484697 332.412201 
L 273.281667 330.752124 
L 278.078636 332.805314 
L 282.875606 332.663997 
L 287.672576 331.995811 
L 292.469545 332.978299 
L 297.266515 332.015767 
L 302.063485 331.829365 
L 306.860455 332.036095 
L 311.657424 331.542142 
L 316.454394 330.188965 
L 321.251364 330.267804 
L 326.048333 329.966291 
L 330.845303 331.238916 
L 335.642273 331.039077 
L 340.439242 329.098295 
L 345.236212 327.481304 
L 350.033182 331.017455 
L 354.830152 330.898513 
L 359.627121 330.132822 
L 364.424091 330.60498 
L 369.221061 330.757316 
L 374.01803 332.89788 
L 378.815 332.008158 
L 383.61197 331.227643 
L 388.408939 331.675522 
L 393.205909 330.694832 
L 398.002879 330.121822 
L 402.799848 331.913172 
L 407.596818 329.802445 
L 412.393788 331.628804 
L 417.190758 332.099238 
L 421.987727 330.13745 
L 426.784697 330.050242 
L 431.581667 329.98692 
L 436.378636 329.184389 
L 441.175606 329.502238 
L 445.972576 331.565413 
L 450.769545 333.160987 
L 455.566515 328.782931 
L 460.363485 330.313998 
L 465.160455 335.112094 
L 469.957424 329.588955 
L 474.754394 328.160716 
L 479.551364 325.34874 
L 484.348333 331.064387 
L 489.145303 332.700742 
L 493.942273 332.931033 
L 498.739242 310.987576 
L 503.536212 338.973434 
L 508.333182 352.966364 
" style="fill:none;stroke:#9467bd;stroke-linecap:square;stroke-width:1.5;"/>
   </g>
   <g id="line2d_17">
    <path clip-path="url(#pba017efcba)" d="M 90.996818 352.966364 
L 95.793788 352.966364 
L 100.590758 352.966364 
L 105.387727 352.966364 
L 110.184697 352.577371 
L 114.981667 352.285166 
L 119.778636 352.511993 
L 124.575606 351.998154 
L 129.372576 352.072292 
L 134.169545 349.813576 
L 138.966515 351.026394 
L 143.763485 349.554542 
L 148.560455 349.964529 
L 153.357424 349.608061 
L 158.154394 348.870192 
L 162.951364 349.595218 
L 167.748333 349.724361 
L 172.545303 350.057558 
L 177.342273 349.320179 
L 182.139242 348.948592 
L 186.936212 349.580067 
L 191.733182 349.986797 
L 196.530152 348.934864 
L 201.327121 349.091399 
L 206.124091 349.097068 
L 210.921061 348.781625 
L 215.71803 348.770483 
L 220.515 348.88002 
L 225.31197 348.075631 
L 230.108939 349.1319 
L 234.905909 349.822242 
L 239.702879 348.549557 
L 244.499848 349.109722 
L 249.296818 348.978331 
L 254.093788 348.351042 
L 258.890758 349.114059 
L 263.687727 348.659878 
L 268.484697 348.866763 
L 273.281667 348.679405 
L 278.078636 349.316034 
L 282.875606 347.918814 
L 287.672576 349.235753 
L 292.469545 348.518153 
L 297.266515 348.136087 
L 302.063485 347.829719 
L 306.860455 347.999859 
L 311.657424 348.669242 
L 316.454394 349.254025 
L 321.251364 348.214048 
L 326.048333 348.642099 
L 330.845303 348.1876 
L 335.642273 349.214792 
L 340.439242 348.614351 
L 345.236212 347.703145 
L 350.033182 348.576582 
L 354.830152 347.430699 
L 359.627121 347.336175 
L 364.424091 347.887954 
L 369.221061 348.116112 
L 374.01803 348.192363 
L 378.815 347.352558 
L 383.61197 348.420995 
L 388.408939 349.038927 
L 393.205909 348.232318 
L 398.002879 349.46975 
L 402.799848 348.11775 
L 407.596818 347.524238 
L 412.393788 349.236021 
L 417.190758 349.379826 
L 421.987727 348.060977 
L 426.784697 349.078807 
L 431.581667 347.334147 
L 436.378636 347.831619 
L 441.175606 346.367078 
L 445.972576 348.439239 
L 450.769545 348.230295 
L 455.566515 347.49087 
L 460.363485 347.033601 
L 465.160455 347.865144 
L 469.957424 346.179374 
L 474.754394 348.196047 
L 479.551364 348.547544 
L 484.348333 348.859743 
L 489.145303 352.966364 
L 493.942273 347.241983 
L 498.739242 338.973434 
L 503.536212 352.966364 
L 508.333182 352.966364 
" style="fill:none;stroke:#8c564b;stroke-linecap:square;stroke-width:1.5;"/>
   </g>
   <g id="line2d_18">
    <path clip-path="url(#pba017efcba)" d="M 90.996818 352.966364 
L 95.793788 352.966364 
L 100.590758 351.616563 
L 105.387727 349.316034 
L 110.184697 348.687445 
L 114.981667 349.390077 
L 119.778636 346.756633 
L 124.575606 346.050583 
L 129.372576 341.726607 
L 134.169545 343.85831 
L 138.966515 343.589844 
L 143.763485 342.028464 
L 148.560455 341.42806 
L 153.357424 343.863595 
L 158.154394 341.430208 
L 162.951364 343.173989 
L 167.748333 340.384306 
L 172.545303 341.480311 
L 177.342273 341.813328 
L 182.139242 341.467224 
L 186.936212 341.452956 
L 191.733182 340.783245 
L 196.530152 342.343683 
L 201.327121 341.15397 
L 206.124091 340.007294 
L 210.921061 341.807061 
L 215.71803 340.378721 
L 220.515 340.233555 
L 225.31197 339.807964 
L 230.108939 339.860512 
L 234.905909 339.532389 
L 239.702879 339.945387 
L 244.499848 340.375563 
L 249.296818 339.862829 
L 254.093788 338.951546 
L 258.890758 339.653253 
L 263.687727 338.630301 
L 268.484697 340.555244 
L 273.281667 339.938464 
L 278.078636 338.982794 
L 282.875606 339.394063 
L 287.672576 339.343983 
L 292.469545 339.852807 
L 297.266515 340.570594 
L 302.063485 339.977147 
L 306.860455 338.007725 
L 311.657424 338.847249 
L 316.454394 337.991168 
L 321.251364 337.271216 
L 326.048333 338.552149 
L 330.845303 338.375204 
L 335.642273 338.089443 
L 340.439242 338.142321 
L 345.236212 340.639351 
L 350.033182 338.6456 
L 354.830152 337.631077 
L 359.627121 339.516469 
L 364.424091 339.123602 
L 369.221061 337.479595 
L 374.01803 341.384992 
L 378.815 339.773921 
L 383.61197 337.057572 
L 388.408939 338.393506 
L 393.205909 339.087004 
L 398.002879 337.115049 
L 402.799848 337.016976 
L 407.596818 339.151738 
L 412.393788 338.343421 
L 417.190758 337.479044 
L 421.987727 340.136891 
L 426.784697 337.620747 
L 431.581667 338.097312 
L 436.378636 339.183629 
L 441.175606 341.234301 
L 445.972576 338.973434 
L 450.769545 338.327607 
L 455.566515 342.471667 
L 460.363485 342.179523 
L 465.160455 337.025052 
L 469.957424 336.375944 
L 474.754394 339.609477 
L 479.551364 340.814609 
L 484.348333 339.277628 
L 489.145303 347.176186 
L 493.942273 330.068843 
L 498.739242 352.966364 
L 503.536212 338.973434 
L 508.333182 338.973434 
" style="fill:none;stroke:#e377c2;stroke-linecap:square;stroke-width:1.5;"/>
   </g>
   <g id="line2d_19">
    <path clip-path="url(#pba017efcba)" d="M 90.996818 352.966364 
L 95.793788 352.966364 
L 100.590758 352.966364 
L 105.387727 352.966364 
L 110.184697 352.966364 
L 114.981667 352.796064 
L 119.778636 352.209079 
L 124.575606 351.306576 
L 129.372576 351.43367 
L 134.169545 350.981275 
L 138.966515 349.948633 
L 143.763485 350.658367 
L 148.560455 349.964529 
L 153.357424 349.342931 
L 158.154394 349.538955 
L 162.951364 348.391238 
L 167.748333 349.724361 
L 172.545303 348.342109 
L 177.342273 349.391673 
L 182.139242 348.810048 
L 186.936212 348.970534 
L 191.733182 348.79497 
L 196.530152 349.446801 
L 201.327121 350.09139 
L 206.124091 348.912816 
L 210.921061 348.357087 
L 215.71803 348.290954 
L 220.515 348.88002 
L 225.31197 348.890753 
L 230.108939 348.788516 
L 234.905909 349.079086 
L 239.702879 349.008446 
L 244.499848 348.939576 
L 249.296818 348.6365 
L 254.093788 348.857602 
L 258.890758 348.207635 
L 263.687727 348.716543 
L 268.484697 349.091399 
L 273.281667 349.124803 
L 278.078636 348.249015 
L 282.875606 348.423569 
L 287.672576 348.331363 
L 292.469545 348.344846 
L 297.266515 347.961499 
L 302.063485 348.124928 
L 306.860455 348.236359 
L 311.657424 348.300917 
L 316.454394 349.379867 
L 321.251364 349.339596 
L 326.048333 348.892781 
L 330.845303 348.506184 
L 335.642273 348.115194 
L 340.439242 347.730349 
L 345.236212 348.811191 
L 350.033182 347.856945 
L 354.830152 349.375662 
L 359.627121 348.82192 
L 364.424091 348.133684 
L 369.221061 347.690651 
L 374.01803 347.131474 
L 378.815 347.820376 
L 383.61197 347.82812 
L 388.408939 347.075208 
L 393.205909 347.694359 
L 398.002879 349.003535 
L 402.799848 348.88332 
L 407.596818 348.780113 
L 412.393788 346.997816 
L 417.190758 348.727729 
L 421.987727 348.438315 
L 426.784697 346.623509 
L 431.581667 348.235302 
L 436.378636 345.399372 
L 441.175606 348.56684 
L 445.972576 350.497023 
L 450.769545 347.799744 
L 455.566515 350.684908 
L 460.363485 345.954917 
L 465.160455 351.053406 
L 469.957424 349.195814 
L 474.754394 349.15011 
L 479.551364 347.442839 
L 484.348333 351.59749 
L 489.145303 350.071275 
L 493.942273 352.966364 
L 498.739242 352.966364 
L 503.536212 352.966364 
L 508.333182 352.966364 
" style="fill:none;stroke:#7f7f7f;stroke-linecap:square;stroke-width:1.5;"/>
   </g>
   <g id="line2d_20">
    <path clip-path="url(#pba017efcba)" d="M 90.996818 352.966364 
L 95.793788 352.966364 
L 100.590758 350.536723 
L 105.387727 350.228617 
L 110.184697 348.298452 
L 114.981667 346.494989 
L 119.778636 342.061471 
L 124.575606 341.486168 
L 129.372576 341.598883 
L 134.169545 339.771362 
L 138.966515 338.093263 
L 143.763485 337.813861 
L 148.560455 336.737693 
L 153.357424 337.942376 
L 158.154394 334.575391 
L 162.951364 335.307983 
L 167.748333 334.054682 
L 172.545303 333.723496 
L 177.342273 332.733613 
L 182.139242 331.838426 
L 186.936212 328.788207 
L 191.733182 330.983781 
L 196.530152 329.673256 
L 201.327121 329.591575 
L 206.124091 330.733267 
L 210.921061 330.223221 
L 215.71803 329.589314 
L 220.515 328.981305 
L 225.31197 330.201168 
L 230.108939 329.444507 
L 234.905909 328.042054 
L 239.702879 327.268577 
L 244.499848 327.387755 
L 249.296818 325.904716 
L 254.093788 327.807233 
L 258.890758 325.15046 
L 263.687727 325.597516 
L 268.484697 325.167701 
L 273.281667 325.964093 
L 278.078636 325.616973 
L 282.875606 325.48526 
L 287.672576 323.064956 
L 292.469545 325.641639 
L 297.266515 324.275686 
L 302.063485 324.626254 
L 306.860455 325.177589 
L 311.657424 325.096459 
L 316.454394 325.029444 
L 321.251364 323.13933 
L 326.048333 323.072537 
L 330.845303 321.745105 
L 335.642273 322.82443 
L 340.439242 323.250278 
L 345.236212 320.90228 
L 350.033182 319.863091 
L 354.830152 321.173697 
L 359.627121 321.68754 
L 364.424091 320.284341 
L 369.221061 323.269208 
L 374.01803 320.962879 
L 378.815 321.529054 
L 383.61197 323.421465 
L 388.408939 320.306626 
L 393.205909 321.979885 
L 398.002879 321.263734 
L 402.799848 318.898472 
L 407.596818 322.127653 
L 412.393788 322.526769 
L 417.190758 322.643822 
L 421.987727 320.892683 
L 426.784697 324.730428 
L 431.581667 323.904126 
L 436.378636 327.562891 
L 441.175606 326.569222 
L 445.972576 323.334278 
L 450.769545 325.411057 
L 455.566515 324.676311 
L 460.363485 325.999262 
L 465.160455 325.547307 
L 469.957424 331.097175 
L 474.754394 319.574146 
L 479.551364 322.034625 
L 484.348333 324.22002 
L 489.145303 329.805653 
L 493.942273 332.931033 
L 498.739242 324.980505 
L 503.536212 310.987576 
L 508.333182 324.980505 
" style="fill:none;stroke:#bcbd22;stroke-linecap:square;stroke-width:1.5;"/>
   </g>
   <g id="patch_3">
    <path d="M 70.13 365.56 
L 70.13 88.5 
" style="fill:none;stroke:#000000;stroke-linecap:square;stroke-linejoin:miter;stroke-width:0.8;"/>
   </g>
   <g id="patch_4">
    <path d="M 529.2 365.56 
L 529.2 88.5 
" style="fill:none;stroke:#000000;stroke-linecap:square;stroke-linejoin:miter;stroke-width:0.8;"/>
   </g>
   <g id="patch_5">
    <path d="M 70.13 365.56 
L 529.2 365.56 
" style="fill:none;stroke:#000000;stroke-linecap:square;stroke-linejoin:miter;stroke-width:0.8;"/>
   </g>
   <g id="patch_6">
    <path d="M 70.13 88.5 
L 529.2 88.5 
" style="fill:none;stroke:#000000;stroke-linecap:square;stroke-linejoin:miter;stroke-width:0.8;"/>
   </g>
   <g id="legend_1">
    <g id="patch_7">
     <path d="M 80.63 81 
L 518.7 81 
Q 521.7 81 521.7 78 
L 521.7 13.448438 
Q 521.7 10.448438 518.7 10.448438 
L 80.63 10.448438 
Q 77.63 10.448438 77.63 13.448438 
L 77.63 78 
Q 77.63 81 80.63 81 
z
" style="fill:#ffffff;opacity:0.8;stroke:#cccccc;stroke-linejoin:miter;"/>
    </g>
    <g id="line2d_21">
     <path d="M 83.63 22.596094 
L 113.63 22.596094 
" style="fill:none;stroke:#1f77b4;stroke-linecap:square;stroke-width:1.5;"/>
    </g>
    <g id="line2d_22"/>
    <g id="text_14">
     <!-- Stra 1 -->
     <defs>
      <path d="M 53.515625 70.515625 
L 53.515625 60.890625 
Q 47.90625 63.578125 42.921875 64.890625 
Q 37.9375 66.21875 33.296875 66.21875 
Q 25.25 66.21875 20.875 63.09375 
Q 16.5 59.96875 16.5 54.203125 
Q 16.5 49.359375 19.40625 46.890625 
Q 22.3125 44.4375 30.421875 42.921875 
L 36.375 41.703125 
Q 47.40625 39.59375 52.65625 34.296875 
Q 57.90625 29 57.90625 20.125 
Q 57.90625 9.515625 50.796875 4.046875 
Q 43.703125 -1.421875 29.984375 -1.421875 
Q 24.8125 -1.421875 18.96875 -0.25 
Q 13.140625 0.921875 6.890625 3.21875 
L 6.890625 13.375 
Q 12.890625 10.015625 18.65625 8.296875 
Q 24.421875 6.59375 29.984375 6.59375 
Q 38.421875 6.59375 43.015625 9.90625 
Q 47.609375 13.234375 47.609375 19.390625 
Q 47.609375 24.75 44.3125 27.78125 
Q 41.015625 30.8125 33.5 32.328125 
L 27.484375 33.5 
Q 16.453125 35.6875 11.515625 40.375 
Q 6.59375 45.0625 6.59375 53.421875 
Q 6.59375 63.09375 13.40625 68.65625 
Q 20.21875 74.21875 32.171875 74.21875 
Q 37.3125 74.21875 42.625 73.28125 
Q 47.953125 72.359375 53.515625 70.515625 
z
" id="DejaVuSans-83"/>
     </defs>
     <g transform="translate(125.63 27.846094)scale(0.15 -0.15)">
      <use xlink:href="#DejaVuSans-83"/>
      <use x="63.476562" xlink:href="#DejaVuSans-116"/>
      <use x="102.685547" xlink:href="#DejaVuSans-114"/>
      <use x="143.798828" xlink:href="#DejaVuSans-97"/>
      <use x="205.078125" xlink:href="#DejaVuSans-32"/>
      <use x="236.865234" xlink:href="#DejaVuSans-49"/>
     </g>
    </g>
    <g id="line2d_23">
     <path d="M 83.63 44.613281 
L 113.63 44.613281 
" style="fill:none;stroke:#ff7f0e;stroke-linecap:square;stroke-width:1.5;"/>
    </g>
    <g id="line2d_24"/>
    <g id="text_15">
     <!-- Stra 2 -->
     <g transform="translate(125.63 49.863281)scale(0.15 -0.15)">
      <use xlink:href="#DejaVuSans-83"/>
      <use x="63.476562" xlink:href="#DejaVuSans-116"/>
      <use x="102.685547" xlink:href="#DejaVuSans-114"/>
      <use x="143.798828" xlink:href="#DejaVuSans-97"/>
      <use x="205.078125" xlink:href="#DejaVuSans-32"/>
      <use x="236.865234" xlink:href="#DejaVuSans-50"/>
     </g>
    </g>
    <g id="line2d_25">
     <path d="M 83.63 66.630469 
L 113.63 66.630469 
" style="fill:none;stroke:#2ca02c;stroke-linecap:square;stroke-width:1.5;"/>
    </g>
    <g id="line2d_26"/>
    <g id="text_16">
     <!-- Stra 3 -->
     <defs>
      <path d="M 40.578125 39.3125 
Q 47.65625 37.796875 51.625 33 
Q 55.609375 28.21875 55.609375 21.1875 
Q 55.609375 10.40625 48.1875 4.484375 
Q 40.765625 -1.421875 27.09375 -1.421875 
Q 22.515625 -1.421875 17.65625 -0.515625 
Q 12.796875 0.390625 7.625 2.203125 
L 7.625 11.71875 
Q 11.71875 9.328125 16.59375 8.109375 
Q 21.484375 6.890625 26.8125 6.890625 
Q 36.078125 6.890625 40.9375 10.546875 
Q 45.796875 14.203125 45.796875 21.1875 
Q 45.796875 27.640625 41.28125 31.265625 
Q 36.765625 34.90625 28.71875 34.90625 
L 20.21875 34.90625 
L 20.21875 43.015625 
L 29.109375 43.015625 
Q 36.375 43.015625 40.234375 45.921875 
Q 44.09375 48.828125 44.09375 54.296875 
Q 44.09375 59.90625 40.109375 62.90625 
Q 36.140625 65.921875 28.71875 65.921875 
Q 24.65625 65.921875 20.015625 65.03125 
Q 15.375 64.15625 9.8125 62.3125 
L 9.8125 71.09375 
Q 15.4375 72.65625 20.34375 73.4375 
Q 25.25 74.21875 29.59375 74.21875 
Q 40.828125 74.21875 47.359375 69.109375 
Q 53.90625 64.015625 53.90625 55.328125 
Q 53.90625 49.265625 50.4375 45.09375 
Q 46.96875 40.921875 40.578125 39.3125 
z
" id="DejaVuSans-51"/>
     </defs>
     <g transform="translate(125.63 71.880469)scale(0.15 -0.15)">
      <use xlink:href="#DejaVuSans-83"/>
      <use x="63.476562" xlink:href="#DejaVuSans-116"/>
      <use x="102.685547" xlink:href="#DejaVuSans-114"/>
      <use x="143.798828" xlink:href="#DejaVuSans-97"/>
      <use x="205.078125" xlink:href="#DejaVuSans-32"/>
      <use x="236.865234" xlink:href="#DejaVuSans-51"/>
     </g>
    </g>
    <g id="line2d_27">
     <path d="M 198.629115 22.596094 
L 228.629115 22.596094 
" style="fill:none;stroke:#d62728;stroke-linecap:square;stroke-width:1.5;"/>
    </g>
    <g id="line2d_28"/>
    <g id="text_17">
     <!-- Stra 4 -->
     <g transform="translate(240.629115 27.846094)scale(0.15 -0.15)">
      <use xlink:href="#DejaVuSans-83"/>
      <use x="63.476562" xlink:href="#DejaVuSans-116"/>
      <use x="102.685547" xlink:href="#DejaVuSans-114"/>
      <use x="143.798828" xlink:href="#DejaVuSans-97"/>
      <use x="205.078125" xlink:href="#DejaVuSans-32"/>
      <use x="236.865234" xlink:href="#DejaVuSans-52"/>
     </g>
    </g>
    <g id="line2d_29">
     <path d="M 198.629115 44.613281 
L 228.629115 44.613281 
" style="fill:none;stroke:#9467bd;stroke-linecap:square;stroke-width:1.5;"/>
    </g>
    <g id="line2d_30"/>
    <g id="text_18">
     <!-- Stra 5 -->
     <defs>
      <path d="M 10.796875 72.90625 
L 49.515625 72.90625 
L 49.515625 64.59375 
L 19.828125 64.59375 
L 19.828125 46.734375 
Q 21.96875 47.46875 24.109375 47.828125 
Q 26.265625 48.1875 28.421875 48.1875 
Q 40.625 48.1875 47.75 41.5 
Q 54.890625 34.8125 54.890625 23.390625 
Q 54.890625 11.625 47.5625 5.09375 
Q 40.234375 -1.421875 26.90625 -1.421875 
Q 22.3125 -1.421875 17.546875 -0.640625 
Q 12.796875 0.140625 7.71875 1.703125 
L 7.71875 11.625 
Q 12.109375 9.234375 16.796875 8.0625 
Q 21.484375 6.890625 26.703125 6.890625 
Q 35.15625 6.890625 40.078125 11.328125 
Q 45.015625 15.765625 45.015625 23.390625 
Q 45.015625 31 40.078125 35.4375 
Q 35.15625 39.890625 26.703125 39.890625 
Q 22.75 39.890625 18.8125 39.015625 
Q 14.890625 38.140625 10.796875 36.28125 
z
" id="DejaVuSans-53"/>
     </defs>
     <g transform="translate(240.629115 49.863281)scale(0.15 -0.15)">
      <use xlink:href="#DejaVuSans-83"/>
      <use x="63.476562" xlink:href="#DejaVuSans-116"/>
      <use x="102.685547" xlink:href="#DejaVuSans-114"/>
      <use x="143.798828" xlink:href="#DejaVuSans-97"/>
      <use x="205.078125" xlink:href="#DejaVuSans-32"/>
      <use x="236.865234" xlink:href="#DejaVuSans-53"/>
     </g>
    </g>
    <g id="line2d_31">
     <path d="M 313.628229 22.596094 
L 343.628229 22.596094 
" style="fill:none;stroke:#8c564b;stroke-linecap:square;stroke-width:1.5;"/>
    </g>
    <g id="line2d_32"/>
    <g id="text_19">
     <!-- Stra 6 -->
     <g transform="translate(355.628229 27.846094)scale(0.15 -0.15)">
      <use xlink:href="#DejaVuSans-83"/>
      <use x="63.476562" xlink:href="#DejaVuSans-116"/>
      <use x="102.685547" xlink:href="#DejaVuSans-114"/>
      <use x="143.798828" xlink:href="#DejaVuSans-97"/>
      <use x="205.078125" xlink:href="#DejaVuSans-32"/>
      <use x="236.865234" xlink:href="#DejaVuSans-54"/>
     </g>
    </g>
    <g id="line2d_33">
     <path d="M 313.628229 44.613281 
L 343.628229 44.613281 
" style="fill:none;stroke:#e377c2;stroke-linecap:square;stroke-width:1.5;"/>
    </g>
    <g id="line2d_34"/>
    <g id="text_20">
     <!-- Stra 7 -->
     <defs>
      <path d="M 8.203125 72.90625 
L 55.078125 72.90625 
L 55.078125 68.703125 
L 28.609375 0 
L 18.3125 0 
L 43.21875 64.59375 
L 8.203125 64.59375 
z
" id="DejaVuSans-55"/>
     </defs>
     <g transform="translate(355.628229 49.863281)scale(0.15 -0.15)">
      <use xlink:href="#DejaVuSans-83"/>
      <use x="63.476562" xlink:href="#DejaVuSans-116"/>
      <use x="102.685547" xlink:href="#DejaVuSans-114"/>
      <use x="143.798828" xlink:href="#DejaVuSans-97"/>
      <use x="205.078125" xlink:href="#DejaVuSans-32"/>
      <use x="236.865234" xlink:href="#DejaVuSans-55"/>
     </g>
    </g>
    <g id="line2d_35">
     <path d="M 428.627344 22.596094 
L 458.627344 22.596094 
" style="fill:none;stroke:#7f7f7f;stroke-linecap:square;stroke-width:1.5;"/>
    </g>
    <g id="line2d_36"/>
    <g id="text_21">
     <!-- Stra 8 -->
     <g transform="translate(470.627344 27.846094)scale(0.15 -0.15)">
      <use xlink:href="#DejaVuSans-83"/>
      <use x="63.476562" xlink:href="#DejaVuSans-116"/>
      <use x="102.685547" xlink:href="#DejaVuSans-114"/>
      <use x="143.798828" xlink:href="#DejaVuSans-97"/>
      <use x="205.078125" xlink:href="#DejaVuSans-32"/>
      <use x="236.865234" xlink:href="#DejaVuSans-56"/>
     </g>
    </g>
    <g id="line2d_37">
     <path d="M 428.627344 44.613281 
L 458.627344 44.613281 
" style="fill:none;stroke:#bcbd22;stroke-linecap:square;stroke-width:1.5;"/>
    </g>
    <g id="line2d_38"/>
    <g id="text_22">
     <!-- Stra 9 -->
     <defs>
      <path d="M 10.984375 1.515625 
L 10.984375 10.5 
Q 14.703125 8.734375 18.5 7.8125 
Q 22.3125 6.890625 25.984375 6.890625 
Q 35.75 6.890625 40.890625 13.453125 
Q 46.046875 20.015625 46.78125 33.40625 
Q 43.953125 29.203125 39.59375 26.953125 
Q 35.25 24.703125 29.984375 24.703125 
Q 19.046875 24.703125 12.671875 31.3125 
Q 6.296875 37.9375 6.296875 49.421875 
Q 6.296875 60.640625 12.9375 67.421875 
Q 19.578125 74.21875 30.609375 74.21875 
Q 43.265625 74.21875 49.921875 64.515625 
Q 56.59375 54.828125 56.59375 36.375 
Q 56.59375 19.140625 48.40625 8.859375 
Q 40.234375 -1.421875 26.421875 -1.421875 
Q 22.703125 -1.421875 18.890625 -0.6875 
Q 15.09375 0.046875 10.984375 1.515625 
z
M 30.609375 32.421875 
Q 37.25 32.421875 41.125 36.953125 
Q 45.015625 41.5 45.015625 49.421875 
Q 45.015625 57.28125 41.125 61.84375 
Q 37.25 66.40625 30.609375 66.40625 
Q 23.96875 66.40625 20.09375 61.84375 
Q 16.21875 57.28125 16.21875 49.421875 
Q 16.21875 41.5 20.09375 36.953125 
Q 23.96875 32.421875 30.609375 32.421875 
z
" id="DejaVuSans-57"/>
     </defs>
     <g transform="translate(470.627344 49.863281)scale(0.15 -0.15)">
      <use xlink:href="#DejaVuSans-83"/>
      <use x="63.476562" xlink:href="#DejaVuSans-116"/>
      <use x="102.685547" xlink:href="#DejaVuSans-114"/>
      <use x="143.798828" xlink:href="#DejaVuSans-97"/>
      <use x="205.078125" xlink:href="#DejaVuSans-32"/>
      <use x="236.865234" xlink:href="#DejaVuSans-57"/>
     </g>
    </g>
   </g>
  </g>
 </g>
 <defs>
  <clipPath id="pba017efcba">
   <rect height="277.06" width="459.07" x="70.13" y="88.5"/>
  </clipPath>
 </defs>
</svg>
