<?xml version="1.0" encoding="utf-8" standalone="no"?>
<!DOCTYPE svg PUBLIC "-//W3C//DTD SVG 1.1//EN"
  "http://www.w3.org/Graphics/SVG/1.1/DTD/svg11.dtd">
<!-- Created with matplotlib (https://matplotlib.org/) -->
<svg height="432pt" version="1.1" viewBox="0 0 540 432" width="540pt" xmlns="http://www.w3.org/2000/svg" xmlns:xlink="http://www.w3.org/1999/xlink">
 <defs>
  <style type="text/css">
*{stroke-linecap:butt;stroke-linejoin:round;}
  </style>
 </defs>
 <g id="figure_1">
  <g id="patch_1">
   <path d="M 0 432 
L 540 432 
L 540 0 
L 0 0 
z
" style="fill:#ffffff;"/>
  </g>
  <g id="axes_1">
   <g id="patch_2">
    <path d="M 70.13 365.56 
L 529.2 365.56 
L 529.2 88.5 
L 70.13 88.5 
z
" style="fill:#ffffff;"/>
   </g>
   <g id="matplotlib.axis_1">
    <g id="xtick_1">
     <g id="line2d_1">
      <defs>
       <path d="M 0 0 
L 0 3.5 
" id="m6f1d2d0b44" style="stroke:#000000;stroke-width:0.8;"/>
      </defs>
      <g>
       <use style="stroke:#000000;stroke-width:0.8;" x="90.996818" xlink:href="#m6f1d2d0b44" y="365.56"/>
      </g>
     </g>
     <g id="text_1">
      <!-- 0 -->
      <defs>
       <path d="M 31.78125 66.40625 
Q 24.171875 66.40625 20.328125 58.90625 
Q 16.5 51.421875 16.5 36.375 
Q 16.5 21.390625 20.328125 13.890625 
Q 24.171875 6.390625 31.78125 6.390625 
Q 39.453125 6.390625 43.28125 13.890625 
Q 47.125 21.390625 47.125 36.375 
Q 47.125 51.421875 43.28125 58.90625 
Q 39.453125 66.40625 31.78125 66.40625 
z
M 31.78125 74.21875 
Q 44.046875 74.21875 50.515625 64.515625 
Q 56.984375 54.828125 56.984375 36.375 
Q 56.984375 17.96875 50.515625 8.265625 
Q 44.046875 -1.421875 31.78125 -1.421875 
Q 19.53125 -1.421875 13.0625 8.265625 
Q 6.59375 17.96875 6.59375 36.375 
Q 6.59375 54.828125 13.0625 64.515625 
Q 19.53125 74.21875 31.78125 74.21875 
z
" id="DejaVuSans-48"/>
      </defs>
      <g transform="translate(84.634318 387.756875)scale(0.2 -0.2)">
       <use xlink:href="#DejaVuSans-48"/>
      </g>
     </g>
    </g>
    <g id="xtick_2">
     <g id="line2d_2">
      <g>
       <use style="stroke:#000000;stroke-width:0.8;" x="186.936212" xlink:href="#m6f1d2d0b44" y="365.56"/>
      </g>
     </g>
     <g id="text_2">
      <!-- 20 -->
      <defs>
       <path d="M 19.1875 8.296875 
L 53.609375 8.296875 
L 53.609375 0 
L 7.328125 0 
L 7.328125 8.296875 
Q 12.9375 14.109375 22.625 23.890625 
Q 32.328125 33.6875 34.8125 36.53125 
Q 39.546875 41.84375 41.421875 45.53125 
Q 43.3125 49.21875 43.3125 52.78125 
Q 43.3125 58.59375 39.234375 62.25 
Q 35.15625 65.921875 28.609375 65.921875 
Q 23.96875 65.921875 18.8125 64.3125 
Q 13.671875 62.703125 7.8125 59.421875 
L 7.8125 69.390625 
Q 13.765625 71.78125 18.9375 73 
Q 24.125 74.21875 28.421875 74.21875 
Q 39.75 74.21875 46.484375 68.546875 
Q 53.21875 62.890625 53.21875 53.421875 
Q 53.21875 48.921875 51.53125 44.890625 
Q 49.859375 40.875 45.40625 35.40625 
Q 44.1875 33.984375 37.640625 27.21875 
Q 31.109375 20.453125 19.1875 8.296875 
z
" id="DejaVuSans-50"/>
      </defs>
      <g transform="translate(174.211212 387.756875)scale(0.2 -0.2)">
       <use xlink:href="#DejaVuSans-50"/>
       <use x="63.623047" xlink:href="#DejaVuSans-48"/>
      </g>
     </g>
    </g>
    <g id="xtick_3">
     <g id="line2d_3">
      <g>
       <use style="stroke:#000000;stroke-width:0.8;" x="282.875606" xlink:href="#m6f1d2d0b44" y="365.56"/>
      </g>
     </g>
     <g id="text_3">
      <!-- 40 -->
      <defs>
       <path d="M 37.796875 64.3125 
L 12.890625 25.390625 
L 37.796875 25.390625 
z
M 35.203125 72.90625 
L 47.609375 72.90625 
L 47.609375 25.390625 
L 58.015625 25.390625 
L 58.015625 17.1875 
L 47.609375 17.1875 
L 47.609375 0 
L 37.796875 0 
L 37.796875 17.1875 
L 4.890625 17.1875 
L 4.890625 26.703125 
z
" id="DejaVuSans-52"/>
      </defs>
      <g transform="translate(270.150606 387.756875)scale(0.2 -0.2)">
       <use xlink:href="#DejaVuSans-52"/>
       <use x="63.623047" xlink:href="#DejaVuSans-48"/>
      </g>
     </g>
    </g>
    <g id="xtick_4">
     <g id="line2d_4">
      <g>
       <use style="stroke:#000000;stroke-width:0.8;" x="378.815" xlink:href="#m6f1d2d0b44" y="365.56"/>
      </g>
     </g>
     <g id="text_4">
      <!-- 60 -->
      <defs>
       <path d="M 33.015625 40.375 
Q 26.375 40.375 22.484375 35.828125 
Q 18.609375 31.296875 18.609375 23.390625 
Q 18.609375 15.53125 22.484375 10.953125 
Q 26.375 6.390625 33.015625 6.390625 
Q 39.65625 6.390625 43.53125 10.953125 
Q 47.40625 15.53125 47.40625 23.390625 
Q 47.40625 31.296875 43.53125 35.828125 
Q 39.65625 40.375 33.015625 40.375 
z
M 52.59375 71.296875 
L 52.59375 62.3125 
Q 48.875 64.0625 45.09375 64.984375 
Q 41.3125 65.921875 37.59375 65.921875 
Q 27.828125 65.921875 22.671875 59.328125 
Q 17.53125 52.734375 16.796875 39.40625 
Q 19.671875 43.65625 24.015625 45.921875 
Q 28.375 48.1875 33.59375 48.1875 
Q 44.578125 48.1875 50.953125 41.515625 
Q 57.328125 34.859375 57.328125 23.390625 
Q 57.328125 12.15625 50.6875 5.359375 
Q 44.046875 -1.421875 33.015625 -1.421875 
Q 20.359375 -1.421875 13.671875 8.265625 
Q 6.984375 17.96875 6.984375 36.375 
Q 6.984375 53.65625 15.1875 63.9375 
Q 23.390625 74.21875 37.203125 74.21875 
Q 40.921875 74.21875 44.703125 73.484375 
Q 48.484375 72.75 52.59375 71.296875 
z
" id="DejaVuSans-54"/>
      </defs>
      <g transform="translate(366.09 387.756875)scale(0.2 -0.2)">
       <use xlink:href="#DejaVuSans-54"/>
       <use x="63.623047" xlink:href="#DejaVuSans-48"/>
      </g>
     </g>
    </g>
    <g id="xtick_5">
     <g id="line2d_5">
      <g>
       <use style="stroke:#000000;stroke-width:0.8;" x="474.754394" xlink:href="#m6f1d2d0b44" y="365.56"/>
      </g>
     </g>
     <g id="text_5">
      <!-- 80 -->
      <defs>
       <path d="M 31.78125 34.625 
Q 24.75 34.625 20.71875 30.859375 
Q 16.703125 27.09375 16.703125 20.515625 
Q 16.703125 13.921875 20.71875 10.15625 
Q 24.75 6.390625 31.78125 6.390625 
Q 38.8125 6.390625 42.859375 10.171875 
Q 46.921875 13.96875 46.921875 20.515625 
Q 46.921875 27.09375 42.890625 30.859375 
Q 38.875 34.625 31.78125 34.625 
z
M 21.921875 38.8125 
Q 15.578125 40.375 12.03125 44.71875 
Q 8.5 49.078125 8.5 55.328125 
Q 8.5 64.0625 14.71875 69.140625 
Q 20.953125 74.21875 31.78125 74.21875 
Q 42.671875 74.21875 48.875 69.140625 
Q 55.078125 64.0625 55.078125 55.328125 
Q 55.078125 49.078125 51.53125 44.71875 
Q 48 40.375 41.703125 38.8125 
Q 48.828125 37.15625 52.796875 32.3125 
Q 56.78125 27.484375 56.78125 20.515625 
Q 56.78125 9.90625 50.3125 4.234375 
Q 43.84375 -1.421875 31.78125 -1.421875 
Q 19.734375 -1.421875 13.25 4.234375 
Q 6.78125 9.90625 6.78125 20.515625 
Q 6.78125 27.484375 10.78125 32.3125 
Q 14.796875 37.15625 21.921875 38.8125 
z
M 18.3125 54.390625 
Q 18.3125 48.734375 21.84375 45.5625 
Q 25.390625 42.390625 31.78125 42.390625 
Q 38.140625 42.390625 41.71875 45.5625 
Q 45.3125 48.734375 45.3125 54.390625 
Q 45.3125 60.0625 41.71875 63.234375 
Q 38.140625 66.40625 31.78125 66.40625 
Q 25.390625 66.40625 21.84375 63.234375 
Q 18.3125 60.0625 18.3125 54.390625 
z
" id="DejaVuSans-56"/>
      </defs>
      <g transform="translate(462.029394 387.756875)scale(0.2 -0.2)">
       <use xlink:href="#DejaVuSans-56"/>
       <use x="63.623047" xlink:href="#DejaVuSans-48"/>
      </g>
     </g>
    </g>
    <g id="text_6">
     <!-- # of games -->
     <defs>
      <path d="M 51.125 44 
L 36.921875 44 
L 32.8125 27.6875 
L 47.125 27.6875 
z
M 43.796875 71.78125 
L 38.71875 51.515625 
L 52.984375 51.515625 
L 58.109375 71.78125 
L 65.921875 71.78125 
L 60.890625 51.515625 
L 76.125 51.515625 
L 76.125 44 
L 58.984375 44 
L 54.984375 27.6875 
L 70.515625 27.6875 
L 70.515625 20.21875 
L 53.078125 20.21875 
L 48 0 
L 40.1875 0 
L 45.21875 20.21875 
L 30.90625 20.21875 
L 25.875 0 
L 18.015625 0 
L 23.09375 20.21875 
L 7.71875 20.21875 
L 7.71875 27.6875 
L 24.90625 27.6875 
L 29 44 
L 13.28125 44 
L 13.28125 51.515625 
L 30.90625 51.515625 
L 35.890625 71.78125 
z
" id="DejaVuSans-35"/>
      <path id="DejaVuSans-32"/>
      <path d="M 30.609375 48.390625 
Q 23.390625 48.390625 19.1875 42.75 
Q 14.984375 37.109375 14.984375 27.296875 
Q 14.984375 17.484375 19.15625 11.84375 
Q 23.34375 6.203125 30.609375 6.203125 
Q 37.796875 6.203125 41.984375 11.859375 
Q 46.1875 17.53125 46.1875 27.296875 
Q 46.1875 37.015625 41.984375 42.703125 
Q 37.796875 48.390625 30.609375 48.390625 
z
M 30.609375 56 
Q 42.328125 56 49.015625 48.375 
Q 55.71875 40.765625 55.71875 27.296875 
Q 55.71875 13.875 49.015625 6.21875 
Q 42.328125 -1.421875 30.609375 -1.421875 
Q 18.84375 -1.421875 12.171875 6.21875 
Q 5.515625 13.875 5.515625 27.296875 
Q 5.515625 40.765625 12.171875 48.375 
Q 18.84375 56 30.609375 56 
z
" id="DejaVuSans-111"/>
      <path d="M 37.109375 75.984375 
L 37.109375 68.5 
L 28.515625 68.5 
Q 23.6875 68.5 21.796875 66.546875 
Q 19.921875 64.59375 19.921875 59.515625 
L 19.921875 54.6875 
L 34.71875 54.6875 
L 34.71875 47.703125 
L 19.921875 47.703125 
L 19.921875 0 
L 10.890625 0 
L 10.890625 47.703125 
L 2.296875 47.703125 
L 2.296875 54.6875 
L 10.890625 54.6875 
L 10.890625 58.5 
Q 10.890625 67.625 15.140625 71.796875 
Q 19.390625 75.984375 28.609375 75.984375 
z
" id="DejaVuSans-102"/>
      <path d="M 45.40625 27.984375 
Q 45.40625 37.75 41.375 43.109375 
Q 37.359375 48.484375 30.078125 48.484375 
Q 22.859375 48.484375 18.828125 43.109375 
Q 14.796875 37.75 14.796875 27.984375 
Q 14.796875 18.265625 18.828125 12.890625 
Q 22.859375 7.515625 30.078125 7.515625 
Q 37.359375 7.515625 41.375 12.890625 
Q 45.40625 18.265625 45.40625 27.984375 
z
M 54.390625 6.78125 
Q 54.390625 -7.171875 48.1875 -13.984375 
Q 42 -20.796875 29.203125 -20.796875 
Q 24.46875 -20.796875 20.265625 -20.09375 
Q 16.0625 -19.390625 12.109375 -17.921875 
L 12.109375 -9.1875 
Q 16.0625 -11.328125 19.921875 -12.34375 
Q 23.78125 -13.375 27.78125 -13.375 
Q 36.625 -13.375 41.015625 -8.765625 
Q 45.40625 -4.15625 45.40625 5.171875 
L 45.40625 9.625 
Q 42.625 4.78125 38.28125 2.390625 
Q 33.9375 0 27.875 0 
Q 17.828125 0 11.671875 7.65625 
Q 5.515625 15.328125 5.515625 27.984375 
Q 5.515625 40.671875 11.671875 48.328125 
Q 17.828125 56 27.875 56 
Q 33.9375 56 38.28125 53.609375 
Q 42.625 51.21875 45.40625 46.390625 
L 45.40625 54.6875 
L 54.390625 54.6875 
z
" id="DejaVuSans-103"/>
      <path d="M 34.28125 27.484375 
Q 23.390625 27.484375 19.1875 25 
Q 14.984375 22.515625 14.984375 16.5 
Q 14.984375 11.71875 18.140625 8.90625 
Q 21.296875 6.109375 26.703125 6.109375 
Q 34.1875 6.109375 38.703125 11.40625 
Q 43.21875 16.703125 43.21875 25.484375 
L 43.21875 27.484375 
z
M 52.203125 31.203125 
L 52.203125 0 
L 43.21875 0 
L 43.21875 8.296875 
Q 40.140625 3.328125 35.546875 0.953125 
Q 30.953125 -1.421875 24.3125 -1.421875 
Q 15.921875 -1.421875 10.953125 3.296875 
Q 6 8.015625 6 15.921875 
Q 6 25.140625 12.171875 29.828125 
Q 18.359375 34.515625 30.609375 34.515625 
L 43.21875 34.515625 
L 43.21875 35.40625 
Q 43.21875 41.609375 39.140625 45 
Q 35.0625 48.390625 27.6875 48.390625 
Q 23 48.390625 18.546875 47.265625 
Q 14.109375 46.140625 10.015625 43.890625 
L 10.015625 52.203125 
Q 14.9375 54.109375 19.578125 55.046875 
Q 24.21875 56 28.609375 56 
Q 40.484375 56 46.34375 49.84375 
Q 52.203125 43.703125 52.203125 31.203125 
z
" id="DejaVuSans-97"/>
      <path d="M 52 44.1875 
Q 55.375 50.25 60.0625 53.125 
Q 64.75 56 71.09375 56 
Q 79.640625 56 84.28125 50.015625 
Q 88.921875 44.046875 88.921875 33.015625 
L 88.921875 0 
L 79.890625 0 
L 79.890625 32.71875 
Q 79.890625 40.578125 77.09375 44.375 
Q 74.3125 48.1875 68.609375 48.1875 
Q 61.625 48.1875 57.5625 43.546875 
Q 53.515625 38.921875 53.515625 30.90625 
L 53.515625 0 
L 44.484375 0 
L 44.484375 32.71875 
Q 44.484375 40.625 41.703125 44.40625 
Q 38.921875 48.1875 33.109375 48.1875 
Q 26.21875 48.1875 22.15625 43.53125 
Q 18.109375 38.875 18.109375 30.90625 
L 18.109375 0 
L 9.078125 0 
L 9.078125 54.6875 
L 18.109375 54.6875 
L 18.109375 46.1875 
Q 21.1875 51.21875 25.484375 53.609375 
Q 29.78125 56 35.6875 56 
Q 41.65625 56 45.828125 52.96875 
Q 50 49.953125 52 44.1875 
z
" id="DejaVuSans-109"/>
      <path d="M 56.203125 29.59375 
L 56.203125 25.203125 
L 14.890625 25.203125 
Q 15.484375 15.921875 20.484375 11.0625 
Q 25.484375 6.203125 34.421875 6.203125 
Q 39.59375 6.203125 44.453125 7.46875 
Q 49.3125 8.734375 54.109375 11.28125 
L 54.109375 2.78125 
Q 49.265625 0.734375 44.1875 -0.34375 
Q 39.109375 -1.421875 33.890625 -1.421875 
Q 20.796875 -1.421875 13.15625 6.1875 
Q 5.515625 13.8125 5.515625 26.8125 
Q 5.515625 40.234375 12.765625 48.109375 
Q 20.015625 56 32.328125 56 
Q 43.359375 56 49.78125 48.890625 
Q 56.203125 41.796875 56.203125 29.59375 
z
M 47.21875 32.234375 
Q 47.125 39.59375 43.09375 43.984375 
Q 39.0625 48.390625 32.421875 48.390625 
Q 24.90625 48.390625 20.390625 44.140625 
Q 15.875 39.890625 15.1875 32.171875 
z
" id="DejaVuSans-101"/>
      <path d="M 44.28125 53.078125 
L 44.28125 44.578125 
Q 40.484375 46.53125 36.375 47.5 
Q 32.28125 48.484375 27.875 48.484375 
Q 21.1875 48.484375 17.84375 46.4375 
Q 14.5 44.390625 14.5 40.28125 
Q 14.5 37.15625 16.890625 35.375 
Q 19.28125 33.59375 26.515625 31.984375 
L 29.59375 31.296875 
Q 39.15625 29.25 43.1875 25.515625 
Q 47.21875 21.78125 47.21875 15.09375 
Q 47.21875 7.46875 41.1875 3.015625 
Q 35.15625 -1.421875 24.609375 -1.421875 
Q 20.21875 -1.421875 15.453125 -0.5625 
Q 10.6875 0.296875 5.421875 2 
L 5.421875 11.28125 
Q 10.40625 8.6875 15.234375 7.390625 
Q 20.0625 6.109375 24.8125 6.109375 
Q 31.15625 6.109375 34.5625 8.28125 
Q 37.984375 10.453125 37.984375 14.40625 
Q 37.984375 18.0625 35.515625 20.015625 
Q 33.0625 21.96875 24.703125 23.78125 
L 21.578125 24.515625 
Q 13.234375 26.265625 9.515625 29.90625 
Q 5.8125 33.546875 5.8125 39.890625 
Q 5.8125 47.609375 11.28125 51.796875 
Q 16.75 56 26.8125 56 
Q 31.78125 56 36.171875 55.265625 
Q 40.578125 54.546875 44.28125 53.078125 
z
" id="DejaVuSans-115"/>
     </defs>
     <g transform="translate(227.221641 414.912344)scale(0.25 -0.25)">
      <use xlink:href="#DejaVuSans-35"/>
      <use x="83.789062" xlink:href="#DejaVuSans-32"/>
      <use x="115.576172" xlink:href="#DejaVuSans-111"/>
      <use x="176.757812" xlink:href="#DejaVuSans-102"/>
      <use x="211.962891" xlink:href="#DejaVuSans-32"/>
      <use x="243.75" xlink:href="#DejaVuSans-103"/>
      <use x="307.226562" xlink:href="#DejaVuSans-97"/>
      <use x="368.505859" xlink:href="#DejaVuSans-109"/>
      <use x="465.917969" xlink:href="#DejaVuSans-101"/>
      <use x="527.441406" xlink:href="#DejaVuSans-115"/>
     </g>
    </g>
   </g>
   <g id="matplotlib.axis_2">
    <g id="ytick_1">
     <g id="line2d_6">
      <defs>
       <path d="M 0 0 
L -3.5 0 
" id="mf639736c9d" style="stroke:#000000;stroke-width:0.8;"/>
      </defs>
      <g>
       <use style="stroke:#000000;stroke-width:0.8;" x="70.13" xlink:href="#mf639736c9d" y="352.966364"/>
      </g>
     </g>
     <g id="text_7">
      <!-- 0.0 -->
      <defs>
       <path d="M 10.6875 12.40625 
L 21 12.40625 
L 21 0 
L 10.6875 0 
z
" id="DejaVuSans-46"/>
      </defs>
      <g transform="translate(31.32375 360.564801)scale(0.2 -0.2)">
       <use xlink:href="#DejaVuSans-48"/>
       <use x="63.623047" xlink:href="#DejaVuSans-46"/>
       <use x="95.410156" xlink:href="#DejaVuSans-48"/>
      </g>
     </g>
    </g>
    <g id="ytick_2">
     <g id="line2d_7">
      <g>
       <use style="stroke:#000000;stroke-width:0.8;" x="70.13" xlink:href="#mf639736c9d" y="302.591818"/>
      </g>
     </g>
     <g id="text_8">
      <!-- 0.2 -->
      <g transform="translate(31.32375 310.190256)scale(0.2 -0.2)">
       <use xlink:href="#DejaVuSans-48"/>
       <use x="63.623047" xlink:href="#DejaVuSans-46"/>
       <use x="95.410156" xlink:href="#DejaVuSans-50"/>
      </g>
     </g>
    </g>
    <g id="ytick_3">
     <g id="line2d_8">
      <g>
       <use style="stroke:#000000;stroke-width:0.8;" x="70.13" xlink:href="#mf639736c9d" y="252.217273"/>
      </g>
     </g>
     <g id="text_9">
      <!-- 0.4 -->
      <g transform="translate(31.32375 259.81571)scale(0.2 -0.2)">
       <use xlink:href="#DejaVuSans-48"/>
       <use x="63.623047" xlink:href="#DejaVuSans-46"/>
       <use x="95.410156" xlink:href="#DejaVuSans-52"/>
      </g>
     </g>
    </g>
    <g id="ytick_4">
     <g id="line2d_9">
      <g>
       <use style="stroke:#000000;stroke-width:0.8;" x="70.13" xlink:href="#mf639736c9d" y="201.842727"/>
      </g>
     </g>
     <g id="text_10">
      <!-- 0.6 -->
      <g transform="translate(31.32375 209.441165)scale(0.2 -0.2)">
       <use xlink:href="#DejaVuSans-48"/>
       <use x="63.623047" xlink:href="#DejaVuSans-46"/>
       <use x="95.410156" xlink:href="#DejaVuSans-54"/>
      </g>
     </g>
    </g>
    <g id="ytick_5">
     <g id="line2d_10">
      <g>
       <use style="stroke:#000000;stroke-width:0.8;" x="70.13" xlink:href="#mf639736c9d" y="151.468182"/>
      </g>
     </g>
     <g id="text_11">
      <!-- 0.8 -->
      <g transform="translate(31.32375 159.066619)scale(0.2 -0.2)">
       <use xlink:href="#DejaVuSans-48"/>
       <use x="63.623047" xlink:href="#DejaVuSans-46"/>
       <use x="95.410156" xlink:href="#DejaVuSans-56"/>
      </g>
     </g>
    </g>
    <g id="ytick_6">
     <g id="line2d_11">
      <g>
       <use style="stroke:#000000;stroke-width:0.8;" x="70.13" xlink:href="#mf639736c9d" y="101.093636"/>
      </g>
     </g>
     <g id="text_12">
      <!-- 1.0 -->
      <defs>
       <path d="M 12.40625 8.296875 
L 28.515625 8.296875 
L 28.515625 63.921875 
L 10.984375 60.40625 
L 10.984375 69.390625 
L 28.421875 72.90625 
L 38.28125 72.90625 
L 38.28125 8.296875 
L 54.390625 8.296875 
L 54.390625 0 
L 12.40625 0 
z
" id="DejaVuSans-49"/>
      </defs>
      <g transform="translate(31.32375 108.692074)scale(0.2 -0.2)">
       <use xlink:href="#DejaVuSans-49"/>
       <use x="63.623047" xlink:href="#DejaVuSans-46"/>
       <use x="95.410156" xlink:href="#DejaVuSans-48"/>
      </g>
     </g>
    </g>
    <g id="text_13">
     <!-- Percentage of Def strategy used -->
     <defs>
      <path d="M 19.671875 64.796875 
L 19.671875 37.40625 
L 32.078125 37.40625 
Q 38.96875 37.40625 42.71875 40.96875 
Q 46.484375 44.53125 46.484375 51.125 
Q 46.484375 57.671875 42.71875 61.234375 
Q 38.96875 64.796875 32.078125 64.796875 
z
M 9.8125 72.90625 
L 32.078125 72.90625 
Q 44.34375 72.90625 50.609375 67.359375 
Q 56.890625 61.8125 56.890625 51.125 
Q 56.890625 40.328125 50.609375 34.8125 
Q 44.34375 29.296875 32.078125 29.296875 
L 19.671875 29.296875 
L 19.671875 0 
L 9.8125 0 
z
" id="DejaVuSans-80"/>
      <path d="M 41.109375 46.296875 
Q 39.59375 47.171875 37.8125 47.578125 
Q 36.03125 48 33.890625 48 
Q 26.265625 48 22.1875 43.046875 
Q 18.109375 38.09375 18.109375 28.8125 
L 18.109375 0 
L 9.078125 0 
L 9.078125 54.6875 
L 18.109375 54.6875 
L 18.109375 46.1875 
Q 20.953125 51.171875 25.484375 53.578125 
Q 30.03125 56 36.53125 56 
Q 37.453125 56 38.578125 55.875 
Q 39.703125 55.765625 41.0625 55.515625 
z
" id="DejaVuSans-114"/>
      <path d="M 48.78125 52.59375 
L 48.78125 44.1875 
Q 44.96875 46.296875 41.140625 47.34375 
Q 37.3125 48.390625 33.40625 48.390625 
Q 24.65625 48.390625 19.8125 42.84375 
Q 14.984375 37.3125 14.984375 27.296875 
Q 14.984375 17.28125 19.8125 11.734375 
Q 24.65625 6.203125 33.40625 6.203125 
Q 37.3125 6.203125 41.140625 7.25 
Q 44.96875 8.296875 48.78125 10.40625 
L 48.78125 2.09375 
Q 45.015625 0.34375 40.984375 -0.53125 
Q 36.96875 -1.421875 32.421875 -1.421875 
Q 20.0625 -1.421875 12.78125 6.34375 
Q 5.515625 14.109375 5.515625 27.296875 
Q 5.515625 40.671875 12.859375 48.328125 
Q 20.21875 56 33.015625 56 
Q 37.15625 56 41.109375 55.140625 
Q 45.0625 54.296875 48.78125 52.59375 
z
" id="DejaVuSans-99"/>
      <path d="M 54.890625 33.015625 
L 54.890625 0 
L 45.90625 0 
L 45.90625 32.71875 
Q 45.90625 40.484375 42.875 44.328125 
Q 39.84375 48.1875 33.796875 48.1875 
Q 26.515625 48.1875 22.3125 43.546875 
Q 18.109375 38.921875 18.109375 30.90625 
L 18.109375 0 
L 9.078125 0 
L 9.078125 54.6875 
L 18.109375 54.6875 
L 18.109375 46.1875 
Q 21.34375 51.125 25.703125 53.5625 
Q 30.078125 56 35.796875 56 
Q 45.21875 56 50.046875 50.171875 
Q 54.890625 44.34375 54.890625 33.015625 
z
" id="DejaVuSans-110"/>
      <path d="M 18.3125 70.21875 
L 18.3125 54.6875 
L 36.8125 54.6875 
L 36.8125 47.703125 
L 18.3125 47.703125 
L 18.3125 18.015625 
Q 18.3125 11.328125 20.140625 9.421875 
Q 21.96875 7.515625 27.59375 7.515625 
L 36.8125 7.515625 
L 36.8125 0 
L 27.59375 0 
Q 17.1875 0 13.234375 3.875 
Q 9.28125 7.765625 9.28125 18.015625 
L 9.28125 47.703125 
L 2.6875 47.703125 
L 2.6875 54.6875 
L 9.28125 54.6875 
L 9.28125 70.21875 
z
" id="DejaVuSans-116"/>
      <path d="M 19.671875 64.796875 
L 19.671875 8.109375 
L 31.59375 8.109375 
Q 46.6875 8.109375 53.6875 14.9375 
Q 60.6875 21.78125 60.6875 36.53125 
Q 60.6875 51.171875 53.6875 57.984375 
Q 46.6875 64.796875 31.59375 64.796875 
z
M 9.8125 72.90625 
L 30.078125 72.90625 
Q 51.265625 72.90625 61.171875 64.09375 
Q 71.09375 55.28125 71.09375 36.53125 
Q 71.09375 17.671875 61.125 8.828125 
Q 51.171875 0 30.078125 0 
L 9.8125 0 
z
" id="DejaVuSans-68"/>
      <path d="M 32.171875 -5.078125 
Q 28.375 -14.84375 24.75 -17.8125 
Q 21.140625 -20.796875 15.09375 -20.796875 
L 7.90625 -20.796875 
L 7.90625 -13.28125 
L 13.1875 -13.28125 
Q 16.890625 -13.28125 18.9375 -11.515625 
Q 21 -9.765625 23.484375 -3.21875 
L 25.09375 0.875 
L 2.984375 54.6875 
L 12.5 54.6875 
L 29.59375 11.921875 
L 46.6875 54.6875 
L 56.203125 54.6875 
z
" id="DejaVuSans-121"/>
      <path d="M 8.5 21.578125 
L 8.5 54.6875 
L 17.484375 54.6875 
L 17.484375 21.921875 
Q 17.484375 14.15625 20.5 10.265625 
Q 23.53125 6.390625 29.59375 6.390625 
Q 36.859375 6.390625 41.078125 11.03125 
Q 45.3125 15.671875 45.3125 23.6875 
L 45.3125 54.6875 
L 54.296875 54.6875 
L 54.296875 0 
L 45.3125 0 
L 45.3125 8.40625 
Q 42.046875 3.421875 37.71875 1 
Q 33.40625 -1.421875 27.6875 -1.421875 
Q 18.265625 -1.421875 13.375 4.4375 
Q 8.5 10.296875 8.5 21.578125 
z
M 31.109375 56 
z
" id="DejaVuSans-117"/>
      <path d="M 45.40625 46.390625 
L 45.40625 75.984375 
L 54.390625 75.984375 
L 54.390625 0 
L 45.40625 0 
L 45.40625 8.203125 
Q 42.578125 3.328125 38.25 0.953125 
Q 33.9375 -1.421875 27.875 -1.421875 
Q 17.96875 -1.421875 11.734375 6.484375 
Q 5.515625 14.40625 5.515625 27.296875 
Q 5.515625 40.1875 11.734375 48.09375 
Q 17.96875 56 27.875 56 
Q 33.9375 56 38.25 53.625 
Q 42.578125 51.265625 45.40625 46.390625 
z
M 14.796875 27.296875 
Q 14.796875 17.390625 18.875 11.75 
Q 22.953125 6.109375 30.078125 6.109375 
Q 37.203125 6.109375 41.296875 11.75 
Q 45.40625 17.390625 45.40625 27.296875 
Q 45.40625 37.203125 41.296875 42.84375 
Q 37.203125 48.484375 30.078125 48.484375 
Q 22.953125 48.484375 18.875 42.84375 
Q 14.796875 37.203125 14.796875 27.296875 
z
" id="DejaVuSans-100"/>
     </defs>
     <g transform="translate(23.857604 362.28651)rotate(-90)scale(0.166667 -0.166667)">
      <use xlink:href="#DejaVuSans-80"/>
      <use x="60.255859" xlink:href="#DejaVuSans-101"/>
      <use x="121.779297" xlink:href="#DejaVuSans-114"/>
      <use x="162.861328" xlink:href="#DejaVuSans-99"/>
      <use x="217.841797" xlink:href="#DejaVuSans-101"/>
      <use x="279.365234" xlink:href="#DejaVuSans-110"/>
      <use x="342.744141" xlink:href="#DejaVuSans-116"/>
      <use x="381.953125" xlink:href="#DejaVuSans-97"/>
      <use x="443.232422" xlink:href="#DejaVuSans-103"/>
      <use x="506.708984" xlink:href="#DejaVuSans-101"/>
      <use x="568.232422" xlink:href="#DejaVuSans-32"/>
      <use x="600.019531" xlink:href="#DejaVuSans-111"/>
      <use x="661.201172" xlink:href="#DejaVuSans-102"/>
      <use x="696.40625" xlink:href="#DejaVuSans-32"/>
      <use x="728.193359" xlink:href="#DejaVuSans-68"/>
      <use x="805.195312" xlink:href="#DejaVuSans-101"/>
      <use x="866.71875" xlink:href="#DejaVuSans-102"/>
      <use x="901.923828" xlink:href="#DejaVuSans-32"/>
      <use x="933.710938" xlink:href="#DejaVuSans-115"/>
      <use x="985.810547" xlink:href="#DejaVuSans-116"/>
      <use x="1025.019531" xlink:href="#DejaVuSans-114"/>
      <use x="1066.132812" xlink:href="#DejaVuSans-97"/>
      <use x="1127.412109" xlink:href="#DejaVuSans-116"/>
      <use x="1166.621094" xlink:href="#DejaVuSans-101"/>
      <use x="1228.144531" xlink:href="#DejaVuSans-103"/>
      <use x="1291.621094" xlink:href="#DejaVuSans-121"/>
      <use x="1350.800781" xlink:href="#DejaVuSans-32"/>
      <use x="1382.587891" xlink:href="#DejaVuSans-117"/>
      <use x="1445.966797" xlink:href="#DejaVuSans-115"/>
      <use x="1498.066406" xlink:href="#DejaVuSans-101"/>
      <use x="1559.589844" xlink:href="#DejaVuSans-100"/>
     </g>
    </g>
   </g>
   <g id="line2d_12">
    <path clip-path="url(#pae5e18a669)" d="M 90.996818 274.385381 
L 95.793788 273.711519 
L 100.590758 276.8466 
L 105.387727 276.393945 
L 110.184697 291.560896 
L 114.981667 293.265815 
L 119.778636 293.661151 
L 124.575606 297.406203 
L 129.372576 303.170097 
L 134.169545 299.704105 
L 138.966515 303.148785 
L 143.763485 305.340683 
L 148.560455 308.810898 
L 153.357424 310.184154 
L 158.154394 316.554655 
L 162.951364 313.840503 
L 167.748333 308.392523 
L 172.545303 312.240674 
L 177.342273 310.178346 
L 182.139242 311.971049 
L 186.936212 314.216713 
L 191.733182 314.813229 
L 196.530152 313.771883 
L 201.327121 315.907783 
L 206.124091 314.990708 
L 210.921061 313.674218 
L 215.71803 317.281507 
L 220.515 311.04729 
L 225.31197 314.163413 
L 230.108939 323.458262 
L 234.905909 312.376802 
L 239.702879 310.447076 
L 244.499848 316.5111 
L 249.296818 317.689009 
L 254.093788 315.831282 
L 258.890758 321.381038 
L 263.687727 317.948882 
L 268.484697 314.439779 
L 273.281667 318.411923 
L 278.078636 314.735682 
L 282.875606 311.890345 
L 287.672576 320.851444 
L 292.469545 317.919138 
L 297.266515 315.741412 
L 302.063485 316.772054 
L 306.860455 310.822305 
L 311.657424 322.354966 
L 316.454394 312.756083 
L 321.251364 314.216713 
L 326.048333 315.961366 
L 330.845303 313.014138 
L 335.642273 314.892579 
L 340.439242 311.195392 
L 345.236212 317.676503 
L 350.033182 319.430901 
L 354.830152 318.971272 
L 359.627121 319.06042 
L 364.424091 311.844286 
L 369.221061 315.804814 
L 374.01803 319.026067 
L 378.815 319.319244 
L 383.61197 306.283056 
L 388.408939 315.027375 
L 393.205909 325.858985 
L 398.002879 308.518235 
L 402.799848 315.315286 
L 407.596818 313.035322 
L 412.393788 325.363873 
L 417.190758 321.712084 
L 421.987727 314.216713 
L 426.784697 312.122138 
L 431.581667 311.900158 
L 436.378636 317.895478 
L 441.175606 330.872265 
L 445.972576 305.443208 
L 450.769545 330.577677 
L 455.566515 297.554364 
L 460.363485 306.568756 
L 465.160455 324.980505 
L 469.957424 307.989091 
L 474.754394 318.620083 
L 479.551364 340.972424 
L 484.348333 334.975455 
L 489.145303 310.987576 
L 493.942273 352.966364 
L 498.739242 352.966364 
L 503.536212 269.008788 
L 508.333182 352.966364 
" style="fill:none;stroke:#1f77b4;stroke-linecap:square;stroke-width:1.5;"/>
   </g>
   <g id="line2d_13">
    <path clip-path="url(#pae5e18a669)" d="M 90.996818 352.966364 
L 95.793788 343.422586 
L 100.590758 333.836789 
L 105.387727 326.923967 
L 110.184697 325.02136 
L 114.981667 321.879688 
L 119.778636 323.662611 
L 124.575606 320.303724 
L 129.372576 320.83974 
L 134.169545 325.693521 
L 138.966515 324.808602 
L 143.763485 320.043913 
L 148.560455 321.870965 
L 153.357424 322.235481 
L 158.154394 321.67035 
L 162.951364 323.010627 
L 167.748333 330.068843 
L 172.545303 326.651303 
L 177.342273 330.20678 
L 182.139242 326.878436 
L 186.936212 329.901096 
L 191.733182 327.53094 
L 196.530152 328.871396 
L 201.327121 327.841902 
L 206.124091 326.026368 
L 210.921061 327.10743 
L 215.71803 324.55706 
L 220.515 326.453445 
L 225.31197 328.021609 
L 230.108939 323.458262 
L 234.905909 325.423447 
L 239.702879 325.220727 
L 244.499848 326.82168 
L 249.296818 318.447662 
L 254.093788 327.536906 
L 258.890758 324.215618 
L 263.687727 326.38683 
L 268.484697 331.010353 
L 273.281667 326.738295 
L 278.078636 330.477727 
L 282.875606 324.52912 
L 287.672576 324.52172 
L 292.469545 322.592102 
L 297.266515 329.277758 
L 302.063485 326.688304 
L 306.860455 329.167366 
L 311.657424 329.336513 
L 316.454394 327.276462 
L 321.251364 331.169685 
L 326.048333 326.704752 
L 330.845303 330.963689 
L 335.642273 316.06408 
L 340.439242 328.651917 
L 345.236212 330.131748 
L 350.033182 327.993147 
L 354.830152 328.24266 
L 359.627121 329.555117 
L 364.424091 324.694935 
L 369.221061 322.411311 
L 374.01803 321.705564 
L 378.815 326.048668 
L 383.61197 331.253197 
L 388.408939 333.99687 
L 393.205909 324.729511 
L 398.002879 323.334278 
L 402.799848 338.68492 
L 407.596818 326.857605 
L 412.393788 325.363873 
L 417.190758 325.389058 
L 421.987727 335.744297 
L 426.784697 341.620745 
L 431.581667 325.588893 
L 436.378636 324.272002 
L 441.175606 326.453445 
L 445.972576 319.700154 
L 450.769545 313.786162 
L 455.566515 322.741636 
L 460.363485 306.568756 
L 465.160455 338.973434 
L 469.957424 325.98 
L 474.754394 330.068843 
L 479.551364 340.972424 
L 484.348333 298.993636 
L 489.145303 310.987576 
L 493.942273 352.966364 
L 498.739242 352.966364 
L 503.536212 269.008788 
L 508.333182 269.008788 
" style="fill:none;stroke:#ff7f0e;stroke-linecap:square;stroke-width:1.5;"/>
   </g>
   <g id="line2d_14">
    <path clip-path="url(#pae5e18a669)" d="M 90.996818 352.966364 
L 95.793788 352.966364 
L 100.590758 350.9737 
L 105.387727 348.690746 
L 110.184697 345.980113 
L 114.981667 340.602345 
L 119.778636 340.756467 
L 124.575606 338.150321 
L 129.372576 333.369123 
L 134.169545 327.939519 
L 138.966515 331.925399 
L 143.763485 331.550789 
L 148.560455 324.980505 
L 153.357424 331.273976 
L 158.154394 324.679582 
L 162.951364 327.901359 
L 167.748333 326.71054 
L 172.545303 327.591126 
L 177.342273 323.530635 
L 182.139242 325.015013 
L 186.936212 324.057894 
L 191.733182 328.461505 
L 196.530152 328.228864 
L 201.327121 320.932675 
L 206.124091 321.806851 
L 210.921061 329.794073 
L 215.71803 325.94288 
L 220.515 325.378597 
L 225.31197 326.982245 
L 230.108939 328.727566 
L 234.905909 329.047515 
L 239.702879 328.463724 
L 244.499848 331.608735 
L 249.296818 330.965433 
L 254.093788 325.922337 
L 258.890758 326.240319 
L 263.687727 328.074419 
L 268.484697 327.281974 
L 273.281667 326.321976 
L 278.078636 327.779091 
L 282.875606 329.945738 
L 287.672576 324.062936 
L 292.469545 327.265065 
L 297.266515 322.993026 
L 302.063485 323.217616 
L 306.860455 329.663178 
L 311.657424 326.114261 
L 316.454394 326.15951 
L 321.251364 320.876809 
L 326.048333 326.107897 
L 330.845303 322.278422 
L 335.642273 326.60759 
L 340.439242 324.911233 
L 345.236212 328.055874 
L 350.033182 331.560749 
L 354.830152 325.152197 
L 359.627121 331.97697 
L 364.424091 329.835195 
L 369.221061 325.71456 
L 374.01803 328.85089 
L 378.815 327.010014 
L 383.61197 331.253197 
L 388.408939 320.296679 
L 393.205909 333.765304 
L 398.002879 331.97697 
L 402.799848 317.911912 
L 407.596818 322.250177 
L 412.393788 333.989651 
L 417.190758 319.873597 
L 421.987727 340.049814 
L 426.784697 328.006003 
L 431.581667 322.851146 
L 436.378636 314.707215 
L 441.175606 330.872265 
L 445.972576 333.957101 
L 450.769545 324.980505 
L 455.566515 317.704182 
L 460.363485 333.081675 
L 465.160455 310.987576 
L 469.957424 316.984545 
L 474.754394 330.068843 
L 479.551364 316.984545 
L 484.348333 316.984545 
L 489.145303 352.966364 
L 493.942273 324.980505 
L 498.739242 352.966364 
L 503.536212 352.966364 
L 508.333182 352.966364 
" style="fill:none;stroke:#2ca02c;stroke-linecap:square;stroke-width:1.5;"/>
   </g>
   <g id="line2d_15">
    <path clip-path="url(#pae5e18a669)" d="M 90.996818 352.966364 
L 95.793788 352.966364 
L 100.590758 350.575167 
L 105.387727 351.411594 
L 110.184697 345.612415 
L 114.981667 346.607725 
L 119.778636 344.593863 
L 124.575606 343.537973 
L 129.372576 341.722045 
L 134.169545 339.811228 
L 138.966515 341.827029 
L 143.763485 344.016571 
L 148.560455 338.040572 
L 153.357424 342.12017 
L 158.154394 338.52205 
L 162.951364 341.045203 
L 167.748333 338.922551 
L 172.545303 341.375206 
L 177.342273 341.13138 
L 182.139242 338.058977 
L 186.936212 338.204592 
L 191.733182 341.179216 
L 196.530152 339.794448 
L 201.327121 339.461966 
L 206.124091 339.658655 
L 210.921061 339.197321 
L 215.71803 339.801077 
L 220.515 340.42647 
L 225.31197 338.068802 
L 230.108939 335.753304 
L 234.905909 337.382871 
L 239.702879 342.877041 
L 244.499848 338.973434 
L 249.296818 341.586572 
L 254.093788 339.242529 
L 258.890758 337.983581 
L 263.687727 340.73134 
L 268.484697 343.024019 
L 273.281667 338.811533 
L 278.078636 336.324773 
L 282.875606 340.327589 
L 287.672576 338.744042 
L 292.469545 338.480177 
L 297.266515 339.913458 
L 302.063485 340.571052 
L 306.860455 335.612928 
L 311.657424 339.00327 
L 316.454394 341.796841 
L 321.251364 339.646171 
L 326.048333 338.641848 
L 330.845303 340.806991 
L 335.642273 334.808097 
L 340.439242 345.484995 
L 345.236212 337.051329 
L 350.033182 340.122995 
L 354.830152 340.604512 
L 359.627121 338.435245 
L 364.424091 335.832165 
L 369.221061 346.359866 
L 374.01803 335.996215 
L 378.815 343.352901 
L 383.61197 338.852806 
L 388.408939 335.05073 
L 393.205909 337.153726 
L 398.002879 336.915651 
L 402.799848 342.579859 
L 407.596818 331.465033 
L 412.393788 339.165118 
L 417.190758 341.935441 
L 421.987727 342.202572 
L 426.784697 343.889869 
L 431.581667 342.015375 
L 436.378636 340.213314 
L 441.175606 344.128724 
L 445.972576 348.214048 
L 450.769545 336.174848 
L 455.566515 352.966364 
L 460.363485 346.338134 
L 465.160455 345.969899 
L 469.957424 334.975455 
L 474.754394 330.068843 
L 479.551364 340.972424 
L 484.348333 352.966364 
L 489.145303 352.966364 
L 493.942273 296.994646 
L 498.739242 352.966364 
L 503.536212 352.966364 
L 508.333182 352.966364 
" style="fill:none;stroke:#d62728;stroke-linecap:square;stroke-width:1.5;"/>
   </g>
   <g id="line2d_16">
    <path clip-path="url(#pae5e18a669)" d="M 90.996818 352.966364 
L 95.793788 352.966364 
L 100.590758 351.372232 
L 105.387727 351.022901 
L 110.184697 348.553995 
L 114.981667 343.428406 
L 119.778636 345.640426 
L 124.575606 344.884886 
L 129.372576 341.079513 
L 134.169545 344.303225 
L 138.966515 339.042196 
L 143.763485 334.747144 
L 148.560455 340.21725 
L 153.357424 340.915037 
L 158.154394 339.424819 
L 162.951364 341.045203 
L 167.748333 340.143752 
L 172.545303 340.748657 
L 177.342273 340.524458 
L 182.139242 340.854112 
L 186.936212 339.43474 
L 191.733182 337.456959 
L 196.530152 339.794448 
L 201.327121 343.230635 
L 206.124091 340.63239 
L 210.921061 335.503188 
L 215.71803 339.801077 
L 220.515 337.201926 
L 225.31197 340.840441 
L 230.108939 335.753304 
L 234.905909 341.369346 
L 239.702879 339.273712 
L 244.499848 338.973434 
L 249.296818 340.069266 
L 254.093788 340.857098 
L 258.890758 341.223101 
L 263.687727 342.418929 
L 268.484697 336.395789 
L 273.281667 336.72994 
L 278.078636 337.674091 
L 282.875606 342.584513 
L 287.672576 336.908904 
L 292.469545 343.15314 
L 297.266515 336.045931 
L 302.063485 341.562677 
L 306.860455 338.09199 
L 311.657424 332.558765 
L 316.454394 339.004461 
L 321.251364 340.251635 
L 326.048333 344.013542 
L 330.845303 339.648955 
L 335.642273 343.008605 
L 340.439242 340.497417 
L 345.236212 337.743287 
L 350.033182 341.550036 
L 354.830152 335.196202 
L 359.627121 339.242529 
L 364.424091 343.542554 
L 369.221061 338.927556 
L 374.01803 342.248375 
L 378.815 336.623477 
L 383.61197 332.338856 
L 388.408939 341.373895 
L 393.205909 337.153726 
L 398.002879 338.150321 
L 402.799848 342.579859 
L 407.596818 346.823126 
L 412.393788 335.714807 
L 417.190758 341.935441 
L 421.987727 337.897055 
L 426.784697 337.082498 
L 431.581667 347.49087 
L 436.378636 340.213314 
L 441.175606 344.128724 
L 445.972576 333.957101 
L 450.769545 341.77202 
L 455.566515 342.891455 
L 460.363485 339.709904 
L 465.160455 331.97697 
L 469.957424 325.98 
L 474.754394 330.068843 
L 479.551364 340.972424 
L 484.348333 352.966364 
L 489.145303 352.966364 
L 493.942273 324.980505 
L 498.739242 352.966364 
L 503.536212 352.966364 
L 508.333182 352.966364 
" style="fill:none;stroke:#9467bd;stroke-linecap:square;stroke-width:1.5;"/>
   </g>
   <g id="line2d_17">
    <path clip-path="url(#pae5e18a669)" d="M 90.996818 352.966364 
L 95.793788 352.966364 
L 100.590758 352.966364 
L 105.387727 352.577671 
L 110.184697 350.392482 
L 114.981667 350.49356 
L 119.778636 348.082405 
L 124.575606 344.548158 
L 129.372576 343.649643 
L 134.169545 340.452942 
L 138.966515 339.970474 
L 143.763485 337.304227 
L 148.560455 338.351526 
L 153.357424 328.261144 
L 158.154394 333.105432 
L 162.951364 329.429713 
L 167.748333 329.458242 
L 172.545303 329.784048 
L 177.342273 320.799485 
L 182.139242 325.636154 
L 186.936212 325.288042 
L 191.733182 318.535486 
L 196.530152 320.518474 
L 201.327121 321.874842 
L 206.124091 321.482273 
L 210.921061 324.756618 
L 215.71803 318.320872 
L 220.515 323.228901 
L 225.31197 319.360236 
L 230.108939 316.78381 
L 234.905909 323.249006 
L 239.702879 321.257065 
L 244.499848 317.615805 
L 249.296818 319.206314 
L 254.093788 317.445851 
L 258.890758 318.951397 
L 263.687727 317.526985 
L 268.484697 314.439779 
L 273.281667 315.081375 
L 278.078636 321.0325 
L 282.875606 316.404194 
L 287.672576 315.804814 
L 292.469545 313.713471 
L 297.266515 314.291089 
L 302.063485 316.276242 
L 306.860455 319.746929 
L 311.657424 314.836377 
L 316.454394 309.405227 
L 321.251364 313.005787 
L 326.048333 317.155075 
L 330.845303 317.64628 
L 335.642273 319.578584 
L 340.439242 321.170549 
L 345.236212 310.064965 
L 350.033182 318.00386 
L 354.830152 321.289119 
L 359.627121 310.180291 
L 364.424091 309.274156 
L 369.221061 320.759687 
L 374.01803 317.239736 
L 378.815 323.164629 
L 383.61197 314.968323 
L 388.408939 319.242819 
L 393.205909 312.305296 
L 398.002879 328.272959 
L 402.799848 319.210225 
L 407.596818 316.10694 
L 412.393788 323.638717 
L 417.190758 319.873597 
L 421.987727 322.827747 
L 426.784697 312.122138 
L 431.581667 295.473676 
L 436.378636 330.648527 
L 441.175606 313.196986 
L 445.972576 329.204786 
L 450.769545 308.18899 
L 455.566515 302.591818 
L 460.363485 326.453445 
L 465.160455 310.987576 
L 469.957424 334.975455 
L 474.754394 307.171322 
L 479.551364 304.990606 
L 484.348333 298.993636 
L 489.145303 269.008788 
L 493.942273 296.994646 
L 498.739242 101.093636 
L 503.536212 269.008788 
L 508.333182 352.966364 
" style="fill:none;stroke:#8c564b;stroke-linecap:square;stroke-width:1.5;"/>
   </g>
   <g id="line2d_18">
    <path clip-path="url(#pae5e18a669)" d="M 90.996818 352.966364 
L 95.793788 352.966364 
L 100.590758 351.770765 
L 105.387727 346.747284 
L 110.184697 343.038534 
L 114.981667 343.428406 
L 119.778636 336.221362 
L 124.575606 334.109582 
L 129.372576 329.513929 
L 134.169545 332.11066 
L 138.966515 330.997121 
L 143.763485 329.313341 
L 148.560455 326.846229 
L 153.357424 329.466277 
L 158.154394 330.397123 
L 162.951364 326.984347 
L 167.748333 323.962837 
L 172.545303 325.08493 
L 177.342273 326.261785 
L 182.139242 327.499577 
L 186.936212 329.286022 
L 191.733182 326.910564 
L 196.530152 326.943799 
L 201.327121 327.841902 
L 206.124091 329.596729 
L 210.921061 323.749127 
L 215.71803 326.63579 
L 220.515 330.036272 
L 225.31197 325.94288 
L 230.108939 330.132713 
L 234.905909 331.946769 
L 239.702879 327.022392 
L 244.499848 326.08521 
L 249.296818 323.758231 
L 254.093788 330.766043 
L 258.890758 324.620558 
L 263.687727 325.543035 
L 268.484697 327.696238 
L 273.281667 324.656702 
L 278.078636 328.678636 
L 282.875606 328.140199 
L 287.672576 328.650782 
L 292.469545 329.601547 
L 297.266515 329.277758 
L 302.063485 321.234366 
L 306.860455 331.150616 
L 311.657424 329.336513 
L 316.454394 325.042558 
L 321.251364 328.747832 
L 326.048333 332.076445 
L 330.845303 331.542706 
L 335.642273 328.364841 
L 340.439242 327.405023 
L 345.236212 330.131748 
L 350.033182 321.571463 
L 354.830152 325.152197 
L 359.627121 323.096841 
L 364.424091 334.975455 
L 369.221061 326.540373 
L 374.01803 322.59873 
L 378.815 327.97136 
L 383.61197 337.767147 
L 388.408939 337.158452 
L 393.205909 324.729511 
L 398.002879 328.272959 
L 402.799848 325.70179 
L 407.596818 334.536652 
L 412.393788 335.714807 
L 417.190758 330.904519 
L 421.987727 324.980505 
L 426.784697 337.082498 
L 431.581667 342.015375 
L 436.378636 327.460265 
L 441.175606 317.615805 
L 445.972576 324.45247 
L 450.769545 313.786162 
L 455.566515 332.816545 
L 460.363485 326.453445 
L 465.160455 331.97697 
L 469.957424 343.970909 
L 474.754394 341.517603 
L 479.551364 328.978485 
L 484.348333 316.984545 
L 489.145303 352.966364 
L 493.942273 324.980505 
L 498.739242 352.966364 
L 503.536212 352.966364 
L 508.333182 352.966364 
" style="fill:none;stroke:#e377c2;stroke-linecap:square;stroke-width:1.5;"/>
   </g>
   <g id="line2d_19">
    <path clip-path="url(#pae5e18a669)" d="M 90.996818 289.687994 
L 95.793788 302.34285 
L 100.590758 305.939494 
L 105.387727 310.598883 
L 110.184697 309.578069 
L 114.981667 311.281957 
L 119.778636 321.569486 
L 124.575606 319.293539 
L 129.372576 324.694935 
L 134.169545 324.410093 
L 138.966515 323.570898 
L 143.763485 328.034799 
L 148.560455 328.090045 
L 153.357424 323.13933 
L 158.154394 324.980505 
L 162.951364 323.621968 
L 167.748333 330.984744 
L 172.545303 321.012361 
L 177.342273 331.724085 
L 182.139242 327.810148 
L 186.936212 326.51819 
L 191.733182 328.771693 
L 196.530152 326.943799 
L 201.327121 326.271623 
L 206.124091 327.000103 
L 210.921061 324.756618 
L 215.71803 328.714519 
L 220.515 325.73688 
L 225.31197 329.407429 
L 230.108939 326.971131 
L 234.905909 326.14826 
L 239.702879 330.986054 
L 244.499848 327.55815 
L 249.296818 330.20678 
L 254.093788 325.115052 
L 258.890758 328.265019 
L 263.687727 325.121138 
L 268.484697 328.110502 
L 273.281667 330.485162 
L 278.078636 322.831591 
L 282.875606 327.688814 
L 287.672576 326.815643 
L 292.469545 331.470732 
L 297.266515 334.112167 
L 302.063485 331.646428 
L 306.860455 326.192491 
L 311.657424 329.873555 
L 316.454394 333.4197 
L 321.251364 327.536906 
L 326.048333 326.704752 
L 330.845303 327.489582 
L 335.642273 332.465095 
L 340.439242 323.040891 
L 345.236212 323.904126 
L 350.033182 328.706668 
L 354.830152 331.333123 
L 359.627121 325.518695 
L 364.424091 324.694935 
L 369.221061 324.062936 
L 374.01803 336.889381 
L 378.815 327.97136 
L 383.61197 327.996223 
L 388.408939 325.565983 
L 393.205909 326.988459 
L 398.002879 325.803619 
L 402.799848 317.911912 
L 407.596818 337.608271 
L 412.393788 320.188406 
L 417.190758 323.550571 
L 421.987727 316.369472 
L 426.784697 318.929509 
L 431.581667 322.851146 
L 436.378636 340.213314 
L 441.175606 317.615805 
L 445.972576 319.700154 
L 450.769545 341.77202 
L 455.566515 342.891455 
L 460.363485 339.709904 
L 465.160455 331.97697 
L 469.957424 316.984545 
L 474.754394 341.517603 
L 479.551364 316.984545 
L 484.348333 316.984545 
L 489.145303 269.008788 
L 493.942273 352.966364 
L 498.739242 352.966364 
L 503.536212 352.966364 
L 508.333182 269.008788 
" style="fill:none;stroke:#7f7f7f;stroke-linecap:square;stroke-width:1.5;"/>
   </g>
   <g id="line2d_20">
    <path clip-path="url(#pae5e18a669)" d="M 90.996818 242.952989 
L 95.793788 240.515772 
L 100.590758 250.543435 
L 105.387727 260.457553 
L 110.184697 265.086682 
L 114.981667 273.836643 
L 119.778636 270.636774 
L 124.575606 282.59016 
L 129.372576 286.785519 
L 134.169545 290.399253 
L 138.966515 289.534043 
L 143.763485 294.473078 
L 148.560455 297.616554 
L 153.357424 297.228978 
L 158.154394 295.49003 
L 162.951364 297.945622 
L 167.748333 296.180512 
L 172.545303 300.336242 
L 177.342273 300.46759 
L 182.139242 301.101079 
L 186.936212 297.917257 
L 191.733182 301.164953 
L 196.530152 299.957435 
L 201.327121 301.461217 
L 206.124091 303.630469 
L 210.921061 306.285952 
L 215.71803 303.769765 
L 220.515 305.314767 
L 225.31197 302.03749 
L 230.108939 303.786194 
L 234.905909 297.88053 
L 239.702879 299.276755 
L 244.499848 300.676996 
L 249.296818 302.895279 
L 254.093788 302.107448 
L 258.890758 301.943914 
L 263.687727 301.072988 
L 268.484697 302.426112 
L 273.281667 307.587641 
L 278.078636 305.290455 
L 282.875606 303.314034 
L 287.672576 308.464261 
L 292.469545 300.629174 
L 297.266515 303.171947 
L 302.063485 306.855805 
L 306.860455 304.376743 
L 311.657424 301.410326 
L 316.454394 309.963703 
L 321.251364 309.373007 
L 326.048333 297.458867 
L 330.845303 301.433783 
L 335.642273 309.035074 
L 340.439242 302.467129 
L 345.236212 310.064965 
L 350.033182 295.884726 
L 354.830152 298.883263 
L 359.627121 307.758438 
L 364.424091 310.130866 
L 369.221061 304.243443 
L 374.01803 300.269587 
L 378.815 293.362894 
L 383.61197 304.11174 
L 388.408939 297.111742 
L 393.205909 302.140029 
L 398.002879 303.579554 
L 402.799848 304.928782 
L 407.596818 296.141419 
L 412.393788 285.685293 
L 417.190758 299.650239 
L 421.987727 290.536371 
L 426.784697 293.969148 
L 431.581667 314.637905 
L 436.378636 289.201116 
L 441.175606 299.940526 
L 445.972576 310.195523 
L 450.769545 313.786162 
L 455.566515 312.666727 
L 460.363485 299.940526 
L 465.160455 296.994646 
L 469.957424 316.984545 
L 474.754394 295.722562 
L 479.551364 292.996667 
L 484.348333 334.975455 
L 489.145303 352.966364 
L 493.942273 296.994646 
L 498.739242 352.966364 
L 503.536212 352.966364 
L 508.333182 269.008788 
" style="fill:none;stroke:#bcbd22;stroke-linecap:square;stroke-width:1.5;"/>
   </g>
   <g id="patch_3">
    <path d="M 70.13 365.56 
L 70.13 88.5 
" style="fill:none;stroke:#000000;stroke-linecap:square;stroke-linejoin:miter;stroke-width:0.8;"/>
   </g>
   <g id="patch_4">
    <path d="M 529.2 365.56 
L 529.2 88.5 
" style="fill:none;stroke:#000000;stroke-linecap:square;stroke-linejoin:miter;stroke-width:0.8;"/>
   </g>
   <g id="patch_5">
    <path d="M 70.13 365.56 
L 529.2 365.56 
" style="fill:none;stroke:#000000;stroke-linecap:square;stroke-linejoin:miter;stroke-width:0.8;"/>
   </g>
   <g id="patch_6">
    <path d="M 70.13 88.5 
L 529.2 88.5 
" style="fill:none;stroke:#000000;stroke-linecap:square;stroke-linejoin:miter;stroke-width:0.8;"/>
   </g>
   <g id="legend_1">
    <g id="patch_7">
     <path d="M 80.63 81 
L 518.7 81 
Q 521.7 81 521.7 78 
L 521.7 13.448438 
Q 521.7 10.448438 518.7 10.448438 
L 80.63 10.448438 
Q 77.63 10.448438 77.63 13.448438 
L 77.63 78 
Q 77.63 81 80.63 81 
z
" style="fill:#ffffff;opacity:0.8;stroke:#cccccc;stroke-linejoin:miter;"/>
    </g>
    <g id="line2d_21">
     <path d="M 83.63 22.596094 
L 113.63 22.596094 
" style="fill:none;stroke:#1f77b4;stroke-linecap:square;stroke-width:1.5;"/>
    </g>
    <g id="line2d_22"/>
    <g id="text_14">
     <!-- Stra 1 -->
     <defs>
      <path d="M 53.515625 70.515625 
L 53.515625 60.890625 
Q 47.90625 63.578125 42.921875 64.890625 
Q 37.9375 66.21875 33.296875 66.21875 
Q 25.25 66.21875 20.875 63.09375 
Q 16.5 59.96875 16.5 54.203125 
Q 16.5 49.359375 19.40625 46.890625 
Q 22.3125 44.4375 30.421875 42.921875 
L 36.375 41.703125 
Q 47.40625 39.59375 52.65625 34.296875 
Q 57.90625 29 57.90625 20.125 
Q 57.90625 9.515625 50.796875 4.046875 
Q 43.703125 -1.421875 29.984375 -1.421875 
Q 24.8125 -1.421875 18.96875 -0.25 
Q 13.140625 0.921875 6.890625 3.21875 
L 6.890625 13.375 
Q 12.890625 10.015625 18.65625 8.296875 
Q 24.421875 6.59375 29.984375 6.59375 
Q 38.421875 6.59375 43.015625 9.90625 
Q 47.609375 13.234375 47.609375 19.390625 
Q 47.609375 24.75 44.3125 27.78125 
Q 41.015625 30.8125 33.5 32.328125 
L 27.484375 33.5 
Q 16.453125 35.6875 11.515625 40.375 
Q 6.59375 45.0625 6.59375 53.421875 
Q 6.59375 63.09375 13.40625 68.65625 
Q 20.21875 74.21875 32.171875 74.21875 
Q 37.3125 74.21875 42.625 73.28125 
Q 47.953125 72.359375 53.515625 70.515625 
z
" id="DejaVuSans-83"/>
     </defs>
     <g transform="translate(125.63 27.846094)scale(0.15 -0.15)">
      <use xlink:href="#DejaVuSans-83"/>
      <use x="63.476562" xlink:href="#DejaVuSans-116"/>
      <use x="102.685547" xlink:href="#DejaVuSans-114"/>
      <use x="143.798828" xlink:href="#DejaVuSans-97"/>
      <use x="205.078125" xlink:href="#DejaVuSans-32"/>
      <use x="236.865234" xlink:href="#DejaVuSans-49"/>
     </g>
    </g>
    <g id="line2d_23">
     <path d="M 83.63 44.613281 
L 113.63 44.613281 
" style="fill:none;stroke:#ff7f0e;stroke-linecap:square;stroke-width:1.5;"/>
    </g>
    <g id="line2d_24"/>
    <g id="text_15">
     <!-- Stra 2 -->
     <g transform="translate(125.63 49.863281)scale(0.15 -0.15)">
      <use xlink:href="#DejaVuSans-83"/>
      <use x="63.476562" xlink:href="#DejaVuSans-116"/>
      <use x="102.685547" xlink:href="#DejaVuSans-114"/>
      <use x="143.798828" xlink:href="#DejaVuSans-97"/>
      <use x="205.078125" xlink:href="#DejaVuSans-32"/>
      <use x="236.865234" xlink:href="#DejaVuSans-50"/>
     </g>
    </g>
    <g id="line2d_25">
     <path d="M 83.63 66.630469 
L 113.63 66.630469 
" style="fill:none;stroke:#2ca02c;stroke-linecap:square;stroke-width:1.5;"/>
    </g>
    <g id="line2d_26"/>
    <g id="text_16">
     <!-- Stra 3 -->
     <defs>
      <path d="M 40.578125 39.3125 
Q 47.65625 37.796875 51.625 33 
Q 55.609375 28.21875 55.609375 21.1875 
Q 55.609375 10.40625 48.1875 4.484375 
Q 40.765625 -1.421875 27.09375 -1.421875 
Q 22.515625 -1.421875 17.65625 -0.515625 
Q 12.796875 0.390625 7.625 2.203125 
L 7.625 11.71875 
Q 11.71875 9.328125 16.59375 8.109375 
Q 21.484375 6.890625 26.8125 6.890625 
Q 36.078125 6.890625 40.9375 10.546875 
Q 45.796875 14.203125 45.796875 21.1875 
Q 45.796875 27.640625 41.28125 31.265625 
Q 36.765625 34.90625 28.71875 34.90625 
L 20.21875 34.90625 
L 20.21875 43.015625 
L 29.109375 43.015625 
Q 36.375 43.015625 40.234375 45.921875 
Q 44.09375 48.828125 44.09375 54.296875 
Q 44.09375 59.90625 40.109375 62.90625 
Q 36.140625 65.921875 28.71875 65.921875 
Q 24.65625 65.921875 20.015625 65.03125 
Q 15.375 64.15625 9.8125 62.3125 
L 9.8125 71.09375 
Q 15.4375 72.65625 20.34375 73.4375 
Q 25.25 74.21875 29.59375 74.21875 
Q 40.828125 74.21875 47.359375 69.109375 
Q 53.90625 64.015625 53.90625 55.328125 
Q 53.90625 49.265625 50.4375 45.09375 
Q 46.96875 40.921875 40.578125 39.3125 
z
" id="DejaVuSans-51"/>
     </defs>
     <g transform="translate(125.63 71.880469)scale(0.15 -0.15)">
      <use xlink:href="#DejaVuSans-83"/>
      <use x="63.476562" xlink:href="#DejaVuSans-116"/>
      <use x="102.685547" xlink:href="#DejaVuSans-114"/>
      <use x="143.798828" xlink:href="#DejaVuSans-97"/>
      <use x="205.078125" xlink:href="#DejaVuSans-32"/>
      <use x="236.865234" xlink:href="#DejaVuSans-51"/>
     </g>
    </g>
    <g id="line2d_27">
     <path d="M 198.629115 22.596094 
L 228.629115 22.596094 
" style="fill:none;stroke:#d62728;stroke-linecap:square;stroke-width:1.5;"/>
    </g>
    <g id="line2d_28"/>
    <g id="text_17">
     <!-- Stra 4 -->
     <g transform="translate(240.629115 27.846094)scale(0.15 -0.15)">
      <use xlink:href="#DejaVuSans-83"/>
      <use x="63.476562" xlink:href="#DejaVuSans-116"/>
      <use x="102.685547" xlink:href="#DejaVuSans-114"/>
      <use x="143.798828" xlink:href="#DejaVuSans-97"/>
      <use x="205.078125" xlink:href="#DejaVuSans-32"/>
      <use x="236.865234" xlink:href="#DejaVuSans-52"/>
     </g>
    </g>
    <g id="line2d_29">
     <path d="M 198.629115 44.613281 
L 228.629115 44.613281 
" style="fill:none;stroke:#9467bd;stroke-linecap:square;stroke-width:1.5;"/>
    </g>
    <g id="line2d_30"/>
    <g id="text_18">
     <!-- Stra 5 -->
     <defs>
      <path d="M 10.796875 72.90625 
L 49.515625 72.90625 
L 49.515625 64.59375 
L 19.828125 64.59375 
L 19.828125 46.734375 
Q 21.96875 47.46875 24.109375 47.828125 
Q 26.265625 48.1875 28.421875 48.1875 
Q 40.625 48.1875 47.75 41.5 
Q 54.890625 34.8125 54.890625 23.390625 
Q 54.890625 11.625 47.5625 5.09375 
Q 40.234375 -1.421875 26.90625 -1.421875 
Q 22.3125 -1.421875 17.546875 -0.640625 
Q 12.796875 0.140625 7.71875 1.703125 
L 7.71875 11.625 
Q 12.109375 9.234375 16.796875 8.0625 
Q 21.484375 6.890625 26.703125 6.890625 
Q 35.15625 6.890625 40.078125 11.328125 
Q 45.015625 15.765625 45.015625 23.390625 
Q 45.015625 31 40.078125 35.4375 
Q 35.15625 39.890625 26.703125 39.890625 
Q 22.75 39.890625 18.8125 39.015625 
Q 14.890625 38.140625 10.796875 36.28125 
z
" id="DejaVuSans-53"/>
     </defs>
     <g transform="translate(240.629115 49.863281)scale(0.15 -0.15)">
      <use xlink:href="#DejaVuSans-83"/>
      <use x="63.476562" xlink:href="#DejaVuSans-116"/>
      <use x="102.685547" xlink:href="#DejaVuSans-114"/>
      <use x="143.798828" xlink:href="#DejaVuSans-97"/>
      <use x="205.078125" xlink:href="#DejaVuSans-32"/>
      <use x="236.865234" xlink:href="#DejaVuSans-53"/>
     </g>
    </g>
    <g id="line2d_31">
     <path d="M 313.628229 22.596094 
L 343.628229 22.596094 
" style="fill:none;stroke:#8c564b;stroke-linecap:square;stroke-width:1.5;"/>
    </g>
    <g id="line2d_32"/>
    <g id="text_19">
     <!-- Stra 6 -->
     <g transform="translate(355.628229 27.846094)scale(0.15 -0.15)">
      <use xlink:href="#DejaVuSans-83"/>
      <use x="63.476562" xlink:href="#DejaVuSans-116"/>
      <use x="102.685547" xlink:href="#DejaVuSans-114"/>
      <use x="143.798828" xlink:href="#DejaVuSans-97"/>
      <use x="205.078125" xlink:href="#DejaVuSans-32"/>
      <use x="236.865234" xlink:href="#DejaVuSans-54"/>
     </g>
    </g>
    <g id="line2d_33">
     <path d="M 313.628229 44.613281 
L 343.628229 44.613281 
" style="fill:none;stroke:#e377c2;stroke-linecap:square;stroke-width:1.5;"/>
    </g>
    <g id="line2d_34"/>
    <g id="text_20">
     <!-- Stra 7 -->
     <defs>
      <path d="M 8.203125 72.90625 
L 55.078125 72.90625 
L 55.078125 68.703125 
L 28.609375 0 
L 18.3125 0 
L 43.21875 64.59375 
L 8.203125 64.59375 
z
" id="DejaVuSans-55"/>
     </defs>
     <g transform="translate(355.628229 49.863281)scale(0.15 -0.15)">
      <use xlink:href="#DejaVuSans-83"/>
      <use x="63.476562" xlink:href="#DejaVuSans-116"/>
      <use x="102.685547" xlink:href="#DejaVuSans-114"/>
      <use x="143.798828" xlink:href="#DejaVuSans-97"/>
      <use x="205.078125" xlink:href="#DejaVuSans-32"/>
      <use x="236.865234" xlink:href="#DejaVuSans-55"/>
     </g>
    </g>
    <g id="line2d_35">
     <path d="M 428.627344 22.596094 
L 458.627344 22.596094 
" style="fill:none;stroke:#7f7f7f;stroke-linecap:square;stroke-width:1.5;"/>
    </g>
    <g id="line2d_36"/>
    <g id="text_21">
     <!-- Stra 8 -->
     <g transform="translate(470.627344 27.846094)scale(0.15 -0.15)">
      <use xlink:href="#DejaVuSans-83"/>
      <use x="63.476562" xlink:href="#DejaVuSans-116"/>
      <use x="102.685547" xlink:href="#DejaVuSans-114"/>
      <use x="143.798828" xlink:href="#DejaVuSans-97"/>
      <use x="205.078125" xlink:href="#DejaVuSans-32"/>
      <use x="236.865234" xlink:href="#DejaVuSans-56"/>
     </g>
    </g>
    <g id="line2d_37">
     <path d="M 428.627344 44.613281 
L 458.627344 44.613281 
" style="fill:none;stroke:#bcbd22;stroke-linecap:square;stroke-width:1.5;"/>
    </g>
    <g id="line2d_38"/>
    <g id="text_22">
     <!-- Stra 9 -->
     <defs>
      <path d="M 10.984375 1.515625 
L 10.984375 10.5 
Q 14.703125 8.734375 18.5 7.8125 
Q 22.3125 6.890625 25.984375 6.890625 
Q 35.75 6.890625 40.890625 13.453125 
Q 46.046875 20.015625 46.78125 33.40625 
Q 43.953125 29.203125 39.59375 26.953125 
Q 35.25 24.703125 29.984375 24.703125 
Q 19.046875 24.703125 12.671875 31.3125 
Q 6.296875 37.9375 6.296875 49.421875 
Q 6.296875 60.640625 12.9375 67.421875 
Q 19.578125 74.21875 30.609375 74.21875 
Q 43.265625 74.21875 49.921875 64.515625 
Q 56.59375 54.828125 56.59375 36.375 
Q 56.59375 19.140625 48.40625 8.859375 
Q 40.234375 -1.421875 26.421875 -1.421875 
Q 22.703125 -1.421875 18.890625 -0.6875 
Q 15.09375 0.046875 10.984375 1.515625 
z
M 30.609375 32.421875 
Q 37.25 32.421875 41.125 36.953125 
Q 45.015625 41.5 45.015625 49.421875 
Q 45.015625 57.28125 41.125 61.84375 
Q 37.25 66.40625 30.609375 66.40625 
Q 23.96875 66.40625 20.09375 61.84375 
Q 16.21875 57.28125 16.21875 49.421875 
Q 16.21875 41.5 20.09375 36.953125 
Q 23.96875 32.421875 30.609375 32.421875 
z
" id="DejaVuSans-57"/>
     </defs>
     <g transform="translate(470.627344 49.863281)scale(0.15 -0.15)">
      <use xlink:href="#DejaVuSans-83"/>
      <use x="63.476562" xlink:href="#DejaVuSans-116"/>
      <use x="102.685547" xlink:href="#DejaVuSans-114"/>
      <use x="143.798828" xlink:href="#DejaVuSans-97"/>
      <use x="205.078125" xlink:href="#DejaVuSans-32"/>
      <use x="236.865234" xlink:href="#DejaVuSans-57"/>
     </g>
    </g>
   </g>
  </g>
 </g>
 <defs>
  <clipPath id="pae5e18a669">
   <rect height="277.06" width="459.07" x="70.13" y="88.5"/>
  </clipPath>
 </defs>
</svg>
