<?xml version="1.0" encoding="utf-8" standalone="no"?>
<!DOCTYPE svg PUBLIC "-//W3C//DTD SVG 1.1//EN"
  "http://www.w3.org/Graphics/SVG/1.1/DTD/svg11.dtd">
<!-- Created with matplotlib (https://matplotlib.org/) -->
<svg height="432pt" version="1.1" viewBox="0 0 540 432" width="540pt" xmlns="http://www.w3.org/2000/svg" xmlns:xlink="http://www.w3.org/1999/xlink">
 <defs>
  <style type="text/css">
*{stroke-linecap:butt;stroke-linejoin:round;}
  </style>
 </defs>
 <g id="figure_1">
  <g id="patch_1">
   <path d="M 0 432 
L 540 432 
L 540 0 
L 0 0 
z
" style="fill:#ffffff;"/>
  </g>
  <g id="axes_1">
   <g id="patch_2">
    <path d="M 120.89 365.56 
L 529.2 365.56 
L 529.2 88.5 
L 120.89 88.5 
z
" style="fill:#ffffff;"/>
   </g>
   <g id="matplotlib.axis_1">
    <g id="xtick_1">
     <g id="line2d_1">
      <defs>
       <path d="M 0 0 
L 0 3.5 
" id="maa9bd38c0b" style="stroke:#000000;stroke-width:0.8;"/>
      </defs>
      <g>
       <use style="stroke:#000000;stroke-width:0.8;" x="139.449545" xlink:href="#maa9bd38c0b" y="365.56"/>
      </g>
     </g>
     <g id="text_1">
      <!-- 0 -->
      <defs>
       <path d="M 31.78125 66.40625 
Q 24.171875 66.40625 20.328125 58.90625 
Q 16.5 51.421875 16.5 36.375 
Q 16.5 21.390625 20.328125 13.890625 
Q 24.171875 6.390625 31.78125 6.390625 
Q 39.453125 6.390625 43.28125 13.890625 
Q 47.125 21.390625 47.125 36.375 
Q 47.125 51.421875 43.28125 58.90625 
Q 39.453125 66.40625 31.78125 66.40625 
z
M 31.78125 74.21875 
Q 44.046875 74.21875 50.515625 64.515625 
Q 56.984375 54.828125 56.984375 36.375 
Q 56.984375 17.96875 50.515625 8.265625 
Q 44.046875 -1.421875 31.78125 -1.421875 
Q 19.53125 -1.421875 13.0625 8.265625 
Q 6.59375 17.96875 6.59375 36.375 
Q 6.59375 54.828125 13.0625 64.515625 
Q 19.53125 74.21875 31.78125 74.21875 
z
" id="DejaVuSans-48"/>
      </defs>
      <g transform="translate(133.087045 387.756875)scale(0.2 -0.2)">
       <use xlink:href="#DejaVuSans-48"/>
      </g>
     </g>
    </g>
    <g id="xtick_2">
     <g id="line2d_2">
      <g>
       <use style="stroke:#000000;stroke-width:0.8;" x="224.780789" xlink:href="#maa9bd38c0b" y="365.56"/>
      </g>
     </g>
     <g id="text_2">
      <!-- 20 -->
      <defs>
       <path d="M 19.1875 8.296875 
L 53.609375 8.296875 
L 53.609375 0 
L 7.328125 0 
L 7.328125 8.296875 
Q 12.9375 14.109375 22.625 23.890625 
Q 32.328125 33.6875 34.8125 36.53125 
Q 39.546875 41.84375 41.421875 45.53125 
Q 43.3125 49.21875 43.3125 52.78125 
Q 43.3125 58.59375 39.234375 62.25 
Q 35.15625 65.921875 28.609375 65.921875 
Q 23.96875 65.921875 18.8125 64.3125 
Q 13.671875 62.703125 7.8125 59.421875 
L 7.8125 69.390625 
Q 13.765625 71.78125 18.9375 73 
Q 24.125 74.21875 28.421875 74.21875 
Q 39.75 74.21875 46.484375 68.546875 
Q 53.21875 62.890625 53.21875 53.421875 
Q 53.21875 48.921875 51.53125 44.890625 
Q 49.859375 40.875 45.40625 35.40625 
Q 44.1875 33.984375 37.640625 27.21875 
Q 31.109375 20.453125 19.1875 8.296875 
z
" id="DejaVuSans-50"/>
      </defs>
      <g transform="translate(212.055789 387.756875)scale(0.2 -0.2)">
       <use xlink:href="#DejaVuSans-50"/>
       <use x="63.623047" xlink:href="#DejaVuSans-48"/>
      </g>
     </g>
    </g>
    <g id="xtick_3">
     <g id="line2d_3">
      <g>
       <use style="stroke:#000000;stroke-width:0.8;" x="310.112032" xlink:href="#maa9bd38c0b" y="365.56"/>
      </g>
     </g>
     <g id="text_3">
      <!-- 40 -->
      <defs>
       <path d="M 37.796875 64.3125 
L 12.890625 25.390625 
L 37.796875 25.390625 
z
M 35.203125 72.90625 
L 47.609375 72.90625 
L 47.609375 25.390625 
L 58.015625 25.390625 
L 58.015625 17.1875 
L 47.609375 17.1875 
L 47.609375 0 
L 37.796875 0 
L 37.796875 17.1875 
L 4.890625 17.1875 
L 4.890625 26.703125 
z
" id="DejaVuSans-52"/>
      </defs>
      <g transform="translate(297.387032 387.756875)scale(0.2 -0.2)">
       <use xlink:href="#DejaVuSans-52"/>
       <use x="63.623047" xlink:href="#DejaVuSans-48"/>
      </g>
     </g>
    </g>
    <g id="xtick_4">
     <g id="line2d_4">
      <g>
       <use style="stroke:#000000;stroke-width:0.8;" x="395.443276" xlink:href="#maa9bd38c0b" y="365.56"/>
      </g>
     </g>
     <g id="text_4">
      <!-- 60 -->
      <defs>
       <path d="M 33.015625 40.375 
Q 26.375 40.375 22.484375 35.828125 
Q 18.609375 31.296875 18.609375 23.390625 
Q 18.609375 15.53125 22.484375 10.953125 
Q 26.375 6.390625 33.015625 6.390625 
Q 39.65625 6.390625 43.53125 10.953125 
Q 47.40625 15.53125 47.40625 23.390625 
Q 47.40625 31.296875 43.53125 35.828125 
Q 39.65625 40.375 33.015625 40.375 
z
M 52.59375 71.296875 
L 52.59375 62.3125 
Q 48.875 64.0625 45.09375 64.984375 
Q 41.3125 65.921875 37.59375 65.921875 
Q 27.828125 65.921875 22.671875 59.328125 
Q 17.53125 52.734375 16.796875 39.40625 
Q 19.671875 43.65625 24.015625 45.921875 
Q 28.375 48.1875 33.59375 48.1875 
Q 44.578125 48.1875 50.953125 41.515625 
Q 57.328125 34.859375 57.328125 23.390625 
Q 57.328125 12.15625 50.6875 5.359375 
Q 44.046875 -1.421875 33.015625 -1.421875 
Q 20.359375 -1.421875 13.671875 8.265625 
Q 6.984375 17.96875 6.984375 36.375 
Q 6.984375 53.65625 15.1875 63.9375 
Q 23.390625 74.21875 37.203125 74.21875 
Q 40.921875 74.21875 44.703125 73.484375 
Q 48.484375 72.75 52.59375 71.296875 
z
" id="DejaVuSans-54"/>
      </defs>
      <g transform="translate(382.718276 387.756875)scale(0.2 -0.2)">
       <use xlink:href="#DejaVuSans-54"/>
       <use x="63.623047" xlink:href="#DejaVuSans-48"/>
      </g>
     </g>
    </g>
    <g id="xtick_5">
     <g id="line2d_5">
      <g>
       <use style="stroke:#000000;stroke-width:0.8;" x="480.774519" xlink:href="#maa9bd38c0b" y="365.56"/>
      </g>
     </g>
     <g id="text_5">
      <!-- 80 -->
      <defs>
       <path d="M 31.78125 34.625 
Q 24.75 34.625 20.71875 30.859375 
Q 16.703125 27.09375 16.703125 20.515625 
Q 16.703125 13.921875 20.71875 10.15625 
Q 24.75 6.390625 31.78125 6.390625 
Q 38.8125 6.390625 42.859375 10.171875 
Q 46.921875 13.96875 46.921875 20.515625 
Q 46.921875 27.09375 42.890625 30.859375 
Q 38.875 34.625 31.78125 34.625 
z
M 21.921875 38.8125 
Q 15.578125 40.375 12.03125 44.71875 
Q 8.5 49.078125 8.5 55.328125 
Q 8.5 64.0625 14.71875 69.140625 
Q 20.953125 74.21875 31.78125 74.21875 
Q 42.671875 74.21875 48.875 69.140625 
Q 55.078125 64.0625 55.078125 55.328125 
Q 55.078125 49.078125 51.53125 44.71875 
Q 48 40.375 41.703125 38.8125 
Q 48.828125 37.15625 52.796875 32.3125 
Q 56.78125 27.484375 56.78125 20.515625 
Q 56.78125 9.90625 50.3125 4.234375 
Q 43.84375 -1.421875 31.78125 -1.421875 
Q 19.734375 -1.421875 13.25 4.234375 
Q 6.78125 9.90625 6.78125 20.515625 
Q 6.78125 27.484375 10.78125 32.3125 
Q 14.796875 37.15625 21.921875 38.8125 
z
M 18.3125 54.390625 
Q 18.3125 48.734375 21.84375 45.5625 
Q 25.390625 42.390625 31.78125 42.390625 
Q 38.140625 42.390625 41.71875 45.5625 
Q 45.3125 48.734375 45.3125 54.390625 
Q 45.3125 60.0625 41.71875 63.234375 
Q 38.140625 66.40625 31.78125 66.40625 
Q 25.390625 66.40625 21.84375 63.234375 
Q 18.3125 60.0625 18.3125 54.390625 
z
" id="DejaVuSans-56"/>
      </defs>
      <g transform="translate(468.049519 387.756875)scale(0.2 -0.2)">
       <use xlink:href="#DejaVuSans-56"/>
       <use x="63.623047" xlink:href="#DejaVuSans-48"/>
      </g>
     </g>
    </g>
    <g id="text_6">
     <!-- # of games -->
     <defs>
      <path d="M 51.125 44 
L 36.921875 44 
L 32.8125 27.6875 
L 47.125 27.6875 
z
M 43.796875 71.78125 
L 38.71875 51.515625 
L 52.984375 51.515625 
L 58.109375 71.78125 
L 65.921875 71.78125 
L 60.890625 51.515625 
L 76.125 51.515625 
L 76.125 44 
L 58.984375 44 
L 54.984375 27.6875 
L 70.515625 27.6875 
L 70.515625 20.21875 
L 53.078125 20.21875 
L 48 0 
L 40.1875 0 
L 45.21875 20.21875 
L 30.90625 20.21875 
L 25.875 0 
L 18.015625 0 
L 23.09375 20.21875 
L 7.71875 20.21875 
L 7.71875 27.6875 
L 24.90625 27.6875 
L 29 44 
L 13.28125 44 
L 13.28125 51.515625 
L 30.90625 51.515625 
L 35.890625 71.78125 
z
" id="DejaVuSans-35"/>
      <path id="DejaVuSans-32"/>
      <path d="M 30.609375 48.390625 
Q 23.390625 48.390625 19.1875 42.75 
Q 14.984375 37.109375 14.984375 27.296875 
Q 14.984375 17.484375 19.15625 11.84375 
Q 23.34375 6.203125 30.609375 6.203125 
Q 37.796875 6.203125 41.984375 11.859375 
Q 46.1875 17.53125 46.1875 27.296875 
Q 46.1875 37.015625 41.984375 42.703125 
Q 37.796875 48.390625 30.609375 48.390625 
z
M 30.609375 56 
Q 42.328125 56 49.015625 48.375 
Q 55.71875 40.765625 55.71875 27.296875 
Q 55.71875 13.875 49.015625 6.21875 
Q 42.328125 -1.421875 30.609375 -1.421875 
Q 18.84375 -1.421875 12.171875 6.21875 
Q 5.515625 13.875 5.515625 27.296875 
Q 5.515625 40.765625 12.171875 48.375 
Q 18.84375 56 30.609375 56 
z
" id="DejaVuSans-111"/>
      <path d="M 37.109375 75.984375 
L 37.109375 68.5 
L 28.515625 68.5 
Q 23.6875 68.5 21.796875 66.546875 
Q 19.921875 64.59375 19.921875 59.515625 
L 19.921875 54.6875 
L 34.71875 54.6875 
L 34.71875 47.703125 
L 19.921875 47.703125 
L 19.921875 0 
L 10.890625 0 
L 10.890625 47.703125 
L 2.296875 47.703125 
L 2.296875 54.6875 
L 10.890625 54.6875 
L 10.890625 58.5 
Q 10.890625 67.625 15.140625 71.796875 
Q 19.390625 75.984375 28.609375 75.984375 
z
" id="DejaVuSans-102"/>
      <path d="M 45.40625 27.984375 
Q 45.40625 37.75 41.375 43.109375 
Q 37.359375 48.484375 30.078125 48.484375 
Q 22.859375 48.484375 18.828125 43.109375 
Q 14.796875 37.75 14.796875 27.984375 
Q 14.796875 18.265625 18.828125 12.890625 
Q 22.859375 7.515625 30.078125 7.515625 
Q 37.359375 7.515625 41.375 12.890625 
Q 45.40625 18.265625 45.40625 27.984375 
z
M 54.390625 6.78125 
Q 54.390625 -7.171875 48.1875 -13.984375 
Q 42 -20.796875 29.203125 -20.796875 
Q 24.46875 -20.796875 20.265625 -20.09375 
Q 16.0625 -19.390625 12.109375 -17.921875 
L 12.109375 -9.1875 
Q 16.0625 -11.328125 19.921875 -12.34375 
Q 23.78125 -13.375 27.78125 -13.375 
Q 36.625 -13.375 41.015625 -8.765625 
Q 45.40625 -4.15625 45.40625 5.171875 
L 45.40625 9.625 
Q 42.625 4.78125 38.28125 2.390625 
Q 33.9375 0 27.875 0 
Q 17.828125 0 11.671875 7.65625 
Q 5.515625 15.328125 5.515625 27.984375 
Q 5.515625 40.671875 11.671875 48.328125 
Q 17.828125 56 27.875 56 
Q 33.9375 56 38.28125 53.609375 
Q 42.625 51.21875 45.40625 46.390625 
L 45.40625 54.6875 
L 54.390625 54.6875 
z
" id="DejaVuSans-103"/>
      <path d="M 34.28125 27.484375 
Q 23.390625 27.484375 19.1875 25 
Q 14.984375 22.515625 14.984375 16.5 
Q 14.984375 11.71875 18.140625 8.90625 
Q 21.296875 6.109375 26.703125 6.109375 
Q 34.1875 6.109375 38.703125 11.40625 
Q 43.21875 16.703125 43.21875 25.484375 
L 43.21875 27.484375 
z
M 52.203125 31.203125 
L 52.203125 0 
L 43.21875 0 
L 43.21875 8.296875 
Q 40.140625 3.328125 35.546875 0.953125 
Q 30.953125 -1.421875 24.3125 -1.421875 
Q 15.921875 -1.421875 10.953125 3.296875 
Q 6 8.015625 6 15.921875 
Q 6 25.140625 12.171875 29.828125 
Q 18.359375 34.515625 30.609375 34.515625 
L 43.21875 34.515625 
L 43.21875 35.40625 
Q 43.21875 41.609375 39.140625 45 
Q 35.0625 48.390625 27.6875 48.390625 
Q 23 48.390625 18.546875 47.265625 
Q 14.109375 46.140625 10.015625 43.890625 
L 10.015625 52.203125 
Q 14.9375 54.109375 19.578125 55.046875 
Q 24.21875 56 28.609375 56 
Q 40.484375 56 46.34375 49.84375 
Q 52.203125 43.703125 52.203125 31.203125 
z
" id="DejaVuSans-97"/>
      <path d="M 52 44.1875 
Q 55.375 50.25 60.0625 53.125 
Q 64.75 56 71.09375 56 
Q 79.640625 56 84.28125 50.015625 
Q 88.921875 44.046875 88.921875 33.015625 
L 88.921875 0 
L 79.890625 0 
L 79.890625 32.71875 
Q 79.890625 40.578125 77.09375 44.375 
Q 74.3125 48.1875 68.609375 48.1875 
Q 61.625 48.1875 57.5625 43.546875 
Q 53.515625 38.921875 53.515625 30.90625 
L 53.515625 0 
L 44.484375 0 
L 44.484375 32.71875 
Q 44.484375 40.625 41.703125 44.40625 
Q 38.921875 48.1875 33.109375 48.1875 
Q 26.21875 48.1875 22.15625 43.53125 
Q 18.109375 38.875 18.109375 30.90625 
L 18.109375 0 
L 9.078125 0 
L 9.078125 54.6875 
L 18.109375 54.6875 
L 18.109375 46.1875 
Q 21.1875 51.21875 25.484375 53.609375 
Q 29.78125 56 35.6875 56 
Q 41.65625 56 45.828125 52.96875 
Q 50 49.953125 52 44.1875 
z
" id="DejaVuSans-109"/>
      <path d="M 56.203125 29.59375 
L 56.203125 25.203125 
L 14.890625 25.203125 
Q 15.484375 15.921875 20.484375 11.0625 
Q 25.484375 6.203125 34.421875 6.203125 
Q 39.59375 6.203125 44.453125 7.46875 
Q 49.3125 8.734375 54.109375 11.28125 
L 54.109375 2.78125 
Q 49.265625 0.734375 44.1875 -0.34375 
Q 39.109375 -1.421875 33.890625 -1.421875 
Q 20.796875 -1.421875 13.15625 6.1875 
Q 5.515625 13.8125 5.515625 26.8125 
Q 5.515625 40.234375 12.765625 48.109375 
Q 20.015625 56 32.328125 56 
Q 43.359375 56 49.78125 48.890625 
Q 56.203125 41.796875 56.203125 29.59375 
z
M 47.21875 32.234375 
Q 47.125 39.59375 43.09375 43.984375 
Q 39.0625 48.390625 32.421875 48.390625 
Q 24.90625 48.390625 20.390625 44.140625 
Q 15.875 39.890625 15.1875 32.171875 
z
" id="DejaVuSans-101"/>
      <path d="M 44.28125 53.078125 
L 44.28125 44.578125 
Q 40.484375 46.53125 36.375 47.5 
Q 32.28125 48.484375 27.875 48.484375 
Q 21.1875 48.484375 17.84375 46.4375 
Q 14.5 44.390625 14.5 40.28125 
Q 14.5 37.15625 16.890625 35.375 
Q 19.28125 33.59375 26.515625 31.984375 
L 29.59375 31.296875 
Q 39.15625 29.25 43.1875 25.515625 
Q 47.21875 21.78125 47.21875 15.09375 
Q 47.21875 7.46875 41.1875 3.015625 
Q 35.15625 -1.421875 24.609375 -1.421875 
Q 20.21875 -1.421875 15.453125 -0.5625 
Q 10.6875 0.296875 5.421875 2 
L 5.421875 11.28125 
Q 10.40625 8.6875 15.234375 7.390625 
Q 20.0625 6.109375 24.8125 6.109375 
Q 31.15625 6.109375 34.5625 8.28125 
Q 37.984375 10.453125 37.984375 14.40625 
Q 37.984375 18.0625 35.515625 20.015625 
Q 33.0625 21.96875 24.703125 23.78125 
L 21.578125 24.515625 
Q 13.234375 26.265625 9.515625 29.90625 
Q 5.8125 33.546875 5.8125 39.890625 
Q 5.8125 47.609375 11.28125 51.796875 
Q 16.75 56 26.8125 56 
Q 31.78125 56 36.171875 55.265625 
Q 40.578125 54.546875 44.28125 53.078125 
z
" id="DejaVuSans-115"/>
     </defs>
     <g transform="translate(252.601641 414.912344)scale(0.25 -0.25)">
      <use xlink:href="#DejaVuSans-35"/>
      <use x="83.789062" xlink:href="#DejaVuSans-32"/>
      <use x="115.576172" xlink:href="#DejaVuSans-111"/>
      <use x="176.757812" xlink:href="#DejaVuSans-102"/>
      <use x="211.962891" xlink:href="#DejaVuSans-32"/>
      <use x="243.75" xlink:href="#DejaVuSans-103"/>
      <use x="307.226562" xlink:href="#DejaVuSans-97"/>
      <use x="368.505859" xlink:href="#DejaVuSans-109"/>
      <use x="465.917969" xlink:href="#DejaVuSans-101"/>
      <use x="527.441406" xlink:href="#DejaVuSans-115"/>
     </g>
    </g>
   </g>
   <g id="matplotlib.axis_2">
    <g id="ytick_1">
     <g id="line2d_6">
      <defs>
       <path d="M 0 0 
L -3.5 0 
" id="m7e407c90be" style="stroke:#000000;stroke-width:0.8;"/>
      </defs>
      <g>
       <use style="stroke:#000000;stroke-width:0.8;" x="120.89" xlink:href="#m7e407c90be" y="334.29685"/>
      </g>
     </g>
     <g id="text_7">
      <!-- 0.00002 -->
      <defs>
       <path d="M 10.6875 12.40625 
L 21 12.40625 
L 21 0 
L 10.6875 0 
z
" id="DejaVuSans-46"/>
      </defs>
      <g transform="translate(31.18375 341.895287)scale(0.2 -0.2)">
       <use xlink:href="#DejaVuSans-48"/>
       <use x="63.623047" xlink:href="#DejaVuSans-46"/>
       <use x="95.410156" xlink:href="#DejaVuSans-48"/>
       <use x="159.033203" xlink:href="#DejaVuSans-48"/>
       <use x="222.65625" xlink:href="#DejaVuSans-48"/>
       <use x="286.279297" xlink:href="#DejaVuSans-48"/>
       <use x="349.902344" xlink:href="#DejaVuSans-50"/>
      </g>
     </g>
    </g>
    <g id="ytick_2">
     <g id="line2d_7">
      <g>
       <use style="stroke:#000000;stroke-width:0.8;" x="120.89" xlink:href="#m7e407c90be" y="275.996046"/>
      </g>
     </g>
     <g id="text_8">
      <!-- 0.00004 -->
      <g transform="translate(31.18375 283.594484)scale(0.2 -0.2)">
       <use xlink:href="#DejaVuSans-48"/>
       <use x="63.623047" xlink:href="#DejaVuSans-46"/>
       <use x="95.410156" xlink:href="#DejaVuSans-48"/>
       <use x="159.033203" xlink:href="#DejaVuSans-48"/>
       <use x="222.65625" xlink:href="#DejaVuSans-48"/>
       <use x="286.279297" xlink:href="#DejaVuSans-48"/>
       <use x="349.902344" xlink:href="#DejaVuSans-52"/>
      </g>
     </g>
    </g>
    <g id="ytick_3">
     <g id="line2d_8">
      <g>
       <use style="stroke:#000000;stroke-width:0.8;" x="120.89" xlink:href="#m7e407c90be" y="217.695243"/>
      </g>
     </g>
     <g id="text_9">
      <!-- 0.00006 -->
      <g transform="translate(31.18375 225.29368)scale(0.2 -0.2)">
       <use xlink:href="#DejaVuSans-48"/>
       <use x="63.623047" xlink:href="#DejaVuSans-46"/>
       <use x="95.410156" xlink:href="#DejaVuSans-48"/>
       <use x="159.033203" xlink:href="#DejaVuSans-48"/>
       <use x="222.65625" xlink:href="#DejaVuSans-48"/>
       <use x="286.279297" xlink:href="#DejaVuSans-48"/>
       <use x="349.902344" xlink:href="#DejaVuSans-54"/>
      </g>
     </g>
    </g>
    <g id="ytick_4">
     <g id="line2d_9">
      <g>
       <use style="stroke:#000000;stroke-width:0.8;" x="120.89" xlink:href="#m7e407c90be" y="159.39444"/>
      </g>
     </g>
     <g id="text_10">
      <!-- 0.00008 -->
      <g transform="translate(31.18375 166.992877)scale(0.2 -0.2)">
       <use xlink:href="#DejaVuSans-48"/>
       <use x="63.623047" xlink:href="#DejaVuSans-46"/>
       <use x="95.410156" xlink:href="#DejaVuSans-48"/>
       <use x="159.033203" xlink:href="#DejaVuSans-48"/>
       <use x="222.65625" xlink:href="#DejaVuSans-48"/>
       <use x="286.279297" xlink:href="#DejaVuSans-48"/>
       <use x="349.902344" xlink:href="#DejaVuSans-56"/>
      </g>
     </g>
    </g>
    <g id="ytick_5">
     <g id="line2d_10">
      <g>
       <use style="stroke:#000000;stroke-width:0.8;" x="120.89" xlink:href="#m7e407c90be" y="101.093636"/>
      </g>
     </g>
     <g id="text_11">
      <!-- 0.00010 -->
      <defs>
       <path d="M 12.40625 8.296875 
L 28.515625 8.296875 
L 28.515625 63.921875 
L 10.984375 60.40625 
L 10.984375 69.390625 
L 28.421875 72.90625 
L 38.28125 72.90625 
L 38.28125 8.296875 
L 54.390625 8.296875 
L 54.390625 0 
L 12.40625 0 
z
" id="DejaVuSans-49"/>
      </defs>
      <g transform="translate(31.18375 108.692074)scale(0.2 -0.2)">
       <use xlink:href="#DejaVuSans-48"/>
       <use x="63.623047" xlink:href="#DejaVuSans-46"/>
       <use x="95.410156" xlink:href="#DejaVuSans-48"/>
       <use x="159.033203" xlink:href="#DejaVuSans-48"/>
       <use x="222.65625" xlink:href="#DejaVuSans-48"/>
       <use x="286.279297" xlink:href="#DejaVuSans-49"/>
       <use x="349.902344" xlink:href="#DejaVuSans-48"/>
      </g>
     </g>
    </g>
    <g id="text_12">
     <!-- defense impact Value -->
     <defs>
      <path d="M 45.40625 46.390625 
L 45.40625 75.984375 
L 54.390625 75.984375 
L 54.390625 0 
L 45.40625 0 
L 45.40625 8.203125 
Q 42.578125 3.328125 38.25 0.953125 
Q 33.9375 -1.421875 27.875 -1.421875 
Q 17.96875 -1.421875 11.734375 6.484375 
Q 5.515625 14.40625 5.515625 27.296875 
Q 5.515625 40.1875 11.734375 48.09375 
Q 17.96875 56 27.875 56 
Q 33.9375 56 38.25 53.625 
Q 42.578125 51.265625 45.40625 46.390625 
z
M 14.796875 27.296875 
Q 14.796875 17.390625 18.875 11.75 
Q 22.953125 6.109375 30.078125 6.109375 
Q 37.203125 6.109375 41.296875 11.75 
Q 45.40625 17.390625 45.40625 27.296875 
Q 45.40625 37.203125 41.296875 42.84375 
Q 37.203125 48.484375 30.078125 48.484375 
Q 22.953125 48.484375 18.875 42.84375 
Q 14.796875 37.203125 14.796875 27.296875 
z
" id="DejaVuSans-100"/>
      <path d="M 54.890625 33.015625 
L 54.890625 0 
L 45.90625 0 
L 45.90625 32.71875 
Q 45.90625 40.484375 42.875 44.328125 
Q 39.84375 48.1875 33.796875 48.1875 
Q 26.515625 48.1875 22.3125 43.546875 
Q 18.109375 38.921875 18.109375 30.90625 
L 18.109375 0 
L 9.078125 0 
L 9.078125 54.6875 
L 18.109375 54.6875 
L 18.109375 46.1875 
Q 21.34375 51.125 25.703125 53.5625 
Q 30.078125 56 35.796875 56 
Q 45.21875 56 50.046875 50.171875 
Q 54.890625 44.34375 54.890625 33.015625 
z
" id="DejaVuSans-110"/>
      <path d="M 9.421875 54.6875 
L 18.40625 54.6875 
L 18.40625 0 
L 9.421875 0 
z
M 9.421875 75.984375 
L 18.40625 75.984375 
L 18.40625 64.59375 
L 9.421875 64.59375 
z
" id="DejaVuSans-105"/>
      <path d="M 18.109375 8.203125 
L 18.109375 -20.796875 
L 9.078125 -20.796875 
L 9.078125 54.6875 
L 18.109375 54.6875 
L 18.109375 46.390625 
Q 20.953125 51.265625 25.265625 53.625 
Q 29.59375 56 35.59375 56 
Q 45.5625 56 51.78125 48.09375 
Q 58.015625 40.1875 58.015625 27.296875 
Q 58.015625 14.40625 51.78125 6.484375 
Q 45.5625 -1.421875 35.59375 -1.421875 
Q 29.59375 -1.421875 25.265625 0.953125 
Q 20.953125 3.328125 18.109375 8.203125 
z
M 48.6875 27.296875 
Q 48.6875 37.203125 44.609375 42.84375 
Q 40.53125 48.484375 33.40625 48.484375 
Q 26.265625 48.484375 22.1875 42.84375 
Q 18.109375 37.203125 18.109375 27.296875 
Q 18.109375 17.390625 22.1875 11.75 
Q 26.265625 6.109375 33.40625 6.109375 
Q 40.53125 6.109375 44.609375 11.75 
Q 48.6875 17.390625 48.6875 27.296875 
z
" id="DejaVuSans-112"/>
      <path d="M 48.78125 52.59375 
L 48.78125 44.1875 
Q 44.96875 46.296875 41.140625 47.34375 
Q 37.3125 48.390625 33.40625 48.390625 
Q 24.65625 48.390625 19.8125 42.84375 
Q 14.984375 37.3125 14.984375 27.296875 
Q 14.984375 17.28125 19.8125 11.734375 
Q 24.65625 6.203125 33.40625 6.203125 
Q 37.3125 6.203125 41.140625 7.25 
Q 44.96875 8.296875 48.78125 10.40625 
L 48.78125 2.09375 
Q 45.015625 0.34375 40.984375 -0.53125 
Q 36.96875 -1.421875 32.421875 -1.421875 
Q 20.0625 -1.421875 12.78125 6.34375 
Q 5.515625 14.109375 5.515625 27.296875 
Q 5.515625 40.671875 12.859375 48.328125 
Q 20.21875 56 33.015625 56 
Q 37.15625 56 41.109375 55.140625 
Q 45.0625 54.296875 48.78125 52.59375 
z
" id="DejaVuSans-99"/>
      <path d="M 18.3125 70.21875 
L 18.3125 54.6875 
L 36.8125 54.6875 
L 36.8125 47.703125 
L 18.3125 47.703125 
L 18.3125 18.015625 
Q 18.3125 11.328125 20.140625 9.421875 
Q 21.96875 7.515625 27.59375 7.515625 
L 36.8125 7.515625 
L 36.8125 0 
L 27.59375 0 
Q 17.1875 0 13.234375 3.875 
Q 9.28125 7.765625 9.28125 18.015625 
L 9.28125 47.703125 
L 2.6875 47.703125 
L 2.6875 54.6875 
L 9.28125 54.6875 
L 9.28125 70.21875 
z
" id="DejaVuSans-116"/>
      <path d="M 28.609375 0 
L 0.78125 72.90625 
L 11.078125 72.90625 
L 34.1875 11.53125 
L 57.328125 72.90625 
L 67.578125 72.90625 
L 39.796875 0 
z
" id="DejaVuSans-86"/>
      <path d="M 9.421875 75.984375 
L 18.40625 75.984375 
L 18.40625 0 
L 9.421875 0 
z
" id="DejaVuSans-108"/>
      <path d="M 8.5 21.578125 
L 8.5 54.6875 
L 17.484375 54.6875 
L 17.484375 21.921875 
Q 17.484375 14.15625 20.5 10.265625 
Q 23.53125 6.390625 29.59375 6.390625 
Q 36.859375 6.390625 41.078125 11.03125 
Q 45.3125 15.671875 45.3125 23.6875 
L 45.3125 54.6875 
L 54.296875 54.6875 
L 54.296875 0 
L 45.3125 0 
L 45.3125 8.40625 
Q 42.046875 3.421875 37.71875 1 
Q 33.40625 -1.421875 27.6875 -1.421875 
Q 18.265625 -1.421875 13.375 4.4375 
Q 8.5 10.296875 8.5 21.578125 
z
M 31.109375 56 
z
" id="DejaVuSans-117"/>
     </defs>
     <g transform="translate(23.717604 317.756562)rotate(-90)scale(0.166667 -0.166667)">
      <use xlink:href="#DejaVuSans-100"/>
      <use x="63.476562" xlink:href="#DejaVuSans-101"/>
      <use x="125" xlink:href="#DejaVuSans-102"/>
      <use x="160.205078" xlink:href="#DejaVuSans-101"/>
      <use x="221.728516" xlink:href="#DejaVuSans-110"/>
      <use x="285.107422" xlink:href="#DejaVuSans-115"/>
      <use x="337.207031" xlink:href="#DejaVuSans-101"/>
      <use x="398.730469" xlink:href="#DejaVuSans-32"/>
      <use x="430.517578" xlink:href="#DejaVuSans-105"/>
      <use x="458.300781" xlink:href="#DejaVuSans-109"/>
      <use x="555.712891" xlink:href="#DejaVuSans-112"/>
      <use x="619.189453" xlink:href="#DejaVuSans-97"/>
      <use x="680.46875" xlink:href="#DejaVuSans-99"/>
      <use x="735.449219" xlink:href="#DejaVuSans-116"/>
      <use x="774.658203" xlink:href="#DejaVuSans-32"/>
      <use x="806.445312" xlink:href="#DejaVuSans-86"/>
      <use x="874.744141" xlink:href="#DejaVuSans-97"/>
      <use x="936.023438" xlink:href="#DejaVuSans-108"/>
      <use x="963.806641" xlink:href="#DejaVuSans-117"/>
      <use x="1027.185547" xlink:href="#DejaVuSans-101"/>
     </g>
    </g>
    <g id="text_13">
     <!-- +9.999e−1 -->
     <defs>
      <path d="M 46 62.703125 
L 46 35.5 
L 73.1875 35.5 
L 73.1875 27.203125 
L 46 27.203125 
L 46 0 
L 37.796875 0 
L 37.796875 27.203125 
L 10.59375 27.203125 
L 10.59375 35.5 
L 37.796875 35.5 
L 37.796875 62.703125 
z
" id="DejaVuSans-43"/>
      <path d="M 10.984375 1.515625 
L 10.984375 10.5 
Q 14.703125 8.734375 18.5 7.8125 
Q 22.3125 6.890625 25.984375 6.890625 
Q 35.75 6.890625 40.890625 13.453125 
Q 46.046875 20.015625 46.78125 33.40625 
Q 43.953125 29.203125 39.59375 26.953125 
Q 35.25 24.703125 29.984375 24.703125 
Q 19.046875 24.703125 12.671875 31.3125 
Q 6.296875 37.9375 6.296875 49.421875 
Q 6.296875 60.640625 12.9375 67.421875 
Q 19.578125 74.21875 30.609375 74.21875 
Q 43.265625 74.21875 49.921875 64.515625 
Q 56.59375 54.828125 56.59375 36.375 
Q 56.59375 19.140625 48.40625 8.859375 
Q 40.234375 -1.421875 26.421875 -1.421875 
Q 22.703125 -1.421875 18.890625 -0.6875 
Q 15.09375 0.046875 10.984375 1.515625 
z
M 30.609375 32.421875 
Q 37.25 32.421875 41.125 36.953125 
Q 45.015625 41.5 45.015625 49.421875 
Q 45.015625 57.28125 41.125 61.84375 
Q 37.25 66.40625 30.609375 66.40625 
Q 23.96875 66.40625 20.09375 61.84375 
Q 16.21875 57.28125 16.21875 49.421875 
Q 16.21875 41.5 20.09375 36.953125 
Q 23.96875 32.421875 30.609375 32.421875 
z
" id="DejaVuSans-57"/>
      <path d="M 10.59375 35.5 
L 73.1875 35.5 
L 73.1875 27.203125 
L 10.59375 27.203125 
z
" id="DejaVuSans-8722"/>
     </defs>
     <g transform="translate(120.89 85.5)scale(0.1 -0.1)">
      <use xlink:href="#DejaVuSans-43"/>
      <use x="83.789062" xlink:href="#DejaVuSans-57"/>
      <use x="147.412109" xlink:href="#DejaVuSans-46"/>
      <use x="179.199219" xlink:href="#DejaVuSans-57"/>
      <use x="242.822266" xlink:href="#DejaVuSans-57"/>
      <use x="306.445312" xlink:href="#DejaVuSans-57"/>
      <use x="370.068359" xlink:href="#DejaVuSans-101"/>
      <use x="431.591797" xlink:href="#DejaVuSans-8722"/>
      <use x="515.380859" xlink:href="#DejaVuSans-49"/>
     </g>
    </g>
   </g>
   <g id="line2d_11">
    <path clip-path="url(#p171e913cc2)" d="M 139.449545 101.093636 
L 143.716108 101.093636 
L 147.98267 119.82851 
L 152.249232 148.321001 
L 156.515794 197.722781 
L 160.782356 220.183094 
L 165.048918 254.969003 
L 169.315481 275.001252 
L 173.582043 286.309254 
L 177.848605 325.302004 
L 182.115167 352.966364 
L 186.381729 341.223206 
L 190.648292 309.062836 
L 194.914854 318.251512 
L 199.181416 318.40647 
L 203.447978 323.404318 
L 207.71454 328.715934 
L 211.981102 301.383596 
L 216.247665 301.999833 
L 220.514227 289.472469 
L 224.780789 286.459224 
L 229.047351 281.002396 
L 233.313913 267.231048 
L 237.580475 277.991174 
L 241.847038 267.568318 
L 246.1136 269.703146 
L 250.380162 265.404492 
L 254.646724 266.663979 
L 258.913286 278.235729 
L 263.179848 275.910805 
L 267.446411 266.802674 
L 271.712973 280.874169 
L 275.979535 288.130025 
L 280.246097 269.557762 
L 284.512659 287.566587 
L 288.779222 277.004445 
L 293.045784 272.747465 
L 297.312346 267.417639 
L 301.578908 271.579495 
L 305.84547 281.042323 
L 310.112032 285.097592 
L 314.378595 280.687416 
L 318.645157 280.724004 
L 322.911719 276.136675 
L 327.178281 284.800669 
L 331.444843 269.501117 
L 335.711405 267.349361 
L 339.977968 254.655822 
L 344.24453 242.286039 
L 348.511092 253.852976 
L 352.777654 239.275029 
L 357.044216 239.746208 
L 361.310778 247.686837 
L 365.577341 251.808696 
L 369.843903 255.376021 
L 374.110465 235.212115 
L 378.377027 243.989088 
L 382.643589 234.655603 
L 386.910152 234.644621 
L 391.176714 235.076042 
L 395.443276 242.091349 
L 399.709838 244.123487 
L 403.9764 212.168914 
L 408.242962 227.755329 
L 412.509525 239.800573 
L 416.776087 263.820557 
L 421.042649 248.090087 
L 425.309211 249.144743 
L 429.575773 267.773554 
L 433.842335 239.478596 
L 438.108898 234.753142 
L 442.37546 248.822226 
L 446.642022 249.984467 
L 450.908584 257.189728 
L 455.175146 255.892847 
L 459.441708 216.638179 
L 463.708271 182.158193 
L 467.974833 206.918175 
L 472.241395 166.497577 
L 476.507957 182.232189 
L 480.774519 183.286361 
L 485.041082 181.485188 
L 489.307644 169.239598 
L 493.574206 249.032383 
L 497.840768 231.629055 
L 502.10733 101.093636 
L 506.373892 101.093636 
L 510.640455 203.553557 
" style="fill:none;stroke:#1f77b4;stroke-linecap:square;stroke-width:1.5;"/>
   </g>
   <g id="line2d_12">
    <path clip-path="url(#p171e913cc2)" d="M 139.449545 101.093636 
L 143.716108 101.093636 
L 147.98267 141.150755 
L 152.249232 153.550401 
L 156.515794 146.376762 
L 160.782356 163.160836 
L 165.048918 228.5759 
L 169.315481 254.164602 
L 173.582043 270.244508 
L 177.848605 287.009414 
L 182.115167 299.523682 
L 186.381729 316.333983 
L 190.648292 341.496248 
L 194.914854 333.882505 
L 199.181416 344.996945 
L 203.447978 347.364485 
L 207.71454 338.805661 
L 211.981102 312.472208 
L 216.247665 309.325614 
L 220.514227 311.737457 
L 224.780789 302.125894 
L 229.047351 299.98812 
L 233.313913 292.33468 
L 237.580475 279.104365 
L 241.847038 264.669138 
L 246.1136 277.209841 
L 250.380162 286.398667 
L 254.646724 279.63128 
L 258.913286 274.723184 
L 263.179848 266.985508 
L 267.446411 261.577593 
L 271.712973 242.995063 
L 275.979535 251.014304 
L 280.246097 250.842509 
L 284.512659 252.793464 
L 288.779222 263.821097 
L 293.045784 266.88958 
L 297.312346 263.754103 
L 301.578908 262.360534 
L 305.84547 254.523986 
L 310.112032 258.674601 
L 314.378595 266.464419 
L 318.645157 268.258614 
L 322.911719 250.053022 
L 327.178281 247.534679 
L 331.444843 249.189114 
L 335.711405 261.150095 
L 339.977968 260.722251 
L 344.24453 259.421813 
L 348.511092 268.115491 
L 352.777654 277.414294 
L 357.044216 278.687317 
L 361.310778 238.371033 
L 365.577341 242.053471 
L 369.843903 238.238758 
L 374.110465 245.481912 
L 378.377027 250.019298 
L 382.643589 255.747861 
L 386.910152 242.478184 
L 391.176714 251.366124 
L 395.443276 247.719488 
L 399.709838 269.588722 
L 403.9764 266.39883 
L 408.242962 272.246294 
L 412.509525 258.412336 
L 416.776087 268.90004 
L 421.042649 250.201469 
L 425.309211 258.095534 
L 429.575773 233.428747 
L 433.842335 245.041909 
L 438.108898 252.269446 
L 442.37546 257.293478 
L 446.642022 247.236698 
L 450.908584 250.600122 
L 455.175146 218.836615 
L 459.441708 205.68386 
L 463.708271 235.920147 
L 467.974833 216.895973 
L 472.241395 155.729918 
L 476.507957 152.111639 
L 480.774519 159.327079 
L 485.041082 160.984106 
L 489.307644 179.623785 
L 493.574206 135.310608 
L 497.840768 149.585923 
L 502.10733 237.961523 
L 506.373892 237.961523 
L 510.640455 203.553557 
" style="fill:none;stroke:#ff7f0e;stroke-linecap:square;stroke-width:1.5;"/>
   </g>
   <g id="line2d_13">
    <path clip-path="url(#p171e913cc2)" d="M 139.449545 101.093636 
L 143.716108 101.093636 
L 147.98267 101.093636 
L 152.249232 103.946633 
L 156.515794 108.840219 
L 160.782356 119.006676 
L 165.048918 144.573 
L 169.315481 166.184045 
L 173.582043 155.48431 
L 177.848605 175.128071 
L 182.115167 181.179834 
L 186.381729 193.373113 
L 190.648292 211.573237 
L 194.914854 247.581356 
L 199.181416 248.283797 
L 203.447978 260.636284 
L 207.71454 250.989867 
L 211.981102 254.470836 
L 216.247665 248.405882 
L 220.514227 270.962071 
L 224.780789 289.545021 
L 229.047351 282.785291 
L 233.313913 292.866845 
L 237.580475 280.014218 
L 241.847038 278.149315 
L 246.1136 301.35084 
L 250.380162 309.755459 
L 254.646724 304.175744 
L 258.913286 295.473183 
L 263.179848 289.755811 
L 267.446411 282.479441 
L 271.712973 268.65254 
L 275.979535 270.566199 
L 280.246097 278.712197 
L 284.512659 269.2397 
L 288.779222 264.042242 
L 293.045784 249.80845 
L 297.312346 251.579264 
L 301.578908 264.415445 
L 305.84547 279.186061 
L 310.112032 265.851098 
L 314.378595 267.225717 
L 318.645157 265.464849 
L 322.911719 269.057775 
L 327.178281 258.677239 
L 331.444843 264.020247 
L 335.711405 259.815404 
L 339.977968 252.065046 
L 344.24453 260.785727 
L 348.511092 265.507735 
L 352.777654 246.478518 
L 357.044216 224.342911 
L 361.310778 227.222497 
L 365.577341 236.660214 
L 369.843903 242.537379 
L 374.110465 236.32344 
L 378.377027 232.854738 
L 382.643589 239.92811 
L 386.910152 241.65821 
L 391.176714 248.274548 
L 395.443276 245.726635 
L 399.709838 252.808846 
L 403.9764 260.999577 
L 408.242962 236.077313 
L 412.509525 237.224174 
L 416.776087 236.716823 
L 421.042649 233.574191 
L 425.309211 232.691529 
L 429.575773 235.773373 
L 433.842335 238.609493 
L 438.108898 234.013525 
L 442.37546 229.092992 
L 446.642022 221.25519 
L 450.908584 234.106777 
L 455.175146 245.388636 
L 459.441708 239.563855 
L 463.708271 231.261983 
L 467.974833 184.204057 
L 472.241395 178.350065 
L 476.507957 173.059483 
L 480.774519 175.219473 
L 485.041082 195.495504 
L 489.307644 175.391289 
L 493.574206 206.3903 
L 497.840768 206.3903 
L 502.10733 101.093636 
L 506.373892 101.093636 
L 510.640455 101.093636 
" style="fill:none;stroke:#2ca02c;stroke-linecap:square;stroke-width:1.5;"/>
   </g>
   <g id="line2d_14">
    <path clip-path="url(#p171e913cc2)" d="M 139.449545 101.093636 
L 143.716108 101.093636 
L 147.98267 101.093636 
L 152.249232 101.093636 
L 156.515794 101.924448 
L 160.782356 106.814347 
L 165.048918 109.103077 
L 169.315481 130.179618 
L 173.582043 128.088733 
L 177.848605 137.869333 
L 182.115167 147.362183 
L 186.381729 157.122237 
L 190.648292 170.919844 
L 194.914854 170.550789 
L 199.181416 181.558184 
L 203.447978 183.064378 
L 207.71454 189.30969 
L 211.981102 190.687459 
L 216.247665 192.774081 
L 220.514227 201.85682 
L 224.780789 193.945671 
L 229.047351 183.414299 
L 233.313913 179.184893 
L 237.580475 180.361609 
L 241.847038 184.179899 
L 246.1136 184.467635 
L 250.380162 192.331835 
L 254.646724 198.716962 
L 258.913286 207.067918 
L 263.179848 214.31525 
L 267.446411 226.427006 
L 271.712973 231.347291 
L 275.979535 226.909037 
L 280.246097 226.893344 
L 284.512659 223.567024 
L 288.779222 217.764373 
L 293.045784 218.194506 
L 297.312346 224.287717 
L 301.578908 225.621989 
L 305.84547 217.500131 
L 310.112032 218.653403 
L 314.378595 223.864704 
L 318.645157 238.319821 
L 322.911719 219.931794 
L 327.178281 216.675565 
L 331.444843 215.112147 
L 335.711405 197.238316 
L 339.977968 196.435475 
L 344.24453 198.563713 
L 348.511092 198.080054 
L 352.777654 196.913751 
L 357.044216 199.592657 
L 361.310778 206.591134 
L 365.577341 208.138145 
L 369.843903 211.677596 
L 374.110465 214.786482 
L 378.377027 216.614724 
L 382.643589 214.462142 
L 386.910152 213.160718 
L 391.176714 213.744174 
L 395.443276 214.866262 
L 399.709838 204.397168 
L 403.9764 202.67644 
L 408.242962 195.136841 
L 412.509525 198.021057 
L 416.776087 194.39837 
L 421.042649 194.942256 
L 425.309211 185.113918 
L 429.575773 184.780553 
L 433.842335 180.315564 
L 438.108898 175.942571 
L 442.37546 175.034289 
L 446.642022 173.764698 
L 450.908584 173.072168 
L 455.175146 169.499922 
L 459.441708 167.156583 
L 463.708271 157.400363 
L 467.974833 155.258485 
L 472.241395 160.576728 
L 476.507957 162.419502 
L 480.774519 194.190698 
L 485.041082 216.76202 
L 489.307644 231.464307 
L 493.574206 282.145336 
L 497.840768 282.145336 
L 502.10733 101.093636 
L 506.373892 101.093636 
L 510.640455 101.093636 
" style="fill:none;stroke:#d62728;stroke-linecap:square;stroke-width:1.5;"/>
   </g>
   <g id="line2d_15">
    <path clip-path="url(#p171e913cc2)" d="M 139.449545 101.093636 
L 143.716108 101.093636 
L 147.98267 101.093636 
L 152.249232 101.093636 
L 156.515794 101.400558 
L 160.782356 104.101 
L 165.048918 111.158794 
L 169.315481 122.434643 
L 173.582043 122.812178 
L 177.848605 126.807034 
L 182.115167 132.156217 
L 186.381729 141.567883 
L 190.648292 148.264786 
L 194.914854 146.388831 
L 199.181416 151.032423 
L 203.447978 152.702842 
L 207.71454 156.539436 
L 211.981102 162.334284 
L 216.247665 168.02153 
L 220.514227 175.494879 
L 224.780789 184.34765 
L 229.047351 186.483808 
L 233.313913 186.944865 
L 237.580475 172.992265 
L 241.847038 172.667343 
L 246.1136 173.864031 
L 250.380162 173.995982 
L 254.646724 174.203663 
L 258.913286 176.706272 
L 263.179848 176.891004 
L 267.446411 173.917466 
L 271.712973 174.750111 
L 275.979535 182.2265 
L 280.246097 180.237654 
L 284.512659 172.796798 
L 288.779222 172.659036 
L 293.045784 175.452434 
L 297.312346 175.405335 
L 301.578908 180.819032 
L 305.84547 182.207758 
L 310.112032 184.828397 
L 314.378595 190.027995 
L 318.645157 194.352744 
L 322.911719 195.060049 
L 327.178281 192.670209 
L 331.444843 190.037506 
L 335.711405 186.710222 
L 339.977968 178.481499 
L 344.24453 173.808949 
L 348.511092 172.186288 
L 352.777654 169.253481 
L 357.044216 166.60762 
L 361.310778 171.036108 
L 365.577341 167.979 
L 369.843903 171.991541 
L 374.110465 173.134977 
L 378.377027 173.97123 
L 382.643589 172.306142 
L 386.910152 172.665087 
L 391.176714 175.698189 
L 395.443276 162.241246 
L 399.709838 162.061287 
L 403.9764 151.71477 
L 408.242962 150.820358 
L 412.509525 149.989949 
L 416.776087 155.088099 
L 421.042649 152.691834 
L 425.309211 156.046377 
L 429.575773 156.25952 
L 433.842335 156.586175 
L 438.108898 158.455428 
L 442.37546 162.715207 
L 446.642022 166.892639 
L 450.908584 165.98339 
L 455.175146 170.343214 
L 459.441708 178.245624 
L 463.708271 174.487606 
L 467.974833 169.387276 
L 472.241395 170.273106 
L 476.507957 167.706434 
L 480.774519 176.469195 
L 485.041082 162.838981 
L 489.307644 170.105574 
L 493.574206 218.141111 
L 497.840768 218.141111 
L 502.10733 101.093636 
L 506.373892 101.093636 
L 510.640455 101.093636 
" style="fill:none;stroke:#9467bd;stroke-linecap:square;stroke-width:1.5;"/>
   </g>
   <g id="line2d_16">
    <path clip-path="url(#p171e913cc2)" d="M 139.449545 101.093636 
L 143.716108 101.093636 
L 147.98267 101.093636 
L 152.249232 101.093636 
L 156.515794 101.385203 
L 160.782356 103.454317 
L 165.048918 111.391087 
L 169.315481 129.332211 
L 173.582043 124.262023 
L 177.848605 157.661606 
L 182.115167 163.547321 
L 186.381729 170.334162 
L 190.648292 193.680802 
L 194.914854 209.905308 
L 199.181416 218.095752 
L 203.447978 222.158868 
L 207.71454 228.341664 
L 211.981102 226.654776 
L 216.247665 235.794658 
L 220.514227 246.560814 
L 224.780789 249.497128 
L 229.047351 261.113821 
L 233.313913 261.619106 
L 237.580475 242.869213 
L 241.847038 251.952877 
L 246.1136 255.423459 
L 250.380162 265.600426 
L 254.646724 267.848387 
L 258.913286 271.851303 
L 263.179848 249.73149 
L 267.446411 237.371973 
L 271.712973 244.894076 
L 275.979535 263.608826 
L 280.246097 255.002067 
L 284.512659 257.563243 
L 288.779222 263.98271 
L 293.045784 260.535185 
L 297.312346 262.334977 
L 301.578908 257.50405 
L 305.84547 270.407448 
L 310.112032 272.02377 
L 314.378595 273.308603 
L 318.645157 277.631361 
L 322.911719 264.255711 
L 327.178281 250.357309 
L 331.444843 252.060845 
L 335.711405 253.767158 
L 339.977968 248.465293 
L 344.24453 243.10796 
L 348.511092 245.774739 
L 352.777654 246.711622 
L 357.044216 249.42227 
L 361.310778 239.886979 
L 365.577341 248.307557 
L 369.843903 241.234949 
L 374.110465 237.785021 
L 378.377027 238.50798 
L 382.643589 238.480168 
L 386.910152 236.674394 
L 391.176714 251.253981 
L 395.443276 261.098643 
L 399.709838 258.886387 
L 403.9764 265.542576 
L 408.242962 263.394246 
L 412.509525 249.135382 
L 416.776087 235.010318 
L 421.042649 219.103978 
L 425.309211 213.526792 
L 429.575773 211.83915 
L 433.842335 206.37295 
L 438.108898 203.981205 
L 442.37546 225.495431 
L 446.642022 266.57046 
L 450.908584 276.087939 
L 455.175146 230.42455 
L 459.441708 237.005047 
L 463.708271 267.817172 
L 467.974833 246.150014 
L 472.241395 250.850421 
L 476.507957 212.036779 
L 480.774519 196.136083 
L 485.041082 168.84394 
L 489.307644 197.704321 
L 493.574206 224.688973 
L 497.840768 167.246693 
L 502.10733 123.93977 
L 506.373892 132.774808 
L 510.640455 203.553557 
" style="fill:none;stroke:#8c564b;stroke-linecap:square;stroke-width:1.5;"/>
   </g>
   <g id="line2d_17">
    <path clip-path="url(#p171e913cc2)" d="M 139.449545 101.093636 
L 143.716108 101.093636 
L 147.98267 101.093636 
L 152.249232 101.093636 
L 156.515794 105.036747 
L 160.782356 111.496314 
L 165.048918 115.214086 
L 169.315481 124.08912 
L 173.582043 132.622399 
L 177.848605 130.175593 
L 182.115167 139.6415 
L 186.381729 159.86207 
L 190.648292 168.927229 
L 194.914854 175.618563 
L 199.181416 185.274835 
L 203.447978 194.593296 
L 207.71454 199.868168 
L 211.981102 187.102269 
L 216.247665 188.952737 
L 220.514227 202.553965 
L 224.780789 203.793473 
L 229.047351 211.520378 
L 233.313913 219.883214 
L 237.580475 221.217498 
L 241.847038 227.193986 
L 246.1136 222.89506 
L 250.380162 237.869444 
L 254.646724 249.588467 
L 258.913286 263.735197 
L 263.179848 268.979745 
L 267.446411 275.945874 
L 271.712973 275.015898 
L 275.979535 259.481132 
L 280.246097 265.478914 
L 284.512659 254.012898 
L 288.779222 242.425877 
L 293.045784 244.547644 
L 297.312346 239.498147 
L 301.578908 238.269418 
L 305.84547 252.790845 
L 310.112032 242.45473 
L 314.378595 243.432462 
L 318.645157 263.70709 
L 322.911719 256.846584 
L 327.178281 248.807459 
L 331.444843 244.35932 
L 335.711405 241.551298 
L 339.977968 248.482889 
L 344.24453 248.04691 
L 348.511092 241.690948 
L 352.777654 231.533986 
L 357.044216 228.393812 
L 361.310778 231.460104 
L 365.577341 229.058191 
L 369.843903 245.351086 
L 374.110465 238.67572 
L 378.377027 239.732942 
L 382.643589 256.506282 
L 386.910152 255.572793 
L 391.176714 232.049241 
L 395.443276 240.223141 
L 399.709838 234.394522 
L 403.9764 241.405484 
L 408.242962 248.025315 
L 412.509525 232.6678 
L 416.776087 219.89799 
L 421.042649 228.004236 
L 425.309211 237.829499 
L 429.575773 239.548299 
L 433.842335 226.926739 
L 438.108898 214.185732 
L 442.37546 200.061218 
L 446.642022 215.240275 
L 450.908584 233.850351 
L 455.175146 227.824317 
L 459.441708 219.51311 
L 463.708271 191.890947 
L 467.974833 210.538744 
L 472.241395 207.650014 
L 476.507957 208.675686 
L 480.774519 225.629685 
L 485.041082 211.597529 
L 489.307644 219.764975 
L 493.574206 150.825692 
L 497.840768 150.825692 
L 502.10733 123.556719 
L 506.373892 123.556719 
L 510.640455 123.556719 
" style="fill:none;stroke:#e377c2;stroke-linecap:square;stroke-width:1.5;"/>
   </g>
   <g id="line2d_18">
    <path clip-path="url(#p171e913cc2)" d="M 139.449545 101.093636 
L 143.716108 101.093636 
L 147.98267 103.177852 
L 152.249232 108.211573 
L 156.515794 130.90346 
L 160.782356 146.803176 
L 165.048918 173.132941 
L 169.315481 192.303049 
L 173.582043 197.366303 
L 177.848605 217.263214 
L 182.115167 215.923512 
L 186.381729 235.212963 
L 190.648292 244.538309 
L 194.914854 259.781519 
L 199.181416 253.908128 
L 203.447978 264.295701 
L 207.71454 265.903896 
L 211.981102 264.707384 
L 216.247665 262.628623 
L 220.514227 263.628857 
L 224.780789 271.916258 
L 229.047351 280.270518 
L 233.313913 269.361405 
L 237.580475 270.581547 
L 241.847038 275.340645 
L 246.1136 284.361393 
L 250.380162 280.0041 
L 254.646724 271.498755 
L 258.913286 263.81555 
L 263.179848 261.983547 
L 267.446411 263.196552 
L 271.712973 249.709817 
L 275.979535 253.641497 
L 280.246097 260.950571 
L 284.512659 267.046619 
L 288.779222 267.466426 
L 293.045784 259.974991 
L 297.312346 262.425672 
L 301.578908 249.097041 
L 305.84547 254.188949 
L 310.112032 242.50399 
L 314.378595 240.377239 
L 318.645157 232.671704 
L 322.911719 235.54297 
L 327.178281 230.857714 
L 331.444843 233.606202 
L 335.711405 229.202627 
L 339.977968 237.97436 
L 344.24453 248.264212 
L 348.511092 235.151799 
L 352.777654 244.918959 
L 357.044216 240.3487 
L 361.310778 242.013625 
L 365.577341 251.41971 
L 369.843903 254.778127 
L 374.110465 248.823278 
L 378.377027 236.620863 
L 382.643589 232.174738 
L 386.910152 243.178625 
L 391.176714 247.603812 
L 395.443276 241.811623 
L 399.709838 240.672068 
L 403.9764 250.670437 
L 408.242962 254.085497 
L 412.509525 242.08543 
L 416.776087 222.376491 
L 421.042649 220.164892 
L 425.309211 238.888742 
L 429.575773 216.369435 
L 433.842335 196.167972 
L 438.108898 187.657761 
L 442.37546 206.055831 
L 446.642022 237.777572 
L 450.908584 255.161579 
L 455.175146 261.406373 
L 459.441708 252.204809 
L 463.708271 262.848473 
L 467.974833 264.364097 
L 472.241395 289.474708 
L 476.507957 210.147374 
L 480.774519 174.007874 
L 485.041082 168.724114 
L 489.307644 184.895204 
L 493.574206 210.849571 
L 497.840768 266.724862 
L 502.10733 123.93977 
L 506.373892 123.93977 
L 510.640455 123.93977 
" style="fill:none;stroke:#7f7f7f;stroke-linecap:square;stroke-width:1.5;"/>
   </g>
   <g id="line2d_19">
    <path clip-path="url(#p171e913cc2)" d="M 139.449545 101.093636 
L 143.716108 101.093636 
L 147.98267 137.199878 
L 152.249232 151.693327 
L 156.515794 201.389313 
L 160.782356 253.430125 
L 165.048918 260.315887 
L 169.315481 283.831998 
L 173.582043 298.344507 
L 177.848605 321.571779 
L 182.115167 308.809542 
L 186.381729 306.83042 
L 190.648292 307.6987 
L 194.914854 310.853648 
L 199.181416 289.55939 
L 203.447978 287.564417 
L 207.71454 281.052939 
L 211.981102 270.153011 
L 216.247665 270.86925 
L 220.514227 277.653148 
L 224.780789 258.022779 
L 229.047351 270.112517 
L 233.313913 254.21873 
L 237.580475 272.114483 
L 241.847038 294.947476 
L 246.1136 308.992585 
L 250.380162 308.261684 
L 254.646724 278.690339 
L 258.913286 251.714014 
L 263.179848 267.031534 
L 267.446411 268.177586 
L 271.712973 269.130736 
L 275.979535 268.690315 
L 280.246097 257.481596 
L 284.512659 262.308743 
L 288.779222 252.456837 
L 293.045784 256.947332 
L 297.312346 282.698684 
L 301.578908 266.303166 
L 305.84547 268.35526 
L 310.112032 262.786102 
L 314.378595 255.874884 
L 318.645157 258.945304 
L 322.911719 261.037022 
L 327.178281 253.639111 
L 331.444843 253.399091 
L 335.711405 267.124117 
L 339.977968 245.403194 
L 344.24453 241.056708 
L 348.511092 234.769922 
L 352.777654 246.037664 
L 357.044216 232.51844 
L 361.310778 225.467389 
L 365.577341 233.583347 
L 369.843903 240.105415 
L 374.110465 240.796004 
L 378.377027 223.116548 
L 382.643589 221.988602 
L 386.910152 224.274869 
L 391.176714 222.444272 
L 395.443276 217.464324 
L 399.709838 226.676927 
L 403.9764 233.154152 
L 408.242962 242.295115 
L 412.509525 254.9813 
L 416.776087 253.356095 
L 421.042649 227.973224 
L 425.309211 207.523463 
L 429.575773 257.690715 
L 433.842335 251.378897 
L 438.108898 207.182044 
L 442.37546 207.117458 
L 446.642022 207.314128 
L 450.908584 208.797917 
L 455.175146 222.391995 
L 459.441708 227.467721 
L 463.708271 219.374973 
L 467.974833 189.622573 
L 472.241395 188.063332 
L 476.507957 181.938165 
L 480.774519 208.057101 
L 485.041082 199.524387 
L 489.307644 196.451324 
L 493.574206 250.360539 
L 497.840768 250.360539 
L 502.10733 240.129554 
L 506.373892 240.129554 
L 510.640455 240.129554 
" style="fill:none;stroke:#bcbd22;stroke-linecap:square;stroke-width:1.5;"/>
   </g>
   <g id="patch_3">
    <path d="M 120.89 365.56 
L 120.89 88.5 
" style="fill:none;stroke:#000000;stroke-linecap:square;stroke-linejoin:miter;stroke-width:0.8;"/>
   </g>
   <g id="patch_4">
    <path d="M 529.2 365.56 
L 529.2 88.5 
" style="fill:none;stroke:#000000;stroke-linecap:square;stroke-linejoin:miter;stroke-width:0.8;"/>
   </g>
   <g id="patch_5">
    <path d="M 120.89 365.56 
L 529.2 365.56 
" style="fill:none;stroke:#000000;stroke-linecap:square;stroke-linejoin:miter;stroke-width:0.8;"/>
   </g>
   <g id="patch_6">
    <path d="M 120.89 88.5 
L 529.2 88.5 
" style="fill:none;stroke:#000000;stroke-linecap:square;stroke-linejoin:miter;stroke-width:0.8;"/>
   </g>
   <g id="legend_1">
    <g id="patch_7">
     <path d="M 131.39 81 
L 518.7 81 
Q 521.7 81 521.7 78 
L 521.7 13.448438 
Q 521.7 10.448438 518.7 10.448438 
L 131.39 10.448438 
Q 128.39 10.448438 128.39 13.448438 
L 128.39 78 
Q 128.39 81 131.39 81 
z
" style="fill:#ffffff;opacity:0.8;stroke:#cccccc;stroke-linejoin:miter;"/>
    </g>
    <g id="line2d_20">
     <path d="M 134.39 22.596094 
L 164.39 22.596094 
" style="fill:none;stroke:#1f77b4;stroke-linecap:square;stroke-width:1.5;"/>
    </g>
    <g id="line2d_21"/>
    <g id="text_14">
     <!-- Stra 1 -->
     <defs>
      <path d="M 53.515625 70.515625 
L 53.515625 60.890625 
Q 47.90625 63.578125 42.921875 64.890625 
Q 37.9375 66.21875 33.296875 66.21875 
Q 25.25 66.21875 20.875 63.09375 
Q 16.5 59.96875 16.5 54.203125 
Q 16.5 49.359375 19.40625 46.890625 
Q 22.3125 44.4375 30.421875 42.921875 
L 36.375 41.703125 
Q 47.40625 39.59375 52.65625 34.296875 
Q 57.90625 29 57.90625 20.125 
Q 57.90625 9.515625 50.796875 4.046875 
Q 43.703125 -1.421875 29.984375 -1.421875 
Q 24.8125 -1.421875 18.96875 -0.25 
Q 13.140625 0.921875 6.890625 3.21875 
L 6.890625 13.375 
Q 12.890625 10.015625 18.65625 8.296875 
Q 24.421875 6.59375 29.984375 6.59375 
Q 38.421875 6.59375 43.015625 9.90625 
Q 47.609375 13.234375 47.609375 19.390625 
Q 47.609375 24.75 44.3125 27.78125 
Q 41.015625 30.8125 33.5 32.328125 
L 27.484375 33.5 
Q 16.453125 35.6875 11.515625 40.375 
Q 6.59375 45.0625 6.59375 53.421875 
Q 6.59375 63.09375 13.40625 68.65625 
Q 20.21875 74.21875 32.171875 74.21875 
Q 37.3125 74.21875 42.625 73.28125 
Q 47.953125 72.359375 53.515625 70.515625 
z
" id="DejaVuSans-83"/>
      <path d="M 41.109375 46.296875 
Q 39.59375 47.171875 37.8125 47.578125 
Q 36.03125 48 33.890625 48 
Q 26.265625 48 22.1875 43.046875 
Q 18.109375 38.09375 18.109375 28.8125 
L 18.109375 0 
L 9.078125 0 
L 9.078125 54.6875 
L 18.109375 54.6875 
L 18.109375 46.1875 
Q 20.953125 51.171875 25.484375 53.578125 
Q 30.03125 56 36.53125 56 
Q 37.453125 56 38.578125 55.875 
Q 39.703125 55.765625 41.0625 55.515625 
z
" id="DejaVuSans-114"/>
     </defs>
     <g transform="translate(176.39 27.846094)scale(0.15 -0.15)">
      <use xlink:href="#DejaVuSans-83"/>
      <use x="63.476562" xlink:href="#DejaVuSans-116"/>
      <use x="102.685547" xlink:href="#DejaVuSans-114"/>
      <use x="143.798828" xlink:href="#DejaVuSans-97"/>
      <use x="205.078125" xlink:href="#DejaVuSans-32"/>
      <use x="236.865234" xlink:href="#DejaVuSans-49"/>
     </g>
    </g>
    <g id="line2d_22">
     <path d="M 134.39 44.613281 
L 164.39 44.613281 
" style="fill:none;stroke:#ff7f0e;stroke-linecap:square;stroke-width:1.5;"/>
    </g>
    <g id="line2d_23"/>
    <g id="text_15">
     <!-- Stra 2 -->
     <g transform="translate(176.39 49.863281)scale(0.15 -0.15)">
      <use xlink:href="#DejaVuSans-83"/>
      <use x="63.476562" xlink:href="#DejaVuSans-116"/>
      <use x="102.685547" xlink:href="#DejaVuSans-114"/>
      <use x="143.798828" xlink:href="#DejaVuSans-97"/>
      <use x="205.078125" xlink:href="#DejaVuSans-32"/>
      <use x="236.865234" xlink:href="#DejaVuSans-50"/>
     </g>
    </g>
    <g id="line2d_24">
     <path d="M 134.39 66.630469 
L 164.39 66.630469 
" style="fill:none;stroke:#2ca02c;stroke-linecap:square;stroke-width:1.5;"/>
    </g>
    <g id="line2d_25"/>
    <g id="text_16">
     <!-- Stra 3 -->
     <defs>
      <path d="M 40.578125 39.3125 
Q 47.65625 37.796875 51.625 33 
Q 55.609375 28.21875 55.609375 21.1875 
Q 55.609375 10.40625 48.1875 4.484375 
Q 40.765625 -1.421875 27.09375 -1.421875 
Q 22.515625 -1.421875 17.65625 -0.515625 
Q 12.796875 0.390625 7.625 2.203125 
L 7.625 11.71875 
Q 11.71875 9.328125 16.59375 8.109375 
Q 21.484375 6.890625 26.8125 6.890625 
Q 36.078125 6.890625 40.9375 10.546875 
Q 45.796875 14.203125 45.796875 21.1875 
Q 45.796875 27.640625 41.28125 31.265625 
Q 36.765625 34.90625 28.71875 34.90625 
L 20.21875 34.90625 
L 20.21875 43.015625 
L 29.109375 43.015625 
Q 36.375 43.015625 40.234375 45.921875 
Q 44.09375 48.828125 44.09375 54.296875 
Q 44.09375 59.90625 40.109375 62.90625 
Q 36.140625 65.921875 28.71875 65.921875 
Q 24.65625 65.921875 20.015625 65.03125 
Q 15.375 64.15625 9.8125 62.3125 
L 9.8125 71.09375 
Q 15.4375 72.65625 20.34375 73.4375 
Q 25.25 74.21875 29.59375 74.21875 
Q 40.828125 74.21875 47.359375 69.109375 
Q 53.90625 64.015625 53.90625 55.328125 
Q 53.90625 49.265625 50.4375 45.09375 
Q 46.96875 40.921875 40.578125 39.3125 
z
" id="DejaVuSans-51"/>
     </defs>
     <g transform="translate(176.39 71.880469)scale(0.15 -0.15)">
      <use xlink:href="#DejaVuSans-83"/>
      <use x="63.476562" xlink:href="#DejaVuSans-116"/>
      <use x="102.685547" xlink:href="#DejaVuSans-114"/>
      <use x="143.798828" xlink:href="#DejaVuSans-97"/>
      <use x="205.078125" xlink:href="#DejaVuSans-32"/>
      <use x="236.865234" xlink:href="#DejaVuSans-51"/>
     </g>
    </g>
    <g id="line2d_26">
     <path d="M 232.469115 22.596094 
L 262.469115 22.596094 
" style="fill:none;stroke:#d62728;stroke-linecap:square;stroke-width:1.5;"/>
    </g>
    <g id="line2d_27"/>
    <g id="text_17">
     <!-- Stra 4 -->
     <g transform="translate(274.469115 27.846094)scale(0.15 -0.15)">
      <use xlink:href="#DejaVuSans-83"/>
      <use x="63.476562" xlink:href="#DejaVuSans-116"/>
      <use x="102.685547" xlink:href="#DejaVuSans-114"/>
      <use x="143.798828" xlink:href="#DejaVuSans-97"/>
      <use x="205.078125" xlink:href="#DejaVuSans-32"/>
      <use x="236.865234" xlink:href="#DejaVuSans-52"/>
     </g>
    </g>
    <g id="line2d_28">
     <path d="M 232.469115 44.613281 
L 262.469115 44.613281 
" style="fill:none;stroke:#9467bd;stroke-linecap:square;stroke-width:1.5;"/>
    </g>
    <g id="line2d_29"/>
    <g id="text_18">
     <!-- Stra 5 -->
     <defs>
      <path d="M 10.796875 72.90625 
L 49.515625 72.90625 
L 49.515625 64.59375 
L 19.828125 64.59375 
L 19.828125 46.734375 
Q 21.96875 47.46875 24.109375 47.828125 
Q 26.265625 48.1875 28.421875 48.1875 
Q 40.625 48.1875 47.75 41.5 
Q 54.890625 34.8125 54.890625 23.390625 
Q 54.890625 11.625 47.5625 5.09375 
Q 40.234375 -1.421875 26.90625 -1.421875 
Q 22.3125 -1.421875 17.546875 -0.640625 
Q 12.796875 0.140625 7.71875 1.703125 
L 7.71875 11.625 
Q 12.109375 9.234375 16.796875 8.0625 
Q 21.484375 6.890625 26.703125 6.890625 
Q 35.15625 6.890625 40.078125 11.328125 
Q 45.015625 15.765625 45.015625 23.390625 
Q 45.015625 31 40.078125 35.4375 
Q 35.15625 39.890625 26.703125 39.890625 
Q 22.75 39.890625 18.8125 39.015625 
Q 14.890625 38.140625 10.796875 36.28125 
z
" id="DejaVuSans-53"/>
     </defs>
     <g transform="translate(274.469115 49.863281)scale(0.15 -0.15)">
      <use xlink:href="#DejaVuSans-83"/>
      <use x="63.476562" xlink:href="#DejaVuSans-116"/>
      <use x="102.685547" xlink:href="#DejaVuSans-114"/>
      <use x="143.798828" xlink:href="#DejaVuSans-97"/>
      <use x="205.078125" xlink:href="#DejaVuSans-32"/>
      <use x="236.865234" xlink:href="#DejaVuSans-53"/>
     </g>
    </g>
    <g id="line2d_30">
     <path d="M 330.548229 22.596094 
L 360.548229 22.596094 
" style="fill:none;stroke:#8c564b;stroke-linecap:square;stroke-width:1.5;"/>
    </g>
    <g id="line2d_31"/>
    <g id="text_19">
     <!-- Stra 6 -->
     <g transform="translate(372.548229 27.846094)scale(0.15 -0.15)">
      <use xlink:href="#DejaVuSans-83"/>
      <use x="63.476562" xlink:href="#DejaVuSans-116"/>
      <use x="102.685547" xlink:href="#DejaVuSans-114"/>
      <use x="143.798828" xlink:href="#DejaVuSans-97"/>
      <use x="205.078125" xlink:href="#DejaVuSans-32"/>
      <use x="236.865234" xlink:href="#DejaVuSans-54"/>
     </g>
    </g>
    <g id="line2d_32">
     <path d="M 330.548229 44.613281 
L 360.548229 44.613281 
" style="fill:none;stroke:#e377c2;stroke-linecap:square;stroke-width:1.5;"/>
    </g>
    <g id="line2d_33"/>
    <g id="text_20">
     <!-- Stra 7 -->
     <defs>
      <path d="M 8.203125 72.90625 
L 55.078125 72.90625 
L 55.078125 68.703125 
L 28.609375 0 
L 18.3125 0 
L 43.21875 64.59375 
L 8.203125 64.59375 
z
" id="DejaVuSans-55"/>
     </defs>
     <g transform="translate(372.548229 49.863281)scale(0.15 -0.15)">
      <use xlink:href="#DejaVuSans-83"/>
      <use x="63.476562" xlink:href="#DejaVuSans-116"/>
      <use x="102.685547" xlink:href="#DejaVuSans-114"/>
      <use x="143.798828" xlink:href="#DejaVuSans-97"/>
      <use x="205.078125" xlink:href="#DejaVuSans-32"/>
      <use x="236.865234" xlink:href="#DejaVuSans-55"/>
     </g>
    </g>
    <g id="line2d_34">
     <path d="M 428.627344 22.596094 
L 458.627344 22.596094 
" style="fill:none;stroke:#7f7f7f;stroke-linecap:square;stroke-width:1.5;"/>
    </g>
    <g id="line2d_35"/>
    <g id="text_21">
     <!-- Stra 8 -->
     <g transform="translate(470.627344 27.846094)scale(0.15 -0.15)">
      <use xlink:href="#DejaVuSans-83"/>
      <use x="63.476562" xlink:href="#DejaVuSans-116"/>
      <use x="102.685547" xlink:href="#DejaVuSans-114"/>
      <use x="143.798828" xlink:href="#DejaVuSans-97"/>
      <use x="205.078125" xlink:href="#DejaVuSans-32"/>
      <use x="236.865234" xlink:href="#DejaVuSans-56"/>
     </g>
    </g>
    <g id="line2d_36">
     <path d="M 428.627344 44.613281 
L 458.627344 44.613281 
" style="fill:none;stroke:#bcbd22;stroke-linecap:square;stroke-width:1.5;"/>
    </g>
    <g id="line2d_37"/>
    <g id="text_22">
     <!-- Stra 9 -->
     <g transform="translate(470.627344 49.863281)scale(0.15 -0.15)">
      <use xlink:href="#DejaVuSans-83"/>
      <use x="63.476562" xlink:href="#DejaVuSans-116"/>
      <use x="102.685547" xlink:href="#DejaVuSans-114"/>
      <use x="143.798828" xlink:href="#DejaVuSans-97"/>
      <use x="205.078125" xlink:href="#DejaVuSans-32"/>
      <use x="236.865234" xlink:href="#DejaVuSans-57"/>
     </g>
    </g>
   </g>
  </g>
 </g>
 <defs>
  <clipPath id="p171e913cc2">
   <rect height="277.06" width="408.31" x="120.89" y="88.5"/>
  </clipPath>
 </defs>
</svg>
