<?xml version="1.0" encoding="utf-8" standalone="no"?>
<!DOCTYPE svg PUBLIC "-//W3C//DTD SVG 1.1//EN"
  "http://www.w3.org/Graphics/SVG/1.1/DTD/svg11.dtd">
<!-- Created with matplotlib (https://matplotlib.org/) -->
<svg height="432pt" version="1.1" viewBox="0 0 540 432" width="540pt" xmlns="http://www.w3.org/2000/svg" xmlns:xlink="http://www.w3.org/1999/xlink">
 <defs>
  <style type="text/css">
*{stroke-linecap:butt;stroke-linejoin:round;}
  </style>
 </defs>
 <g id="figure_1">
  <g id="patch_1">
   <path d="M 0 432 
L 540 432 
L 540 0 
L 0 0 
z
" style="fill:#ffffff;"/>
  </g>
  <g id="axes_1">
   <g id="patch_2">
    <path d="M 51.05 365.56 
L 529.2 365.56 
L 529.2 88.5 
L 51.05 88.5 
z
" style="fill:#ffffff;"/>
   </g>
   <g id="matplotlib.axis_1">
    <g id="xtick_1">
     <g id="line2d_1">
      <defs>
       <path d="M 0 0 
L 0 3.5 
" id="me47f5c7765" style="stroke:#000000;stroke-width:0.8;"/>
      </defs>
      <g>
       <use style="stroke:#000000;stroke-width:0.8;" x="72.784091" xlink:href="#me47f5c7765" y="365.56"/>
      </g>
     </g>
     <g id="text_1">
      <!-- 0 -->
      <defs>
       <path d="M 31.78125 66.40625 
Q 24.171875 66.40625 20.328125 58.90625 
Q 16.5 51.421875 16.5 36.375 
Q 16.5 21.390625 20.328125 13.890625 
Q 24.171875 6.390625 31.78125 6.390625 
Q 39.453125 6.390625 43.28125 13.890625 
Q 47.125 21.390625 47.125 36.375 
Q 47.125 51.421875 43.28125 58.90625 
Q 39.453125 66.40625 31.78125 66.40625 
z
M 31.78125 74.21875 
Q 44.046875 74.21875 50.515625 64.515625 
Q 56.984375 54.828125 56.984375 36.375 
Q 56.984375 17.96875 50.515625 8.265625 
Q 44.046875 -1.421875 31.78125 -1.421875 
Q 19.53125 -1.421875 13.0625 8.265625 
Q 6.59375 17.96875 6.59375 36.375 
Q 6.59375 54.828125 13.0625 64.515625 
Q 19.53125 74.21875 31.78125 74.21875 
z
" id="DejaVuSans-48"/>
      </defs>
      <g transform="translate(66.421591 387.756875)scale(0.2 -0.2)">
       <use xlink:href="#DejaVuSans-48"/>
      </g>
     </g>
    </g>
    <g id="xtick_2">
     <g id="line2d_2">
      <g>
       <use style="stroke:#000000;stroke-width:0.8;" x="172.710946" xlink:href="#me47f5c7765" y="365.56"/>
      </g>
     </g>
     <g id="text_2">
      <!-- 20 -->
      <defs>
       <path d="M 19.1875 8.296875 
L 53.609375 8.296875 
L 53.609375 0 
L 7.328125 0 
L 7.328125 8.296875 
Q 12.9375 14.109375 22.625 23.890625 
Q 32.328125 33.6875 34.8125 36.53125 
Q 39.546875 41.84375 41.421875 45.53125 
Q 43.3125 49.21875 43.3125 52.78125 
Q 43.3125 58.59375 39.234375 62.25 
Q 35.15625 65.921875 28.609375 65.921875 
Q 23.96875 65.921875 18.8125 64.3125 
Q 13.671875 62.703125 7.8125 59.421875 
L 7.8125 69.390625 
Q 13.765625 71.78125 18.9375 73 
Q 24.125 74.21875 28.421875 74.21875 
Q 39.75 74.21875 46.484375 68.546875 
Q 53.21875 62.890625 53.21875 53.421875 
Q 53.21875 48.921875 51.53125 44.890625 
Q 49.859375 40.875 45.40625 35.40625 
Q 44.1875 33.984375 37.640625 27.21875 
Q 31.109375 20.453125 19.1875 8.296875 
z
" id="DejaVuSans-50"/>
      </defs>
      <g transform="translate(159.985946 387.756875)scale(0.2 -0.2)">
       <use xlink:href="#DejaVuSans-50"/>
       <use x="63.623047" xlink:href="#DejaVuSans-48"/>
      </g>
     </g>
    </g>
    <g id="xtick_3">
     <g id="line2d_3">
      <g>
       <use style="stroke:#000000;stroke-width:0.8;" x="272.6378" xlink:href="#me47f5c7765" y="365.56"/>
      </g>
     </g>
     <g id="text_3">
      <!-- 40 -->
      <defs>
       <path d="M 37.796875 64.3125 
L 12.890625 25.390625 
L 37.796875 25.390625 
z
M 35.203125 72.90625 
L 47.609375 72.90625 
L 47.609375 25.390625 
L 58.015625 25.390625 
L 58.015625 17.1875 
L 47.609375 17.1875 
L 47.609375 0 
L 37.796875 0 
L 37.796875 17.1875 
L 4.890625 17.1875 
L 4.890625 26.703125 
z
" id="DejaVuSans-52"/>
      </defs>
      <g transform="translate(259.9128 387.756875)scale(0.2 -0.2)">
       <use xlink:href="#DejaVuSans-52"/>
       <use x="63.623047" xlink:href="#DejaVuSans-48"/>
      </g>
     </g>
    </g>
    <g id="xtick_4">
     <g id="line2d_4">
      <g>
       <use style="stroke:#000000;stroke-width:0.8;" x="372.564655" xlink:href="#me47f5c7765" y="365.56"/>
      </g>
     </g>
     <g id="text_4">
      <!-- 60 -->
      <defs>
       <path d="M 33.015625 40.375 
Q 26.375 40.375 22.484375 35.828125 
Q 18.609375 31.296875 18.609375 23.390625 
Q 18.609375 15.53125 22.484375 10.953125 
Q 26.375 6.390625 33.015625 6.390625 
Q 39.65625 6.390625 43.53125 10.953125 
Q 47.40625 15.53125 47.40625 23.390625 
Q 47.40625 31.296875 43.53125 35.828125 
Q 39.65625 40.375 33.015625 40.375 
z
M 52.59375 71.296875 
L 52.59375 62.3125 
Q 48.875 64.0625 45.09375 64.984375 
Q 41.3125 65.921875 37.59375 65.921875 
Q 27.828125 65.921875 22.671875 59.328125 
Q 17.53125 52.734375 16.796875 39.40625 
Q 19.671875 43.65625 24.015625 45.921875 
Q 28.375 48.1875 33.59375 48.1875 
Q 44.578125 48.1875 50.953125 41.515625 
Q 57.328125 34.859375 57.328125 23.390625 
Q 57.328125 12.15625 50.6875 5.359375 
Q 44.046875 -1.421875 33.015625 -1.421875 
Q 20.359375 -1.421875 13.671875 8.265625 
Q 6.984375 17.96875 6.984375 36.375 
Q 6.984375 53.65625 15.1875 63.9375 
Q 23.390625 74.21875 37.203125 74.21875 
Q 40.921875 74.21875 44.703125 73.484375 
Q 48.484375 72.75 52.59375 71.296875 
z
" id="DejaVuSans-54"/>
      </defs>
      <g transform="translate(359.839655 387.756875)scale(0.2 -0.2)">
       <use xlink:href="#DejaVuSans-54"/>
       <use x="63.623047" xlink:href="#DejaVuSans-48"/>
      </g>
     </g>
    </g>
    <g id="xtick_5">
     <g id="line2d_5">
      <g>
       <use style="stroke:#000000;stroke-width:0.8;" x="472.49151" xlink:href="#me47f5c7765" y="365.56"/>
      </g>
     </g>
     <g id="text_5">
      <!-- 80 -->
      <defs>
       <path d="M 31.78125 34.625 
Q 24.75 34.625 20.71875 30.859375 
Q 16.703125 27.09375 16.703125 20.515625 
Q 16.703125 13.921875 20.71875 10.15625 
Q 24.75 6.390625 31.78125 6.390625 
Q 38.8125 6.390625 42.859375 10.171875 
Q 46.921875 13.96875 46.921875 20.515625 
Q 46.921875 27.09375 42.890625 30.859375 
Q 38.875 34.625 31.78125 34.625 
z
M 21.921875 38.8125 
Q 15.578125 40.375 12.03125 44.71875 
Q 8.5 49.078125 8.5 55.328125 
Q 8.5 64.0625 14.71875 69.140625 
Q 20.953125 74.21875 31.78125 74.21875 
Q 42.671875 74.21875 48.875 69.140625 
Q 55.078125 64.0625 55.078125 55.328125 
Q 55.078125 49.078125 51.53125 44.71875 
Q 48 40.375 41.703125 38.8125 
Q 48.828125 37.15625 52.796875 32.3125 
Q 56.78125 27.484375 56.78125 20.515625 
Q 56.78125 9.90625 50.3125 4.234375 
Q 43.84375 -1.421875 31.78125 -1.421875 
Q 19.734375 -1.421875 13.25 4.234375 
Q 6.78125 9.90625 6.78125 20.515625 
Q 6.78125 27.484375 10.78125 32.3125 
Q 14.796875 37.15625 21.921875 38.8125 
z
M 18.3125 54.390625 
Q 18.3125 48.734375 21.84375 45.5625 
Q 25.390625 42.390625 31.78125 42.390625 
Q 38.140625 42.390625 41.71875 45.5625 
Q 45.3125 48.734375 45.3125 54.390625 
Q 45.3125 60.0625 41.71875 63.234375 
Q 38.140625 66.40625 31.78125 66.40625 
Q 25.390625 66.40625 21.84375 63.234375 
Q 18.3125 60.0625 18.3125 54.390625 
z
" id="DejaVuSans-56"/>
      </defs>
      <g transform="translate(459.76651 387.756875)scale(0.2 -0.2)">
       <use xlink:href="#DejaVuSans-56"/>
       <use x="63.623047" xlink:href="#DejaVuSans-48"/>
      </g>
     </g>
    </g>
    <g id="text_6">
     <!-- # of games -->
     <defs>
      <path d="M 51.125 44 
L 36.921875 44 
L 32.8125 27.6875 
L 47.125 27.6875 
z
M 43.796875 71.78125 
L 38.71875 51.515625 
L 52.984375 51.515625 
L 58.109375 71.78125 
L 65.921875 71.78125 
L 60.890625 51.515625 
L 76.125 51.515625 
L 76.125 44 
L 58.984375 44 
L 54.984375 27.6875 
L 70.515625 27.6875 
L 70.515625 20.21875 
L 53.078125 20.21875 
L 48 0 
L 40.1875 0 
L 45.21875 20.21875 
L 30.90625 20.21875 
L 25.875 0 
L 18.015625 0 
L 23.09375 20.21875 
L 7.71875 20.21875 
L 7.71875 27.6875 
L 24.90625 27.6875 
L 29 44 
L 13.28125 44 
L 13.28125 51.515625 
L 30.90625 51.515625 
L 35.890625 71.78125 
z
" id="DejaVuSans-35"/>
      <path id="DejaVuSans-32"/>
      <path d="M 30.609375 48.390625 
Q 23.390625 48.390625 19.1875 42.75 
Q 14.984375 37.109375 14.984375 27.296875 
Q 14.984375 17.484375 19.15625 11.84375 
Q 23.34375 6.203125 30.609375 6.203125 
Q 37.796875 6.203125 41.984375 11.859375 
Q 46.1875 17.53125 46.1875 27.296875 
Q 46.1875 37.015625 41.984375 42.703125 
Q 37.796875 48.390625 30.609375 48.390625 
z
M 30.609375 56 
Q 42.328125 56 49.015625 48.375 
Q 55.71875 40.765625 55.71875 27.296875 
Q 55.71875 13.875 49.015625 6.21875 
Q 42.328125 -1.421875 30.609375 -1.421875 
Q 18.84375 -1.421875 12.171875 6.21875 
Q 5.515625 13.875 5.515625 27.296875 
Q 5.515625 40.765625 12.171875 48.375 
Q 18.84375 56 30.609375 56 
z
" id="DejaVuSans-111"/>
      <path d="M 37.109375 75.984375 
L 37.109375 68.5 
L 28.515625 68.5 
Q 23.6875 68.5 21.796875 66.546875 
Q 19.921875 64.59375 19.921875 59.515625 
L 19.921875 54.6875 
L 34.71875 54.6875 
L 34.71875 47.703125 
L 19.921875 47.703125 
L 19.921875 0 
L 10.890625 0 
L 10.890625 47.703125 
L 2.296875 47.703125 
L 2.296875 54.6875 
L 10.890625 54.6875 
L 10.890625 58.5 
Q 10.890625 67.625 15.140625 71.796875 
Q 19.390625 75.984375 28.609375 75.984375 
z
" id="DejaVuSans-102"/>
      <path d="M 45.40625 27.984375 
Q 45.40625 37.75 41.375 43.109375 
Q 37.359375 48.484375 30.078125 48.484375 
Q 22.859375 48.484375 18.828125 43.109375 
Q 14.796875 37.75 14.796875 27.984375 
Q 14.796875 18.265625 18.828125 12.890625 
Q 22.859375 7.515625 30.078125 7.515625 
Q 37.359375 7.515625 41.375 12.890625 
Q 45.40625 18.265625 45.40625 27.984375 
z
M 54.390625 6.78125 
Q 54.390625 -7.171875 48.1875 -13.984375 
Q 42 -20.796875 29.203125 -20.796875 
Q 24.46875 -20.796875 20.265625 -20.09375 
Q 16.0625 -19.390625 12.109375 -17.921875 
L 12.109375 -9.1875 
Q 16.0625 -11.328125 19.921875 -12.34375 
Q 23.78125 -13.375 27.78125 -13.375 
Q 36.625 -13.375 41.015625 -8.765625 
Q 45.40625 -4.15625 45.40625 5.171875 
L 45.40625 9.625 
Q 42.625 4.78125 38.28125 2.390625 
Q 33.9375 0 27.875 0 
Q 17.828125 0 11.671875 7.65625 
Q 5.515625 15.328125 5.515625 27.984375 
Q 5.515625 40.671875 11.671875 48.328125 
Q 17.828125 56 27.875 56 
Q 33.9375 56 38.28125 53.609375 
Q 42.625 51.21875 45.40625 46.390625 
L 45.40625 54.6875 
L 54.390625 54.6875 
z
" id="DejaVuSans-103"/>
      <path d="M 34.28125 27.484375 
Q 23.390625 27.484375 19.1875 25 
Q 14.984375 22.515625 14.984375 16.5 
Q 14.984375 11.71875 18.140625 8.90625 
Q 21.296875 6.109375 26.703125 6.109375 
Q 34.1875 6.109375 38.703125 11.40625 
Q 43.21875 16.703125 43.21875 25.484375 
L 43.21875 27.484375 
z
M 52.203125 31.203125 
L 52.203125 0 
L 43.21875 0 
L 43.21875 8.296875 
Q 40.140625 3.328125 35.546875 0.953125 
Q 30.953125 -1.421875 24.3125 -1.421875 
Q 15.921875 -1.421875 10.953125 3.296875 
Q 6 8.015625 6 15.921875 
Q 6 25.140625 12.171875 29.828125 
Q 18.359375 34.515625 30.609375 34.515625 
L 43.21875 34.515625 
L 43.21875 35.40625 
Q 43.21875 41.609375 39.140625 45 
Q 35.0625 48.390625 27.6875 48.390625 
Q 23 48.390625 18.546875 47.265625 
Q 14.109375 46.140625 10.015625 43.890625 
L 10.015625 52.203125 
Q 14.9375 54.109375 19.578125 55.046875 
Q 24.21875 56 28.609375 56 
Q 40.484375 56 46.34375 49.84375 
Q 52.203125 43.703125 52.203125 31.203125 
z
" id="DejaVuSans-97"/>
      <path d="M 52 44.1875 
Q 55.375 50.25 60.0625 53.125 
Q 64.75 56 71.09375 56 
Q 79.640625 56 84.28125 50.015625 
Q 88.921875 44.046875 88.921875 33.015625 
L 88.921875 0 
L 79.890625 0 
L 79.890625 32.71875 
Q 79.890625 40.578125 77.09375 44.375 
Q 74.3125 48.1875 68.609375 48.1875 
Q 61.625 48.1875 57.5625 43.546875 
Q 53.515625 38.921875 53.515625 30.90625 
L 53.515625 0 
L 44.484375 0 
L 44.484375 32.71875 
Q 44.484375 40.625 41.703125 44.40625 
Q 38.921875 48.1875 33.109375 48.1875 
Q 26.21875 48.1875 22.15625 43.53125 
Q 18.109375 38.875 18.109375 30.90625 
L 18.109375 0 
L 9.078125 0 
L 9.078125 54.6875 
L 18.109375 54.6875 
L 18.109375 46.1875 
Q 21.1875 51.21875 25.484375 53.609375 
Q 29.78125 56 35.6875 56 
Q 41.65625 56 45.828125 52.96875 
Q 50 49.953125 52 44.1875 
z
" id="DejaVuSans-109"/>
      <path d="M 56.203125 29.59375 
L 56.203125 25.203125 
L 14.890625 25.203125 
Q 15.484375 15.921875 20.484375 11.0625 
Q 25.484375 6.203125 34.421875 6.203125 
Q 39.59375 6.203125 44.453125 7.46875 
Q 49.3125 8.734375 54.109375 11.28125 
L 54.109375 2.78125 
Q 49.265625 0.734375 44.1875 -0.34375 
Q 39.109375 -1.421875 33.890625 -1.421875 
Q 20.796875 -1.421875 13.15625 6.1875 
Q 5.515625 13.8125 5.515625 26.8125 
Q 5.515625 40.234375 12.765625 48.109375 
Q 20.015625 56 32.328125 56 
Q 43.359375 56 49.78125 48.890625 
Q 56.203125 41.796875 56.203125 29.59375 
z
M 47.21875 32.234375 
Q 47.125 39.59375 43.09375 43.984375 
Q 39.0625 48.390625 32.421875 48.390625 
Q 24.90625 48.390625 20.390625 44.140625 
Q 15.875 39.890625 15.1875 32.171875 
z
" id="DejaVuSans-101"/>
      <path d="M 44.28125 53.078125 
L 44.28125 44.578125 
Q 40.484375 46.53125 36.375 47.5 
Q 32.28125 48.484375 27.875 48.484375 
Q 21.1875 48.484375 17.84375 46.4375 
Q 14.5 44.390625 14.5 40.28125 
Q 14.5 37.15625 16.890625 35.375 
Q 19.28125 33.59375 26.515625 31.984375 
L 29.59375 31.296875 
Q 39.15625 29.25 43.1875 25.515625 
Q 47.21875 21.78125 47.21875 15.09375 
Q 47.21875 7.46875 41.1875 3.015625 
Q 35.15625 -1.421875 24.609375 -1.421875 
Q 20.21875 -1.421875 15.453125 -0.5625 
Q 10.6875 0.296875 5.421875 2 
L 5.421875 11.28125 
Q 10.40625 8.6875 15.234375 7.390625 
Q 20.0625 6.109375 24.8125 6.109375 
Q 31.15625 6.109375 34.5625 8.28125 
Q 37.984375 10.453125 37.984375 14.40625 
Q 37.984375 18.0625 35.515625 20.015625 
Q 33.0625 21.96875 24.703125 23.78125 
L 21.578125 24.515625 
Q 13.234375 26.265625 9.515625 29.90625 
Q 5.8125 33.546875 5.8125 39.890625 
Q 5.8125 47.609375 11.28125 51.796875 
Q 16.75 56 26.8125 56 
Q 31.78125 56 36.171875 55.265625 
Q 40.578125 54.546875 44.28125 53.078125 
z
" id="DejaVuSans-115"/>
     </defs>
     <g transform="translate(217.681641 414.912344)scale(0.25 -0.25)">
      <use xlink:href="#DejaVuSans-35"/>
      <use x="83.789062" xlink:href="#DejaVuSans-32"/>
      <use x="115.576172" xlink:href="#DejaVuSans-111"/>
      <use x="176.757812" xlink:href="#DejaVuSans-102"/>
      <use x="211.962891" xlink:href="#DejaVuSans-32"/>
      <use x="243.75" xlink:href="#DejaVuSans-103"/>
      <use x="307.226562" xlink:href="#DejaVuSans-97"/>
      <use x="368.505859" xlink:href="#DejaVuSans-109"/>
      <use x="465.917969" xlink:href="#DejaVuSans-101"/>
      <use x="527.441406" xlink:href="#DejaVuSans-115"/>
     </g>
    </g>
   </g>
   <g id="matplotlib.axis_2">
    <g id="ytick_1">
     <g id="line2d_6">
      <defs>
       <path d="M 0 0 
L -3.5 0 
" id="md9d9fb3cd0" style="stroke:#000000;stroke-width:0.8;"/>
      </defs>
      <g>
       <use style="stroke:#000000;stroke-width:0.8;" x="51.05" xlink:href="#md9d9fb3cd0" y="352.966364"/>
      </g>
     </g>
     <g id="text_7">
      <!-- 1 -->
      <defs>
       <path d="M 12.40625 8.296875 
L 28.515625 8.296875 
L 28.515625 63.921875 
L 10.984375 60.40625 
L 10.984375 69.390625 
L 28.421875 72.90625 
L 38.28125 72.90625 
L 38.28125 8.296875 
L 54.390625 8.296875 
L 54.390625 0 
L 12.40625 0 
z
" id="DejaVuSans-49"/>
      </defs>
      <g transform="translate(31.325 360.564801)scale(0.2 -0.2)">
       <use xlink:href="#DejaVuSans-49"/>
      </g>
     </g>
    </g>
    <g id="ytick_2">
     <g id="line2d_7">
      <g>
       <use style="stroke:#000000;stroke-width:0.8;" x="51.05" xlink:href="#md9d9fb3cd0" y="321.482273"/>
      </g>
     </g>
     <g id="text_8">
      <!-- 2 -->
      <g transform="translate(31.325 329.08071)scale(0.2 -0.2)">
       <use xlink:href="#DejaVuSans-50"/>
      </g>
     </g>
    </g>
    <g id="ytick_3">
     <g id="line2d_8">
      <g>
       <use style="stroke:#000000;stroke-width:0.8;" x="51.05" xlink:href="#md9d9fb3cd0" y="289.998182"/>
      </g>
     </g>
     <g id="text_9">
      <!-- 3 -->
      <defs>
       <path d="M 40.578125 39.3125 
Q 47.65625 37.796875 51.625 33 
Q 55.609375 28.21875 55.609375 21.1875 
Q 55.609375 10.40625 48.1875 4.484375 
Q 40.765625 -1.421875 27.09375 -1.421875 
Q 22.515625 -1.421875 17.65625 -0.515625 
Q 12.796875 0.390625 7.625 2.203125 
L 7.625 11.71875 
Q 11.71875 9.328125 16.59375 8.109375 
Q 21.484375 6.890625 26.8125 6.890625 
Q 36.078125 6.890625 40.9375 10.546875 
Q 45.796875 14.203125 45.796875 21.1875 
Q 45.796875 27.640625 41.28125 31.265625 
Q 36.765625 34.90625 28.71875 34.90625 
L 20.21875 34.90625 
L 20.21875 43.015625 
L 29.109375 43.015625 
Q 36.375 43.015625 40.234375 45.921875 
Q 44.09375 48.828125 44.09375 54.296875 
Q 44.09375 59.90625 40.109375 62.90625 
Q 36.140625 65.921875 28.71875 65.921875 
Q 24.65625 65.921875 20.015625 65.03125 
Q 15.375 64.15625 9.8125 62.3125 
L 9.8125 71.09375 
Q 15.4375 72.65625 20.34375 73.4375 
Q 25.25 74.21875 29.59375 74.21875 
Q 40.828125 74.21875 47.359375 69.109375 
Q 53.90625 64.015625 53.90625 55.328125 
Q 53.90625 49.265625 50.4375 45.09375 
Q 46.96875 40.921875 40.578125 39.3125 
z
" id="DejaVuSans-51"/>
      </defs>
      <g transform="translate(31.325 297.596619)scale(0.2 -0.2)">
       <use xlink:href="#DejaVuSans-51"/>
      </g>
     </g>
    </g>
    <g id="ytick_4">
     <g id="line2d_9">
      <g>
       <use style="stroke:#000000;stroke-width:0.8;" x="51.05" xlink:href="#md9d9fb3cd0" y="258.514091"/>
      </g>
     </g>
     <g id="text_10">
      <!-- 4 -->
      <g transform="translate(31.325 266.112528)scale(0.2 -0.2)">
       <use xlink:href="#DejaVuSans-52"/>
      </g>
     </g>
    </g>
    <g id="ytick_5">
     <g id="line2d_10">
      <g>
       <use style="stroke:#000000;stroke-width:0.8;" x="51.05" xlink:href="#md9d9fb3cd0" y="227.03"/>
      </g>
     </g>
     <g id="text_11">
      <!-- 5 -->
      <defs>
       <path d="M 10.796875 72.90625 
L 49.515625 72.90625 
L 49.515625 64.59375 
L 19.828125 64.59375 
L 19.828125 46.734375 
Q 21.96875 47.46875 24.109375 47.828125 
Q 26.265625 48.1875 28.421875 48.1875 
Q 40.625 48.1875 47.75 41.5 
Q 54.890625 34.8125 54.890625 23.390625 
Q 54.890625 11.625 47.5625 5.09375 
Q 40.234375 -1.421875 26.90625 -1.421875 
Q 22.3125 -1.421875 17.546875 -0.640625 
Q 12.796875 0.140625 7.71875 1.703125 
L 7.71875 11.625 
Q 12.109375 9.234375 16.796875 8.0625 
Q 21.484375 6.890625 26.703125 6.890625 
Q 35.15625 6.890625 40.078125 11.328125 
Q 45.015625 15.765625 45.015625 23.390625 
Q 45.015625 31 40.078125 35.4375 
Q 35.15625 39.890625 26.703125 39.890625 
Q 22.75 39.890625 18.8125 39.015625 
Q 14.890625 38.140625 10.796875 36.28125 
z
" id="DejaVuSans-53"/>
      </defs>
      <g transform="translate(31.325 234.628437)scale(0.2 -0.2)">
       <use xlink:href="#DejaVuSans-53"/>
      </g>
     </g>
    </g>
    <g id="ytick_6">
     <g id="line2d_11">
      <g>
       <use style="stroke:#000000;stroke-width:0.8;" x="51.05" xlink:href="#md9d9fb3cd0" y="195.545909"/>
      </g>
     </g>
     <g id="text_12">
      <!-- 6 -->
      <g transform="translate(31.325 203.144347)scale(0.2 -0.2)">
       <use xlink:href="#DejaVuSans-54"/>
      </g>
     </g>
    </g>
    <g id="ytick_7">
     <g id="line2d_12">
      <g>
       <use style="stroke:#000000;stroke-width:0.8;" x="51.05" xlink:href="#md9d9fb3cd0" y="164.061818"/>
      </g>
     </g>
     <g id="text_13">
      <!-- 7 -->
      <defs>
       <path d="M 8.203125 72.90625 
L 55.078125 72.90625 
L 55.078125 68.703125 
L 28.609375 0 
L 18.3125 0 
L 43.21875 64.59375 
L 8.203125 64.59375 
z
" id="DejaVuSans-55"/>
      </defs>
      <g transform="translate(31.325 171.660256)scale(0.2 -0.2)">
       <use xlink:href="#DejaVuSans-55"/>
      </g>
     </g>
    </g>
    <g id="ytick_8">
     <g id="line2d_13">
      <g>
       <use style="stroke:#000000;stroke-width:0.8;" x="51.05" xlink:href="#md9d9fb3cd0" y="132.577727"/>
      </g>
     </g>
     <g id="text_14">
      <!-- 8 -->
      <g transform="translate(31.325 140.176165)scale(0.2 -0.2)">
       <use xlink:href="#DejaVuSans-56"/>
      </g>
     </g>
    </g>
    <g id="ytick_9">
     <g id="line2d_14">
      <g>
       <use style="stroke:#000000;stroke-width:0.8;" x="51.05" xlink:href="#md9d9fb3cd0" y="101.093636"/>
      </g>
     </g>
     <g id="text_15">
      <!-- 9 -->
      <defs>
       <path d="M 10.984375 1.515625 
L 10.984375 10.5 
Q 14.703125 8.734375 18.5 7.8125 
Q 22.3125 6.890625 25.984375 6.890625 
Q 35.75 6.890625 40.890625 13.453125 
Q 46.046875 20.015625 46.78125 33.40625 
Q 43.953125 29.203125 39.59375 26.953125 
Q 35.25 24.703125 29.984375 24.703125 
Q 19.046875 24.703125 12.671875 31.3125 
Q 6.296875 37.9375 6.296875 49.421875 
Q 6.296875 60.640625 12.9375 67.421875 
Q 19.578125 74.21875 30.609375 74.21875 
Q 43.265625 74.21875 49.921875 64.515625 
Q 56.59375 54.828125 56.59375 36.375 
Q 56.59375 19.140625 48.40625 8.859375 
Q 40.234375 -1.421875 26.421875 -1.421875 
Q 22.703125 -1.421875 18.890625 -0.6875 
Q 15.09375 0.046875 10.984375 1.515625 
z
M 30.609375 32.421875 
Q 37.25 32.421875 41.125 36.953125 
Q 45.015625 41.5 45.015625 49.421875 
Q 45.015625 57.28125 41.125 61.84375 
Q 37.25 66.40625 30.609375 66.40625 
Q 23.96875 66.40625 20.09375 61.84375 
Q 16.21875 57.28125 16.21875 49.421875 
Q 16.21875 41.5 20.09375 36.953125 
Q 23.96875 32.421875 30.609375 32.421875 
z
" id="DejaVuSans-57"/>
      </defs>
      <g transform="translate(31.325 108.692074)scale(0.2 -0.2)">
       <use xlink:href="#DejaVuSans-57"/>
      </g>
     </g>
    </g>
    <g id="text_16">
     <!-- DHEU Value -->
     <defs>
      <path d="M 19.671875 64.796875 
L 19.671875 8.109375 
L 31.59375 8.109375 
Q 46.6875 8.109375 53.6875 14.9375 
Q 60.6875 21.78125 60.6875 36.53125 
Q 60.6875 51.171875 53.6875 57.984375 
Q 46.6875 64.796875 31.59375 64.796875 
z
M 9.8125 72.90625 
L 30.078125 72.90625 
Q 51.265625 72.90625 61.171875 64.09375 
Q 71.09375 55.28125 71.09375 36.53125 
Q 71.09375 17.671875 61.125 8.828125 
Q 51.171875 0 30.078125 0 
L 9.8125 0 
z
" id="DejaVuSans-68"/>
      <path d="M 9.8125 72.90625 
L 19.671875 72.90625 
L 19.671875 43.015625 
L 55.515625 43.015625 
L 55.515625 72.90625 
L 65.375 72.90625 
L 65.375 0 
L 55.515625 0 
L 55.515625 34.71875 
L 19.671875 34.71875 
L 19.671875 0 
L 9.8125 0 
z
" id="DejaVuSans-72"/>
      <path d="M 9.8125 72.90625 
L 55.90625 72.90625 
L 55.90625 64.59375 
L 19.671875 64.59375 
L 19.671875 43.015625 
L 54.390625 43.015625 
L 54.390625 34.71875 
L 19.671875 34.71875 
L 19.671875 8.296875 
L 56.78125 8.296875 
L 56.78125 0 
L 9.8125 0 
z
" id="DejaVuSans-69"/>
      <path d="M 8.6875 72.90625 
L 18.609375 72.90625 
L 18.609375 28.609375 
Q 18.609375 16.890625 22.84375 11.734375 
Q 27.09375 6.59375 36.625 6.59375 
Q 46.09375 6.59375 50.34375 11.734375 
Q 54.59375 16.890625 54.59375 28.609375 
L 54.59375 72.90625 
L 64.5 72.90625 
L 64.5 27.390625 
Q 64.5 13.140625 57.4375 5.859375 
Q 50.390625 -1.421875 36.625 -1.421875 
Q 22.796875 -1.421875 15.734375 5.859375 
Q 8.6875 13.140625 8.6875 27.390625 
z
" id="DejaVuSans-85"/>
      <path d="M 28.609375 0 
L 0.78125 72.90625 
L 11.078125 72.90625 
L 34.1875 11.53125 
L 57.328125 72.90625 
L 67.578125 72.90625 
L 39.796875 0 
z
" id="DejaVuSans-86"/>
      <path d="M 9.421875 75.984375 
L 18.40625 75.984375 
L 18.40625 0 
L 9.421875 0 
z
" id="DejaVuSans-108"/>
      <path d="M 8.5 21.578125 
L 8.5 54.6875 
L 17.484375 54.6875 
L 17.484375 21.921875 
Q 17.484375 14.15625 20.5 10.265625 
Q 23.53125 6.390625 29.59375 6.390625 
Q 36.859375 6.390625 41.078125 11.03125 
Q 45.3125 15.671875 45.3125 23.6875 
L 45.3125 54.6875 
L 54.296875 54.6875 
L 54.296875 0 
L 45.3125 0 
L 45.3125 8.40625 
Q 42.046875 3.421875 37.71875 1 
Q 33.40625 -1.421875 27.6875 -1.421875 
Q 18.265625 -1.421875 13.375 4.4375 
Q 8.5 10.296875 8.5 21.578125 
z
M 31.109375 56 
z
" id="DejaVuSans-117"/>
     </defs>
     <g transform="translate(23.858854 277.24875)rotate(-90)scale(0.166667 -0.166667)">
      <use xlink:href="#DejaVuSans-68"/>
      <use x="77.001953" xlink:href="#DejaVuSans-72"/>
      <use x="152.197266" xlink:href="#DejaVuSans-69"/>
      <use x="215.380859" xlink:href="#DejaVuSans-85"/>
      <use x="288.574219" xlink:href="#DejaVuSans-32"/>
      <use x="320.361328" xlink:href="#DejaVuSans-86"/>
      <use x="388.660156" xlink:href="#DejaVuSans-97"/>
      <use x="449.939453" xlink:href="#DejaVuSans-108"/>
      <use x="477.722656" xlink:href="#DejaVuSans-117"/>
      <use x="541.101562" xlink:href="#DejaVuSans-101"/>
     </g>
    </g>
   </g>
   <g id="line2d_15">
    <path clip-path="url(#p16f89512b5)" d="M 72.784091 185.051212 
L 77.780434 185.051212 
L 82.776776 185.05075 
L 87.773119 185.052376 
L 92.769462 185.053748 
L 97.765805 185.052462 
L 102.762147 185.054823 
L 107.75849 185.054272 
L 112.754833 185.054462 
L 117.751176 185.056112 
L 122.747518 185.058847 
L 127.743861 185.057519 
L 132.740204 185.054124 
L 137.736546 185.054799 
L 142.732889 185.055604 
L 147.729232 185.056023 
L 152.725575 185.056578 
L 157.721917 185.054678 
L 162.71826 185.054497 
L 167.714603 185.052677 
L 172.710946 185.053556 
L 177.707288 185.052606 
L 182.703631 185.052436 
L 187.699974 185.052648 
L 192.696317 185.050332 
L 197.692659 185.049627 
L 202.689002 185.049089 
L 207.685345 185.050828 
L 212.681688 185.053203 
L 217.67803 185.051895 
L 222.674373 185.050873 
L 227.670716 185.051851 
L 232.667059 185.052457 
L 237.663401 185.051555 
L 242.659744 185.053157 
L 247.656087 185.052962 
L 252.652429 185.05225 
L 257.648772 185.050093 
L 262.645115 185.051232 
L 267.641458 185.052103 
L 272.6378 185.052617 
L 277.634143 185.052364 
L 282.630486 185.051697 
L 287.626829 185.051698 
L 292.623171 185.053046 
L 297.619514 185.051779 
L 302.615857 185.051408 
L 307.6122 185.051772 
L 312.608542 185.051048 
L 317.604885 185.052477 
L 322.601228 185.05072 
L 327.597571 185.051575 
L 332.593913 185.052367 
L 337.590256 185.05227 
L 342.586599 185.052097 
L 347.582941 185.05021 
L 352.579284 185.051956 
L 357.575627 185.051349 
L 362.57197 185.051251 
L 367.568312 185.051285 
L 372.564655 185.052466 
L 377.560998 185.052289 
L 382.557341 185.049483 
L 387.553683 185.050679 
L 392.550026 185.050956 
L 397.546369 185.053168 
L 402.542712 185.053267 
L 407.539054 185.05475 
L 412.535397 185.053526 
L 417.53174 185.051465 
L 422.528083 185.053668 
L 427.524425 185.054856 
L 432.520768 185.0549 
L 437.517111 185.055213 
L 442.513454 185.054311 
L 447.509796 185.050571 
L 452.506139 185.048338 
L 457.502482 185.052138 
L 462.498824 185.048549 
L 467.495167 185.050378 
L 472.49151 185.048833 
L 477.487853 185.048877 
L 482.484195 185.047511 
L 487.480538 185.049535 
L 492.476881 185.048032 
L 497.473224 185.043203 
L 502.469566 185.043203 
L 507.465909 185.052056 
" style="fill:none;stroke:#1f77b4;stroke-linecap:square;stroke-width:1.5;"/>
   </g>
   <g id="line2d_16">
    <path clip-path="url(#p16f89512b5)" d="M 72.784091 269.008788 
L 77.780434 269.008788 
L 82.776776 269.011209 
L 87.773119 269.011862 
L 92.769462 269.009744 
L 97.765805 269.009253 
L 102.762147 269.014202 
L 107.75849 269.013879 
L 112.754833 269.014947 
L 117.751176 269.014962 
L 122.747518 269.01563 
L 127.743861 269.016285 
L 132.740204 269.017303 
L 137.736546 269.01668 
L 142.732889 269.017384 
L 147.729232 269.017391 
L 152.725575 269.016279 
L 157.721917 269.013982 
L 162.71826 269.013304 
L 167.714603 269.012624 
L 172.710946 269.012375 
L 177.707288 269.012281 
L 182.703631 269.012284 
L 187.699974 269.011253 
L 192.696317 269.009147 
L 197.692659 269.009666 
L 202.689002 269.010063 
L 207.685345 269.010182 
L 212.681688 269.010178 
L 217.67803 269.008618 
L 222.674373 269.00778 
L 227.670716 269.00578 
L 232.667059 269.006393 
L 237.663401 269.006814 
L 242.659744 269.007493 
L 247.656087 269.009029 
L 252.652429 269.008993 
L 257.648772 269.007557 
L 262.645115 269.007577 
L 267.641458 269.007184 
L 272.6378 269.007387 
L 277.634143 269.007719 
L 282.630486 269.006798 
L 287.626829 269.006202 
L 292.623171 269.006543 
L 297.619514 269.006776 
L 302.615857 269.008626 
L 307.6122 269.009634 
L 312.608542 269.009834 
L 317.604885 269.010902 
L 322.601228 269.011686 
L 327.597571 269.012255 
L 332.593913 269.008375 
L 337.590256 269.008486 
L 342.586599 269.007759 
L 347.582941 269.008155 
L 352.579284 269.008994 
L 357.575627 269.00979 
L 362.57197 269.008646 
L 367.568312 269.009251 
L 372.564655 269.009654 
L 377.560998 269.011635 
L 382.557341 269.01183 
L 387.553683 269.012822 
L 392.550026 269.011197 
L 397.546369 269.012236 
L 402.542712 269.011343 
L 407.539054 269.013041 
L 412.535397 269.009577 
L 417.53174 269.010805 
L 422.528083 269.012832 
L 427.524425 269.013205 
L 432.520768 269.012242 
L 437.517111 269.012039 
L 442.513454 269.00889 
L 447.509796 269.007496 
L 452.506139 269.010901 
L 457.502482 269.010008 
L 462.498824 269.004394 
L 467.495167 269.004492 
L 472.49151 269.004099 
L 477.487853 269.003906 
L 482.484195 269.004634 
L 487.480538 268.995724 
L 492.476881 268.996957 
L 497.473224 269.01661 
L 502.469566 269.01661 
L 507.465909 269.013637 
" style="fill:none;stroke:#ff7f0e;stroke-linecap:square;stroke-width:1.5;"/>
   </g>
   <g id="line2d_17">
    <path clip-path="url(#p16f89512b5)" d="M 72.784091 269.008788 
L 77.780434 269.008788 
L 82.776776 269.007747 
L 87.773119 269.007576 
L 92.769462 269.006501 
L 97.765805 269.005439 
L 102.762147 269.006942 
L 107.75849 269.006274 
L 112.754833 269.00503 
L 117.751176 269.005294 
L 122.747518 269.005403 
L 127.743861 269.00566 
L 132.740204 269.006076 
L 137.736546 269.009223 
L 142.732889 269.009028 
L 147.729232 269.009897 
L 152.725575 269.008691 
L 157.721917 269.008971 
L 162.71826 269.00804 
L 167.714603 269.009101 
L 172.710946 269.011288 
L 177.707288 269.010795 
L 182.703631 269.01233 
L 187.699974 269.011331 
L 192.696317 269.010313 
L 197.692659 269.011753 
L 202.689002 269.012083 
L 207.685345 269.012304 
L 212.681688 269.01197 
L 217.67803 269.010585 
L 222.674373 269.009586 
L 227.670716 269.007997 
L 232.667059 269.008083 
L 237.663401 269.009222 
L 242.659744 269.008914 
L 247.656087 269.009049 
L 252.652429 269.007518 
L 257.648772 269.006505 
L 262.645115 269.007754 
L 267.641458 269.009315 
L 272.6378 269.008008 
L 277.634143 269.007785 
L 282.630486 269.006558 
L 287.626829 269.007844 
L 292.623171 269.007506 
L 297.619514 269.008059 
L 302.615857 269.008511 
L 307.6122 269.008886 
L 312.608542 269.009952 
L 317.604885 269.010676 
L 322.601228 269.009013 
L 327.597571 269.007559 
L 332.593913 269.007411 
L 337.590256 269.008021 
L 342.586599 269.00813 
L 347.582941 269.007363 
L 352.579284 269.007511 
L 357.575627 269.008423 
L 362.57197 269.008576 
L 367.568312 269.008984 
L 372.564655 269.009483 
L 377.560998 269.010186 
L 382.557341 269.011364 
L 387.553683 269.009697 
L 392.550026 269.009366 
L 397.546369 269.009455 
L 402.542712 269.009906 
L 407.539054 269.010846 
L 412.535397 269.009779 
L 417.53174 269.010249 
L 422.528083 269.011254 
L 427.524425 269.010768 
L 432.520768 269.009997 
L 437.517111 269.010613 
L 442.513454 269.011184 
L 447.509796 269.010424 
L 452.506139 269.010498 
L 457.502482 269.007183 
L 462.498824 269.006348 
L 467.495167 269.006302 
L 472.49151 269.005472 
L 477.487853 269.006888 
L 482.484195 269.004268 
L 487.480538 269.001865 
L 492.476881 269.001865 
L 497.473224 269.004783 
L 502.469566 269.004783 
L 507.465909 269.004783 
" style="fill:none;stroke:#2ca02c;stroke-linecap:square;stroke-width:1.5;"/>
   </g>
   <g id="line2d_18">
    <path clip-path="url(#p16f89512b5)" d="M 72.784091 352.966364 
L 77.780434 352.966364 
L 82.776776 352.966364 
L 87.773119 352.966364 
L 92.769462 352.966337 
L 97.765805 352.966104 
L 102.762147 352.965533 
L 107.75849 352.964568 
L 112.754833 352.964535 
L 117.751176 352.964234 
L 122.747518 352.963881 
L 127.743861 352.963442 
L 132.740204 352.962937 
L 137.736546 352.963092 
L 142.732889 352.962738 
L 147.729232 352.962486 
L 152.725575 352.962185 
L 157.721917 352.961802 
L 162.71826 352.961403 
L 167.714603 352.961149 
L 172.710946 352.960489 
L 177.707288 352.96024 
L 182.703631 352.960185 
L 187.699974 352.961227 
L 192.696317 352.961256 
L 197.692659 352.96104 
L 202.689002 352.961092 
L 207.685345 352.961422 
L 212.681688 352.961607 
L 217.67803 352.961558 
L 222.674373 352.962097 
L 227.670716 352.961973 
L 232.667059 352.961451 
L 237.663401 352.961618 
L 242.659744 352.962305 
L 247.656087 352.962253 
L 252.652429 352.962032 
L 257.648772 352.961922 
L 262.645115 352.961539 
L 267.641458 352.961354 
L 272.6378 352.96098 
L 277.634143 352.96062 
L 282.630486 352.960389 
L 287.626829 352.960354 
L 292.623171 352.960591 
L 297.619514 352.960582 
L 302.615857 352.960857 
L 307.6122 352.961416 
L 312.608542 352.961881 
L 317.604885 352.962042 
L 322.601228 352.962399 
L 327.597571 352.962735 
L 332.593913 352.96244 
L 337.590256 352.962615 
L 342.586599 352.962605 
L 347.582941 352.962559 
L 352.579284 352.962624 
L 357.575627 352.962841 
L 362.57197 352.962832 
L 367.568312 352.962558 
L 372.564655 352.963518 
L 377.560998 352.963148 
L 382.557341 352.963985 
L 387.553683 352.964458 
L 392.550026 352.964611 
L 397.546369 352.964427 
L 402.542712 352.964461 
L 407.539054 352.964253 
L 412.535397 352.964391 
L 417.53174 352.964071 
L 422.528083 352.963887 
L 427.524425 352.963714 
L 432.520768 352.963472 
L 437.517111 352.962735 
L 442.513454 352.962407 
L 447.509796 352.962039 
L 452.506139 352.962034 
L 457.502482 352.96169 
L 462.498824 352.961588 
L 467.495167 352.962098 
L 472.49151 352.964448 
L 477.487853 352.965525 
L 482.484195 352.965339 
L 487.480538 352.964424 
L 492.476881 352.964424 
L 497.473224 352.966364 
L 502.469566 352.966364 
L 507.465909 352.966364 
" style="fill:none;stroke:#d62728;stroke-linecap:square;stroke-width:1.5;"/>
   </g>
   <g id="line2d_19">
    <path clip-path="url(#p16f89512b5)" d="M 72.784091 352.966364 
L 77.780434 352.966364 
L 82.776776 352.966364 
L 87.773119 352.966364 
L 92.769462 352.966292 
L 97.765805 352.965869 
L 102.762147 352.965711 
L 107.75849 352.963898 
L 112.754833 352.964079 
L 117.751176 352.963278 
L 122.747518 352.962566 
L 127.743861 352.962099 
L 132.740204 352.96098 
L 137.736546 352.961006 
L 142.732889 352.960103 
L 147.729232 352.959865 
L 152.725575 352.959356 
L 157.721917 352.959354 
L 162.71826 352.959267 
L 167.714603 352.958872 
L 172.710946 352.959661 
L 177.707288 352.960506 
L 182.703631 352.960856 
L 187.699974 352.960591 
L 192.696317 352.960263 
L 197.692659 352.960126 
L 202.689002 352.95951 
L 207.685345 352.959306 
L 212.681688 352.958985 
L 217.67803 352.958326 
L 222.674373 352.957563 
L 227.670716 352.957085 
L 232.667059 352.957592 
L 237.663401 352.957589 
L 242.659744 352.95792 
L 247.656087 352.958358 
L 252.652429 352.958342 
L 257.648772 352.957703 
L 262.645115 352.957672 
L 267.641458 352.958307 
L 272.6378 352.95806 
L 277.634143 352.957698 
L 282.630486 352.956592 
L 287.626829 352.958207 
L 292.623171 352.958519 
L 297.619514 352.958418 
L 302.615857 352.959948 
L 307.6122 352.959865 
L 312.608542 352.959743 
L 317.604885 352.959805 
L 322.601228 352.96001 
L 327.597571 352.959886 
L 332.593913 352.959368 
L 337.590256 352.959145 
L 342.586599 352.959176 
L 347.582941 352.95896 
L 352.579284 352.95894 
L 357.575627 352.959198 
L 362.57197 352.959333 
L 367.568312 352.959271 
L 372.564655 352.958971 
L 377.560998 352.95949 
L 382.557341 352.959582 
L 387.553683 352.960629 
L 392.550026 352.960461 
L 397.546369 352.96103 
L 402.542712 352.960811 
L 407.539054 352.961741 
L 412.535397 352.961927 
L 417.53174 352.96202 
L 422.528083 352.962376 
L 427.524425 352.962649 
L 432.520768 352.962879 
L 437.517111 352.962122 
L 442.513454 352.96248 
L 447.509796 352.962997 
L 452.506139 352.96351 
L 457.502482 352.96291 
L 462.498824 352.962426 
L 467.495167 352.962555 
L 472.49151 352.962917 
L 477.487853 352.960866 
L 482.484195 352.960037 
L 487.480538 352.958894 
L 492.476881 352.958894 
L 497.473224 352.966364 
L 502.469566 352.966364 
L 507.465909 352.966364 
" style="fill:none;stroke:#9467bd;stroke-linecap:square;stroke-width:1.5;"/>
   </g>
   <g id="line2d_20">
    <path clip-path="url(#p16f89512b5)" d="M 72.784091 185.051212 
L 77.780434 185.051212 
L 82.776776 185.04913 
L 87.773119 185.048294 
L 92.769462 185.045422 
L 97.765805 185.042374 
L 102.762147 185.042416 
L 107.75849 185.041685 
L 112.754833 185.04046 
L 117.751176 185.041626 
L 122.747518 185.04248 
L 127.743861 185.042753 
L 132.740204 185.044155 
L 137.736546 185.045437 
L 142.732889 185.046937 
L 147.729232 185.047274 
L 152.725575 185.047905 
L 157.721917 185.04822 
L 162.71826 185.048776 
L 167.714603 185.04897 
L 172.710946 185.050362 
L 177.707288 185.050889 
L 182.703631 185.051952 
L 187.699974 185.049614 
L 192.696317 185.048983 
L 197.692659 185.048393 
L 202.689002 185.049104 
L 207.685345 185.050929 
L 212.681688 185.052651 
L 217.67803 185.049633 
L 222.674373 185.04833 
L 227.670716 185.048742 
L 232.667059 185.050339 
L 237.663401 185.050296 
L 242.659744 185.050564 
L 247.656087 185.051837 
L 252.652429 185.051195 
L 257.648772 185.049655 
L 262.645115 185.050016 
L 267.641458 185.051184 
L 272.6378 185.051487 
L 277.634143 185.051726 
L 282.630486 185.051429 
L 287.626829 185.050671 
L 292.623171 185.050069 
L 297.619514 185.050272 
L 302.615857 185.050234 
L 307.6122 185.051237 
L 312.608542 185.051119 
L 317.604885 185.051779 
L 322.601228 185.051363 
L 327.597571 185.052411 
L 332.593913 185.051693 
L 337.590256 185.051967 
L 342.586599 185.050875 
L 347.582941 185.050432 
L 352.579284 185.051482 
L 357.575627 185.051679 
L 362.57197 185.051426 
L 367.568312 185.052683 
L 372.564655 185.054108 
L 377.560998 185.053564 
L 382.557341 185.054095 
L 387.553683 185.053758 
L 392.550026 185.051763 
L 397.546369 185.050679 
L 402.542712 185.050762 
L 407.539054 185.051672 
L 412.535397 185.048692 
L 417.53174 185.048605 
L 422.528083 185.051009 
L 427.524425 185.052841 
L 432.520768 185.056335 
L 437.517111 185.056845 
L 442.513454 185.05211 
L 447.509796 185.052331 
L 452.506139 185.055739 
L 457.502482 185.055528 
L 462.498824 185.055837 
L 467.495167 185.052953 
L 472.49151 185.049943 
L 477.487853 185.047785 
L 482.484195 185.04997 
L 487.480538 185.047432 
L 492.476881 185.042469 
L 497.473224 185.045177 
L 502.469566 185.04594 
L 507.465909 185.052056 
" style="fill:none;stroke:#8c564b;stroke-linecap:square;stroke-width:1.5;"/>
   </g>
   <g id="line2d_21">
    <path clip-path="url(#p16f89512b5)" d="M 72.784091 269.008788 
L 77.780434 269.008788 
L 82.776776 269.007747 
L 87.773119 269.007329 
L 92.769462 269.006172 
L 97.765805 269.004789 
L 102.762147 269.004404 
L 107.75849 269.002637 
L 112.754833 269.003055 
L 117.751176 269.00141 
L 122.747518 269.001814 
L 127.743861 269.002764 
L 132.740204 269.002391 
L 137.736546 269.003003 
L 142.732889 269.003582 
L 147.729232 269.00419 
L 152.725575 269.004273 
L 157.721917 269.003149 
L 162.71826 269.002903 
L 167.714603 269.003189 
L 172.710946 269.003878 
L 177.707288 269.004637 
L 182.703631 269.006024 
L 187.699974 269.006251 
L 192.696317 269.00591 
L 197.692659 269.004973 
L 202.689002 269.00587 
L 207.685345 269.007586 
L 212.681688 269.009228 
L 217.67803 269.00879 
L 222.674373 269.009022 
L 227.670716 269.008547 
L 232.667059 269.007125 
L 237.663401 269.008078 
L 242.659744 269.007598 
L 247.656087 269.007181 
L 252.652429 269.007063 
L 257.648772 269.005462 
L 262.645115 269.005496 
L 267.641458 269.007034 
L 272.6378 269.005986 
L 277.634143 269.005729 
L 282.630486 269.006406 
L 287.626829 269.006789 
L 292.623171 269.006653 
L 297.619514 269.006359 
L 302.615857 269.006933 
L 307.6122 269.008577 
L 312.608542 269.008852 
L 317.604885 269.008618 
L 322.601228 269.007722 
L 327.597571 269.00791 
L 332.593913 269.007777 
L 337.590256 269.007364 
L 342.586599 269.008373 
L 347.582941 269.007567 
L 352.579284 269.008106 
L 357.575627 269.009856 
L 362.57197 269.009778 
L 367.568312 269.007582 
L 372.564655 269.009007 
L 377.560998 269.008594 
L 382.557341 269.009671 
L 387.553683 269.010729 
L 392.550026 269.008973 
L 397.546369 269.008002 
L 402.542712 269.009425 
L 407.539054 269.01129 
L 412.535397 269.010105 
L 417.53174 269.00924 
L 422.528083 269.009541 
L 427.524425 269.00826 
L 432.520768 269.009477 
L 437.517111 269.010591 
L 442.513454 269.009666 
L 447.509796 269.008691 
L 452.506139 269.007096 
L 457.502482 269.009459 
L 462.498824 269.00888 
L 467.495167 269.009379 
L 472.49151 269.009828 
L 477.487853 269.008279 
L 482.484195 269.008102 
L 487.480538 268.997064 
L 492.476881 268.997064 
L 497.473224 269.006724 
L 502.469566 269.006724 
L 507.465909 269.006724 
" style="fill:none;stroke:#e377c2;stroke-linecap:square;stroke-width:1.5;"/>
   </g>
   <g id="line2d_22">
    <path clip-path="url(#p16f89512b5)" d="M 72.784091 269.008788 
L 77.780434 269.008788 
L 82.776776 269.007927 
L 87.773119 269.007944 
L 92.769462 269.008407 
L 97.765805 269.00784 
L 102.762147 269.009411 
L 107.75849 269.008532 
L 112.754833 269.00865 
L 117.751176 269.008936 
L 122.747518 269.008406 
L 127.743861 269.009275 
L 132.740204 269.008925 
L 137.736546 269.010276 
L 142.732889 269.009512 
L 147.729232 269.010212 
L 152.725575 269.009979 
L 157.721917 269.009854 
L 162.71826 269.009269 
L 167.714603 269.008467 
L 172.710946 269.009764 
L 177.707288 269.010577 
L 182.703631 269.010299 
L 187.699974 269.010516 
L 192.696317 269.010069 
L 197.692659 269.010284 
L 202.689002 269.009511 
L 207.685345 269.00948 
L 212.681688 269.009236 
L 217.67803 269.008186 
L 222.674373 269.00792 
L 227.670716 269.006361 
L 232.667059 269.006621 
L 237.663401 269.007687 
L 242.659744 269.008724 
L 247.656087 269.009344 
L 252.652429 269.008396 
L 257.648772 269.007442 
L 262.645115 269.00643 
L 267.641458 269.007154 
L 272.6378 269.005989 
L 277.634143 269.005465 
L 282.630486 269.003724 
L 287.626829 269.004948 
L 292.623171 269.005102 
L 297.619514 269.00543 
L 302.615857 269.005866 
L 307.6122 269.007669 
L 312.608542 269.00887 
L 317.604885 269.008053 
L 322.601228 269.008878 
L 327.597571 269.008942 
L 332.593913 269.008689 
L 337.590256 269.009296 
L 342.586599 269.009188 
L 347.582941 269.008443 
L 352.579284 269.007837 
L 357.575627 269.007753 
L 362.57197 269.008707 
L 367.568312 269.008927 
L 372.564655 269.009144 
L 377.560998 269.009137 
L 382.557341 269.010472 
L 387.553683 269.011253 
L 392.550026 269.009787 
L 397.546369 269.008216 
L 402.542712 269.008747 
L 407.539054 269.011381 
L 412.535397 269.008102 
L 417.53174 269.006582 
L 422.528083 269.007249 
L 427.524425 269.008778 
L 432.520768 269.011426 
L 437.517111 269.012432 
L 442.513454 269.012568 
L 447.509796 269.011516 
L 452.506139 269.013227 
L 457.502482 269.014109 
L 462.498824 269.01595 
L 467.495167 269.009506 
L 472.49151 269.005368 
L 477.487853 269.004574 
L 482.484195 269.005089 
L 487.480538 269.00225 
L 492.476881 269.007078 
L 497.473224 269.006757 
L 502.469566 269.006757 
L 507.465909 269.006757 
" style="fill:none;stroke:#7f7f7f;stroke-linecap:square;stroke-width:1.5;"/>
   </g>
   <g id="line2d_23">
    <path clip-path="url(#p16f89512b5)" d="M 72.784091 101.093636 
L 77.780434 101.093636 
L 82.776776 101.093636 
L 87.773119 101.093636 
L 92.769462 101.093636 
L 97.765805 101.093636 
L 102.762147 101.093636 
L 107.75849 101.093636 
L 112.754833 101.093636 
L 117.751176 101.093636 
L 122.747518 101.093636 
L 127.743861 101.093636 
L 132.740204 101.093636 
L 137.736546 101.093636 
L 142.732889 101.093636 
L 147.729232 101.093636 
L 152.725575 101.093636 
L 157.721917 101.093636 
L 162.71826 101.093636 
L 167.714603 101.093636 
L 172.710946 101.093636 
L 177.707288 101.093636 
L 182.703631 101.093636 
L 187.699974 101.093636 
L 192.696317 101.093636 
L 197.692659 101.093636 
L 202.689002 101.093636 
L 207.685345 101.093636 
L 212.681688 101.093636 
L 217.67803 101.093636 
L 222.674373 101.093636 
L 227.670716 101.093636 
L 232.667059 101.093636 
L 237.663401 101.093636 
L 242.659744 101.093636 
L 247.656087 101.093636 
L 252.652429 101.093636 
L 257.648772 101.093636 
L 262.645115 101.093636 
L 267.641458 101.093636 
L 272.6378 101.093636 
L 277.634143 101.093636 
L 282.630486 101.093636 
L 287.626829 101.093636 
L 292.623171 101.093636 
L 297.619514 101.093636 
L 302.615857 101.093636 
L 307.6122 101.093636 
L 312.608542 101.093636 
L 317.604885 101.093636 
L 322.601228 101.093636 
L 327.597571 101.093636 
L 332.593913 101.093636 
L 337.590256 101.093636 
L 342.586599 101.093636 
L 347.582941 101.093636 
L 352.579284 101.093636 
L 357.575627 101.093636 
L 362.57197 101.093636 
L 367.568312 101.093636 
L 372.564655 101.093636 
L 377.560998 101.093636 
L 382.557341 101.093636 
L 387.553683 101.093636 
L 392.550026 101.093636 
L 397.546369 101.093636 
L 402.542712 101.093636 
L 407.539054 101.093636 
L 412.535397 101.093636 
L 417.53174 101.093636 
L 422.528083 101.093636 
L 427.524425 101.093636 
L 432.520768 101.093636 
L 437.517111 101.093636 
L 442.513454 101.093636 
L 447.509796 101.093636 
L 452.506139 101.093636 
L 457.502482 101.093636 
L 462.498824 101.093636 
L 467.495167 101.093636 
L 472.49151 101.093636 
L 477.487853 101.093636 
L 482.484195 101.093636 
L 487.480538 101.093636 
L 492.476881 101.093636 
L 497.473224 101.093636 
L 502.469566 101.093636 
L 507.465909 101.093636 
" style="fill:none;stroke:#bcbd22;stroke-linecap:square;stroke-width:1.5;"/>
   </g>
   <g id="patch_3">
    <path d="M 51.05 365.56 
L 51.05 88.5 
" style="fill:none;stroke:#000000;stroke-linecap:square;stroke-linejoin:miter;stroke-width:0.8;"/>
   </g>
   <g id="patch_4">
    <path d="M 529.2 365.56 
L 529.2 88.5 
" style="fill:none;stroke:#000000;stroke-linecap:square;stroke-linejoin:miter;stroke-width:0.8;"/>
   </g>
   <g id="patch_5">
    <path d="M 51.05 365.56 
L 529.2 365.56 
" style="fill:none;stroke:#000000;stroke-linecap:square;stroke-linejoin:miter;stroke-width:0.8;"/>
   </g>
   <g id="patch_6">
    <path d="M 51.05 88.5 
L 529.2 88.5 
" style="fill:none;stroke:#000000;stroke-linecap:square;stroke-linejoin:miter;stroke-width:0.8;"/>
   </g>
   <g id="legend_1">
    <g id="patch_7">
     <path d="M 61.55 81 
L 518.7 81 
Q 521.7 81 521.7 78 
L 521.7 13.448438 
Q 521.7 10.448438 518.7 10.448438 
L 61.55 10.448438 
Q 58.55 10.448438 58.55 13.448438 
L 58.55 78 
Q 58.55 81 61.55 81 
z
" style="fill:#ffffff;opacity:0.8;stroke:#cccccc;stroke-linejoin:miter;"/>
    </g>
    <g id="line2d_24">
     <path d="M 64.55 22.596094 
L 94.55 22.596094 
" style="fill:none;stroke:#1f77b4;stroke-linecap:square;stroke-width:1.5;"/>
    </g>
    <g id="line2d_25"/>
    <g id="text_17">
     <!-- Stra 1 -->
     <defs>
      <path d="M 53.515625 70.515625 
L 53.515625 60.890625 
Q 47.90625 63.578125 42.921875 64.890625 
Q 37.9375 66.21875 33.296875 66.21875 
Q 25.25 66.21875 20.875 63.09375 
Q 16.5 59.96875 16.5 54.203125 
Q 16.5 49.359375 19.40625 46.890625 
Q 22.3125 44.4375 30.421875 42.921875 
L 36.375 41.703125 
Q 47.40625 39.59375 52.65625 34.296875 
Q 57.90625 29 57.90625 20.125 
Q 57.90625 9.515625 50.796875 4.046875 
Q 43.703125 -1.421875 29.984375 -1.421875 
Q 24.8125 -1.421875 18.96875 -0.25 
Q 13.140625 0.921875 6.890625 3.21875 
L 6.890625 13.375 
Q 12.890625 10.015625 18.65625 8.296875 
Q 24.421875 6.59375 29.984375 6.59375 
Q 38.421875 6.59375 43.015625 9.90625 
Q 47.609375 13.234375 47.609375 19.390625 
Q 47.609375 24.75 44.3125 27.78125 
Q 41.015625 30.8125 33.5 32.328125 
L 27.484375 33.5 
Q 16.453125 35.6875 11.515625 40.375 
Q 6.59375 45.0625 6.59375 53.421875 
Q 6.59375 63.09375 13.40625 68.65625 
Q 20.21875 74.21875 32.171875 74.21875 
Q 37.3125 74.21875 42.625 73.28125 
Q 47.953125 72.359375 53.515625 70.515625 
z
" id="DejaVuSans-83"/>
      <path d="M 18.3125 70.21875 
L 18.3125 54.6875 
L 36.8125 54.6875 
L 36.8125 47.703125 
L 18.3125 47.703125 
L 18.3125 18.015625 
Q 18.3125 11.328125 20.140625 9.421875 
Q 21.96875 7.515625 27.59375 7.515625 
L 36.8125 7.515625 
L 36.8125 0 
L 27.59375 0 
Q 17.1875 0 13.234375 3.875 
Q 9.28125 7.765625 9.28125 18.015625 
L 9.28125 47.703125 
L 2.6875 47.703125 
L 2.6875 54.6875 
L 9.28125 54.6875 
L 9.28125 70.21875 
z
" id="DejaVuSans-116"/>
      <path d="M 41.109375 46.296875 
Q 39.59375 47.171875 37.8125 47.578125 
Q 36.03125 48 33.890625 48 
Q 26.265625 48 22.1875 43.046875 
Q 18.109375 38.09375 18.109375 28.8125 
L 18.109375 0 
L 9.078125 0 
L 9.078125 54.6875 
L 18.109375 54.6875 
L 18.109375 46.1875 
Q 20.953125 51.171875 25.484375 53.578125 
Q 30.03125 56 36.53125 56 
Q 37.453125 56 38.578125 55.875 
Q 39.703125 55.765625 41.0625 55.515625 
z
" id="DejaVuSans-114"/>
     </defs>
     <g transform="translate(106.55 27.846094)scale(0.15 -0.15)">
      <use xlink:href="#DejaVuSans-83"/>
      <use x="63.476562" xlink:href="#DejaVuSans-116"/>
      <use x="102.685547" xlink:href="#DejaVuSans-114"/>
      <use x="143.798828" xlink:href="#DejaVuSans-97"/>
      <use x="205.078125" xlink:href="#DejaVuSans-32"/>
      <use x="236.865234" xlink:href="#DejaVuSans-49"/>
     </g>
    </g>
    <g id="line2d_26">
     <path d="M 64.55 44.613281 
L 94.55 44.613281 
" style="fill:none;stroke:#ff7f0e;stroke-linecap:square;stroke-width:1.5;"/>
    </g>
    <g id="line2d_27"/>
    <g id="text_18">
     <!-- Stra 2 -->
     <g transform="translate(106.55 49.863281)scale(0.15 -0.15)">
      <use xlink:href="#DejaVuSans-83"/>
      <use x="63.476562" xlink:href="#DejaVuSans-116"/>
      <use x="102.685547" xlink:href="#DejaVuSans-114"/>
      <use x="143.798828" xlink:href="#DejaVuSans-97"/>
      <use x="205.078125" xlink:href="#DejaVuSans-32"/>
      <use x="236.865234" xlink:href="#DejaVuSans-50"/>
     </g>
    </g>
    <g id="line2d_28">
     <path d="M 64.55 66.630469 
L 94.55 66.630469 
" style="fill:none;stroke:#2ca02c;stroke-linecap:square;stroke-width:1.5;"/>
    </g>
    <g id="line2d_29"/>
    <g id="text_19">
     <!-- Stra 3 -->
     <g transform="translate(106.55 71.880469)scale(0.15 -0.15)">
      <use xlink:href="#DejaVuSans-83"/>
      <use x="63.476562" xlink:href="#DejaVuSans-116"/>
      <use x="102.685547" xlink:href="#DejaVuSans-114"/>
      <use x="143.798828" xlink:href="#DejaVuSans-97"/>
      <use x="205.078125" xlink:href="#DejaVuSans-32"/>
      <use x="236.865234" xlink:href="#DejaVuSans-51"/>
     </g>
    </g>
    <g id="line2d_30">
     <path d="M 185.909115 22.596094 
L 215.909115 22.596094 
" style="fill:none;stroke:#d62728;stroke-linecap:square;stroke-width:1.5;"/>
    </g>
    <g id="line2d_31"/>
    <g id="text_20">
     <!-- Stra 4 -->
     <g transform="translate(227.909115 27.846094)scale(0.15 -0.15)">
      <use xlink:href="#DejaVuSans-83"/>
      <use x="63.476562" xlink:href="#DejaVuSans-116"/>
      <use x="102.685547" xlink:href="#DejaVuSans-114"/>
      <use x="143.798828" xlink:href="#DejaVuSans-97"/>
      <use x="205.078125" xlink:href="#DejaVuSans-32"/>
      <use x="236.865234" xlink:href="#DejaVuSans-52"/>
     </g>
    </g>
    <g id="line2d_32">
     <path d="M 185.909115 44.613281 
L 215.909115 44.613281 
" style="fill:none;stroke:#9467bd;stroke-linecap:square;stroke-width:1.5;"/>
    </g>
    <g id="line2d_33"/>
    <g id="text_21">
     <!-- Stra 5 -->
     <g transform="translate(227.909115 49.863281)scale(0.15 -0.15)">
      <use xlink:href="#DejaVuSans-83"/>
      <use x="63.476562" xlink:href="#DejaVuSans-116"/>
      <use x="102.685547" xlink:href="#DejaVuSans-114"/>
      <use x="143.798828" xlink:href="#DejaVuSans-97"/>
      <use x="205.078125" xlink:href="#DejaVuSans-32"/>
      <use x="236.865234" xlink:href="#DejaVuSans-53"/>
     </g>
    </g>
    <g id="line2d_34">
     <path d="M 307.268229 22.596094 
L 337.268229 22.596094 
" style="fill:none;stroke:#8c564b;stroke-linecap:square;stroke-width:1.5;"/>
    </g>
    <g id="line2d_35"/>
    <g id="text_22">
     <!-- Stra 6 -->
     <g transform="translate(349.268229 27.846094)scale(0.15 -0.15)">
      <use xlink:href="#DejaVuSans-83"/>
      <use x="63.476562" xlink:href="#DejaVuSans-116"/>
      <use x="102.685547" xlink:href="#DejaVuSans-114"/>
      <use x="143.798828" xlink:href="#DejaVuSans-97"/>
      <use x="205.078125" xlink:href="#DejaVuSans-32"/>
      <use x="236.865234" xlink:href="#DejaVuSans-54"/>
     </g>
    </g>
    <g id="line2d_36">
     <path d="M 307.268229 44.613281 
L 337.268229 44.613281 
" style="fill:none;stroke:#e377c2;stroke-linecap:square;stroke-width:1.5;"/>
    </g>
    <g id="line2d_37"/>
    <g id="text_23">
     <!-- Stra 7 -->
     <g transform="translate(349.268229 49.863281)scale(0.15 -0.15)">
      <use xlink:href="#DejaVuSans-83"/>
      <use x="63.476562" xlink:href="#DejaVuSans-116"/>
      <use x="102.685547" xlink:href="#DejaVuSans-114"/>
      <use x="143.798828" xlink:href="#DejaVuSans-97"/>
      <use x="205.078125" xlink:href="#DejaVuSans-32"/>
      <use x="236.865234" xlink:href="#DejaVuSans-55"/>
     </g>
    </g>
    <g id="line2d_38">
     <path d="M 428.627344 22.596094 
L 458.627344 22.596094 
" style="fill:none;stroke:#7f7f7f;stroke-linecap:square;stroke-width:1.5;"/>
    </g>
    <g id="line2d_39"/>
    <g id="text_24">
     <!-- Stra 8 -->
     <g transform="translate(470.627344 27.846094)scale(0.15 -0.15)">
      <use xlink:href="#DejaVuSans-83"/>
      <use x="63.476562" xlink:href="#DejaVuSans-116"/>
      <use x="102.685547" xlink:href="#DejaVuSans-114"/>
      <use x="143.798828" xlink:href="#DejaVuSans-97"/>
      <use x="205.078125" xlink:href="#DejaVuSans-32"/>
      <use x="236.865234" xlink:href="#DejaVuSans-56"/>
     </g>
    </g>
    <g id="line2d_40">
     <path d="M 428.627344 44.613281 
L 458.627344 44.613281 
" style="fill:none;stroke:#bcbd22;stroke-linecap:square;stroke-width:1.5;"/>
    </g>
    <g id="line2d_41"/>
    <g id="text_25">
     <!-- Stra 9 -->
     <g transform="translate(470.627344 49.863281)scale(0.15 -0.15)">
      <use xlink:href="#DejaVuSans-83"/>
      <use x="63.476562" xlink:href="#DejaVuSans-116"/>
      <use x="102.685547" xlink:href="#DejaVuSans-114"/>
      <use x="143.798828" xlink:href="#DejaVuSans-97"/>
      <use x="205.078125" xlink:href="#DejaVuSans-32"/>
      <use x="236.865234" xlink:href="#DejaVuSans-57"/>
     </g>
    </g>
   </g>
  </g>
 </g>
 <defs>
  <clipPath id="p16f89512b5">
   <rect height="277.06" width="478.15" x="51.05" y="88.5"/>
  </clipPath>
 </defs>
</svg>
