<?xml version="1.0" encoding="utf-8" standalone="no"?>
<!DOCTYPE svg PUBLIC "-//W3C//DTD SVG 1.1//EN"
  "http://www.w3.org/Graphics/SVG/1.1/DTD/svg11.dtd">
<!-- Created with matplotlib (https://matplotlib.org/) -->
<svg height="432pt" version="1.1" viewBox="0 0 540 432" width="540pt" xmlns="http://www.w3.org/2000/svg" xmlns:xlink="http://www.w3.org/1999/xlink">
 <defs>
  <style type="text/css">
*{stroke-linecap:butt;stroke-linejoin:round;}
  </style>
 </defs>
 <g id="figure_1">
  <g id="patch_1">
   <path d="M 0 432 
L 540 432 
L 540 0 
L 0 0 
z
" style="fill:#ffffff;"/>
  </g>
  <g id="axes_1">
   <g id="patch_2">
    <path d="M 51.05 365.56 
L 511.677267 365.56 
L 511.677267 66.6 
L 51.05 66.6 
z
" style="fill:#ffffff;"/>
   </g>
   <g id="matplotlib.axis_1">
    <g id="xtick_1">
     <g id="line2d_1">
      <defs>
       <path d="M 0 0 
L 0 3.5 
" id="m6468f7efc3" style="stroke:#000000;stroke-width:0.8;"/>
      </defs>
      <g>
       <use style="stroke:#000000;stroke-width:0.8;" x="71.987603" xlink:href="#m6468f7efc3" y="365.56"/>
      </g>
     </g>
     <g id="text_1">
      <!-- 0 -->
      <defs>
       <path d="M 31.78125 66.40625 
Q 24.171875 66.40625 20.328125 58.90625 
Q 16.5 51.421875 16.5 36.375 
Q 16.5 21.390625 20.328125 13.890625 
Q 24.171875 6.390625 31.78125 6.390625 
Q 39.453125 6.390625 43.28125 13.890625 
Q 47.125 21.390625 47.125 36.375 
Q 47.125 51.421875 43.28125 58.90625 
Q 39.453125 66.40625 31.78125 66.40625 
z
M 31.78125 74.21875 
Q 44.046875 74.21875 50.515625 64.515625 
Q 56.984375 54.828125 56.984375 36.375 
Q 56.984375 17.96875 50.515625 8.265625 
Q 44.046875 -1.421875 31.78125 -1.421875 
Q 19.53125 -1.421875 13.0625 8.265625 
Q 6.59375 17.96875 6.59375 36.375 
Q 6.59375 54.828125 13.0625 64.515625 
Q 19.53125 74.21875 31.78125 74.21875 
z
" id="DejaVuSans-48"/>
      </defs>
      <g transform="translate(65.625103 387.756875)scale(0.2 -0.2)">
       <use xlink:href="#DejaVuSans-48"/>
      </g>
     </g>
    </g>
    <g id="xtick_2">
     <g id="line2d_2">
      <g>
       <use style="stroke:#000000;stroke-width:0.8;" x="159.592637" xlink:href="#m6468f7efc3" y="365.56"/>
      </g>
     </g>
     <g id="text_2">
      <!-- 50 -->
      <defs>
       <path d="M 10.796875 72.90625 
L 49.515625 72.90625 
L 49.515625 64.59375 
L 19.828125 64.59375 
L 19.828125 46.734375 
Q 21.96875 47.46875 24.109375 47.828125 
Q 26.265625 48.1875 28.421875 48.1875 
Q 40.625 48.1875 47.75 41.5 
Q 54.890625 34.8125 54.890625 23.390625 
Q 54.890625 11.625 47.5625 5.09375 
Q 40.234375 -1.421875 26.90625 -1.421875 
Q 22.3125 -1.421875 17.546875 -0.640625 
Q 12.796875 0.140625 7.71875 1.703125 
L 7.71875 11.625 
Q 12.109375 9.234375 16.796875 8.0625 
Q 21.484375 6.890625 26.703125 6.890625 
Q 35.15625 6.890625 40.078125 11.328125 
Q 45.015625 15.765625 45.015625 23.390625 
Q 45.015625 31 40.078125 35.4375 
Q 35.15625 39.890625 26.703125 39.890625 
Q 22.75 39.890625 18.8125 39.015625 
Q 14.890625 38.140625 10.796875 36.28125 
z
" id="DejaVuSans-53"/>
      </defs>
      <g transform="translate(146.867637 387.756875)scale(0.2 -0.2)">
       <use xlink:href="#DejaVuSans-53"/>
       <use x="63.623047" xlink:href="#DejaVuSans-48"/>
      </g>
     </g>
    </g>
    <g id="xtick_3">
     <g id="line2d_3">
      <g>
       <use style="stroke:#000000;stroke-width:0.8;" x="247.19767" xlink:href="#m6468f7efc3" y="365.56"/>
      </g>
     </g>
     <g id="text_3">
      <!-- 100 -->
      <defs>
       <path d="M 12.40625 8.296875 
L 28.515625 8.296875 
L 28.515625 63.921875 
L 10.984375 60.40625 
L 10.984375 69.390625 
L 28.421875 72.90625 
L 38.28125 72.90625 
L 38.28125 8.296875 
L 54.390625 8.296875 
L 54.390625 0 
L 12.40625 0 
z
" id="DejaVuSans-49"/>
      </defs>
      <g transform="translate(228.11017 387.756875)scale(0.2 -0.2)">
       <use xlink:href="#DejaVuSans-49"/>
       <use x="63.623047" xlink:href="#DejaVuSans-48"/>
       <use x="127.246094" xlink:href="#DejaVuSans-48"/>
      </g>
     </g>
    </g>
    <g id="xtick_4">
     <g id="line2d_4">
      <g>
       <use style="stroke:#000000;stroke-width:0.8;" x="334.802704" xlink:href="#m6468f7efc3" y="365.56"/>
      </g>
     </g>
     <g id="text_4">
      <!-- 150 -->
      <g transform="translate(315.715204 387.756875)scale(0.2 -0.2)">
       <use xlink:href="#DejaVuSans-49"/>
       <use x="63.623047" xlink:href="#DejaVuSans-53"/>
       <use x="127.246094" xlink:href="#DejaVuSans-48"/>
      </g>
     </g>
    </g>
    <g id="xtick_5">
     <g id="line2d_5">
      <g>
       <use style="stroke:#000000;stroke-width:0.8;" x="422.407738" xlink:href="#m6468f7efc3" y="365.56"/>
      </g>
     </g>
     <g id="text_5">
      <!-- 200 -->
      <defs>
       <path d="M 19.1875 8.296875 
L 53.609375 8.296875 
L 53.609375 0 
L 7.328125 0 
L 7.328125 8.296875 
Q 12.9375 14.109375 22.625 23.890625 
Q 32.328125 33.6875 34.8125 36.53125 
Q 39.546875 41.84375 41.421875 45.53125 
Q 43.3125 49.21875 43.3125 52.78125 
Q 43.3125 58.59375 39.234375 62.25 
Q 35.15625 65.921875 28.609375 65.921875 
Q 23.96875 65.921875 18.8125 64.3125 
Q 13.671875 62.703125 7.8125 59.421875 
L 7.8125 69.390625 
Q 13.765625 71.78125 18.9375 73 
Q 24.125 74.21875 28.421875 74.21875 
Q 39.75 74.21875 46.484375 68.546875 
Q 53.21875 62.890625 53.21875 53.421875 
Q 53.21875 48.921875 51.53125 44.890625 
Q 49.859375 40.875 45.40625 35.40625 
Q 44.1875 33.984375 37.640625 27.21875 
Q 31.109375 20.453125 19.1875 8.296875 
z
" id="DejaVuSans-50"/>
      </defs>
      <g transform="translate(403.320238 387.756875)scale(0.2 -0.2)">
       <use xlink:href="#DejaVuSans-50"/>
       <use x="63.623047" xlink:href="#DejaVuSans-48"/>
       <use x="127.246094" xlink:href="#DejaVuSans-48"/>
      </g>
     </g>
    </g>
    <g id="xtick_6">
     <g id="line2d_6">
      <g>
       <use style="stroke:#000000;stroke-width:0.8;" x="510.012771" xlink:href="#m6468f7efc3" y="365.56"/>
      </g>
     </g>
     <g id="text_6">
      <!-- 250 -->
      <g transform="translate(490.925271 387.756875)scale(0.2 -0.2)">
       <use xlink:href="#DejaVuSans-50"/>
       <use x="63.623047" xlink:href="#DejaVuSans-53"/>
       <use x="127.246094" xlink:href="#DejaVuSans-48"/>
      </g>
     </g>
    </g>
    <g id="text_7">
     <!-- # of games -->
     <defs>
      <path d="M 51.125 44 
L 36.921875 44 
L 32.8125 27.6875 
L 47.125 27.6875 
z
M 43.796875 71.78125 
L 38.71875 51.515625 
L 52.984375 51.515625 
L 58.109375 71.78125 
L 65.921875 71.78125 
L 60.890625 51.515625 
L 76.125 51.515625 
L 76.125 44 
L 58.984375 44 
L 54.984375 27.6875 
L 70.515625 27.6875 
L 70.515625 20.21875 
L 53.078125 20.21875 
L 48 0 
L 40.1875 0 
L 45.21875 20.21875 
L 30.90625 20.21875 
L 25.875 0 
L 18.015625 0 
L 23.09375 20.21875 
L 7.71875 20.21875 
L 7.71875 27.6875 
L 24.90625 27.6875 
L 29 44 
L 13.28125 44 
L 13.28125 51.515625 
L 30.90625 51.515625 
L 35.890625 71.78125 
z
" id="DejaVuSans-35"/>
      <path id="DejaVuSans-32"/>
      <path d="M 30.609375 48.390625 
Q 23.390625 48.390625 19.1875 42.75 
Q 14.984375 37.109375 14.984375 27.296875 
Q 14.984375 17.484375 19.15625 11.84375 
Q 23.34375 6.203125 30.609375 6.203125 
Q 37.796875 6.203125 41.984375 11.859375 
Q 46.1875 17.53125 46.1875 27.296875 
Q 46.1875 37.015625 41.984375 42.703125 
Q 37.796875 48.390625 30.609375 48.390625 
z
M 30.609375 56 
Q 42.328125 56 49.015625 48.375 
Q 55.71875 40.765625 55.71875 27.296875 
Q 55.71875 13.875 49.015625 6.21875 
Q 42.328125 -1.421875 30.609375 -1.421875 
Q 18.84375 -1.421875 12.171875 6.21875 
Q 5.515625 13.875 5.515625 27.296875 
Q 5.515625 40.765625 12.171875 48.375 
Q 18.84375 56 30.609375 56 
z
" id="DejaVuSans-111"/>
      <path d="M 37.109375 75.984375 
L 37.109375 68.5 
L 28.515625 68.5 
Q 23.6875 68.5 21.796875 66.546875 
Q 19.921875 64.59375 19.921875 59.515625 
L 19.921875 54.6875 
L 34.71875 54.6875 
L 34.71875 47.703125 
L 19.921875 47.703125 
L 19.921875 0 
L 10.890625 0 
L 10.890625 47.703125 
L 2.296875 47.703125 
L 2.296875 54.6875 
L 10.890625 54.6875 
L 10.890625 58.5 
Q 10.890625 67.625 15.140625 71.796875 
Q 19.390625 75.984375 28.609375 75.984375 
z
" id="DejaVuSans-102"/>
      <path d="M 45.40625 27.984375 
Q 45.40625 37.75 41.375 43.109375 
Q 37.359375 48.484375 30.078125 48.484375 
Q 22.859375 48.484375 18.828125 43.109375 
Q 14.796875 37.75 14.796875 27.984375 
Q 14.796875 18.265625 18.828125 12.890625 
Q 22.859375 7.515625 30.078125 7.515625 
Q 37.359375 7.515625 41.375 12.890625 
Q 45.40625 18.265625 45.40625 27.984375 
z
M 54.390625 6.78125 
Q 54.390625 -7.171875 48.1875 -13.984375 
Q 42 -20.796875 29.203125 -20.796875 
Q 24.46875 -20.796875 20.265625 -20.09375 
Q 16.0625 -19.390625 12.109375 -17.921875 
L 12.109375 -9.1875 
Q 16.0625 -11.328125 19.921875 -12.34375 
Q 23.78125 -13.375 27.78125 -13.375 
Q 36.625 -13.375 41.015625 -8.765625 
Q 45.40625 -4.15625 45.40625 5.171875 
L 45.40625 9.625 
Q 42.625 4.78125 38.28125 2.390625 
Q 33.9375 0 27.875 0 
Q 17.828125 0 11.671875 7.65625 
Q 5.515625 15.328125 5.515625 27.984375 
Q 5.515625 40.671875 11.671875 48.328125 
Q 17.828125 56 27.875 56 
Q 33.9375 56 38.28125 53.609375 
Q 42.625 51.21875 45.40625 46.390625 
L 45.40625 54.6875 
L 54.390625 54.6875 
z
" id="DejaVuSans-103"/>
      <path d="M 34.28125 27.484375 
Q 23.390625 27.484375 19.1875 25 
Q 14.984375 22.515625 14.984375 16.5 
Q 14.984375 11.71875 18.140625 8.90625 
Q 21.296875 6.109375 26.703125 6.109375 
Q 34.1875 6.109375 38.703125 11.40625 
Q 43.21875 16.703125 43.21875 25.484375 
L 43.21875 27.484375 
z
M 52.203125 31.203125 
L 52.203125 0 
L 43.21875 0 
L 43.21875 8.296875 
Q 40.140625 3.328125 35.546875 0.953125 
Q 30.953125 -1.421875 24.3125 -1.421875 
Q 15.921875 -1.421875 10.953125 3.296875 
Q 6 8.015625 6 15.921875 
Q 6 25.140625 12.171875 29.828125 
Q 18.359375 34.515625 30.609375 34.515625 
L 43.21875 34.515625 
L 43.21875 35.40625 
Q 43.21875 41.609375 39.140625 45 
Q 35.0625 48.390625 27.6875 48.390625 
Q 23 48.390625 18.546875 47.265625 
Q 14.109375 46.140625 10.015625 43.890625 
L 10.015625 52.203125 
Q 14.9375 54.109375 19.578125 55.046875 
Q 24.21875 56 28.609375 56 
Q 40.484375 56 46.34375 49.84375 
Q 52.203125 43.703125 52.203125 31.203125 
z
" id="DejaVuSans-97"/>
      <path d="M 52 44.1875 
Q 55.375 50.25 60.0625 53.125 
Q 64.75 56 71.09375 56 
Q 79.640625 56 84.28125 50.015625 
Q 88.921875 44.046875 88.921875 33.015625 
L 88.921875 0 
L 79.890625 0 
L 79.890625 32.71875 
Q 79.890625 40.578125 77.09375 44.375 
Q 74.3125 48.1875 68.609375 48.1875 
Q 61.625 48.1875 57.5625 43.546875 
Q 53.515625 38.921875 53.515625 30.90625 
L 53.515625 0 
L 44.484375 0 
L 44.484375 32.71875 
Q 44.484375 40.625 41.703125 44.40625 
Q 38.921875 48.1875 33.109375 48.1875 
Q 26.21875 48.1875 22.15625 43.53125 
Q 18.109375 38.875 18.109375 30.90625 
L 18.109375 0 
L 9.078125 0 
L 9.078125 54.6875 
L 18.109375 54.6875 
L 18.109375 46.1875 
Q 21.1875 51.21875 25.484375 53.609375 
Q 29.78125 56 35.6875 56 
Q 41.65625 56 45.828125 52.96875 
Q 50 49.953125 52 44.1875 
z
" id="DejaVuSans-109"/>
      <path d="M 56.203125 29.59375 
L 56.203125 25.203125 
L 14.890625 25.203125 
Q 15.484375 15.921875 20.484375 11.0625 
Q 25.484375 6.203125 34.421875 6.203125 
Q 39.59375 6.203125 44.453125 7.46875 
Q 49.3125 8.734375 54.109375 11.28125 
L 54.109375 2.78125 
Q 49.265625 0.734375 44.1875 -0.34375 
Q 39.109375 -1.421875 33.890625 -1.421875 
Q 20.796875 -1.421875 13.15625 6.1875 
Q 5.515625 13.8125 5.515625 26.8125 
Q 5.515625 40.234375 12.765625 48.109375 
Q 20.015625 56 32.328125 56 
Q 43.359375 56 49.78125 48.890625 
Q 56.203125 41.796875 56.203125 29.59375 
z
M 47.21875 32.234375 
Q 47.125 39.59375 43.09375 43.984375 
Q 39.0625 48.390625 32.421875 48.390625 
Q 24.90625 48.390625 20.390625 44.140625 
Q 15.875 39.890625 15.1875 32.171875 
z
" id="DejaVuSans-101"/>
      <path d="M 44.28125 53.078125 
L 44.28125 44.578125 
Q 40.484375 46.53125 36.375 47.5 
Q 32.28125 48.484375 27.875 48.484375 
Q 21.1875 48.484375 17.84375 46.4375 
Q 14.5 44.390625 14.5 40.28125 
Q 14.5 37.15625 16.890625 35.375 
Q 19.28125 33.59375 26.515625 31.984375 
L 29.59375 31.296875 
Q 39.15625 29.25 43.1875 25.515625 
Q 47.21875 21.78125 47.21875 15.09375 
Q 47.21875 7.46875 41.1875 3.015625 
Q 35.15625 -1.421875 24.609375 -1.421875 
Q 20.21875 -1.421875 15.453125 -0.5625 
Q 10.6875 0.296875 5.421875 2 
L 5.421875 11.28125 
Q 10.40625 8.6875 15.234375 7.390625 
Q 20.0625 6.109375 24.8125 6.109375 
Q 31.15625 6.109375 34.5625 8.28125 
Q 37.984375 10.453125 37.984375 14.40625 
Q 37.984375 18.0625 35.515625 20.015625 
Q 33.0625 21.96875 24.703125 23.78125 
L 21.578125 24.515625 
Q 13.234375 26.265625 9.515625 29.90625 
Q 5.8125 33.546875 5.8125 39.890625 
Q 5.8125 47.609375 11.28125 51.796875 
Q 16.75 56 26.8125 56 
Q 31.78125 56 36.171875 55.265625 
Q 40.578125 54.546875 44.28125 53.078125 
z
" id="DejaVuSans-115"/>
     </defs>
     <g transform="translate(208.920274 414.912344)scale(0.25 -0.25)">
      <use xlink:href="#DejaVuSans-35"/>
      <use x="83.789062" xlink:href="#DejaVuSans-32"/>
      <use x="115.576172" xlink:href="#DejaVuSans-111"/>
      <use x="176.757812" xlink:href="#DejaVuSans-102"/>
      <use x="211.962891" xlink:href="#DejaVuSans-32"/>
      <use x="243.75" xlink:href="#DejaVuSans-103"/>
      <use x="307.226562" xlink:href="#DejaVuSans-97"/>
      <use x="368.505859" xlink:href="#DejaVuSans-109"/>
      <use x="465.917969" xlink:href="#DejaVuSans-101"/>
      <use x="527.441406" xlink:href="#DejaVuSans-115"/>
     </g>
    </g>
   </g>
   <g id="matplotlib.axis_2">
    <g id="ytick_1">
     <g id="line2d_7">
      <defs>
       <path d="M 0 0 
L -3.5 0 
" id="ma9bc038a5a" style="stroke:#000000;stroke-width:0.8;"/>
      </defs>
      <g>
       <use style="stroke:#000000;stroke-width:0.8;" x="51.05" xlink:href="#ma9bc038a5a" y="351.970909"/>
      </g>
     </g>
     <g id="text_8">
      <!-- 1 -->
      <g transform="translate(31.325 359.569347)scale(0.2 -0.2)">
       <use xlink:href="#DejaVuSans-49"/>
      </g>
     </g>
    </g>
    <g id="ytick_2">
     <g id="line2d_8">
      <g>
       <use style="stroke:#000000;stroke-width:0.8;" x="51.05" xlink:href="#ma9bc038a5a" y="317.998182"/>
      </g>
     </g>
     <g id="text_9">
      <!-- 2 -->
      <g transform="translate(31.325 325.596619)scale(0.2 -0.2)">
       <use xlink:href="#DejaVuSans-50"/>
      </g>
     </g>
    </g>
    <g id="ytick_3">
     <g id="line2d_9">
      <g>
       <use style="stroke:#000000;stroke-width:0.8;" x="51.05" xlink:href="#ma9bc038a5a" y="284.025455"/>
      </g>
     </g>
     <g id="text_10">
      <!-- 3 -->
      <defs>
       <path d="M 40.578125 39.3125 
Q 47.65625 37.796875 51.625 33 
Q 55.609375 28.21875 55.609375 21.1875 
Q 55.609375 10.40625 48.1875 4.484375 
Q 40.765625 -1.421875 27.09375 -1.421875 
Q 22.515625 -1.421875 17.65625 -0.515625 
Q 12.796875 0.390625 7.625 2.203125 
L 7.625 11.71875 
Q 11.71875 9.328125 16.59375 8.109375 
Q 21.484375 6.890625 26.8125 6.890625 
Q 36.078125 6.890625 40.9375 10.546875 
Q 45.796875 14.203125 45.796875 21.1875 
Q 45.796875 27.640625 41.28125 31.265625 
Q 36.765625 34.90625 28.71875 34.90625 
L 20.21875 34.90625 
L 20.21875 43.015625 
L 29.109375 43.015625 
Q 36.375 43.015625 40.234375 45.921875 
Q 44.09375 48.828125 44.09375 54.296875 
Q 44.09375 59.90625 40.109375 62.90625 
Q 36.140625 65.921875 28.71875 65.921875 
Q 24.65625 65.921875 20.015625 65.03125 
Q 15.375 64.15625 9.8125 62.3125 
L 9.8125 71.09375 
Q 15.4375 72.65625 20.34375 73.4375 
Q 25.25 74.21875 29.59375 74.21875 
Q 40.828125 74.21875 47.359375 69.109375 
Q 53.90625 64.015625 53.90625 55.328125 
Q 53.90625 49.265625 50.4375 45.09375 
Q 46.96875 40.921875 40.578125 39.3125 
z
" id="DejaVuSans-51"/>
      </defs>
      <g transform="translate(31.325 291.623892)scale(0.2 -0.2)">
       <use xlink:href="#DejaVuSans-51"/>
      </g>
     </g>
    </g>
    <g id="ytick_4">
     <g id="line2d_10">
      <g>
       <use style="stroke:#000000;stroke-width:0.8;" x="51.05" xlink:href="#ma9bc038a5a" y="250.052727"/>
      </g>
     </g>
     <g id="text_11">
      <!-- 4 -->
      <defs>
       <path d="M 37.796875 64.3125 
L 12.890625 25.390625 
L 37.796875 25.390625 
z
M 35.203125 72.90625 
L 47.609375 72.90625 
L 47.609375 25.390625 
L 58.015625 25.390625 
L 58.015625 17.1875 
L 47.609375 17.1875 
L 47.609375 0 
L 37.796875 0 
L 37.796875 17.1875 
L 4.890625 17.1875 
L 4.890625 26.703125 
z
" id="DejaVuSans-52"/>
      </defs>
      <g transform="translate(31.325 257.651165)scale(0.2 -0.2)">
       <use xlink:href="#DejaVuSans-52"/>
      </g>
     </g>
    </g>
    <g id="ytick_5">
     <g id="line2d_11">
      <g>
       <use style="stroke:#000000;stroke-width:0.8;" x="51.05" xlink:href="#ma9bc038a5a" y="216.08"/>
      </g>
     </g>
     <g id="text_12">
      <!-- 5 -->
      <g transform="translate(31.325 223.678437)scale(0.2 -0.2)">
       <use xlink:href="#DejaVuSans-53"/>
      </g>
     </g>
    </g>
    <g id="ytick_6">
     <g id="line2d_12">
      <g>
       <use style="stroke:#000000;stroke-width:0.8;" x="51.05" xlink:href="#ma9bc038a5a" y="182.107273"/>
      </g>
     </g>
     <g id="text_13">
      <!-- 6 -->
      <defs>
       <path d="M 33.015625 40.375 
Q 26.375 40.375 22.484375 35.828125 
Q 18.609375 31.296875 18.609375 23.390625 
Q 18.609375 15.53125 22.484375 10.953125 
Q 26.375 6.390625 33.015625 6.390625 
Q 39.65625 6.390625 43.53125 10.953125 
Q 47.40625 15.53125 47.40625 23.390625 
Q 47.40625 31.296875 43.53125 35.828125 
Q 39.65625 40.375 33.015625 40.375 
z
M 52.59375 71.296875 
L 52.59375 62.3125 
Q 48.875 64.0625 45.09375 64.984375 
Q 41.3125 65.921875 37.59375 65.921875 
Q 27.828125 65.921875 22.671875 59.328125 
Q 17.53125 52.734375 16.796875 39.40625 
Q 19.671875 43.65625 24.015625 45.921875 
Q 28.375 48.1875 33.59375 48.1875 
Q 44.578125 48.1875 50.953125 41.515625 
Q 57.328125 34.859375 57.328125 23.390625 
Q 57.328125 12.15625 50.6875 5.359375 
Q 44.046875 -1.421875 33.015625 -1.421875 
Q 20.359375 -1.421875 13.671875 8.265625 
Q 6.984375 17.96875 6.984375 36.375 
Q 6.984375 53.65625 15.1875 63.9375 
Q 23.390625 74.21875 37.203125 74.21875 
Q 40.921875 74.21875 44.703125 73.484375 
Q 48.484375 72.75 52.59375 71.296875 
z
" id="DejaVuSans-54"/>
      </defs>
      <g transform="translate(31.325 189.70571)scale(0.2 -0.2)">
       <use xlink:href="#DejaVuSans-54"/>
      </g>
     </g>
    </g>
    <g id="ytick_7">
     <g id="line2d_13">
      <g>
       <use style="stroke:#000000;stroke-width:0.8;" x="51.05" xlink:href="#ma9bc038a5a" y="148.134545"/>
      </g>
     </g>
     <g id="text_14">
      <!-- 7 -->
      <defs>
       <path d="M 8.203125 72.90625 
L 55.078125 72.90625 
L 55.078125 68.703125 
L 28.609375 0 
L 18.3125 0 
L 43.21875 64.59375 
L 8.203125 64.59375 
z
" id="DejaVuSans-55"/>
      </defs>
      <g transform="translate(31.325 155.732983)scale(0.2 -0.2)">
       <use xlink:href="#DejaVuSans-55"/>
      </g>
     </g>
    </g>
    <g id="ytick_8">
     <g id="line2d_14">
      <g>
       <use style="stroke:#000000;stroke-width:0.8;" x="51.05" xlink:href="#ma9bc038a5a" y="114.161818"/>
      </g>
     </g>
     <g id="text_15">
      <!-- 8 -->
      <defs>
       <path d="M 31.78125 34.625 
Q 24.75 34.625 20.71875 30.859375 
Q 16.703125 27.09375 16.703125 20.515625 
Q 16.703125 13.921875 20.71875 10.15625 
Q 24.75 6.390625 31.78125 6.390625 
Q 38.8125 6.390625 42.859375 10.171875 
Q 46.921875 13.96875 46.921875 20.515625 
Q 46.921875 27.09375 42.890625 30.859375 
Q 38.875 34.625 31.78125 34.625 
z
M 21.921875 38.8125 
Q 15.578125 40.375 12.03125 44.71875 
Q 8.5 49.078125 8.5 55.328125 
Q 8.5 64.0625 14.71875 69.140625 
Q 20.953125 74.21875 31.78125 74.21875 
Q 42.671875 74.21875 48.875 69.140625 
Q 55.078125 64.0625 55.078125 55.328125 
Q 55.078125 49.078125 51.53125 44.71875 
Q 48 40.375 41.703125 38.8125 
Q 48.828125 37.15625 52.796875 32.3125 
Q 56.78125 27.484375 56.78125 20.515625 
Q 56.78125 9.90625 50.3125 4.234375 
Q 43.84375 -1.421875 31.78125 -1.421875 
Q 19.734375 -1.421875 13.25 4.234375 
Q 6.78125 9.90625 6.78125 20.515625 
Q 6.78125 27.484375 10.78125 32.3125 
Q 14.796875 37.15625 21.921875 38.8125 
z
M 18.3125 54.390625 
Q 18.3125 48.734375 21.84375 45.5625 
Q 25.390625 42.390625 31.78125 42.390625 
Q 38.140625 42.390625 41.71875 45.5625 
Q 45.3125 48.734375 45.3125 54.390625 
Q 45.3125 60.0625 41.71875 63.234375 
Q 38.140625 66.40625 31.78125 66.40625 
Q 25.390625 66.40625 21.84375 63.234375 
Q 18.3125 60.0625 18.3125 54.390625 
z
" id="DejaVuSans-56"/>
      </defs>
      <g transform="translate(31.325 121.760256)scale(0.2 -0.2)">
       <use xlink:href="#DejaVuSans-56"/>
      </g>
     </g>
    </g>
    <g id="ytick_9">
     <g id="line2d_15">
      <g>
       <use style="stroke:#000000;stroke-width:0.8;" x="51.05" xlink:href="#ma9bc038a5a" y="80.189091"/>
      </g>
     </g>
     <g id="text_16">
      <!-- 9 -->
      <defs>
       <path d="M 10.984375 1.515625 
L 10.984375 10.5 
Q 14.703125 8.734375 18.5 7.8125 
Q 22.3125 6.890625 25.984375 6.890625 
Q 35.75 6.890625 40.890625 13.453125 
Q 46.046875 20.015625 46.78125 33.40625 
Q 43.953125 29.203125 39.59375 26.953125 
Q 35.25 24.703125 29.984375 24.703125 
Q 19.046875 24.703125 12.671875 31.3125 
Q 6.296875 37.9375 6.296875 49.421875 
Q 6.296875 60.640625 12.9375 67.421875 
Q 19.578125 74.21875 30.609375 74.21875 
Q 43.265625 74.21875 49.921875 64.515625 
Q 56.59375 54.828125 56.59375 36.375 
Q 56.59375 19.140625 48.40625 8.859375 
Q 40.234375 -1.421875 26.421875 -1.421875 
Q 22.703125 -1.421875 18.890625 -0.6875 
Q 15.09375 0.046875 10.984375 1.515625 
z
M 30.609375 32.421875 
Q 37.25 32.421875 41.125 36.953125 
Q 45.015625 41.5 45.015625 49.421875 
Q 45.015625 57.28125 41.125 61.84375 
Q 37.25 66.40625 30.609375 66.40625 
Q 23.96875 66.40625 20.09375 61.84375 
Q 16.21875 57.28125 16.21875 49.421875 
Q 16.21875 41.5 20.09375 36.953125 
Q 23.96875 32.421875 30.609375 32.421875 
z
" id="DejaVuSans-57"/>
      </defs>
      <g transform="translate(31.325 87.787528)scale(0.2 -0.2)">
       <use xlink:href="#DejaVuSans-57"/>
      </g>
     </g>
    </g>
    <g id="text_17">
     <!-- AHEU Value -->
     <defs>
      <path d="M 34.1875 63.1875 
L 20.796875 26.90625 
L 47.609375 26.90625 
z
M 28.609375 72.90625 
L 39.796875 72.90625 
L 67.578125 0 
L 57.328125 0 
L 50.6875 18.703125 
L 17.828125 18.703125 
L 11.1875 0 
L 0.78125 0 
z
" id="DejaVuSans-65"/>
      <path d="M 9.8125 72.90625 
L 19.671875 72.90625 
L 19.671875 43.015625 
L 55.515625 43.015625 
L 55.515625 72.90625 
L 65.375 72.90625 
L 65.375 0 
L 55.515625 0 
L 55.515625 34.71875 
L 19.671875 34.71875 
L 19.671875 0 
L 9.8125 0 
z
" id="DejaVuSans-72"/>
      <path d="M 9.8125 72.90625 
L 55.90625 72.90625 
L 55.90625 64.59375 
L 19.671875 64.59375 
L 19.671875 43.015625 
L 54.390625 43.015625 
L 54.390625 34.71875 
L 19.671875 34.71875 
L 19.671875 8.296875 
L 56.78125 8.296875 
L 56.78125 0 
L 9.8125 0 
z
" id="DejaVuSans-69"/>
      <path d="M 8.6875 72.90625 
L 18.609375 72.90625 
L 18.609375 28.609375 
Q 18.609375 16.890625 22.84375 11.734375 
Q 27.09375 6.59375 36.625 6.59375 
Q 46.09375 6.59375 50.34375 11.734375 
Q 54.59375 16.890625 54.59375 28.609375 
L 54.59375 72.90625 
L 64.5 72.90625 
L 64.5 27.390625 
Q 64.5 13.140625 57.4375 5.859375 
Q 50.390625 -1.421875 36.625 -1.421875 
Q 22.796875 -1.421875 15.734375 5.859375 
Q 8.6875 13.140625 8.6875 27.390625 
z
" id="DejaVuSans-85"/>
      <path d="M 28.609375 0 
L 0.78125 72.90625 
L 11.078125 72.90625 
L 34.1875 11.53125 
L 57.328125 72.90625 
L 67.578125 72.90625 
L 39.796875 0 
z
" id="DejaVuSans-86"/>
      <path d="M 9.421875 75.984375 
L 18.40625 75.984375 
L 18.40625 0 
L 9.421875 0 
z
" id="DejaVuSans-108"/>
      <path d="M 8.5 21.578125 
L 8.5 54.6875 
L 17.484375 54.6875 
L 17.484375 21.921875 
Q 17.484375 14.15625 20.5 10.265625 
Q 23.53125 6.390625 29.59375 6.390625 
Q 36.859375 6.390625 41.078125 11.03125 
Q 45.3125 15.671875 45.3125 23.6875 
L 45.3125 54.6875 
L 54.296875 54.6875 
L 54.296875 0 
L 45.3125 0 
L 45.3125 8.40625 
Q 42.046875 3.421875 37.71875 1 
Q 33.40625 -1.421875 27.6875 -1.421875 
Q 18.265625 -1.421875 13.375 4.4375 
Q 8.5 10.296875 8.5 21.578125 
z
M 31.109375 56 
z
" id="DejaVuSans-117"/>
     </defs>
     <g transform="translate(23.858854 265.582604)rotate(-90)scale(0.166667 -0.166667)">
      <use xlink:href="#DejaVuSans-65"/>
      <use x="68.408203" xlink:href="#DejaVuSans-72"/>
      <use x="143.603516" xlink:href="#DejaVuSans-69"/>
      <use x="206.787109" xlink:href="#DejaVuSans-85"/>
      <use x="279.980469" xlink:href="#DejaVuSans-32"/>
      <use x="311.767578" xlink:href="#DejaVuSans-86"/>
      <use x="380.066406" xlink:href="#DejaVuSans-97"/>
      <use x="441.345703" xlink:href="#DejaVuSans-108"/>
      <use x="469.128906" xlink:href="#DejaVuSans-117"/>
      <use x="532.507812" xlink:href="#DejaVuSans-101"/>
     </g>
    </g>
   </g>
   <g id="line2d_16">
    <path clip-path="url(#p476d66f6bf)" d="M 71.987603 80.189091 
L 73.739704 351.970909 
L 75.491804 334.577644 
L 77.243905 318.818287 
L 78.996006 291.28843 
L 80.748106 282.037724 
L 82.500207 268.26698 
L 84.252308 258.846475 
L 86.004408 245.987913 
L 87.756509 235.668105 
L 89.50861 238.923149 
L 91.26071 225.896525 
L 93.012811 214.656537 
L 94.764912 201.871129 
L 96.517012 198.724698 
L 98.269113 192.641591 
L 100.021214 192.828176 
L 101.773314 179.529515 
L 103.525415 179.321206 
L 105.277516 176.190878 
L 107.029617 175.83579 
L 108.781717 172.968383 
L 110.533818 168.867158 
L 112.285919 167.806572 
L 114.038019 171.016243 
L 115.79012 168.011113 
L 117.542221 156.982564 
L 119.294321 158.401969 
L 121.046422 151.979546 
L 122.798523 148.967574 
L 124.550623 138.212666 
L 126.302724 149.936732 
L 128.054825 148.86601 
L 129.806925 144.977586 
L 131.559026 151.452052 
L 133.311127 149.291219 
L 135.063227 145.420053 
L 136.815328 153.402365 
L 138.567429 156.613562 
L 140.319529 161.570671 
L 142.07163 163.870774 
L 143.823731 177.795199 
L 145.575831 184.654341 
L 147.327932 183.322109 
L 149.080033 185.674365 
L 150.832133 178.125526 
L 152.584234 174.357998 
L 154.336335 177.62824 
L 156.088435 175.870426 
L 157.840536 174.61728 
L 159.592637 165.307518 
L 161.344737 177.382074 
L 163.096838 169.276479 
L 164.848939 172.386088 
L 166.601039 168.233155 
L 168.35314 168.619241 
L 170.105241 159.349314 
L 171.857341 152.080843 
L 173.609442 148.757241 
L 175.361543 148.62081 
L 177.113643 142.371657 
L 178.865744 147.947426 
L 180.617845 143.101147 
L 182.369945 145.424358 
L 184.122046 141.400361 
L 185.874147 133.682283 
L 187.626247 141.064373 
L 189.378348 136.059797 
L 191.130449 142.377842 
L 192.88255 144.852461 
L 194.63465 141.217843 
L 196.386751 143.760708 
L 198.138852 139.235166 
L 199.890952 137.724732 
L 201.643053 133.795466 
L 203.395154 136.2219 
L 205.147254 148.398885 
L 206.899355 144.113212 
L 208.651456 138.962982 
L 210.403556 138.968935 
L 212.155657 131.952529 
L 213.907758 136.115395 
L 215.659858 127.085145 
L 217.411959 132.490983 
L 219.16406 134.644808 
L 220.91616 134.614651 
L 222.668261 145.448696 
L 224.420362 155.258877 
L 226.172462 166.93649 
L 229.676664 166.93649 
L 231.428764 161.074499 
L 233.180865 148.941521 
L 234.932966 140.384931 
L 236.685066 130.503974 
L 238.437167 123.910476 
L 240.189268 128.246968 
L 241.941368 123.686751 
L 243.693469 123.686751 
L 245.44557 125.490169 
L 247.19767 155.686257 
L 248.949771 150.654687 
L 250.701872 138.586634 
L 252.453972 168.784613 
L 255.958174 168.784613 
L 257.710274 188.950823 
L 261.214476 188.966209 
L 262.966576 166.83277 
L 264.718677 166.83277 
L 266.470778 166.338988 
L 268.222878 152.753358 
L 269.974979 152.714442 
L 271.72708 152.796884 
L 275.231281 152.688305 
L 276.983382 125.523908 
L 283.991785 125.627731 
L 285.743885 119.156735 
L 292.752288 119.156735 
L 296.256489 93.282356 
L 299.760691 93.170172 
L 305.016993 93.190855 
L 306.769093 119.134184 
L 308.521194 119.218396 
L 310.273295 107.535254 
L 312.025395 112.971438 
L 319.033798 113.012067 
L 320.785899 112.843538 
L 322.537999 112.845695 
L 324.2901 80.223044 
L 340.059006 80.269407 
L 341.811107 170.863346 
L 343.563207 170.863346 
L 345.315308 134.653454 
L 348.819509 134.578673 
L 350.57161 134.578673 
L 352.323711 110.419014 
L 362.836315 110.439767 
L 364.588415 125.518832 
L 371.596818 125.569995 
L 373.348919 125.569995 
L 375.10102 80.273025 
L 429.41614 80.365054 
L 431.168241 80.44181 
L 432.920342 80.189091 
L 434.672442 351.970909 
L 462.706053 351.970909 
L 464.458154 243.275409 
L 466.210255 243.258182 
L 467.962355 216.08 
L 469.714456 170.78303 
L 481.979161 170.78303 
L 483.731261 80.324654 
L 490.739664 80.343991 
L 490.739664 80.343991 
" style="fill:none;stroke:#1f77b4;stroke-linecap:square;stroke-width:1.5;"/>
   </g>
   <g id="line2d_17">
    <path clip-path="url(#p476d66f6bf)" d="M 71.987603 351.970909 
L 73.739704 261.37697 
L 75.491804 275.872 
L 77.243905 288.555152 
L 78.996006 306.671601 
L 80.748106 315.710561 
L 82.500207 322.952266 
L 84.252308 328.384236 
L 86.004408 337.440878 
L 87.756509 342.867292 
L 89.50861 341.042585 
L 91.26071 341.036694 
L 93.012811 346.453397 
L 96.517012 350.021975 
L 98.269113 351.889293 
L 100.021214 350.025677 
L 101.773314 350.017115 
L 103.525415 348.162198 
L 105.277516 348.161723 
L 107.029617 346.074705 
L 110.533818 345.926883 
L 112.285919 345.774889 
L 114.038019 343.771486 
L 117.542221 347.784641 
L 119.294321 345.765146 
L 122.798523 349.788426 
L 124.550623 349.671173 
L 126.302724 347.466253 
L 129.806925 347.504052 
L 131.559026 345.345266 
L 133.311127 345.345264 
L 135.063227 347.518099 
L 136.815328 343.204098 
L 138.567429 341.045108 
L 140.319529 338.243401 
L 142.07163 340.214098 
L 143.823731 335.577112 
L 145.575831 335.165444 
L 147.327932 337.182974 
L 149.080033 336.765027 
L 150.832133 341.79724 
L 154.336335 341.796061 
L 156.088435 344.307244 
L 157.840536 344.303246 
L 159.592637 346.822147 
L 161.344737 344.298356 
L 163.096838 349.264904 
L 164.848939 346.670469 
L 166.601039 346.65972 
L 168.35314 346.343817 
L 170.105241 351.836036 
L 177.113643 351.831666 
L 178.865744 348.597778 
L 180.617845 348.592925 
L 182.369945 348.47008 
L 184.122046 351.804587 
L 185.874147 351.793471 
L 187.626247 348.433646 
L 189.378348 348.446881 
L 191.130449 344.822949 
L 192.88255 344.533392 
L 194.63465 344.568459 
L 196.386751 344.260023 
L 198.138852 348.034784 
L 199.890952 347.863435 
L 201.643053 347.859354 
L 203.395154 347.717294 
L 205.147254 338.87051 
L 206.899355 338.857059 
L 208.651456 343.171053 
L 210.403556 343.166853 
L 212.155657 347.256375 
L 213.907758 346.834357 
L 215.659858 346.85937 
L 217.411959 341.229629 
L 219.16406 339.852995 
L 222.668261 339.762219 
L 224.420362 338.891748 
L 229.676664 338.891775 
L 231.428764 337.888148 
L 233.180865 344.26408 
L 234.932966 343.481708 
L 236.685066 351.716891 
L 238.437167 351.716679 
L 240.189268 351.912012 
L 245.44557 351.961559 
L 247.19767 341.890746 
L 248.949771 341.890746 
L 250.701872 351.95674 
L 252.453972 341.890747 
L 255.958174 341.890747 
L 257.710274 331.809484 
L 261.214476 331.80949 
L 262.966576 341.875483 
L 264.718677 341.892807 
L 266.470778 340.633044 
L 268.222878 351.957287 
L 303.264892 351.931009 
L 305.016993 351.947481 
L 306.769093 338.997131 
L 308.521194 338.997133 
L 310.273295 351.933781 
L 340.059006 351.96986 
L 341.811107 321.77188 
L 343.563207 321.77188 
L 345.315308 351.96986 
L 352.323711 351.893 
L 378.605221 351.797977 
L 380.357322 351.625045 
L 392.622026 351.625046 
L 394.374127 351.969999 
L 432.920342 351.970909 
L 434.672442 261.37697 
L 462.706053 261.37697 
L 464.458154 351.970909 
L 473.218657 351.92306 
L 490.739664 351.899177 
L 490.739664 351.899177 
" style="fill:none;stroke:#ff7f0e;stroke-linecap:square;stroke-width:1.5;"/>
   </g>
   <g id="line2d_18">
    <path clip-path="url(#p476d66f6bf)" d="M 71.987603 351.970909 
L 73.739704 261.37697 
L 77.243905 238.822212 
L 78.996006 223.790202 
L 80.748106 221.428092 
L 82.500207 221.608589 
L 84.252308 219.162383 
L 86.004408 217.626793 
L 87.756509 217.631858 
L 89.50861 224.241396 
L 91.26071 225.052003 
L 93.012811 222.331662 
L 94.764912 237.89507 
L 96.517012 239.189217 
L 98.269113 236.050023 
L 100.021214 250.537557 
L 101.773314 267.7243 
L 103.525415 277.543729 
L 105.277516 278.37678 
L 107.029617 271.007601 
L 108.781717 278.242121 
L 110.533818 297.875611 
L 112.285919 302.715002 
L 114.038019 312.101777 
L 115.79012 305.322372 
L 117.542221 305.816641 
L 119.294321 305.005677 
L 121.046422 303.393899 
L 122.798523 312.926844 
L 124.550623 317.093345 
L 126.302724 310.223331 
L 128.054825 315.045472 
L 129.806925 321.56557 
L 131.559026 319.406789 
L 133.311127 325.877991 
L 135.063227 322.211479 
L 136.815328 317.027654 
L 138.567429 313.316904 
L 140.319529 314.247608 
L 142.07163 312.467314 
L 143.823731 307.821471 
L 145.575831 302.36699 
L 147.327932 293.56288 
L 149.080033 294.958604 
L 150.832133 288.66723 
L 152.584234 301.496394 
L 154.336335 296.970252 
L 156.088435 299.42328 
L 157.840536 291.874533 
L 159.592637 307.60377 
L 161.344737 312.614002 
L 163.096838 312.013483 
L 164.848939 314.075315 
L 166.601039 314.079787 
L 168.35314 311.858449 
L 170.105241 313.884443 
L 171.857341 311.163595 
L 173.609442 307.530079 
L 175.361543 309.154708 
L 177.113643 312.52551 
L 178.865744 336.971862 
L 180.617845 336.975865 
L 182.369945 336.417364 
L 184.122046 333.722259 
L 185.874147 332.211314 
L 187.626247 324.832446 
L 189.378348 322.314073 
L 191.130449 328.135385 
L 192.88255 327.22313 
L 194.63465 327.22313 
L 196.386751 337.473432 
L 198.138852 334.453707 
L 199.890952 340.781974 
L 201.643053 340.782011 
L 203.395154 340.330774 
L 205.147254 331.135629 
L 206.899355 331.224458 
L 208.651456 327.773448 
L 210.403556 327.769069 
L 212.155657 331.089062 
L 215.659858 326.447206 
L 217.411959 315.619614 
L 219.16406 303.510866 
L 220.91616 303.510866 
L 222.668261 292.639593 
L 224.420362 276.75385 
L 226.172462 284.396102 
L 227.924563 303.788182 
L 229.676664 303.884092 
L 231.428764 291.824476 
L 233.180865 300.023587 
L 234.932966 285.365776 
L 236.685066 297.368701 
L 238.437167 293.662585 
L 240.189268 308.338253 
L 243.693469 308.337233 
L 245.44557 298.95935 
L 247.19767 311.541841 
L 248.949771 341.739821 
L 250.701872 333.687027 
L 252.453972 323.621033 
L 254.206073 323.621033 
L 255.958174 323.786128 
L 257.710274 313.720135 
L 261.214476 313.720135 
L 262.966576 305.66734 
L 264.718677 305.66734 
L 266.470778 299.879394 
L 268.222878 290.659825 
L 269.974979 310.929512 
L 275.231281 310.932952 
L 276.983382 300.684608 
L 278.735483 351.641003 
L 283.991785 351.594304 
L 305.016993 351.573939 
L 306.769093 338.631948 
L 308.521194 338.632299 
L 310.273295 324.330005 
L 312.025395 318.801824 
L 317.281697 318.841998 
L 319.033798 318.842004 
L 320.785899 319.109264 
L 322.537999 319.110702 
L 324.2901 351.661116 
L 340.059006 351.60429 
L 341.811107 321.406311 
L 343.563207 321.406311 
L 345.315308 297.266382 
L 350.57161 297.247927 
L 352.323711 261.010351 
L 357.580013 261.010351 
L 359.332113 351.60429 
L 362.836315 351.604379 
L 364.588415 351.421114 
L 371.596818 351.421321 
L 373.348919 351.970909 
L 432.920342 351.970909 
L 434.672442 261.37697 
L 462.706053 261.37697 
L 464.458154 188.913303 
L 466.210255 188.901818 
L 467.962355 148.134545 
L 469.714456 80.189091 
L 480.22706 80.189091 
L 481.979161 351.970909 
L 490.739664 351.970909 
L 490.739664 351.970909 
" style="fill:none;stroke:#2ca02c;stroke-linecap:square;stroke-width:1.5;"/>
   </g>
   <g id="line2d_19">
    <path clip-path="url(#p476d66f6bf)" d="M 71.987603 351.970909 
L 73.739704 261.37697 
L 77.243905 238.822212 
L 78.996006 230.312966 
L 80.748106 229.581547 
L 82.500207 233.023229 
L 84.252308 226.500296 
L 86.004408 227.135065 
L 87.756509 227.411913 
L 89.50861 240.270554 
L 93.012811 243.524498 
L 94.764912 249.814559 
L 96.517012 269.115827 
L 98.269113 269.302877 
L 100.021214 266.346025 
L 101.773314 269.382238 
L 103.525415 267.253023 
L 105.277516 269.451126 
L 108.781717 283.955237 
L 110.533818 296.961623 
L 112.285919 294.840165 
L 114.038019 296.446715 
L 115.79012 290.925822 
L 117.542221 287.802638 
L 119.294321 287.891883 
L 121.046422 298.357975 
L 122.798523 299.463727 
L 124.550623 303.031782 
L 126.302724 308.767263 
L 129.806925 321.708176 
L 131.559026 319.563323 
L 133.311127 319.561885 
L 135.063227 315.920795 
L 136.815328 315.488452 
L 138.567429 323.037969 
L 140.319529 326.106048 
L 142.07163 319.412698 
L 143.823731 314.782686 
L 145.575831 309.517747 
L 147.327932 300.907283 
L 149.080033 299.487211 
L 150.832133 298.855855 
L 152.584234 296.966862 
L 154.336335 296.970492 
L 156.088435 289.292963 
L 157.840536 293.068459 
L 159.592637 295.585255 
L 161.344737 293.067511 
L 163.096838 291.903905 
L 164.848939 297.079781 
L 166.601039 298.635998 
L 168.35314 303.638701 
L 170.105241 303.051086 
L 171.857341 302.141533 
L 173.609442 298.517343 
L 175.361543 299.951646 
L 177.113643 325.726585 
L 178.865744 321.55379 
L 180.617845 321.551186 
L 182.369945 326.46683 
L 184.122046 329.819505 
L 185.874147 328.304547 
L 187.626247 324.956972 
L 189.378348 322.438599 
L 191.130449 328.271505 
L 192.88255 327.323529 
L 194.63465 338.186223 
L 196.386751 337.611861 
L 198.138852 334.592137 
L 199.890952 333.836461 
L 201.643053 333.843545 
L 203.395154 333.020151 
L 205.147254 331.254934 
L 206.899355 331.254934 
L 208.651456 327.803935 
L 210.403556 327.80517 
L 212.155657 322.973507 
L 213.907758 317.486725 
L 215.659858 311.467222 
L 217.411959 315.745615 
L 219.16406 303.64384 
L 220.91616 303.64384 
L 222.668261 292.772562 
L 224.420362 296.309303 
L 226.172462 284.661549 
L 227.924563 296.308407 
L 229.676664 296.308407 
L 231.428764 292.027954 
L 233.180865 277.597291 
L 236.685066 293.895313 
L 238.437167 287.718449 
L 240.189268 335.649567 
L 241.941368 351.955454 
L 245.44557 351.959648 
L 247.19767 341.899243 
L 248.949771 341.899243 
L 250.701872 333.846448 
L 252.453972 323.780455 
L 255.958174 323.780455 
L 257.710274 313.711635 
L 261.214476 313.711635 
L 262.966576 305.65884 
L 264.718677 305.65884 
L 266.470778 299.869832 
L 268.222878 290.812745 
L 271.72708 290.810461 
L 275.231281 331.581233 
L 276.983382 326.484552 
L 278.735483 326.481804 
L 280.487583 313.134036 
L 283.991785 313.134035 
L 285.743885 351.960009 
L 305.016993 351.959974 
L 306.769093 339.017983 
L 308.521194 339.018011 
L 310.273295 324.780003 
L 312.025395 319.341822 
L 322.537999 319.343213 
L 324.2901 351.951764 
L 340.059006 351.970909 
L 341.811107 321.772929 
L 343.563207 321.772929 
L 345.315308 297.633001 
L 347.067409 351.970909 
L 432.920342 351.970909 
L 434.672442 261.37697 
L 462.706053 261.37697 
L 464.458154 188.913303 
L 466.210255 351.970909 
L 490.739664 351.970909 
L 490.739664 351.970909 
" style="fill:none;stroke:#d62728;stroke-linecap:square;stroke-width:1.5;"/>
   </g>
   <g id="line2d_20">
    <path clip-path="url(#p476d66f6bf)" d="M 71.987603 80.189091 
L 75.491804 80.189091 
L 77.243905 82.907149 
L 78.996006 90.157321 
L 80.748106 98.308808 
L 82.500207 96.495861 
L 84.252308 100.121137 
L 86.004408 104.650794 
L 87.756509 107.368143 
L 89.50861 118.227626 
L 91.26071 118.229155 
L 93.012811 120.025254 
L 94.764912 120.84384 
L 96.517012 119.919729 
L 98.269113 122.693315 
L 100.021214 127.307365 
L 101.773314 127.327984 
L 103.525415 128.245018 
L 105.277516 121.764645 
L 107.029617 116.792811 
L 108.781717 113.907907 
L 110.533818 115.621216 
L 112.285919 113.390965 
L 114.038019 121.445438 
L 115.79012 124.463473 
L 117.542221 119.436299 
L 119.294321 118.4377 
L 121.046422 114.40742 
L 122.798523 117.43863 
L 124.550623 112.845919 
L 126.302724 113.617822 
L 128.054825 112.53819 
L 131.559026 112.500679 
L 133.311127 110.351424 
L 135.063227 116.819394 
L 136.815328 115.742604 
L 138.567429 112.495918 
L 140.319529 108.4601 
L 142.07163 108.011075 
L 143.823731 108.016273 
L 145.575831 108.744691 
L 147.327932 108.293885 
L 149.080033 104.081784 
L 150.832133 111.634838 
L 152.584234 107.86201 
L 154.336335 106.603761 
L 156.088435 107.861161 
L 157.840536 106.605457 
L 159.592637 100.312024 
L 161.344737 100.30986 
L 163.096838 100.885153 
L 164.848939 100.884739 
L 166.601039 106.034731 
L 168.35314 107.601133 
L 170.105241 110.359175 
L 171.857341 119.434035 
L 173.609442 126.986256 
L 175.361543 131.718854 
L 177.113643 125.404526 
L 180.617845 115.779499 
L 182.369945 117.095519 
L 184.122046 117.084122 
L 185.874147 115.408986 
L 187.626247 118.750028 
L 189.378348 113.731977 
L 192.88255 116.417412 
L 194.63465 112.787685 
L 196.386751 114.145959 
L 198.138852 114.118416 
L 199.890952 111.670026 
L 201.643053 107.720485 
L 203.395154 108.971912 
L 205.147254 101.725687 
L 206.899355 97.430361 
L 210.403556 97.42939 
L 212.155657 93.750495 
L 213.907758 102.816814 
L 215.659858 102.837524 
L 217.411959 90.847827 
L 219.16406 98.331398 
L 222.668261 98.30103 
L 224.420362 93.122985 
L 229.676664 93.123326 
L 231.428764 94.115996 
L 233.180865 99.054122 
L 234.932966 100.781962 
L 236.685066 100.781701 
L 238.437167 109.017488 
L 240.189268 111.89856 
L 241.941368 107.368807 
L 243.693469 107.283796 
L 245.44557 125.393309 
L 247.19767 125.391436 
L 248.949771 120.358626 
L 255.958174 120.426629 
L 257.710274 110.379237 
L 261.214476 110.379237 
L 262.966576 100.321077 
L 264.718677 100.321077 
L 266.470778 91.513333 
L 275.231281 91.504287 
L 276.983382 125.491573 
L 283.991785 125.476406 
L 285.743885 119.005411 
L 292.752288 118.994854 
L 296.256489 93.124418 
L 303.264892 93.091457 
L 305.016993 93.091457 
L 306.769093 80.189091 
L 350.57161 80.189091 
L 352.323711 110.329014 
L 362.836315 110.336722 
L 364.588415 125.47551 
L 373.348919 125.486061 
L 375.10102 80.189091 
L 466.210255 80.189091 
L 467.962355 216.08 
L 469.714456 170.78303 
L 481.979161 170.692609 
L 483.731261 80.189091 
L 490.739664 80.189091 
L 490.739664 80.189091 
" style="fill:none;stroke:#9467bd;stroke-linecap:square;stroke-width:1.5;"/>
   </g>
   <g id="line2d_21">
    <path clip-path="url(#p476d66f6bf)" d="M 71.987603 351.970909 
L 73.739704 261.37697 
L 77.243905 238.822212 
L 78.996006 223.790202 
L 80.748106 210.828601 
L 82.500207 209.650189 
L 84.252308 207.472448 
L 86.004408 202.673355 
L 87.756509 205.663413 
L 89.50861 200.583257 
L 91.26071 190.517407 
L 93.012811 189.958499 
L 94.764912 186.824218 
L 96.517012 195.051971 
L 98.269113 221.571958 
L 100.021214 227.763736 
L 101.773314 225.537196 
L 103.525415 234.500591 
L 105.277516 251.96647 
L 107.029617 261.687218 
L 108.781717 260.814716 
L 110.533818 261.517917 
L 112.285919 277.619947 
L 114.038019 278.326329 
L 115.79012 275.813582 
L 117.542221 272.701699 
L 119.294321 271.287582 
L 121.046422 275.715113 
L 122.798523 276.816713 
L 124.550623 294.492714 
L 126.302724 287.084589 
L 128.054825 285.454653 
L 129.806925 282.872901 
L 131.559026 287.18643 
L 133.311127 300.108554 
L 135.063227 296.456903 
L 136.815328 296.044617 
L 138.567429 292.268852 
L 140.319529 287.016783 
L 142.07163 284.552219 
L 143.823731 286.864578 
L 145.575831 287.986817 
L 147.327932 278.799389 
L 149.080033 277.90485 
L 150.832133 271.603754 
L 152.584234 271.605249 
L 154.336335 265.218705 
L 156.088435 257.554784 
L 157.840536 257.177579 
L 159.592637 268.37712 
L 161.344737 261.324441 
L 163.096838 259.252227 
L 164.848939 256.662171 
L 166.601039 265.982654 
L 168.35314 270.662018 
L 170.105241 275.825933 
L 171.857341 269.481862 
L 173.609442 273.556888 
L 175.361543 276.470311 
L 177.113643 271.787922 
L 178.865744 285.101733 
L 180.617845 292.386483 
L 185.874147 316.179404 
L 187.626247 308.797675 
L 189.378348 312.317789 
L 191.130449 307.307596 
L 192.88255 305.517436 
L 194.63465 305.515624 
L 196.386751 314.90423 
L 198.138852 311.884507 
L 199.890952 310.14154 
L 201.643053 321.957861 
L 203.395154 332.950009 
L 205.147254 331.18026 
L 206.899355 331.180108 
L 208.651456 327.729102 
L 210.403556 327.72477 
L 212.155657 322.88909 
L 213.907758 317.402293 
L 215.659858 311.382787 
L 217.411959 315.656219 
L 219.16406 303.548635 
L 220.91616 321.667423 
L 222.668261 310.791437 
L 224.420362 296.202254 
L 226.172462 284.554495 
L 229.676664 284.559113 
L 231.428764 291.969586 
L 233.180865 300.18079 
L 234.932966 285.564531 
L 236.685066 278.976632 
L 238.437167 269.093657 
L 240.189268 260.838581 
L 241.941368 254.043009 
L 243.693469 281.22119 
L 245.44557 299.036744 
L 247.19767 319.256431 
L 248.949771 311.706936 
L 250.701872 303.651824 
L 252.453972 293.58583 
L 255.958174 293.58583 
L 257.710274 283.518682 
L 261.214476 283.518682 
L 262.966576 305.662697 
L 264.718677 305.662697 
L 266.470778 299.87417 
L 268.222878 290.817084 
L 275.231281 290.818301 
L 276.983382 267.036621 
L 278.735483 267.033869 
L 280.487583 245.193527 
L 283.991785 245.193526 
L 285.743885 235.487033 
L 287.495986 274.313007 
L 289.248087 274.313007 
L 291.000187 313.138981 
L 292.752288 313.138981 
L 294.504389 351.964955 
L 305.016993 351.970909 
L 306.769093 339.028918 
L 308.521194 339.028918 
L 310.273295 324.792727 
L 312.025395 319.357091 
L 322.537999 319.358529 
L 324.2901 351.970909 
L 340.059006 351.970909 
L 341.811107 321.772929 
L 343.563207 321.772929 
L 345.315308 297.633001 
L 350.57161 297.614545 
L 352.323711 261.37697 
L 362.836315 261.37697 
L 364.588415 216.08 
L 373.348919 216.08 
L 375.10102 351.970909 
L 432.920342 351.970909 
L 434.672442 261.37697 
L 462.706053 261.37697 
L 464.458154 188.913303 
L 466.210255 188.901818 
L 467.962355 148.134545 
L 469.714456 80.189091 
L 471.466557 351.970909 
L 490.739664 351.943062 
L 490.739664 351.943062 
" style="fill:none;stroke:#8c564b;stroke-linecap:square;stroke-width:1.5;"/>
   </g>
   <g id="line2d_22">
    <path clip-path="url(#p476d66f6bf)" d="M 71.987603 216.08 
L 73.739704 170.78303 
L 75.491804 164.985275 
L 77.243905 162.088059 
L 78.996006 156.833344 
L 80.748106 148.313764 
L 82.500207 160.818223 
L 84.252308 163.695081 
L 86.004408 161.516157 
L 87.756509 168.040321 
L 89.50861 172.572236 
L 91.26071 180.715705 
L 93.012811 184.321343 
L 94.764912 191.269245 
L 96.517012 197.553994 
L 98.269113 200.708868 
L 100.021214 209.57838 
L 101.773314 209.569772 
L 103.525415 213.266265 
L 105.277516 215.856186 
L 107.029617 217.557647 
L 108.781717 215.244396 
L 110.533818 214.83725 
L 112.285919 208.768041 
L 114.038019 204.548993 
L 115.79012 207.986465 
L 117.542221 211.047892 
L 119.294321 215.881925 
L 121.046422 220.31535 
L 122.798523 218.314093 
L 124.550623 220.922206 
L 126.302724 218.016794 
L 128.054825 222.341556 
L 129.806925 220.400163 
L 133.311127 218.234906 
L 135.063227 214.788167 
L 136.815328 209.170515 
L 138.567429 211.312906 
L 140.319529 212.225805 
L 142.07163 213.749849 
L 145.575831 209.151433 
L 147.327932 201.854517 
L 150.832133 191.656656 
L 152.584234 195.434264 
L 154.336335 202.730987 
L 156.088435 201.225255 
L 157.840536 206.260944 
L 159.592637 212.305354 
L 161.344737 213.310408 
L 163.096838 218.147344 
L 164.848939 214.521696 
L 168.35314 219.636524 
L 170.105241 212.135407 
L 171.857341 211.219438 
L 173.609442 213.6288 
L 175.361543 212.307954 
L 177.113643 223.24368 
L 178.865744 218.71037 
L 180.617845 223.56412 
L 182.369945 229.889965 
L 184.122046 228.471694 
L 185.874147 229.139584 
L 187.626247 226.125364 
L 189.378348 231.178033 
L 191.130449 226.873434 
L 192.88255 227.280474 
L 194.63465 225.456754 
L 196.386751 225.926995 
L 199.890952 222.757385 
L 201.643053 220.792758 
L 203.395154 228.414163 
L 205.147254 216.512643 
L 206.899355 214.381972 
L 208.651456 212.672223 
L 210.403556 212.668733 
L 213.907758 204.195417 
L 215.659858 208.734507 
L 217.411959 220.545842 
L 219.16406 218.75777 
L 220.91616 219.061848 
L 222.668261 213.605268 
L 224.420362 204.429454 
L 226.172462 198.62046 
L 227.924563 198.62046 
L 229.676664 210.158229 
L 231.428764 203.362134 
L 233.180865 191.184164 
L 234.932966 196.331508 
L 236.685066 193.038104 
L 238.437167 204.511808 
L 240.189268 203.33453 
L 241.941368 221.438313 
L 243.693469 221.433801 
L 245.44557 215.984143 
L 247.19767 210.949368 
L 248.949771 231.07238 
L 250.701872 227.051553 
L 252.453972 222.012774 
L 255.958174 222.115174 
L 257.710274 212.065234 
L 261.214476 212.072927 
L 262.966576 203.014567 
L 264.718677 203.014567 
L 266.470778 195.73561 
L 268.222878 191.193007 
L 269.974979 191.177692 
L 271.72708 211.602549 
L 275.231281 211.476782 
L 276.983382 187.700891 
L 278.735483 187.707432 
L 280.487583 209.600977 
L 283.991785 209.599409 
L 285.743885 235.450708 
L 292.752288 235.536676 
L 296.256489 222.585925 
L 301.512791 222.419725 
L 303.264892 222.566194 
L 305.016993 222.580882 
L 306.769093 209.662624 
L 308.521194 209.676073 
L 310.273295 202.543995 
L 312.025395 199.838385 
L 322.537999 199.775169 
L 324.2901 216.073276 
L 340.059006 216.07384 
L 341.811107 200.97485 
L 343.563207 200.99404 
L 345.315308 188.924076 
L 347.067409 188.891286 
L 348.819509 243.178836 
L 350.57161 243.178836 
L 352.323711 231.076725 
L 362.836315 231.142802 
L 364.588415 238.744871 
L 373.348919 238.770452 
L 375.10102 216.121967 
L 417.151436 216.084928 
L 418.903536 215.762801 
L 427.66404 215.846051 
L 429.41614 216.142796 
L 431.168241 216.181181 
L 432.920342 216.08 
L 434.672442 170.78303 
L 462.706053 170.78303 
L 464.458154 134.551197 
L 466.210255 134.545455 
L 467.962355 80.189091 
L 469.714456 261.35632 
L 481.979161 261.35632 
L 483.731261 216.116822 
L 490.739664 216.15745 
L 490.739664 216.15745 
" style="fill:none;stroke:#e377c2;stroke-linecap:square;stroke-width:1.5;"/>
   </g>
   <g id="line2d_23">
    <path clip-path="url(#p476d66f6bf)" d="M 71.987603 351.970909 
L 73.739704 261.37697 
L 77.243905 238.822212 
L 78.996006 223.790202 
L 80.748106 210.828601 
L 82.500207 205.573461 
L 84.252308 196.876274 
L 86.004408 192.078322 
L 87.756509 182.027461 
L 89.50861 185.645312 
L 91.26071 185.092073 
L 93.012811 173.670659 
L 94.764912 175.759041 
L 96.517012 167.346839 
L 98.269113 168.367581 
L 100.021214 166.806647 
L 101.773314 180.09871 
L 103.525415 177.97428 
L 105.277516 184.35181 
L 107.029617 200.406781 
L 108.781717 211.09452 
L 110.533818 213.049754 
L 112.285919 223.545477 
L 114.038019 223.326362 
L 115.79012 217.761022 
L 117.542221 230.34204 
L 119.294321 224.402716 
L 121.046422 234.865055 
L 122.798523 232.381034 
L 124.550623 237.558759 
L 126.302724 228.802572 
L 128.054825 227.18491 
L 129.806925 231.063381 
L 131.559026 235.369895 
L 133.311127 241.839464 
L 135.063227 238.184687 
L 136.815328 245.83653 
L 138.567429 248.532168 
L 140.319529 246.190787 
L 142.07163 235.716984 
L 143.823731 231.079238 
L 145.575831 223.608771 
L 147.327932 227.367493 
L 149.080033 234.47395 
L 150.832133 228.182568 
L 152.584234 233.844052 
L 154.336335 227.44241 
L 156.088435 227.346151 
L 157.840536 225.446543 
L 159.592637 236.646083 
L 161.344737 229.596798 
L 163.096838 231.294376 
L 164.848939 228.704797 
L 166.601039 222.497117 
L 168.35314 219.592517 
L 170.105241 212.400135 
L 171.857341 215.114998 
L 173.609442 219.124948 
L 175.361543 210.80013 
L 177.113643 215.48554 
L 178.865744 217.047808 
L 180.617845 224.31513 
L 182.369945 219.586239 
L 184.122046 216.899317 
L 185.874147 235.495462 
L 187.626247 238.178182 
L 189.378348 245.716764 
L 191.130449 244.417486 
L 192.88255 240.114459 
L 194.63465 240.111791 
L 196.386751 235.470478 
L 198.138852 232.450754 
L 199.890952 239.069135 
L 201.643053 250.890469 
L 203.395154 246.296777 
L 205.147254 266.28608 
L 206.899355 279.228072 
L 208.651456 275.77733 
L 210.403556 275.772963 
L 212.155657 281.92874 
L 213.907758 271.886261 
L 215.659858 280.965637 
L 217.411959 299.430987 
L 219.16406 285.169515 
L 220.91616 285.205368 
L 222.668261 292.67974 
L 224.420362 296.241339 
L 226.172462 284.593588 
L 229.676664 284.593588 
L 231.428764 291.945566 
L 233.180865 300.145642 
L 234.932966 285.554991 
L 236.685066 278.967092 
L 238.437167 269.08411 
L 240.189268 260.817606 
L 241.941368 254.022014 
L 243.693469 254.022014 
L 245.44557 238.66752 
L 247.19767 228.601526 
L 248.949771 221.052032 
L 250.701872 212.999243 
L 252.453972 202.93325 
L 255.958174 202.93325 
L 257.710274 223.062 
L 259.462375 253.256646 
L 261.214476 253.256654 
L 262.966576 245.202195 
L 264.718677 245.202195 
L 266.470778 265.828833 
L 268.222878 256.771746 
L 275.231281 256.772945 
L 276.983382 266.963992 
L 278.735483 266.961238 
L 280.487583 245.129474 
L 283.991785 245.129474 
L 285.743885 235.42298 
L 292.752288 235.42298 
L 296.256489 313.039144 
L 305.016993 313.05976 
L 306.769093 338.884045 
L 308.521194 338.88406 
L 310.273295 324.692952 
L 312.025395 319.346514 
L 322.537999 319.347938 
L 324.2901 351.957668 
L 340.059006 351.961191 
L 341.811107 321.763211 
L 343.563207 321.763211 
L 345.315308 297.623283 
L 350.57161 297.604828 
L 352.323711 261.367252 
L 354.075811 261.367252 
L 355.827912 351.961191 
L 378.605221 351.894618 
L 383.861523 351.847472 
L 431.168241 351.847587 
L 432.920342 351.970909 
L 434.672442 261.37697 
L 462.706053 261.37697 
L 464.458154 188.913303 
L 466.210255 188.901818 
L 467.962355 148.134545 
L 469.714456 80.189091 
L 481.979161 80.189091 
L 483.731261 351.936277 
L 490.739664 351.93628 
L 490.739664 351.93628 
" style="fill:none;stroke:#7f7f7f;stroke-linecap:square;stroke-width:1.5;"/>
   </g>
   <g id="patch_3">
    <path d="M 51.05 365.56 
L 51.05 66.6 
" style="fill:none;stroke:#000000;stroke-linecap:square;stroke-linejoin:miter;stroke-width:0.8;"/>
   </g>
   <g id="patch_4">
    <path d="M 511.677267 365.56 
L 511.677267 66.6 
" style="fill:none;stroke:#000000;stroke-linecap:square;stroke-linejoin:miter;stroke-width:0.8;"/>
   </g>
   <g id="patch_5">
    <path d="M 51.05 365.56 
L 511.677267 365.56 
" style="fill:none;stroke:#000000;stroke-linecap:square;stroke-linejoin:miter;stroke-width:0.8;"/>
   </g>
   <g id="patch_6">
    <path d="M 51.05 66.6 
L 511.677267 66.6 
" style="fill:none;stroke:#000000;stroke-linecap:square;stroke-linejoin:miter;stroke-width:0.8;"/>
   </g>
   <g id="legend_1">
    <g id="patch_7">
     <path d="M 61.55 59.1 
L 501.177267 59.1 
Q 504.177267 59.1 504.177267 56.1 
L 504.177267 13.565625 
Q 504.177267 10.565625 501.177267 10.565625 
L 61.55 10.565625 
Q 58.55 10.565625 58.55 13.565625 
L 58.55 56.1 
Q 58.55 59.1 61.55 59.1 
z
" style="fill:#ffffff;opacity:0.8;stroke:#cccccc;stroke-linejoin:miter;"/>
    </g>
    <g id="line2d_24">
     <path d="M 64.55 22.713281 
L 94.55 22.713281 
" style="fill:none;stroke:#1f77b4;stroke-linecap:square;stroke-width:1.5;"/>
    </g>
    <g id="line2d_25"/>
    <g id="text_18">
     <!-- Stra 1 -->
     <defs>
      <path d="M 53.515625 70.515625 
L 53.515625 60.890625 
Q 47.90625 63.578125 42.921875 64.890625 
Q 37.9375 66.21875 33.296875 66.21875 
Q 25.25 66.21875 20.875 63.09375 
Q 16.5 59.96875 16.5 54.203125 
Q 16.5 49.359375 19.40625 46.890625 
Q 22.3125 44.4375 30.421875 42.921875 
L 36.375 41.703125 
Q 47.40625 39.59375 52.65625 34.296875 
Q 57.90625 29 57.90625 20.125 
Q 57.90625 9.515625 50.796875 4.046875 
Q 43.703125 -1.421875 29.984375 -1.421875 
Q 24.8125 -1.421875 18.96875 -0.25 
Q 13.140625 0.921875 6.890625 3.21875 
L 6.890625 13.375 
Q 12.890625 10.015625 18.65625 8.296875 
Q 24.421875 6.59375 29.984375 6.59375 
Q 38.421875 6.59375 43.015625 9.90625 
Q 47.609375 13.234375 47.609375 19.390625 
Q 47.609375 24.75 44.3125 27.78125 
Q 41.015625 30.8125 33.5 32.328125 
L 27.484375 33.5 
Q 16.453125 35.6875 11.515625 40.375 
Q 6.59375 45.0625 6.59375 53.421875 
Q 6.59375 63.09375 13.40625 68.65625 
Q 20.21875 74.21875 32.171875 74.21875 
Q 37.3125 74.21875 42.625 73.28125 
Q 47.953125 72.359375 53.515625 70.515625 
z
" id="DejaVuSans-83"/>
      <path d="M 18.3125 70.21875 
L 18.3125 54.6875 
L 36.8125 54.6875 
L 36.8125 47.703125 
L 18.3125 47.703125 
L 18.3125 18.015625 
Q 18.3125 11.328125 20.140625 9.421875 
Q 21.96875 7.515625 27.59375 7.515625 
L 36.8125 7.515625 
L 36.8125 0 
L 27.59375 0 
Q 17.1875 0 13.234375 3.875 
Q 9.28125 7.765625 9.28125 18.015625 
L 9.28125 47.703125 
L 2.6875 47.703125 
L 2.6875 54.6875 
L 9.28125 54.6875 
L 9.28125 70.21875 
z
" id="DejaVuSans-116"/>
      <path d="M 41.109375 46.296875 
Q 39.59375 47.171875 37.8125 47.578125 
Q 36.03125 48 33.890625 48 
Q 26.265625 48 22.1875 43.046875 
Q 18.109375 38.09375 18.109375 28.8125 
L 18.109375 0 
L 9.078125 0 
L 9.078125 54.6875 
L 18.109375 54.6875 
L 18.109375 46.1875 
Q 20.953125 51.171875 25.484375 53.578125 
Q 30.03125 56 36.53125 56 
Q 37.453125 56 38.578125 55.875 
Q 39.703125 55.765625 41.0625 55.515625 
z
" id="DejaVuSans-114"/>
     </defs>
     <g transform="translate(106.55 27.963281)scale(0.15 -0.15)">
      <use xlink:href="#DejaVuSans-83"/>
      <use x="63.476562" xlink:href="#DejaVuSans-116"/>
      <use x="102.685547" xlink:href="#DejaVuSans-114"/>
      <use x="143.798828" xlink:href="#DejaVuSans-97"/>
      <use x="205.078125" xlink:href="#DejaVuSans-32"/>
      <use x="236.865234" xlink:href="#DejaVuSans-49"/>
     </g>
    </g>
    <g id="line2d_26">
     <path d="M 64.55 44.730469 
L 94.55 44.730469 
" style="fill:none;stroke:#ff7f0e;stroke-linecap:square;stroke-width:1.5;"/>
    </g>
    <g id="line2d_27"/>
    <g id="text_19">
     <!-- Stra 2 -->
     <g transform="translate(106.55 49.980469)scale(0.15 -0.15)">
      <use xlink:href="#DejaVuSans-83"/>
      <use x="63.476562" xlink:href="#DejaVuSans-116"/>
      <use x="102.685547" xlink:href="#DejaVuSans-114"/>
      <use x="143.798828" xlink:href="#DejaVuSans-97"/>
      <use x="205.078125" xlink:href="#DejaVuSans-32"/>
      <use x="236.865234" xlink:href="#DejaVuSans-50"/>
     </g>
    </g>
    <g id="line2d_28">
     <path d="M 180.068204 22.713281 
L 210.068204 22.713281 
" style="fill:none;stroke:#2ca02c;stroke-linecap:square;stroke-width:1.5;"/>
    </g>
    <g id="line2d_29"/>
    <g id="text_20">
     <!-- Stra 3 -->
     <g transform="translate(222.068204 27.963281)scale(0.15 -0.15)">
      <use xlink:href="#DejaVuSans-83"/>
      <use x="63.476562" xlink:href="#DejaVuSans-116"/>
      <use x="102.685547" xlink:href="#DejaVuSans-114"/>
      <use x="143.798828" xlink:href="#DejaVuSans-97"/>
      <use x="205.078125" xlink:href="#DejaVuSans-32"/>
      <use x="236.865234" xlink:href="#DejaVuSans-51"/>
     </g>
    </g>
    <g id="line2d_30">
     <path d="M 180.068204 44.730469 
L 210.068204 44.730469 
" style="fill:none;stroke:#d62728;stroke-linecap:square;stroke-width:1.5;"/>
    </g>
    <g id="line2d_31"/>
    <g id="text_21">
     <!-- Stra 4 -->
     <g transform="translate(222.068204 49.980469)scale(0.15 -0.15)">
      <use xlink:href="#DejaVuSans-83"/>
      <use x="63.476562" xlink:href="#DejaVuSans-116"/>
      <use x="102.685547" xlink:href="#DejaVuSans-114"/>
      <use x="143.798828" xlink:href="#DejaVuSans-97"/>
      <use x="205.078125" xlink:href="#DejaVuSans-32"/>
      <use x="236.865234" xlink:href="#DejaVuSans-52"/>
     </g>
    </g>
    <g id="line2d_32">
     <path d="M 295.586407 22.713281 
L 325.586407 22.713281 
" style="fill:none;stroke:#9467bd;stroke-linecap:square;stroke-width:1.5;"/>
    </g>
    <g id="line2d_33"/>
    <g id="text_22">
     <!-- Stra 5 -->
     <g transform="translate(337.586407 27.963281)scale(0.15 -0.15)">
      <use xlink:href="#DejaVuSans-83"/>
      <use x="63.476562" xlink:href="#DejaVuSans-116"/>
      <use x="102.685547" xlink:href="#DejaVuSans-114"/>
      <use x="143.798828" xlink:href="#DejaVuSans-97"/>
      <use x="205.078125" xlink:href="#DejaVuSans-32"/>
      <use x="236.865234" xlink:href="#DejaVuSans-53"/>
     </g>
    </g>
    <g id="line2d_34">
     <path d="M 295.586407 44.730469 
L 325.586407 44.730469 
" style="fill:none;stroke:#8c564b;stroke-linecap:square;stroke-width:1.5;"/>
    </g>
    <g id="line2d_35"/>
    <g id="text_23">
     <!-- Stra 6 -->
     <g transform="translate(337.586407 49.980469)scale(0.15 -0.15)">
      <use xlink:href="#DejaVuSans-83"/>
      <use x="63.476562" xlink:href="#DejaVuSans-116"/>
      <use x="102.685547" xlink:href="#DejaVuSans-114"/>
      <use x="143.798828" xlink:href="#DejaVuSans-97"/>
      <use x="205.078125" xlink:href="#DejaVuSans-32"/>
      <use x="236.865234" xlink:href="#DejaVuSans-54"/>
     </g>
    </g>
    <g id="line2d_36">
     <path d="M 411.104611 22.713281 
L 441.104611 22.713281 
" style="fill:none;stroke:#e377c2;stroke-linecap:square;stroke-width:1.5;"/>
    </g>
    <g id="line2d_37"/>
    <g id="text_24">
     <!-- Stra 7 -->
     <g transform="translate(453.104611 27.963281)scale(0.15 -0.15)">
      <use xlink:href="#DejaVuSans-83"/>
      <use x="63.476562" xlink:href="#DejaVuSans-116"/>
      <use x="102.685547" xlink:href="#DejaVuSans-114"/>
      <use x="143.798828" xlink:href="#DejaVuSans-97"/>
      <use x="205.078125" xlink:href="#DejaVuSans-32"/>
      <use x="236.865234" xlink:href="#DejaVuSans-55"/>
     </g>
    </g>
    <g id="line2d_38">
     <path d="M 411.104611 44.730469 
L 441.104611 44.730469 
" style="fill:none;stroke:#7f7f7f;stroke-linecap:square;stroke-width:1.5;"/>
    </g>
    <g id="line2d_39"/>
    <g id="text_25">
     <!-- Stra 8 -->
     <g transform="translate(453.104611 49.980469)scale(0.15 -0.15)">
      <use xlink:href="#DejaVuSans-83"/>
      <use x="63.476562" xlink:href="#DejaVuSans-116"/>
      <use x="102.685547" xlink:href="#DejaVuSans-114"/>
      <use x="143.798828" xlink:href="#DejaVuSans-97"/>
      <use x="205.078125" xlink:href="#DejaVuSans-32"/>
      <use x="236.865234" xlink:href="#DejaVuSans-56"/>
     </g>
    </g>
   </g>
  </g>
 </g>
 <defs>
  <clipPath id="p476d66f6bf">
   <rect height="298.96" width="460.627267" x="51.05" y="66.6"/>
  </clipPath>
 </defs>
</svg>
