<?xml version="1.0" encoding="utf-8" standalone="no"?>
<!DOCTYPE svg PUBLIC "-//W3C//DTD SVG 1.1//EN"
  "http://www.w3.org/Graphics/SVG/1.1/DTD/svg11.dtd">
<!-- Created with matplotlib (https://matplotlib.org/) -->
<svg height="432pt" version="1.1" viewBox="0 0 540 432" width="540pt" xmlns="http://www.w3.org/2000/svg" xmlns:xlink="http://www.w3.org/1999/xlink">
 <defs>
  <style type="text/css">
*{stroke-linecap:butt;stroke-linejoin:round;}
  </style>
 </defs>
 <g id="figure_1">
  <g id="patch_1">
   <path d="M 0 432 
L 540 432 
L 540 0 
L 0 0 
z
" style="fill:#ffffff;"/>
  </g>
  <g id="axes_1">
   <g id="patch_2">
    <path d="M 58.97 365.56 
L 522.199787 365.56 
L 522.199787 10.8 
L 58.97 10.8 
z
" style="fill:#ffffff;"/>
   </g>
   <g id="matplotlib.axis_1">
    <g id="xtick_1">
     <g id="line2d_1">
      <defs>
       <path d="M 0 0 
L 0 3.5 
" id="m6ff566693d" style="stroke:#000000;stroke-width:0.8;"/>
      </defs>
      <g>
       <use style="stroke:#000000;stroke-width:0.8;" x="79.166475" xlink:href="#m6ff566693d" y="365.56"/>
      </g>
     </g>
     <g id="text_1">
      <!-- 0 -->
      <defs>
       <path d="M 31.78125 66.40625 
Q 24.171875 66.40625 20.328125 58.90625 
Q 16.5 51.421875 16.5 36.375 
Q 16.5 21.390625 20.328125 13.890625 
Q 24.171875 6.390625 31.78125 6.390625 
Q 39.453125 6.390625 43.28125 13.890625 
Q 47.125 21.390625 47.125 36.375 
Q 47.125 51.421875 43.28125 58.90625 
Q 39.453125 66.40625 31.78125 66.40625 
z
M 31.78125 74.21875 
Q 44.046875 74.21875 50.515625 64.515625 
Q 56.984375 54.828125 56.984375 36.375 
Q 56.984375 17.96875 50.515625 8.265625 
Q 44.046875 -1.421875 31.78125 -1.421875 
Q 19.53125 -1.421875 13.0625 8.265625 
Q 6.59375 17.96875 6.59375 36.375 
Q 6.59375 54.828125 13.0625 64.515625 
Q 19.53125 74.21875 31.78125 74.21875 
z
" id="DejaVuSans-48"/>
      </defs>
      <g transform="translate(72.803975 387.756875)scale(0.2 -0.2)">
       <use xlink:href="#DejaVuSans-48"/>
      </g>
     </g>
    </g>
    <g id="xtick_2">
     <g id="line2d_2">
      <g>
       <use style="stroke:#000000;stroke-width:0.8;" x="165.108921" xlink:href="#m6ff566693d" y="365.56"/>
      </g>
     </g>
     <g id="text_2">
      <!-- 100 -->
      <defs>
       <path d="M 12.40625 8.296875 
L 28.515625 8.296875 
L 28.515625 63.921875 
L 10.984375 60.40625 
L 10.984375 69.390625 
L 28.421875 72.90625 
L 38.28125 72.90625 
L 38.28125 8.296875 
L 54.390625 8.296875 
L 54.390625 0 
L 12.40625 0 
z
" id="DejaVuSans-49"/>
      </defs>
      <g transform="translate(146.021421 387.756875)scale(0.2 -0.2)">
       <use xlink:href="#DejaVuSans-49"/>
       <use x="63.623047" xlink:href="#DejaVuSans-48"/>
       <use x="127.246094" xlink:href="#DejaVuSans-48"/>
      </g>
     </g>
    </g>
    <g id="xtick_3">
     <g id="line2d_3">
      <g>
       <use style="stroke:#000000;stroke-width:0.8;" x="251.051368" xlink:href="#m6ff566693d" y="365.56"/>
      </g>
     </g>
     <g id="text_3">
      <!-- 200 -->
      <defs>
       <path d="M 19.1875 8.296875 
L 53.609375 8.296875 
L 53.609375 0 
L 7.328125 0 
L 7.328125 8.296875 
Q 12.9375 14.109375 22.625 23.890625 
Q 32.328125 33.6875 34.8125 36.53125 
Q 39.546875 41.84375 41.421875 45.53125 
Q 43.3125 49.21875 43.3125 52.78125 
Q 43.3125 58.59375 39.234375 62.25 
Q 35.15625 65.921875 28.609375 65.921875 
Q 23.96875 65.921875 18.8125 64.3125 
Q 13.671875 62.703125 7.8125 59.421875 
L 7.8125 69.390625 
Q 13.765625 71.78125 18.9375 73 
Q 24.125 74.21875 28.421875 74.21875 
Q 39.75 74.21875 46.484375 68.546875 
Q 53.21875 62.890625 53.21875 53.421875 
Q 53.21875 48.921875 51.53125 44.890625 
Q 49.859375 40.875 45.40625 35.40625 
Q 44.1875 33.984375 37.640625 27.21875 
Q 31.109375 20.453125 19.1875 8.296875 
z
" id="DejaVuSans-50"/>
      </defs>
      <g transform="translate(231.963868 387.756875)scale(0.2 -0.2)">
       <use xlink:href="#DejaVuSans-50"/>
       <use x="63.623047" xlink:href="#DejaVuSans-48"/>
       <use x="127.246094" xlink:href="#DejaVuSans-48"/>
      </g>
     </g>
    </g>
    <g id="xtick_4">
     <g id="line2d_4">
      <g>
       <use style="stroke:#000000;stroke-width:0.8;" x="336.993814" xlink:href="#m6ff566693d" y="365.56"/>
      </g>
     </g>
     <g id="text_4">
      <!-- 300 -->
      <defs>
       <path d="M 40.578125 39.3125 
Q 47.65625 37.796875 51.625 33 
Q 55.609375 28.21875 55.609375 21.1875 
Q 55.609375 10.40625 48.1875 4.484375 
Q 40.765625 -1.421875 27.09375 -1.421875 
Q 22.515625 -1.421875 17.65625 -0.515625 
Q 12.796875 0.390625 7.625 2.203125 
L 7.625 11.71875 
Q 11.71875 9.328125 16.59375 8.109375 
Q 21.484375 6.890625 26.8125 6.890625 
Q 36.078125 6.890625 40.9375 10.546875 
Q 45.796875 14.203125 45.796875 21.1875 
Q 45.796875 27.640625 41.28125 31.265625 
Q 36.765625 34.90625 28.71875 34.90625 
L 20.21875 34.90625 
L 20.21875 43.015625 
L 29.109375 43.015625 
Q 36.375 43.015625 40.234375 45.921875 
Q 44.09375 48.828125 44.09375 54.296875 
Q 44.09375 59.90625 40.109375 62.90625 
Q 36.140625 65.921875 28.71875 65.921875 
Q 24.65625 65.921875 20.015625 65.03125 
Q 15.375 64.15625 9.8125 62.3125 
L 9.8125 71.09375 
Q 15.4375 72.65625 20.34375 73.4375 
Q 25.25 74.21875 29.59375 74.21875 
Q 40.828125 74.21875 47.359375 69.109375 
Q 53.90625 64.015625 53.90625 55.328125 
Q 53.90625 49.265625 50.4375 45.09375 
Q 46.96875 40.921875 40.578125 39.3125 
z
" id="DejaVuSans-51"/>
      </defs>
      <g transform="translate(317.906314 387.756875)scale(0.2 -0.2)">
       <use xlink:href="#DejaVuSans-51"/>
       <use x="63.623047" xlink:href="#DejaVuSans-48"/>
       <use x="127.246094" xlink:href="#DejaVuSans-48"/>
      </g>
     </g>
    </g>
    <g id="xtick_5">
     <g id="line2d_5">
      <g>
       <use style="stroke:#000000;stroke-width:0.8;" x="422.936261" xlink:href="#m6ff566693d" y="365.56"/>
      </g>
     </g>
     <g id="text_5">
      <!-- 400 -->
      <defs>
       <path d="M 37.796875 64.3125 
L 12.890625 25.390625 
L 37.796875 25.390625 
z
M 35.203125 72.90625 
L 47.609375 72.90625 
L 47.609375 25.390625 
L 58.015625 25.390625 
L 58.015625 17.1875 
L 47.609375 17.1875 
L 47.609375 0 
L 37.796875 0 
L 37.796875 17.1875 
L 4.890625 17.1875 
L 4.890625 26.703125 
z
" id="DejaVuSans-52"/>
      </defs>
      <g transform="translate(403.848761 387.756875)scale(0.2 -0.2)">
       <use xlink:href="#DejaVuSans-52"/>
       <use x="63.623047" xlink:href="#DejaVuSans-48"/>
       <use x="127.246094" xlink:href="#DejaVuSans-48"/>
      </g>
     </g>
    </g>
    <g id="xtick_6">
     <g id="line2d_6">
      <g>
       <use style="stroke:#000000;stroke-width:0.8;" x="508.878707" xlink:href="#m6ff566693d" y="365.56"/>
      </g>
     </g>
     <g id="text_6">
      <!-- 500 -->
      <defs>
       <path d="M 10.796875 72.90625 
L 49.515625 72.90625 
L 49.515625 64.59375 
L 19.828125 64.59375 
L 19.828125 46.734375 
Q 21.96875 47.46875 24.109375 47.828125 
Q 26.265625 48.1875 28.421875 48.1875 
Q 40.625 48.1875 47.75 41.5 
Q 54.890625 34.8125 54.890625 23.390625 
Q 54.890625 11.625 47.5625 5.09375 
Q 40.234375 -1.421875 26.90625 -1.421875 
Q 22.3125 -1.421875 17.546875 -0.640625 
Q 12.796875 0.140625 7.71875 1.703125 
L 7.71875 11.625 
Q 12.109375 9.234375 16.796875 8.0625 
Q 21.484375 6.890625 26.703125 6.890625 
Q 35.15625 6.890625 40.078125 11.328125 
Q 45.015625 15.765625 45.015625 23.390625 
Q 45.015625 31 40.078125 35.4375 
Q 35.15625 39.890625 26.703125 39.890625 
Q 22.75 39.890625 18.8125 39.015625 
Q 14.890625 38.140625 10.796875 36.28125 
z
" id="DejaVuSans-53"/>
      </defs>
      <g transform="translate(489.791207 387.756875)scale(0.2 -0.2)">
       <use xlink:href="#DejaVuSans-53"/>
       <use x="63.623047" xlink:href="#DejaVuSans-48"/>
       <use x="127.246094" xlink:href="#DejaVuSans-48"/>
      </g>
     </g>
    </g>
    <g id="text_7">
     <!-- # of games -->
     <defs>
      <path d="M 51.125 44 
L 36.921875 44 
L 32.8125 27.6875 
L 47.125 27.6875 
z
M 43.796875 71.78125 
L 38.71875 51.515625 
L 52.984375 51.515625 
L 58.109375 71.78125 
L 65.921875 71.78125 
L 60.890625 51.515625 
L 76.125 51.515625 
L 76.125 44 
L 58.984375 44 
L 54.984375 27.6875 
L 70.515625 27.6875 
L 70.515625 20.21875 
L 53.078125 20.21875 
L 48 0 
L 40.1875 0 
L 45.21875 20.21875 
L 30.90625 20.21875 
L 25.875 0 
L 18.015625 0 
L 23.09375 20.21875 
L 7.71875 20.21875 
L 7.71875 27.6875 
L 24.90625 27.6875 
L 29 44 
L 13.28125 44 
L 13.28125 51.515625 
L 30.90625 51.515625 
L 35.890625 71.78125 
z
" id="DejaVuSans-35"/>
      <path id="DejaVuSans-32"/>
      <path d="M 30.609375 48.390625 
Q 23.390625 48.390625 19.1875 42.75 
Q 14.984375 37.109375 14.984375 27.296875 
Q 14.984375 17.484375 19.15625 11.84375 
Q 23.34375 6.203125 30.609375 6.203125 
Q 37.796875 6.203125 41.984375 11.859375 
Q 46.1875 17.53125 46.1875 27.296875 
Q 46.1875 37.015625 41.984375 42.703125 
Q 37.796875 48.390625 30.609375 48.390625 
z
M 30.609375 56 
Q 42.328125 56 49.015625 48.375 
Q 55.71875 40.765625 55.71875 27.296875 
Q 55.71875 13.875 49.015625 6.21875 
Q 42.328125 -1.421875 30.609375 -1.421875 
Q 18.84375 -1.421875 12.171875 6.21875 
Q 5.515625 13.875 5.515625 27.296875 
Q 5.515625 40.765625 12.171875 48.375 
Q 18.84375 56 30.609375 56 
z
" id="DejaVuSans-111"/>
      <path d="M 37.109375 75.984375 
L 37.109375 68.5 
L 28.515625 68.5 
Q 23.6875 68.5 21.796875 66.546875 
Q 19.921875 64.59375 19.921875 59.515625 
L 19.921875 54.6875 
L 34.71875 54.6875 
L 34.71875 47.703125 
L 19.921875 47.703125 
L 19.921875 0 
L 10.890625 0 
L 10.890625 47.703125 
L 2.296875 47.703125 
L 2.296875 54.6875 
L 10.890625 54.6875 
L 10.890625 58.5 
Q 10.890625 67.625 15.140625 71.796875 
Q 19.390625 75.984375 28.609375 75.984375 
z
" id="DejaVuSans-102"/>
      <path d="M 45.40625 27.984375 
Q 45.40625 37.75 41.375 43.109375 
Q 37.359375 48.484375 30.078125 48.484375 
Q 22.859375 48.484375 18.828125 43.109375 
Q 14.796875 37.75 14.796875 27.984375 
Q 14.796875 18.265625 18.828125 12.890625 
Q 22.859375 7.515625 30.078125 7.515625 
Q 37.359375 7.515625 41.375 12.890625 
Q 45.40625 18.265625 45.40625 27.984375 
z
M 54.390625 6.78125 
Q 54.390625 -7.171875 48.1875 -13.984375 
Q 42 -20.796875 29.203125 -20.796875 
Q 24.46875 -20.796875 20.265625 -20.09375 
Q 16.0625 -19.390625 12.109375 -17.921875 
L 12.109375 -9.1875 
Q 16.0625 -11.328125 19.921875 -12.34375 
Q 23.78125 -13.375 27.78125 -13.375 
Q 36.625 -13.375 41.015625 -8.765625 
Q 45.40625 -4.15625 45.40625 5.171875 
L 45.40625 9.625 
Q 42.625 4.78125 38.28125 2.390625 
Q 33.9375 0 27.875 0 
Q 17.828125 0 11.671875 7.65625 
Q 5.515625 15.328125 5.515625 27.984375 
Q 5.515625 40.671875 11.671875 48.328125 
Q 17.828125 56 27.875 56 
Q 33.9375 56 38.28125 53.609375 
Q 42.625 51.21875 45.40625 46.390625 
L 45.40625 54.6875 
L 54.390625 54.6875 
z
" id="DejaVuSans-103"/>
      <path d="M 34.28125 27.484375 
Q 23.390625 27.484375 19.1875 25 
Q 14.984375 22.515625 14.984375 16.5 
Q 14.984375 11.71875 18.140625 8.90625 
Q 21.296875 6.109375 26.703125 6.109375 
Q 34.1875 6.109375 38.703125 11.40625 
Q 43.21875 16.703125 43.21875 25.484375 
L 43.21875 27.484375 
z
M 52.203125 31.203125 
L 52.203125 0 
L 43.21875 0 
L 43.21875 8.296875 
Q 40.140625 3.328125 35.546875 0.953125 
Q 30.953125 -1.421875 24.3125 -1.421875 
Q 15.921875 -1.421875 10.953125 3.296875 
Q 6 8.015625 6 15.921875 
Q 6 25.140625 12.171875 29.828125 
Q 18.359375 34.515625 30.609375 34.515625 
L 43.21875 34.515625 
L 43.21875 35.40625 
Q 43.21875 41.609375 39.140625 45 
Q 35.0625 48.390625 27.6875 48.390625 
Q 23 48.390625 18.546875 47.265625 
Q 14.109375 46.140625 10.015625 43.890625 
L 10.015625 52.203125 
Q 14.9375 54.109375 19.578125 55.046875 
Q 24.21875 56 28.609375 56 
Q 40.484375 56 46.34375 49.84375 
Q 52.203125 43.703125 52.203125 31.203125 
z
" id="DejaVuSans-97"/>
      <path d="M 52 44.1875 
Q 55.375 50.25 60.0625 53.125 
Q 64.75 56 71.09375 56 
Q 79.640625 56 84.28125 50.015625 
Q 88.921875 44.046875 88.921875 33.015625 
L 88.921875 0 
L 79.890625 0 
L 79.890625 32.71875 
Q 79.890625 40.578125 77.09375 44.375 
Q 74.3125 48.1875 68.609375 48.1875 
Q 61.625 48.1875 57.5625 43.546875 
Q 53.515625 38.921875 53.515625 30.90625 
L 53.515625 0 
L 44.484375 0 
L 44.484375 32.71875 
Q 44.484375 40.625 41.703125 44.40625 
Q 38.921875 48.1875 33.109375 48.1875 
Q 26.21875 48.1875 22.15625 43.53125 
Q 18.109375 38.875 18.109375 30.90625 
L 18.109375 0 
L 9.078125 0 
L 9.078125 54.6875 
L 18.109375 54.6875 
L 18.109375 46.1875 
Q 21.1875 51.21875 25.484375 53.609375 
Q 29.78125 56 35.6875 56 
Q 41.65625 56 45.828125 52.96875 
Q 50 49.953125 52 44.1875 
z
" id="DejaVuSans-109"/>
      <path d="M 56.203125 29.59375 
L 56.203125 25.203125 
L 14.890625 25.203125 
Q 15.484375 15.921875 20.484375 11.0625 
Q 25.484375 6.203125 34.421875 6.203125 
Q 39.59375 6.203125 44.453125 7.46875 
Q 49.3125 8.734375 54.109375 11.28125 
L 54.109375 2.78125 
Q 49.265625 0.734375 44.1875 -0.34375 
Q 39.109375 -1.421875 33.890625 -1.421875 
Q 20.796875 -1.421875 13.15625 6.1875 
Q 5.515625 13.8125 5.515625 26.8125 
Q 5.515625 40.234375 12.765625 48.109375 
Q 20.015625 56 32.328125 56 
Q 43.359375 56 49.78125 48.890625 
Q 56.203125 41.796875 56.203125 29.59375 
z
M 47.21875 32.234375 
Q 47.125 39.59375 43.09375 43.984375 
Q 39.0625 48.390625 32.421875 48.390625 
Q 24.90625 48.390625 20.390625 44.140625 
Q 15.875 39.890625 15.1875 32.171875 
z
" id="DejaVuSans-101"/>
      <path d="M 44.28125 53.078125 
L 44.28125 44.578125 
Q 40.484375 46.53125 36.375 47.5 
Q 32.28125 48.484375 27.875 48.484375 
Q 21.1875 48.484375 17.84375 46.4375 
Q 14.5 44.390625 14.5 40.28125 
Q 14.5 37.15625 16.890625 35.375 
Q 19.28125 33.59375 26.515625 31.984375 
L 29.59375 31.296875 
Q 39.15625 29.25 43.1875 25.515625 
Q 47.21875 21.78125 47.21875 15.09375 
Q 47.21875 7.46875 41.1875 3.015625 
Q 35.15625 -1.421875 24.609375 -1.421875 
Q 20.21875 -1.421875 15.453125 -0.5625 
Q 10.6875 0.296875 5.421875 2 
L 5.421875 11.28125 
Q 10.40625 8.6875 15.234375 7.390625 
Q 20.0625 6.109375 24.8125 6.109375 
Q 31.15625 6.109375 34.5625 8.28125 
Q 37.984375 10.453125 37.984375 14.40625 
Q 37.984375 18.0625 35.515625 20.015625 
Q 33.0625 21.96875 24.703125 23.78125 
L 21.578125 24.515625 
Q 13.234375 26.265625 9.515625 29.90625 
Q 5.8125 33.546875 5.8125 39.890625 
Q 5.8125 47.609375 11.28125 51.796875 
Q 16.75 56 26.8125 56 
Q 31.78125 56 36.171875 55.265625 
Q 40.578125 54.546875 44.28125 53.078125 
z
" id="DejaVuSans-115"/>
     </defs>
     <g transform="translate(218.141534 414.912344)scale(0.25 -0.25)">
      <use xlink:href="#DejaVuSans-35"/>
      <use x="83.789062" xlink:href="#DejaVuSans-32"/>
      <use x="115.576172" xlink:href="#DejaVuSans-111"/>
      <use x="176.757812" xlink:href="#DejaVuSans-102"/>
      <use x="211.962891" xlink:href="#DejaVuSans-32"/>
      <use x="243.75" xlink:href="#DejaVuSans-103"/>
      <use x="307.226562" xlink:href="#DejaVuSans-97"/>
      <use x="368.505859" xlink:href="#DejaVuSans-109"/>
      <use x="465.917969" xlink:href="#DejaVuSans-101"/>
      <use x="527.441406" xlink:href="#DejaVuSans-115"/>
     </g>
    </g>
   </g>
   <g id="matplotlib.axis_2">
    <g id="ytick_1">
     <g id="line2d_7">
      <defs>
       <path d="M 0 0 
L -3.5 0 
" id="me7a41da17d" style="stroke:#000000;stroke-width:0.8;"/>
      </defs>
      <g>
       <use style="stroke:#000000;stroke-width:0.8;" x="58.97" xlink:href="#me7a41da17d" y="349.434545"/>
      </g>
     </g>
     <g id="text_8">
      <!-- 1 -->
      <g transform="translate(39.245 357.032983)scale(0.2 -0.2)">
       <use xlink:href="#DejaVuSans-49"/>
      </g>
     </g>
    </g>
    <g id="ytick_2">
     <g id="line2d_8">
      <g>
       <use style="stroke:#000000;stroke-width:0.8;" x="58.97" xlink:href="#me7a41da17d" y="309.120909"/>
      </g>
     </g>
     <g id="text_9">
      <!-- 2 -->
      <g transform="translate(39.245 316.719347)scale(0.2 -0.2)">
       <use xlink:href="#DejaVuSans-50"/>
      </g>
     </g>
    </g>
    <g id="ytick_3">
     <g id="line2d_9">
      <g>
       <use style="stroke:#000000;stroke-width:0.8;" x="58.97" xlink:href="#me7a41da17d" y="268.807273"/>
      </g>
     </g>
     <g id="text_10">
      <!-- 3 -->
      <g transform="translate(39.245 276.40571)scale(0.2 -0.2)">
       <use xlink:href="#DejaVuSans-51"/>
      </g>
     </g>
    </g>
    <g id="ytick_4">
     <g id="line2d_10">
      <g>
       <use style="stroke:#000000;stroke-width:0.8;" x="58.97" xlink:href="#me7a41da17d" y="228.493636"/>
      </g>
     </g>
     <g id="text_11">
      <!-- 4 -->
      <g transform="translate(39.245 236.092074)scale(0.2 -0.2)">
       <use xlink:href="#DejaVuSans-52"/>
      </g>
     </g>
    </g>
    <g id="ytick_5">
     <g id="line2d_11">
      <g>
       <use style="stroke:#000000;stroke-width:0.8;" x="58.97" xlink:href="#me7a41da17d" y="188.18"/>
      </g>
     </g>
     <g id="text_12">
      <!-- 5 -->
      <g transform="translate(39.245 195.778437)scale(0.2 -0.2)">
       <use xlink:href="#DejaVuSans-53"/>
      </g>
     </g>
    </g>
    <g id="ytick_6">
     <g id="line2d_12">
      <g>
       <use style="stroke:#000000;stroke-width:0.8;" x="58.97" xlink:href="#me7a41da17d" y="147.866364"/>
      </g>
     </g>
     <g id="text_13">
      <!-- 6 -->
      <defs>
       <path d="M 33.015625 40.375 
Q 26.375 40.375 22.484375 35.828125 
Q 18.609375 31.296875 18.609375 23.390625 
Q 18.609375 15.53125 22.484375 10.953125 
Q 26.375 6.390625 33.015625 6.390625 
Q 39.65625 6.390625 43.53125 10.953125 
Q 47.40625 15.53125 47.40625 23.390625 
Q 47.40625 31.296875 43.53125 35.828125 
Q 39.65625 40.375 33.015625 40.375 
z
M 52.59375 71.296875 
L 52.59375 62.3125 
Q 48.875 64.0625 45.09375 64.984375 
Q 41.3125 65.921875 37.59375 65.921875 
Q 27.828125 65.921875 22.671875 59.328125 
Q 17.53125 52.734375 16.796875 39.40625 
Q 19.671875 43.65625 24.015625 45.921875 
Q 28.375 48.1875 33.59375 48.1875 
Q 44.578125 48.1875 50.953125 41.515625 
Q 57.328125 34.859375 57.328125 23.390625 
Q 57.328125 12.15625 50.6875 5.359375 
Q 44.046875 -1.421875 33.015625 -1.421875 
Q 20.359375 -1.421875 13.671875 8.265625 
Q 6.984375 17.96875 6.984375 36.375 
Q 6.984375 53.65625 15.1875 63.9375 
Q 23.390625 74.21875 37.203125 74.21875 
Q 40.921875 74.21875 44.703125 73.484375 
Q 48.484375 72.75 52.59375 71.296875 
z
" id="DejaVuSans-54"/>
      </defs>
      <g transform="translate(39.245 155.464801)scale(0.2 -0.2)">
       <use xlink:href="#DejaVuSans-54"/>
      </g>
     </g>
    </g>
    <g id="ytick_7">
     <g id="line2d_13">
      <g>
       <use style="stroke:#000000;stroke-width:0.8;" x="58.97" xlink:href="#me7a41da17d" y="107.552727"/>
      </g>
     </g>
     <g id="text_14">
      <!-- 7 -->
      <defs>
       <path d="M 8.203125 72.90625 
L 55.078125 72.90625 
L 55.078125 68.703125 
L 28.609375 0 
L 18.3125 0 
L 43.21875 64.59375 
L 8.203125 64.59375 
z
" id="DejaVuSans-55"/>
      </defs>
      <g transform="translate(39.245 115.151165)scale(0.2 -0.2)">
       <use xlink:href="#DejaVuSans-55"/>
      </g>
     </g>
    </g>
    <g id="ytick_8">
     <g id="line2d_14">
      <g>
       <use style="stroke:#000000;stroke-width:0.8;" x="58.97" xlink:href="#me7a41da17d" y="67.239091"/>
      </g>
     </g>
     <g id="text_15">
      <!-- 8 -->
      <defs>
       <path d="M 31.78125 34.625 
Q 24.75 34.625 20.71875 30.859375 
Q 16.703125 27.09375 16.703125 20.515625 
Q 16.703125 13.921875 20.71875 10.15625 
Q 24.75 6.390625 31.78125 6.390625 
Q 38.8125 6.390625 42.859375 10.171875 
Q 46.921875 13.96875 46.921875 20.515625 
Q 46.921875 27.09375 42.890625 30.859375 
Q 38.875 34.625 31.78125 34.625 
z
M 21.921875 38.8125 
Q 15.578125 40.375 12.03125 44.71875 
Q 8.5 49.078125 8.5 55.328125 
Q 8.5 64.0625 14.71875 69.140625 
Q 20.953125 74.21875 31.78125 74.21875 
Q 42.671875 74.21875 48.875 69.140625 
Q 55.078125 64.0625 55.078125 55.328125 
Q 55.078125 49.078125 51.53125 44.71875 
Q 48 40.375 41.703125 38.8125 
Q 48.828125 37.15625 52.796875 32.3125 
Q 56.78125 27.484375 56.78125 20.515625 
Q 56.78125 9.90625 50.3125 4.234375 
Q 43.84375 -1.421875 31.78125 -1.421875 
Q 19.734375 -1.421875 13.25 4.234375 
Q 6.78125 9.90625 6.78125 20.515625 
Q 6.78125 27.484375 10.78125 32.3125 
Q 14.796875 37.15625 21.921875 38.8125 
z
M 18.3125 54.390625 
Q 18.3125 48.734375 21.84375 45.5625 
Q 25.390625 42.390625 31.78125 42.390625 
Q 38.140625 42.390625 41.71875 45.5625 
Q 45.3125 48.734375 45.3125 54.390625 
Q 45.3125 60.0625 41.71875 63.234375 
Q 38.140625 66.40625 31.78125 66.40625 
Q 25.390625 66.40625 21.84375 63.234375 
Q 18.3125 60.0625 18.3125 54.390625 
z
" id="DejaVuSans-56"/>
      </defs>
      <g transform="translate(39.245 74.837528)scale(0.2 -0.2)">
       <use xlink:href="#DejaVuSans-56"/>
      </g>
     </g>
    </g>
    <g id="ytick_9">
     <g id="line2d_15">
      <g>
       <use style="stroke:#000000;stroke-width:0.8;" x="58.97" xlink:href="#me7a41da17d" y="26.925455"/>
      </g>
     </g>
     <g id="text_16">
      <!-- 9 -->
      <defs>
       <path d="M 10.984375 1.515625 
L 10.984375 10.5 
Q 14.703125 8.734375 18.5 7.8125 
Q 22.3125 6.890625 25.984375 6.890625 
Q 35.75 6.890625 40.890625 13.453125 
Q 46.046875 20.015625 46.78125 33.40625 
Q 43.953125 29.203125 39.59375 26.953125 
Q 35.25 24.703125 29.984375 24.703125 
Q 19.046875 24.703125 12.671875 31.3125 
Q 6.296875 37.9375 6.296875 49.421875 
Q 6.296875 60.640625 12.9375 67.421875 
Q 19.578125 74.21875 30.609375 74.21875 
Q 43.265625 74.21875 49.921875 64.515625 
Q 56.59375 54.828125 56.59375 36.375 
Q 56.59375 19.140625 48.40625 8.859375 
Q 40.234375 -1.421875 26.421875 -1.421875 
Q 22.703125 -1.421875 18.890625 -0.6875 
Q 15.09375 0.046875 10.984375 1.515625 
z
M 30.609375 32.421875 
Q 37.25 32.421875 41.125 36.953125 
Q 45.015625 41.5 45.015625 49.421875 
Q 45.015625 57.28125 41.125 61.84375 
Q 37.25 66.40625 30.609375 66.40625 
Q 23.96875 66.40625 20.09375 61.84375 
Q 16.21875 57.28125 16.21875 49.421875 
Q 16.21875 41.5 20.09375 36.953125 
Q 23.96875 32.421875 30.609375 32.421875 
z
" id="DejaVuSans-57"/>
      </defs>
      <g transform="translate(39.245 34.523892)scale(0.2 -0.2)">
       <use xlink:href="#DejaVuSans-57"/>
      </g>
     </g>
    </g>
    <g id="text_17">
     <!-- Averaged AHEU -->
     <defs>
      <path d="M 34.1875 63.1875 
L 20.796875 26.90625 
L 47.609375 26.90625 
z
M 28.609375 72.90625 
L 39.796875 72.90625 
L 67.578125 0 
L 57.328125 0 
L 50.6875 18.703125 
L 17.828125 18.703125 
L 11.1875 0 
L 0.78125 0 
z
" id="DejaVuSans-65"/>
      <path d="M 2.984375 54.6875 
L 12.5 54.6875 
L 29.59375 8.796875 
L 46.6875 54.6875 
L 56.203125 54.6875 
L 35.6875 0 
L 23.484375 0 
z
" id="DejaVuSans-118"/>
      <path d="M 41.109375 46.296875 
Q 39.59375 47.171875 37.8125 47.578125 
Q 36.03125 48 33.890625 48 
Q 26.265625 48 22.1875 43.046875 
Q 18.109375 38.09375 18.109375 28.8125 
L 18.109375 0 
L 9.078125 0 
L 9.078125 54.6875 
L 18.109375 54.6875 
L 18.109375 46.1875 
Q 20.953125 51.171875 25.484375 53.578125 
Q 30.03125 56 36.53125 56 
Q 37.453125 56 38.578125 55.875 
Q 39.703125 55.765625 41.0625 55.515625 
z
" id="DejaVuSans-114"/>
      <path d="M 45.40625 46.390625 
L 45.40625 75.984375 
L 54.390625 75.984375 
L 54.390625 0 
L 45.40625 0 
L 45.40625 8.203125 
Q 42.578125 3.328125 38.25 0.953125 
Q 33.9375 -1.421875 27.875 -1.421875 
Q 17.96875 -1.421875 11.734375 6.484375 
Q 5.515625 14.40625 5.515625 27.296875 
Q 5.515625 40.1875 11.734375 48.09375 
Q 17.96875 56 27.875 56 
Q 33.9375 56 38.25 53.625 
Q 42.578125 51.265625 45.40625 46.390625 
z
M 14.796875 27.296875 
Q 14.796875 17.390625 18.875 11.75 
Q 22.953125 6.109375 30.078125 6.109375 
Q 37.203125 6.109375 41.296875 11.75 
Q 45.40625 17.390625 45.40625 27.296875 
Q 45.40625 37.203125 41.296875 42.84375 
Q 37.203125 48.484375 30.078125 48.484375 
Q 22.953125 48.484375 18.875 42.84375 
Q 14.796875 37.203125 14.796875 27.296875 
z
" id="DejaVuSans-100"/>
      <path d="M 9.8125 72.90625 
L 19.671875 72.90625 
L 19.671875 43.015625 
L 55.515625 43.015625 
L 55.515625 72.90625 
L 65.375 72.90625 
L 65.375 0 
L 55.515625 0 
L 55.515625 34.71875 
L 19.671875 34.71875 
L 19.671875 0 
L 9.8125 0 
z
" id="DejaVuSans-72"/>
      <path d="M 9.8125 72.90625 
L 55.90625 72.90625 
L 55.90625 64.59375 
L 19.671875 64.59375 
L 19.671875 43.015625 
L 54.390625 43.015625 
L 54.390625 34.71875 
L 19.671875 34.71875 
L 19.671875 8.296875 
L 56.78125 8.296875 
L 56.78125 0 
L 9.8125 0 
z
" id="DejaVuSans-69"/>
      <path d="M 8.6875 72.90625 
L 18.609375 72.90625 
L 18.609375 28.609375 
Q 18.609375 16.890625 22.84375 11.734375 
Q 27.09375 6.59375 36.625 6.59375 
Q 46.09375 6.59375 50.34375 11.734375 
Q 54.59375 16.890625 54.59375 28.609375 
L 54.59375 72.90625 
L 64.5 72.90625 
L 64.5 27.390625 
Q 64.5 13.140625 57.4375 5.859375 
Q 50.390625 -1.421875 36.625 -1.421875 
Q 22.796875 -1.421875 15.734375 5.859375 
Q 8.6875 13.140625 8.6875 27.390625 
z
" id="DejaVuSans-85"/>
     </defs>
     <g transform="translate(30.045781 287.142891)rotate(-90)scale(0.25 -0.25)">
      <use xlink:href="#DejaVuSans-65"/>
      <use x="68.330078" xlink:href="#DejaVuSans-118"/>
      <use x="127.509766" xlink:href="#DejaVuSans-101"/>
      <use x="189.033203" xlink:href="#DejaVuSans-114"/>
      <use x="230.146484" xlink:href="#DejaVuSans-97"/>
      <use x="291.425781" xlink:href="#DejaVuSans-103"/>
      <use x="354.902344" xlink:href="#DejaVuSans-101"/>
      <use x="416.425781" xlink:href="#DejaVuSans-100"/>
      <use x="479.902344" xlink:href="#DejaVuSans-32"/>
      <use x="511.689453" xlink:href="#DejaVuSans-65"/>
      <use x="580.097656" xlink:href="#DejaVuSans-72"/>
      <use x="655.292969" xlink:href="#DejaVuSans-69"/>
      <use x="718.476562" xlink:href="#DejaVuSans-85"/>
     </g>
    </g>
   </g>
   <g id="line2d_16">
    <path clip-path="url(#peec1f7c6f7)" d="M 80.025899 304.283273 
L 80.885324 274.182424 
L 81.744748 254.831879 
L 82.604173 246.231636 
L 83.463597 218.280848 
L 84.323022 266.664553 
L 85.182446 213.441757 
L 86.041871 231.707812 
L 87.76072 202.392924 
L 88.620144 193.253191 
L 89.479569 210.621077 
L 90.338993 236.791791 
L 92.057842 161.250253 
L 93.776691 208.203924 
L 94.636115 198.425117 
L 95.49554 198.56882 
L 96.354964 200.327072 
L 97.214389 175.162951 
L 98.073813 176.913209 
L 98.933238 173.156835 
L 99.792662 201.10312 
L 100.652087 193.728275 
L 101.511511 201.858264 
L 103.23036 142.021553 
L 104.089784 173.482207 
L 104.949209 188.153044 
L 105.808633 180.450466 
L 106.668058 204.150532 
L 107.527482 163.332725 
L 108.386907 178.601479 
L 109.246331 165.839547 
L 110.105756 160.772167 
L 110.96518 173.340242 
L 111.824605 170.749267 
L 112.684029 165.610528 
L 113.543454 179.4345 
L 114.402878 178.499828 
L 115.262302 144.943715 
L 116.981151 186.434254 
L 117.840576 153.787028 
L 118.7 156.924201 
L 119.559425 149.804599 
L 120.418849 157.741871 
L 121.278274 151.364892 
L 122.137698 146.965925 
L 122.997123 144.390986 
L 123.856547 151.850032 
L 124.715972 144.211356 
L 125.575396 143.254474 
L 126.434821 146.886177 
L 127.294245 166.226184 
L 128.153669 178.35642 
L 129.013094 155.272276 
L 129.872518 158.616026 
L 130.731943 155.523743 
L 131.591367 161.315305 
L 132.450792 142.359501 
L 133.310216 132.479166 
L 134.169641 143.552128 
L 135.029065 139.744224 
L 135.88849 136.604544 
L 136.747914 139.562259 
L 137.607339 123.277614 
L 138.466763 146.413185 
L 139.326187 164.199367 
L 140.185612 131.547178 
L 141.045036 170.259452 
L 141.904461 171.696407 
L 142.763885 176.414679 
L 143.62331 184.929473 
L 144.482734 174.805024 
L 145.342159 172.031679 
L 146.201583 170.45986 
L 147.061008 183.942477 
L 147.920432 172.643972 
L 148.779857 154.622755 
L 149.639281 170.822734 
L 150.498706 178.242726 
L 151.35813 182.107899 
L 152.217554 167.306922 
L 153.076979 193.130242 
L 153.936403 173.915417 
L 154.795828 159.295241 
L 155.655252 153.469333 
L 156.514677 144.059539 
L 157.374101 163.284522 
L 158.233526 137.538735 
L 159.09295 156.788562 
L 159.952375 168.377576 
L 161.671224 161.021785 
L 162.530648 159.513146 
L 163.390072 169.959415 
L 164.249497 176.969046 
L 165.108921 139.776292 
L 165.968346 132.865697 
L 166.82777 156.605286 
L 167.687195 156.912488 
L 168.546619 168.264789 
L 169.406044 145.94895 
L 170.265468 154.395362 
L 171.984317 177.674927 
L 172.843742 169.569019 
L 173.703166 165.797517 
L 174.562591 174.787547 
L 175.422015 175.388328 
L 176.281439 164.793116 
L 177.140864 181.388958 
L 178.000288 160.730136 
L 178.859713 134.441495 
L 179.719137 161.213343 
L 180.578562 177.084538 
L 181.437986 181.017806 
L 182.297411 160.000045 
L 183.156835 147.915412 
L 184.01626 184.888323 
L 184.875684 184.151217 
L 185.735109 219.519752 
L 186.594533 176.500033 
L 187.453958 192.496506 
L 188.313382 173.338283 
L 189.172806 199.922975 
L 190.032231 153.88977 
L 190.891655 167.289176 
L 191.75108 183.519498 
L 192.610504 170.401565 
L 193.469929 143.595797 
L 194.329353 155.373814 
L 195.188778 143.694448 
L 196.907627 176.465185 
L 197.767051 172.025528 
L 198.626476 151.654576 
L 199.4859 171.517823 
L 200.345324 161.050666 
L 201.204749 158.614053 
L 202.064173 174.692063 
L 202.923598 172.525586 
L 203.783022 179.505994 
L 206.361296 114.195475 
L 207.22072 151.230051 
L 208.080145 151.488999 
L 208.939569 159.619751 
L 209.798994 153.827552 
L 210.658418 169.067991 
L 211.517843 163.179928 
L 212.377267 166.141898 
L 213.236691 169.968403 
L 214.096116 186.833831 
L 214.95554 189.014796 
L 215.814965 190.260077 
L 216.674389 163.804455 
L 217.533814 180.597272 
L 218.393238 175.847265 
L 219.252663 161.112466 
L 220.112087 165.731681 
L 220.971512 161.002923 
L 221.830936 167.233843 
L 222.690361 169.524523 
L 223.549785 163.937809 
L 224.40921 161.778068 
L 225.268634 167.667993 
L 226.128058 170.741317 
L 226.987483 165.284655 
L 227.846907 128.972348 
L 228.706332 127.661441 
L 229.565756 130.512902 
L 230.425181 155.919176 
L 231.284605 142.293583 
L 232.14403 155.982531 
L 233.003454 138.888154 
L 233.862879 136.07526 
L 234.722303 163.115182 
L 235.581728 162.297807 
L 236.441152 146.145682 
L 237.300576 161.347314 
L 238.160001 142.050767 
L 239.019425 157.66016 
L 239.87885 154.995366 
L 240.738274 138.8921 
L 241.597699 138.685997 
L 242.457123 152.234511 
L 244.175972 148.076453 
L 245.035397 138.524434 
L 245.894821 135.864951 
L 246.754246 150.917479 
L 247.61367 149.871952 
L 248.473095 146.240438 
L 249.332519 121.595777 
L 250.191943 155.732707 
L 251.051368 139.130126 
L 251.910792 137.335412 
L 252.770217 149.859342 
L 253.629641 141.595819 
L 254.489066 139.371978 
L 255.34849 128.243512 
L 256.207915 161.168391 
L 257.067339 119.569284 
L 257.926764 129.995978 
L 258.786188 104.574203 
L 259.645613 136.909424 
L 260.505037 131.543984 
L 261.364462 125.271843 
L 262.223886 150.237085 
L 263.08331 129.903629 
L 263.942735 123.323155 
L 265.661584 179.5125 
L 266.521008 142.342157 
L 267.380433 187.235658 
L 268.239857 183.017268 
L 269.099282 175.936181 
L 270.818131 129.085322 
L 271.677555 128.61433 
L 272.53698 155.656347 
L 273.396404 144.557296 
L 274.255828 160.922369 
L 275.115253 141.508899 
L 275.974677 146.626523 
L 276.834102 152.615643 
L 277.693526 170.067842 
L 278.552951 136.892476 
L 279.412375 167.691024 
L 280.2718 170.990307 
L 281.131224 169.495799 
L 281.990649 148.402904 
L 282.850073 165.06962 
L 283.709498 173.578503 
L 284.568922 163.739092 
L 285.428347 170.248302 
L 286.287771 148.667435 
L 287.147195 147.418066 
L 288.00662 148.036106 
L 288.866044 145.671268 
L 289.725469 158.688081 
L 290.584893 157.245086 
L 291.444318 173.712451 
L 292.303742 160.546559 
L 293.163167 150.427964 
L 294.022591 161.945832 
L 294.882016 145.010831 
L 295.74144 161.605048 
L 296.600865 143.323422 
L 297.460289 170.191597 
L 298.319714 172.202747 
L 299.179138 154.83277 
L 300.897987 140.607182 
L 302.616836 122.238453 
L 303.47626 136.071688 
L 304.335685 134.351902 
L 305.195109 155.597635 
L 306.054534 147.938261 
L 306.913958 164.465066 
L 307.773383 148.840252 
L 308.632807 155.868357 
L 309.492232 148.729048 
L 310.351656 156.240034 
L 311.21108 181.543337 
L 312.070505 107.782837 
L 312.929929 132.158162 
L 313.789354 159.96783 
L 314.648778 158.480148 
L 315.508203 149.52603 
L 316.367627 146.774534 
L 317.227052 130.15419 
L 318.086476 111.269932 
L 318.945901 102.873005 
L 319.805325 115.390251 
L 320.66475 155.246219 
L 321.524174 141.537657 
L 322.383599 157.183061 
L 323.243023 142.201906 
L 324.102447 180.358897 
L 324.961872 175.462992 
L 325.821296 177.693929 
L 326.680721 187.002238 
L 327.540145 169.734646 
L 328.39957 178.062421 
L 329.258994 174.709363 
L 330.118419 144.808883 
L 331.837268 168.256118 
L 332.696692 156.201927 
L 333.556117 180.972823 
L 334.415541 152.337419 
L 335.274966 167.686812 
L 336.13439 134.097728 
L 336.993814 160.423983 
L 337.853239 145.103458 
L 338.712663 113.931214 
L 339.572088 107.865805 
L 340.431512 132.288811 
L 341.290937 132.533843 
L 342.150361 145.837876 
L 343.009786 164.779443 
L 343.86921 167.736479 
L 344.728635 151.760522 
L 345.588059 117.68905 
L 346.447484 163.021505 
L 347.306908 155.526228 
L 348.166332 154.023789 
L 349.025757 174.767184 
L 349.885181 174.657286 
L 350.744606 122.426342 
L 351.60403 127.291289 
L 352.463455 151.786576 
L 353.322879 130.584611 
L 354.182304 143.985935 
L 355.041728 128.996953 
L 355.901153 104.694754 
L 356.760577 142.086424 
L 357.620002 113.83151 
L 358.479426 142.860782 
L 359.338851 146.91724 
L 360.198275 162.751268 
L 361.057699 140.496371 
L 362.776548 146.591041 
L 363.635973 103.891308 
L 364.495397 138.676702 
L 365.354822 152.319482 
L 366.214246 111.135835 
L 367.073671 128.616589 
L 367.933095 109.678623 
L 368.79252 101.457951 
L 369.651944 105.669573 
L 370.511369 104.483569 
L 371.370793 133.532093 
L 372.230217 118.393671 
L 373.089642 130.035284 
L 373.949066 78.356712 
L 374.808491 111.944887 
L 375.667915 94.924317 
L 376.52734 132.569738 
L 377.386764 127.850433 
L 378.246189 149.156024 
L 379.105613 175.648212 
L 379.965038 154.980797 
L 380.824462 127.481583 
L 382.543311 138.73212 
L 383.402736 144.905759 
L 384.26216 197.27079 
L 385.121584 176.016002 
L 385.981009 165.709794 
L 386.840433 173.674988 
L 387.699858 158.610654 
L 388.559282 145.698569 
L 389.418707 104.706245 
L 390.278131 142.174928 
L 391.137556 144.536261 
L 392.856405 178.387528 
L 393.715829 178.367532 
L 394.575254 183.084417 
L 395.434678 125.821722 
L 396.294103 134.267722 
L 397.153527 154.105847 
L 398.012951 90.821646 
L 398.872376 109.760374 
L 399.7318 103.923515 
L 400.591225 105.958095 
L 401.450649 114.595353 
L 402.310074 136.914604 
L 403.169498 129.09039 
L 404.028923 91.512018 
L 404.888347 127.092056 
L 405.747772 124.340259 
L 406.607196 130.069685 
L 407.466621 117.449941 
L 408.326045 101.309633 
L 409.185469 103.83819 
L 410.044894 87.654424 
L 410.904318 119.975899 
L 412.623167 145.980407 
L 414.342016 163.926182 
L 415.201441 155.836136 
L 416.060865 124.717871 
L 416.92029 157.162982 
L 417.779714 143.613593 
L 418.639139 119.733823 
L 419.498563 139.487351 
L 420.357988 147.134525 
L 421.217412 152.524455 
L 422.076836 130.100472 
L 422.936261 127.247352 
L 423.795685 151.659253 
L 424.65511 222.644479 
L 425.514534 149.507206 
L 426.373959 175.553837 
L 427.233383 173.408834 
L 428.092808 142.070132 
L 428.952232 145.769347 
L 429.811657 123.261934 
L 430.671081 137.802534 
L 431.530506 129.668951 
L 432.38993 51.230648 
L 433.249355 138.212343 
L 434.108779 115.690894 
L 434.968203 196.429229 
L 435.827628 209.795063 
L 436.687052 234.579161 
L 437.546477 182.129864 
L 438.405901 192.318175 
L 439.265326 252.634582 
L 440.984175 152.085329 
L 441.843599 145.283855 
L 442.703024 119.266082 
L 443.562448 199.776694 
L 444.421873 93.917908 
L 445.281297 121.201839 
L 446.140721 59.415571 
L 447.000146 94.194184 
L 447.85957 80.985783 
L 448.718995 174.897242 
L 449.578419 152.589425 
L 450.437844 201.823092 
L 451.297268 175.053014 
L 452.156693 121.252707 
L 453.016117 174.979779 
L 453.875542 174.882338 
L 454.734966 121.252707 
L 455.594391 121.130828 
L 456.453815 112.927879 
L 457.31324 167.974317 
L 458.172664 134.428485 
L 459.032088 188.017117 
L 459.891513 188.18 
L 460.750937 188.18 
L 461.610362 26.925455 
L 462.469786 80.67697 
L 463.329211 26.925455 
L 464.188635 107.589393 
L 465.04806 26.925455 
L 465.907484 123.560906 
L 466.766909 155.870453 
L 467.626333 123.678182 
L 468.485758 123.678182 
L 469.345182 26.925455 
L 470.204607 123.678182 
L 471.064031 123.580452 
L 471.923455 123.678182 
L 472.78288 123.560906 
L 473.642304 204.305455 
L 474.501729 26.925455 
L 475.361153 27.218113 
L 479.658276 27.218113 
L 480.5177 26.925455 
L 481.377125 27.145048 
L 482.236549 26.925455 
L 483.095973 26.925455 
L 483.955398 349.434545 
L 484.814822 26.925455 
L 497.706189 26.925455 
L 498.565614 27.802632 
L 501.143887 27.802632 
L 501.143887 27.802632 
" style="fill:none;stroke:#1f77b4;stroke-linecap:square;stroke-width:1.5;"/>
   </g>
   <g id="patch_3">
    <path d="M 58.97 365.56 
L 58.97 10.8 
" style="fill:none;stroke:#000000;stroke-linecap:square;stroke-linejoin:miter;stroke-width:0.8;"/>
   </g>
   <g id="patch_4">
    <path d="M 522.199787 365.56 
L 522.199787 10.8 
" style="fill:none;stroke:#000000;stroke-linecap:square;stroke-linejoin:miter;stroke-width:0.8;"/>
   </g>
   <g id="patch_5">
    <path d="M 58.97 365.56 
L 522.199787 365.56 
" style="fill:none;stroke:#000000;stroke-linecap:square;stroke-linejoin:miter;stroke-width:0.8;"/>
   </g>
   <g id="patch_6">
    <path d="M 58.97 10.8 
L 522.199787 10.8 
" style="fill:none;stroke:#000000;stroke-linecap:square;stroke-linejoin:miter;stroke-width:0.8;"/>
   </g>
  </g>
 </g>
 <defs>
  <clipPath id="peec1f7c6f7">
   <rect height="354.76" width="463.229787" x="58.97" y="10.8"/>
  </clipPath>
 </defs>
</svg>
