<?xml version="1.0" encoding="utf-8" standalone="no"?>
<!DOCTYPE svg PUBLIC "-//W3C//DTD SVG 1.1//EN"
  "http://www.w3.org/Graphics/SVG/1.1/DTD/svg11.dtd">
<!-- Created with matplotlib (https://matplotlib.org/) -->
<svg height="432pt" version="1.1" viewBox="0 0 540 432" width="540pt" xmlns="http://www.w3.org/2000/svg" xmlns:xlink="http://www.w3.org/1999/xlink">
 <defs>
  <style type="text/css">
*{stroke-linecap:butt;stroke-linejoin:round;}
  </style>
 </defs>
 <g id="figure_1">
  <g id="patch_1">
   <path d="M 0 432 
L 540 432 
L 540 0 
L 0 0 
z
" style="fill:#ffffff;"/>
  </g>
  <g id="axes_1">
   <g id="patch_2">
    <path d="M 63.74 365.56 
L 511.677267 365.56 
L 511.677267 66.6 
L 63.74 66.6 
z
" style="fill:#ffffff;"/>
   </g>
   <g id="matplotlib.axis_1">
    <g id="xtick_1">
     <g id="line2d_1">
      <defs>
       <path d="M 0 0 
L 0 3.5 
" id="m526b98fd1c" style="stroke:#000000;stroke-width:0.8;"/>
      </defs>
      <g>
       <use style="stroke:#000000;stroke-width:0.8;" x="84.100785" xlink:href="#m526b98fd1c" y="365.56"/>
      </g>
     </g>
     <g id="text_1">
      <!-- 0 -->
      <defs>
       <path d="M 31.78125 66.40625 
Q 24.171875 66.40625 20.328125 58.90625 
Q 16.5 51.421875 16.5 36.375 
Q 16.5 21.390625 20.328125 13.890625 
Q 24.171875 6.390625 31.78125 6.390625 
Q 39.453125 6.390625 43.28125 13.890625 
Q 47.125 21.390625 47.125 36.375 
Q 47.125 51.421875 43.28125 58.90625 
Q 39.453125 66.40625 31.78125 66.40625 
z
M 31.78125 74.21875 
Q 44.046875 74.21875 50.515625 64.515625 
Q 56.984375 54.828125 56.984375 36.375 
Q 56.984375 17.96875 50.515625 8.265625 
Q 44.046875 -1.421875 31.78125 -1.421875 
Q 19.53125 -1.421875 13.0625 8.265625 
Q 6.59375 17.96875 6.59375 36.375 
Q 6.59375 54.828125 13.0625 64.515625 
Q 19.53125 74.21875 31.78125 74.21875 
z
" id="DejaVuSans-48"/>
      </defs>
      <g transform="translate(77.738285 387.756875)scale(0.2 -0.2)">
       <use xlink:href="#DejaVuSans-48"/>
      </g>
     </g>
    </g>
    <g id="xtick_2">
     <g id="line2d_2">
      <g>
       <use style="stroke:#000000;stroke-width:0.8;" x="169.292353" xlink:href="#m526b98fd1c" y="365.56"/>
      </g>
     </g>
     <g id="text_2">
      <!-- 50 -->
      <defs>
       <path d="M 10.796875 72.90625 
L 49.515625 72.90625 
L 49.515625 64.59375 
L 19.828125 64.59375 
L 19.828125 46.734375 
Q 21.96875 47.46875 24.109375 47.828125 
Q 26.265625 48.1875 28.421875 48.1875 
Q 40.625 48.1875 47.75 41.5 
Q 54.890625 34.8125 54.890625 23.390625 
Q 54.890625 11.625 47.5625 5.09375 
Q 40.234375 -1.421875 26.90625 -1.421875 
Q 22.3125 -1.421875 17.546875 -0.640625 
Q 12.796875 0.140625 7.71875 1.703125 
L 7.71875 11.625 
Q 12.109375 9.234375 16.796875 8.0625 
Q 21.484375 6.890625 26.703125 6.890625 
Q 35.15625 6.890625 40.078125 11.328125 
Q 45.015625 15.765625 45.015625 23.390625 
Q 45.015625 31 40.078125 35.4375 
Q 35.15625 39.890625 26.703125 39.890625 
Q 22.75 39.890625 18.8125 39.015625 
Q 14.890625 38.140625 10.796875 36.28125 
z
" id="DejaVuSans-53"/>
      </defs>
      <g transform="translate(156.567353 387.756875)scale(0.2 -0.2)">
       <use xlink:href="#DejaVuSans-53"/>
       <use x="63.623047" xlink:href="#DejaVuSans-48"/>
      </g>
     </g>
    </g>
    <g id="xtick_3">
     <g id="line2d_3">
      <g>
       <use style="stroke:#000000;stroke-width:0.8;" x="254.483922" xlink:href="#m526b98fd1c" y="365.56"/>
      </g>
     </g>
     <g id="text_3">
      <!-- 100 -->
      <defs>
       <path d="M 12.40625 8.296875 
L 28.515625 8.296875 
L 28.515625 63.921875 
L 10.984375 60.40625 
L 10.984375 69.390625 
L 28.421875 72.90625 
L 38.28125 72.90625 
L 38.28125 8.296875 
L 54.390625 8.296875 
L 54.390625 0 
L 12.40625 0 
z
" id="DejaVuSans-49"/>
      </defs>
      <g transform="translate(235.396422 387.756875)scale(0.2 -0.2)">
       <use xlink:href="#DejaVuSans-49"/>
       <use x="63.623047" xlink:href="#DejaVuSans-48"/>
       <use x="127.246094" xlink:href="#DejaVuSans-48"/>
      </g>
     </g>
    </g>
    <g id="xtick_4">
     <g id="line2d_4">
      <g>
       <use style="stroke:#000000;stroke-width:0.8;" x="339.67549" xlink:href="#m526b98fd1c" y="365.56"/>
      </g>
     </g>
     <g id="text_4">
      <!-- 150 -->
      <g transform="translate(320.58799 387.756875)scale(0.2 -0.2)">
       <use xlink:href="#DejaVuSans-49"/>
       <use x="63.623047" xlink:href="#DejaVuSans-53"/>
       <use x="127.246094" xlink:href="#DejaVuSans-48"/>
      </g>
     </g>
    </g>
    <g id="xtick_5">
     <g id="line2d_5">
      <g>
       <use style="stroke:#000000;stroke-width:0.8;" x="424.867059" xlink:href="#m526b98fd1c" y="365.56"/>
      </g>
     </g>
     <g id="text_5">
      <!-- 200 -->
      <defs>
       <path d="M 19.1875 8.296875 
L 53.609375 8.296875 
L 53.609375 0 
L 7.328125 0 
L 7.328125 8.296875 
Q 12.9375 14.109375 22.625 23.890625 
Q 32.328125 33.6875 34.8125 36.53125 
Q 39.546875 41.84375 41.421875 45.53125 
Q 43.3125 49.21875 43.3125 52.78125 
Q 43.3125 58.59375 39.234375 62.25 
Q 35.15625 65.921875 28.609375 65.921875 
Q 23.96875 65.921875 18.8125 64.3125 
Q 13.671875 62.703125 7.8125 59.421875 
L 7.8125 69.390625 
Q 13.765625 71.78125 18.9375 73 
Q 24.125 74.21875 28.421875 74.21875 
Q 39.75 74.21875 46.484375 68.546875 
Q 53.21875 62.890625 53.21875 53.421875 
Q 53.21875 48.921875 51.53125 44.890625 
Q 49.859375 40.875 45.40625 35.40625 
Q 44.1875 33.984375 37.640625 27.21875 
Q 31.109375 20.453125 19.1875 8.296875 
z
" id="DejaVuSans-50"/>
      </defs>
      <g transform="translate(405.779559 387.756875)scale(0.2 -0.2)">
       <use xlink:href="#DejaVuSans-50"/>
       <use x="63.623047" xlink:href="#DejaVuSans-48"/>
       <use x="127.246094" xlink:href="#DejaVuSans-48"/>
      </g>
     </g>
    </g>
    <g id="xtick_6">
     <g id="line2d_6">
      <g>
       <use style="stroke:#000000;stroke-width:0.8;" x="510.058627" xlink:href="#m526b98fd1c" y="365.56"/>
      </g>
     </g>
     <g id="text_6">
      <!-- 250 -->
      <g transform="translate(490.971127 387.756875)scale(0.2 -0.2)">
       <use xlink:href="#DejaVuSans-50"/>
       <use x="63.623047" xlink:href="#DejaVuSans-53"/>
       <use x="127.246094" xlink:href="#DejaVuSans-48"/>
      </g>
     </g>
    </g>
    <g id="text_7">
     <!-- # of games -->
     <defs>
      <path d="M 51.125 44 
L 36.921875 44 
L 32.8125 27.6875 
L 47.125 27.6875 
z
M 43.796875 71.78125 
L 38.71875 51.515625 
L 52.984375 51.515625 
L 58.109375 71.78125 
L 65.921875 71.78125 
L 60.890625 51.515625 
L 76.125 51.515625 
L 76.125 44 
L 58.984375 44 
L 54.984375 27.6875 
L 70.515625 27.6875 
L 70.515625 20.21875 
L 53.078125 20.21875 
L 48 0 
L 40.1875 0 
L 45.21875 20.21875 
L 30.90625 20.21875 
L 25.875 0 
L 18.015625 0 
L 23.09375 20.21875 
L 7.71875 20.21875 
L 7.71875 27.6875 
L 24.90625 27.6875 
L 29 44 
L 13.28125 44 
L 13.28125 51.515625 
L 30.90625 51.515625 
L 35.890625 71.78125 
z
" id="DejaVuSans-35"/>
      <path id="DejaVuSans-32"/>
      <path d="M 30.609375 48.390625 
Q 23.390625 48.390625 19.1875 42.75 
Q 14.984375 37.109375 14.984375 27.296875 
Q 14.984375 17.484375 19.15625 11.84375 
Q 23.34375 6.203125 30.609375 6.203125 
Q 37.796875 6.203125 41.984375 11.859375 
Q 46.1875 17.53125 46.1875 27.296875 
Q 46.1875 37.015625 41.984375 42.703125 
Q 37.796875 48.390625 30.609375 48.390625 
z
M 30.609375 56 
Q 42.328125 56 49.015625 48.375 
Q 55.71875 40.765625 55.71875 27.296875 
Q 55.71875 13.875 49.015625 6.21875 
Q 42.328125 -1.421875 30.609375 -1.421875 
Q 18.84375 -1.421875 12.171875 6.21875 
Q 5.515625 13.875 5.515625 27.296875 
Q 5.515625 40.765625 12.171875 48.375 
Q 18.84375 56 30.609375 56 
z
" id="DejaVuSans-111"/>
      <path d="M 37.109375 75.984375 
L 37.109375 68.5 
L 28.515625 68.5 
Q 23.6875 68.5 21.796875 66.546875 
Q 19.921875 64.59375 19.921875 59.515625 
L 19.921875 54.6875 
L 34.71875 54.6875 
L 34.71875 47.703125 
L 19.921875 47.703125 
L 19.921875 0 
L 10.890625 0 
L 10.890625 47.703125 
L 2.296875 47.703125 
L 2.296875 54.6875 
L 10.890625 54.6875 
L 10.890625 58.5 
Q 10.890625 67.625 15.140625 71.796875 
Q 19.390625 75.984375 28.609375 75.984375 
z
" id="DejaVuSans-102"/>
      <path d="M 45.40625 27.984375 
Q 45.40625 37.75 41.375 43.109375 
Q 37.359375 48.484375 30.078125 48.484375 
Q 22.859375 48.484375 18.828125 43.109375 
Q 14.796875 37.75 14.796875 27.984375 
Q 14.796875 18.265625 18.828125 12.890625 
Q 22.859375 7.515625 30.078125 7.515625 
Q 37.359375 7.515625 41.375 12.890625 
Q 45.40625 18.265625 45.40625 27.984375 
z
M 54.390625 6.78125 
Q 54.390625 -7.171875 48.1875 -13.984375 
Q 42 -20.796875 29.203125 -20.796875 
Q 24.46875 -20.796875 20.265625 -20.09375 
Q 16.0625 -19.390625 12.109375 -17.921875 
L 12.109375 -9.1875 
Q 16.0625 -11.328125 19.921875 -12.34375 
Q 23.78125 -13.375 27.78125 -13.375 
Q 36.625 -13.375 41.015625 -8.765625 
Q 45.40625 -4.15625 45.40625 5.171875 
L 45.40625 9.625 
Q 42.625 4.78125 38.28125 2.390625 
Q 33.9375 0 27.875 0 
Q 17.828125 0 11.671875 7.65625 
Q 5.515625 15.328125 5.515625 27.984375 
Q 5.515625 40.671875 11.671875 48.328125 
Q 17.828125 56 27.875 56 
Q 33.9375 56 38.28125 53.609375 
Q 42.625 51.21875 45.40625 46.390625 
L 45.40625 54.6875 
L 54.390625 54.6875 
z
" id="DejaVuSans-103"/>
      <path d="M 34.28125 27.484375 
Q 23.390625 27.484375 19.1875 25 
Q 14.984375 22.515625 14.984375 16.5 
Q 14.984375 11.71875 18.140625 8.90625 
Q 21.296875 6.109375 26.703125 6.109375 
Q 34.1875 6.109375 38.703125 11.40625 
Q 43.21875 16.703125 43.21875 25.484375 
L 43.21875 27.484375 
z
M 52.203125 31.203125 
L 52.203125 0 
L 43.21875 0 
L 43.21875 8.296875 
Q 40.140625 3.328125 35.546875 0.953125 
Q 30.953125 -1.421875 24.3125 -1.421875 
Q 15.921875 -1.421875 10.953125 3.296875 
Q 6 8.015625 6 15.921875 
Q 6 25.140625 12.171875 29.828125 
Q 18.359375 34.515625 30.609375 34.515625 
L 43.21875 34.515625 
L 43.21875 35.40625 
Q 43.21875 41.609375 39.140625 45 
Q 35.0625 48.390625 27.6875 48.390625 
Q 23 48.390625 18.546875 47.265625 
Q 14.109375 46.140625 10.015625 43.890625 
L 10.015625 52.203125 
Q 14.9375 54.109375 19.578125 55.046875 
Q 24.21875 56 28.609375 56 
Q 40.484375 56 46.34375 49.84375 
Q 52.203125 43.703125 52.203125 31.203125 
z
" id="DejaVuSans-97"/>
      <path d="M 52 44.1875 
Q 55.375 50.25 60.0625 53.125 
Q 64.75 56 71.09375 56 
Q 79.640625 56 84.28125 50.015625 
Q 88.921875 44.046875 88.921875 33.015625 
L 88.921875 0 
L 79.890625 0 
L 79.890625 32.71875 
Q 79.890625 40.578125 77.09375 44.375 
Q 74.3125 48.1875 68.609375 48.1875 
Q 61.625 48.1875 57.5625 43.546875 
Q 53.515625 38.921875 53.515625 30.90625 
L 53.515625 0 
L 44.484375 0 
L 44.484375 32.71875 
Q 44.484375 40.625 41.703125 44.40625 
Q 38.921875 48.1875 33.109375 48.1875 
Q 26.21875 48.1875 22.15625 43.53125 
Q 18.109375 38.875 18.109375 30.90625 
L 18.109375 0 
L 9.078125 0 
L 9.078125 54.6875 
L 18.109375 54.6875 
L 18.109375 46.1875 
Q 21.1875 51.21875 25.484375 53.609375 
Q 29.78125 56 35.6875 56 
Q 41.65625 56 45.828125 52.96875 
Q 50 49.953125 52 44.1875 
z
" id="DejaVuSans-109"/>
      <path d="M 56.203125 29.59375 
L 56.203125 25.203125 
L 14.890625 25.203125 
Q 15.484375 15.921875 20.484375 11.0625 
Q 25.484375 6.203125 34.421875 6.203125 
Q 39.59375 6.203125 44.453125 7.46875 
Q 49.3125 8.734375 54.109375 11.28125 
L 54.109375 2.78125 
Q 49.265625 0.734375 44.1875 -0.34375 
Q 39.109375 -1.421875 33.890625 -1.421875 
Q 20.796875 -1.421875 13.15625 6.1875 
Q 5.515625 13.8125 5.515625 26.8125 
Q 5.515625 40.234375 12.765625 48.109375 
Q 20.015625 56 32.328125 56 
Q 43.359375 56 49.78125 48.890625 
Q 56.203125 41.796875 56.203125 29.59375 
z
M 47.21875 32.234375 
Q 47.125 39.59375 43.09375 43.984375 
Q 39.0625 48.390625 32.421875 48.390625 
Q 24.90625 48.390625 20.390625 44.140625 
Q 15.875 39.890625 15.1875 32.171875 
z
" id="DejaVuSans-101"/>
      <path d="M 44.28125 53.078125 
L 44.28125 44.578125 
Q 40.484375 46.53125 36.375 47.5 
Q 32.28125 48.484375 27.875 48.484375 
Q 21.1875 48.484375 17.84375 46.4375 
Q 14.5 44.390625 14.5 40.28125 
Q 14.5 37.15625 16.890625 35.375 
Q 19.28125 33.59375 26.515625 31.984375 
L 29.59375 31.296875 
Q 39.15625 29.25 43.1875 25.515625 
Q 47.21875 21.78125 47.21875 15.09375 
Q 47.21875 7.46875 41.1875 3.015625 
Q 35.15625 -1.421875 24.609375 -1.421875 
Q 20.21875 -1.421875 15.453125 -0.5625 
Q 10.6875 0.296875 5.421875 2 
L 5.421875 11.28125 
Q 10.40625 8.6875 15.234375 7.390625 
Q 20.0625 6.109375 24.8125 6.109375 
Q 31.15625 6.109375 34.5625 8.28125 
Q 37.984375 10.453125 37.984375 14.40625 
Q 37.984375 18.0625 35.515625 20.015625 
Q 33.0625 21.96875 24.703125 23.78125 
L 21.578125 24.515625 
Q 13.234375 26.265625 9.515625 29.90625 
Q 5.8125 33.546875 5.8125 39.890625 
Q 5.8125 47.609375 11.28125 51.796875 
Q 16.75 56 26.8125 56 
Q 31.78125 56 36.171875 55.265625 
Q 40.578125 54.546875 44.28125 53.078125 
z
" id="DejaVuSans-115"/>
     </defs>
     <g transform="translate(215.265274 414.912344)scale(0.25 -0.25)">
      <use xlink:href="#DejaVuSans-35"/>
      <use x="83.789062" xlink:href="#DejaVuSans-32"/>
      <use x="115.576172" xlink:href="#DejaVuSans-111"/>
      <use x="176.757812" xlink:href="#DejaVuSans-102"/>
      <use x="211.962891" xlink:href="#DejaVuSans-32"/>
      <use x="243.75" xlink:href="#DejaVuSans-103"/>
      <use x="307.226562" xlink:href="#DejaVuSans-97"/>
      <use x="368.505859" xlink:href="#DejaVuSans-109"/>
      <use x="465.917969" xlink:href="#DejaVuSans-101"/>
      <use x="527.441406" xlink:href="#DejaVuSans-115"/>
     </g>
    </g>
   </g>
   <g id="matplotlib.axis_2">
    <g id="ytick_1">
     <g id="line2d_7">
      <defs>
       <path d="M 0 0 
L -3.5 0 
" id="m97df457e21" style="stroke:#000000;stroke-width:0.8;"/>
      </defs>
      <g>
       <use style="stroke:#000000;stroke-width:0.8;" x="63.74" xlink:href="#m97df457e21" y="351.970909"/>
      </g>
     </g>
     <g id="text_8">
      <!-- 0 -->
      <g transform="translate(44.015 359.569347)scale(0.2 -0.2)">
       <use xlink:href="#DejaVuSans-48"/>
      </g>
     </g>
    </g>
    <g id="ytick_2">
     <g id="line2d_8">
      <g>
       <use style="stroke:#000000;stroke-width:0.8;" x="63.74" xlink:href="#m97df457e21" y="297.614545"/>
      </g>
     </g>
     <g id="text_9">
      <!-- 10 -->
      <g transform="translate(31.29 305.212983)scale(0.2 -0.2)">
       <use xlink:href="#DejaVuSans-49"/>
       <use x="63.623047" xlink:href="#DejaVuSans-48"/>
      </g>
     </g>
    </g>
    <g id="ytick_3">
     <g id="line2d_9">
      <g>
       <use style="stroke:#000000;stroke-width:0.8;" x="63.74" xlink:href="#m97df457e21" y="243.258182"/>
      </g>
     </g>
     <g id="text_10">
      <!-- 20 -->
      <g transform="translate(31.29 250.856619)scale(0.2 -0.2)">
       <use xlink:href="#DejaVuSans-50"/>
       <use x="63.623047" xlink:href="#DejaVuSans-48"/>
      </g>
     </g>
    </g>
    <g id="ytick_4">
     <g id="line2d_10">
      <g>
       <use style="stroke:#000000;stroke-width:0.8;" x="63.74" xlink:href="#m97df457e21" y="188.901818"/>
      </g>
     </g>
     <g id="text_11">
      <!-- 30 -->
      <defs>
       <path d="M 40.578125 39.3125 
Q 47.65625 37.796875 51.625 33 
Q 55.609375 28.21875 55.609375 21.1875 
Q 55.609375 10.40625 48.1875 4.484375 
Q 40.765625 -1.421875 27.09375 -1.421875 
Q 22.515625 -1.421875 17.65625 -0.515625 
Q 12.796875 0.390625 7.625 2.203125 
L 7.625 11.71875 
Q 11.71875 9.328125 16.59375 8.109375 
Q 21.484375 6.890625 26.8125 6.890625 
Q 36.078125 6.890625 40.9375 10.546875 
Q 45.796875 14.203125 45.796875 21.1875 
Q 45.796875 27.640625 41.28125 31.265625 
Q 36.765625 34.90625 28.71875 34.90625 
L 20.21875 34.90625 
L 20.21875 43.015625 
L 29.109375 43.015625 
Q 36.375 43.015625 40.234375 45.921875 
Q 44.09375 48.828125 44.09375 54.296875 
Q 44.09375 59.90625 40.109375 62.90625 
Q 36.140625 65.921875 28.71875 65.921875 
Q 24.65625 65.921875 20.015625 65.03125 
Q 15.375 64.15625 9.8125 62.3125 
L 9.8125 71.09375 
Q 15.4375 72.65625 20.34375 73.4375 
Q 25.25 74.21875 29.59375 74.21875 
Q 40.828125 74.21875 47.359375 69.109375 
Q 53.90625 64.015625 53.90625 55.328125 
Q 53.90625 49.265625 50.4375 45.09375 
Q 46.96875 40.921875 40.578125 39.3125 
z
" id="DejaVuSans-51"/>
      </defs>
      <g transform="translate(31.29 196.500256)scale(0.2 -0.2)">
       <use xlink:href="#DejaVuSans-51"/>
       <use x="63.623047" xlink:href="#DejaVuSans-48"/>
      </g>
     </g>
    </g>
    <g id="ytick_5">
     <g id="line2d_11">
      <g>
       <use style="stroke:#000000;stroke-width:0.8;" x="63.74" xlink:href="#m97df457e21" y="134.545455"/>
      </g>
     </g>
     <g id="text_12">
      <!-- 40 -->
      <defs>
       <path d="M 37.796875 64.3125 
L 12.890625 25.390625 
L 37.796875 25.390625 
z
M 35.203125 72.90625 
L 47.609375 72.90625 
L 47.609375 25.390625 
L 58.015625 25.390625 
L 58.015625 17.1875 
L 47.609375 17.1875 
L 47.609375 0 
L 37.796875 0 
L 37.796875 17.1875 
L 4.890625 17.1875 
L 4.890625 26.703125 
z
" id="DejaVuSans-52"/>
      </defs>
      <g transform="translate(31.29 142.143892)scale(0.2 -0.2)">
       <use xlink:href="#DejaVuSans-52"/>
       <use x="63.623047" xlink:href="#DejaVuSans-48"/>
      </g>
     </g>
    </g>
    <g id="ytick_6">
     <g id="line2d_12">
      <g>
       <use style="stroke:#000000;stroke-width:0.8;" x="63.74" xlink:href="#m97df457e21" y="80.189091"/>
      </g>
     </g>
     <g id="text_13">
      <!-- 50 -->
      <g transform="translate(31.29 87.787528)scale(0.2 -0.2)">
       <use xlink:href="#DejaVuSans-53"/>
       <use x="63.623047" xlink:href="#DejaVuSans-48"/>
      </g>
     </g>
    </g>
    <g id="text_14">
     <!-- Number of Att strategy used -->
     <defs>
      <path d="M 9.8125 72.90625 
L 23.09375 72.90625 
L 55.421875 11.921875 
L 55.421875 72.90625 
L 64.984375 72.90625 
L 64.984375 0 
L 51.703125 0 
L 19.390625 60.984375 
L 19.390625 0 
L 9.8125 0 
z
" id="DejaVuSans-78"/>
      <path d="M 8.5 21.578125 
L 8.5 54.6875 
L 17.484375 54.6875 
L 17.484375 21.921875 
Q 17.484375 14.15625 20.5 10.265625 
Q 23.53125 6.390625 29.59375 6.390625 
Q 36.859375 6.390625 41.078125 11.03125 
Q 45.3125 15.671875 45.3125 23.6875 
L 45.3125 54.6875 
L 54.296875 54.6875 
L 54.296875 0 
L 45.3125 0 
L 45.3125 8.40625 
Q 42.046875 3.421875 37.71875 1 
Q 33.40625 -1.421875 27.6875 -1.421875 
Q 18.265625 -1.421875 13.375 4.4375 
Q 8.5 10.296875 8.5 21.578125 
z
M 31.109375 56 
z
" id="DejaVuSans-117"/>
      <path d="M 48.6875 27.296875 
Q 48.6875 37.203125 44.609375 42.84375 
Q 40.53125 48.484375 33.40625 48.484375 
Q 26.265625 48.484375 22.1875 42.84375 
Q 18.109375 37.203125 18.109375 27.296875 
Q 18.109375 17.390625 22.1875 11.75 
Q 26.265625 6.109375 33.40625 6.109375 
Q 40.53125 6.109375 44.609375 11.75 
Q 48.6875 17.390625 48.6875 27.296875 
z
M 18.109375 46.390625 
Q 20.953125 51.265625 25.265625 53.625 
Q 29.59375 56 35.59375 56 
Q 45.5625 56 51.78125 48.09375 
Q 58.015625 40.1875 58.015625 27.296875 
Q 58.015625 14.40625 51.78125 6.484375 
Q 45.5625 -1.421875 35.59375 -1.421875 
Q 29.59375 -1.421875 25.265625 0.953125 
Q 20.953125 3.328125 18.109375 8.203125 
L 18.109375 0 
L 9.078125 0 
L 9.078125 75.984375 
L 18.109375 75.984375 
z
" id="DejaVuSans-98"/>
      <path d="M 41.109375 46.296875 
Q 39.59375 47.171875 37.8125 47.578125 
Q 36.03125 48 33.890625 48 
Q 26.265625 48 22.1875 43.046875 
Q 18.109375 38.09375 18.109375 28.8125 
L 18.109375 0 
L 9.078125 0 
L 9.078125 54.6875 
L 18.109375 54.6875 
L 18.109375 46.1875 
Q 20.953125 51.171875 25.484375 53.578125 
Q 30.03125 56 36.53125 56 
Q 37.453125 56 38.578125 55.875 
Q 39.703125 55.765625 41.0625 55.515625 
z
" id="DejaVuSans-114"/>
      <path d="M 34.1875 63.1875 
L 20.796875 26.90625 
L 47.609375 26.90625 
z
M 28.609375 72.90625 
L 39.796875 72.90625 
L 67.578125 0 
L 57.328125 0 
L 50.6875 18.703125 
L 17.828125 18.703125 
L 11.1875 0 
L 0.78125 0 
z
" id="DejaVuSans-65"/>
      <path d="M 18.3125 70.21875 
L 18.3125 54.6875 
L 36.8125 54.6875 
L 36.8125 47.703125 
L 18.3125 47.703125 
L 18.3125 18.015625 
Q 18.3125 11.328125 20.140625 9.421875 
Q 21.96875 7.515625 27.59375 7.515625 
L 36.8125 7.515625 
L 36.8125 0 
L 27.59375 0 
Q 17.1875 0 13.234375 3.875 
Q 9.28125 7.765625 9.28125 18.015625 
L 9.28125 47.703125 
L 2.6875 47.703125 
L 2.6875 54.6875 
L 9.28125 54.6875 
L 9.28125 70.21875 
z
" id="DejaVuSans-116"/>
      <path d="M 32.171875 -5.078125 
Q 28.375 -14.84375 24.75 -17.8125 
Q 21.140625 -20.796875 15.09375 -20.796875 
L 7.90625 -20.796875 
L 7.90625 -13.28125 
L 13.1875 -13.28125 
Q 16.890625 -13.28125 18.9375 -11.515625 
Q 21 -9.765625 23.484375 -3.21875 
L 25.09375 0.875 
L 2.984375 54.6875 
L 12.5 54.6875 
L 29.59375 11.921875 
L 46.6875 54.6875 
L 56.203125 54.6875 
z
" id="DejaVuSans-121"/>
      <path d="M 45.40625 46.390625 
L 45.40625 75.984375 
L 54.390625 75.984375 
L 54.390625 0 
L 45.40625 0 
L 45.40625 8.203125 
Q 42.578125 3.328125 38.25 0.953125 
Q 33.9375 -1.421875 27.875 -1.421875 
Q 17.96875 -1.421875 11.734375 6.484375 
Q 5.515625 14.40625 5.515625 27.296875 
Q 5.515625 40.1875 11.734375 48.09375 
Q 17.96875 56 27.875 56 
Q 33.9375 56 38.25 53.625 
Q 42.578125 51.265625 45.40625 46.390625 
z
M 14.796875 27.296875 
Q 14.796875 17.390625 18.875 11.75 
Q 22.953125 6.109375 30.078125 6.109375 
Q 37.203125 6.109375 41.296875 11.75 
Q 45.40625 17.390625 45.40625 27.296875 
Q 45.40625 37.203125 41.296875 42.84375 
Q 37.203125 48.484375 30.078125 48.484375 
Q 22.953125 48.484375 18.875 42.84375 
Q 14.796875 37.203125 14.796875 27.296875 
z
" id="DejaVuSans-100"/>
     </defs>
     <g transform="translate(23.823854 335.214115)rotate(-90)scale(0.166667 -0.166667)">
      <use xlink:href="#DejaVuSans-78"/>
      <use x="74.804688" xlink:href="#DejaVuSans-117"/>
      <use x="138.183594" xlink:href="#DejaVuSans-109"/>
      <use x="235.595703" xlink:href="#DejaVuSans-98"/>
      <use x="299.072266" xlink:href="#DejaVuSans-101"/>
      <use x="360.595703" xlink:href="#DejaVuSans-114"/>
      <use x="401.708984" xlink:href="#DejaVuSans-32"/>
      <use x="433.496094" xlink:href="#DejaVuSans-111"/>
      <use x="494.677734" xlink:href="#DejaVuSans-102"/>
      <use x="529.882812" xlink:href="#DejaVuSans-32"/>
      <use x="561.669922" xlink:href="#DejaVuSans-65"/>
      <use x="630.0625" xlink:href="#DejaVuSans-116"/>
      <use x="669.271484" xlink:href="#DejaVuSans-116"/>
      <use x="708.480469" xlink:href="#DejaVuSans-32"/>
      <use x="740.267578" xlink:href="#DejaVuSans-115"/>
      <use x="792.367188" xlink:href="#DejaVuSans-116"/>
      <use x="831.576172" xlink:href="#DejaVuSans-114"/>
      <use x="872.689453" xlink:href="#DejaVuSans-97"/>
      <use x="933.96875" xlink:href="#DejaVuSans-116"/>
      <use x="973.177734" xlink:href="#DejaVuSans-101"/>
      <use x="1034.701172" xlink:href="#DejaVuSans-103"/>
      <use x="1098.177734" xlink:href="#DejaVuSans-121"/>
      <use x="1157.357422" xlink:href="#DejaVuSans-32"/>
      <use x="1189.144531" xlink:href="#DejaVuSans-117"/>
      <use x="1252.523438" xlink:href="#DejaVuSans-115"/>
      <use x="1304.623047" xlink:href="#DejaVuSans-101"/>
      <use x="1366.146484" xlink:href="#DejaVuSans-100"/>
     </g>
    </g>
   </g>
   <g id="line2d_13">
    <path clip-path="url(#p6e33cf3179)" d="M 84.100785 80.189091 
L 85.804616 123.674182 
L 87.508448 134.545455 
L 89.212279 188.901818 
L 90.91611 199.773091 
L 92.619942 178.030545 
L 94.323773 167.159273 
L 96.027604 210.644364 
L 97.731436 226.951273 
L 99.435267 199.773091 
L 101.139099 226.951273 
L 102.84293 226.951273 
L 104.546761 254.129455 
L 106.250593 243.258182 
L 107.954424 254.129455 
L 109.658255 243.258182 
L 111.362087 248.693818 
L 113.065918 237.822545 
L 114.76975 254.129455 
L 116.473581 286.743273 
L 118.177412 275.872 
L 119.881244 275.872 
L 121.585075 254.129455 
L 123.288906 248.693818 
L 124.992738 281.307636 
L 128.4004 237.822545 
L 130.104232 270.436364 
L 131.808063 281.307636 
L 133.511895 248.693818 
L 135.215726 265.000727 
L 138.623389 254.129455 
L 140.32722 265.000727 
L 142.031051 254.129455 
L 143.734883 254.129455 
L 145.438714 259.565091 
L 147.142546 254.129455 
L 148.846377 232.386909 
L 150.550208 275.872 
L 152.25404 226.951273 
L 153.957871 259.565091 
L 155.661702 259.565091 
L 157.365534 248.693818 
L 159.069365 292.178909 
L 160.773196 248.693818 
L 164.180859 281.307636 
L 165.884691 275.872 
L 167.588522 286.743273 
L 169.292353 265.000727 
L 170.996185 292.178909 
L 172.700016 248.693818 
L 174.403847 265.000727 
L 176.107679 303.050182 
L 177.81151 308.485818 
L 181.219173 286.743273 
L 182.923004 292.178909 
L 184.626836 319.357091 
L 186.330667 270.436364 
L 188.034498 292.178909 
L 189.73833 297.614545 
L 193.145993 297.614545 
L 194.849824 303.050182 
L 196.553655 319.357091 
L 198.257487 303.050182 
L 199.961318 265.000727 
L 201.665149 313.921455 
L 203.368981 286.743273 
L 205.072812 292.178909 
L 206.776643 324.792727 
L 210.184306 313.921455 
L 211.888138 303.050182 
L 213.591969 297.614545 
L 215.2958 319.357091 
L 216.999632 286.743273 
L 218.703463 313.921455 
L 220.407294 319.357091 
L 222.111126 330.228364 
L 223.814957 313.921455 
L 225.518789 324.792727 
L 227.22262 313.921455 
L 228.926451 319.357091 
L 230.630283 313.921455 
L 232.334114 324.792727 
L 234.037945 313.921455 
L 235.741777 319.357091 
L 237.445608 319.357091 
L 239.149439 335.664 
L 240.853271 341.099636 
L 242.557102 330.228364 
L 244.260934 335.664 
L 245.964765 319.357091 
L 247.668596 330.228364 
L 249.372428 351.970909 
L 251.076259 330.228364 
L 252.78009 341.099636 
L 254.483922 330.228364 
L 256.187753 341.099636 
L 257.891585 330.228364 
L 259.595416 330.228364 
L 261.299247 335.664 
L 263.003079 335.664 
L 264.70691 330.228364 
L 266.410741 335.664 
L 268.114573 324.792727 
L 269.818404 319.357091 
L 271.522236 330.228364 
L 273.226067 335.664 
L 274.929898 335.664 
L 276.63373 324.792727 
L 278.337561 335.664 
L 280.041392 330.228364 
L 281.745224 346.535273 
L 285.152886 346.535273 
L 288.560549 335.664 
L 290.264381 341.099636 
L 291.968212 341.099636 
L 293.672043 335.664 
L 297.079706 346.535273 
L 298.783537 341.099636 
L 300.487369 351.970909 
L 302.1912 346.535273 
L 303.895032 335.664 
L 307.302694 346.535273 
L 309.006526 341.099636 
L 315.821851 341.099636 
L 319.229514 330.228364 
L 320.933345 346.535273 
L 322.637177 335.664 
L 324.341008 346.535273 
L 326.044839 341.099636 
L 327.748671 351.970909 
L 329.452502 341.099636 
L 331.156333 351.970909 
L 332.860165 346.535273 
L 334.563996 346.535273 
L 336.267828 341.099636 
L 337.971659 351.970909 
L 339.67549 351.970909 
L 341.379322 341.099636 
L 343.083153 351.970909 
L 346.490816 341.099636 
L 348.194647 346.535273 
L 349.898478 346.535273 
L 351.60231 351.970909 
L 353.306141 335.664 
L 355.009973 346.535273 
L 356.713804 341.099636 
L 358.417635 351.970909 
L 360.121467 341.099636 
L 363.529129 351.970909 
L 365.232961 351.970909 
L 366.936792 346.535273 
L 368.640624 351.970909 
L 370.344455 351.970909 
L 372.048286 341.099636 
L 373.752118 351.970909 
L 377.15978 351.970909 
L 378.863612 346.535273 
L 380.567443 351.970909 
L 383.975106 351.970909 
L 385.678937 346.535273 
L 387.382769 351.970909 
L 392.494263 351.970909 
L 394.198094 346.535273 
L 395.901925 351.970909 
L 399.309588 351.970909 
L 401.01342 346.535273 
L 402.717251 346.535273 
L 404.421082 351.970909 
L 407.828745 351.970909 
L 409.532576 346.535273 
L 411.236408 346.535273 
L 412.940239 351.970909 
L 419.755565 351.970909 
L 421.459396 346.535273 
L 423.163227 351.970909 
L 426.57089 351.970909 
L 428.274721 346.535273 
L 429.978553 351.970909 
L 433.386216 351.970909 
L 435.090047 346.535273 
L 462.351349 346.535273 
L 464.05518 351.970909 
L 472.574337 351.970909 
L 474.278168 346.535273 
L 475.982 351.970909 
L 482.797325 351.970909 
L 484.501157 346.535273 
L 486.204988 346.535273 
L 487.908819 351.970909 
L 491.316482 351.970909 
L 491.316482 351.970909 
" style="fill:none;stroke:#1f77b4;stroke-linecap:square;stroke-width:1.5;"/>
   </g>
   <g id="line2d_14">
    <path clip-path="url(#p6e33cf3179)" d="M 84.100785 351.970909 
L 85.804616 308.485818 
L 87.508448 308.485818 
L 89.212279 281.307636 
L 90.91611 286.743273 
L 92.619942 319.357091 
L 94.323773 319.357091 
L 96.027604 297.614545 
L 97.731436 281.307636 
L 99.435267 351.970909 
L 101.139099 313.921455 
L 102.84293 313.921455 
L 104.546761 319.357091 
L 106.250593 319.357091 
L 107.954424 330.228364 
L 109.658255 335.664 
L 111.362087 335.664 
L 113.065918 346.535273 
L 114.76975 341.099636 
L 116.473581 319.357091 
L 118.177412 324.792727 
L 119.881244 324.792727 
L 123.288906 346.535273 
L 124.992738 335.664 
L 126.696569 330.228364 
L 128.4004 335.664 
L 130.104232 330.228364 
L 131.808063 330.228364 
L 133.511895 351.970909 
L 135.215726 335.664 
L 136.919557 341.099636 
L 138.623389 341.099636 
L 140.32722 351.970909 
L 142.031051 341.099636 
L 143.734883 324.792727 
L 145.438714 341.099636 
L 147.142546 351.970909 
L 148.846377 346.535273 
L 150.550208 335.664 
L 152.25404 341.099636 
L 153.957871 330.228364 
L 155.661702 330.228364 
L 157.365534 335.664 
L 159.069365 324.792727 
L 160.773196 341.099636 
L 162.477028 324.792727 
L 165.884691 335.664 
L 167.588522 335.664 
L 169.292353 330.228364 
L 170.996185 330.228364 
L 172.700016 351.970909 
L 176.107679 330.228364 
L 177.81151 330.228364 
L 179.515342 346.535273 
L 181.219173 351.970909 
L 182.923004 341.099636 
L 184.626836 351.970909 
L 186.330667 351.970909 
L 188.034498 341.099636 
L 189.73833 351.970909 
L 191.442161 346.535273 
L 196.553655 346.535273 
L 198.257487 351.970909 
L 199.961318 351.970909 
L 201.665149 341.099636 
L 203.368981 351.970909 
L 205.072812 346.535273 
L 206.776643 351.970909 
L 208.480475 341.099636 
L 210.184306 341.099636 
L 211.888138 351.970909 
L 215.2958 341.099636 
L 216.999632 346.535273 
L 218.703463 346.535273 
L 220.407294 351.970909 
L 222.111126 341.099636 
L 223.814957 351.970909 
L 227.22262 351.970909 
L 228.926451 346.535273 
L 230.630283 346.535273 
L 232.334114 341.099636 
L 234.037945 351.970909 
L 235.741777 346.535273 
L 237.445608 346.535273 
L 239.149439 341.099636 
L 240.853271 341.099636 
L 244.260934 351.970909 
L 247.668596 351.970909 
L 249.372428 341.099636 
L 251.076259 351.970909 
L 252.78009 346.535273 
L 254.483922 351.970909 
L 256.187753 346.535273 
L 257.891585 351.970909 
L 259.595416 351.970909 
L 263.003079 341.099636 
L 264.70691 351.970909 
L 266.410741 346.535273 
L 268.114573 346.535273 
L 269.818404 341.099636 
L 271.522236 346.535273 
L 273.226067 346.535273 
L 274.929898 351.970909 
L 276.63373 351.970909 
L 278.337561 346.535273 
L 280.041392 346.535273 
L 281.745224 351.970909 
L 293.672043 351.970909 
L 295.375875 346.535273 
L 297.079706 351.970909 
L 298.783537 346.535273 
L 300.487369 351.970909 
L 309.006526 351.970909 
L 310.710357 346.535273 
L 312.414188 351.970909 
L 314.11802 346.535273 
L 315.821851 351.970909 
L 319.229514 351.970909 
L 320.933345 346.535273 
L 322.637177 351.970909 
L 324.341008 346.535273 
L 326.044839 346.535273 
L 327.748671 351.970909 
L 339.67549 351.970909 
L 341.379322 346.535273 
L 343.083153 351.970909 
L 346.490816 351.970909 
L 348.194647 346.535273 
L 349.898478 351.970909 
L 394.198094 351.970909 
L 395.901925 346.535273 
L 397.605757 351.970909 
L 462.351349 351.970909 
L 464.05518 346.535273 
L 465.759012 351.970909 
L 491.316482 351.970909 
L 491.316482 351.970909 
" style="fill:none;stroke:#ff7f0e;stroke-linecap:square;stroke-width:1.5;"/>
   </g>
   <g id="line2d_15">
    <path clip-path="url(#p6e33cf3179)" d="M 84.100785 351.970909 
L 89.212279 351.970909 
L 90.91611 335.664 
L 92.619942 346.535273 
L 94.323773 346.535273 
L 97.731436 335.664 
L 101.139099 335.664 
L 102.84293 330.228364 
L 104.546761 330.228364 
L 107.954424 351.970909 
L 109.658255 324.792727 
L 116.473581 346.535273 
L 119.881244 324.792727 
L 121.585075 335.664 
L 123.288906 324.792727 
L 124.992738 346.535273 
L 126.696569 335.664 
L 128.4004 346.535273 
L 131.808063 335.664 
L 133.511895 335.664 
L 135.215726 346.535273 
L 136.919557 341.099636 
L 138.623389 330.228364 
L 140.32722 335.664 
L 142.031051 335.664 
L 143.734883 351.970909 
L 145.438714 341.099636 
L 147.142546 341.099636 
L 148.846377 335.664 
L 150.550208 346.535273 
L 152.25404 346.535273 
L 153.957871 330.228364 
L 155.661702 346.535273 
L 157.365534 346.535273 
L 159.069365 341.099636 
L 160.773196 330.228364 
L 162.477028 341.099636 
L 164.180859 330.228364 
L 165.884691 346.535273 
L 167.588522 335.664 
L 169.292353 335.664 
L 170.996185 330.228364 
L 174.403847 351.970909 
L 176.107679 335.664 
L 177.81151 341.099636 
L 179.515342 341.099636 
L 181.219173 351.970909 
L 182.923004 335.664 
L 184.626836 341.099636 
L 186.330667 330.228364 
L 188.034498 351.970909 
L 193.145993 351.970909 
L 194.849824 346.535273 
L 196.553655 346.535273 
L 198.257487 341.099636 
L 201.665149 351.970909 
L 203.368981 330.228364 
L 205.072812 335.664 
L 206.776643 346.535273 
L 208.480475 351.970909 
L 210.184306 351.970909 
L 213.591969 341.099636 
L 215.2958 351.970909 
L 216.999632 351.970909 
L 218.703463 341.099636 
L 220.407294 341.099636 
L 223.814957 351.970909 
L 230.630283 351.970909 
L 232.334114 341.099636 
L 234.037945 341.099636 
L 237.445608 351.970909 
L 240.853271 351.970909 
L 242.557102 341.099636 
L 244.260934 351.970909 
L 245.964765 346.535273 
L 247.668596 351.970909 
L 251.076259 351.970909 
L 252.78009 346.535273 
L 256.187753 346.535273 
L 257.891585 351.970909 
L 271.522236 351.970909 
L 274.929898 341.099636 
L 276.63373 351.970909 
L 281.745224 351.970909 
L 283.449055 341.099636 
L 285.152886 351.970909 
L 297.079706 351.970909 
L 298.783537 346.535273 
L 300.487369 351.970909 
L 302.1912 346.535273 
L 303.895032 351.970909 
L 310.710357 351.970909 
L 312.414188 346.535273 
L 314.11802 351.970909 
L 315.821851 351.970909 
L 317.525682 346.535273 
L 319.229514 351.970909 
L 322.637177 351.970909 
L 324.341008 346.535273 
L 326.044839 351.970909 
L 346.490816 351.970909 
L 348.194647 346.535273 
L 349.898478 351.970909 
L 360.121467 351.970909 
L 361.825298 346.535273 
L 363.529129 351.970909 
L 373.752118 351.970909 
L 375.455949 346.535273 
L 377.15978 351.970909 
L 479.389663 351.970909 
L 481.093494 346.535273 
L 482.797325 351.970909 
L 491.316482 351.970909 
L 491.316482 351.970909 
" style="fill:none;stroke:#2ca02c;stroke-linecap:square;stroke-width:1.5;"/>
   </g>
   <g id="line2d_16">
    <path clip-path="url(#p6e33cf3179)" d="M 84.100785 351.970909 
L 87.508448 351.970909 
L 89.212279 341.099636 
L 90.91611 335.664 
L 92.619942 335.664 
L 94.323773 351.970909 
L 96.027604 330.228364 
L 97.731436 346.535273 
L 99.435267 324.792727 
L 101.139099 335.664 
L 102.84293 341.099636 
L 104.546761 335.664 
L 106.250593 313.921455 
L 107.954424 346.535273 
L 109.658255 346.535273 
L 111.362087 341.099636 
L 113.065918 346.535273 
L 114.76975 330.228364 
L 116.473581 319.357091 
L 119.881244 330.228364 
L 121.585075 341.099636 
L 123.288906 346.535273 
L 124.992738 330.228364 
L 126.696569 351.970909 
L 128.4004 341.099636 
L 130.104232 335.664 
L 131.808063 346.535273 
L 133.511895 346.535273 
L 135.215726 330.228364 
L 136.919557 346.535273 
L 138.623389 351.970909 
L 140.32722 330.228364 
L 145.438714 346.535273 
L 147.142546 330.228364 
L 148.846377 341.099636 
L 150.550208 330.228364 
L 152.25404 351.970909 
L 153.957871 346.535273 
L 155.661702 351.970909 
L 157.365534 341.099636 
L 159.069365 346.535273 
L 164.180859 346.535273 
L 165.884691 330.228364 
L 167.588522 346.535273 
L 169.292353 341.099636 
L 170.996185 346.535273 
L 172.700016 341.099636 
L 174.403847 346.535273 
L 176.107679 346.535273 
L 177.81151 341.099636 
L 179.515342 346.535273 
L 181.219173 346.535273 
L 184.626836 324.792727 
L 186.330667 351.970909 
L 188.034498 335.664 
L 191.442161 346.535273 
L 193.145993 346.535273 
L 194.849824 341.099636 
L 196.553655 346.535273 
L 203.368981 346.535273 
L 205.072812 351.970909 
L 206.776643 351.970909 
L 208.480475 341.099636 
L 210.184306 351.970909 
L 211.888138 351.970909 
L 213.591969 346.535273 
L 218.703463 346.535273 
L 220.407294 351.970909 
L 222.111126 341.099636 
L 223.814957 351.970909 
L 227.22262 351.970909 
L 230.630283 341.099636 
L 232.334114 351.970909 
L 234.037945 346.535273 
L 235.741777 351.970909 
L 239.149439 351.970909 
L 240.853271 346.535273 
L 242.557102 346.535273 
L 244.260934 351.970909 
L 245.964765 341.099636 
L 247.668596 341.099636 
L 251.076259 351.970909 
L 252.78009 346.535273 
L 254.483922 346.535273 
L 256.187753 351.970909 
L 261.299247 351.970909 
L 263.003079 346.535273 
L 264.70691 351.970909 
L 274.929898 351.970909 
L 276.63373 346.535273 
L 280.041392 346.535273 
L 281.745224 351.970909 
L 288.560549 351.970909 
L 290.264381 346.535273 
L 291.968212 351.970909 
L 293.672043 346.535273 
L 295.375875 351.970909 
L 297.079706 346.535273 
L 298.783537 351.970909 
L 300.487369 346.535273 
L 302.1912 346.535273 
L 303.895032 351.970909 
L 307.302694 351.970909 
L 309.006526 346.535273 
L 310.710357 351.970909 
L 336.267828 351.970909 
L 337.971659 346.535273 
L 339.67549 351.970909 
L 341.379322 351.970909 
L 343.083153 346.535273 
L 344.786984 346.535273 
L 346.490816 351.970909 
L 348.194647 351.970909 
L 349.898478 346.535273 
L 351.60231 351.970909 
L 356.713804 351.970909 
L 358.417635 346.535273 
L 360.121467 351.970909 
L 375.455949 351.970909 
L 377.15978 346.535273 
L 378.863612 351.970909 
L 464.05518 351.970909 
L 465.759012 346.535273 
L 467.462843 351.970909 
L 491.316482 351.970909 
L 491.316482 351.970909 
" style="fill:none;stroke:#d62728;stroke-linecap:square;stroke-width:1.5;"/>
   </g>
   <g id="line2d_17">
    <path clip-path="url(#p6e33cf3179)" d="M 84.100785 351.970909 
L 85.804616 351.970909 
L 87.508448 346.535273 
L 89.212279 335.664 
L 90.91611 330.228364 
L 92.619942 335.664 
L 94.323773 330.228364 
L 96.027604 330.228364 
L 97.731436 335.664 
L 99.435267 313.921455 
L 101.139099 308.485818 
L 102.84293 324.792727 
L 104.546761 275.872 
L 106.250593 324.792727 
L 107.954424 286.743273 
L 109.658255 303.050182 
L 111.362087 292.178909 
L 113.065918 270.436364 
L 114.76975 303.050182 
L 116.473581 303.050182 
L 118.177412 292.178909 
L 119.881244 286.743273 
L 121.585075 303.050182 
L 123.288906 308.485818 
L 124.992738 292.178909 
L 126.696569 292.178909 
L 128.4004 308.485818 
L 130.104232 297.614545 
L 131.808063 292.178909 
L 133.511895 297.614545 
L 135.215726 297.614545 
L 136.919557 286.743273 
L 138.623389 292.178909 
L 140.32722 319.357091 
L 142.031051 313.921455 
L 143.734883 286.743273 
L 145.438714 303.050182 
L 147.142546 270.436364 
L 148.846377 330.228364 
L 150.550208 297.614545 
L 152.25404 319.357091 
L 153.957871 319.357091 
L 155.661702 303.050182 
L 157.365534 319.357091 
L 159.069365 297.614545 
L 160.773196 319.357091 
L 162.477028 335.664 
L 165.884691 303.050182 
L 167.588522 313.921455 
L 169.292353 319.357091 
L 170.996185 308.485818 
L 172.700016 319.357091 
L 174.403847 308.485818 
L 176.107679 308.485818 
L 177.81151 297.614545 
L 179.515342 308.485818 
L 181.219173 297.614545 
L 182.923004 324.792727 
L 184.626836 297.614545 
L 186.330667 319.357091 
L 188.034498 324.792727 
L 189.73833 324.792727 
L 191.442161 303.050182 
L 193.145993 308.485818 
L 194.849824 297.614545 
L 196.553655 281.307636 
L 198.257487 297.614545 
L 199.961318 341.099636 
L 201.665149 292.178909 
L 203.368981 330.228364 
L 205.072812 324.792727 
L 206.776643 292.178909 
L 208.480475 313.921455 
L 210.184306 324.792727 
L 211.888138 330.228364 
L 213.591969 341.099636 
L 215.2958 319.357091 
L 216.999632 324.792727 
L 218.703463 308.485818 
L 220.407294 313.921455 
L 222.111126 313.921455 
L 223.814957 330.228364 
L 225.518789 313.921455 
L 227.22262 335.664 
L 228.926451 330.228364 
L 230.630283 341.099636 
L 232.334114 324.792727 
L 234.037945 346.535273 
L 235.741777 346.535273 
L 237.445608 335.664 
L 239.149439 335.664 
L 240.853271 324.792727 
L 242.557102 341.099636 
L 244.260934 330.228364 
L 245.964765 341.099636 
L 247.668596 335.664 
L 249.372428 335.664 
L 251.076259 346.535273 
L 252.78009 351.970909 
L 254.483922 341.099636 
L 256.187753 341.099636 
L 257.891585 335.664 
L 261.299247 335.664 
L 264.70691 346.535273 
L 266.410741 330.228364 
L 268.114573 346.535273 
L 269.818404 351.970909 
L 271.522236 341.099636 
L 273.226067 346.535273 
L 276.63373 346.535273 
L 278.337561 335.664 
L 280.041392 346.535273 
L 281.745224 324.792727 
L 283.449055 330.228364 
L 285.152886 324.792727 
L 288.560549 335.664 
L 290.264381 346.535273 
L 291.968212 330.228364 
L 295.375875 351.970909 
L 297.079706 330.228364 
L 298.783537 351.970909 
L 300.487369 324.792727 
L 302.1912 341.099636 
L 303.895032 335.664 
L 305.598863 335.664 
L 307.302694 346.535273 
L 309.006526 351.970909 
L 310.710357 346.535273 
L 312.414188 335.664 
L 315.821851 346.535273 
L 319.229514 346.535273 
L 320.933345 335.664 
L 322.637177 341.099636 
L 324.341008 341.099636 
L 326.044839 346.535273 
L 327.748671 335.664 
L 329.452502 341.099636 
L 331.156333 341.099636 
L 332.860165 335.664 
L 334.563996 346.535273 
L 337.971659 346.535273 
L 339.67549 330.228364 
L 341.379322 346.535273 
L 343.083153 346.535273 
L 344.786984 351.970909 
L 348.194647 351.970909 
L 349.898478 346.535273 
L 351.60231 346.535273 
L 353.306141 351.970909 
L 355.009973 341.099636 
L 356.713804 346.535273 
L 358.417635 346.535273 
L 360.121467 351.970909 
L 361.825298 346.535273 
L 363.529129 346.535273 
L 365.232961 335.664 
L 366.936792 346.535273 
L 370.344455 346.535273 
L 372.048286 351.970909 
L 373.752118 341.099636 
L 375.455949 351.970909 
L 378.863612 351.970909 
L 380.567443 341.099636 
L 382.271275 351.970909 
L 383.975106 346.535273 
L 385.678937 351.970909 
L 389.0866 351.970909 
L 390.790431 346.535273 
L 392.494263 351.970909 
L 397.605757 351.970909 
L 399.309588 346.535273 
L 401.01342 351.970909 
L 404.421082 351.970909 
L 406.124914 346.535273 
L 407.828745 346.535273 
L 409.532576 351.970909 
L 412.940239 351.970909 
L 414.644071 346.535273 
L 416.347902 351.970909 
L 421.459396 351.970909 
L 423.163227 346.535273 
L 424.867059 351.970909 
L 426.57089 346.535273 
L 428.274721 351.970909 
L 429.978553 351.970909 
L 431.682384 346.535273 
L 433.386216 351.970909 
L 465.759012 351.970909 
L 467.462843 346.535273 
L 469.166674 351.970909 
L 470.870506 351.970909 
L 472.574337 346.535273 
L 474.278168 351.970909 
L 475.982 346.535273 
L 477.685831 351.970909 
L 479.389663 346.535273 
L 481.093494 351.970909 
L 486.204988 351.970909 
L 487.908819 346.535273 
L 489.612651 351.970909 
L 491.316482 351.970909 
L 491.316482 351.970909 
" style="fill:none;stroke:#9467bd;stroke-linecap:square;stroke-width:1.5;"/>
   </g>
   <g id="line2d_18">
    <path clip-path="url(#p6e33cf3179)" d="M 84.100785 351.970909 
L 90.91611 351.970909 
L 94.323773 341.099636 
L 96.027604 346.535273 
L 97.731436 335.664 
L 99.435267 351.970909 
L 101.139099 351.970909 
L 102.84293 335.664 
L 104.546761 351.970909 
L 106.250593 330.228364 
L 107.954424 324.792727 
L 109.658255 341.099636 
L 113.065918 341.099636 
L 114.76975 330.228364 
L 116.473581 341.099636 
L 118.177412 341.099636 
L 119.881244 346.535273 
L 121.585075 335.664 
L 123.288906 341.099636 
L 124.992738 335.664 
L 126.696569 351.970909 
L 128.4004 335.664 
L 130.104232 335.664 
L 131.808063 341.099636 
L 133.511895 341.099636 
L 135.215726 351.970909 
L 136.919557 341.099636 
L 138.623389 351.970909 
L 140.32722 341.099636 
L 142.031051 335.664 
L 143.734883 351.970909 
L 145.438714 335.664 
L 147.142546 351.970909 
L 148.846377 351.970909 
L 150.550208 341.099636 
L 152.25404 341.099636 
L 153.957871 335.664 
L 155.661702 351.970909 
L 157.365534 341.099636 
L 160.773196 351.970909 
L 162.477028 351.970909 
L 165.884691 341.099636 
L 167.588522 351.970909 
L 170.996185 341.099636 
L 172.700016 351.970909 
L 174.403847 335.664 
L 176.107679 341.099636 
L 177.81151 335.664 
L 179.515342 351.970909 
L 181.219173 341.099636 
L 182.923004 346.535273 
L 191.442161 346.535273 
L 193.145993 351.970909 
L 194.849824 346.535273 
L 196.553655 346.535273 
L 198.257487 351.970909 
L 201.665149 351.970909 
L 203.368981 346.535273 
L 205.072812 351.970909 
L 210.184306 335.664 
L 211.888138 351.970909 
L 213.591969 346.535273 
L 215.2958 346.535273 
L 216.999632 351.970909 
L 223.814957 351.970909 
L 225.518789 346.535273 
L 227.22262 346.535273 
L 228.926451 351.970909 
L 232.334114 351.970909 
L 234.037945 346.535273 
L 235.741777 351.970909 
L 237.445608 346.535273 
L 239.149439 351.970909 
L 247.668596 351.970909 
L 251.076259 341.099636 
L 252.78009 341.099636 
L 254.483922 351.970909 
L 256.187753 346.535273 
L 257.891585 351.970909 
L 263.003079 351.970909 
L 264.70691 341.099636 
L 266.410741 351.970909 
L 268.114573 341.099636 
L 269.818404 351.970909 
L 290.264381 351.970909 
L 291.968212 346.535273 
L 293.672043 351.970909 
L 295.375875 346.535273 
L 297.079706 351.970909 
L 298.783537 346.535273 
L 300.487369 351.970909 
L 302.1912 346.535273 
L 303.895032 351.970909 
L 305.598863 346.535273 
L 307.302694 351.970909 
L 309.006526 346.535273 
L 310.710357 351.970909 
L 375.455949 351.970909 
L 377.15978 346.535273 
L 378.863612 351.970909 
L 380.567443 351.970909 
L 382.271275 346.535273 
L 383.975106 351.970909 
L 387.382769 351.970909 
L 389.0866 346.535273 
L 390.790431 351.970909 
L 416.347902 351.970909 
L 418.051733 346.535273 
L 419.755565 351.970909 
L 423.163227 351.970909 
L 424.867059 346.535273 
L 426.57089 351.970909 
L 469.166674 351.970909 
L 470.870506 346.535273 
L 472.574337 351.970909 
L 475.982 351.970909 
L 477.685831 346.535273 
L 479.389663 351.970909 
L 491.316482 351.970909 
L 491.316482 351.970909 
" style="fill:none;stroke:#8c564b;stroke-linecap:square;stroke-width:1.5;"/>
   </g>
   <g id="line2d_19">
    <path clip-path="url(#p6e33cf3179)" d="M 84.100785 351.970909 
L 85.804616 351.970909 
L 89.212279 341.099636 
L 90.91611 351.970909 
L 92.619942 330.228364 
L 96.027604 341.099636 
L 97.731436 330.228364 
L 99.435267 324.792727 
L 101.139099 330.228364 
L 102.84293 324.792727 
L 104.546761 330.228364 
L 106.250593 330.228364 
L 107.954424 303.050182 
L 109.658255 319.357091 
L 111.362087 330.228364 
L 113.065918 324.792727 
L 114.76975 308.485818 
L 116.473581 303.050182 
L 118.177412 335.664 
L 119.881244 330.228364 
L 121.585075 313.921455 
L 123.288906 319.357091 
L 124.992738 308.485818 
L 126.696569 313.921455 
L 128.4004 324.792727 
L 130.104232 319.357091 
L 131.808063 303.050182 
L 133.511895 319.357091 
L 135.215726 308.485818 
L 136.919557 319.357091 
L 138.623389 324.792727 
L 140.32722 308.485818 
L 142.031051 330.228364 
L 143.734883 330.228364 
L 145.438714 319.357091 
L 147.142546 335.664 
L 148.846377 303.050182 
L 150.550208 324.792727 
L 152.25404 330.228364 
L 153.957871 330.228364 
L 155.661702 324.792727 
L 157.365534 335.664 
L 159.069365 319.357091 
L 160.773196 335.664 
L 162.477028 308.485818 
L 165.884691 341.099636 
L 167.588522 297.614545 
L 169.292353 330.228364 
L 170.996185 330.228364 
L 172.700016 319.357091 
L 174.403847 324.792727 
L 176.107679 308.485818 
L 177.81151 330.228364 
L 179.515342 313.921455 
L 181.219173 330.228364 
L 182.923004 324.792727 
L 184.626836 335.664 
L 188.034498 335.664 
L 189.73833 297.614545 
L 191.442161 324.792727 
L 193.145993 330.228364 
L 194.849824 341.099636 
L 198.257487 330.228364 
L 199.961318 319.357091 
L 201.665149 330.228364 
L 203.368981 335.664 
L 205.072812 330.228364 
L 206.776643 319.357091 
L 208.480475 341.099636 
L 210.184306 330.228364 
L 211.888138 324.792727 
L 213.591969 335.664 
L 215.2958 324.792727 
L 216.999632 341.099636 
L 218.703463 341.099636 
L 220.407294 324.792727 
L 222.111126 346.535273 
L 223.814957 319.357091 
L 225.518789 330.228364 
L 227.22262 330.228364 
L 228.926451 341.099636 
L 232.334114 351.970909 
L 234.037945 341.099636 
L 235.741777 324.792727 
L 237.445608 341.099636 
L 240.853271 341.099636 
L 242.557102 346.535273 
L 244.260934 330.228364 
L 245.964765 351.970909 
L 247.668596 346.535273 
L 249.372428 335.664 
L 251.076259 341.099636 
L 252.78009 341.099636 
L 254.483922 346.535273 
L 256.187753 346.535273 
L 257.891585 341.099636 
L 259.595416 341.099636 
L 263.003079 351.970909 
L 264.70691 346.535273 
L 266.410741 346.535273 
L 268.114573 351.970909 
L 271.522236 341.099636 
L 274.929898 341.099636 
L 278.337561 351.970909 
L 280.041392 346.535273 
L 288.560549 346.535273 
L 290.264381 335.664 
L 291.968212 351.970909 
L 293.672043 346.535273 
L 295.375875 335.664 
L 297.079706 346.535273 
L 298.783537 346.535273 
L 300.487369 351.970909 
L 302.1912 351.970909 
L 303.895032 346.535273 
L 305.598863 351.970909 
L 307.302694 324.792727 
L 309.006526 341.099636 
L 310.710357 341.099636 
L 312.414188 346.535273 
L 314.11802 341.099636 
L 315.821851 341.099636 
L 317.525682 351.970909 
L 324.341008 351.970909 
L 327.748671 341.099636 
L 329.452502 351.970909 
L 331.156333 346.535273 
L 332.860165 351.970909 
L 334.563996 341.099636 
L 336.267828 346.535273 
L 337.971659 341.099636 
L 339.67549 351.970909 
L 343.083153 351.970909 
L 344.786984 346.535273 
L 346.490816 346.535273 
L 348.194647 351.970909 
L 349.898478 351.970909 
L 351.60231 341.099636 
L 353.306141 351.970909 
L 358.417635 351.970909 
L 360.121467 346.535273 
L 361.825298 351.970909 
L 363.529129 341.099636 
L 365.232961 351.970909 
L 366.936792 346.535273 
L 368.640624 351.970909 
L 370.344455 346.535273 
L 372.048286 351.970909 
L 373.752118 351.970909 
L 375.455949 346.535273 
L 377.15978 351.970909 
L 378.863612 346.535273 
L 380.567443 351.970909 
L 385.678937 351.970909 
L 387.382769 346.535273 
L 389.0866 351.970909 
L 390.790431 351.970909 
L 392.494263 346.535273 
L 394.198094 351.970909 
L 395.901925 351.970909 
L 397.605757 346.535273 
L 399.309588 351.970909 
L 402.717251 351.970909 
L 404.421082 346.535273 
L 406.124914 351.970909 
L 411.236408 351.970909 
L 412.940239 346.535273 
L 414.644071 351.970909 
L 416.347902 346.535273 
L 418.051733 351.970909 
L 419.755565 346.535273 
L 421.459396 351.970909 
L 428.274721 351.970909 
L 429.978553 346.535273 
L 431.682384 351.970909 
L 467.462843 351.970909 
L 469.166674 346.535273 
L 470.870506 351.970909 
L 487.908819 351.970909 
L 489.612651 346.535273 
L 491.316482 346.535273 
L 491.316482 346.535273 
" style="fill:none;stroke:#e377c2;stroke-linecap:square;stroke-width:1.5;"/>
   </g>
   <g id="line2d_20">
    <path clip-path="url(#p6e33cf3179)" d="M 84.100785 351.970909 
L 94.323773 351.970909 
L 96.027604 346.535273 
L 97.731436 351.970909 
L 99.435267 341.099636 
L 101.139099 341.099636 
L 102.84293 346.535273 
L 106.250593 346.535273 
L 107.954424 351.970909 
L 109.658255 335.664 
L 111.362087 330.228364 
L 113.065918 346.535273 
L 114.76975 341.099636 
L 116.473581 330.228364 
L 118.177412 330.228364 
L 119.881244 341.099636 
L 121.585075 346.535273 
L 123.288906 335.664 
L 124.992738 341.099636 
L 126.696569 335.664 
L 128.4004 341.099636 
L 131.808063 341.099636 
L 133.511895 330.228364 
L 135.215726 346.535273 
L 136.919557 351.970909 
L 138.623389 341.099636 
L 140.32722 335.664 
L 143.734883 346.535273 
L 145.438714 341.099636 
L 147.142546 351.970909 
L 148.846377 346.535273 
L 152.25404 346.535273 
L 153.957871 351.970909 
L 155.661702 341.099636 
L 159.069365 351.970909 
L 160.773196 346.535273 
L 162.477028 346.535273 
L 164.180859 341.099636 
L 167.588522 351.970909 
L 169.292353 351.970909 
L 170.996185 341.099636 
L 172.700016 351.970909 
L 177.81151 351.970909 
L 179.515342 346.535273 
L 181.219173 346.535273 
L 182.923004 351.970909 
L 184.626836 341.099636 
L 186.330667 351.970909 
L 188.034498 335.664 
L 189.73833 351.970909 
L 191.442161 351.970909 
L 193.145993 335.664 
L 194.849824 346.535273 
L 198.257487 346.535273 
L 199.961318 351.970909 
L 206.776643 351.970909 
L 208.480475 341.099636 
L 210.184306 341.099636 
L 211.888138 335.664 
L 213.591969 346.535273 
L 215.2958 351.970909 
L 220.407294 351.970909 
L 222.111126 346.535273 
L 223.814957 346.535273 
L 225.518789 351.970909 
L 227.22262 351.970909 
L 230.630283 341.099636 
L 232.334114 351.970909 
L 235.741777 351.970909 
L 237.445608 346.535273 
L 239.149439 335.664 
L 240.853271 351.970909 
L 249.372428 351.970909 
L 251.076259 346.535273 
L 252.78009 351.970909 
L 254.483922 351.970909 
L 256.187753 346.535273 
L 257.891585 351.970909 
L 259.595416 351.970909 
L 261.299247 346.535273 
L 264.70691 346.535273 
L 266.410741 351.970909 
L 280.041392 351.970909 
L 281.745224 346.535273 
L 283.449055 351.970909 
L 285.152886 346.535273 
L 286.856718 351.970909 
L 297.079706 351.970909 
L 298.783537 346.535273 
L 302.1912 346.535273 
L 303.895032 351.970909 
L 305.598863 346.535273 
L 307.302694 351.970909 
L 309.006526 346.535273 
L 310.710357 346.535273 
L 312.414188 351.970909 
L 314.11802 351.970909 
L 315.821851 346.535273 
L 317.525682 351.970909 
L 329.452502 351.970909 
L 331.156333 346.535273 
L 332.860165 351.970909 
L 341.379322 351.970909 
L 343.083153 346.535273 
L 344.786984 351.970909 
L 356.713804 351.970909 
L 358.417635 346.535273 
L 360.121467 351.970909 
L 366.936792 351.970909 
L 368.640624 346.535273 
L 370.344455 351.970909 
L 380.567443 351.970909 
L 382.271275 346.535273 
L 383.975106 351.970909 
L 431.682384 351.970909 
L 433.386216 346.535273 
L 435.090047 351.970909 
L 481.093494 351.970909 
L 482.797325 346.535273 
L 484.501157 351.970909 
L 491.316482 351.970909 
L 491.316482 351.970909 
" style="fill:none;stroke:#7f7f7f;stroke-linecap:square;stroke-width:1.5;"/>
   </g>
   <g id="patch_3">
    <path d="M 63.74 365.56 
L 63.74 66.6 
" style="fill:none;stroke:#000000;stroke-linecap:square;stroke-linejoin:miter;stroke-width:0.8;"/>
   </g>
   <g id="patch_4">
    <path d="M 511.677267 365.56 
L 511.677267 66.6 
" style="fill:none;stroke:#000000;stroke-linecap:square;stroke-linejoin:miter;stroke-width:0.8;"/>
   </g>
   <g id="patch_5">
    <path d="M 63.74 365.56 
L 511.677267 365.56 
" style="fill:none;stroke:#000000;stroke-linecap:square;stroke-linejoin:miter;stroke-width:0.8;"/>
   </g>
   <g id="patch_6">
    <path d="M 63.74 66.6 
L 511.677267 66.6 
" style="fill:none;stroke:#000000;stroke-linecap:square;stroke-linejoin:miter;stroke-width:0.8;"/>
   </g>
   <g id="legend_1">
    <g id="patch_7">
     <path d="M 74.24 59.1 
L 501.177267 59.1 
Q 504.177267 59.1 504.177267 56.1 
L 504.177267 13.565625 
Q 504.177267 10.565625 501.177267 10.565625 
L 74.24 10.565625 
Q 71.24 10.565625 71.24 13.565625 
L 71.24 56.1 
Q 71.24 59.1 74.24 59.1 
z
" style="fill:#ffffff;opacity:0.8;stroke:#cccccc;stroke-linejoin:miter;"/>
    </g>
    <g id="line2d_21">
     <path d="M 77.24 22.713281 
L 107.24 22.713281 
" style="fill:none;stroke:#1f77b4;stroke-linecap:square;stroke-width:1.5;"/>
    </g>
    <g id="line2d_22"/>
    <g id="text_15">
     <!-- Stra 1 -->
     <defs>
      <path d="M 53.515625 70.515625 
L 53.515625 60.890625 
Q 47.90625 63.578125 42.921875 64.890625 
Q 37.9375 66.21875 33.296875 66.21875 
Q 25.25 66.21875 20.875 63.09375 
Q 16.5 59.96875 16.5 54.203125 
Q 16.5 49.359375 19.40625 46.890625 
Q 22.3125 44.4375 30.421875 42.921875 
L 36.375 41.703125 
Q 47.40625 39.59375 52.65625 34.296875 
Q 57.90625 29 57.90625 20.125 
Q 57.90625 9.515625 50.796875 4.046875 
Q 43.703125 -1.421875 29.984375 -1.421875 
Q 24.8125 -1.421875 18.96875 -0.25 
Q 13.140625 0.921875 6.890625 3.21875 
L 6.890625 13.375 
Q 12.890625 10.015625 18.65625 8.296875 
Q 24.421875 6.59375 29.984375 6.59375 
Q 38.421875 6.59375 43.015625 9.90625 
Q 47.609375 13.234375 47.609375 19.390625 
Q 47.609375 24.75 44.3125 27.78125 
Q 41.015625 30.8125 33.5 32.328125 
L 27.484375 33.5 
Q 16.453125 35.6875 11.515625 40.375 
Q 6.59375 45.0625 6.59375 53.421875 
Q 6.59375 63.09375 13.40625 68.65625 
Q 20.21875 74.21875 32.171875 74.21875 
Q 37.3125 74.21875 42.625 73.28125 
Q 47.953125 72.359375 53.515625 70.515625 
z
" id="DejaVuSans-83"/>
     </defs>
     <g transform="translate(119.24 27.963281)scale(0.15 -0.15)">
      <use xlink:href="#DejaVuSans-83"/>
      <use x="63.476562" xlink:href="#DejaVuSans-116"/>
      <use x="102.685547" xlink:href="#DejaVuSans-114"/>
      <use x="143.798828" xlink:href="#DejaVuSans-97"/>
      <use x="205.078125" xlink:href="#DejaVuSans-32"/>
      <use x="236.865234" xlink:href="#DejaVuSans-49"/>
     </g>
    </g>
    <g id="line2d_23">
     <path d="M 77.24 44.730469 
L 107.24 44.730469 
" style="fill:none;stroke:#ff7f0e;stroke-linecap:square;stroke-width:1.5;"/>
    </g>
    <g id="line2d_24"/>
    <g id="text_16">
     <!-- Stra 2 -->
     <g transform="translate(119.24 49.980469)scale(0.15 -0.15)">
      <use xlink:href="#DejaVuSans-83"/>
      <use x="63.476562" xlink:href="#DejaVuSans-116"/>
      <use x="102.685547" xlink:href="#DejaVuSans-114"/>
      <use x="143.798828" xlink:href="#DejaVuSans-97"/>
      <use x="205.078125" xlink:href="#DejaVuSans-32"/>
      <use x="236.865234" xlink:href="#DejaVuSans-50"/>
     </g>
    </g>
    <g id="line2d_25">
     <path d="M 188.528204 22.713281 
L 218.528204 22.713281 
" style="fill:none;stroke:#2ca02c;stroke-linecap:square;stroke-width:1.5;"/>
    </g>
    <g id="line2d_26"/>
    <g id="text_17">
     <!-- Stra 3 -->
     <g transform="translate(230.528204 27.963281)scale(0.15 -0.15)">
      <use xlink:href="#DejaVuSans-83"/>
      <use x="63.476562" xlink:href="#DejaVuSans-116"/>
      <use x="102.685547" xlink:href="#DejaVuSans-114"/>
      <use x="143.798828" xlink:href="#DejaVuSans-97"/>
      <use x="205.078125" xlink:href="#DejaVuSans-32"/>
      <use x="236.865234" xlink:href="#DejaVuSans-51"/>
     </g>
    </g>
    <g id="line2d_27">
     <path d="M 188.528204 44.730469 
L 218.528204 44.730469 
" style="fill:none;stroke:#d62728;stroke-linecap:square;stroke-width:1.5;"/>
    </g>
    <g id="line2d_28"/>
    <g id="text_18">
     <!-- Stra 4 -->
     <g transform="translate(230.528204 49.980469)scale(0.15 -0.15)">
      <use xlink:href="#DejaVuSans-83"/>
      <use x="63.476562" xlink:href="#DejaVuSans-116"/>
      <use x="102.685547" xlink:href="#DejaVuSans-114"/>
      <use x="143.798828" xlink:href="#DejaVuSans-97"/>
      <use x="205.078125" xlink:href="#DejaVuSans-32"/>
      <use x="236.865234" xlink:href="#DejaVuSans-52"/>
     </g>
    </g>
    <g id="line2d_29">
     <path d="M 299.816407 22.713281 
L 329.816407 22.713281 
" style="fill:none;stroke:#9467bd;stroke-linecap:square;stroke-width:1.5;"/>
    </g>
    <g id="line2d_30"/>
    <g id="text_19">
     <!-- Stra 5 -->
     <g transform="translate(341.816407 27.963281)scale(0.15 -0.15)">
      <use xlink:href="#DejaVuSans-83"/>
      <use x="63.476562" xlink:href="#DejaVuSans-116"/>
      <use x="102.685547" xlink:href="#DejaVuSans-114"/>
      <use x="143.798828" xlink:href="#DejaVuSans-97"/>
      <use x="205.078125" xlink:href="#DejaVuSans-32"/>
      <use x="236.865234" xlink:href="#DejaVuSans-53"/>
     </g>
    </g>
    <g id="line2d_31">
     <path d="M 299.816407 44.730469 
L 329.816407 44.730469 
" style="fill:none;stroke:#8c564b;stroke-linecap:square;stroke-width:1.5;"/>
    </g>
    <g id="line2d_32"/>
    <g id="text_20">
     <!-- Stra 6 -->
     <defs>
      <path d="M 33.015625 40.375 
Q 26.375 40.375 22.484375 35.828125 
Q 18.609375 31.296875 18.609375 23.390625 
Q 18.609375 15.53125 22.484375 10.953125 
Q 26.375 6.390625 33.015625 6.390625 
Q 39.65625 6.390625 43.53125 10.953125 
Q 47.40625 15.53125 47.40625 23.390625 
Q 47.40625 31.296875 43.53125 35.828125 
Q 39.65625 40.375 33.015625 40.375 
z
M 52.59375 71.296875 
L 52.59375 62.3125 
Q 48.875 64.0625 45.09375 64.984375 
Q 41.3125 65.921875 37.59375 65.921875 
Q 27.828125 65.921875 22.671875 59.328125 
Q 17.53125 52.734375 16.796875 39.40625 
Q 19.671875 43.65625 24.015625 45.921875 
Q 28.375 48.1875 33.59375 48.1875 
Q 44.578125 48.1875 50.953125 41.515625 
Q 57.328125 34.859375 57.328125 23.390625 
Q 57.328125 12.15625 50.6875 5.359375 
Q 44.046875 -1.421875 33.015625 -1.421875 
Q 20.359375 -1.421875 13.671875 8.265625 
Q 6.984375 17.96875 6.984375 36.375 
Q 6.984375 53.65625 15.1875 63.9375 
Q 23.390625 74.21875 37.203125 74.21875 
Q 40.921875 74.21875 44.703125 73.484375 
Q 48.484375 72.75 52.59375 71.296875 
z
" id="DejaVuSans-54"/>
     </defs>
     <g transform="translate(341.816407 49.980469)scale(0.15 -0.15)">
      <use xlink:href="#DejaVuSans-83"/>
      <use x="63.476562" xlink:href="#DejaVuSans-116"/>
      <use x="102.685547" xlink:href="#DejaVuSans-114"/>
      <use x="143.798828" xlink:href="#DejaVuSans-97"/>
      <use x="205.078125" xlink:href="#DejaVuSans-32"/>
      <use x="236.865234" xlink:href="#DejaVuSans-54"/>
     </g>
    </g>
    <g id="line2d_33">
     <path d="M 411.104611 22.713281 
L 441.104611 22.713281 
" style="fill:none;stroke:#e377c2;stroke-linecap:square;stroke-width:1.5;"/>
    </g>
    <g id="line2d_34"/>
    <g id="text_21">
     <!-- Stra 7 -->
     <defs>
      <path d="M 8.203125 72.90625 
L 55.078125 72.90625 
L 55.078125 68.703125 
L 28.609375 0 
L 18.3125 0 
L 43.21875 64.59375 
L 8.203125 64.59375 
z
" id="DejaVuSans-55"/>
     </defs>
     <g transform="translate(453.104611 27.963281)scale(0.15 -0.15)">
      <use xlink:href="#DejaVuSans-83"/>
      <use x="63.476562" xlink:href="#DejaVuSans-116"/>
      <use x="102.685547" xlink:href="#DejaVuSans-114"/>
      <use x="143.798828" xlink:href="#DejaVuSans-97"/>
      <use x="205.078125" xlink:href="#DejaVuSans-32"/>
      <use x="236.865234" xlink:href="#DejaVuSans-55"/>
     </g>
    </g>
    <g id="line2d_35">
     <path d="M 411.104611 44.730469 
L 441.104611 44.730469 
" style="fill:none;stroke:#7f7f7f;stroke-linecap:square;stroke-width:1.5;"/>
    </g>
    <g id="line2d_36"/>
    <g id="text_22">
     <!-- Stra 8 -->
     <defs>
      <path d="M 31.78125 34.625 
Q 24.75 34.625 20.71875 30.859375 
Q 16.703125 27.09375 16.703125 20.515625 
Q 16.703125 13.921875 20.71875 10.15625 
Q 24.75 6.390625 31.78125 6.390625 
Q 38.8125 6.390625 42.859375 10.171875 
Q 46.921875 13.96875 46.921875 20.515625 
Q 46.921875 27.09375 42.890625 30.859375 
Q 38.875 34.625 31.78125 34.625 
z
M 21.921875 38.8125 
Q 15.578125 40.375 12.03125 44.71875 
Q 8.5 49.078125 8.5 55.328125 
Q 8.5 64.0625 14.71875 69.140625 
Q 20.953125 74.21875 31.78125 74.21875 
Q 42.671875 74.21875 48.875 69.140625 
Q 55.078125 64.0625 55.078125 55.328125 
Q 55.078125 49.078125 51.53125 44.71875 
Q 48 40.375 41.703125 38.8125 
Q 48.828125 37.15625 52.796875 32.3125 
Q 56.78125 27.484375 56.78125 20.515625 
Q 56.78125 9.90625 50.3125 4.234375 
Q 43.84375 -1.421875 31.78125 -1.421875 
Q 19.734375 -1.421875 13.25 4.234375 
Q 6.78125 9.90625 6.78125 20.515625 
Q 6.78125 27.484375 10.78125 32.3125 
Q 14.796875 37.15625 21.921875 38.8125 
z
M 18.3125 54.390625 
Q 18.3125 48.734375 21.84375 45.5625 
Q 25.390625 42.390625 31.78125 42.390625 
Q 38.140625 42.390625 41.71875 45.5625 
Q 45.3125 48.734375 45.3125 54.390625 
Q 45.3125 60.0625 41.71875 63.234375 
Q 38.140625 66.40625 31.78125 66.40625 
Q 25.390625 66.40625 21.84375 63.234375 
Q 18.3125 60.0625 18.3125 54.390625 
z
" id="DejaVuSans-56"/>
     </defs>
     <g transform="translate(453.104611 49.980469)scale(0.15 -0.15)">
      <use xlink:href="#DejaVuSans-83"/>
      <use x="63.476562" xlink:href="#DejaVuSans-116"/>
      <use x="102.685547" xlink:href="#DejaVuSans-114"/>
      <use x="143.798828" xlink:href="#DejaVuSans-97"/>
      <use x="205.078125" xlink:href="#DejaVuSans-32"/>
      <use x="236.865234" xlink:href="#DejaVuSans-56"/>
     </g>
    </g>
   </g>
  </g>
 </g>
 <defs>
  <clipPath id="p6e33cf3179">
   <rect height="298.96" width="447.937267" x="63.74" y="66.6"/>
  </clipPath>
 </defs>
</svg>
