<?xml version="1.0" encoding="utf-8" standalone="no"?>
<!DOCTYPE svg PUBLIC "-//W3C//DTD SVG 1.1//EN"
  "http://www.w3.org/Graphics/SVG/1.1/DTD/svg11.dtd">
<!-- Created with matplotlib (https://matplotlib.org/) -->
<svg height="432pt" version="1.1" viewBox="0 0 540 432" width="540pt" xmlns="http://www.w3.org/2000/svg" xmlns:xlink="http://www.w3.org/1999/xlink">
 <defs>
  <style type="text/css">
*{stroke-linecap:butt;stroke-linejoin:round;}
  </style>
 </defs>
 <g id="figure_1">
  <g id="patch_1">
   <path d="M 0 432 
L 540 432 
L 540 0 
L 0 0 
z
" style="fill:#ffffff;"/>
  </g>
  <g id="axes_1">
   <g id="patch_2">
    <path d="M 63.74 365.56 
L 518.093855 365.56 
L 518.093855 66.6 
L 63.74 66.6 
z
" style="fill:#ffffff;"/>
   </g>
   <g id="matplotlib.axis_1">
    <g id="xtick_1">
     <g id="line2d_1">
      <defs>
       <path d="M 0 0 
L 0 3.5 
" id="m38db9225dd" style="stroke:#000000;stroke-width:0.8;"/>
      </defs>
      <g>
       <use style="stroke:#000000;stroke-width:0.8;" x="84.392448" xlink:href="#m38db9225dd" y="365.56"/>
      </g>
     </g>
     <g id="text_1">
      <!-- 0 -->
      <defs>
       <path d="M 31.78125 66.40625 
Q 24.171875 66.40625 20.328125 58.90625 
Q 16.5 51.421875 16.5 36.375 
Q 16.5 21.390625 20.328125 13.890625 
Q 24.171875 6.390625 31.78125 6.390625 
Q 39.453125 6.390625 43.28125 13.890625 
Q 47.125 21.390625 47.125 36.375 
Q 47.125 51.421875 43.28125 58.90625 
Q 39.453125 66.40625 31.78125 66.40625 
z
M 31.78125 74.21875 
Q 44.046875 74.21875 50.515625 64.515625 
Q 56.984375 54.828125 56.984375 36.375 
Q 56.984375 17.96875 50.515625 8.265625 
Q 44.046875 -1.421875 31.78125 -1.421875 
Q 19.53125 -1.421875 13.0625 8.265625 
Q 6.59375 17.96875 6.59375 36.375 
Q 6.59375 54.828125 13.0625 64.515625 
Q 19.53125 74.21875 31.78125 74.21875 
z
" id="DejaVuSans-48"/>
      </defs>
      <g transform="translate(78.029948 387.756875)scale(0.2 -0.2)">
       <use xlink:href="#DejaVuSans-48"/>
      </g>
     </g>
    </g>
    <g id="xtick_2">
     <g id="line2d_2">
      <g>
       <use style="stroke:#000000;stroke-width:0.8;" x="155.241326" xlink:href="#m38db9225dd" y="365.56"/>
      </g>
     </g>
     <g id="text_2">
      <!-- 100 -->
      <defs>
       <path d="M 12.40625 8.296875 
L 28.515625 8.296875 
L 28.515625 63.921875 
L 10.984375 60.40625 
L 10.984375 69.390625 
L 28.421875 72.90625 
L 38.28125 72.90625 
L 38.28125 8.296875 
L 54.390625 8.296875 
L 54.390625 0 
L 12.40625 0 
z
" id="DejaVuSans-49"/>
      </defs>
      <g transform="translate(136.153826 387.756875)scale(0.2 -0.2)">
       <use xlink:href="#DejaVuSans-49"/>
       <use x="63.623047" xlink:href="#DejaVuSans-48"/>
       <use x="127.246094" xlink:href="#DejaVuSans-48"/>
      </g>
     </g>
    </g>
    <g id="xtick_3">
     <g id="line2d_3">
      <g>
       <use style="stroke:#000000;stroke-width:0.8;" x="226.090204" xlink:href="#m38db9225dd" y="365.56"/>
      </g>
     </g>
     <g id="text_3">
      <!-- 200 -->
      <defs>
       <path d="M 19.1875 8.296875 
L 53.609375 8.296875 
L 53.609375 0 
L 7.328125 0 
L 7.328125 8.296875 
Q 12.9375 14.109375 22.625 23.890625 
Q 32.328125 33.6875 34.8125 36.53125 
Q 39.546875 41.84375 41.421875 45.53125 
Q 43.3125 49.21875 43.3125 52.78125 
Q 43.3125 58.59375 39.234375 62.25 
Q 35.15625 65.921875 28.609375 65.921875 
Q 23.96875 65.921875 18.8125 64.3125 
Q 13.671875 62.703125 7.8125 59.421875 
L 7.8125 69.390625 
Q 13.765625 71.78125 18.9375 73 
Q 24.125 74.21875 28.421875 74.21875 
Q 39.75 74.21875 46.484375 68.546875 
Q 53.21875 62.890625 53.21875 53.421875 
Q 53.21875 48.921875 51.53125 44.890625 
Q 49.859375 40.875 45.40625 35.40625 
Q 44.1875 33.984375 37.640625 27.21875 
Q 31.109375 20.453125 19.1875 8.296875 
z
" id="DejaVuSans-50"/>
      </defs>
      <g transform="translate(207.002704 387.756875)scale(0.2 -0.2)">
       <use xlink:href="#DejaVuSans-50"/>
       <use x="63.623047" xlink:href="#DejaVuSans-48"/>
       <use x="127.246094" xlink:href="#DejaVuSans-48"/>
      </g>
     </g>
    </g>
    <g id="xtick_4">
     <g id="line2d_4">
      <g>
       <use style="stroke:#000000;stroke-width:0.8;" x="296.939082" xlink:href="#m38db9225dd" y="365.56"/>
      </g>
     </g>
     <g id="text_4">
      <!-- 300 -->
      <defs>
       <path d="M 40.578125 39.3125 
Q 47.65625 37.796875 51.625 33 
Q 55.609375 28.21875 55.609375 21.1875 
Q 55.609375 10.40625 48.1875 4.484375 
Q 40.765625 -1.421875 27.09375 -1.421875 
Q 22.515625 -1.421875 17.65625 -0.515625 
Q 12.796875 0.390625 7.625 2.203125 
L 7.625 11.71875 
Q 11.71875 9.328125 16.59375 8.109375 
Q 21.484375 6.890625 26.8125 6.890625 
Q 36.078125 6.890625 40.9375 10.546875 
Q 45.796875 14.203125 45.796875 21.1875 
Q 45.796875 27.640625 41.28125 31.265625 
Q 36.765625 34.90625 28.71875 34.90625 
L 20.21875 34.90625 
L 20.21875 43.015625 
L 29.109375 43.015625 
Q 36.375 43.015625 40.234375 45.921875 
Q 44.09375 48.828125 44.09375 54.296875 
Q 44.09375 59.90625 40.109375 62.90625 
Q 36.140625 65.921875 28.71875 65.921875 
Q 24.65625 65.921875 20.015625 65.03125 
Q 15.375 64.15625 9.8125 62.3125 
L 9.8125 71.09375 
Q 15.4375 72.65625 20.34375 73.4375 
Q 25.25 74.21875 29.59375 74.21875 
Q 40.828125 74.21875 47.359375 69.109375 
Q 53.90625 64.015625 53.90625 55.328125 
Q 53.90625 49.265625 50.4375 45.09375 
Q 46.96875 40.921875 40.578125 39.3125 
z
" id="DejaVuSans-51"/>
      </defs>
      <g transform="translate(277.851582 387.756875)scale(0.2 -0.2)">
       <use xlink:href="#DejaVuSans-51"/>
       <use x="63.623047" xlink:href="#DejaVuSans-48"/>
       <use x="127.246094" xlink:href="#DejaVuSans-48"/>
      </g>
     </g>
    </g>
    <g id="xtick_5">
     <g id="line2d_5">
      <g>
       <use style="stroke:#000000;stroke-width:0.8;" x="367.78796" xlink:href="#m38db9225dd" y="365.56"/>
      </g>
     </g>
     <g id="text_5">
      <!-- 400 -->
      <defs>
       <path d="M 37.796875 64.3125 
L 12.890625 25.390625 
L 37.796875 25.390625 
z
M 35.203125 72.90625 
L 47.609375 72.90625 
L 47.609375 25.390625 
L 58.015625 25.390625 
L 58.015625 17.1875 
L 47.609375 17.1875 
L 47.609375 0 
L 37.796875 0 
L 37.796875 17.1875 
L 4.890625 17.1875 
L 4.890625 26.703125 
z
" id="DejaVuSans-52"/>
      </defs>
      <g transform="translate(348.70046 387.756875)scale(0.2 -0.2)">
       <use xlink:href="#DejaVuSans-52"/>
       <use x="63.623047" xlink:href="#DejaVuSans-48"/>
       <use x="127.246094" xlink:href="#DejaVuSans-48"/>
      </g>
     </g>
    </g>
    <g id="xtick_6">
     <g id="line2d_6">
      <g>
       <use style="stroke:#000000;stroke-width:0.8;" x="438.636839" xlink:href="#m38db9225dd" y="365.56"/>
      </g>
     </g>
     <g id="text_6">
      <!-- 500 -->
      <defs>
       <path d="M 10.796875 72.90625 
L 49.515625 72.90625 
L 49.515625 64.59375 
L 19.828125 64.59375 
L 19.828125 46.734375 
Q 21.96875 47.46875 24.109375 47.828125 
Q 26.265625 48.1875 28.421875 48.1875 
Q 40.625 48.1875 47.75 41.5 
Q 54.890625 34.8125 54.890625 23.390625 
Q 54.890625 11.625 47.5625 5.09375 
Q 40.234375 -1.421875 26.90625 -1.421875 
Q 22.3125 -1.421875 17.546875 -0.640625 
Q 12.796875 0.140625 7.71875 1.703125 
L 7.71875 11.625 
Q 12.109375 9.234375 16.796875 8.0625 
Q 21.484375 6.890625 26.703125 6.890625 
Q 35.15625 6.890625 40.078125 11.328125 
Q 45.015625 15.765625 45.015625 23.390625 
Q 45.015625 31 40.078125 35.4375 
Q 35.15625 39.890625 26.703125 39.890625 
Q 22.75 39.890625 18.8125 39.015625 
Q 14.890625 38.140625 10.796875 36.28125 
z
" id="DejaVuSans-53"/>
      </defs>
      <g transform="translate(419.549339 387.756875)scale(0.2 -0.2)">
       <use xlink:href="#DejaVuSans-53"/>
       <use x="63.623047" xlink:href="#DejaVuSans-48"/>
       <use x="127.246094" xlink:href="#DejaVuSans-48"/>
      </g>
     </g>
    </g>
    <g id="xtick_7">
     <g id="line2d_7">
      <g>
       <use style="stroke:#000000;stroke-width:0.8;" x="509.485717" xlink:href="#m38db9225dd" y="365.56"/>
      </g>
     </g>
     <g id="text_7">
      <!-- 600 -->
      <defs>
       <path d="M 33.015625 40.375 
Q 26.375 40.375 22.484375 35.828125 
Q 18.609375 31.296875 18.609375 23.390625 
Q 18.609375 15.53125 22.484375 10.953125 
Q 26.375 6.390625 33.015625 6.390625 
Q 39.65625 6.390625 43.53125 10.953125 
Q 47.40625 15.53125 47.40625 23.390625 
Q 47.40625 31.296875 43.53125 35.828125 
Q 39.65625 40.375 33.015625 40.375 
z
M 52.59375 71.296875 
L 52.59375 62.3125 
Q 48.875 64.0625 45.09375 64.984375 
Q 41.3125 65.921875 37.59375 65.921875 
Q 27.828125 65.921875 22.671875 59.328125 
Q 17.53125 52.734375 16.796875 39.40625 
Q 19.671875 43.65625 24.015625 45.921875 
Q 28.375 48.1875 33.59375 48.1875 
Q 44.578125 48.1875 50.953125 41.515625 
Q 57.328125 34.859375 57.328125 23.390625 
Q 57.328125 12.15625 50.6875 5.359375 
Q 44.046875 -1.421875 33.015625 -1.421875 
Q 20.359375 -1.421875 13.671875 8.265625 
Q 6.984375 17.96875 6.984375 36.375 
Q 6.984375 53.65625 15.1875 63.9375 
Q 23.390625 74.21875 37.203125 74.21875 
Q 40.921875 74.21875 44.703125 73.484375 
Q 48.484375 72.75 52.59375 71.296875 
z
" id="DejaVuSans-54"/>
      </defs>
      <g transform="translate(490.398217 387.756875)scale(0.2 -0.2)">
       <use xlink:href="#DejaVuSans-54"/>
       <use x="63.623047" xlink:href="#DejaVuSans-48"/>
       <use x="127.246094" xlink:href="#DejaVuSans-48"/>
      </g>
     </g>
    </g>
    <g id="text_8">
     <!-- # of games -->
     <defs>
      <path d="M 51.125 44 
L 36.921875 44 
L 32.8125 27.6875 
L 47.125 27.6875 
z
M 43.796875 71.78125 
L 38.71875 51.515625 
L 52.984375 51.515625 
L 58.109375 71.78125 
L 65.921875 71.78125 
L 60.890625 51.515625 
L 76.125 51.515625 
L 76.125 44 
L 58.984375 44 
L 54.984375 27.6875 
L 70.515625 27.6875 
L 70.515625 20.21875 
L 53.078125 20.21875 
L 48 0 
L 40.1875 0 
L 45.21875 20.21875 
L 30.90625 20.21875 
L 25.875 0 
L 18.015625 0 
L 23.09375 20.21875 
L 7.71875 20.21875 
L 7.71875 27.6875 
L 24.90625 27.6875 
L 29 44 
L 13.28125 44 
L 13.28125 51.515625 
L 30.90625 51.515625 
L 35.890625 71.78125 
z
" id="DejaVuSans-35"/>
      <path id="DejaVuSans-32"/>
      <path d="M 30.609375 48.390625 
Q 23.390625 48.390625 19.1875 42.75 
Q 14.984375 37.109375 14.984375 27.296875 
Q 14.984375 17.484375 19.15625 11.84375 
Q 23.34375 6.203125 30.609375 6.203125 
Q 37.796875 6.203125 41.984375 11.859375 
Q 46.1875 17.53125 46.1875 27.296875 
Q 46.1875 37.015625 41.984375 42.703125 
Q 37.796875 48.390625 30.609375 48.390625 
z
M 30.609375 56 
Q 42.328125 56 49.015625 48.375 
Q 55.71875 40.765625 55.71875 27.296875 
Q 55.71875 13.875 49.015625 6.21875 
Q 42.328125 -1.421875 30.609375 -1.421875 
Q 18.84375 -1.421875 12.171875 6.21875 
Q 5.515625 13.875 5.515625 27.296875 
Q 5.515625 40.765625 12.171875 48.375 
Q 18.84375 56 30.609375 56 
z
" id="DejaVuSans-111"/>
      <path d="M 37.109375 75.984375 
L 37.109375 68.5 
L 28.515625 68.5 
Q 23.6875 68.5 21.796875 66.546875 
Q 19.921875 64.59375 19.921875 59.515625 
L 19.921875 54.6875 
L 34.71875 54.6875 
L 34.71875 47.703125 
L 19.921875 47.703125 
L 19.921875 0 
L 10.890625 0 
L 10.890625 47.703125 
L 2.296875 47.703125 
L 2.296875 54.6875 
L 10.890625 54.6875 
L 10.890625 58.5 
Q 10.890625 67.625 15.140625 71.796875 
Q 19.390625 75.984375 28.609375 75.984375 
z
" id="DejaVuSans-102"/>
      <path d="M 45.40625 27.984375 
Q 45.40625 37.75 41.375 43.109375 
Q 37.359375 48.484375 30.078125 48.484375 
Q 22.859375 48.484375 18.828125 43.109375 
Q 14.796875 37.75 14.796875 27.984375 
Q 14.796875 18.265625 18.828125 12.890625 
Q 22.859375 7.515625 30.078125 7.515625 
Q 37.359375 7.515625 41.375 12.890625 
Q 45.40625 18.265625 45.40625 27.984375 
z
M 54.390625 6.78125 
Q 54.390625 -7.171875 48.1875 -13.984375 
Q 42 -20.796875 29.203125 -20.796875 
Q 24.46875 -20.796875 20.265625 -20.09375 
Q 16.0625 -19.390625 12.109375 -17.921875 
L 12.109375 -9.1875 
Q 16.0625 -11.328125 19.921875 -12.34375 
Q 23.78125 -13.375 27.78125 -13.375 
Q 36.625 -13.375 41.015625 -8.765625 
Q 45.40625 -4.15625 45.40625 5.171875 
L 45.40625 9.625 
Q 42.625 4.78125 38.28125 2.390625 
Q 33.9375 0 27.875 0 
Q 17.828125 0 11.671875 7.65625 
Q 5.515625 15.328125 5.515625 27.984375 
Q 5.515625 40.671875 11.671875 48.328125 
Q 17.828125 56 27.875 56 
Q 33.9375 56 38.28125 53.609375 
Q 42.625 51.21875 45.40625 46.390625 
L 45.40625 54.6875 
L 54.390625 54.6875 
z
" id="DejaVuSans-103"/>
      <path d="M 34.28125 27.484375 
Q 23.390625 27.484375 19.1875 25 
Q 14.984375 22.515625 14.984375 16.5 
Q 14.984375 11.71875 18.140625 8.90625 
Q 21.296875 6.109375 26.703125 6.109375 
Q 34.1875 6.109375 38.703125 11.40625 
Q 43.21875 16.703125 43.21875 25.484375 
L 43.21875 27.484375 
z
M 52.203125 31.203125 
L 52.203125 0 
L 43.21875 0 
L 43.21875 8.296875 
Q 40.140625 3.328125 35.546875 0.953125 
Q 30.953125 -1.421875 24.3125 -1.421875 
Q 15.921875 -1.421875 10.953125 3.296875 
Q 6 8.015625 6 15.921875 
Q 6 25.140625 12.171875 29.828125 
Q 18.359375 34.515625 30.609375 34.515625 
L 43.21875 34.515625 
L 43.21875 35.40625 
Q 43.21875 41.609375 39.140625 45 
Q 35.0625 48.390625 27.6875 48.390625 
Q 23 48.390625 18.546875 47.265625 
Q 14.109375 46.140625 10.015625 43.890625 
L 10.015625 52.203125 
Q 14.9375 54.109375 19.578125 55.046875 
Q 24.21875 56 28.609375 56 
Q 40.484375 56 46.34375 49.84375 
Q 52.203125 43.703125 52.203125 31.203125 
z
" id="DejaVuSans-97"/>
      <path d="M 52 44.1875 
Q 55.375 50.25 60.0625 53.125 
Q 64.75 56 71.09375 56 
Q 79.640625 56 84.28125 50.015625 
Q 88.921875 44.046875 88.921875 33.015625 
L 88.921875 0 
L 79.890625 0 
L 79.890625 32.71875 
Q 79.890625 40.578125 77.09375 44.375 
Q 74.3125 48.1875 68.609375 48.1875 
Q 61.625 48.1875 57.5625 43.546875 
Q 53.515625 38.921875 53.515625 30.90625 
L 53.515625 0 
L 44.484375 0 
L 44.484375 32.71875 
Q 44.484375 40.625 41.703125 44.40625 
Q 38.921875 48.1875 33.109375 48.1875 
Q 26.21875 48.1875 22.15625 43.53125 
Q 18.109375 38.875 18.109375 30.90625 
L 18.109375 0 
L 9.078125 0 
L 9.078125 54.6875 
L 18.109375 54.6875 
L 18.109375 46.1875 
Q 21.1875 51.21875 25.484375 53.609375 
Q 29.78125 56 35.6875 56 
Q 41.65625 56 45.828125 52.96875 
Q 50 49.953125 52 44.1875 
z
" id="DejaVuSans-109"/>
      <path d="M 56.203125 29.59375 
L 56.203125 25.203125 
L 14.890625 25.203125 
Q 15.484375 15.921875 20.484375 11.0625 
Q 25.484375 6.203125 34.421875 6.203125 
Q 39.59375 6.203125 44.453125 7.46875 
Q 49.3125 8.734375 54.109375 11.28125 
L 54.109375 2.78125 
Q 49.265625 0.734375 44.1875 -0.34375 
Q 39.109375 -1.421875 33.890625 -1.421875 
Q 20.796875 -1.421875 13.15625 6.1875 
Q 5.515625 13.8125 5.515625 26.8125 
Q 5.515625 40.234375 12.765625 48.109375 
Q 20.015625 56 32.328125 56 
Q 43.359375 56 49.78125 48.890625 
Q 56.203125 41.796875 56.203125 29.59375 
z
M 47.21875 32.234375 
Q 47.125 39.59375 43.09375 43.984375 
Q 39.0625 48.390625 32.421875 48.390625 
Q 24.90625 48.390625 20.390625 44.140625 
Q 15.875 39.890625 15.1875 32.171875 
z
" id="DejaVuSans-101"/>
      <path d="M 44.28125 53.078125 
L 44.28125 44.578125 
Q 40.484375 46.53125 36.375 47.5 
Q 32.28125 48.484375 27.875 48.484375 
Q 21.1875 48.484375 17.84375 46.4375 
Q 14.5 44.390625 14.5 40.28125 
Q 14.5 37.15625 16.890625 35.375 
Q 19.28125 33.59375 26.515625 31.984375 
L 29.59375 31.296875 
Q 39.15625 29.25 43.1875 25.515625 
Q 47.21875 21.78125 47.21875 15.09375 
Q 47.21875 7.46875 41.1875 3.015625 
Q 35.15625 -1.421875 24.609375 -1.421875 
Q 20.21875 -1.421875 15.453125 -0.5625 
Q 10.6875 0.296875 5.421875 2 
L 5.421875 11.28125 
Q 10.40625 8.6875 15.234375 7.390625 
Q 20.0625 6.109375 24.8125 6.109375 
Q 31.15625 6.109375 34.5625 8.28125 
Q 37.984375 10.453125 37.984375 14.40625 
Q 37.984375 18.0625 35.515625 20.015625 
Q 33.0625 21.96875 24.703125 23.78125 
L 21.578125 24.515625 
Q 13.234375 26.265625 9.515625 29.90625 
Q 5.8125 33.546875 5.8125 39.890625 
Q 5.8125 47.609375 11.28125 51.796875 
Q 16.75 56 26.8125 56 
Q 31.78125 56 36.171875 55.265625 
Q 40.578125 54.546875 44.28125 53.078125 
z
" id="DejaVuSans-115"/>
     </defs>
     <g transform="translate(218.473568 414.912344)scale(0.25 -0.25)">
      <use xlink:href="#DejaVuSans-35"/>
      <use x="83.789062" xlink:href="#DejaVuSans-32"/>
      <use x="115.576172" xlink:href="#DejaVuSans-111"/>
      <use x="176.757812" xlink:href="#DejaVuSans-102"/>
      <use x="211.962891" xlink:href="#DejaVuSans-32"/>
      <use x="243.75" xlink:href="#DejaVuSans-103"/>
      <use x="307.226562" xlink:href="#DejaVuSans-97"/>
      <use x="368.505859" xlink:href="#DejaVuSans-109"/>
      <use x="465.917969" xlink:href="#DejaVuSans-101"/>
      <use x="527.441406" xlink:href="#DejaVuSans-115"/>
     </g>
    </g>
   </g>
   <g id="matplotlib.axis_2">
    <g id="ytick_1">
     <g id="line2d_8">
      <defs>
       <path d="M 0 0 
L -3.5 0 
" id="m9eeaa4facd" style="stroke:#000000;stroke-width:0.8;"/>
      </defs>
      <g>
       <use style="stroke:#000000;stroke-width:0.8;" x="63.74" xlink:href="#m9eeaa4facd" y="351.970909"/>
      </g>
     </g>
     <g id="text_9">
      <!-- 0 -->
      <g transform="translate(44.015 359.569347)scale(0.2 -0.2)">
       <use xlink:href="#DejaVuSans-48"/>
      </g>
     </g>
    </g>
    <g id="ytick_2">
     <g id="line2d_9">
      <g>
       <use style="stroke:#000000;stroke-width:0.8;" x="63.74" xlink:href="#m9eeaa4facd" y="316.210144"/>
      </g>
     </g>
     <g id="text_10">
      <!-- 5 -->
      <g transform="translate(44.015 323.808581)scale(0.2 -0.2)">
       <use xlink:href="#DejaVuSans-53"/>
      </g>
     </g>
    </g>
    <g id="ytick_3">
     <g id="line2d_10">
      <g>
       <use style="stroke:#000000;stroke-width:0.8;" x="63.74" xlink:href="#m9eeaa4facd" y="280.449378"/>
      </g>
     </g>
     <g id="text_11">
      <!-- 10 -->
      <g transform="translate(31.29 288.047815)scale(0.2 -0.2)">
       <use xlink:href="#DejaVuSans-49"/>
       <use x="63.623047" xlink:href="#DejaVuSans-48"/>
      </g>
     </g>
    </g>
    <g id="ytick_4">
     <g id="line2d_11">
      <g>
       <use style="stroke:#000000;stroke-width:0.8;" x="63.74" xlink:href="#m9eeaa4facd" y="244.688612"/>
      </g>
     </g>
     <g id="text_12">
      <!-- 15 -->
      <g transform="translate(31.29 252.28705)scale(0.2 -0.2)">
       <use xlink:href="#DejaVuSans-49"/>
       <use x="63.623047" xlink:href="#DejaVuSans-53"/>
      </g>
     </g>
    </g>
    <g id="ytick_5">
     <g id="line2d_12">
      <g>
       <use style="stroke:#000000;stroke-width:0.8;" x="63.74" xlink:href="#m9eeaa4facd" y="208.927847"/>
      </g>
     </g>
     <g id="text_13">
      <!-- 20 -->
      <g transform="translate(31.29 216.526284)scale(0.2 -0.2)">
       <use xlink:href="#DejaVuSans-50"/>
       <use x="63.623047" xlink:href="#DejaVuSans-48"/>
      </g>
     </g>
    </g>
    <g id="ytick_6">
     <g id="line2d_13">
      <g>
       <use style="stroke:#000000;stroke-width:0.8;" x="63.74" xlink:href="#m9eeaa4facd" y="173.167081"/>
      </g>
     </g>
     <g id="text_14">
      <!-- 25 -->
      <g transform="translate(31.29 180.765519)scale(0.2 -0.2)">
       <use xlink:href="#DejaVuSans-50"/>
       <use x="63.623047" xlink:href="#DejaVuSans-53"/>
      </g>
     </g>
    </g>
    <g id="ytick_7">
     <g id="line2d_14">
      <g>
       <use style="stroke:#000000;stroke-width:0.8;" x="63.74" xlink:href="#m9eeaa4facd" y="137.406316"/>
      </g>
     </g>
     <g id="text_15">
      <!-- 30 -->
      <g transform="translate(31.29 145.004753)scale(0.2 -0.2)">
       <use xlink:href="#DejaVuSans-51"/>
       <use x="63.623047" xlink:href="#DejaVuSans-48"/>
      </g>
     </g>
    </g>
    <g id="ytick_8">
     <g id="line2d_15">
      <g>
       <use style="stroke:#000000;stroke-width:0.8;" x="63.74" xlink:href="#m9eeaa4facd" y="101.64555"/>
      </g>
     </g>
     <g id="text_16">
      <!-- 35 -->
      <g transform="translate(31.29 109.243988)scale(0.2 -0.2)">
       <use xlink:href="#DejaVuSans-51"/>
       <use x="63.623047" xlink:href="#DejaVuSans-53"/>
      </g>
     </g>
    </g>
    <g id="text_17">
     <!-- Number of Attackers in CKC -->
     <defs>
      <path d="M 9.8125 72.90625 
L 23.09375 72.90625 
L 55.421875 11.921875 
L 55.421875 72.90625 
L 64.984375 72.90625 
L 64.984375 0 
L 51.703125 0 
L 19.390625 60.984375 
L 19.390625 0 
L 9.8125 0 
z
" id="DejaVuSans-78"/>
      <path d="M 8.5 21.578125 
L 8.5 54.6875 
L 17.484375 54.6875 
L 17.484375 21.921875 
Q 17.484375 14.15625 20.5 10.265625 
Q 23.53125 6.390625 29.59375 6.390625 
Q 36.859375 6.390625 41.078125 11.03125 
Q 45.3125 15.671875 45.3125 23.6875 
L 45.3125 54.6875 
L 54.296875 54.6875 
L 54.296875 0 
L 45.3125 0 
L 45.3125 8.40625 
Q 42.046875 3.421875 37.71875 1 
Q 33.40625 -1.421875 27.6875 -1.421875 
Q 18.265625 -1.421875 13.375 4.4375 
Q 8.5 10.296875 8.5 21.578125 
z
M 31.109375 56 
z
" id="DejaVuSans-117"/>
      <path d="M 48.6875 27.296875 
Q 48.6875 37.203125 44.609375 42.84375 
Q 40.53125 48.484375 33.40625 48.484375 
Q 26.265625 48.484375 22.1875 42.84375 
Q 18.109375 37.203125 18.109375 27.296875 
Q 18.109375 17.390625 22.1875 11.75 
Q 26.265625 6.109375 33.40625 6.109375 
Q 40.53125 6.109375 44.609375 11.75 
Q 48.6875 17.390625 48.6875 27.296875 
z
M 18.109375 46.390625 
Q 20.953125 51.265625 25.265625 53.625 
Q 29.59375 56 35.59375 56 
Q 45.5625 56 51.78125 48.09375 
Q 58.015625 40.1875 58.015625 27.296875 
Q 58.015625 14.40625 51.78125 6.484375 
Q 45.5625 -1.421875 35.59375 -1.421875 
Q 29.59375 -1.421875 25.265625 0.953125 
Q 20.953125 3.328125 18.109375 8.203125 
L 18.109375 0 
L 9.078125 0 
L 9.078125 75.984375 
L 18.109375 75.984375 
z
" id="DejaVuSans-98"/>
      <path d="M 41.109375 46.296875 
Q 39.59375 47.171875 37.8125 47.578125 
Q 36.03125 48 33.890625 48 
Q 26.265625 48 22.1875 43.046875 
Q 18.109375 38.09375 18.109375 28.8125 
L 18.109375 0 
L 9.078125 0 
L 9.078125 54.6875 
L 18.109375 54.6875 
L 18.109375 46.1875 
Q 20.953125 51.171875 25.484375 53.578125 
Q 30.03125 56 36.53125 56 
Q 37.453125 56 38.578125 55.875 
Q 39.703125 55.765625 41.0625 55.515625 
z
" id="DejaVuSans-114"/>
      <path d="M 34.1875 63.1875 
L 20.796875 26.90625 
L 47.609375 26.90625 
z
M 28.609375 72.90625 
L 39.796875 72.90625 
L 67.578125 0 
L 57.328125 0 
L 50.6875 18.703125 
L 17.828125 18.703125 
L 11.1875 0 
L 0.78125 0 
z
" id="DejaVuSans-65"/>
      <path d="M 18.3125 70.21875 
L 18.3125 54.6875 
L 36.8125 54.6875 
L 36.8125 47.703125 
L 18.3125 47.703125 
L 18.3125 18.015625 
Q 18.3125 11.328125 20.140625 9.421875 
Q 21.96875 7.515625 27.59375 7.515625 
L 36.8125 7.515625 
L 36.8125 0 
L 27.59375 0 
Q 17.1875 0 13.234375 3.875 
Q 9.28125 7.765625 9.28125 18.015625 
L 9.28125 47.703125 
L 2.6875 47.703125 
L 2.6875 54.6875 
L 9.28125 54.6875 
L 9.28125 70.21875 
z
" id="DejaVuSans-116"/>
      <path d="M 48.78125 52.59375 
L 48.78125 44.1875 
Q 44.96875 46.296875 41.140625 47.34375 
Q 37.3125 48.390625 33.40625 48.390625 
Q 24.65625 48.390625 19.8125 42.84375 
Q 14.984375 37.3125 14.984375 27.296875 
Q 14.984375 17.28125 19.8125 11.734375 
Q 24.65625 6.203125 33.40625 6.203125 
Q 37.3125 6.203125 41.140625 7.25 
Q 44.96875 8.296875 48.78125 10.40625 
L 48.78125 2.09375 
Q 45.015625 0.34375 40.984375 -0.53125 
Q 36.96875 -1.421875 32.421875 -1.421875 
Q 20.0625 -1.421875 12.78125 6.34375 
Q 5.515625 14.109375 5.515625 27.296875 
Q 5.515625 40.671875 12.859375 48.328125 
Q 20.21875 56 33.015625 56 
Q 37.15625 56 41.109375 55.140625 
Q 45.0625 54.296875 48.78125 52.59375 
z
" id="DejaVuSans-99"/>
      <path d="M 9.078125 75.984375 
L 18.109375 75.984375 
L 18.109375 31.109375 
L 44.921875 54.6875 
L 56.390625 54.6875 
L 27.390625 29.109375 
L 57.625 0 
L 45.90625 0 
L 18.109375 26.703125 
L 18.109375 0 
L 9.078125 0 
z
" id="DejaVuSans-107"/>
      <path d="M 9.421875 54.6875 
L 18.40625 54.6875 
L 18.40625 0 
L 9.421875 0 
z
M 9.421875 75.984375 
L 18.40625 75.984375 
L 18.40625 64.59375 
L 9.421875 64.59375 
z
" id="DejaVuSans-105"/>
      <path d="M 54.890625 33.015625 
L 54.890625 0 
L 45.90625 0 
L 45.90625 32.71875 
Q 45.90625 40.484375 42.875 44.328125 
Q 39.84375 48.1875 33.796875 48.1875 
Q 26.515625 48.1875 22.3125 43.546875 
Q 18.109375 38.921875 18.109375 30.90625 
L 18.109375 0 
L 9.078125 0 
L 9.078125 54.6875 
L 18.109375 54.6875 
L 18.109375 46.1875 
Q 21.34375 51.125 25.703125 53.5625 
Q 30.078125 56 35.796875 56 
Q 45.21875 56 50.046875 50.171875 
Q 54.890625 44.34375 54.890625 33.015625 
z
" id="DejaVuSans-110"/>
      <path d="M 64.40625 67.28125 
L 64.40625 56.890625 
Q 59.421875 61.53125 53.78125 63.8125 
Q 48.140625 66.109375 41.796875 66.109375 
Q 29.296875 66.109375 22.65625 58.46875 
Q 16.015625 50.828125 16.015625 36.375 
Q 16.015625 21.96875 22.65625 14.328125 
Q 29.296875 6.6875 41.796875 6.6875 
Q 48.140625 6.6875 53.78125 8.984375 
Q 59.421875 11.28125 64.40625 15.921875 
L 64.40625 5.609375 
Q 59.234375 2.09375 53.4375 0.328125 
Q 47.65625 -1.421875 41.21875 -1.421875 
Q 24.65625 -1.421875 15.125 8.703125 
Q 5.609375 18.84375 5.609375 36.375 
Q 5.609375 53.953125 15.125 64.078125 
Q 24.65625 74.21875 41.21875 74.21875 
Q 47.75 74.21875 53.53125 72.484375 
Q 59.328125 70.75 64.40625 67.28125 
z
" id="DejaVuSans-67"/>
      <path d="M 9.8125 72.90625 
L 19.671875 72.90625 
L 19.671875 42.09375 
L 52.390625 72.90625 
L 65.09375 72.90625 
L 28.90625 38.921875 
L 67.671875 0 
L 54.6875 0 
L 19.671875 35.109375 
L 19.671875 0 
L 9.8125 0 
z
" id="DejaVuSans-75"/>
     </defs>
     <g transform="translate(23.823854 332.513594)rotate(-90)scale(0.166667 -0.166667)">
      <use xlink:href="#DejaVuSans-78"/>
      <use x="74.804688" xlink:href="#DejaVuSans-117"/>
      <use x="138.183594" xlink:href="#DejaVuSans-109"/>
      <use x="235.595703" xlink:href="#DejaVuSans-98"/>
      <use x="299.072266" xlink:href="#DejaVuSans-101"/>
      <use x="360.595703" xlink:href="#DejaVuSans-114"/>
      <use x="401.708984" xlink:href="#DejaVuSans-32"/>
      <use x="433.496094" xlink:href="#DejaVuSans-111"/>
      <use x="494.677734" xlink:href="#DejaVuSans-102"/>
      <use x="529.882812" xlink:href="#DejaVuSans-32"/>
      <use x="561.669922" xlink:href="#DejaVuSans-65"/>
      <use x="630.0625" xlink:href="#DejaVuSans-116"/>
      <use x="669.271484" xlink:href="#DejaVuSans-116"/>
      <use x="708.480469" xlink:href="#DejaVuSans-97"/>
      <use x="769.759766" xlink:href="#DejaVuSans-99"/>
      <use x="824.740234" xlink:href="#DejaVuSans-107"/>
      <use x="882.603516" xlink:href="#DejaVuSans-101"/>
      <use x="944.126953" xlink:href="#DejaVuSans-114"/>
      <use x="985.240234" xlink:href="#DejaVuSans-115"/>
      <use x="1037.339844" xlink:href="#DejaVuSans-32"/>
      <use x="1069.126953" xlink:href="#DejaVuSans-105"/>
      <use x="1096.910156" xlink:href="#DejaVuSans-110"/>
      <use x="1160.289062" xlink:href="#DejaVuSans-32"/>
      <use x="1192.076172" xlink:href="#DejaVuSans-67"/>
      <use x="1261.900391" xlink:href="#DejaVuSans-75"/>
      <use x="1327.398438" xlink:href="#DejaVuSans-67"/>
     </g>
    </g>
   </g>
   <g id="line2d_16">
    <path clip-path="url(#p8bae9efb5b)" d="M 84.392448 80.189091 
L 85.100937 137.406316 
L 85.809426 230.384306 
L 86.517914 258.992919 
L 87.226403 294.753684 
L 87.934892 316.210144 
L 88.643381 323.362297 
L 89.351869 316.210144 
L 90.060358 323.362297 
L 90.768847 323.362297 
L 91.477336 330.51445 
L 92.185825 316.210144 
L 92.894313 316.210144 
L 93.602802 294.753684 
L 95.01978 294.753684 
L 95.728268 316.210144 
L 96.436757 323.362297 
L 97.145246 316.210144 
L 97.853735 294.753684 
L 98.562224 309.05799 
L 99.979201 309.05799 
L 100.68769 294.753684 
L 101.396179 294.753684 
L 102.104668 316.210144 
L 102.813156 301.905837 
L 103.521645 323.362297 
L 104.230134 323.362297 
L 104.938623 337.666603 
L 105.647111 323.362297 
L 106.3556 330.51445 
L 107.064089 330.51445 
L 107.772578 337.666603 
L 108.481067 316.210144 
L 109.898044 316.210144 
L 110.606533 337.666603 
L 111.315022 316.210144 
L 112.02351 330.51445 
L 112.731999 309.05799 
L 115.565954 309.05799 
L 116.274443 316.210144 
L 116.982932 330.51445 
L 117.691421 337.666603 
L 119.108398 337.666603 
L 119.816887 344.818756 
L 120.525376 337.666603 
L 121.233865 316.210144 
L 122.650842 301.905837 
L 123.359331 323.362297 
L 124.06782 309.05799 
L 124.776309 316.210144 
L 125.484797 301.905837 
L 126.193286 309.05799 
L 126.901775 301.905837 
L 127.610264 301.905837 
L 129.027241 316.210144 
L 129.73573 309.05799 
L 130.444219 316.210144 
L 131.152708 316.210144 
L 131.861196 301.905837 
L 132.569685 294.753684 
L 133.278174 309.05799 
L 133.986663 301.905837 
L 134.695151 316.210144 
L 136.112129 316.210144 
L 136.820618 301.905837 
L 137.529107 301.905837 
L 138.237595 309.05799 
L 138.946084 301.905837 
L 139.654573 309.05799 
L 140.363062 301.905837 
L 141.07155 309.05799 
L 141.780039 294.753684 
L 142.488528 323.362297 
L 143.197017 309.05799 
L 143.905506 316.210144 
L 144.613994 316.210144 
L 145.322483 323.362297 
L 147.44795 323.362297 
L 148.156438 330.51445 
L 148.864927 344.818756 
L 149.573416 330.51445 
L 150.281905 323.362297 
L 151.698882 323.362297 
L 152.407371 316.210144 
L 153.11586 323.362297 
L 153.824349 323.362297 
L 154.532837 316.210144 
L 155.241326 337.666603 
L 155.949815 344.818756 
L 156.658304 337.666603 
L 157.366792 337.666603 
L 158.075281 351.970909 
L 159.492259 337.666603 
L 160.909236 337.666603 
L 161.617725 330.51445 
L 162.326214 337.666603 
L 163.034703 330.51445 
L 163.743191 330.51445 
L 164.45168 323.362297 
L 165.868658 323.362297 
L 166.577147 309.05799 
L 167.994124 323.362297 
L 168.702613 323.362297 
L 169.411102 316.210144 
L 170.119591 316.210144 
L 171.536568 344.818756 
L 172.953546 344.818756 
L 173.662034 337.666603 
L 175.079012 294.753684 
L 175.787501 316.210144 
L 176.49599 309.05799 
L 177.204478 316.210144 
L 177.912967 309.05799 
L 178.621456 316.210144 
L 179.329945 316.210144 
L 180.038433 323.362297 
L 180.746922 323.362297 
L 181.455411 330.51445 
L 182.1639 316.210144 
L 183.580877 316.210144 
L 184.289366 323.362297 
L 184.997855 323.362297 
L 185.706344 316.210144 
L 186.414832 323.362297 
L 187.123321 323.362297 
L 187.83181 337.666603 
L 188.540299 330.51445 
L 189.248788 337.666603 
L 191.374254 337.666603 
L 192.082743 344.818756 
L 193.49972 344.818756 
L 194.208209 351.970909 
L 194.916698 330.51445 
L 195.625187 323.362297 
L 196.333675 323.362297 
L 197.042164 330.51445 
L 197.750653 330.51445 
L 198.459142 301.905837 
L 199.167631 309.05799 
L 199.876119 323.362297 
L 201.293097 323.362297 
L 202.001586 337.666603 
L 203.418563 323.362297 
L 204.127052 323.362297 
L 204.835541 337.666603 
L 205.54403 344.818756 
L 206.961007 344.818756 
L 207.669496 337.666603 
L 208.377985 323.362297 
L 209.086473 323.362297 
L 209.794962 337.666603 
L 211.21194 337.666603 
L 212.628917 323.362297 
L 213.337406 323.362297 
L 214.754384 337.666603 
L 215.462873 337.666603 
L 216.87985 323.362297 
L 217.588339 330.51445 
L 219.005316 330.51445 
L 220.422294 316.210144 
L 221.130783 294.753684 
L 221.839272 316.210144 
L 222.54776 316.210144 
L 223.256249 323.362297 
L 223.964738 316.210144 
L 224.673227 316.210144 
L 226.090204 330.51445 
L 226.798693 330.51445 
L 227.507182 344.818756 
L 228.924159 344.818756 
L 229.632648 337.666603 
L 230.341137 344.818756 
L 231.758114 344.818756 
L 232.466603 323.362297 
L 233.175092 323.362297 
L 233.883581 337.666603 
L 235.300558 337.666603 
L 236.009047 330.51445 
L 236.717536 330.51445 
L 237.426025 323.362297 
L 238.843002 323.362297 
L 239.551491 301.905837 
L 240.25998 301.905837 
L 240.968469 309.05799 
L 241.676957 323.362297 
L 243.093935 323.362297 
L 243.802424 316.210144 
L 244.510913 330.51445 
L 247.344868 330.51445 
L 248.053356 309.05799 
L 248.761845 330.51445 
L 249.470334 323.362297 
L 251.5958 323.362297 
L 252.304289 330.51445 
L 253.012778 330.51445 
L 253.721267 323.362297 
L 254.429755 323.362297 
L 255.138244 309.05799 
L 256.555222 323.362297 
L 257.263711 316.210144 
L 258.680688 330.51445 
L 259.389177 323.362297 
L 260.806155 337.666603 
L 261.514643 337.666603 
L 262.223132 330.51445 
L 262.931621 330.51445 
L 263.64011 337.666603 
L 264.348598 330.51445 
L 265.057087 337.666603 
L 266.474065 337.666603 
L 267.182554 330.51445 
L 267.891042 330.51445 
L 268.599531 344.818756 
L 269.30802 337.666603 
L 270.016509 337.666603 
L 270.724997 351.970909 
L 272.141975 337.666603 
L 272.850464 337.666603 
L 273.558953 344.818756 
L 274.267441 344.818756 
L 274.97593 330.51445 
L 275.684419 337.666603 
L 276.392908 309.05799 
L 277.809885 309.05799 
L 278.518374 323.362297 
L 279.226863 316.210144 
L 279.935352 323.362297 
L 280.64384 323.362297 
L 281.352329 316.210144 
L 282.060818 323.362297 
L 284.894773 323.362297 
L 285.603262 330.51445 
L 286.311751 323.362297 
L 287.020239 323.362297 
L 287.728728 316.210144 
L 288.437217 330.51445 
L 289.145706 337.666603 
L 290.562683 337.666603 
L 291.271172 344.818756 
L 291.979661 344.818756 
L 292.68815 337.666603 
L 293.396638 337.666603 
L 294.105127 330.51445 
L 294.813616 330.51445 
L 295.522105 337.666603 
L 296.939082 337.666603 
L 297.647571 323.362297 
L 298.35606 330.51445 
L 299.773037 330.51445 
L 300.481526 337.666603 
L 301.898504 337.666603 
L 302.606993 330.51445 
L 303.315481 337.666603 
L 304.02397 337.666603 
L 304.732459 344.818756 
L 305.440948 344.818756 
L 306.149437 337.666603 
L 306.857925 337.666603 
L 307.566414 323.362297 
L 308.274903 323.362297 
L 308.983392 330.51445 
L 309.69188 316.210144 
L 310.400369 309.05799 
L 311.108858 309.05799 
L 312.525836 323.362297 
L 313.234324 316.210144 
L 315.359791 316.210144 
L 316.068279 309.05799 
L 317.485257 323.362297 
L 318.193746 337.666603 
L 318.902235 330.51445 
L 319.610723 316.210144 
L 320.319212 316.210144 
L 321.027701 323.362297 
L 321.73619 323.362297 
L 322.444678 309.05799 
L 323.153167 323.362297 
L 323.861656 330.51445 
L 325.278634 330.51445 
L 325.987122 337.666603 
L 326.695611 337.666603 
L 327.4041 323.362297 
L 328.821078 323.362297 
L 329.529566 344.818756 
L 330.238055 337.666603 
L 332.363521 337.666603 
L 333.07201 344.818756 
L 333.780499 344.818756 
L 335.197477 330.51445 
L 335.905965 316.210144 
L 336.614454 330.51445 
L 337.322943 337.666603 
L 338.031432 351.970909 
L 339.448409 337.666603 
L 340.156898 351.970909 
L 341.573876 351.970909 
L 343.699342 330.51445 
L 345.116319 330.51445 
L 345.824808 337.666603 
L 346.533297 337.666603 
L 347.241786 330.51445 
L 348.658763 330.51445 
L 349.367252 323.362297 
L 350.075741 337.666603 
L 351.492719 337.666603 
L 352.201207 323.362297 
L 352.909696 323.362297 
L 353.618185 330.51445 
L 354.326674 330.51445 
L 355.035162 309.05799 
L 355.743651 316.210144 
L 356.45214 316.210144 
L 359.994584 351.970909 
L 360.703073 344.818756 
L 361.411561 351.970909 
L 362.12005 344.818756 
L 362.828539 344.818756 
L 363.537028 351.970909 
L 366.370983 351.970909 
L 367.079472 344.818756 
L 367.78796 344.818756 
L 368.496449 337.666603 
L 370.621916 337.666603 
L 371.330404 344.818756 
L 373.455871 344.818756 
L 374.16436 337.666603 
L 374.872848 337.666603 
L 375.581337 344.818756 
L 376.289826 344.818756 
L 376.998315 337.666603 
L 378.415292 351.970909 
L 379.83227 351.970909 
L 381.249247 337.666603 
L 381.957736 344.818756 
L 382.666225 330.51445 
L 383.374714 337.666603 
L 384.083202 351.970909 
L 385.50018 351.970909 
L 386.208669 344.818756 
L 386.917158 344.818756 
L 387.625646 337.666603 
L 388.334135 323.362297 
L 389.751113 323.362297 
L 391.16809 337.666603 
L 394.002045 337.666603 
L 395.419023 351.970909 
L 398.961467 351.970909 
L 399.669956 344.818756 
L 401.086933 344.818756 
L 401.795422 351.970909 
L 403.920888 351.970909 
L 405.337866 337.666603 
L 408.171821 337.666603 
L 408.88031 351.970909 
L 409.588799 344.818756 
L 411.005776 344.818756 
L 411.714265 337.666603 
L 412.422754 337.666603 
L 413.131242 344.818756 
L 414.54822 344.818756 
L 415.256709 351.970909 
L 417.382175 351.970909 
L 418.090664 344.818756 
L 418.799153 344.818756 
L 419.507642 337.666603 
L 420.21613 344.818756 
L 424.467063 344.818756 
L 425.175552 337.666603 
L 428.009507 337.666603 
L 428.717996 344.818756 
L 440.762305 344.818756 
L 441.470794 351.970909 
L 447.847193 351.970909 
L 449.26417 337.666603 
L 451.389637 337.666603 
L 452.806614 351.970909 
L 467.684879 351.970909 
L 468.393367 344.818756 
L 469.101856 344.818756 
L 469.810345 330.51445 
L 470.518834 337.666603 
L 471.935811 337.666603 
L 473.352789 351.970909 
L 492.481986 351.970909 
L 493.190475 344.818756 
L 493.898964 344.818756 
L 494.607452 351.970909 
L 497.441407 351.970909 
L 497.441407 351.970909 
" style="fill:none;stroke:#1f77b4;stroke-linecap:square;stroke-width:1.5;"/>
   </g>
   <g id="line2d_17">
    <path clip-path="url(#p8bae9efb5b)" d="M 84.392448 266.145072 
L 85.100937 237.536459 
L 85.809426 166.014928 
L 86.517914 173.167081 
L 87.226403 158.862775 
L 87.934892 158.862775 
L 88.643381 187.471388 
L 89.351869 201.775694 
L 90.060358 194.623541 
L 90.768847 194.623541 
L 91.477336 216.08 
L 92.185825 230.384306 
L 92.894313 230.384306 
L 93.602802 223.232153 
L 94.311291 244.688612 
L 95.01978 223.232153 
L 96.436757 237.536459 
L 97.145246 251.840766 
L 97.853735 273.297225 
L 98.562224 258.992919 
L 99.270712 266.145072 
L 99.979201 280.449378 
L 100.68769 287.601531 
L 101.396179 273.297225 
L 102.104668 266.145072 
L 102.813156 280.449378 
L 104.938623 280.449378 
L 106.3556 294.753684 
L 107.772578 294.753684 
L 108.481067 287.601531 
L 109.189555 287.601531 
L 109.898044 309.05799 
L 110.606533 294.753684 
L 111.315022 287.601531 
L 112.731999 316.210144 
L 114.148977 316.210144 
L 114.857466 309.05799 
L 115.565954 294.753684 
L 116.274443 301.905837 
L 116.982932 294.753684 
L 119.108398 316.210144 
L 120.525376 316.210144 
L 121.233865 309.05799 
L 121.942353 309.05799 
L 122.650842 316.210144 
L 123.359331 301.905837 
L 124.06782 316.210144 
L 125.484797 301.905837 
L 126.193286 309.05799 
L 127.610264 309.05799 
L 128.318752 323.362297 
L 129.027241 301.905837 
L 129.73573 316.210144 
L 130.444219 301.905837 
L 131.152708 294.753684 
L 131.861196 316.210144 
L 132.569685 316.210144 
L 133.278174 301.905837 
L 133.986663 301.905837 
L 134.695151 294.753684 
L 135.40364 301.905837 
L 136.112129 316.210144 
L 136.820618 316.210144 
L 138.237595 301.905837 
L 138.946084 316.210144 
L 139.654573 309.05799 
L 140.363062 294.753684 
L 141.780039 294.753684 
L 142.488528 266.145072 
L 143.197017 273.297225 
L 143.905506 266.145072 
L 144.613994 266.145072 
L 145.322483 273.297225 
L 146.030972 294.753684 
L 146.739461 301.905837 
L 147.44795 294.753684 
L 148.864927 294.753684 
L 149.573416 309.05799 
L 150.281905 316.210144 
L 150.990393 309.05799 
L 152.407371 323.362297 
L 153.11586 309.05799 
L 153.824349 316.210144 
L 154.532837 316.210144 
L 155.241326 287.601531 
L 157.366792 287.601531 
L 158.075281 280.449378 
L 158.78377 287.601531 
L 159.492259 309.05799 
L 160.200748 301.905837 
L 160.909236 301.905837 
L 161.617725 294.753684 
L 162.326214 294.753684 
L 163.034703 316.210144 
L 163.743191 316.210144 
L 164.45168 323.362297 
L 166.577147 323.362297 
L 167.285635 301.905837 
L 167.994124 301.905837 
L 168.702613 316.210144 
L 170.828079 316.210144 
L 171.536568 309.05799 
L 172.245057 316.210144 
L 173.662034 316.210144 
L 175.079012 330.51445 
L 175.787501 294.753684 
L 176.49599 309.05799 
L 177.204478 316.210144 
L 177.912967 309.05799 
L 178.621456 316.210144 
L 179.329945 330.51445 
L 180.746922 301.905837 
L 181.455411 316.210144 
L 182.1639 323.362297 
L 182.872389 316.210144 
L 184.289366 316.210144 
L 185.706344 287.601531 
L 186.414832 301.905837 
L 187.123321 309.05799 
L 187.83181 309.05799 
L 189.248788 294.753684 
L 189.957276 301.905837 
L 190.665765 301.905837 
L 191.374254 309.05799 
L 192.082743 309.05799 
L 193.49972 337.666603 
L 194.208209 330.51445 
L 195.625187 330.51445 
L 197.042164 301.905837 
L 197.750653 323.362297 
L 198.459142 323.362297 
L 199.167631 330.51445 
L 199.876119 316.210144 
L 200.584608 309.05799 
L 201.293097 323.362297 
L 202.001586 316.210144 
L 202.710074 323.362297 
L 203.418563 323.362297 
L 204.127052 330.51445 
L 204.835541 316.210144 
L 205.54403 309.05799 
L 206.961007 309.05799 
L 207.669496 316.210144 
L 208.377985 316.210144 
L 209.794962 301.905837 
L 211.920429 323.362297 
L 213.337406 323.362297 
L 214.045895 316.210144 
L 214.754384 330.51445 
L 215.462873 323.362297 
L 216.87985 337.666603 
L 217.588339 330.51445 
L 218.296828 337.666603 
L 220.422294 337.666603 
L 221.130783 344.818756 
L 221.839272 323.362297 
L 222.54776 323.362297 
L 223.964738 309.05799 
L 224.673227 316.210144 
L 225.381715 309.05799 
L 226.090204 294.753684 
L 226.798693 323.362297 
L 227.507182 316.210144 
L 228.215671 323.362297 
L 229.632648 323.362297 
L 230.341137 316.210144 
L 231.049626 316.210144 
L 231.758114 330.51445 
L 232.466603 337.666603 
L 233.175092 337.666603 
L 233.883581 316.210144 
L 235.300558 301.905837 
L 236.009047 316.210144 
L 236.717536 309.05799 
L 237.426025 323.362297 
L 238.134514 330.51445 
L 238.843002 330.51445 
L 240.25998 316.210144 
L 240.968469 316.210144 
L 241.676957 301.905837 
L 242.385446 301.905837 
L 243.802424 287.601531 
L 244.510913 266.145072 
L 245.219401 280.449378 
L 246.636379 280.449378 
L 248.053356 294.753684 
L 248.761845 273.297225 
L 249.470334 287.601531 
L 250.178823 280.449378 
L 253.012778 309.05799 
L 255.138244 309.05799 
L 255.846733 301.905837 
L 256.555222 301.905837 
L 257.263711 287.601531 
L 257.972199 287.601531 
L 258.680688 280.449378 
L 259.389177 287.601531 
L 260.097666 287.601531 
L 260.806155 280.449378 
L 261.514643 280.449378 
L 262.931621 266.145072 
L 263.64011 266.145072 
L 266.474065 323.362297 
L 267.182554 309.05799 
L 267.891042 323.362297 
L 268.599531 316.210144 
L 270.016509 316.210144 
L 270.724997 301.905837 
L 271.433486 316.210144 
L 272.850464 316.210144 
L 273.558953 309.05799 
L 274.267441 309.05799 
L 276.392908 330.51445 
L 277.101396 323.362297 
L 278.518374 323.362297 
L 279.226863 330.51445 
L 279.935352 323.362297 
L 280.64384 337.666603 
L 282.060818 323.362297 
L 282.769307 330.51445 
L 284.186284 316.210144 
L 284.894773 323.362297 
L 287.020239 301.905837 
L 287.728728 309.05799 
L 288.437217 301.905837 
L 289.145706 301.905837 
L 289.854195 309.05799 
L 290.562683 309.05799 
L 291.979661 323.362297 
L 292.68815 323.362297 
L 293.396638 330.51445 
L 294.105127 330.51445 
L 294.813616 316.210144 
L 295.522105 323.362297 
L 297.647571 323.362297 
L 298.35606 316.210144 
L 299.064549 316.210144 
L 299.773037 330.51445 
L 301.190015 330.51445 
L 301.898504 323.362297 
L 302.606993 330.51445 
L 303.315481 330.51445 
L 304.02397 344.818756 
L 305.440948 330.51445 
L 306.857925 344.818756 
L 308.274903 344.818756 
L 308.983392 337.666603 
L 311.108858 337.666603 
L 311.817347 316.210144 
L 312.525836 309.05799 
L 313.234324 309.05799 
L 313.942813 316.210144 
L 314.651302 309.05799 
L 315.359791 330.51445 
L 316.776768 330.51445 
L 317.485257 316.210144 
L 318.193746 309.05799 
L 318.902235 316.210144 
L 319.610723 316.210144 
L 320.319212 323.362297 
L 321.027701 316.210144 
L 321.73619 323.362297 
L 323.153167 323.362297 
L 323.861656 330.51445 
L 324.570145 344.818756 
L 325.278634 344.818756 
L 325.987122 337.666603 
L 326.695611 344.818756 
L 327.4041 344.818756 
L 328.112589 337.666603 
L 328.821078 337.666603 
L 329.529566 316.210144 
L 330.238055 330.51445 
L 332.363521 330.51445 
L 333.07201 323.362297 
L 335.905965 323.362297 
L 336.614454 301.905837 
L 338.031432 287.601531 
L 338.73992 287.601531 
L 339.448409 294.753684 
L 340.156898 280.449378 
L 340.865387 301.905837 
L 341.573876 301.905837 
L 342.282364 316.210144 
L 342.990853 316.210144 
L 343.699342 323.362297 
L 345.116319 323.362297 
L 345.824808 309.05799 
L 346.533297 301.905837 
L 348.658763 301.905837 
L 349.367252 294.753684 
L 350.075741 301.905837 
L 350.78423 316.210144 
L 351.492719 309.05799 
L 352.201207 323.362297 
L 352.909696 330.51445 
L 353.618185 323.362297 
L 355.743651 323.362297 
L 356.45214 337.666603 
L 357.160629 323.362297 
L 357.869118 330.51445 
L 359.286095 330.51445 
L 359.994584 323.362297 
L 362.12005 323.362297 
L 362.828539 330.51445 
L 364.954005 330.51445 
L 365.662494 323.362297 
L 366.370983 323.362297 
L 367.079472 330.51445 
L 367.78796 330.51445 
L 368.496449 337.666603 
L 369.204938 337.666603 
L 369.913427 344.818756 
L 370.621916 344.818756 
L 371.330404 337.666603 
L 372.747382 337.666603 
L 373.455871 330.51445 
L 374.872848 330.51445 
L 375.581337 323.362297 
L 376.289826 323.362297 
L 376.998315 330.51445 
L 377.706803 330.51445 
L 378.415292 323.362297 
L 379.123781 330.51445 
L 379.83227 344.818756 
L 381.249247 344.818756 
L 381.957736 337.666603 
L 382.666225 337.666603 
L 384.083202 323.362297 
L 386.208669 344.818756 
L 388.334135 344.818756 
L 389.042624 337.666603 
L 390.459601 337.666603 
L 391.16809 330.51445 
L 391.876579 337.666603 
L 392.585068 337.666603 
L 393.293557 330.51445 
L 394.002045 337.666603 
L 395.419023 323.362297 
L 396.836001 337.666603 
L 397.544489 337.666603 
L 398.252978 330.51445 
L 398.961467 337.666603 
L 401.086933 337.666603 
L 401.795422 330.51445 
L 402.503911 337.666603 
L 403.2124 337.666603 
L 403.920888 344.818756 
L 408.171821 344.818756 
L 408.88031 330.51445 
L 409.588799 337.666603 
L 413.131242 337.666603 
L 413.839731 344.818756 
L 414.54822 344.818756 
L 415.256709 337.666603 
L 415.965198 337.666603 
L 416.673686 344.818756 
L 418.090664 344.818756 
L 418.799153 351.970909 
L 419.507642 351.970909 
L 420.21613 344.818756 
L 428.009507 344.818756 
L 428.717996 337.666603 
L 431.551951 337.666603 
L 432.26044 344.818756 
L 432.968928 344.818756 
L 433.677417 351.970909 
L 440.762305 351.970909 
L 441.470794 344.818756 
L 446.430215 344.818756 
L 447.138704 351.970909 
L 451.389637 351.970909 
L 452.806614 337.666603 
L 453.515103 351.970909 
L 469.810345 351.970909 
L 470.518834 344.818756 
L 471.935811 344.818756 
L 472.6443 337.666603 
L 473.352789 337.666603 
L 474.769766 351.970909 
L 493.898964 351.970909 
L 494.607452 344.818756 
L 495.315941 351.970909 
L 497.441407 351.970909 
L 497.441407 351.970909 
" style="fill:none;stroke:#ff7f0e;stroke-linecap:square;stroke-width:1.5;"/>
   </g>
   <g id="line2d_18">
    <path clip-path="url(#p8bae9efb5b)" d="M 84.392448 351.970909 
L 85.100937 323.362297 
L 85.809426 301.905837 
L 86.517914 273.297225 
L 87.226403 273.297225 
L 87.934892 251.840766 
L 90.768847 251.840766 
L 91.477336 230.384306 
L 93.602802 273.297225 
L 94.311291 258.992919 
L 95.01978 287.601531 
L 95.728268 258.992919 
L 97.145246 258.992919 
L 97.853735 251.840766 
L 98.562224 251.840766 
L 99.270712 244.688612 
L 99.979201 244.688612 
L 100.68769 258.992919 
L 101.396179 266.145072 
L 102.104668 258.992919 
L 103.521645 230.384306 
L 104.230134 266.145072 
L 104.938623 266.145072 
L 106.3556 251.840766 
L 107.064089 251.840766 
L 107.772578 244.688612 
L 108.481067 266.145072 
L 109.189555 273.297225 
L 109.898044 266.145072 
L 111.315022 294.753684 
L 112.02351 273.297225 
L 112.731999 266.145072 
L 113.440488 287.601531 
L 114.148977 287.601531 
L 114.857466 301.905837 
L 115.565954 309.05799 
L 116.274443 301.905837 
L 116.982932 301.905837 
L 117.691421 287.601531 
L 118.399909 280.449378 
L 119.108398 280.449378 
L 121.233865 301.905837 
L 121.942353 323.362297 
L 122.650842 309.05799 
L 123.359331 316.210144 
L 124.06782 309.05799 
L 124.776309 309.05799 
L 125.484797 316.210144 
L 126.193286 294.753684 
L 126.901775 301.905837 
L 127.610264 301.905837 
L 128.318752 287.601531 
L 129.027241 309.05799 
L 129.73573 294.753684 
L 130.444219 287.601531 
L 131.152708 301.905837 
L 131.861196 287.601531 
L 132.569685 301.905837 
L 133.278174 294.753684 
L 133.986663 309.05799 
L 134.695151 301.905837 
L 136.112129 301.905837 
L 136.820618 294.753684 
L 137.529107 309.05799 
L 138.237595 301.905837 
L 138.946084 280.449378 
L 139.654573 280.449378 
L 140.363062 301.905837 
L 141.07155 294.753684 
L 141.780039 301.905837 
L 142.488528 301.905837 
L 143.197017 294.753684 
L 143.905506 294.753684 
L 144.613994 309.05799 
L 145.322483 301.905837 
L 146.030972 287.601531 
L 146.739461 287.601531 
L 147.44795 309.05799 
L 148.864927 294.753684 
L 149.573416 280.449378 
L 150.990393 309.05799 
L 151.698882 309.05799 
L 152.407371 316.210144 
L 153.11586 316.210144 
L 153.824349 309.05799 
L 154.532837 323.362297 
L 155.241326 323.362297 
L 155.949815 316.210144 
L 156.658304 323.362297 
L 157.366792 323.362297 
L 158.075281 330.51445 
L 159.492259 316.210144 
L 160.200748 323.362297 
L 161.617725 323.362297 
L 162.326214 316.210144 
L 163.034703 301.905837 
L 163.743191 316.210144 
L 165.160169 301.905837 
L 165.868658 323.362297 
L 166.577147 337.666603 
L 167.285635 337.666603 
L 167.994124 330.51445 
L 168.702613 316.210144 
L 169.411102 323.362297 
L 170.119591 316.210144 
L 170.828079 316.210144 
L 172.953546 294.753684 
L 173.662034 301.905837 
L 174.370523 301.905837 
L 175.079012 309.05799 
L 175.787501 309.05799 
L 176.49599 287.601531 
L 177.204478 280.449378 
L 177.912967 309.05799 
L 178.621456 287.601531 
L 179.329945 287.601531 
L 180.038433 309.05799 
L 180.746922 301.905837 
L 181.455411 287.601531 
L 182.872389 301.905837 
L 183.580877 301.905837 
L 184.289366 294.753684 
L 184.997855 301.905837 
L 185.706344 316.210144 
L 186.414832 294.753684 
L 187.123321 280.449378 
L 187.83181 273.297225 
L 188.540299 294.753684 
L 189.248788 280.449378 
L 189.957276 280.449378 
L 191.374254 294.753684 
L 192.082743 287.601531 
L 192.791232 273.297225 
L 193.49972 280.449378 
L 194.208209 294.753684 
L 195.625187 309.05799 
L 196.333675 309.05799 
L 197.042164 323.362297 
L 197.750653 301.905837 
L 198.459142 309.05799 
L 199.167631 294.753684 
L 199.876119 301.905837 
L 200.584608 316.210144 
L 201.293097 301.905837 
L 202.001586 309.05799 
L 204.127052 309.05799 
L 204.835541 316.210144 
L 205.54403 309.05799 
L 206.252518 316.210144 
L 209.086473 316.210144 
L 209.794962 309.05799 
L 210.503451 294.753684 
L 211.21194 309.05799 
L 211.920429 301.905837 
L 212.628917 316.210144 
L 213.337406 309.05799 
L 214.045895 316.210144 
L 214.754384 301.905837 
L 216.171361 330.51445 
L 216.87985 330.51445 
L 217.588339 337.666603 
L 218.296828 330.51445 
L 219.005316 316.210144 
L 219.713805 330.51445 
L 221.839272 330.51445 
L 222.54776 316.210144 
L 223.256249 316.210144 
L 223.964738 323.362297 
L 224.673227 316.210144 
L 226.090204 330.51445 
L 226.798693 301.905837 
L 228.215671 301.905837 
L 228.924159 323.362297 
L 229.632648 330.51445 
L 231.049626 330.51445 
L 231.758114 316.210144 
L 232.466603 323.362297 
L 233.175092 323.362297 
L 233.883581 330.51445 
L 234.59207 323.362297 
L 235.300558 330.51445 
L 236.009047 316.210144 
L 236.717536 323.362297 
L 237.426025 309.05799 
L 238.134514 316.210144 
L 238.843002 337.666603 
L 239.551491 344.818756 
L 240.25998 344.818756 
L 240.968469 337.666603 
L 243.093935 337.666603 
L 243.802424 330.51445 
L 244.510913 344.818756 
L 245.219401 330.51445 
L 246.636379 330.51445 
L 247.344868 323.362297 
L 248.053356 337.666603 
L 248.761845 344.818756 
L 249.470334 330.51445 
L 250.887312 344.818756 
L 251.5958 344.818756 
L 252.304289 330.51445 
L 253.012778 323.362297 
L 253.721267 323.362297 
L 254.429755 337.666603 
L 255.846733 337.666603 
L 256.555222 330.51445 
L 257.263711 337.666603 
L 258.680688 337.666603 
L 260.097666 323.362297 
L 260.806155 309.05799 
L 261.514643 337.666603 
L 262.223132 344.818756 
L 262.931621 344.818756 
L 263.64011 337.666603 
L 264.348598 337.666603 
L 265.057087 316.210144 
L 266.474065 301.905837 
L 267.182554 316.210144 
L 267.891042 309.05799 
L 268.599531 316.210144 
L 269.30802 330.51445 
L 270.016509 323.362297 
L 270.724997 337.666603 
L 271.433486 323.362297 
L 272.141975 330.51445 
L 272.850464 330.51445 
L 273.558953 344.818756 
L 274.267441 344.818756 
L 274.97593 337.666603 
L 275.684419 323.362297 
L 276.392908 323.362297 
L 277.809885 309.05799 
L 278.518374 309.05799 
L 279.226863 301.905837 
L 279.935352 316.210144 
L 280.64384 309.05799 
L 282.060818 323.362297 
L 282.769307 316.210144 
L 283.477796 323.362297 
L 284.186284 323.362297 
L 284.894773 316.210144 
L 286.311751 330.51445 
L 287.728728 330.51445 
L 288.437217 323.362297 
L 289.145706 323.362297 
L 289.854195 316.210144 
L 290.562683 316.210144 
L 291.271172 301.905837 
L 291.979661 316.210144 
L 292.68815 323.362297 
L 293.396638 316.210144 
L 294.105127 316.210144 
L 294.813616 323.362297 
L 295.522105 309.05799 
L 296.230594 309.05799 
L 296.939082 323.362297 
L 297.647571 323.362297 
L 298.35606 330.51445 
L 299.064549 330.51445 
L 299.773037 316.210144 
L 300.481526 330.51445 
L 301.190015 330.51445 
L 301.898504 337.666603 
L 303.315481 323.362297 
L 304.02397 309.05799 
L 306.149437 330.51445 
L 306.857925 323.362297 
L 307.566414 330.51445 
L 309.69188 330.51445 
L 310.400369 323.362297 
L 311.108858 330.51445 
L 313.234324 330.51445 
L 313.942813 323.362297 
L 314.651302 330.51445 
L 315.359791 309.05799 
L 316.068279 323.362297 
L 316.776768 316.210144 
L 317.485257 330.51445 
L 318.193746 323.362297 
L 318.902235 323.362297 
L 319.610723 330.51445 
L 321.027701 330.51445 
L 322.444678 344.818756 
L 323.153167 330.51445 
L 323.861656 323.362297 
L 324.570145 323.362297 
L 325.987122 337.666603 
L 326.695611 330.51445 
L 327.4041 337.666603 
L 329.529566 337.666603 
L 330.238055 323.362297 
L 330.946544 337.666603 
L 331.655033 344.818756 
L 336.614454 344.818756 
L 338.73992 323.362297 
L 340.156898 337.666603 
L 340.865387 316.210144 
L 341.573876 323.362297 
L 342.990853 323.362297 
L 343.699342 337.666603 
L 344.407831 330.51445 
L 345.116319 330.51445 
L 346.533297 344.818756 
L 349.367252 344.818756 
L 350.075741 323.362297 
L 350.78423 316.210144 
L 351.492719 323.362297 
L 352.201207 316.210144 
L 352.909696 316.210144 
L 353.618185 323.362297 
L 354.326674 323.362297 
L 355.035162 337.666603 
L 355.743651 323.362297 
L 357.160629 323.362297 
L 357.869118 309.05799 
L 360.703073 337.666603 
L 361.411561 330.51445 
L 362.12005 344.818756 
L 363.537028 330.51445 
L 364.245517 337.666603 
L 367.78796 337.666603 
L 368.496449 330.51445 
L 369.913427 330.51445 
L 370.621916 344.818756 
L 372.747382 344.818756 
L 373.455871 351.970909 
L 376.289826 351.970909 
L 377.706803 337.666603 
L 378.415292 344.818756 
L 379.123781 337.666603 
L 379.83227 323.362297 
L 381.957736 323.362297 
L 383.374714 337.666603 
L 384.791691 323.362297 
L 385.50018 323.362297 
L 386.917158 337.666603 
L 387.625646 337.666603 
L 388.334135 344.818756 
L 389.042624 344.818756 
L 389.751113 337.666603 
L 391.16809 337.666603 
L 391.876579 330.51445 
L 392.585068 337.666603 
L 393.293557 337.666603 
L 394.002045 330.51445 
L 394.710534 330.51445 
L 395.419023 337.666603 
L 396.127512 330.51445 
L 396.836001 330.51445 
L 397.544489 337.666603 
L 398.252978 337.666603 
L 398.961467 330.51445 
L 399.669956 337.666603 
L 401.795422 337.666603 
L 402.503911 330.51445 
L 403.2124 337.666603 
L 403.920888 330.51445 
L 404.629377 330.51445 
L 406.046355 344.818756 
L 410.297287 344.818756 
L 411.005776 351.970909 
L 412.422754 351.970909 
L 413.839731 337.666603 
L 414.54822 351.970909 
L 415.965198 351.970909 
L 416.673686 344.818756 
L 417.382175 351.970909 
L 418.090664 351.970909 
L 418.799153 344.818756 
L 420.21613 344.818756 
L 420.924619 351.970909 
L 431.551951 351.970909 
L 432.26044 344.818756 
L 432.968928 351.970909 
L 433.677417 344.818756 
L 434.385906 351.970909 
L 446.430215 351.970909 
L 447.138704 344.818756 
L 452.806614 344.818756 
L 453.515103 330.51445 
L 454.223592 351.970909 
L 472.6443 351.970909 
L 474.061278 337.666603 
L 475.478255 337.666603 
L 476.186744 344.818756 
L 479.729188 344.818756 
L 480.437677 351.970909 
L 494.607452 351.970909 
L 495.315941 344.818756 
L 496.02443 351.970909 
L 497.441407 351.970909 
L 497.441407 351.970909 
" style="fill:none;stroke:#2ca02c;stroke-linecap:square;stroke-width:1.5;"/>
   </g>
   <g id="line2d_19">
    <path clip-path="url(#p8bae9efb5b)" d="M 84.392448 351.970909 
L 85.809426 351.970909 
L 86.517914 344.818756 
L 87.226403 323.362297 
L 87.934892 330.51445 
L 88.643381 301.905837 
L 89.351869 316.210144 
L 90.768847 330.51445 
L 91.477336 344.818756 
L 92.185825 330.51445 
L 92.894313 330.51445 
L 93.602802 344.818756 
L 95.01978 330.51445 
L 95.728268 337.666603 
L 96.436757 323.362297 
L 97.145246 316.210144 
L 97.853735 337.666603 
L 98.562224 337.666603 
L 99.979201 323.362297 
L 101.396179 337.666603 
L 103.521645 337.666603 
L 104.230134 316.210144 
L 106.3556 337.666603 
L 107.772578 337.666603 
L 108.481067 344.818756 
L 109.189555 330.51445 
L 109.898044 330.51445 
L 110.606533 316.210144 
L 111.315022 330.51445 
L 112.02351 330.51445 
L 112.731999 351.970909 
L 113.440488 330.51445 
L 114.148977 337.666603 
L 114.857466 330.51445 
L 115.565954 344.818756 
L 116.274443 344.818756 
L 116.982932 337.666603 
L 117.691421 344.818756 
L 118.399909 344.818756 
L 119.108398 330.51445 
L 120.525376 330.51445 
L 121.233865 344.818756 
L 121.942353 323.362297 
L 122.650842 330.51445 
L 123.359331 323.362297 
L 124.06782 323.362297 
L 124.776309 337.666603 
L 125.484797 330.51445 
L 126.193286 337.666603 
L 127.610264 323.362297 
L 129.027241 323.362297 
L 129.73573 330.51445 
L 131.152708 330.51445 
L 131.861196 337.666603 
L 132.569685 316.210144 
L 133.278174 330.51445 
L 133.986663 330.51445 
L 134.695151 337.666603 
L 135.40364 337.666603 
L 136.112129 330.51445 
L 137.529107 330.51445 
L 138.237595 337.666603 
L 139.654573 337.666603 
L 140.363062 316.210144 
L 141.07155 323.362297 
L 141.780039 323.362297 
L 142.488528 337.666603 
L 143.197017 344.818756 
L 143.905506 344.818756 
L 144.613994 330.51445 
L 146.030972 330.51445 
L 147.44795 316.210144 
L 149.573416 337.666603 
L 150.281905 309.05799 
L 152.407371 309.05799 
L 153.11586 316.210144 
L 153.824349 330.51445 
L 154.532837 323.362297 
L 156.658304 323.362297 
L 157.366792 330.51445 
L 158.075281 316.210144 
L 158.78377 330.51445 
L 159.492259 323.362297 
L 161.617725 344.818756 
L 163.034703 344.818756 
L 163.743191 330.51445 
L 164.45168 330.51445 
L 165.160169 337.666603 
L 165.868658 316.210144 
L 166.577147 309.05799 
L 167.285635 323.362297 
L 167.994124 330.51445 
L 168.702613 330.51445 
L 170.119591 344.818756 
L 170.828079 330.51445 
L 172.245057 344.818756 
L 172.953546 344.818756 
L 173.662034 337.666603 
L 174.370523 344.818756 
L 175.079012 337.666603 
L 175.787501 351.970909 
L 176.49599 351.970909 
L 177.204478 344.818756 
L 177.912967 330.51445 
L 178.621456 344.818756 
L 179.329945 330.51445 
L 180.038433 309.05799 
L 180.746922 330.51445 
L 181.455411 344.818756 
L 182.1639 337.666603 
L 182.872389 344.818756 
L 183.580877 344.818756 
L 184.289366 351.970909 
L 186.414832 330.51445 
L 187.123321 344.818756 
L 187.83181 344.818756 
L 188.540299 337.666603 
L 189.248788 351.970909 
L 190.665765 337.666603 
L 191.374254 323.362297 
L 192.082743 337.666603 
L 192.791232 344.818756 
L 193.49972 330.51445 
L 195.625187 330.51445 
L 196.333675 337.666603 
L 197.042164 337.666603 
L 197.750653 351.970909 
L 198.459142 344.818756 
L 199.876119 344.818756 
L 200.584608 330.51445 
L 201.293097 344.818756 
L 202.001586 330.51445 
L 202.710074 330.51445 
L 203.418563 323.362297 
L 204.127052 337.666603 
L 204.835541 344.818756 
L 205.54403 344.818756 
L 206.252518 337.666603 
L 206.961007 337.666603 
L 207.669496 330.51445 
L 208.377985 330.51445 
L 209.086473 337.666603 
L 209.794962 351.970909 
L 210.503451 344.818756 
L 211.21194 330.51445 
L 211.920429 330.51445 
L 212.628917 323.362297 
L 213.337406 351.970909 
L 216.171361 323.362297 
L 216.87985 330.51445 
L 217.588339 344.818756 
L 218.296828 351.970909 
L 219.005316 351.970909 
L 219.713805 337.666603 
L 220.422294 337.666603 
L 221.130783 344.818756 
L 223.964738 344.818756 
L 224.673227 351.970909 
L 225.381715 344.818756 
L 226.090204 344.818756 
L 226.798693 351.970909 
L 227.507182 344.818756 
L 228.215671 344.818756 
L 228.924159 330.51445 
L 230.341137 344.818756 
L 231.049626 344.818756 
L 231.758114 351.970909 
L 232.466603 344.818756 
L 233.883581 344.818756 
L 234.59207 351.970909 
L 235.300558 344.818756 
L 236.009047 344.818756 
L 236.717536 337.666603 
L 237.426025 344.818756 
L 238.134514 330.51445 
L 238.843002 323.362297 
L 239.551491 337.666603 
L 241.676957 337.666603 
L 243.093935 351.970909 
L 243.802424 351.970909 
L 244.510913 337.666603 
L 245.92789 351.970909 
L 246.636379 344.818756 
L 247.344868 351.970909 
L 248.053356 337.666603 
L 248.761845 330.51445 
L 249.470334 337.666603 
L 251.5958 337.666603 
L 252.304289 344.818756 
L 253.721267 344.818756 
L 254.429755 330.51445 
L 255.138244 330.51445 
L 256.555222 316.210144 
L 257.972199 330.51445 
L 258.680688 344.818756 
L 259.389177 351.970909 
L 260.806155 351.970909 
L 261.514643 323.362297 
L 262.223132 344.818756 
L 262.931621 351.970909 
L 263.64011 351.970909 
L 264.348598 337.666603 
L 265.057087 344.818756 
L 265.765576 337.666603 
L 267.182554 337.666603 
L 268.599531 323.362297 
L 269.30802 323.362297 
L 270.016509 330.51445 
L 270.724997 316.210144 
L 271.433486 337.666603 
L 272.141975 330.51445 
L 272.850464 337.666603 
L 273.558953 323.362297 
L 274.267441 323.362297 
L 275.684419 337.666603 
L 276.392908 337.666603 
L 277.101396 344.818756 
L 277.809885 344.818756 
L 278.518374 337.666603 
L 279.226863 344.818756 
L 279.935352 330.51445 
L 281.352329 344.818756 
L 282.060818 344.818756 
L 282.769307 351.970909 
L 283.477796 344.818756 
L 284.186284 351.970909 
L 284.894773 351.970909 
L 286.311751 337.666603 
L 287.020239 351.970909 
L 287.728728 344.818756 
L 288.437217 344.818756 
L 289.145706 337.666603 
L 289.854195 344.818756 
L 290.562683 344.818756 
L 291.271172 351.970909 
L 291.979661 330.51445 
L 292.68815 330.51445 
L 293.396638 337.666603 
L 294.105127 337.666603 
L 294.813616 330.51445 
L 295.522105 330.51445 
L 296.230594 323.362297 
L 298.35606 323.362297 
L 299.064549 330.51445 
L 299.773037 330.51445 
L 300.481526 316.210144 
L 301.190015 330.51445 
L 301.898504 330.51445 
L 303.315481 344.818756 
L 304.02397 344.818756 
L 304.732459 337.666603 
L 306.149437 337.666603 
L 306.857925 344.818756 
L 307.566414 337.666603 
L 308.274903 344.818756 
L 309.69188 344.818756 
L 310.400369 351.970909 
L 311.108858 344.818756 
L 311.817347 351.970909 
L 313.942813 351.970909 
L 314.651302 344.818756 
L 315.359791 351.970909 
L 316.068279 337.666603 
L 316.776768 337.666603 
L 317.485257 323.362297 
L 318.193746 344.818756 
L 318.902235 337.666603 
L 319.610723 337.666603 
L 320.319212 330.51445 
L 321.027701 344.818756 
L 321.73619 337.666603 
L 322.444678 337.666603 
L 323.153167 344.818756 
L 324.570145 330.51445 
L 326.695611 330.51445 
L 327.4041 323.362297 
L 328.112589 337.666603 
L 330.238055 337.666603 
L 330.946544 330.51445 
L 331.655033 330.51445 
L 333.07201 344.818756 
L 338.73992 344.818756 
L 339.448409 330.51445 
L 340.156898 337.666603 
L 340.865387 337.666603 
L 341.573876 330.51445 
L 342.282364 337.666603 
L 342.990853 337.666603 
L 343.699342 316.210144 
L 344.407831 330.51445 
L 345.116319 337.666603 
L 345.824808 337.666603 
L 346.533297 330.51445 
L 347.950275 344.818756 
L 350.075741 344.818756 
L 350.78423 337.666603 
L 352.201207 337.666603 
L 352.909696 351.970909 
L 353.618185 344.818756 
L 355.035162 344.818756 
L 355.743651 351.970909 
L 356.45214 337.666603 
L 357.160629 337.666603 
L 357.869118 344.818756 
L 358.577606 337.666603 
L 359.994584 337.666603 
L 360.703073 344.818756 
L 361.411561 344.818756 
L 362.12005 337.666603 
L 362.828539 344.818756 
L 367.079472 344.818756 
L 367.78796 351.970909 
L 369.204938 351.970909 
L 370.621916 337.666603 
L 372.038893 351.970909 
L 372.747382 351.970909 
L 373.455871 344.818756 
L 376.998315 344.818756 
L 377.706803 351.970909 
L 378.415292 344.818756 
L 379.123781 351.970909 
L 382.666225 351.970909 
L 383.374714 344.818756 
L 384.791691 344.818756 
L 385.50018 337.666603 
L 386.208669 323.362297 
L 387.625646 337.666603 
L 389.042624 337.666603 
L 389.751113 344.818756 
L 390.459601 337.666603 
L 391.876579 351.970909 
L 392.585068 344.818756 
L 394.710534 344.818756 
L 395.419023 337.666603 
L 396.127512 337.666603 
L 396.836001 330.51445 
L 397.544489 330.51445 
L 398.252978 337.666603 
L 398.961467 337.666603 
L 400.378444 351.970909 
L 402.503911 351.970909 
L 403.2124 344.818756 
L 404.629377 344.818756 
L 405.337866 337.666603 
L 406.046355 337.666603 
L 406.754843 344.818756 
L 407.463332 344.818756 
L 408.171821 351.970909 
L 408.88031 351.970909 
L 409.588799 344.818756 
L 413.839731 344.818756 
L 414.54822 330.51445 
L 415.256709 330.51445 
L 415.965198 337.666603 
L 416.673686 337.666603 
L 417.382175 330.51445 
L 418.090664 330.51445 
L 418.799153 337.666603 
L 420.924619 337.666603 
L 421.633108 344.818756 
L 428.009507 344.818756 
L 428.717996 351.970909 
L 432.26044 351.970909 
L 432.968928 344.818756 
L 433.677417 351.970909 
L 434.385906 344.818756 
L 443.59626 344.818756 
L 444.304749 351.970909 
L 453.515103 351.970909 
L 454.223592 330.51445 
L 454.932081 337.666603 
L 455.640569 351.970909 
L 474.061278 351.970909 
L 474.769766 344.818756 
L 479.020699 344.818756 
L 479.729188 351.970909 
L 495.315941 351.970909 
L 496.02443 344.818756 
L 496.732919 351.970909 
L 497.441407 351.970909 
L 497.441407 351.970909 
" style="fill:none;stroke:#d62728;stroke-linecap:square;stroke-width:1.5;"/>
   </g>
   <g id="line2d_20">
    <path clip-path="url(#p8bae9efb5b)" d="M 84.392448 351.970909 
L 87.226403 351.970909 
L 88.643381 337.666603 
L 89.351869 323.362297 
L 90.060358 344.818756 
L 90.768847 337.666603 
L 91.477336 323.362297 
L 92.185825 337.666603 
L 92.894313 330.51445 
L 93.602802 330.51445 
L 94.311291 337.666603 
L 95.01978 337.666603 
L 95.728268 330.51445 
L 97.145246 330.51445 
L 97.853735 309.05799 
L 98.562224 323.362297 
L 99.270712 330.51445 
L 99.979201 330.51445 
L 102.104668 309.05799 
L 102.813156 323.362297 
L 103.521645 323.362297 
L 104.230134 316.210144 
L 104.938623 301.905837 
L 105.647111 316.210144 
L 106.3556 309.05799 
L 107.064089 309.05799 
L 107.772578 323.362297 
L 108.481067 316.210144 
L 109.189555 323.362297 
L 109.898044 309.05799 
L 112.02351 309.05799 
L 112.731999 301.905837 
L 113.440488 323.362297 
L 114.148977 309.05799 
L 116.274443 309.05799 
L 116.982932 323.362297 
L 117.691421 316.210144 
L 118.399909 330.51445 
L 119.108398 330.51445 
L 119.816887 316.210144 
L 120.525376 316.210144 
L 121.233865 309.05799 
L 123.359331 309.05799 
L 124.776309 294.753684 
L 125.484797 330.51445 
L 126.193286 323.362297 
L 126.901775 337.666603 
L 127.610264 337.666603 
L 129.027241 323.362297 
L 129.73573 323.362297 
L 130.444219 330.51445 
L 131.152708 323.362297 
L 131.861196 309.05799 
L 132.569685 316.210144 
L 133.278174 309.05799 
L 133.986663 309.05799 
L 134.695151 316.210144 
L 135.40364 309.05799 
L 136.820618 309.05799 
L 137.529107 316.210144 
L 138.237595 316.210144 
L 138.946084 323.362297 
L 140.363062 323.362297 
L 141.07155 316.210144 
L 141.780039 330.51445 
L 142.488528 316.210144 
L 143.197017 330.51445 
L 144.613994 330.51445 
L 145.322483 323.362297 
L 146.030972 323.362297 
L 146.739461 330.51445 
L 147.44795 323.362297 
L 148.156438 323.362297 
L 148.864927 309.05799 
L 149.573416 323.362297 
L 150.281905 330.51445 
L 151.698882 316.210144 
L 152.407371 316.210144 
L 153.824349 301.905837 
L 154.532837 316.210144 
L 155.241326 316.210144 
L 156.658304 330.51445 
L 157.366792 323.362297 
L 158.075281 330.51445 
L 158.78377 323.362297 
L 159.492259 323.362297 
L 160.200748 316.210144 
L 160.909236 323.362297 
L 163.743191 323.362297 
L 164.45168 330.51445 
L 165.160169 323.362297 
L 166.577147 323.362297 
L 167.285635 316.210144 
L 167.994124 323.362297 
L 168.702613 337.666603 
L 169.411102 330.51445 
L 170.828079 330.51445 
L 171.536568 323.362297 
L 172.245057 337.666603 
L 173.662034 337.666603 
L 174.370523 344.818756 
L 175.079012 344.818756 
L 175.787501 337.666603 
L 176.49599 351.970909 
L 177.204478 351.970909 
L 178.621456 337.666603 
L 179.329945 337.666603 
L 180.038433 344.818756 
L 180.746922 323.362297 
L 181.455411 316.210144 
L 182.1639 316.210144 
L 182.872389 309.05799 
L 183.580877 323.362297 
L 184.997855 337.666603 
L 186.414832 337.666603 
L 187.123321 323.362297 
L 187.83181 316.210144 
L 189.248788 316.210144 
L 189.957276 330.51445 
L 190.665765 323.362297 
L 191.374254 323.362297 
L 192.082743 309.05799 
L 192.791232 309.05799 
L 194.208209 294.753684 
L 194.916698 301.905837 
L 195.625187 316.210144 
L 196.333675 316.210144 
L 197.042164 301.905837 
L 197.750653 294.753684 
L 198.459142 309.05799 
L 200.584608 330.51445 
L 201.293097 316.210144 
L 202.001586 323.362297 
L 202.710074 316.210144 
L 203.418563 323.362297 
L 204.127052 301.905837 
L 204.835541 294.753684 
L 205.54403 316.210144 
L 206.252518 323.362297 
L 206.961007 323.362297 
L 207.669496 330.51445 
L 209.086473 330.51445 
L 209.794962 316.210144 
L 210.503451 323.362297 
L 211.21194 323.362297 
L 211.920429 316.210144 
L 212.628917 316.210144 
L 213.337406 294.753684 
L 214.045895 330.51445 
L 215.462873 330.51445 
L 216.87985 301.905837 
L 217.588339 294.753684 
L 218.296828 309.05799 
L 219.005316 316.210144 
L 219.713805 330.51445 
L 221.839272 330.51445 
L 223.256249 344.818756 
L 223.964738 344.818756 
L 224.673227 337.666603 
L 225.381715 344.818756 
L 226.798693 330.51445 
L 227.507182 337.666603 
L 228.215671 330.51445 
L 228.924159 330.51445 
L 229.632648 323.362297 
L 230.341137 323.362297 
L 231.049626 330.51445 
L 231.758114 330.51445 
L 232.466603 344.818756 
L 233.175092 344.818756 
L 233.883581 337.666603 
L 234.59207 337.666603 
L 236.009047 351.970909 
L 236.717536 351.970909 
L 237.426025 344.818756 
L 238.134514 344.818756 
L 238.843002 330.51445 
L 240.25998 344.818756 
L 240.968469 344.818756 
L 241.676957 337.666603 
L 242.385446 323.362297 
L 243.093935 330.51445 
L 243.802424 330.51445 
L 244.510913 344.818756 
L 245.219401 344.818756 
L 245.92789 337.666603 
L 246.636379 344.818756 
L 247.344868 337.666603 
L 248.053356 337.666603 
L 248.761845 344.818756 
L 249.470334 344.818756 
L 250.887312 330.51445 
L 252.304289 330.51445 
L 253.012778 337.666603 
L 254.429755 337.666603 
L 255.138244 330.51445 
L 256.555222 330.51445 
L 257.263711 323.362297 
L 257.972199 323.362297 
L 260.097666 344.818756 
L 261.514643 344.818756 
L 262.223132 323.362297 
L 262.931621 323.362297 
L 263.64011 337.666603 
L 266.474065 337.666603 
L 267.891042 351.970909 
L 269.30802 337.666603 
L 270.724997 351.970909 
L 271.433486 330.51445 
L 272.141975 344.818756 
L 272.850464 337.666603 
L 273.558953 344.818756 
L 275.684419 344.818756 
L 276.392908 337.666603 
L 277.101396 337.666603 
L 277.809885 344.818756 
L 279.226863 330.51445 
L 279.935352 337.666603 
L 280.64384 323.362297 
L 281.352329 323.362297 
L 282.060818 337.666603 
L 282.769307 337.666603 
L 283.477796 344.818756 
L 284.186284 337.666603 
L 284.894773 351.970909 
L 286.311751 351.970909 
L 287.020239 337.666603 
L 287.728728 351.970909 
L 289.145706 351.970909 
L 289.854195 344.818756 
L 290.562683 351.970909 
L 291.271172 344.818756 
L 292.68815 344.818756 
L 293.396638 337.666603 
L 296.939082 337.666603 
L 297.647571 344.818756 
L 298.35606 337.666603 
L 299.064549 337.666603 
L 299.773037 344.818756 
L 300.481526 344.818756 
L 301.190015 337.666603 
L 301.898504 344.818756 
L 302.606993 337.666603 
L 303.315481 337.666603 
L 304.02397 344.818756 
L 305.440948 344.818756 
L 306.857925 330.51445 
L 307.566414 330.51445 
L 308.274903 323.362297 
L 308.983392 330.51445 
L 309.69188 344.818756 
L 311.817347 344.818756 
L 312.525836 351.970909 
L 314.651302 351.970909 
L 315.359791 344.818756 
L 317.485257 344.818756 
L 318.193746 323.362297 
L 318.902235 344.818756 
L 320.319212 344.818756 
L 321.027701 330.51445 
L 321.73619 323.362297 
L 322.444678 337.666603 
L 323.861656 351.970909 
L 324.570145 344.818756 
L 326.695611 344.818756 
L 327.4041 351.970909 
L 328.112589 337.666603 
L 328.821078 337.666603 
L 329.529566 344.818756 
L 330.238055 344.818756 
L 330.946544 337.666603 
L 331.655033 337.666603 
L 332.363521 330.51445 
L 333.07201 344.818756 
L 333.780499 351.970909 
L 339.448409 351.970909 
L 340.156898 344.818756 
L 340.865387 344.818756 
L 341.573876 351.970909 
L 342.282364 337.666603 
L 343.699342 351.970909 
L 345.116319 337.666603 
L 345.824808 337.666603 
L 346.533297 344.818756 
L 347.950275 330.51445 
L 348.658763 337.666603 
L 349.367252 337.666603 
L 350.075741 344.818756 
L 350.78423 344.818756 
L 351.492719 337.666603 
L 352.201207 344.818756 
L 352.909696 330.51445 
L 353.618185 344.818756 
L 355.743651 344.818756 
L 356.45214 351.970909 
L 357.160629 351.970909 
L 357.869118 344.818756 
L 358.577606 344.818756 
L 359.286095 337.666603 
L 360.703073 337.666603 
L 361.411561 351.970909 
L 362.828539 337.666603 
L 363.537028 337.666603 
L 364.245517 330.51445 
L 364.954005 337.666603 
L 365.662494 337.666603 
L 366.370983 344.818756 
L 367.079472 344.818756 
L 367.78796 337.666603 
L 369.204938 337.666603 
L 369.913427 344.818756 
L 371.330404 330.51445 
L 372.747382 330.51445 
L 374.16436 344.818756 
L 376.998315 344.818756 
L 377.706803 337.666603 
L 378.415292 337.666603 
L 379.123781 330.51445 
L 380.540759 344.818756 
L 386.208669 344.818756 
L 386.917158 330.51445 
L 387.625646 330.51445 
L 388.334135 337.666603 
L 389.042624 337.666603 
L 389.751113 344.818756 
L 390.459601 344.818756 
L 391.16809 337.666603 
L 395.419023 337.666603 
L 396.127512 344.818756 
L 396.836001 344.818756 
L 397.544489 337.666603 
L 398.252978 337.666603 
L 398.961467 344.818756 
L 399.669956 337.666603 
L 400.378444 337.666603 
L 401.086933 344.818756 
L 401.795422 344.818756 
L 402.503911 351.970909 
L 406.046355 351.970909 
L 406.754843 344.818756 
L 408.171821 344.818756 
L 408.88031 351.970909 
L 410.297287 351.970909 
L 411.005776 344.818756 
L 411.714265 351.970909 
L 415.256709 351.970909 
L 415.965198 344.818756 
L 418.090664 344.818756 
L 418.799153 337.666603 
L 419.507642 344.818756 
L 420.21613 344.818756 
L 421.633108 330.51445 
L 422.341597 351.970909 
L 428.009507 351.970909 
L 428.717996 344.818756 
L 429.426484 351.970909 
L 432.968928 351.970909 
L 433.677417 344.818756 
L 434.385906 351.970909 
L 443.59626 351.970909 
L 444.304749 344.818756 
L 449.972659 344.818756 
L 450.681148 351.970909 
L 454.223592 351.970909 
L 455.640569 337.666603 
L 457.057547 351.970909 
L 475.478255 351.970909 
L 476.186744 344.818756 
L 476.895233 351.970909 
L 479.020699 351.970909 
L 479.729188 344.818756 
L 480.437677 351.970909 
L 496.02443 351.970909 
L 496.732919 344.818756 
L 497.441407 351.970909 
L 497.441407 351.970909 
" style="fill:none;stroke:#9467bd;stroke-linecap:square;stroke-width:1.5;"/>
   </g>
   <g id="line2d_21">
    <path clip-path="url(#p8bae9efb5b)" d="M 84.392448 351.970909 
L 88.643381 351.970909 
L 89.351869 344.818756 
L 90.060358 316.210144 
L 90.768847 316.210144 
L 91.477336 309.05799 
L 92.185825 294.753684 
L 92.894313 287.601531 
L 93.602802 287.601531 
L 94.311291 280.449378 
L 97.145246 280.449378 
L 97.853735 287.601531 
L 98.562224 273.297225 
L 99.270712 273.297225 
L 100.68769 258.992919 
L 101.396179 266.145072 
L 102.813156 266.145072 
L 106.3556 230.384306 
L 107.064089 230.384306 
L 107.772578 216.08 
L 108.481067 223.232153 
L 109.898044 223.232153 
L 110.606533 216.08 
L 111.315022 216.08 
L 112.02351 208.927847 
L 112.731999 208.927847 
L 113.440488 187.471388 
L 114.148977 194.623541 
L 114.857466 194.623541 
L 116.274443 180.319234 
L 116.982932 166.014928 
L 117.691421 166.014928 
L 118.399909 151.710622 
L 119.108398 158.862775 
L 120.525376 158.862775 
L 121.233865 173.167081 
L 122.650842 187.471388 
L 123.359331 180.319234 
L 124.06782 194.623541 
L 124.776309 187.471388 
L 125.484797 173.167081 
L 126.193286 180.319234 
L 126.901775 173.167081 
L 127.610264 180.319234 
L 129.73573 180.319234 
L 130.444219 187.471388 
L 131.152708 187.471388 
L 131.861196 201.775694 
L 132.569685 208.927847 
L 133.278174 208.927847 
L 133.986663 201.775694 
L 134.695151 187.471388 
L 135.40364 187.471388 
L 136.112129 180.319234 
L 136.820618 201.775694 
L 137.529107 187.471388 
L 138.237595 187.471388 
L 138.946084 194.623541 
L 139.654573 194.623541 
L 140.363062 216.08 
L 141.07155 216.08 
L 141.780039 208.927847 
L 142.488528 208.927847 
L 143.197017 201.775694 
L 145.322483 201.775694 
L 146.739461 187.471388 
L 147.44795 187.471388 
L 148.156438 180.319234 
L 148.864927 180.319234 
L 149.573416 173.167081 
L 150.281905 180.319234 
L 151.698882 180.319234 
L 152.407371 173.167081 
L 153.11586 180.319234 
L 153.824349 173.167081 
L 154.532837 158.862775 
L 155.241326 166.014928 
L 156.658304 151.710622 
L 157.366792 151.710622 
L 158.075281 144.558469 
L 160.200748 144.558469 
L 160.909236 130.254163 
L 161.617725 137.406316 
L 164.45168 137.406316 
L 165.160169 144.558469 
L 165.868658 144.558469 
L 167.285635 158.862775 
L 168.702613 130.254163 
L 171.536568 130.254163 
L 172.245057 108.797703 
L 173.662034 123.10201 
L 174.370523 123.10201 
L 175.079012 137.406316 
L 175.787501 144.558469 
L 177.204478 144.558469 
L 177.912967 151.710622 
L 180.038433 151.710622 
L 180.746922 173.167081 
L 181.455411 158.862775 
L 182.1639 166.014928 
L 182.872389 166.014928 
L 184.289366 137.406316 
L 184.997855 144.558469 
L 185.706344 158.862775 
L 187.123321 173.167081 
L 189.248788 173.167081 
L 189.957276 158.862775 
L 190.665765 166.014928 
L 192.082743 166.014928 
L 192.791232 158.862775 
L 193.49972 158.862775 
L 194.208209 151.710622 
L 194.916698 158.862775 
L 195.625187 144.558469 
L 197.042164 158.862775 
L 197.750653 151.710622 
L 198.459142 166.014928 
L 199.167631 158.862775 
L 199.876119 144.558469 
L 201.293097 144.558469 
L 202.001586 137.406316 
L 203.418563 151.710622 
L 204.127052 151.710622 
L 204.835541 144.558469 
L 205.54403 130.254163 
L 206.252518 123.10201 
L 207.669496 123.10201 
L 208.377985 137.406316 
L 209.794962 137.406316 
L 210.503451 144.558469 
L 211.21194 137.406316 
L 211.920429 151.710622 
L 213.337406 151.710622 
L 214.045895 115.949856 
L 215.462873 115.949856 
L 216.87985 130.254163 
L 217.588339 115.949856 
L 218.296828 94.493397 
L 219.005316 101.64555 
L 219.713805 94.493397 
L 221.130783 108.797703 
L 221.839272 108.797703 
L 222.54776 115.949856 
L 223.256249 108.797703 
L 223.964738 115.949856 
L 224.673227 115.949856 
L 225.381715 108.797703 
L 226.090204 115.949856 
L 226.798693 115.949856 
L 227.507182 108.797703 
L 228.215671 108.797703 
L 228.924159 101.64555 
L 229.632648 101.64555 
L 231.758114 80.189091 
L 233.175092 80.189091 
L 234.59207 94.493397 
L 236.009047 94.493397 
L 237.426025 108.797703 
L 240.968469 108.797703 
L 242.385446 123.10201 
L 243.093935 115.949856 
L 243.802424 137.406316 
L 244.510913 130.254163 
L 247.344868 130.254163 
L 248.053356 144.558469 
L 248.761845 137.406316 
L 249.470334 137.406316 
L 250.178823 144.558469 
L 253.012778 115.949856 
L 253.721267 130.254163 
L 254.429755 130.254163 
L 255.138244 151.710622 
L 256.555222 166.014928 
L 257.263711 180.319234 
L 257.972199 166.014928 
L 258.680688 144.558469 
L 260.097666 130.254163 
L 260.806155 144.558469 
L 261.514643 144.558469 
L 262.931621 158.862775 
L 263.64011 144.558469 
L 264.348598 151.710622 
L 265.057087 144.558469 
L 265.765576 144.558469 
L 266.474065 137.406316 
L 267.182554 137.406316 
L 267.891042 130.254163 
L 269.30802 130.254163 
L 270.724997 115.949856 
L 271.433486 123.10201 
L 272.141975 115.949856 
L 272.850464 115.949856 
L 273.558953 108.797703 
L 274.267441 108.797703 
L 274.97593 115.949856 
L 275.684419 108.797703 
L 276.392908 137.406316 
L 277.101396 144.558469 
L 278.518374 144.558469 
L 279.226863 158.862775 
L 279.935352 151.710622 
L 281.352329 151.710622 
L 282.060818 130.254163 
L 282.769307 123.10201 
L 283.477796 123.10201 
L 284.186284 130.254163 
L 284.894773 115.949856 
L 285.603262 115.949856 
L 286.311751 130.254163 
L 287.020239 137.406316 
L 287.728728 130.254163 
L 289.145706 130.254163 
L 289.854195 137.406316 
L 290.562683 130.254163 
L 291.271172 130.254163 
L 291.979661 137.406316 
L 293.396638 137.406316 
L 294.105127 144.558469 
L 294.813616 158.862775 
L 296.230594 173.167081 
L 296.939082 166.014928 
L 297.647571 173.167081 
L 298.35606 173.167081 
L 299.064549 166.014928 
L 300.481526 180.319234 
L 301.898504 166.014928 
L 302.606993 173.167081 
L 303.315481 166.014928 
L 304.732459 166.014928 
L 305.440948 173.167081 
L 306.857925 173.167081 
L 307.566414 187.471388 
L 308.274903 194.623541 
L 308.983392 187.471388 
L 309.69188 187.471388 
L 310.400369 194.623541 
L 311.108858 194.623541 
L 311.817347 201.775694 
L 312.525836 201.775694 
L 313.234324 208.927847 
L 313.942813 208.927847 
L 314.651302 216.08 
L 315.359791 216.08 
L 316.068279 230.384306 
L 316.776768 230.384306 
L 317.485257 237.536459 
L 318.193746 237.536459 
L 318.902235 223.232153 
L 319.610723 244.688612 
L 321.73619 244.688612 
L 322.444678 237.536459 
L 323.153167 223.232153 
L 323.861656 216.08 
L 324.570145 216.08 
L 325.987122 201.775694 
L 326.695611 201.775694 
L 328.112589 216.08 
L 328.821078 216.08 
L 329.529566 208.927847 
L 330.238055 216.08 
L 330.946544 216.08 
L 331.655033 208.927847 
L 332.363521 208.927847 
L 333.07201 187.471388 
L 333.780499 180.319234 
L 335.197477 194.623541 
L 336.614454 223.232153 
L 337.322943 230.384306 
L 338.031432 230.384306 
L 338.73992 244.688612 
L 340.156898 258.992919 
L 340.865387 258.992919 
L 341.573876 251.840766 
L 346.533297 251.840766 
L 347.241786 258.992919 
L 347.950275 258.992919 
L 348.658763 251.840766 
L 349.367252 273.297225 
L 350.075741 266.145072 
L 350.78423 266.145072 
L 351.492719 273.297225 
L 352.909696 273.297225 
L 353.618185 258.992919 
L 354.326674 258.992919 
L 355.035162 273.297225 
L 355.743651 273.297225 
L 356.45214 266.145072 
L 357.160629 273.297225 
L 357.869118 273.297225 
L 359.994584 251.840766 
L 360.703073 251.840766 
L 361.411561 237.536459 
L 362.12005 244.688612 
L 364.245517 244.688612 
L 364.954005 237.536459 
L 365.662494 244.688612 
L 366.370983 237.536459 
L 367.78796 237.536459 
L 368.496449 244.688612 
L 369.204938 244.688612 
L 369.913427 237.536459 
L 371.330404 237.536459 
L 372.038893 230.384306 
L 376.289826 230.384306 
L 376.998315 244.688612 
L 379.123781 244.688612 
L 379.83227 237.536459 
L 380.540759 237.536459 
L 381.249247 244.688612 
L 381.957736 244.688612 
L 382.666225 258.992919 
L 385.50018 258.992919 
L 386.208669 266.145072 
L 387.625646 266.145072 
L 388.334135 280.449378 
L 389.042624 287.601531 
L 389.751113 280.449378 
L 391.16809 280.449378 
L 391.876579 273.297225 
L 392.585068 273.297225 
L 393.293557 280.449378 
L 394.710534 280.449378 
L 395.419023 287.601531 
L 396.127512 280.449378 
L 398.252978 280.449378 
L 398.961467 273.297225 
L 399.669956 273.297225 
L 401.086933 258.992919 
L 401.795422 266.145072 
L 402.503911 258.992919 
L 403.920888 258.992919 
L 404.629377 273.297225 
L 405.337866 280.449378 
L 406.754843 280.449378 
L 407.463332 287.601531 
L 408.88031 273.297225 
L 409.588799 280.449378 
L 410.297287 280.449378 
L 411.005776 287.601531 
L 412.422754 287.601531 
L 413.131242 294.753684 
L 414.54822 294.753684 
L 415.256709 301.905837 
L 417.382175 301.905837 
L 418.090664 309.05799 
L 421.633108 309.05799 
L 422.341597 287.601531 
L 423.050085 294.753684 
L 424.467063 294.753684 
L 425.175552 309.05799 
L 428.717996 309.05799 
L 429.426484 301.905837 
L 433.677417 301.905837 
L 434.385906 294.753684 
L 435.094395 301.905837 
L 447.138704 301.905837 
L 449.26417 323.362297 
L 449.972659 323.362297 
L 450.681148 316.210144 
L 454.223592 316.210144 
L 454.932081 323.362297 
L 456.349058 309.05799 
L 457.766036 309.05799 
L 458.474525 316.210144 
L 467.684879 316.210144 
L 468.393367 323.362297 
L 469.101856 323.362297 
L 469.810345 337.666603 
L 470.518834 337.666603 
L 471.227323 344.818756 
L 474.769766 344.818756 
L 475.478255 351.970909 
L 476.186744 351.970909 
L 476.895233 344.818756 
L 479.729188 344.818756 
L 480.437677 337.666603 
L 483.271632 337.666603 
L 483.980121 344.818756 
L 492.481986 344.818756 
L 493.190475 351.970909 
L 496.732919 351.970909 
L 497.441407 344.818756 
L 497.441407 344.818756 
" style="fill:none;stroke:#8c564b;stroke-linecap:square;stroke-width:1.5;"/>
   </g>
   <g id="patch_3">
    <path d="M 63.74 365.56 
L 63.74 66.6 
" style="fill:none;stroke:#000000;stroke-linecap:square;stroke-linejoin:miter;stroke-width:0.8;"/>
   </g>
   <g id="patch_4">
    <path d="M 518.093855 365.56 
L 518.093855 66.6 
" style="fill:none;stroke:#000000;stroke-linecap:square;stroke-linejoin:miter;stroke-width:0.8;"/>
   </g>
   <g id="patch_5">
    <path d="M 63.74 365.56 
L 518.093855 365.56 
" style="fill:none;stroke:#000000;stroke-linecap:square;stroke-linejoin:miter;stroke-width:0.8;"/>
   </g>
   <g id="patch_6">
    <path d="M 63.74 66.6 
L 518.093855 66.6 
" style="fill:none;stroke:#000000;stroke-linecap:square;stroke-linejoin:miter;stroke-width:0.8;"/>
   </g>
   <g id="legend_1">
    <g id="patch_7">
     <path d="M 74.24 59.1 
L 507.593855 59.1 
Q 510.593855 59.1 510.593855 56.1 
L 510.593855 13.565625 
Q 510.593855 10.565625 507.593855 10.565625 
L 74.24 10.565625 
Q 71.24 10.565625 71.24 13.565625 
L 71.24 56.1 
Q 71.24 59.1 74.24 59.1 
z
" style="fill:#ffffff;opacity:0.8;stroke:#cccccc;stroke-linejoin:miter;"/>
    </g>
    <g id="line2d_22">
     <path d="M 77.24 22.713281 
L 107.24 22.713281 
" style="fill:none;stroke:#1f77b4;stroke-linecap:square;stroke-width:1.5;"/>
    </g>
    <g id="line2d_23"/>
    <g id="text_18">
     <!-- CKC #0 -->
     <g transform="translate(119.24 27.963281)scale(0.15 -0.15)">
      <use xlink:href="#DejaVuSans-67"/>
      <use x="69.824219" xlink:href="#DejaVuSans-75"/>
      <use x="135.322266" xlink:href="#DejaVuSans-67"/>
      <use x="205.146484" xlink:href="#DejaVuSans-32"/>
      <use x="236.933594" xlink:href="#DejaVuSans-35"/>
      <use x="320.722656" xlink:href="#DejaVuSans-48"/>
     </g>
    </g>
    <g id="line2d_24">
     <path d="M 77.24 44.730469 
L 107.24 44.730469 
" style="fill:none;stroke:#ff7f0e;stroke-linecap:square;stroke-width:1.5;"/>
    </g>
    <g id="line2d_25"/>
    <g id="text_19">
     <!-- CKC #1 -->
     <g transform="translate(119.24 49.980469)scale(0.15 -0.15)">
      <use xlink:href="#DejaVuSans-67"/>
      <use x="69.824219" xlink:href="#DejaVuSans-75"/>
      <use x="135.322266" xlink:href="#DejaVuSans-67"/>
      <use x="205.146484" xlink:href="#DejaVuSans-32"/>
      <use x="236.933594" xlink:href="#DejaVuSans-35"/>
      <use x="320.722656" xlink:href="#DejaVuSans-49"/>
     </g>
    </g>
    <g id="line2d_26">
     <path d="M 186.473316 22.713281 
L 216.473316 22.713281 
" style="fill:none;stroke:#2ca02c;stroke-linecap:square;stroke-width:1.5;"/>
    </g>
    <g id="line2d_27"/>
    <g id="text_20">
     <!-- CKC #2 -->
     <g transform="translate(228.473316 27.963281)scale(0.15 -0.15)">
      <use xlink:href="#DejaVuSans-67"/>
      <use x="69.824219" xlink:href="#DejaVuSans-75"/>
      <use x="135.322266" xlink:href="#DejaVuSans-67"/>
      <use x="205.146484" xlink:href="#DejaVuSans-32"/>
      <use x="236.933594" xlink:href="#DejaVuSans-35"/>
      <use x="320.722656" xlink:href="#DejaVuSans-50"/>
     </g>
    </g>
    <g id="line2d_28">
     <path d="M 186.473316 44.730469 
L 216.473316 44.730469 
" style="fill:none;stroke:#d62728;stroke-linecap:square;stroke-width:1.5;"/>
    </g>
    <g id="line2d_29"/>
    <g id="text_21">
     <!-- CKC #3 -->
     <g transform="translate(228.473316 49.980469)scale(0.15 -0.15)">
      <use xlink:href="#DejaVuSans-67"/>
      <use x="69.824219" xlink:href="#DejaVuSans-75"/>
      <use x="135.322266" xlink:href="#DejaVuSans-67"/>
      <use x="205.146484" xlink:href="#DejaVuSans-32"/>
      <use x="236.933594" xlink:href="#DejaVuSans-35"/>
      <use x="320.722656" xlink:href="#DejaVuSans-51"/>
     </g>
    </g>
    <g id="line2d_30">
     <path d="M 295.706633 22.713281 
L 325.706633 22.713281 
" style="fill:none;stroke:#9467bd;stroke-linecap:square;stroke-width:1.5;"/>
    </g>
    <g id="line2d_31"/>
    <g id="text_22">
     <!-- CKC #4 -->
     <g transform="translate(337.706633 27.963281)scale(0.15 -0.15)">
      <use xlink:href="#DejaVuSans-67"/>
      <use x="69.824219" xlink:href="#DejaVuSans-75"/>
      <use x="135.322266" xlink:href="#DejaVuSans-67"/>
      <use x="205.146484" xlink:href="#DejaVuSans-32"/>
      <use x="236.933594" xlink:href="#DejaVuSans-35"/>
      <use x="320.722656" xlink:href="#DejaVuSans-52"/>
     </g>
    </g>
    <g id="line2d_32">
     <path d="M 404.939949 22.713281 
L 434.939949 22.713281 
" style="fill:none;stroke:#8c564b;stroke-linecap:square;stroke-width:1.5;"/>
    </g>
    <g id="line2d_33"/>
    <g id="text_23">
     <!-- CKC #5 -->
     <g transform="translate(446.939949 27.963281)scale(0.15 -0.15)">
      <use xlink:href="#DejaVuSans-67"/>
      <use x="69.824219" xlink:href="#DejaVuSans-75"/>
      <use x="135.322266" xlink:href="#DejaVuSans-67"/>
      <use x="205.146484" xlink:href="#DejaVuSans-32"/>
      <use x="236.933594" xlink:href="#DejaVuSans-35"/>
      <use x="320.722656" xlink:href="#DejaVuSans-53"/>
     </g>
    </g>
   </g>
  </g>
 </g>
 <defs>
  <clipPath id="p8bae9efb5b">
   <rect height="298.96" width="454.353855" x="63.74" y="66.6"/>
  </clipPath>
 </defs>
</svg>
