<?xml version="1.0" encoding="utf-8" standalone="no"?>
<!DOCTYPE svg PUBLIC "-//W3C//DTD SVG 1.1//EN"
  "http://www.w3.org/Graphics/SVG/1.1/DTD/svg11.dtd">
<!-- Created with matplotlib (https://matplotlib.org/) -->
<svg height="432pt" version="1.1" viewBox="0 0 540 432" width="540pt" xmlns="http://www.w3.org/2000/svg" xmlns:xlink="http://www.w3.org/1999/xlink">
 <defs>
  <style type="text/css">
*{stroke-linecap:butt;stroke-linejoin:round;}
  </style>
 </defs>
 <g id="figure_1">
  <g id="patch_1">
   <path d="M 0 432 
L 540 432 
L 540 0 
L 0 0 
z
" style="fill:#ffffff;"/>
  </g>
  <g id="axes_1">
   <g id="patch_2">
    <path d="M 70.13 365.56 
L 529.2 365.56 
L 529.2 88.5 
L 70.13 88.5 
z
" style="fill:#ffffff;"/>
   </g>
   <g id="matplotlib.axis_1">
    <g id="xtick_1">
     <g id="line2d_1">
      <defs>
       <path d="M 0 0 
L 0 3.5 
" id="mefb6cac063" style="stroke:#000000;stroke-width:0.8;"/>
      </defs>
      <g>
       <use style="stroke:#000000;stroke-width:0.8;" x="90.996818" xlink:href="#mefb6cac063" y="365.56"/>
      </g>
     </g>
     <g id="text_1">
      <!-- 0 -->
      <defs>
       <path d="M 31.78125 66.40625 
Q 24.171875 66.40625 20.328125 58.90625 
Q 16.5 51.421875 16.5 36.375 
Q 16.5 21.390625 20.328125 13.890625 
Q 24.171875 6.390625 31.78125 6.390625 
Q 39.453125 6.390625 43.28125 13.890625 
Q 47.125 21.390625 47.125 36.375 
Q 47.125 51.421875 43.28125 58.90625 
Q 39.453125 66.40625 31.78125 66.40625 
z
M 31.78125 74.21875 
Q 44.046875 74.21875 50.515625 64.515625 
Q 56.984375 54.828125 56.984375 36.375 
Q 56.984375 17.96875 50.515625 8.265625 
Q 44.046875 -1.421875 31.78125 -1.421875 
Q 19.53125 -1.421875 13.0625 8.265625 
Q 6.59375 17.96875 6.59375 36.375 
Q 6.59375 54.828125 13.0625 64.515625 
Q 19.53125 74.21875 31.78125 74.21875 
z
" id="DejaVuSans-48"/>
      </defs>
      <g transform="translate(84.634318 387.756875)scale(0.2 -0.2)">
       <use xlink:href="#DejaVuSans-48"/>
      </g>
     </g>
    </g>
    <g id="xtick_2">
     <g id="line2d_2">
      <g>
       <use style="stroke:#000000;stroke-width:0.8;" x="147.393624" xlink:href="#mefb6cac063" y="365.56"/>
      </g>
     </g>
     <g id="text_2">
      <!-- 10 -->
      <defs>
       <path d="M 12.40625 8.296875 
L 28.515625 8.296875 
L 28.515625 63.921875 
L 10.984375 60.40625 
L 10.984375 69.390625 
L 28.421875 72.90625 
L 38.28125 72.90625 
L 38.28125 8.296875 
L 54.390625 8.296875 
L 54.390625 0 
L 12.40625 0 
z
" id="DejaVuSans-49"/>
      </defs>
      <g transform="translate(134.668624 387.756875)scale(0.2 -0.2)">
       <use xlink:href="#DejaVuSans-49"/>
       <use x="63.623047" xlink:href="#DejaVuSans-48"/>
      </g>
     </g>
    </g>
    <g id="xtick_3">
     <g id="line2d_3">
      <g>
       <use style="stroke:#000000;stroke-width:0.8;" x="203.79043" xlink:href="#mefb6cac063" y="365.56"/>
      </g>
     </g>
     <g id="text_3">
      <!-- 20 -->
      <defs>
       <path d="M 19.1875 8.296875 
L 53.609375 8.296875 
L 53.609375 0 
L 7.328125 0 
L 7.328125 8.296875 
Q 12.9375 14.109375 22.625 23.890625 
Q 32.328125 33.6875 34.8125 36.53125 
Q 39.546875 41.84375 41.421875 45.53125 
Q 43.3125 49.21875 43.3125 52.78125 
Q 43.3125 58.59375 39.234375 62.25 
Q 35.15625 65.921875 28.609375 65.921875 
Q 23.96875 65.921875 18.8125 64.3125 
Q 13.671875 62.703125 7.8125 59.421875 
L 7.8125 69.390625 
Q 13.765625 71.78125 18.9375 73 
Q 24.125 74.21875 28.421875 74.21875 
Q 39.75 74.21875 46.484375 68.546875 
Q 53.21875 62.890625 53.21875 53.421875 
Q 53.21875 48.921875 51.53125 44.890625 
Q 49.859375 40.875 45.40625 35.40625 
Q 44.1875 33.984375 37.640625 27.21875 
Q 31.109375 20.453125 19.1875 8.296875 
z
" id="DejaVuSans-50"/>
      </defs>
      <g transform="translate(191.06543 387.756875)scale(0.2 -0.2)">
       <use xlink:href="#DejaVuSans-50"/>
       <use x="63.623047" xlink:href="#DejaVuSans-48"/>
      </g>
     </g>
    </g>
    <g id="xtick_4">
     <g id="line2d_4">
      <g>
       <use style="stroke:#000000;stroke-width:0.8;" x="260.187236" xlink:href="#mefb6cac063" y="365.56"/>
      </g>
     </g>
     <g id="text_4">
      <!-- 30 -->
      <defs>
       <path d="M 40.578125 39.3125 
Q 47.65625 37.796875 51.625 33 
Q 55.609375 28.21875 55.609375 21.1875 
Q 55.609375 10.40625 48.1875 4.484375 
Q 40.765625 -1.421875 27.09375 -1.421875 
Q 22.515625 -1.421875 17.65625 -0.515625 
Q 12.796875 0.390625 7.625 2.203125 
L 7.625 11.71875 
Q 11.71875 9.328125 16.59375 8.109375 
Q 21.484375 6.890625 26.8125 6.890625 
Q 36.078125 6.890625 40.9375 10.546875 
Q 45.796875 14.203125 45.796875 21.1875 
Q 45.796875 27.640625 41.28125 31.265625 
Q 36.765625 34.90625 28.71875 34.90625 
L 20.21875 34.90625 
L 20.21875 43.015625 
L 29.109375 43.015625 
Q 36.375 43.015625 40.234375 45.921875 
Q 44.09375 48.828125 44.09375 54.296875 
Q 44.09375 59.90625 40.109375 62.90625 
Q 36.140625 65.921875 28.71875 65.921875 
Q 24.65625 65.921875 20.015625 65.03125 
Q 15.375 64.15625 9.8125 62.3125 
L 9.8125 71.09375 
Q 15.4375 72.65625 20.34375 73.4375 
Q 25.25 74.21875 29.59375 74.21875 
Q 40.828125 74.21875 47.359375 69.109375 
Q 53.90625 64.015625 53.90625 55.328125 
Q 53.90625 49.265625 50.4375 45.09375 
Q 46.96875 40.921875 40.578125 39.3125 
z
" id="DejaVuSans-51"/>
      </defs>
      <g transform="translate(247.462236 387.756875)scale(0.2 -0.2)">
       <use xlink:href="#DejaVuSans-51"/>
       <use x="63.623047" xlink:href="#DejaVuSans-48"/>
      </g>
     </g>
    </g>
    <g id="xtick_5">
     <g id="line2d_5">
      <g>
       <use style="stroke:#000000;stroke-width:0.8;" x="316.584042" xlink:href="#mefb6cac063" y="365.56"/>
      </g>
     </g>
     <g id="text_5">
      <!-- 40 -->
      <defs>
       <path d="M 37.796875 64.3125 
L 12.890625 25.390625 
L 37.796875 25.390625 
z
M 35.203125 72.90625 
L 47.609375 72.90625 
L 47.609375 25.390625 
L 58.015625 25.390625 
L 58.015625 17.1875 
L 47.609375 17.1875 
L 47.609375 0 
L 37.796875 0 
L 37.796875 17.1875 
L 4.890625 17.1875 
L 4.890625 26.703125 
z
" id="DejaVuSans-52"/>
      </defs>
      <g transform="translate(303.859042 387.756875)scale(0.2 -0.2)">
       <use xlink:href="#DejaVuSans-52"/>
       <use x="63.623047" xlink:href="#DejaVuSans-48"/>
      </g>
     </g>
    </g>
    <g id="xtick_6">
     <g id="line2d_6">
      <g>
       <use style="stroke:#000000;stroke-width:0.8;" x="372.980848" xlink:href="#mefb6cac063" y="365.56"/>
      </g>
     </g>
     <g id="text_6">
      <!-- 50 -->
      <defs>
       <path d="M 10.796875 72.90625 
L 49.515625 72.90625 
L 49.515625 64.59375 
L 19.828125 64.59375 
L 19.828125 46.734375 
Q 21.96875 47.46875 24.109375 47.828125 
Q 26.265625 48.1875 28.421875 48.1875 
Q 40.625 48.1875 47.75 41.5 
Q 54.890625 34.8125 54.890625 23.390625 
Q 54.890625 11.625 47.5625 5.09375 
Q 40.234375 -1.421875 26.90625 -1.421875 
Q 22.3125 -1.421875 17.546875 -0.640625 
Q 12.796875 0.140625 7.71875 1.703125 
L 7.71875 11.625 
Q 12.109375 9.234375 16.796875 8.0625 
Q 21.484375 6.890625 26.703125 6.890625 
Q 35.15625 6.890625 40.078125 11.328125 
Q 45.015625 15.765625 45.015625 23.390625 
Q 45.015625 31 40.078125 35.4375 
Q 35.15625 39.890625 26.703125 39.890625 
Q 22.75 39.890625 18.8125 39.015625 
Q 14.890625 38.140625 10.796875 36.28125 
z
" id="DejaVuSans-53"/>
      </defs>
      <g transform="translate(360.255848 387.756875)scale(0.2 -0.2)">
       <use xlink:href="#DejaVuSans-53"/>
       <use x="63.623047" xlink:href="#DejaVuSans-48"/>
      </g>
     </g>
    </g>
    <g id="xtick_7">
     <g id="line2d_7">
      <g>
       <use style="stroke:#000000;stroke-width:0.8;" x="429.377654" xlink:href="#mefb6cac063" y="365.56"/>
      </g>
     </g>
     <g id="text_7">
      <!-- 60 -->
      <defs>
       <path d="M 33.015625 40.375 
Q 26.375 40.375 22.484375 35.828125 
Q 18.609375 31.296875 18.609375 23.390625 
Q 18.609375 15.53125 22.484375 10.953125 
Q 26.375 6.390625 33.015625 6.390625 
Q 39.65625 6.390625 43.53125 10.953125 
Q 47.40625 15.53125 47.40625 23.390625 
Q 47.40625 31.296875 43.53125 35.828125 
Q 39.65625 40.375 33.015625 40.375 
z
M 52.59375 71.296875 
L 52.59375 62.3125 
Q 48.875 64.0625 45.09375 64.984375 
Q 41.3125 65.921875 37.59375 65.921875 
Q 27.828125 65.921875 22.671875 59.328125 
Q 17.53125 52.734375 16.796875 39.40625 
Q 19.671875 43.65625 24.015625 45.921875 
Q 28.375 48.1875 33.59375 48.1875 
Q 44.578125 48.1875 50.953125 41.515625 
Q 57.328125 34.859375 57.328125 23.390625 
Q 57.328125 12.15625 50.6875 5.359375 
Q 44.046875 -1.421875 33.015625 -1.421875 
Q 20.359375 -1.421875 13.671875 8.265625 
Q 6.984375 17.96875 6.984375 36.375 
Q 6.984375 53.65625 15.1875 63.9375 
Q 23.390625 74.21875 37.203125 74.21875 
Q 40.921875 74.21875 44.703125 73.484375 
Q 48.484375 72.75 52.59375 71.296875 
z
" id="DejaVuSans-54"/>
      </defs>
      <g transform="translate(416.652654 387.756875)scale(0.2 -0.2)">
       <use xlink:href="#DejaVuSans-54"/>
       <use x="63.623047" xlink:href="#DejaVuSans-48"/>
      </g>
     </g>
    </g>
    <g id="xtick_8">
     <g id="line2d_8">
      <g>
       <use style="stroke:#000000;stroke-width:0.8;" x="485.774459" xlink:href="#mefb6cac063" y="365.56"/>
      </g>
     </g>
     <g id="text_8">
      <!-- 70 -->
      <defs>
       <path d="M 8.203125 72.90625 
L 55.078125 72.90625 
L 55.078125 68.703125 
L 28.609375 0 
L 18.3125 0 
L 43.21875 64.59375 
L 8.203125 64.59375 
z
" id="DejaVuSans-55"/>
      </defs>
      <g transform="translate(473.049459 387.756875)scale(0.2 -0.2)">
       <use xlink:href="#DejaVuSans-55"/>
       <use x="63.623047" xlink:href="#DejaVuSans-48"/>
      </g>
     </g>
    </g>
    <g id="text_9">
     <!-- # of games -->
     <defs>
      <path d="M 51.125 44 
L 36.921875 44 
L 32.8125 27.6875 
L 47.125 27.6875 
z
M 43.796875 71.78125 
L 38.71875 51.515625 
L 52.984375 51.515625 
L 58.109375 71.78125 
L 65.921875 71.78125 
L 60.890625 51.515625 
L 76.125 51.515625 
L 76.125 44 
L 58.984375 44 
L 54.984375 27.6875 
L 70.515625 27.6875 
L 70.515625 20.21875 
L 53.078125 20.21875 
L 48 0 
L 40.1875 0 
L 45.21875 20.21875 
L 30.90625 20.21875 
L 25.875 0 
L 18.015625 0 
L 23.09375 20.21875 
L 7.71875 20.21875 
L 7.71875 27.6875 
L 24.90625 27.6875 
L 29 44 
L 13.28125 44 
L 13.28125 51.515625 
L 30.90625 51.515625 
L 35.890625 71.78125 
z
" id="DejaVuSans-35"/>
      <path id="DejaVuSans-32"/>
      <path d="M 30.609375 48.390625 
Q 23.390625 48.390625 19.1875 42.75 
Q 14.984375 37.109375 14.984375 27.296875 
Q 14.984375 17.484375 19.15625 11.84375 
Q 23.34375 6.203125 30.609375 6.203125 
Q 37.796875 6.203125 41.984375 11.859375 
Q 46.1875 17.53125 46.1875 27.296875 
Q 46.1875 37.015625 41.984375 42.703125 
Q 37.796875 48.390625 30.609375 48.390625 
z
M 30.609375 56 
Q 42.328125 56 49.015625 48.375 
Q 55.71875 40.765625 55.71875 27.296875 
Q 55.71875 13.875 49.015625 6.21875 
Q 42.328125 -1.421875 30.609375 -1.421875 
Q 18.84375 -1.421875 12.171875 6.21875 
Q 5.515625 13.875 5.515625 27.296875 
Q 5.515625 40.765625 12.171875 48.375 
Q 18.84375 56 30.609375 56 
z
" id="DejaVuSans-111"/>
      <path d="M 37.109375 75.984375 
L 37.109375 68.5 
L 28.515625 68.5 
Q 23.6875 68.5 21.796875 66.546875 
Q 19.921875 64.59375 19.921875 59.515625 
L 19.921875 54.6875 
L 34.71875 54.6875 
L 34.71875 47.703125 
L 19.921875 47.703125 
L 19.921875 0 
L 10.890625 0 
L 10.890625 47.703125 
L 2.296875 47.703125 
L 2.296875 54.6875 
L 10.890625 54.6875 
L 10.890625 58.5 
Q 10.890625 67.625 15.140625 71.796875 
Q 19.390625 75.984375 28.609375 75.984375 
z
" id="DejaVuSans-102"/>
      <path d="M 45.40625 27.984375 
Q 45.40625 37.75 41.375 43.109375 
Q 37.359375 48.484375 30.078125 48.484375 
Q 22.859375 48.484375 18.828125 43.109375 
Q 14.796875 37.75 14.796875 27.984375 
Q 14.796875 18.265625 18.828125 12.890625 
Q 22.859375 7.515625 30.078125 7.515625 
Q 37.359375 7.515625 41.375 12.890625 
Q 45.40625 18.265625 45.40625 27.984375 
z
M 54.390625 6.78125 
Q 54.390625 -7.171875 48.1875 -13.984375 
Q 42 -20.796875 29.203125 -20.796875 
Q 24.46875 -20.796875 20.265625 -20.09375 
Q 16.0625 -19.390625 12.109375 -17.921875 
L 12.109375 -9.1875 
Q 16.0625 -11.328125 19.921875 -12.34375 
Q 23.78125 -13.375 27.78125 -13.375 
Q 36.625 -13.375 41.015625 -8.765625 
Q 45.40625 -4.15625 45.40625 5.171875 
L 45.40625 9.625 
Q 42.625 4.78125 38.28125 2.390625 
Q 33.9375 0 27.875 0 
Q 17.828125 0 11.671875 7.65625 
Q 5.515625 15.328125 5.515625 27.984375 
Q 5.515625 40.671875 11.671875 48.328125 
Q 17.828125 56 27.875 56 
Q 33.9375 56 38.28125 53.609375 
Q 42.625 51.21875 45.40625 46.390625 
L 45.40625 54.6875 
L 54.390625 54.6875 
z
" id="DejaVuSans-103"/>
      <path d="M 34.28125 27.484375 
Q 23.390625 27.484375 19.1875 25 
Q 14.984375 22.515625 14.984375 16.5 
Q 14.984375 11.71875 18.140625 8.90625 
Q 21.296875 6.109375 26.703125 6.109375 
Q 34.1875 6.109375 38.703125 11.40625 
Q 43.21875 16.703125 43.21875 25.484375 
L 43.21875 27.484375 
z
M 52.203125 31.203125 
L 52.203125 0 
L 43.21875 0 
L 43.21875 8.296875 
Q 40.140625 3.328125 35.546875 0.953125 
Q 30.953125 -1.421875 24.3125 -1.421875 
Q 15.921875 -1.421875 10.953125 3.296875 
Q 6 8.015625 6 15.921875 
Q 6 25.140625 12.171875 29.828125 
Q 18.359375 34.515625 30.609375 34.515625 
L 43.21875 34.515625 
L 43.21875 35.40625 
Q 43.21875 41.609375 39.140625 45 
Q 35.0625 48.390625 27.6875 48.390625 
Q 23 48.390625 18.546875 47.265625 
Q 14.109375 46.140625 10.015625 43.890625 
L 10.015625 52.203125 
Q 14.9375 54.109375 19.578125 55.046875 
Q 24.21875 56 28.609375 56 
Q 40.484375 56 46.34375 49.84375 
Q 52.203125 43.703125 52.203125 31.203125 
z
" id="DejaVuSans-97"/>
      <path d="M 52 44.1875 
Q 55.375 50.25 60.0625 53.125 
Q 64.75 56 71.09375 56 
Q 79.640625 56 84.28125 50.015625 
Q 88.921875 44.046875 88.921875 33.015625 
L 88.921875 0 
L 79.890625 0 
L 79.890625 32.71875 
Q 79.890625 40.578125 77.09375 44.375 
Q 74.3125 48.1875 68.609375 48.1875 
Q 61.625 48.1875 57.5625 43.546875 
Q 53.515625 38.921875 53.515625 30.90625 
L 53.515625 0 
L 44.484375 0 
L 44.484375 32.71875 
Q 44.484375 40.625 41.703125 44.40625 
Q 38.921875 48.1875 33.109375 48.1875 
Q 26.21875 48.1875 22.15625 43.53125 
Q 18.109375 38.875 18.109375 30.90625 
L 18.109375 0 
L 9.078125 0 
L 9.078125 54.6875 
L 18.109375 54.6875 
L 18.109375 46.1875 
Q 21.1875 51.21875 25.484375 53.609375 
Q 29.78125 56 35.6875 56 
Q 41.65625 56 45.828125 52.96875 
Q 50 49.953125 52 44.1875 
z
" id="DejaVuSans-109"/>
      <path d="M 56.203125 29.59375 
L 56.203125 25.203125 
L 14.890625 25.203125 
Q 15.484375 15.921875 20.484375 11.0625 
Q 25.484375 6.203125 34.421875 6.203125 
Q 39.59375 6.203125 44.453125 7.46875 
Q 49.3125 8.734375 54.109375 11.28125 
L 54.109375 2.78125 
Q 49.265625 0.734375 44.1875 -0.34375 
Q 39.109375 -1.421875 33.890625 -1.421875 
Q 20.796875 -1.421875 13.15625 6.1875 
Q 5.515625 13.8125 5.515625 26.8125 
Q 5.515625 40.234375 12.765625 48.109375 
Q 20.015625 56 32.328125 56 
Q 43.359375 56 49.78125 48.890625 
Q 56.203125 41.796875 56.203125 29.59375 
z
M 47.21875 32.234375 
Q 47.125 39.59375 43.09375 43.984375 
Q 39.0625 48.390625 32.421875 48.390625 
Q 24.90625 48.390625 20.390625 44.140625 
Q 15.875 39.890625 15.1875 32.171875 
z
" id="DejaVuSans-101"/>
      <path d="M 44.28125 53.078125 
L 44.28125 44.578125 
Q 40.484375 46.53125 36.375 47.5 
Q 32.28125 48.484375 27.875 48.484375 
Q 21.1875 48.484375 17.84375 46.4375 
Q 14.5 44.390625 14.5 40.28125 
Q 14.5 37.15625 16.890625 35.375 
Q 19.28125 33.59375 26.515625 31.984375 
L 29.59375 31.296875 
Q 39.15625 29.25 43.1875 25.515625 
Q 47.21875 21.78125 47.21875 15.09375 
Q 47.21875 7.46875 41.1875 3.015625 
Q 35.15625 -1.421875 24.609375 -1.421875 
Q 20.21875 -1.421875 15.453125 -0.5625 
Q 10.6875 0.296875 5.421875 2 
L 5.421875 11.28125 
Q 10.40625 8.6875 15.234375 7.390625 
Q 20.0625 6.109375 24.8125 6.109375 
Q 31.15625 6.109375 34.5625 8.28125 
Q 37.984375 10.453125 37.984375 14.40625 
Q 37.984375 18.0625 35.515625 20.015625 
Q 33.0625 21.96875 24.703125 23.78125 
L 21.578125 24.515625 
Q 13.234375 26.265625 9.515625 29.90625 
Q 5.8125 33.546875 5.8125 39.890625 
Q 5.8125 47.609375 11.28125 51.796875 
Q 16.75 56 26.8125 56 
Q 31.78125 56 36.171875 55.265625 
Q 40.578125 54.546875 44.28125 53.078125 
z
" id="DejaVuSans-115"/>
     </defs>
     <g transform="translate(227.221641 414.912344)scale(0.25 -0.25)">
      <use xlink:href="#DejaVuSans-35"/>
      <use x="83.789062" xlink:href="#DejaVuSans-32"/>
      <use x="115.576172" xlink:href="#DejaVuSans-111"/>
      <use x="176.757812" xlink:href="#DejaVuSans-102"/>
      <use x="211.962891" xlink:href="#DejaVuSans-32"/>
      <use x="243.75" xlink:href="#DejaVuSans-103"/>
      <use x="307.226562" xlink:href="#DejaVuSans-97"/>
      <use x="368.505859" xlink:href="#DejaVuSans-109"/>
      <use x="465.917969" xlink:href="#DejaVuSans-101"/>
      <use x="527.441406" xlink:href="#DejaVuSans-115"/>
     </g>
    </g>
   </g>
   <g id="matplotlib.axis_2">
    <g id="ytick_1">
     <g id="line2d_9">
      <defs>
       <path d="M 0 0 
L -3.5 0 
" id="mbc1815fb2d" style="stroke:#000000;stroke-width:0.8;"/>
      </defs>
      <g>
       <use style="stroke:#000000;stroke-width:0.8;" x="70.13" xlink:href="#mbc1815fb2d" y="352.966364"/>
      </g>
     </g>
     <g id="text_10">
      <!-- 0.0 -->
      <defs>
       <path d="M 10.6875 12.40625 
L 21 12.40625 
L 21 0 
L 10.6875 0 
z
" id="DejaVuSans-46"/>
      </defs>
      <g transform="translate(31.32375 360.564801)scale(0.2 -0.2)">
       <use xlink:href="#DejaVuSans-48"/>
       <use x="63.623047" xlink:href="#DejaVuSans-46"/>
       <use x="95.410156" xlink:href="#DejaVuSans-48"/>
      </g>
     </g>
    </g>
    <g id="ytick_2">
     <g id="line2d_10">
      <g>
       <use style="stroke:#000000;stroke-width:0.8;" x="70.13" xlink:href="#mbc1815fb2d" y="315.47833"/>
      </g>
     </g>
     <g id="text_11">
      <!-- 0.1 -->
      <g transform="translate(31.32375 323.076767)scale(0.2 -0.2)">
       <use xlink:href="#DejaVuSans-48"/>
       <use x="63.623047" xlink:href="#DejaVuSans-46"/>
       <use x="95.410156" xlink:href="#DejaVuSans-49"/>
      </g>
     </g>
    </g>
    <g id="ytick_3">
     <g id="line2d_11">
      <g>
       <use style="stroke:#000000;stroke-width:0.8;" x="70.13" xlink:href="#mbc1815fb2d" y="277.990296"/>
      </g>
     </g>
     <g id="text_12">
      <!-- 0.2 -->
      <g transform="translate(31.32375 285.588733)scale(0.2 -0.2)">
       <use xlink:href="#DejaVuSans-48"/>
       <use x="63.623047" xlink:href="#DejaVuSans-46"/>
       <use x="95.410156" xlink:href="#DejaVuSans-50"/>
      </g>
     </g>
    </g>
    <g id="ytick_4">
     <g id="line2d_12">
      <g>
       <use style="stroke:#000000;stroke-width:0.8;" x="70.13" xlink:href="#mbc1815fb2d" y="240.502262"/>
      </g>
     </g>
     <g id="text_13">
      <!-- 0.3 -->
      <g transform="translate(31.32375 248.1007)scale(0.2 -0.2)">
       <use xlink:href="#DejaVuSans-48"/>
       <use x="63.623047" xlink:href="#DejaVuSans-46"/>
       <use x="95.410156" xlink:href="#DejaVuSans-51"/>
      </g>
     </g>
    </g>
    <g id="ytick_5">
     <g id="line2d_13">
      <g>
       <use style="stroke:#000000;stroke-width:0.8;" x="70.13" xlink:href="#mbc1815fb2d" y="203.014228"/>
      </g>
     </g>
     <g id="text_14">
      <!-- 0.4 -->
      <g transform="translate(31.32375 210.612666)scale(0.2 -0.2)">
       <use xlink:href="#DejaVuSans-48"/>
       <use x="63.623047" xlink:href="#DejaVuSans-46"/>
       <use x="95.410156" xlink:href="#DejaVuSans-52"/>
      </g>
     </g>
    </g>
    <g id="ytick_6">
     <g id="line2d_14">
      <g>
       <use style="stroke:#000000;stroke-width:0.8;" x="70.13" xlink:href="#mbc1815fb2d" y="165.526195"/>
      </g>
     </g>
     <g id="text_15">
      <!-- 0.5 -->
      <g transform="translate(31.32375 173.124632)scale(0.2 -0.2)">
       <use xlink:href="#DejaVuSans-48"/>
       <use x="63.623047" xlink:href="#DejaVuSans-46"/>
       <use x="95.410156" xlink:href="#DejaVuSans-53"/>
      </g>
     </g>
    </g>
    <g id="ytick_7">
     <g id="line2d_15">
      <g>
       <use style="stroke:#000000;stroke-width:0.8;" x="70.13" xlink:href="#mbc1815fb2d" y="128.038161"/>
      </g>
     </g>
     <g id="text_16">
      <!-- 0.6 -->
      <g transform="translate(31.32375 135.636598)scale(0.2 -0.2)">
       <use xlink:href="#DejaVuSans-48"/>
       <use x="63.623047" xlink:href="#DejaVuSans-46"/>
       <use x="95.410156" xlink:href="#DejaVuSans-54"/>
      </g>
     </g>
    </g>
    <g id="ytick_8">
     <g id="line2d_16">
      <g>
       <use style="stroke:#000000;stroke-width:0.8;" x="70.13" xlink:href="#mbc1815fb2d" y="90.550127"/>
      </g>
     </g>
     <g id="text_17">
      <!-- 0.7 -->
      <g transform="translate(31.32375 98.148564)scale(0.2 -0.2)">
       <use xlink:href="#DejaVuSans-48"/>
       <use x="63.623047" xlink:href="#DejaVuSans-46"/>
       <use x="95.410156" xlink:href="#DejaVuSans-55"/>
      </g>
     </g>
    </g>
    <g id="text_18">
     <!-- Percentage of Att strategy used -->
     <defs>
      <path d="M 19.671875 64.796875 
L 19.671875 37.40625 
L 32.078125 37.40625 
Q 38.96875 37.40625 42.71875 40.96875 
Q 46.484375 44.53125 46.484375 51.125 
Q 46.484375 57.671875 42.71875 61.234375 
Q 38.96875 64.796875 32.078125 64.796875 
z
M 9.8125 72.90625 
L 32.078125 72.90625 
Q 44.34375 72.90625 50.609375 67.359375 
Q 56.890625 61.8125 56.890625 51.125 
Q 56.890625 40.328125 50.609375 34.8125 
Q 44.34375 29.296875 32.078125 29.296875 
L 19.671875 29.296875 
L 19.671875 0 
L 9.8125 0 
z
" id="DejaVuSans-80"/>
      <path d="M 41.109375 46.296875 
Q 39.59375 47.171875 37.8125 47.578125 
Q 36.03125 48 33.890625 48 
Q 26.265625 48 22.1875 43.046875 
Q 18.109375 38.09375 18.109375 28.8125 
L 18.109375 0 
L 9.078125 0 
L 9.078125 54.6875 
L 18.109375 54.6875 
L 18.109375 46.1875 
Q 20.953125 51.171875 25.484375 53.578125 
Q 30.03125 56 36.53125 56 
Q 37.453125 56 38.578125 55.875 
Q 39.703125 55.765625 41.0625 55.515625 
z
" id="DejaVuSans-114"/>
      <path d="M 48.78125 52.59375 
L 48.78125 44.1875 
Q 44.96875 46.296875 41.140625 47.34375 
Q 37.3125 48.390625 33.40625 48.390625 
Q 24.65625 48.390625 19.8125 42.84375 
Q 14.984375 37.3125 14.984375 27.296875 
Q 14.984375 17.28125 19.8125 11.734375 
Q 24.65625 6.203125 33.40625 6.203125 
Q 37.3125 6.203125 41.140625 7.25 
Q 44.96875 8.296875 48.78125 10.40625 
L 48.78125 2.09375 
Q 45.015625 0.34375 40.984375 -0.53125 
Q 36.96875 -1.421875 32.421875 -1.421875 
Q 20.0625 -1.421875 12.78125 6.34375 
Q 5.515625 14.109375 5.515625 27.296875 
Q 5.515625 40.671875 12.859375 48.328125 
Q 20.21875 56 33.015625 56 
Q 37.15625 56 41.109375 55.140625 
Q 45.0625 54.296875 48.78125 52.59375 
z
" id="DejaVuSans-99"/>
      <path d="M 54.890625 33.015625 
L 54.890625 0 
L 45.90625 0 
L 45.90625 32.71875 
Q 45.90625 40.484375 42.875 44.328125 
Q 39.84375 48.1875 33.796875 48.1875 
Q 26.515625 48.1875 22.3125 43.546875 
Q 18.109375 38.921875 18.109375 30.90625 
L 18.109375 0 
L 9.078125 0 
L 9.078125 54.6875 
L 18.109375 54.6875 
L 18.109375 46.1875 
Q 21.34375 51.125 25.703125 53.5625 
Q 30.078125 56 35.796875 56 
Q 45.21875 56 50.046875 50.171875 
Q 54.890625 44.34375 54.890625 33.015625 
z
" id="DejaVuSans-110"/>
      <path d="M 18.3125 70.21875 
L 18.3125 54.6875 
L 36.8125 54.6875 
L 36.8125 47.703125 
L 18.3125 47.703125 
L 18.3125 18.015625 
Q 18.3125 11.328125 20.140625 9.421875 
Q 21.96875 7.515625 27.59375 7.515625 
L 36.8125 7.515625 
L 36.8125 0 
L 27.59375 0 
Q 17.1875 0 13.234375 3.875 
Q 9.28125 7.765625 9.28125 18.015625 
L 9.28125 47.703125 
L 2.6875 47.703125 
L 2.6875 54.6875 
L 9.28125 54.6875 
L 9.28125 70.21875 
z
" id="DejaVuSans-116"/>
      <path d="M 34.1875 63.1875 
L 20.796875 26.90625 
L 47.609375 26.90625 
z
M 28.609375 72.90625 
L 39.796875 72.90625 
L 67.578125 0 
L 57.328125 0 
L 50.6875 18.703125 
L 17.828125 18.703125 
L 11.1875 0 
L 0.78125 0 
z
" id="DejaVuSans-65"/>
      <path d="M 32.171875 -5.078125 
Q 28.375 -14.84375 24.75 -17.8125 
Q 21.140625 -20.796875 15.09375 -20.796875 
L 7.90625 -20.796875 
L 7.90625 -13.28125 
L 13.1875 -13.28125 
Q 16.890625 -13.28125 18.9375 -11.515625 
Q 21 -9.765625 23.484375 -3.21875 
L 25.09375 0.875 
L 2.984375 54.6875 
L 12.5 54.6875 
L 29.59375 11.921875 
L 46.6875 54.6875 
L 56.203125 54.6875 
z
" id="DejaVuSans-121"/>
      <path d="M 8.5 21.578125 
L 8.5 54.6875 
L 17.484375 54.6875 
L 17.484375 21.921875 
Q 17.484375 14.15625 20.5 10.265625 
Q 23.53125 6.390625 29.59375 6.390625 
Q 36.859375 6.390625 41.078125 11.03125 
Q 45.3125 15.671875 45.3125 23.6875 
L 45.3125 54.6875 
L 54.296875 54.6875 
L 54.296875 0 
L 45.3125 0 
L 45.3125 8.40625 
Q 42.046875 3.421875 37.71875 1 
Q 33.40625 -1.421875 27.6875 -1.421875 
Q 18.265625 -1.421875 13.375 4.4375 
Q 8.5 10.296875 8.5 21.578125 
z
M 31.109375 56 
z
" id="DejaVuSans-117"/>
      <path d="M 45.40625 46.390625 
L 45.40625 75.984375 
L 54.390625 75.984375 
L 54.390625 0 
L 45.40625 0 
L 45.40625 8.203125 
Q 42.578125 3.328125 38.25 0.953125 
Q 33.9375 -1.421875 27.875 -1.421875 
Q 17.96875 -1.421875 11.734375 6.484375 
Q 5.515625 14.40625 5.515625 27.296875 
Q 5.515625 40.1875 11.734375 48.09375 
Q 17.96875 56 27.875 56 
Q 33.9375 56 38.25 53.625 
Q 42.578125 51.265625 45.40625 46.390625 
z
M 14.796875 27.296875 
Q 14.796875 17.390625 18.875 11.75 
Q 22.953125 6.109375 30.078125 6.109375 
Q 37.203125 6.109375 41.296875 11.75 
Q 45.40625 17.390625 45.40625 27.296875 
Q 45.40625 37.203125 41.296875 42.84375 
Q 37.203125 48.484375 30.078125 48.484375 
Q 22.953125 48.484375 18.875 42.84375 
Q 14.796875 37.203125 14.796875 27.296875 
z
" id="DejaVuSans-100"/>
     </defs>
     <g transform="translate(23.857604 360.041719)rotate(-90)scale(0.166667 -0.166667)">
      <use xlink:href="#DejaVuSans-80"/>
      <use x="60.255859" xlink:href="#DejaVuSans-101"/>
      <use x="121.779297" xlink:href="#DejaVuSans-114"/>
      <use x="162.861328" xlink:href="#DejaVuSans-99"/>
      <use x="217.841797" xlink:href="#DejaVuSans-101"/>
      <use x="279.365234" xlink:href="#DejaVuSans-110"/>
      <use x="342.744141" xlink:href="#DejaVuSans-116"/>
      <use x="381.953125" xlink:href="#DejaVuSans-97"/>
      <use x="443.232422" xlink:href="#DejaVuSans-103"/>
      <use x="506.708984" xlink:href="#DejaVuSans-101"/>
      <use x="568.232422" xlink:href="#DejaVuSans-32"/>
      <use x="600.019531" xlink:href="#DejaVuSans-111"/>
      <use x="661.201172" xlink:href="#DejaVuSans-102"/>
      <use x="696.40625" xlink:href="#DejaVuSans-32"/>
      <use x="728.193359" xlink:href="#DejaVuSans-65"/>
      <use x="796.585938" xlink:href="#DejaVuSans-116"/>
      <use x="835.794922" xlink:href="#DejaVuSans-116"/>
      <use x="875.003906" xlink:href="#DejaVuSans-32"/>
      <use x="906.791016" xlink:href="#DejaVuSans-115"/>
      <use x="958.890625" xlink:href="#DejaVuSans-116"/>
      <use x="998.099609" xlink:href="#DejaVuSans-114"/>
      <use x="1039.212891" xlink:href="#DejaVuSans-97"/>
      <use x="1100.492188" xlink:href="#DejaVuSans-116"/>
      <use x="1139.701172" xlink:href="#DejaVuSans-101"/>
      <use x="1201.224609" xlink:href="#DejaVuSans-103"/>
      <use x="1264.701172" xlink:href="#DejaVuSans-121"/>
      <use x="1323.880859" xlink:href="#DejaVuSans-32"/>
      <use x="1355.667969" xlink:href="#DejaVuSans-117"/>
      <use x="1419.046875" xlink:href="#DejaVuSans-115"/>
      <use x="1471.146484" xlink:href="#DejaVuSans-101"/>
      <use x="1532.669922" xlink:href="#DejaVuSans-100"/>
     </g>
    </g>
   </g>
   <g id="line2d_17">
    <path clip-path="url(#pe28595ffe1)" d="M 90.996818 210.511835 
L 96.636499 165.526195 
L 102.276179 200.515026 
L 107.91586 216.13504 
L 113.555541 244.56723 
L 119.195221 221.695134 
L 124.834902 246.012031 
L 130.474582 237.472926 
L 136.114263 253.957335 
L 141.753943 241.349014 
L 147.393624 240.151907 
L 153.033305 254.584388 
L 158.672985 250.780281 
L 164.312666 237.23521 
L 169.952346 243.843814 
L 175.592027 255.08638 
L 181.231708 260.971189 
L 186.871388 259.575121 
L 192.511069 257.891039 
L 198.150749 248.126947 
L 203.79043 257.349111 
L 209.430111 248.086966 
L 215.069791 249.33525 
L 220.709472 247.572959 
L 226.349152 248.690775 
L 231.988833 244.229503 
L 237.628514 247.29938 
L 243.268194 241.190116 
L 248.907875 250.952466 
L 254.547555 246.317061 
L 260.187236 246.081149 
L 265.826916 249.620973 
L 271.466597 247.715274 
L 277.106278 249.814576 
L 282.745958 249.477603 
L 288.385639 248.715271 
L 294.025319 240.272274 
L 299.665 243.775739 
L 305.304681 243.480284 
L 310.944361 246.262938 
L 316.584042 242.419264 
L 322.223722 242.45742 
L 327.863403 240.627084 
L 333.503084 245.015464 
L 339.142764 250.979789 
L 344.782445 245.115867 
L 350.422125 247.173168 
L 356.061806 236.368913 
L 361.701486 246.291334 
L 367.341167 247.192761 
L 372.980848 239.252661 
L 378.620528 241.387127 
L 384.260209 240.396064 
L 389.899889 230.722775 
L 395.53957 242.26195 
L 401.179251 235.037255 
L 406.818931 241.235339 
L 412.458612 239.301578 
L 418.098292 244.248249 
L 423.737973 235.599981 
L 429.377654 240.113113 
L 435.017334 242.519125 
L 440.657015 234.966894 
L 446.296695 242.452507 
L 451.936376 246.771592 
L 457.576057 255.071344 
L 463.215737 244.331206 
L 468.855418 243.497174 
L 474.495098 261.41143 
L 480.134779 227.49621 
L 485.774459 248.664979 
L 491.41414 238.529208 
L 497.053821 244.192794 
L 502.693501 245.857696 
L 508.333182 253.388774 
" style="fill:none;stroke:#1f77b4;stroke-linecap:square;stroke-width:1.5;"/>
   </g>
   <g id="line2d_18">
    <path clip-path="url(#pe28595ffe1)" d="M 90.996818 352.966364 
L 96.636499 352.966364 
L 102.276179 335.471948 
L 107.91586 334.222347 
L 113.555541 325.86658 
L 119.195221 331.508566 
L 124.834902 332.439775 
L 130.474582 334.033013 
L 136.114263 329.271895 
L 141.753943 333.721993 
L 147.393624 331.945036 
L 153.033305 325.959547 
L 158.672985 320.884687 
L 164.312666 337.461712 
L 169.952346 331.03743 
L 175.592027 328.496368 
L 181.231708 325.367811 
L 186.871388 322.712863 
L 192.511069 324.610565 
L 198.150749 326.35939 
L 203.79043 328.303183 
L 209.430111 330.466285 
L 215.069791 325.14593 
L 220.709472 328.28563 
L 226.349152 329.296445 
L 231.988833 326.783267 
L 237.628514 329.220974 
L 243.268194 328.318268 
L 248.907875 326.426163 
L 254.547555 330.189502 
L 260.187236 326.375408 
L 265.826916 326.116826 
L 271.466597 330.149694 
L 277.106278 327.894749 
L 282.745958 326.916561 
L 288.385639 329.433386 
L 294.025319 329.047618 
L 299.665 329.648448 
L 305.304681 328.003537 
L 310.944361 332.673074 
L 316.584042 325.276339 
L 322.223722 324.914093 
L 327.863403 326.545829 
L 333.503084 327.757491 
L 339.142764 331.652763 
L 344.782445 328.400417 
L 350.422125 329.229399 
L 356.061806 325.410705 
L 361.701486 328.248979 
L 367.341167 327.053955 
L 372.980848 331.514878 
L 378.620528 332.67923 
L 384.260209 329.177923 
L 389.899889 333.114841 
L 395.53957 326.905164 
L 401.179251 330.195499 
L 406.818931 322.632149 
L 412.458612 329.219495 
L 418.098292 328.46254 
L 423.737973 322.399198 
L 429.377654 326.050215 
L 435.017334 331.197053 
L 440.657015 331.421517 
L 446.296695 324.796165 
L 451.936376 327.803747 
L 457.576057 320.14274 
L 463.215737 324.471896 
L 468.855418 327.148159 
L 474.495098 326.984558 
L 480.134779 334.604878 
L 485.774459 328.780535 
L 491.41414 331.262765 
L 497.053821 316.061045 
L 502.693501 341.065401 
L 508.333182 329.536342 
" style="fill:none;stroke:#ff7f0e;stroke-linecap:square;stroke-width:1.5;"/>
   </g>
   <g id="line2d_19">
    <path clip-path="url(#pe28595ffe1)" d="M 90.996818 352.966364 
L 96.636499 352.966364 
L 102.276179 352.966364 
L 107.91586 352.966364 
L 113.555541 352.966364 
L 119.195221 351.70414 
L 124.834902 351.886017 
L 130.474582 351.073029 
L 136.114263 348.735209 
L 141.753943 348.347715 
L 147.393624 350.16352 
L 153.033305 347.179189 
L 158.672985 347.619417 
L 164.312666 349.643938 
L 169.952346 348.267306 
L 175.592027 348.072364 
L 181.231708 350.206508 
L 186.871388 350.774081 
L 192.511069 346.294411 
L 198.150749 347.803817 
L 203.79043 348.033728 
L 209.430111 347.522796 
L 215.069791 348.097788 
L 220.709472 350.298176 
L 226.349152 346.249224 
L 231.988833 348.037781 
L 237.628514 346.733199 
L 243.268194 348.953883 
L 248.907875 349.648839 
L 254.547555 349.750807 
L 260.187236 349.055929 
L 265.826916 346.887223 
L 271.466597 348.059553 
L 277.106278 348.429595 
L 282.745958 348.703669 
L 288.385639 350.848396 
L 294.025319 349.056569 
L 299.665 348.033728 
L 305.304681 348.58692 
L 310.944361 348.602215 
L 316.584042 348.91936 
L 322.223722 348.71602 
L 327.863403 348.80565 
L 333.503084 349.307011 
L 339.142764 348.584128 
L 344.782445 348.971901 
L 350.422125 348.873784 
L 356.061806 348.236661 
L 361.701486 350.147714 
L 367.341167 348.506031 
L 372.980848 348.59276 
L 378.620528 349.944876 
L 384.260209 350.629999 
L 389.899889 349.413986 
L 395.53957 349.847929 
L 401.179251 349.850351 
L 406.818931 349.427372 
L 412.458612 350.298176 
L 418.098292 349.868179 
L 423.737973 348.640821 
L 429.377654 350.696327 
L 435.017334 346.883762 
L 440.657015 348.325935 
L 446.296695 349.3548 
L 451.936376 351.260424 
L 457.576057 348.359539 
L 463.215737 349.404555 
L 468.855418 348.835451 
L 474.495098 348.017448 
L 480.134779 351.43624 
L 485.774459 349.943135 
L 491.41414 352.966364 
L 497.053821 352.966364 
L 502.693501 352.966364 
L 508.333182 352.966364 
" style="fill:none;stroke:#2ca02c;stroke-linecap:square;stroke-width:1.5;"/>
   </g>
   <g id="line2d_20">
    <path clip-path="url(#pe28595ffe1)" d="M 90.996818 352.966364 
L 96.636499 352.966364 
L 102.276179 352.966364 
L 107.91586 352.966364 
L 113.555541 352.966364 
L 119.195221 351.70414 
L 124.834902 350.80567 
L 130.474582 347.286359 
L 136.114263 346.196516 
L 141.753943 348.347715 
L 147.393624 350.864231 
L 153.033305 351.037305 
L 158.672985 348.213523 
L 164.312666 349.090201 
L 169.952346 349.833659 
L 175.592027 349.051164 
L 181.231708 347.446653 
L 186.871388 345.951059 
L 192.511069 348.379396 
L 198.150749 349.789412 
L 203.79043 351.069196 
L 209.430111 350.426032 
L 215.069791 345.6635 
L 220.709472 349.631129 
L 226.349152 348.488271 
L 231.988833 348.653854 
L 237.628514 347.326834 
L 243.268194 350.673518 
L 248.907875 348.266536 
L 254.547555 349.214881 
L 260.187236 348.534538 
L 265.826916 348.153711 
L 271.466597 348.304893 
L 277.106278 349.623482 
L 282.745958 349.177301 
L 288.385639 347.318449 
L 294.025319 348.596593 
L 299.665 349.378992 
L 305.304681 350.338698 
L 310.944361 347.729386 
L 316.584042 349.984361 
L 322.223722 349.566088 
L 327.863403 348.80565 
L 333.503084 347.477335 
L 339.142764 347.98655 
L 344.782445 347.174393 
L 350.422125 349.078413 
L 356.061806 349.264857 
L 361.701486 349.497257 
L 367.341167 348.293634 
L 372.980848 349.634094 
L 378.620528 348.865773 
L 384.260209 349.355618 
L 389.899889 349.205022 
L 395.53957 349.625184 
L 401.179251 350.329737 
L 406.818931 349.680157 
L 412.458612 350.298176 
L 418.098292 349.586526 
L 423.737973 348.640821 
L 429.377654 347.777708 
L 435.017334 347.524036 
L 440.657015 349.983231 
L 446.296695 347.910174 
L 451.936376 349.127998 
L 457.576057 352.390511 
L 463.215737 349.404555 
L 468.855418 351.933635 
L 474.495098 350.491906 
L 480.134779 351.43624 
L 485.774459 352.966364 
L 491.41414 350.993309 
L 497.053821 351.023978 
L 502.693501 352.966364 
L 508.333182 352.966364 
" style="fill:none;stroke:#d62728;stroke-linecap:square;stroke-width:1.5;"/>
   </g>
   <g id="line2d_21">
    <path clip-path="url(#pe28595ffe1)" d="M 90.996818 352.966364 
L 96.636499 352.966364 
L 102.276179 352.966364 
L 107.91586 352.966364 
L 113.555541 351.46082 
L 119.195221 350.441917 
L 124.834902 347.56463 
L 130.474582 348.233026 
L 136.114263 347.888978 
L 141.753943 349.11749 
L 147.393624 347.360676 
L 153.033305 346.536169 
L 158.672985 349.401733 
L 164.312666 341.337875 
L 169.952346 345.656719 
L 175.592027 344.157165 
L 181.231708 347.446653 
L 186.871388 346.389516 
L 192.511069 340.873449 
L 198.150749 345.421103 
L 203.79043 343.101092 
L 209.430111 340.627611 
L 215.069791 343.576967 
L 220.709472 343.294184 
L 226.349152 342.090995 
L 231.988833 344.957416 
L 237.628514 343.468208 
L 243.268194 340.642316 
L 248.907875 340.525644 
L 254.547555 339.836173 
L 260.187236 340.192277 
L 265.826916 341.567975 
L 271.466597 342.662061 
L 277.106278 340.788722 
L 282.745958 339.941462 
L 288.385639 338.611247 
L 294.025319 341.236979 
L 299.665 341.531616 
L 305.304681 340.703923 
L 310.944361 338.782882 
L 316.584042 341.038353 
L 322.223722 337.665125 
L 327.863403 340.276186 
L 333.503084 342.191603 
L 339.142764 342.209967 
L 344.782445 342.181314 
L 350.422125 339.460849 
L 356.061806 342.273123 
L 361.701486 337.789022 
L 367.341167 341.072143 
L 372.980848 339.845552 
L 378.620528 339.369667 
L 384.260209 340.64735 
L 389.899889 340.846486 
L 395.53957 339.824391 
L 401.179251 340.262618 
L 406.818931 342.096603 
L 412.458612 340.95952 
L 418.098292 341.418585 
L 423.737973 340.278106 
L 429.377654 342.913344 
L 435.017334 342.081708 
L 440.657015 339.707996 
L 446.296695 340.687046 
L 451.936376 341.451268 
L 457.576057 341.449303 
L 463.215737 342.280938 
L 468.855418 344.704538 
L 474.495098 341.831304 
L 480.134779 346.845868 
L 485.774459 337.850221 
L 491.41414 347.0472 
L 497.053821 341.312053 
L 502.693501 352.966364 
L 508.333182 352.966364 
" style="fill:none;stroke:#9467bd;stroke-linecap:square;stroke-width:1.5;"/>
   </g>
   <g id="line2d_22">
    <path clip-path="url(#pe28595ffe1)" d="M 90.996818 352.966364 
L 96.636499 352.966364 
L 102.276179 352.966364 
L 107.91586 352.966364 
L 113.555541 352.966364 
L 119.195221 352.966364 
L 124.834902 352.966364 
L 130.474582 352.019696 
L 136.114263 352.966364 
L 141.753943 351.426814 
L 147.393624 350.16352 
L 153.033305 352.323344 
L 158.672985 350.589943 
L 164.312666 350.751413 
L 169.952346 351.400011 
L 175.592027 350.519364 
L 181.231708 349.746533 
L 186.871388 348.581798 
L 192.511069 351.298375 
L 198.150749 350.58365 
L 203.79043 350.310329 
L 209.430111 350.788937 
L 215.069791 351.227587 
L 220.709472 350.965223 
L 226.349152 347.848543 
L 231.988833 350.810109 
L 237.628514 350.295007 
L 243.268194 351.246729 
L 248.907875 348.542997 
L 254.547555 349.214881 
L 260.187236 351.40219 
L 265.826916 350.433388 
L 271.466597 349.776937 
L 277.106278 349.623482 
L 282.745958 351.545465 
L 288.385639 348.024438 
L 294.025319 350.436496 
L 299.665 350.275835 
L 305.304681 349.243837 
L 310.944361 349.91146 
L 316.584042 349.771361 
L 322.223722 350.416157 
L 327.863403 349.845828 
L 333.503084 349.510308 
L 339.142764 350.775246 
L 344.782445 350.969132 
L 350.422125 350.920074 
L 356.061806 351.11561 
L 361.701486 351.665449 
L 367.341167 351.267189 
L 372.980848 350.467161 
L 378.620528 350.160696 
L 384.260209 351.054793 
L 389.899889 349.622949 
L 395.53957 351.184401 
L 401.179251 350.809124 
L 406.818931 350.185727 
L 412.458612 350.564995 
L 418.098292 352.121404 
L 423.737973 351.812886 
L 429.377654 350.372036 
L 435.017334 351.365679 
L 440.657015 350.977609 
L 446.296695 350.799425 
L 451.936376 349.127998 
L 457.576057 350.662951 
L 463.215737 352.966364 
L 468.855418 351.933635 
L 474.495098 349.254677 
L 480.134779 349.906116 
L 485.774459 352.966364 
L 491.41414 349.020255 
L 497.053821 352.966364 
L 502.693501 347.015882 
L 508.333182 352.966364 
" style="fill:none;stroke:#8c564b;stroke-linecap:square;stroke-width:1.5;"/>
   </g>
   <g id="line2d_23">
    <path clip-path="url(#pe28595ffe1)" d="M 90.996818 352.966364 
L 96.636499 352.966364 
L 102.276179 352.966364 
L 107.91586 352.966364 
L 113.555541 349.955277 
L 119.195221 351.70414 
L 124.834902 349.725323 
L 130.474582 350.126361 
L 136.114263 348.735209 
L 141.753943 349.887264 
L 147.393624 349.462809 
L 153.033305 348.465227 
L 158.672985 348.807628 
L 164.312666 348.536463 
L 169.952346 348.789424 
L 175.592027 347.093565 
L 181.231708 345.60675 
L 186.871388 347.704885 
L 192.511069 347.545402 
L 198.150749 346.61246 
L 203.79043 346.895427 
L 209.430111 344.61956 
L 215.069791 346.359011 
L 220.709472 342.960661 
L 226.349152 344.649906 
L 231.988833 345.881526 
L 237.628514 346.733199 
L 243.268194 344.654797 
L 248.907875 345.225472 
L 254.547555 346.803213 
L 260.187236 343.842016 
L 265.826916 346.12733 
L 271.466597 343.152742 
L 277.106278 344.131604 
L 282.745958 346.335505 
L 288.385639 345.435811 
L 294.025319 345.376762 
L 299.665 346.015831 
L 305.304681 342.893644 
L 310.944361 345.329104 
L 316.584042 345.085357 
L 322.223722 346.590848 
L 327.863403 344.644935 
L 333.503084 345.647659 
L 339.142764 341.811582 
L 344.782445 344.977438 
L 350.422125 343.144171 
L 356.061806 344.535155 
L 361.701486 342.125405 
L 367.341167 346.169666 
L 372.980848 345.26049 
L 378.620528 346.060105 
L 384.260209 344.470492 
L 389.899889 344.816791 
L 395.53957 343.388316 
L 401.179251 346.015258 
L 406.818931 345.130025 
L 412.458612 344.961801 
L 418.098292 341.981891 
L 423.737973 343.45017 
L 429.377654 347.129127 
L 435.017334 348.16431 
L 440.657015 344.348425 
L 446.296695 346.465549 
L 451.936376 344.010178 
L 457.576057 348.935392 
L 463.215737 346.733199 
L 468.855418 342.639082 
L 474.495098 346.780219 
L 480.134779 349.906116 
L 485.774459 343.896678 
L 491.41414 347.0472 
L 497.053821 343.254438 
L 502.693501 347.015882 
L 508.333182 352.966364 
" style="fill:none;stroke:#e377c2;stroke-linecap:square;stroke-width:1.5;"/>
   </g>
   <g id="line2d_24">
    <path clip-path="url(#pe28595ffe1)" d="M 90.996818 352.966364 
L 96.636499 352.966364 
L 102.276179 352.966364 
L 107.91586 352.966364 
L 113.555541 352.966364 
L 119.195221 352.966364 
L 124.834902 352.966364 
L 130.474582 352.966364 
L 136.114263 352.966364 
L 141.753943 352.966364 
L 147.393624 352.966364 
L 153.033305 352.323344 
L 158.672985 351.778153 
L 164.312666 352.966364 
L 169.952346 352.444246 
L 175.592027 352.966364 
L 181.231708 352.046412 
L 186.871388 350.774081 
L 192.511069 351.715373 
L 198.150749 350.980769 
L 203.79043 349.172028 
L 209.430111 352.240555 
L 215.069791 350.532076 
L 220.709472 351.298746 
L 226.349152 351.686909 
L 231.988833 351.426181 
L 237.628514 351.185459 
L 243.268194 351.533335 
L 248.907875 351.031141 
L 254.547555 350.554696 
L 260.187236 350.620103 
L 265.826916 350.939983 
L 271.466597 350.267618 
L 277.106278 351.5337 
L 282.745958 351.071833 
L 288.385639 352.260374 
L 294.025319 350.206508 
L 299.665 351.172678 
L 305.304681 350.55767 
L 310.944361 350.347875 
L 316.584042 351.475362 
L 322.223722 350.841192 
L 327.863403 351.510114 
L 333.503084 351.949877 
L 339.142764 351.173631 
L 344.782445 351.568302 
L 350.422125 351.329332 
L 356.061806 351.32125 
L 361.701486 351.665449 
L 367.341167 351.267189 
L 372.980848 350.883695 
L 378.620528 351.023978 
L 384.260209 351.054793 
L 389.899889 351.085693 
L 395.53957 351.407147 
L 401.179251 350.809124 
L 406.818931 351.955223 
L 412.458612 351.899089 
L 418.098292 351.839751 
L 423.737973 352.389625 
L 429.377654 352.317782 
L 435.017334 351.365679 
L 440.657015 351.309068 
L 446.296695 351.521738 
L 451.936376 350.407453 
L 457.576057 351.238804 
L 463.215737 350.295007 
L 468.855418 350.900907 
L 474.495098 351.729135 
L 480.134779 349.906116 
L 485.774459 351.454749 
L 491.41414 350.993309 
L 497.053821 351.023978 
L 502.693501 352.966364 
L 508.333182 352.966364 
" style="fill:none;stroke:#7f7f7f;stroke-linecap:square;stroke-width:1.5;"/>
   </g>
   <g id="line2d_25">
    <path clip-path="url(#pe28595ffe1)" d="M 90.996818 120.540554 
L 96.636499 165.526195 
L 102.276179 148.031779 
L 107.91586 133.661366 
L 113.555541 118.101573 
L 119.195221 137.126169 
L 124.834902 117.450762 
L 130.474582 128.606161 
L 136.114263 121.099066 
L 141.753943 126.652566 
L 147.393624 128.738872 
L 153.033305 123.408421 
L 158.672985 133.74157 
L 164.312666 134.793759 
L 169.952346 130.544324 
L 175.592027 126.374201 
L 181.231708 122.978426 
L 186.871388 129.35353 
L 192.511069 133.208924 
L 198.150749 136.139388 
L 203.79043 127.58284 
L 209.430111 137.038192 
L 215.069791 141.878826 
L 220.709472 137.510226 
L 226.349152 142.815867 
L 231.988833 141.037298 
L 237.628514 139.554675 
L 243.268194 144.603974 
L 248.907875 141.197677 
L 254.547555 139.935721 
L 260.187236 145.713325 
L 265.826916 141.969525 
L 271.466597 141.728163 
L 277.106278 139.977025 
L 282.745958 138.647535 
L 288.385639 141.169562 
L 294.025319 147.587135 
L 299.665 141.984068 
L 305.304681 148.008422 
L 310.944361 142.178001 
L 316.584042 147.847179 
L 322.223722 150.649991 
L 327.863403 150.75566 
L 333.503084 142.960187 
L 339.142764 136.643278 
L 344.782445 142.458172 
L 350.422125 142.607746 
L 356.061806 153.29066 
L 361.701486 144.386326 
L 367.341167 140.994365 
L 372.980848 146.365644 
L 378.620528 142.325483 
L 384.260209 145.029904 
L 389.899889 152.988391 
L 395.53957 147.372453 
L 401.179251 148.507969 
L 406.818931 149.474339 
L 412.458612 144.314104 
L 418.098292 142.28981 
L 423.737973 158.605327 
L 429.377654 144.447283 
L 435.017334 140.715583 
L 440.657015 150.776261 
L 446.296695 147.829531 
L 451.936376 141.856276 
L 457.576057 133.56635 
L 463.215737 141.929214 
L 468.855418 140.224353 
L 474.495098 125.316257 
L 480.134779 140.279151 
L 485.774459 135.293909 
L 491.41414 133.957324 
L 497.053821 149.015921 
L 502.693501 108.99662 
L 508.333182 101.093636 
" style="fill:none;stroke:#bcbd22;stroke-linecap:square;stroke-width:1.5;"/>
   </g>
   <g id="patch_3">
    <path d="M 70.13 365.56 
L 70.13 88.5 
" style="fill:none;stroke:#000000;stroke-linecap:square;stroke-linejoin:miter;stroke-width:0.8;"/>
   </g>
   <g id="patch_4">
    <path d="M 529.2 365.56 
L 529.2 88.5 
" style="fill:none;stroke:#000000;stroke-linecap:square;stroke-linejoin:miter;stroke-width:0.8;"/>
   </g>
   <g id="patch_5">
    <path d="M 70.13 365.56 
L 529.2 365.56 
" style="fill:none;stroke:#000000;stroke-linecap:square;stroke-linejoin:miter;stroke-width:0.8;"/>
   </g>
   <g id="patch_6">
    <path d="M 70.13 88.5 
L 529.2 88.5 
" style="fill:none;stroke:#000000;stroke-linecap:square;stroke-linejoin:miter;stroke-width:0.8;"/>
   </g>
   <g id="legend_1">
    <g id="patch_7">
     <path d="M 80.63 81 
L 518.7 81 
Q 521.7 81 521.7 78 
L 521.7 13.448438 
Q 521.7 10.448438 518.7 10.448438 
L 80.63 10.448438 
Q 77.63 10.448438 77.63 13.448438 
L 77.63 78 
Q 77.63 81 80.63 81 
z
" style="fill:#ffffff;opacity:0.8;stroke:#cccccc;stroke-linejoin:miter;"/>
    </g>
    <g id="line2d_26">
     <path d="M 83.63 22.596094 
L 113.63 22.596094 
" style="fill:none;stroke:#1f77b4;stroke-linecap:square;stroke-width:1.5;"/>
    </g>
    <g id="line2d_27"/>
    <g id="text_19">
     <!-- Stra 1 -->
     <defs>
      <path d="M 53.515625 70.515625 
L 53.515625 60.890625 
Q 47.90625 63.578125 42.921875 64.890625 
Q 37.9375 66.21875 33.296875 66.21875 
Q 25.25 66.21875 20.875 63.09375 
Q 16.5 59.96875 16.5 54.203125 
Q 16.5 49.359375 19.40625 46.890625 
Q 22.3125 44.4375 30.421875 42.921875 
L 36.375 41.703125 
Q 47.40625 39.59375 52.65625 34.296875 
Q 57.90625 29 57.90625 20.125 
Q 57.90625 9.515625 50.796875 4.046875 
Q 43.703125 -1.421875 29.984375 -1.421875 
Q 24.8125 -1.421875 18.96875 -0.25 
Q 13.140625 0.921875 6.890625 3.21875 
L 6.890625 13.375 
Q 12.890625 10.015625 18.65625 8.296875 
Q 24.421875 6.59375 29.984375 6.59375 
Q 38.421875 6.59375 43.015625 9.90625 
Q 47.609375 13.234375 47.609375 19.390625 
Q 47.609375 24.75 44.3125 27.78125 
Q 41.015625 30.8125 33.5 32.328125 
L 27.484375 33.5 
Q 16.453125 35.6875 11.515625 40.375 
Q 6.59375 45.0625 6.59375 53.421875 
Q 6.59375 63.09375 13.40625 68.65625 
Q 20.21875 74.21875 32.171875 74.21875 
Q 37.3125 74.21875 42.625 73.28125 
Q 47.953125 72.359375 53.515625 70.515625 
z
" id="DejaVuSans-83"/>
     </defs>
     <g transform="translate(125.63 27.846094)scale(0.15 -0.15)">
      <use xlink:href="#DejaVuSans-83"/>
      <use x="63.476562" xlink:href="#DejaVuSans-116"/>
      <use x="102.685547" xlink:href="#DejaVuSans-114"/>
      <use x="143.798828" xlink:href="#DejaVuSans-97"/>
      <use x="205.078125" xlink:href="#DejaVuSans-32"/>
      <use x="236.865234" xlink:href="#DejaVuSans-49"/>
     </g>
    </g>
    <g id="line2d_28">
     <path d="M 83.63 44.613281 
L 113.63 44.613281 
" style="fill:none;stroke:#ff7f0e;stroke-linecap:square;stroke-width:1.5;"/>
    </g>
    <g id="line2d_29"/>
    <g id="text_20">
     <!-- Stra 2 -->
     <g transform="translate(125.63 49.863281)scale(0.15 -0.15)">
      <use xlink:href="#DejaVuSans-83"/>
      <use x="63.476562" xlink:href="#DejaVuSans-116"/>
      <use x="102.685547" xlink:href="#DejaVuSans-114"/>
      <use x="143.798828" xlink:href="#DejaVuSans-97"/>
      <use x="205.078125" xlink:href="#DejaVuSans-32"/>
      <use x="236.865234" xlink:href="#DejaVuSans-50"/>
     </g>
    </g>
    <g id="line2d_30">
     <path d="M 83.63 66.630469 
L 113.63 66.630469 
" style="fill:none;stroke:#2ca02c;stroke-linecap:square;stroke-width:1.5;"/>
    </g>
    <g id="line2d_31"/>
    <g id="text_21">
     <!-- Stra 3 -->
     <g transform="translate(125.63 71.880469)scale(0.15 -0.15)">
      <use xlink:href="#DejaVuSans-83"/>
      <use x="63.476562" xlink:href="#DejaVuSans-116"/>
      <use x="102.685547" xlink:href="#DejaVuSans-114"/>
      <use x="143.798828" xlink:href="#DejaVuSans-97"/>
      <use x="205.078125" xlink:href="#DejaVuSans-32"/>
      <use x="236.865234" xlink:href="#DejaVuSans-51"/>
     </g>
    </g>
    <g id="line2d_32">
     <path d="M 198.629115 22.596094 
L 228.629115 22.596094 
" style="fill:none;stroke:#d62728;stroke-linecap:square;stroke-width:1.5;"/>
    </g>
    <g id="line2d_33"/>
    <g id="text_22">
     <!-- Stra 4 -->
     <g transform="translate(240.629115 27.846094)scale(0.15 -0.15)">
      <use xlink:href="#DejaVuSans-83"/>
      <use x="63.476562" xlink:href="#DejaVuSans-116"/>
      <use x="102.685547" xlink:href="#DejaVuSans-114"/>
      <use x="143.798828" xlink:href="#DejaVuSans-97"/>
      <use x="205.078125" xlink:href="#DejaVuSans-32"/>
      <use x="236.865234" xlink:href="#DejaVuSans-52"/>
     </g>
    </g>
    <g id="line2d_34">
     <path d="M 198.629115 44.613281 
L 228.629115 44.613281 
" style="fill:none;stroke:#9467bd;stroke-linecap:square;stroke-width:1.5;"/>
    </g>
    <g id="line2d_35"/>
    <g id="text_23">
     <!-- Stra 5 -->
     <g transform="translate(240.629115 49.863281)scale(0.15 -0.15)">
      <use xlink:href="#DejaVuSans-83"/>
      <use x="63.476562" xlink:href="#DejaVuSans-116"/>
      <use x="102.685547" xlink:href="#DejaVuSans-114"/>
      <use x="143.798828" xlink:href="#DejaVuSans-97"/>
      <use x="205.078125" xlink:href="#DejaVuSans-32"/>
      <use x="236.865234" xlink:href="#DejaVuSans-53"/>
     </g>
    </g>
    <g id="line2d_36">
     <path d="M 313.628229 22.596094 
L 343.628229 22.596094 
" style="fill:none;stroke:#8c564b;stroke-linecap:square;stroke-width:1.5;"/>
    </g>
    <g id="line2d_37"/>
    <g id="text_24">
     <!-- Stra 6 -->
     <g transform="translate(355.628229 27.846094)scale(0.15 -0.15)">
      <use xlink:href="#DejaVuSans-83"/>
      <use x="63.476562" xlink:href="#DejaVuSans-116"/>
      <use x="102.685547" xlink:href="#DejaVuSans-114"/>
      <use x="143.798828" xlink:href="#DejaVuSans-97"/>
      <use x="205.078125" xlink:href="#DejaVuSans-32"/>
      <use x="236.865234" xlink:href="#DejaVuSans-54"/>
     </g>
    </g>
    <g id="line2d_38">
     <path d="M 313.628229 44.613281 
L 343.628229 44.613281 
" style="fill:none;stroke:#e377c2;stroke-linecap:square;stroke-width:1.5;"/>
    </g>
    <g id="line2d_39"/>
    <g id="text_25">
     <!-- Stra 7 -->
     <g transform="translate(355.628229 49.863281)scale(0.15 -0.15)">
      <use xlink:href="#DejaVuSans-83"/>
      <use x="63.476562" xlink:href="#DejaVuSans-116"/>
      <use x="102.685547" xlink:href="#DejaVuSans-114"/>
      <use x="143.798828" xlink:href="#DejaVuSans-97"/>
      <use x="205.078125" xlink:href="#DejaVuSans-32"/>
      <use x="236.865234" xlink:href="#DejaVuSans-55"/>
     </g>
    </g>
    <g id="line2d_40">
     <path d="M 428.627344 22.596094 
L 458.627344 22.596094 
" style="fill:none;stroke:#7f7f7f;stroke-linecap:square;stroke-width:1.5;"/>
    </g>
    <g id="line2d_41"/>
    <g id="text_26">
     <!-- Stra 8 -->
     <defs>
      <path d="M 31.78125 34.625 
Q 24.75 34.625 20.71875 30.859375 
Q 16.703125 27.09375 16.703125 20.515625 
Q 16.703125 13.921875 20.71875 10.15625 
Q 24.75 6.390625 31.78125 6.390625 
Q 38.8125 6.390625 42.859375 10.171875 
Q 46.921875 13.96875 46.921875 20.515625 
Q 46.921875 27.09375 42.890625 30.859375 
Q 38.875 34.625 31.78125 34.625 
z
M 21.921875 38.8125 
Q 15.578125 40.375 12.03125 44.71875 
Q 8.5 49.078125 8.5 55.328125 
Q 8.5 64.0625 14.71875 69.140625 
Q 20.953125 74.21875 31.78125 74.21875 
Q 42.671875 74.21875 48.875 69.140625 
Q 55.078125 64.0625 55.078125 55.328125 
Q 55.078125 49.078125 51.53125 44.71875 
Q 48 40.375 41.703125 38.8125 
Q 48.828125 37.15625 52.796875 32.3125 
Q 56.78125 27.484375 56.78125 20.515625 
Q 56.78125 9.90625 50.3125 4.234375 
Q 43.84375 -1.421875 31.78125 -1.421875 
Q 19.734375 -1.421875 13.25 4.234375 
Q 6.78125 9.90625 6.78125 20.515625 
Q 6.78125 27.484375 10.78125 32.3125 
Q 14.796875 37.15625 21.921875 38.8125 
z
M 18.3125 54.390625 
Q 18.3125 48.734375 21.84375 45.5625 
Q 25.390625 42.390625 31.78125 42.390625 
Q 38.140625 42.390625 41.71875 45.5625 
Q 45.3125 48.734375 45.3125 54.390625 
Q 45.3125 60.0625 41.71875 63.234375 
Q 38.140625 66.40625 31.78125 66.40625 
Q 25.390625 66.40625 21.84375 63.234375 
Q 18.3125 60.0625 18.3125 54.390625 
z
" id="DejaVuSans-56"/>
     </defs>
     <g transform="translate(470.627344 27.846094)scale(0.15 -0.15)">
      <use xlink:href="#DejaVuSans-83"/>
      <use x="63.476562" xlink:href="#DejaVuSans-116"/>
      <use x="102.685547" xlink:href="#DejaVuSans-114"/>
      <use x="143.798828" xlink:href="#DejaVuSans-97"/>
      <use x="205.078125" xlink:href="#DejaVuSans-32"/>
      <use x="236.865234" xlink:href="#DejaVuSans-56"/>
     </g>
    </g>
    <g id="line2d_42">
     <path d="M 428.627344 44.613281 
L 458.627344 44.613281 
" style="fill:none;stroke:#bcbd22;stroke-linecap:square;stroke-width:1.5;"/>
    </g>
    <g id="line2d_43"/>
    <g id="text_27">
     <!-- Stra 9 -->
     <defs>
      <path d="M 10.984375 1.515625 
L 10.984375 10.5 
Q 14.703125 8.734375 18.5 7.8125 
Q 22.3125 6.890625 25.984375 6.890625 
Q 35.75 6.890625 40.890625 13.453125 
Q 46.046875 20.015625 46.78125 33.40625 
Q 43.953125 29.203125 39.59375 26.953125 
Q 35.25 24.703125 29.984375 24.703125 
Q 19.046875 24.703125 12.671875 31.3125 
Q 6.296875 37.9375 6.296875 49.421875 
Q 6.296875 60.640625 12.9375 67.421875 
Q 19.578125 74.21875 30.609375 74.21875 
Q 43.265625 74.21875 49.921875 64.515625 
Q 56.59375 54.828125 56.59375 36.375 
Q 56.59375 19.140625 48.40625 8.859375 
Q 40.234375 -1.421875 26.421875 -1.421875 
Q 22.703125 -1.421875 18.890625 -0.6875 
Q 15.09375 0.046875 10.984375 1.515625 
z
M 30.609375 32.421875 
Q 37.25 32.421875 41.125 36.953125 
Q 45.015625 41.5 45.015625 49.421875 
Q 45.015625 57.28125 41.125 61.84375 
Q 37.25 66.40625 30.609375 66.40625 
Q 23.96875 66.40625 20.09375 61.84375 
Q 16.21875 57.28125 16.21875 49.421875 
Q 16.21875 41.5 20.09375 36.953125 
Q 23.96875 32.421875 30.609375 32.421875 
z
" id="DejaVuSans-57"/>
     </defs>
     <g transform="translate(470.627344 49.863281)scale(0.15 -0.15)">
      <use xlink:href="#DejaVuSans-83"/>
      <use x="63.476562" xlink:href="#DejaVuSans-116"/>
      <use x="102.685547" xlink:href="#DejaVuSans-114"/>
      <use x="143.798828" xlink:href="#DejaVuSans-97"/>
      <use x="205.078125" xlink:href="#DejaVuSans-32"/>
      <use x="236.865234" xlink:href="#DejaVuSans-57"/>
     </g>
    </g>
   </g>
  </g>
 </g>
 <defs>
  <clipPath id="pe28595ffe1">
   <rect height="277.06" width="459.07" x="70.13" y="88.5"/>
  </clipPath>
 </defs>
</svg>
