<?xml version="1.0" encoding="utf-8" standalone="no"?>
<!DOCTYPE svg PUBLIC "-//W3C//DTD SVG 1.1//EN"
  "http://www.w3.org/Graphics/SVG/1.1/DTD/svg11.dtd">
<!-- Created with matplotlib (https://matplotlib.org/) -->
<svg height="432pt" version="1.1" viewBox="0 0 540 432" width="540pt" xmlns="http://www.w3.org/2000/svg" xmlns:xlink="http://www.w3.org/1999/xlink">
 <defs>
  <style type="text/css">
*{stroke-linecap:butt;stroke-linejoin:round;}
  </style>
 </defs>
 <g id="figure_1">
  <g id="patch_1">
   <path d="M 0 432 
L 540 432 
L 540 0 
L 0 0 
z
" style="fill:#ffffff;"/>
  </g>
  <g id="axes_1">
   <g id="patch_2">
    <path d="M 70.13 365.56 
L 518.093855 365.56 
L 518.093855 66.6 
L 70.13 66.6 
z
" style="fill:#ffffff;"/>
   </g>
   <g id="matplotlib.axis_1">
    <g id="xtick_1">
     <g id="line2d_1">
      <defs>
       <path d="M 0 0 
L 0 3.5 
" id="m2b5be9a46a" style="stroke:#000000;stroke-width:0.8;"/>
      </defs>
      <g>
       <use style="stroke:#000000;stroke-width:0.8;" x="90.491993" xlink:href="#m2b5be9a46a" y="365.56"/>
      </g>
     </g>
     <g id="text_1">
      <!-- 0 -->
      <defs>
       <path d="M 31.78125 66.40625 
Q 24.171875 66.40625 20.328125 58.90625 
Q 16.5 51.421875 16.5 36.375 
Q 16.5 21.390625 20.328125 13.890625 
Q 24.171875 6.390625 31.78125 6.390625 
Q 39.453125 6.390625 43.28125 13.890625 
Q 47.125 21.390625 47.125 36.375 
Q 47.125 51.421875 43.28125 58.90625 
Q 39.453125 66.40625 31.78125 66.40625 
z
M 31.78125 74.21875 
Q 44.046875 74.21875 50.515625 64.515625 
Q 56.984375 54.828125 56.984375 36.375 
Q 56.984375 17.96875 50.515625 8.265625 
Q 44.046875 -1.421875 31.78125 -1.421875 
Q 19.53125 -1.421875 13.0625 8.265625 
Q 6.59375 17.96875 6.59375 36.375 
Q 6.59375 54.828125 13.0625 64.515625 
Q 19.53125 74.21875 31.78125 74.21875 
z
" id="DejaVuSans-48"/>
      </defs>
      <g transform="translate(84.129493 387.756875)scale(0.2 -0.2)">
       <use xlink:href="#DejaVuSans-48"/>
      </g>
     </g>
    </g>
    <g id="xtick_2">
     <g id="line2d_2">
      <g>
       <use style="stroke:#000000;stroke-width:0.8;" x="160.344458" xlink:href="#m2b5be9a46a" y="365.56"/>
      </g>
     </g>
     <g id="text_2">
      <!-- 100 -->
      <defs>
       <path d="M 12.40625 8.296875 
L 28.515625 8.296875 
L 28.515625 63.921875 
L 10.984375 60.40625 
L 10.984375 69.390625 
L 28.421875 72.90625 
L 38.28125 72.90625 
L 38.28125 8.296875 
L 54.390625 8.296875 
L 54.390625 0 
L 12.40625 0 
z
" id="DejaVuSans-49"/>
      </defs>
      <g transform="translate(141.256958 387.756875)scale(0.2 -0.2)">
       <use xlink:href="#DejaVuSans-49"/>
       <use x="63.623047" xlink:href="#DejaVuSans-48"/>
       <use x="127.246094" xlink:href="#DejaVuSans-48"/>
      </g>
     </g>
    </g>
    <g id="xtick_3">
     <g id="line2d_3">
      <g>
       <use style="stroke:#000000;stroke-width:0.8;" x="230.196923" xlink:href="#m2b5be9a46a" y="365.56"/>
      </g>
     </g>
     <g id="text_3">
      <!-- 200 -->
      <defs>
       <path d="M 19.1875 8.296875 
L 53.609375 8.296875 
L 53.609375 0 
L 7.328125 0 
L 7.328125 8.296875 
Q 12.9375 14.109375 22.625 23.890625 
Q 32.328125 33.6875 34.8125 36.53125 
Q 39.546875 41.84375 41.421875 45.53125 
Q 43.3125 49.21875 43.3125 52.78125 
Q 43.3125 58.59375 39.234375 62.25 
Q 35.15625 65.921875 28.609375 65.921875 
Q 23.96875 65.921875 18.8125 64.3125 
Q 13.671875 62.703125 7.8125 59.421875 
L 7.8125 69.390625 
Q 13.765625 71.78125 18.9375 73 
Q 24.125 74.21875 28.421875 74.21875 
Q 39.75 74.21875 46.484375 68.546875 
Q 53.21875 62.890625 53.21875 53.421875 
Q 53.21875 48.921875 51.53125 44.890625 
Q 49.859375 40.875 45.40625 35.40625 
Q 44.1875 33.984375 37.640625 27.21875 
Q 31.109375 20.453125 19.1875 8.296875 
z
" id="DejaVuSans-50"/>
      </defs>
      <g transform="translate(211.109423 387.756875)scale(0.2 -0.2)">
       <use xlink:href="#DejaVuSans-50"/>
       <use x="63.623047" xlink:href="#DejaVuSans-48"/>
       <use x="127.246094" xlink:href="#DejaVuSans-48"/>
      </g>
     </g>
    </g>
    <g id="xtick_4">
     <g id="line2d_4">
      <g>
       <use style="stroke:#000000;stroke-width:0.8;" x="300.049387" xlink:href="#m2b5be9a46a" y="365.56"/>
      </g>
     </g>
     <g id="text_4">
      <!-- 300 -->
      <defs>
       <path d="M 40.578125 39.3125 
Q 47.65625 37.796875 51.625 33 
Q 55.609375 28.21875 55.609375 21.1875 
Q 55.609375 10.40625 48.1875 4.484375 
Q 40.765625 -1.421875 27.09375 -1.421875 
Q 22.515625 -1.421875 17.65625 -0.515625 
Q 12.796875 0.390625 7.625 2.203125 
L 7.625 11.71875 
Q 11.71875 9.328125 16.59375 8.109375 
Q 21.484375 6.890625 26.8125 6.890625 
Q 36.078125 6.890625 40.9375 10.546875 
Q 45.796875 14.203125 45.796875 21.1875 
Q 45.796875 27.640625 41.28125 31.265625 
Q 36.765625 34.90625 28.71875 34.90625 
L 20.21875 34.90625 
L 20.21875 43.015625 
L 29.109375 43.015625 
Q 36.375 43.015625 40.234375 45.921875 
Q 44.09375 48.828125 44.09375 54.296875 
Q 44.09375 59.90625 40.109375 62.90625 
Q 36.140625 65.921875 28.71875 65.921875 
Q 24.65625 65.921875 20.015625 65.03125 
Q 15.375 64.15625 9.8125 62.3125 
L 9.8125 71.09375 
Q 15.4375 72.65625 20.34375 73.4375 
Q 25.25 74.21875 29.59375 74.21875 
Q 40.828125 74.21875 47.359375 69.109375 
Q 53.90625 64.015625 53.90625 55.328125 
Q 53.90625 49.265625 50.4375 45.09375 
Q 46.96875 40.921875 40.578125 39.3125 
z
" id="DejaVuSans-51"/>
      </defs>
      <g transform="translate(280.961887 387.756875)scale(0.2 -0.2)">
       <use xlink:href="#DejaVuSans-51"/>
       <use x="63.623047" xlink:href="#DejaVuSans-48"/>
       <use x="127.246094" xlink:href="#DejaVuSans-48"/>
      </g>
     </g>
    </g>
    <g id="xtick_5">
     <g id="line2d_5">
      <g>
       <use style="stroke:#000000;stroke-width:0.8;" x="369.901852" xlink:href="#m2b5be9a46a" y="365.56"/>
      </g>
     </g>
     <g id="text_5">
      <!-- 400 -->
      <defs>
       <path d="M 37.796875 64.3125 
L 12.890625 25.390625 
L 37.796875 25.390625 
z
M 35.203125 72.90625 
L 47.609375 72.90625 
L 47.609375 25.390625 
L 58.015625 25.390625 
L 58.015625 17.1875 
L 47.609375 17.1875 
L 47.609375 0 
L 37.796875 0 
L 37.796875 17.1875 
L 4.890625 17.1875 
L 4.890625 26.703125 
z
" id="DejaVuSans-52"/>
      </defs>
      <g transform="translate(350.814352 387.756875)scale(0.2 -0.2)">
       <use xlink:href="#DejaVuSans-52"/>
       <use x="63.623047" xlink:href="#DejaVuSans-48"/>
       <use x="127.246094" xlink:href="#DejaVuSans-48"/>
      </g>
     </g>
    </g>
    <g id="xtick_6">
     <g id="line2d_6">
      <g>
       <use style="stroke:#000000;stroke-width:0.8;" x="439.754316" xlink:href="#m2b5be9a46a" y="365.56"/>
      </g>
     </g>
     <g id="text_6">
      <!-- 500 -->
      <defs>
       <path d="M 10.796875 72.90625 
L 49.515625 72.90625 
L 49.515625 64.59375 
L 19.828125 64.59375 
L 19.828125 46.734375 
Q 21.96875 47.46875 24.109375 47.828125 
Q 26.265625 48.1875 28.421875 48.1875 
Q 40.625 48.1875 47.75 41.5 
Q 54.890625 34.8125 54.890625 23.390625 
Q 54.890625 11.625 47.5625 5.09375 
Q 40.234375 -1.421875 26.90625 -1.421875 
Q 22.3125 -1.421875 17.546875 -0.640625 
Q 12.796875 0.140625 7.71875 1.703125 
L 7.71875 11.625 
Q 12.109375 9.234375 16.796875 8.0625 
Q 21.484375 6.890625 26.703125 6.890625 
Q 35.15625 6.890625 40.078125 11.328125 
Q 45.015625 15.765625 45.015625 23.390625 
Q 45.015625 31 40.078125 35.4375 
Q 35.15625 39.890625 26.703125 39.890625 
Q 22.75 39.890625 18.8125 39.015625 
Q 14.890625 38.140625 10.796875 36.28125 
z
" id="DejaVuSans-53"/>
      </defs>
      <g transform="translate(420.666816 387.756875)scale(0.2 -0.2)">
       <use xlink:href="#DejaVuSans-53"/>
       <use x="63.623047" xlink:href="#DejaVuSans-48"/>
       <use x="127.246094" xlink:href="#DejaVuSans-48"/>
      </g>
     </g>
    </g>
    <g id="xtick_7">
     <g id="line2d_7">
      <g>
       <use style="stroke:#000000;stroke-width:0.8;" x="509.606781" xlink:href="#m2b5be9a46a" y="365.56"/>
      </g>
     </g>
     <g id="text_7">
      <!-- 600 -->
      <defs>
       <path d="M 33.015625 40.375 
Q 26.375 40.375 22.484375 35.828125 
Q 18.609375 31.296875 18.609375 23.390625 
Q 18.609375 15.53125 22.484375 10.953125 
Q 26.375 6.390625 33.015625 6.390625 
Q 39.65625 6.390625 43.53125 10.953125 
Q 47.40625 15.53125 47.40625 23.390625 
Q 47.40625 31.296875 43.53125 35.828125 
Q 39.65625 40.375 33.015625 40.375 
z
M 52.59375 71.296875 
L 52.59375 62.3125 
Q 48.875 64.0625 45.09375 64.984375 
Q 41.3125 65.921875 37.59375 65.921875 
Q 27.828125 65.921875 22.671875 59.328125 
Q 17.53125 52.734375 16.796875 39.40625 
Q 19.671875 43.65625 24.015625 45.921875 
Q 28.375 48.1875 33.59375 48.1875 
Q 44.578125 48.1875 50.953125 41.515625 
Q 57.328125 34.859375 57.328125 23.390625 
Q 57.328125 12.15625 50.6875 5.359375 
Q 44.046875 -1.421875 33.015625 -1.421875 
Q 20.359375 -1.421875 13.671875 8.265625 
Q 6.984375 17.96875 6.984375 36.375 
Q 6.984375 53.65625 15.1875 63.9375 
Q 23.390625 74.21875 37.203125 74.21875 
Q 40.921875 74.21875 44.703125 73.484375 
Q 48.484375 72.75 52.59375 71.296875 
z
" id="DejaVuSans-54"/>
      </defs>
      <g transform="translate(490.519281 387.756875)scale(0.2 -0.2)">
       <use xlink:href="#DejaVuSans-54"/>
       <use x="63.623047" xlink:href="#DejaVuSans-48"/>
       <use x="127.246094" xlink:href="#DejaVuSans-48"/>
      </g>
     </g>
    </g>
    <g id="text_8">
     <!-- # of games -->
     <defs>
      <path d="M 51.125 44 
L 36.921875 44 
L 32.8125 27.6875 
L 47.125 27.6875 
z
M 43.796875 71.78125 
L 38.71875 51.515625 
L 52.984375 51.515625 
L 58.109375 71.78125 
L 65.921875 71.78125 
L 60.890625 51.515625 
L 76.125 51.515625 
L 76.125 44 
L 58.984375 44 
L 54.984375 27.6875 
L 70.515625 27.6875 
L 70.515625 20.21875 
L 53.078125 20.21875 
L 48 0 
L 40.1875 0 
L 45.21875 20.21875 
L 30.90625 20.21875 
L 25.875 0 
L 18.015625 0 
L 23.09375 20.21875 
L 7.71875 20.21875 
L 7.71875 27.6875 
L 24.90625 27.6875 
L 29 44 
L 13.28125 44 
L 13.28125 51.515625 
L 30.90625 51.515625 
L 35.890625 71.78125 
z
" id="DejaVuSans-35"/>
      <path id="DejaVuSans-32"/>
      <path d="M 30.609375 48.390625 
Q 23.390625 48.390625 19.1875 42.75 
Q 14.984375 37.109375 14.984375 27.296875 
Q 14.984375 17.484375 19.15625 11.84375 
Q 23.34375 6.203125 30.609375 6.203125 
Q 37.796875 6.203125 41.984375 11.859375 
Q 46.1875 17.53125 46.1875 27.296875 
Q 46.1875 37.015625 41.984375 42.703125 
Q 37.796875 48.390625 30.609375 48.390625 
z
M 30.609375 56 
Q 42.328125 56 49.015625 48.375 
Q 55.71875 40.765625 55.71875 27.296875 
Q 55.71875 13.875 49.015625 6.21875 
Q 42.328125 -1.421875 30.609375 -1.421875 
Q 18.84375 -1.421875 12.171875 6.21875 
Q 5.515625 13.875 5.515625 27.296875 
Q 5.515625 40.765625 12.171875 48.375 
Q 18.84375 56 30.609375 56 
z
" id="DejaVuSans-111"/>
      <path d="M 37.109375 75.984375 
L 37.109375 68.5 
L 28.515625 68.5 
Q 23.6875 68.5 21.796875 66.546875 
Q 19.921875 64.59375 19.921875 59.515625 
L 19.921875 54.6875 
L 34.71875 54.6875 
L 34.71875 47.703125 
L 19.921875 47.703125 
L 19.921875 0 
L 10.890625 0 
L 10.890625 47.703125 
L 2.296875 47.703125 
L 2.296875 54.6875 
L 10.890625 54.6875 
L 10.890625 58.5 
Q 10.890625 67.625 15.140625 71.796875 
Q 19.390625 75.984375 28.609375 75.984375 
z
" id="DejaVuSans-102"/>
      <path d="M 45.40625 27.984375 
Q 45.40625 37.75 41.375 43.109375 
Q 37.359375 48.484375 30.078125 48.484375 
Q 22.859375 48.484375 18.828125 43.109375 
Q 14.796875 37.75 14.796875 27.984375 
Q 14.796875 18.265625 18.828125 12.890625 
Q 22.859375 7.515625 30.078125 7.515625 
Q 37.359375 7.515625 41.375 12.890625 
Q 45.40625 18.265625 45.40625 27.984375 
z
M 54.390625 6.78125 
Q 54.390625 -7.171875 48.1875 -13.984375 
Q 42 -20.796875 29.203125 -20.796875 
Q 24.46875 -20.796875 20.265625 -20.09375 
Q 16.0625 -19.390625 12.109375 -17.921875 
L 12.109375 -9.1875 
Q 16.0625 -11.328125 19.921875 -12.34375 
Q 23.78125 -13.375 27.78125 -13.375 
Q 36.625 -13.375 41.015625 -8.765625 
Q 45.40625 -4.15625 45.40625 5.171875 
L 45.40625 9.625 
Q 42.625 4.78125 38.28125 2.390625 
Q 33.9375 0 27.875 0 
Q 17.828125 0 11.671875 7.65625 
Q 5.515625 15.328125 5.515625 27.984375 
Q 5.515625 40.671875 11.671875 48.328125 
Q 17.828125 56 27.875 56 
Q 33.9375 56 38.28125 53.609375 
Q 42.625 51.21875 45.40625 46.390625 
L 45.40625 54.6875 
L 54.390625 54.6875 
z
" id="DejaVuSans-103"/>
      <path d="M 34.28125 27.484375 
Q 23.390625 27.484375 19.1875 25 
Q 14.984375 22.515625 14.984375 16.5 
Q 14.984375 11.71875 18.140625 8.90625 
Q 21.296875 6.109375 26.703125 6.109375 
Q 34.1875 6.109375 38.703125 11.40625 
Q 43.21875 16.703125 43.21875 25.484375 
L 43.21875 27.484375 
z
M 52.203125 31.203125 
L 52.203125 0 
L 43.21875 0 
L 43.21875 8.296875 
Q 40.140625 3.328125 35.546875 0.953125 
Q 30.953125 -1.421875 24.3125 -1.421875 
Q 15.921875 -1.421875 10.953125 3.296875 
Q 6 8.015625 6 15.921875 
Q 6 25.140625 12.171875 29.828125 
Q 18.359375 34.515625 30.609375 34.515625 
L 43.21875 34.515625 
L 43.21875 35.40625 
Q 43.21875 41.609375 39.140625 45 
Q 35.0625 48.390625 27.6875 48.390625 
Q 23 48.390625 18.546875 47.265625 
Q 14.109375 46.140625 10.015625 43.890625 
L 10.015625 52.203125 
Q 14.9375 54.109375 19.578125 55.046875 
Q 24.21875 56 28.609375 56 
Q 40.484375 56 46.34375 49.84375 
Q 52.203125 43.703125 52.203125 31.203125 
z
" id="DejaVuSans-97"/>
      <path d="M 52 44.1875 
Q 55.375 50.25 60.0625 53.125 
Q 64.75 56 71.09375 56 
Q 79.640625 56 84.28125 50.015625 
Q 88.921875 44.046875 88.921875 33.015625 
L 88.921875 0 
L 79.890625 0 
L 79.890625 32.71875 
Q 79.890625 40.578125 77.09375 44.375 
Q 74.3125 48.1875 68.609375 48.1875 
Q 61.625 48.1875 57.5625 43.546875 
Q 53.515625 38.921875 53.515625 30.90625 
L 53.515625 0 
L 44.484375 0 
L 44.484375 32.71875 
Q 44.484375 40.625 41.703125 44.40625 
Q 38.921875 48.1875 33.109375 48.1875 
Q 26.21875 48.1875 22.15625 43.53125 
Q 18.109375 38.875 18.109375 30.90625 
L 18.109375 0 
L 9.078125 0 
L 9.078125 54.6875 
L 18.109375 54.6875 
L 18.109375 46.1875 
Q 21.1875 51.21875 25.484375 53.609375 
Q 29.78125 56 35.6875 56 
Q 41.65625 56 45.828125 52.96875 
Q 50 49.953125 52 44.1875 
z
" id="DejaVuSans-109"/>
      <path d="M 56.203125 29.59375 
L 56.203125 25.203125 
L 14.890625 25.203125 
Q 15.484375 15.921875 20.484375 11.0625 
Q 25.484375 6.203125 34.421875 6.203125 
Q 39.59375 6.203125 44.453125 7.46875 
Q 49.3125 8.734375 54.109375 11.28125 
L 54.109375 2.78125 
Q 49.265625 0.734375 44.1875 -0.34375 
Q 39.109375 -1.421875 33.890625 -1.421875 
Q 20.796875 -1.421875 13.15625 6.1875 
Q 5.515625 13.8125 5.515625 26.8125 
Q 5.515625 40.234375 12.765625 48.109375 
Q 20.015625 56 32.328125 56 
Q 43.359375 56 49.78125 48.890625 
Q 56.203125 41.796875 56.203125 29.59375 
z
M 47.21875 32.234375 
Q 47.125 39.59375 43.09375 43.984375 
Q 39.0625 48.390625 32.421875 48.390625 
Q 24.90625 48.390625 20.390625 44.140625 
Q 15.875 39.890625 15.1875 32.171875 
z
" id="DejaVuSans-101"/>
      <path d="M 44.28125 53.078125 
L 44.28125 44.578125 
Q 40.484375 46.53125 36.375 47.5 
Q 32.28125 48.484375 27.875 48.484375 
Q 21.1875 48.484375 17.84375 46.4375 
Q 14.5 44.390625 14.5 40.28125 
Q 14.5 37.15625 16.890625 35.375 
Q 19.28125 33.59375 26.515625 31.984375 
L 29.59375 31.296875 
Q 39.15625 29.25 43.1875 25.515625 
Q 47.21875 21.78125 47.21875 15.09375 
Q 47.21875 7.46875 41.1875 3.015625 
Q 35.15625 -1.421875 24.609375 -1.421875 
Q 20.21875 -1.421875 15.453125 -0.5625 
Q 10.6875 0.296875 5.421875 2 
L 5.421875 11.28125 
Q 10.40625 8.6875 15.234375 7.390625 
Q 20.0625 6.109375 24.8125 6.109375 
Q 31.15625 6.109375 34.5625 8.28125 
Q 37.984375 10.453125 37.984375 14.40625 
Q 37.984375 18.0625 35.515625 20.015625 
Q 33.0625 21.96875 24.703125 23.78125 
L 21.578125 24.515625 
Q 13.234375 26.265625 9.515625 29.90625 
Q 5.8125 33.546875 5.8125 39.890625 
Q 5.8125 47.609375 11.28125 51.796875 
Q 16.75 56 26.8125 56 
Q 31.78125 56 36.171875 55.265625 
Q 40.578125 54.546875 44.28125 53.078125 
z
" id="DejaVuSans-115"/>
     </defs>
     <g transform="translate(221.668568 414.912344)scale(0.25 -0.25)">
      <use xlink:href="#DejaVuSans-35"/>
      <use x="83.789062" xlink:href="#DejaVuSans-32"/>
      <use x="115.576172" xlink:href="#DejaVuSans-111"/>
      <use x="176.757812" xlink:href="#DejaVuSans-102"/>
      <use x="211.962891" xlink:href="#DejaVuSans-32"/>
      <use x="243.75" xlink:href="#DejaVuSans-103"/>
      <use x="307.226562" xlink:href="#DejaVuSans-97"/>
      <use x="368.505859" xlink:href="#DejaVuSans-109"/>
      <use x="465.917969" xlink:href="#DejaVuSans-101"/>
      <use x="527.441406" xlink:href="#DejaVuSans-115"/>
     </g>
    </g>
   </g>
   <g id="matplotlib.axis_2">
    <g id="ytick_1">
     <g id="line2d_8">
      <defs>
       <path d="M 0 0 
L -3.5 0 
" id="mc4721518d0" style="stroke:#000000;stroke-width:0.8;"/>
      </defs>
      <g>
       <use style="stroke:#000000;stroke-width:0.8;" x="70.13" xlink:href="#mc4721518d0" y="351.970909"/>
      </g>
     </g>
     <g id="text_9">
      <!-- 0.0 -->
      <defs>
       <path d="M 10.6875 12.40625 
L 21 12.40625 
L 21 0 
L 10.6875 0 
z
" id="DejaVuSans-46"/>
      </defs>
      <g transform="translate(31.32375 359.569347)scale(0.2 -0.2)">
       <use xlink:href="#DejaVuSans-48"/>
       <use x="63.623047" xlink:href="#DejaVuSans-46"/>
       <use x="95.410156" xlink:href="#DejaVuSans-48"/>
      </g>
     </g>
    </g>
    <g id="ytick_2">
     <g id="line2d_9">
      <g>
       <use style="stroke:#000000;stroke-width:0.8;" x="70.13" xlink:href="#mc4721518d0" y="297.614545"/>
      </g>
     </g>
     <g id="text_10">
      <!-- 0.2 -->
      <g transform="translate(31.32375 305.212983)scale(0.2 -0.2)">
       <use xlink:href="#DejaVuSans-48"/>
       <use x="63.623047" xlink:href="#DejaVuSans-46"/>
       <use x="95.410156" xlink:href="#DejaVuSans-50"/>
      </g>
     </g>
    </g>
    <g id="ytick_3">
     <g id="line2d_10">
      <g>
       <use style="stroke:#000000;stroke-width:0.8;" x="70.13" xlink:href="#mc4721518d0" y="243.258182"/>
      </g>
     </g>
     <g id="text_11">
      <!-- 0.4 -->
      <g transform="translate(31.32375 250.856619)scale(0.2 -0.2)">
       <use xlink:href="#DejaVuSans-48"/>
       <use x="63.623047" xlink:href="#DejaVuSans-46"/>
       <use x="95.410156" xlink:href="#DejaVuSans-52"/>
      </g>
     </g>
    </g>
    <g id="ytick_4">
     <g id="line2d_11">
      <g>
       <use style="stroke:#000000;stroke-width:0.8;" x="70.13" xlink:href="#mc4721518d0" y="188.901818"/>
      </g>
     </g>
     <g id="text_12">
      <!-- 0.6 -->
      <g transform="translate(31.32375 196.500256)scale(0.2 -0.2)">
       <use xlink:href="#DejaVuSans-48"/>
       <use x="63.623047" xlink:href="#DejaVuSans-46"/>
       <use x="95.410156" xlink:href="#DejaVuSans-54"/>
      </g>
     </g>
    </g>
    <g id="ytick_5">
     <g id="line2d_12">
      <g>
       <use style="stroke:#000000;stroke-width:0.8;" x="70.13" xlink:href="#mc4721518d0" y="134.545455"/>
      </g>
     </g>
     <g id="text_13">
      <!-- 0.8 -->
      <defs>
       <path d="M 31.78125 34.625 
Q 24.75 34.625 20.71875 30.859375 
Q 16.703125 27.09375 16.703125 20.515625 
Q 16.703125 13.921875 20.71875 10.15625 
Q 24.75 6.390625 31.78125 6.390625 
Q 38.8125 6.390625 42.859375 10.171875 
Q 46.921875 13.96875 46.921875 20.515625 
Q 46.921875 27.09375 42.890625 30.859375 
Q 38.875 34.625 31.78125 34.625 
z
M 21.921875 38.8125 
Q 15.578125 40.375 12.03125 44.71875 
Q 8.5 49.078125 8.5 55.328125 
Q 8.5 64.0625 14.71875 69.140625 
Q 20.953125 74.21875 31.78125 74.21875 
Q 42.671875 74.21875 48.875 69.140625 
Q 55.078125 64.0625 55.078125 55.328125 
Q 55.078125 49.078125 51.53125 44.71875 
Q 48 40.375 41.703125 38.8125 
Q 48.828125 37.15625 52.796875 32.3125 
Q 56.78125 27.484375 56.78125 20.515625 
Q 56.78125 9.90625 50.3125 4.234375 
Q 43.84375 -1.421875 31.78125 -1.421875 
Q 19.734375 -1.421875 13.25 4.234375 
Q 6.78125 9.90625 6.78125 20.515625 
Q 6.78125 27.484375 10.78125 32.3125 
Q 14.796875 37.15625 21.921875 38.8125 
z
M 18.3125 54.390625 
Q 18.3125 48.734375 21.84375 45.5625 
Q 25.390625 42.390625 31.78125 42.390625 
Q 38.140625 42.390625 41.71875 45.5625 
Q 45.3125 48.734375 45.3125 54.390625 
Q 45.3125 60.0625 41.71875 63.234375 
Q 38.140625 66.40625 31.78125 66.40625 
Q 25.390625 66.40625 21.84375 63.234375 
Q 18.3125 60.0625 18.3125 54.390625 
z
" id="DejaVuSans-56"/>
      </defs>
      <g transform="translate(31.32375 142.143892)scale(0.2 -0.2)">
       <use xlink:href="#DejaVuSans-48"/>
       <use x="63.623047" xlink:href="#DejaVuSans-46"/>
       <use x="95.410156" xlink:href="#DejaVuSans-56"/>
      </g>
     </g>
    </g>
    <g id="ytick_6">
     <g id="line2d_13">
      <g>
       <use style="stroke:#000000;stroke-width:0.8;" x="70.13" xlink:href="#mc4721518d0" y="80.189091"/>
      </g>
     </g>
     <g id="text_14">
      <!-- 1.0 -->
      <g transform="translate(31.32375 87.787528)scale(0.2 -0.2)">
       <use xlink:href="#DejaVuSans-49"/>
       <use x="63.623047" xlink:href="#DejaVuSans-46"/>
       <use x="95.410156" xlink:href="#DejaVuSans-48"/>
      </g>
     </g>
    </g>
    <g id="text_15">
     <!-- Percentage of Attacker in CKC -->
     <defs>
      <path d="M 19.671875 64.796875 
L 19.671875 37.40625 
L 32.078125 37.40625 
Q 38.96875 37.40625 42.71875 40.96875 
Q 46.484375 44.53125 46.484375 51.125 
Q 46.484375 57.671875 42.71875 61.234375 
Q 38.96875 64.796875 32.078125 64.796875 
z
M 9.8125 72.90625 
L 32.078125 72.90625 
Q 44.34375 72.90625 50.609375 67.359375 
Q 56.890625 61.8125 56.890625 51.125 
Q 56.890625 40.328125 50.609375 34.8125 
Q 44.34375 29.296875 32.078125 29.296875 
L 19.671875 29.296875 
L 19.671875 0 
L 9.8125 0 
z
" id="DejaVuSans-80"/>
      <path d="M 41.109375 46.296875 
Q 39.59375 47.171875 37.8125 47.578125 
Q 36.03125 48 33.890625 48 
Q 26.265625 48 22.1875 43.046875 
Q 18.109375 38.09375 18.109375 28.8125 
L 18.109375 0 
L 9.078125 0 
L 9.078125 54.6875 
L 18.109375 54.6875 
L 18.109375 46.1875 
Q 20.953125 51.171875 25.484375 53.578125 
Q 30.03125 56 36.53125 56 
Q 37.453125 56 38.578125 55.875 
Q 39.703125 55.765625 41.0625 55.515625 
z
" id="DejaVuSans-114"/>
      <path d="M 48.78125 52.59375 
L 48.78125 44.1875 
Q 44.96875 46.296875 41.140625 47.34375 
Q 37.3125 48.390625 33.40625 48.390625 
Q 24.65625 48.390625 19.8125 42.84375 
Q 14.984375 37.3125 14.984375 27.296875 
Q 14.984375 17.28125 19.8125 11.734375 
Q 24.65625 6.203125 33.40625 6.203125 
Q 37.3125 6.203125 41.140625 7.25 
Q 44.96875 8.296875 48.78125 10.40625 
L 48.78125 2.09375 
Q 45.015625 0.34375 40.984375 -0.53125 
Q 36.96875 -1.421875 32.421875 -1.421875 
Q 20.0625 -1.421875 12.78125 6.34375 
Q 5.515625 14.109375 5.515625 27.296875 
Q 5.515625 40.671875 12.859375 48.328125 
Q 20.21875 56 33.015625 56 
Q 37.15625 56 41.109375 55.140625 
Q 45.0625 54.296875 48.78125 52.59375 
z
" id="DejaVuSans-99"/>
      <path d="M 54.890625 33.015625 
L 54.890625 0 
L 45.90625 0 
L 45.90625 32.71875 
Q 45.90625 40.484375 42.875 44.328125 
Q 39.84375 48.1875 33.796875 48.1875 
Q 26.515625 48.1875 22.3125 43.546875 
Q 18.109375 38.921875 18.109375 30.90625 
L 18.109375 0 
L 9.078125 0 
L 9.078125 54.6875 
L 18.109375 54.6875 
L 18.109375 46.1875 
Q 21.34375 51.125 25.703125 53.5625 
Q 30.078125 56 35.796875 56 
Q 45.21875 56 50.046875 50.171875 
Q 54.890625 44.34375 54.890625 33.015625 
z
" id="DejaVuSans-110"/>
      <path d="M 18.3125 70.21875 
L 18.3125 54.6875 
L 36.8125 54.6875 
L 36.8125 47.703125 
L 18.3125 47.703125 
L 18.3125 18.015625 
Q 18.3125 11.328125 20.140625 9.421875 
Q 21.96875 7.515625 27.59375 7.515625 
L 36.8125 7.515625 
L 36.8125 0 
L 27.59375 0 
Q 17.1875 0 13.234375 3.875 
Q 9.28125 7.765625 9.28125 18.015625 
L 9.28125 47.703125 
L 2.6875 47.703125 
L 2.6875 54.6875 
L 9.28125 54.6875 
L 9.28125 70.21875 
z
" id="DejaVuSans-116"/>
      <path d="M 34.1875 63.1875 
L 20.796875 26.90625 
L 47.609375 26.90625 
z
M 28.609375 72.90625 
L 39.796875 72.90625 
L 67.578125 0 
L 57.328125 0 
L 50.6875 18.703125 
L 17.828125 18.703125 
L 11.1875 0 
L 0.78125 0 
z
" id="DejaVuSans-65"/>
      <path d="M 9.078125 75.984375 
L 18.109375 75.984375 
L 18.109375 31.109375 
L 44.921875 54.6875 
L 56.390625 54.6875 
L 27.390625 29.109375 
L 57.625 0 
L 45.90625 0 
L 18.109375 26.703125 
L 18.109375 0 
L 9.078125 0 
z
" id="DejaVuSans-107"/>
      <path d="M 9.421875 54.6875 
L 18.40625 54.6875 
L 18.40625 0 
L 9.421875 0 
z
M 9.421875 75.984375 
L 18.40625 75.984375 
L 18.40625 64.59375 
L 9.421875 64.59375 
z
" id="DejaVuSans-105"/>
      <path d="M 64.40625 67.28125 
L 64.40625 56.890625 
Q 59.421875 61.53125 53.78125 63.8125 
Q 48.140625 66.109375 41.796875 66.109375 
Q 29.296875 66.109375 22.65625 58.46875 
Q 16.015625 50.828125 16.015625 36.375 
Q 16.015625 21.96875 22.65625 14.328125 
Q 29.296875 6.6875 41.796875 6.6875 
Q 48.140625 6.6875 53.78125 8.984375 
Q 59.421875 11.28125 64.40625 15.921875 
L 64.40625 5.609375 
Q 59.234375 2.09375 53.4375 0.328125 
Q 47.65625 -1.421875 41.21875 -1.421875 
Q 24.65625 -1.421875 15.125 8.703125 
Q 5.609375 18.84375 5.609375 36.375 
Q 5.609375 53.953125 15.125 64.078125 
Q 24.65625 74.21875 41.21875 74.21875 
Q 47.75 74.21875 53.53125 72.484375 
Q 59.328125 70.75 64.40625 67.28125 
z
" id="DejaVuSans-67"/>
      <path d="M 9.8125 72.90625 
L 19.671875 72.90625 
L 19.671875 42.09375 
L 52.390625 72.90625 
L 65.09375 72.90625 
L 28.90625 38.921875 
L 67.671875 0 
L 54.6875 0 
L 19.671875 35.109375 
L 19.671875 0 
L 9.8125 0 
z
" id="DejaVuSans-75"/>
     </defs>
     <g transform="translate(23.857604 342.050052)rotate(-90)scale(0.166667 -0.166667)">
      <use xlink:href="#DejaVuSans-80"/>
      <use x="60.255859" xlink:href="#DejaVuSans-101"/>
      <use x="121.779297" xlink:href="#DejaVuSans-114"/>
      <use x="162.861328" xlink:href="#DejaVuSans-99"/>
      <use x="217.841797" xlink:href="#DejaVuSans-101"/>
      <use x="279.365234" xlink:href="#DejaVuSans-110"/>
      <use x="342.744141" xlink:href="#DejaVuSans-116"/>
      <use x="381.953125" xlink:href="#DejaVuSans-97"/>
      <use x="443.232422" xlink:href="#DejaVuSans-103"/>
      <use x="506.708984" xlink:href="#DejaVuSans-101"/>
      <use x="568.232422" xlink:href="#DejaVuSans-32"/>
      <use x="600.019531" xlink:href="#DejaVuSans-111"/>
      <use x="661.201172" xlink:href="#DejaVuSans-102"/>
      <use x="696.40625" xlink:href="#DejaVuSans-32"/>
      <use x="728.193359" xlink:href="#DejaVuSans-65"/>
      <use x="796.585938" xlink:href="#DejaVuSans-116"/>
      <use x="835.794922" xlink:href="#DejaVuSans-116"/>
      <use x="875.003906" xlink:href="#DejaVuSans-97"/>
      <use x="936.283203" xlink:href="#DejaVuSans-99"/>
      <use x="991.263672" xlink:href="#DejaVuSans-107"/>
      <use x="1049.126953" xlink:href="#DejaVuSans-101"/>
      <use x="1110.650391" xlink:href="#DejaVuSans-114"/>
      <use x="1151.763672" xlink:href="#DejaVuSans-32"/>
      <use x="1183.550781" xlink:href="#DejaVuSans-105"/>
      <use x="1211.333984" xlink:href="#DejaVuSans-110"/>
      <use x="1274.712891" xlink:href="#DejaVuSans-32"/>
      <use x="1306.5" xlink:href="#DejaVuSans-67"/>
      <use x="1376.324219" xlink:href="#DejaVuSans-75"/>
      <use x="1441.822266" xlink:href="#DejaVuSans-67"/>
     </g>
    </g>
   </g>
   <g id="line2d_14">
    <path clip-path="url(#p1b33669e2f)" d="M 90.491993 145.416727 
L 91.190518 188.901818 
L 91.889043 259.565091 
L 92.587567 281.307636 
L 93.286092 308.485818 
L 93.984617 324.792727 
L 94.683141 330.228364 
L 95.381666 324.792727 
L 96.080191 330.228364 
L 96.778715 330.228364 
L 97.47724 335.664 
L 98.175765 324.792727 
L 98.874289 324.792727 
L 99.572814 308.485818 
L 100.969863 308.485818 
L 101.668388 324.792727 
L 102.366912 330.228364 
L 103.065437 324.792727 
L 103.763962 308.485818 
L 104.462486 319.357091 
L 105.859536 319.357091 
L 106.55806 308.485818 
L 107.256585 308.485818 
L 107.95511 324.792727 
L 108.653634 313.921455 
L 109.352159 330.228364 
L 110.050684 330.228364 
L 110.749208 341.099636 
L 111.447733 330.228364 
L 112.146257 335.664 
L 112.844782 335.664 
L 113.543307 341.099636 
L 114.241831 324.792727 
L 115.638881 324.792727 
L 116.337405 341.099636 
L 117.03593 324.792727 
L 117.734455 335.664 
L 118.432979 319.357091 
L 121.227078 319.357091 
L 121.925602 324.792727 
L 122.624127 335.664 
L 123.322652 341.099636 
L 124.719701 341.099636 
L 125.418226 346.535273 
L 126.11675 341.099636 
L 126.815275 324.792727 
L 128.212324 313.921455 
L 128.910849 330.228364 
L 129.609374 319.357091 
L 130.307898 324.792727 
L 131.006423 313.921455 
L 131.704948 319.357091 
L 132.403472 313.921455 
L 133.101997 313.921455 
L 134.499046 324.792727 
L 135.197571 319.357091 
L 135.896095 324.792727 
L 136.59462 324.792727 
L 137.293145 313.921455 
L 137.991669 308.485818 
L 138.690194 319.357091 
L 139.388719 313.921455 
L 140.087243 324.792727 
L 141.484293 324.792727 
L 142.182817 313.921455 
L 142.881342 313.921455 
L 143.579867 319.357091 
L 144.278391 313.921455 
L 144.976916 319.357091 
L 145.67544 313.921455 
L 146.373965 319.357091 
L 147.07249 308.485818 
L 147.771014 330.228364 
L 148.469539 319.357091 
L 149.168064 324.792727 
L 149.866588 324.792727 
L 150.565113 330.228364 
L 152.660687 330.228364 
L 153.359212 335.664 
L 154.057736 346.535273 
L 154.756261 335.664 
L 155.454786 330.228364 
L 156.851835 330.228364 
L 157.550359 324.792727 
L 158.248884 330.228364 
L 158.947409 330.228364 
L 159.645933 324.792727 
L 160.344458 341.099636 
L 161.042983 346.535273 
L 161.741507 341.099636 
L 162.440032 341.099636 
L 163.138557 351.970909 
L 164.535606 341.099636 
L 165.932655 341.099636 
L 166.63118 335.664 
L 167.329704 341.099636 
L 168.028229 335.664 
L 168.726754 335.664 
L 169.425278 330.228364 
L 170.822328 330.228364 
L 171.520852 319.357091 
L 172.917902 330.228364 
L 173.616426 330.228364 
L 174.314951 324.792727 
L 175.013476 324.792727 
L 176.410525 346.535273 
L 177.807574 346.535273 
L 178.506099 341.099636 
L 179.903148 308.485818 
L 180.601673 324.792727 
L 181.300197 319.357091 
L 181.998722 324.792727 
L 182.697247 319.357091 
L 183.395771 324.792727 
L 184.094296 324.792727 
L 184.792821 330.228364 
L 185.491345 330.228364 
L 186.18987 335.664 
L 186.888395 324.792727 
L 188.285444 324.792727 
L 188.983969 330.228364 
L 189.682493 330.228364 
L 190.381018 324.792727 
L 191.079542 330.228364 
L 191.778067 330.228364 
L 192.476592 341.099636 
L 193.175116 335.664 
L 193.873641 341.099636 
L 195.969215 341.099636 
L 196.66774 346.535273 
L 198.064789 346.535273 
L 198.763314 351.970909 
L 199.461838 335.664 
L 200.160363 330.228364 
L 200.858887 330.228364 
L 201.557412 335.664 
L 202.255937 335.664 
L 202.954461 313.921455 
L 203.652986 319.357091 
L 204.351511 330.228364 
L 205.74856 330.228364 
L 206.447085 341.099636 
L 207.844134 330.228364 
L 208.542659 330.228364 
L 209.241183 341.099636 
L 209.939708 346.535273 
L 211.336757 346.535273 
L 212.035282 341.099636 
L 212.733806 330.228364 
L 213.432331 330.228364 
L 214.130856 341.099636 
L 215.527905 341.099636 
L 216.924954 330.228364 
L 217.623479 330.228364 
L 219.020528 341.099636 
L 219.719053 341.099636 
L 221.116102 330.228364 
L 221.814627 335.664 
L 223.211676 335.664 
L 224.608725 324.792727 
L 225.30725 308.485818 
L 226.005775 324.792727 
L 226.704299 324.792727 
L 227.402824 330.228364 
L 228.101349 324.792727 
L 228.799873 324.792727 
L 230.196923 335.664 
L 230.895447 335.664 
L 231.593972 346.535273 
L 232.991021 346.535273 
L 233.689546 341.099636 
L 234.38807 346.535273 
L 235.78512 346.535273 
L 236.483644 330.228364 
L 237.182169 330.228364 
L 237.880694 341.099636 
L 239.277743 341.099636 
L 239.976268 335.664 
L 240.674792 335.664 
L 241.373317 330.228364 
L 242.770366 330.228364 
L 243.468891 313.921455 
L 244.167416 313.921455 
L 244.86594 319.357091 
L 245.564465 330.228364 
L 246.961514 330.228364 
L 247.660039 324.792727 
L 248.358563 335.664 
L 249.057088 335.331206 
L 251.152662 335.331206 
L 251.851187 318.691503 
L 252.549711 335.331206 
L 253.248236 329.784638 
L 255.34381 329.784638 
L 256.042335 335.331206 
L 256.740859 335.331206 
L 257.439384 329.322424 
L 258.137908 329.322424 
L 258.836433 317.998182 
L 260.233482 329.322424 
L 260.932007 323.660303 
L 262.329056 334.984545 
L 263.027581 329.322424 
L 264.42463 340.646667 
L 265.123155 340.646667 
L 265.82168 334.984545 
L 266.520204 334.623133 
L 267.218729 340.405725 
L 267.917254 334.623133 
L 268.615778 340.405725 
L 270.012827 340.405725 
L 270.711352 334.623133 
L 271.409877 334.623133 
L 272.108401 346.188317 
L 272.806926 340.405725 
L 273.505451 340.405725 
L 274.203975 351.970909 
L 275.601025 340.405725 
L 276.299549 340.405725 
L 276.998074 346.188317 
L 277.696599 346.188317 
L 278.395123 334.623133 
L 279.093648 340.405725 
L 279.792172 317.275358 
L 281.189222 317.275358 
L 281.887746 328.840542 
L 282.586271 322.429407 
L 283.284796 328.337708 
L 283.98332 328.337708 
L 284.681845 322.429407 
L 285.38037 328.337708 
L 288.174468 328.337708 
L 288.872993 334.246008 
L 289.571518 328.337708 
L 290.270042 328.337708 
L 290.968567 322.429407 
L 291.667091 334.246008 
L 292.365616 340.154308 
L 293.064141 339.891717 
L 293.762665 339.891717 
L 294.46119 345.931313 
L 295.159715 345.79405 
L 295.858239 339.61719 
L 296.556764 339.61719 
L 297.255289 333.440331 
L 297.953813 333.440331 
L 298.652338 339.329894 
L 299.350863 339.329894 
L 300.049387 339.028918 
L 300.747912 326.086926 
L 301.446437 332.557922 
L 302.144961 332.557922 
L 302.843486 331.587273 
L 303.54201 337.666603 
L 304.93906 337.666603 
L 305.637584 330.51445 
L 306.336109 337.666603 
L 307.034634 337.28 
L 307.733158 344.625455 
L 308.431683 344.421414 
L 309.130208 336.871919 
L 309.828732 336.871919 
L 310.527257 321.772929 
L 311.225782 320.91013 
L 311.924306 328.675325 
L 312.622831 313.144935 
L 313.321355 305.37974 
L 314.01988 305.37974 
L 315.416929 319.996578 
L 316.115454 312.002995 
L 318.211028 312.002995 
L 318.909553 302.556033 
L 320.306602 319.027658 
L 321.005127 335.499284 
L 321.703651 327.263471 
L 322.402176 308.135132 
L 323.100701 308.135132 
L 323.799225 316.902287 
L 324.49775 316.902287 
L 325.196274 299.367977 
L 325.894799 316.902287 
L 326.593324 325.669443 
L 327.990373 325.669443 
L 328.688898 334.436598 
L 329.387422 334.436598 
L 330.085947 316.902287 
L 331.482996 316.902287 
L 332.181521 343.203754 
L 332.880046 334.436598 
L 334.97562 334.436598 
L 335.674144 343.203754 
L 336.372669 343.203754 
L 337.769718 325.669443 
L 338.468243 308.135132 
L 339.166767 324.792727 
L 339.865292 333.852121 
L 340.563817 351.970909 
L 341.960866 333.852121 
L 342.659391 351.970909 
L 344.05644 351.970909 
L 346.152014 322.851429 
L 347.549063 322.851429 
L 348.247588 332.557922 
L 348.946112 332.557922 
L 349.644637 322.851429 
L 351.041686 322.851429 
L 351.740211 311.706936 
L 352.438736 331.838923 
L 353.835785 331.838923 
L 354.53431 311.706936 
L 355.232834 310.158322 
L 355.931359 320.611469 
L 356.629884 320.611469 
L 357.328408 286.743273 
L 358.026933 297.614545 
L 358.725457 297.614545 
L 362.218081 351.970909 
L 362.916605 340.646667 
L 363.61513 351.970909 
L 364.313655 340.646667 
L 365.012179 340.646667 
L 365.710704 351.970909 
L 368.504803 351.970909 
L 369.203327 340.646667 
L 369.901852 340.646667 
L 370.600376 329.322424 
L 372.69595 329.322424 
L 373.394475 340.646667 
L 375.490049 340.646667 
L 376.188574 329.322424 
L 376.887098 329.322424 
L 377.585623 340.646667 
L 378.284148 340.646667 
L 378.982672 328.337708 
L 380.379722 351.970909 
L 381.776771 351.970909 
L 383.17382 328.337708 
L 383.872345 340.154308 
L 384.570869 314.909752 
L 385.269394 327.263471 
L 385.967919 351.970909 
L 387.364968 351.970909 
L 388.063493 339.61719 
L 388.762017 339.61719 
L 389.460542 327.263471 
L 390.159067 297.614545 
L 391.556116 297.614545 
L 392.953165 324.792727 
L 395.747264 324.792727 
L 397.144313 351.970909 
L 400.636936 351.970909 
L 401.335461 337.666603 
L 402.73251 337.666603 
L 403.431035 351.970909 
L 405.526609 351.970909 
L 406.923658 319.996578 
L 407.622183 317.998182 
L 408.320707 317.998182 
L 409.019232 315.733333 
L 409.717757 315.733333 
L 410.416281 351.970909 
L 411.114806 333.852121 
L 411.813331 333.852121 
L 412.511855 332.557922 
L 413.21038 313.144935 
L 413.908905 313.144935 
L 414.607429 331.064615 
L 416.004478 331.064615 
L 416.703003 351.970909 
L 418.798577 351.970909 
L 419.497102 329.322424 
L 420.195626 329.322424 
L 420.894151 306.673939 
L 421.592676 329.322424 
L 423.68825 329.322424 
L 424.386774 327.263471 
L 425.783823 327.263471 
L 426.482348 297.614545 
L 429.276447 297.614545 
L 429.974971 324.792727 
L 435.563169 324.792727 
L 436.261693 321.772929 
L 441.84989 321.772929 
L 442.548415 351.970909 
L 448.835137 351.970909 
L 450.232186 284.025455 
L 452.32776 284.025455 
L 453.724809 351.970909 
L 468.393827 351.970909 
L 469.092352 297.614545 
L 469.790876 297.614545 
L 470.489401 188.901818 
L 471.187925 243.258182 
L 471.88645 216.08 
L 472.584975 216.08 
L 473.982024 351.970909 
L 492.842189 351.970909 
L 493.540714 80.189091 
L 494.239239 80.189091 
L 494.937763 351.970909 
L 497.731862 351.970909 
L 497.731862 351.970909 
" style="fill:none;stroke:#1f77b4;stroke-linecap:square;stroke-width:1.5;"/>
   </g>
   <g id="line2d_15">
    <path clip-path="url(#p1b33669e2f)" d="M 90.491993 286.743273 
L 91.190518 265.000727 
L 91.889043 210.644364 
L 92.587567 216.08 
L 93.286092 205.208727 
L 93.984617 205.208727 
L 94.683141 226.951273 
L 95.381666 237.822545 
L 96.080191 232.386909 
L 96.778715 232.386909 
L 97.47724 248.693818 
L 98.175765 259.565091 
L 98.874289 259.565091 
L 99.572814 254.129455 
L 100.271338 270.436364 
L 100.969863 254.129455 
L 102.366912 265.000727 
L 103.065437 275.872 
L 103.763962 292.178909 
L 104.462486 281.307636 
L 105.161011 286.743273 
L 105.859536 297.614545 
L 106.55806 303.050182 
L 107.256585 292.178909 
L 107.95511 286.743273 
L 108.653634 297.614545 
L 110.749208 297.614545 
L 112.146257 308.485818 
L 113.543307 308.485818 
L 114.241831 303.050182 
L 114.940356 303.050182 
L 115.638881 319.357091 
L 116.337405 308.485818 
L 117.03593 303.050182 
L 118.432979 324.792727 
L 119.830029 324.792727 
L 120.528553 319.357091 
L 121.227078 308.485818 
L 121.925602 313.921455 
L 122.624127 308.485818 
L 124.719701 324.792727 
L 126.11675 324.792727 
L 126.815275 319.357091 
L 127.5138 319.357091 
L 128.212324 324.792727 
L 128.910849 313.921455 
L 129.609374 324.792727 
L 131.006423 313.921455 
L 131.704948 319.357091 
L 133.101997 319.357091 
L 133.800521 330.228364 
L 134.499046 313.921455 
L 135.197571 324.792727 
L 135.896095 313.921455 
L 136.59462 308.485818 
L 137.293145 324.792727 
L 137.991669 324.792727 
L 138.690194 313.921455 
L 139.388719 313.921455 
L 140.087243 308.485818 
L 140.785768 313.921455 
L 141.484293 324.792727 
L 142.182817 324.792727 
L 143.579867 313.921455 
L 144.278391 324.792727 
L 144.976916 319.357091 
L 145.67544 308.485818 
L 147.07249 308.485818 
L 147.771014 286.743273 
L 148.469539 292.178909 
L 149.168064 286.743273 
L 149.866588 286.743273 
L 150.565113 292.178909 
L 151.263638 308.485818 
L 151.962162 313.921455 
L 152.660687 308.485818 
L 154.057736 308.485818 
L 154.756261 319.357091 
L 155.454786 324.792727 
L 156.15331 319.357091 
L 157.550359 330.228364 
L 158.248884 319.357091 
L 158.947409 324.792727 
L 159.645933 324.792727 
L 160.344458 303.050182 
L 162.440032 303.050182 
L 163.138557 297.614545 
L 163.837081 303.050182 
L 164.535606 319.357091 
L 165.234131 313.921455 
L 165.932655 313.921455 
L 166.63118 308.485818 
L 167.329704 308.485818 
L 168.028229 324.792727 
L 168.726754 324.792727 
L 169.425278 330.228364 
L 171.520852 330.228364 
L 172.219377 313.921455 
L 172.917902 313.921455 
L 173.616426 324.792727 
L 175.712 324.792727 
L 176.410525 319.357091 
L 177.10905 324.792727 
L 178.506099 324.792727 
L 179.903148 335.664 
L 180.601673 308.485818 
L 181.300197 319.357091 
L 181.998722 324.792727 
L 182.697247 319.357091 
L 183.395771 324.792727 
L 184.094296 335.664 
L 185.491345 313.921455 
L 186.18987 324.792727 
L 186.888395 330.228364 
L 187.586919 324.792727 
L 188.983969 324.792727 
L 190.381018 303.050182 
L 191.079542 313.921455 
L 191.778067 319.357091 
L 192.476592 319.357091 
L 193.873641 308.485818 
L 194.572166 313.921455 
L 195.27069 313.921455 
L 195.969215 319.357091 
L 196.66774 319.357091 
L 198.064789 341.099636 
L 198.763314 335.664 
L 200.160363 335.664 
L 201.557412 313.921455 
L 202.255937 330.228364 
L 202.954461 330.228364 
L 203.652986 335.664 
L 204.351511 324.792727 
L 205.050035 319.357091 
L 205.74856 330.228364 
L 206.447085 324.792727 
L 207.145609 330.228364 
L 207.844134 330.228364 
L 208.542659 335.664 
L 209.241183 324.792727 
L 209.939708 319.357091 
L 211.336757 319.357091 
L 212.035282 324.792727 
L 212.733806 324.792727 
L 214.130856 313.921455 
L 216.22643 330.228364 
L 217.623479 330.228364 
L 218.322004 324.792727 
L 219.020528 335.664 
L 219.719053 330.228364 
L 221.116102 341.099636 
L 221.814627 335.664 
L 222.513152 341.099636 
L 224.608725 341.099636 
L 225.30725 346.535273 
L 226.005775 330.228364 
L 226.704299 330.228364 
L 228.101349 319.357091 
L 228.799873 324.792727 
L 229.498398 319.357091 
L 230.196923 308.485818 
L 230.895447 330.228364 
L 231.593972 324.792727 
L 232.292497 330.228364 
L 233.689546 330.228364 
L 234.38807 324.792727 
L 235.086595 324.792727 
L 235.78512 335.664 
L 236.483644 341.099636 
L 237.182169 341.099636 
L 237.880694 324.792727 
L 239.277743 313.921455 
L 239.976268 324.792727 
L 240.674792 319.357091 
L 241.373317 330.228364 
L 242.071842 335.664 
L 242.770366 335.664 
L 244.167416 324.792727 
L 244.86594 324.792727 
L 245.564465 313.921455 
L 246.262989 313.921455 
L 247.660039 303.050182 
L 248.358563 286.743273 
L 249.057088 296.505232 
L 250.454137 296.505232 
L 251.851187 307.598367 
L 252.549711 290.958664 
L 253.248236 302.0518 
L 253.946761 296.505232 
L 256.740859 318.691503 
L 257.439384 317.998182 
L 258.836433 317.998182 
L 259.534958 312.336061 
L 260.233482 312.336061 
L 260.932007 301.011818 
L 261.630532 301.011818 
L 262.329056 295.349697 
L 263.027581 301.011818 
L 263.726106 301.011818 
L 264.42463 295.349697 
L 265.123155 295.349697 
L 265.82168 289.687576 
L 266.520204 282.579807 
L 267.218729 282.579807 
L 270.012827 328.840542 
L 270.711352 317.275358 
L 271.409877 328.840542 
L 272.108401 323.05795 
L 273.505451 323.05795 
L 274.203975 311.492766 
L 274.9025 323.05795 
L 276.299549 323.05795 
L 276.998074 317.275358 
L 277.696599 317.275358 
L 279.792172 334.623133 
L 280.490697 328.840542 
L 281.887746 328.840542 
L 282.586271 334.246008 
L 283.284796 328.337708 
L 283.98332 340.154308 
L 285.38037 328.337708 
L 286.078894 334.246008 
L 287.475944 322.429407 
L 288.174468 328.337708 
L 290.270042 310.612806 
L 290.968567 316.521107 
L 291.667091 310.612806 
L 292.365616 310.612806 
L 293.064141 315.733333 
L 293.762665 315.733333 
L 295.159715 327.263471 
L 295.858239 327.263471 
L 296.556764 333.440331 
L 297.255289 333.440331 
L 297.953813 321.086612 
L 298.652338 326.688879 
L 299.350863 326.688879 
L 300.049387 326.086926 
L 300.747912 326.086926 
L 301.446437 319.615931 
L 302.144961 319.615931 
L 302.843486 331.587273 
L 303.54201 330.51445 
L 304.240535 330.51445 
L 304.93906 323.362297 
L 305.637584 330.51445 
L 306.336109 330.51445 
L 307.034634 344.625455 
L 308.431683 329.322424 
L 309.828732 344.421414 
L 310.527257 344.421414 
L 311.225782 344.205714 
L 311.924306 336.440519 
L 314.01988 336.440519 
L 314.718405 313.144935 
L 315.416929 304.009412 
L 316.115454 304.009412 
L 316.813979 312.002995 
L 317.512503 304.009412 
L 318.211028 327.99016 
L 318.909553 327.263471 
L 319.608077 327.263471 
L 320.306602 310.791846 
L 321.005127 302.556033 
L 321.703651 310.791846 
L 322.402176 308.135132 
L 323.100701 316.902287 
L 323.799225 308.135132 
L 324.49775 316.902287 
L 325.894799 316.902287 
L 326.593324 325.669443 
L 327.291848 343.203754 
L 327.990373 343.203754 
L 328.688898 334.436598 
L 329.387422 343.203754 
L 330.085947 343.203754 
L 330.784472 334.436598 
L 331.482996 334.436598 
L 332.181521 308.135132 
L 332.880046 325.669443 
L 334.97562 325.669443 
L 335.674144 316.902287 
L 338.468243 316.902287 
L 339.166767 288.555152 
L 340.563817 270.436364 
L 341.262341 270.436364 
L 341.960866 279.495758 
L 342.659391 254.905974 
L 343.357915 284.025455 
L 344.05644 284.025455 
L 344.754965 303.438442 
L 345.453489 303.438442 
L 346.152014 313.144935 
L 347.549063 313.144935 
L 348.247588 293.731948 
L 348.946112 284.025455 
L 351.041686 284.025455 
L 351.740211 271.442963 
L 352.438736 281.508956 
L 353.13726 301.640943 
L 353.835785 291.574949 
L 354.53431 311.706936 
L 355.232834 320.611469 
L 355.931359 310.158322 
L 356.629884 310.158322 
L 357.328408 308.485818 
L 358.026933 308.485818 
L 358.725457 330.228364 
L 359.423982 308.485818 
L 360.122507 319.357091 
L 361.519556 319.357091 
L 362.218081 308.485818 
L 362.916605 306.673939 
L 364.313655 306.673939 
L 365.012179 317.998182 
L 367.107753 317.998182 
L 367.806278 306.673939 
L 368.504803 306.673939 
L 369.203327 317.998182 
L 369.901852 317.998182 
L 370.600376 329.322424 
L 371.298901 329.322424 
L 371.997426 340.646667 
L 372.69595 340.646667 
L 373.394475 329.322424 
L 374.791524 329.322424 
L 375.490049 317.998182 
L 376.887098 317.998182 
L 377.585623 306.673939 
L 378.284148 306.673939 
L 378.982672 316.521107 
L 379.681197 316.521107 
L 380.379722 304.704506 
L 381.078246 316.521107 
L 381.776771 340.154308 
L 383.17382 340.154308 
L 383.872345 328.337708 
L 384.570869 327.263471 
L 385.967919 302.556033 
L 388.063493 339.61719 
L 389.460542 339.61719 
L 390.159067 338.381818 
L 390.857591 324.792727 
L 392.25464 324.792727 
L 392.953165 311.203636 
L 393.65169 324.792727 
L 394.350214 324.792727 
L 395.048739 311.203636 
L 395.747264 324.792727 
L 396.445788 311.203636 
L 397.144313 294.753684 
L 398.541362 323.362297 
L 399.239887 323.362297 
L 399.938412 309.05799 
L 400.636936 323.362297 
L 402.73251 323.362297 
L 403.431035 306.673939 
L 404.129559 321.772929 
L 404.828084 321.772929 
L 405.526609 336.871919 
L 406.225133 335.983743 
L 406.923658 335.983743 
L 407.622183 334.984545 
L 408.320707 334.984545 
L 409.019232 333.852121 
L 409.717757 333.852121 
L 410.416281 297.614545 
L 411.114806 315.733333 
L 411.813331 315.733333 
L 412.511855 313.144935 
L 413.908905 313.144935 
L 414.607429 310.158322 
L 415.305954 331.064615 
L 416.004478 331.064615 
L 416.703003 306.673939 
L 417.401528 306.673939 
L 418.100052 329.322424 
L 419.497102 329.322424 
L 420.195626 351.970909 
L 420.894151 351.970909 
L 421.592676 329.322424 
L 423.68825 329.322424 
L 424.386774 327.263471 
L 425.783823 327.263471 
L 426.482348 324.792727 
L 429.276447 324.792727 
L 429.974971 297.614545 
L 432.76907 297.614545 
L 433.467595 324.792727 
L 434.166119 324.792727 
L 434.864644 351.970909 
L 441.84989 351.970909 
L 442.548415 321.772929 
L 447.438088 321.772929 
L 448.136612 351.970909 
L 452.32776 351.970909 
L 453.724809 284.025455 
L 454.423334 351.970909 
L 470.489401 351.970909 
L 471.187925 297.614545 
L 471.88645 284.025455 
L 472.584975 284.025455 
L 473.283499 216.08 
L 473.982024 216.08 
L 475.379073 351.970909 
L 494.239239 351.970909 
L 494.937763 80.189091 
L 495.636288 351.970909 
L 497.731862 351.970909 
L 497.731862 351.970909 
" style="fill:none;stroke:#ff7f0e;stroke-linecap:square;stroke-width:1.5;"/>
   </g>
   <g id="line2d_16">
    <path clip-path="url(#p1b33669e2f)" d="M 90.491993 351.970909 
L 91.190518 330.228364 
L 91.889043 313.921455 
L 92.587567 292.178909 
L 93.286092 292.178909 
L 93.984617 275.872 
L 96.778715 275.872 
L 97.47724 259.565091 
L 99.572814 292.178909 
L 100.271338 281.307636 
L 100.969863 303.050182 
L 101.668388 281.307636 
L 103.065437 281.307636 
L 103.763962 275.872 
L 104.462486 275.872 
L 105.161011 270.436364 
L 105.859536 270.436364 
L 106.55806 281.307636 
L 107.256585 286.743273 
L 107.95511 281.307636 
L 109.352159 259.565091 
L 110.050684 286.743273 
L 110.749208 286.743273 
L 112.146257 275.872 
L 112.844782 275.872 
L 113.543307 270.436364 
L 114.241831 286.743273 
L 114.940356 292.178909 
L 115.638881 286.743273 
L 117.03593 308.485818 
L 117.734455 292.178909 
L 118.432979 286.743273 
L 119.131504 303.050182 
L 119.830029 303.050182 
L 120.528553 313.921455 
L 121.227078 319.357091 
L 121.925602 313.921455 
L 122.624127 313.921455 
L 123.322652 303.050182 
L 124.021176 297.614545 
L 124.719701 297.614545 
L 126.815275 313.921455 
L 127.5138 330.228364 
L 128.212324 319.357091 
L 128.910849 324.792727 
L 129.609374 319.357091 
L 130.307898 319.357091 
L 131.006423 324.792727 
L 131.704948 308.485818 
L 132.403472 313.921455 
L 133.101997 313.921455 
L 133.800521 303.050182 
L 134.499046 319.357091 
L 135.197571 308.485818 
L 135.896095 303.050182 
L 136.59462 313.921455 
L 137.293145 303.050182 
L 137.991669 313.921455 
L 138.690194 308.485818 
L 139.388719 319.357091 
L 140.087243 313.921455 
L 141.484293 313.921455 
L 142.182817 308.485818 
L 142.881342 319.357091 
L 143.579867 313.921455 
L 144.278391 297.614545 
L 144.976916 297.614545 
L 145.67544 313.921455 
L 146.373965 308.485818 
L 147.07249 313.921455 
L 147.771014 313.921455 
L 148.469539 308.485818 
L 149.168064 308.485818 
L 149.866588 319.357091 
L 150.565113 313.921455 
L 151.263638 303.050182 
L 151.962162 303.050182 
L 152.660687 319.357091 
L 154.057736 308.485818 
L 154.756261 297.614545 
L 156.15331 319.357091 
L 156.851835 319.357091 
L 157.550359 324.792727 
L 158.248884 324.792727 
L 158.947409 319.357091 
L 159.645933 330.228364 
L 160.344458 330.228364 
L 161.042983 324.792727 
L 161.741507 330.228364 
L 162.440032 330.228364 
L 163.138557 335.664 
L 164.535606 324.792727 
L 165.234131 330.228364 
L 166.63118 330.228364 
L 167.329704 324.792727 
L 168.028229 313.921455 
L 168.726754 324.792727 
L 170.123803 313.921455 
L 170.822328 330.228364 
L 171.520852 341.099636 
L 172.219377 341.099636 
L 172.917902 335.664 
L 173.616426 324.792727 
L 174.314951 330.228364 
L 175.013476 324.792727 
L 175.712 324.792727 
L 177.807574 308.485818 
L 178.506099 313.921455 
L 179.204623 313.921455 
L 179.903148 319.357091 
L 180.601673 319.357091 
L 181.300197 303.050182 
L 181.998722 297.614545 
L 182.697247 319.357091 
L 183.395771 303.050182 
L 184.094296 303.050182 
L 184.792821 319.357091 
L 185.491345 313.921455 
L 186.18987 303.050182 
L 187.586919 313.921455 
L 188.285444 313.921455 
L 188.983969 308.485818 
L 189.682493 313.921455 
L 190.381018 324.792727 
L 191.079542 308.485818 
L 191.778067 297.614545 
L 192.476592 292.178909 
L 193.175116 308.485818 
L 193.873641 297.614545 
L 194.572166 297.614545 
L 195.969215 308.485818 
L 196.66774 303.050182 
L 197.366264 292.178909 
L 198.064789 297.614545 
L 198.763314 308.485818 
L 200.160363 319.357091 
L 200.858887 319.357091 
L 201.557412 330.228364 
L 202.255937 313.921455 
L 202.954461 319.357091 
L 203.652986 308.485818 
L 204.351511 313.921455 
L 205.050035 324.792727 
L 205.74856 313.921455 
L 206.447085 319.357091 
L 208.542659 319.357091 
L 209.241183 324.792727 
L 209.939708 319.357091 
L 210.638233 324.792727 
L 213.432331 324.792727 
L 214.130856 319.357091 
L 214.82938 308.485818 
L 215.527905 319.357091 
L 216.22643 313.921455 
L 216.924954 324.792727 
L 217.623479 319.357091 
L 218.322004 324.792727 
L 219.020528 313.921455 
L 220.417578 335.664 
L 221.116102 335.664 
L 221.814627 341.099636 
L 222.513152 335.664 
L 223.211676 324.792727 
L 223.910201 335.664 
L 226.005775 335.664 
L 226.704299 324.792727 
L 227.402824 324.792727 
L 228.101349 330.228364 
L 228.799873 324.792727 
L 230.196923 335.664 
L 230.895447 313.921455 
L 232.292497 313.921455 
L 232.991021 330.228364 
L 233.689546 335.664 
L 235.086595 335.664 
L 235.78512 324.792727 
L 236.483644 330.228364 
L 237.182169 330.228364 
L 237.880694 335.664 
L 238.579218 330.228364 
L 239.277743 335.664 
L 239.976268 324.792727 
L 240.674792 330.228364 
L 241.373317 319.357091 
L 242.071842 324.792727 
L 242.770366 341.099636 
L 243.468891 346.535273 
L 244.167416 346.535273 
L 244.86594 341.099636 
L 246.961514 341.099636 
L 247.660039 335.664 
L 248.358563 346.535273 
L 249.057088 335.331206 
L 250.454137 335.331206 
L 251.152662 329.784638 
L 251.851187 340.877774 
L 252.549711 346.424341 
L 253.248236 335.331206 
L 254.645285 346.424341 
L 255.34381 346.424341 
L 256.042335 335.331206 
L 256.740859 329.784638 
L 257.439384 329.322424 
L 258.137908 340.646667 
L 259.534958 340.646667 
L 260.233482 334.984545 
L 260.932007 340.646667 
L 262.329056 340.646667 
L 263.726106 329.322424 
L 264.42463 317.998182 
L 265.123155 340.646667 
L 265.82168 346.308788 
L 266.520204 346.188317 
L 267.218729 340.405725 
L 267.917254 340.405725 
L 268.615778 323.05795 
L 270.012827 311.492766 
L 270.711352 323.05795 
L 271.409877 317.275358 
L 272.108401 323.05795 
L 272.806926 334.623133 
L 273.505451 328.840542 
L 274.203975 340.405725 
L 274.9025 328.840542 
L 275.601025 334.623133 
L 276.299549 334.623133 
L 276.998074 346.188317 
L 277.696599 346.188317 
L 278.395123 340.405725 
L 279.093648 328.840542 
L 279.792172 328.840542 
L 281.189222 317.275358 
L 281.887746 317.275358 
L 282.586271 310.612806 
L 283.284796 322.429407 
L 283.98332 316.521107 
L 285.38037 328.337708 
L 286.078894 322.429407 
L 286.777419 328.337708 
L 287.475944 328.337708 
L 288.174468 322.429407 
L 289.571518 334.246008 
L 290.968567 334.246008 
L 291.667091 328.337708 
L 292.365616 328.337708 
L 293.064141 321.772929 
L 293.762665 321.772929 
L 294.46119 309.693737 
L 295.159715 321.086612 
L 295.858239 327.263471 
L 296.556764 321.086612 
L 297.255289 321.086612 
L 297.953813 327.263471 
L 298.652338 314.047865 
L 299.350863 314.047865 
L 300.049387 326.086926 
L 300.747912 326.086926 
L 301.446437 332.557922 
L 302.144961 332.557922 
L 302.843486 317.998182 
L 303.54201 330.51445 
L 304.240535 330.51445 
L 304.93906 337.666603 
L 306.336109 323.362297 
L 307.034634 307.898182 
L 309.130208 329.322424 
L 309.828732 321.772929 
L 310.527257 329.322424 
L 311.225782 328.675325 
L 312.622831 328.675325 
L 313.321355 320.91013 
L 314.01988 328.675325 
L 314.718405 328.675325 
L 315.416929 327.99016 
L 316.115454 327.99016 
L 316.813979 319.996578 
L 317.512503 327.99016 
L 318.211028 304.009412 
L 318.909553 319.027658 
L 319.608077 310.791846 
L 320.306602 327.263471 
L 321.005127 319.027658 
L 321.703651 319.027658 
L 322.402176 325.669443 
L 323.799225 325.669443 
L 325.196274 343.203754 
L 325.894799 325.669443 
L 326.593324 316.902287 
L 327.291848 316.902287 
L 328.688898 334.436598 
L 329.387422 325.669443 
L 330.085947 334.436598 
L 332.181521 334.436598 
L 332.880046 316.902287 
L 333.57857 334.436598 
L 334.277095 343.203754 
L 338.468243 343.203754 
L 339.166767 342.911515 
L 341.262341 315.733333 
L 342.659391 332.557922 
L 343.357915 303.438442 
L 344.05644 313.144935 
L 345.453489 313.144935 
L 346.152014 332.557922 
L 346.850538 322.851429 
L 347.549063 322.851429 
L 348.946112 342.264416 
L 351.041686 342.264416 
L 351.740211 341.904916 
L 352.438736 311.706936 
L 353.13726 301.640943 
L 353.835785 311.706936 
L 354.53431 301.640943 
L 355.232834 299.705175 
L 355.931359 310.158322 
L 356.629884 310.158322 
L 357.328408 330.228364 
L 358.026933 308.485818 
L 359.423982 308.485818 
L 360.122507 286.743273 
L 362.916605 329.322424 
L 363.61513 317.998182 
L 364.313655 340.646667 
L 365.710704 317.998182 
L 366.409229 329.322424 
L 369.901852 329.322424 
L 370.600376 317.998182 
L 371.997426 317.998182 
L 372.69595 340.646667 
L 374.791524 340.646667 
L 375.490049 351.970909 
L 378.284148 351.970909 
L 379.681197 328.337708 
L 380.379722 340.154308 
L 381.078246 328.337708 
L 381.776771 304.704506 
L 383.872345 304.704506 
L 384.570869 314.909752 
L 385.269394 327.263471 
L 386.666443 302.556033 
L 387.364968 302.556033 
L 388.762017 327.263471 
L 389.460542 327.263471 
L 390.159067 338.381818 
L 390.857591 338.381818 
L 391.556116 324.792727 
L 392.953165 324.792727 
L 393.65169 311.203636 
L 394.350214 324.792727 
L 395.048739 324.792727 
L 395.747264 311.203636 
L 396.445788 311.203636 
L 397.144313 323.362297 
L 397.842838 309.05799 
L 398.541362 309.05799 
L 399.239887 323.362297 
L 399.938412 323.362297 
L 400.636936 309.05799 
L 401.335461 323.362297 
L 402.73251 323.362297 
L 403.431035 321.772929 
L 404.129559 306.673939 
L 404.828084 321.772929 
L 405.526609 306.673939 
L 406.225133 304.009412 
L 407.622183 334.984545 
L 408.320707 334.984545 
L 409.019232 333.852121 
L 411.813331 333.852121 
L 412.511855 351.970909 
L 413.908905 351.970909 
L 415.305954 310.158322 
L 416.004478 351.970909 
L 417.401528 351.970909 
L 418.100052 329.322424 
L 418.798577 351.970909 
L 419.497102 351.970909 
L 420.195626 329.322424 
L 421.592676 329.322424 
L 422.2912 351.970909 
L 432.76907 351.970909 
L 433.467595 324.792727 
L 434.166119 351.970909 
L 434.864644 324.792727 
L 435.563169 351.970909 
L 447.438088 351.970909 
L 448.136612 321.772929 
L 448.835137 317.998182 
L 453.724809 317.998182 
L 454.423334 250.052727 
L 455.121859 351.970909 
L 473.283499 351.970909 
L 474.680549 216.08 
L 475.379073 216.08 
L 476.077598 170.78303 
L 476.776123 261.37697 
L 480.268746 261.37697 
L 480.967271 351.970909 
L 494.937763 351.970909 
L 495.636288 80.189091 
L 496.334813 351.970909 
L 497.731862 351.970909 
L 497.731862 351.970909 
" style="fill:none;stroke:#2ca02c;stroke-linecap:square;stroke-width:1.5;"/>
   </g>
   <g id="line2d_17">
    <path clip-path="url(#p1b33669e2f)" d="M 90.491993 351.970909 
L 91.889043 351.970909 
L 92.587567 346.535273 
L 93.286092 330.228364 
L 93.984617 335.664 
L 94.683141 313.921455 
L 95.381666 324.792727 
L 96.778715 335.664 
L 97.47724 346.535273 
L 98.175765 335.664 
L 98.874289 335.664 
L 99.572814 346.535273 
L 100.969863 335.664 
L 101.668388 341.099636 
L 102.366912 330.228364 
L 103.065437 324.792727 
L 103.763962 341.099636 
L 104.462486 341.099636 
L 105.859536 330.228364 
L 107.256585 341.099636 
L 109.352159 341.099636 
L 110.050684 324.792727 
L 112.146257 341.099636 
L 113.543307 341.099636 
L 114.241831 346.535273 
L 114.940356 335.664 
L 115.638881 335.664 
L 116.337405 324.792727 
L 117.03593 335.664 
L 117.734455 335.664 
L 118.432979 351.970909 
L 119.131504 335.664 
L 119.830029 341.099636 
L 120.528553 335.664 
L 121.227078 346.535273 
L 121.925602 346.535273 
L 122.624127 341.099636 
L 123.322652 346.535273 
L 124.021176 346.535273 
L 124.719701 335.664 
L 126.11675 335.664 
L 126.815275 346.535273 
L 127.5138 330.228364 
L 128.212324 335.664 
L 128.910849 330.228364 
L 129.609374 330.228364 
L 130.307898 341.099636 
L 131.006423 335.664 
L 131.704948 341.099636 
L 133.101997 330.228364 
L 134.499046 330.228364 
L 135.197571 335.664 
L 136.59462 335.664 
L 137.293145 341.099636 
L 137.991669 324.792727 
L 138.690194 335.664 
L 139.388719 335.664 
L 140.087243 341.099636 
L 140.785768 341.099636 
L 141.484293 335.664 
L 142.881342 335.664 
L 143.579867 341.099636 
L 144.976916 341.099636 
L 145.67544 324.792727 
L 146.373965 330.228364 
L 147.07249 330.228364 
L 147.771014 341.099636 
L 148.469539 346.535273 
L 149.168064 346.535273 
L 149.866588 335.664 
L 151.263638 335.664 
L 152.660687 324.792727 
L 154.756261 341.099636 
L 155.454786 319.357091 
L 157.550359 319.357091 
L 158.248884 324.792727 
L 158.947409 335.664 
L 159.645933 330.228364 
L 161.741507 330.228364 
L 162.440032 335.664 
L 163.138557 324.792727 
L 163.837081 335.664 
L 164.535606 330.228364 
L 166.63118 346.535273 
L 168.028229 346.535273 
L 168.726754 335.664 
L 169.425278 335.664 
L 170.123803 341.099636 
L 170.822328 324.792727 
L 171.520852 319.357091 
L 172.219377 330.228364 
L 172.917902 335.664 
L 173.616426 335.664 
L 175.013476 346.535273 
L 175.712 335.664 
L 177.10905 346.535273 
L 177.807574 346.535273 
L 178.506099 341.099636 
L 179.204623 346.535273 
L 179.903148 341.099636 
L 180.601673 351.970909 
L 181.300197 351.970909 
L 181.998722 346.535273 
L 182.697247 335.664 
L 183.395771 346.535273 
L 184.094296 335.664 
L 184.792821 319.357091 
L 185.491345 335.664 
L 186.18987 346.535273 
L 186.888395 341.099636 
L 187.586919 346.535273 
L 188.285444 346.535273 
L 188.983969 351.970909 
L 191.079542 335.664 
L 191.778067 346.535273 
L 192.476592 346.535273 
L 193.175116 341.099636 
L 193.873641 351.970909 
L 195.27069 341.099636 
L 195.969215 330.228364 
L 196.66774 341.099636 
L 197.366264 346.535273 
L 198.064789 335.664 
L 200.160363 335.664 
L 200.858887 341.099636 
L 201.557412 341.099636 
L 202.255937 351.970909 
L 202.954461 346.535273 
L 204.351511 346.535273 
L 205.050035 335.664 
L 205.74856 346.535273 
L 206.447085 335.664 
L 207.145609 335.664 
L 207.844134 330.228364 
L 208.542659 341.099636 
L 209.241183 346.535273 
L 209.939708 346.535273 
L 210.638233 341.099636 
L 211.336757 341.099636 
L 212.035282 335.664 
L 212.733806 335.664 
L 213.432331 341.099636 
L 214.130856 351.970909 
L 214.82938 346.535273 
L 215.527905 335.664 
L 216.22643 335.664 
L 216.924954 330.228364 
L 217.623479 351.970909 
L 220.417578 330.228364 
L 221.116102 335.664 
L 221.814627 346.535273 
L 222.513152 351.970909 
L 223.211676 351.970909 
L 223.910201 341.099636 
L 224.608725 341.099636 
L 225.30725 346.535273 
L 228.101349 346.535273 
L 228.799873 351.970909 
L 229.498398 346.535273 
L 230.196923 346.535273 
L 230.895447 351.970909 
L 231.593972 346.535273 
L 232.292497 346.535273 
L 232.991021 335.664 
L 234.38807 346.535273 
L 235.086595 346.535273 
L 235.78512 351.970909 
L 236.483644 346.535273 
L 237.880694 346.535273 
L 238.579218 351.970909 
L 239.277743 346.535273 
L 239.976268 346.535273 
L 240.674792 341.099636 
L 241.373317 346.535273 
L 242.071842 335.664 
L 242.770366 330.228364 
L 243.468891 341.099636 
L 245.564465 341.099636 
L 246.961514 351.970909 
L 247.660039 351.970909 
L 248.358563 341.099636 
L 249.755613 351.970909 
L 250.454137 346.424341 
L 251.152662 351.970909 
L 251.851187 340.877774 
L 252.549711 335.331206 
L 253.248236 340.877774 
L 255.34381 340.877774 
L 256.042335 346.424341 
L 256.740859 346.424341 
L 257.439384 346.308788 
L 258.137908 334.984545 
L 258.836433 334.984545 
L 260.233482 323.660303 
L 261.630532 334.984545 
L 262.329056 346.308788 
L 263.027581 351.970909 
L 264.42463 351.970909 
L 265.123155 329.322424 
L 265.82168 346.308788 
L 266.520204 351.970909 
L 267.218729 351.970909 
L 267.917254 340.405725 
L 268.615778 346.188317 
L 269.314303 340.405725 
L 270.711352 340.405725 
L 272.108401 328.840542 
L 272.806926 328.840542 
L 273.505451 334.623133 
L 274.203975 323.05795 
L 274.9025 340.405725 
L 275.601025 334.623133 
L 276.299549 340.405725 
L 276.998074 328.840542 
L 277.696599 328.840542 
L 279.093648 340.405725 
L 279.792172 340.405725 
L 280.490697 346.188317 
L 281.189222 346.188317 
L 281.887746 340.405725 
L 282.586271 346.062609 
L 283.284796 334.246008 
L 284.681845 346.062609 
L 285.38037 346.062609 
L 286.078894 351.970909 
L 286.777419 346.062609 
L 287.475944 351.970909 
L 288.174468 351.970909 
L 289.571518 340.154308 
L 290.270042 351.970909 
L 290.968567 346.062609 
L 291.667091 346.062609 
L 292.365616 340.154308 
L 293.064141 345.931313 
L 293.762665 345.931313 
L 294.46119 351.970909 
L 295.159715 333.440331 
L 295.858239 333.440331 
L 296.556764 339.61719 
L 297.255289 339.61719 
L 297.953813 333.440331 
L 298.652338 333.009387 
L 299.350863 326.688879 
L 300.049387 326.086926 
L 301.446437 326.086926 
L 302.144961 332.557922 
L 302.843486 331.587273 
L 303.54201 316.210144 
L 304.240535 330.51445 
L 304.93906 330.51445 
L 306.336109 344.818756 
L 307.034634 344.625455 
L 307.733158 337.28 
L 308.431683 336.871919 
L 309.130208 336.871919 
L 309.828732 344.421414 
L 310.527257 336.871919 
L 311.225782 344.205714 
L 312.622831 344.205714 
L 313.321355 351.970909 
L 314.01988 344.205714 
L 314.718405 351.970909 
L 316.813979 351.970909 
L 317.512503 343.977326 
L 318.211028 351.970909 
L 318.909553 335.499284 
L 319.608077 335.499284 
L 320.306602 319.027658 
L 321.005127 343.735096 
L 321.703651 335.499284 
L 322.402176 334.436598 
L 323.100701 325.669443 
L 323.799225 343.203754 
L 324.49775 334.436598 
L 325.196274 334.436598 
L 325.894799 343.203754 
L 327.291848 325.669443 
L 329.387422 325.669443 
L 330.085947 316.902287 
L 330.784472 334.436598 
L 332.880046 334.436598 
L 333.57857 325.669443 
L 334.277095 325.669443 
L 335.674144 343.203754 
L 338.468243 343.203754 
L 339.166767 342.911515 
L 341.262341 342.911515 
L 341.960866 324.792727 
L 342.659391 332.557922 
L 343.357915 332.557922 
L 344.05644 322.851429 
L 344.754965 332.557922 
L 345.453489 332.557922 
L 346.152014 303.438442 
L 346.850538 322.851429 
L 347.549063 332.557922 
L 348.247588 332.557922 
L 348.946112 322.851429 
L 350.343162 342.264416 
L 351.041686 342.264416 
L 351.740211 341.904916 
L 352.438736 341.904916 
L 353.13726 331.838923 
L 354.53431 331.838923 
L 355.232834 351.970909 
L 355.931359 341.517762 
L 356.629884 341.517762 
L 357.328408 341.099636 
L 358.026933 351.970909 
L 358.725457 330.228364 
L 359.423982 330.228364 
L 360.122507 341.099636 
L 360.821031 330.228364 
L 362.218081 330.228364 
L 362.916605 340.646667 
L 363.61513 340.646667 
L 364.313655 329.322424 
L 365.012179 340.646667 
L 369.203327 340.646667 
L 369.901852 351.970909 
L 371.298901 351.970909 
L 372.69595 329.322424 
L 374.093 351.970909 
L 374.791524 351.970909 
L 375.490049 340.646667 
L 378.284148 340.646667 
L 378.982672 340.154308 
L 379.681197 351.970909 
L 380.379722 340.154308 
L 381.078246 351.970909 
L 384.570869 351.970909 
L 385.269394 339.61719 
L 386.666443 339.61719 
L 387.364968 327.263471 
L 388.063493 302.556033 
L 389.460542 327.263471 
L 390.159067 324.792727 
L 390.857591 324.792727 
L 391.556116 338.381818 
L 392.25464 324.792727 
L 393.65169 351.970909 
L 394.350214 338.381818 
L 396.445788 338.381818 
L 397.144313 323.362297 
L 397.842838 323.362297 
L 398.541362 309.05799 
L 399.239887 309.05799 
L 399.938412 323.362297 
L 400.636936 323.362297 
L 402.033986 351.970909 
L 404.129559 351.970909 
L 404.828084 336.871919 
L 405.526609 336.871919 
L 406.225133 335.983743 
L 406.923658 319.996578 
L 407.622183 317.998182 
L 408.320707 334.984545 
L 409.019232 333.852121 
L 409.717757 351.970909 
L 410.416281 351.970909 
L 411.114806 333.852121 
L 411.813331 333.852121 
L 412.511855 332.557922 
L 413.908905 332.557922 
L 414.607429 331.064615 
L 415.305954 331.064615 
L 416.004478 289.252028 
L 416.703003 284.025455 
L 417.401528 306.673939 
L 418.100052 306.673939 
L 418.798577 284.025455 
L 419.497102 284.025455 
L 420.195626 306.673939 
L 422.2912 306.673939 
L 422.989725 329.322424 
L 423.68825 329.322424 
L 424.386774 327.263471 
L 425.783823 327.263471 
L 426.482348 324.792727 
L 429.276447 324.792727 
L 429.974971 351.970909 
L 433.467595 351.970909 
L 434.166119 324.792727 
L 434.864644 351.970909 
L 435.563169 324.792727 
L 436.261693 321.772929 
L 444.643989 321.772929 
L 445.342514 351.970909 
L 454.423334 351.970909 
L 455.121859 250.052727 
L 455.820383 274.318961 
L 456.518908 351.970909 
L 474.680549 351.970909 
L 475.379073 284.025455 
L 476.077598 261.37697 
L 479.570221 261.37697 
L 480.268746 351.970909 
L 495.636288 351.970909 
L 496.334813 80.189091 
L 497.033337 351.970909 
L 497.731862 351.970909 
L 497.731862 351.970909 
" style="fill:none;stroke:#d62728;stroke-linecap:square;stroke-width:1.5;"/>
   </g>
   <g id="line2d_18">
    <path clip-path="url(#p1b33669e2f)" d="M 90.491993 351.970909 
L 93.286092 351.970909 
L 94.683141 341.099636 
L 95.381666 330.228364 
L 96.080191 346.535273 
L 96.778715 341.099636 
L 97.47724 330.228364 
L 98.175765 341.099636 
L 98.874289 335.664 
L 99.572814 335.664 
L 100.271338 341.099636 
L 100.969863 341.099636 
L 101.668388 335.664 
L 103.065437 335.664 
L 103.763962 319.357091 
L 104.462486 330.228364 
L 105.161011 335.664 
L 105.859536 335.664 
L 107.95511 319.357091 
L 108.653634 330.228364 
L 109.352159 330.228364 
L 110.050684 324.792727 
L 110.749208 313.921455 
L 111.447733 324.792727 
L 112.146257 319.357091 
L 112.844782 319.357091 
L 113.543307 330.228364 
L 114.241831 324.792727 
L 114.940356 330.228364 
L 115.638881 319.357091 
L 117.734455 319.357091 
L 118.432979 313.921455 
L 119.131504 330.228364 
L 119.830029 319.357091 
L 121.925602 319.357091 
L 122.624127 330.228364 
L 123.322652 324.792727 
L 124.021176 335.664 
L 124.719701 335.664 
L 125.418226 324.792727 
L 126.11675 324.792727 
L 126.815275 319.357091 
L 128.910849 319.357091 
L 130.307898 308.485818 
L 131.006423 335.664 
L 131.704948 330.228364 
L 132.403472 341.099636 
L 133.101997 341.099636 
L 134.499046 330.228364 
L 135.197571 330.228364 
L 135.896095 335.664 
L 136.59462 330.228364 
L 137.293145 319.357091 
L 137.991669 324.792727 
L 138.690194 319.357091 
L 139.388719 319.357091 
L 140.087243 324.792727 
L 140.785768 319.357091 
L 142.182817 319.357091 
L 142.881342 324.792727 
L 143.579867 324.792727 
L 144.278391 330.228364 
L 145.67544 330.228364 
L 146.373965 324.792727 
L 147.07249 335.664 
L 147.771014 324.792727 
L 148.469539 335.664 
L 149.866588 335.664 
L 150.565113 330.228364 
L 151.263638 330.228364 
L 151.962162 335.664 
L 152.660687 330.228364 
L 153.359212 330.228364 
L 154.057736 319.357091 
L 154.756261 330.228364 
L 155.454786 335.664 
L 156.851835 324.792727 
L 157.550359 324.792727 
L 158.947409 313.921455 
L 159.645933 324.792727 
L 160.344458 324.792727 
L 161.741507 335.664 
L 162.440032 330.228364 
L 163.138557 335.664 
L 163.837081 330.228364 
L 164.535606 330.228364 
L 165.234131 324.792727 
L 165.932655 330.228364 
L 168.726754 330.228364 
L 169.425278 335.664 
L 170.123803 330.228364 
L 171.520852 330.228364 
L 172.219377 324.792727 
L 172.917902 330.228364 
L 173.616426 341.099636 
L 174.314951 335.664 
L 175.712 335.664 
L 176.410525 330.228364 
L 177.10905 341.099636 
L 178.506099 341.099636 
L 179.204623 346.535273 
L 179.903148 346.535273 
L 180.601673 341.099636 
L 181.300197 351.970909 
L 181.998722 351.970909 
L 183.395771 341.099636 
L 184.094296 341.099636 
L 184.792821 346.535273 
L 185.491345 330.228364 
L 186.18987 324.792727 
L 186.888395 324.792727 
L 187.586919 319.357091 
L 188.285444 330.228364 
L 189.682493 341.099636 
L 191.079542 341.099636 
L 191.778067 330.228364 
L 192.476592 324.792727 
L 193.873641 324.792727 
L 194.572166 335.664 
L 195.27069 330.228364 
L 195.969215 330.228364 
L 196.66774 319.357091 
L 197.366264 319.357091 
L 198.763314 308.485818 
L 199.461838 313.921455 
L 200.160363 324.792727 
L 200.858887 324.792727 
L 201.557412 313.921455 
L 202.255937 308.485818 
L 202.954461 319.357091 
L 205.050035 335.664 
L 205.74856 324.792727 
L 206.447085 330.228364 
L 207.145609 324.792727 
L 207.844134 330.228364 
L 208.542659 313.921455 
L 209.241183 308.485818 
L 209.939708 324.792727 
L 210.638233 330.228364 
L 211.336757 330.228364 
L 212.035282 335.664 
L 213.432331 335.664 
L 214.130856 324.792727 
L 214.82938 330.228364 
L 215.527905 330.228364 
L 216.22643 324.792727 
L 216.924954 324.792727 
L 217.623479 308.485818 
L 218.322004 335.664 
L 219.719053 335.664 
L 221.116102 313.921455 
L 221.814627 308.485818 
L 222.513152 319.357091 
L 223.211676 324.792727 
L 223.910201 335.664 
L 226.005775 335.664 
L 227.402824 346.535273 
L 228.101349 346.535273 
L 228.799873 341.099636 
L 229.498398 346.535273 
L 230.895447 335.664 
L 231.593972 341.099636 
L 232.292497 335.664 
L 232.991021 335.664 
L 233.689546 330.228364 
L 234.38807 330.228364 
L 235.086595 335.664 
L 235.78512 335.664 
L 236.483644 346.535273 
L 237.182169 346.535273 
L 237.880694 341.099636 
L 238.579218 341.099636 
L 239.976268 351.970909 
L 240.674792 351.970909 
L 241.373317 346.535273 
L 242.071842 346.535273 
L 242.770366 335.664 
L 244.167416 346.535273 
L 244.86594 346.535273 
L 245.564465 341.099636 
L 246.262989 330.228364 
L 246.961514 335.664 
L 247.660039 335.664 
L 248.358563 346.535273 
L 249.057088 346.424341 
L 249.755613 340.877774 
L 250.454137 346.424341 
L 251.152662 340.877774 
L 251.851187 340.877774 
L 252.549711 346.424341 
L 253.248236 346.424341 
L 254.645285 335.331206 
L 256.042335 335.331206 
L 256.740859 340.877774 
L 257.439384 340.646667 
L 258.137908 340.646667 
L 258.836433 334.984545 
L 260.233482 334.984545 
L 260.932007 329.322424 
L 261.630532 329.322424 
L 263.726106 346.308788 
L 265.123155 346.308788 
L 265.82168 329.322424 
L 266.520204 328.840542 
L 267.218729 340.405725 
L 270.012827 340.405725 
L 271.409877 351.970909 
L 272.806926 340.405725 
L 274.203975 351.970909 
L 274.9025 334.623133 
L 275.601025 346.188317 
L 276.299549 340.405725 
L 276.998074 346.188317 
L 279.093648 346.188317 
L 279.792172 340.405725 
L 280.490697 340.405725 
L 281.189222 346.188317 
L 282.586271 334.246008 
L 283.284796 340.154308 
L 283.98332 328.337708 
L 284.681845 328.337708 
L 285.38037 340.154308 
L 286.078894 340.154308 
L 286.777419 346.062609 
L 287.475944 340.154308 
L 288.174468 351.970909 
L 289.571518 351.970909 
L 290.270042 340.154308 
L 290.968567 351.970909 
L 292.365616 351.970909 
L 293.064141 345.931313 
L 293.762665 351.970909 
L 294.46119 345.931313 
L 295.159715 345.79405 
L 295.858239 345.79405 
L 296.556764 339.61719 
L 297.953813 339.61719 
L 298.652338 339.329894 
L 299.350863 339.329894 
L 300.049387 339.028918 
L 300.747912 345.499913 
L 301.446437 339.028918 
L 302.144961 339.028918 
L 302.843486 345.176364 
L 303.54201 344.818756 
L 304.240535 337.666603 
L 304.93906 344.818756 
L 305.637584 337.666603 
L 306.336109 337.666603 
L 307.034634 344.625455 
L 307.733158 344.625455 
L 308.431683 344.421414 
L 309.828732 329.322424 
L 310.527257 329.322424 
L 311.225782 320.91013 
L 311.924306 328.675325 
L 312.622831 344.205714 
L 314.718405 344.205714 
L 315.416929 351.970909 
L 317.512503 351.970909 
L 318.211028 343.977326 
L 318.909553 343.735096 
L 320.306602 343.735096 
L 321.005127 319.027658 
L 321.703651 343.735096 
L 322.402176 343.203754 
L 323.100701 343.203754 
L 323.799225 325.669443 
L 324.49775 316.902287 
L 325.196274 334.436598 
L 326.593324 351.970909 
L 327.291848 343.203754 
L 329.387422 343.203754 
L 330.085947 351.970909 
L 330.784472 334.436598 
L 331.482996 334.436598 
L 332.181521 343.203754 
L 332.880046 343.203754 
L 333.57857 334.436598 
L 334.277095 334.436598 
L 334.97562 325.669443 
L 335.674144 343.203754 
L 336.372669 351.970909 
L 341.960866 351.970909 
L 342.659391 342.264416 
L 343.357915 342.264416 
L 344.05644 351.970909 
L 344.754965 332.557922 
L 346.152014 351.970909 
L 347.549063 332.557922 
L 348.247588 332.557922 
L 348.946112 342.264416 
L 350.343162 322.851429 
L 351.041686 332.557922 
L 351.740211 331.838923 
L 352.438736 341.904916 
L 353.13726 341.904916 
L 353.835785 331.838923 
L 354.53431 341.904916 
L 355.232834 320.611469 
L 355.931359 341.517762 
L 356.629884 341.517762 
L 357.328408 341.099636 
L 358.026933 341.099636 
L 358.725457 351.970909 
L 359.423982 351.970909 
L 360.122507 341.099636 
L 360.821031 341.099636 
L 361.519556 330.228364 
L 362.218081 330.228364 
L 362.916605 329.322424 
L 363.61513 351.970909 
L 365.012179 329.322424 
L 365.710704 329.322424 
L 366.409229 317.998182 
L 367.107753 329.322424 
L 367.806278 329.322424 
L 368.504803 340.646667 
L 369.203327 340.646667 
L 369.901852 329.322424 
L 371.298901 329.322424 
L 371.997426 340.646667 
L 373.394475 317.998182 
L 374.791524 317.998182 
L 376.188574 340.646667 
L 378.284148 340.646667 
L 378.982672 340.154308 
L 379.681197 328.337708 
L 380.379722 328.337708 
L 381.078246 316.521107 
L 382.475295 340.154308 
L 383.872345 340.154308 
L 384.570869 339.61719 
L 388.063493 339.61719 
L 388.762017 314.909752 
L 389.460542 314.909752 
L 390.159067 324.792727 
L 390.857591 324.792727 
L 391.556116 338.381818 
L 392.25464 338.381818 
L 392.953165 324.792727 
L 396.445788 324.792727 
L 397.144313 323.362297 
L 397.842838 337.666603 
L 398.541362 337.666603 
L 399.239887 323.362297 
L 399.938412 323.362297 
L 400.636936 337.666603 
L 401.335461 323.362297 
L 402.033986 323.362297 
L 402.73251 337.666603 
L 403.431035 336.871919 
L 404.129559 351.970909 
L 407.622183 351.970909 
L 408.320707 334.984545 
L 409.019232 333.852121 
L 409.717757 333.852121 
L 410.416281 351.970909 
L 411.813331 351.970909 
L 412.511855 332.557922 
L 413.21038 351.970909 
L 416.703003 351.970909 
L 417.401528 329.322424 
L 419.497102 329.322424 
L 420.195626 306.673939 
L 420.894151 329.322424 
L 421.592676 329.322424 
L 422.989725 284.025455 
L 423.68825 351.970909 
L 429.276447 351.970909 
L 429.974971 324.792727 
L 430.673496 351.970909 
L 434.166119 351.970909 
L 434.864644 324.792727 
L 435.563169 351.970909 
L 444.643989 351.970909 
L 445.342514 321.772929 
L 448.136612 321.772929 
L 448.835137 317.998182 
L 450.930711 317.998182 
L 451.629235 351.970909 
L 455.121859 351.970909 
L 456.518908 274.318961 
L 457.915957 351.970909 
L 476.077598 351.970909 
L 476.776123 261.37697 
L 477.474647 351.970909 
L 479.570221 351.970909 
L 480.268746 261.37697 
L 480.967271 351.970909 
L 496.334813 351.970909 
L 497.033337 80.189091 
L 497.731862 351.970909 
L 497.731862 351.970909 
" style="fill:none;stroke:#9467bd;stroke-linecap:square;stroke-width:1.5;"/>
   </g>
   <g id="line2d_19">
    <path clip-path="url(#p1b33669e2f)" d="M 90.491993 351.970909 
L 94.683141 351.970909 
L 95.381666 346.535273 
L 96.080191 324.792727 
L 96.778715 324.792727 
L 97.47724 319.357091 
L 98.175765 308.485818 
L 98.874289 303.050182 
L 99.572814 303.050182 
L 100.271338 297.614545 
L 103.065437 297.614545 
L 103.763962 303.050182 
L 104.462486 292.178909 
L 105.161011 292.178909 
L 106.55806 281.307636 
L 107.256585 286.743273 
L 108.653634 286.743273 
L 112.146257 259.565091 
L 112.844782 259.565091 
L 113.543307 248.693818 
L 114.241831 254.129455 
L 115.638881 254.129455 
L 116.337405 248.693818 
L 117.03593 248.693818 
L 117.734455 243.258182 
L 118.432979 243.258182 
L 119.131504 226.951273 
L 119.830029 232.386909 
L 120.528553 232.386909 
L 121.925602 221.515636 
L 122.624127 210.644364 
L 123.322652 210.644364 
L 124.021176 199.773091 
L 124.719701 205.208727 
L 126.11675 205.208727 
L 126.815275 216.08 
L 128.212324 226.951273 
L 128.910849 221.515636 
L 129.609374 232.386909 
L 130.307898 226.951273 
L 131.006423 216.08 
L 131.704948 221.515636 
L 132.403472 216.08 
L 133.101997 221.515636 
L 135.197571 221.515636 
L 135.896095 226.951273 
L 136.59462 226.951273 
L 137.293145 237.822545 
L 137.991669 243.258182 
L 138.690194 243.258182 
L 139.388719 237.822545 
L 140.087243 226.951273 
L 140.785768 226.951273 
L 141.484293 221.515636 
L 142.182817 237.822545 
L 142.881342 226.951273 
L 143.579867 226.951273 
L 144.278391 232.386909 
L 144.976916 232.386909 
L 145.67544 248.693818 
L 146.373965 248.693818 
L 147.07249 243.258182 
L 147.771014 243.258182 
L 148.469539 237.822545 
L 150.565113 237.822545 
L 151.962162 226.951273 
L 152.660687 226.951273 
L 153.359212 221.515636 
L 154.057736 221.515636 
L 154.756261 216.08 
L 155.454786 221.515636 
L 156.851835 221.515636 
L 157.550359 216.08 
L 158.248884 221.515636 
L 158.947409 216.08 
L 159.645933 205.208727 
L 160.344458 210.644364 
L 161.741507 199.773091 
L 162.440032 199.773091 
L 163.138557 194.337455 
L 165.234131 194.337455 
L 165.932655 183.466182 
L 166.63118 188.901818 
L 169.425278 188.901818 
L 170.123803 194.337455 
L 170.822328 194.337455 
L 172.219377 205.208727 
L 173.616426 183.466182 
L 176.410525 183.466182 
L 177.10905 167.159273 
L 178.506099 178.030545 
L 179.204623 178.030545 
L 179.903148 188.901818 
L 180.601673 194.337455 
L 181.998722 194.337455 
L 182.697247 199.773091 
L 184.792821 199.773091 
L 185.491345 216.08 
L 186.18987 205.208727 
L 186.888395 210.644364 
L 187.586919 210.644364 
L 188.983969 188.901818 
L 189.682493 194.337455 
L 190.381018 205.208727 
L 191.778067 216.08 
L 193.873641 216.08 
L 194.572166 205.208727 
L 195.27069 210.644364 
L 196.66774 210.644364 
L 197.366264 205.208727 
L 198.064789 205.208727 
L 198.763314 199.773091 
L 199.461838 205.208727 
L 200.160363 194.337455 
L 201.557412 205.208727 
L 202.255937 199.773091 
L 202.954461 210.644364 
L 203.652986 205.208727 
L 204.351511 194.337455 
L 205.74856 194.337455 
L 206.447085 188.901818 
L 207.844134 199.773091 
L 208.542659 199.773091 
L 209.241183 194.337455 
L 209.939708 183.466182 
L 210.638233 178.030545 
L 212.035282 178.030545 
L 212.733806 188.901818 
L 214.130856 188.901818 
L 214.82938 194.337455 
L 215.527905 188.901818 
L 216.22643 199.773091 
L 217.623479 199.773091 
L 218.322004 172.594909 
L 219.719053 172.594909 
L 221.116102 183.466182 
L 221.814627 172.594909 
L 222.513152 156.288 
L 223.211676 161.723636 
L 223.910201 156.288 
L 225.30725 167.159273 
L 226.005775 167.159273 
L 226.704299 172.594909 
L 227.402824 167.159273 
L 228.101349 172.594909 
L 228.799873 172.594909 
L 229.498398 167.159273 
L 230.196923 172.594909 
L 230.895447 172.594909 
L 231.593972 167.159273 
L 232.292497 167.159273 
L 232.991021 161.723636 
L 233.689546 161.723636 
L 235.78512 145.416727 
L 237.182169 145.416727 
L 238.579218 156.288 
L 239.976268 156.288 
L 241.373317 167.159273 
L 244.86594 167.159273 
L 246.262989 178.030545 
L 246.961514 172.594909 
L 247.660039 188.901818 
L 248.358563 183.466182 
L 249.057088 180.02731 
L 251.152662 180.02731 
L 251.851187 191.120445 
L 252.549711 185.573878 
L 253.248236 185.573878 
L 253.946761 191.120445 
L 256.740859 168.934174 
L 257.439384 176.445152 
L 258.137908 176.445152 
L 258.836433 193.431515 
L 260.233482 204.755758 
L 260.932007 216.08 
L 261.630532 204.755758 
L 262.329056 187.769394 
L 263.726106 176.445152 
L 264.42463 187.769394 
L 265.123155 187.769394 
L 265.82168 193.431515 
L 266.520204 195.840928 
L 267.218729 184.275745 
L 267.917254 190.058337 
L 268.615778 184.275745 
L 269.314303 184.275745 
L 270.012827 178.493153 
L 270.711352 178.493153 
L 271.409877 172.710561 
L 272.806926 172.710561 
L 274.203975 161.145377 
L 274.9025 166.927969 
L 275.601025 161.145377 
L 276.299549 161.145377 
L 276.998074 155.362785 
L 277.696599 155.362785 
L 278.395123 161.145377 
L 279.093648 155.362785 
L 279.792172 178.493153 
L 280.490697 184.275745 
L 281.887746 184.275745 
L 282.586271 192.446798 
L 283.284796 186.538498 
L 284.681845 186.538498 
L 285.38037 168.813597 
L 286.078894 162.905296 
L 286.777419 162.905296 
L 287.475944 168.813597 
L 288.174468 156.996996 
L 288.872993 156.996996 
L 289.571518 168.813597 
L 290.270042 174.721897 
L 290.968567 168.813597 
L 292.365616 168.813597 
L 293.064141 170.78303 
L 293.762665 164.743434 
L 294.46119 164.743434 
L 295.159715 166.665124 
L 296.556764 166.665124 
L 297.255289 172.841983 
L 297.953813 185.195702 
L 298.652338 187.637717 
L 299.350863 193.958224 
L 300.049387 183.725022 
L 300.747912 190.196017 
L 301.446437 190.196017 
L 302.144961 183.725022 
L 303.54201 180.319234 
L 304.93906 166.014928 
L 305.637584 173.167081 
L 306.336109 166.014928 
L 307.034634 160.989091 
L 307.733158 160.989091 
L 308.431683 163.233535 
L 309.828732 163.233535 
L 310.527257 178.332525 
L 311.225782 181.136623 
L 311.924306 173.371429 
L 312.622831 173.371429 
L 313.321355 181.136623 
L 314.01988 181.136623 
L 314.718405 188.901818 
L 315.416929 184.105668 
L 316.115454 192.099251 
L 316.813979 192.099251 
L 317.512503 200.092834 
L 318.211028 200.092834 
L 318.909553 211.962094 
L 319.608077 211.962094 
L 320.306602 220.197906 
L 321.005127 220.197906 
L 321.703651 203.726281 
L 322.402176 220.463578 
L 324.49775 220.463578 
L 325.196274 211.696422 
L 325.894799 194.162111 
L 326.593324 185.394956 
L 327.291848 185.394956 
L 328.688898 167.860645 
L 329.387422 167.860645 
L 330.784472 185.394956 
L 331.482996 185.394956 
L 332.181521 176.627801 
L 332.880046 185.394956 
L 333.57857 185.394956 
L 334.277095 176.627801 
L 334.97562 176.627801 
L 335.674144 150.326334 
L 336.372669 141.559179 
L 337.769718 159.09349 
L 338.468243 176.627801 
L 339.166767 188.901818 
L 339.865292 197.961212 
L 340.563817 197.961212 
L 341.262341 216.08 
L 341.960866 225.139394 
L 342.659391 225.786494 
L 343.357915 225.786494 
L 344.05644 216.08 
L 348.946112 216.08 
L 349.644637 225.786494 
L 350.343162 225.786494 
L 351.041686 216.08 
L 351.740211 241.244983 
L 352.438736 231.17899 
L 353.13726 231.17899 
L 353.835785 241.244983 
L 354.53431 241.244983 
L 355.232834 236.986294 
L 355.931359 216.08 
L 356.629884 216.08 
L 357.328408 232.386909 
L 358.026933 232.386909 
L 358.725457 221.515636 
L 359.423982 232.386909 
L 360.122507 232.386909 
L 362.218081 199.773091 
L 362.916605 193.431515 
L 363.61513 170.78303 
L 364.313655 182.107273 
L 366.409229 182.107273 
L 367.107753 170.78303 
L 367.806278 182.107273 
L 368.504803 170.78303 
L 369.901852 170.78303 
L 370.600376 182.107273 
L 371.298901 182.107273 
L 371.997426 170.78303 
L 373.394475 170.78303 
L 374.093 159.458788 
L 378.284148 159.458788 
L 378.982672 174.721897 
L 381.078246 174.721897 
L 381.776771 162.905296 
L 382.475295 162.905296 
L 383.17382 174.721897 
L 383.872345 174.721897 
L 384.570869 191.372562 
L 387.364968 191.372562 
L 388.063493 203.726281 
L 389.460542 203.726281 
L 390.857591 229.669091 
L 391.556116 216.08 
L 392.953165 216.08 
L 393.65169 202.490909 
L 394.350214 202.490909 
L 395.048739 216.08 
L 396.445788 216.08 
L 397.144313 223.232153 
L 397.842838 208.927847 
L 399.938412 208.927847 
L 400.636936 194.623541 
L 401.335461 194.623541 
L 402.73251 166.014928 
L 403.431035 170.78303 
L 404.129559 155.68404 
L 405.526609 155.68404 
L 406.225133 176.112086 
L 406.923658 192.099251 
L 407.622183 182.107273 
L 408.320707 182.107273 
L 409.019232 188.901818 
L 410.416281 152.664242 
L 411.114806 170.78303 
L 411.813331 170.78303 
L 412.511855 177.254026 
L 413.908905 177.254026 
L 414.607429 184.720559 
L 416.004478 184.720559 
L 416.703003 193.431515 
L 418.798577 193.431515 
L 419.497102 216.08 
L 422.989725 216.08 
L 423.68825 148.134545 
L 424.386774 154.311405 
L 425.783823 154.311405 
L 426.482348 188.901818 
L 429.974971 188.901818 
L 430.673496 161.723636 
L 434.864644 161.723636 
L 435.563169 134.545455 
L 436.261693 140.585051 
L 448.136612 140.585051 
L 448.835137 148.134545 
L 450.232186 216.08 
L 450.930711 216.08 
L 451.629235 182.107273 
L 455.121859 182.107273 
L 455.820383 196.667013 
L 457.915957 80.189091 
L 468.393827 80.189091 
L 469.092352 134.545455 
L 469.790876 134.545455 
L 470.489401 243.258182 
L 471.187925 243.258182 
L 471.88645 284.025455 
L 475.379073 284.025455 
L 476.077598 351.970909 
L 476.776123 351.970909 
L 477.474647 261.37697 
L 480.268746 261.37697 
L 480.967271 80.189091 
L 492.842189 80.189091 
L 493.540714 351.970909 
L 497.033337 351.970909 
L 497.731862 80.189091 
L 497.731862 80.189091 
" style="fill:none;stroke:#8c564b;stroke-linecap:square;stroke-width:1.5;"/>
   </g>
   <g id="patch_3">
    <path d="M 70.13 365.56 
L 70.13 66.6 
" style="fill:none;stroke:#000000;stroke-linecap:square;stroke-linejoin:miter;stroke-width:0.8;"/>
   </g>
   <g id="patch_4">
    <path d="M 518.093855 365.56 
L 518.093855 66.6 
" style="fill:none;stroke:#000000;stroke-linecap:square;stroke-linejoin:miter;stroke-width:0.8;"/>
   </g>
   <g id="patch_5">
    <path d="M 70.13 365.56 
L 518.093855 365.56 
" style="fill:none;stroke:#000000;stroke-linecap:square;stroke-linejoin:miter;stroke-width:0.8;"/>
   </g>
   <g id="patch_6">
    <path d="M 70.13 66.6 
L 518.093855 66.6 
" style="fill:none;stroke:#000000;stroke-linecap:square;stroke-linejoin:miter;stroke-width:0.8;"/>
   </g>
   <g id="legend_1">
    <g id="patch_7">
     <path d="M 80.63 59.1 
L 507.593855 59.1 
Q 510.593855 59.1 510.593855 56.1 
L 510.593855 13.565625 
Q 510.593855 10.565625 507.593855 10.565625 
L 80.63 10.565625 
Q 77.63 10.565625 77.63 13.565625 
L 77.63 56.1 
Q 77.63 59.1 80.63 59.1 
z
" style="fill:#ffffff;opacity:0.8;stroke:#cccccc;stroke-linejoin:miter;"/>
    </g>
    <g id="line2d_20">
     <path d="M 83.63 22.713281 
L 113.63 22.713281 
" style="fill:none;stroke:#1f77b4;stroke-linecap:square;stroke-width:1.5;"/>
    </g>
    <g id="line2d_21"/>
    <g id="text_16">
     <!-- CKC #0 -->
     <g transform="translate(125.63 27.963281)scale(0.15 -0.15)">
      <use xlink:href="#DejaVuSans-67"/>
      <use x="69.824219" xlink:href="#DejaVuSans-75"/>
      <use x="135.322266" xlink:href="#DejaVuSans-67"/>
      <use x="205.146484" xlink:href="#DejaVuSans-32"/>
      <use x="236.933594" xlink:href="#DejaVuSans-35"/>
      <use x="320.722656" xlink:href="#DejaVuSans-48"/>
     </g>
    </g>
    <g id="line2d_22">
     <path d="M 83.63 44.730469 
L 113.63 44.730469 
" style="fill:none;stroke:#ff7f0e;stroke-linecap:square;stroke-width:1.5;"/>
    </g>
    <g id="line2d_23"/>
    <g id="text_17">
     <!-- CKC #1 -->
     <g transform="translate(125.63 49.980469)scale(0.15 -0.15)">
      <use xlink:href="#DejaVuSans-67"/>
      <use x="69.824219" xlink:href="#DejaVuSans-75"/>
      <use x="135.322266" xlink:href="#DejaVuSans-67"/>
      <use x="205.146484" xlink:href="#DejaVuSans-32"/>
      <use x="236.933594" xlink:href="#DejaVuSans-35"/>
      <use x="320.722656" xlink:href="#DejaVuSans-49"/>
     </g>
    </g>
    <g id="line2d_24">
     <path d="M 190.733316 22.713281 
L 220.733316 22.713281 
" style="fill:none;stroke:#2ca02c;stroke-linecap:square;stroke-width:1.5;"/>
    </g>
    <g id="line2d_25"/>
    <g id="text_18">
     <!-- CKC #2 -->
     <g transform="translate(232.733316 27.963281)scale(0.15 -0.15)">
      <use xlink:href="#DejaVuSans-67"/>
      <use x="69.824219" xlink:href="#DejaVuSans-75"/>
      <use x="135.322266" xlink:href="#DejaVuSans-67"/>
      <use x="205.146484" xlink:href="#DejaVuSans-32"/>
      <use x="236.933594" xlink:href="#DejaVuSans-35"/>
      <use x="320.722656" xlink:href="#DejaVuSans-50"/>
     </g>
    </g>
    <g id="line2d_26">
     <path d="M 190.733316 44.730469 
L 220.733316 44.730469 
" style="fill:none;stroke:#d62728;stroke-linecap:square;stroke-width:1.5;"/>
    </g>
    <g id="line2d_27"/>
    <g id="text_19">
     <!-- CKC #3 -->
     <g transform="translate(232.733316 49.980469)scale(0.15 -0.15)">
      <use xlink:href="#DejaVuSans-67"/>
      <use x="69.824219" xlink:href="#DejaVuSans-75"/>
      <use x="135.322266" xlink:href="#DejaVuSans-67"/>
      <use x="205.146484" xlink:href="#DejaVuSans-32"/>
      <use x="236.933594" xlink:href="#DejaVuSans-35"/>
      <use x="320.722656" xlink:href="#DejaVuSans-51"/>
     </g>
    </g>
    <g id="line2d_28">
     <path d="M 297.836633 22.713281 
L 327.836633 22.713281 
" style="fill:none;stroke:#9467bd;stroke-linecap:square;stroke-width:1.5;"/>
    </g>
    <g id="line2d_29"/>
    <g id="text_20">
     <!-- CKC #4 -->
     <g transform="translate(339.836633 27.963281)scale(0.15 -0.15)">
      <use xlink:href="#DejaVuSans-67"/>
      <use x="69.824219" xlink:href="#DejaVuSans-75"/>
      <use x="135.322266" xlink:href="#DejaVuSans-67"/>
      <use x="205.146484" xlink:href="#DejaVuSans-32"/>
      <use x="236.933594" xlink:href="#DejaVuSans-35"/>
      <use x="320.722656" xlink:href="#DejaVuSans-52"/>
     </g>
    </g>
    <g id="line2d_30">
     <path d="M 404.939949 22.713281 
L 434.939949 22.713281 
" style="fill:none;stroke:#8c564b;stroke-linecap:square;stroke-width:1.5;"/>
    </g>
    <g id="line2d_31"/>
    <g id="text_21">
     <!-- CKC #5 -->
     <g transform="translate(446.939949 27.963281)scale(0.15 -0.15)">
      <use xlink:href="#DejaVuSans-67"/>
      <use x="69.824219" xlink:href="#DejaVuSans-75"/>
      <use x="135.322266" xlink:href="#DejaVuSans-67"/>
      <use x="205.146484" xlink:href="#DejaVuSans-32"/>
      <use x="236.933594" xlink:href="#DejaVuSans-35"/>
      <use x="320.722656" xlink:href="#DejaVuSans-53"/>
     </g>
    </g>
   </g>
  </g>
 </g>
 <defs>
  <clipPath id="p1b33669e2f">
   <rect height="298.96" width="447.963855" x="70.13" y="66.6"/>
  </clipPath>
 </defs>
</svg>
