<?xml version="1.0" encoding="utf-8" standalone="no"?>
<!DOCTYPE svg PUBLIC "-//W3C//DTD SVG 1.1//EN"
  "http://www.w3.org/Graphics/SVG/1.1/DTD/svg11.dtd">
<!-- Created with matplotlib (https://matplotlib.org/) -->
<svg height="432pt" version="1.1" viewBox="0 0 540 432" width="540pt" xmlns="http://www.w3.org/2000/svg" xmlns:xlink="http://www.w3.org/1999/xlink">
 <defs>
  <style type="text/css">
*{stroke-linecap:butt;stroke-linejoin:round;}
  </style>
 </defs>
 <g id="figure_1">
  <g id="patch_1">
   <path d="M 0 432 
L 540 432 
L 540 0 
L 0 0 
z
" style="fill:#ffffff;"/>
  </g>
  <g id="axes_1">
   <g id="patch_2">
    <path d="M 70.13 365.56 
L 511.677267 365.56 
L 511.677267 66.6 
L 70.13 66.6 
z
" style="fill:#ffffff;"/>
   </g>
   <g id="matplotlib.axis_1">
    <g id="xtick_1">
     <g id="line2d_1">
      <defs>
       <path d="M 0 0 
L 0 3.5 
" id="m4883ac8da5" style="stroke:#000000;stroke-width:0.8;"/>
      </defs>
      <g>
       <use style="stroke:#000000;stroke-width:0.8;" x="90.20033" xlink:href="#m4883ac8da5" y="365.56"/>
      </g>
     </g>
     <g id="text_1">
      <!-- 0 -->
      <defs>
       <path d="M 31.78125 66.40625 
Q 24.171875 66.40625 20.328125 58.90625 
Q 16.5 51.421875 16.5 36.375 
Q 16.5 21.390625 20.328125 13.890625 
Q 24.171875 6.390625 31.78125 6.390625 
Q 39.453125 6.390625 43.28125 13.890625 
Q 47.125 21.390625 47.125 36.375 
Q 47.125 51.421875 43.28125 58.90625 
Q 39.453125 66.40625 31.78125 66.40625 
z
M 31.78125 74.21875 
Q 44.046875 74.21875 50.515625 64.515625 
Q 56.984375 54.828125 56.984375 36.375 
Q 56.984375 17.96875 50.515625 8.265625 
Q 44.046875 -1.421875 31.78125 -1.421875 
Q 19.53125 -1.421875 13.0625 8.265625 
Q 6.59375 17.96875 6.59375 36.375 
Q 6.59375 54.828125 13.0625 64.515625 
Q 19.53125 74.21875 31.78125 74.21875 
z
" id="DejaVuSans-48"/>
      </defs>
      <g transform="translate(83.83783 387.756875)scale(0.2 -0.2)">
       <use xlink:href="#DejaVuSans-48"/>
      </g>
     </g>
    </g>
    <g id="xtick_2">
     <g id="line2d_2">
      <g>
       <use style="stroke:#000000;stroke-width:0.8;" x="174.176608" xlink:href="#m4883ac8da5" y="365.56"/>
      </g>
     </g>
     <g id="text_2">
      <!-- 50 -->
      <defs>
       <path d="M 10.796875 72.90625 
L 49.515625 72.90625 
L 49.515625 64.59375 
L 19.828125 64.59375 
L 19.828125 46.734375 
Q 21.96875 47.46875 24.109375 47.828125 
Q 26.265625 48.1875 28.421875 48.1875 
Q 40.625 48.1875 47.75 41.5 
Q 54.890625 34.8125 54.890625 23.390625 
Q 54.890625 11.625 47.5625 5.09375 
Q 40.234375 -1.421875 26.90625 -1.421875 
Q 22.3125 -1.421875 17.546875 -0.640625 
Q 12.796875 0.140625 7.71875 1.703125 
L 7.71875 11.625 
Q 12.109375 9.234375 16.796875 8.0625 
Q 21.484375 6.890625 26.703125 6.890625 
Q 35.15625 6.890625 40.078125 11.328125 
Q 45.015625 15.765625 45.015625 23.390625 
Q 45.015625 31 40.078125 35.4375 
Q 35.15625 39.890625 26.703125 39.890625 
Q 22.75 39.890625 18.8125 39.015625 
Q 14.890625 38.140625 10.796875 36.28125 
z
" id="DejaVuSans-53"/>
      </defs>
      <g transform="translate(161.451608 387.756875)scale(0.2 -0.2)">
       <use xlink:href="#DejaVuSans-53"/>
       <use x="63.623047" xlink:href="#DejaVuSans-48"/>
      </g>
     </g>
    </g>
    <g id="xtick_3">
     <g id="line2d_3">
      <g>
       <use style="stroke:#000000;stroke-width:0.8;" x="258.152885" xlink:href="#m4883ac8da5" y="365.56"/>
      </g>
     </g>
     <g id="text_3">
      <!-- 100 -->
      <defs>
       <path d="M 12.40625 8.296875 
L 28.515625 8.296875 
L 28.515625 63.921875 
L 10.984375 60.40625 
L 10.984375 69.390625 
L 28.421875 72.90625 
L 38.28125 72.90625 
L 38.28125 8.296875 
L 54.390625 8.296875 
L 54.390625 0 
L 12.40625 0 
z
" id="DejaVuSans-49"/>
      </defs>
      <g transform="translate(239.065385 387.756875)scale(0.2 -0.2)">
       <use xlink:href="#DejaVuSans-49"/>
       <use x="63.623047" xlink:href="#DejaVuSans-48"/>
       <use x="127.246094" xlink:href="#DejaVuSans-48"/>
      </g>
     </g>
    </g>
    <g id="xtick_4">
     <g id="line2d_4">
      <g>
       <use style="stroke:#000000;stroke-width:0.8;" x="342.129163" xlink:href="#m4883ac8da5" y="365.56"/>
      </g>
     </g>
     <g id="text_4">
      <!-- 150 -->
      <g transform="translate(323.041663 387.756875)scale(0.2 -0.2)">
       <use xlink:href="#DejaVuSans-49"/>
       <use x="63.623047" xlink:href="#DejaVuSans-53"/>
       <use x="127.246094" xlink:href="#DejaVuSans-48"/>
      </g>
     </g>
    </g>
    <g id="xtick_5">
     <g id="line2d_5">
      <g>
       <use style="stroke:#000000;stroke-width:0.8;" x="426.10544" xlink:href="#m4883ac8da5" y="365.56"/>
      </g>
     </g>
     <g id="text_5">
      <!-- 200 -->
      <defs>
       <path d="M 19.1875 8.296875 
L 53.609375 8.296875 
L 53.609375 0 
L 7.328125 0 
L 7.328125 8.296875 
Q 12.9375 14.109375 22.625 23.890625 
Q 32.328125 33.6875 34.8125 36.53125 
Q 39.546875 41.84375 41.421875 45.53125 
Q 43.3125 49.21875 43.3125 52.78125 
Q 43.3125 58.59375 39.234375 62.25 
Q 35.15625 65.921875 28.609375 65.921875 
Q 23.96875 65.921875 18.8125 64.3125 
Q 13.671875 62.703125 7.8125 59.421875 
L 7.8125 69.390625 
Q 13.765625 71.78125 18.9375 73 
Q 24.125 74.21875 28.421875 74.21875 
Q 39.75 74.21875 46.484375 68.546875 
Q 53.21875 62.890625 53.21875 53.421875 
Q 53.21875 48.921875 51.53125 44.890625 
Q 49.859375 40.875 45.40625 35.40625 
Q 44.1875 33.984375 37.640625 27.21875 
Q 31.109375 20.453125 19.1875 8.296875 
z
" id="DejaVuSans-50"/>
      </defs>
      <g transform="translate(407.01794 387.756875)scale(0.2 -0.2)">
       <use xlink:href="#DejaVuSans-50"/>
       <use x="63.623047" xlink:href="#DejaVuSans-48"/>
       <use x="127.246094" xlink:href="#DejaVuSans-48"/>
      </g>
     </g>
    </g>
    <g id="xtick_6">
     <g id="line2d_6">
      <g>
       <use style="stroke:#000000;stroke-width:0.8;" x="510.081718" xlink:href="#m4883ac8da5" y="365.56"/>
      </g>
     </g>
     <g id="text_6">
      <!-- 250 -->
      <g transform="translate(490.994218 387.756875)scale(0.2 -0.2)">
       <use xlink:href="#DejaVuSans-50"/>
       <use x="63.623047" xlink:href="#DejaVuSans-53"/>
       <use x="127.246094" xlink:href="#DejaVuSans-48"/>
      </g>
     </g>
    </g>
    <g id="text_7">
     <!-- # of games -->
     <defs>
      <path d="M 51.125 44 
L 36.921875 44 
L 32.8125 27.6875 
L 47.125 27.6875 
z
M 43.796875 71.78125 
L 38.71875 51.515625 
L 52.984375 51.515625 
L 58.109375 71.78125 
L 65.921875 71.78125 
L 60.890625 51.515625 
L 76.125 51.515625 
L 76.125 44 
L 58.984375 44 
L 54.984375 27.6875 
L 70.515625 27.6875 
L 70.515625 20.21875 
L 53.078125 20.21875 
L 48 0 
L 40.1875 0 
L 45.21875 20.21875 
L 30.90625 20.21875 
L 25.875 0 
L 18.015625 0 
L 23.09375 20.21875 
L 7.71875 20.21875 
L 7.71875 27.6875 
L 24.90625 27.6875 
L 29 44 
L 13.28125 44 
L 13.28125 51.515625 
L 30.90625 51.515625 
L 35.890625 71.78125 
z
" id="DejaVuSans-35"/>
      <path id="DejaVuSans-32"/>
      <path d="M 30.609375 48.390625 
Q 23.390625 48.390625 19.1875 42.75 
Q 14.984375 37.109375 14.984375 27.296875 
Q 14.984375 17.484375 19.15625 11.84375 
Q 23.34375 6.203125 30.609375 6.203125 
Q 37.796875 6.203125 41.984375 11.859375 
Q 46.1875 17.53125 46.1875 27.296875 
Q 46.1875 37.015625 41.984375 42.703125 
Q 37.796875 48.390625 30.609375 48.390625 
z
M 30.609375 56 
Q 42.328125 56 49.015625 48.375 
Q 55.71875 40.765625 55.71875 27.296875 
Q 55.71875 13.875 49.015625 6.21875 
Q 42.328125 -1.421875 30.609375 -1.421875 
Q 18.84375 -1.421875 12.171875 6.21875 
Q 5.515625 13.875 5.515625 27.296875 
Q 5.515625 40.765625 12.171875 48.375 
Q 18.84375 56 30.609375 56 
z
" id="DejaVuSans-111"/>
      <path d="M 37.109375 75.984375 
L 37.109375 68.5 
L 28.515625 68.5 
Q 23.6875 68.5 21.796875 66.546875 
Q 19.921875 64.59375 19.921875 59.515625 
L 19.921875 54.6875 
L 34.71875 54.6875 
L 34.71875 47.703125 
L 19.921875 47.703125 
L 19.921875 0 
L 10.890625 0 
L 10.890625 47.703125 
L 2.296875 47.703125 
L 2.296875 54.6875 
L 10.890625 54.6875 
L 10.890625 58.5 
Q 10.890625 67.625 15.140625 71.796875 
Q 19.390625 75.984375 28.609375 75.984375 
z
" id="DejaVuSans-102"/>
      <path d="M 45.40625 27.984375 
Q 45.40625 37.75 41.375 43.109375 
Q 37.359375 48.484375 30.078125 48.484375 
Q 22.859375 48.484375 18.828125 43.109375 
Q 14.796875 37.75 14.796875 27.984375 
Q 14.796875 18.265625 18.828125 12.890625 
Q 22.859375 7.515625 30.078125 7.515625 
Q 37.359375 7.515625 41.375 12.890625 
Q 45.40625 18.265625 45.40625 27.984375 
z
M 54.390625 6.78125 
Q 54.390625 -7.171875 48.1875 -13.984375 
Q 42 -20.796875 29.203125 -20.796875 
Q 24.46875 -20.796875 20.265625 -20.09375 
Q 16.0625 -19.390625 12.109375 -17.921875 
L 12.109375 -9.1875 
Q 16.0625 -11.328125 19.921875 -12.34375 
Q 23.78125 -13.375 27.78125 -13.375 
Q 36.625 -13.375 41.015625 -8.765625 
Q 45.40625 -4.15625 45.40625 5.171875 
L 45.40625 9.625 
Q 42.625 4.78125 38.28125 2.390625 
Q 33.9375 0 27.875 0 
Q 17.828125 0 11.671875 7.65625 
Q 5.515625 15.328125 5.515625 27.984375 
Q 5.515625 40.671875 11.671875 48.328125 
Q 17.828125 56 27.875 56 
Q 33.9375 56 38.28125 53.609375 
Q 42.625 51.21875 45.40625 46.390625 
L 45.40625 54.6875 
L 54.390625 54.6875 
z
" id="DejaVuSans-103"/>
      <path d="M 34.28125 27.484375 
Q 23.390625 27.484375 19.1875 25 
Q 14.984375 22.515625 14.984375 16.5 
Q 14.984375 11.71875 18.140625 8.90625 
Q 21.296875 6.109375 26.703125 6.109375 
Q 34.1875 6.109375 38.703125 11.40625 
Q 43.21875 16.703125 43.21875 25.484375 
L 43.21875 27.484375 
z
M 52.203125 31.203125 
L 52.203125 0 
L 43.21875 0 
L 43.21875 8.296875 
Q 40.140625 3.328125 35.546875 0.953125 
Q 30.953125 -1.421875 24.3125 -1.421875 
Q 15.921875 -1.421875 10.953125 3.296875 
Q 6 8.015625 6 15.921875 
Q 6 25.140625 12.171875 29.828125 
Q 18.359375 34.515625 30.609375 34.515625 
L 43.21875 34.515625 
L 43.21875 35.40625 
Q 43.21875 41.609375 39.140625 45 
Q 35.0625 48.390625 27.6875 48.390625 
Q 23 48.390625 18.546875 47.265625 
Q 14.109375 46.140625 10.015625 43.890625 
L 10.015625 52.203125 
Q 14.9375 54.109375 19.578125 55.046875 
Q 24.21875 56 28.609375 56 
Q 40.484375 56 46.34375 49.84375 
Q 52.203125 43.703125 52.203125 31.203125 
z
" id="DejaVuSans-97"/>
      <path d="M 52 44.1875 
Q 55.375 50.25 60.0625 53.125 
Q 64.75 56 71.09375 56 
Q 79.640625 56 84.28125 50.015625 
Q 88.921875 44.046875 88.921875 33.015625 
L 88.921875 0 
L 79.890625 0 
L 79.890625 32.71875 
Q 79.890625 40.578125 77.09375 44.375 
Q 74.3125 48.1875 68.609375 48.1875 
Q 61.625 48.1875 57.5625 43.546875 
Q 53.515625 38.921875 53.515625 30.90625 
L 53.515625 0 
L 44.484375 0 
L 44.484375 32.71875 
Q 44.484375 40.625 41.703125 44.40625 
Q 38.921875 48.1875 33.109375 48.1875 
Q 26.21875 48.1875 22.15625 43.53125 
Q 18.109375 38.875 18.109375 30.90625 
L 18.109375 0 
L 9.078125 0 
L 9.078125 54.6875 
L 18.109375 54.6875 
L 18.109375 46.1875 
Q 21.1875 51.21875 25.484375 53.609375 
Q 29.78125 56 35.6875 56 
Q 41.65625 56 45.828125 52.96875 
Q 50 49.953125 52 44.1875 
z
" id="DejaVuSans-109"/>
      <path d="M 56.203125 29.59375 
L 56.203125 25.203125 
L 14.890625 25.203125 
Q 15.484375 15.921875 20.484375 11.0625 
Q 25.484375 6.203125 34.421875 6.203125 
Q 39.59375 6.203125 44.453125 7.46875 
Q 49.3125 8.734375 54.109375 11.28125 
L 54.109375 2.78125 
Q 49.265625 0.734375 44.1875 -0.34375 
Q 39.109375 -1.421875 33.890625 -1.421875 
Q 20.796875 -1.421875 13.15625 6.1875 
Q 5.515625 13.8125 5.515625 26.8125 
Q 5.515625 40.234375 12.765625 48.109375 
Q 20.015625 56 32.328125 56 
Q 43.359375 56 49.78125 48.890625 
Q 56.203125 41.796875 56.203125 29.59375 
z
M 47.21875 32.234375 
Q 47.125 39.59375 43.09375 43.984375 
Q 39.0625 48.390625 32.421875 48.390625 
Q 24.90625 48.390625 20.390625 44.140625 
Q 15.875 39.890625 15.1875 32.171875 
z
" id="DejaVuSans-101"/>
      <path d="M 44.28125 53.078125 
L 44.28125 44.578125 
Q 40.484375 46.53125 36.375 47.5 
Q 32.28125 48.484375 27.875 48.484375 
Q 21.1875 48.484375 17.84375 46.4375 
Q 14.5 44.390625 14.5 40.28125 
Q 14.5 37.15625 16.890625 35.375 
Q 19.28125 33.59375 26.515625 31.984375 
L 29.59375 31.296875 
Q 39.15625 29.25 43.1875 25.515625 
Q 47.21875 21.78125 47.21875 15.09375 
Q 47.21875 7.46875 41.1875 3.015625 
Q 35.15625 -1.421875 24.609375 -1.421875 
Q 20.21875 -1.421875 15.453125 -0.5625 
Q 10.6875 0.296875 5.421875 2 
L 5.421875 11.28125 
Q 10.40625 8.6875 15.234375 7.390625 
Q 20.0625 6.109375 24.8125 6.109375 
Q 31.15625 6.109375 34.5625 8.28125 
Q 37.984375 10.453125 37.984375 14.40625 
Q 37.984375 18.0625 35.515625 20.015625 
Q 33.0625 21.96875 24.703125 23.78125 
L 21.578125 24.515625 
Q 13.234375 26.265625 9.515625 29.90625 
Q 5.8125 33.546875 5.8125 39.890625 
Q 5.8125 47.609375 11.28125 51.796875 
Q 16.75 56 26.8125 56 
Q 31.78125 56 36.171875 55.265625 
Q 40.578125 54.546875 44.28125 53.078125 
z
" id="DejaVuSans-115"/>
     </defs>
     <g transform="translate(218.460274 414.912344)scale(0.25 -0.25)">
      <use xlink:href="#DejaVuSans-35"/>
      <use x="83.789062" xlink:href="#DejaVuSans-32"/>
      <use x="115.576172" xlink:href="#DejaVuSans-111"/>
      <use x="176.757812" xlink:href="#DejaVuSans-102"/>
      <use x="211.962891" xlink:href="#DejaVuSans-32"/>
      <use x="243.75" xlink:href="#DejaVuSans-103"/>
      <use x="307.226562" xlink:href="#DejaVuSans-97"/>
      <use x="368.505859" xlink:href="#DejaVuSans-109"/>
      <use x="465.917969" xlink:href="#DejaVuSans-101"/>
      <use x="527.441406" xlink:href="#DejaVuSans-115"/>
     </g>
    </g>
   </g>
   <g id="matplotlib.axis_2">
    <g id="ytick_1">
     <g id="line2d_7">
      <defs>
       <path d="M 0 0 
L -3.5 0 
" id="m33ae6bf6d2" style="stroke:#000000;stroke-width:0.8;"/>
      </defs>
      <g>
       <use style="stroke:#000000;stroke-width:0.8;" x="70.13" xlink:href="#m33ae6bf6d2" y="351.970909"/>
      </g>
     </g>
     <g id="text_8">
      <!-- 0.0 -->
      <defs>
       <path d="M 10.6875 12.40625 
L 21 12.40625 
L 21 0 
L 10.6875 0 
z
" id="DejaVuSans-46"/>
      </defs>
      <g transform="translate(31.32375 359.569347)scale(0.2 -0.2)">
       <use xlink:href="#DejaVuSans-48"/>
       <use x="63.623047" xlink:href="#DejaVuSans-46"/>
       <use x="95.410156" xlink:href="#DejaVuSans-48"/>
      </g>
     </g>
    </g>
    <g id="ytick_2">
     <g id="line2d_8">
      <g>
       <use style="stroke:#000000;stroke-width:0.8;" x="70.13" xlink:href="#m33ae6bf6d2" y="297.614545"/>
      </g>
     </g>
     <g id="text_9">
      <!-- 0.2 -->
      <g transform="translate(31.32375 305.212983)scale(0.2 -0.2)">
       <use xlink:href="#DejaVuSans-48"/>
       <use x="63.623047" xlink:href="#DejaVuSans-46"/>
       <use x="95.410156" xlink:href="#DejaVuSans-50"/>
      </g>
     </g>
    </g>
    <g id="ytick_3">
     <g id="line2d_9">
      <g>
       <use style="stroke:#000000;stroke-width:0.8;" x="70.13" xlink:href="#m33ae6bf6d2" y="243.258182"/>
      </g>
     </g>
     <g id="text_10">
      <!-- 0.4 -->
      <defs>
       <path d="M 37.796875 64.3125 
L 12.890625 25.390625 
L 37.796875 25.390625 
z
M 35.203125 72.90625 
L 47.609375 72.90625 
L 47.609375 25.390625 
L 58.015625 25.390625 
L 58.015625 17.1875 
L 47.609375 17.1875 
L 47.609375 0 
L 37.796875 0 
L 37.796875 17.1875 
L 4.890625 17.1875 
L 4.890625 26.703125 
z
" id="DejaVuSans-52"/>
      </defs>
      <g transform="translate(31.32375 250.856619)scale(0.2 -0.2)">
       <use xlink:href="#DejaVuSans-48"/>
       <use x="63.623047" xlink:href="#DejaVuSans-46"/>
       <use x="95.410156" xlink:href="#DejaVuSans-52"/>
      </g>
     </g>
    </g>
    <g id="ytick_4">
     <g id="line2d_10">
      <g>
       <use style="stroke:#000000;stroke-width:0.8;" x="70.13" xlink:href="#m33ae6bf6d2" y="188.901818"/>
      </g>
     </g>
     <g id="text_11">
      <!-- 0.6 -->
      <defs>
       <path d="M 33.015625 40.375 
Q 26.375 40.375 22.484375 35.828125 
Q 18.609375 31.296875 18.609375 23.390625 
Q 18.609375 15.53125 22.484375 10.953125 
Q 26.375 6.390625 33.015625 6.390625 
Q 39.65625 6.390625 43.53125 10.953125 
Q 47.40625 15.53125 47.40625 23.390625 
Q 47.40625 31.296875 43.53125 35.828125 
Q 39.65625 40.375 33.015625 40.375 
z
M 52.59375 71.296875 
L 52.59375 62.3125 
Q 48.875 64.0625 45.09375 64.984375 
Q 41.3125 65.921875 37.59375 65.921875 
Q 27.828125 65.921875 22.671875 59.328125 
Q 17.53125 52.734375 16.796875 39.40625 
Q 19.671875 43.65625 24.015625 45.921875 
Q 28.375 48.1875 33.59375 48.1875 
Q 44.578125 48.1875 50.953125 41.515625 
Q 57.328125 34.859375 57.328125 23.390625 
Q 57.328125 12.15625 50.6875 5.359375 
Q 44.046875 -1.421875 33.015625 -1.421875 
Q 20.359375 -1.421875 13.671875 8.265625 
Q 6.984375 17.96875 6.984375 36.375 
Q 6.984375 53.65625 15.1875 63.9375 
Q 23.390625 74.21875 37.203125 74.21875 
Q 40.921875 74.21875 44.703125 73.484375 
Q 48.484375 72.75 52.59375 71.296875 
z
" id="DejaVuSans-54"/>
      </defs>
      <g transform="translate(31.32375 196.500256)scale(0.2 -0.2)">
       <use xlink:href="#DejaVuSans-48"/>
       <use x="63.623047" xlink:href="#DejaVuSans-46"/>
       <use x="95.410156" xlink:href="#DejaVuSans-54"/>
      </g>
     </g>
    </g>
    <g id="ytick_5">
     <g id="line2d_11">
      <g>
       <use style="stroke:#000000;stroke-width:0.8;" x="70.13" xlink:href="#m33ae6bf6d2" y="134.545455"/>
      </g>
     </g>
     <g id="text_12">
      <!-- 0.8 -->
      <defs>
       <path d="M 31.78125 34.625 
Q 24.75 34.625 20.71875 30.859375 
Q 16.703125 27.09375 16.703125 20.515625 
Q 16.703125 13.921875 20.71875 10.15625 
Q 24.75 6.390625 31.78125 6.390625 
Q 38.8125 6.390625 42.859375 10.171875 
Q 46.921875 13.96875 46.921875 20.515625 
Q 46.921875 27.09375 42.890625 30.859375 
Q 38.875 34.625 31.78125 34.625 
z
M 21.921875 38.8125 
Q 15.578125 40.375 12.03125 44.71875 
Q 8.5 49.078125 8.5 55.328125 
Q 8.5 64.0625 14.71875 69.140625 
Q 20.953125 74.21875 31.78125 74.21875 
Q 42.671875 74.21875 48.875 69.140625 
Q 55.078125 64.0625 55.078125 55.328125 
Q 55.078125 49.078125 51.53125 44.71875 
Q 48 40.375 41.703125 38.8125 
Q 48.828125 37.15625 52.796875 32.3125 
Q 56.78125 27.484375 56.78125 20.515625 
Q 56.78125 9.90625 50.3125 4.234375 
Q 43.84375 -1.421875 31.78125 -1.421875 
Q 19.734375 -1.421875 13.25 4.234375 
Q 6.78125 9.90625 6.78125 20.515625 
Q 6.78125 27.484375 10.78125 32.3125 
Q 14.796875 37.15625 21.921875 38.8125 
z
M 18.3125 54.390625 
Q 18.3125 48.734375 21.84375 45.5625 
Q 25.390625 42.390625 31.78125 42.390625 
Q 38.140625 42.390625 41.71875 45.5625 
Q 45.3125 48.734375 45.3125 54.390625 
Q 45.3125 60.0625 41.71875 63.234375 
Q 38.140625 66.40625 31.78125 66.40625 
Q 25.390625 66.40625 21.84375 63.234375 
Q 18.3125 60.0625 18.3125 54.390625 
z
" id="DejaVuSans-56"/>
      </defs>
      <g transform="translate(31.32375 142.143892)scale(0.2 -0.2)">
       <use xlink:href="#DejaVuSans-48"/>
       <use x="63.623047" xlink:href="#DejaVuSans-46"/>
       <use x="95.410156" xlink:href="#DejaVuSans-56"/>
      </g>
     </g>
    </g>
    <g id="ytick_6">
     <g id="line2d_12">
      <g>
       <use style="stroke:#000000;stroke-width:0.8;" x="70.13" xlink:href="#m33ae6bf6d2" y="80.189091"/>
      </g>
     </g>
     <g id="text_13">
      <!-- 1.0 -->
      <g transform="translate(31.32375 87.787528)scale(0.2 -0.2)">
       <use xlink:href="#DejaVuSans-49"/>
       <use x="63.623047" xlink:href="#DejaVuSans-46"/>
       <use x="95.410156" xlink:href="#DejaVuSans-48"/>
      </g>
     </g>
    </g>
    <g id="text_14">
     <!-- Percentage of Def strategy used -->
     <defs>
      <path d="M 19.671875 64.796875 
L 19.671875 37.40625 
L 32.078125 37.40625 
Q 38.96875 37.40625 42.71875 40.96875 
Q 46.484375 44.53125 46.484375 51.125 
Q 46.484375 57.671875 42.71875 61.234375 
Q 38.96875 64.796875 32.078125 64.796875 
z
M 9.8125 72.90625 
L 32.078125 72.90625 
Q 44.34375 72.90625 50.609375 67.359375 
Q 56.890625 61.8125 56.890625 51.125 
Q 56.890625 40.328125 50.609375 34.8125 
Q 44.34375 29.296875 32.078125 29.296875 
L 19.671875 29.296875 
L 19.671875 0 
L 9.8125 0 
z
" id="DejaVuSans-80"/>
      <path d="M 41.109375 46.296875 
Q 39.59375 47.171875 37.8125 47.578125 
Q 36.03125 48 33.890625 48 
Q 26.265625 48 22.1875 43.046875 
Q 18.109375 38.09375 18.109375 28.8125 
L 18.109375 0 
L 9.078125 0 
L 9.078125 54.6875 
L 18.109375 54.6875 
L 18.109375 46.1875 
Q 20.953125 51.171875 25.484375 53.578125 
Q 30.03125 56 36.53125 56 
Q 37.453125 56 38.578125 55.875 
Q 39.703125 55.765625 41.0625 55.515625 
z
" id="DejaVuSans-114"/>
      <path d="M 48.78125 52.59375 
L 48.78125 44.1875 
Q 44.96875 46.296875 41.140625 47.34375 
Q 37.3125 48.390625 33.40625 48.390625 
Q 24.65625 48.390625 19.8125 42.84375 
Q 14.984375 37.3125 14.984375 27.296875 
Q 14.984375 17.28125 19.8125 11.734375 
Q 24.65625 6.203125 33.40625 6.203125 
Q 37.3125 6.203125 41.140625 7.25 
Q 44.96875 8.296875 48.78125 10.40625 
L 48.78125 2.09375 
Q 45.015625 0.34375 40.984375 -0.53125 
Q 36.96875 -1.421875 32.421875 -1.421875 
Q 20.0625 -1.421875 12.78125 6.34375 
Q 5.515625 14.109375 5.515625 27.296875 
Q 5.515625 40.671875 12.859375 48.328125 
Q 20.21875 56 33.015625 56 
Q 37.15625 56 41.109375 55.140625 
Q 45.0625 54.296875 48.78125 52.59375 
z
" id="DejaVuSans-99"/>
      <path d="M 54.890625 33.015625 
L 54.890625 0 
L 45.90625 0 
L 45.90625 32.71875 
Q 45.90625 40.484375 42.875 44.328125 
Q 39.84375 48.1875 33.796875 48.1875 
Q 26.515625 48.1875 22.3125 43.546875 
Q 18.109375 38.921875 18.109375 30.90625 
L 18.109375 0 
L 9.078125 0 
L 9.078125 54.6875 
L 18.109375 54.6875 
L 18.109375 46.1875 
Q 21.34375 51.125 25.703125 53.5625 
Q 30.078125 56 35.796875 56 
Q 45.21875 56 50.046875 50.171875 
Q 54.890625 44.34375 54.890625 33.015625 
z
" id="DejaVuSans-110"/>
      <path d="M 18.3125 70.21875 
L 18.3125 54.6875 
L 36.8125 54.6875 
L 36.8125 47.703125 
L 18.3125 47.703125 
L 18.3125 18.015625 
Q 18.3125 11.328125 20.140625 9.421875 
Q 21.96875 7.515625 27.59375 7.515625 
L 36.8125 7.515625 
L 36.8125 0 
L 27.59375 0 
Q 17.1875 0 13.234375 3.875 
Q 9.28125 7.765625 9.28125 18.015625 
L 9.28125 47.703125 
L 2.6875 47.703125 
L 2.6875 54.6875 
L 9.28125 54.6875 
L 9.28125 70.21875 
z
" id="DejaVuSans-116"/>
      <path d="M 19.671875 64.796875 
L 19.671875 8.109375 
L 31.59375 8.109375 
Q 46.6875 8.109375 53.6875 14.9375 
Q 60.6875 21.78125 60.6875 36.53125 
Q 60.6875 51.171875 53.6875 57.984375 
Q 46.6875 64.796875 31.59375 64.796875 
z
M 9.8125 72.90625 
L 30.078125 72.90625 
Q 51.265625 72.90625 61.171875 64.09375 
Q 71.09375 55.28125 71.09375 36.53125 
Q 71.09375 17.671875 61.125 8.828125 
Q 51.171875 0 30.078125 0 
L 9.8125 0 
z
" id="DejaVuSans-68"/>
      <path d="M 32.171875 -5.078125 
Q 28.375 -14.84375 24.75 -17.8125 
Q 21.140625 -20.796875 15.09375 -20.796875 
L 7.90625 -20.796875 
L 7.90625 -13.28125 
L 13.1875 -13.28125 
Q 16.890625 -13.28125 18.9375 -11.515625 
Q 21 -9.765625 23.484375 -3.21875 
L 25.09375 0.875 
L 2.984375 54.6875 
L 12.5 54.6875 
L 29.59375 11.921875 
L 46.6875 54.6875 
L 56.203125 54.6875 
z
" id="DejaVuSans-121"/>
      <path d="M 8.5 21.578125 
L 8.5 54.6875 
L 17.484375 54.6875 
L 17.484375 21.921875 
Q 17.484375 14.15625 20.5 10.265625 
Q 23.53125 6.390625 29.59375 6.390625 
Q 36.859375 6.390625 41.078125 11.03125 
Q 45.3125 15.671875 45.3125 23.6875 
L 45.3125 54.6875 
L 54.296875 54.6875 
L 54.296875 0 
L 45.3125 0 
L 45.3125 8.40625 
Q 42.046875 3.421875 37.71875 1 
Q 33.40625 -1.421875 27.6875 -1.421875 
Q 18.265625 -1.421875 13.375 4.4375 
Q 8.5 10.296875 8.5 21.578125 
z
M 31.109375 56 
z
" id="DejaVuSans-117"/>
      <path d="M 45.40625 46.390625 
L 45.40625 75.984375 
L 54.390625 75.984375 
L 54.390625 0 
L 45.40625 0 
L 45.40625 8.203125 
Q 42.578125 3.328125 38.25 0.953125 
Q 33.9375 -1.421875 27.875 -1.421875 
Q 17.96875 -1.421875 11.734375 6.484375 
Q 5.515625 14.40625 5.515625 27.296875 
Q 5.515625 40.1875 11.734375 48.09375 
Q 17.96875 56 27.875 56 
Q 33.9375 56 38.25 53.625 
Q 42.578125 51.265625 45.40625 46.390625 
z
M 14.796875 27.296875 
Q 14.796875 17.390625 18.875 11.75 
Q 22.953125 6.109375 30.078125 6.109375 
Q 37.203125 6.109375 41.296875 11.75 
Q 45.40625 17.390625 45.40625 27.296875 
Q 45.40625 37.203125 41.296875 42.84375 
Q 37.203125 48.484375 30.078125 48.484375 
Q 22.953125 48.484375 18.875 42.84375 
Q 14.796875 37.203125 14.796875 27.296875 
z
" id="DejaVuSans-100"/>
     </defs>
     <g transform="translate(23.857604 351.33651)rotate(-90)scale(0.166667 -0.166667)">
      <use xlink:href="#DejaVuSans-80"/>
      <use x="60.255859" xlink:href="#DejaVuSans-101"/>
      <use x="121.779297" xlink:href="#DejaVuSans-114"/>
      <use x="162.861328" xlink:href="#DejaVuSans-99"/>
      <use x="217.841797" xlink:href="#DejaVuSans-101"/>
      <use x="279.365234" xlink:href="#DejaVuSans-110"/>
      <use x="342.744141" xlink:href="#DejaVuSans-116"/>
      <use x="381.953125" xlink:href="#DejaVuSans-97"/>
      <use x="443.232422" xlink:href="#DejaVuSans-103"/>
      <use x="506.708984" xlink:href="#DejaVuSans-101"/>
      <use x="568.232422" xlink:href="#DejaVuSans-32"/>
      <use x="600.019531" xlink:href="#DejaVuSans-111"/>
      <use x="661.201172" xlink:href="#DejaVuSans-102"/>
      <use x="696.40625" xlink:href="#DejaVuSans-32"/>
      <use x="728.193359" xlink:href="#DejaVuSans-68"/>
      <use x="805.195312" xlink:href="#DejaVuSans-101"/>
      <use x="866.71875" xlink:href="#DejaVuSans-102"/>
      <use x="901.923828" xlink:href="#DejaVuSans-32"/>
      <use x="933.710938" xlink:href="#DejaVuSans-115"/>
      <use x="985.810547" xlink:href="#DejaVuSans-116"/>
      <use x="1025.019531" xlink:href="#DejaVuSans-114"/>
      <use x="1066.132812" xlink:href="#DejaVuSans-97"/>
      <use x="1127.412109" xlink:href="#DejaVuSans-116"/>
      <use x="1166.621094" xlink:href="#DejaVuSans-101"/>
      <use x="1228.144531" xlink:href="#DejaVuSans-103"/>
      <use x="1291.621094" xlink:href="#DejaVuSans-121"/>
      <use x="1350.800781" xlink:href="#DejaVuSans-32"/>
      <use x="1382.587891" xlink:href="#DejaVuSans-117"/>
      <use x="1445.966797" xlink:href="#DejaVuSans-115"/>
      <use x="1498.066406" xlink:href="#DejaVuSans-101"/>
      <use x="1559.589844" xlink:href="#DejaVuSans-100"/>
     </g>
    </g>
   </g>
   <g id="line2d_13">
    <path clip-path="url(#p71982bcc7d)" d="M 90.20033 172.594909 
L 91.879856 161.723636 
L 93.559381 216.08 
L 95.238907 210.644364 
L 96.918433 248.693818 
L 98.597958 254.129455 
L 100.277484 254.129455 
L 101.957009 270.436364 
L 103.636535 281.307636 
L 105.31606 297.614545 
L 106.995586 308.485818 
L 110.354637 286.743273 
L 112.034162 324.238071 
L 113.713688 318.691503 
L 115.393214 318.691503 
L 117.072739 335.331206 
L 120.43179 302.0518 
L 122.111316 329.784638 
L 123.790841 317.275358 
L 125.470367 323.05795 
L 127.149892 316.521107 
L 128.829418 345.931313 
L 130.508944 327.812525 
L 132.188469 321.772929 
L 133.867995 321.772929 
L 135.54752 333.852121 
L 137.227046 339.891717 
L 138.906571 339.891717 
L 140.586097 326.688879 
L 142.265622 326.086926 
L 143.945148 326.086926 
L 145.624673 332.557922 
L 147.304199 313.144935 
L 148.983725 332.557922 
L 154.022301 313.144935 
L 155.701827 297.614545 
L 157.381352 296.220793 
L 159.060878 289.252028 
L 160.740403 301.905837 
L 162.419929 293.207273 
L 164.099455 314.223434 
L 165.77898 299.124444 
L 172.497082 329.322424 
L 175.856133 314.223434 
L 177.535659 320.91013 
L 179.215184 320.91013 
L 180.89471 328.675325 
L 182.574236 343.735096 
L 184.253761 342.911515 
L 185.933287 333.852121 
L 187.612812 333.852121 
L 189.292338 342.599122 
L 190.971863 333.227335 
L 192.651389 332.557922 
L 194.330914 332.557922 
L 196.01044 341.904916 
L 197.689966 341.904916 
L 199.369491 351.970909 
L 202.728542 331.838923 
L 204.408068 331.064615 
L 206.087593 319.357091 
L 207.767119 341.099636 
L 209.446644 329.322424 
L 211.12617 351.970909 
L 212.805695 351.970909 
L 214.485221 340.154308 
L 216.164747 314.909752 
L 217.844272 326.086926 
L 219.523798 313.144935 
L 221.203323 326.086926 
L 222.882849 326.086926 
L 224.562374 338.381818 
L 226.2419 336.871919 
L 227.921425 336.871919 
L 229.600951 319.996578 
L 231.280476 315.733333 
L 232.960002 297.614545 
L 234.639528 297.614545 
L 236.319053 293.731948 
L 237.998579 293.731948 
L 239.678104 351.970909 
L 241.35763 293.731948 
L 243.037155 331.064615 
L 244.716681 306.673939 
L 246.396206 327.263471 
L 248.075732 351.970909 
L 254.793834 351.970909 
L 256.47336 321.772929 
L 258.152885 351.970909 
L 259.832411 321.772929 
L 261.511936 321.772929 
L 263.191462 291.574949 
L 264.870987 321.772929 
L 268.230039 261.37697 
L 269.909564 291.574949 
L 271.58909 261.37697 
L 273.268615 261.37697 
L 274.948141 291.574949 
L 276.627666 351.970909 
L 278.307192 317.998182 
L 279.986717 317.998182 
L 281.666243 351.970909 
L 311.897703 351.970909 
L 313.577228 313.144935 
L 316.93628 313.144935 
L 318.615805 351.970909 
L 320.295331 351.970909 
L 321.974856 297.614545 
L 323.654382 351.970909 
L 325.333907 297.614545 
L 327.013433 297.614545 
L 328.692958 351.970909 
L 347.167739 351.970909 
L 348.847265 261.37697 
L 350.526791 261.37697 
L 352.206316 351.970909 
L 434.503068 351.970909 
L 436.182594 80.189091 
L 444.580221 80.189091 
L 446.259747 351.970909 
L 447.939272 80.189091 
L 456.3369 80.189091 
L 458.016426 351.970909 
L 459.695951 351.970909 
L 461.375477 80.189091 
L 464.734528 80.189091 
L 466.414053 351.970909 
L 491.606937 351.970909 
L 491.606937 351.970909 
" style="fill:none;stroke:#1f77b4;stroke-linecap:square;stroke-width:1.5;"/>
   </g>
   <g id="line2d_14">
    <path clip-path="url(#p71982bcc7d)" d="M 90.20033 351.970909 
L 91.879856 346.535273 
L 93.559381 324.792727 
L 96.918433 313.921455 
L 98.597958 286.743273 
L 100.277484 297.614545 
L 101.957009 286.743273 
L 105.31606 308.485818 
L 106.995586 281.307636 
L 108.675111 292.178909 
L 110.354637 308.485818 
L 112.034162 285.412096 
L 113.713688 307.598367 
L 115.393214 274.318961 
L 117.072739 296.505232 
L 118.752265 296.505232 
L 120.43179 307.598367 
L 122.111316 313.144935 
L 123.790841 299.927582 
L 125.470367 282.579807 
L 127.149892 298.796206 
L 128.829418 303.654141 
L 130.508944 297.614545 
L 132.188469 333.852121 
L 133.867995 297.614545 
L 137.227046 273.456162 
L 138.906571 297.614545 
L 140.586097 314.047865 
L 142.265622 287.260952 
L 143.945148 306.673939 
L 145.624673 293.731948 
L 147.304199 326.086926 
L 148.983725 300.202944 
L 150.66325 306.673939 
L 152.342776 287.260952 
L 154.022301 306.673939 
L 155.701827 311.203636 
L 157.381352 338.03338 
L 159.060878 317.127086 
L 160.740403 316.210144 
L 162.419929 322.589091 
L 164.099455 261.37697 
L 165.77898 314.223434 
L 167.458506 314.223434 
L 169.138031 291.574949 
L 170.817557 291.574949 
L 172.497082 276.47596 
L 174.176608 284.025455 
L 175.856133 299.124444 
L 177.535659 282.084156 
L 179.215184 289.849351 
L 180.89471 289.849351 
L 182.574236 327.263471 
L 184.253761 288.555152 
L 185.933287 315.733333 
L 187.612812 306.673939 
L 189.292338 276.996614 
L 190.971863 323.855549 
L 192.651389 303.438442 
L 194.330914 293.731948 
L 196.01044 321.772929 
L 199.369491 301.640943 
L 201.049017 281.508956 
L 202.728542 311.706936 
L 204.408068 320.611469 
L 206.087593 330.228364 
L 207.767119 297.614545 
L 209.446644 306.673939 
L 211.12617 329.322424 
L 212.805695 292.887905 
L 214.485221 281.071304 
L 216.164747 290.202314 
L 217.844272 300.202944 
L 219.523798 261.37697 
L 221.203323 351.970909 
L 222.882849 313.144935 
L 224.562374 270.436364 
L 226.2419 291.574949 
L 227.921425 276.47596 
L 229.600951 319.996578 
L 231.280476 261.37697 
L 232.960002 315.733333 
L 234.639528 297.614545 
L 236.319053 313.144935 
L 237.998579 332.557922 
L 239.678104 274.318961 
L 241.35763 293.731948 
L 243.037155 331.064615 
L 244.716681 351.970909 
L 246.396206 327.263471 
L 248.075732 277.848595 
L 249.755258 302.556033 
L 251.434783 270.436364 
L 254.793834 324.792727 
L 256.47336 261.37697 
L 258.152885 291.574949 
L 259.832411 351.970909 
L 261.511936 261.37697 
L 263.191462 321.772929 
L 264.870987 351.970909 
L 266.550513 261.37697 
L 268.230039 261.37697 
L 269.909564 351.970909 
L 271.58909 261.37697 
L 273.268615 321.772929 
L 274.948141 351.970909 
L 276.627666 284.025455 
L 278.307192 317.998182 
L 279.986717 317.998182 
L 281.666243 250.052727 
L 283.345769 250.052727 
L 286.70482 317.998182 
L 288.384345 250.052727 
L 290.063871 313.144935 
L 291.743396 274.318961 
L 293.422922 274.318961 
L 295.102447 351.970909 
L 298.461498 351.970909 
L 300.141024 235.492987 
L 301.82055 313.144935 
L 303.500075 351.970909 
L 306.859126 351.970909 
L 308.538652 313.144935 
L 310.218177 313.144935 
L 311.897703 351.970909 
L 313.577228 274.318961 
L 315.256754 351.970909 
L 316.93628 313.144935 
L 318.615805 351.970909 
L 323.654382 351.970909 
L 325.333907 297.614545 
L 327.013433 297.614545 
L 328.692958 351.970909 
L 330.372484 297.614545 
L 332.052009 351.970909 
L 335.411061 216.08 
L 337.090586 284.025455 
L 340.449637 284.025455 
L 342.129163 216.08 
L 343.808688 351.970909 
L 345.488214 261.37697 
L 347.167739 351.970909 
L 348.847265 351.970909 
L 350.526791 261.37697 
L 353.885842 261.37697 
L 355.565367 80.189091 
L 357.244893 351.970909 
L 358.924418 351.970909 
L 360.603944 170.78303 
L 362.283469 351.970909 
L 363.962995 351.970909 
L 365.64252 170.78303 
L 369.001572 351.970909 
L 375.719674 351.970909 
L 377.399199 216.08 
L 379.078725 351.970909 
L 382.437776 351.970909 
L 384.117302 216.08 
L 385.796827 351.970909 
L 407.630659 351.970909 
L 409.310185 80.189091 
L 410.98971 351.970909 
L 419.387338 351.970909 
L 421.066864 80.189091 
L 422.746389 351.970909 
L 426.10544 351.970909 
L 427.784966 80.189091 
L 429.464491 351.970909 
L 468.093579 351.970909 
L 469.773105 80.189091 
L 473.132156 80.189091 
L 474.811681 351.970909 
L 476.491207 80.189091 
L 478.170732 351.970909 
L 479.850258 80.189091 
L 481.529783 351.970909 
L 491.606937 351.970909 
L 491.606937 351.970909 
" style="fill:none;stroke:#ff7f0e;stroke-linecap:square;stroke-width:1.5;"/>
   </g>
   <g id="line2d_15">
    <path clip-path="url(#p71982bcc7d)" d="M 90.20033 351.970909 
L 95.238907 351.970909 
L 96.918433 341.099636 
L 98.597958 341.099636 
L 100.277484 324.792727 
L 101.957009 341.099636 
L 103.636535 335.664 
L 105.31606 341.099636 
L 106.995586 297.614545 
L 108.675111 324.792727 
L 110.354637 308.485818 
L 112.034162 329.784638 
L 113.713688 307.598367 
L 115.393214 307.598367 
L 117.072739 335.331206 
L 118.752265 307.598367 
L 120.43179 329.784638 
L 122.111316 318.691503 
L 123.790841 317.275358 
L 125.470367 317.275358 
L 127.149892 328.337708 
L 128.829418 321.772929 
L 130.508944 297.614545 
L 132.188469 315.733333 
L 133.867995 315.733333 
L 135.54752 309.693737 
L 137.227046 321.772929 
L 138.906571 327.812525 
L 140.586097 314.047865 
L 142.265622 319.615931 
L 143.945148 326.086926 
L 145.624673 293.731948 
L 147.304199 293.731948 
L 148.983725 313.144935 
L 152.342776 313.144935 
L 154.022301 339.028918 
L 155.701827 311.203636 
L 157.381352 324.095851 
L 159.060878 303.189557 
L 160.740403 309.05799 
L 162.419929 329.934545 
L 164.099455 329.322424 
L 165.77898 321.772929 
L 167.458506 329.322424 
L 169.138031 321.772929 
L 170.817557 321.772929 
L 172.497082 336.871919 
L 174.176608 329.322424 
L 175.856133 336.871919 
L 177.535659 320.91013 
L 179.215184 313.144935 
L 180.89471 313.144935 
L 184.253761 324.792727 
L 185.933287 297.614545 
L 187.612812 306.673939 
L 189.292338 286.368401 
L 190.971863 276.996614 
L 192.651389 313.144935 
L 194.330914 332.557922 
L 197.689966 311.706936 
L 199.369491 331.838923 
L 201.049017 311.706936 
L 202.728542 321.772929 
L 204.408068 299.705175 
L 206.087593 254.129455 
L 207.767119 341.099636 
L 209.446644 340.646667 
L 211.12617 317.998182 
L 212.805695 316.521107 
L 214.485221 316.521107 
L 216.164747 327.263471 
L 217.844272 339.028918 
L 219.523798 326.086926 
L 221.203323 326.086926 
L 222.882849 287.260952 
L 224.562374 324.792727 
L 226.2419 306.673939 
L 227.921425 336.871919 
L 229.600951 319.996578 
L 231.280476 333.852121 
L 232.960002 351.970909 
L 234.639528 333.852121 
L 236.319053 351.970909 
L 237.998579 313.144935 
L 241.35763 351.970909 
L 243.037155 289.252028 
L 244.716681 284.025455 
L 246.396206 351.970909 
L 248.075732 302.556033 
L 249.755258 302.556033 
L 251.434783 351.970909 
L 253.114309 297.614545 
L 256.47336 351.970909 
L 258.152885 351.970909 
L 261.511936 291.574949 
L 263.191462 321.772929 
L 268.230039 321.772929 
L 269.909564 351.970909 
L 273.268615 351.970909 
L 274.948141 261.37697 
L 276.627666 317.998182 
L 278.307192 351.970909 
L 279.986717 250.052727 
L 281.666243 317.998182 
L 283.345769 351.970909 
L 286.70482 284.025455 
L 288.384345 284.025455 
L 290.063871 313.144935 
L 291.743396 313.144935 
L 293.422922 351.970909 
L 295.102447 351.970909 
L 296.781973 274.318961 
L 300.141024 351.970909 
L 303.500075 274.318961 
L 305.179601 351.970909 
L 306.859126 274.318961 
L 308.538652 274.318961 
L 310.218177 313.144935 
L 313.577228 313.144935 
L 315.256754 274.318961 
L 316.93628 351.970909 
L 318.615805 351.970909 
L 320.295331 297.614545 
L 321.974856 297.614545 
L 323.654382 351.970909 
L 325.333907 297.614545 
L 328.692958 297.614545 
L 330.372484 351.970909 
L 332.052009 284.025455 
L 335.411061 284.025455 
L 337.090586 351.970909 
L 338.770112 284.025455 
L 340.449637 284.025455 
L 342.129163 351.970909 
L 348.847265 351.970909 
L 350.526791 261.37697 
L 352.206316 351.970909 
L 353.885842 261.37697 
L 355.565367 351.970909 
L 357.244893 351.970909 
L 358.924418 261.37697 
L 360.603944 351.970909 
L 362.283469 261.37697 
L 363.962995 351.970909 
L 369.001572 351.970909 
L 370.681097 216.08 
L 372.360623 216.08 
L 374.040148 351.970909 
L 375.719674 216.08 
L 377.399199 351.970909 
L 379.078725 351.970909 
L 380.75825 216.08 
L 382.437776 351.970909 
L 390.835404 351.970909 
L 392.514929 80.189091 
L 394.194455 351.970909 
L 399.233031 351.970909 
L 400.912557 80.189091 
L 402.592083 351.970909 
L 405.951134 351.970909 
L 407.630659 80.189091 
L 409.310185 351.970909 
L 410.98971 80.189091 
L 412.669236 351.970909 
L 427.784966 351.970909 
L 429.464491 80.189091 
L 431.144017 351.970909 
L 432.823542 80.189091 
L 434.503068 351.970909 
L 473.132156 351.970909 
L 474.811681 80.189091 
L 476.491207 351.970909 
L 479.850258 351.970909 
L 481.529783 80.189091 
L 483.209309 351.970909 
L 486.56836 351.970909 
L 488.247886 80.189091 
L 489.927411 351.970909 
L 491.606937 351.970909 
L 491.606937 351.970909 
" style="fill:none;stroke:#2ca02c;stroke-linecap:square;stroke-width:1.5;"/>
   </g>
   <g id="line2d_16">
    <path clip-path="url(#p71982bcc7d)" d="M 90.20033 351.970909 
L 93.559381 351.970909 
L 95.238907 346.535273 
L 96.918433 351.970909 
L 98.597958 341.099636 
L 100.277484 351.970909 
L 103.636535 341.099636 
L 105.31606 346.535273 
L 106.995586 346.535273 
L 108.675111 351.970909 
L 112.034162 340.877774 
L 113.713688 346.424341 
L 115.393214 346.424341 
L 117.072739 340.877774 
L 118.752265 351.970909 
L 122.111316 329.784638 
L 123.790841 351.970909 
L 125.470367 334.623133 
L 127.149892 334.246008 
L 128.829418 351.970909 
L 137.227046 351.970909 
L 138.906571 321.772929 
L 140.586097 339.329894 
L 143.945148 351.970909 
L 145.624673 351.970909 
L 147.304199 339.028918 
L 148.983725 339.028918 
L 150.66325 351.970909 
L 152.342776 351.970909 
L 154.022301 339.028918 
L 155.701827 331.587273 
L 157.381352 351.970909 
L 159.060878 338.03338 
L 160.740403 337.666603 
L 164.099455 351.970909 
L 165.77898 351.970909 
L 167.458506 344.421414 
L 169.138031 351.970909 
L 170.817557 351.970909 
L 172.497082 329.322424 
L 174.176608 351.970909 
L 175.856133 344.421414 
L 177.535659 344.205714 
L 179.215184 351.970909 
L 180.89471 336.440519 
L 182.574236 319.027658 
L 184.253761 351.970909 
L 185.933287 351.970909 
L 187.612812 342.911515 
L 189.292338 351.970909 
L 190.971863 342.599122 
L 192.651389 351.970909 
L 194.330914 342.264416 
L 196.01044 351.970909 
L 197.689966 341.904916 
L 199.369491 351.970909 
L 201.049017 331.838923 
L 202.728542 341.904916 
L 204.408068 341.517762 
L 206.087593 351.970909 
L 207.767119 341.099636 
L 209.446644 351.970909 
L 211.12617 340.646667 
L 212.805695 351.970909 
L 214.485221 340.154308 
L 216.164747 339.61719 
L 217.844272 351.970909 
L 221.203323 351.970909 
L 222.882849 326.086926 
L 224.562374 324.792727 
L 226.2419 351.970909 
L 227.921425 336.871919 
L 229.600951 319.996578 
L 231.280476 333.852121 
L 232.960002 315.733333 
L 236.319053 351.970909 
L 237.998579 351.970909 
L 239.678104 332.557922 
L 241.35763 332.557922 
L 243.037155 331.064615 
L 244.716681 306.673939 
L 246.396206 351.970909 
L 248.075732 351.970909 
L 249.755258 327.263471 
L 251.434783 351.970909 
L 253.114309 351.970909 
L 254.793834 324.792727 
L 256.47336 351.970909 
L 269.909564 351.970909 
L 271.58909 321.772929 
L 273.268615 351.970909 
L 274.948141 321.772929 
L 276.627666 351.970909 
L 286.70482 351.970909 
L 288.384345 317.998182 
L 290.063871 351.970909 
L 296.781973 351.970909 
L 298.461498 313.144935 
L 300.141024 351.970909 
L 313.577228 351.970909 
L 315.256754 313.144935 
L 316.93628 313.144935 
L 318.615805 306.673939 
L 320.295331 351.970909 
L 328.692958 351.970909 
L 330.372484 297.614545 
L 332.052009 351.970909 
L 342.129163 351.970909 
L 343.808688 284.025455 
L 345.488214 351.970909 
L 367.322046 351.970909 
L 369.001572 261.37697 
L 370.681097 351.970909 
L 382.437776 351.970909 
L 384.117302 216.08 
L 385.796827 351.970909 
L 489.927411 351.970909 
L 491.606937 80.189091 
L 491.606937 80.189091 
" style="fill:none;stroke:#d62728;stroke-linecap:square;stroke-width:1.5;"/>
   </g>
   <g id="line2d_17">
    <path clip-path="url(#p71982bcc7d)" d="M 90.20033 351.970909 
L 96.918433 351.970909 
L 98.597958 346.535273 
L 100.277484 351.970909 
L 103.636535 351.970909 
L 105.31606 341.099636 
L 106.995586 351.970909 
L 108.675111 341.099636 
L 112.034162 351.970909 
L 113.713688 346.424341 
L 115.393214 346.424341 
L 117.072739 351.970909 
L 118.752265 351.970909 
L 120.43179 346.424341 
L 122.111316 346.424341 
L 123.790841 340.405725 
L 125.470367 340.405725 
L 128.829418 327.812525 
L 130.508944 345.931313 
L 132.188469 351.970909 
L 135.54752 351.970909 
L 138.906571 339.891717 
L 140.586097 339.329894 
L 142.265622 351.970909 
L 143.945148 345.499913 
L 145.624673 345.499913 
L 147.304199 339.028918 
L 148.983725 351.970909 
L 150.66325 339.028918 
L 154.022301 351.970909 
L 159.060878 351.970909 
L 160.740403 344.818756 
L 162.419929 344.625455 
L 164.099455 351.970909 
L 165.77898 344.421414 
L 170.817557 344.421414 
L 172.497082 336.871919 
L 174.176608 344.421414 
L 175.856133 344.421414 
L 177.535659 351.970909 
L 179.215184 336.440519 
L 182.574236 351.970909 
L 185.933287 351.970909 
L 187.612812 342.911515 
L 189.292338 351.970909 
L 190.971863 314.483762 
L 192.651389 342.264416 
L 194.330914 351.970909 
L 196.01044 341.904916 
L 197.689966 351.970909 
L 201.049017 331.838923 
L 204.408068 351.970909 
L 206.087593 341.099636 
L 207.767119 341.099636 
L 209.446644 329.322424 
L 211.12617 329.322424 
L 212.805695 351.970909 
L 219.523798 351.970909 
L 221.203323 339.028918 
L 222.882849 351.970909 
L 224.562374 338.381818 
L 226.2419 351.970909 
L 227.921425 276.47596 
L 229.600951 335.983743 
L 231.280476 333.852121 
L 234.639528 333.852121 
L 236.319053 332.557922 
L 237.998579 351.970909 
L 243.037155 351.970909 
L 244.716681 329.322424 
L 246.396206 327.263471 
L 248.075732 351.970909 
L 249.755258 351.970909 
L 251.434783 324.792727 
L 253.114309 351.970909 
L 254.793834 351.970909 
L 256.47336 321.772929 
L 258.152885 321.772929 
L 259.832411 351.970909 
L 281.666243 351.970909 
L 283.345769 317.998182 
L 285.025294 351.970909 
L 310.218177 351.970909 
L 311.897703 313.144935 
L 313.577228 351.970909 
L 491.606937 351.970909 
L 491.606937 351.970909 
" style="fill:none;stroke:#9467bd;stroke-linecap:square;stroke-width:1.5;"/>
   </g>
   <g id="line2d_18">
    <path clip-path="url(#p71982bcc7d)" d="M 90.20033 351.970909 
L 95.238907 351.970909 
L 96.918433 341.099636 
L 98.597958 351.970909 
L 100.277484 335.664 
L 101.957009 341.099636 
L 103.636535 341.099636 
L 105.31606 330.228364 
L 106.995586 341.099636 
L 108.675111 335.664 
L 110.354637 313.921455 
L 112.034162 318.691503 
L 113.713688 313.144935 
L 115.393214 329.784638 
L 117.072739 313.144935 
L 120.43179 302.0518 
L 122.111316 307.598367 
L 123.790841 271.014623 
L 125.470367 323.05795 
L 127.149892 316.521107 
L 128.829418 303.654141 
L 130.508944 315.733333 
L 132.188469 309.693737 
L 133.867995 315.733333 
L 135.54752 285.535354 
L 137.227046 291.574949 
L 138.906571 327.812525 
L 140.586097 320.368372 
L 142.265622 293.731948 
L 143.945148 280.789957 
L 145.624673 293.731948 
L 147.304199 313.144935 
L 148.983725 280.789957 
L 150.66325 287.260952 
L 152.342776 287.260952 
L 154.022301 267.847965 
L 155.701827 345.176364 
L 157.381352 296.220793 
L 159.060878 317.127086 
L 160.740403 309.05799 
L 162.419929 322.589091 
L 164.099455 306.673939 
L 165.77898 314.223434 
L 167.458506 284.025455 
L 169.138031 321.772929 
L 170.817557 314.223434 
L 172.497082 314.223434 
L 174.176608 284.025455 
L 175.856133 299.124444 
L 177.535659 320.91013 
L 179.215184 328.675325 
L 180.89471 282.084156 
L 182.574236 302.556033 
L 184.253761 297.614545 
L 185.933287 297.614545 
L 187.612812 306.673939 
L 189.292338 314.483762 
L 190.971863 305.111975 
L 192.651389 293.731948 
L 194.330914 293.731948 
L 196.01044 241.244983 
L 197.689966 281.508956 
L 199.369491 311.706936 
L 201.049017 321.772929 
L 202.728542 261.37697 
L 204.408068 289.252028 
L 206.087593 297.614545 
L 207.767119 297.614545 
L 209.446644 284.025455 
L 211.12617 261.37697 
L 212.805695 316.521107 
L 214.485221 281.071304 
L 216.164747 240.787438 
L 217.844272 313.144935 
L 219.523798 287.260952 
L 221.203323 274.318961 
L 222.882849 300.202944 
L 226.2419 321.772929 
L 227.921425 321.772929 
L 229.600951 319.996578 
L 231.280476 279.495758 
L 234.639528 279.495758 
L 236.319053 313.144935 
L 237.998579 274.318961 
L 239.678104 332.557922 
L 241.35763 254.905974 
L 243.037155 310.158322 
L 244.716681 284.025455 
L 246.396206 228.433719 
L 248.075732 351.970909 
L 249.755258 277.848595 
L 251.434783 270.436364 
L 253.114309 297.614545 
L 254.793834 270.436364 
L 256.47336 351.970909 
L 258.152885 261.37697 
L 261.511936 261.37697 
L 263.191462 231.17899 
L 264.870987 321.772929 
L 268.230039 321.772929 
L 269.909564 261.37697 
L 271.58909 291.574949 
L 273.268615 261.37697 
L 274.948141 351.970909 
L 276.627666 317.998182 
L 279.986717 317.998182 
L 281.666243 284.025455 
L 283.345769 317.998182 
L 285.025294 284.025455 
L 288.384345 351.970909 
L 290.063871 313.144935 
L 291.743396 313.144935 
L 293.422922 274.318961 
L 298.461498 274.318961 
L 300.141024 351.970909 
L 301.82055 235.492987 
L 303.500075 274.318961 
L 305.179601 274.318961 
L 306.859126 196.667013 
L 308.538652 274.318961 
L 310.218177 274.318961 
L 311.897703 313.144935 
L 313.577228 274.318961 
L 315.256754 313.144935 
L 316.93628 235.492987 
L 318.615805 261.37697 
L 320.295331 188.901818 
L 325.333907 351.970909 
L 327.013433 297.614545 
L 330.372484 297.614545 
L 332.052009 216.08 
L 335.411061 351.970909 
L 337.090586 284.025455 
L 338.770112 351.970909 
L 342.129163 216.08 
L 343.808688 284.025455 
L 345.488214 261.37697 
L 347.167739 170.78303 
L 348.847265 351.970909 
L 350.526791 351.970909 
L 352.206316 170.78303 
L 353.885842 351.970909 
L 355.565367 351.970909 
L 357.244893 170.78303 
L 358.924418 351.970909 
L 360.603944 261.37697 
L 362.283469 351.970909 
L 363.962995 170.78303 
L 365.64252 351.970909 
L 367.322046 170.78303 
L 369.001572 261.37697 
L 370.681097 216.08 
L 375.719674 216.08 
L 377.399199 351.970909 
L 379.078725 216.08 
L 380.75825 351.970909 
L 382.437776 216.08 
L 384.117302 351.970909 
L 385.796827 351.970909 
L 387.476353 80.189091 
L 389.155878 351.970909 
L 390.835404 80.189091 
L 392.514929 351.970909 
L 394.194455 80.189091 
L 395.87398 351.970909 
L 400.912557 351.970909 
L 402.592083 80.189091 
L 404.271608 80.189091 
L 405.951134 351.970909 
L 410.98971 351.970909 
L 412.669236 80.189091 
L 419.387338 80.189091 
L 421.066864 351.970909 
L 422.746389 351.970909 
L 424.425915 80.189091 
L 426.10544 80.189091 
L 427.784966 351.970909 
L 429.464491 351.970909 
L 431.144017 80.189091 
L 432.823542 351.970909 
L 434.503068 80.189091 
L 436.182594 351.970909 
L 484.888835 351.970909 
L 486.56836 80.189091 
L 488.247886 351.970909 
L 491.606937 351.970909 
L 491.606937 351.970909 
" style="fill:none;stroke:#8c564b;stroke-linecap:square;stroke-width:1.5;"/>
   </g>
   <g id="line2d_19">
    <path clip-path="url(#p71982bcc7d)" d="M 90.20033 351.970909 
L 91.879856 351.970909 
L 93.559381 346.535273 
L 95.238907 351.970909 
L 96.918433 346.535273 
L 98.597958 335.664 
L 100.277484 341.099636 
L 101.957009 330.228364 
L 103.636535 335.664 
L 105.31606 319.357091 
L 106.995586 346.535273 
L 108.675111 308.485818 
L 110.354637 330.228364 
L 112.034162 329.784638 
L 113.713688 318.691503 
L 115.393214 318.691503 
L 117.072739 302.0518 
L 118.752265 318.691503 
L 122.111316 318.691503 
L 123.790841 328.840542 
L 125.470367 299.927582 
L 127.149892 275.163004 
L 128.829418 327.812525 
L 130.508944 309.693737 
L 132.188469 273.456162 
L 133.867995 297.614545 
L 135.54752 333.852121 
L 138.906571 309.693737 
L 140.586097 314.047865 
L 142.265622 319.615931 
L 147.304199 300.202944 
L 148.983725 332.557922 
L 150.66325 326.086926 
L 152.342776 332.557922 
L 154.022301 319.615931 
L 155.701827 297.614545 
L 157.381352 317.127086 
L 159.060878 324.095851 
L 162.419929 307.898182 
L 164.099455 329.322424 
L 165.77898 321.772929 
L 167.458506 321.772929 
L 169.138031 299.124444 
L 172.497082 314.223434 
L 174.176608 329.322424 
L 175.856133 321.772929 
L 177.535659 328.675325 
L 179.215184 313.144935 
L 180.89471 336.440519 
L 182.574236 319.027658 
L 184.253761 315.733333 
L 185.933287 270.436364 
L 187.612812 297.614545 
L 189.292338 305.111975 
L 190.971863 323.855549 
L 192.651389 303.438442 
L 194.330914 313.144935 
L 196.01044 311.706936 
L 197.689966 291.574949 
L 199.369491 301.640943 
L 201.049017 321.772929 
L 202.728542 301.640943 
L 204.408068 299.705175 
L 206.087593 330.228364 
L 207.767119 275.872 
L 209.446644 317.998182 
L 211.12617 306.673939 
L 212.805695 281.071304 
L 214.485221 340.154308 
L 216.164747 327.263471 
L 217.844272 300.202944 
L 219.523798 339.028918 
L 221.203323 313.144935 
L 222.882849 313.144935 
L 224.562374 324.792727 
L 226.2419 321.772929 
L 227.921425 321.772929 
L 229.600951 304.009412 
L 231.280476 351.970909 
L 232.960002 297.614545 
L 234.639528 351.970909 
L 236.319053 332.557922 
L 237.998579 332.557922 
L 239.678104 293.731948 
L 241.35763 313.144935 
L 243.037155 310.158322 
L 244.716681 329.322424 
L 246.396206 327.263471 
L 248.075732 253.141157 
L 249.755258 302.556033 
L 251.434783 270.436364 
L 253.114309 270.436364 
L 254.793834 297.614545 
L 256.47336 321.772929 
L 258.152885 321.772929 
L 259.832411 291.574949 
L 261.511936 351.970909 
L 263.191462 321.772929 
L 264.870987 231.17899 
L 266.550513 321.772929 
L 268.230039 351.970909 
L 269.909564 291.574949 
L 271.58909 351.970909 
L 273.268615 351.970909 
L 274.948141 321.772929 
L 276.627666 284.025455 
L 278.307192 284.025455 
L 281.666243 351.970909 
L 283.345769 250.052727 
L 285.025294 250.052727 
L 288.384345 317.998182 
L 290.063871 235.492987 
L 291.743396 274.318961 
L 293.422922 274.318961 
L 295.102447 235.492987 
L 296.781973 313.144935 
L 298.461498 313.144935 
L 300.141024 274.318961 
L 301.82055 313.144935 
L 303.500075 235.492987 
L 305.179601 235.492987 
L 306.859126 313.144935 
L 308.538652 313.144935 
L 310.218177 274.318961 
L 311.897703 274.318961 
L 313.577228 313.144935 
L 315.256754 313.144935 
L 316.93628 351.970909 
L 321.974856 351.970909 
L 323.654382 188.901818 
L 328.692958 351.970909 
L 330.372484 297.614545 
L 332.052009 284.025455 
L 333.731535 351.970909 
L 335.411061 284.025455 
L 337.090586 284.025455 
L 338.770112 351.970909 
L 340.449637 284.025455 
L 342.129163 351.970909 
L 343.808688 284.025455 
L 345.488214 261.37697 
L 347.167739 351.970909 
L 348.847265 170.78303 
L 350.526791 351.970909 
L 352.206316 351.970909 
L 353.885842 261.37697 
L 355.565367 351.970909 
L 357.244893 261.37697 
L 358.924418 351.970909 
L 360.603944 351.970909 
L 362.283469 261.37697 
L 363.962995 351.970909 
L 367.322046 351.970909 
L 369.001572 261.37697 
L 370.681097 351.970909 
L 372.360623 351.970909 
L 374.040148 216.08 
L 375.719674 351.970909 
L 379.078725 351.970909 
L 380.75825 216.08 
L 382.437776 351.970909 
L 384.117302 351.970909 
L 385.796827 80.189091 
L 387.476353 351.970909 
L 389.155878 80.189091 
L 390.835404 351.970909 
L 394.194455 351.970909 
L 395.87398 80.189091 
L 397.553506 80.189091 
L 399.233031 351.970909 
L 464.734528 351.970909 
L 466.414053 80.189091 
L 468.093579 351.970909 
L 476.491207 351.970909 
L 478.170732 80.189091 
L 479.850258 351.970909 
L 481.529783 351.970909 
L 483.209309 80.189091 
L 484.888835 351.970909 
L 491.606937 351.970909 
L 491.606937 351.970909 
" style="fill:none;stroke:#e377c2;stroke-linecap:square;stroke-width:1.5;"/>
   </g>
   <g id="line2d_20">
    <path clip-path="url(#p71982bcc7d)" d="M 90.20033 259.565091 
L 91.879856 275.872 
L 93.559381 248.693818 
L 95.238907 259.565091 
L 96.918433 248.693818 
L 98.597958 286.743273 
L 100.277484 286.743273 
L 101.957009 275.872 
L 103.636535 259.565091 
L 105.31606 259.565091 
L 106.995586 270.436364 
L 108.675111 292.178909 
L 110.354637 303.050182 
L 112.034162 263.225826 
L 113.713688 285.412096 
L 115.393214 302.0518 
L 117.072739 268.772393 
L 118.752265 290.958664 
L 120.43179 296.505232 
L 122.111316 279.865529 
L 123.790841 317.275358 
L 125.470367 323.05795 
L 127.149892 340.154308 
L 128.829418 261.37697 
L 130.508944 297.614545 
L 132.188469 285.535354 
L 133.867995 291.574949 
L 135.54752 291.574949 
L 137.227046 297.614545 
L 138.906571 279.495758 
L 140.586097 276.12482 
L 142.265622 300.202944 
L 143.945148 293.731948 
L 145.624673 326.086926 
L 147.304199 319.615931 
L 148.983725 293.731948 
L 150.66325 293.731948 
L 152.342776 306.673939 
L 154.022301 306.673939 
L 155.701827 297.614545 
L 157.381352 268.345734 
L 159.060878 303.189557 
L 160.740403 309.05799 
L 162.419929 278.516364 
L 164.099455 299.124444 
L 165.77898 276.47596 
L 167.458506 299.124444 
L 169.138031 299.124444 
L 170.817557 291.574949 
L 172.497082 306.673939 
L 174.176608 299.124444 
L 175.856133 284.025455 
L 177.535659 274.318961 
L 179.215184 289.849351 
L 180.89471 313.144935 
L 182.574236 261.37697 
L 184.253761 270.436364 
L 185.933287 324.792727 
L 187.612812 306.673939 
L 189.292338 314.483762 
L 190.971863 323.855549 
L 194.330914 284.025455 
L 196.01044 311.706936 
L 197.689966 311.706936 
L 199.369491 251.310976 
L 201.049017 301.640943 
L 202.728542 331.838923 
L 204.408068 310.158322 
L 206.087593 319.357091 
L 207.767119 308.485818 
L 209.446644 284.025455 
L 211.12617 306.673939 
L 212.805695 281.071304 
L 214.485221 292.887905 
L 216.164747 351.970909 
L 217.844272 261.37697 
L 219.523798 313.144935 
L 221.203323 261.37697 
L 222.882849 326.086926 
L 224.562374 311.203636 
L 226.2419 261.37697 
L 227.921425 336.871919 
L 229.600951 304.009412 
L 231.280476 333.852121 
L 232.960002 351.970909 
L 234.639528 315.733333 
L 236.319053 254.905974 
L 237.998579 293.731948 
L 239.678104 274.318961 
L 241.35763 351.970909 
L 243.037155 289.252028 
L 244.716681 351.970909 
L 246.396206 302.556033 
L 248.075732 302.556033 
L 251.434783 351.970909 
L 254.793834 297.614545 
L 256.47336 261.37697 
L 258.152885 291.574949 
L 259.832411 291.574949 
L 261.511936 351.970909 
L 263.191462 351.970909 
L 264.870987 291.574949 
L 266.550513 321.772929 
L 268.230039 321.772929 
L 269.909564 291.574949 
L 271.58909 351.970909 
L 273.268615 291.574949 
L 274.948141 291.574949 
L 276.627666 284.025455 
L 278.307192 250.052727 
L 279.986717 317.998182 
L 281.666243 284.025455 
L 283.345769 351.970909 
L 285.025294 351.970909 
L 286.70482 284.025455 
L 288.384345 317.998182 
L 290.063871 313.144935 
L 293.422922 313.144935 
L 295.102447 274.318961 
L 300.141024 274.318961 
L 303.500075 351.970909 
L 305.179601 274.318961 
L 306.859126 351.970909 
L 308.538652 313.144935 
L 310.218177 313.144935 
L 311.897703 274.318961 
L 313.577228 351.970909 
L 315.256754 313.144935 
L 316.93628 313.144935 
L 318.615805 216.08 
L 320.295331 297.614545 
L 323.654382 297.614545 
L 325.333907 351.970909 
L 327.013433 351.970909 
L 328.692958 188.901818 
L 330.372484 297.614545 
L 332.052009 351.970909 
L 333.731535 284.025455 
L 335.411061 351.970909 
L 338.770112 216.08 
L 340.449637 351.970909 
L 342.129163 351.970909 
L 343.808688 284.025455 
L 345.488214 351.970909 
L 347.167739 261.37697 
L 348.847265 351.970909 
L 357.244893 351.970909 
L 358.924418 170.78303 
L 360.603944 351.970909 
L 362.283469 261.37697 
L 365.64252 261.37697 
L 367.322046 351.970909 
L 375.719674 351.970909 
L 377.399199 216.08 
L 379.078725 216.08 
L 380.75825 351.970909 
L 382.437776 216.08 
L 384.117302 351.970909 
L 397.553506 351.970909 
L 399.233031 80.189091 
L 400.912557 351.970909 
L 404.271608 351.970909 
L 405.951134 80.189091 
L 407.630659 351.970909 
L 421.066864 351.970909 
L 422.746389 80.189091 
L 424.425915 351.970909 
L 444.580221 351.970909 
L 446.259747 80.189091 
L 447.939272 351.970909 
L 456.3369 351.970909 
L 458.016426 80.189091 
L 459.695951 80.189091 
L 461.375477 351.970909 
L 466.414053 351.970909 
L 468.093579 80.189091 
L 469.773105 351.970909 
L 483.209309 351.970909 
L 484.888835 80.189091 
L 486.56836 351.970909 
L 488.247886 351.970909 
L 489.927411 80.189091 
L 491.606937 351.970909 
L 491.606937 351.970909 
" style="fill:none;stroke:#7f7f7f;stroke-linecap:square;stroke-width:1.5;"/>
   </g>
   <g id="patch_3">
    <path d="M 70.13 365.56 
L 70.13 66.6 
" style="fill:none;stroke:#000000;stroke-linecap:square;stroke-linejoin:miter;stroke-width:0.8;"/>
   </g>
   <g id="patch_4">
    <path d="M 511.677267 365.56 
L 511.677267 66.6 
" style="fill:none;stroke:#000000;stroke-linecap:square;stroke-linejoin:miter;stroke-width:0.8;"/>
   </g>
   <g id="patch_5">
    <path d="M 70.13 365.56 
L 511.677267 365.56 
" style="fill:none;stroke:#000000;stroke-linecap:square;stroke-linejoin:miter;stroke-width:0.8;"/>
   </g>
   <g id="patch_6">
    <path d="M 70.13 66.6 
L 511.677267 66.6 
" style="fill:none;stroke:#000000;stroke-linecap:square;stroke-linejoin:miter;stroke-width:0.8;"/>
   </g>
   <g id="legend_1">
    <g id="patch_7">
     <path d="M 80.63 59.1 
L 501.177267 59.1 
Q 504.177267 59.1 504.177267 56.1 
L 504.177267 13.565625 
Q 504.177267 10.565625 501.177267 10.565625 
L 80.63 10.565625 
Q 77.63 10.565625 77.63 13.565625 
L 77.63 56.1 
Q 77.63 59.1 80.63 59.1 
z
" style="fill:#ffffff;opacity:0.8;stroke:#cccccc;stroke-linejoin:miter;"/>
    </g>
    <g id="line2d_21">
     <path d="M 83.63 22.713281 
L 113.63 22.713281 
" style="fill:none;stroke:#1f77b4;stroke-linecap:square;stroke-width:1.5;"/>
    </g>
    <g id="line2d_22"/>
    <g id="text_15">
     <!-- Stra 1 -->
     <defs>
      <path d="M 53.515625 70.515625 
L 53.515625 60.890625 
Q 47.90625 63.578125 42.921875 64.890625 
Q 37.9375 66.21875 33.296875 66.21875 
Q 25.25 66.21875 20.875 63.09375 
Q 16.5 59.96875 16.5 54.203125 
Q 16.5 49.359375 19.40625 46.890625 
Q 22.3125 44.4375 30.421875 42.921875 
L 36.375 41.703125 
Q 47.40625 39.59375 52.65625 34.296875 
Q 57.90625 29 57.90625 20.125 
Q 57.90625 9.515625 50.796875 4.046875 
Q 43.703125 -1.421875 29.984375 -1.421875 
Q 24.8125 -1.421875 18.96875 -0.25 
Q 13.140625 0.921875 6.890625 3.21875 
L 6.890625 13.375 
Q 12.890625 10.015625 18.65625 8.296875 
Q 24.421875 6.59375 29.984375 6.59375 
Q 38.421875 6.59375 43.015625 9.90625 
Q 47.609375 13.234375 47.609375 19.390625 
Q 47.609375 24.75 44.3125 27.78125 
Q 41.015625 30.8125 33.5 32.328125 
L 27.484375 33.5 
Q 16.453125 35.6875 11.515625 40.375 
Q 6.59375 45.0625 6.59375 53.421875 
Q 6.59375 63.09375 13.40625 68.65625 
Q 20.21875 74.21875 32.171875 74.21875 
Q 37.3125 74.21875 42.625 73.28125 
Q 47.953125 72.359375 53.515625 70.515625 
z
" id="DejaVuSans-83"/>
     </defs>
     <g transform="translate(125.63 27.963281)scale(0.15 -0.15)">
      <use xlink:href="#DejaVuSans-83"/>
      <use x="63.476562" xlink:href="#DejaVuSans-116"/>
      <use x="102.685547" xlink:href="#DejaVuSans-114"/>
      <use x="143.798828" xlink:href="#DejaVuSans-97"/>
      <use x="205.078125" xlink:href="#DejaVuSans-32"/>
      <use x="236.865234" xlink:href="#DejaVuSans-49"/>
     </g>
    </g>
    <g id="line2d_23">
     <path d="M 83.63 44.730469 
L 113.63 44.730469 
" style="fill:none;stroke:#ff7f0e;stroke-linecap:square;stroke-width:1.5;"/>
    </g>
    <g id="line2d_24"/>
    <g id="text_16">
     <!-- Stra 2 -->
     <g transform="translate(125.63 49.980469)scale(0.15 -0.15)">
      <use xlink:href="#DejaVuSans-83"/>
      <use x="63.476562" xlink:href="#DejaVuSans-116"/>
      <use x="102.685547" xlink:href="#DejaVuSans-114"/>
      <use x="143.798828" xlink:href="#DejaVuSans-97"/>
      <use x="205.078125" xlink:href="#DejaVuSans-32"/>
      <use x="236.865234" xlink:href="#DejaVuSans-50"/>
     </g>
    </g>
    <g id="line2d_25">
     <path d="M 192.788204 22.713281 
L 222.788204 22.713281 
" style="fill:none;stroke:#2ca02c;stroke-linecap:square;stroke-width:1.5;"/>
    </g>
    <g id="line2d_26"/>
    <g id="text_17">
     <!-- Stra 3 -->
     <defs>
      <path d="M 40.578125 39.3125 
Q 47.65625 37.796875 51.625 33 
Q 55.609375 28.21875 55.609375 21.1875 
Q 55.609375 10.40625 48.1875 4.484375 
Q 40.765625 -1.421875 27.09375 -1.421875 
Q 22.515625 -1.421875 17.65625 -0.515625 
Q 12.796875 0.390625 7.625 2.203125 
L 7.625 11.71875 
Q 11.71875 9.328125 16.59375 8.109375 
Q 21.484375 6.890625 26.8125 6.890625 
Q 36.078125 6.890625 40.9375 10.546875 
Q 45.796875 14.203125 45.796875 21.1875 
Q 45.796875 27.640625 41.28125 31.265625 
Q 36.765625 34.90625 28.71875 34.90625 
L 20.21875 34.90625 
L 20.21875 43.015625 
L 29.109375 43.015625 
Q 36.375 43.015625 40.234375 45.921875 
Q 44.09375 48.828125 44.09375 54.296875 
Q 44.09375 59.90625 40.109375 62.90625 
Q 36.140625 65.921875 28.71875 65.921875 
Q 24.65625 65.921875 20.015625 65.03125 
Q 15.375 64.15625 9.8125 62.3125 
L 9.8125 71.09375 
Q 15.4375 72.65625 20.34375 73.4375 
Q 25.25 74.21875 29.59375 74.21875 
Q 40.828125 74.21875 47.359375 69.109375 
Q 53.90625 64.015625 53.90625 55.328125 
Q 53.90625 49.265625 50.4375 45.09375 
Q 46.96875 40.921875 40.578125 39.3125 
z
" id="DejaVuSans-51"/>
     </defs>
     <g transform="translate(234.788204 27.963281)scale(0.15 -0.15)">
      <use xlink:href="#DejaVuSans-83"/>
      <use x="63.476562" xlink:href="#DejaVuSans-116"/>
      <use x="102.685547" xlink:href="#DejaVuSans-114"/>
      <use x="143.798828" xlink:href="#DejaVuSans-97"/>
      <use x="205.078125" xlink:href="#DejaVuSans-32"/>
      <use x="236.865234" xlink:href="#DejaVuSans-51"/>
     </g>
    </g>
    <g id="line2d_27">
     <path d="M 192.788204 44.730469 
L 222.788204 44.730469 
" style="fill:none;stroke:#d62728;stroke-linecap:square;stroke-width:1.5;"/>
    </g>
    <g id="line2d_28"/>
    <g id="text_18">
     <!-- Stra 4 -->
     <g transform="translate(234.788204 49.980469)scale(0.15 -0.15)">
      <use xlink:href="#DejaVuSans-83"/>
      <use x="63.476562" xlink:href="#DejaVuSans-116"/>
      <use x="102.685547" xlink:href="#DejaVuSans-114"/>
      <use x="143.798828" xlink:href="#DejaVuSans-97"/>
      <use x="205.078125" xlink:href="#DejaVuSans-32"/>
      <use x="236.865234" xlink:href="#DejaVuSans-52"/>
     </g>
    </g>
    <g id="line2d_29">
     <path d="M 301.946407 22.713281 
L 331.946407 22.713281 
" style="fill:none;stroke:#9467bd;stroke-linecap:square;stroke-width:1.5;"/>
    </g>
    <g id="line2d_30"/>
    <g id="text_19">
     <!-- Stra 5 -->
     <g transform="translate(343.946407 27.963281)scale(0.15 -0.15)">
      <use xlink:href="#DejaVuSans-83"/>
      <use x="63.476562" xlink:href="#DejaVuSans-116"/>
      <use x="102.685547" xlink:href="#DejaVuSans-114"/>
      <use x="143.798828" xlink:href="#DejaVuSans-97"/>
      <use x="205.078125" xlink:href="#DejaVuSans-32"/>
      <use x="236.865234" xlink:href="#DejaVuSans-53"/>
     </g>
    </g>
    <g id="line2d_31">
     <path d="M 301.946407 44.730469 
L 331.946407 44.730469 
" style="fill:none;stroke:#8c564b;stroke-linecap:square;stroke-width:1.5;"/>
    </g>
    <g id="line2d_32"/>
    <g id="text_20">
     <!-- Stra 6 -->
     <g transform="translate(343.946407 49.980469)scale(0.15 -0.15)">
      <use xlink:href="#DejaVuSans-83"/>
      <use x="63.476562" xlink:href="#DejaVuSans-116"/>
      <use x="102.685547" xlink:href="#DejaVuSans-114"/>
      <use x="143.798828" xlink:href="#DejaVuSans-97"/>
      <use x="205.078125" xlink:href="#DejaVuSans-32"/>
      <use x="236.865234" xlink:href="#DejaVuSans-54"/>
     </g>
    </g>
    <g id="line2d_33">
     <path d="M 411.104611 22.713281 
L 441.104611 22.713281 
" style="fill:none;stroke:#e377c2;stroke-linecap:square;stroke-width:1.5;"/>
    </g>
    <g id="line2d_34"/>
    <g id="text_21">
     <!-- Stra 7 -->
     <defs>
      <path d="M 8.203125 72.90625 
L 55.078125 72.90625 
L 55.078125 68.703125 
L 28.609375 0 
L 18.3125 0 
L 43.21875 64.59375 
L 8.203125 64.59375 
z
" id="DejaVuSans-55"/>
     </defs>
     <g transform="translate(453.104611 27.963281)scale(0.15 -0.15)">
      <use xlink:href="#DejaVuSans-83"/>
      <use x="63.476562" xlink:href="#DejaVuSans-116"/>
      <use x="102.685547" xlink:href="#DejaVuSans-114"/>
      <use x="143.798828" xlink:href="#DejaVuSans-97"/>
      <use x="205.078125" xlink:href="#DejaVuSans-32"/>
      <use x="236.865234" xlink:href="#DejaVuSans-55"/>
     </g>
    </g>
    <g id="line2d_35">
     <path d="M 411.104611 44.730469 
L 441.104611 44.730469 
" style="fill:none;stroke:#7f7f7f;stroke-linecap:square;stroke-width:1.5;"/>
    </g>
    <g id="line2d_36"/>
    <g id="text_22">
     <!-- Stra 8 -->
     <g transform="translate(453.104611 49.980469)scale(0.15 -0.15)">
      <use xlink:href="#DejaVuSans-83"/>
      <use x="63.476562" xlink:href="#DejaVuSans-116"/>
      <use x="102.685547" xlink:href="#DejaVuSans-114"/>
      <use x="143.798828" xlink:href="#DejaVuSans-97"/>
      <use x="205.078125" xlink:href="#DejaVuSans-32"/>
      <use x="236.865234" xlink:href="#DejaVuSans-56"/>
     </g>
    </g>
   </g>
  </g>
 </g>
 <defs>
  <clipPath id="p71982bcc7d">
   <rect height="298.96" width="441.547267" x="70.13" y="66.6"/>
  </clipPath>
 </defs>
</svg>
