<?xml version="1.0" encoding="utf-8" standalone="no"?>
<!DOCTYPE svg PUBLIC "-//W3C//DTD SVG 1.1//EN"
  "http://www.w3.org/Graphics/SVG/1.1/DTD/svg11.dtd">
<!-- Created with matplotlib (https://matplotlib.org/) -->
<svg height="432pt" version="1.1" viewBox="0 0 540 432" width="540pt" xmlns="http://www.w3.org/2000/svg" xmlns:xlink="http://www.w3.org/1999/xlink">
 <defs>
  <style type="text/css">
*{stroke-linecap:butt;stroke-linejoin:round;}
  </style>
 </defs>
 <g id="figure_1">
  <g id="patch_1">
   <path d="M 0 432 
L 540 432 
L 540 0 
L 0 0 
z
" style="fill:#ffffff;"/>
  </g>
  <g id="axes_1">
   <g id="patch_2">
    <path d="M 58.97 365.56 
L 518.074794 365.56 
L 518.074794 10.8 
L 58.97 10.8 
z
" style="fill:#ffffff;"/>
   </g>
   <g id="matplotlib.axis_1">
    <g id="xtick_1">
     <g id="line2d_1">
      <defs>
       <path d="M 0 0 
L 0 3.5 
" id="ma76b65f4ee" style="stroke:#000000;stroke-width:0.8;"/>
      </defs>
      <g>
       <use style="stroke:#000000;stroke-width:0.8;" x="79.121273" xlink:href="#ma76b65f4ee" y="365.56"/>
      </g>
     </g>
     <g id="text_1">
      <!-- 0 -->
      <defs>
       <path d="M 31.78125 66.40625 
Q 24.171875 66.40625 20.328125 58.90625 
Q 16.5 51.421875 16.5 36.375 
Q 16.5 21.390625 20.328125 13.890625 
Q 24.171875 6.390625 31.78125 6.390625 
Q 39.453125 6.390625 43.28125 13.890625 
Q 47.125 21.390625 47.125 36.375 
Q 47.125 51.421875 43.28125 58.90625 
Q 39.453125 66.40625 31.78125 66.40625 
z
M 31.78125 74.21875 
Q 44.046875 74.21875 50.515625 64.515625 
Q 56.984375 54.828125 56.984375 36.375 
Q 56.984375 17.96875 50.515625 8.265625 
Q 44.046875 -1.421875 31.78125 -1.421875 
Q 19.53125 -1.421875 13.0625 8.265625 
Q 6.59375 17.96875 6.59375 36.375 
Q 6.59375 54.828125 13.0625 64.515625 
Q 19.53125 74.21875 31.78125 74.21875 
z
" id="DejaVuSans-48"/>
      </defs>
      <g transform="translate(72.758773 387.756875)scale(0.2 -0.2)">
       <use xlink:href="#DejaVuSans-48"/>
      </g>
     </g>
    </g>
    <g id="xtick_2">
     <g id="line2d_2">
      <g>
       <use style="stroke:#000000;stroke-width:0.8;" x="150.833986" xlink:href="#ma76b65f4ee" y="365.56"/>
      </g>
     </g>
     <g id="text_2">
      <!-- 100 -->
      <defs>
       <path d="M 12.40625 8.296875 
L 28.515625 8.296875 
L 28.515625 63.921875 
L 10.984375 60.40625 
L 10.984375 69.390625 
L 28.421875 72.90625 
L 38.28125 72.90625 
L 38.28125 8.296875 
L 54.390625 8.296875 
L 54.390625 0 
L 12.40625 0 
z
" id="DejaVuSans-49"/>
      </defs>
      <g transform="translate(131.746486 387.756875)scale(0.2 -0.2)">
       <use xlink:href="#DejaVuSans-49"/>
       <use x="63.623047" xlink:href="#DejaVuSans-48"/>
       <use x="127.246094" xlink:href="#DejaVuSans-48"/>
      </g>
     </g>
    </g>
    <g id="xtick_3">
     <g id="line2d_3">
      <g>
       <use style="stroke:#000000;stroke-width:0.8;" x="222.5467" xlink:href="#ma76b65f4ee" y="365.56"/>
      </g>
     </g>
     <g id="text_3">
      <!-- 200 -->
      <defs>
       <path d="M 19.1875 8.296875 
L 53.609375 8.296875 
L 53.609375 0 
L 7.328125 0 
L 7.328125 8.296875 
Q 12.9375 14.109375 22.625 23.890625 
Q 32.328125 33.6875 34.8125 36.53125 
Q 39.546875 41.84375 41.421875 45.53125 
Q 43.3125 49.21875 43.3125 52.78125 
Q 43.3125 58.59375 39.234375 62.25 
Q 35.15625 65.921875 28.609375 65.921875 
Q 23.96875 65.921875 18.8125 64.3125 
Q 13.671875 62.703125 7.8125 59.421875 
L 7.8125 69.390625 
Q 13.765625 71.78125 18.9375 73 
Q 24.125 74.21875 28.421875 74.21875 
Q 39.75 74.21875 46.484375 68.546875 
Q 53.21875 62.890625 53.21875 53.421875 
Q 53.21875 48.921875 51.53125 44.890625 
Q 49.859375 40.875 45.40625 35.40625 
Q 44.1875 33.984375 37.640625 27.21875 
Q 31.109375 20.453125 19.1875 8.296875 
z
" id="DejaVuSans-50"/>
      </defs>
      <g transform="translate(203.4592 387.756875)scale(0.2 -0.2)">
       <use xlink:href="#DejaVuSans-50"/>
       <use x="63.623047" xlink:href="#DejaVuSans-48"/>
       <use x="127.246094" xlink:href="#DejaVuSans-48"/>
      </g>
     </g>
    </g>
    <g id="xtick_4">
     <g id="line2d_4">
      <g>
       <use style="stroke:#000000;stroke-width:0.8;" x="294.259414" xlink:href="#ma76b65f4ee" y="365.56"/>
      </g>
     </g>
     <g id="text_4">
      <!-- 300 -->
      <defs>
       <path d="M 40.578125 39.3125 
Q 47.65625 37.796875 51.625 33 
Q 55.609375 28.21875 55.609375 21.1875 
Q 55.609375 10.40625 48.1875 4.484375 
Q 40.765625 -1.421875 27.09375 -1.421875 
Q 22.515625 -1.421875 17.65625 -0.515625 
Q 12.796875 0.390625 7.625 2.203125 
L 7.625 11.71875 
Q 11.71875 9.328125 16.59375 8.109375 
Q 21.484375 6.890625 26.8125 6.890625 
Q 36.078125 6.890625 40.9375 10.546875 
Q 45.796875 14.203125 45.796875 21.1875 
Q 45.796875 27.640625 41.28125 31.265625 
Q 36.765625 34.90625 28.71875 34.90625 
L 20.21875 34.90625 
L 20.21875 43.015625 
L 29.109375 43.015625 
Q 36.375 43.015625 40.234375 45.921875 
Q 44.09375 48.828125 44.09375 54.296875 
Q 44.09375 59.90625 40.109375 62.90625 
Q 36.140625 65.921875 28.71875 65.921875 
Q 24.65625 65.921875 20.015625 65.03125 
Q 15.375 64.15625 9.8125 62.3125 
L 9.8125 71.09375 
Q 15.4375 72.65625 20.34375 73.4375 
Q 25.25 74.21875 29.59375 74.21875 
Q 40.828125 74.21875 47.359375 69.109375 
Q 53.90625 64.015625 53.90625 55.328125 
Q 53.90625 49.265625 50.4375 45.09375 
Q 46.96875 40.921875 40.578125 39.3125 
z
" id="DejaVuSans-51"/>
      </defs>
      <g transform="translate(275.171914 387.756875)scale(0.2 -0.2)">
       <use xlink:href="#DejaVuSans-51"/>
       <use x="63.623047" xlink:href="#DejaVuSans-48"/>
       <use x="127.246094" xlink:href="#DejaVuSans-48"/>
      </g>
     </g>
    </g>
    <g id="xtick_5">
     <g id="line2d_5">
      <g>
       <use style="stroke:#000000;stroke-width:0.8;" x="365.972128" xlink:href="#ma76b65f4ee" y="365.56"/>
      </g>
     </g>
     <g id="text_5">
      <!-- 400 -->
      <defs>
       <path d="M 37.796875 64.3125 
L 12.890625 25.390625 
L 37.796875 25.390625 
z
M 35.203125 72.90625 
L 47.609375 72.90625 
L 47.609375 25.390625 
L 58.015625 25.390625 
L 58.015625 17.1875 
L 47.609375 17.1875 
L 47.609375 0 
L 37.796875 0 
L 37.796875 17.1875 
L 4.890625 17.1875 
L 4.890625 26.703125 
z
" id="DejaVuSans-52"/>
      </defs>
      <g transform="translate(346.884628 387.756875)scale(0.2 -0.2)">
       <use xlink:href="#DejaVuSans-52"/>
       <use x="63.623047" xlink:href="#DejaVuSans-48"/>
       <use x="127.246094" xlink:href="#DejaVuSans-48"/>
      </g>
     </g>
    </g>
    <g id="xtick_6">
     <g id="line2d_6">
      <g>
       <use style="stroke:#000000;stroke-width:0.8;" x="437.684842" xlink:href="#ma76b65f4ee" y="365.56"/>
      </g>
     </g>
     <g id="text_6">
      <!-- 500 -->
      <defs>
       <path d="M 10.796875 72.90625 
L 49.515625 72.90625 
L 49.515625 64.59375 
L 19.828125 64.59375 
L 19.828125 46.734375 
Q 21.96875 47.46875 24.109375 47.828125 
Q 26.265625 48.1875 28.421875 48.1875 
Q 40.625 48.1875 47.75 41.5 
Q 54.890625 34.8125 54.890625 23.390625 
Q 54.890625 11.625 47.5625 5.09375 
Q 40.234375 -1.421875 26.90625 -1.421875 
Q 22.3125 -1.421875 17.546875 -0.640625 
Q 12.796875 0.140625 7.71875 1.703125 
L 7.71875 11.625 
Q 12.109375 9.234375 16.796875 8.0625 
Q 21.484375 6.890625 26.703125 6.890625 
Q 35.15625 6.890625 40.078125 11.328125 
Q 45.015625 15.765625 45.015625 23.390625 
Q 45.015625 31 40.078125 35.4375 
Q 35.15625 39.890625 26.703125 39.890625 
Q 22.75 39.890625 18.8125 39.015625 
Q 14.890625 38.140625 10.796875 36.28125 
z
" id="DejaVuSans-53"/>
      </defs>
      <g transform="translate(418.597342 387.756875)scale(0.2 -0.2)">
       <use xlink:href="#DejaVuSans-53"/>
       <use x="63.623047" xlink:href="#DejaVuSans-48"/>
       <use x="127.246094" xlink:href="#DejaVuSans-48"/>
      </g>
     </g>
    </g>
    <g id="xtick_7">
     <g id="line2d_7">
      <g>
       <use style="stroke:#000000;stroke-width:0.8;" x="509.397555" xlink:href="#ma76b65f4ee" y="365.56"/>
      </g>
     </g>
     <g id="text_7">
      <!-- 600 -->
      <defs>
       <path d="M 33.015625 40.375 
Q 26.375 40.375 22.484375 35.828125 
Q 18.609375 31.296875 18.609375 23.390625 
Q 18.609375 15.53125 22.484375 10.953125 
Q 26.375 6.390625 33.015625 6.390625 
Q 39.65625 6.390625 43.53125 10.953125 
Q 47.40625 15.53125 47.40625 23.390625 
Q 47.40625 31.296875 43.53125 35.828125 
Q 39.65625 40.375 33.015625 40.375 
z
M 52.59375 71.296875 
L 52.59375 62.3125 
Q 48.875 64.0625 45.09375 64.984375 
Q 41.3125 65.921875 37.59375 65.921875 
Q 27.828125 65.921875 22.671875 59.328125 
Q 17.53125 52.734375 16.796875 39.40625 
Q 19.671875 43.65625 24.015625 45.921875 
Q 28.375 48.1875 33.59375 48.1875 
Q 44.578125 48.1875 50.953125 41.515625 
Q 57.328125 34.859375 57.328125 23.390625 
Q 57.328125 12.15625 50.6875 5.359375 
Q 44.046875 -1.421875 33.015625 -1.421875 
Q 20.359375 -1.421875 13.671875 8.265625 
Q 6.984375 17.96875 6.984375 36.375 
Q 6.984375 53.65625 15.1875 63.9375 
Q 23.390625 74.21875 37.203125 74.21875 
Q 40.921875 74.21875 44.703125 73.484375 
Q 48.484375 72.75 52.59375 71.296875 
z
" id="DejaVuSans-54"/>
      </defs>
      <g transform="translate(490.310055 387.756875)scale(0.2 -0.2)">
       <use xlink:href="#DejaVuSans-54"/>
       <use x="63.623047" xlink:href="#DejaVuSans-48"/>
       <use x="127.246094" xlink:href="#DejaVuSans-48"/>
      </g>
     </g>
    </g>
    <g id="text_8">
     <!-- # of games -->
     <defs>
      <path d="M 51.125 44 
L 36.921875 44 
L 32.8125 27.6875 
L 47.125 27.6875 
z
M 43.796875 71.78125 
L 38.71875 51.515625 
L 52.984375 51.515625 
L 58.109375 71.78125 
L 65.921875 71.78125 
L 60.890625 51.515625 
L 76.125 51.515625 
L 76.125 44 
L 58.984375 44 
L 54.984375 27.6875 
L 70.515625 27.6875 
L 70.515625 20.21875 
L 53.078125 20.21875 
L 48 0 
L 40.1875 0 
L 45.21875 20.21875 
L 30.90625 20.21875 
L 25.875 0 
L 18.015625 0 
L 23.09375 20.21875 
L 7.71875 20.21875 
L 7.71875 27.6875 
L 24.90625 27.6875 
L 29 44 
L 13.28125 44 
L 13.28125 51.515625 
L 30.90625 51.515625 
L 35.890625 71.78125 
z
" id="DejaVuSans-35"/>
      <path id="DejaVuSans-32"/>
      <path d="M 30.609375 48.390625 
Q 23.390625 48.390625 19.1875 42.75 
Q 14.984375 37.109375 14.984375 27.296875 
Q 14.984375 17.484375 19.15625 11.84375 
Q 23.34375 6.203125 30.609375 6.203125 
Q 37.796875 6.203125 41.984375 11.859375 
Q 46.1875 17.53125 46.1875 27.296875 
Q 46.1875 37.015625 41.984375 42.703125 
Q 37.796875 48.390625 30.609375 48.390625 
z
M 30.609375 56 
Q 42.328125 56 49.015625 48.375 
Q 55.71875 40.765625 55.71875 27.296875 
Q 55.71875 13.875 49.015625 6.21875 
Q 42.328125 -1.421875 30.609375 -1.421875 
Q 18.84375 -1.421875 12.171875 6.21875 
Q 5.515625 13.875 5.515625 27.296875 
Q 5.515625 40.765625 12.171875 48.375 
Q 18.84375 56 30.609375 56 
z
" id="DejaVuSans-111"/>
      <path d="M 37.109375 75.984375 
L 37.109375 68.5 
L 28.515625 68.5 
Q 23.6875 68.5 21.796875 66.546875 
Q 19.921875 64.59375 19.921875 59.515625 
L 19.921875 54.6875 
L 34.71875 54.6875 
L 34.71875 47.703125 
L 19.921875 47.703125 
L 19.921875 0 
L 10.890625 0 
L 10.890625 47.703125 
L 2.296875 47.703125 
L 2.296875 54.6875 
L 10.890625 54.6875 
L 10.890625 58.5 
Q 10.890625 67.625 15.140625 71.796875 
Q 19.390625 75.984375 28.609375 75.984375 
z
" id="DejaVuSans-102"/>
      <path d="M 45.40625 27.984375 
Q 45.40625 37.75 41.375 43.109375 
Q 37.359375 48.484375 30.078125 48.484375 
Q 22.859375 48.484375 18.828125 43.109375 
Q 14.796875 37.75 14.796875 27.984375 
Q 14.796875 18.265625 18.828125 12.890625 
Q 22.859375 7.515625 30.078125 7.515625 
Q 37.359375 7.515625 41.375 12.890625 
Q 45.40625 18.265625 45.40625 27.984375 
z
M 54.390625 6.78125 
Q 54.390625 -7.171875 48.1875 -13.984375 
Q 42 -20.796875 29.203125 -20.796875 
Q 24.46875 -20.796875 20.265625 -20.09375 
Q 16.0625 -19.390625 12.109375 -17.921875 
L 12.109375 -9.1875 
Q 16.0625 -11.328125 19.921875 -12.34375 
Q 23.78125 -13.375 27.78125 -13.375 
Q 36.625 -13.375 41.015625 -8.765625 
Q 45.40625 -4.15625 45.40625 5.171875 
L 45.40625 9.625 
Q 42.625 4.78125 38.28125 2.390625 
Q 33.9375 0 27.875 0 
Q 17.828125 0 11.671875 7.65625 
Q 5.515625 15.328125 5.515625 27.984375 
Q 5.515625 40.671875 11.671875 48.328125 
Q 17.828125 56 27.875 56 
Q 33.9375 56 38.28125 53.609375 
Q 42.625 51.21875 45.40625 46.390625 
L 45.40625 54.6875 
L 54.390625 54.6875 
z
" id="DejaVuSans-103"/>
      <path d="M 34.28125 27.484375 
Q 23.390625 27.484375 19.1875 25 
Q 14.984375 22.515625 14.984375 16.5 
Q 14.984375 11.71875 18.140625 8.90625 
Q 21.296875 6.109375 26.703125 6.109375 
Q 34.1875 6.109375 38.703125 11.40625 
Q 43.21875 16.703125 43.21875 25.484375 
L 43.21875 27.484375 
z
M 52.203125 31.203125 
L 52.203125 0 
L 43.21875 0 
L 43.21875 8.296875 
Q 40.140625 3.328125 35.546875 0.953125 
Q 30.953125 -1.421875 24.3125 -1.421875 
Q 15.921875 -1.421875 10.953125 3.296875 
Q 6 8.015625 6 15.921875 
Q 6 25.140625 12.171875 29.828125 
Q 18.359375 34.515625 30.609375 34.515625 
L 43.21875 34.515625 
L 43.21875 35.40625 
Q 43.21875 41.609375 39.140625 45 
Q 35.0625 48.390625 27.6875 48.390625 
Q 23 48.390625 18.546875 47.265625 
Q 14.109375 46.140625 10.015625 43.890625 
L 10.015625 52.203125 
Q 14.9375 54.109375 19.578125 55.046875 
Q 24.21875 56 28.609375 56 
Q 40.484375 56 46.34375 49.84375 
Q 52.203125 43.703125 52.203125 31.203125 
z
" id="DejaVuSans-97"/>
      <path d="M 52 44.1875 
Q 55.375 50.25 60.0625 53.125 
Q 64.75 56 71.09375 56 
Q 79.640625 56 84.28125 50.015625 
Q 88.921875 44.046875 88.921875 33.015625 
L 88.921875 0 
L 79.890625 0 
L 79.890625 32.71875 
Q 79.890625 40.578125 77.09375 44.375 
Q 74.3125 48.1875 68.609375 48.1875 
Q 61.625 48.1875 57.5625 43.546875 
Q 53.515625 38.921875 53.515625 30.90625 
L 53.515625 0 
L 44.484375 0 
L 44.484375 32.71875 
Q 44.484375 40.625 41.703125 44.40625 
Q 38.921875 48.1875 33.109375 48.1875 
Q 26.21875 48.1875 22.15625 43.53125 
Q 18.109375 38.875 18.109375 30.90625 
L 18.109375 0 
L 9.078125 0 
L 9.078125 54.6875 
L 18.109375 54.6875 
L 18.109375 46.1875 
Q 21.1875 51.21875 25.484375 53.609375 
Q 29.78125 56 35.6875 56 
Q 41.65625 56 45.828125 52.96875 
Q 50 49.953125 52 44.1875 
z
" id="DejaVuSans-109"/>
      <path d="M 56.203125 29.59375 
L 56.203125 25.203125 
L 14.890625 25.203125 
Q 15.484375 15.921875 20.484375 11.0625 
Q 25.484375 6.203125 34.421875 6.203125 
Q 39.59375 6.203125 44.453125 7.46875 
Q 49.3125 8.734375 54.109375 11.28125 
L 54.109375 2.78125 
Q 49.265625 0.734375 44.1875 -0.34375 
Q 39.109375 -1.421875 33.890625 -1.421875 
Q 20.796875 -1.421875 13.15625 6.1875 
Q 5.515625 13.8125 5.515625 26.8125 
Q 5.515625 40.234375 12.765625 48.109375 
Q 20.015625 56 32.328125 56 
Q 43.359375 56 49.78125 48.890625 
Q 56.203125 41.796875 56.203125 29.59375 
z
M 47.21875 32.234375 
Q 47.125 39.59375 43.09375 43.984375 
Q 39.0625 48.390625 32.421875 48.390625 
Q 24.90625 48.390625 20.390625 44.140625 
Q 15.875 39.890625 15.1875 32.171875 
z
" id="DejaVuSans-101"/>
      <path d="M 44.28125 53.078125 
L 44.28125 44.578125 
Q 40.484375 46.53125 36.375 47.5 
Q 32.28125 48.484375 27.875 48.484375 
Q 21.1875 48.484375 17.84375 46.4375 
Q 14.5 44.390625 14.5 40.28125 
Q 14.5 37.15625 16.890625 35.375 
Q 19.28125 33.59375 26.515625 31.984375 
L 29.59375 31.296875 
Q 39.15625 29.25 43.1875 25.515625 
Q 47.21875 21.78125 47.21875 15.09375 
Q 47.21875 7.46875 41.1875 3.015625 
Q 35.15625 -1.421875 24.609375 -1.421875 
Q 20.21875 -1.421875 15.453125 -0.5625 
Q 10.6875 0.296875 5.421875 2 
L 5.421875 11.28125 
Q 10.40625 8.6875 15.234375 7.390625 
Q 20.0625 6.109375 24.8125 6.109375 
Q 31.15625 6.109375 34.5625 8.28125 
Q 37.984375 10.453125 37.984375 14.40625 
Q 37.984375 18.0625 35.515625 20.015625 
Q 33.0625 21.96875 24.703125 23.78125 
L 21.578125 24.515625 
Q 13.234375 26.265625 9.515625 29.90625 
Q 5.8125 33.546875 5.8125 39.890625 
Q 5.8125 47.609375 11.28125 51.796875 
Q 16.75 56 26.8125 56 
Q 31.78125 56 36.171875 55.265625 
Q 40.578125 54.546875 44.28125 53.078125 
z
" id="DejaVuSans-115"/>
     </defs>
     <g transform="translate(216.079038 414.912344)scale(0.25 -0.25)">
      <use xlink:href="#DejaVuSans-35"/>
      <use x="83.789062" xlink:href="#DejaVuSans-32"/>
      <use x="115.576172" xlink:href="#DejaVuSans-111"/>
      <use x="176.757812" xlink:href="#DejaVuSans-102"/>
      <use x="211.962891" xlink:href="#DejaVuSans-32"/>
      <use x="243.75" xlink:href="#DejaVuSans-103"/>
      <use x="307.226562" xlink:href="#DejaVuSans-97"/>
      <use x="368.505859" xlink:href="#DejaVuSans-109"/>
      <use x="465.917969" xlink:href="#DejaVuSans-101"/>
      <use x="527.441406" xlink:href="#DejaVuSans-115"/>
     </g>
    </g>
   </g>
   <g id="matplotlib.axis_2">
    <g id="ytick_1">
     <g id="line2d_8">
      <defs>
       <path d="M 0 0 
L -3.5 0 
" id="m5a198a4a3a" style="stroke:#000000;stroke-width:0.8;"/>
      </defs>
      <g>
       <use style="stroke:#000000;stroke-width:0.8;" x="58.97" xlink:href="#m5a198a4a3a" y="349.434545"/>
      </g>
     </g>
     <g id="text_9">
      <!-- 1 -->
      <g transform="translate(39.245 357.032983)scale(0.2 -0.2)">
       <use xlink:href="#DejaVuSans-49"/>
      </g>
     </g>
    </g>
    <g id="ytick_2">
     <g id="line2d_9">
      <g>
       <use style="stroke:#000000;stroke-width:0.8;" x="58.97" xlink:href="#m5a198a4a3a" y="309.120909"/>
      </g>
     </g>
     <g id="text_10">
      <!-- 2 -->
      <g transform="translate(39.245 316.719347)scale(0.2 -0.2)">
       <use xlink:href="#DejaVuSans-50"/>
      </g>
     </g>
    </g>
    <g id="ytick_3">
     <g id="line2d_10">
      <g>
       <use style="stroke:#000000;stroke-width:0.8;" x="58.97" xlink:href="#m5a198a4a3a" y="268.807273"/>
      </g>
     </g>
     <g id="text_11">
      <!-- 3 -->
      <g transform="translate(39.245 276.40571)scale(0.2 -0.2)">
       <use xlink:href="#DejaVuSans-51"/>
      </g>
     </g>
    </g>
    <g id="ytick_4">
     <g id="line2d_11">
      <g>
       <use style="stroke:#000000;stroke-width:0.8;" x="58.97" xlink:href="#m5a198a4a3a" y="228.493636"/>
      </g>
     </g>
     <g id="text_12">
      <!-- 4 -->
      <g transform="translate(39.245 236.092074)scale(0.2 -0.2)">
       <use xlink:href="#DejaVuSans-52"/>
      </g>
     </g>
    </g>
    <g id="ytick_5">
     <g id="line2d_12">
      <g>
       <use style="stroke:#000000;stroke-width:0.8;" x="58.97" xlink:href="#m5a198a4a3a" y="188.18"/>
      </g>
     </g>
     <g id="text_13">
      <!-- 5 -->
      <g transform="translate(39.245 195.778437)scale(0.2 -0.2)">
       <use xlink:href="#DejaVuSans-53"/>
      </g>
     </g>
    </g>
    <g id="ytick_6">
     <g id="line2d_13">
      <g>
       <use style="stroke:#000000;stroke-width:0.8;" x="58.97" xlink:href="#m5a198a4a3a" y="147.866364"/>
      </g>
     </g>
     <g id="text_14">
      <!-- 6 -->
      <g transform="translate(39.245 155.464801)scale(0.2 -0.2)">
       <use xlink:href="#DejaVuSans-54"/>
      </g>
     </g>
    </g>
    <g id="ytick_7">
     <g id="line2d_14">
      <g>
       <use style="stroke:#000000;stroke-width:0.8;" x="58.97" xlink:href="#m5a198a4a3a" y="107.552727"/>
      </g>
     </g>
     <g id="text_15">
      <!-- 7 -->
      <defs>
       <path d="M 8.203125 72.90625 
L 55.078125 72.90625 
L 55.078125 68.703125 
L 28.609375 0 
L 18.3125 0 
L 43.21875 64.59375 
L 8.203125 64.59375 
z
" id="DejaVuSans-55"/>
      </defs>
      <g transform="translate(39.245 115.151165)scale(0.2 -0.2)">
       <use xlink:href="#DejaVuSans-55"/>
      </g>
     </g>
    </g>
    <g id="ytick_8">
     <g id="line2d_15">
      <g>
       <use style="stroke:#000000;stroke-width:0.8;" x="58.97" xlink:href="#m5a198a4a3a" y="67.239091"/>
      </g>
     </g>
     <g id="text_16">
      <!-- 8 -->
      <defs>
       <path d="M 31.78125 34.625 
Q 24.75 34.625 20.71875 30.859375 
Q 16.703125 27.09375 16.703125 20.515625 
Q 16.703125 13.921875 20.71875 10.15625 
Q 24.75 6.390625 31.78125 6.390625 
Q 38.8125 6.390625 42.859375 10.171875 
Q 46.921875 13.96875 46.921875 20.515625 
Q 46.921875 27.09375 42.890625 30.859375 
Q 38.875 34.625 31.78125 34.625 
z
M 21.921875 38.8125 
Q 15.578125 40.375 12.03125 44.71875 
Q 8.5 49.078125 8.5 55.328125 
Q 8.5 64.0625 14.71875 69.140625 
Q 20.953125 74.21875 31.78125 74.21875 
Q 42.671875 74.21875 48.875 69.140625 
Q 55.078125 64.0625 55.078125 55.328125 
Q 55.078125 49.078125 51.53125 44.71875 
Q 48 40.375 41.703125 38.8125 
Q 48.828125 37.15625 52.796875 32.3125 
Q 56.78125 27.484375 56.78125 20.515625 
Q 56.78125 9.90625 50.3125 4.234375 
Q 43.84375 -1.421875 31.78125 -1.421875 
Q 19.734375 -1.421875 13.25 4.234375 
Q 6.78125 9.90625 6.78125 20.515625 
Q 6.78125 27.484375 10.78125 32.3125 
Q 14.796875 37.15625 21.921875 38.8125 
z
M 18.3125 54.390625 
Q 18.3125 48.734375 21.84375 45.5625 
Q 25.390625 42.390625 31.78125 42.390625 
Q 38.140625 42.390625 41.71875 45.5625 
Q 45.3125 48.734375 45.3125 54.390625 
Q 45.3125 60.0625 41.71875 63.234375 
Q 38.140625 66.40625 31.78125 66.40625 
Q 25.390625 66.40625 21.84375 63.234375 
Q 18.3125 60.0625 18.3125 54.390625 
z
" id="DejaVuSans-56"/>
      </defs>
      <g transform="translate(39.245 74.837528)scale(0.2 -0.2)">
       <use xlink:href="#DejaVuSans-56"/>
      </g>
     </g>
    </g>
    <g id="ytick_9">
     <g id="line2d_16">
      <g>
       <use style="stroke:#000000;stroke-width:0.8;" x="58.97" xlink:href="#m5a198a4a3a" y="26.925455"/>
      </g>
     </g>
     <g id="text_17">
      <!-- 9 -->
      <defs>
       <path d="M 10.984375 1.515625 
L 10.984375 10.5 
Q 14.703125 8.734375 18.5 7.8125 
Q 22.3125 6.890625 25.984375 6.890625 
Q 35.75 6.890625 40.890625 13.453125 
Q 46.046875 20.015625 46.78125 33.40625 
Q 43.953125 29.203125 39.59375 26.953125 
Q 35.25 24.703125 29.984375 24.703125 
Q 19.046875 24.703125 12.671875 31.3125 
Q 6.296875 37.9375 6.296875 49.421875 
Q 6.296875 60.640625 12.9375 67.421875 
Q 19.578125 74.21875 30.609375 74.21875 
Q 43.265625 74.21875 49.921875 64.515625 
Q 56.59375 54.828125 56.59375 36.375 
Q 56.59375 19.140625 48.40625 8.859375 
Q 40.234375 -1.421875 26.421875 -1.421875 
Q 22.703125 -1.421875 18.890625 -0.6875 
Q 15.09375 0.046875 10.984375 1.515625 
z
M 30.609375 32.421875 
Q 37.25 32.421875 41.125 36.953125 
Q 45.015625 41.5 45.015625 49.421875 
Q 45.015625 57.28125 41.125 61.84375 
Q 37.25 66.40625 30.609375 66.40625 
Q 23.96875 66.40625 20.09375 61.84375 
Q 16.21875 57.28125 16.21875 49.421875 
Q 16.21875 41.5 20.09375 36.953125 
Q 23.96875 32.421875 30.609375 32.421875 
z
" id="DejaVuSans-57"/>
      </defs>
      <g transform="translate(39.245 34.523892)scale(0.2 -0.2)">
       <use xlink:href="#DejaVuSans-57"/>
      </g>
     </g>
    </g>
    <g id="text_18">
     <!-- Averaged DHEU -->
     <defs>
      <path d="M 34.1875 63.1875 
L 20.796875 26.90625 
L 47.609375 26.90625 
z
M 28.609375 72.90625 
L 39.796875 72.90625 
L 67.578125 0 
L 57.328125 0 
L 50.6875 18.703125 
L 17.828125 18.703125 
L 11.1875 0 
L 0.78125 0 
z
" id="DejaVuSans-65"/>
      <path d="M 2.984375 54.6875 
L 12.5 54.6875 
L 29.59375 8.796875 
L 46.6875 54.6875 
L 56.203125 54.6875 
L 35.6875 0 
L 23.484375 0 
z
" id="DejaVuSans-118"/>
      <path d="M 41.109375 46.296875 
Q 39.59375 47.171875 37.8125 47.578125 
Q 36.03125 48 33.890625 48 
Q 26.265625 48 22.1875 43.046875 
Q 18.109375 38.09375 18.109375 28.8125 
L 18.109375 0 
L 9.078125 0 
L 9.078125 54.6875 
L 18.109375 54.6875 
L 18.109375 46.1875 
Q 20.953125 51.171875 25.484375 53.578125 
Q 30.03125 56 36.53125 56 
Q 37.453125 56 38.578125 55.875 
Q 39.703125 55.765625 41.0625 55.515625 
z
" id="DejaVuSans-114"/>
      <path d="M 45.40625 46.390625 
L 45.40625 75.984375 
L 54.390625 75.984375 
L 54.390625 0 
L 45.40625 0 
L 45.40625 8.203125 
Q 42.578125 3.328125 38.25 0.953125 
Q 33.9375 -1.421875 27.875 -1.421875 
Q 17.96875 -1.421875 11.734375 6.484375 
Q 5.515625 14.40625 5.515625 27.296875 
Q 5.515625 40.1875 11.734375 48.09375 
Q 17.96875 56 27.875 56 
Q 33.9375 56 38.25 53.625 
Q 42.578125 51.265625 45.40625 46.390625 
z
M 14.796875 27.296875 
Q 14.796875 17.390625 18.875 11.75 
Q 22.953125 6.109375 30.078125 6.109375 
Q 37.203125 6.109375 41.296875 11.75 
Q 45.40625 17.390625 45.40625 27.296875 
Q 45.40625 37.203125 41.296875 42.84375 
Q 37.203125 48.484375 30.078125 48.484375 
Q 22.953125 48.484375 18.875 42.84375 
Q 14.796875 37.203125 14.796875 27.296875 
z
" id="DejaVuSans-100"/>
      <path d="M 19.671875 64.796875 
L 19.671875 8.109375 
L 31.59375 8.109375 
Q 46.6875 8.109375 53.6875 14.9375 
Q 60.6875 21.78125 60.6875 36.53125 
Q 60.6875 51.171875 53.6875 57.984375 
Q 46.6875 64.796875 31.59375 64.796875 
z
M 9.8125 72.90625 
L 30.078125 72.90625 
Q 51.265625 72.90625 61.171875 64.09375 
Q 71.09375 55.28125 71.09375 36.53125 
Q 71.09375 17.671875 61.125 8.828125 
Q 51.171875 0 30.078125 0 
L 9.8125 0 
z
" id="DejaVuSans-68"/>
      <path d="M 9.8125 72.90625 
L 19.671875 72.90625 
L 19.671875 43.015625 
L 55.515625 43.015625 
L 55.515625 72.90625 
L 65.375 72.90625 
L 65.375 0 
L 55.515625 0 
L 55.515625 34.71875 
L 19.671875 34.71875 
L 19.671875 0 
L 9.8125 0 
z
" id="DejaVuSans-72"/>
      <path d="M 9.8125 72.90625 
L 55.90625 72.90625 
L 55.90625 64.59375 
L 19.671875 64.59375 
L 19.671875 43.015625 
L 54.390625 43.015625 
L 54.390625 34.71875 
L 19.671875 34.71875 
L 19.671875 8.296875 
L 56.78125 8.296875 
L 56.78125 0 
L 9.8125 0 
z
" id="DejaVuSans-69"/>
      <path d="M 8.6875 72.90625 
L 18.609375 72.90625 
L 18.609375 28.609375 
Q 18.609375 16.890625 22.84375 11.734375 
Q 27.09375 6.59375 36.625 6.59375 
Q 46.09375 6.59375 50.34375 11.734375 
Q 54.59375 16.890625 54.59375 28.609375 
L 54.59375 72.90625 
L 64.5 72.90625 
L 64.5 27.390625 
Q 64.5 13.140625 57.4375 5.859375 
Q 50.390625 -1.421875 36.625 -1.421875 
Q 22.796875 -1.421875 15.734375 5.859375 
Q 8.6875 13.140625 8.6875 27.390625 
z
" id="DejaVuSans-85"/>
     </defs>
     <g transform="translate(30.045781 288.217109)rotate(-90)scale(0.25 -0.25)">
      <use xlink:href="#DejaVuSans-65"/>
      <use x="68.330078" xlink:href="#DejaVuSans-118"/>
      <use x="127.509766" xlink:href="#DejaVuSans-101"/>
      <use x="189.033203" xlink:href="#DejaVuSans-114"/>
      <use x="230.146484" xlink:href="#DejaVuSans-97"/>
      <use x="291.425781" xlink:href="#DejaVuSans-103"/>
      <use x="354.902344" xlink:href="#DejaVuSans-101"/>
      <use x="416.425781" xlink:href="#DejaVuSans-100"/>
      <use x="479.902344" xlink:href="#DejaVuSans-32"/>
      <use x="511.689453" xlink:href="#DejaVuSans-68"/>
      <use x="588.691406" xlink:href="#DejaVuSans-72"/>
      <use x="663.886719" xlink:href="#DejaVuSans-69"/>
      <use x="727.070312" xlink:href="#DejaVuSans-85"/>
     </g>
    </g>
   </g>
   <g id="line2d_17">
    <path clip-path="url(#p11d6d3546e)" d="M 79.8384 94.652364 
L 80.555527 97.887228 
L 81.272654 114.022455 
L 82.706908 107.552727 
L 83.424035 133.353455 
L 84.141163 139.919935 
L 84.85829 139.83395 
L 85.575417 139.942479 
L 86.292544 159.223546 
L 87.009671 149.578232 
L 87.726798 143.000953 
L 88.443925 149.379637 
L 89.161053 146.266161 
L 89.87818 123.8248 
L 90.595307 117.283268 
L 91.312434 159.266344 
L 92.029561 143.215453 
L 92.746688 123.733665 
L 93.463815 149.75415 
L 94.180942 162.417706 
L 94.89807 152.781946 
L 95.615197 156.014124 
L 96.332324 139.936673 
L 97.049451 136.869504 
L 97.766578 143.165981 
L 98.483705 162.506324 
L 99.200832 156.025383 
L 99.91796 169.058304 
L 100.635087 133.57051 
L 101.352214 156.054463 
L 102.069341 159.219229 
L 102.786468 175.389999 
L 103.503595 156.109412 
L 104.220722 155.992194 
L 104.93785 133.48556 
L 105.654977 159.210216 
L 106.372104 130.142551 
L 107.089231 146.26702 
L 107.806358 143.177613 
L 108.523485 155.991938 
L 109.240612 146.330883 
L 109.95774 149.514778 
L 110.674867 133.375655 
L 112.109121 139.903391 
L 112.826248 149.647469 
L 113.543375 149.481186 
L 114.260502 156.023152 
L 114.977629 178.539009 
L 115.694757 155.944802 
L 116.411884 143.164541 
L 117.129011 143.075279 
L 117.846138 130.222581 
L 118.563265 143.028219 
L 119.280392 133.447368 
L 119.997519 159.228037 
L 120.714647 165.675054 
L 121.431774 130.253498 
L 122.148901 126.956062 
L 122.866028 146.202962 
L 124.300282 133.398911 
L 125.734537 159.176635 
L 126.451664 159.162633 
L 127.168791 130.149402 
L 127.885918 133.44572 
L 128.603045 159.088744 
L 129.320172 146.353987 
L 130.037299 136.573393 
L 130.754427 149.491353 
L 131.471554 159.121315 
L 132.188681 146.207212 
L 132.905808 152.65181 
L 133.622935 143.011594 
L 134.340062 143.177598 
L 135.057189 165.606643 
L 135.774316 133.386495 
L 136.491444 146.26733 
L 137.208571 136.540265 
L 137.925698 162.435309 
L 138.642825 117.30667 
L 139.359952 143.10122 
L 140.077079 139.891371 
L 140.794206 159.083374 
L 141.511334 133.350156 
L 142.945588 159.142105 
L 143.662715 152.661732 
L 144.379842 139.931912 
L 145.096969 149.806728 
L 145.814096 175.275144 
L 146.531224 139.892179 
L 147.248351 181.708122 
L 147.965478 152.832009 
L 148.682605 143.186127 
L 149.399732 143.152847 
L 150.116859 149.512687 
L 150.833986 139.857827 
L 151.551114 139.78715 
L 152.268241 133.346468 
L 152.985368 152.772025 
L 153.702495 120.659357 
L 154.419622 117.23005 
L 155.136749 143.183093 
L 155.853876 133.358186 
L 156.571003 146.599361 
L 157.288131 152.762329 
L 158.005258 146.163898 
L 158.722385 152.656691 
L 159.439512 130.0897 
L 160.156639 149.604962 
L 160.873766 152.739556 
L 161.590893 142.921019 
L 162.308021 139.693206 
L 163.025148 139.738604 
L 163.742275 159.027937 
L 164.459402 133.356163 
L 165.176529 155.973554 
L 165.893656 142.919517 
L 166.610783 142.94679 
L 167.327911 146.303128 
L 168.762165 165.465424 
L 169.479292 143.025019 
L 170.196419 159.116261 
L 170.913546 155.933998 
L 171.630673 156.08565 
L 172.347801 165.593019 
L 173.064928 142.982345 
L 173.782055 155.984718 
L 174.499182 152.672529 
L 175.933436 159.131704 
L 176.650563 152.683416 
L 177.367691 139.775529 
L 178.084818 133.341554 
L 178.801945 155.967913 
L 179.519072 155.881263 
L 180.236199 159.107413 
L 180.953326 178.444285 
L 181.670453 139.824256 
L 182.38758 142.963551 
L 183.104708 143.02883 
L 183.821835 155.907742 
L 184.538962 175.279112 
L 185.256089 136.576267 
L 185.973216 146.262452 
L 186.690343 152.773729 
L 187.40747 149.560025 
L 188.124598 162.401978 
L 188.841725 159.160637 
L 189.558852 175.320976 
L 190.275979 162.366546 
L 190.993106 136.58929 
L 191.710233 152.848793 
L 192.42736 155.925514 
L 193.144488 146.379029 
L 193.861615 130.154953 
L 194.578742 162.452204 
L 195.295869 143.138762 
L 196.012996 155.906893 
L 196.730123 149.526893 
L 197.44725 155.96078 
L 198.164378 149.583607 
L 198.881505 165.649035 
L 199.598632 152.640327 
L 200.315759 136.636082 
L 201.032886 152.71789 
L 202.46714 133.3659 
L 203.184267 146.236471 
L 203.901395 165.639381 
L 204.618522 149.673644 
L 205.335649 136.646638 
L 206.052776 136.525432 
L 206.769903 133.320124 
L 207.48703 136.572033 
L 208.204157 155.97822 
L 208.921285 139.760932 
L 209.638412 126.890223 
L 210.355539 133.319826 
L 211.072666 165.613319 
L 211.789793 152.810844 
L 212.50692 165.819486 
L 213.224047 139.84985 
L 214.658302 146.357414 
L 216.092556 159.308103 
L 216.809683 162.439833 
L 217.52681 143.01066 
L 218.243937 146.287286 
L 218.961065 117.316934 
L 219.678192 123.692316 
L 220.395319 120.517478 
L 221.112446 123.739441 
L 221.829573 136.639559 
L 222.5467 123.649162 
L 223.980954 136.597165 
L 224.698082 162.415301 
L 225.415209 152.693352 
L 226.132336 133.475934 
L 226.849463 143.145735 
L 227.56659 143.060964 
L 228.283717 162.346106 
L 229.000844 159.34329 
L 229.717972 143.144189 
L 230.435099 162.471635 
L 231.152226 143.046355 
L 231.869353 168.877376 
L 232.58648 143.085825 
L 233.303607 165.593114 
L 234.020734 155.987669 
L 234.737862 143.041295 
L 235.454989 188.14932 
L 236.172116 130.1146 
L 237.60637 136.571522 
L 238.323497 143.093897 
L 239.040624 143.17018 
L 239.757752 146.21475 
L 240.474879 127.045103 
L 241.192006 152.848922 
L 241.909133 152.040818 
L 242.62626 158.788479 
L 243.343387 128.944024 
L 244.060514 168.34859 
L 244.777641 129.048547 
L 245.494769 135.522939 
L 246.211896 155.349241 
L 246.929023 142.245869 
L 247.64615 132.272968 
L 248.363277 135.542804 
L 249.080404 128.997442 
L 249.797531 151.996594 
L 250.514659 131.195981 
L 251.231786 164.778392 
L 251.948913 134.543616 
L 252.66604 134.465466 
L 254.100294 141.109899 
L 254.817421 131.103597 
L 255.534549 117.66233 
L 256.251676 144.509947 
L 256.968803 151.184231 
L 257.68593 141.167779 
L 258.403057 154.638909 
L 259.120184 141.323102 
L 259.837311 157.363508 
L 260.554439 130.065473 
L 261.271566 133.222903 
L 261.988693 122.985819 
L 262.70582 136.820983 
L 263.422947 160.709899 
L 264.140074 154.124455 
L 265.574328 146.96443 
L 266.291456 136.78048 
L 267.008583 130.028332 
L 267.72571 140.195598 
L 268.442837 157.370325 
L 269.159964 157.305234 
L 269.877091 129.950591 
L 270.594218 164.129787 
L 271.311346 143.644838 
L 272.028473 136.781251 
L 272.7456 160.724704 
L 273.462727 150.438004 
L 274.179854 136.759671 
L 275.614108 164.180176 
L 276.331236 142.666248 
L 277.048363 139.181286 
L 277.76549 167.170848 
L 278.482617 149.587839 
L 279.199744 149.649195 
L 279.916871 160.131171 
L 280.633998 156.684092 
L 281.351126 142.674727 
L 282.068253 149.682145 
L 283.502507 142.525741 
L 284.219634 132.063131 
L 284.936761 153.075775 
L 285.653888 146.10111 
L 286.371015 167.210587 
L 287.088143 127.286402 
L 287.80527 134.439273 
L 288.522397 159.469209 
L 289.239524 151.529138 
L 289.956651 162.49987 
L 291.390905 133.182637 
L 292.108033 133.228114 
L 292.82516 135.704159 
L 293.542287 161.979109 
L 294.259414 142.117233 
L 294.976541 149.770299 
L 295.693668 134.393652 
L 296.410795 145.926423 
L 297.127923 139.841085 
L 297.84505 158.478697 
L 298.562177 166.956606 
L 299.279304 145.872444 
L 299.996431 133.011746 
L 300.713558 132.985739 
L 301.430685 153.338356 
L 302.147813 162.016774 
L 302.86494 143.44479 
L 303.582067 143.382909 
L 305.016321 143.454473 
L 305.733448 132.958725 
L 306.450575 169.7451 
L 307.167702 142.095338 
L 307.88483 128.322616 
L 308.601957 146.725386 
L 309.319084 132.933334 
L 310.036211 140.797784 
L 310.753338 117.147039 
L 311.470465 126.643202 
L 312.187592 121.922935 
L 312.90472 188.162238 
L 313.621847 158.821381 
L 314.338974 139.398337 
L 315.056101 139.306277 
L 315.773228 114.911732 
L 316.490355 154.021477 
L 317.207482 130.998557 
L 317.92461 125.791819 
L 318.641737 151.781686 
L 319.358864 146.544419 
L 320.075991 125.835718 
L 320.793118 125.866368 
L 322.227372 146.683126 
L 322.9445 136.301631 
L 323.661627 136.198355 
L 324.378754 162.269444 
L 325.095881 141.454537 
L 325.813008 141.505636 
L 326.530135 162.269198 
L 327.247262 136.174151 
L 327.96439 146.570819 
L 328.681517 162.258353 
L 329.398644 172.910969 
L 330.115771 141.416527 
L 330.832898 115.388909 
L 331.550025 136.121753 
L 332.267152 177.809929 
L 332.984279 151.743289 
L 333.701407 162.412883 
L 334.418534 150.641072 
L 335.135661 123.698127 
L 336.569915 134.498981 
L 337.287042 161.406624 
L 338.004169 124.843554 
L 338.721297 136.33757 
L 339.438424 130.576833 
L 340.155551 142.213234 
L 340.872678 130.823267 
L 341.589805 153.688124 
L 342.306932 142.118963 
L 343.024059 159.496791 
L 343.741187 119.207509 
L 345.175441 153.638348 
L 345.892568 113.388173 
L 346.609695 159.302622 
L 347.326822 140.581276 
L 348.043949 146.430181 
L 348.761077 164.303512 
L 349.478204 146.493264 
L 350.195331 116.607502 
L 350.912458 181.996475 
L 351.629585 132.386615 
L 352.346712 157.25144 
L 353.063839 149.567537 
L 353.780966 136.639145 
L 354.498094 143.101332 
L 355.215221 130.13916 
L 355.932348 136.637225 
L 356.649475 155.955859 
L 357.366602 117.235978 
L 358.083729 143.159475 
L 358.800856 147.97972 
L 360.235111 134.491714 
L 360.952238 167.991165 
L 361.669365 134.413609 
L 362.386492 154.744037 
L 363.103619 154.819418 
L 363.820746 134.414733 
L 364.537874 147.917367 
L 365.255001 154.775598 
L 365.972128 154.625544 
L 366.689255 167.926002 
L 367.406382 127.79476 
L 368.123509 147.829887 
L 368.840636 174.81559 
L 369.557764 141.134688 
L 370.274891 141.242944 
L 371.709145 154.575748 
L 372.426272 134.468143 
L 373.143399 161.289904 
L 373.860526 147.871662 
L 374.577653 141.175692 
L 375.294781 90.115032 
L 376.011908 146.049286 
L 376.729035 181.27398 
L 377.446162 160.178044 
L 378.163289 153.086272 
L 378.880416 132.137639 
L 379.597543 188.156555 
L 380.314671 181.139403 
L 381.031798 136.925253 
L 381.748925 129.602903 
L 382.466052 158.853934 
L 383.183179 136.9173 
L 384.617433 180.809853 
L 385.334561 136.948725 
L 386.051688 180.831909 
L 386.768815 180.197324 
L 387.485942 188.388307 
L 388.203069 123.714718 
L 388.920196 131.823421 
L 389.637323 172.042949 
L 391.071578 155.957733 
L 391.788705 123.652069 
L 392.505832 107.598732 
L 393.222959 131.767362 
L 393.940086 171.151307 
L 394.657213 128.790639 
L 395.37434 128.737862 
L 396.091468 154.3508 
L 396.808595 154.218948 
L 397.525722 188.183931 
L 398.242849 145.809123 
L 398.959976 154.29545 
L 399.677103 179.692013 
L 400.39423 152.329892 
L 401.111358 116.488548 
L 401.828485 179.262748 
L 402.545612 161.34741 
L 403.262739 131.452338 
L 403.979866 131.315624 
L 404.696993 157.995226 
L 405.41412 137.835076 
L 406.131248 145.232932 
L 406.848375 155.915144 
L 407.565502 188.299215 
L 408.282629 134.433714 
L 408.999756 166.790396 
L 410.43401 96.094012 
L 411.151138 142.17044 
L 411.868265 113.83038 
L 413.302519 163.399935 
L 414.019646 134.48638 
L 414.736773 147.904481 
L 415.4539 174.690848 
L 416.171027 161.359554 
L 416.888155 161.218936 
L 418.322409 134.53445 
L 419.039536 147.878697 
L 419.756663 174.860402 
L 420.47379 120.950083 
L 421.190917 201.467564 
L 421.908045 114.897944 
L 422.625172 144.172929 
L 423.342299 188.240142 
L 424.059426 107.518291 
L 424.776553 139.825439 
L 425.49368 107.694817 
L 426.927935 139.764723 
L 427.645062 107.582472 
L 428.362189 91.42451 
L 429.796443 155.885474 
L 430.51357 91.471356 
L 431.230697 91.356732 
L 431.947825 155.870228 
L 432.664952 156.021374 
L 433.382079 123.829464 
L 434.099206 116.633074 
L 434.816333 134.656131 
L 435.53346 188.120042 
L 436.250587 98.591407 
L 436.967714 134.615609 
L 437.684842 116.486666 
L 438.401969 116.600748 
L 439.119096 116.473223 
L 439.836223 134.520439 
L 440.55335 170.337411 
L 441.270477 152.296432 
L 441.987604 188.073976 
L 443.421859 152.454893 
L 444.138986 152.397143 
L 444.856113 170.433714 
L 445.57324 134.458251 
L 446.290367 170.224779 
L 447.007494 188.207137 
L 447.724622 147.856725 
L 448.441749 168.022846 
L 449.158876 107.491241 
L 450.59313 188.063541 
L 451.310257 127.648285 
L 452.027384 167.943371 
L 452.744512 167.925047 
L 453.461639 168.074708 
L 454.178766 73.10987 
L 455.61302 211.159598 
L 456.330147 134.501862 
L 457.047274 161.532048 
L 457.764401 155.928901 
L 458.481529 155.850717 
L 459.198656 123.678182 
L 459.915783 59.176364 
L 460.63291 124.03001 
L 461.350037 220.59705 
L 462.067164 220.430909 
L 462.784291 123.776369 
L 463.501419 91.349968 
L 464.218546 123.648836 
L 464.935673 91.505534 
L 465.6528 155.832228 
L 466.369927 188.327041 
L 467.087054 188.542199 
L 467.804181 123.73682 
L 469.238436 59.586455 
L 469.955563 91.466365 
L 470.67269 107.552727 
L 471.389817 148.110689 
L 472.106944 147.769732 
L 472.824071 107.613809 
L 473.541199 107.456096 
L 474.258326 228.397005 
L 474.975453 134.348391 
L 475.69258 188.116312 
L 476.409707 80.67697 
L 477.126834 80.67697 
L 477.843961 188.294898 
L 478.561089 134.397373 
L 479.278216 134.428485 
L 479.995343 188.096834 
L 480.71247 188.266624 
L 481.429597 107.579106 
L 482.146724 188.20663 
L 482.863851 188.569983 
L 483.580978 26.925455 
L 484.298106 188.232206 
L 485.015233 26.925455 
L 485.73236 349.434545 
L 486.449487 188.96184 
L 487.166614 188.18 
L 489.317996 188.18 
L 490.035123 349.434545 
L 490.75225 26.925455 
L 491.469377 187.958901 
L 493.620758 187.958901 
L 494.337886 26.925455 
L 495.055013 26.925455 
L 495.77214 188.73967 
L 496.489267 26.925455 
L 497.206394 348.992081 
L 497.206394 348.992081 
" style="fill:none;stroke:#1f77b4;stroke-linecap:square;stroke-width:1.5;"/>
   </g>
   <g id="patch_3">
    <path d="M 58.97 365.56 
L 58.97 10.8 
" style="fill:none;stroke:#000000;stroke-linecap:square;stroke-linejoin:miter;stroke-width:0.8;"/>
   </g>
   <g id="patch_4">
    <path d="M 518.074794 365.56 
L 518.074794 10.8 
" style="fill:none;stroke:#000000;stroke-linecap:square;stroke-linejoin:miter;stroke-width:0.8;"/>
   </g>
   <g id="patch_5">
    <path d="M 58.97 365.56 
L 518.074794 365.56 
" style="fill:none;stroke:#000000;stroke-linecap:square;stroke-linejoin:miter;stroke-width:0.8;"/>
   </g>
   <g id="patch_6">
    <path d="M 58.97 10.8 
L 518.074794 10.8 
" style="fill:none;stroke:#000000;stroke-linecap:square;stroke-linejoin:miter;stroke-width:0.8;"/>
   </g>
  </g>
 </g>
 <defs>
  <clipPath id="p11d6d3546e">
   <rect height="354.76" width="459.104794" x="58.97" y="10.8"/>
  </clipPath>
 </defs>
</svg>
