<?xml version="1.0" encoding="utf-8" standalone="no"?>
<!DOCTYPE svg PUBLIC "-//W3C//DTD SVG 1.1//EN"
  "http://www.w3.org/Graphics/SVG/1.1/DTD/svg11.dtd">
<!-- Created with matplotlib (https://matplotlib.org/) -->
<svg height="432pt" version="1.1" viewBox="0 0 540 432" width="540pt" xmlns="http://www.w3.org/2000/svg" xmlns:xlink="http://www.w3.org/1999/xlink">
 <defs>
  <style type="text/css">
*{stroke-linecap:butt;stroke-linejoin:round;}
  </style>
 </defs>
 <g id="figure_1">
  <g id="patch_1">
   <path d="M 0 432 
L 540 432 
L 540 0 
L 0 0 
z
" style="fill:#ffffff;"/>
  </g>
  <g id="axes_1">
   <g id="patch_2">
    <path d="M 63.74 365.56 
L 511.677267 365.56 
L 511.677267 66.6 
L 63.74 66.6 
z
" style="fill:#ffffff;"/>
   </g>
   <g id="matplotlib.axis_1">
    <g id="xtick_1">
     <g id="line2d_1">
      <defs>
       <path d="M 0 0 
L 0 3.5 
" id="mb3f54100b3" style="stroke:#000000;stroke-width:0.8;"/>
      </defs>
      <g>
       <use style="stroke:#000000;stroke-width:0.8;" x="84.100785" xlink:href="#mb3f54100b3" y="365.56"/>
      </g>
     </g>
     <g id="text_1">
      <!-- 0 -->
      <defs>
       <path d="M 31.78125 66.40625 
Q 24.171875 66.40625 20.328125 58.90625 
Q 16.5 51.421875 16.5 36.375 
Q 16.5 21.390625 20.328125 13.890625 
Q 24.171875 6.390625 31.78125 6.390625 
Q 39.453125 6.390625 43.28125 13.890625 
Q 47.125 21.390625 47.125 36.375 
Q 47.125 51.421875 43.28125 58.90625 
Q 39.453125 66.40625 31.78125 66.40625 
z
M 31.78125 74.21875 
Q 44.046875 74.21875 50.515625 64.515625 
Q 56.984375 54.828125 56.984375 36.375 
Q 56.984375 17.96875 50.515625 8.265625 
Q 44.046875 -1.421875 31.78125 -1.421875 
Q 19.53125 -1.421875 13.0625 8.265625 
Q 6.59375 17.96875 6.59375 36.375 
Q 6.59375 54.828125 13.0625 64.515625 
Q 19.53125 74.21875 31.78125 74.21875 
z
" id="DejaVuSans-48"/>
      </defs>
      <g transform="translate(77.738285 387.756875)scale(0.2 -0.2)">
       <use xlink:href="#DejaVuSans-48"/>
      </g>
     </g>
    </g>
    <g id="xtick_2">
     <g id="line2d_2">
      <g>
       <use style="stroke:#000000;stroke-width:0.8;" x="169.292353" xlink:href="#mb3f54100b3" y="365.56"/>
      </g>
     </g>
     <g id="text_2">
      <!-- 50 -->
      <defs>
       <path d="M 10.796875 72.90625 
L 49.515625 72.90625 
L 49.515625 64.59375 
L 19.828125 64.59375 
L 19.828125 46.734375 
Q 21.96875 47.46875 24.109375 47.828125 
Q 26.265625 48.1875 28.421875 48.1875 
Q 40.625 48.1875 47.75 41.5 
Q 54.890625 34.8125 54.890625 23.390625 
Q 54.890625 11.625 47.5625 5.09375 
Q 40.234375 -1.421875 26.90625 -1.421875 
Q 22.3125 -1.421875 17.546875 -0.640625 
Q 12.796875 0.140625 7.71875 1.703125 
L 7.71875 11.625 
Q 12.109375 9.234375 16.796875 8.0625 
Q 21.484375 6.890625 26.703125 6.890625 
Q 35.15625 6.890625 40.078125 11.328125 
Q 45.015625 15.765625 45.015625 23.390625 
Q 45.015625 31 40.078125 35.4375 
Q 35.15625 39.890625 26.703125 39.890625 
Q 22.75 39.890625 18.8125 39.015625 
Q 14.890625 38.140625 10.796875 36.28125 
z
" id="DejaVuSans-53"/>
      </defs>
      <g transform="translate(156.567353 387.756875)scale(0.2 -0.2)">
       <use xlink:href="#DejaVuSans-53"/>
       <use x="63.623047" xlink:href="#DejaVuSans-48"/>
      </g>
     </g>
    </g>
    <g id="xtick_3">
     <g id="line2d_3">
      <g>
       <use style="stroke:#000000;stroke-width:0.8;" x="254.483922" xlink:href="#mb3f54100b3" y="365.56"/>
      </g>
     </g>
     <g id="text_3">
      <!-- 100 -->
      <defs>
       <path d="M 12.40625 8.296875 
L 28.515625 8.296875 
L 28.515625 63.921875 
L 10.984375 60.40625 
L 10.984375 69.390625 
L 28.421875 72.90625 
L 38.28125 72.90625 
L 38.28125 8.296875 
L 54.390625 8.296875 
L 54.390625 0 
L 12.40625 0 
z
" id="DejaVuSans-49"/>
      </defs>
      <g transform="translate(235.396422 387.756875)scale(0.2 -0.2)">
       <use xlink:href="#DejaVuSans-49"/>
       <use x="63.623047" xlink:href="#DejaVuSans-48"/>
       <use x="127.246094" xlink:href="#DejaVuSans-48"/>
      </g>
     </g>
    </g>
    <g id="xtick_4">
     <g id="line2d_4">
      <g>
       <use style="stroke:#000000;stroke-width:0.8;" x="339.67549" xlink:href="#mb3f54100b3" y="365.56"/>
      </g>
     </g>
     <g id="text_4">
      <!-- 150 -->
      <g transform="translate(320.58799 387.756875)scale(0.2 -0.2)">
       <use xlink:href="#DejaVuSans-49"/>
       <use x="63.623047" xlink:href="#DejaVuSans-53"/>
       <use x="127.246094" xlink:href="#DejaVuSans-48"/>
      </g>
     </g>
    </g>
    <g id="xtick_5">
     <g id="line2d_5">
      <g>
       <use style="stroke:#000000;stroke-width:0.8;" x="424.867059" xlink:href="#mb3f54100b3" y="365.56"/>
      </g>
     </g>
     <g id="text_5">
      <!-- 200 -->
      <defs>
       <path d="M 19.1875 8.296875 
L 53.609375 8.296875 
L 53.609375 0 
L 7.328125 0 
L 7.328125 8.296875 
Q 12.9375 14.109375 22.625 23.890625 
Q 32.328125 33.6875 34.8125 36.53125 
Q 39.546875 41.84375 41.421875 45.53125 
Q 43.3125 49.21875 43.3125 52.78125 
Q 43.3125 58.59375 39.234375 62.25 
Q 35.15625 65.921875 28.609375 65.921875 
Q 23.96875 65.921875 18.8125 64.3125 
Q 13.671875 62.703125 7.8125 59.421875 
L 7.8125 69.390625 
Q 13.765625 71.78125 18.9375 73 
Q 24.125 74.21875 28.421875 74.21875 
Q 39.75 74.21875 46.484375 68.546875 
Q 53.21875 62.890625 53.21875 53.421875 
Q 53.21875 48.921875 51.53125 44.890625 
Q 49.859375 40.875 45.40625 35.40625 
Q 44.1875 33.984375 37.640625 27.21875 
Q 31.109375 20.453125 19.1875 8.296875 
z
" id="DejaVuSans-50"/>
      </defs>
      <g transform="translate(405.779559 387.756875)scale(0.2 -0.2)">
       <use xlink:href="#DejaVuSans-50"/>
       <use x="63.623047" xlink:href="#DejaVuSans-48"/>
       <use x="127.246094" xlink:href="#DejaVuSans-48"/>
      </g>
     </g>
    </g>
    <g id="xtick_6">
     <g id="line2d_6">
      <g>
       <use style="stroke:#000000;stroke-width:0.8;" x="510.058627" xlink:href="#mb3f54100b3" y="365.56"/>
      </g>
     </g>
     <g id="text_6">
      <!-- 250 -->
      <g transform="translate(490.971127 387.756875)scale(0.2 -0.2)">
       <use xlink:href="#DejaVuSans-50"/>
       <use x="63.623047" xlink:href="#DejaVuSans-53"/>
       <use x="127.246094" xlink:href="#DejaVuSans-48"/>
      </g>
     </g>
    </g>
    <g id="text_7">
     <!-- # of games -->
     <defs>
      <path d="M 51.125 44 
L 36.921875 44 
L 32.8125 27.6875 
L 47.125 27.6875 
z
M 43.796875 71.78125 
L 38.71875 51.515625 
L 52.984375 51.515625 
L 58.109375 71.78125 
L 65.921875 71.78125 
L 60.890625 51.515625 
L 76.125 51.515625 
L 76.125 44 
L 58.984375 44 
L 54.984375 27.6875 
L 70.515625 27.6875 
L 70.515625 20.21875 
L 53.078125 20.21875 
L 48 0 
L 40.1875 0 
L 45.21875 20.21875 
L 30.90625 20.21875 
L 25.875 0 
L 18.015625 0 
L 23.09375 20.21875 
L 7.71875 20.21875 
L 7.71875 27.6875 
L 24.90625 27.6875 
L 29 44 
L 13.28125 44 
L 13.28125 51.515625 
L 30.90625 51.515625 
L 35.890625 71.78125 
z
" id="DejaVuSans-35"/>
      <path id="DejaVuSans-32"/>
      <path d="M 30.609375 48.390625 
Q 23.390625 48.390625 19.1875 42.75 
Q 14.984375 37.109375 14.984375 27.296875 
Q 14.984375 17.484375 19.15625 11.84375 
Q 23.34375 6.203125 30.609375 6.203125 
Q 37.796875 6.203125 41.984375 11.859375 
Q 46.1875 17.53125 46.1875 27.296875 
Q 46.1875 37.015625 41.984375 42.703125 
Q 37.796875 48.390625 30.609375 48.390625 
z
M 30.609375 56 
Q 42.328125 56 49.015625 48.375 
Q 55.71875 40.765625 55.71875 27.296875 
Q 55.71875 13.875 49.015625 6.21875 
Q 42.328125 -1.421875 30.609375 -1.421875 
Q 18.84375 -1.421875 12.171875 6.21875 
Q 5.515625 13.875 5.515625 27.296875 
Q 5.515625 40.765625 12.171875 48.375 
Q 18.84375 56 30.609375 56 
z
" id="DejaVuSans-111"/>
      <path d="M 37.109375 75.984375 
L 37.109375 68.5 
L 28.515625 68.5 
Q 23.6875 68.5 21.796875 66.546875 
Q 19.921875 64.59375 19.921875 59.515625 
L 19.921875 54.6875 
L 34.71875 54.6875 
L 34.71875 47.703125 
L 19.921875 47.703125 
L 19.921875 0 
L 10.890625 0 
L 10.890625 47.703125 
L 2.296875 47.703125 
L 2.296875 54.6875 
L 10.890625 54.6875 
L 10.890625 58.5 
Q 10.890625 67.625 15.140625 71.796875 
Q 19.390625 75.984375 28.609375 75.984375 
z
" id="DejaVuSans-102"/>
      <path d="M 45.40625 27.984375 
Q 45.40625 37.75 41.375 43.109375 
Q 37.359375 48.484375 30.078125 48.484375 
Q 22.859375 48.484375 18.828125 43.109375 
Q 14.796875 37.75 14.796875 27.984375 
Q 14.796875 18.265625 18.828125 12.890625 
Q 22.859375 7.515625 30.078125 7.515625 
Q 37.359375 7.515625 41.375 12.890625 
Q 45.40625 18.265625 45.40625 27.984375 
z
M 54.390625 6.78125 
Q 54.390625 -7.171875 48.1875 -13.984375 
Q 42 -20.796875 29.203125 -20.796875 
Q 24.46875 -20.796875 20.265625 -20.09375 
Q 16.0625 -19.390625 12.109375 -17.921875 
L 12.109375 -9.1875 
Q 16.0625 -11.328125 19.921875 -12.34375 
Q 23.78125 -13.375 27.78125 -13.375 
Q 36.625 -13.375 41.015625 -8.765625 
Q 45.40625 -4.15625 45.40625 5.171875 
L 45.40625 9.625 
Q 42.625 4.78125 38.28125 2.390625 
Q 33.9375 0 27.875 0 
Q 17.828125 0 11.671875 7.65625 
Q 5.515625 15.328125 5.515625 27.984375 
Q 5.515625 40.671875 11.671875 48.328125 
Q 17.828125 56 27.875 56 
Q 33.9375 56 38.28125 53.609375 
Q 42.625 51.21875 45.40625 46.390625 
L 45.40625 54.6875 
L 54.390625 54.6875 
z
" id="DejaVuSans-103"/>
      <path d="M 34.28125 27.484375 
Q 23.390625 27.484375 19.1875 25 
Q 14.984375 22.515625 14.984375 16.5 
Q 14.984375 11.71875 18.140625 8.90625 
Q 21.296875 6.109375 26.703125 6.109375 
Q 34.1875 6.109375 38.703125 11.40625 
Q 43.21875 16.703125 43.21875 25.484375 
L 43.21875 27.484375 
z
M 52.203125 31.203125 
L 52.203125 0 
L 43.21875 0 
L 43.21875 8.296875 
Q 40.140625 3.328125 35.546875 0.953125 
Q 30.953125 -1.421875 24.3125 -1.421875 
Q 15.921875 -1.421875 10.953125 3.296875 
Q 6 8.015625 6 15.921875 
Q 6 25.140625 12.171875 29.828125 
Q 18.359375 34.515625 30.609375 34.515625 
L 43.21875 34.515625 
L 43.21875 35.40625 
Q 43.21875 41.609375 39.140625 45 
Q 35.0625 48.390625 27.6875 48.390625 
Q 23 48.390625 18.546875 47.265625 
Q 14.109375 46.140625 10.015625 43.890625 
L 10.015625 52.203125 
Q 14.9375 54.109375 19.578125 55.046875 
Q 24.21875 56 28.609375 56 
Q 40.484375 56 46.34375 49.84375 
Q 52.203125 43.703125 52.203125 31.203125 
z
" id="DejaVuSans-97"/>
      <path d="M 52 44.1875 
Q 55.375 50.25 60.0625 53.125 
Q 64.75 56 71.09375 56 
Q 79.640625 56 84.28125 50.015625 
Q 88.921875 44.046875 88.921875 33.015625 
L 88.921875 0 
L 79.890625 0 
L 79.890625 32.71875 
Q 79.890625 40.578125 77.09375 44.375 
Q 74.3125 48.1875 68.609375 48.1875 
Q 61.625 48.1875 57.5625 43.546875 
Q 53.515625 38.921875 53.515625 30.90625 
L 53.515625 0 
L 44.484375 0 
L 44.484375 32.71875 
Q 44.484375 40.625 41.703125 44.40625 
Q 38.921875 48.1875 33.109375 48.1875 
Q 26.21875 48.1875 22.15625 43.53125 
Q 18.109375 38.875 18.109375 30.90625 
L 18.109375 0 
L 9.078125 0 
L 9.078125 54.6875 
L 18.109375 54.6875 
L 18.109375 46.1875 
Q 21.1875 51.21875 25.484375 53.609375 
Q 29.78125 56 35.6875 56 
Q 41.65625 56 45.828125 52.96875 
Q 50 49.953125 52 44.1875 
z
" id="DejaVuSans-109"/>
      <path d="M 56.203125 29.59375 
L 56.203125 25.203125 
L 14.890625 25.203125 
Q 15.484375 15.921875 20.484375 11.0625 
Q 25.484375 6.203125 34.421875 6.203125 
Q 39.59375 6.203125 44.453125 7.46875 
Q 49.3125 8.734375 54.109375 11.28125 
L 54.109375 2.78125 
Q 49.265625 0.734375 44.1875 -0.34375 
Q 39.109375 -1.421875 33.890625 -1.421875 
Q 20.796875 -1.421875 13.15625 6.1875 
Q 5.515625 13.8125 5.515625 26.8125 
Q 5.515625 40.234375 12.765625 48.109375 
Q 20.015625 56 32.328125 56 
Q 43.359375 56 49.78125 48.890625 
Q 56.203125 41.796875 56.203125 29.59375 
z
M 47.21875 32.234375 
Q 47.125 39.59375 43.09375 43.984375 
Q 39.0625 48.390625 32.421875 48.390625 
Q 24.90625 48.390625 20.390625 44.140625 
Q 15.875 39.890625 15.1875 32.171875 
z
" id="DejaVuSans-101"/>
      <path d="M 44.28125 53.078125 
L 44.28125 44.578125 
Q 40.484375 46.53125 36.375 47.5 
Q 32.28125 48.484375 27.875 48.484375 
Q 21.1875 48.484375 17.84375 46.4375 
Q 14.5 44.390625 14.5 40.28125 
Q 14.5 37.15625 16.890625 35.375 
Q 19.28125 33.59375 26.515625 31.984375 
L 29.59375 31.296875 
Q 39.15625 29.25 43.1875 25.515625 
Q 47.21875 21.78125 47.21875 15.09375 
Q 47.21875 7.46875 41.1875 3.015625 
Q 35.15625 -1.421875 24.609375 -1.421875 
Q 20.21875 -1.421875 15.453125 -0.5625 
Q 10.6875 0.296875 5.421875 2 
L 5.421875 11.28125 
Q 10.40625 8.6875 15.234375 7.390625 
Q 20.0625 6.109375 24.8125 6.109375 
Q 31.15625 6.109375 34.5625 8.28125 
Q 37.984375 10.453125 37.984375 14.40625 
Q 37.984375 18.0625 35.515625 20.015625 
Q 33.0625 21.96875 24.703125 23.78125 
L 21.578125 24.515625 
Q 13.234375 26.265625 9.515625 29.90625 
Q 5.8125 33.546875 5.8125 39.890625 
Q 5.8125 47.609375 11.28125 51.796875 
Q 16.75 56 26.8125 56 
Q 31.78125 56 36.171875 55.265625 
Q 40.578125 54.546875 44.28125 53.078125 
z
" id="DejaVuSans-115"/>
     </defs>
     <g transform="translate(215.265274 414.912344)scale(0.25 -0.25)">
      <use xlink:href="#DejaVuSans-35"/>
      <use x="83.789062" xlink:href="#DejaVuSans-32"/>
      <use x="115.576172" xlink:href="#DejaVuSans-111"/>
      <use x="176.757812" xlink:href="#DejaVuSans-102"/>
      <use x="211.962891" xlink:href="#DejaVuSans-32"/>
      <use x="243.75" xlink:href="#DejaVuSans-103"/>
      <use x="307.226562" xlink:href="#DejaVuSans-97"/>
      <use x="368.505859" xlink:href="#DejaVuSans-109"/>
      <use x="465.917969" xlink:href="#DejaVuSans-101"/>
      <use x="527.441406" xlink:href="#DejaVuSans-115"/>
     </g>
    </g>
   </g>
   <g id="matplotlib.axis_2">
    <g id="ytick_1">
     <g id="line2d_7">
      <defs>
       <path d="M 0 0 
L -3.5 0 
" id="mf139411814" style="stroke:#000000;stroke-width:0.8;"/>
      </defs>
      <g>
       <use style="stroke:#000000;stroke-width:0.8;" x="63.74" xlink:href="#mf139411814" y="351.970909"/>
      </g>
     </g>
     <g id="text_8">
      <!-- 0 -->
      <g transform="translate(44.015 359.569347)scale(0.2 -0.2)">
       <use xlink:href="#DejaVuSans-48"/>
      </g>
     </g>
    </g>
    <g id="ytick_2">
     <g id="line2d_8">
      <g>
       <use style="stroke:#000000;stroke-width:0.8;" x="63.74" xlink:href="#mf139411814" y="313.144935"/>
      </g>
     </g>
     <g id="text_9">
      <!-- 5 -->
      <g transform="translate(44.015 320.743373)scale(0.2 -0.2)">
       <use xlink:href="#DejaVuSans-53"/>
      </g>
     </g>
    </g>
    <g id="ytick_3">
     <g id="line2d_9">
      <g>
       <use style="stroke:#000000;stroke-width:0.8;" x="63.74" xlink:href="#mf139411814" y="274.318961"/>
      </g>
     </g>
     <g id="text_10">
      <!-- 10 -->
      <g transform="translate(31.29 281.917399)scale(0.2 -0.2)">
       <use xlink:href="#DejaVuSans-49"/>
       <use x="63.623047" xlink:href="#DejaVuSans-48"/>
      </g>
     </g>
    </g>
    <g id="ytick_4">
     <g id="line2d_10">
      <g>
       <use style="stroke:#000000;stroke-width:0.8;" x="63.74" xlink:href="#mf139411814" y="235.492987"/>
      </g>
     </g>
     <g id="text_11">
      <!-- 15 -->
      <g transform="translate(31.29 243.091425)scale(0.2 -0.2)">
       <use xlink:href="#DejaVuSans-49"/>
       <use x="63.623047" xlink:href="#DejaVuSans-53"/>
      </g>
     </g>
    </g>
    <g id="ytick_5">
     <g id="line2d_11">
      <g>
       <use style="stroke:#000000;stroke-width:0.8;" x="63.74" xlink:href="#mf139411814" y="196.667013"/>
      </g>
     </g>
     <g id="text_12">
      <!-- 20 -->
      <g transform="translate(31.29 204.26545)scale(0.2 -0.2)">
       <use xlink:href="#DejaVuSans-50"/>
       <use x="63.623047" xlink:href="#DejaVuSans-48"/>
      </g>
     </g>
    </g>
    <g id="ytick_6">
     <g id="line2d_12">
      <g>
       <use style="stroke:#000000;stroke-width:0.8;" x="63.74" xlink:href="#mf139411814" y="157.841039"/>
      </g>
     </g>
     <g id="text_13">
      <!-- 25 -->
      <g transform="translate(31.29 165.439476)scale(0.2 -0.2)">
       <use xlink:href="#DejaVuSans-50"/>
       <use x="63.623047" xlink:href="#DejaVuSans-53"/>
      </g>
     </g>
    </g>
    <g id="ytick_7">
     <g id="line2d_13">
      <g>
       <use style="stroke:#000000;stroke-width:0.8;" x="63.74" xlink:href="#mf139411814" y="119.015065"/>
      </g>
     </g>
     <g id="text_14">
      <!-- 30 -->
      <defs>
       <path d="M 40.578125 39.3125 
Q 47.65625 37.796875 51.625 33 
Q 55.609375 28.21875 55.609375 21.1875 
Q 55.609375 10.40625 48.1875 4.484375 
Q 40.765625 -1.421875 27.09375 -1.421875 
Q 22.515625 -1.421875 17.65625 -0.515625 
Q 12.796875 0.390625 7.625 2.203125 
L 7.625 11.71875 
Q 11.71875 9.328125 16.59375 8.109375 
Q 21.484375 6.890625 26.8125 6.890625 
Q 36.078125 6.890625 40.9375 10.546875 
Q 45.796875 14.203125 45.796875 21.1875 
Q 45.796875 27.640625 41.28125 31.265625 
Q 36.765625 34.90625 28.71875 34.90625 
L 20.21875 34.90625 
L 20.21875 43.015625 
L 29.109375 43.015625 
Q 36.375 43.015625 40.234375 45.921875 
Q 44.09375 48.828125 44.09375 54.296875 
Q 44.09375 59.90625 40.109375 62.90625 
Q 36.140625 65.921875 28.71875 65.921875 
Q 24.65625 65.921875 20.015625 65.03125 
Q 15.375 64.15625 9.8125 62.3125 
L 9.8125 71.09375 
Q 15.4375 72.65625 20.34375 73.4375 
Q 25.25 74.21875 29.59375 74.21875 
Q 40.828125 74.21875 47.359375 69.109375 
Q 53.90625 64.015625 53.90625 55.328125 
Q 53.90625 49.265625 50.4375 45.09375 
Q 46.96875 40.921875 40.578125 39.3125 
z
" id="DejaVuSans-51"/>
      </defs>
      <g transform="translate(31.29 126.613502)scale(0.2 -0.2)">
       <use xlink:href="#DejaVuSans-51"/>
       <use x="63.623047" xlink:href="#DejaVuSans-48"/>
      </g>
     </g>
    </g>
    <g id="ytick_8">
     <g id="line2d_14">
      <g>
       <use style="stroke:#000000;stroke-width:0.8;" x="63.74" xlink:href="#mf139411814" y="80.189091"/>
      </g>
     </g>
     <g id="text_15">
      <!-- 35 -->
      <g transform="translate(31.29 87.787528)scale(0.2 -0.2)">
       <use xlink:href="#DejaVuSans-51"/>
       <use x="63.623047" xlink:href="#DejaVuSans-53"/>
      </g>
     </g>
    </g>
    <g id="text_16">
     <!-- Number of Def strategy used -->
     <defs>
      <path d="M 9.8125 72.90625 
L 23.09375 72.90625 
L 55.421875 11.921875 
L 55.421875 72.90625 
L 64.984375 72.90625 
L 64.984375 0 
L 51.703125 0 
L 19.390625 60.984375 
L 19.390625 0 
L 9.8125 0 
z
" id="DejaVuSans-78"/>
      <path d="M 8.5 21.578125 
L 8.5 54.6875 
L 17.484375 54.6875 
L 17.484375 21.921875 
Q 17.484375 14.15625 20.5 10.265625 
Q 23.53125 6.390625 29.59375 6.390625 
Q 36.859375 6.390625 41.078125 11.03125 
Q 45.3125 15.671875 45.3125 23.6875 
L 45.3125 54.6875 
L 54.296875 54.6875 
L 54.296875 0 
L 45.3125 0 
L 45.3125 8.40625 
Q 42.046875 3.421875 37.71875 1 
Q 33.40625 -1.421875 27.6875 -1.421875 
Q 18.265625 -1.421875 13.375 4.4375 
Q 8.5 10.296875 8.5 21.578125 
z
M 31.109375 56 
z
" id="DejaVuSans-117"/>
      <path d="M 48.6875 27.296875 
Q 48.6875 37.203125 44.609375 42.84375 
Q 40.53125 48.484375 33.40625 48.484375 
Q 26.265625 48.484375 22.1875 42.84375 
Q 18.109375 37.203125 18.109375 27.296875 
Q 18.109375 17.390625 22.1875 11.75 
Q 26.265625 6.109375 33.40625 6.109375 
Q 40.53125 6.109375 44.609375 11.75 
Q 48.6875 17.390625 48.6875 27.296875 
z
M 18.109375 46.390625 
Q 20.953125 51.265625 25.265625 53.625 
Q 29.59375 56 35.59375 56 
Q 45.5625 56 51.78125 48.09375 
Q 58.015625 40.1875 58.015625 27.296875 
Q 58.015625 14.40625 51.78125 6.484375 
Q 45.5625 -1.421875 35.59375 -1.421875 
Q 29.59375 -1.421875 25.265625 0.953125 
Q 20.953125 3.328125 18.109375 8.203125 
L 18.109375 0 
L 9.078125 0 
L 9.078125 75.984375 
L 18.109375 75.984375 
z
" id="DejaVuSans-98"/>
      <path d="M 41.109375 46.296875 
Q 39.59375 47.171875 37.8125 47.578125 
Q 36.03125 48 33.890625 48 
Q 26.265625 48 22.1875 43.046875 
Q 18.109375 38.09375 18.109375 28.8125 
L 18.109375 0 
L 9.078125 0 
L 9.078125 54.6875 
L 18.109375 54.6875 
L 18.109375 46.1875 
Q 20.953125 51.171875 25.484375 53.578125 
Q 30.03125 56 36.53125 56 
Q 37.453125 56 38.578125 55.875 
Q 39.703125 55.765625 41.0625 55.515625 
z
" id="DejaVuSans-114"/>
      <path d="M 19.671875 64.796875 
L 19.671875 8.109375 
L 31.59375 8.109375 
Q 46.6875 8.109375 53.6875 14.9375 
Q 60.6875 21.78125 60.6875 36.53125 
Q 60.6875 51.171875 53.6875 57.984375 
Q 46.6875 64.796875 31.59375 64.796875 
z
M 9.8125 72.90625 
L 30.078125 72.90625 
Q 51.265625 72.90625 61.171875 64.09375 
Q 71.09375 55.28125 71.09375 36.53125 
Q 71.09375 17.671875 61.125 8.828125 
Q 51.171875 0 30.078125 0 
L 9.8125 0 
z
" id="DejaVuSans-68"/>
      <path d="M 18.3125 70.21875 
L 18.3125 54.6875 
L 36.8125 54.6875 
L 36.8125 47.703125 
L 18.3125 47.703125 
L 18.3125 18.015625 
Q 18.3125 11.328125 20.140625 9.421875 
Q 21.96875 7.515625 27.59375 7.515625 
L 36.8125 7.515625 
L 36.8125 0 
L 27.59375 0 
Q 17.1875 0 13.234375 3.875 
Q 9.28125 7.765625 9.28125 18.015625 
L 9.28125 47.703125 
L 2.6875 47.703125 
L 2.6875 54.6875 
L 9.28125 54.6875 
L 9.28125 70.21875 
z
" id="DejaVuSans-116"/>
      <path d="M 32.171875 -5.078125 
Q 28.375 -14.84375 24.75 -17.8125 
Q 21.140625 -20.796875 15.09375 -20.796875 
L 7.90625 -20.796875 
L 7.90625 -13.28125 
L 13.1875 -13.28125 
Q 16.890625 -13.28125 18.9375 -11.515625 
Q 21 -9.765625 23.484375 -3.21875 
L 25.09375 0.875 
L 2.984375 54.6875 
L 12.5 54.6875 
L 29.59375 11.921875 
L 46.6875 54.6875 
L 56.203125 54.6875 
z
" id="DejaVuSans-121"/>
      <path d="M 45.40625 46.390625 
L 45.40625 75.984375 
L 54.390625 75.984375 
L 54.390625 0 
L 45.40625 0 
L 45.40625 8.203125 
Q 42.578125 3.328125 38.25 0.953125 
Q 33.9375 -1.421875 27.875 -1.421875 
Q 17.96875 -1.421875 11.734375 6.484375 
Q 5.515625 14.40625 5.515625 27.296875 
Q 5.515625 40.1875 11.734375 48.09375 
Q 17.96875 56 27.875 56 
Q 33.9375 56 38.25 53.625 
Q 42.578125 51.265625 45.40625 46.390625 
z
M 14.796875 27.296875 
Q 14.796875 17.390625 18.875 11.75 
Q 22.953125 6.109375 30.078125 6.109375 
Q 37.203125 6.109375 41.296875 11.75 
Q 45.40625 17.390625 45.40625 27.296875 
Q 45.40625 37.203125 41.296875 42.84375 
Q 37.203125 48.484375 30.078125 48.484375 
Q 22.953125 48.484375 18.875 42.84375 
Q 14.796875 37.203125 14.796875 27.296875 
z
" id="DejaVuSans-100"/>
     </defs>
     <g transform="translate(23.823854 337.458906)rotate(-90)scale(0.166667 -0.166667)">
      <use xlink:href="#DejaVuSans-78"/>
      <use x="74.804688" xlink:href="#DejaVuSans-117"/>
      <use x="138.183594" xlink:href="#DejaVuSans-109"/>
      <use x="235.595703" xlink:href="#DejaVuSans-98"/>
      <use x="299.072266" xlink:href="#DejaVuSans-101"/>
      <use x="360.595703" xlink:href="#DejaVuSans-114"/>
      <use x="401.708984" xlink:href="#DejaVuSans-32"/>
      <use x="433.496094" xlink:href="#DejaVuSans-111"/>
      <use x="494.677734" xlink:href="#DejaVuSans-102"/>
      <use x="529.882812" xlink:href="#DejaVuSans-32"/>
      <use x="561.669922" xlink:href="#DejaVuSans-68"/>
      <use x="638.671875" xlink:href="#DejaVuSans-101"/>
      <use x="700.195312" xlink:href="#DejaVuSans-102"/>
      <use x="735.400391" xlink:href="#DejaVuSans-32"/>
      <use x="767.1875" xlink:href="#DejaVuSans-115"/>
      <use x="819.287109" xlink:href="#DejaVuSans-116"/>
      <use x="858.496094" xlink:href="#DejaVuSans-114"/>
      <use x="899.609375" xlink:href="#DejaVuSans-97"/>
      <use x="960.888672" xlink:href="#DejaVuSans-116"/>
      <use x="1000.097656" xlink:href="#DejaVuSans-101"/>
      <use x="1061.621094" xlink:href="#DejaVuSans-103"/>
      <use x="1125.097656" xlink:href="#DejaVuSans-121"/>
      <use x="1184.277344" xlink:href="#DejaVuSans-32"/>
      <use x="1216.064453" xlink:href="#DejaVuSans-117"/>
      <use x="1279.443359" xlink:href="#DejaVuSans-115"/>
      <use x="1331.542969" xlink:href="#DejaVuSans-101"/>
      <use x="1393.066406" xlink:href="#DejaVuSans-100"/>
     </g>
    </g>
   </g>
   <g id="line2d_15">
    <path clip-path="url(#pd024849463)" d="M 84.100785 95.719481 
L 85.804616 80.189091 
L 87.508448 157.841039 
L 89.212279 150.075844 
L 90.91611 204.432208 
L 92.619942 212.197403 
L 94.323773 212.197403 
L 96.027604 235.492987 
L 97.731436 251.023377 
L 99.435267 274.318961 
L 101.139099 289.849351 
L 104.546761 258.788571 
L 106.250593 313.144935 
L 107.954424 305.37974 
L 109.658255 305.37974 
L 111.362087 328.675325 
L 114.76975 282.084156 
L 116.473581 320.91013 
L 118.177412 305.37974 
L 119.881244 313.144935 
L 121.585075 305.37974 
L 123.288906 344.205714 
L 124.992738 320.91013 
L 126.696569 313.144935 
L 128.4004 313.144935 
L 130.104232 328.675325 
L 131.808063 336.440519 
L 133.511895 336.440519 
L 135.215726 320.91013 
L 138.623389 320.91013 
L 140.32722 328.675325 
L 142.031051 305.37974 
L 143.734883 328.675325 
L 148.846377 305.37974 
L 150.550208 289.849351 
L 152.25404 289.849351 
L 153.957871 282.084156 
L 155.661702 297.614545 
L 157.365534 289.849351 
L 159.069365 313.144935 
L 160.773196 297.614545 
L 167.588522 328.675325 
L 170.996185 313.144935 
L 172.700016 320.91013 
L 174.403847 320.91013 
L 176.107679 328.675325 
L 177.81151 344.205714 
L 179.515342 344.205714 
L 181.219173 336.440519 
L 182.923004 336.440519 
L 184.626836 344.205714 
L 186.330667 336.440519 
L 189.73833 336.440519 
L 191.442161 344.205714 
L 193.145993 344.205714 
L 194.849824 351.970909 
L 198.257487 336.440519 
L 199.961318 336.440519 
L 201.665149 328.675325 
L 203.368981 344.205714 
L 205.072812 336.440519 
L 206.776643 351.970909 
L 208.480475 351.970909 
L 210.184306 344.205714 
L 211.888138 328.675325 
L 213.591969 336.440519 
L 215.2958 328.675325 
L 216.999632 336.440519 
L 218.703463 336.440519 
L 220.407294 344.205714 
L 223.814957 344.205714 
L 225.518789 336.440519 
L 227.22262 336.440519 
L 228.926451 328.675325 
L 234.037945 328.675325 
L 235.741777 351.970909 
L 237.445608 328.675325 
L 239.149439 344.205714 
L 240.853271 336.440519 
L 244.260934 351.970909 
L 251.076259 351.970909 
L 252.78009 344.205714 
L 254.483922 351.970909 
L 256.187753 344.205714 
L 257.891585 344.205714 
L 259.595416 336.440519 
L 261.299247 344.205714 
L 264.70691 328.675325 
L 266.410741 336.440519 
L 268.114573 328.675325 
L 269.818404 328.675325 
L 271.522236 336.440519 
L 273.226067 351.970909 
L 274.929898 344.205714 
L 276.63373 344.205714 
L 278.337561 351.970909 
L 309.006526 351.970909 
L 310.710357 344.205714 
L 314.11802 344.205714 
L 315.821851 351.970909 
L 317.525682 351.970909 
L 319.229514 344.205714 
L 320.933345 351.970909 
L 322.637177 344.205714 
L 324.341008 344.205714 
L 326.044839 351.970909 
L 344.786984 351.970909 
L 346.490816 344.205714 
L 348.194647 344.205714 
L 349.898478 351.970909 
L 433.386216 351.970909 
L 435.090047 344.205714 
L 443.609204 344.205714 
L 445.313035 351.970909 
L 447.016867 344.205714 
L 455.536023 344.205714 
L 457.239855 351.970909 
L 458.943686 351.970909 
L 460.647518 344.205714 
L 464.05518 344.205714 
L 465.759012 351.970909 
L 491.316482 351.970909 
L 491.316482 351.970909 
" style="fill:none;stroke:#1f77b4;stroke-linecap:square;stroke-width:1.5;"/>
   </g>
   <g id="line2d_16">
    <path clip-path="url(#pd024849463)" d="M 84.100785 351.970909 
L 85.804616 344.205714 
L 87.508448 313.144935 
L 90.91611 297.614545 
L 92.619942 258.788571 
L 94.323773 274.318961 
L 96.027604 258.788571 
L 99.435267 289.849351 
L 101.139099 251.023377 
L 102.84293 266.553766 
L 104.546761 289.849351 
L 106.250593 258.788571 
L 107.954424 289.849351 
L 109.658255 243.258182 
L 111.362087 274.318961 
L 113.065918 274.318961 
L 114.76975 289.849351 
L 116.473581 297.614545 
L 118.177412 282.084156 
L 119.881244 258.788571 
L 121.585075 282.084156 
L 123.288906 289.849351 
L 124.992738 282.084156 
L 126.696569 328.675325 
L 128.4004 282.084156 
L 131.808063 251.023377 
L 133.511895 282.084156 
L 135.215726 305.37974 
L 136.919557 274.318961 
L 138.623389 297.614545 
L 140.32722 282.084156 
L 142.031051 320.91013 
L 143.734883 289.849351 
L 145.438714 297.614545 
L 147.142546 274.318961 
L 148.846377 297.614545 
L 150.550208 305.37974 
L 152.25404 336.440519 
L 153.957871 313.144935 
L 155.661702 313.144935 
L 157.365534 320.91013 
L 159.069365 258.788571 
L 160.773196 313.144935 
L 162.477028 313.144935 
L 164.180859 289.849351 
L 165.884691 289.849351 
L 167.588522 274.318961 
L 169.292353 282.084156 
L 170.996185 297.614545 
L 172.700016 282.084156 
L 174.403847 289.849351 
L 176.107679 289.849351 
L 177.81151 328.675325 
L 179.515342 297.614545 
L 181.219173 320.91013 
L 182.923004 313.144935 
L 184.626836 289.849351 
L 186.330667 328.675325 
L 188.034498 313.144935 
L 189.73833 305.37974 
L 191.442161 328.675325 
L 194.849824 313.144935 
L 196.553655 297.614545 
L 198.257487 320.91013 
L 201.665149 336.440519 
L 203.368981 313.144935 
L 205.072812 320.91013 
L 206.776643 336.440519 
L 208.480475 313.144935 
L 210.184306 305.37974 
L 213.591969 320.91013 
L 215.2958 297.614545 
L 216.999632 351.970909 
L 220.407294 305.37974 
L 222.111126 320.91013 
L 223.814957 313.144935 
L 225.518789 336.440519 
L 227.22262 313.144935 
L 228.926451 336.440519 
L 230.630283 328.675325 
L 234.037945 344.205714 
L 235.741777 320.91013 
L 237.445608 328.675325 
L 239.149439 344.205714 
L 240.853271 351.970909 
L 242.557102 344.205714 
L 244.260934 328.675325 
L 245.964765 336.440519 
L 247.668596 328.675325 
L 251.076259 344.205714 
L 252.78009 328.675325 
L 254.483922 336.440519 
L 256.187753 351.970909 
L 257.891585 328.675325 
L 259.595416 344.205714 
L 261.299247 351.970909 
L 263.003079 328.675325 
L 264.70691 328.675325 
L 266.410741 351.970909 
L 268.114573 328.675325 
L 269.818404 344.205714 
L 271.522236 351.970909 
L 273.226067 336.440519 
L 274.929898 344.205714 
L 276.63373 344.205714 
L 278.337561 328.675325 
L 280.041392 328.675325 
L 283.449055 344.205714 
L 285.152886 328.675325 
L 286.856718 344.205714 
L 288.560549 336.440519 
L 290.264381 336.440519 
L 291.968212 351.970909 
L 295.375875 351.970909 
L 297.079706 328.675325 
L 298.783537 344.205714 
L 300.487369 351.970909 
L 303.895032 351.970909 
L 305.598863 344.205714 
L 307.302694 344.205714 
L 309.006526 351.970909 
L 310.710357 336.440519 
L 312.414188 351.970909 
L 314.11802 344.205714 
L 315.821851 351.970909 
L 320.933345 351.970909 
L 322.637177 344.205714 
L 324.341008 344.205714 
L 326.044839 351.970909 
L 327.748671 344.205714 
L 329.452502 351.970909 
L 332.860165 336.440519 
L 334.563996 344.205714 
L 337.971659 344.205714 
L 339.67549 336.440519 
L 341.379322 351.970909 
L 343.083153 344.205714 
L 344.786984 351.970909 
L 346.490816 351.970909 
L 348.194647 344.205714 
L 351.60231 344.205714 
L 353.306141 328.675325 
L 355.009973 351.970909 
L 356.713804 351.970909 
L 358.417635 336.440519 
L 360.121467 351.970909 
L 361.825298 351.970909 
L 363.529129 336.440519 
L 366.936792 351.970909 
L 373.752118 351.970909 
L 375.455949 344.205714 
L 377.15978 351.970909 
L 380.567443 351.970909 
L 382.271275 344.205714 
L 383.975106 351.970909 
L 406.124914 351.970909 
L 407.828745 344.205714 
L 409.532576 351.970909 
L 418.051733 351.970909 
L 419.755565 344.205714 
L 421.459396 351.970909 
L 424.867059 351.970909 
L 426.57089 344.205714 
L 428.274721 351.970909 
L 467.462843 351.970909 
L 469.166674 344.205714 
L 472.574337 344.205714 
L 474.278168 351.970909 
L 475.982 344.205714 
L 477.685831 351.970909 
L 479.389663 344.205714 
L 481.093494 351.970909 
L 491.316482 351.970909 
L 491.316482 351.970909 
" style="fill:none;stroke:#ff7f0e;stroke-linecap:square;stroke-width:1.5;"/>
   </g>
   <g id="line2d_17">
    <path clip-path="url(#pd024849463)" d="M 84.100785 351.970909 
L 89.212279 351.970909 
L 90.91611 336.440519 
L 92.619942 336.440519 
L 94.323773 313.144935 
L 96.027604 336.440519 
L 97.731436 328.675325 
L 99.435267 336.440519 
L 101.139099 274.318961 
L 102.84293 313.144935 
L 104.546761 289.849351 
L 106.250593 320.91013 
L 107.954424 289.849351 
L 109.658255 289.849351 
L 111.362087 328.675325 
L 113.065918 289.849351 
L 114.76975 320.91013 
L 116.473581 305.37974 
L 119.881244 305.37974 
L 121.585075 320.91013 
L 123.288906 313.144935 
L 124.992738 282.084156 
L 126.696569 305.37974 
L 128.4004 305.37974 
L 130.104232 297.614545 
L 131.808063 313.144935 
L 133.511895 320.91013 
L 135.215726 305.37974 
L 138.623389 320.91013 
L 140.32722 282.084156 
L 142.031051 282.084156 
L 143.734883 305.37974 
L 147.142546 305.37974 
L 148.846377 336.440519 
L 150.550208 305.37974 
L 152.25404 320.91013 
L 153.957871 297.614545 
L 155.661702 305.37974 
L 157.365534 328.675325 
L 159.069365 328.675325 
L 160.773196 320.91013 
L 162.477028 328.675325 
L 164.180859 320.91013 
L 165.884691 320.91013 
L 167.588522 336.440519 
L 169.292353 328.675325 
L 170.996185 336.440519 
L 172.700016 320.91013 
L 174.403847 313.144935 
L 176.107679 313.144935 
L 179.515342 328.675325 
L 181.219173 305.37974 
L 182.923004 313.144935 
L 184.626836 297.614545 
L 186.330667 289.849351 
L 188.034498 320.91013 
L 189.73833 336.440519 
L 193.145993 320.91013 
L 194.849824 336.440519 
L 196.553655 320.91013 
L 198.257487 328.675325 
L 199.961318 313.144935 
L 201.665149 282.084156 
L 203.368981 344.205714 
L 205.072812 344.205714 
L 206.776643 328.675325 
L 210.184306 328.675325 
L 213.591969 344.205714 
L 215.2958 336.440519 
L 216.999632 336.440519 
L 218.703463 313.144935 
L 220.407294 336.440519 
L 222.111126 328.675325 
L 223.814957 344.205714 
L 225.518789 336.440519 
L 228.926451 351.970909 
L 230.630283 344.205714 
L 232.334114 351.970909 
L 234.037945 336.440519 
L 237.445608 351.970909 
L 239.149439 328.675325 
L 240.853271 328.675325 
L 242.557102 351.970909 
L 244.260934 336.440519 
L 245.964765 336.440519 
L 247.668596 351.970909 
L 249.372428 336.440519 
L 252.78009 351.970909 
L 254.483922 351.970909 
L 257.891585 336.440519 
L 259.595416 344.205714 
L 264.70691 344.205714 
L 266.410741 351.970909 
L 269.818404 351.970909 
L 271.522236 328.675325 
L 273.226067 344.205714 
L 274.929898 351.970909 
L 276.63373 328.675325 
L 278.337561 344.205714 
L 280.041392 351.970909 
L 283.449055 336.440519 
L 285.152886 336.440519 
L 286.856718 344.205714 
L 288.560549 344.205714 
L 290.264381 351.970909 
L 291.968212 351.970909 
L 293.672043 336.440519 
L 297.079706 351.970909 
L 300.487369 336.440519 
L 302.1912 351.970909 
L 303.895032 336.440519 
L 305.598863 336.440519 
L 307.302694 344.205714 
L 310.710357 344.205714 
L 312.414188 336.440519 
L 314.11802 351.970909 
L 315.821851 351.970909 
L 317.525682 344.205714 
L 319.229514 344.205714 
L 320.933345 351.970909 
L 322.637177 344.205714 
L 326.044839 344.205714 
L 327.748671 351.970909 
L 329.452502 344.205714 
L 332.860165 344.205714 
L 334.563996 351.970909 
L 336.267828 344.205714 
L 337.971659 344.205714 
L 339.67549 351.970909 
L 346.490816 351.970909 
L 348.194647 344.205714 
L 349.898478 351.970909 
L 351.60231 344.205714 
L 353.306141 351.970909 
L 355.009973 351.970909 
L 356.713804 344.205714 
L 358.417635 351.970909 
L 360.121467 344.205714 
L 361.825298 351.970909 
L 366.936792 351.970909 
L 368.640624 344.205714 
L 370.344455 344.205714 
L 372.048286 351.970909 
L 373.752118 344.205714 
L 375.455949 351.970909 
L 377.15978 351.970909 
L 378.863612 344.205714 
L 380.567443 351.970909 
L 389.0866 351.970909 
L 390.790431 344.205714 
L 392.494263 351.970909 
L 397.605757 351.970909 
L 399.309588 344.205714 
L 401.01342 351.970909 
L 404.421082 351.970909 
L 406.124914 344.205714 
L 407.828745 351.970909 
L 409.532576 344.205714 
L 411.236408 351.970909 
L 426.57089 351.970909 
L 428.274721 344.205714 
L 429.978553 351.970909 
L 431.682384 344.205714 
L 433.386216 351.970909 
L 472.574337 351.970909 
L 474.278168 344.205714 
L 475.982 351.970909 
L 479.389663 351.970909 
L 481.093494 344.205714 
L 482.797325 351.970909 
L 486.204988 351.970909 
L 487.908819 344.205714 
L 489.612651 351.970909 
L 491.316482 351.970909 
L 491.316482 351.970909 
" style="fill:none;stroke:#2ca02c;stroke-linecap:square;stroke-width:1.5;"/>
   </g>
   <g id="line2d_18">
    <path clip-path="url(#pd024849463)" d="M 84.100785 351.970909 
L 87.508448 351.970909 
L 89.212279 344.205714 
L 90.91611 351.970909 
L 92.619942 336.440519 
L 94.323773 351.970909 
L 97.731436 336.440519 
L 99.435267 344.205714 
L 101.139099 344.205714 
L 102.84293 351.970909 
L 106.250593 336.440519 
L 107.954424 344.205714 
L 109.658255 344.205714 
L 111.362087 336.440519 
L 113.065918 351.970909 
L 116.473581 320.91013 
L 118.177412 351.970909 
L 119.881244 328.675325 
L 121.585075 328.675325 
L 123.288906 351.970909 
L 131.808063 351.970909 
L 133.511895 313.144935 
L 135.215726 336.440519 
L 138.623389 351.970909 
L 140.32722 351.970909 
L 142.031051 336.440519 
L 143.734883 336.440519 
L 145.438714 351.970909 
L 147.142546 351.970909 
L 148.846377 336.440519 
L 150.550208 328.675325 
L 152.25404 351.970909 
L 153.957871 336.440519 
L 155.661702 336.440519 
L 159.069365 351.970909 
L 160.773196 351.970909 
L 162.477028 344.205714 
L 164.180859 351.970909 
L 165.884691 351.970909 
L 167.588522 328.675325 
L 169.292353 351.970909 
L 170.996185 344.205714 
L 172.700016 344.205714 
L 174.403847 351.970909 
L 177.81151 320.91013 
L 179.515342 351.970909 
L 181.219173 351.970909 
L 182.923004 344.205714 
L 184.626836 351.970909 
L 186.330667 344.205714 
L 188.034498 351.970909 
L 189.73833 344.205714 
L 191.442161 351.970909 
L 193.145993 344.205714 
L 194.849824 351.970909 
L 196.553655 336.440519 
L 198.257487 344.205714 
L 199.961318 344.205714 
L 201.665149 351.970909 
L 203.368981 344.205714 
L 205.072812 351.970909 
L 206.776643 344.205714 
L 208.480475 351.970909 
L 210.184306 344.205714 
L 211.888138 344.205714 
L 213.591969 351.970909 
L 216.999632 351.970909 
L 218.703463 336.440519 
L 220.407294 336.440519 
L 222.111126 351.970909 
L 225.518789 336.440519 
L 227.22262 344.205714 
L 228.926451 336.440519 
L 232.334114 351.970909 
L 234.037945 351.970909 
L 235.741777 344.205714 
L 239.149439 344.205714 
L 240.853271 336.440519 
L 242.557102 351.970909 
L 244.260934 351.970909 
L 245.964765 344.205714 
L 247.668596 351.970909 
L 249.372428 351.970909 
L 251.076259 344.205714 
L 252.78009 351.970909 
L 266.410741 351.970909 
L 268.114573 344.205714 
L 269.818404 351.970909 
L 271.522236 344.205714 
L 273.226067 351.970909 
L 283.449055 351.970909 
L 285.152886 344.205714 
L 286.856718 351.970909 
L 293.672043 351.970909 
L 295.375875 344.205714 
L 297.079706 351.970909 
L 310.710357 351.970909 
L 312.414188 344.205714 
L 315.821851 344.205714 
L 317.525682 351.970909 
L 326.044839 351.970909 
L 327.748671 344.205714 
L 329.452502 351.970909 
L 339.67549 351.970909 
L 341.379322 344.205714 
L 343.083153 351.970909 
L 365.232961 351.970909 
L 366.936792 344.205714 
L 368.640624 351.970909 
L 380.567443 351.970909 
L 382.271275 344.205714 
L 383.975106 351.970909 
L 489.612651 351.970909 
L 491.316482 344.205714 
L 491.316482 344.205714 
" style="fill:none;stroke:#d62728;stroke-linecap:square;stroke-width:1.5;"/>
   </g>
   <g id="line2d_19">
    <path clip-path="url(#pd024849463)" d="M 84.100785 351.970909 
L 90.91611 351.970909 
L 92.619942 344.205714 
L 94.323773 351.970909 
L 97.731436 351.970909 
L 99.435267 336.440519 
L 101.139099 351.970909 
L 102.84293 336.440519 
L 106.250593 351.970909 
L 107.954424 344.205714 
L 109.658255 344.205714 
L 111.362087 351.970909 
L 113.065918 351.970909 
L 114.76975 344.205714 
L 116.473581 344.205714 
L 118.177412 336.440519 
L 119.881244 336.440519 
L 123.288906 320.91013 
L 124.992738 344.205714 
L 126.696569 351.970909 
L 130.104232 351.970909 
L 133.511895 336.440519 
L 135.215726 336.440519 
L 136.919557 351.970909 
L 138.623389 344.205714 
L 140.32722 344.205714 
L 142.031051 336.440519 
L 143.734883 351.970909 
L 145.438714 336.440519 
L 148.846377 351.970909 
L 153.957871 351.970909 
L 155.661702 344.205714 
L 157.365534 344.205714 
L 159.069365 351.970909 
L 160.773196 344.205714 
L 165.884691 344.205714 
L 167.588522 336.440519 
L 169.292353 344.205714 
L 170.996185 344.205714 
L 172.700016 351.970909 
L 174.403847 336.440519 
L 177.81151 351.970909 
L 181.219173 351.970909 
L 182.923004 344.205714 
L 184.626836 351.970909 
L 186.330667 320.91013 
L 188.034498 344.205714 
L 189.73833 351.970909 
L 191.442161 344.205714 
L 193.145993 351.970909 
L 196.553655 336.440519 
L 199.961318 351.970909 
L 201.665149 344.205714 
L 203.368981 344.205714 
L 205.072812 336.440519 
L 206.776643 336.440519 
L 208.480475 351.970909 
L 215.2958 351.970909 
L 216.999632 344.205714 
L 218.703463 351.970909 
L 220.407294 344.205714 
L 222.111126 351.970909 
L 223.814957 313.144935 
L 225.518789 344.205714 
L 232.334114 344.205714 
L 234.037945 351.970909 
L 239.149439 351.970909 
L 240.853271 344.205714 
L 242.557102 344.205714 
L 244.260934 351.970909 
L 245.964765 351.970909 
L 247.668596 344.205714 
L 249.372428 351.970909 
L 251.076259 351.970909 
L 252.78009 344.205714 
L 254.483922 344.205714 
L 256.187753 351.970909 
L 278.337561 351.970909 
L 280.041392 344.205714 
L 281.745224 351.970909 
L 307.302694 351.970909 
L 309.006526 344.205714 
L 310.710357 351.970909 
L 491.316482 351.970909 
L 491.316482 351.970909 
" style="fill:none;stroke:#9467bd;stroke-linecap:square;stroke-width:1.5;"/>
   </g>
   <g id="line2d_20">
    <path clip-path="url(#pd024849463)" d="M 84.100785 351.970909 
L 89.212279 351.970909 
L 90.91611 336.440519 
L 92.619942 351.970909 
L 94.323773 328.675325 
L 96.027604 336.440519 
L 97.731436 336.440519 
L 99.435267 320.91013 
L 101.139099 336.440519 
L 102.84293 328.675325 
L 104.546761 297.614545 
L 106.250593 305.37974 
L 107.954424 297.614545 
L 109.658255 320.91013 
L 111.362087 297.614545 
L 114.76975 282.084156 
L 116.473581 289.849351 
L 118.177412 243.258182 
L 119.881244 313.144935 
L 121.585075 305.37974 
L 123.288906 289.849351 
L 124.992738 305.37974 
L 126.696569 297.614545 
L 128.4004 305.37974 
L 130.104232 266.553766 
L 131.808063 274.318961 
L 133.511895 320.91013 
L 135.215726 313.144935 
L 136.919557 282.084156 
L 138.623389 266.553766 
L 140.32722 282.084156 
L 142.031051 305.37974 
L 143.734883 266.553766 
L 145.438714 274.318961 
L 147.142546 274.318961 
L 148.846377 251.023377 
L 150.550208 344.205714 
L 152.25404 289.849351 
L 153.957871 313.144935 
L 155.661702 305.37974 
L 157.365534 320.91013 
L 159.069365 305.37974 
L 160.773196 313.144935 
L 162.477028 282.084156 
L 164.180859 320.91013 
L 165.884691 313.144935 
L 167.588522 313.144935 
L 169.292353 282.084156 
L 170.996185 297.614545 
L 172.700016 320.91013 
L 174.403847 328.675325 
L 176.107679 282.084156 
L 177.81151 305.37974 
L 181.219173 305.37974 
L 184.626836 320.91013 
L 188.034498 305.37974 
L 189.73833 305.37974 
L 191.442161 266.553766 
L 193.145993 297.614545 
L 194.849824 320.91013 
L 196.553655 328.675325 
L 198.257487 282.084156 
L 199.961318 305.37974 
L 201.665149 313.144935 
L 203.368981 313.144935 
L 205.072812 305.37974 
L 206.776643 289.849351 
L 208.480475 328.675325 
L 211.888138 282.084156 
L 213.591969 328.675325 
L 215.2958 313.144935 
L 216.999632 305.37974 
L 218.703463 320.91013 
L 222.111126 336.440519 
L 225.518789 336.440519 
L 227.22262 320.91013 
L 230.630283 320.91013 
L 232.334114 336.440519 
L 234.037945 320.91013 
L 235.741777 344.205714 
L 237.445608 313.144935 
L 239.149439 336.440519 
L 240.853271 328.675325 
L 242.557102 313.144935 
L 244.260934 351.970909 
L 245.964765 328.675325 
L 247.668596 328.675325 
L 249.372428 336.440519 
L 251.076259 328.675325 
L 252.78009 351.970909 
L 254.483922 328.675325 
L 257.891585 328.675325 
L 259.595416 320.91013 
L 261.299247 344.205714 
L 264.70691 344.205714 
L 266.410741 328.675325 
L 268.114573 336.440519 
L 269.818404 328.675325 
L 271.522236 351.970909 
L 273.226067 344.205714 
L 276.63373 344.205714 
L 278.337561 336.440519 
L 280.041392 344.205714 
L 281.745224 336.440519 
L 285.152886 351.970909 
L 286.856718 344.205714 
L 288.560549 344.205714 
L 290.264381 336.440519 
L 295.375875 336.440519 
L 297.079706 351.970909 
L 298.783537 328.675325 
L 300.487369 336.440519 
L 302.1912 336.440519 
L 303.895032 320.91013 
L 305.598863 336.440519 
L 307.302694 336.440519 
L 309.006526 344.205714 
L 310.710357 336.440519 
L 312.414188 344.205714 
L 314.11802 328.675325 
L 315.821851 336.440519 
L 317.525682 328.675325 
L 322.637177 351.970909 
L 324.341008 344.205714 
L 327.748671 344.205714 
L 329.452502 336.440519 
L 332.860165 351.970909 
L 334.563996 344.205714 
L 336.267828 351.970909 
L 339.67549 336.440519 
L 341.379322 344.205714 
L 343.083153 344.205714 
L 344.786984 336.440519 
L 346.490816 351.970909 
L 348.194647 351.970909 
L 349.898478 336.440519 
L 351.60231 351.970909 
L 353.306141 351.970909 
L 355.009973 336.440519 
L 356.713804 351.970909 
L 358.417635 344.205714 
L 360.121467 351.970909 
L 361.825298 336.440519 
L 363.529129 351.970909 
L 365.232961 336.440519 
L 366.936792 344.205714 
L 373.752118 344.205714 
L 375.455949 351.970909 
L 377.15978 344.205714 
L 378.863612 351.970909 
L 380.567443 344.205714 
L 382.271275 351.970909 
L 383.975106 351.970909 
L 385.678937 344.205714 
L 387.382769 351.970909 
L 389.0866 344.205714 
L 390.790431 351.970909 
L 392.494263 344.205714 
L 394.198094 351.970909 
L 399.309588 351.970909 
L 401.01342 344.205714 
L 402.717251 344.205714 
L 404.421082 351.970909 
L 409.532576 351.970909 
L 411.236408 344.205714 
L 418.051733 344.205714 
L 419.755565 351.970909 
L 421.459396 351.970909 
L 423.163227 344.205714 
L 424.867059 344.205714 
L 426.57089 351.970909 
L 428.274721 351.970909 
L 429.978553 344.205714 
L 431.682384 351.970909 
L 433.386216 344.205714 
L 435.090047 351.970909 
L 484.501157 351.970909 
L 486.204988 344.205714 
L 487.908819 351.970909 
L 491.316482 351.970909 
L 491.316482 351.970909 
" style="fill:none;stroke:#8c564b;stroke-linecap:square;stroke-width:1.5;"/>
   </g>
   <g id="line2d_21">
    <path clip-path="url(#pd024849463)" d="M 84.100785 351.970909 
L 85.804616 351.970909 
L 87.508448 344.205714 
L 89.212279 351.970909 
L 90.91611 344.205714 
L 92.619942 328.675325 
L 94.323773 336.440519 
L 96.027604 320.91013 
L 97.731436 328.675325 
L 99.435267 305.37974 
L 101.139099 344.205714 
L 102.84293 289.849351 
L 104.546761 320.91013 
L 106.250593 320.91013 
L 107.954424 305.37974 
L 109.658255 305.37974 
L 111.362087 282.084156 
L 113.065918 305.37974 
L 116.473581 305.37974 
L 118.177412 320.91013 
L 119.881244 282.084156 
L 121.585075 251.023377 
L 123.288906 320.91013 
L 124.992738 297.614545 
L 126.696569 251.023377 
L 128.4004 282.084156 
L 130.104232 328.675325 
L 133.511895 297.614545 
L 136.919557 313.144935 
L 142.031051 289.849351 
L 143.734883 328.675325 
L 145.438714 320.91013 
L 147.142546 328.675325 
L 148.846377 313.144935 
L 150.550208 289.849351 
L 152.25404 313.144935 
L 153.957871 320.91013 
L 157.365534 305.37974 
L 159.069365 328.675325 
L 160.773196 320.91013 
L 162.477028 320.91013 
L 164.180859 297.614545 
L 167.588522 313.144935 
L 169.292353 328.675325 
L 170.996185 320.91013 
L 172.700016 328.675325 
L 174.403847 313.144935 
L 176.107679 336.440519 
L 177.81151 320.91013 
L 179.515342 320.91013 
L 181.219173 282.084156 
L 182.923004 305.37974 
L 184.626836 313.144935 
L 186.330667 328.675325 
L 188.034498 313.144935 
L 189.73833 320.91013 
L 191.442161 320.91013 
L 193.145993 305.37974 
L 194.849824 313.144935 
L 196.553655 328.675325 
L 198.257487 313.144935 
L 199.961318 313.144935 
L 201.665149 336.440519 
L 203.368981 297.614545 
L 205.072812 328.675325 
L 206.776643 320.91013 
L 208.480475 305.37974 
L 210.184306 344.205714 
L 211.888138 336.440519 
L 213.591969 320.91013 
L 215.2958 344.205714 
L 216.999632 328.675325 
L 218.703463 328.675325 
L 220.407294 336.440519 
L 223.814957 336.440519 
L 225.518789 328.675325 
L 227.22262 351.970909 
L 228.926451 328.675325 
L 230.630283 351.970909 
L 232.334114 344.205714 
L 234.037945 344.205714 
L 235.741777 328.675325 
L 237.445608 336.440519 
L 239.149439 336.440519 
L 240.853271 344.205714 
L 242.557102 344.205714 
L 244.260934 320.91013 
L 245.964765 336.440519 
L 247.668596 328.675325 
L 249.372428 328.675325 
L 252.78009 344.205714 
L 254.483922 344.205714 
L 256.187753 336.440519 
L 257.891585 351.970909 
L 259.595416 344.205714 
L 261.299247 320.91013 
L 263.003079 344.205714 
L 264.70691 351.970909 
L 266.410741 336.440519 
L 268.114573 351.970909 
L 269.818404 351.970909 
L 273.226067 336.440519 
L 274.929898 336.440519 
L 278.337561 351.970909 
L 280.041392 328.675325 
L 281.745224 328.675325 
L 285.152886 344.205714 
L 286.856718 328.675325 
L 288.560549 336.440519 
L 290.264381 336.440519 
L 291.968212 328.675325 
L 293.672043 344.205714 
L 295.375875 344.205714 
L 297.079706 336.440519 
L 298.783537 344.205714 
L 300.487369 328.675325 
L 302.1912 328.675325 
L 303.895032 344.205714 
L 305.598863 344.205714 
L 307.302694 336.440519 
L 309.006526 336.440519 
L 310.710357 344.205714 
L 312.414188 344.205714 
L 314.11802 351.970909 
L 319.229514 351.970909 
L 320.933345 328.675325 
L 326.044839 351.970909 
L 327.748671 344.205714 
L 329.452502 344.205714 
L 331.156333 351.970909 
L 332.860165 344.205714 
L 334.563996 344.205714 
L 336.267828 351.970909 
L 337.971659 344.205714 
L 339.67549 351.970909 
L 341.379322 344.205714 
L 343.083153 344.205714 
L 344.786984 351.970909 
L 346.490816 336.440519 
L 348.194647 351.970909 
L 349.898478 351.970909 
L 351.60231 344.205714 
L 353.306141 351.970909 
L 355.009973 344.205714 
L 356.713804 351.970909 
L 358.417635 351.970909 
L 360.121467 344.205714 
L 361.825298 351.970909 
L 365.232961 351.970909 
L 366.936792 344.205714 
L 368.640624 351.970909 
L 370.344455 351.970909 
L 372.048286 344.205714 
L 373.752118 351.970909 
L 377.15978 351.970909 
L 378.863612 344.205714 
L 380.567443 351.970909 
L 382.271275 351.970909 
L 383.975106 344.205714 
L 385.678937 351.970909 
L 387.382769 344.205714 
L 389.0866 351.970909 
L 392.494263 351.970909 
L 394.198094 344.205714 
L 395.901925 344.205714 
L 397.605757 351.970909 
L 464.05518 351.970909 
L 465.759012 344.205714 
L 467.462843 351.970909 
L 475.982 351.970909 
L 477.685831 344.205714 
L 479.389663 351.970909 
L 481.093494 351.970909 
L 482.797325 344.205714 
L 484.501157 351.970909 
L 491.316482 351.970909 
L 491.316482 351.970909 
" style="fill:none;stroke:#e377c2;stroke-linecap:square;stroke-width:1.5;"/>
   </g>
   <g id="line2d_22">
    <path clip-path="url(#pd024849463)" d="M 84.100785 219.962597 
L 85.804616 243.258182 
L 87.508448 204.432208 
L 89.212279 219.962597 
L 90.91611 204.432208 
L 92.619942 258.788571 
L 94.323773 258.788571 
L 96.027604 243.258182 
L 97.731436 219.962597 
L 99.435267 219.962597 
L 101.139099 235.492987 
L 102.84293 266.553766 
L 104.546761 282.084156 
L 106.250593 227.727792 
L 107.954424 258.788571 
L 109.658255 282.084156 
L 111.362087 235.492987 
L 113.065918 266.553766 
L 114.76975 274.318961 
L 116.473581 251.023377 
L 118.177412 305.37974 
L 119.881244 313.144935 
L 121.585075 336.440519 
L 123.288906 235.492987 
L 124.992738 282.084156 
L 126.696569 266.553766 
L 128.4004 274.318961 
L 130.104232 274.318961 
L 131.808063 282.084156 
L 133.511895 258.788571 
L 135.215726 258.788571 
L 136.919557 289.849351 
L 138.623389 282.084156 
L 140.32722 320.91013 
L 142.031051 313.144935 
L 143.734883 282.084156 
L 145.438714 282.084156 
L 147.142546 297.614545 
L 148.846377 297.614545 
L 150.550208 289.849351 
L 152.25404 258.788571 
L 153.957871 297.614545 
L 155.661702 305.37974 
L 157.365534 274.318961 
L 159.069365 297.614545 
L 160.773196 274.318961 
L 162.477028 297.614545 
L 164.180859 297.614545 
L 165.884691 289.849351 
L 167.588522 305.37974 
L 169.292353 297.614545 
L 170.996185 282.084156 
L 172.700016 274.318961 
L 174.403847 289.849351 
L 176.107679 313.144935 
L 177.81151 266.553766 
L 179.515342 282.084156 
L 181.219173 328.675325 
L 182.923004 313.144935 
L 186.330667 328.675325 
L 189.73833 297.614545 
L 191.442161 320.91013 
L 193.145993 320.91013 
L 194.849824 274.318961 
L 196.553655 313.144935 
L 198.257487 336.440519 
L 199.961318 320.91013 
L 201.665149 328.675325 
L 203.368981 320.91013 
L 205.072812 305.37974 
L 206.776643 320.91013 
L 208.480475 305.37974 
L 210.184306 313.144935 
L 211.888138 351.970909 
L 213.591969 297.614545 
L 215.2958 328.675325 
L 216.999632 297.614545 
L 218.703463 336.440519 
L 220.407294 328.675325 
L 222.111126 305.37974 
L 223.814957 344.205714 
L 225.518789 328.675325 
L 227.22262 344.205714 
L 228.926451 351.970909 
L 230.630283 336.440519 
L 232.334114 313.144935 
L 234.037945 328.675325 
L 235.741777 320.91013 
L 237.445608 351.970909 
L 239.149439 328.675325 
L 240.853271 351.970909 
L 242.557102 336.440519 
L 244.260934 336.440519 
L 247.668596 351.970909 
L 252.78009 328.675325 
L 254.483922 336.440519 
L 256.187753 336.440519 
L 257.891585 351.970909 
L 259.595416 351.970909 
L 261.299247 336.440519 
L 263.003079 344.205714 
L 264.70691 344.205714 
L 266.410741 336.440519 
L 268.114573 351.970909 
L 269.818404 336.440519 
L 273.226067 336.440519 
L 274.929898 328.675325 
L 276.63373 344.205714 
L 278.337561 336.440519 
L 280.041392 351.970909 
L 281.745224 351.970909 
L 283.449055 336.440519 
L 285.152886 344.205714 
L 290.264381 344.205714 
L 291.968212 336.440519 
L 297.079706 336.440519 
L 300.487369 351.970909 
L 302.1912 336.440519 
L 303.895032 351.970909 
L 305.598863 344.205714 
L 307.302694 344.205714 
L 309.006526 336.440519 
L 310.710357 351.970909 
L 312.414188 344.205714 
L 314.11802 344.205714 
L 315.821851 328.675325 
L 317.525682 344.205714 
L 320.933345 344.205714 
L 322.637177 351.970909 
L 324.341008 351.970909 
L 326.044839 328.675325 
L 327.748671 344.205714 
L 329.452502 351.970909 
L 331.156333 344.205714 
L 332.860165 351.970909 
L 336.267828 336.440519 
L 337.971659 351.970909 
L 339.67549 351.970909 
L 341.379322 344.205714 
L 343.083153 351.970909 
L 344.786984 344.205714 
L 346.490816 351.970909 
L 355.009973 351.970909 
L 356.713804 336.440519 
L 358.417635 351.970909 
L 360.121467 344.205714 
L 363.529129 344.205714 
L 365.232961 351.970909 
L 373.752118 351.970909 
L 375.455949 344.205714 
L 377.15978 344.205714 
L 378.863612 351.970909 
L 380.567443 344.205714 
L 382.271275 351.970909 
L 395.901925 351.970909 
L 397.605757 344.205714 
L 399.309588 351.970909 
L 402.717251 351.970909 
L 404.421082 344.205714 
L 406.124914 351.970909 
L 419.755565 351.970909 
L 421.459396 344.205714 
L 423.163227 351.970909 
L 443.609204 351.970909 
L 445.313035 344.205714 
L 447.016867 351.970909 
L 455.536023 351.970909 
L 457.239855 344.205714 
L 458.943686 344.205714 
L 460.647518 351.970909 
L 465.759012 351.970909 
L 467.462843 344.205714 
L 469.166674 351.970909 
L 482.797325 351.970909 
L 484.501157 344.205714 
L 486.204988 351.970909 
L 487.908819 351.970909 
L 489.612651 344.205714 
L 491.316482 351.970909 
L 491.316482 351.970909 
" style="fill:none;stroke:#7f7f7f;stroke-linecap:square;stroke-width:1.5;"/>
   </g>
   <g id="patch_3">
    <path d="M 63.74 365.56 
L 63.74 66.6 
" style="fill:none;stroke:#000000;stroke-linecap:square;stroke-linejoin:miter;stroke-width:0.8;"/>
   </g>
   <g id="patch_4">
    <path d="M 511.677267 365.56 
L 511.677267 66.6 
" style="fill:none;stroke:#000000;stroke-linecap:square;stroke-linejoin:miter;stroke-width:0.8;"/>
   </g>
   <g id="patch_5">
    <path d="M 63.74 365.56 
L 511.677267 365.56 
" style="fill:none;stroke:#000000;stroke-linecap:square;stroke-linejoin:miter;stroke-width:0.8;"/>
   </g>
   <g id="patch_6">
    <path d="M 63.74 66.6 
L 511.677267 66.6 
" style="fill:none;stroke:#000000;stroke-linecap:square;stroke-linejoin:miter;stroke-width:0.8;"/>
   </g>
   <g id="legend_1">
    <g id="patch_7">
     <path d="M 74.24 59.1 
L 501.177267 59.1 
Q 504.177267 59.1 504.177267 56.1 
L 504.177267 13.565625 
Q 504.177267 10.565625 501.177267 10.565625 
L 74.24 10.565625 
Q 71.24 10.565625 71.24 13.565625 
L 71.24 56.1 
Q 71.24 59.1 74.24 59.1 
z
" style="fill:#ffffff;opacity:0.8;stroke:#cccccc;stroke-linejoin:miter;"/>
    </g>
    <g id="line2d_23">
     <path d="M 77.24 22.713281 
L 107.24 22.713281 
" style="fill:none;stroke:#1f77b4;stroke-linecap:square;stroke-width:1.5;"/>
    </g>
    <g id="line2d_24"/>
    <g id="text_17">
     <!-- Stra 1 -->
     <defs>
      <path d="M 53.515625 70.515625 
L 53.515625 60.890625 
Q 47.90625 63.578125 42.921875 64.890625 
Q 37.9375 66.21875 33.296875 66.21875 
Q 25.25 66.21875 20.875 63.09375 
Q 16.5 59.96875 16.5 54.203125 
Q 16.5 49.359375 19.40625 46.890625 
Q 22.3125 44.4375 30.421875 42.921875 
L 36.375 41.703125 
Q 47.40625 39.59375 52.65625 34.296875 
Q 57.90625 29 57.90625 20.125 
Q 57.90625 9.515625 50.796875 4.046875 
Q 43.703125 -1.421875 29.984375 -1.421875 
Q 24.8125 -1.421875 18.96875 -0.25 
Q 13.140625 0.921875 6.890625 3.21875 
L 6.890625 13.375 
Q 12.890625 10.015625 18.65625 8.296875 
Q 24.421875 6.59375 29.984375 6.59375 
Q 38.421875 6.59375 43.015625 9.90625 
Q 47.609375 13.234375 47.609375 19.390625 
Q 47.609375 24.75 44.3125 27.78125 
Q 41.015625 30.8125 33.5 32.328125 
L 27.484375 33.5 
Q 16.453125 35.6875 11.515625 40.375 
Q 6.59375 45.0625 6.59375 53.421875 
Q 6.59375 63.09375 13.40625 68.65625 
Q 20.21875 74.21875 32.171875 74.21875 
Q 37.3125 74.21875 42.625 73.28125 
Q 47.953125 72.359375 53.515625 70.515625 
z
" id="DejaVuSans-83"/>
     </defs>
     <g transform="translate(119.24 27.963281)scale(0.15 -0.15)">
      <use xlink:href="#DejaVuSans-83"/>
      <use x="63.476562" xlink:href="#DejaVuSans-116"/>
      <use x="102.685547" xlink:href="#DejaVuSans-114"/>
      <use x="143.798828" xlink:href="#DejaVuSans-97"/>
      <use x="205.078125" xlink:href="#DejaVuSans-32"/>
      <use x="236.865234" xlink:href="#DejaVuSans-49"/>
     </g>
    </g>
    <g id="line2d_25">
     <path d="M 77.24 44.730469 
L 107.24 44.730469 
" style="fill:none;stroke:#ff7f0e;stroke-linecap:square;stroke-width:1.5;"/>
    </g>
    <g id="line2d_26"/>
    <g id="text_18">
     <!-- Stra 2 -->
     <g transform="translate(119.24 49.980469)scale(0.15 -0.15)">
      <use xlink:href="#DejaVuSans-83"/>
      <use x="63.476562" xlink:href="#DejaVuSans-116"/>
      <use x="102.685547" xlink:href="#DejaVuSans-114"/>
      <use x="143.798828" xlink:href="#DejaVuSans-97"/>
      <use x="205.078125" xlink:href="#DejaVuSans-32"/>
      <use x="236.865234" xlink:href="#DejaVuSans-50"/>
     </g>
    </g>
    <g id="line2d_27">
     <path d="M 188.528204 22.713281 
L 218.528204 22.713281 
" style="fill:none;stroke:#2ca02c;stroke-linecap:square;stroke-width:1.5;"/>
    </g>
    <g id="line2d_28"/>
    <g id="text_19">
     <!-- Stra 3 -->
     <g transform="translate(230.528204 27.963281)scale(0.15 -0.15)">
      <use xlink:href="#DejaVuSans-83"/>
      <use x="63.476562" xlink:href="#DejaVuSans-116"/>
      <use x="102.685547" xlink:href="#DejaVuSans-114"/>
      <use x="143.798828" xlink:href="#DejaVuSans-97"/>
      <use x="205.078125" xlink:href="#DejaVuSans-32"/>
      <use x="236.865234" xlink:href="#DejaVuSans-51"/>
     </g>
    </g>
    <g id="line2d_29">
     <path d="M 188.528204 44.730469 
L 218.528204 44.730469 
" style="fill:none;stroke:#d62728;stroke-linecap:square;stroke-width:1.5;"/>
    </g>
    <g id="line2d_30"/>
    <g id="text_20">
     <!-- Stra 4 -->
     <defs>
      <path d="M 37.796875 64.3125 
L 12.890625 25.390625 
L 37.796875 25.390625 
z
M 35.203125 72.90625 
L 47.609375 72.90625 
L 47.609375 25.390625 
L 58.015625 25.390625 
L 58.015625 17.1875 
L 47.609375 17.1875 
L 47.609375 0 
L 37.796875 0 
L 37.796875 17.1875 
L 4.890625 17.1875 
L 4.890625 26.703125 
z
" id="DejaVuSans-52"/>
     </defs>
     <g transform="translate(230.528204 49.980469)scale(0.15 -0.15)">
      <use xlink:href="#DejaVuSans-83"/>
      <use x="63.476562" xlink:href="#DejaVuSans-116"/>
      <use x="102.685547" xlink:href="#DejaVuSans-114"/>
      <use x="143.798828" xlink:href="#DejaVuSans-97"/>
      <use x="205.078125" xlink:href="#DejaVuSans-32"/>
      <use x="236.865234" xlink:href="#DejaVuSans-52"/>
     </g>
    </g>
    <g id="line2d_31">
     <path d="M 299.816407 22.713281 
L 329.816407 22.713281 
" style="fill:none;stroke:#9467bd;stroke-linecap:square;stroke-width:1.5;"/>
    </g>
    <g id="line2d_32"/>
    <g id="text_21">
     <!-- Stra 5 -->
     <g transform="translate(341.816407 27.963281)scale(0.15 -0.15)">
      <use xlink:href="#DejaVuSans-83"/>
      <use x="63.476562" xlink:href="#DejaVuSans-116"/>
      <use x="102.685547" xlink:href="#DejaVuSans-114"/>
      <use x="143.798828" xlink:href="#DejaVuSans-97"/>
      <use x="205.078125" xlink:href="#DejaVuSans-32"/>
      <use x="236.865234" xlink:href="#DejaVuSans-53"/>
     </g>
    </g>
    <g id="line2d_33">
     <path d="M 299.816407 44.730469 
L 329.816407 44.730469 
" style="fill:none;stroke:#8c564b;stroke-linecap:square;stroke-width:1.5;"/>
    </g>
    <g id="line2d_34"/>
    <g id="text_22">
     <!-- Stra 6 -->
     <defs>
      <path d="M 33.015625 40.375 
Q 26.375 40.375 22.484375 35.828125 
Q 18.609375 31.296875 18.609375 23.390625 
Q 18.609375 15.53125 22.484375 10.953125 
Q 26.375 6.390625 33.015625 6.390625 
Q 39.65625 6.390625 43.53125 10.953125 
Q 47.40625 15.53125 47.40625 23.390625 
Q 47.40625 31.296875 43.53125 35.828125 
Q 39.65625 40.375 33.015625 40.375 
z
M 52.59375 71.296875 
L 52.59375 62.3125 
Q 48.875 64.0625 45.09375 64.984375 
Q 41.3125 65.921875 37.59375 65.921875 
Q 27.828125 65.921875 22.671875 59.328125 
Q 17.53125 52.734375 16.796875 39.40625 
Q 19.671875 43.65625 24.015625 45.921875 
Q 28.375 48.1875 33.59375 48.1875 
Q 44.578125 48.1875 50.953125 41.515625 
Q 57.328125 34.859375 57.328125 23.390625 
Q 57.328125 12.15625 50.6875 5.359375 
Q 44.046875 -1.421875 33.015625 -1.421875 
Q 20.359375 -1.421875 13.671875 8.265625 
Q 6.984375 17.96875 6.984375 36.375 
Q 6.984375 53.65625 15.1875 63.9375 
Q 23.390625 74.21875 37.203125 74.21875 
Q 40.921875 74.21875 44.703125 73.484375 
Q 48.484375 72.75 52.59375 71.296875 
z
" id="DejaVuSans-54"/>
     </defs>
     <g transform="translate(341.816407 49.980469)scale(0.15 -0.15)">
      <use xlink:href="#DejaVuSans-83"/>
      <use x="63.476562" xlink:href="#DejaVuSans-116"/>
      <use x="102.685547" xlink:href="#DejaVuSans-114"/>
      <use x="143.798828" xlink:href="#DejaVuSans-97"/>
      <use x="205.078125" xlink:href="#DejaVuSans-32"/>
      <use x="236.865234" xlink:href="#DejaVuSans-54"/>
     </g>
    </g>
    <g id="line2d_35">
     <path d="M 411.104611 22.713281 
L 441.104611 22.713281 
" style="fill:none;stroke:#e377c2;stroke-linecap:square;stroke-width:1.5;"/>
    </g>
    <g id="line2d_36"/>
    <g id="text_23">
     <!-- Stra 7 -->
     <defs>
      <path d="M 8.203125 72.90625 
L 55.078125 72.90625 
L 55.078125 68.703125 
L 28.609375 0 
L 18.3125 0 
L 43.21875 64.59375 
L 8.203125 64.59375 
z
" id="DejaVuSans-55"/>
     </defs>
     <g transform="translate(453.104611 27.963281)scale(0.15 -0.15)">
      <use xlink:href="#DejaVuSans-83"/>
      <use x="63.476562" xlink:href="#DejaVuSans-116"/>
      <use x="102.685547" xlink:href="#DejaVuSans-114"/>
      <use x="143.798828" xlink:href="#DejaVuSans-97"/>
      <use x="205.078125" xlink:href="#DejaVuSans-32"/>
      <use x="236.865234" xlink:href="#DejaVuSans-55"/>
     </g>
    </g>
    <g id="line2d_37">
     <path d="M 411.104611 44.730469 
L 441.104611 44.730469 
" style="fill:none;stroke:#7f7f7f;stroke-linecap:square;stroke-width:1.5;"/>
    </g>
    <g id="line2d_38"/>
    <g id="text_24">
     <!-- Stra 8 -->
     <defs>
      <path d="M 31.78125 34.625 
Q 24.75 34.625 20.71875 30.859375 
Q 16.703125 27.09375 16.703125 20.515625 
Q 16.703125 13.921875 20.71875 10.15625 
Q 24.75 6.390625 31.78125 6.390625 
Q 38.8125 6.390625 42.859375 10.171875 
Q 46.921875 13.96875 46.921875 20.515625 
Q 46.921875 27.09375 42.890625 30.859375 
Q 38.875 34.625 31.78125 34.625 
z
M 21.921875 38.8125 
Q 15.578125 40.375 12.03125 44.71875 
Q 8.5 49.078125 8.5 55.328125 
Q 8.5 64.0625 14.71875 69.140625 
Q 20.953125 74.21875 31.78125 74.21875 
Q 42.671875 74.21875 48.875 69.140625 
Q 55.078125 64.0625 55.078125 55.328125 
Q 55.078125 49.078125 51.53125 44.71875 
Q 48 40.375 41.703125 38.8125 
Q 48.828125 37.15625 52.796875 32.3125 
Q 56.78125 27.484375 56.78125 20.515625 
Q 56.78125 9.90625 50.3125 4.234375 
Q 43.84375 -1.421875 31.78125 -1.421875 
Q 19.734375 -1.421875 13.25 4.234375 
Q 6.78125 9.90625 6.78125 20.515625 
Q 6.78125 27.484375 10.78125 32.3125 
Q 14.796875 37.15625 21.921875 38.8125 
z
M 18.3125 54.390625 
Q 18.3125 48.734375 21.84375 45.5625 
Q 25.390625 42.390625 31.78125 42.390625 
Q 38.140625 42.390625 41.71875 45.5625 
Q 45.3125 48.734375 45.3125 54.390625 
Q 45.3125 60.0625 41.71875 63.234375 
Q 38.140625 66.40625 31.78125 66.40625 
Q 25.390625 66.40625 21.84375 63.234375 
Q 18.3125 60.0625 18.3125 54.390625 
z
" id="DejaVuSans-56"/>
     </defs>
     <g transform="translate(453.104611 49.980469)scale(0.15 -0.15)">
      <use xlink:href="#DejaVuSans-83"/>
      <use x="63.476562" xlink:href="#DejaVuSans-116"/>
      <use x="102.685547" xlink:href="#DejaVuSans-114"/>
      <use x="143.798828" xlink:href="#DejaVuSans-97"/>
      <use x="205.078125" xlink:href="#DejaVuSans-32"/>
      <use x="236.865234" xlink:href="#DejaVuSans-56"/>
     </g>
    </g>
   </g>
  </g>
 </g>
 <defs>
  <clipPath id="pd024849463">
   <rect height="298.96" width="447.937267" x="63.74" y="66.6"/>
  </clipPath>
 </defs>
</svg>
