<?xml version="1.0" encoding="utf-8" standalone="no"?>
<!DOCTYPE svg PUBLIC "-//W3C//DTD SVG 1.1//EN"
  "http://www.w3.org/Graphics/SVG/1.1/DTD/svg11.dtd">
<!-- Created with matplotlib (https://matplotlib.org/) -->
<svg height="432pt" version="1.1" viewBox="0 0 540 432" width="540pt" xmlns="http://www.w3.org/2000/svg" xmlns:xlink="http://www.w3.org/1999/xlink">
 <defs>
  <style type="text/css">
*{stroke-linecap:butt;stroke-linejoin:round;}
  </style>
 </defs>
 <g id="figure_1">
  <g id="patch_1">
   <path d="M 0 432 
L 540 432 
L 540 0 
L 0 0 
z
" style="fill:#ffffff;"/>
  </g>
  <g id="axes_1">
   <g id="patch_2">
    <path d="M 120.89 365.56 
L 529.2 365.56 
L 529.2 88.5 
L 120.89 88.5 
z
" style="fill:#ffffff;"/>
   </g>
   <g id="matplotlib.axis_1">
    <g id="xtick_1">
     <g id="line2d_1">
      <defs>
       <path d="M 0 0 
L 0 3.5 
" id="mb848caf6ff" style="stroke:#000000;stroke-width:0.8;"/>
      </defs>
      <g>
       <use style="stroke:#000000;stroke-width:0.8;" x="139.449545" xlink:href="#mb848caf6ff" y="365.56"/>
      </g>
     </g>
     <g id="text_1">
      <!-- 0 -->
      <defs>
       <path d="M 31.78125 66.40625 
Q 24.171875 66.40625 20.328125 58.90625 
Q 16.5 51.421875 16.5 36.375 
Q 16.5 21.390625 20.328125 13.890625 
Q 24.171875 6.390625 31.78125 6.390625 
Q 39.453125 6.390625 43.28125 13.890625 
Q 47.125 21.390625 47.125 36.375 
Q 47.125 51.421875 43.28125 58.90625 
Q 39.453125 66.40625 31.78125 66.40625 
z
M 31.78125 74.21875 
Q 44.046875 74.21875 50.515625 64.515625 
Q 56.984375 54.828125 56.984375 36.375 
Q 56.984375 17.96875 50.515625 8.265625 
Q 44.046875 -1.421875 31.78125 -1.421875 
Q 19.53125 -1.421875 13.0625 8.265625 
Q 6.59375 17.96875 6.59375 36.375 
Q 6.59375 54.828125 13.0625 64.515625 
Q 19.53125 74.21875 31.78125 74.21875 
z
" id="DejaVuSans-48"/>
      </defs>
      <g transform="translate(133.087045 387.756875)scale(0.2 -0.2)">
       <use xlink:href="#DejaVuSans-48"/>
      </g>
     </g>
    </g>
    <g id="xtick_2">
     <g id="line2d_2">
      <g>
       <use style="stroke:#000000;stroke-width:0.8;" x="189.610479" xlink:href="#mb848caf6ff" y="365.56"/>
      </g>
     </g>
     <g id="text_2">
      <!-- 10 -->
      <defs>
       <path d="M 12.40625 8.296875 
L 28.515625 8.296875 
L 28.515625 63.921875 
L 10.984375 60.40625 
L 10.984375 69.390625 
L 28.421875 72.90625 
L 38.28125 72.90625 
L 38.28125 8.296875 
L 54.390625 8.296875 
L 54.390625 0 
L 12.40625 0 
z
" id="DejaVuSans-49"/>
      </defs>
      <g transform="translate(176.885479 387.756875)scale(0.2 -0.2)">
       <use xlink:href="#DejaVuSans-49"/>
       <use x="63.623047" xlink:href="#DejaVuSans-48"/>
      </g>
     </g>
    </g>
    <g id="xtick_3">
     <g id="line2d_3">
      <g>
       <use style="stroke:#000000;stroke-width:0.8;" x="239.771413" xlink:href="#mb848caf6ff" y="365.56"/>
      </g>
     </g>
     <g id="text_3">
      <!-- 20 -->
      <defs>
       <path d="M 19.1875 8.296875 
L 53.609375 8.296875 
L 53.609375 0 
L 7.328125 0 
L 7.328125 8.296875 
Q 12.9375 14.109375 22.625 23.890625 
Q 32.328125 33.6875 34.8125 36.53125 
Q 39.546875 41.84375 41.421875 45.53125 
Q 43.3125 49.21875 43.3125 52.78125 
Q 43.3125 58.59375 39.234375 62.25 
Q 35.15625 65.921875 28.609375 65.921875 
Q 23.96875 65.921875 18.8125 64.3125 
Q 13.671875 62.703125 7.8125 59.421875 
L 7.8125 69.390625 
Q 13.765625 71.78125 18.9375 73 
Q 24.125 74.21875 28.421875 74.21875 
Q 39.75 74.21875 46.484375 68.546875 
Q 53.21875 62.890625 53.21875 53.421875 
Q 53.21875 48.921875 51.53125 44.890625 
Q 49.859375 40.875 45.40625 35.40625 
Q 44.1875 33.984375 37.640625 27.21875 
Q 31.109375 20.453125 19.1875 8.296875 
z
" id="DejaVuSans-50"/>
      </defs>
      <g transform="translate(227.046413 387.756875)scale(0.2 -0.2)">
       <use xlink:href="#DejaVuSans-50"/>
       <use x="63.623047" xlink:href="#DejaVuSans-48"/>
      </g>
     </g>
    </g>
    <g id="xtick_4">
     <g id="line2d_4">
      <g>
       <use style="stroke:#000000;stroke-width:0.8;" x="289.932346" xlink:href="#mb848caf6ff" y="365.56"/>
      </g>
     </g>
     <g id="text_4">
      <!-- 30 -->
      <defs>
       <path d="M 40.578125 39.3125 
Q 47.65625 37.796875 51.625 33 
Q 55.609375 28.21875 55.609375 21.1875 
Q 55.609375 10.40625 48.1875 4.484375 
Q 40.765625 -1.421875 27.09375 -1.421875 
Q 22.515625 -1.421875 17.65625 -0.515625 
Q 12.796875 0.390625 7.625 2.203125 
L 7.625 11.71875 
Q 11.71875 9.328125 16.59375 8.109375 
Q 21.484375 6.890625 26.8125 6.890625 
Q 36.078125 6.890625 40.9375 10.546875 
Q 45.796875 14.203125 45.796875 21.1875 
Q 45.796875 27.640625 41.28125 31.265625 
Q 36.765625 34.90625 28.71875 34.90625 
L 20.21875 34.90625 
L 20.21875 43.015625 
L 29.109375 43.015625 
Q 36.375 43.015625 40.234375 45.921875 
Q 44.09375 48.828125 44.09375 54.296875 
Q 44.09375 59.90625 40.109375 62.90625 
Q 36.140625 65.921875 28.71875 65.921875 
Q 24.65625 65.921875 20.015625 65.03125 
Q 15.375 64.15625 9.8125 62.3125 
L 9.8125 71.09375 
Q 15.4375 72.65625 20.34375 73.4375 
Q 25.25 74.21875 29.59375 74.21875 
Q 40.828125 74.21875 47.359375 69.109375 
Q 53.90625 64.015625 53.90625 55.328125 
Q 53.90625 49.265625 50.4375 45.09375 
Q 46.96875 40.921875 40.578125 39.3125 
z
" id="DejaVuSans-51"/>
      </defs>
      <g transform="translate(277.207346 387.756875)scale(0.2 -0.2)">
       <use xlink:href="#DejaVuSans-51"/>
       <use x="63.623047" xlink:href="#DejaVuSans-48"/>
      </g>
     </g>
    </g>
    <g id="xtick_5">
     <g id="line2d_5">
      <g>
       <use style="stroke:#000000;stroke-width:0.8;" x="340.09328" xlink:href="#mb848caf6ff" y="365.56"/>
      </g>
     </g>
     <g id="text_5">
      <!-- 40 -->
      <defs>
       <path d="M 37.796875 64.3125 
L 12.890625 25.390625 
L 37.796875 25.390625 
z
M 35.203125 72.90625 
L 47.609375 72.90625 
L 47.609375 25.390625 
L 58.015625 25.390625 
L 58.015625 17.1875 
L 47.609375 17.1875 
L 47.609375 0 
L 37.796875 0 
L 37.796875 17.1875 
L 4.890625 17.1875 
L 4.890625 26.703125 
z
" id="DejaVuSans-52"/>
      </defs>
      <g transform="translate(327.36828 387.756875)scale(0.2 -0.2)">
       <use xlink:href="#DejaVuSans-52"/>
       <use x="63.623047" xlink:href="#DejaVuSans-48"/>
      </g>
     </g>
    </g>
    <g id="xtick_6">
     <g id="line2d_6">
      <g>
       <use style="stroke:#000000;stroke-width:0.8;" x="390.254214" xlink:href="#mb848caf6ff" y="365.56"/>
      </g>
     </g>
     <g id="text_6">
      <!-- 50 -->
      <defs>
       <path d="M 10.796875 72.90625 
L 49.515625 72.90625 
L 49.515625 64.59375 
L 19.828125 64.59375 
L 19.828125 46.734375 
Q 21.96875 47.46875 24.109375 47.828125 
Q 26.265625 48.1875 28.421875 48.1875 
Q 40.625 48.1875 47.75 41.5 
Q 54.890625 34.8125 54.890625 23.390625 
Q 54.890625 11.625 47.5625 5.09375 
Q 40.234375 -1.421875 26.90625 -1.421875 
Q 22.3125 -1.421875 17.546875 -0.640625 
Q 12.796875 0.140625 7.71875 1.703125 
L 7.71875 11.625 
Q 12.109375 9.234375 16.796875 8.0625 
Q 21.484375 6.890625 26.703125 6.890625 
Q 35.15625 6.890625 40.078125 11.328125 
Q 45.015625 15.765625 45.015625 23.390625 
Q 45.015625 31 40.078125 35.4375 
Q 35.15625 39.890625 26.703125 39.890625 
Q 22.75 39.890625 18.8125 39.015625 
Q 14.890625 38.140625 10.796875 36.28125 
z
" id="DejaVuSans-53"/>
      </defs>
      <g transform="translate(377.529214 387.756875)scale(0.2 -0.2)">
       <use xlink:href="#DejaVuSans-53"/>
       <use x="63.623047" xlink:href="#DejaVuSans-48"/>
      </g>
     </g>
    </g>
    <g id="xtick_7">
     <g id="line2d_7">
      <g>
       <use style="stroke:#000000;stroke-width:0.8;" x="440.415147" xlink:href="#mb848caf6ff" y="365.56"/>
      </g>
     </g>
     <g id="text_7">
      <!-- 60 -->
      <defs>
       <path d="M 33.015625 40.375 
Q 26.375 40.375 22.484375 35.828125 
Q 18.609375 31.296875 18.609375 23.390625 
Q 18.609375 15.53125 22.484375 10.953125 
Q 26.375 6.390625 33.015625 6.390625 
Q 39.65625 6.390625 43.53125 10.953125 
Q 47.40625 15.53125 47.40625 23.390625 
Q 47.40625 31.296875 43.53125 35.828125 
Q 39.65625 40.375 33.015625 40.375 
z
M 52.59375 71.296875 
L 52.59375 62.3125 
Q 48.875 64.0625 45.09375 64.984375 
Q 41.3125 65.921875 37.59375 65.921875 
Q 27.828125 65.921875 22.671875 59.328125 
Q 17.53125 52.734375 16.796875 39.40625 
Q 19.671875 43.65625 24.015625 45.921875 
Q 28.375 48.1875 33.59375 48.1875 
Q 44.578125 48.1875 50.953125 41.515625 
Q 57.328125 34.859375 57.328125 23.390625 
Q 57.328125 12.15625 50.6875 5.359375 
Q 44.046875 -1.421875 33.015625 -1.421875 
Q 20.359375 -1.421875 13.671875 8.265625 
Q 6.984375 17.96875 6.984375 36.375 
Q 6.984375 53.65625 15.1875 63.9375 
Q 23.390625 74.21875 37.203125 74.21875 
Q 40.921875 74.21875 44.703125 73.484375 
Q 48.484375 72.75 52.59375 71.296875 
z
" id="DejaVuSans-54"/>
      </defs>
      <g transform="translate(427.690147 387.756875)scale(0.2 -0.2)">
       <use xlink:href="#DejaVuSans-54"/>
       <use x="63.623047" xlink:href="#DejaVuSans-48"/>
      </g>
     </g>
    </g>
    <g id="xtick_8">
     <g id="line2d_8">
      <g>
       <use style="stroke:#000000;stroke-width:0.8;" x="490.576081" xlink:href="#mb848caf6ff" y="365.56"/>
      </g>
     </g>
     <g id="text_8">
      <!-- 70 -->
      <defs>
       <path d="M 8.203125 72.90625 
L 55.078125 72.90625 
L 55.078125 68.703125 
L 28.609375 0 
L 18.3125 0 
L 43.21875 64.59375 
L 8.203125 64.59375 
z
" id="DejaVuSans-55"/>
      </defs>
      <g transform="translate(477.851081 387.756875)scale(0.2 -0.2)">
       <use xlink:href="#DejaVuSans-55"/>
       <use x="63.623047" xlink:href="#DejaVuSans-48"/>
      </g>
     </g>
    </g>
    <g id="text_9">
     <!-- # of games -->
     <defs>
      <path d="M 51.125 44 
L 36.921875 44 
L 32.8125 27.6875 
L 47.125 27.6875 
z
M 43.796875 71.78125 
L 38.71875 51.515625 
L 52.984375 51.515625 
L 58.109375 71.78125 
L 65.921875 71.78125 
L 60.890625 51.515625 
L 76.125 51.515625 
L 76.125 44 
L 58.984375 44 
L 54.984375 27.6875 
L 70.515625 27.6875 
L 70.515625 20.21875 
L 53.078125 20.21875 
L 48 0 
L 40.1875 0 
L 45.21875 20.21875 
L 30.90625 20.21875 
L 25.875 0 
L 18.015625 0 
L 23.09375 20.21875 
L 7.71875 20.21875 
L 7.71875 27.6875 
L 24.90625 27.6875 
L 29 44 
L 13.28125 44 
L 13.28125 51.515625 
L 30.90625 51.515625 
L 35.890625 71.78125 
z
" id="DejaVuSans-35"/>
      <path id="DejaVuSans-32"/>
      <path d="M 30.609375 48.390625 
Q 23.390625 48.390625 19.1875 42.75 
Q 14.984375 37.109375 14.984375 27.296875 
Q 14.984375 17.484375 19.15625 11.84375 
Q 23.34375 6.203125 30.609375 6.203125 
Q 37.796875 6.203125 41.984375 11.859375 
Q 46.1875 17.53125 46.1875 27.296875 
Q 46.1875 37.015625 41.984375 42.703125 
Q 37.796875 48.390625 30.609375 48.390625 
z
M 30.609375 56 
Q 42.328125 56 49.015625 48.375 
Q 55.71875 40.765625 55.71875 27.296875 
Q 55.71875 13.875 49.015625 6.21875 
Q 42.328125 -1.421875 30.609375 -1.421875 
Q 18.84375 -1.421875 12.171875 6.21875 
Q 5.515625 13.875 5.515625 27.296875 
Q 5.515625 40.765625 12.171875 48.375 
Q 18.84375 56 30.609375 56 
z
" id="DejaVuSans-111"/>
      <path d="M 37.109375 75.984375 
L 37.109375 68.5 
L 28.515625 68.5 
Q 23.6875 68.5 21.796875 66.546875 
Q 19.921875 64.59375 19.921875 59.515625 
L 19.921875 54.6875 
L 34.71875 54.6875 
L 34.71875 47.703125 
L 19.921875 47.703125 
L 19.921875 0 
L 10.890625 0 
L 10.890625 47.703125 
L 2.296875 47.703125 
L 2.296875 54.6875 
L 10.890625 54.6875 
L 10.890625 58.5 
Q 10.890625 67.625 15.140625 71.796875 
Q 19.390625 75.984375 28.609375 75.984375 
z
" id="DejaVuSans-102"/>
      <path d="M 45.40625 27.984375 
Q 45.40625 37.75 41.375 43.109375 
Q 37.359375 48.484375 30.078125 48.484375 
Q 22.859375 48.484375 18.828125 43.109375 
Q 14.796875 37.75 14.796875 27.984375 
Q 14.796875 18.265625 18.828125 12.890625 
Q 22.859375 7.515625 30.078125 7.515625 
Q 37.359375 7.515625 41.375 12.890625 
Q 45.40625 18.265625 45.40625 27.984375 
z
M 54.390625 6.78125 
Q 54.390625 -7.171875 48.1875 -13.984375 
Q 42 -20.796875 29.203125 -20.796875 
Q 24.46875 -20.796875 20.265625 -20.09375 
Q 16.0625 -19.390625 12.109375 -17.921875 
L 12.109375 -9.1875 
Q 16.0625 -11.328125 19.921875 -12.34375 
Q 23.78125 -13.375 27.78125 -13.375 
Q 36.625 -13.375 41.015625 -8.765625 
Q 45.40625 -4.15625 45.40625 5.171875 
L 45.40625 9.625 
Q 42.625 4.78125 38.28125 2.390625 
Q 33.9375 0 27.875 0 
Q 17.828125 0 11.671875 7.65625 
Q 5.515625 15.328125 5.515625 27.984375 
Q 5.515625 40.671875 11.671875 48.328125 
Q 17.828125 56 27.875 56 
Q 33.9375 56 38.28125 53.609375 
Q 42.625 51.21875 45.40625 46.390625 
L 45.40625 54.6875 
L 54.390625 54.6875 
z
" id="DejaVuSans-103"/>
      <path d="M 34.28125 27.484375 
Q 23.390625 27.484375 19.1875 25 
Q 14.984375 22.515625 14.984375 16.5 
Q 14.984375 11.71875 18.140625 8.90625 
Q 21.296875 6.109375 26.703125 6.109375 
Q 34.1875 6.109375 38.703125 11.40625 
Q 43.21875 16.703125 43.21875 25.484375 
L 43.21875 27.484375 
z
M 52.203125 31.203125 
L 52.203125 0 
L 43.21875 0 
L 43.21875 8.296875 
Q 40.140625 3.328125 35.546875 0.953125 
Q 30.953125 -1.421875 24.3125 -1.421875 
Q 15.921875 -1.421875 10.953125 3.296875 
Q 6 8.015625 6 15.921875 
Q 6 25.140625 12.171875 29.828125 
Q 18.359375 34.515625 30.609375 34.515625 
L 43.21875 34.515625 
L 43.21875 35.40625 
Q 43.21875 41.609375 39.140625 45 
Q 35.0625 48.390625 27.6875 48.390625 
Q 23 48.390625 18.546875 47.265625 
Q 14.109375 46.140625 10.015625 43.890625 
L 10.015625 52.203125 
Q 14.9375 54.109375 19.578125 55.046875 
Q 24.21875 56 28.609375 56 
Q 40.484375 56 46.34375 49.84375 
Q 52.203125 43.703125 52.203125 31.203125 
z
" id="DejaVuSans-97"/>
      <path d="M 52 44.1875 
Q 55.375 50.25 60.0625 53.125 
Q 64.75 56 71.09375 56 
Q 79.640625 56 84.28125 50.015625 
Q 88.921875 44.046875 88.921875 33.015625 
L 88.921875 0 
L 79.890625 0 
L 79.890625 32.71875 
Q 79.890625 40.578125 77.09375 44.375 
Q 74.3125 48.1875 68.609375 48.1875 
Q 61.625 48.1875 57.5625 43.546875 
Q 53.515625 38.921875 53.515625 30.90625 
L 53.515625 0 
L 44.484375 0 
L 44.484375 32.71875 
Q 44.484375 40.625 41.703125 44.40625 
Q 38.921875 48.1875 33.109375 48.1875 
Q 26.21875 48.1875 22.15625 43.53125 
Q 18.109375 38.875 18.109375 30.90625 
L 18.109375 0 
L 9.078125 0 
L 9.078125 54.6875 
L 18.109375 54.6875 
L 18.109375 46.1875 
Q 21.1875 51.21875 25.484375 53.609375 
Q 29.78125 56 35.6875 56 
Q 41.65625 56 45.828125 52.96875 
Q 50 49.953125 52 44.1875 
z
" id="DejaVuSans-109"/>
      <path d="M 56.203125 29.59375 
L 56.203125 25.203125 
L 14.890625 25.203125 
Q 15.484375 15.921875 20.484375 11.0625 
Q 25.484375 6.203125 34.421875 6.203125 
Q 39.59375 6.203125 44.453125 7.46875 
Q 49.3125 8.734375 54.109375 11.28125 
L 54.109375 2.78125 
Q 49.265625 0.734375 44.1875 -0.34375 
Q 39.109375 -1.421875 33.890625 -1.421875 
Q 20.796875 -1.421875 13.15625 6.1875 
Q 5.515625 13.8125 5.515625 26.8125 
Q 5.515625 40.234375 12.765625 48.109375 
Q 20.015625 56 32.328125 56 
Q 43.359375 56 49.78125 48.890625 
Q 56.203125 41.796875 56.203125 29.59375 
z
M 47.21875 32.234375 
Q 47.125 39.59375 43.09375 43.984375 
Q 39.0625 48.390625 32.421875 48.390625 
Q 24.90625 48.390625 20.390625 44.140625 
Q 15.875 39.890625 15.1875 32.171875 
z
" id="DejaVuSans-101"/>
      <path d="M 44.28125 53.078125 
L 44.28125 44.578125 
Q 40.484375 46.53125 36.375 47.5 
Q 32.28125 48.484375 27.875 48.484375 
Q 21.1875 48.484375 17.84375 46.4375 
Q 14.5 44.390625 14.5 40.28125 
Q 14.5 37.15625 16.890625 35.375 
Q 19.28125 33.59375 26.515625 31.984375 
L 29.59375 31.296875 
Q 39.15625 29.25 43.1875 25.515625 
Q 47.21875 21.78125 47.21875 15.09375 
Q 47.21875 7.46875 41.1875 3.015625 
Q 35.15625 -1.421875 24.609375 -1.421875 
Q 20.21875 -1.421875 15.453125 -0.5625 
Q 10.6875 0.296875 5.421875 2 
L 5.421875 11.28125 
Q 10.40625 8.6875 15.234375 7.390625 
Q 20.0625 6.109375 24.8125 6.109375 
Q 31.15625 6.109375 34.5625 8.28125 
Q 37.984375 10.453125 37.984375 14.40625 
Q 37.984375 18.0625 35.515625 20.015625 
Q 33.0625 21.96875 24.703125 23.78125 
L 21.578125 24.515625 
Q 13.234375 26.265625 9.515625 29.90625 
Q 5.8125 33.546875 5.8125 39.890625 
Q 5.8125 47.609375 11.28125 51.796875 
Q 16.75 56 26.8125 56 
Q 31.78125 56 36.171875 55.265625 
Q 40.578125 54.546875 44.28125 53.078125 
z
" id="DejaVuSans-115"/>
     </defs>
     <g transform="translate(252.601641 414.912344)scale(0.25 -0.25)">
      <use xlink:href="#DejaVuSans-35"/>
      <use x="83.789062" xlink:href="#DejaVuSans-32"/>
      <use x="115.576172" xlink:href="#DejaVuSans-111"/>
      <use x="176.757812" xlink:href="#DejaVuSans-102"/>
      <use x="211.962891" xlink:href="#DejaVuSans-32"/>
      <use x="243.75" xlink:href="#DejaVuSans-103"/>
      <use x="307.226562" xlink:href="#DejaVuSans-97"/>
      <use x="368.505859" xlink:href="#DejaVuSans-109"/>
      <use x="465.917969" xlink:href="#DejaVuSans-101"/>
      <use x="527.441406" xlink:href="#DejaVuSans-115"/>
     </g>
    </g>
   </g>
   <g id="matplotlib.axis_2">
    <g id="ytick_1">
     <g id="line2d_9">
      <defs>
       <path d="M 0 0 
L -3.5 0 
" id="m22e35b7eac" style="stroke:#000000;stroke-width:0.8;"/>
      </defs>
      <g>
       <use style="stroke:#000000;stroke-width:0.8;" x="120.89" xlink:href="#m22e35b7eac" y="327.139227"/>
      </g>
     </g>
     <g id="text_10">
      <!-- 0.00006 -->
      <defs>
       <path d="M 10.6875 12.40625 
L 21 12.40625 
L 21 0 
L 10.6875 0 
z
" id="DejaVuSans-46"/>
      </defs>
      <g transform="translate(31.18375 334.737665)scale(0.2 -0.2)">
       <use xlink:href="#DejaVuSans-48"/>
       <use x="63.623047" xlink:href="#DejaVuSans-46"/>
       <use x="95.410156" xlink:href="#DejaVuSans-48"/>
       <use x="159.033203" xlink:href="#DejaVuSans-48"/>
       <use x="222.65625" xlink:href="#DejaVuSans-48"/>
       <use x="286.279297" xlink:href="#DejaVuSans-48"/>
       <use x="349.902344" xlink:href="#DejaVuSans-54"/>
      </g>
     </g>
    </g>
    <g id="ytick_2">
     <g id="line2d_10">
      <g>
       <use style="stroke:#000000;stroke-width:0.8;" x="120.89" xlink:href="#m22e35b7eac" y="270.627829"/>
      </g>
     </g>
     <g id="text_11">
      <!-- 0.00007 -->
      <g transform="translate(31.18375 278.226267)scale(0.2 -0.2)">
       <use xlink:href="#DejaVuSans-48"/>
       <use x="63.623047" xlink:href="#DejaVuSans-46"/>
       <use x="95.410156" xlink:href="#DejaVuSans-48"/>
       <use x="159.033203" xlink:href="#DejaVuSans-48"/>
       <use x="222.65625" xlink:href="#DejaVuSans-48"/>
       <use x="286.279297" xlink:href="#DejaVuSans-48"/>
       <use x="349.902344" xlink:href="#DejaVuSans-55"/>
      </g>
     </g>
    </g>
    <g id="ytick_3">
     <g id="line2d_11">
      <g>
       <use style="stroke:#000000;stroke-width:0.8;" x="120.89" xlink:href="#m22e35b7eac" y="214.116432"/>
      </g>
     </g>
     <g id="text_12">
      <!-- 0.00008 -->
      <defs>
       <path d="M 31.78125 34.625 
Q 24.75 34.625 20.71875 30.859375 
Q 16.703125 27.09375 16.703125 20.515625 
Q 16.703125 13.921875 20.71875 10.15625 
Q 24.75 6.390625 31.78125 6.390625 
Q 38.8125 6.390625 42.859375 10.171875 
Q 46.921875 13.96875 46.921875 20.515625 
Q 46.921875 27.09375 42.890625 30.859375 
Q 38.875 34.625 31.78125 34.625 
z
M 21.921875 38.8125 
Q 15.578125 40.375 12.03125 44.71875 
Q 8.5 49.078125 8.5 55.328125 
Q 8.5 64.0625 14.71875 69.140625 
Q 20.953125 74.21875 31.78125 74.21875 
Q 42.671875 74.21875 48.875 69.140625 
Q 55.078125 64.0625 55.078125 55.328125 
Q 55.078125 49.078125 51.53125 44.71875 
Q 48 40.375 41.703125 38.8125 
Q 48.828125 37.15625 52.796875 32.3125 
Q 56.78125 27.484375 56.78125 20.515625 
Q 56.78125 9.90625 50.3125 4.234375 
Q 43.84375 -1.421875 31.78125 -1.421875 
Q 19.734375 -1.421875 13.25 4.234375 
Q 6.78125 9.90625 6.78125 20.515625 
Q 6.78125 27.484375 10.78125 32.3125 
Q 14.796875 37.15625 21.921875 38.8125 
z
M 18.3125 54.390625 
Q 18.3125 48.734375 21.84375 45.5625 
Q 25.390625 42.390625 31.78125 42.390625 
Q 38.140625 42.390625 41.71875 45.5625 
Q 45.3125 48.734375 45.3125 54.390625 
Q 45.3125 60.0625 41.71875 63.234375 
Q 38.140625 66.40625 31.78125 66.40625 
Q 25.390625 66.40625 21.84375 63.234375 
Q 18.3125 60.0625 18.3125 54.390625 
z
" id="DejaVuSans-56"/>
      </defs>
      <g transform="translate(31.18375 221.714869)scale(0.2 -0.2)">
       <use xlink:href="#DejaVuSans-48"/>
       <use x="63.623047" xlink:href="#DejaVuSans-46"/>
       <use x="95.410156" xlink:href="#DejaVuSans-48"/>
       <use x="159.033203" xlink:href="#DejaVuSans-48"/>
       <use x="222.65625" xlink:href="#DejaVuSans-48"/>
       <use x="286.279297" xlink:href="#DejaVuSans-48"/>
       <use x="349.902344" xlink:href="#DejaVuSans-56"/>
      </g>
     </g>
    </g>
    <g id="ytick_4">
     <g id="line2d_12">
      <g>
       <use style="stroke:#000000;stroke-width:0.8;" x="120.89" xlink:href="#m22e35b7eac" y="157.605034"/>
      </g>
     </g>
     <g id="text_13">
      <!-- 0.00009 -->
      <defs>
       <path d="M 10.984375 1.515625 
L 10.984375 10.5 
Q 14.703125 8.734375 18.5 7.8125 
Q 22.3125 6.890625 25.984375 6.890625 
Q 35.75 6.890625 40.890625 13.453125 
Q 46.046875 20.015625 46.78125 33.40625 
Q 43.953125 29.203125 39.59375 26.953125 
Q 35.25 24.703125 29.984375 24.703125 
Q 19.046875 24.703125 12.671875 31.3125 
Q 6.296875 37.9375 6.296875 49.421875 
Q 6.296875 60.640625 12.9375 67.421875 
Q 19.578125 74.21875 30.609375 74.21875 
Q 43.265625 74.21875 49.921875 64.515625 
Q 56.59375 54.828125 56.59375 36.375 
Q 56.59375 19.140625 48.40625 8.859375 
Q 40.234375 -1.421875 26.421875 -1.421875 
Q 22.703125 -1.421875 18.890625 -0.6875 
Q 15.09375 0.046875 10.984375 1.515625 
z
M 30.609375 32.421875 
Q 37.25 32.421875 41.125 36.953125 
Q 45.015625 41.5 45.015625 49.421875 
Q 45.015625 57.28125 41.125 61.84375 
Q 37.25 66.40625 30.609375 66.40625 
Q 23.96875 66.40625 20.09375 61.84375 
Q 16.21875 57.28125 16.21875 49.421875 
Q 16.21875 41.5 20.09375 36.953125 
Q 23.96875 32.421875 30.609375 32.421875 
z
" id="DejaVuSans-57"/>
      </defs>
      <g transform="translate(31.18375 165.203472)scale(0.2 -0.2)">
       <use xlink:href="#DejaVuSans-48"/>
       <use x="63.623047" xlink:href="#DejaVuSans-46"/>
       <use x="95.410156" xlink:href="#DejaVuSans-48"/>
       <use x="159.033203" xlink:href="#DejaVuSans-48"/>
       <use x="222.65625" xlink:href="#DejaVuSans-48"/>
       <use x="286.279297" xlink:href="#DejaVuSans-48"/>
       <use x="349.902344" xlink:href="#DejaVuSans-57"/>
      </g>
     </g>
    </g>
    <g id="ytick_5">
     <g id="line2d_13">
      <g>
       <use style="stroke:#000000;stroke-width:0.8;" x="120.89" xlink:href="#m22e35b7eac" y="101.093636"/>
      </g>
     </g>
     <g id="text_14">
      <!-- 0.00010 -->
      <g transform="translate(31.18375 108.692074)scale(0.2 -0.2)">
       <use xlink:href="#DejaVuSans-48"/>
       <use x="63.623047" xlink:href="#DejaVuSans-46"/>
       <use x="95.410156" xlink:href="#DejaVuSans-48"/>
       <use x="159.033203" xlink:href="#DejaVuSans-48"/>
       <use x="222.65625" xlink:href="#DejaVuSans-48"/>
       <use x="286.279297" xlink:href="#DejaVuSans-49"/>
       <use x="349.902344" xlink:href="#DejaVuSans-48"/>
      </g>
     </g>
    </g>
    <g id="text_15">
     <!-- defense impact Value -->
     <defs>
      <path d="M 45.40625 46.390625 
L 45.40625 75.984375 
L 54.390625 75.984375 
L 54.390625 0 
L 45.40625 0 
L 45.40625 8.203125 
Q 42.578125 3.328125 38.25 0.953125 
Q 33.9375 -1.421875 27.875 -1.421875 
Q 17.96875 -1.421875 11.734375 6.484375 
Q 5.515625 14.40625 5.515625 27.296875 
Q 5.515625 40.1875 11.734375 48.09375 
Q 17.96875 56 27.875 56 
Q 33.9375 56 38.25 53.625 
Q 42.578125 51.265625 45.40625 46.390625 
z
M 14.796875 27.296875 
Q 14.796875 17.390625 18.875 11.75 
Q 22.953125 6.109375 30.078125 6.109375 
Q 37.203125 6.109375 41.296875 11.75 
Q 45.40625 17.390625 45.40625 27.296875 
Q 45.40625 37.203125 41.296875 42.84375 
Q 37.203125 48.484375 30.078125 48.484375 
Q 22.953125 48.484375 18.875 42.84375 
Q 14.796875 37.203125 14.796875 27.296875 
z
" id="DejaVuSans-100"/>
      <path d="M 54.890625 33.015625 
L 54.890625 0 
L 45.90625 0 
L 45.90625 32.71875 
Q 45.90625 40.484375 42.875 44.328125 
Q 39.84375 48.1875 33.796875 48.1875 
Q 26.515625 48.1875 22.3125 43.546875 
Q 18.109375 38.921875 18.109375 30.90625 
L 18.109375 0 
L 9.078125 0 
L 9.078125 54.6875 
L 18.109375 54.6875 
L 18.109375 46.1875 
Q 21.34375 51.125 25.703125 53.5625 
Q 30.078125 56 35.796875 56 
Q 45.21875 56 50.046875 50.171875 
Q 54.890625 44.34375 54.890625 33.015625 
z
" id="DejaVuSans-110"/>
      <path d="M 9.421875 54.6875 
L 18.40625 54.6875 
L 18.40625 0 
L 9.421875 0 
z
M 9.421875 75.984375 
L 18.40625 75.984375 
L 18.40625 64.59375 
L 9.421875 64.59375 
z
" id="DejaVuSans-105"/>
      <path d="M 18.109375 8.203125 
L 18.109375 -20.796875 
L 9.078125 -20.796875 
L 9.078125 54.6875 
L 18.109375 54.6875 
L 18.109375 46.390625 
Q 20.953125 51.265625 25.265625 53.625 
Q 29.59375 56 35.59375 56 
Q 45.5625 56 51.78125 48.09375 
Q 58.015625 40.1875 58.015625 27.296875 
Q 58.015625 14.40625 51.78125 6.484375 
Q 45.5625 -1.421875 35.59375 -1.421875 
Q 29.59375 -1.421875 25.265625 0.953125 
Q 20.953125 3.328125 18.109375 8.203125 
z
M 48.6875 27.296875 
Q 48.6875 37.203125 44.609375 42.84375 
Q 40.53125 48.484375 33.40625 48.484375 
Q 26.265625 48.484375 22.1875 42.84375 
Q 18.109375 37.203125 18.109375 27.296875 
Q 18.109375 17.390625 22.1875 11.75 
Q 26.265625 6.109375 33.40625 6.109375 
Q 40.53125 6.109375 44.609375 11.75 
Q 48.6875 17.390625 48.6875 27.296875 
z
" id="DejaVuSans-112"/>
      <path d="M 48.78125 52.59375 
L 48.78125 44.1875 
Q 44.96875 46.296875 41.140625 47.34375 
Q 37.3125 48.390625 33.40625 48.390625 
Q 24.65625 48.390625 19.8125 42.84375 
Q 14.984375 37.3125 14.984375 27.296875 
Q 14.984375 17.28125 19.8125 11.734375 
Q 24.65625 6.203125 33.40625 6.203125 
Q 37.3125 6.203125 41.140625 7.25 
Q 44.96875 8.296875 48.78125 10.40625 
L 48.78125 2.09375 
Q 45.015625 0.34375 40.984375 -0.53125 
Q 36.96875 -1.421875 32.421875 -1.421875 
Q 20.0625 -1.421875 12.78125 6.34375 
Q 5.515625 14.109375 5.515625 27.296875 
Q 5.515625 40.671875 12.859375 48.328125 
Q 20.21875 56 33.015625 56 
Q 37.15625 56 41.109375 55.140625 
Q 45.0625 54.296875 48.78125 52.59375 
z
" id="DejaVuSans-99"/>
      <path d="M 18.3125 70.21875 
L 18.3125 54.6875 
L 36.8125 54.6875 
L 36.8125 47.703125 
L 18.3125 47.703125 
L 18.3125 18.015625 
Q 18.3125 11.328125 20.140625 9.421875 
Q 21.96875 7.515625 27.59375 7.515625 
L 36.8125 7.515625 
L 36.8125 0 
L 27.59375 0 
Q 17.1875 0 13.234375 3.875 
Q 9.28125 7.765625 9.28125 18.015625 
L 9.28125 47.703125 
L 2.6875 47.703125 
L 2.6875 54.6875 
L 9.28125 54.6875 
L 9.28125 70.21875 
z
" id="DejaVuSans-116"/>
      <path d="M 28.609375 0 
L 0.78125 72.90625 
L 11.078125 72.90625 
L 34.1875 11.53125 
L 57.328125 72.90625 
L 67.578125 72.90625 
L 39.796875 0 
z
" id="DejaVuSans-86"/>
      <path d="M 9.421875 75.984375 
L 18.40625 75.984375 
L 18.40625 0 
L 9.421875 0 
z
" id="DejaVuSans-108"/>
      <path d="M 8.5 21.578125 
L 8.5 54.6875 
L 17.484375 54.6875 
L 17.484375 21.921875 
Q 17.484375 14.15625 20.5 10.265625 
Q 23.53125 6.390625 29.59375 6.390625 
Q 36.859375 6.390625 41.078125 11.03125 
Q 45.3125 15.671875 45.3125 23.6875 
L 45.3125 54.6875 
L 54.296875 54.6875 
L 54.296875 0 
L 45.3125 0 
L 45.3125 8.40625 
Q 42.046875 3.421875 37.71875 1 
Q 33.40625 -1.421875 27.6875 -1.421875 
Q 18.265625 -1.421875 13.375 4.4375 
Q 8.5 10.296875 8.5 21.578125 
z
M 31.109375 56 
z
" id="DejaVuSans-117"/>
     </defs>
     <g transform="translate(23.717604 317.756562)rotate(-90)scale(0.166667 -0.166667)">
      <use xlink:href="#DejaVuSans-100"/>
      <use x="63.476562" xlink:href="#DejaVuSans-101"/>
      <use x="125" xlink:href="#DejaVuSans-102"/>
      <use x="160.205078" xlink:href="#DejaVuSans-101"/>
      <use x="221.728516" xlink:href="#DejaVuSans-110"/>
      <use x="285.107422" xlink:href="#DejaVuSans-115"/>
      <use x="337.207031" xlink:href="#DejaVuSans-101"/>
      <use x="398.730469" xlink:href="#DejaVuSans-32"/>
      <use x="430.517578" xlink:href="#DejaVuSans-105"/>
      <use x="458.300781" xlink:href="#DejaVuSans-109"/>
      <use x="555.712891" xlink:href="#DejaVuSans-112"/>
      <use x="619.189453" xlink:href="#DejaVuSans-97"/>
      <use x="680.46875" xlink:href="#DejaVuSans-99"/>
      <use x="735.449219" xlink:href="#DejaVuSans-116"/>
      <use x="774.658203" xlink:href="#DejaVuSans-32"/>
      <use x="806.445312" xlink:href="#DejaVuSans-86"/>
      <use x="874.744141" xlink:href="#DejaVuSans-97"/>
      <use x="936.023438" xlink:href="#DejaVuSans-108"/>
      <use x="963.806641" xlink:href="#DejaVuSans-117"/>
      <use x="1027.185547" xlink:href="#DejaVuSans-101"/>
     </g>
    </g>
    <g id="text_16">
     <!-- +9.999e−1 -->
     <defs>
      <path d="M 46 62.703125 
L 46 35.5 
L 73.1875 35.5 
L 73.1875 27.203125 
L 46 27.203125 
L 46 0 
L 37.796875 0 
L 37.796875 27.203125 
L 10.59375 27.203125 
L 10.59375 35.5 
L 37.796875 35.5 
L 37.796875 62.703125 
z
" id="DejaVuSans-43"/>
      <path d="M 10.59375 35.5 
L 73.1875 35.5 
L 73.1875 27.203125 
L 10.59375 27.203125 
z
" id="DejaVuSans-8722"/>
     </defs>
     <g transform="translate(120.89 85.5)scale(0.1 -0.1)">
      <use xlink:href="#DejaVuSans-43"/>
      <use x="83.789062" xlink:href="#DejaVuSans-57"/>
      <use x="147.412109" xlink:href="#DejaVuSans-46"/>
      <use x="179.199219" xlink:href="#DejaVuSans-57"/>
      <use x="242.822266" xlink:href="#DejaVuSans-57"/>
      <use x="306.445312" xlink:href="#DejaVuSans-57"/>
      <use x="370.068359" xlink:href="#DejaVuSans-101"/>
      <use x="431.591797" xlink:href="#DejaVuSans-8722"/>
      <use x="515.380859" xlink:href="#DejaVuSans-49"/>
     </g>
    </g>
   </g>
   <g id="line2d_14">
    <path clip-path="url(#pe4929e7ce4)" d="M 139.449545 101.093636 
L 144.465639 101.093636 
L 149.481732 101.093636 
L 154.497826 101.093636 
L 159.513919 168.186883 
L 164.530012 120.988826 
L 169.546106 150.66927 
L 174.562199 197.645453 
L 179.578292 214.367306 
L 184.594386 232.609338 
L 189.610479 204.996302 
L 194.626572 195.675153 
L 199.642666 188.012086 
L 204.658759 236.191331 
L 209.674853 189.389302 
L 214.690946 242.165793 
L 219.707039 236.61167 
L 224.723133 238.553726 
L 229.739226 241.750964 
L 234.755319 237.50117 
L 239.771413 261.665509 
L 244.787506 255.124035 
L 249.8036 256.071463 
L 254.819693 250.089697 
L 259.835786 245.93245 
L 264.85188 273.447934 
L 269.867973 209.156682 
L 274.884066 211.699676 
L 279.90016 219.75452 
L 284.916253 194.636116 
L 289.932346 200.1303 
L 294.94844 206.405244 
L 299.964533 241.773643 
L 304.980627 236.786767 
L 309.99672 209.75853 
L 315.012813 242.411323 
L 320.028907 214.998448 
L 325.045 211.937747 
L 330.061093 216.178959 
L 335.077187 208.268509 
L 340.09328 219.106914 
L 345.109373 206.859169 
L 350.125467 211.804794 
L 355.14156 243.829853 
L 360.157654 233.116467 
L 365.173747 225.949791 
L 370.18984 233.325776 
L 375.205934 238.65178 
L 380.222027 224.113722 
L 385.23812 234.103171 
L 390.254214 206.80194 
L 395.270307 208.759516 
L 400.2864 205.259193 
L 405.302494 187.05029 
L 410.318587 195.97126 
L 415.334681 195.834004 
L 420.350774 179.44388 
L 425.366867 217.78921 
L 430.382961 207.134319 
L 435.399054 188.485467 
L 440.415147 169.858371 
L 445.431241 161.019358 
L 450.447334 154.952027 
L 455.463428 152.410349 
L 460.479521 131.481057 
L 465.495614 126.583326 
L 470.511708 207.653873 
L 475.527801 168.686444 
L 480.543894 170.673676 
L 485.559988 155.477968 
L 490.576081 154.125787 
L 495.592174 142.480467 
L 500.608268 142.480467 
L 505.624361 111.7101 
L 510.640455 111.7101 
" style="fill:none;stroke:#1f77b4;stroke-linecap:square;stroke-width:1.5;"/>
   </g>
   <g id="line2d_15">
    <path clip-path="url(#pe4929e7ce4)" d="M 139.449545 101.093636 
L 144.465639 101.093636 
L 149.481732 101.093636 
L 154.497826 101.093636 
L 159.513919 101.093636 
L 164.530012 102.887086 
L 169.546106 101.093636 
L 174.562199 168.714097 
L 179.578292 247.830473 
L 184.594386 258.973737 
L 189.610479 255.64371 
L 194.626572 265.163629 
L 199.642666 266.021495 
L 204.658759 291.363139 
L 209.674853 288.891621 
L 214.690946 317.931423 
L 219.707039 328.863861 
L 224.723133 352.966364 
L 229.739226 291.398454 
L 234.755319 296.705172 
L 239.771413 277.722428 
L 244.787506 290.840839 
L 249.8036 276.344183 
L 254.819693 221.182889 
L 259.835786 195.422147 
L 264.85188 195.422147 
L 269.867973 181.512501 
L 274.884066 178.191258 
L 279.90016 177.144322 
L 284.916253 198.935046 
L 289.932346 186.906274 
L 294.94844 188.514209 
L 299.964533 213.218864 
L 304.980627 230.886932 
L 309.99672 239.949079 
L 315.012813 235.757403 
L 320.028907 257.67138 
L 325.045 247.91371 
L 330.061093 238.513086 
L 335.077187 205.376323 
L 340.09328 198.278345 
L 345.109373 229.337121 
L 350.125467 228.204405 
L 355.14156 232.547588 
L 360.157654 210.75468 
L 365.173747 208.357247 
L 370.18984 193.754196 
L 375.205934 188.073713 
L 380.222027 154.006217 
L 385.23812 160.782678 
L 390.254214 152.194374 
L 395.270307 160.767819 
L 400.2864 159.366495 
L 405.302494 166.616295 
L 410.318587 169.055939 
L 415.334681 176.600277 
L 420.350774 176.937791 
L 425.366867 188.115503 
L 430.382961 171.961991 
L 435.399054 179.548461 
L 440.415147 150.470027 
L 445.431241 152.740351 
L 450.447334 166.701158 
L 455.463428 189.964485 
L 460.479521 178.482903 
L 465.495614 186.358477 
L 470.511708 187.043551 
L 475.527801 178.08944 
L 480.543894 169.446371 
L 485.559988 167.333238 
L 490.576081 167.333238 
L 495.592174 141.360871 
L 500.608268 141.360871 
L 505.624361 104.469382 
L 510.640455 104.469382 
" style="fill:none;stroke:#ff7f0e;stroke-linecap:square;stroke-width:1.5;"/>
   </g>
   <g id="line2d_16">
    <path clip-path="url(#pe4929e7ce4)" d="M 139.449545 101.093636 
L 144.465639 101.093636 
L 149.481732 101.093636 
L 154.497826 101.093636 
L 159.513919 101.093636 
L 164.530012 101.093636 
L 169.546106 101.093636 
L 174.562199 101.093636 
L 179.578292 101.093636 
L 184.594386 102.859433 
L 189.610479 102.859433 
L 194.626572 110.848236 
L 199.642666 118.316736 
L 204.658759 190.781973 
L 209.674853 199.133321 
L 214.690946 223.039842 
L 219.707039 257.560531 
L 224.723133 260.045099 
L 229.739226 260.882932 
L 234.755319 290.68037 
L 239.771413 311.467881 
L 244.787506 282.04065 
L 249.8036 306.303632 
L 254.819693 307.807352 
L 259.835786 287.155717 
L 264.85188 345.935719 
L 269.867973 338.513158 
L 274.884066 304.440736 
L 279.90016 292.291164 
L 284.916253 291.868973 
L 289.932346 277.479971 
L 294.94844 281.541517 
L 299.964533 286.261279 
L 304.980627 283.521062 
L 309.99672 202.83234 
L 315.012813 205.241714 
L 320.028907 188.398022 
L 325.045 194.140917 
L 330.061093 198.855006 
L 335.077187 171.464518 
L 340.09328 193.964549 
L 345.109373 206.481351 
L 350.125467 200.739312 
L 355.14156 235.677558 
L 360.157654 229.943262 
L 365.173747 208.286772 
L 370.18984 209.894755 
L 375.205934 213.08923 
L 380.222027 208.062529 
L 385.23812 204.983023 
L 390.254214 212.399749 
L 395.270307 205.0083 
L 400.2864 210.856451 
L 405.302494 215.533746 
L 410.318587 217.659203 
L 415.334681 221.031061 
L 420.350774 217.317054 
L 425.366867 220.516018 
L 430.382961 216.763466 
L 435.399054 217.161412 
L 440.415147 226.669087 
L 445.431241 226.669087 
L 450.447334 220.36861 
L 455.463428 228.640215 
L 460.479521 219.704827 
L 465.495614 248.841184 
L 470.511708 248.144544 
L 475.527801 254.69873 
L 480.543894 136.01918 
L 485.559988 174.528911 
L 490.576081 146.716951 
L 495.592174 138.215352 
L 500.608268 138.215352 
L 505.624361 108.959176 
L 510.640455 108.959176 
" style="fill:none;stroke:#2ca02c;stroke-linecap:square;stroke-width:1.5;"/>
   </g>
   <g id="line2d_17">
    <path clip-path="url(#pe4929e7ce4)" d="M 139.449545 101.093636 
L 144.465639 101.093636 
L 149.481732 101.093636 
L 154.497826 101.093636 
L 159.513919 101.093636 
L 164.530012 101.093636 
L 169.546106 101.093636 
L 174.562199 101.093636 
L 179.578292 101.093636 
L 184.594386 101.093636 
L 189.610479 101.093636 
L 194.626572 101.093636 
L 199.642666 101.093636 
L 204.658759 116.378229 
L 209.674853 116.378229 
L 214.690946 116.378229 
L 219.707039 116.378229 
L 224.723133 119.1949 
L 229.739226 119.1949 
L 234.755319 123.7036 
L 239.771413 124.331761 
L 244.787506 125.056241 
L 249.8036 125.056241 
L 254.819693 125.056241 
L 259.835786 125.056241 
L 264.85188 125.056241 
L 269.867973 125.056241 
L 274.884066 125.056241 
L 279.90016 147.193749 
L 284.916253 168.374655 
L 289.932346 167.126708 
L 294.94844 168.725588 
L 299.964533 162.621814 
L 304.980627 158.010329 
L 309.99672 159.392789 
L 315.012813 162.030713 
L 320.028907 162.591359 
L 325.045 176.655165 
L 330.061093 175.782152 
L 335.077187 157.718687 
L 340.09328 152.614837 
L 345.109373 154.670162 
L 350.125467 160.807013 
L 355.14156 164.697371 
L 360.157654 164.697371 
L 365.173747 166.110787 
L 370.18984 169.819044 
L 375.205934 173.947802 
L 380.222027 146.28423 
L 385.23812 146.28423 
L 390.254214 145.529853 
L 395.270307 147.931811 
L 400.2864 150.582335 
L 405.302494 153.089092 
L 410.318587 151.626236 
L 415.334681 158.463401 
L 420.350774 163.917059 
L 425.366867 167.191056 
L 430.382961 151.921966 
L 435.399054 144.81525 
L 440.415147 152.828294 
L 445.431241 141.030847 
L 450.447334 143.084384 
L 455.463428 143.825598 
L 460.479521 120.078399 
L 465.495614 126.981949 
L 470.511708 124.465008 
L 475.527801 128.360236 
L 480.543894 149.526224 
L 485.559988 156.990558 
L 490.576081 140.392651 
L 495.592174 127.304542 
L 500.608268 127.304542 
L 505.624361 177.796805 
L 510.640455 177.796805 
" style="fill:none;stroke:#d62728;stroke-linecap:square;stroke-width:1.5;"/>
   </g>
   <g id="line2d_18">
    <path clip-path="url(#pe4929e7ce4)" d="M 139.449545 101.093636 
L 144.465639 101.093636 
L 149.481732 101.093636 
L 154.497826 101.093636 
L 159.513919 101.093636 
L 164.530012 125.634074 
L 169.546106 125.634074 
L 174.562199 125.634074 
L 179.578292 125.634074 
L 184.594386 125.634074 
L 189.610479 125.634074 
L 194.626572 135.403525 
L 199.642666 136.966703 
L 204.658759 136.966703 
L 209.674853 149.696288 
L 214.690946 159.993335 
L 219.707039 159.993335 
L 224.723133 167.274812 
L 229.739226 167.274812 
L 234.755319 167.274812 
L 239.771413 170.840735 
L 244.787506 170.840735 
L 249.8036 170.840735 
L 254.819693 171.541266 
L 259.835786 171.541266 
L 264.85188 174.375346 
L 269.867973 176.675499 
L 274.884066 178.873216 
L 279.90016 181.045986 
L 284.916253 181.045986 
L 289.932346 181.045986 
L 294.94844 181.502792 
L 299.964533 186.791123 
L 304.980627 165.358877 
L 309.99672 166.670413 
L 315.012813 165.747307 
L 320.028907 165.747307 
L 325.045 168.039386 
L 330.061093 170.582267 
L 335.077187 166.380473 
L 340.09328 166.380473 
L 345.109373 164.71923 
L 350.125467 164.71923 
L 355.14156 164.71923 
L 360.157654 165.654073 
L 365.173747 158.700568 
L 370.18984 164.448993 
L 375.205934 161.073234 
L 380.222027 165.246257 
L 385.23812 165.246257 
L 390.254214 163.203796 
L 395.270307 166.561102 
L 400.2864 166.561102 
L 405.302494 164.618808 
L 410.318587 153.294716 
L 415.334681 155.882095 
L 420.350774 160.461498 
L 425.366867 146.76754 
L 430.382961 148.324672 
L 435.399054 150.161384 
L 440.415147 138.083455 
L 445.431241 138.083455 
L 450.447334 139.932946 
L 455.463428 144.248425 
L 460.479521 128.8338 
L 465.495614 137.122188 
L 470.511708 106.516214 
L 475.527801 107.419977 
L 480.543894 108.685245 
L 485.559988 110.583147 
L 490.576081 110.583147 
L 495.592174 179.935267 
L 500.608268 179.935267 
L 505.624361 330.316774 
L 510.640455 106.39793 
" style="fill:none;stroke:#9467bd;stroke-linecap:square;stroke-width:1.5;"/>
   </g>
   <g id="line2d_19">
    <path clip-path="url(#pe4929e7ce4)" d="M 139.449545 101.093636 
L 144.465639 101.093636 
L 149.481732 101.093636 
L 154.497826 101.093636 
L 159.513919 101.093636 
L 164.530012 101.093636 
L 169.546106 101.093636 
L 174.562199 113.754535 
L 179.578292 113.754535 
L 184.594386 102.859433 
L 189.610479 102.859433 
L 194.626572 130.789147 
L 199.642666 150.663661 
L 204.658759 144.283085 
L 209.674853 171.740791 
L 214.690946 155.963708 
L 219.707039 232.827858 
L 224.723133 254.4148 
L 229.739226 257.884783 
L 234.755319 292.146783 
L 239.771413 270.89895 
L 244.787506 242.166669 
L 249.8036 275.824946 
L 254.819693 257.961204 
L 259.835786 243.409061 
L 264.85188 244.007491 
L 269.867973 254.109857 
L 274.884066 241.455932 
L 279.90016 229.358987 
L 284.916253 246.356897 
L 289.932346 234.062724 
L 294.94844 212.711494 
L 299.964533 242.291028 
L 304.980627 224.662049 
L 309.99672 218.017088 
L 315.012813 237.651164 
L 320.028907 229.757631 
L 325.045 197.73558 
L 330.061093 198.220742 
L 335.077187 203.964197 
L 340.09328 196.70951 
L 345.109373 229.389591 
L 350.125467 225.700724 
L 355.14156 212.838993 
L 360.157654 201.598426 
L 365.173747 198.813767 
L 370.18984 186.398801 
L 375.205934 186.622361 
L 380.222027 171.280251 
L 385.23812 161.902029 
L 390.254214 199.004499 
L 395.270307 206.767802 
L 400.2864 185.366553 
L 405.302494 184.046962 
L 410.318587 173.040656 
L 415.334681 180.926053 
L 420.350774 166.89419 
L 425.366867 164.065668 
L 430.382961 171.403521 
L 435.399054 162.77516 
L 440.415147 160.606963 
L 445.431241 164.552447 
L 450.447334 163.700288 
L 455.463428 168.066803 
L 460.479521 175.513512 
L 465.495614 169.432348 
L 470.511708 175.529763 
L 475.527801 178.285617 
L 480.543894 173.782106 
L 485.559988 160.701975 
L 490.576081 178.958806 
L 495.592174 172.157788 
L 500.608268 175.935957 
L 505.624361 119.78305 
L 510.640455 119.78305 
" style="fill:none;stroke:#8c564b;stroke-linecap:square;stroke-width:1.5;"/>
   </g>
   <g id="line2d_20">
    <path clip-path="url(#pe4929e7ce4)" d="M 139.449545 101.093636 
L 144.465639 101.093636 
L 149.481732 101.093636 
L 154.497826 101.093636 
L 159.513919 101.093636 
L 164.530012 101.093636 
L 169.546106 101.093636 
L 174.562199 101.093636 
L 179.578292 101.093636 
L 184.594386 101.093636 
L 189.610479 109.595337 
L 194.626572 109.595337 
L 199.642666 119.697025 
L 204.658759 109.595337 
L 209.674853 126.893391 
L 214.690946 139.923952 
L 219.707039 139.923952 
L 224.723133 154.187997 
L 229.739226 168.402385 
L 234.755319 168.402385 
L 239.771413 181.735105 
L 244.787506 195.545866 
L 249.8036 193.889274 
L 254.819693 195.704121 
L 259.835786 206.316465 
L 264.85188 214.394518 
L 269.867973 208.12154 
L 274.884066 200.694243 
L 279.90016 190.780114 
L 284.916253 184.610087 
L 289.932346 199.418511 
L 294.94844 196.218013 
L 299.964533 218.259946 
L 304.980627 201.048604 
L 309.99672 209.393817 
L 315.012813 217.386944 
L 320.028907 212.973296 
L 325.045 215.847127 
L 330.061093 187.977239 
L 335.077187 187.839333 
L 340.09328 188.332725 
L 345.109373 178.609188 
L 350.125467 151.878017 
L 355.14156 151.346326 
L 360.157654 153.159375 
L 365.173747 146.368852 
L 370.18984 159.517336 
L 375.205934 159.170047 
L 380.222027 166.651102 
L 385.23812 157.46077 
L 390.254214 168.074994 
L 395.270307 162.880883 
L 400.2864 162.352496 
L 405.302494 161.652761 
L 410.318587 143.371452 
L 415.334681 151.393113 
L 420.350774 152.724958 
L 425.366867 172.736122 
L 430.382961 176.154227 
L 435.399054 170.04271 
L 440.415147 143.374481 
L 445.431241 149.837206 
L 450.447334 137.134156 
L 455.463428 145.224328 
L 460.479521 152.798202 
L 465.495614 143.620208 
L 470.511708 119.137165 
L 475.527801 154.523507 
L 480.543894 165.209482 
L 485.559988 157.426882 
L 490.576081 179.418909 
L 495.592174 176.20463 
L 500.608268 244.04652 
L 505.624361 304.619305 
L 510.640455 304.619305 
" style="fill:none;stroke:#e377c2;stroke-linecap:square;stroke-width:1.5;"/>
   </g>
   <g id="line2d_21">
    <path clip-path="url(#pe4929e7ce4)" d="M 139.449545 101.093636 
L 144.465639 101.093636 
L 149.481732 101.093636 
L 154.497826 101.093636 
L 159.513919 135.471493 
L 164.530012 138.972105 
L 169.546106 193.136769 
L 174.562199 215.455852 
L 179.578292 202.131671 
L 184.594386 207.781832 
L 189.610479 189.033609 
L 194.626572 199.792984 
L 199.642666 192.380777 
L 204.658759 217.088073 
L 209.674853 218.279492 
L 214.690946 206.995697 
L 219.707039 215.311573 
L 224.723133 242.335607 
L 229.739226 242.032953 
L 234.755319 235.677249 
L 239.771413 230.938793 
L 244.787506 243.306855 
L 249.8036 257.375216 
L 254.819693 265.153185 
L 259.835786 275.410473 
L 264.85188 266.92168 
L 269.867973 257.157366 
L 274.884066 272.657486 
L 279.90016 278.664829 
L 284.916253 281.255944 
L 289.932346 282.288107 
L 294.94844 288.33754 
L 299.964533 246.246706 
L 304.980627 253.395713 
L 309.99672 265.029853 
L 315.012813 254.930782 
L 320.028907 258.722866 
L 325.045 247.658494 
L 330.061093 258.861223 
L 335.077187 237.401325 
L 340.09328 238.559858 
L 345.109373 255.813334 
L 350.125467 273.103842 
L 355.14156 277.530027 
L 360.157654 269.996829 
L 365.173747 268.306506 
L 370.18984 241.878308 
L 375.205934 210.872407 
L 380.222027 195.109599 
L 385.23812 229.858476 
L 390.254214 212.534292 
L 395.270307 194.919759 
L 400.2864 202.438003 
L 405.302494 182.117318 
L 410.318587 166.381661 
L 415.334681 171.770731 
L 420.350774 177.260102 
L 425.366867 172.252509 
L 430.382961 189.383444 
L 435.399054 196.609613 
L 440.415147 168.078186 
L 445.431241 159.025344 
L 450.447334 179.183437 
L 455.463428 165.447146 
L 460.479521 169.635531 
L 465.495614 161.955773 
L 470.511708 149.394287 
L 475.527801 148.11432 
L 480.543894 169.109509 
L 485.559988 142.10801 
L 490.576081 142.10801 
L 495.592174 146.059159 
L 500.608268 198.704752 
L 505.624361 204.532631 
L 510.640455 204.532631 
" style="fill:none;stroke:#7f7f7f;stroke-linecap:square;stroke-width:1.5;"/>
   </g>
   <g id="line2d_22">
    <path clip-path="url(#pe4929e7ce4)" d="M 139.449545 101.093636 
L 144.465639 101.093636 
L 149.481732 101.093636 
L 154.497826 101.093636 
L 159.513919 163.082215 
L 164.530012 104.583596 
L 169.546106 146.202672 
L 174.562199 177.812606 
L 179.578292 157.066017 
L 184.594386 171.778643 
L 189.610479 149.679941 
L 194.626572 178.265205 
L 199.642666 226.080469 
L 204.658759 272.308027 
L 209.674853 280.448193 
L 214.690946 266.228676 
L 219.707039 279.918411 
L 224.723133 276.07443 
L 229.739226 246.582102 
L 234.755319 272.728806 
L 239.771413 281.578355 
L 244.787506 256.887937 
L 249.8036 248.444711 
L 254.819693 253.397947 
L 259.835786 240.285023 
L 264.85188 236.045627 
L 269.867973 233.724649 
L 274.884066 233.610248 
L 279.90016 215.288666 
L 284.916253 231.259435 
L 289.932346 234.335428 
L 294.94844 209.365426 
L 299.964533 249.012443 
L 304.980627 256.873236 
L 309.99672 210.830861 
L 315.012813 190.586488 
L 320.028907 202.486124 
L 325.045 215.842466 
L 330.061093 242.788126 
L 335.077187 232.759336 
L 340.09328 227.672855 
L 345.109373 233.537407 
L 350.125467 201.103468 
L 355.14156 194.549616 
L 360.157654 177.088574 
L 365.173747 179.971578 
L 370.18984 168.655616 
L 375.205934 187.226772 
L 380.222027 175.545638 
L 385.23812 182.974865 
L 390.254214 183.407008 
L 395.270307 213.006276 
L 400.2864 228.935262 
L 405.302494 225.294596 
L 410.318587 212.76942 
L 415.334681 184.36617 
L 420.350774 169.89921 
L 425.366867 174.947191 
L 430.382961 143.323029 
L 435.399054 159.769144 
L 440.415147 164.27026 
L 445.431241 138.371149 
L 450.447334 172.195369 
L 455.463428 149.8427 
L 460.479521 156.390814 
L 465.495614 166.172867 
L 470.511708 172.468597 
L 475.527801 198.895532 
L 480.543894 182.833047 
L 485.559988 160.299108 
L 490.576081 125.993581 
L 495.592174 181.891648 
L 500.608268 173.325825 
L 505.624361 304.619305 
L 510.640455 304.619305 
" style="fill:none;stroke:#bcbd22;stroke-linecap:square;stroke-width:1.5;"/>
   </g>
   <g id="patch_3">
    <path d="M 120.89 365.56 
L 120.89 88.5 
" style="fill:none;stroke:#000000;stroke-linecap:square;stroke-linejoin:miter;stroke-width:0.8;"/>
   </g>
   <g id="patch_4">
    <path d="M 529.2 365.56 
L 529.2 88.5 
" style="fill:none;stroke:#000000;stroke-linecap:square;stroke-linejoin:miter;stroke-width:0.8;"/>
   </g>
   <g id="patch_5">
    <path d="M 120.89 365.56 
L 529.2 365.56 
" style="fill:none;stroke:#000000;stroke-linecap:square;stroke-linejoin:miter;stroke-width:0.8;"/>
   </g>
   <g id="patch_6">
    <path d="M 120.89 88.5 
L 529.2 88.5 
" style="fill:none;stroke:#000000;stroke-linecap:square;stroke-linejoin:miter;stroke-width:0.8;"/>
   </g>
   <g id="legend_1">
    <g id="patch_7">
     <path d="M 131.39 81 
L 518.7 81 
Q 521.7 81 521.7 78 
L 521.7 13.448438 
Q 521.7 10.448438 518.7 10.448438 
L 131.39 10.448438 
Q 128.39 10.448438 128.39 13.448438 
L 128.39 78 
Q 128.39 81 131.39 81 
z
" style="fill:#ffffff;opacity:0.8;stroke:#cccccc;stroke-linejoin:miter;"/>
    </g>
    <g id="line2d_23">
     <path d="M 134.39 22.596094 
L 164.39 22.596094 
" style="fill:none;stroke:#1f77b4;stroke-linecap:square;stroke-width:1.5;"/>
    </g>
    <g id="line2d_24"/>
    <g id="text_17">
     <!-- Stra 1 -->
     <defs>
      <path d="M 53.515625 70.515625 
L 53.515625 60.890625 
Q 47.90625 63.578125 42.921875 64.890625 
Q 37.9375 66.21875 33.296875 66.21875 
Q 25.25 66.21875 20.875 63.09375 
Q 16.5 59.96875 16.5 54.203125 
Q 16.5 49.359375 19.40625 46.890625 
Q 22.3125 44.4375 30.421875 42.921875 
L 36.375 41.703125 
Q 47.40625 39.59375 52.65625 34.296875 
Q 57.90625 29 57.90625 20.125 
Q 57.90625 9.515625 50.796875 4.046875 
Q 43.703125 -1.421875 29.984375 -1.421875 
Q 24.8125 -1.421875 18.96875 -0.25 
Q 13.140625 0.921875 6.890625 3.21875 
L 6.890625 13.375 
Q 12.890625 10.015625 18.65625 8.296875 
Q 24.421875 6.59375 29.984375 6.59375 
Q 38.421875 6.59375 43.015625 9.90625 
Q 47.609375 13.234375 47.609375 19.390625 
Q 47.609375 24.75 44.3125 27.78125 
Q 41.015625 30.8125 33.5 32.328125 
L 27.484375 33.5 
Q 16.453125 35.6875 11.515625 40.375 
Q 6.59375 45.0625 6.59375 53.421875 
Q 6.59375 63.09375 13.40625 68.65625 
Q 20.21875 74.21875 32.171875 74.21875 
Q 37.3125 74.21875 42.625 73.28125 
Q 47.953125 72.359375 53.515625 70.515625 
z
" id="DejaVuSans-83"/>
      <path d="M 41.109375 46.296875 
Q 39.59375 47.171875 37.8125 47.578125 
Q 36.03125 48 33.890625 48 
Q 26.265625 48 22.1875 43.046875 
Q 18.109375 38.09375 18.109375 28.8125 
L 18.109375 0 
L 9.078125 0 
L 9.078125 54.6875 
L 18.109375 54.6875 
L 18.109375 46.1875 
Q 20.953125 51.171875 25.484375 53.578125 
Q 30.03125 56 36.53125 56 
Q 37.453125 56 38.578125 55.875 
Q 39.703125 55.765625 41.0625 55.515625 
z
" id="DejaVuSans-114"/>
     </defs>
     <g transform="translate(176.39 27.846094)scale(0.15 -0.15)">
      <use xlink:href="#DejaVuSans-83"/>
      <use x="63.476562" xlink:href="#DejaVuSans-116"/>
      <use x="102.685547" xlink:href="#DejaVuSans-114"/>
      <use x="143.798828" xlink:href="#DejaVuSans-97"/>
      <use x="205.078125" xlink:href="#DejaVuSans-32"/>
      <use x="236.865234" xlink:href="#DejaVuSans-49"/>
     </g>
    </g>
    <g id="line2d_25">
     <path d="M 134.39 44.613281 
L 164.39 44.613281 
" style="fill:none;stroke:#ff7f0e;stroke-linecap:square;stroke-width:1.5;"/>
    </g>
    <g id="line2d_26"/>
    <g id="text_18">
     <!-- Stra 2 -->
     <g transform="translate(176.39 49.863281)scale(0.15 -0.15)">
      <use xlink:href="#DejaVuSans-83"/>
      <use x="63.476562" xlink:href="#DejaVuSans-116"/>
      <use x="102.685547" xlink:href="#DejaVuSans-114"/>
      <use x="143.798828" xlink:href="#DejaVuSans-97"/>
      <use x="205.078125" xlink:href="#DejaVuSans-32"/>
      <use x="236.865234" xlink:href="#DejaVuSans-50"/>
     </g>
    </g>
    <g id="line2d_27">
     <path d="M 134.39 66.630469 
L 164.39 66.630469 
" style="fill:none;stroke:#2ca02c;stroke-linecap:square;stroke-width:1.5;"/>
    </g>
    <g id="line2d_28"/>
    <g id="text_19">
     <!-- Stra 3 -->
     <g transform="translate(176.39 71.880469)scale(0.15 -0.15)">
      <use xlink:href="#DejaVuSans-83"/>
      <use x="63.476562" xlink:href="#DejaVuSans-116"/>
      <use x="102.685547" xlink:href="#DejaVuSans-114"/>
      <use x="143.798828" xlink:href="#DejaVuSans-97"/>
      <use x="205.078125" xlink:href="#DejaVuSans-32"/>
      <use x="236.865234" xlink:href="#DejaVuSans-51"/>
     </g>
    </g>
    <g id="line2d_29">
     <path d="M 232.469115 22.596094 
L 262.469115 22.596094 
" style="fill:none;stroke:#d62728;stroke-linecap:square;stroke-width:1.5;"/>
    </g>
    <g id="line2d_30"/>
    <g id="text_20">
     <!-- Stra 4 -->
     <g transform="translate(274.469115 27.846094)scale(0.15 -0.15)">
      <use xlink:href="#DejaVuSans-83"/>
      <use x="63.476562" xlink:href="#DejaVuSans-116"/>
      <use x="102.685547" xlink:href="#DejaVuSans-114"/>
      <use x="143.798828" xlink:href="#DejaVuSans-97"/>
      <use x="205.078125" xlink:href="#DejaVuSans-32"/>
      <use x="236.865234" xlink:href="#DejaVuSans-52"/>
     </g>
    </g>
    <g id="line2d_31">
     <path d="M 232.469115 44.613281 
L 262.469115 44.613281 
" style="fill:none;stroke:#9467bd;stroke-linecap:square;stroke-width:1.5;"/>
    </g>
    <g id="line2d_32"/>
    <g id="text_21">
     <!-- Stra 5 -->
     <g transform="translate(274.469115 49.863281)scale(0.15 -0.15)">
      <use xlink:href="#DejaVuSans-83"/>
      <use x="63.476562" xlink:href="#DejaVuSans-116"/>
      <use x="102.685547" xlink:href="#DejaVuSans-114"/>
      <use x="143.798828" xlink:href="#DejaVuSans-97"/>
      <use x="205.078125" xlink:href="#DejaVuSans-32"/>
      <use x="236.865234" xlink:href="#DejaVuSans-53"/>
     </g>
    </g>
    <g id="line2d_33">
     <path d="M 330.548229 22.596094 
L 360.548229 22.596094 
" style="fill:none;stroke:#8c564b;stroke-linecap:square;stroke-width:1.5;"/>
    </g>
    <g id="line2d_34"/>
    <g id="text_22">
     <!-- Stra 6 -->
     <g transform="translate(372.548229 27.846094)scale(0.15 -0.15)">
      <use xlink:href="#DejaVuSans-83"/>
      <use x="63.476562" xlink:href="#DejaVuSans-116"/>
      <use x="102.685547" xlink:href="#DejaVuSans-114"/>
      <use x="143.798828" xlink:href="#DejaVuSans-97"/>
      <use x="205.078125" xlink:href="#DejaVuSans-32"/>
      <use x="236.865234" xlink:href="#DejaVuSans-54"/>
     </g>
    </g>
    <g id="line2d_35">
     <path d="M 330.548229 44.613281 
L 360.548229 44.613281 
" style="fill:none;stroke:#e377c2;stroke-linecap:square;stroke-width:1.5;"/>
    </g>
    <g id="line2d_36"/>
    <g id="text_23">
     <!-- Stra 7 -->
     <g transform="translate(372.548229 49.863281)scale(0.15 -0.15)">
      <use xlink:href="#DejaVuSans-83"/>
      <use x="63.476562" xlink:href="#DejaVuSans-116"/>
      <use x="102.685547" xlink:href="#DejaVuSans-114"/>
      <use x="143.798828" xlink:href="#DejaVuSans-97"/>
      <use x="205.078125" xlink:href="#DejaVuSans-32"/>
      <use x="236.865234" xlink:href="#DejaVuSans-55"/>
     </g>
    </g>
    <g id="line2d_37">
     <path d="M 428.627344 22.596094 
L 458.627344 22.596094 
" style="fill:none;stroke:#7f7f7f;stroke-linecap:square;stroke-width:1.5;"/>
    </g>
    <g id="line2d_38"/>
    <g id="text_24">
     <!-- Stra 8 -->
     <g transform="translate(470.627344 27.846094)scale(0.15 -0.15)">
      <use xlink:href="#DejaVuSans-83"/>
      <use x="63.476562" xlink:href="#DejaVuSans-116"/>
      <use x="102.685547" xlink:href="#DejaVuSans-114"/>
      <use x="143.798828" xlink:href="#DejaVuSans-97"/>
      <use x="205.078125" xlink:href="#DejaVuSans-32"/>
      <use x="236.865234" xlink:href="#DejaVuSans-56"/>
     </g>
    </g>
    <g id="line2d_39">
     <path d="M 428.627344 44.613281 
L 458.627344 44.613281 
" style="fill:none;stroke:#bcbd22;stroke-linecap:square;stroke-width:1.5;"/>
    </g>
    <g id="line2d_40"/>
    <g id="text_25">
     <!-- Stra 9 -->
     <g transform="translate(470.627344 49.863281)scale(0.15 -0.15)">
      <use xlink:href="#DejaVuSans-83"/>
      <use x="63.476562" xlink:href="#DejaVuSans-116"/>
      <use x="102.685547" xlink:href="#DejaVuSans-114"/>
      <use x="143.798828" xlink:href="#DejaVuSans-97"/>
      <use x="205.078125" xlink:href="#DejaVuSans-32"/>
      <use x="236.865234" xlink:href="#DejaVuSans-57"/>
     </g>
    </g>
   </g>
  </g>
 </g>
 <defs>
  <clipPath id="pe4929e7ce4">
   <rect height="277.06" width="408.31" x="120.89" y="88.5"/>
  </clipPath>
 </defs>
</svg>
