<?xml version="1.0" encoding="utf-8" standalone="no"?>
<!DOCTYPE svg PUBLIC "-//W3C//DTD SVG 1.1//EN"
  "http://www.w3.org/Graphics/SVG/1.1/DTD/svg11.dtd">
<!-- Created with matplotlib (https://matplotlib.org/) -->
<svg height="432pt" version="1.1" viewBox="0 0 540 432" width="540pt" xmlns="http://www.w3.org/2000/svg" xmlns:xlink="http://www.w3.org/1999/xlink">
 <defs>
  <style type="text/css">
*{stroke-linecap:butt;stroke-linejoin:round;}
  </style>
 </defs>
 <g id="figure_1">
  <g id="patch_1">
   <path d="M 0 432 
L 540 432 
L 540 0 
L 0 0 
z
" style="fill:#ffffff;"/>
  </g>
  <g id="axes_1">
   <g id="patch_2">
    <path d="M 51.05 365.56 
L 529.187727 365.56 
L 529.187727 66.6 
L 51.05 66.6 
z
" style="fill:#ffffff;"/>
   </g>
   <g id="matplotlib.axis_1">
    <g id="xtick_1">
     <g id="line2d_1">
      <defs>
       <path d="M 0 0 
L 0 3.5 
" id="m3988552842" style="stroke:#000000;stroke-width:0.8;"/>
      </defs>
      <g>
       <use style="stroke:#000000;stroke-width:0.8;" x="72.783533" xlink:href="#m3988552842" y="365.56"/>
      </g>
     </g>
     <g id="text_1">
      <!-- 0 -->
      <defs>
       <path d="M 31.78125 66.40625 
Q 24.171875 66.40625 20.328125 58.90625 
Q 16.5 51.421875 16.5 36.375 
Q 16.5 21.390625 20.328125 13.890625 
Q 24.171875 6.390625 31.78125 6.390625 
Q 39.453125 6.390625 43.28125 13.890625 
Q 47.125 21.390625 47.125 36.375 
Q 47.125 51.421875 43.28125 58.90625 
Q 39.453125 66.40625 31.78125 66.40625 
z
M 31.78125 74.21875 
Q 44.046875 74.21875 50.515625 64.515625 
Q 56.984375 54.828125 56.984375 36.375 
Q 56.984375 17.96875 50.515625 8.265625 
Q 44.046875 -1.421875 31.78125 -1.421875 
Q 19.53125 -1.421875 13.0625 8.265625 
Q 6.59375 17.96875 6.59375 36.375 
Q 6.59375 54.828125 13.0625 64.515625 
Q 19.53125 74.21875 31.78125 74.21875 
z
" id="DejaVuSans-48"/>
      </defs>
      <g transform="translate(66.421033 387.756875)scale(0.2 -0.2)">
       <use xlink:href="#DejaVuSans-48"/>
      </g>
     </g>
    </g>
    <g id="xtick_2">
     <g id="line2d_2">
      <g>
       <use style="stroke:#000000;stroke-width:0.8;" x="159.717665" xlink:href="#m3988552842" y="365.56"/>
      </g>
     </g>
     <g id="text_2">
      <!-- 50 -->
      <defs>
       <path d="M 10.796875 72.90625 
L 49.515625 72.90625 
L 49.515625 64.59375 
L 19.828125 64.59375 
L 19.828125 46.734375 
Q 21.96875 47.46875 24.109375 47.828125 
Q 26.265625 48.1875 28.421875 48.1875 
Q 40.625 48.1875 47.75 41.5 
Q 54.890625 34.8125 54.890625 23.390625 
Q 54.890625 11.625 47.5625 5.09375 
Q 40.234375 -1.421875 26.90625 -1.421875 
Q 22.3125 -1.421875 17.546875 -0.640625 
Q 12.796875 0.140625 7.71875 1.703125 
L 7.71875 11.625 
Q 12.109375 9.234375 16.796875 8.0625 
Q 21.484375 6.890625 26.703125 6.890625 
Q 35.15625 6.890625 40.078125 11.328125 
Q 45.015625 15.765625 45.015625 23.390625 
Q 45.015625 31 40.078125 35.4375 
Q 35.15625 39.890625 26.703125 39.890625 
Q 22.75 39.890625 18.8125 39.015625 
Q 14.890625 38.140625 10.796875 36.28125 
z
" id="DejaVuSans-53"/>
      </defs>
      <g transform="translate(146.992665 387.756875)scale(0.2 -0.2)">
       <use xlink:href="#DejaVuSans-53"/>
       <use x="63.623047" xlink:href="#DejaVuSans-48"/>
      </g>
     </g>
    </g>
    <g id="xtick_3">
     <g id="line2d_3">
      <g>
       <use style="stroke:#000000;stroke-width:0.8;" x="246.651798" xlink:href="#m3988552842" y="365.56"/>
      </g>
     </g>
     <g id="text_3">
      <!-- 100 -->
      <defs>
       <path d="M 12.40625 8.296875 
L 28.515625 8.296875 
L 28.515625 63.921875 
L 10.984375 60.40625 
L 10.984375 69.390625 
L 28.421875 72.90625 
L 38.28125 72.90625 
L 38.28125 8.296875 
L 54.390625 8.296875 
L 54.390625 0 
L 12.40625 0 
z
" id="DejaVuSans-49"/>
      </defs>
      <g transform="translate(227.564298 387.756875)scale(0.2 -0.2)">
       <use xlink:href="#DejaVuSans-49"/>
       <use x="63.623047" xlink:href="#DejaVuSans-48"/>
       <use x="127.246094" xlink:href="#DejaVuSans-48"/>
      </g>
     </g>
    </g>
    <g id="xtick_4">
     <g id="line2d_4">
      <g>
       <use style="stroke:#000000;stroke-width:0.8;" x="333.58593" xlink:href="#m3988552842" y="365.56"/>
      </g>
     </g>
     <g id="text_4">
      <!-- 150 -->
      <g transform="translate(314.49843 387.756875)scale(0.2 -0.2)">
       <use xlink:href="#DejaVuSans-49"/>
       <use x="63.623047" xlink:href="#DejaVuSans-53"/>
       <use x="127.246094" xlink:href="#DejaVuSans-48"/>
      </g>
     </g>
    </g>
    <g id="xtick_5">
     <g id="line2d_5">
      <g>
       <use style="stroke:#000000;stroke-width:0.8;" x="420.520062" xlink:href="#m3988552842" y="365.56"/>
      </g>
     </g>
     <g id="text_5">
      <!-- 200 -->
      <defs>
       <path d="M 19.1875 8.296875 
L 53.609375 8.296875 
L 53.609375 0 
L 7.328125 0 
L 7.328125 8.296875 
Q 12.9375 14.109375 22.625 23.890625 
Q 32.328125 33.6875 34.8125 36.53125 
Q 39.546875 41.84375 41.421875 45.53125 
Q 43.3125 49.21875 43.3125 52.78125 
Q 43.3125 58.59375 39.234375 62.25 
Q 35.15625 65.921875 28.609375 65.921875 
Q 23.96875 65.921875 18.8125 64.3125 
Q 13.671875 62.703125 7.8125 59.421875 
L 7.8125 69.390625 
Q 13.765625 71.78125 18.9375 73 
Q 24.125 74.21875 28.421875 74.21875 
Q 39.75 74.21875 46.484375 68.546875 
Q 53.21875 62.890625 53.21875 53.421875 
Q 53.21875 48.921875 51.53125 44.890625 
Q 49.859375 40.875 45.40625 35.40625 
Q 44.1875 33.984375 37.640625 27.21875 
Q 31.109375 20.453125 19.1875 8.296875 
z
" id="DejaVuSans-50"/>
      </defs>
      <g transform="translate(401.432562 387.756875)scale(0.2 -0.2)">
       <use xlink:href="#DejaVuSans-50"/>
       <use x="63.623047" xlink:href="#DejaVuSans-48"/>
       <use x="127.246094" xlink:href="#DejaVuSans-48"/>
      </g>
     </g>
    </g>
    <g id="xtick_6">
     <g id="line2d_6">
      <g>
       <use style="stroke:#000000;stroke-width:0.8;" x="507.454194" xlink:href="#m3988552842" y="365.56"/>
      </g>
     </g>
     <g id="text_6">
      <!-- 250 -->
      <g transform="translate(488.366694 387.756875)scale(0.2 -0.2)">
       <use xlink:href="#DejaVuSans-50"/>
       <use x="63.623047" xlink:href="#DejaVuSans-53"/>
       <use x="127.246094" xlink:href="#DejaVuSans-48"/>
      </g>
     </g>
    </g>
    <g id="text_7">
     <!-- # of games -->
     <defs>
      <path d="M 51.125 44 
L 36.921875 44 
L 32.8125 27.6875 
L 47.125 27.6875 
z
M 43.796875 71.78125 
L 38.71875 51.515625 
L 52.984375 51.515625 
L 58.109375 71.78125 
L 65.921875 71.78125 
L 60.890625 51.515625 
L 76.125 51.515625 
L 76.125 44 
L 58.984375 44 
L 54.984375 27.6875 
L 70.515625 27.6875 
L 70.515625 20.21875 
L 53.078125 20.21875 
L 48 0 
L 40.1875 0 
L 45.21875 20.21875 
L 30.90625 20.21875 
L 25.875 0 
L 18.015625 0 
L 23.09375 20.21875 
L 7.71875 20.21875 
L 7.71875 27.6875 
L 24.90625 27.6875 
L 29 44 
L 13.28125 44 
L 13.28125 51.515625 
L 30.90625 51.515625 
L 35.890625 71.78125 
z
" id="DejaVuSans-35"/>
      <path id="DejaVuSans-32"/>
      <path d="M 30.609375 48.390625 
Q 23.390625 48.390625 19.1875 42.75 
Q 14.984375 37.109375 14.984375 27.296875 
Q 14.984375 17.484375 19.15625 11.84375 
Q 23.34375 6.203125 30.609375 6.203125 
Q 37.796875 6.203125 41.984375 11.859375 
Q 46.1875 17.53125 46.1875 27.296875 
Q 46.1875 37.015625 41.984375 42.703125 
Q 37.796875 48.390625 30.609375 48.390625 
z
M 30.609375 56 
Q 42.328125 56 49.015625 48.375 
Q 55.71875 40.765625 55.71875 27.296875 
Q 55.71875 13.875 49.015625 6.21875 
Q 42.328125 -1.421875 30.609375 -1.421875 
Q 18.84375 -1.421875 12.171875 6.21875 
Q 5.515625 13.875 5.515625 27.296875 
Q 5.515625 40.765625 12.171875 48.375 
Q 18.84375 56 30.609375 56 
z
" id="DejaVuSans-111"/>
      <path d="M 37.109375 75.984375 
L 37.109375 68.5 
L 28.515625 68.5 
Q 23.6875 68.5 21.796875 66.546875 
Q 19.921875 64.59375 19.921875 59.515625 
L 19.921875 54.6875 
L 34.71875 54.6875 
L 34.71875 47.703125 
L 19.921875 47.703125 
L 19.921875 0 
L 10.890625 0 
L 10.890625 47.703125 
L 2.296875 47.703125 
L 2.296875 54.6875 
L 10.890625 54.6875 
L 10.890625 58.5 
Q 10.890625 67.625 15.140625 71.796875 
Q 19.390625 75.984375 28.609375 75.984375 
z
" id="DejaVuSans-102"/>
      <path d="M 45.40625 27.984375 
Q 45.40625 37.75 41.375 43.109375 
Q 37.359375 48.484375 30.078125 48.484375 
Q 22.859375 48.484375 18.828125 43.109375 
Q 14.796875 37.75 14.796875 27.984375 
Q 14.796875 18.265625 18.828125 12.890625 
Q 22.859375 7.515625 30.078125 7.515625 
Q 37.359375 7.515625 41.375 12.890625 
Q 45.40625 18.265625 45.40625 27.984375 
z
M 54.390625 6.78125 
Q 54.390625 -7.171875 48.1875 -13.984375 
Q 42 -20.796875 29.203125 -20.796875 
Q 24.46875 -20.796875 20.265625 -20.09375 
Q 16.0625 -19.390625 12.109375 -17.921875 
L 12.109375 -9.1875 
Q 16.0625 -11.328125 19.921875 -12.34375 
Q 23.78125 -13.375 27.78125 -13.375 
Q 36.625 -13.375 41.015625 -8.765625 
Q 45.40625 -4.15625 45.40625 5.171875 
L 45.40625 9.625 
Q 42.625 4.78125 38.28125 2.390625 
Q 33.9375 0 27.875 0 
Q 17.828125 0 11.671875 7.65625 
Q 5.515625 15.328125 5.515625 27.984375 
Q 5.515625 40.671875 11.671875 48.328125 
Q 17.828125 56 27.875 56 
Q 33.9375 56 38.28125 53.609375 
Q 42.625 51.21875 45.40625 46.390625 
L 45.40625 54.6875 
L 54.390625 54.6875 
z
" id="DejaVuSans-103"/>
      <path d="M 34.28125 27.484375 
Q 23.390625 27.484375 19.1875 25 
Q 14.984375 22.515625 14.984375 16.5 
Q 14.984375 11.71875 18.140625 8.90625 
Q 21.296875 6.109375 26.703125 6.109375 
Q 34.1875 6.109375 38.703125 11.40625 
Q 43.21875 16.703125 43.21875 25.484375 
L 43.21875 27.484375 
z
M 52.203125 31.203125 
L 52.203125 0 
L 43.21875 0 
L 43.21875 8.296875 
Q 40.140625 3.328125 35.546875 0.953125 
Q 30.953125 -1.421875 24.3125 -1.421875 
Q 15.921875 -1.421875 10.953125 3.296875 
Q 6 8.015625 6 15.921875 
Q 6 25.140625 12.171875 29.828125 
Q 18.359375 34.515625 30.609375 34.515625 
L 43.21875 34.515625 
L 43.21875 35.40625 
Q 43.21875 41.609375 39.140625 45 
Q 35.0625 48.390625 27.6875 48.390625 
Q 23 48.390625 18.546875 47.265625 
Q 14.109375 46.140625 10.015625 43.890625 
L 10.015625 52.203125 
Q 14.9375 54.109375 19.578125 55.046875 
Q 24.21875 56 28.609375 56 
Q 40.484375 56 46.34375 49.84375 
Q 52.203125 43.703125 52.203125 31.203125 
z
" id="DejaVuSans-97"/>
      <path d="M 52 44.1875 
Q 55.375 50.25 60.0625 53.125 
Q 64.75 56 71.09375 56 
Q 79.640625 56 84.28125 50.015625 
Q 88.921875 44.046875 88.921875 33.015625 
L 88.921875 0 
L 79.890625 0 
L 79.890625 32.71875 
Q 79.890625 40.578125 77.09375 44.375 
Q 74.3125 48.1875 68.609375 48.1875 
Q 61.625 48.1875 57.5625 43.546875 
Q 53.515625 38.921875 53.515625 30.90625 
L 53.515625 0 
L 44.484375 0 
L 44.484375 32.71875 
Q 44.484375 40.625 41.703125 44.40625 
Q 38.921875 48.1875 33.109375 48.1875 
Q 26.21875 48.1875 22.15625 43.53125 
Q 18.109375 38.875 18.109375 30.90625 
L 18.109375 0 
L 9.078125 0 
L 9.078125 54.6875 
L 18.109375 54.6875 
L 18.109375 46.1875 
Q 21.1875 51.21875 25.484375 53.609375 
Q 29.78125 56 35.6875 56 
Q 41.65625 56 45.828125 52.96875 
Q 50 49.953125 52 44.1875 
z
" id="DejaVuSans-109"/>
      <path d="M 56.203125 29.59375 
L 56.203125 25.203125 
L 14.890625 25.203125 
Q 15.484375 15.921875 20.484375 11.0625 
Q 25.484375 6.203125 34.421875 6.203125 
Q 39.59375 6.203125 44.453125 7.46875 
Q 49.3125 8.734375 54.109375 11.28125 
L 54.109375 2.78125 
Q 49.265625 0.734375 44.1875 -0.34375 
Q 39.109375 -1.421875 33.890625 -1.421875 
Q 20.796875 -1.421875 13.15625 6.1875 
Q 5.515625 13.8125 5.515625 26.8125 
Q 5.515625 40.234375 12.765625 48.109375 
Q 20.015625 56 32.328125 56 
Q 43.359375 56 49.78125 48.890625 
Q 56.203125 41.796875 56.203125 29.59375 
z
M 47.21875 32.234375 
Q 47.125 39.59375 43.09375 43.984375 
Q 39.0625 48.390625 32.421875 48.390625 
Q 24.90625 48.390625 20.390625 44.140625 
Q 15.875 39.890625 15.1875 32.171875 
z
" id="DejaVuSans-101"/>
      <path d="M 44.28125 53.078125 
L 44.28125 44.578125 
Q 40.484375 46.53125 36.375 47.5 
Q 32.28125 48.484375 27.875 48.484375 
Q 21.1875 48.484375 17.84375 46.4375 
Q 14.5 44.390625 14.5 40.28125 
Q 14.5 37.15625 16.890625 35.375 
Q 19.28125 33.59375 26.515625 31.984375 
L 29.59375 31.296875 
Q 39.15625 29.25 43.1875 25.515625 
Q 47.21875 21.78125 47.21875 15.09375 
Q 47.21875 7.46875 41.1875 3.015625 
Q 35.15625 -1.421875 24.609375 -1.421875 
Q 20.21875 -1.421875 15.453125 -0.5625 
Q 10.6875 0.296875 5.421875 2 
L 5.421875 11.28125 
Q 10.40625 8.6875 15.234375 7.390625 
Q 20.0625 6.109375 24.8125 6.109375 
Q 31.15625 6.109375 34.5625 8.28125 
Q 37.984375 10.453125 37.984375 14.40625 
Q 37.984375 18.0625 35.515625 20.015625 
Q 33.0625 21.96875 24.703125 23.78125 
L 21.578125 24.515625 
Q 13.234375 26.265625 9.515625 29.90625 
Q 5.8125 33.546875 5.8125 39.890625 
Q 5.8125 47.609375 11.28125 51.796875 
Q 16.75 56 26.8125 56 
Q 31.78125 56 36.171875 55.265625 
Q 40.578125 54.546875 44.28125 53.078125 
z
" id="DejaVuSans-115"/>
     </defs>
     <g transform="translate(217.675504 414.912344)scale(0.25 -0.25)">
      <use xlink:href="#DejaVuSans-35"/>
      <use x="83.789062" xlink:href="#DejaVuSans-32"/>
      <use x="115.576172" xlink:href="#DejaVuSans-111"/>
      <use x="176.757812" xlink:href="#DejaVuSans-102"/>
      <use x="211.962891" xlink:href="#DejaVuSans-32"/>
      <use x="243.75" xlink:href="#DejaVuSans-103"/>
      <use x="307.226562" xlink:href="#DejaVuSans-97"/>
      <use x="368.505859" xlink:href="#DejaVuSans-109"/>
      <use x="465.917969" xlink:href="#DejaVuSans-101"/>
      <use x="527.441406" xlink:href="#DejaVuSans-115"/>
     </g>
    </g>
   </g>
   <g id="matplotlib.axis_2">
    <g id="ytick_1">
     <g id="line2d_7">
      <defs>
       <path d="M 0 0 
L -3.5 0 
" id="m11a97e8008" style="stroke:#000000;stroke-width:0.8;"/>
      </defs>
      <g>
       <use style="stroke:#000000;stroke-width:0.8;" x="51.05" xlink:href="#m11a97e8008" y="351.970909"/>
      </g>
     </g>
     <g id="text_8">
      <!-- 1 -->
      <g transform="translate(31.325 359.569347)scale(0.2 -0.2)">
       <use xlink:href="#DejaVuSans-49"/>
      </g>
     </g>
    </g>
    <g id="ytick_2">
     <g id="line2d_8">
      <g>
       <use style="stroke:#000000;stroke-width:0.8;" x="51.05" xlink:href="#m11a97e8008" y="317.998182"/>
      </g>
     </g>
     <g id="text_9">
      <!-- 2 -->
      <g transform="translate(31.325 325.596619)scale(0.2 -0.2)">
       <use xlink:href="#DejaVuSans-50"/>
      </g>
     </g>
    </g>
    <g id="ytick_3">
     <g id="line2d_9">
      <g>
       <use style="stroke:#000000;stroke-width:0.8;" x="51.05" xlink:href="#m11a97e8008" y="284.025455"/>
      </g>
     </g>
     <g id="text_10">
      <!-- 3 -->
      <defs>
       <path d="M 40.578125 39.3125 
Q 47.65625 37.796875 51.625 33 
Q 55.609375 28.21875 55.609375 21.1875 
Q 55.609375 10.40625 48.1875 4.484375 
Q 40.765625 -1.421875 27.09375 -1.421875 
Q 22.515625 -1.421875 17.65625 -0.515625 
Q 12.796875 0.390625 7.625 2.203125 
L 7.625 11.71875 
Q 11.71875 9.328125 16.59375 8.109375 
Q 21.484375 6.890625 26.8125 6.890625 
Q 36.078125 6.890625 40.9375 10.546875 
Q 45.796875 14.203125 45.796875 21.1875 
Q 45.796875 27.640625 41.28125 31.265625 
Q 36.765625 34.90625 28.71875 34.90625 
L 20.21875 34.90625 
L 20.21875 43.015625 
L 29.109375 43.015625 
Q 36.375 43.015625 40.234375 45.921875 
Q 44.09375 48.828125 44.09375 54.296875 
Q 44.09375 59.90625 40.109375 62.90625 
Q 36.140625 65.921875 28.71875 65.921875 
Q 24.65625 65.921875 20.015625 65.03125 
Q 15.375 64.15625 9.8125 62.3125 
L 9.8125 71.09375 
Q 15.4375 72.65625 20.34375 73.4375 
Q 25.25 74.21875 29.59375 74.21875 
Q 40.828125 74.21875 47.359375 69.109375 
Q 53.90625 64.015625 53.90625 55.328125 
Q 53.90625 49.265625 50.4375 45.09375 
Q 46.96875 40.921875 40.578125 39.3125 
z
" id="DejaVuSans-51"/>
      </defs>
      <g transform="translate(31.325 291.623892)scale(0.2 -0.2)">
       <use xlink:href="#DejaVuSans-51"/>
      </g>
     </g>
    </g>
    <g id="ytick_4">
     <g id="line2d_10">
      <g>
       <use style="stroke:#000000;stroke-width:0.8;" x="51.05" xlink:href="#m11a97e8008" y="250.052727"/>
      </g>
     </g>
     <g id="text_11">
      <!-- 4 -->
      <defs>
       <path d="M 37.796875 64.3125 
L 12.890625 25.390625 
L 37.796875 25.390625 
z
M 35.203125 72.90625 
L 47.609375 72.90625 
L 47.609375 25.390625 
L 58.015625 25.390625 
L 58.015625 17.1875 
L 47.609375 17.1875 
L 47.609375 0 
L 37.796875 0 
L 37.796875 17.1875 
L 4.890625 17.1875 
L 4.890625 26.703125 
z
" id="DejaVuSans-52"/>
      </defs>
      <g transform="translate(31.325 257.651165)scale(0.2 -0.2)">
       <use xlink:href="#DejaVuSans-52"/>
      </g>
     </g>
    </g>
    <g id="ytick_5">
     <g id="line2d_11">
      <g>
       <use style="stroke:#000000;stroke-width:0.8;" x="51.05" xlink:href="#m11a97e8008" y="216.08"/>
      </g>
     </g>
     <g id="text_12">
      <!-- 5 -->
      <g transform="translate(31.325 223.678437)scale(0.2 -0.2)">
       <use xlink:href="#DejaVuSans-53"/>
      </g>
     </g>
    </g>
    <g id="ytick_6">
     <g id="line2d_12">
      <g>
       <use style="stroke:#000000;stroke-width:0.8;" x="51.05" xlink:href="#m11a97e8008" y="182.107273"/>
      </g>
     </g>
     <g id="text_13">
      <!-- 6 -->
      <defs>
       <path d="M 33.015625 40.375 
Q 26.375 40.375 22.484375 35.828125 
Q 18.609375 31.296875 18.609375 23.390625 
Q 18.609375 15.53125 22.484375 10.953125 
Q 26.375 6.390625 33.015625 6.390625 
Q 39.65625 6.390625 43.53125 10.953125 
Q 47.40625 15.53125 47.40625 23.390625 
Q 47.40625 31.296875 43.53125 35.828125 
Q 39.65625 40.375 33.015625 40.375 
z
M 52.59375 71.296875 
L 52.59375 62.3125 
Q 48.875 64.0625 45.09375 64.984375 
Q 41.3125 65.921875 37.59375 65.921875 
Q 27.828125 65.921875 22.671875 59.328125 
Q 17.53125 52.734375 16.796875 39.40625 
Q 19.671875 43.65625 24.015625 45.921875 
Q 28.375 48.1875 33.59375 48.1875 
Q 44.578125 48.1875 50.953125 41.515625 
Q 57.328125 34.859375 57.328125 23.390625 
Q 57.328125 12.15625 50.6875 5.359375 
Q 44.046875 -1.421875 33.015625 -1.421875 
Q 20.359375 -1.421875 13.671875 8.265625 
Q 6.984375 17.96875 6.984375 36.375 
Q 6.984375 53.65625 15.1875 63.9375 
Q 23.390625 74.21875 37.203125 74.21875 
Q 40.921875 74.21875 44.703125 73.484375 
Q 48.484375 72.75 52.59375 71.296875 
z
" id="DejaVuSans-54"/>
      </defs>
      <g transform="translate(31.325 189.70571)scale(0.2 -0.2)">
       <use xlink:href="#DejaVuSans-54"/>
      </g>
     </g>
    </g>
    <g id="ytick_7">
     <g id="line2d_13">
      <g>
       <use style="stroke:#000000;stroke-width:0.8;" x="51.05" xlink:href="#m11a97e8008" y="148.134545"/>
      </g>
     </g>
     <g id="text_14">
      <!-- 7 -->
      <defs>
       <path d="M 8.203125 72.90625 
L 55.078125 72.90625 
L 55.078125 68.703125 
L 28.609375 0 
L 18.3125 0 
L 43.21875 64.59375 
L 8.203125 64.59375 
z
" id="DejaVuSans-55"/>
      </defs>
      <g transform="translate(31.325 155.732983)scale(0.2 -0.2)">
       <use xlink:href="#DejaVuSans-55"/>
      </g>
     </g>
    </g>
    <g id="ytick_8">
     <g id="line2d_14">
      <g>
       <use style="stroke:#000000;stroke-width:0.8;" x="51.05" xlink:href="#m11a97e8008" y="114.161818"/>
      </g>
     </g>
     <g id="text_15">
      <!-- 8 -->
      <defs>
       <path d="M 31.78125 34.625 
Q 24.75 34.625 20.71875 30.859375 
Q 16.703125 27.09375 16.703125 20.515625 
Q 16.703125 13.921875 20.71875 10.15625 
Q 24.75 6.390625 31.78125 6.390625 
Q 38.8125 6.390625 42.859375 10.171875 
Q 46.921875 13.96875 46.921875 20.515625 
Q 46.921875 27.09375 42.890625 30.859375 
Q 38.875 34.625 31.78125 34.625 
z
M 21.921875 38.8125 
Q 15.578125 40.375 12.03125 44.71875 
Q 8.5 49.078125 8.5 55.328125 
Q 8.5 64.0625 14.71875 69.140625 
Q 20.953125 74.21875 31.78125 74.21875 
Q 42.671875 74.21875 48.875 69.140625 
Q 55.078125 64.0625 55.078125 55.328125 
Q 55.078125 49.078125 51.53125 44.71875 
Q 48 40.375 41.703125 38.8125 
Q 48.828125 37.15625 52.796875 32.3125 
Q 56.78125 27.484375 56.78125 20.515625 
Q 56.78125 9.90625 50.3125 4.234375 
Q 43.84375 -1.421875 31.78125 -1.421875 
Q 19.734375 -1.421875 13.25 4.234375 
Q 6.78125 9.90625 6.78125 20.515625 
Q 6.78125 27.484375 10.78125 32.3125 
Q 14.796875 37.15625 21.921875 38.8125 
z
M 18.3125 54.390625 
Q 18.3125 48.734375 21.84375 45.5625 
Q 25.390625 42.390625 31.78125 42.390625 
Q 38.140625 42.390625 41.71875 45.5625 
Q 45.3125 48.734375 45.3125 54.390625 
Q 45.3125 60.0625 41.71875 63.234375 
Q 38.140625 66.40625 31.78125 66.40625 
Q 25.390625 66.40625 21.84375 63.234375 
Q 18.3125 60.0625 18.3125 54.390625 
z
" id="DejaVuSans-56"/>
      </defs>
      <g transform="translate(31.325 121.760256)scale(0.2 -0.2)">
       <use xlink:href="#DejaVuSans-56"/>
      </g>
     </g>
    </g>
    <g id="ytick_9">
     <g id="line2d_15">
      <g>
       <use style="stroke:#000000;stroke-width:0.8;" x="51.05" xlink:href="#m11a97e8008" y="80.189091"/>
      </g>
     </g>
     <g id="text_16">
      <!-- 9 -->
      <defs>
       <path d="M 10.984375 1.515625 
L 10.984375 10.5 
Q 14.703125 8.734375 18.5 7.8125 
Q 22.3125 6.890625 25.984375 6.890625 
Q 35.75 6.890625 40.890625 13.453125 
Q 46.046875 20.015625 46.78125 33.40625 
Q 43.953125 29.203125 39.59375 26.953125 
Q 35.25 24.703125 29.984375 24.703125 
Q 19.046875 24.703125 12.671875 31.3125 
Q 6.296875 37.9375 6.296875 49.421875 
Q 6.296875 60.640625 12.9375 67.421875 
Q 19.578125 74.21875 30.609375 74.21875 
Q 43.265625 74.21875 49.921875 64.515625 
Q 56.59375 54.828125 56.59375 36.375 
Q 56.59375 19.140625 48.40625 8.859375 
Q 40.234375 -1.421875 26.421875 -1.421875 
Q 22.703125 -1.421875 18.890625 -0.6875 
Q 15.09375 0.046875 10.984375 1.515625 
z
M 30.609375 32.421875 
Q 37.25 32.421875 41.125 36.953125 
Q 45.015625 41.5 45.015625 49.421875 
Q 45.015625 57.28125 41.125 61.84375 
Q 37.25 66.40625 30.609375 66.40625 
Q 23.96875 66.40625 20.09375 61.84375 
Q 16.21875 57.28125 16.21875 49.421875 
Q 16.21875 41.5 20.09375 36.953125 
Q 23.96875 32.421875 30.609375 32.421875 
z
" id="DejaVuSans-57"/>
      </defs>
      <g transform="translate(31.325 87.787528)scale(0.2 -0.2)">
       <use xlink:href="#DejaVuSans-57"/>
      </g>
     </g>
    </g>
    <g id="text_17">
     <!-- AHEU Value -->
     <defs>
      <path d="M 34.1875 63.1875 
L 20.796875 26.90625 
L 47.609375 26.90625 
z
M 28.609375 72.90625 
L 39.796875 72.90625 
L 67.578125 0 
L 57.328125 0 
L 50.6875 18.703125 
L 17.828125 18.703125 
L 11.1875 0 
L 0.78125 0 
z
" id="DejaVuSans-65"/>
      <path d="M 9.8125 72.90625 
L 19.671875 72.90625 
L 19.671875 43.015625 
L 55.515625 43.015625 
L 55.515625 72.90625 
L 65.375 72.90625 
L 65.375 0 
L 55.515625 0 
L 55.515625 34.71875 
L 19.671875 34.71875 
L 19.671875 0 
L 9.8125 0 
z
" id="DejaVuSans-72"/>
      <path d="M 9.8125 72.90625 
L 55.90625 72.90625 
L 55.90625 64.59375 
L 19.671875 64.59375 
L 19.671875 43.015625 
L 54.390625 43.015625 
L 54.390625 34.71875 
L 19.671875 34.71875 
L 19.671875 8.296875 
L 56.78125 8.296875 
L 56.78125 0 
L 9.8125 0 
z
" id="DejaVuSans-69"/>
      <path d="M 8.6875 72.90625 
L 18.609375 72.90625 
L 18.609375 28.609375 
Q 18.609375 16.890625 22.84375 11.734375 
Q 27.09375 6.59375 36.625 6.59375 
Q 46.09375 6.59375 50.34375 11.734375 
Q 54.59375 16.890625 54.59375 28.609375 
L 54.59375 72.90625 
L 64.5 72.90625 
L 64.5 27.390625 
Q 64.5 13.140625 57.4375 5.859375 
Q 50.390625 -1.421875 36.625 -1.421875 
Q 22.796875 -1.421875 15.734375 5.859375 
Q 8.6875 13.140625 8.6875 27.390625 
z
" id="DejaVuSans-85"/>
      <path d="M 28.609375 0 
L 0.78125 72.90625 
L 11.078125 72.90625 
L 34.1875 11.53125 
L 57.328125 72.90625 
L 67.578125 72.90625 
L 39.796875 0 
z
" id="DejaVuSans-86"/>
      <path d="M 9.421875 75.984375 
L 18.40625 75.984375 
L 18.40625 0 
L 9.421875 0 
z
" id="DejaVuSans-108"/>
      <path d="M 8.5 21.578125 
L 8.5 54.6875 
L 17.484375 54.6875 
L 17.484375 21.921875 
Q 17.484375 14.15625 20.5 10.265625 
Q 23.53125 6.390625 29.59375 6.390625 
Q 36.859375 6.390625 41.078125 11.03125 
Q 45.3125 15.671875 45.3125 23.6875 
L 45.3125 54.6875 
L 54.296875 54.6875 
L 54.296875 0 
L 45.3125 0 
L 45.3125 8.40625 
Q 42.046875 3.421875 37.71875 1 
Q 33.40625 -1.421875 27.6875 -1.421875 
Q 18.265625 -1.421875 13.375 4.4375 
Q 8.5 10.296875 8.5 21.578125 
z
M 31.109375 56 
z
" id="DejaVuSans-117"/>
     </defs>
     <g transform="translate(23.858854 265.582604)rotate(-90)scale(0.166667 -0.166667)">
      <use xlink:href="#DejaVuSans-65"/>
      <use x="68.408203" xlink:href="#DejaVuSans-72"/>
      <use x="143.603516" xlink:href="#DejaVuSans-69"/>
      <use x="206.787109" xlink:href="#DejaVuSans-85"/>
      <use x="279.980469" xlink:href="#DejaVuSans-32"/>
      <use x="311.767578" xlink:href="#DejaVuSans-86"/>
      <use x="380.066406" xlink:href="#DejaVuSans-97"/>
      <use x="441.345703" xlink:href="#DejaVuSans-108"/>
      <use x="469.128906" xlink:href="#DejaVuSans-117"/>
      <use x="532.507812" xlink:href="#DejaVuSans-101"/>
     </g>
    </g>
   </g>
   <g id="line2d_16">
    <path clip-path="url(#pc180970a7d)" d="M 72.783533 351.970909 
L 74.522216 351.970909 
L 76.260898 349.797181 
L 77.999581 341.100009 
L 81.476946 332.40361 
L 83.215629 320.988536 
L 84.954312 301.97112 
L 86.692994 299.073203 
L 88.431677 290.912886 
L 90.17036 274.789241 
L 91.909042 274.878656 
L 93.647725 262.677204 
L 95.386407 255.099265 
L 97.12509 269.4894 
L 100.602455 237.483374 
L 102.341138 233.626697 
L 104.079821 221.872863 
L 105.818503 202.302259 
L 107.557186 208.415885 
L 109.295869 200.548613 
L 111.034551 206.669663 
L 112.773234 188.55819 
L 114.511917 194.210551 
L 116.250599 189.572159 
L 117.989282 188.331824 
L 119.727964 185.151403 
L 121.466647 193.583624 
L 123.20533 182.912471 
L 124.944012 173.416254 
L 126.682695 176.754002 
L 128.421378 183.066246 
L 130.16006 183.363268 
L 131.898743 190.145973 
L 133.637426 188.452955 
L 135.376108 186.368003 
L 137.114791 190.510644 
L 138.853474 198.290492 
L 140.592156 194.984746 
L 142.330839 197.180963 
L 144.069521 202.376092 
L 145.808204 192.896394 
L 147.546887 207.328221 
L 149.285569 196.851313 
L 151.024252 218.15586 
L 152.762935 219.417892 
L 154.501617 204.045816 
L 156.2403 220.368821 
L 157.978983 203.153187 
L 159.717665 212.190862 
L 161.456348 193.785272 
L 163.195031 190.746231 
L 164.933713 190.54591 
L 166.672396 171.832103 
L 168.411079 157.603417 
L 170.149761 164.06022 
L 171.888444 165.124723 
L 173.627126 175.165413 
L 175.365809 177.520231 
L 177.104492 173.48946 
L 178.843174 187.563656 
L 180.581857 180.58144 
L 182.32054 187.477916 
L 184.059222 168.156106 
L 185.797905 176.827893 
L 187.536588 181.400671 
L 189.27527 172.946942 
L 191.013953 161.838718 
L 192.752636 165.123862 
L 194.491318 170.026666 
L 196.230001 174.130561 
L 197.968683 161.354059 
L 199.707366 182.91371 
L 201.446049 156.205114 
L 203.184731 174.331276 
L 204.923414 179.028359 
L 206.662097 190.803142 
L 208.400779 176.304713 
L 210.139462 200.730517 
L 211.878145 198.518208 
L 213.616827 184.913681 
L 215.35551 193.967594 
L 217.094193 178.869841 
L 218.832875 179.345536 
L 220.571558 166.591586 
L 222.31024 181.154358 
L 224.048923 167.735547 
L 225.787606 174.229094 
L 227.526288 206.129925 
L 229.264971 167.185442 
L 231.003654 156.921 
L 232.742336 137.953872 
L 234.481019 146.524933 
L 236.219702 214.224646 
L 237.958384 203.22918 
L 239.697067 180.580695 
L 241.43575 176.794299 
L 243.174432 176.78723 
L 244.913115 180.161417 
L 246.651798 176.604299 
L 248.39048 171.231943 
L 250.129163 191.610939 
L 251.867845 205.155163 
L 253.606528 210.065467 
L 255.345211 210.065467 
L 257.083893 205.127266 
L 258.822576 210.304063 
L 260.561259 209.89459 
L 262.299941 178.618073 
L 264.038624 194.158657 
L 265.777307 243.301602 
L 267.515989 225.182814 
L 269.254672 243.297629 
L 270.993355 243.30282 
L 272.732037 207.065244 
L 274.47072 207.072827 
L 276.209402 213.104092 
L 277.948085 195.409048 
L 279.686768 201.501743 
L 281.42545 201.501743 
L 283.164133 261.467461 
L 284.902816 225.229885 
L 286.641498 257.753212 
L 288.380181 315.733333 
L 290.118864 257.753212 
L 291.857546 279.495758 
L 293.596229 279.495758 
L 295.334912 257.753212 
L 297.073594 239.638237 
L 298.812277 297.618358 
L 300.55096 196.165383 
L 302.289642 261.380782 
L 304.028325 212.460055 
L 305.767007 266.812606 
L 307.50569 190.735507 
L 309.244373 234.214538 
L 310.983055 197.991718 
L 312.721738 288.555152 
L 314.460421 188.932324 
L 317.937786 188.93484 
L 319.676469 149.108102 
L 321.415151 152.732309 
L 324.892517 152.732309 
L 326.631199 130.98043 
L 328.369882 152.722975 
L 333.58593 152.755083 
L 335.324612 185.435586 
L 337.063295 131.015061 
L 338.801978 188.995182 
L 340.54066 152.726071 
L 342.279343 152.695568 
L 344.018026 130.997566 
L 345.756708 170.855871 
L 347.495391 121.029205 
L 349.234074 216.146893 
L 350.972756 261.434875 
L 354.450121 261.37697 
L 359.666169 261.37697 
L 361.404852 315.733333 
L 363.143535 261.37697 
L 364.882217 225.139394 
L 366.6209 225.139394 
L 368.359583 261.37697 
L 371.836948 261.37697 
L 373.575631 225.139394 
L 375.314313 225.139394 
L 377.052996 188.905002 
L 380.530361 261.37697 
L 382.269044 225.139394 
L 387.485092 225.141613 
L 389.223774 188.904037 
L 390.962457 164.745668 
L 392.70114 261.37697 
L 394.439822 261.37697 
L 396.178505 201.521464 
L 397.917188 165.283888 
L 399.65587 225.139394 
L 401.394553 255.337374 
L 403.133236 164.743434 
L 404.871918 261.975243 
L 406.610601 200.98101 
L 408.349283 291.574949 
L 410.087966 291.574949 
L 411.826649 255.337374 
L 413.565331 291.574949 
L 415.304014 291.574949 
L 417.042697 255.360914 
L 418.781379 255.337374 
L 420.520062 225.440203 
L 422.258745 225.440203 
L 423.997427 261.648348 
L 425.73611 189.173197 
L 427.474793 261.648348 
L 429.213475 225.410773 
L 430.952158 225.410773 
L 432.69084 261.560261 
L 434.429523 171.008437 
L 436.168206 134.790802 
L 437.906888 170.994863 
L 439.645571 134.757287 
L 441.384254 170.994863 
L 443.122936 170.994863 
L 444.861619 170.820325 
L 446.600302 261.396149 
L 448.338984 261.396149 
L 450.077667 225.158573 
L 451.81635 261.396149 
L 453.555032 225.158573 
L 455.293715 261.396149 
L 457.032398 261.383924 
L 458.77108 351.970909 
L 460.509763 261.383719 
L 462.248445 188.908567 
L 463.987128 261.383719 
L 465.725811 225.146143 
L 467.464493 261.383719 
L 469.203176 225.139394 
L 470.941859 225.139394 
L 472.680541 164.743434 
L 474.419224 200.997322 
L 476.157907 261.37697 
L 477.896589 207.020606 
L 479.635272 161.888302 
L 481.373955 161.81584 
L 483.112637 351.970909 
L 486.590002 351.970909 
L 488.328685 243.612875 
L 490.067368 243.258182 
L 491.80605 243.258182 
L 493.544733 351.970909 
L 495.283416 170.78303 
L 507.454194 170.78303 
L 507.454194 170.78303 
" style="fill:none;stroke:#1f77b4;stroke-linecap:square;stroke-width:1.5;"/>
   </g>
   <g id="line2d_17">
    <path clip-path="url(#pc180970a7d)" d="M 72.783533 351.970909 
L 74.522216 326.604606 
L 76.260898 319.357091 
L 77.999581 328.415607 
L 79.738264 333.851501 
L 81.476946 332.039364 
L 83.215629 341.095852 
L 84.954312 346.534395 
L 86.692994 342.909329 
L 88.431677 348.334885 
L 90.17036 350.154473 
L 91.909042 348.258465 
L 93.647725 344.558478 
L 95.386407 350.10314 
L 98.863773 350.029953 
L 100.602455 351.949019 
L 102.341138 350.015934 
L 104.079821 350.010667 
L 105.818503 351.929587 
L 111.034551 351.942382 
L 112.773234 349.947445 
L 114.511917 351.907535 
L 116.250599 349.894459 
L 119.727964 349.798494 
L 121.466647 351.925878 
L 123.20533 349.755091 
L 124.944012 351.915487 
L 126.682695 349.637358 
L 128.421378 351.905075 
L 130.16006 347.261488 
L 131.898743 349.525899 
L 133.637426 349.380632 
L 135.376108 344.125658 
L 137.114791 349.302461 
L 138.853474 349.168534 
L 140.592156 349.164346 
L 142.330839 351.902674 
L 144.069521 349.173714 
L 145.808204 351.910941 
L 149.285569 351.920264 
L 151.024252 346.073636 
L 152.762935 345.875807 
L 154.501617 351.915403 
L 156.2403 345.875808 
L 157.978983 345.877063 
L 161.456348 351.930497 
L 163.195031 348.918044 
L 166.672396 348.67793 
L 168.411079 351.92123 
L 170.149761 348.687209 
L 171.888444 351.90267 
L 175.365809 351.846398 
L 177.104492 348.508941 
L 178.843174 348.390003 
L 180.581857 351.858154 
L 182.32054 348.249929 
L 184.059222 348.085666 
L 185.797905 348.089281 
L 187.536588 351.834162 
L 189.27527 351.818642 
L 191.013953 347.697946 
L 192.752636 351.836904 
L 194.491318 347.718985 
L 196.230001 347.715575 
L 197.968683 351.852458 
L 199.707366 343.323837 
L 201.446049 347.534226 
L 203.184731 343.22032 
L 204.923414 338.253093 
L 206.662097 347.322526 
L 208.400779 342.783981 
L 210.139462 342.76528 
L 211.878145 347.065563 
L 213.616827 346.768862 
L 215.35551 351.817034 
L 217.094193 346.784039 
L 218.832875 346.484284 
L 220.571558 351.813444 
L 222.31024 351.804663 
L 224.048923 351.924674 
L 225.787606 351.920143 
L 227.526288 346.267791 
L 229.264971 351.935063 
L 236.219702 351.898725 
L 237.958384 340.57476 
L 239.697067 351.899003 
L 251.867845 351.939511 
L 253.606528 338.993035 
L 257.083893 338.989263 
L 258.822576 351.935214 
L 260.561259 338.993189 
L 262.299941 351.934997 
L 265.777307 351.930998 
L 267.515989 321.733019 
L 269.254672 336.836137 
L 270.993355 336.832009 
L 272.732037 351.934681 
L 281.42545 351.874595 
L 283.164133 351.928022 
L 284.902816 333.809235 
L 286.641498 333.852121 
L 288.380181 351.970909 
L 290.118864 351.970909 
L 291.857546 333.852121 
L 293.596229 351.970909 
L 349.234074 351.970909 
L 350.972756 321.772929 
L 361.404852 321.772929 
L 363.143535 351.970909 
L 364.882217 321.772929 
L 366.6209 351.970909 
L 382.269044 351.970909 
L 384.007726 351.835728 
L 385.746409 351.835728 
L 387.485092 351.970909 
L 390.962457 351.745607 
L 392.70114 351.970909 
L 411.826649 351.970909 
L 413.565331 321.772929 
L 415.304014 351.970909 
L 446.600302 351.969677 
L 448.338984 321.771697 
L 450.077667 351.969677 
L 451.81635 351.969677 
L 453.555032 321.772929 
L 455.293715 351.970909 
L 457.032398 321.772929 
L 458.77108 351.970909 
L 470.941859 351.949036 
L 472.680541 351.750273 
L 474.419224 351.750306 
L 476.157907 351.916227 
L 488.328685 351.970909 
L 490.067368 351.381036 
L 491.80605 351.381036 
L 493.544733 351.970909 
L 495.283416 350.987787 
L 507.454194 350.987787 
L 507.454194 350.987787 
" style="fill:none;stroke:#ff7f0e;stroke-linecap:square;stroke-width:1.5;"/>
   </g>
   <g id="line2d_18">
    <path clip-path="url(#pc180970a7d)" d="M 72.783533 351.970909 
L 74.522216 326.604606 
L 76.260898 316.09606 
L 77.999581 315.371206 
L 79.738264 314.286222 
L 81.476946 309.211231 
L 83.215629 307.670907 
L 84.954312 289.465776 
L 86.692994 293.451076 
L 88.431677 294.249528 
L 90.17036 283.013892 
L 91.909042 300.553959 
L 93.647725 296.021277 
L 95.386407 300.176696 
L 97.12509 313.302808 
L 98.863773 314.146438 
L 100.602455 303.352518 
L 102.341138 309.502241 
L 104.079821 308.351107 
L 105.818503 290.462937 
L 107.557186 303.46033 
L 109.295869 318.798059 
L 111.034551 302.268232 
L 112.773234 312.086039 
L 114.511917 320.460453 
L 116.250599 325.685693 
L 117.989282 326.989313 
L 119.727964 327.008278 
L 121.466647 329.101269 
L 123.20533 328.942031 
L 124.944012 323.36844 
L 126.682695 334.601511 
L 128.421378 332.789243 
L 130.16006 327.651553 
L 131.898743 338.095234 
L 133.637426 331.282291 
L 135.376108 320.861513 
L 137.114791 340.011738 
L 138.853474 324.462477 
L 140.592156 324.471716 
L 142.330839 338.747125 
L 144.069521 324.471716 
L 145.808204 312.852567 
L 147.546887 325.613799 
L 149.285569 341.43163 
L 151.024252 330.339098 
L 152.762935 340.48931 
L 154.501617 330.221997 
L 156.2403 329.624404 
L 157.978983 317.324206 
L 159.717665 311.287787 
L 161.456348 309.324304 
L 163.195031 306.332526 
L 164.933713 315.036052 
L 166.672396 313.71695 
L 168.411079 315.015918 
L 170.149761 311.787623 
L 171.888444 328.23796 
L 173.627126 338.303953 
L 175.365809 331.761057 
L 177.104492 332.432124 
L 178.843174 331.66336 
L 180.581857 335.148583 
L 182.32054 335.204719 
L 184.059222 321.364376 
L 185.797905 306.190156 
L 189.27527 339.509898 
L 191.013953 335.391329 
L 192.752636 332.093329 
L 194.491318 347.758654 
L 196.230001 340.34537 
L 197.968683 344.10577 
L 199.707366 335.477776 
L 201.446049 332.025202 
L 203.184731 335.50874 
L 204.923414 330.155935 
L 206.662097 322.910138 
L 208.400779 318.177658 
L 210.139462 334.483345 
L 211.878145 338.335731 
L 213.616827 322.474406 
L 215.35551 327.512228 
L 217.094193 337.573402 
L 218.832875 336.72649 
L 220.571558 322.870953 
L 222.31024 341.693349 
L 224.048923 331.503633 
L 225.787606 341.694297 
L 227.526288 325.840357 
L 229.264971 330.137584 
L 231.003654 340.227258 
L 232.742336 302.031984 
L 234.481019 297.446158 
L 236.219702 297.446158 
L 237.958384 320.094974 
L 239.697067 297.44649 
L 241.43575 326.32417 
L 243.174432 351.802891 
L 244.913115 331.419254 
L 246.651798 351.802891 
L 248.39048 351.802891 
L 250.129163 331.419254 
L 251.867845 351.970909 
L 253.606528 339.028918 
L 255.345211 339.028918 
L 257.083893 315.733333 
L 258.822576 351.970909 
L 260.561259 339.028918 
L 262.299941 328.533396 
L 264.038624 351.825454 
L 265.777307 351.801212 
L 267.515989 294.510335 
L 269.254672 309.693737 
L 270.993355 336.787507 
L 272.732037 297.530133 
L 274.47072 297.535188 
L 276.209402 306.589527 
L 277.948085 297.473845 
L 279.686768 306.533239 
L 281.42545 306.533239 
L 283.164133 297.614545 
L 284.902816 224.647225 
L 286.641498 246.881939 
L 288.380181 351.970909 
L 290.118864 265.000727 
L 291.857546 279.495758 
L 293.596229 297.614545 
L 295.334912 265.000727 
L 297.073594 265.000727 
L 298.812277 351.970909 
L 300.55096 254.137613 
L 302.289642 351.970909 
L 305.767007 351.970909 
L 307.50569 319.357091 
L 309.244373 351.970909 
L 317.937786 351.970909 
L 319.676469 319.357091 
L 321.415151 351.970909 
L 324.892517 351.970909 
L 326.631199 319.357091 
L 328.369882 351.970909 
L 333.58593 351.970909 
L 335.324612 319.357091 
L 337.063295 319.357091 
L 338.801978 351.970909 
L 342.279343 351.970909 
L 344.018026 319.357091 
L 345.756708 351.970909 
L 347.495391 311.203636 
L 349.234074 351.970909 
L 350.972756 321.772929 
L 359.666169 321.772929 
L 361.404852 267.416566 
L 363.143535 351.970909 
L 364.882217 267.416566 
L 366.6209 297.614545 
L 368.359583 351.970909 
L 371.836948 351.970909 
L 373.575631 297.614545 
L 375.314313 297.614545 
L 377.052996 243.258182 
L 380.530361 351.970909 
L 382.269044 297.614545 
L 384.007726 351.970909 
L 385.746409 351.970909 
L 387.485092 297.614545 
L 390.962457 297.614545 
L 392.70114 351.970909 
L 396.178505 351.970909 
L 397.917188 297.614545 
L 403.133236 297.614545 
L 404.871918 351.970909 
L 410.087966 351.970909 
L 411.826649 297.614545 
L 413.565331 321.772929 
L 415.304014 351.970909 
L 417.042697 297.630239 
L 418.781379 351.970909 
L 420.520062 351.970909 
L 422.258745 297.614545 
L 423.997427 351.970909 
L 425.73611 297.614545 
L 427.474793 351.970909 
L 434.429523 351.970909 
L 436.168206 297.614545 
L 437.906888 351.970909 
L 439.645571 297.614545 
L 441.384254 351.970909 
L 446.600302 351.970909 
L 448.338984 321.772929 
L 450.077667 297.614545 
L 451.81635 351.970909 
L 453.555032 267.416566 
L 455.293715 351.970909 
L 457.032398 321.772929 
L 458.77108 351.970909 
L 460.509763 351.970909 
L 462.248445 243.258182 
L 463.987128 351.970909 
L 470.941859 351.970909 
L 472.680541 297.614545 
L 474.419224 351.970909 
L 476.157907 351.970909 
L 477.896589 270.436364 
L 481.373955 270.436364 
L 483.112637 351.970909 
L 486.590002 351.970909 
L 488.328685 189.138281 
L 490.067368 188.901818 
L 491.80605 188.901818 
L 493.544733 351.970909 
L 495.283416 80.189091 
L 497.022098 351.970909 
L 507.454194 351.970909 
L 507.454194 351.970909 
" style="fill:none;stroke:#2ca02c;stroke-linecap:square;stroke-width:1.5;"/>
   </g>
   <g id="line2d_19">
    <path clip-path="url(#pc180970a7d)" d="M 72.783533 351.970909 
L 74.522216 326.604606 
L 76.260898 316.09606 
L 77.999581 312.109824 
L 79.738264 311.02484 
L 81.476946 302.688467 
L 83.215629 297.886761 
L 84.954312 278.865298 
L 86.692994 280.672891 
L 88.431677 290.448462 
L 90.17036 276.773186 
L 91.909042 280.875438 
L 93.647725 269.409429 
L 95.386407 269.687411 
L 97.12509 272.558157 
L 98.863773 279.783661 
L 100.602455 279.683487 
L 102.341138 278.620335 
L 104.079821 285.550029 
L 105.818503 279.284907 
L 107.557186 317.978559 
L 109.295869 310.595326 
L 111.034551 309.708549 
L 112.773234 315.716302 
L 114.511917 323.558615 
L 116.250599 322.148943 
L 117.989282 339.715125 
L 119.727964 333.393432 
L 121.466647 329.192787 
L 123.20533 322.587932 
L 124.944012 316.978886 
L 126.682695 345.568849 
L 128.421378 339.684892 
L 130.16006 334.726994 
L 131.898743 340.967353 
L 133.637426 331.290978 
L 135.376108 320.868142 
L 137.114791 340.005525 
L 138.853474 329.421415 
L 140.592156 324.479926 
L 142.330839 346.991147 
L 144.069521 324.486716 
L 145.808204 321.365197 
L 147.546887 330.89622 
L 149.285569 341.400807 
L 151.024252 330.306555 
L 152.762935 331.39718 
L 154.501617 321.129867 
L 156.2403 320.525908 
L 157.978983 317.355182 
L 159.717665 307.690774 
L 161.456348 309.353638 
L 163.195031 324.436809 
L 164.933713 317.39356 
L 166.672396 335.57164 
L 168.411079 317.451565 
L 170.149761 321.503128 
L 171.888444 335.790618 
L 173.627126 345.856624 
L 175.365809 351.896224 
L 177.104492 342.501296 
L 178.843174 342.136388 
L 180.581857 345.663309 
L 182.32054 341.78612 
L 184.059222 339.659731 
L 185.797905 334.559628 
L 187.536588 345.128226 
L 189.27527 351.918396 
L 191.013953 340.388228 
L 192.752636 344.505123 
L 194.491318 347.800584 
L 196.230001 340.351237 
L 197.968683 344.138252 
L 199.707366 335.510258 
L 201.446049 332.04816 
L 203.184731 335.499357 
L 204.923414 330.146083 
L 206.662097 322.900285 
L 208.400779 310.216635 
L 210.139462 342.857086 
L 211.878145 338.522174 
L 213.616827 337.820396 
L 215.35551 333.800462 
L 217.094193 328.767466 
L 218.832875 327.400028 
L 220.571558 313.544484 
L 222.31024 324.732723 
L 224.048923 321.328101 
L 225.787606 341.710169 
L 227.526288 325.904332 
L 229.264971 330.221912 
L 231.003654 320.903742 
L 232.742336 338.373346 
L 234.481019 331.577684 
L 236.219702 331.585742 
L 237.958384 320.26303 
L 239.697067 331.585742 
L 241.43575 326.490695 
L 243.174432 326.489833 
L 244.913115 331.585742 
L 246.651798 326.489833 
L 248.39048 317.996652 
L 250.129163 331.585742 
L 251.867845 351.969379 
L 253.606528 339.028918 
L 255.345211 339.028918 
L 257.083893 292.437749 
L 258.822576 351.934603 
L 260.561259 338.992571 
L 262.299941 305.346861 
L 264.038624 351.93433 
L 265.777307 351.928234 
L 267.515989 294.552072 
L 269.254672 309.651062 
L 270.993355 336.829245 
L 272.732037 297.571871 
L 274.47072 324.755108 
L 276.209402 306.631265 
L 277.948085 324.750053 
L 279.686768 306.631315 
L 281.42545 351.928285 
L 283.164133 351.91976 
L 284.902816 333.800972 
L 286.641498 301.238303 
L 288.380181 351.970909 
L 290.118864 319.357091 
L 291.857546 333.852121 
L 293.596229 351.970909 
L 295.334912 319.357091 
L 297.073594 319.357091 
L 298.812277 351.970909 
L 300.55096 286.751431 
L 302.289642 351.970909 
L 304.028325 311.203636 
L 305.767007 311.203636 
L 307.50569 278.589818 
L 309.244373 311.203636 
L 310.983055 311.203636 
L 312.721738 351.18599 
L 314.460421 350.92435 
L 316.199103 351.970909 
L 317.937786 351.970909 
L 319.676469 319.357091 
L 321.415151 351.970909 
L 324.892517 351.970909 
L 326.631199 319.357091 
L 328.369882 351.970909 
L 333.58593 351.970909 
L 335.324612 319.315436 
L 337.063295 319.315429 
L 338.801978 351.929247 
L 342.279343 351.929224 
L 344.018026 319.315406 
L 345.756708 351.918823 
L 347.495391 311.151551 
L 349.234074 351.970909 
L 350.972756 321.772929 
L 359.666169 321.772929 
L 361.404852 267.416566 
L 363.143535 351.970909 
L 364.882217 267.416566 
L 366.6209 297.614545 
L 368.359583 351.970909 
L 371.836948 351.970909 
L 373.575631 297.507751 
L 375.314313 297.507751 
L 377.052996 243.151392 
L 380.530361 351.864115 
L 382.269044 297.507751 
L 390.962457 297.507754 
L 392.70114 351.864115 
L 396.178505 351.864752 
L 397.917188 297.508389 
L 403.133236 297.614545 
L 404.871918 351.970909 
L 410.087966 351.970909 
L 411.826649 297.614545 
L 413.565331 321.772929 
L 415.304014 351.970909 
L 417.042697 297.630239 
L 418.781379 297.614545 
L 420.520062 351.970697 
L 422.258745 297.614545 
L 423.997427 351.970909 
L 425.73611 297.614333 
L 427.474793 351.970909 
L 434.429523 351.970379 
L 436.168206 297.614015 
L 437.906888 351.970379 
L 439.645571 297.614015 
L 441.384254 351.970379 
L 446.600302 351.970379 
L 448.338984 321.772399 
L 450.077667 297.614016 
L 451.81635 351.970379 
L 453.555032 267.416036 
L 455.293715 351.970379 
L 457.032398 321.772399 
L 458.77108 351.970909 
L 460.509763 351.970379 
L 462.248445 297.59195 
L 463.987128 351.970379 
L 470.941859 351.948314 
L 472.680541 297.57724 
L 474.419224 351.933604 
L 476.157907 351.915746 
L 477.896589 270.381201 
L 481.373955 270.353676 
L 483.112637 351.970909 
L 486.590002 351.970909 
L 488.328685 189.138281 
L 490.067368 351.970909 
L 507.454194 351.970909 
L 507.454194 351.970909 
" style="fill:none;stroke:#d62728;stroke-linecap:square;stroke-width:1.5;"/>
   </g>
   <g id="line2d_20">
    <path clip-path="url(#pc180970a7d)" d="M 72.783533 351.970909 
L 74.522216 275.872 
L 76.260898 248.693818 
L 79.738264 259.565091 
L 81.476946 243.258182 
L 83.215629 245.976413 
L 84.954312 226.955427 
L 86.692994 219.707806 
L 88.431677 227.856799 
L 90.17036 210.643364 
L 91.909042 210.53153 
L 93.647725 193.888184 
L 95.386407 209.605164 
L 97.12509 232.4585 
L 98.863773 206.432744 
L 100.602455 195.827342 
L 102.341138 203.522665 
L 104.079821 181.35962 
L 105.818503 166.80112 
L 107.557186 183.550355 
L 109.295869 175.656576 
L 111.034551 192.42391 
L 112.773234 164.855477 
L 114.511917 186.8796 
L 116.250599 179.831435 
L 117.989282 178.150447 
L 119.727964 174.983107 
L 121.466647 189.700333 
L 123.20533 168.573356 
L 124.944012 157.788411 
L 126.682695 161.714634 
L 128.421378 170.779996 
L 130.16006 156.840201 
L 131.898743 174.359107 
L 133.637426 158.200539 
L 135.376108 139.722251 
L 137.114791 173.371429 
L 140.592156 157.053238 
L 142.330839 187.251218 
L 144.069521 169.406918 
L 145.808204 162.266416 
L 147.546887 180.985358 
L 149.285569 181.009547 
L 151.024252 179.548354 
L 152.762935 190.409825 
L 154.501617 176.822312 
L 156.2403 185.880738 
L 157.978983 163.23366 
L 159.717665 181.352729 
L 161.456348 182.867215 
L 163.195031 170.782677 
L 164.933713 175.467556 
L 166.672396 156.203473 
L 168.411079 140.020833 
L 170.149761 136.787727 
L 171.888444 159.020776 
L 173.627126 169.086769 
L 175.365809 177.475097 
L 177.104492 157.360416 
L 178.843174 170.757368 
L 180.581857 174.238165 
L 182.32054 163.523958 
L 184.059222 150.01599 
L 185.797905 151.877812 
L 187.536588 174.538171 
L 189.27527 172.820595 
L 191.013953 141.956078 
L 192.752636 150.189891 
L 194.491318 150.177102 
L 196.230001 154.301364 
L 197.968683 153.516522 
L 199.707366 149.202525 
L 201.446049 127.643059 
L 203.184731 140.585051 
L 204.923414 130.015758 
L 206.662097 152.664242 
L 208.400779 116.426667 
L 210.139462 157.193939 
L 211.878145 175.496903 
L 213.616827 160.655697 
L 215.35551 175.754687 
L 217.094193 145.556707 
L 218.832875 144.072806 
L 220.571558 128.089533 
L 222.31024 170.78303 
L 224.048923 136.810303 
L 225.787606 153.796667 
L 227.526288 148.134545 
L 229.264971 134.545455 
L 231.003654 144.894234 
L 232.742336 110.379985 
L 234.481019 125.475432 
L 236.219702 193.420886 
L 237.958384 148.134545 
L 239.697067 159.448159 
L 241.43575 176.436247 
L 243.174432 176.434523 
L 244.913115 159.448159 
L 246.651798 176.434523 
L 248.39048 170.772402 
L 250.129163 170.78303 
L 251.867845 204.755758 
L 253.606528 170.78303 
L 255.345211 170.78303 
L 257.083893 119.015065 
L 258.822576 209.609004 
L 262.299941 131.957056 
L 264.038624 170.78303 
L 265.777307 216.08 
L 267.515989 80.189091 
L 269.254672 170.78303 
L 270.993355 170.78303 
L 272.732037 125.486061 
L 274.47072 125.486061 
L 276.209402 185.87505 
L 277.948085 140.526737 
L 279.686768 200.970991 
L 281.42545 200.931131 
L 283.164133 261.37697 
L 284.902816 170.777242 
L 286.641498 170.777242 
L 288.380181 315.727545 
L 290.118864 225.13189 
L 291.857546 225.136852 
L 293.596229 279.493216 
L 295.334912 225.136852 
L 297.073594 207.020606 
L 298.812277 297.614545 
L 300.55096 98.307879 
L 302.289642 261.37697 
L 304.028325 179.816734 
L 305.767007 234.170458 
L 307.50569 125.457731 
L 309.244373 234.170458 
L 310.983055 197.946679 
L 312.721738 288.554927 
L 314.460421 188.88721 
L 317.937786 188.87844 
L 319.676469 116.426367 
L 321.415151 152.664242 
L 324.892517 152.664242 
L 326.631199 98.307879 
L 328.369882 152.664242 
L 335.324612 152.664242 
L 337.063295 98.307879 
L 338.801978 188.901818 
L 340.54066 152.664242 
L 342.279343 152.664242 
L 344.018026 98.307879 
L 345.756708 170.78303 
L 347.495391 80.189091 
L 349.234074 216.08 
L 350.972756 170.78303 
L 361.404852 170.78303 
L 363.143535 261.37697 
L 364.882217 80.189091 
L 368.359583 261.37697 
L 371.836948 261.37697 
L 373.575631 170.78303 
L 375.314313 170.78303 
L 377.052996 80.189091 
L 380.530361 261.37697 
L 382.269044 170.78303 
L 387.485092 170.78303 
L 389.223774 80.189091 
L 390.962457 110.321083 
L 392.70114 261.37697 
L 394.439822 261.37697 
L 396.178505 200.915023 
L 397.917188 110.321083 
L 399.65587 170.78303 
L 401.394553 200.915023 
L 403.133236 110.321083 
L 404.871918 261.37697 
L 406.610601 200.98101 
L 408.349283 291.568992 
L 410.087966 291.574949 
L 411.826649 200.98101 
L 413.565331 200.98101 
L 415.304014 291.574949 
L 417.042697 200.98101 
L 418.781379 200.779803 
L 420.520062 170.78303 
L 422.258745 170.78303 
L 423.997427 261.37697 
L 425.73611 80.189091 
L 427.474793 261.37697 
L 429.213475 170.78303 
L 430.952158 170.78303 
L 432.69084 261.37697 
L 436.168206 80.189091 
L 437.906888 170.78303 
L 439.645571 80.189091 
L 441.384254 170.78303 
L 444.861619 170.78303 
L 446.600302 261.37697 
L 448.338984 170.78303 
L 450.077667 170.78303 
L 451.81635 261.37697 
L 453.555032 80.189091 
L 455.293715 261.37697 
L 457.032398 170.78303 
L 458.77108 351.970909 
L 460.509763 261.37697 
L 462.248445 80.189091 
L 463.987128 261.37697 
L 465.725811 170.78303 
L 467.464493 261.37697 
L 469.203176 170.78303 
L 470.941859 170.78303 
L 472.680541 110.313797 
L 474.419224 200.907736 
L 476.157907 261.267059 
L 477.896589 125.37615 
L 479.635272 80.189091 
L 481.373955 80.189091 
L 483.112637 351.970909 
L 486.590002 351.970909 
L 488.328685 80.189091 
L 491.80605 80.189091 
L 493.544733 351.970909 
L 495.283416 170.78303 
L 507.454194 170.681704 
L 507.454194 170.681704 
" style="fill:none;stroke:#9467bd;stroke-linecap:square;stroke-width:1.5;"/>
   </g>
   <g id="line2d_21">
    <path clip-path="url(#pc180970a7d)" d="M 72.783533 351.970909 
L 74.522216 326.604606 
L 76.260898 316.09606 
L 77.999581 312.109824 
L 79.738264 311.02484 
L 83.215629 294.625379 
L 84.954312 271.528176 
L 86.692994 263.555076 
L 88.431677 260.018145 
L 90.17036 243.073228 
L 91.909042 249.811618 
L 93.647725 241.674949 
L 95.386407 244.166561 
L 97.12509 255.193592 
L 98.863773 243.913196 
L 100.602455 247.286031 
L 102.341138 246.222879 
L 104.079821 246.510751 
L 105.818503 236.734227 
L 107.557186 275.431052 
L 109.295869 278.983569 
L 111.034551 299.368855 
L 112.773234 296.798692 
L 114.511917 299.404383 
L 116.250599 293.476793 
L 117.989282 301.807565 
L 119.727964 308.127033 
L 121.466647 316.566302 
L 123.20533 303.201912 
L 124.944012 297.593721 
L 126.682695 307.562527 
L 128.421378 305.750665 
L 130.16006 320.825976 
L 131.898743 314.178936 
L 133.637426 311.701909 
L 135.376108 293.730708 
L 137.114791 312.880922 
L 140.592156 286.616111 
L 142.330839 309.126083 
L 144.069521 301.843924 
L 145.808204 304.369267 
L 147.546887 310.281533 
L 149.285569 312.034965 
L 151.024252 298.756593 
L 152.762935 292.000115 
L 154.501617 288.518842 
L 156.2403 311.466715 
L 157.978983 290.178398 
L 159.717665 293.221731 
L 161.456348 300.315878 
L 163.195031 297.294324 
L 164.933713 308.060494 
L 166.672396 316.193351 
L 168.411079 298.075228 
L 170.149761 304.551377 
L 171.888444 308.15121 
L 173.627126 308.165139 
L 175.365809 311.688786 
L 177.104492 302.292432 
L 178.843174 310.838028 
L 180.581857 324.774229 
L 182.32054 313.545657 
L 184.059222 310.244494 
L 185.797905 294.952574 
L 187.536588 311.190472 
L 189.27527 317.97599 
L 191.013953 315.67771 
L 192.752636 312.381879 
L 194.491318 315.678825 
L 196.230001 303.325106 
L 197.968683 318.263125 
L 199.707366 309.63513 
L 201.446049 319.125924 
L 203.184731 322.588341 
L 204.923414 316.589515 
L 206.662097 322.93281 
L 208.400779 296.606507 
L 210.139462 312.914942 
L 211.878145 324.210092 
L 213.616827 292.517176 
L 215.35551 288.493812 
L 217.094193 283.457782 
L 220.571558 275.164426 
L 222.31024 341.618555 
L 224.048923 321.226407 
L 225.787606 331.416318 
L 227.526288 315.655345 
L 229.264971 330.140515 
L 231.003654 340.121911 
L 232.742336 302.002233 
L 234.481019 297.402548 
L 236.219702 297.426973 
L 237.958384 320.076759 
L 239.697067 297.428274 
L 241.43575 292.333227 
L 243.174432 326.48856 
L 244.913115 331.584469 
L 246.651798 326.48856 
L 248.39048 317.995378 
L 250.129163 297.611742 
L 251.867845 317.998182 
L 253.606528 300.202944 
L 255.345211 300.202944 
L 257.083893 292.437749 
L 258.822576 313.144935 
L 260.561259 300.202944 
L 262.299941 266.557452 
L 264.038624 289.851621 
L 265.777307 324.795376 
L 267.515989 267.419214 
L 269.254672 309.693737 
L 270.993355 336.854127 
L 272.732037 297.596753 
L 274.47072 297.601808 
L 276.209402 306.656147 
L 277.948085 297.584889 
L 279.686768 351.941253 
L 283.164133 351.970909 
L 284.902816 279.495758 
L 286.641498 246.881939 
L 288.380181 351.968928 
L 290.118864 319.35511 
L 291.857546 333.85014 
L 293.596229 351.968928 
L 295.334912 319.35511 
L 297.073594 319.35412 
L 298.812277 351.967938 
L 300.55096 254.134641 
L 302.289642 351.967938 
L 304.028325 278.586847 
L 305.767007 278.589818 
L 307.50569 245.97303 
L 309.244373 311.200666 
L 310.983055 256.844303 
L 312.721738 311.203636 
L 314.460421 243.255212 
L 317.937786 351.96794 
L 319.676469 319.354121 
L 321.415151 351.96794 
L 323.153834 351.96794 
L 324.892517 350.426416 
L 326.631199 317.812732 
L 328.369882 350.42655 
L 333.58593 350.427571 
L 335.324612 317.813758 
L 337.063295 317.813499 
L 338.801978 350.427317 
L 342.279343 350.41964 
L 344.018026 317.80582 
L 345.756708 350.044822 
L 347.495391 309.27755 
L 349.234074 351.970909 
L 350.972756 321.772929 
L 359.666169 321.772929 
L 361.404852 267.416566 
L 363.143535 351.970909 
L 364.882217 267.416566 
L 366.6209 297.614545 
L 368.359583 351.970909 
L 371.836948 351.970909 
L 373.575631 297.614545 
L 375.314313 297.614545 
L 377.052996 243.258182 
L 380.530361 351.970909 
L 382.269044 297.614545 
L 387.485092 297.614545 
L 389.223774 243.258182 
L 390.962457 207.020606 
L 392.70114 351.970909 
L 394.439822 351.970909 
L 396.178505 261.37697 
L 397.917188 297.614545 
L 403.133236 297.614545 
L 404.871918 351.970909 
L 410.087966 351.970909 
L 411.826649 297.614545 
L 413.565331 321.772929 
L 415.304014 351.970909 
L 417.042697 297.630239 
L 422.258745 297.614545 
L 423.997427 351.970909 
L 425.73611 297.59918 
L 427.474793 351.970909 
L 434.429523 351.93251 
L 436.168206 297.576135 
L 437.906888 351.932499 
L 439.645571 297.576135 
L 441.384254 351.932499 
L 446.600302 351.967188 
L 448.338984 321.769208 
L 450.077667 297.610824 
L 451.81635 351.967188 
L 453.555032 267.412844 
L 455.293715 351.967188 
L 457.032398 321.769207 
L 458.77108 351.970909 
L 460.509763 351.967187 
L 462.248445 243.25446 
L 463.987128 351.967187 
L 465.725811 297.610823 
L 467.464493 351.967187 
L 469.203176 297.610823 
L 470.941859 297.610823 
L 472.680541 207.016884 
L 474.419224 261.373248 
L 476.157907 351.896355 
L 477.896589 270.36181 
L 481.373955 270.324609 
L 483.112637 351.970909 
L 486.590002 351.970909 
L 488.328685 189.138281 
L 490.067368 188.901818 
L 491.80605 188.901818 
L 493.544733 351.970909 
L 495.283416 80.189091 
L 505.715512 80.189091 
L 507.454194 351.970909 
L 507.454194 351.970909 
" style="fill:none;stroke:#8c564b;stroke-linecap:square;stroke-width:1.5;"/>
   </g>
   <g id="line2d_22">
    <path clip-path="url(#pc180970a7d)" d="M 72.783533 351.970909 
L 74.522216 301.238303 
L 76.260898 282.394939 
L 77.999581 283.119639 
L 79.738264 285.294966 
L 81.476946 276.233753 
L 83.215629 274.783067 
L 84.954312 247.605086 
L 86.692994 251.956736 
L 88.431677 259.557103 
L 90.17036 236.359694 
L 91.909042 241.938888 
L 93.647725 231.758607 
L 95.386407 244.884419 
L 97.12509 265.184391 
L 98.863773 263.464722 
L 100.602455 258.264109 
L 102.341138 266.352081 
L 104.079821 245.726359 
L 105.818503 243.412525 
L 107.557186 254.447216 
L 109.295869 257.608594 
L 111.034551 256.251251 
L 112.773234 252.103287 
L 114.511917 256.738288 
L 116.250599 258.549752 
L 117.989282 257.363344 
L 119.727964 260.516846 
L 121.466647 268.931114 
L 123.20533 255.301683 
L 124.944012 247.102524 
L 126.682695 251.590929 
L 128.421378 255.212163 
L 130.16006 245.803399 
L 131.898743 252.33529 
L 133.637426 242.529639 
L 135.376108 223.358264 
L 137.114791 245.096496 
L 138.853474 249.867865 
L 140.592156 243.264881 
L 142.330839 264.676328 
L 144.069521 240.791537 
L 145.808204 241.841712 
L 147.546887 246.766411 
L 149.285569 252.049979 
L 151.024252 252.32777 
L 152.762935 255.946778 
L 154.501617 250.822673 
L 156.2403 257.776256 
L 157.978983 236.94008 
L 159.717665 247.476636 
L 161.456348 248.398223 
L 163.195031 240.835891 
L 164.933713 252.36034 
L 166.672396 242.308129 
L 168.411079 230.030679 
L 170.149761 232.630243 
L 171.888444 244.942151 
L 173.627126 249.975125 
L 175.365809 264.719506 
L 177.104492 249.927087 
L 178.843174 256.504714 
L 180.581857 259.967856 
L 182.32054 249.39468 
L 184.059222 237.184069 
L 185.797905 226.236428 
L 187.536588 259.843375 
L 189.27527 253.151786 
L 191.013953 241.214422 
L 192.752636 243.679761 
L 194.491318 252.721142 
L 196.230001 247.359784 
L 197.968683 248.844235 
L 199.707366 242.37018 
L 201.446049 229.877278 
L 203.184731 238.113512 
L 204.923414 230.15078 
L 206.662097 245.964116 
L 208.400779 229.655925 
L 210.139462 250.025295 
L 211.878145 257.080537 
L 213.616827 249.25307 
L 215.35551 254.831927 
L 217.094193 246.252663 
L 218.832875 245.362998 
L 220.571558 230.45956 
L 222.31024 256.318808 
L 224.048923 239.434976 
L 225.787606 252.874813 
L 227.526288 247.340216 
L 229.264971 248.685497 
L 231.003654 242.665893 
L 232.742336 231.212904 
L 234.481019 228.641269 
L 236.219702 262.524977 
L 237.958384 234.345076 
L 239.697067 245.669318 
L 241.43575 238.867184 
L 243.174432 238.864498 
L 244.913115 245.682527 
L 246.651798 238.808059 
L 248.39048 261.601426 
L 250.129163 251.407288 
L 251.867845 278.563036 
L 253.606528 255.134206 
L 255.345211 255.134206 
L 257.083893 206.073936 
L 258.822576 281.137486 
L 260.561259 255.048767 
L 262.299941 218.686043 
L 264.038624 249.752274 
L 265.777307 297.546004 
L 267.515989 200.912469 
L 269.254672 240.258107 
L 270.993355 267.37915 
L 272.732037 225.101978 
L 274.47072 252.283099 
L 276.209402 282.530381 
L 277.948085 246.502296 
L 279.686768 276.714878 
L 281.42545 276.714878 
L 283.164133 306.704848 
L 284.902816 252.348484 
L 286.641498 235.99633 
L 288.380181 333.852121 
L 290.118864 272.233905 
L 291.857546 279.48142 
L 293.596229 315.718996 
L 295.334912 272.233905 
L 297.073594 263.176418 
L 298.812277 324.794634 
L 300.55096 176.210315 
L 302.289642 306.661509 
L 304.028325 208.820054 
L 305.767007 268.610148 
L 307.50569 197.95778 
L 309.244373 252.325451 
L 310.983055 234.214041 
L 312.721738 279.495758 
L 314.460421 270.125217 
L 317.937786 270.126475 
L 319.676469 217.436399 
L 321.415151 251.862321 
L 323.153834 251.862321 
L 324.892517 252.351609 
L 326.631199 208.861851 
L 328.369882 252.346942 
L 333.58593 252.362996 
L 335.324612 236.08943 
L 337.063295 208.879167 
L 338.801978 270.481107 
L 340.54066 252.302584 
L 342.279343 252.287306 
L 344.018026 208.824487 
L 345.756708 261.355998 
L 347.495391 195.675392 
L 349.234074 284.058901 
L 350.972756 246.306933 
L 357.927487 246.27798 
L 359.666169 246.27798 
L 361.404852 219.099798 
L 363.143535 306.673939 
L 364.882217 173.802828 
L 366.6209 234.198788 
L 368.359583 306.673939 
L 371.836948 306.673939 
L 373.575631 234.198788 
L 375.314313 234.198788 
L 377.052996 161.725228 
L 380.530361 306.673939 
L 382.269044 234.198788 
L 384.007726 234.202841 
L 385.746409 288.559205 
L 387.485092 234.199897 
L 389.223774 216.08111 
L 390.962457 204.001925 
L 392.70114 306.673939 
L 394.439822 306.673939 
L 396.178505 276.746186 
L 397.917188 204.271035 
L 399.65587 234.198788 
L 401.394553 249.297778 
L 403.133236 204.000808 
L 404.871918 306.973076 
L 406.610601 276.47596 
L 408.349283 321.772929 
L 410.087966 321.772929 
L 411.826649 249.297778 
L 413.565331 261.37697 
L 415.304014 321.772929 
L 417.042697 249.305625 
L 418.781379 249.297778 
L 420.520062 234.349192 
L 422.258745 234.349192 
L 423.997427 306.809629 
L 425.73611 216.200149 
L 427.474793 306.809629 
L 429.213475 288.6753 
L 430.952158 288.6753 
L 432.69084 306.765585 
L 434.429523 261.450836 
L 436.168206 188.985643 
L 437.906888 261.444038 
L 439.645571 188.73415 
L 441.384254 261.217336 
L 444.861619 261.129603 
L 446.600302 306.678772 
L 448.338984 246.282812 
L 450.077667 234.203621 
L 451.81635 306.678772 
L 453.555032 173.807661 
L 455.293715 306.678772 
L 457.032398 246.276699 
L 458.77108 351.970909 
L 460.509763 306.672556 
L 462.248445 161.722253 
L 463.987128 306.672556 
L 465.725811 234.197405 
L 467.464493 306.672556 
L 469.203176 288.550393 
L 470.941859 288.550393 
L 472.680541 203.99605 
L 474.419224 276.479358 
L 476.157907 306.673939 
L 477.896589 197.961212 
L 479.635272 175.39506 
L 481.373955 175.358829 
L 483.112637 351.970909 
L 486.590002 351.970909 
L 488.328685 298.08747 
L 490.067368 297.614545 
L 491.80605 297.614545 
L 493.544733 351.970909 
L 495.283416 261.37697 
L 507.454194 261.37697 
L 507.454194 261.37697 
" style="fill:none;stroke:#e377c2;stroke-linecap:square;stroke-width:1.5;"/>
   </g>
   <g id="line2d_23">
    <path clip-path="url(#pc180970a7d)" d="M 72.783533 351.970909 
L 74.522216 326.604606 
L 76.260898 316.09606 
L 77.999581 312.109824 
L 79.738264 311.02484 
L 83.215629 294.625379 
L 84.954312 271.528176 
L 86.692994 263.555076 
L 88.431677 260.018687 
L 90.17036 239.817552 
L 91.909042 255.363822 
L 93.647725 236.135595 
L 95.386407 238.627612 
L 97.12509 243.642764 
L 98.863773 232.351308 
L 100.602455 214.906837 
L 102.341138 212.965585 
L 104.079821 209.784544 
L 105.818503 195.36181 
L 107.557186 216.326515 
L 109.295869 216.323882 
L 111.034551 234.343684 
L 112.773234 231.750075 
L 114.511917 257.057509 
L 116.250599 257.152081 
L 117.989282 265.367546 
L 119.727964 257.444143 
L 121.466647 272.204326 
L 123.20533 257.782493 
L 124.944012 245.7069 
L 126.682695 266.656467 
L 128.421378 278.433342 
L 130.16006 278.870651 
L 131.898743 285.482886 
L 133.637426 273.864902 
L 135.376108 270.34303 
L 137.114791 281.72805 
L 138.853474 266.789686 
L 140.592156 261.848198 
L 142.330839 267.887794 
L 145.808204 253.371914 
L 147.546887 266.411112 
L 149.285569 276.881505 
L 151.024252 263.623763 
L 152.762935 255.714783 
L 154.501617 252.242113 
L 156.2403 257.077393 
L 157.978983 244.843706 
L 159.717665 256.925316 
L 161.456348 236.842756 
L 163.195031 242.860493 
L 164.933713 233.026399 
L 166.672396 238.456336 
L 168.411079 220.342317 
L 170.149761 226.833875 
L 171.888444 237.62832 
L 173.627126 237.665289 
L 175.365809 241.188389 
L 177.104492 231.793461 
L 178.843174 258.531876 
L 180.581857 251.583191 
L 182.32054 248.306446 
L 184.059222 242.286225 
L 185.797905 238.318546 
L 187.536588 265.846719 
L 189.27527 280.871135 
L 191.013953 266.251802 
L 192.752636 275.308696 
L 194.491318 278.603101 
L 196.230001 266.249362 
L 197.968683 279.431067 
L 199.707366 296.704069 
L 201.446049 306.169979 
L 203.184731 309.636731 
L 204.923414 302.990326 
L 206.662097 309.349697 
L 208.400779 283.076956 
L 210.139462 299.385638 
L 211.878145 309.975688 
L 213.616827 277.441423 
L 215.35551 273.423082 
L 217.094193 268.384237 
L 218.832875 295.429515 
L 220.571558 281.568273 
L 222.31024 324.728342 
L 224.048923 304.343664 
L 225.787606 314.533974 
L 227.526288 305.497851 
L 229.264971 330.1637 
L 231.003654 340.232952 
L 232.742336 302.077408 
L 234.481019 297.527091 
L 236.219702 297.558933 
L 237.958384 320.184344 
L 239.697067 297.535859 
L 241.43575 292.44067 
L 243.174432 292.4398 
L 244.913115 297.535687 
L 246.651798 292.439595 
L 248.39048 283.946517 
L 250.129163 263.586249 
L 251.867845 283.974606 
L 253.606528 300.144831 
L 255.345211 300.132481 
L 257.083893 292.367559 
L 258.822576 313.074745 
L 260.561259 300.132573 
L 262.299941 266.48682 
L 264.038624 289.78098 
L 265.777307 324.727357 
L 267.515989 267.351195 
L 269.254672 309.625718 
L 270.993355 309.628368 
L 272.732037 270.370994 
L 274.47072 270.376049 
L 276.209402 279.430386 
L 277.948085 252.24971 
L 279.686768 261.309165 
L 281.42545 261.309165 
L 283.164133 297.552479 
L 284.902816 225.077327 
L 286.641498 192.525576 
L 288.380181 297.614545 
L 290.118864 210.644364 
L 291.857546 225.139394 
L 293.596229 243.258182 
L 295.334912 210.644364 
L 297.073594 264.979145 
L 298.812277 351.949327 
L 300.55096 199.759667 
L 302.289642 297.592963 
L 304.028325 224.211872 
L 305.767007 224.233455 
L 307.50569 191.598061 
L 309.244373 256.825695 
L 310.983055 202.469337 
L 312.721738 256.847273 
L 314.460421 188.880246 
L 317.937786 188.880247 
L 319.676469 210.610335 
L 321.415151 296.090522 
L 324.892517 296.107015 
L 326.631199 263.49332 
L 328.369882 296.076251 
L 333.58593 296.083021 
L 335.324612 263.506793 
L 337.063295 263.468964 
L 338.801978 350.439146 
L 340.54066 296.08276 
L 342.279343 296.081933 
L 344.018026 263.46815 
L 345.756708 282.137423 
L 347.495391 309.311664 
L 349.234074 351.920033 
L 350.972756 321.710347 
L 359.666169 321.710307 
L 361.404852 267.416566 
L 363.143535 351.908287 
L 364.882217 267.353943 
L 366.6209 297.551923 
L 368.359583 351.908287 
L 371.836948 351.908287 
L 373.575631 297.551923 
L 375.314313 297.551923 
L 377.052996 243.195562 
L 380.530361 351.908287 
L 382.269044 297.614545 
L 387.485092 297.614545 
L 389.223774 243.258182 
L 390.962457 207.020606 
L 392.70114 351.970909 
L 394.439822 351.970909 
L 396.178505 261.37697 
L 397.917188 207.020606 
L 399.65587 297.614545 
L 401.394553 207.020606 
L 403.133236 207.020606 
L 404.871918 351.970909 
L 406.610601 261.37697 
L 410.087966 261.37697 
L 411.826649 207.020606 
L 413.565331 231.17899 
L 415.304014 261.37697 
L 417.042697 207.0363 
L 418.781379 207.020606 
L 420.520062 297.591963 
L 422.258745 297.591963 
L 423.997427 351.948319 
L 425.73611 243.235592 
L 427.474793 351.948319 
L 434.429523 351.943298 
L 436.168206 297.586945 
L 437.906888 351.9433 
L 439.645571 297.586937 
L 441.384254 351.9433 
L 446.600302 351.965907 
L 448.338984 321.767928 
L 450.077667 297.609544 
L 451.81635 351.965907 
L 453.555032 267.411564 
L 455.293715 351.965907 
L 457.032398 321.767927 
L 458.77108 351.970909 
L 460.509763 351.965907 
L 462.248445 243.253179 
L 463.987128 351.965907 
L 465.725811 297.609543 
L 467.464493 351.965907 
L 469.203176 297.609543 
L 470.941859 297.609543 
L 472.680541 207.015603 
L 474.419224 261.371968 
L 476.157907 216.08 
L 477.896589 134.545455 
L 479.635272 270.407122 
L 481.373955 270.407106 
L 483.112637 351.970909 
L 486.590002 351.970909 
L 488.328685 189.138281 
L 490.067368 188.901818 
L 491.80605 188.901818 
L 493.544733 351.970909 
L 495.283416 80.189091 
L 507.454194 80.189091 
L 507.454194 80.189091 
" style="fill:none;stroke:#7f7f7f;stroke-linecap:square;stroke-width:1.5;"/>
   </g>
   <g id="patch_3">
    <path d="M 51.05 365.56 
L 51.05 66.6 
" style="fill:none;stroke:#000000;stroke-linecap:square;stroke-linejoin:miter;stroke-width:0.8;"/>
   </g>
   <g id="patch_4">
    <path d="M 529.187727 365.56 
L 529.187727 66.6 
" style="fill:none;stroke:#000000;stroke-linecap:square;stroke-linejoin:miter;stroke-width:0.8;"/>
   </g>
   <g id="patch_5">
    <path d="M 51.05 365.56 
L 529.187727 365.56 
" style="fill:none;stroke:#000000;stroke-linecap:square;stroke-linejoin:miter;stroke-width:0.8;"/>
   </g>
   <g id="patch_6">
    <path d="M 51.05 66.6 
L 529.187727 66.6 
" style="fill:none;stroke:#000000;stroke-linecap:square;stroke-linejoin:miter;stroke-width:0.8;"/>
   </g>
   <g id="legend_1">
    <g id="patch_7">
     <path d="M 61.55 59.1 
L 518.687727 59.1 
Q 521.687727 59.1 521.687727 56.1 
L 521.687727 13.565625 
Q 521.687727 10.565625 518.687727 10.565625 
L 61.55 10.565625 
Q 58.55 10.565625 58.55 13.565625 
L 58.55 56.1 
Q 58.55 59.1 61.55 59.1 
z
" style="fill:#ffffff;opacity:0.8;stroke:#cccccc;stroke-linejoin:miter;"/>
    </g>
    <g id="line2d_24">
     <path d="M 64.55 22.713281 
L 94.55 22.713281 
" style="fill:none;stroke:#1f77b4;stroke-linecap:square;stroke-width:1.5;"/>
    </g>
    <g id="line2d_25"/>
    <g id="text_18">
     <!-- Stra 1 -->
     <defs>
      <path d="M 53.515625 70.515625 
L 53.515625 60.890625 
Q 47.90625 63.578125 42.921875 64.890625 
Q 37.9375 66.21875 33.296875 66.21875 
Q 25.25 66.21875 20.875 63.09375 
Q 16.5 59.96875 16.5 54.203125 
Q 16.5 49.359375 19.40625 46.890625 
Q 22.3125 44.4375 30.421875 42.921875 
L 36.375 41.703125 
Q 47.40625 39.59375 52.65625 34.296875 
Q 57.90625 29 57.90625 20.125 
Q 57.90625 9.515625 50.796875 4.046875 
Q 43.703125 -1.421875 29.984375 -1.421875 
Q 24.8125 -1.421875 18.96875 -0.25 
Q 13.140625 0.921875 6.890625 3.21875 
L 6.890625 13.375 
Q 12.890625 10.015625 18.65625 8.296875 
Q 24.421875 6.59375 29.984375 6.59375 
Q 38.421875 6.59375 43.015625 9.90625 
Q 47.609375 13.234375 47.609375 19.390625 
Q 47.609375 24.75 44.3125 27.78125 
Q 41.015625 30.8125 33.5 32.328125 
L 27.484375 33.5 
Q 16.453125 35.6875 11.515625 40.375 
Q 6.59375 45.0625 6.59375 53.421875 
Q 6.59375 63.09375 13.40625 68.65625 
Q 20.21875 74.21875 32.171875 74.21875 
Q 37.3125 74.21875 42.625 73.28125 
Q 47.953125 72.359375 53.515625 70.515625 
z
" id="DejaVuSans-83"/>
      <path d="M 18.3125 70.21875 
L 18.3125 54.6875 
L 36.8125 54.6875 
L 36.8125 47.703125 
L 18.3125 47.703125 
L 18.3125 18.015625 
Q 18.3125 11.328125 20.140625 9.421875 
Q 21.96875 7.515625 27.59375 7.515625 
L 36.8125 7.515625 
L 36.8125 0 
L 27.59375 0 
Q 17.1875 0 13.234375 3.875 
Q 9.28125 7.765625 9.28125 18.015625 
L 9.28125 47.703125 
L 2.6875 47.703125 
L 2.6875 54.6875 
L 9.28125 54.6875 
L 9.28125 70.21875 
z
" id="DejaVuSans-116"/>
      <path d="M 41.109375 46.296875 
Q 39.59375 47.171875 37.8125 47.578125 
Q 36.03125 48 33.890625 48 
Q 26.265625 48 22.1875 43.046875 
Q 18.109375 38.09375 18.109375 28.8125 
L 18.109375 0 
L 9.078125 0 
L 9.078125 54.6875 
L 18.109375 54.6875 
L 18.109375 46.1875 
Q 20.953125 51.171875 25.484375 53.578125 
Q 30.03125 56 36.53125 56 
Q 37.453125 56 38.578125 55.875 
Q 39.703125 55.765625 41.0625 55.515625 
z
" id="DejaVuSans-114"/>
     </defs>
     <g transform="translate(106.55 27.963281)scale(0.15 -0.15)">
      <use xlink:href="#DejaVuSans-83"/>
      <use x="63.476562" xlink:href="#DejaVuSans-116"/>
      <use x="102.685547" xlink:href="#DejaVuSans-114"/>
      <use x="143.798828" xlink:href="#DejaVuSans-97"/>
      <use x="205.078125" xlink:href="#DejaVuSans-32"/>
      <use x="236.865234" xlink:href="#DejaVuSans-49"/>
     </g>
    </g>
    <g id="line2d_26">
     <path d="M 64.55 44.730469 
L 94.55 44.730469 
" style="fill:none;stroke:#ff7f0e;stroke-linecap:square;stroke-width:1.5;"/>
    </g>
    <g id="line2d_27"/>
    <g id="text_19">
     <!-- Stra 2 -->
     <g transform="translate(106.55 49.980469)scale(0.15 -0.15)">
      <use xlink:href="#DejaVuSans-83"/>
      <use x="63.476562" xlink:href="#DejaVuSans-116"/>
      <use x="102.685547" xlink:href="#DejaVuSans-114"/>
      <use x="143.798828" xlink:href="#DejaVuSans-97"/>
      <use x="205.078125" xlink:href="#DejaVuSans-32"/>
      <use x="236.865234" xlink:href="#DejaVuSans-50"/>
     </g>
    </g>
    <g id="line2d_28">
     <path d="M 185.905024 22.713281 
L 215.905024 22.713281 
" style="fill:none;stroke:#2ca02c;stroke-linecap:square;stroke-width:1.5;"/>
    </g>
    <g id="line2d_29"/>
    <g id="text_20">
     <!-- Stra 3 -->
     <g transform="translate(227.905024 27.963281)scale(0.15 -0.15)">
      <use xlink:href="#DejaVuSans-83"/>
      <use x="63.476562" xlink:href="#DejaVuSans-116"/>
      <use x="102.685547" xlink:href="#DejaVuSans-114"/>
      <use x="143.798828" xlink:href="#DejaVuSans-97"/>
      <use x="205.078125" xlink:href="#DejaVuSans-32"/>
      <use x="236.865234" xlink:href="#DejaVuSans-51"/>
     </g>
    </g>
    <g id="line2d_30">
     <path d="M 185.905024 44.730469 
L 215.905024 44.730469 
" style="fill:none;stroke:#d62728;stroke-linecap:square;stroke-width:1.5;"/>
    </g>
    <g id="line2d_31"/>
    <g id="text_21">
     <!-- Stra 4 -->
     <g transform="translate(227.905024 49.980469)scale(0.15 -0.15)">
      <use xlink:href="#DejaVuSans-83"/>
      <use x="63.476562" xlink:href="#DejaVuSans-116"/>
      <use x="102.685547" xlink:href="#DejaVuSans-114"/>
      <use x="143.798828" xlink:href="#DejaVuSans-97"/>
      <use x="205.078125" xlink:href="#DejaVuSans-32"/>
      <use x="236.865234" xlink:href="#DejaVuSans-52"/>
     </g>
    </g>
    <g id="line2d_32">
     <path d="M 307.260047 22.713281 
L 337.260047 22.713281 
" style="fill:none;stroke:#9467bd;stroke-linecap:square;stroke-width:1.5;"/>
    </g>
    <g id="line2d_33"/>
    <g id="text_22">
     <!-- Stra 5 -->
     <g transform="translate(349.260047 27.963281)scale(0.15 -0.15)">
      <use xlink:href="#DejaVuSans-83"/>
      <use x="63.476562" xlink:href="#DejaVuSans-116"/>
      <use x="102.685547" xlink:href="#DejaVuSans-114"/>
      <use x="143.798828" xlink:href="#DejaVuSans-97"/>
      <use x="205.078125" xlink:href="#DejaVuSans-32"/>
      <use x="236.865234" xlink:href="#DejaVuSans-53"/>
     </g>
    </g>
    <g id="line2d_34">
     <path d="M 307.260047 44.730469 
L 337.260047 44.730469 
" style="fill:none;stroke:#8c564b;stroke-linecap:square;stroke-width:1.5;"/>
    </g>
    <g id="line2d_35"/>
    <g id="text_23">
     <!-- Stra 6 -->
     <g transform="translate(349.260047 49.980469)scale(0.15 -0.15)">
      <use xlink:href="#DejaVuSans-83"/>
      <use x="63.476562" xlink:href="#DejaVuSans-116"/>
      <use x="102.685547" xlink:href="#DejaVuSans-114"/>
      <use x="143.798828" xlink:href="#DejaVuSans-97"/>
      <use x="205.078125" xlink:href="#DejaVuSans-32"/>
      <use x="236.865234" xlink:href="#DejaVuSans-54"/>
     </g>
    </g>
    <g id="line2d_36">
     <path d="M 428.615071 22.713281 
L 458.615071 22.713281 
" style="fill:none;stroke:#e377c2;stroke-linecap:square;stroke-width:1.5;"/>
    </g>
    <g id="line2d_37"/>
    <g id="text_24">
     <!-- Stra 7 -->
     <g transform="translate(470.615071 27.963281)scale(0.15 -0.15)">
      <use xlink:href="#DejaVuSans-83"/>
      <use x="63.476562" xlink:href="#DejaVuSans-116"/>
      <use x="102.685547" xlink:href="#DejaVuSans-114"/>
      <use x="143.798828" xlink:href="#DejaVuSans-97"/>
      <use x="205.078125" xlink:href="#DejaVuSans-32"/>
      <use x="236.865234" xlink:href="#DejaVuSans-55"/>
     </g>
    </g>
    <g id="line2d_38">
     <path d="M 428.615071 44.730469 
L 458.615071 44.730469 
" style="fill:none;stroke:#7f7f7f;stroke-linecap:square;stroke-width:1.5;"/>
    </g>
    <g id="line2d_39"/>
    <g id="text_25">
     <!-- Stra 8 -->
     <g transform="translate(470.615071 49.980469)scale(0.15 -0.15)">
      <use xlink:href="#DejaVuSans-83"/>
      <use x="63.476562" xlink:href="#DejaVuSans-116"/>
      <use x="102.685547" xlink:href="#DejaVuSans-114"/>
      <use x="143.798828" xlink:href="#DejaVuSans-97"/>
      <use x="205.078125" xlink:href="#DejaVuSans-32"/>
      <use x="236.865234" xlink:href="#DejaVuSans-56"/>
     </g>
    </g>
   </g>
  </g>
 </g>
 <defs>
  <clipPath id="pc180970a7d">
   <rect height="298.96" width="478.137727" x="51.05" y="66.6"/>
  </clipPath>
 </defs>
</svg>
