<?xml version="1.0" encoding="utf-8" standalone="no"?>
<!DOCTYPE svg PUBLIC "-//W3C//DTD SVG 1.1//EN"
  "http://www.w3.org/Graphics/SVG/1.1/DTD/svg11.dtd">
<!-- Created with matplotlib (https://matplotlib.org/) -->
<svg height="432pt" version="1.1" viewBox="0 0 540 432" width="540pt" xmlns="http://www.w3.org/2000/svg" xmlns:xlink="http://www.w3.org/1999/xlink">
 <defs>
  <style type="text/css">
*{stroke-linecap:butt;stroke-linejoin:round;}
  </style>
 </defs>
 <g id="figure_1">
  <g id="patch_1">
   <path d="M 0 432 
L 540 432 
L 540 0 
L 0 0 
z
" style="fill:#ffffff;"/>
  </g>
  <g id="axes_1">
   <g id="patch_2">
    <path d="M 70.13 365.56 
L 529.2 365.56 
L 529.2 66.6 
L 70.13 66.6 
z
" style="fill:#ffffff;"/>
   </g>
   <g id="matplotlib.axis_1">
    <g id="xtick_1">
     <g id="line2d_1">
      <defs>
       <path d="M 0 0 
L 0 3.5 
" id="m968a8e9391" style="stroke:#000000;stroke-width:0.8;"/>
      </defs>
      <g>
       <use style="stroke:#000000;stroke-width:0.8;" x="90.996818" xlink:href="#m968a8e9391" y="365.56"/>
      </g>
     </g>
     <g id="text_1">
      <!-- 0 -->
      <defs>
       <path d="M 31.78125 66.40625 
Q 24.171875 66.40625 20.328125 58.90625 
Q 16.5 51.421875 16.5 36.375 
Q 16.5 21.390625 20.328125 13.890625 
Q 24.171875 6.390625 31.78125 6.390625 
Q 39.453125 6.390625 43.28125 13.890625 
Q 47.125 21.390625 47.125 36.375 
Q 47.125 51.421875 43.28125 58.90625 
Q 39.453125 66.40625 31.78125 66.40625 
z
M 31.78125 74.21875 
Q 44.046875 74.21875 50.515625 64.515625 
Q 56.984375 54.828125 56.984375 36.375 
Q 56.984375 17.96875 50.515625 8.265625 
Q 44.046875 -1.421875 31.78125 -1.421875 
Q 19.53125 -1.421875 13.0625 8.265625 
Q 6.59375 17.96875 6.59375 36.375 
Q 6.59375 54.828125 13.0625 64.515625 
Q 19.53125 74.21875 31.78125 74.21875 
z
" id="DejaVuSans-48"/>
      </defs>
      <g transform="translate(84.634318 387.756875)scale(0.2 -0.2)">
       <use xlink:href="#DejaVuSans-48"/>
      </g>
     </g>
    </g>
    <g id="xtick_2">
     <g id="line2d_2">
      <g>
       <use style="stroke:#000000;stroke-width:0.8;" x="179.791789" xlink:href="#m968a8e9391" y="365.56"/>
      </g>
     </g>
     <g id="text_2">
      <!-- 10 -->
      <defs>
       <path d="M 12.40625 8.296875 
L 28.515625 8.296875 
L 28.515625 63.921875 
L 10.984375 60.40625 
L 10.984375 69.390625 
L 28.421875 72.90625 
L 38.28125 72.90625 
L 38.28125 8.296875 
L 54.390625 8.296875 
L 54.390625 0 
L 12.40625 0 
z
" id="DejaVuSans-49"/>
      </defs>
      <g transform="translate(167.066789 387.756875)scale(0.2 -0.2)">
       <use xlink:href="#DejaVuSans-49"/>
       <use x="63.623047" xlink:href="#DejaVuSans-48"/>
      </g>
     </g>
    </g>
    <g id="xtick_3">
     <g id="line2d_3">
      <g>
       <use style="stroke:#000000;stroke-width:0.8;" x="268.58676" xlink:href="#m968a8e9391" y="365.56"/>
      </g>
     </g>
     <g id="text_3">
      <!-- 20 -->
      <defs>
       <path d="M 19.1875 8.296875 
L 53.609375 8.296875 
L 53.609375 0 
L 7.328125 0 
L 7.328125 8.296875 
Q 12.9375 14.109375 22.625 23.890625 
Q 32.328125 33.6875 34.8125 36.53125 
Q 39.546875 41.84375 41.421875 45.53125 
Q 43.3125 49.21875 43.3125 52.78125 
Q 43.3125 58.59375 39.234375 62.25 
Q 35.15625 65.921875 28.609375 65.921875 
Q 23.96875 65.921875 18.8125 64.3125 
Q 13.671875 62.703125 7.8125 59.421875 
L 7.8125 69.390625 
Q 13.765625 71.78125 18.9375 73 
Q 24.125 74.21875 28.421875 74.21875 
Q 39.75 74.21875 46.484375 68.546875 
Q 53.21875 62.890625 53.21875 53.421875 
Q 53.21875 48.921875 51.53125 44.890625 
Q 49.859375 40.875 45.40625 35.40625 
Q 44.1875 33.984375 37.640625 27.21875 
Q 31.109375 20.453125 19.1875 8.296875 
z
" id="DejaVuSans-50"/>
      </defs>
      <g transform="translate(255.86176 387.756875)scale(0.2 -0.2)">
       <use xlink:href="#DejaVuSans-50"/>
       <use x="63.623047" xlink:href="#DejaVuSans-48"/>
      </g>
     </g>
    </g>
    <g id="xtick_4">
     <g id="line2d_4">
      <g>
       <use style="stroke:#000000;stroke-width:0.8;" x="357.381731" xlink:href="#m968a8e9391" y="365.56"/>
      </g>
     </g>
     <g id="text_4">
      <!-- 30 -->
      <defs>
       <path d="M 40.578125 39.3125 
Q 47.65625 37.796875 51.625 33 
Q 55.609375 28.21875 55.609375 21.1875 
Q 55.609375 10.40625 48.1875 4.484375 
Q 40.765625 -1.421875 27.09375 -1.421875 
Q 22.515625 -1.421875 17.65625 -0.515625 
Q 12.796875 0.390625 7.625 2.203125 
L 7.625 11.71875 
Q 11.71875 9.328125 16.59375 8.109375 
Q 21.484375 6.890625 26.8125 6.890625 
Q 36.078125 6.890625 40.9375 10.546875 
Q 45.796875 14.203125 45.796875 21.1875 
Q 45.796875 27.640625 41.28125 31.265625 
Q 36.765625 34.90625 28.71875 34.90625 
L 20.21875 34.90625 
L 20.21875 43.015625 
L 29.109375 43.015625 
Q 36.375 43.015625 40.234375 45.921875 
Q 44.09375 48.828125 44.09375 54.296875 
Q 44.09375 59.90625 40.109375 62.90625 
Q 36.140625 65.921875 28.71875 65.921875 
Q 24.65625 65.921875 20.015625 65.03125 
Q 15.375 64.15625 9.8125 62.3125 
L 9.8125 71.09375 
Q 15.4375 72.65625 20.34375 73.4375 
Q 25.25 74.21875 29.59375 74.21875 
Q 40.828125 74.21875 47.359375 69.109375 
Q 53.90625 64.015625 53.90625 55.328125 
Q 53.90625 49.265625 50.4375 45.09375 
Q 46.96875 40.921875 40.578125 39.3125 
z
" id="DejaVuSans-51"/>
      </defs>
      <g transform="translate(344.656731 387.756875)scale(0.2 -0.2)">
       <use xlink:href="#DejaVuSans-51"/>
       <use x="63.623047" xlink:href="#DejaVuSans-48"/>
      </g>
     </g>
    </g>
    <g id="xtick_5">
     <g id="line2d_5">
      <g>
       <use style="stroke:#000000;stroke-width:0.8;" x="446.176702" xlink:href="#m968a8e9391" y="365.56"/>
      </g>
     </g>
     <g id="text_5">
      <!-- 40 -->
      <defs>
       <path d="M 37.796875 64.3125 
L 12.890625 25.390625 
L 37.796875 25.390625 
z
M 35.203125 72.90625 
L 47.609375 72.90625 
L 47.609375 25.390625 
L 58.015625 25.390625 
L 58.015625 17.1875 
L 47.609375 17.1875 
L 47.609375 0 
L 37.796875 0 
L 37.796875 17.1875 
L 4.890625 17.1875 
L 4.890625 26.703125 
z
" id="DejaVuSans-52"/>
      </defs>
      <g transform="translate(433.451702 387.756875)scale(0.2 -0.2)">
       <use xlink:href="#DejaVuSans-52"/>
       <use x="63.623047" xlink:href="#DejaVuSans-48"/>
      </g>
     </g>
    </g>
    <g id="text_6">
     <!-- # of games -->
     <defs>
      <path d="M 51.125 44 
L 36.921875 44 
L 32.8125 27.6875 
L 47.125 27.6875 
z
M 43.796875 71.78125 
L 38.71875 51.515625 
L 52.984375 51.515625 
L 58.109375 71.78125 
L 65.921875 71.78125 
L 60.890625 51.515625 
L 76.125 51.515625 
L 76.125 44 
L 58.984375 44 
L 54.984375 27.6875 
L 70.515625 27.6875 
L 70.515625 20.21875 
L 53.078125 20.21875 
L 48 0 
L 40.1875 0 
L 45.21875 20.21875 
L 30.90625 20.21875 
L 25.875 0 
L 18.015625 0 
L 23.09375 20.21875 
L 7.71875 20.21875 
L 7.71875 27.6875 
L 24.90625 27.6875 
L 29 44 
L 13.28125 44 
L 13.28125 51.515625 
L 30.90625 51.515625 
L 35.890625 71.78125 
z
" id="DejaVuSans-35"/>
      <path id="DejaVuSans-32"/>
      <path d="M 30.609375 48.390625 
Q 23.390625 48.390625 19.1875 42.75 
Q 14.984375 37.109375 14.984375 27.296875 
Q 14.984375 17.484375 19.15625 11.84375 
Q 23.34375 6.203125 30.609375 6.203125 
Q 37.796875 6.203125 41.984375 11.859375 
Q 46.1875 17.53125 46.1875 27.296875 
Q 46.1875 37.015625 41.984375 42.703125 
Q 37.796875 48.390625 30.609375 48.390625 
z
M 30.609375 56 
Q 42.328125 56 49.015625 48.375 
Q 55.71875 40.765625 55.71875 27.296875 
Q 55.71875 13.875 49.015625 6.21875 
Q 42.328125 -1.421875 30.609375 -1.421875 
Q 18.84375 -1.421875 12.171875 6.21875 
Q 5.515625 13.875 5.515625 27.296875 
Q 5.515625 40.765625 12.171875 48.375 
Q 18.84375 56 30.609375 56 
z
" id="DejaVuSans-111"/>
      <path d="M 37.109375 75.984375 
L 37.109375 68.5 
L 28.515625 68.5 
Q 23.6875 68.5 21.796875 66.546875 
Q 19.921875 64.59375 19.921875 59.515625 
L 19.921875 54.6875 
L 34.71875 54.6875 
L 34.71875 47.703125 
L 19.921875 47.703125 
L 19.921875 0 
L 10.890625 0 
L 10.890625 47.703125 
L 2.296875 47.703125 
L 2.296875 54.6875 
L 10.890625 54.6875 
L 10.890625 58.5 
Q 10.890625 67.625 15.140625 71.796875 
Q 19.390625 75.984375 28.609375 75.984375 
z
" id="DejaVuSans-102"/>
      <path d="M 45.40625 27.984375 
Q 45.40625 37.75 41.375 43.109375 
Q 37.359375 48.484375 30.078125 48.484375 
Q 22.859375 48.484375 18.828125 43.109375 
Q 14.796875 37.75 14.796875 27.984375 
Q 14.796875 18.265625 18.828125 12.890625 
Q 22.859375 7.515625 30.078125 7.515625 
Q 37.359375 7.515625 41.375 12.890625 
Q 45.40625 18.265625 45.40625 27.984375 
z
M 54.390625 6.78125 
Q 54.390625 -7.171875 48.1875 -13.984375 
Q 42 -20.796875 29.203125 -20.796875 
Q 24.46875 -20.796875 20.265625 -20.09375 
Q 16.0625 -19.390625 12.109375 -17.921875 
L 12.109375 -9.1875 
Q 16.0625 -11.328125 19.921875 -12.34375 
Q 23.78125 -13.375 27.78125 -13.375 
Q 36.625 -13.375 41.015625 -8.765625 
Q 45.40625 -4.15625 45.40625 5.171875 
L 45.40625 9.625 
Q 42.625 4.78125 38.28125 2.390625 
Q 33.9375 0 27.875 0 
Q 17.828125 0 11.671875 7.65625 
Q 5.515625 15.328125 5.515625 27.984375 
Q 5.515625 40.671875 11.671875 48.328125 
Q 17.828125 56 27.875 56 
Q 33.9375 56 38.28125 53.609375 
Q 42.625 51.21875 45.40625 46.390625 
L 45.40625 54.6875 
L 54.390625 54.6875 
z
" id="DejaVuSans-103"/>
      <path d="M 34.28125 27.484375 
Q 23.390625 27.484375 19.1875 25 
Q 14.984375 22.515625 14.984375 16.5 
Q 14.984375 11.71875 18.140625 8.90625 
Q 21.296875 6.109375 26.703125 6.109375 
Q 34.1875 6.109375 38.703125 11.40625 
Q 43.21875 16.703125 43.21875 25.484375 
L 43.21875 27.484375 
z
M 52.203125 31.203125 
L 52.203125 0 
L 43.21875 0 
L 43.21875 8.296875 
Q 40.140625 3.328125 35.546875 0.953125 
Q 30.953125 -1.421875 24.3125 -1.421875 
Q 15.921875 -1.421875 10.953125 3.296875 
Q 6 8.015625 6 15.921875 
Q 6 25.140625 12.171875 29.828125 
Q 18.359375 34.515625 30.609375 34.515625 
L 43.21875 34.515625 
L 43.21875 35.40625 
Q 43.21875 41.609375 39.140625 45 
Q 35.0625 48.390625 27.6875 48.390625 
Q 23 48.390625 18.546875 47.265625 
Q 14.109375 46.140625 10.015625 43.890625 
L 10.015625 52.203125 
Q 14.9375 54.109375 19.578125 55.046875 
Q 24.21875 56 28.609375 56 
Q 40.484375 56 46.34375 49.84375 
Q 52.203125 43.703125 52.203125 31.203125 
z
" id="DejaVuSans-97"/>
      <path d="M 52 44.1875 
Q 55.375 50.25 60.0625 53.125 
Q 64.75 56 71.09375 56 
Q 79.640625 56 84.28125 50.015625 
Q 88.921875 44.046875 88.921875 33.015625 
L 88.921875 0 
L 79.890625 0 
L 79.890625 32.71875 
Q 79.890625 40.578125 77.09375 44.375 
Q 74.3125 48.1875 68.609375 48.1875 
Q 61.625 48.1875 57.5625 43.546875 
Q 53.515625 38.921875 53.515625 30.90625 
L 53.515625 0 
L 44.484375 0 
L 44.484375 32.71875 
Q 44.484375 40.625 41.703125 44.40625 
Q 38.921875 48.1875 33.109375 48.1875 
Q 26.21875 48.1875 22.15625 43.53125 
Q 18.109375 38.875 18.109375 30.90625 
L 18.109375 0 
L 9.078125 0 
L 9.078125 54.6875 
L 18.109375 54.6875 
L 18.109375 46.1875 
Q 21.1875 51.21875 25.484375 53.609375 
Q 29.78125 56 35.6875 56 
Q 41.65625 56 45.828125 52.96875 
Q 50 49.953125 52 44.1875 
z
" id="DejaVuSans-109"/>
      <path d="M 56.203125 29.59375 
L 56.203125 25.203125 
L 14.890625 25.203125 
Q 15.484375 15.921875 20.484375 11.0625 
Q 25.484375 6.203125 34.421875 6.203125 
Q 39.59375 6.203125 44.453125 7.46875 
Q 49.3125 8.734375 54.109375 11.28125 
L 54.109375 2.78125 
Q 49.265625 0.734375 44.1875 -0.34375 
Q 39.109375 -1.421875 33.890625 -1.421875 
Q 20.796875 -1.421875 13.15625 6.1875 
Q 5.515625 13.8125 5.515625 26.8125 
Q 5.515625 40.234375 12.765625 48.109375 
Q 20.015625 56 32.328125 56 
Q 43.359375 56 49.78125 48.890625 
Q 56.203125 41.796875 56.203125 29.59375 
z
M 47.21875 32.234375 
Q 47.125 39.59375 43.09375 43.984375 
Q 39.0625 48.390625 32.421875 48.390625 
Q 24.90625 48.390625 20.390625 44.140625 
Q 15.875 39.890625 15.1875 32.171875 
z
" id="DejaVuSans-101"/>
      <path d="M 44.28125 53.078125 
L 44.28125 44.578125 
Q 40.484375 46.53125 36.375 47.5 
Q 32.28125 48.484375 27.875 48.484375 
Q 21.1875 48.484375 17.84375 46.4375 
Q 14.5 44.390625 14.5 40.28125 
Q 14.5 37.15625 16.890625 35.375 
Q 19.28125 33.59375 26.515625 31.984375 
L 29.59375 31.296875 
Q 39.15625 29.25 43.1875 25.515625 
Q 47.21875 21.78125 47.21875 15.09375 
Q 47.21875 7.46875 41.1875 3.015625 
Q 35.15625 -1.421875 24.609375 -1.421875 
Q 20.21875 -1.421875 15.453125 -0.5625 
Q 10.6875 0.296875 5.421875 2 
L 5.421875 11.28125 
Q 10.40625 8.6875 15.234375 7.390625 
Q 20.0625 6.109375 24.8125 6.109375 
Q 31.15625 6.109375 34.5625 8.28125 
Q 37.984375 10.453125 37.984375 14.40625 
Q 37.984375 18.0625 35.515625 20.015625 
Q 33.0625 21.96875 24.703125 23.78125 
L 21.578125 24.515625 
Q 13.234375 26.265625 9.515625 29.90625 
Q 5.8125 33.546875 5.8125 39.890625 
Q 5.8125 47.609375 11.28125 51.796875 
Q 16.75 56 26.8125 56 
Q 31.78125 56 36.171875 55.265625 
Q 40.578125 54.546875 44.28125 53.078125 
z
" id="DejaVuSans-115"/>
     </defs>
     <g transform="translate(227.221641 414.912344)scale(0.25 -0.25)">
      <use xlink:href="#DejaVuSans-35"/>
      <use x="83.789062" xlink:href="#DejaVuSans-32"/>
      <use x="115.576172" xlink:href="#DejaVuSans-111"/>
      <use x="176.757812" xlink:href="#DejaVuSans-102"/>
      <use x="211.962891" xlink:href="#DejaVuSans-32"/>
      <use x="243.75" xlink:href="#DejaVuSans-103"/>
      <use x="307.226562" xlink:href="#DejaVuSans-97"/>
      <use x="368.505859" xlink:href="#DejaVuSans-109"/>
      <use x="465.917969" xlink:href="#DejaVuSans-101"/>
      <use x="527.441406" xlink:href="#DejaVuSans-115"/>
     </g>
    </g>
   </g>
   <g id="matplotlib.axis_2">
    <g id="ytick_1">
     <g id="line2d_6">
      <defs>
       <path d="M 0 0 
L -3.5 0 
" id="m943f73559e" style="stroke:#000000;stroke-width:0.8;"/>
      </defs>
      <g>
       <use style="stroke:#000000;stroke-width:0.8;" x="70.13" xlink:href="#m943f73559e" y="351.970909"/>
      </g>
     </g>
     <g id="text_7">
      <!-- 1.0 -->
      <defs>
       <path d="M 10.6875 12.40625 
L 21 12.40625 
L 21 0 
L 10.6875 0 
z
" id="DejaVuSans-46"/>
      </defs>
      <g transform="translate(31.32375 359.569347)scale(0.2 -0.2)">
       <use xlink:href="#DejaVuSans-49"/>
       <use x="63.623047" xlink:href="#DejaVuSans-46"/>
       <use x="95.410156" xlink:href="#DejaVuSans-48"/>
      </g>
     </g>
    </g>
    <g id="ytick_2">
     <g id="line2d_7">
      <g>
       <use style="stroke:#000000;stroke-width:0.8;" x="70.13" xlink:href="#m943f73559e" y="311.678409"/>
      </g>
     </g>
     <g id="text_8">
      <!-- 1.5 -->
      <defs>
       <path d="M 10.796875 72.90625 
L 49.515625 72.90625 
L 49.515625 64.59375 
L 19.828125 64.59375 
L 19.828125 46.734375 
Q 21.96875 47.46875 24.109375 47.828125 
Q 26.265625 48.1875 28.421875 48.1875 
Q 40.625 48.1875 47.75 41.5 
Q 54.890625 34.8125 54.890625 23.390625 
Q 54.890625 11.625 47.5625 5.09375 
Q 40.234375 -1.421875 26.90625 -1.421875 
Q 22.3125 -1.421875 17.546875 -0.640625 
Q 12.796875 0.140625 7.71875 1.703125 
L 7.71875 11.625 
Q 12.109375 9.234375 16.796875 8.0625 
Q 21.484375 6.890625 26.703125 6.890625 
Q 35.15625 6.890625 40.078125 11.328125 
Q 45.015625 15.765625 45.015625 23.390625 
Q 45.015625 31 40.078125 35.4375 
Q 35.15625 39.890625 26.703125 39.890625 
Q 22.75 39.890625 18.8125 39.015625 
Q 14.890625 38.140625 10.796875 36.28125 
z
" id="DejaVuSans-53"/>
      </defs>
      <g transform="translate(31.32375 319.276847)scale(0.2 -0.2)">
       <use xlink:href="#DejaVuSans-49"/>
       <use x="63.623047" xlink:href="#DejaVuSans-46"/>
       <use x="95.410156" xlink:href="#DejaVuSans-53"/>
      </g>
     </g>
    </g>
    <g id="ytick_3">
     <g id="line2d_8">
      <g>
       <use style="stroke:#000000;stroke-width:0.8;" x="70.13" xlink:href="#m943f73559e" y="271.38591"/>
      </g>
     </g>
     <g id="text_9">
      <!-- 2.0 -->
      <g transform="translate(31.32375 278.984347)scale(0.2 -0.2)">
       <use xlink:href="#DejaVuSans-50"/>
       <use x="63.623047" xlink:href="#DejaVuSans-46"/>
       <use x="95.410156" xlink:href="#DejaVuSans-48"/>
      </g>
     </g>
    </g>
    <g id="ytick_4">
     <g id="line2d_9">
      <g>
       <use style="stroke:#000000;stroke-width:0.8;" x="70.13" xlink:href="#m943f73559e" y="231.09341"/>
      </g>
     </g>
     <g id="text_10">
      <!-- 2.5 -->
      <g transform="translate(31.32375 238.691848)scale(0.2 -0.2)">
       <use xlink:href="#DejaVuSans-50"/>
       <use x="63.623047" xlink:href="#DejaVuSans-46"/>
       <use x="95.410156" xlink:href="#DejaVuSans-53"/>
      </g>
     </g>
    </g>
    <g id="ytick_5">
     <g id="line2d_10">
      <g>
       <use style="stroke:#000000;stroke-width:0.8;" x="70.13" xlink:href="#m943f73559e" y="190.80091"/>
      </g>
     </g>
     <g id="text_11">
      <!-- 3.0 -->
      <g transform="translate(31.32375 198.399348)scale(0.2 -0.2)">
       <use xlink:href="#DejaVuSans-51"/>
       <use x="63.623047" xlink:href="#DejaVuSans-46"/>
       <use x="95.410156" xlink:href="#DejaVuSans-48"/>
      </g>
     </g>
    </g>
    <g id="ytick_6">
     <g id="line2d_11">
      <g>
       <use style="stroke:#000000;stroke-width:0.8;" x="70.13" xlink:href="#m943f73559e" y="150.508411"/>
      </g>
     </g>
     <g id="text_12">
      <!-- 3.5 -->
      <g transform="translate(31.32375 158.106848)scale(0.2 -0.2)">
       <use xlink:href="#DejaVuSans-51"/>
       <use x="63.623047" xlink:href="#DejaVuSans-46"/>
       <use x="95.410156" xlink:href="#DejaVuSans-53"/>
      </g>
     </g>
    </g>
    <g id="ytick_7">
     <g id="line2d_12">
      <g>
       <use style="stroke:#000000;stroke-width:0.8;" x="70.13" xlink:href="#m943f73559e" y="110.215911"/>
      </g>
     </g>
     <g id="text_13">
      <!-- 4.0 -->
      <g transform="translate(31.32375 117.814349)scale(0.2 -0.2)">
       <use xlink:href="#DejaVuSans-52"/>
       <use x="63.623047" xlink:href="#DejaVuSans-46"/>
       <use x="95.410156" xlink:href="#DejaVuSans-48"/>
      </g>
     </g>
    </g>
    <g id="ytick_8">
     <g id="line2d_13">
      <g>
       <use style="stroke:#000000;stroke-width:0.8;" x="70.13" xlink:href="#m943f73559e" y="69.923412"/>
      </g>
     </g>
     <g id="text_14">
      <!-- 4.5 -->
      <g transform="translate(31.32375 77.521849)scale(0.2 -0.2)">
       <use xlink:href="#DejaVuSans-52"/>
       <use x="63.623047" xlink:href="#DejaVuSans-46"/>
       <use x="95.410156" xlink:href="#DejaVuSans-53"/>
      </g>
     </g>
    </g>
    <g id="text_15">
     <!-- AHEU Value -->
     <defs>
      <path d="M 34.1875 63.1875 
L 20.796875 26.90625 
L 47.609375 26.90625 
z
M 28.609375 72.90625 
L 39.796875 72.90625 
L 67.578125 0 
L 57.328125 0 
L 50.6875 18.703125 
L 17.828125 18.703125 
L 11.1875 0 
L 0.78125 0 
z
" id="DejaVuSans-65"/>
      <path d="M 9.8125 72.90625 
L 19.671875 72.90625 
L 19.671875 43.015625 
L 55.515625 43.015625 
L 55.515625 72.90625 
L 65.375 72.90625 
L 65.375 0 
L 55.515625 0 
L 55.515625 34.71875 
L 19.671875 34.71875 
L 19.671875 0 
L 9.8125 0 
z
" id="DejaVuSans-72"/>
      <path d="M 9.8125 72.90625 
L 55.90625 72.90625 
L 55.90625 64.59375 
L 19.671875 64.59375 
L 19.671875 43.015625 
L 54.390625 43.015625 
L 54.390625 34.71875 
L 19.671875 34.71875 
L 19.671875 8.296875 
L 56.78125 8.296875 
L 56.78125 0 
L 9.8125 0 
z
" id="DejaVuSans-69"/>
      <path d="M 8.6875 72.90625 
L 18.609375 72.90625 
L 18.609375 28.609375 
Q 18.609375 16.890625 22.84375 11.734375 
Q 27.09375 6.59375 36.625 6.59375 
Q 46.09375 6.59375 50.34375 11.734375 
Q 54.59375 16.890625 54.59375 28.609375 
L 54.59375 72.90625 
L 64.5 72.90625 
L 64.5 27.390625 
Q 64.5 13.140625 57.4375 5.859375 
Q 50.390625 -1.421875 36.625 -1.421875 
Q 22.796875 -1.421875 15.734375 5.859375 
Q 8.6875 13.140625 8.6875 27.390625 
z
" id="DejaVuSans-85"/>
      <path d="M 28.609375 0 
L 0.78125 72.90625 
L 11.078125 72.90625 
L 34.1875 11.53125 
L 57.328125 72.90625 
L 67.578125 72.90625 
L 39.796875 0 
z
" id="DejaVuSans-86"/>
      <path d="M 9.421875 75.984375 
L 18.40625 75.984375 
L 18.40625 0 
L 9.421875 0 
z
" id="DejaVuSans-108"/>
      <path d="M 8.5 21.578125 
L 8.5 54.6875 
L 17.484375 54.6875 
L 17.484375 21.921875 
Q 17.484375 14.15625 20.5 10.265625 
Q 23.53125 6.390625 29.59375 6.390625 
Q 36.859375 6.390625 41.078125 11.03125 
Q 45.3125 15.671875 45.3125 23.6875 
L 45.3125 54.6875 
L 54.296875 54.6875 
L 54.296875 0 
L 45.3125 0 
L 45.3125 8.40625 
Q 42.046875 3.421875 37.71875 1 
Q 33.40625 -1.421875 27.6875 -1.421875 
Q 18.265625 -1.421875 13.375 4.4375 
Q 8.5 10.296875 8.5 21.578125 
z
M 31.109375 56 
z
" id="DejaVuSans-117"/>
     </defs>
     <g transform="translate(23.857604 265.582604)rotate(-90)scale(0.166667 -0.166667)">
      <use xlink:href="#DejaVuSans-65"/>
      <use x="68.408203" xlink:href="#DejaVuSans-72"/>
      <use x="143.603516" xlink:href="#DejaVuSans-69"/>
      <use x="206.787109" xlink:href="#DejaVuSans-85"/>
      <use x="279.980469" xlink:href="#DejaVuSans-32"/>
      <use x="311.767578" xlink:href="#DejaVuSans-86"/>
      <use x="380.066406" xlink:href="#DejaVuSans-97"/>
      <use x="441.345703" xlink:href="#DejaVuSans-108"/>
      <use x="469.128906" xlink:href="#DejaVuSans-117"/>
      <use x="532.507812" xlink:href="#DejaVuSans-101"/>
     </g>
    </g>
   </g>
   <g id="line2d_14">
    <path clip-path="url(#pf20814b251)" d="M 90.996818 351.970909 
L 99.876315 255.26891 
L 108.755812 224.539164 
L 117.635309 245.59871 
L 126.514807 218.762934 
L 135.394304 223.538005 
L 144.273801 226.956096 
L 153.153298 228.925155 
L 162.032795 217.483778 
L 170.912292 229.721648 
L 179.791789 216.052457 
L 188.671286 223.502856 
L 197.550783 220.048169 
L 206.43028 203.328608 
L 215.309778 198.58504 
L 224.189275 210.908257 
L 233.068772 207.300376 
L 241.948269 196.464495 
L 250.827766 198.77528 
L 259.707263 187.281309 
L 268.58676 191.230515 
L 277.466257 187.756979 
L 286.345754 183.227848 
L 295.225251 179.330891 
L 304.104749 167.10285 
L 312.984246 169.935331 
L 321.863743 156.223268 
L 330.74324 159.140049 
L 339.622737 150.539177 
L 348.502234 157.291276 
L 357.381731 162.882707 
L 366.261228 143.672574 
L 375.140725 144.998478 
L 384.020222 136.901845 
L 392.89972 143.879073 
L 401.779217 138.999217 
L 410.658714 171.744036 
L 419.538211 149.471962 
L 428.417708 115.173499 
L 437.297205 144.235568 
L 446.176702 115.924575 
L 455.056199 144.418073 
L 463.935696 103.678656 
L 472.815193 121.874089 
L 481.694691 105.28827 
L 490.574188 100.228894 
L 499.453685 137.908866 
L 508.333182 127.882027 
" style="fill:none;stroke:#1f77b4;stroke-linecap:square;stroke-width:1.5;"/>
   </g>
   <g id="line2d_15">
    <path clip-path="url(#pf20814b251)" d="M 90.996818 351.970909 
L 99.876315 292.230563 
L 108.755812 277.331292 
L 117.635309 283.205043 
L 126.514807 279.174714 
L 135.394304 281.714184 
L 144.273801 271.164392 
L 153.153298 273.006547 
L 162.032795 257.403738 
L 170.912292 288.224081 
L 179.791789 275.753011 
L 188.671286 283.82372 
L 197.550783 290.459979 
L 206.43028 277.182516 
L 215.309778 291.113237 
L 224.189275 295.691886 
L 233.068772 304.57377 
L 241.948269 300.342015 
L 250.827766 304.259567 
L 259.707263 300.397225 
L 268.58676 310.384418 
L 277.466257 311.570575 
L 286.345754 310.414839 
L 295.225251 312.725572 
L 304.104749 311.25666 
L 312.984246 316.769348 
L 321.863743 315.575886 
L 330.74324 309.983891 
L 339.622737 311.448881 
L 348.502234 318.765488 
L 357.381731 318.24502 
L 366.261228 312.520569 
L 375.140725 314.864809 
L 384.020222 319.97095 
L 392.89972 319.333823 
L 401.779217 322.754462 
L 410.658714 329.072395 
L 419.538211 324.658329 
L 428.417708 320.681387 
L 437.297205 329.249183 
L 446.176702 324.039064 
L 455.056199 332.099992 
L 463.935696 330.457983 
L 472.815193 330.225564 
L 481.694691 328.479574 
L 490.574188 323.882217 
L 499.453685 336.966362 
L 508.333182 335.479474 
" style="fill:none;stroke:#ff7f0e;stroke-linecap:square;stroke-width:1.5;"/>
   </g>
   <g id="line2d_16">
    <path clip-path="url(#pf20814b251)" d="M 90.996818 351.970909 
L 99.876315 296.098643 
L 108.755812 282.488732 
L 117.635309 274.985373 
L 126.514807 261.698449 
L 135.394304 262.41756 
L 144.273801 263.197059 
L 153.153298 264.360881 
L 162.032795 250.434008 
L 170.912292 259.187576 
L 179.791789 257.885383 
L 188.671286 261.401945 
L 197.550783 264.682893 
L 206.43028 259.522904 
L 215.309778 253.857551 
L 224.189275 266.061149 
L 233.068772 268.214372 
L 241.948269 263.125126 
L 250.827766 270.769295 
L 259.707263 272.065798 
L 268.58676 282.986192 
L 277.466257 286.190254 
L 286.345754 288.471338 
L 295.225251 294.644407 
L 304.104749 291.917943 
L 312.984246 293.54607 
L 321.863743 289.219881 
L 330.74324 296.026646 
L 339.622737 292.589272 
L 348.502234 298.646361 
L 357.381731 300.022431 
L 366.261228 294.791431 
L 375.140725 297.475397 
L 384.020222 292.123742 
L 392.89972 305.101913 
L 401.779217 302.327677 
L 410.658714 314.822439 
L 419.538211 306.74848 
L 428.417708 295.953051 
L 437.297205 300.513409 
L 446.176702 300.449177 
L 455.056199 308.836528 
L 463.935696 314.289429 
L 472.815193 307.837858 
L 481.694691 309.188689 
L 490.574188 312.958503 
L 499.453685 335.688074 
L 508.333182 298.359325 
" style="fill:none;stroke:#2ca02c;stroke-linecap:square;stroke-width:1.5;"/>
   </g>
   <g id="line2d_17">
    <path clip-path="url(#pf20814b251)" d="M 90.996818 351.970909 
L 99.876315 299.966723 
L 108.755812 274.752572 
L 117.635309 274.985373 
L 126.514807 263.640257 
L 135.394304 265.546417 
L 144.273801 265.890075 
L 153.153298 249.328075 
L 162.032795 254.449405 
L 170.912292 269.378535 
L 179.791789 253.868418 
L 188.671286 268.386969 
L 197.550783 262.71828 
L 206.43028 254.301669 
L 215.309778 250.84532 
L 224.189275 265.865726 
L 233.068772 277.285382 
L 241.948269 272.608354 
L 250.827766 282.129471 
L 259.707263 281.281603 
L 268.58676 280.149215 
L 277.466257 281.15027 
L 286.345754 291.14065 
L 295.225251 293.718513 
L 304.104749 293.255942 
L 312.984246 291.871552 
L 321.863743 295.601353 
L 330.74324 298.439617 
L 339.622737 286.558854 
L 348.502234 298.98616 
L 357.381731 301.757101 
L 366.261228 303.335524 
L 375.140725 306.486987 
L 384.020222 305.555838 
L 392.89972 306.709858 
L 401.779217 312.693525 
L 410.658714 317.059401 
L 419.538211 314.767759 
L 428.417708 300.914483 
L 437.297205 313.777729 
L 446.176702 302.337769 
L 455.056199 320.096627 
L 463.935696 309.689731 
L 472.815193 316.747662 
L 481.694691 311.463653 
L 490.574188 306.710168 
L 499.453685 342.749183 
L 508.333182 301.48423 
" style="fill:none;stroke:#d62728;stroke-linecap:square;stroke-width:1.5;"/>
   </g>
   <g id="line2d_18">
    <path clip-path="url(#pf20814b251)" d="M 90.996818 351.970909 
L 99.876315 235.92851 
L 108.755812 219.596617 
L 117.635309 193.05729 
L 126.514807 183.680951 
L 135.394304 175.45652 
L 144.273801 172.862257 
L 153.153298 156.479462 
L 162.032795 156.346091 
L 170.912292 174.943108 
L 179.791789 159.140502 
L 188.671286 164.332483 
L 197.550783 174.381626 
L 206.43028 141.850503 
L 215.309778 149.76275 
L 224.189275 157.860749 
L 233.068772 166.684414 
L 241.948269 147.888505 
L 250.827766 152.984094 
L 259.707263 144.284569 
L 268.58676 144.344102 
L 277.466257 147.105262 
L 286.345754 139.875379 
L 295.225251 130.570735 
L 304.104749 121.931955 
L 312.984246 129.66027 
L 321.863743 112.457389 
L 330.74324 122.237118 
L 339.622737 111.011222 
L 348.502234 122.27137 
L 357.381731 129.993073 
L 366.261228 112.213552 
L 375.140725 115.516997 
L 384.020222 102.151816 
L 392.89972 119.104592 
L 401.779217 110.931718 
L 410.658714 149.155607 
L 419.538211 122.606189 
L 428.417708 91.622155 
L 437.297205 122.153161 
L 446.176702 90.458705 
L 455.056199 126.735912 
L 463.935696 80.189091 
L 472.815193 98.193137 
L 481.694691 84.121833 
L 490.574188 80.894622 
L 499.453685 110.215911 
L 508.333182 93.349283 
" style="fill:none;stroke:#9467bd;stroke-linecap:square;stroke-width:1.5;"/>
   </g>
   <g id="line2d_19">
    <path clip-path="url(#pf20814b251)" d="M 90.996818 351.970909 
L 99.876315 299.966723 
L 108.755812 279.910012 
L 117.635309 269.183253 
L 126.514807 268.29824 
L 135.394304 267.594731 
L 144.273801 266.26058 
L 153.153298 268.292559 
L 162.032795 258.431802 
L 170.912292 274.748327 
L 179.791789 258.302629 
L 188.671286 266.208845 
L 197.550783 260.645809 
L 206.43028 256.429965 
L 215.309778 260.182037 
L 224.189275 273.882622 
L 233.068772 276.17152 
L 241.948269 270.740262 
L 250.827766 275.517279 
L 259.707263 266.709904 
L 268.58676 277.38621 
L 277.466257 279.824382 
L 286.345754 277.544002 
L 295.225251 276.721097 
L 304.104749 282.262158 
L 312.984246 282.047764 
L 321.863743 279.245045 
L 330.74324 284.934459 
L 339.622737 272.012422 
L 348.502234 283.913809 
L 357.381731 279.80557 
L 366.261228 279.01309 
L 375.140725 280.272115 
L 384.020222 285.7752 
L 392.89972 296.111569 
L 401.779217 290.510697 
L 410.658714 304.467441 
L 419.538211 306.413322 
L 428.417708 296.246684 
L 437.297205 299.971859 
L 446.176702 286.554097 
L 455.056199 306.603443 
L 463.935696 301.493564 
L 472.815193 317.986308 
L 481.694691 309.276327 
L 490.574188 292.352137 
L 499.453685 305.139757 
L 508.333182 293.610115 
" style="fill:none;stroke:#8c564b;stroke-linecap:square;stroke-width:1.5;"/>
   </g>
   <g id="line2d_20">
    <path clip-path="url(#pf20814b251)" d="M 90.996818 351.970909 
L 99.876315 268.592296 
L 108.755812 247.389488 
L 117.635309 227.977457 
L 126.514807 216.475917 
L 135.394304 220.016342 
L 144.273801 211.919738 
L 153.153298 204.366915 
L 162.032795 196.08554 
L 170.912292 217.696204 
L 179.791789 206.608806 
L 188.671286 213.104667 
L 197.550783 224.28438 
L 206.43028 200.667992 
L 215.309778 199.229808 
L 224.189275 209.256469 
L 233.068772 219.293154 
L 241.948269 207.739596 
L 250.827766 218.28766 
L 259.707263 206.154194 
L 268.58676 215.268974 
L 277.466257 218.355091 
L 286.345754 217.474647 
L 295.225251 214.517249 
L 304.104749 206.428577 
L 312.984246 212.842759 
L 321.863743 205.424037 
L 330.74324 209.408111 
L 339.622737 202.7807 
L 348.502234 211.875064 
L 357.381731 216.57323 
L 366.261228 202.659439 
L 375.140725 203.578045 
L 384.020222 201.608791 
L 392.89972 213.447913 
L 401.779217 205.588175 
L 410.658714 227.35929 
L 419.538211 220.190318 
L 428.417708 192.556391 
L 437.297205 213.898639 
L 446.176702 201.096419 
L 455.056199 217.875827 
L 463.935696 198.851776 
L 472.815193 209.808609 
L 481.694691 192.514528 
L 490.574188 207.888846 
L 499.453685 220.736548 
L 508.333182 212.787731 
" style="fill:none;stroke:#e377c2;stroke-linecap:square;stroke-width:1.5;"/>
   </g>
   <g id="line2d_21">
    <path clip-path="url(#pf20814b251)" d="M 90.996818 351.970909 
L 99.876315 299.966723 
L 108.755812 295.382332 
L 117.635309 284.655573 
L 126.514807 276.067823 
L 135.394304 265.653308 
L 144.273801 265.612195 
L 153.153298 255.676505 
L 162.032795 263.140117 
L 170.912292 264.791629 
L 179.791789 255.906819 
L 188.671286 260.794274 
L 197.550783 256.767155 
L 206.43028 249.161922 
L 215.309778 255.612025 
L 224.189275 264.706834 
L 233.068772 267.660151 
L 241.948269 260.103663 
L 250.827766 258.040207 
L 259.707263 263.236571 
L 268.58676 263.210267 
L 277.466257 270.106689 
L 286.345754 272.301557 
L 295.225251 270.518901 
L 304.104749 273.677812 
L 312.984246 272.883488 
L 321.863743 269.668417 
L 330.74324 270.598497 
L 339.622737 270.243758 
L 348.502234 278.513918 
L 357.381731 286.372242 
L 366.261228 287.14455 
L 375.140725 284.321928 
L 384.020222 280.87037 
L 392.89972 286.19821 
L 401.779217 286.275269 
L 410.658714 291.953229 
L 419.538211 296.158115 
L 428.417708 281.956321 
L 437.297205 299.414293 
L 446.176702 296.328582 
L 455.056199 311.114617 
L 463.935696 306.706943 
L 472.815193 304.960356 
L 481.694691 293.626148 
L 490.574188 304.322803 
L 499.453685 304.318905 
L 508.333182 296.543983 
" style="fill:none;stroke:#7f7f7f;stroke-linecap:square;stroke-width:1.5;"/>
   </g>
   <g id="patch_3">
    <path d="M 70.13 365.56 
L 70.13 66.6 
" style="fill:none;stroke:#000000;stroke-linecap:square;stroke-linejoin:miter;stroke-width:0.8;"/>
   </g>
   <g id="patch_4">
    <path d="M 529.2 365.56 
L 529.2 66.6 
" style="fill:none;stroke:#000000;stroke-linecap:square;stroke-linejoin:miter;stroke-width:0.8;"/>
   </g>
   <g id="patch_5">
    <path d="M 70.13 365.56 
L 529.2 365.56 
" style="fill:none;stroke:#000000;stroke-linecap:square;stroke-linejoin:miter;stroke-width:0.8;"/>
   </g>
   <g id="patch_6">
    <path d="M 70.13 66.6 
L 529.2 66.6 
" style="fill:none;stroke:#000000;stroke-linecap:square;stroke-linejoin:miter;stroke-width:0.8;"/>
   </g>
   <g id="legend_1">
    <g id="patch_7">
     <path d="M 80.63 59.1 
L 518.7 59.1 
Q 521.7 59.1 521.7 56.1 
L 521.7 13.565625 
Q 521.7 10.565625 518.7 10.565625 
L 80.63 10.565625 
Q 77.63 10.565625 77.63 13.565625 
L 77.63 56.1 
Q 77.63 59.1 80.63 59.1 
z
" style="fill:#ffffff;opacity:0.8;stroke:#cccccc;stroke-linejoin:miter;"/>
    </g>
    <g id="line2d_22">
     <path d="M 83.63 22.713281 
L 113.63 22.713281 
" style="fill:none;stroke:#1f77b4;stroke-linecap:square;stroke-width:1.5;"/>
    </g>
    <g id="line2d_23"/>
    <g id="text_16">
     <!-- Stra 1 -->
     <defs>
      <path d="M 53.515625 70.515625 
L 53.515625 60.890625 
Q 47.90625 63.578125 42.921875 64.890625 
Q 37.9375 66.21875 33.296875 66.21875 
Q 25.25 66.21875 20.875 63.09375 
Q 16.5 59.96875 16.5 54.203125 
Q 16.5 49.359375 19.40625 46.890625 
Q 22.3125 44.4375 30.421875 42.921875 
L 36.375 41.703125 
Q 47.40625 39.59375 52.65625 34.296875 
Q 57.90625 29 57.90625 20.125 
Q 57.90625 9.515625 50.796875 4.046875 
Q 43.703125 -1.421875 29.984375 -1.421875 
Q 24.8125 -1.421875 18.96875 -0.25 
Q 13.140625 0.921875 6.890625 3.21875 
L 6.890625 13.375 
Q 12.890625 10.015625 18.65625 8.296875 
Q 24.421875 6.59375 29.984375 6.59375 
Q 38.421875 6.59375 43.015625 9.90625 
Q 47.609375 13.234375 47.609375 19.390625 
Q 47.609375 24.75 44.3125 27.78125 
Q 41.015625 30.8125 33.5 32.328125 
L 27.484375 33.5 
Q 16.453125 35.6875 11.515625 40.375 
Q 6.59375 45.0625 6.59375 53.421875 
Q 6.59375 63.09375 13.40625 68.65625 
Q 20.21875 74.21875 32.171875 74.21875 
Q 37.3125 74.21875 42.625 73.28125 
Q 47.953125 72.359375 53.515625 70.515625 
z
" id="DejaVuSans-83"/>
      <path d="M 18.3125 70.21875 
L 18.3125 54.6875 
L 36.8125 54.6875 
L 36.8125 47.703125 
L 18.3125 47.703125 
L 18.3125 18.015625 
Q 18.3125 11.328125 20.140625 9.421875 
Q 21.96875 7.515625 27.59375 7.515625 
L 36.8125 7.515625 
L 36.8125 0 
L 27.59375 0 
Q 17.1875 0 13.234375 3.875 
Q 9.28125 7.765625 9.28125 18.015625 
L 9.28125 47.703125 
L 2.6875 47.703125 
L 2.6875 54.6875 
L 9.28125 54.6875 
L 9.28125 70.21875 
z
" id="DejaVuSans-116"/>
      <path d="M 41.109375 46.296875 
Q 39.59375 47.171875 37.8125 47.578125 
Q 36.03125 48 33.890625 48 
Q 26.265625 48 22.1875 43.046875 
Q 18.109375 38.09375 18.109375 28.8125 
L 18.109375 0 
L 9.078125 0 
L 9.078125 54.6875 
L 18.109375 54.6875 
L 18.109375 46.1875 
Q 20.953125 51.171875 25.484375 53.578125 
Q 30.03125 56 36.53125 56 
Q 37.453125 56 38.578125 55.875 
Q 39.703125 55.765625 41.0625 55.515625 
z
" id="DejaVuSans-114"/>
     </defs>
     <g transform="translate(125.63 27.963281)scale(0.15 -0.15)">
      <use xlink:href="#DejaVuSans-83"/>
      <use x="63.476562" xlink:href="#DejaVuSans-116"/>
      <use x="102.685547" xlink:href="#DejaVuSans-114"/>
      <use x="143.798828" xlink:href="#DejaVuSans-97"/>
      <use x="205.078125" xlink:href="#DejaVuSans-32"/>
      <use x="236.865234" xlink:href="#DejaVuSans-49"/>
     </g>
    </g>
    <g id="line2d_24">
     <path d="M 83.63 44.730469 
L 113.63 44.730469 
" style="fill:none;stroke:#ff7f0e;stroke-linecap:square;stroke-width:1.5;"/>
    </g>
    <g id="line2d_25"/>
    <g id="text_17">
     <!-- Stra 2 -->
     <g transform="translate(125.63 49.980469)scale(0.15 -0.15)">
      <use xlink:href="#DejaVuSans-83"/>
      <use x="63.476562" xlink:href="#DejaVuSans-116"/>
      <use x="102.685547" xlink:href="#DejaVuSans-114"/>
      <use x="143.798828" xlink:href="#DejaVuSans-97"/>
      <use x="205.078125" xlink:href="#DejaVuSans-32"/>
      <use x="236.865234" xlink:href="#DejaVuSans-50"/>
     </g>
    </g>
    <g id="line2d_26">
     <path d="M 198.629115 22.713281 
L 228.629115 22.713281 
" style="fill:none;stroke:#2ca02c;stroke-linecap:square;stroke-width:1.5;"/>
    </g>
    <g id="line2d_27"/>
    <g id="text_18">
     <!-- Stra 3 -->
     <g transform="translate(240.629115 27.963281)scale(0.15 -0.15)">
      <use xlink:href="#DejaVuSans-83"/>
      <use x="63.476562" xlink:href="#DejaVuSans-116"/>
      <use x="102.685547" xlink:href="#DejaVuSans-114"/>
      <use x="143.798828" xlink:href="#DejaVuSans-97"/>
      <use x="205.078125" xlink:href="#DejaVuSans-32"/>
      <use x="236.865234" xlink:href="#DejaVuSans-51"/>
     </g>
    </g>
    <g id="line2d_28">
     <path d="M 198.629115 44.730469 
L 228.629115 44.730469 
" style="fill:none;stroke:#d62728;stroke-linecap:square;stroke-width:1.5;"/>
    </g>
    <g id="line2d_29"/>
    <g id="text_19">
     <!-- Stra 4 -->
     <g transform="translate(240.629115 49.980469)scale(0.15 -0.15)">
      <use xlink:href="#DejaVuSans-83"/>
      <use x="63.476562" xlink:href="#DejaVuSans-116"/>
      <use x="102.685547" xlink:href="#DejaVuSans-114"/>
      <use x="143.798828" xlink:href="#DejaVuSans-97"/>
      <use x="205.078125" xlink:href="#DejaVuSans-32"/>
      <use x="236.865234" xlink:href="#DejaVuSans-52"/>
     </g>
    </g>
    <g id="line2d_30">
     <path d="M 313.628229 22.713281 
L 343.628229 22.713281 
" style="fill:none;stroke:#9467bd;stroke-linecap:square;stroke-width:1.5;"/>
    </g>
    <g id="line2d_31"/>
    <g id="text_20">
     <!-- Stra 5 -->
     <g transform="translate(355.628229 27.963281)scale(0.15 -0.15)">
      <use xlink:href="#DejaVuSans-83"/>
      <use x="63.476562" xlink:href="#DejaVuSans-116"/>
      <use x="102.685547" xlink:href="#DejaVuSans-114"/>
      <use x="143.798828" xlink:href="#DejaVuSans-97"/>
      <use x="205.078125" xlink:href="#DejaVuSans-32"/>
      <use x="236.865234" xlink:href="#DejaVuSans-53"/>
     </g>
    </g>
    <g id="line2d_32">
     <path d="M 313.628229 44.730469 
L 343.628229 44.730469 
" style="fill:none;stroke:#8c564b;stroke-linecap:square;stroke-width:1.5;"/>
    </g>
    <g id="line2d_33"/>
    <g id="text_21">
     <!-- Stra 6 -->
     <defs>
      <path d="M 33.015625 40.375 
Q 26.375 40.375 22.484375 35.828125 
Q 18.609375 31.296875 18.609375 23.390625 
Q 18.609375 15.53125 22.484375 10.953125 
Q 26.375 6.390625 33.015625 6.390625 
Q 39.65625 6.390625 43.53125 10.953125 
Q 47.40625 15.53125 47.40625 23.390625 
Q 47.40625 31.296875 43.53125 35.828125 
Q 39.65625 40.375 33.015625 40.375 
z
M 52.59375 71.296875 
L 52.59375 62.3125 
Q 48.875 64.0625 45.09375 64.984375 
Q 41.3125 65.921875 37.59375 65.921875 
Q 27.828125 65.921875 22.671875 59.328125 
Q 17.53125 52.734375 16.796875 39.40625 
Q 19.671875 43.65625 24.015625 45.921875 
Q 28.375 48.1875 33.59375 48.1875 
Q 44.578125 48.1875 50.953125 41.515625 
Q 57.328125 34.859375 57.328125 23.390625 
Q 57.328125 12.15625 50.6875 5.359375 
Q 44.046875 -1.421875 33.015625 -1.421875 
Q 20.359375 -1.421875 13.671875 8.265625 
Q 6.984375 17.96875 6.984375 36.375 
Q 6.984375 53.65625 15.1875 63.9375 
Q 23.390625 74.21875 37.203125 74.21875 
Q 40.921875 74.21875 44.703125 73.484375 
Q 48.484375 72.75 52.59375 71.296875 
z
" id="DejaVuSans-54"/>
     </defs>
     <g transform="translate(355.628229 49.980469)scale(0.15 -0.15)">
      <use xlink:href="#DejaVuSans-83"/>
      <use x="63.476562" xlink:href="#DejaVuSans-116"/>
      <use x="102.685547" xlink:href="#DejaVuSans-114"/>
      <use x="143.798828" xlink:href="#DejaVuSans-97"/>
      <use x="205.078125" xlink:href="#DejaVuSans-32"/>
      <use x="236.865234" xlink:href="#DejaVuSans-54"/>
     </g>
    </g>
    <g id="line2d_34">
     <path d="M 428.627344 22.713281 
L 458.627344 22.713281 
" style="fill:none;stroke:#e377c2;stroke-linecap:square;stroke-width:1.5;"/>
    </g>
    <g id="line2d_35"/>
    <g id="text_22">
     <!-- Stra 7 -->
     <defs>
      <path d="M 8.203125 72.90625 
L 55.078125 72.90625 
L 55.078125 68.703125 
L 28.609375 0 
L 18.3125 0 
L 43.21875 64.59375 
L 8.203125 64.59375 
z
" id="DejaVuSans-55"/>
     </defs>
     <g transform="translate(470.627344 27.963281)scale(0.15 -0.15)">
      <use xlink:href="#DejaVuSans-83"/>
      <use x="63.476562" xlink:href="#DejaVuSans-116"/>
      <use x="102.685547" xlink:href="#DejaVuSans-114"/>
      <use x="143.798828" xlink:href="#DejaVuSans-97"/>
      <use x="205.078125" xlink:href="#DejaVuSans-32"/>
      <use x="236.865234" xlink:href="#DejaVuSans-55"/>
     </g>
    </g>
    <g id="line2d_36">
     <path d="M 428.627344 44.730469 
L 458.627344 44.730469 
" style="fill:none;stroke:#7f7f7f;stroke-linecap:square;stroke-width:1.5;"/>
    </g>
    <g id="line2d_37"/>
    <g id="text_23">
     <!-- Stra 8 -->
     <defs>
      <path d="M 31.78125 34.625 
Q 24.75 34.625 20.71875 30.859375 
Q 16.703125 27.09375 16.703125 20.515625 
Q 16.703125 13.921875 20.71875 10.15625 
Q 24.75 6.390625 31.78125 6.390625 
Q 38.8125 6.390625 42.859375 10.171875 
Q 46.921875 13.96875 46.921875 20.515625 
Q 46.921875 27.09375 42.890625 30.859375 
Q 38.875 34.625 31.78125 34.625 
z
M 21.921875 38.8125 
Q 15.578125 40.375 12.03125 44.71875 
Q 8.5 49.078125 8.5 55.328125 
Q 8.5 64.0625 14.71875 69.140625 
Q 20.953125 74.21875 31.78125 74.21875 
Q 42.671875 74.21875 48.875 69.140625 
Q 55.078125 64.0625 55.078125 55.328125 
Q 55.078125 49.078125 51.53125 44.71875 
Q 48 40.375 41.703125 38.8125 
Q 48.828125 37.15625 52.796875 32.3125 
Q 56.78125 27.484375 56.78125 20.515625 
Q 56.78125 9.90625 50.3125 4.234375 
Q 43.84375 -1.421875 31.78125 -1.421875 
Q 19.734375 -1.421875 13.25 4.234375 
Q 6.78125 9.90625 6.78125 20.515625 
Q 6.78125 27.484375 10.78125 32.3125 
Q 14.796875 37.15625 21.921875 38.8125 
z
M 18.3125 54.390625 
Q 18.3125 48.734375 21.84375 45.5625 
Q 25.390625 42.390625 31.78125 42.390625 
Q 38.140625 42.390625 41.71875 45.5625 
Q 45.3125 48.734375 45.3125 54.390625 
Q 45.3125 60.0625 41.71875 63.234375 
Q 38.140625 66.40625 31.78125 66.40625 
Q 25.390625 66.40625 21.84375 63.234375 
Q 18.3125 60.0625 18.3125 54.390625 
z
" id="DejaVuSans-56"/>
     </defs>
     <g transform="translate(470.627344 49.980469)scale(0.15 -0.15)">
      <use xlink:href="#DejaVuSans-83"/>
      <use x="63.476562" xlink:href="#DejaVuSans-116"/>
      <use x="102.685547" xlink:href="#DejaVuSans-114"/>
      <use x="143.798828" xlink:href="#DejaVuSans-97"/>
      <use x="205.078125" xlink:href="#DejaVuSans-32"/>
      <use x="236.865234" xlink:href="#DejaVuSans-56"/>
     </g>
    </g>
   </g>
  </g>
 </g>
 <defs>
  <clipPath id="pf20814b251">
   <rect height="298.96" width="459.07" x="70.13" y="66.6"/>
  </clipPath>
 </defs>
</svg>
