<?xml version="1.0" encoding="utf-8" standalone="no"?>
<!DOCTYPE svg PUBLIC "-//W3C//DTD SVG 1.1//EN"
  "http://www.w3.org/Graphics/SVG/1.1/DTD/svg11.dtd">
<!-- Created with matplotlib (https://matplotlib.org/) -->
<svg height="432pt" version="1.1" viewBox="0 0 540 432" width="540pt" xmlns="http://www.w3.org/2000/svg" xmlns:xlink="http://www.w3.org/1999/xlink">
 <defs>
  <style type="text/css">
*{stroke-linecap:butt;stroke-linejoin:round;}
  </style>
 </defs>
 <g id="figure_1">
  <g id="patch_1">
   <path d="M 0 432 
L 540 432 
L 540 0 
L 0 0 
z
" style="fill:#ffffff;"/>
  </g>
  <g id="axes_1">
   <g id="patch_2">
    <path d="M 63.74 365.56 
L 529.187727 365.56 
L 529.187727 66.6 
L 63.74 66.6 
z
" style="fill:#ffffff;"/>
   </g>
   <g id="matplotlib.axis_1">
    <g id="xtick_1">
     <g id="line2d_1">
      <defs>
       <path d="M 0 0 
L 0 3.5 
" id="m1f06fde760" style="stroke:#000000;stroke-width:0.8;"/>
      </defs>
      <g>
       <use style="stroke:#000000;stroke-width:0.8;" x="84.896715" xlink:href="#m1f06fde760" y="365.56"/>
      </g>
     </g>
     <g id="text_1">
      <!-- 0 -->
      <defs>
       <path d="M 31.78125 66.40625 
Q 24.171875 66.40625 20.328125 58.90625 
Q 16.5 51.421875 16.5 36.375 
Q 16.5 21.390625 20.328125 13.890625 
Q 24.171875 6.390625 31.78125 6.390625 
Q 39.453125 6.390625 43.28125 13.890625 
Q 47.125 21.390625 47.125 36.375 
Q 47.125 51.421875 43.28125 58.90625 
Q 39.453125 66.40625 31.78125 66.40625 
z
M 31.78125 74.21875 
Q 44.046875 74.21875 50.515625 64.515625 
Q 56.984375 54.828125 56.984375 36.375 
Q 56.984375 17.96875 50.515625 8.265625 
Q 44.046875 -1.421875 31.78125 -1.421875 
Q 19.53125 -1.421875 13.0625 8.265625 
Q 6.59375 17.96875 6.59375 36.375 
Q 6.59375 54.828125 13.0625 64.515625 
Q 19.53125 74.21875 31.78125 74.21875 
z
" id="DejaVuSans-48"/>
      </defs>
      <g transform="translate(78.534215 387.756875)scale(0.2 -0.2)">
       <use xlink:href="#DejaVuSans-48"/>
      </g>
     </g>
    </g>
    <g id="xtick_2">
     <g id="line2d_2">
      <g>
       <use style="stroke:#000000;stroke-width:0.8;" x="169.523574" xlink:href="#m1f06fde760" y="365.56"/>
      </g>
     </g>
     <g id="text_2">
      <!-- 50 -->
      <defs>
       <path d="M 10.796875 72.90625 
L 49.515625 72.90625 
L 49.515625 64.59375 
L 19.828125 64.59375 
L 19.828125 46.734375 
Q 21.96875 47.46875 24.109375 47.828125 
Q 26.265625 48.1875 28.421875 48.1875 
Q 40.625 48.1875 47.75 41.5 
Q 54.890625 34.8125 54.890625 23.390625 
Q 54.890625 11.625 47.5625 5.09375 
Q 40.234375 -1.421875 26.90625 -1.421875 
Q 22.3125 -1.421875 17.546875 -0.640625 
Q 12.796875 0.140625 7.71875 1.703125 
L 7.71875 11.625 
Q 12.109375 9.234375 16.796875 8.0625 
Q 21.484375 6.890625 26.703125 6.890625 
Q 35.15625 6.890625 40.078125 11.328125 
Q 45.015625 15.765625 45.015625 23.390625 
Q 45.015625 31 40.078125 35.4375 
Q 35.15625 39.890625 26.703125 39.890625 
Q 22.75 39.890625 18.8125 39.015625 
Q 14.890625 38.140625 10.796875 36.28125 
z
" id="DejaVuSans-53"/>
      </defs>
      <g transform="translate(156.798574 387.756875)scale(0.2 -0.2)">
       <use xlink:href="#DejaVuSans-53"/>
       <use x="63.623047" xlink:href="#DejaVuSans-48"/>
      </g>
     </g>
    </g>
    <g id="xtick_3">
     <g id="line2d_3">
      <g>
       <use style="stroke:#000000;stroke-width:0.8;" x="254.150434" xlink:href="#m1f06fde760" y="365.56"/>
      </g>
     </g>
     <g id="text_3">
      <!-- 100 -->
      <defs>
       <path d="M 12.40625 8.296875 
L 28.515625 8.296875 
L 28.515625 63.921875 
L 10.984375 60.40625 
L 10.984375 69.390625 
L 28.421875 72.90625 
L 38.28125 72.90625 
L 38.28125 8.296875 
L 54.390625 8.296875 
L 54.390625 0 
L 12.40625 0 
z
" id="DejaVuSans-49"/>
      </defs>
      <g transform="translate(235.062934 387.756875)scale(0.2 -0.2)">
       <use xlink:href="#DejaVuSans-49"/>
       <use x="63.623047" xlink:href="#DejaVuSans-48"/>
       <use x="127.246094" xlink:href="#DejaVuSans-48"/>
      </g>
     </g>
    </g>
    <g id="xtick_4">
     <g id="line2d_4">
      <g>
       <use style="stroke:#000000;stroke-width:0.8;" x="338.777293" xlink:href="#m1f06fde760" y="365.56"/>
      </g>
     </g>
     <g id="text_4">
      <!-- 150 -->
      <g transform="translate(319.689793 387.756875)scale(0.2 -0.2)">
       <use xlink:href="#DejaVuSans-49"/>
       <use x="63.623047" xlink:href="#DejaVuSans-53"/>
       <use x="127.246094" xlink:href="#DejaVuSans-48"/>
      </g>
     </g>
    </g>
    <g id="xtick_5">
     <g id="line2d_5">
      <g>
       <use style="stroke:#000000;stroke-width:0.8;" x="423.404153" xlink:href="#m1f06fde760" y="365.56"/>
      </g>
     </g>
     <g id="text_5">
      <!-- 200 -->
      <defs>
       <path d="M 19.1875 8.296875 
L 53.609375 8.296875 
L 53.609375 0 
L 7.328125 0 
L 7.328125 8.296875 
Q 12.9375 14.109375 22.625 23.890625 
Q 32.328125 33.6875 34.8125 36.53125 
Q 39.546875 41.84375 41.421875 45.53125 
Q 43.3125 49.21875 43.3125 52.78125 
Q 43.3125 58.59375 39.234375 62.25 
Q 35.15625 65.921875 28.609375 65.921875 
Q 23.96875 65.921875 18.8125 64.3125 
Q 13.671875 62.703125 7.8125 59.421875 
L 7.8125 69.390625 
Q 13.765625 71.78125 18.9375 73 
Q 24.125 74.21875 28.421875 74.21875 
Q 39.75 74.21875 46.484375 68.546875 
Q 53.21875 62.890625 53.21875 53.421875 
Q 53.21875 48.921875 51.53125 44.890625 
Q 49.859375 40.875 45.40625 35.40625 
Q 44.1875 33.984375 37.640625 27.21875 
Q 31.109375 20.453125 19.1875 8.296875 
z
" id="DejaVuSans-50"/>
      </defs>
      <g transform="translate(404.316653 387.756875)scale(0.2 -0.2)">
       <use xlink:href="#DejaVuSans-50"/>
       <use x="63.623047" xlink:href="#DejaVuSans-48"/>
       <use x="127.246094" xlink:href="#DejaVuSans-48"/>
      </g>
     </g>
    </g>
    <g id="xtick_6">
     <g id="line2d_6">
      <g>
       <use style="stroke:#000000;stroke-width:0.8;" x="508.031012" xlink:href="#m1f06fde760" y="365.56"/>
      </g>
     </g>
     <g id="text_6">
      <!-- 250 -->
      <g transform="translate(488.943512 387.756875)scale(0.2 -0.2)">
       <use xlink:href="#DejaVuSans-50"/>
       <use x="63.623047" xlink:href="#DejaVuSans-53"/>
       <use x="127.246094" xlink:href="#DejaVuSans-48"/>
      </g>
     </g>
    </g>
    <g id="text_7">
     <!-- # of games -->
     <defs>
      <path d="M 51.125 44 
L 36.921875 44 
L 32.8125 27.6875 
L 47.125 27.6875 
z
M 43.796875 71.78125 
L 38.71875 51.515625 
L 52.984375 51.515625 
L 58.109375 71.78125 
L 65.921875 71.78125 
L 60.890625 51.515625 
L 76.125 51.515625 
L 76.125 44 
L 58.984375 44 
L 54.984375 27.6875 
L 70.515625 27.6875 
L 70.515625 20.21875 
L 53.078125 20.21875 
L 48 0 
L 40.1875 0 
L 45.21875 20.21875 
L 30.90625 20.21875 
L 25.875 0 
L 18.015625 0 
L 23.09375 20.21875 
L 7.71875 20.21875 
L 7.71875 27.6875 
L 24.90625 27.6875 
L 29 44 
L 13.28125 44 
L 13.28125 51.515625 
L 30.90625 51.515625 
L 35.890625 71.78125 
z
" id="DejaVuSans-35"/>
      <path id="DejaVuSans-32"/>
      <path d="M 30.609375 48.390625 
Q 23.390625 48.390625 19.1875 42.75 
Q 14.984375 37.109375 14.984375 27.296875 
Q 14.984375 17.484375 19.15625 11.84375 
Q 23.34375 6.203125 30.609375 6.203125 
Q 37.796875 6.203125 41.984375 11.859375 
Q 46.1875 17.53125 46.1875 27.296875 
Q 46.1875 37.015625 41.984375 42.703125 
Q 37.796875 48.390625 30.609375 48.390625 
z
M 30.609375 56 
Q 42.328125 56 49.015625 48.375 
Q 55.71875 40.765625 55.71875 27.296875 
Q 55.71875 13.875 49.015625 6.21875 
Q 42.328125 -1.421875 30.609375 -1.421875 
Q 18.84375 -1.421875 12.171875 6.21875 
Q 5.515625 13.875 5.515625 27.296875 
Q 5.515625 40.765625 12.171875 48.375 
Q 18.84375 56 30.609375 56 
z
" id="DejaVuSans-111"/>
      <path d="M 37.109375 75.984375 
L 37.109375 68.5 
L 28.515625 68.5 
Q 23.6875 68.5 21.796875 66.546875 
Q 19.921875 64.59375 19.921875 59.515625 
L 19.921875 54.6875 
L 34.71875 54.6875 
L 34.71875 47.703125 
L 19.921875 47.703125 
L 19.921875 0 
L 10.890625 0 
L 10.890625 47.703125 
L 2.296875 47.703125 
L 2.296875 54.6875 
L 10.890625 54.6875 
L 10.890625 58.5 
Q 10.890625 67.625 15.140625 71.796875 
Q 19.390625 75.984375 28.609375 75.984375 
z
" id="DejaVuSans-102"/>
      <path d="M 45.40625 27.984375 
Q 45.40625 37.75 41.375 43.109375 
Q 37.359375 48.484375 30.078125 48.484375 
Q 22.859375 48.484375 18.828125 43.109375 
Q 14.796875 37.75 14.796875 27.984375 
Q 14.796875 18.265625 18.828125 12.890625 
Q 22.859375 7.515625 30.078125 7.515625 
Q 37.359375 7.515625 41.375 12.890625 
Q 45.40625 18.265625 45.40625 27.984375 
z
M 54.390625 6.78125 
Q 54.390625 -7.171875 48.1875 -13.984375 
Q 42 -20.796875 29.203125 -20.796875 
Q 24.46875 -20.796875 20.265625 -20.09375 
Q 16.0625 -19.390625 12.109375 -17.921875 
L 12.109375 -9.1875 
Q 16.0625 -11.328125 19.921875 -12.34375 
Q 23.78125 -13.375 27.78125 -13.375 
Q 36.625 -13.375 41.015625 -8.765625 
Q 45.40625 -4.15625 45.40625 5.171875 
L 45.40625 9.625 
Q 42.625 4.78125 38.28125 2.390625 
Q 33.9375 0 27.875 0 
Q 17.828125 0 11.671875 7.65625 
Q 5.515625 15.328125 5.515625 27.984375 
Q 5.515625 40.671875 11.671875 48.328125 
Q 17.828125 56 27.875 56 
Q 33.9375 56 38.28125 53.609375 
Q 42.625 51.21875 45.40625 46.390625 
L 45.40625 54.6875 
L 54.390625 54.6875 
z
" id="DejaVuSans-103"/>
      <path d="M 34.28125 27.484375 
Q 23.390625 27.484375 19.1875 25 
Q 14.984375 22.515625 14.984375 16.5 
Q 14.984375 11.71875 18.140625 8.90625 
Q 21.296875 6.109375 26.703125 6.109375 
Q 34.1875 6.109375 38.703125 11.40625 
Q 43.21875 16.703125 43.21875 25.484375 
L 43.21875 27.484375 
z
M 52.203125 31.203125 
L 52.203125 0 
L 43.21875 0 
L 43.21875 8.296875 
Q 40.140625 3.328125 35.546875 0.953125 
Q 30.953125 -1.421875 24.3125 -1.421875 
Q 15.921875 -1.421875 10.953125 3.296875 
Q 6 8.015625 6 15.921875 
Q 6 25.140625 12.171875 29.828125 
Q 18.359375 34.515625 30.609375 34.515625 
L 43.21875 34.515625 
L 43.21875 35.40625 
Q 43.21875 41.609375 39.140625 45 
Q 35.0625 48.390625 27.6875 48.390625 
Q 23 48.390625 18.546875 47.265625 
Q 14.109375 46.140625 10.015625 43.890625 
L 10.015625 52.203125 
Q 14.9375 54.109375 19.578125 55.046875 
Q 24.21875 56 28.609375 56 
Q 40.484375 56 46.34375 49.84375 
Q 52.203125 43.703125 52.203125 31.203125 
z
" id="DejaVuSans-97"/>
      <path d="M 52 44.1875 
Q 55.375 50.25 60.0625 53.125 
Q 64.75 56 71.09375 56 
Q 79.640625 56 84.28125 50.015625 
Q 88.921875 44.046875 88.921875 33.015625 
L 88.921875 0 
L 79.890625 0 
L 79.890625 32.71875 
Q 79.890625 40.578125 77.09375 44.375 
Q 74.3125 48.1875 68.609375 48.1875 
Q 61.625 48.1875 57.5625 43.546875 
Q 53.515625 38.921875 53.515625 30.90625 
L 53.515625 0 
L 44.484375 0 
L 44.484375 32.71875 
Q 44.484375 40.625 41.703125 44.40625 
Q 38.921875 48.1875 33.109375 48.1875 
Q 26.21875 48.1875 22.15625 43.53125 
Q 18.109375 38.875 18.109375 30.90625 
L 18.109375 0 
L 9.078125 0 
L 9.078125 54.6875 
L 18.109375 54.6875 
L 18.109375 46.1875 
Q 21.1875 51.21875 25.484375 53.609375 
Q 29.78125 56 35.6875 56 
Q 41.65625 56 45.828125 52.96875 
Q 50 49.953125 52 44.1875 
z
" id="DejaVuSans-109"/>
      <path d="M 56.203125 29.59375 
L 56.203125 25.203125 
L 14.890625 25.203125 
Q 15.484375 15.921875 20.484375 11.0625 
Q 25.484375 6.203125 34.421875 6.203125 
Q 39.59375 6.203125 44.453125 7.46875 
Q 49.3125 8.734375 54.109375 11.28125 
L 54.109375 2.78125 
Q 49.265625 0.734375 44.1875 -0.34375 
Q 39.109375 -1.421875 33.890625 -1.421875 
Q 20.796875 -1.421875 13.15625 6.1875 
Q 5.515625 13.8125 5.515625 26.8125 
Q 5.515625 40.234375 12.765625 48.109375 
Q 20.015625 56 32.328125 56 
Q 43.359375 56 49.78125 48.890625 
Q 56.203125 41.796875 56.203125 29.59375 
z
M 47.21875 32.234375 
Q 47.125 39.59375 43.09375 43.984375 
Q 39.0625 48.390625 32.421875 48.390625 
Q 24.90625 48.390625 20.390625 44.140625 
Q 15.875 39.890625 15.1875 32.171875 
z
" id="DejaVuSans-101"/>
      <path d="M 44.28125 53.078125 
L 44.28125 44.578125 
Q 40.484375 46.53125 36.375 47.5 
Q 32.28125 48.484375 27.875 48.484375 
Q 21.1875 48.484375 17.84375 46.4375 
Q 14.5 44.390625 14.5 40.28125 
Q 14.5 37.15625 16.890625 35.375 
Q 19.28125 33.59375 26.515625 31.984375 
L 29.59375 31.296875 
Q 39.15625 29.25 43.1875 25.515625 
Q 47.21875 21.78125 47.21875 15.09375 
Q 47.21875 7.46875 41.1875 3.015625 
Q 35.15625 -1.421875 24.609375 -1.421875 
Q 20.21875 -1.421875 15.453125 -0.5625 
Q 10.6875 0.296875 5.421875 2 
L 5.421875 11.28125 
Q 10.40625 8.6875 15.234375 7.390625 
Q 20.0625 6.109375 24.8125 6.109375 
Q 31.15625 6.109375 34.5625 8.28125 
Q 37.984375 10.453125 37.984375 14.40625 
Q 37.984375 18.0625 35.515625 20.015625 
Q 33.0625 21.96875 24.703125 23.78125 
L 21.578125 24.515625 
Q 13.234375 26.265625 9.515625 29.90625 
Q 5.8125 33.546875 5.8125 39.890625 
Q 5.8125 47.609375 11.28125 51.796875 
Q 16.75 56 26.8125 56 
Q 31.78125 56 36.171875 55.265625 
Q 40.578125 54.546875 44.28125 53.078125 
z
" id="DejaVuSans-115"/>
     </defs>
     <g transform="translate(224.020504 414.912344)scale(0.25 -0.25)">
      <use xlink:href="#DejaVuSans-35"/>
      <use x="83.789062" xlink:href="#DejaVuSans-32"/>
      <use x="115.576172" xlink:href="#DejaVuSans-111"/>
      <use x="176.757812" xlink:href="#DejaVuSans-102"/>
      <use x="211.962891" xlink:href="#DejaVuSans-32"/>
      <use x="243.75" xlink:href="#DejaVuSans-103"/>
      <use x="307.226562" xlink:href="#DejaVuSans-97"/>
      <use x="368.505859" xlink:href="#DejaVuSans-109"/>
      <use x="465.917969" xlink:href="#DejaVuSans-101"/>
      <use x="527.441406" xlink:href="#DejaVuSans-115"/>
     </g>
    </g>
   </g>
   <g id="matplotlib.axis_2">
    <g id="ytick_1">
     <g id="line2d_7">
      <defs>
       <path d="M 0 0 
L -3.5 0 
" id="m4def3d2b92" style="stroke:#000000;stroke-width:0.8;"/>
      </defs>
      <g>
       <use style="stroke:#000000;stroke-width:0.8;" x="63.74" xlink:href="#m4def3d2b92" y="351.970909"/>
      </g>
     </g>
     <g id="text_8">
      <!-- 0 -->
      <g transform="translate(44.015 359.569347)scale(0.2 -0.2)">
       <use xlink:href="#DejaVuSans-48"/>
      </g>
     </g>
    </g>
    <g id="ytick_2">
     <g id="line2d_8">
      <g>
       <use style="stroke:#000000;stroke-width:0.8;" x="63.74" xlink:href="#m4def3d2b92" y="290.202314"/>
      </g>
     </g>
     <g id="text_9">
      <!-- 10 -->
      <g transform="translate(31.29 297.800752)scale(0.2 -0.2)">
       <use xlink:href="#DejaVuSans-49"/>
       <use x="63.623047" xlink:href="#DejaVuSans-48"/>
      </g>
     </g>
    </g>
    <g id="ytick_3">
     <g id="line2d_9">
      <g>
       <use style="stroke:#000000;stroke-width:0.8;" x="63.74" xlink:href="#m4def3d2b92" y="228.433719"/>
      </g>
     </g>
     <g id="text_10">
      <!-- 20 -->
      <g transform="translate(31.29 236.032157)scale(0.2 -0.2)">
       <use xlink:href="#DejaVuSans-50"/>
       <use x="63.623047" xlink:href="#DejaVuSans-48"/>
      </g>
     </g>
    </g>
    <g id="ytick_4">
     <g id="line2d_10">
      <g>
       <use style="stroke:#000000;stroke-width:0.8;" x="63.74" xlink:href="#m4def3d2b92" y="166.665124"/>
      </g>
     </g>
     <g id="text_11">
      <!-- 30 -->
      <defs>
       <path d="M 40.578125 39.3125 
Q 47.65625 37.796875 51.625 33 
Q 55.609375 28.21875 55.609375 21.1875 
Q 55.609375 10.40625 48.1875 4.484375 
Q 40.765625 -1.421875 27.09375 -1.421875 
Q 22.515625 -1.421875 17.65625 -0.515625 
Q 12.796875 0.390625 7.625 2.203125 
L 7.625 11.71875 
Q 11.71875 9.328125 16.59375 8.109375 
Q 21.484375 6.890625 26.8125 6.890625 
Q 36.078125 6.890625 40.9375 10.546875 
Q 45.796875 14.203125 45.796875 21.1875 
Q 45.796875 27.640625 41.28125 31.265625 
Q 36.765625 34.90625 28.71875 34.90625 
L 20.21875 34.90625 
L 20.21875 43.015625 
L 29.109375 43.015625 
Q 36.375 43.015625 40.234375 45.921875 
Q 44.09375 48.828125 44.09375 54.296875 
Q 44.09375 59.90625 40.109375 62.90625 
Q 36.140625 65.921875 28.71875 65.921875 
Q 24.65625 65.921875 20.015625 65.03125 
Q 15.375 64.15625 9.8125 62.3125 
L 9.8125 71.09375 
Q 15.4375 72.65625 20.34375 73.4375 
Q 25.25 74.21875 29.59375 74.21875 
Q 40.828125 74.21875 47.359375 69.109375 
Q 53.90625 64.015625 53.90625 55.328125 
Q 53.90625 49.265625 50.4375 45.09375 
Q 46.96875 40.921875 40.578125 39.3125 
z
" id="DejaVuSans-51"/>
      </defs>
      <g transform="translate(31.29 174.263561)scale(0.2 -0.2)">
       <use xlink:href="#DejaVuSans-51"/>
       <use x="63.623047" xlink:href="#DejaVuSans-48"/>
      </g>
     </g>
    </g>
    <g id="ytick_5">
     <g id="line2d_11">
      <g>
       <use style="stroke:#000000;stroke-width:0.8;" x="63.74" xlink:href="#m4def3d2b92" y="104.896529"/>
      </g>
     </g>
     <g id="text_12">
      <!-- 40 -->
      <defs>
       <path d="M 37.796875 64.3125 
L 12.890625 25.390625 
L 37.796875 25.390625 
z
M 35.203125 72.90625 
L 47.609375 72.90625 
L 47.609375 25.390625 
L 58.015625 25.390625 
L 58.015625 17.1875 
L 47.609375 17.1875 
L 47.609375 0 
L 37.796875 0 
L 37.796875 17.1875 
L 4.890625 17.1875 
L 4.890625 26.703125 
z
" id="DejaVuSans-52"/>
      </defs>
      <g transform="translate(31.29 112.494966)scale(0.2 -0.2)">
       <use xlink:href="#DejaVuSans-52"/>
       <use x="63.623047" xlink:href="#DejaVuSans-48"/>
      </g>
     </g>
    </g>
    <g id="text_13">
     <!-- Number of Attackers in CKC -->
     <defs>
      <path d="M 9.8125 72.90625 
L 23.09375 72.90625 
L 55.421875 11.921875 
L 55.421875 72.90625 
L 64.984375 72.90625 
L 64.984375 0 
L 51.703125 0 
L 19.390625 60.984375 
L 19.390625 0 
L 9.8125 0 
z
" id="DejaVuSans-78"/>
      <path d="M 8.5 21.578125 
L 8.5 54.6875 
L 17.484375 54.6875 
L 17.484375 21.921875 
Q 17.484375 14.15625 20.5 10.265625 
Q 23.53125 6.390625 29.59375 6.390625 
Q 36.859375 6.390625 41.078125 11.03125 
Q 45.3125 15.671875 45.3125 23.6875 
L 45.3125 54.6875 
L 54.296875 54.6875 
L 54.296875 0 
L 45.3125 0 
L 45.3125 8.40625 
Q 42.046875 3.421875 37.71875 1 
Q 33.40625 -1.421875 27.6875 -1.421875 
Q 18.265625 -1.421875 13.375 4.4375 
Q 8.5 10.296875 8.5 21.578125 
z
M 31.109375 56 
z
" id="DejaVuSans-117"/>
      <path d="M 48.6875 27.296875 
Q 48.6875 37.203125 44.609375 42.84375 
Q 40.53125 48.484375 33.40625 48.484375 
Q 26.265625 48.484375 22.1875 42.84375 
Q 18.109375 37.203125 18.109375 27.296875 
Q 18.109375 17.390625 22.1875 11.75 
Q 26.265625 6.109375 33.40625 6.109375 
Q 40.53125 6.109375 44.609375 11.75 
Q 48.6875 17.390625 48.6875 27.296875 
z
M 18.109375 46.390625 
Q 20.953125 51.265625 25.265625 53.625 
Q 29.59375 56 35.59375 56 
Q 45.5625 56 51.78125 48.09375 
Q 58.015625 40.1875 58.015625 27.296875 
Q 58.015625 14.40625 51.78125 6.484375 
Q 45.5625 -1.421875 35.59375 -1.421875 
Q 29.59375 -1.421875 25.265625 0.953125 
Q 20.953125 3.328125 18.109375 8.203125 
L 18.109375 0 
L 9.078125 0 
L 9.078125 75.984375 
L 18.109375 75.984375 
z
" id="DejaVuSans-98"/>
      <path d="M 41.109375 46.296875 
Q 39.59375 47.171875 37.8125 47.578125 
Q 36.03125 48 33.890625 48 
Q 26.265625 48 22.1875 43.046875 
Q 18.109375 38.09375 18.109375 28.8125 
L 18.109375 0 
L 9.078125 0 
L 9.078125 54.6875 
L 18.109375 54.6875 
L 18.109375 46.1875 
Q 20.953125 51.171875 25.484375 53.578125 
Q 30.03125 56 36.53125 56 
Q 37.453125 56 38.578125 55.875 
Q 39.703125 55.765625 41.0625 55.515625 
z
" id="DejaVuSans-114"/>
      <path d="M 34.1875 63.1875 
L 20.796875 26.90625 
L 47.609375 26.90625 
z
M 28.609375 72.90625 
L 39.796875 72.90625 
L 67.578125 0 
L 57.328125 0 
L 50.6875 18.703125 
L 17.828125 18.703125 
L 11.1875 0 
L 0.78125 0 
z
" id="DejaVuSans-65"/>
      <path d="M 18.3125 70.21875 
L 18.3125 54.6875 
L 36.8125 54.6875 
L 36.8125 47.703125 
L 18.3125 47.703125 
L 18.3125 18.015625 
Q 18.3125 11.328125 20.140625 9.421875 
Q 21.96875 7.515625 27.59375 7.515625 
L 36.8125 7.515625 
L 36.8125 0 
L 27.59375 0 
Q 17.1875 0 13.234375 3.875 
Q 9.28125 7.765625 9.28125 18.015625 
L 9.28125 47.703125 
L 2.6875 47.703125 
L 2.6875 54.6875 
L 9.28125 54.6875 
L 9.28125 70.21875 
z
" id="DejaVuSans-116"/>
      <path d="M 48.78125 52.59375 
L 48.78125 44.1875 
Q 44.96875 46.296875 41.140625 47.34375 
Q 37.3125 48.390625 33.40625 48.390625 
Q 24.65625 48.390625 19.8125 42.84375 
Q 14.984375 37.3125 14.984375 27.296875 
Q 14.984375 17.28125 19.8125 11.734375 
Q 24.65625 6.203125 33.40625 6.203125 
Q 37.3125 6.203125 41.140625 7.25 
Q 44.96875 8.296875 48.78125 10.40625 
L 48.78125 2.09375 
Q 45.015625 0.34375 40.984375 -0.53125 
Q 36.96875 -1.421875 32.421875 -1.421875 
Q 20.0625 -1.421875 12.78125 6.34375 
Q 5.515625 14.109375 5.515625 27.296875 
Q 5.515625 40.671875 12.859375 48.328125 
Q 20.21875 56 33.015625 56 
Q 37.15625 56 41.109375 55.140625 
Q 45.0625 54.296875 48.78125 52.59375 
z
" id="DejaVuSans-99"/>
      <path d="M 9.078125 75.984375 
L 18.109375 75.984375 
L 18.109375 31.109375 
L 44.921875 54.6875 
L 56.390625 54.6875 
L 27.390625 29.109375 
L 57.625 0 
L 45.90625 0 
L 18.109375 26.703125 
L 18.109375 0 
L 9.078125 0 
z
" id="DejaVuSans-107"/>
      <path d="M 9.421875 54.6875 
L 18.40625 54.6875 
L 18.40625 0 
L 9.421875 0 
z
M 9.421875 75.984375 
L 18.40625 75.984375 
L 18.40625 64.59375 
L 9.421875 64.59375 
z
" id="DejaVuSans-105"/>
      <path d="M 54.890625 33.015625 
L 54.890625 0 
L 45.90625 0 
L 45.90625 32.71875 
Q 45.90625 40.484375 42.875 44.328125 
Q 39.84375 48.1875 33.796875 48.1875 
Q 26.515625 48.1875 22.3125 43.546875 
Q 18.109375 38.921875 18.109375 30.90625 
L 18.109375 0 
L 9.078125 0 
L 9.078125 54.6875 
L 18.109375 54.6875 
L 18.109375 46.1875 
Q 21.34375 51.125 25.703125 53.5625 
Q 30.078125 56 35.796875 56 
Q 45.21875 56 50.046875 50.171875 
Q 54.890625 44.34375 54.890625 33.015625 
z
" id="DejaVuSans-110"/>
      <path d="M 64.40625 67.28125 
L 64.40625 56.890625 
Q 59.421875 61.53125 53.78125 63.8125 
Q 48.140625 66.109375 41.796875 66.109375 
Q 29.296875 66.109375 22.65625 58.46875 
Q 16.015625 50.828125 16.015625 36.375 
Q 16.015625 21.96875 22.65625 14.328125 
Q 29.296875 6.6875 41.796875 6.6875 
Q 48.140625 6.6875 53.78125 8.984375 
Q 59.421875 11.28125 64.40625 15.921875 
L 64.40625 5.609375 
Q 59.234375 2.09375 53.4375 0.328125 
Q 47.65625 -1.421875 41.21875 -1.421875 
Q 24.65625 -1.421875 15.125 8.703125 
Q 5.609375 18.84375 5.609375 36.375 
Q 5.609375 53.953125 15.125 64.078125 
Q 24.65625 74.21875 41.21875 74.21875 
Q 47.75 74.21875 53.53125 72.484375 
Q 59.328125 70.75 64.40625 67.28125 
z
" id="DejaVuSans-67"/>
      <path d="M 9.8125 72.90625 
L 19.671875 72.90625 
L 19.671875 42.09375 
L 52.390625 72.90625 
L 65.09375 72.90625 
L 28.90625 38.921875 
L 67.671875 0 
L 54.6875 0 
L 19.671875 35.109375 
L 19.671875 0 
L 9.8125 0 
z
" id="DejaVuSans-75"/>
     </defs>
     <g transform="translate(23.823854 332.513594)rotate(-90)scale(0.166667 -0.166667)">
      <use xlink:href="#DejaVuSans-78"/>
      <use x="74.804688" xlink:href="#DejaVuSans-117"/>
      <use x="138.183594" xlink:href="#DejaVuSans-109"/>
      <use x="235.595703" xlink:href="#DejaVuSans-98"/>
      <use x="299.072266" xlink:href="#DejaVuSans-101"/>
      <use x="360.595703" xlink:href="#DejaVuSans-114"/>
      <use x="401.708984" xlink:href="#DejaVuSans-32"/>
      <use x="433.496094" xlink:href="#DejaVuSans-111"/>
      <use x="494.677734" xlink:href="#DejaVuSans-102"/>
      <use x="529.882812" xlink:href="#DejaVuSans-32"/>
      <use x="561.669922" xlink:href="#DejaVuSans-65"/>
      <use x="630.0625" xlink:href="#DejaVuSans-116"/>
      <use x="669.271484" xlink:href="#DejaVuSans-116"/>
      <use x="708.480469" xlink:href="#DejaVuSans-97"/>
      <use x="769.759766" xlink:href="#DejaVuSans-99"/>
      <use x="824.740234" xlink:href="#DejaVuSans-107"/>
      <use x="882.603516" xlink:href="#DejaVuSans-101"/>
      <use x="944.126953" xlink:href="#DejaVuSans-114"/>
      <use x="985.240234" xlink:href="#DejaVuSans-115"/>
      <use x="1037.339844" xlink:href="#DejaVuSans-32"/>
      <use x="1069.126953" xlink:href="#DejaVuSans-105"/>
      <use x="1096.910156" xlink:href="#DejaVuSans-110"/>
      <use x="1160.289062" xlink:href="#DejaVuSans-32"/>
      <use x="1192.076172" xlink:href="#DejaVuSans-67"/>
      <use x="1261.900391" xlink:href="#DejaVuSans-75"/>
      <use x="1327.398438" xlink:href="#DejaVuSans-67"/>
     </g>
    </g>
   </g>
   <g id="line2d_12">
    <path clip-path="url(#pb15387d9bf)" d="M 84.896715 80.189091 
L 86.589252 141.957686 
L 88.281789 185.195702 
L 89.974326 222.25686 
L 91.666864 277.848595 
L 93.359401 290.202314 
L 95.051938 296.379174 
L 96.744475 308.732893 
L 98.437012 327.263471 
L 100.12955 339.61719 
L 101.822087 333.440331 
L 103.514624 333.440331 
L 106.899698 345.79405 
L 110.284773 333.440331 
L 111.97731 351.970909 
L 120.439996 351.970909 
L 122.132533 345.79405 
L 123.82507 345.79405 
L 125.517607 339.61719 
L 128.902682 339.61719 
L 132.287756 351.970909 
L 133.980293 351.970909 
L 135.672831 345.79405 
L 137.365368 333.440331 
L 139.057905 333.440331 
L 140.750442 339.61719 
L 142.442979 327.263471 
L 144.135517 327.263471 
L 147.520591 351.970909 
L 149.213128 345.79405 
L 155.983277 345.79405 
L 157.675814 339.61719 
L 159.368351 345.79405 
L 161.060888 327.263471 
L 162.753426 333.440331 
L 164.445963 333.440331 
L 166.1385 339.61719 
L 172.908649 339.61719 
L 176.293723 351.970909 
L 177.98626 351.970909 
L 179.678798 345.79405 
L 181.371335 345.79405 
L 183.063872 339.61719 
L 184.756409 339.61719 
L 186.448946 345.79405 
L 193.219095 345.79405 
L 194.911632 339.61719 
L 201.681781 339.61719 
L 203.374318 345.79405 
L 205.066855 345.79405 
L 208.45193 333.440331 
L 210.144467 339.61719 
L 213.529541 339.61719 
L 215.222079 333.440331 
L 220.29969 333.440331 
L 221.992227 345.79405 
L 223.684764 351.970909 
L 232.14745 351.970909 
L 233.839988 345.79405 
L 235.532525 351.970909 
L 242.302674 351.970909 
L 243.995211 345.79405 
L 245.687748 345.79405 
L 247.380285 351.970909 
L 257.535508 351.970909 
L 259.228045 345.79405 
L 271.075806 345.79405 
L 272.768343 339.61719 
L 276.153417 351.970909 
L 288.001178 351.970909 
L 289.693715 345.79405 
L 291.386252 345.79405 
L 293.078789 339.61719 
L 296.463864 339.61719 
L 299.848938 351.970909 
L 352.317591 351.970909 
L 354.010128 345.79405 
L 369.242963 345.79405 
L 370.9355 351.970909 
L 409.863855 351.970909 
L 411.556393 345.79405 
L 414.941467 345.79405 
L 416.634004 351.970909 
L 447.099674 351.970909 
L 448.792211 345.79405 
L 457.254897 345.79405 
L 458.947434 351.970909 
L 508.031012 351.970909 
L 508.031012 351.970909 
" style="fill:none;stroke:#1f77b4;stroke-linecap:square;stroke-width:1.5;"/>
   </g>
   <g id="line2d_13">
    <path clip-path="url(#pb15387d9bf)" d="M 84.896715 314.909752 
L 86.589252 259.318017 
L 88.281789 228.433719 
L 89.974326 216.08 
L 91.666864 185.195702 
L 95.051938 197.549421 
L 96.744475 197.549421 
L 98.437012 191.372562 
L 100.12955 234.610579 
L 101.822087 246.964298 
L 103.514624 246.964298 
L 105.207161 259.318017 
L 106.899698 259.318017 
L 108.592236 277.848595 
L 110.284773 290.202314 
L 111.97731 271.671736 
L 113.669847 271.671736 
L 115.362384 290.202314 
L 117.054921 302.556033 
L 118.747459 302.556033 
L 120.439996 308.732893 
L 122.132533 308.732893 
L 123.82507 314.909752 
L 128.902682 314.909752 
L 130.595219 308.732893 
L 135.672831 308.732893 
L 137.365368 314.909752 
L 140.750442 302.556033 
L 142.442979 308.732893 
L 144.135517 308.732893 
L 145.828054 302.556033 
L 147.520591 290.202314 
L 150.905665 290.202314 
L 152.598202 296.379174 
L 154.29074 308.732893 
L 157.675814 308.732893 
L 159.368351 302.556033 
L 161.060888 302.556033 
L 162.753426 296.379174 
L 166.1385 308.732893 
L 167.831037 321.086612 
L 171.216112 333.440331 
L 186.448946 333.440331 
L 188.141483 339.61719 
L 189.834021 333.440331 
L 194.911632 333.440331 
L 196.604169 339.61719 
L 201.681781 339.61719 
L 203.374318 333.440331 
L 208.45193 333.440331 
L 210.144467 327.263471 
L 211.837004 327.263471 
L 215.222079 339.61719 
L 216.914616 339.61719 
L 218.607153 345.79405 
L 220.29969 345.79405 
L 223.684764 321.086612 
L 225.377302 321.086612 
L 232.14745 345.79405 
L 233.839988 345.79405 
L 235.532525 339.61719 
L 242.302674 339.61719 
L 243.995211 345.79405 
L 245.687748 345.79405 
L 247.380285 339.61719 
L 259.228045 339.61719 
L 260.920583 345.79405 
L 272.768343 345.79405 
L 276.153417 333.440331 
L 277.845955 345.79405 
L 296.463864 345.79405 
L 299.848938 333.440331 
L 301.541475 333.440331 
L 303.234012 345.79405 
L 369.242963 345.79405 
L 370.9355 339.61719 
L 382.78326 339.61719 
L 384.475798 345.79405 
L 414.941467 345.79405 
L 416.634004 339.61719 
L 418.326541 345.79405 
L 457.254897 345.79405 
L 458.947434 339.61719 
L 460.639971 345.79405 
L 482.642955 345.79405 
L 484.335492 351.970909 
L 508.031012 351.970909 
L 508.031012 351.970909 
" style="fill:none;stroke:#ff7f0e;stroke-linecap:square;stroke-width:1.5;"/>
   </g>
   <g id="line2d_14">
    <path clip-path="url(#pb15387d9bf)" d="M 84.896715 351.970909 
L 86.589252 345.79405 
L 88.281789 333.440331 
L 91.666864 296.379174 
L 93.359401 296.379174 
L 95.051938 284.025455 
L 96.744475 277.848595 
L 98.437012 277.848595 
L 100.12955 228.433719 
L 101.822087 259.318017 
L 103.514624 271.671736 
L 105.207161 265.494876 
L 106.899698 271.671736 
L 110.284773 271.671736 
L 111.97731 296.379174 
L 113.669847 302.556033 
L 115.362384 290.202314 
L 117.054921 296.379174 
L 118.747459 308.732893 
L 120.439996 302.556033 
L 122.132533 302.556033 
L 123.82507 308.732893 
L 125.517607 321.086612 
L 127.210145 327.263471 
L 130.595219 327.263471 
L 132.287756 321.086612 
L 133.980293 327.263471 
L 140.750442 327.263471 
L 142.442979 321.086612 
L 145.828054 321.086612 
L 147.520591 327.263471 
L 152.598202 327.263471 
L 154.29074 314.909752 
L 155.983277 314.909752 
L 157.675814 321.086612 
L 161.060888 321.086612 
L 162.753426 333.440331 
L 166.1385 321.086612 
L 167.831037 333.440331 
L 171.216112 321.086612 
L 172.908649 327.263471 
L 181.371335 327.263471 
L 183.063872 333.440331 
L 194.911632 333.440331 
L 196.604169 327.263471 
L 198.296707 339.61719 
L 205.066855 339.61719 
L 206.759393 345.79405 
L 210.144467 345.79405 
L 211.837004 339.61719 
L 215.222079 339.61719 
L 216.914616 345.79405 
L 218.607153 339.61719 
L 221.992227 339.61719 
L 223.684764 345.79405 
L 225.377302 345.79405 
L 227.069839 339.61719 
L 228.762376 339.61719 
L 230.454913 345.79405 
L 233.839988 345.79405 
L 235.532525 351.970909 
L 242.302674 351.970909 
L 243.995211 345.79405 
L 259.228045 345.79405 
L 260.920583 339.61719 
L 265.998194 339.61719 
L 267.690731 345.79405 
L 271.075806 345.79405 
L 272.768343 351.970909 
L 276.153417 351.970909 
L 277.845955 339.61719 
L 279.538492 345.79405 
L 282.923566 345.79405 
L 284.616103 351.970909 
L 301.541475 351.970909 
L 303.234012 339.61719 
L 306.619087 339.61719 
L 308.311624 345.79405 
L 311.696698 345.79405 
L 313.389236 351.970909 
L 382.78326 351.970909 
L 384.475798 345.79405 
L 391.245946 345.79405 
L 392.938483 351.970909 
L 416.634004 351.970909 
L 418.326541 345.79405 
L 420.019079 345.79405 
L 421.711616 351.970909 
L 458.947434 351.970909 
L 460.639971 345.79405 
L 462.332508 351.970909 
L 482.642955 351.970909 
L 484.335492 345.79405 
L 502.953401 345.79405 
L 504.645938 351.970909 
L 508.031012 351.970909 
L 508.031012 351.970909 
" style="fill:none;stroke:#2ca02c;stroke-linecap:square;stroke-width:1.5;"/>
   </g>
   <g id="line2d_15">
    <path clip-path="url(#pb15387d9bf)" d="M 84.896715 351.970909 
L 88.281789 351.970909 
L 89.974326 345.79405 
L 91.666864 345.79405 
L 93.359401 327.263471 
L 95.051938 333.440331 
L 96.744475 345.79405 
L 98.437012 333.440331 
L 100.12955 333.440331 
L 101.822087 296.379174 
L 103.514624 314.909752 
L 105.207161 302.556033 
L 106.899698 296.379174 
L 108.592236 296.379174 
L 110.284773 290.202314 
L 111.97731 290.202314 
L 113.669847 308.732893 
L 115.362384 308.732893 
L 117.054921 290.202314 
L 118.747459 284.025455 
L 120.439996 308.732893 
L 122.132533 308.732893 
L 123.82507 296.379174 
L 125.517607 296.379174 
L 128.902682 308.732893 
L 130.595219 327.263471 
L 132.287756 327.263471 
L 133.980293 321.086612 
L 147.520591 321.086612 
L 149.213128 327.263471 
L 154.29074 327.263471 
L 155.983277 339.61719 
L 157.675814 333.440331 
L 159.368351 339.61719 
L 161.060888 339.61719 
L 162.753426 327.263471 
L 164.445963 339.61719 
L 166.1385 333.440331 
L 167.831037 308.732893 
L 169.523574 314.909752 
L 171.216112 327.263471 
L 172.908649 321.086612 
L 174.601186 321.086612 
L 176.293723 327.263471 
L 177.98626 327.263471 
L 181.371335 339.61719 
L 183.063872 333.440331 
L 184.756409 339.61719 
L 188.141483 327.263471 
L 189.834021 333.440331 
L 191.526558 333.440331 
L 193.219095 339.61719 
L 196.604169 339.61719 
L 198.296707 333.440331 
L 201.681781 345.79405 
L 211.837004 345.79405 
L 215.222079 333.440331 
L 218.607153 345.79405 
L 221.992227 345.79405 
L 223.684764 339.61719 
L 225.377302 339.61719 
L 227.069839 351.970909 
L 230.454913 339.61719 
L 232.14745 339.61719 
L 233.839988 345.79405 
L 235.532525 339.61719 
L 238.917599 351.970909 
L 265.998194 351.970909 
L 267.690731 345.79405 
L 269.383269 351.970909 
L 277.845955 351.970909 
L 279.538492 345.79405 
L 281.231029 351.970909 
L 282.923566 351.970909 
L 284.616103 345.79405 
L 286.30864 351.970909 
L 306.619087 351.970909 
L 308.311624 345.79405 
L 310.004161 351.970909 
L 311.696698 351.970909 
L 313.389236 345.79405 
L 316.77431 345.79405 
L 318.466847 351.970909 
L 391.245946 351.970909 
L 392.938483 345.79405 
L 408.171318 345.79405 
L 409.863855 351.970909 
L 420.019079 351.970909 
L 421.711616 345.79405 
L 423.404153 351.970909 
L 460.639971 351.970909 
L 462.332508 345.79405 
L 464.025045 345.79405 
L 465.717583 351.970909 
L 502.953401 351.970909 
L 504.645938 345.79405 
L 506.338475 345.79405 
L 508.031012 351.970909 
L 508.031012 351.970909 
" style="fill:none;stroke:#d62728;stroke-linecap:square;stroke-width:1.5;"/>
   </g>
   <g id="line2d_16">
    <path clip-path="url(#pb15387d9bf)" d="M 84.896715 351.970909 
L 89.974326 351.970909 
L 91.666864 345.79405 
L 93.359401 351.970909 
L 95.051938 345.79405 
L 96.744475 333.440331 
L 98.437012 351.970909 
L 100.12955 345.79405 
L 101.822087 351.970909 
L 103.514624 321.086612 
L 105.207161 339.61719 
L 106.899698 339.61719 
L 108.592236 333.440331 
L 110.284773 339.61719 
L 111.97731 314.909752 
L 113.669847 308.732893 
L 115.362384 321.086612 
L 117.054921 339.61719 
L 118.747459 339.61719 
L 120.439996 314.909752 
L 122.132533 333.440331 
L 123.82507 345.79405 
L 127.210145 333.440331 
L 128.902682 339.61719 
L 130.595219 321.086612 
L 133.980293 345.79405 
L 139.057905 345.79405 
L 140.750442 351.970909 
L 145.828054 351.970909 
L 149.213128 339.61719 
L 150.905665 345.79405 
L 152.598202 339.61719 
L 154.29074 351.970909 
L 155.983277 339.61719 
L 157.675814 339.61719 
L 159.368351 333.440331 
L 162.753426 345.79405 
L 164.445963 333.440331 
L 167.831037 345.79405 
L 169.523574 339.61719 
L 171.216112 327.263471 
L 172.908649 327.263471 
L 174.601186 333.440331 
L 183.063872 333.440331 
L 184.756409 327.263471 
L 186.448946 327.263471 
L 188.141483 333.440331 
L 189.834021 327.263471 
L 194.911632 345.79405 
L 201.681781 345.79405 
L 203.374318 351.970909 
L 215.222079 351.970909 
L 216.914616 339.61719 
L 218.607153 339.61719 
L 220.29969 345.79405 
L 223.684764 345.79405 
L 225.377302 351.970909 
L 227.069839 345.79405 
L 237.225062 345.79405 
L 238.917599 339.61719 
L 240.610136 339.61719 
L 242.302674 345.79405 
L 259.228045 345.79405 
L 260.920583 351.970909 
L 267.690731 351.970909 
L 269.383269 345.79405 
L 271.075806 351.970909 
L 279.538492 351.970909 
L 281.231029 345.79405 
L 284.616103 345.79405 
L 286.30864 339.61719 
L 291.386252 339.61719 
L 293.078789 345.79405 
L 308.311624 345.79405 
L 310.004161 339.61719 
L 313.389236 339.61719 
L 315.081773 345.79405 
L 316.77431 345.79405 
L 318.466847 339.61719 
L 320.159384 339.61719 
L 321.851921 345.79405 
L 340.469831 345.79405 
L 342.162368 351.970909 
L 408.171318 351.970909 
L 409.863855 345.79405 
L 418.326541 345.79405 
L 420.019079 351.970909 
L 421.711616 351.970909 
L 423.404153 345.79405 
L 425.09669 351.970909 
L 464.025045 351.970909 
L 465.717583 345.79405 
L 467.41012 351.970909 
L 506.338475 351.970909 
L 508.031012 345.79405 
L 508.031012 345.79405 
" style="fill:none;stroke:#9467bd;stroke-linecap:square;stroke-width:1.5;"/>
   </g>
   <g id="line2d_17">
    <path clip-path="url(#pb15387d9bf)" d="M 84.896715 351.970909 
L 91.666864 351.970909 
L 93.359401 345.79405 
L 95.051938 345.79405 
L 96.744475 339.61719 
L 98.437012 321.086612 
L 100.12955 321.086612 
L 101.822087 314.909752 
L 103.514624 321.086612 
L 105.207161 302.556033 
L 106.899698 296.379174 
L 108.592236 302.556033 
L 110.284773 296.379174 
L 111.97731 296.379174 
L 115.362384 259.318017 
L 117.054921 246.964298 
L 118.747459 240.787438 
L 120.439996 240.787438 
L 123.82507 216.08 
L 125.517607 222.25686 
L 127.210145 216.08 
L 130.595219 216.08 
L 132.287756 203.726281 
L 133.980293 197.549421 
L 135.672831 203.726281 
L 137.365368 222.25686 
L 139.057905 228.433719 
L 140.750442 228.433719 
L 142.442979 246.964298 
L 144.135517 259.318017 
L 147.520591 259.318017 
L 149.213128 277.848595 
L 150.905665 271.671736 
L 152.598202 271.671736 
L 154.29074 259.318017 
L 155.983277 265.494876 
L 157.675814 277.848595 
L 159.368351 277.848595 
L 161.060888 290.202314 
L 164.445963 290.202314 
L 167.831037 277.848595 
L 172.908649 277.848595 
L 176.293723 265.494876 
L 181.371335 265.494876 
L 183.063872 271.671736 
L 188.141483 271.671736 
L 189.834021 277.848595 
L 191.526558 277.848595 
L 193.219095 271.671736 
L 196.604169 271.671736 
L 198.296707 277.848595 
L 203.374318 259.318017 
L 205.066855 259.318017 
L 208.45193 271.671736 
L 210.144467 271.671736 
L 215.222079 290.202314 
L 216.914616 290.202314 
L 218.607153 284.025455 
L 220.29969 284.025455 
L 223.684764 296.379174 
L 225.377302 290.202314 
L 230.454913 290.202314 
L 232.14745 284.025455 
L 237.225062 284.025455 
L 238.917599 290.202314 
L 240.610136 302.556033 
L 242.302674 321.086612 
L 243.995211 327.263471 
L 257.535508 327.263471 
L 259.228045 333.440331 
L 269.383269 333.440331 
L 271.075806 327.263471 
L 272.768343 333.440331 
L 288.001178 333.440331 
L 289.693715 345.79405 
L 313.389236 345.79405 
L 315.081773 339.61719 
L 320.159384 339.61719 
L 321.851921 333.440331 
L 340.469831 333.440331 
L 342.162368 327.263471 
L 348.932517 327.263471 
L 350.625054 333.440331 
L 352.317591 333.440331 
L 355.702665 345.79405 
L 409.863855 345.79405 
L 411.556393 351.970909 
L 418.326541 351.970909 
L 420.019079 345.79405 
L 423.404153 345.79405 
L 425.09669 339.61719 
L 447.099674 339.61719 
L 448.792211 345.79405 
L 465.717583 345.79405 
L 467.41012 339.61719 
L 475.872806 339.61719 
L 477.565343 345.79405 
L 482.642955 345.79405 
L 484.335492 351.970909 
L 508.031012 351.970909 
L 508.031012 351.970909 
" style="fill:none;stroke:#8c564b;stroke-linecap:square;stroke-width:1.5;"/>
   </g>
   <g id="patch_3">
    <path d="M 63.74 365.56 
L 63.74 66.6 
" style="fill:none;stroke:#000000;stroke-linecap:square;stroke-linejoin:miter;stroke-width:0.8;"/>
   </g>
   <g id="patch_4">
    <path d="M 529.187727 365.56 
L 529.187727 66.6 
" style="fill:none;stroke:#000000;stroke-linecap:square;stroke-linejoin:miter;stroke-width:0.8;"/>
   </g>
   <g id="patch_5">
    <path d="M 63.74 365.56 
L 529.187727 365.56 
" style="fill:none;stroke:#000000;stroke-linecap:square;stroke-linejoin:miter;stroke-width:0.8;"/>
   </g>
   <g id="patch_6">
    <path d="M 63.74 66.6 
L 529.187727 66.6 
" style="fill:none;stroke:#000000;stroke-linecap:square;stroke-linejoin:miter;stroke-width:0.8;"/>
   </g>
   <g id="legend_1">
    <g id="patch_7">
     <path d="M 74.24 59.1 
L 518.687727 59.1 
Q 521.687727 59.1 521.687727 56.1 
L 521.687727 13.565625 
Q 521.687727 10.565625 518.687727 10.565625 
L 74.24 10.565625 
Q 71.24 10.565625 71.24 13.565625 
L 71.24 56.1 
Q 71.24 59.1 74.24 59.1 
z
" style="fill:#ffffff;opacity:0.8;stroke:#cccccc;stroke-linejoin:miter;"/>
    </g>
    <g id="line2d_18">
     <path d="M 77.24 22.713281 
L 107.24 22.713281 
" style="fill:none;stroke:#1f77b4;stroke-linecap:square;stroke-width:1.5;"/>
    </g>
    <g id="line2d_19"/>
    <g id="text_14">
     <!-- CKC #0 -->
     <g transform="translate(119.24 27.963281)scale(0.15 -0.15)">
      <use xlink:href="#DejaVuSans-67"/>
      <use x="69.824219" xlink:href="#DejaVuSans-75"/>
      <use x="135.322266" xlink:href="#DejaVuSans-67"/>
      <use x="205.146484" xlink:href="#DejaVuSans-32"/>
      <use x="236.933594" xlink:href="#DejaVuSans-35"/>
      <use x="320.722656" xlink:href="#DejaVuSans-48"/>
     </g>
    </g>
    <g id="line2d_20">
     <path d="M 77.24 44.730469 
L 107.24 44.730469 
" style="fill:none;stroke:#ff7f0e;stroke-linecap:square;stroke-width:1.5;"/>
    </g>
    <g id="line2d_21"/>
    <g id="text_15">
     <!-- CKC #1 -->
     <g transform="translate(119.24 49.980469)scale(0.15 -0.15)">
      <use xlink:href="#DejaVuSans-67"/>
      <use x="69.824219" xlink:href="#DejaVuSans-75"/>
      <use x="135.322266" xlink:href="#DejaVuSans-67"/>
      <use x="205.146484" xlink:href="#DejaVuSans-32"/>
      <use x="236.933594" xlink:href="#DejaVuSans-35"/>
      <use x="320.722656" xlink:href="#DejaVuSans-49"/>
     </g>
    </g>
    <g id="line2d_22">
     <path d="M 190.171274 22.713281 
L 220.171274 22.713281 
" style="fill:none;stroke:#2ca02c;stroke-linecap:square;stroke-width:1.5;"/>
    </g>
    <g id="line2d_23"/>
    <g id="text_16">
     <!-- CKC #2 -->
     <g transform="translate(232.171274 27.963281)scale(0.15 -0.15)">
      <use xlink:href="#DejaVuSans-67"/>
      <use x="69.824219" xlink:href="#DejaVuSans-75"/>
      <use x="135.322266" xlink:href="#DejaVuSans-67"/>
      <use x="205.146484" xlink:href="#DejaVuSans-32"/>
      <use x="236.933594" xlink:href="#DejaVuSans-35"/>
      <use x="320.722656" xlink:href="#DejaVuSans-50"/>
     </g>
    </g>
    <g id="line2d_24">
     <path d="M 190.171274 44.730469 
L 220.171274 44.730469 
" style="fill:none;stroke:#d62728;stroke-linecap:square;stroke-width:1.5;"/>
    </g>
    <g id="line2d_25"/>
    <g id="text_17">
     <!-- CKC #3 -->
     <g transform="translate(232.171274 49.980469)scale(0.15 -0.15)">
      <use xlink:href="#DejaVuSans-67"/>
      <use x="69.824219" xlink:href="#DejaVuSans-75"/>
      <use x="135.322266" xlink:href="#DejaVuSans-67"/>
      <use x="205.146484" xlink:href="#DejaVuSans-32"/>
      <use x="236.933594" xlink:href="#DejaVuSans-35"/>
      <use x="320.722656" xlink:href="#DejaVuSans-51"/>
     </g>
    </g>
    <g id="line2d_26">
     <path d="M 303.102547 22.713281 
L 333.102547 22.713281 
" style="fill:none;stroke:#9467bd;stroke-linecap:square;stroke-width:1.5;"/>
    </g>
    <g id="line2d_27"/>
    <g id="text_18">
     <!-- CKC #4 -->
     <g transform="translate(345.102547 27.963281)scale(0.15 -0.15)">
      <use xlink:href="#DejaVuSans-67"/>
      <use x="69.824219" xlink:href="#DejaVuSans-75"/>
      <use x="135.322266" xlink:href="#DejaVuSans-67"/>
      <use x="205.146484" xlink:href="#DejaVuSans-32"/>
      <use x="236.933594" xlink:href="#DejaVuSans-35"/>
      <use x="320.722656" xlink:href="#DejaVuSans-52"/>
     </g>
    </g>
    <g id="line2d_28">
     <path d="M 416.033821 22.713281 
L 446.033821 22.713281 
" style="fill:none;stroke:#8c564b;stroke-linecap:square;stroke-width:1.5;"/>
    </g>
    <g id="line2d_29"/>
    <g id="text_19">
     <!-- CKC #5 -->
     <g transform="translate(458.033821 27.963281)scale(0.15 -0.15)">
      <use xlink:href="#DejaVuSans-67"/>
      <use x="69.824219" xlink:href="#DejaVuSans-75"/>
      <use x="135.322266" xlink:href="#DejaVuSans-67"/>
      <use x="205.146484" xlink:href="#DejaVuSans-32"/>
      <use x="236.933594" xlink:href="#DejaVuSans-35"/>
      <use x="320.722656" xlink:href="#DejaVuSans-53"/>
     </g>
    </g>
   </g>
  </g>
 </g>
 <defs>
  <clipPath id="pb15387d9bf">
   <rect height="298.96" width="465.447727" x="63.74" y="66.6"/>
  </clipPath>
 </defs>
</svg>
