<?xml version="1.0" encoding="utf-8" standalone="no"?>
<!DOCTYPE svg PUBLIC "-//W3C//DTD SVG 1.1//EN"
  "http://www.w3.org/Graphics/SVG/1.1/DTD/svg11.dtd">
<!-- Created with matplotlib (https://matplotlib.org/) -->
<svg height="432pt" version="1.1" viewBox="0 0 540 432" width="540pt" xmlns="http://www.w3.org/2000/svg" xmlns:xlink="http://www.w3.org/1999/xlink">
 <defs>
  <style type="text/css">
*{stroke-linecap:butt;stroke-linejoin:round;}
  </style>
 </defs>
 <g id="figure_1">
  <g id="patch_1">
   <path d="M 0 432 
L 540 432 
L 540 0 
L 0 0 
z
" style="fill:#ffffff;"/>
  </g>
  <g id="axes_1">
   <g id="patch_2">
    <path d="M 70.13 365.56 
L 506.399833 365.56 
L 506.399833 66.6 
L 70.13 66.6 
z
" style="fill:#ffffff;"/>
   </g>
   <g id="matplotlib.axis_1">
    <g id="xtick_1">
     <g id="line2d_1">
      <defs>
       <path d="M 0 0 
L 0 3.5 
" id="me4ab817b7b" style="stroke:#000000;stroke-width:0.8;"/>
      </defs>
      <g>
       <use style="stroke:#000000;stroke-width:0.8;" x="89.960447" xlink:href="#me4ab817b7b" y="365.56"/>
      </g>
     </g>
     <g id="text_1">
      <!-- 0 -->
      <defs>
       <path d="M 31.78125 66.40625 
Q 24.171875 66.40625 20.328125 58.90625 
Q 16.5 51.421875 16.5 36.375 
Q 16.5 21.390625 20.328125 13.890625 
Q 24.171875 6.390625 31.78125 6.390625 
Q 39.453125 6.390625 43.28125 13.890625 
Q 47.125 21.390625 47.125 36.375 
Q 47.125 51.421875 43.28125 58.90625 
Q 39.453125 66.40625 31.78125 66.40625 
z
M 31.78125 74.21875 
Q 44.046875 74.21875 50.515625 64.515625 
Q 56.984375 54.828125 56.984375 36.375 
Q 56.984375 17.96875 50.515625 8.265625 
Q 44.046875 -1.421875 31.78125 -1.421875 
Q 19.53125 -1.421875 13.0625 8.265625 
Q 6.59375 17.96875 6.59375 36.375 
Q 6.59375 54.828125 13.0625 64.515625 
Q 19.53125 74.21875 31.78125 74.21875 
z
" id="DejaVuSans-48"/>
      </defs>
      <g transform="translate(83.597947 387.756875)scale(0.2 -0.2)">
       <use xlink:href="#DejaVuSans-48"/>
      </g>
     </g>
    </g>
    <g id="xtick_2">
     <g id="line2d_2">
      <g>
       <use style="stroke:#000000;stroke-width:0.8;" x="149.067591" xlink:href="#me4ab817b7b" y="365.56"/>
      </g>
     </g>
     <g id="text_2">
      <!-- 200 -->
      <defs>
       <path d="M 19.1875 8.296875 
L 53.609375 8.296875 
L 53.609375 0 
L 7.328125 0 
L 7.328125 8.296875 
Q 12.9375 14.109375 22.625 23.890625 
Q 32.328125 33.6875 34.8125 36.53125 
Q 39.546875 41.84375 41.421875 45.53125 
Q 43.3125 49.21875 43.3125 52.78125 
Q 43.3125 58.59375 39.234375 62.25 
Q 35.15625 65.921875 28.609375 65.921875 
Q 23.96875 65.921875 18.8125 64.3125 
Q 13.671875 62.703125 7.8125 59.421875 
L 7.8125 69.390625 
Q 13.765625 71.78125 18.9375 73 
Q 24.125 74.21875 28.421875 74.21875 
Q 39.75 74.21875 46.484375 68.546875 
Q 53.21875 62.890625 53.21875 53.421875 
Q 53.21875 48.921875 51.53125 44.890625 
Q 49.859375 40.875 45.40625 35.40625 
Q 44.1875 33.984375 37.640625 27.21875 
Q 31.109375 20.453125 19.1875 8.296875 
z
" id="DejaVuSans-50"/>
      </defs>
      <g transform="translate(129.980091 387.756875)scale(0.2 -0.2)">
       <use xlink:href="#DejaVuSans-50"/>
       <use x="63.623047" xlink:href="#DejaVuSans-48"/>
       <use x="127.246094" xlink:href="#DejaVuSans-48"/>
      </g>
     </g>
    </g>
    <g id="xtick_3">
     <g id="line2d_3">
      <g>
       <use style="stroke:#000000;stroke-width:0.8;" x="208.174736" xlink:href="#me4ab817b7b" y="365.56"/>
      </g>
     </g>
     <g id="text_3">
      <!-- 400 -->
      <defs>
       <path d="M 37.796875 64.3125 
L 12.890625 25.390625 
L 37.796875 25.390625 
z
M 35.203125 72.90625 
L 47.609375 72.90625 
L 47.609375 25.390625 
L 58.015625 25.390625 
L 58.015625 17.1875 
L 47.609375 17.1875 
L 47.609375 0 
L 37.796875 0 
L 37.796875 17.1875 
L 4.890625 17.1875 
L 4.890625 26.703125 
z
" id="DejaVuSans-52"/>
      </defs>
      <g transform="translate(189.087236 387.756875)scale(0.2 -0.2)">
       <use xlink:href="#DejaVuSans-52"/>
       <use x="63.623047" xlink:href="#DejaVuSans-48"/>
       <use x="127.246094" xlink:href="#DejaVuSans-48"/>
      </g>
     </g>
    </g>
    <g id="xtick_4">
     <g id="line2d_4">
      <g>
       <use style="stroke:#000000;stroke-width:0.8;" x="267.28188" xlink:href="#me4ab817b7b" y="365.56"/>
      </g>
     </g>
     <g id="text_4">
      <!-- 600 -->
      <defs>
       <path d="M 33.015625 40.375 
Q 26.375 40.375 22.484375 35.828125 
Q 18.609375 31.296875 18.609375 23.390625 
Q 18.609375 15.53125 22.484375 10.953125 
Q 26.375 6.390625 33.015625 6.390625 
Q 39.65625 6.390625 43.53125 10.953125 
Q 47.40625 15.53125 47.40625 23.390625 
Q 47.40625 31.296875 43.53125 35.828125 
Q 39.65625 40.375 33.015625 40.375 
z
M 52.59375 71.296875 
L 52.59375 62.3125 
Q 48.875 64.0625 45.09375 64.984375 
Q 41.3125 65.921875 37.59375 65.921875 
Q 27.828125 65.921875 22.671875 59.328125 
Q 17.53125 52.734375 16.796875 39.40625 
Q 19.671875 43.65625 24.015625 45.921875 
Q 28.375 48.1875 33.59375 48.1875 
Q 44.578125 48.1875 50.953125 41.515625 
Q 57.328125 34.859375 57.328125 23.390625 
Q 57.328125 12.15625 50.6875 5.359375 
Q 44.046875 -1.421875 33.015625 -1.421875 
Q 20.359375 -1.421875 13.671875 8.265625 
Q 6.984375 17.96875 6.984375 36.375 
Q 6.984375 53.65625 15.1875 63.9375 
Q 23.390625 74.21875 37.203125 74.21875 
Q 40.921875 74.21875 44.703125 73.484375 
Q 48.484375 72.75 52.59375 71.296875 
z
" id="DejaVuSans-54"/>
      </defs>
      <g transform="translate(248.19438 387.756875)scale(0.2 -0.2)">
       <use xlink:href="#DejaVuSans-54"/>
       <use x="63.623047" xlink:href="#DejaVuSans-48"/>
       <use x="127.246094" xlink:href="#DejaVuSans-48"/>
      </g>
     </g>
    </g>
    <g id="xtick_5">
     <g id="line2d_5">
      <g>
       <use style="stroke:#000000;stroke-width:0.8;" x="326.389025" xlink:href="#me4ab817b7b" y="365.56"/>
      </g>
     </g>
     <g id="text_5">
      <!-- 800 -->
      <defs>
       <path d="M 31.78125 34.625 
Q 24.75 34.625 20.71875 30.859375 
Q 16.703125 27.09375 16.703125 20.515625 
Q 16.703125 13.921875 20.71875 10.15625 
Q 24.75 6.390625 31.78125 6.390625 
Q 38.8125 6.390625 42.859375 10.171875 
Q 46.921875 13.96875 46.921875 20.515625 
Q 46.921875 27.09375 42.890625 30.859375 
Q 38.875 34.625 31.78125 34.625 
z
M 21.921875 38.8125 
Q 15.578125 40.375 12.03125 44.71875 
Q 8.5 49.078125 8.5 55.328125 
Q 8.5 64.0625 14.71875 69.140625 
Q 20.953125 74.21875 31.78125 74.21875 
Q 42.671875 74.21875 48.875 69.140625 
Q 55.078125 64.0625 55.078125 55.328125 
Q 55.078125 49.078125 51.53125 44.71875 
Q 48 40.375 41.703125 38.8125 
Q 48.828125 37.15625 52.796875 32.3125 
Q 56.78125 27.484375 56.78125 20.515625 
Q 56.78125 9.90625 50.3125 4.234375 
Q 43.84375 -1.421875 31.78125 -1.421875 
Q 19.734375 -1.421875 13.25 4.234375 
Q 6.78125 9.90625 6.78125 20.515625 
Q 6.78125 27.484375 10.78125 32.3125 
Q 14.796875 37.15625 21.921875 38.8125 
z
M 18.3125 54.390625 
Q 18.3125 48.734375 21.84375 45.5625 
Q 25.390625 42.390625 31.78125 42.390625 
Q 38.140625 42.390625 41.71875 45.5625 
Q 45.3125 48.734375 45.3125 54.390625 
Q 45.3125 60.0625 41.71875 63.234375 
Q 38.140625 66.40625 31.78125 66.40625 
Q 25.390625 66.40625 21.84375 63.234375 
Q 18.3125 60.0625 18.3125 54.390625 
z
" id="DejaVuSans-56"/>
      </defs>
      <g transform="translate(307.301525 387.756875)scale(0.2 -0.2)">
       <use xlink:href="#DejaVuSans-56"/>
       <use x="63.623047" xlink:href="#DejaVuSans-48"/>
       <use x="127.246094" xlink:href="#DejaVuSans-48"/>
      </g>
     </g>
    </g>
    <g id="xtick_6">
     <g id="line2d_6">
      <g>
       <use style="stroke:#000000;stroke-width:0.8;" x="385.496169" xlink:href="#me4ab817b7b" y="365.56"/>
      </g>
     </g>
     <g id="text_6">
      <!-- 1000 -->
      <defs>
       <path d="M 12.40625 8.296875 
L 28.515625 8.296875 
L 28.515625 63.921875 
L 10.984375 60.40625 
L 10.984375 69.390625 
L 28.421875 72.90625 
L 38.28125 72.90625 
L 38.28125 8.296875 
L 54.390625 8.296875 
L 54.390625 0 
L 12.40625 0 
z
" id="DejaVuSans-49"/>
      </defs>
      <g transform="translate(360.046169 387.756875)scale(0.2 -0.2)">
       <use xlink:href="#DejaVuSans-49"/>
       <use x="63.623047" xlink:href="#DejaVuSans-48"/>
       <use x="127.246094" xlink:href="#DejaVuSans-48"/>
       <use x="190.869141" xlink:href="#DejaVuSans-48"/>
      </g>
     </g>
    </g>
    <g id="xtick_7">
     <g id="line2d_7">
      <g>
       <use style="stroke:#000000;stroke-width:0.8;" x="444.603314" xlink:href="#me4ab817b7b" y="365.56"/>
      </g>
     </g>
     <g id="text_7">
      <!-- 1200 -->
      <g transform="translate(419.153314 387.756875)scale(0.2 -0.2)">
       <use xlink:href="#DejaVuSans-49"/>
       <use x="63.623047" xlink:href="#DejaVuSans-50"/>
       <use x="127.246094" xlink:href="#DejaVuSans-48"/>
       <use x="190.869141" xlink:href="#DejaVuSans-48"/>
      </g>
     </g>
    </g>
    <g id="xtick_8">
     <g id="line2d_8">
      <g>
       <use style="stroke:#000000;stroke-width:0.8;" x="503.710458" xlink:href="#me4ab817b7b" y="365.56"/>
      </g>
     </g>
     <g id="text_8">
      <!-- 1400 -->
      <g transform="translate(478.260458 387.756875)scale(0.2 -0.2)">
       <use xlink:href="#DejaVuSans-49"/>
       <use x="63.623047" xlink:href="#DejaVuSans-52"/>
       <use x="127.246094" xlink:href="#DejaVuSans-48"/>
       <use x="190.869141" xlink:href="#DejaVuSans-48"/>
      </g>
     </g>
    </g>
    <g id="text_9">
     <!-- # of games -->
     <defs>
      <path d="M 51.125 44 
L 36.921875 44 
L 32.8125 27.6875 
L 47.125 27.6875 
z
M 43.796875 71.78125 
L 38.71875 51.515625 
L 52.984375 51.515625 
L 58.109375 71.78125 
L 65.921875 71.78125 
L 60.890625 51.515625 
L 76.125 51.515625 
L 76.125 44 
L 58.984375 44 
L 54.984375 27.6875 
L 70.515625 27.6875 
L 70.515625 20.21875 
L 53.078125 20.21875 
L 48 0 
L 40.1875 0 
L 45.21875 20.21875 
L 30.90625 20.21875 
L 25.875 0 
L 18.015625 0 
L 23.09375 20.21875 
L 7.71875 20.21875 
L 7.71875 27.6875 
L 24.90625 27.6875 
L 29 44 
L 13.28125 44 
L 13.28125 51.515625 
L 30.90625 51.515625 
L 35.890625 71.78125 
z
" id="DejaVuSans-35"/>
      <path id="DejaVuSans-32"/>
      <path d="M 30.609375 48.390625 
Q 23.390625 48.390625 19.1875 42.75 
Q 14.984375 37.109375 14.984375 27.296875 
Q 14.984375 17.484375 19.15625 11.84375 
Q 23.34375 6.203125 30.609375 6.203125 
Q 37.796875 6.203125 41.984375 11.859375 
Q 46.1875 17.53125 46.1875 27.296875 
Q 46.1875 37.015625 41.984375 42.703125 
Q 37.796875 48.390625 30.609375 48.390625 
z
M 30.609375 56 
Q 42.328125 56 49.015625 48.375 
Q 55.71875 40.765625 55.71875 27.296875 
Q 55.71875 13.875 49.015625 6.21875 
Q 42.328125 -1.421875 30.609375 -1.421875 
Q 18.84375 -1.421875 12.171875 6.21875 
Q 5.515625 13.875 5.515625 27.296875 
Q 5.515625 40.765625 12.171875 48.375 
Q 18.84375 56 30.609375 56 
z
" id="DejaVuSans-111"/>
      <path d="M 37.109375 75.984375 
L 37.109375 68.5 
L 28.515625 68.5 
Q 23.6875 68.5 21.796875 66.546875 
Q 19.921875 64.59375 19.921875 59.515625 
L 19.921875 54.6875 
L 34.71875 54.6875 
L 34.71875 47.703125 
L 19.921875 47.703125 
L 19.921875 0 
L 10.890625 0 
L 10.890625 47.703125 
L 2.296875 47.703125 
L 2.296875 54.6875 
L 10.890625 54.6875 
L 10.890625 58.5 
Q 10.890625 67.625 15.140625 71.796875 
Q 19.390625 75.984375 28.609375 75.984375 
z
" id="DejaVuSans-102"/>
      <path d="M 45.40625 27.984375 
Q 45.40625 37.75 41.375 43.109375 
Q 37.359375 48.484375 30.078125 48.484375 
Q 22.859375 48.484375 18.828125 43.109375 
Q 14.796875 37.75 14.796875 27.984375 
Q 14.796875 18.265625 18.828125 12.890625 
Q 22.859375 7.515625 30.078125 7.515625 
Q 37.359375 7.515625 41.375 12.890625 
Q 45.40625 18.265625 45.40625 27.984375 
z
M 54.390625 6.78125 
Q 54.390625 -7.171875 48.1875 -13.984375 
Q 42 -20.796875 29.203125 -20.796875 
Q 24.46875 -20.796875 20.265625 -20.09375 
Q 16.0625 -19.390625 12.109375 -17.921875 
L 12.109375 -9.1875 
Q 16.0625 -11.328125 19.921875 -12.34375 
Q 23.78125 -13.375 27.78125 -13.375 
Q 36.625 -13.375 41.015625 -8.765625 
Q 45.40625 -4.15625 45.40625 5.171875 
L 45.40625 9.625 
Q 42.625 4.78125 38.28125 2.390625 
Q 33.9375 0 27.875 0 
Q 17.828125 0 11.671875 7.65625 
Q 5.515625 15.328125 5.515625 27.984375 
Q 5.515625 40.671875 11.671875 48.328125 
Q 17.828125 56 27.875 56 
Q 33.9375 56 38.28125 53.609375 
Q 42.625 51.21875 45.40625 46.390625 
L 45.40625 54.6875 
L 54.390625 54.6875 
z
" id="DejaVuSans-103"/>
      <path d="M 34.28125 27.484375 
Q 23.390625 27.484375 19.1875 25 
Q 14.984375 22.515625 14.984375 16.5 
Q 14.984375 11.71875 18.140625 8.90625 
Q 21.296875 6.109375 26.703125 6.109375 
Q 34.1875 6.109375 38.703125 11.40625 
Q 43.21875 16.703125 43.21875 25.484375 
L 43.21875 27.484375 
z
M 52.203125 31.203125 
L 52.203125 0 
L 43.21875 0 
L 43.21875 8.296875 
Q 40.140625 3.328125 35.546875 0.953125 
Q 30.953125 -1.421875 24.3125 -1.421875 
Q 15.921875 -1.421875 10.953125 3.296875 
Q 6 8.015625 6 15.921875 
Q 6 25.140625 12.171875 29.828125 
Q 18.359375 34.515625 30.609375 34.515625 
L 43.21875 34.515625 
L 43.21875 35.40625 
Q 43.21875 41.609375 39.140625 45 
Q 35.0625 48.390625 27.6875 48.390625 
Q 23 48.390625 18.546875 47.265625 
Q 14.109375 46.140625 10.015625 43.890625 
L 10.015625 52.203125 
Q 14.9375 54.109375 19.578125 55.046875 
Q 24.21875 56 28.609375 56 
Q 40.484375 56 46.34375 49.84375 
Q 52.203125 43.703125 52.203125 31.203125 
z
" id="DejaVuSans-97"/>
      <path d="M 52 44.1875 
Q 55.375 50.25 60.0625 53.125 
Q 64.75 56 71.09375 56 
Q 79.640625 56 84.28125 50.015625 
Q 88.921875 44.046875 88.921875 33.015625 
L 88.921875 0 
L 79.890625 0 
L 79.890625 32.71875 
Q 79.890625 40.578125 77.09375 44.375 
Q 74.3125 48.1875 68.609375 48.1875 
Q 61.625 48.1875 57.5625 43.546875 
Q 53.515625 38.921875 53.515625 30.90625 
L 53.515625 0 
L 44.484375 0 
L 44.484375 32.71875 
Q 44.484375 40.625 41.703125 44.40625 
Q 38.921875 48.1875 33.109375 48.1875 
Q 26.21875 48.1875 22.15625 43.53125 
Q 18.109375 38.875 18.109375 30.90625 
L 18.109375 0 
L 9.078125 0 
L 9.078125 54.6875 
L 18.109375 54.6875 
L 18.109375 46.1875 
Q 21.1875 51.21875 25.484375 53.609375 
Q 29.78125 56 35.6875 56 
Q 41.65625 56 45.828125 52.96875 
Q 50 49.953125 52 44.1875 
z
" id="DejaVuSans-109"/>
      <path d="M 56.203125 29.59375 
L 56.203125 25.203125 
L 14.890625 25.203125 
Q 15.484375 15.921875 20.484375 11.0625 
Q 25.484375 6.203125 34.421875 6.203125 
Q 39.59375 6.203125 44.453125 7.46875 
Q 49.3125 8.734375 54.109375 11.28125 
L 54.109375 2.78125 
Q 49.265625 0.734375 44.1875 -0.34375 
Q 39.109375 -1.421875 33.890625 -1.421875 
Q 20.796875 -1.421875 13.15625 6.1875 
Q 5.515625 13.8125 5.515625 26.8125 
Q 5.515625 40.234375 12.765625 48.109375 
Q 20.015625 56 32.328125 56 
Q 43.359375 56 49.78125 48.890625 
Q 56.203125 41.796875 56.203125 29.59375 
z
M 47.21875 32.234375 
Q 47.125 39.59375 43.09375 43.984375 
Q 39.0625 48.390625 32.421875 48.390625 
Q 24.90625 48.390625 20.390625 44.140625 
Q 15.875 39.890625 15.1875 32.171875 
z
" id="DejaVuSans-101"/>
      <path d="M 44.28125 53.078125 
L 44.28125 44.578125 
Q 40.484375 46.53125 36.375 47.5 
Q 32.28125 48.484375 27.875 48.484375 
Q 21.1875 48.484375 17.84375 46.4375 
Q 14.5 44.390625 14.5 40.28125 
Q 14.5 37.15625 16.890625 35.375 
Q 19.28125 33.59375 26.515625 31.984375 
L 29.59375 31.296875 
Q 39.15625 29.25 43.1875 25.515625 
Q 47.21875 21.78125 47.21875 15.09375 
Q 47.21875 7.46875 41.1875 3.015625 
Q 35.15625 -1.421875 24.609375 -1.421875 
Q 20.21875 -1.421875 15.453125 -0.5625 
Q 10.6875 0.296875 5.421875 2 
L 5.421875 11.28125 
Q 10.40625 8.6875 15.234375 7.390625 
Q 20.0625 6.109375 24.8125 6.109375 
Q 31.15625 6.109375 34.5625 8.28125 
Q 37.984375 10.453125 37.984375 14.40625 
Q 37.984375 18.0625 35.515625 20.015625 
Q 33.0625 21.96875 24.703125 23.78125 
L 21.578125 24.515625 
Q 13.234375 26.265625 9.515625 29.90625 
Q 5.8125 33.546875 5.8125 39.890625 
Q 5.8125 47.609375 11.28125 51.796875 
Q 16.75 56 26.8125 56 
Q 31.78125 56 36.171875 55.265625 
Q 40.578125 54.546875 44.28125 53.078125 
z
" id="DejaVuSans-115"/>
     </defs>
     <g transform="translate(215.821557 414.912344)scale(0.25 -0.25)">
      <use xlink:href="#DejaVuSans-35"/>
      <use x="83.789062" xlink:href="#DejaVuSans-32"/>
      <use x="115.576172" xlink:href="#DejaVuSans-111"/>
      <use x="176.757812" xlink:href="#DejaVuSans-102"/>
      <use x="211.962891" xlink:href="#DejaVuSans-32"/>
      <use x="243.75" xlink:href="#DejaVuSans-103"/>
      <use x="307.226562" xlink:href="#DejaVuSans-97"/>
      <use x="368.505859" xlink:href="#DejaVuSans-109"/>
      <use x="465.917969" xlink:href="#DejaVuSans-101"/>
      <use x="527.441406" xlink:href="#DejaVuSans-115"/>
     </g>
    </g>
   </g>
   <g id="matplotlib.axis_2">
    <g id="ytick_1">
     <g id="line2d_9">
      <defs>
       <path d="M 0 0 
L -3.5 0 
" id="m85680fc7b5" style="stroke:#000000;stroke-width:0.8;"/>
      </defs>
      <g>
       <use style="stroke:#000000;stroke-width:0.8;" x="70.13" xlink:href="#m85680fc7b5" y="351.970909"/>
      </g>
     </g>
     <g id="text_10">
      <!-- 0.0 -->
      <defs>
       <path d="M 10.6875 12.40625 
L 21 12.40625 
L 21 0 
L 10.6875 0 
z
" id="DejaVuSans-46"/>
      </defs>
      <g transform="translate(31.32375 359.569347)scale(0.2 -0.2)">
       <use xlink:href="#DejaVuSans-48"/>
       <use x="63.623047" xlink:href="#DejaVuSans-46"/>
       <use x="95.410156" xlink:href="#DejaVuSans-48"/>
      </g>
     </g>
    </g>
    <g id="ytick_2">
     <g id="line2d_10">
      <g>
       <use style="stroke:#000000;stroke-width:0.8;" x="70.13" xlink:href="#m85680fc7b5" y="297.614545"/>
      </g>
     </g>
     <g id="text_11">
      <!-- 0.2 -->
      <g transform="translate(31.32375 305.212983)scale(0.2 -0.2)">
       <use xlink:href="#DejaVuSans-48"/>
       <use x="63.623047" xlink:href="#DejaVuSans-46"/>
       <use x="95.410156" xlink:href="#DejaVuSans-50"/>
      </g>
     </g>
    </g>
    <g id="ytick_3">
     <g id="line2d_11">
      <g>
       <use style="stroke:#000000;stroke-width:0.8;" x="70.13" xlink:href="#m85680fc7b5" y="243.258182"/>
      </g>
     </g>
     <g id="text_12">
      <!-- 0.4 -->
      <g transform="translate(31.32375 250.856619)scale(0.2 -0.2)">
       <use xlink:href="#DejaVuSans-48"/>
       <use x="63.623047" xlink:href="#DejaVuSans-46"/>
       <use x="95.410156" xlink:href="#DejaVuSans-52"/>
      </g>
     </g>
    </g>
    <g id="ytick_4">
     <g id="line2d_12">
      <g>
       <use style="stroke:#000000;stroke-width:0.8;" x="70.13" xlink:href="#m85680fc7b5" y="188.901818"/>
      </g>
     </g>
     <g id="text_13">
      <!-- 0.6 -->
      <g transform="translate(31.32375 196.500256)scale(0.2 -0.2)">
       <use xlink:href="#DejaVuSans-48"/>
       <use x="63.623047" xlink:href="#DejaVuSans-46"/>
       <use x="95.410156" xlink:href="#DejaVuSans-54"/>
      </g>
     </g>
    </g>
    <g id="ytick_5">
     <g id="line2d_13">
      <g>
       <use style="stroke:#000000;stroke-width:0.8;" x="70.13" xlink:href="#m85680fc7b5" y="134.545455"/>
      </g>
     </g>
     <g id="text_14">
      <!-- 0.8 -->
      <g transform="translate(31.32375 142.143892)scale(0.2 -0.2)">
       <use xlink:href="#DejaVuSans-48"/>
       <use x="63.623047" xlink:href="#DejaVuSans-46"/>
       <use x="95.410156" xlink:href="#DejaVuSans-56"/>
      </g>
     </g>
    </g>
    <g id="ytick_6">
     <g id="line2d_14">
      <g>
       <use style="stroke:#000000;stroke-width:0.8;" x="70.13" xlink:href="#m85680fc7b5" y="80.189091"/>
      </g>
     </g>
     <g id="text_15">
      <!-- 1.0 -->
      <g transform="translate(31.32375 87.787528)scale(0.2 -0.2)">
       <use xlink:href="#DejaVuSans-49"/>
       <use x="63.623047" xlink:href="#DejaVuSans-46"/>
       <use x="95.410156" xlink:href="#DejaVuSans-48"/>
      </g>
     </g>
    </g>
    <g id="text_16">
     <!-- Percentage of Attacker in CKC -->
     <defs>
      <path d="M 19.671875 64.796875 
L 19.671875 37.40625 
L 32.078125 37.40625 
Q 38.96875 37.40625 42.71875 40.96875 
Q 46.484375 44.53125 46.484375 51.125 
Q 46.484375 57.671875 42.71875 61.234375 
Q 38.96875 64.796875 32.078125 64.796875 
z
M 9.8125 72.90625 
L 32.078125 72.90625 
Q 44.34375 72.90625 50.609375 67.359375 
Q 56.890625 61.8125 56.890625 51.125 
Q 56.890625 40.328125 50.609375 34.8125 
Q 44.34375 29.296875 32.078125 29.296875 
L 19.671875 29.296875 
L 19.671875 0 
L 9.8125 0 
z
" id="DejaVuSans-80"/>
      <path d="M 41.109375 46.296875 
Q 39.59375 47.171875 37.8125 47.578125 
Q 36.03125 48 33.890625 48 
Q 26.265625 48 22.1875 43.046875 
Q 18.109375 38.09375 18.109375 28.8125 
L 18.109375 0 
L 9.078125 0 
L 9.078125 54.6875 
L 18.109375 54.6875 
L 18.109375 46.1875 
Q 20.953125 51.171875 25.484375 53.578125 
Q 30.03125 56 36.53125 56 
Q 37.453125 56 38.578125 55.875 
Q 39.703125 55.765625 41.0625 55.515625 
z
" id="DejaVuSans-114"/>
      <path d="M 48.78125 52.59375 
L 48.78125 44.1875 
Q 44.96875 46.296875 41.140625 47.34375 
Q 37.3125 48.390625 33.40625 48.390625 
Q 24.65625 48.390625 19.8125 42.84375 
Q 14.984375 37.3125 14.984375 27.296875 
Q 14.984375 17.28125 19.8125 11.734375 
Q 24.65625 6.203125 33.40625 6.203125 
Q 37.3125 6.203125 41.140625 7.25 
Q 44.96875 8.296875 48.78125 10.40625 
L 48.78125 2.09375 
Q 45.015625 0.34375 40.984375 -0.53125 
Q 36.96875 -1.421875 32.421875 -1.421875 
Q 20.0625 -1.421875 12.78125 6.34375 
Q 5.515625 14.109375 5.515625 27.296875 
Q 5.515625 40.671875 12.859375 48.328125 
Q 20.21875 56 33.015625 56 
Q 37.15625 56 41.109375 55.140625 
Q 45.0625 54.296875 48.78125 52.59375 
z
" id="DejaVuSans-99"/>
      <path d="M 54.890625 33.015625 
L 54.890625 0 
L 45.90625 0 
L 45.90625 32.71875 
Q 45.90625 40.484375 42.875 44.328125 
Q 39.84375 48.1875 33.796875 48.1875 
Q 26.515625 48.1875 22.3125 43.546875 
Q 18.109375 38.921875 18.109375 30.90625 
L 18.109375 0 
L 9.078125 0 
L 9.078125 54.6875 
L 18.109375 54.6875 
L 18.109375 46.1875 
Q 21.34375 51.125 25.703125 53.5625 
Q 30.078125 56 35.796875 56 
Q 45.21875 56 50.046875 50.171875 
Q 54.890625 44.34375 54.890625 33.015625 
z
" id="DejaVuSans-110"/>
      <path d="M 18.3125 70.21875 
L 18.3125 54.6875 
L 36.8125 54.6875 
L 36.8125 47.703125 
L 18.3125 47.703125 
L 18.3125 18.015625 
Q 18.3125 11.328125 20.140625 9.421875 
Q 21.96875 7.515625 27.59375 7.515625 
L 36.8125 7.515625 
L 36.8125 0 
L 27.59375 0 
Q 17.1875 0 13.234375 3.875 
Q 9.28125 7.765625 9.28125 18.015625 
L 9.28125 47.703125 
L 2.6875 47.703125 
L 2.6875 54.6875 
L 9.28125 54.6875 
L 9.28125 70.21875 
z
" id="DejaVuSans-116"/>
      <path d="M 34.1875 63.1875 
L 20.796875 26.90625 
L 47.609375 26.90625 
z
M 28.609375 72.90625 
L 39.796875 72.90625 
L 67.578125 0 
L 57.328125 0 
L 50.6875 18.703125 
L 17.828125 18.703125 
L 11.1875 0 
L 0.78125 0 
z
" id="DejaVuSans-65"/>
      <path d="M 9.078125 75.984375 
L 18.109375 75.984375 
L 18.109375 31.109375 
L 44.921875 54.6875 
L 56.390625 54.6875 
L 27.390625 29.109375 
L 57.625 0 
L 45.90625 0 
L 18.109375 26.703125 
L 18.109375 0 
L 9.078125 0 
z
" id="DejaVuSans-107"/>
      <path d="M 9.421875 54.6875 
L 18.40625 54.6875 
L 18.40625 0 
L 9.421875 0 
z
M 9.421875 75.984375 
L 18.40625 75.984375 
L 18.40625 64.59375 
L 9.421875 64.59375 
z
" id="DejaVuSans-105"/>
      <path d="M 64.40625 67.28125 
L 64.40625 56.890625 
Q 59.421875 61.53125 53.78125 63.8125 
Q 48.140625 66.109375 41.796875 66.109375 
Q 29.296875 66.109375 22.65625 58.46875 
Q 16.015625 50.828125 16.015625 36.375 
Q 16.015625 21.96875 22.65625 14.328125 
Q 29.296875 6.6875 41.796875 6.6875 
Q 48.140625 6.6875 53.78125 8.984375 
Q 59.421875 11.28125 64.40625 15.921875 
L 64.40625 5.609375 
Q 59.234375 2.09375 53.4375 0.328125 
Q 47.65625 -1.421875 41.21875 -1.421875 
Q 24.65625 -1.421875 15.125 8.703125 
Q 5.609375 18.84375 5.609375 36.375 
Q 5.609375 53.953125 15.125 64.078125 
Q 24.65625 74.21875 41.21875 74.21875 
Q 47.75 74.21875 53.53125 72.484375 
Q 59.328125 70.75 64.40625 67.28125 
z
" id="DejaVuSans-67"/>
      <path d="M 9.8125 72.90625 
L 19.671875 72.90625 
L 19.671875 42.09375 
L 52.390625 72.90625 
L 65.09375 72.90625 
L 28.90625 38.921875 
L 67.671875 0 
L 54.6875 0 
L 19.671875 35.109375 
L 19.671875 0 
L 9.8125 0 
z
" id="DejaVuSans-75"/>
     </defs>
     <g transform="translate(23.857604 342.050052)rotate(-90)scale(0.166667 -0.166667)">
      <use xlink:href="#DejaVuSans-80"/>
      <use x="60.255859" xlink:href="#DejaVuSans-101"/>
      <use x="121.779297" xlink:href="#DejaVuSans-114"/>
      <use x="162.861328" xlink:href="#DejaVuSans-99"/>
      <use x="217.841797" xlink:href="#DejaVuSans-101"/>
      <use x="279.365234" xlink:href="#DejaVuSans-110"/>
      <use x="342.744141" xlink:href="#DejaVuSans-116"/>
      <use x="381.953125" xlink:href="#DejaVuSans-97"/>
      <use x="443.232422" xlink:href="#DejaVuSans-103"/>
      <use x="506.708984" xlink:href="#DejaVuSans-101"/>
      <use x="568.232422" xlink:href="#DejaVuSans-32"/>
      <use x="600.019531" xlink:href="#DejaVuSans-111"/>
      <use x="661.201172" xlink:href="#DejaVuSans-102"/>
      <use x="696.40625" xlink:href="#DejaVuSans-32"/>
      <use x="728.193359" xlink:href="#DejaVuSans-65"/>
      <use x="796.585938" xlink:href="#DejaVuSans-116"/>
      <use x="835.794922" xlink:href="#DejaVuSans-116"/>
      <use x="875.003906" xlink:href="#DejaVuSans-97"/>
      <use x="936.283203" xlink:href="#DejaVuSans-99"/>
      <use x="991.263672" xlink:href="#DejaVuSans-107"/>
      <use x="1049.126953" xlink:href="#DejaVuSans-101"/>
      <use x="1110.650391" xlink:href="#DejaVuSans-114"/>
      <use x="1151.763672" xlink:href="#DejaVuSans-32"/>
      <use x="1183.550781" xlink:href="#DejaVuSans-105"/>
      <use x="1211.333984" xlink:href="#DejaVuSans-110"/>
      <use x="1274.712891" xlink:href="#DejaVuSans-32"/>
      <use x="1306.5" xlink:href="#DejaVuSans-67"/>
      <use x="1376.324219" xlink:href="#DejaVuSans-75"/>
      <use x="1441.822266" xlink:href="#DejaVuSans-67"/>
     </g>
    </g>
   </g>
   <g id="line2d_15">
    <path clip-path="url(#pfc4eddb0cd)" d="M 89.960447 134.545455 
L 90.551518 232.386909 
L 91.14259 281.307636 
L 91.438126 303.050182 
L 91.733661 303.050182 
L 92.029197 319.357091 
L 92.324733 313.921455 
L 92.620268 297.614545 
L 93.21134 286.743273 
L 93.506876 313.921455 
L 93.802411 324.792727 
L 94.097947 330.228364 
L 94.393483 346.535273 
L 94.689019 341.099636 
L 94.984554 341.099636 
L 95.28009 335.664 
L 95.575626 324.792727 
L 96.166697 335.664 
L 96.462233 335.664 
L 96.757769 324.792727 
L 97.053304 319.357091 
L 97.34884 319.357091 
L 97.644376 313.921455 
L 97.939911 319.357091 
L 99.122054 319.357091 
L 99.713126 330.228364 
L 100.008662 330.228364 
L 100.599733 319.357091 
L 100.895269 319.357091 
L 101.190804 330.228364 
L 101.48634 319.357091 
L 101.781876 335.664 
L 102.077412 324.792727 
L 102.372947 324.792727 
L 102.668483 319.357091 
L 102.964019 319.357091 
L 103.259554 308.485818 
L 103.850626 346.535273 
L 104.146162 341.099636 
L 104.441697 341.099636 
L 104.737233 330.228364 
L 105.032769 324.792727 
L 105.62384 346.535273 
L 105.919376 351.970909 
L 106.214912 346.535273 
L 106.510447 335.664 
L 106.805983 313.921455 
L 107.101519 319.357091 
L 107.397055 330.228364 
L 107.69259 324.792727 
L 107.988126 324.792727 
L 108.283662 319.357091 
L 108.579197 330.228364 
L 108.874733 324.792727 
L 109.170269 335.664 
L 109.465805 308.485818 
L 109.76134 319.357091 
L 110.056876 319.357091 
L 110.352412 324.792727 
L 110.943483 346.535273 
L 111.239019 346.535273 
L 111.534555 341.099636 
L 112.125626 341.099636 
L 112.716698 351.970909 
L 113.307769 351.970909 
L 113.603305 346.535273 
L 113.89884 351.970909 
L 114.194376 346.535273 
L 114.489912 335.664 
L 115.672055 335.664 
L 115.967591 351.970909 
L 116.263126 341.099636 
L 116.558662 341.099636 
L 116.854198 330.228364 
L 117.740805 313.921455 
L 118.331876 324.792727 
L 119.809555 324.792727 
L 120.400626 313.921455 
L 120.696162 313.921455 
L 120.991698 324.792727 
L 121.287234 330.228364 
L 121.582769 324.792727 
L 121.878305 313.921455 
L 122.469376 346.535273 
L 122.764912 341.099636 
L 123.060448 341.099636 
L 123.355984 346.535273 
L 123.947055 335.664 
L 124.833662 335.664 
L 125.424734 346.535273 
L 126.311341 346.535273 
L 126.606877 341.099636 
L 126.902412 351.970909 
L 127.197948 341.099636 
L 127.493484 341.099636 
L 127.789019 346.535273 
L 128.084555 341.099636 
L 128.380091 341.099636 
L 128.971162 330.228364 
L 130.153305 330.228364 
L 130.744377 341.099636 
L 131.039912 341.099636 
L 131.92652 324.792727 
L 132.517591 324.792727 
L 132.813127 330.228364 
L 133.108662 330.228364 
L 133.404198 319.357091 
L 133.699734 319.357091 
L 133.99527 324.792727 
L 134.290805 324.792727 
L 135.177412 341.099636 
L 136.359555 341.099636 
L 136.950627 330.228364 
L 137.246163 330.228364 
L 137.541698 324.792727 
L 138.13277 335.664 
L 138.428305 324.792727 
L 138.723841 330.228364 
L 139.019377 324.792727 
L 139.314913 324.792727 
L 140.20152 341.099636 
L 140.497055 330.228364 
L 140.792591 335.664 
L 141.088127 330.228364 
L 141.383663 330.228364 
L 141.679198 335.664 
L 142.861341 335.664 
L 143.156877 351.970909 
L 143.452413 351.970909 
L 143.747948 346.535273 
L 144.043484 346.535273 
L 144.33902 341.099636 
L 144.634556 341.099636 
L 144.930091 335.664 
L 145.521163 335.664 
L 145.816698 313.921455 
L 146.40777 313.921455 
L 146.703306 297.614545 
L 146.998841 308.485818 
L 147.589913 319.357091 
L 147.885449 319.357091 
L 148.180984 335.664 
L 148.47652 335.664 
L 148.772056 341.099636 
L 149.067591 341.099636 
L 149.658663 330.228364 
L 149.954199 330.228364 
L 150.249734 324.792727 
L 150.54527 324.792727 
L 150.840806 308.485818 
L 151.136342 319.357091 
L 151.431877 308.485818 
L 151.727413 330.228364 
L 152.022949 324.792727 
L 152.318484 335.664 
L 152.61402 335.664 
L 152.909556 324.792727 
L 153.205092 330.228364 
L 153.500627 330.228364 
L 153.796163 335.664 
L 154.091699 335.664 
L 154.387234 346.535273 
L 154.978306 324.792727 
L 155.273842 324.792727 
L 155.864913 346.535273 
L 156.160449 335.664 
L 156.75152 335.664 
L 157.047056 324.792727 
L 157.342592 319.357091 
L 157.933663 319.357091 
L 158.229199 313.921455 
L 158.82027 324.792727 
L 159.115806 319.357091 
L 159.411342 324.792727 
L 159.706877 324.792727 
L 160.002413 341.099636 
L 160.297949 335.664 
L 160.593485 341.099636 
L 161.775628 341.099636 
L 162.071163 335.664 
L 162.366699 335.664 
L 162.95777 324.792727 
L 163.253306 324.792727 
L 163.844378 335.664 
L 164.139913 330.228364 
L 164.730985 340.877774 
L 165.617592 340.877774 
L 165.913128 329.784638 
L 166.208663 324.238071 
L 166.799735 324.238071 
L 167.390806 335.331206 
L 167.686342 346.424341 
L 168.277413 346.424341 
L 168.572949 351.970909 
L 169.164021 351.970909 
L 169.755092 340.877774 
L 170.050628 340.877774 
L 170.346163 324.238071 
L 170.641699 324.238071 
L 170.937235 318.691503 
L 171.232771 318.691503 
L 171.528306 324.238071 
L 171.823842 313.144935 
L 172.710449 313.144935 
L 173.005985 329.784638 
L 173.301521 329.322424 
L 173.597056 340.646667 
L 173.892592 334.984545 
L 174.483664 334.984545 
L 174.779199 323.660303 
L 175.370271 334.623133 
L 175.665806 323.05795 
L 175.961342 333.852121 
L 176.256878 333.852121 
L 176.552414 327.812525 
L 176.847949 327.812525 
L 177.439021 339.891717 
L 177.734557 339.61719 
L 178.030092 327.263471 
L 178.621164 327.263471 
L 178.916699 321.086612 
L 179.212235 339.329894 
L 179.507771 333.009387 
L 179.803307 345.499913 
L 180.985449 345.499913 
L 181.280985 338.713259 
L 181.576521 345.342084 
L 181.872057 331.587273 
L 182.463128 331.587273 
L 182.758664 345.176364 
L 183.349735 331.587273 
L 184.236342 331.587273 
L 184.531878 324.792727 
L 184.827414 331.064615 
L 185.12295 317.127086 
L 185.418485 310.158322 
L 185.714021 324.095851 
L 186.009557 331.064615 
L 186.305092 324.095851 
L 186.600628 331.064615 
L 186.896164 331.064615 
L 187.1917 330.51445 
L 187.487235 337.666603 
L 187.782771 337.666603 
L 188.373843 323.362297 
L 188.669378 330.51445 
L 189.26045 330.51445 
L 189.851521 344.625455 
L 190.147057 337.28 
L 190.738128 337.28 
L 191.033664 351.970909 
L 191.920271 351.970909 
L 192.511343 337.28 
L 193.102414 351.970909 
L 193.39795 344.421414 
L 193.989021 344.421414 
L 194.580093 343.977326 
L 195.4667 317.998182 
L 195.762236 334.984545 
L 196.353307 334.984545 
L 196.648843 343.203754 
L 196.944378 334.436598 
L 197.53545 334.436598 
L 197.830986 325.669443 
L 198.126521 334.436598 
L 198.422057 334.436598 
L 198.717593 343.203754 
L 199.013129 342.911515 
L 199.308664 342.911515 
L 199.6042 324.792727 
L 199.899736 333.852121 
L 200.195271 333.852121 
L 200.490807 342.911515 
L 200.786343 342.911515 
L 201.377414 324.792727 
L 201.968486 324.792727 
L 202.264021 333.852121 
L 202.559557 323.855549 
L 202.855093 333.227335 
L 203.150629 332.557922 
L 203.446164 322.851429 
L 203.7417 332.557922 
L 204.037236 331.838923 
L 204.332772 331.838923 
L 204.628307 341.904916 
L 206.697057 341.904916 
L 206.992593 351.970909 
L 207.8792 351.970909 
L 208.765807 319.357091 
L 209.356879 319.357091 
L 209.652415 308.485818 
L 209.94795 306.673939 
L 210.243486 306.673939 
L 210.539022 292.887905 
L 210.834557 269.254704 
L 211.130093 269.254704 
L 212.0167 326.086926 
L 212.312236 326.086926 
L 212.607772 339.028918 
L 212.903307 338.381818 
L 213.198843 338.381818 
L 213.494379 337.666603 
L 213.789915 323.362297 
L 214.08545 323.362297 
L 214.380986 337.666603 
L 214.972058 337.666603 
L 215.267593 323.362297 
L 215.563129 336.871919 
L 215.858665 336.871919 
L 216.1542 319.996578 
L 216.449736 335.983743 
L 218.22295 335.983743 
L 218.518486 334.984545 
L 218.814022 334.984545 
L 219.109558 317.998182 
L 219.996165 317.998182 
L 220.291701 315.733333 
L 220.882772 315.733333 
L 221.178308 297.614545 
L 222.064915 297.614545 
L 222.360451 315.733333 
L 222.951522 315.733333 
L 223.247058 333.852121 
L 224.429201 333.852121 
L 224.724736 331.064615 
L 225.020272 331.064615 
L 225.315808 310.158322 
L 226.202415 310.158322 
L 226.793486 268.345734 
L 227.680094 268.345734 
L 227.975629 310.158322 
L 228.566701 351.970909 
L 230.635451 351.970909 
L 230.930987 331.064615 
L 231.522058 331.064615 
L 231.817594 351.970909 
L 238.614915 351.970909 
L 238.910451 317.998182 
L 239.205987 351.970909 
L 250.140808 351.970909 
L 250.436344 297.614545 
L 252.505094 297.614545 
L 252.80063 243.258182 
L 253.391701 243.258182 
L 253.687237 216.08 
L 254.278309 216.08 
L 254.86938 351.970909 
L 259.00688 351.970909 
L 259.302416 284.025455 
L 260.484559 284.025455 
L 260.780094 261.37697 
L 261.07563 351.970909 
L 267.28188 351.970909 
L 267.577416 261.37697 
L 267.872952 351.970909 
L 279.694381 351.970909 
L 279.989916 216.08 
L 280.285452 216.08 
L 280.580988 351.970909 
L 427.166706 351.970909 
L 427.462242 80.189091 
L 431.599742 80.189091 
L 431.895278 351.970909 
L 435.146171 351.970909 
L 435.441706 80.189091 
L 436.623849 80.189091 
L 436.919385 351.970909 
L 441.352421 351.970909 
L 441.647957 80.189091 
L 445.785457 80.189091 
L 446.080992 351.970909 
L 457.31135 351.970909 
L 457.606886 80.189091 
L 459.084564 80.189091 
L 459.3801 351.970909 
L 466.177422 351.970909 
L 466.472957 80.189091 
L 468.246172 80.189091 
L 468.541707 351.970909 
L 471.7926 351.970909 
L 472.088136 80.189091 
L 477.703315 80.189091 
L 477.99885 351.970909 
L 486.569386 351.970909 
L 486.569386 351.970909 
" style="fill:none;stroke:#1f77b4;stroke-linecap:square;stroke-width:1.5;"/>
   </g>
   <g id="line2d_16">
    <path clip-path="url(#pfc4eddb0cd)" d="M 89.960447 297.614545 
L 90.551518 210.644364 
L 90.847054 210.644364 
L 91.14259 199.773091 
L 91.438126 210.644364 
L 91.733661 205.208727 
L 92.324733 232.386909 
L 92.620268 232.386909 
L 92.915804 254.129455 
L 93.21134 254.129455 
L 93.506876 226.951273 
L 93.802411 221.515636 
L 94.393483 221.515636 
L 95.28009 265.000727 
L 95.575626 270.436364 
L 95.871161 270.436364 
L 96.166697 275.872 
L 96.462233 275.872 
L 96.757769 281.307636 
L 97.053304 303.050182 
L 97.644376 292.178909 
L 97.939911 281.307636 
L 98.530983 281.307636 
L 98.826519 265.000727 
L 99.122054 275.872 
L 99.41759 270.436364 
L 99.713126 275.872 
L 100.008662 265.000727 
L 100.304197 286.743273 
L 100.599733 286.743273 
L 100.895269 281.307636 
L 101.190804 259.565091 
L 101.781876 270.436364 
L 102.077412 270.436364 
L 102.372947 286.743273 
L 102.668483 292.178909 
L 102.964019 281.307636 
L 103.259554 303.050182 
L 103.55509 275.872 
L 103.850626 270.436364 
L 104.146162 286.743273 
L 104.441697 292.178909 
L 104.737233 292.178909 
L 105.032769 297.614545 
L 105.919376 297.614545 
L 106.510447 308.485818 
L 106.805983 319.357091 
L 107.101519 313.921455 
L 107.397055 313.921455 
L 107.69259 297.614545 
L 107.988126 292.178909 
L 108.283662 303.050182 
L 108.874733 292.178909 
L 109.170269 275.872 
L 109.465805 281.307636 
L 109.76134 270.436364 
L 110.352412 259.565091 
L 110.647948 259.565091 
L 110.943483 275.872 
L 111.239019 281.307636 
L 111.83009 270.436364 
L 112.421162 270.436364 
L 112.716698 265.000727 
L 113.012233 270.436364 
L 113.307769 281.307636 
L 113.603305 297.614545 
L 113.89884 292.178909 
L 114.194376 324.792727 
L 115.376519 303.050182 
L 115.672055 303.050182 
L 115.967591 286.743273 
L 116.558662 286.743273 
L 116.854198 292.178909 
L 117.149733 281.307636 
L 117.740805 303.050182 
L 118.036341 286.743273 
L 118.331876 281.307636 
L 118.627412 281.307636 
L 118.922948 270.436364 
L 119.218483 281.307636 
L 119.514019 286.743273 
L 119.809555 286.743273 
L 120.105091 313.921455 
L 120.400626 308.485818 
L 120.991698 308.485818 
L 121.582769 297.614545 
L 121.878305 313.921455 
L 122.173841 308.485818 
L 122.469376 308.485818 
L 122.764912 319.357091 
L 123.355984 308.485818 
L 124.242591 308.485818 
L 124.538126 313.921455 
L 124.833662 313.921455 
L 125.129198 308.485818 
L 125.424734 308.485818 
L 126.015805 319.357091 
L 126.311341 319.357091 
L 126.902412 308.485818 
L 127.493484 319.357091 
L 127.789019 313.921455 
L 128.084555 313.921455 
L 128.675627 324.792727 
L 128.971162 341.099636 
L 129.266698 335.664 
L 129.857769 335.664 
L 130.153305 330.228364 
L 130.448841 319.357091 
L 130.744377 324.792727 
L 131.039912 313.921455 
L 132.222055 313.921455 
L 132.517591 308.485818 
L 132.813127 308.485818 
L 133.108662 319.357091 
L 133.404198 313.921455 
L 133.699734 319.357091 
L 133.99527 308.485818 
L 134.290805 313.921455 
L 134.586341 303.050182 
L 134.881877 297.614545 
L 135.177412 286.743273 
L 135.472948 303.050182 
L 135.768484 308.485818 
L 136.06402 303.050182 
L 136.359555 303.050182 
L 136.655091 313.921455 
L 136.950627 313.921455 
L 137.246163 308.485818 
L 137.541698 308.485818 
L 137.837234 297.614545 
L 138.13277 292.178909 
L 138.428305 292.178909 
L 138.723841 303.050182 
L 139.019377 303.050182 
L 139.314913 297.614545 
L 139.610448 286.743273 
L 139.905984 286.743273 
L 140.497055 297.614545 
L 140.792591 281.307636 
L 141.088127 281.307636 
L 141.679198 270.436364 
L 142.27027 297.614545 
L 142.861341 297.614545 
L 143.156877 286.743273 
L 143.452413 297.614545 
L 143.747948 303.050182 
L 144.634556 303.050182 
L 144.930091 308.485818 
L 145.225627 308.485818 
L 145.521163 297.614545 
L 145.816698 303.050182 
L 146.112234 303.050182 
L 146.40777 297.614545 
L 146.703306 308.485818 
L 146.998841 297.614545 
L 147.589913 286.743273 
L 147.885449 292.178909 
L 148.180984 286.743273 
L 148.47652 292.178909 
L 148.772056 286.743273 
L 149.067591 286.743273 
L 149.363127 292.178909 
L 149.658663 292.178909 
L 149.954199 286.743273 
L 150.249734 292.178909 
L 150.54527 292.178909 
L 150.840806 297.614545 
L 151.136342 281.307636 
L 151.431877 286.743273 
L 151.727413 265.000727 
L 152.022949 275.872 
L 152.318484 265.000727 
L 152.61402 275.872 
L 152.909556 281.307636 
L 153.205092 275.872 
L 153.500627 275.872 
L 153.796163 281.307636 
L 154.091699 281.307636 
L 154.387234 275.872 
L 154.68277 275.872 
L 154.978306 281.307636 
L 155.273842 292.178909 
L 155.864913 281.307636 
L 156.160449 281.307636 
L 156.75152 292.178909 
L 157.047056 292.178909 
L 157.342592 286.743273 
L 157.638127 292.178909 
L 157.933663 303.050182 
L 158.229199 303.050182 
L 158.524735 297.614545 
L 158.82027 286.743273 
L 159.115806 281.307636 
L 159.411342 281.307636 
L 159.706877 292.178909 
L 160.002413 275.872 
L 160.297949 292.178909 
L 160.593485 297.614545 
L 161.184556 297.614545 
L 161.480092 303.050182 
L 161.775628 292.178909 
L 162.071163 303.050182 
L 162.366699 308.485818 
L 162.662235 303.050182 
L 163.253306 303.050182 
L 163.548842 292.178909 
L 163.844378 286.743273 
L 164.139913 297.614545 
L 164.435449 292.178909 
L 164.730985 290.958664 
L 165.322056 302.0518 
L 165.617592 302.0518 
L 165.913128 307.598367 
L 166.208663 318.691503 
L 166.504199 313.144935 
L 166.799735 318.691503 
L 167.390806 307.598367 
L 167.686342 296.505232 
L 168.277413 318.691503 
L 168.572949 307.598367 
L 169.459556 324.238071 
L 170.346163 324.238071 
L 170.641699 318.691503 
L 170.937235 324.238071 
L 171.232771 324.238071 
L 171.528306 307.598367 
L 171.823842 307.598367 
L 172.119378 313.144935 
L 172.710449 313.144935 
L 173.005985 296.505232 
L 173.301521 306.673939 
L 173.597056 301.011818 
L 173.892592 306.673939 
L 174.188128 306.673939 
L 174.483664 295.349697 
L 174.779199 306.673939 
L 175.074735 306.673939 
L 175.370271 305.710174 
L 175.665806 305.710174 
L 175.961342 285.535354 
L 176.552414 285.535354 
L 176.847949 291.574949 
L 177.143485 291.574949 
L 177.439021 297.614545 
L 177.734557 308.732893 
L 178.030092 314.909752 
L 178.325628 314.909752 
L 178.621164 308.732893 
L 178.916699 314.909752 
L 179.212235 301.40685 
L 179.507771 314.047865 
L 179.803307 300.202944 
L 180.098842 306.673939 
L 180.394378 300.202944 
L 180.985449 313.144935 
L 181.280985 312.19796 
L 181.576521 305.569135 
L 181.872057 304.409091 
L 182.167592 297.614545 
L 182.463128 304.409091 
L 182.758664 297.614545 
L 183.0542 304.409091 
L 183.645271 304.409091 
L 183.940807 297.614545 
L 184.531878 297.614545 
L 184.827414 296.220793 
L 185.418485 310.158322 
L 185.714021 296.220793 
L 186.009557 303.189557 
L 186.896164 303.189557 
L 187.1917 301.905837 
L 187.487235 294.753684 
L 188.373843 294.753684 
L 188.669378 287.601531 
L 188.964914 301.905837 
L 189.26045 301.905837 
L 189.851521 285.861818 
L 190.147057 285.861818 
L 190.442593 293.207273 
L 190.738128 285.861818 
L 191.033664 271.170909 
L 191.3292 285.861818 
L 192.511343 285.861818 
L 193.102414 268.926465 
L 193.39795 268.926465 
L 193.693486 276.47596 
L 194.284557 305.37974 
L 194.580093 304.009412 
L 194.875628 304.009412 
L 195.4667 301.011818 
L 195.762236 292.518636 
L 196.057771 292.518636 
L 196.353307 301.011818 
L 196.648843 281.833666 
L 197.53545 308.135132 
L 197.830986 308.135132 
L 198.126521 299.367977 
L 198.422057 299.367977 
L 198.717593 290.600821 
L 199.013129 306.673939 
L 199.308664 306.673939 
L 199.6042 315.733333 
L 199.899736 306.673939 
L 200.195271 315.733333 
L 200.786343 315.733333 
L 201.081879 306.673939 
L 201.968486 306.673939 
L 202.264021 297.614545 
L 202.559557 295.740188 
L 202.855093 295.740188 
L 203.150629 293.731948 
L 203.7417 293.731948 
L 204.037236 291.574949 
L 204.332772 301.640943 
L 204.628307 291.574949 
L 204.923843 291.574949 
L 205.219379 311.706936 
L 206.401522 311.706936 
L 206.697057 321.772929 
L 207.288129 321.772929 
L 207.583664 331.838923 
L 207.8792 331.064615 
L 208.174736 341.517762 
L 208.470272 341.517762 
L 208.765807 341.099636 
L 209.652415 341.099636 
L 209.94795 340.646667 
L 210.243486 329.322424 
L 210.539022 328.337708 
L 210.834557 340.154308 
L 211.130093 340.154308 
L 211.425629 327.263471 
L 212.0167 274.318961 
L 212.312236 300.202944 
L 212.607772 300.202944 
L 212.903307 311.203636 
L 213.198843 311.203636 
L 213.494379 309.05799 
L 213.789915 294.753684 
L 214.08545 294.753684 
L 214.380986 280.449378 
L 214.972058 280.449378 
L 215.267593 294.753684 
L 215.563129 291.574949 
L 215.858665 291.574949 
L 216.1542 288.022246 
L 216.449736 272.03508 
L 216.745272 304.009412 
L 217.040808 304.009412 
L 217.336343 319.996578 
L 217.927415 319.996578 
L 218.22295 304.009412 
L 218.518486 317.998182 
L 219.109558 317.998182 
L 219.405093 334.984545 
L 219.996165 334.984545 
L 220.291701 333.852121 
L 222.064915 333.852121 
L 222.360451 315.733333 
L 222.951522 315.733333 
L 223.247058 297.614545 
L 224.429201 297.614545 
L 224.724736 289.252028 
L 226.497951 289.252028 
L 226.793486 310.158322 
L 227.384558 310.158322 
L 227.975629 268.345734 
L 228.862236 268.345734 
L 229.157772 289.252028 
L 230.044379 289.252028 
L 230.339915 310.158322 
L 230.930987 310.158322 
L 231.226522 331.064615 
L 231.522058 331.064615 
L 231.817594 289.252028 
L 232.113129 284.025455 
L 233.295272 284.025455 
L 233.590808 329.322424 
L 234.477415 329.322424 
L 234.772951 324.792727 
L 235.068487 324.792727 
L 235.364022 321.772929 
L 236.546165 321.772929 
L 236.841701 317.998182 
L 238.910451 317.998182 
L 239.205987 284.025455 
L 241.865808 284.025455 
L 242.161344 274.318961 
L 243.047951 274.318961 
L 243.343487 313.144935 
L 246.889916 313.144935 
L 247.185451 306.673939 
L 249.845273 306.673939 
L 250.140808 297.614545 
L 253.391701 297.614545 
L 253.687237 284.025455 
L 254.278309 284.025455 
L 254.86938 148.134545 
L 259.597952 148.134545 
L 259.893487 216.08 
L 260.189023 216.08 
L 260.484559 284.025455 
L 260.780094 261.37697 
L 261.07563 170.78303 
L 261.962237 170.78303 
L 262.257773 261.37697 
L 267.577416 261.37697 
L 267.872952 170.78303 
L 268.759559 170.78303 
L 269.055095 261.37697 
L 272.601523 261.37697 
L 272.897059 216.08 
L 280.285452 216.08 
L 280.580988 80.189091 
L 280.876524 216.08 
L 284.127417 216.08 
L 284.422952 80.189091 
L 424.506885 80.189091 
L 424.80242 351.970909 
L 426.280099 351.970909 
L 426.575635 80.189091 
L 426.87117 351.970909 
L 431.599742 351.970909 
L 431.895278 80.189091 
L 434.259564 80.189091 
L 434.555099 351.970909 
L 436.623849 351.970909 
L 436.919385 80.189091 
L 439.874742 80.189091 
L 440.170278 351.970909 
L 445.785457 351.970909 
L 446.080992 80.189091 
L 449.03635 80.189091 
L 449.331885 351.970909 
L 459.084564 351.970909 
L 459.3801 80.189091 
L 465.58635 80.189091 
L 465.881886 351.970909 
L 468.246172 351.970909 
L 468.541707 80.189091 
L 470.905993 80.189091 
L 471.201529 351.970909 
L 477.703315 351.970909 
L 477.99885 80.189091 
L 485.978315 80.189091 
L 486.273851 351.970909 
L 486.569386 351.970909 
L 486.569386 351.970909 
" style="fill:none;stroke:#ff7f0e;stroke-linecap:square;stroke-width:1.5;"/>
   </g>
   <g id="line2d_17">
    <path clip-path="url(#pfc4eddb0cd)" d="M 89.960447 351.970909 
L 90.255983 341.099636 
L 90.551518 346.535273 
L 90.847054 319.357091 
L 91.14259 313.921455 
L 91.438126 292.178909 
L 91.733661 297.614545 
L 92.029197 281.307636 
L 92.620268 303.050182 
L 92.915804 297.614545 
L 93.506876 297.614545 
L 93.802411 303.050182 
L 94.097947 303.050182 
L 94.393483 297.614545 
L 94.689019 281.307636 
L 94.984554 275.872 
L 95.575626 297.614545 
L 96.166697 286.743273 
L 96.462233 292.178909 
L 96.757769 303.050182 
L 97.053304 292.178909 
L 97.34884 297.614545 
L 97.644376 292.178909 
L 97.939911 303.050182 
L 98.235447 297.614545 
L 98.530983 297.614545 
L 98.826519 313.921455 
L 99.122054 303.050182 
L 99.41759 303.050182 
L 99.713126 286.743273 
L 100.008662 297.614545 
L 100.304197 281.307636 
L 100.599733 297.614545 
L 100.895269 297.614545 
L 101.190804 313.921455 
L 101.48634 308.485818 
L 101.781876 286.743273 
L 102.077412 297.614545 
L 102.372947 281.307636 
L 102.668483 281.307636 
L 102.964019 292.178909 
L 103.259554 275.872 
L 103.55509 297.614545 
L 103.850626 297.614545 
L 104.441697 286.743273 
L 104.737233 297.614545 
L 105.328305 286.743273 
L 105.62384 286.743273 
L 105.919376 292.178909 
L 106.214912 303.050182 
L 106.510447 297.614545 
L 107.101519 308.485818 
L 107.397055 297.614545 
L 107.69259 319.357091 
L 107.988126 319.357091 
L 108.283662 308.485818 
L 108.579197 313.921455 
L 109.465805 313.921455 
L 109.76134 303.050182 
L 110.056876 313.921455 
L 110.352412 303.050182 
L 110.647948 297.614545 
L 110.943483 281.307636 
L 111.239019 286.743273 
L 111.534555 297.614545 
L 111.83009 303.050182 
L 112.125626 319.357091 
L 113.012233 319.357091 
L 113.307769 313.921455 
L 113.603305 297.614545 
L 113.89884 297.614545 
L 114.194376 275.872 
L 114.489912 297.614545 
L 114.785448 297.614545 
L 115.376519 308.485818 
L 116.263126 308.485818 
L 116.558662 303.050182 
L 116.854198 308.485818 
L 117.149733 308.485818 
L 117.445269 292.178909 
L 117.740805 286.743273 
L 118.036341 286.743273 
L 118.331876 281.307636 
L 118.627412 297.614545 
L 118.922948 303.050182 
L 119.218483 286.743273 
L 119.514019 297.614545 
L 119.809555 292.178909 
L 120.105091 270.436364 
L 120.400626 292.178909 
L 120.696162 303.050182 
L 120.991698 292.178909 
L 121.287234 308.485818 
L 121.582769 308.485818 
L 122.173841 281.307636 
L 122.469376 275.872 
L 122.764912 275.872 
L 123.060448 281.307636 
L 123.355984 297.614545 
L 123.651519 297.614545 
L 123.947055 313.921455 
L 124.242591 319.357091 
L 124.833662 308.485818 
L 125.129198 319.357091 
L 125.424734 319.357091 
L 125.720269 308.485818 
L 126.015805 303.050182 
L 126.311341 313.921455 
L 126.902412 313.921455 
L 127.197948 319.357091 
L 127.493484 319.357091 
L 127.789019 330.228364 
L 128.084555 324.792727 
L 128.675627 324.792727 
L 128.971162 313.921455 
L 129.857769 313.921455 
L 130.153305 308.485818 
L 130.448841 313.921455 
L 130.744377 308.485818 
L 131.039912 313.921455 
L 131.335448 313.921455 
L 131.630984 324.792727 
L 131.92652 324.792727 
L 132.222055 319.357091 
L 132.517591 319.357091 
L 133.108662 308.485818 
L 133.404198 308.485818 
L 133.699734 319.357091 
L 133.99527 324.792727 
L 134.290805 324.792727 
L 134.586341 330.228364 
L 134.881877 341.099636 
L 135.177412 341.099636 
L 135.472948 324.792727 
L 135.768484 319.357091 
L 136.06402 319.357091 
L 136.359555 330.228364 
L 136.655091 319.357091 
L 136.950627 330.228364 
L 137.246163 324.792727 
L 137.541698 330.228364 
L 138.13277 330.228364 
L 138.428305 335.664 
L 138.723841 324.792727 
L 139.019377 330.228364 
L 139.610448 330.228364 
L 140.20152 319.357091 
L 140.792591 330.228364 
L 141.088127 330.228364 
L 141.383663 335.664 
L 141.679198 335.664 
L 141.974734 319.357091 
L 142.565806 308.485818 
L 142.861341 313.921455 
L 143.156877 313.921455 
L 143.452413 308.485818 
L 143.747948 313.921455 
L 144.043484 324.792727 
L 144.33902 330.228364 
L 144.634556 341.099636 
L 144.930091 330.228364 
L 145.225627 335.664 
L 145.521163 335.664 
L 145.816698 330.228364 
L 146.112234 335.664 
L 146.998841 335.664 
L 147.294377 330.228364 
L 147.589913 335.664 
L 148.180984 324.792727 
L 148.772056 324.792727 
L 149.067591 330.228364 
L 149.363127 330.228364 
L 149.658663 324.792727 
L 149.954199 324.792727 
L 150.54527 313.921455 
L 150.840806 324.792727 
L 151.136342 324.792727 
L 151.431877 319.357091 
L 151.727413 324.792727 
L 152.022949 313.921455 
L 152.318484 319.357091 
L 152.61402 319.357091 
L 152.909556 330.228364 
L 153.205092 330.228364 
L 153.500627 324.792727 
L 153.796163 313.921455 
L 154.091699 319.357091 
L 154.387234 319.357091 
L 154.68277 324.792727 
L 154.978306 324.792727 
L 155.273842 313.921455 
L 155.864913 303.050182 
L 156.160449 308.485818 
L 156.75152 297.614545 
L 157.047056 303.050182 
L 157.342592 313.921455 
L 157.638127 319.357091 
L 157.933663 308.485818 
L 158.229199 319.357091 
L 158.524735 324.792727 
L 158.82027 324.792727 
L 159.115806 330.228364 
L 159.411342 324.792727 
L 159.706877 313.921455 
L 160.002413 324.792727 
L 160.297949 308.485818 
L 160.593485 308.485818 
L 160.88902 313.921455 
L 161.775628 313.921455 
L 162.366699 303.050182 
L 162.662235 313.921455 
L 163.548842 330.228364 
L 163.844378 330.228364 
L 164.139913 324.792727 
L 164.435449 324.792727 
L 164.730985 324.238071 
L 165.322056 313.144935 
L 165.617592 318.691503 
L 165.913128 318.691503 
L 166.208663 307.598367 
L 166.504199 318.691503 
L 166.799735 318.691503 
L 167.095271 324.238071 
L 167.686342 324.238071 
L 167.981878 313.144935 
L 168.277413 307.598367 
L 168.572949 318.691503 
L 168.868485 318.691503 
L 169.164021 313.144935 
L 169.459556 313.144935 
L 169.755092 318.691503 
L 170.050628 329.784638 
L 170.641699 329.784638 
L 170.937235 324.238071 
L 171.528306 324.238071 
L 171.823842 329.784638 
L 172.119378 329.784638 
L 172.414914 335.331206 
L 173.005985 335.331206 
L 173.301521 329.322424 
L 173.892592 329.322424 
L 174.188128 323.660303 
L 174.483664 323.660303 
L 174.779199 312.336061 
L 175.074735 312.336061 
L 175.370271 323.05795 
L 175.961342 333.852121 
L 176.256878 345.931313 
L 176.552414 345.931313 
L 176.847949 339.891717 
L 177.143485 339.891717 
L 178.030092 321.086612 
L 178.325628 333.440331 
L 178.916699 333.440331 
L 179.212235 339.329894 
L 179.507771 333.009387 
L 179.803307 339.028918 
L 180.098842 332.557922 
L 180.394378 332.557922 
L 180.985449 319.615931 
L 181.280985 318.826785 
L 181.576521 332.084435 
L 181.872057 338.381818 
L 182.463128 338.381818 
L 182.758664 331.587273 
L 183.0542 331.587273 
L 183.349735 345.176364 
L 184.236342 345.176364 
L 184.531878 331.587273 
L 184.827414 338.03338 
L 185.418485 324.095851 
L 185.714021 338.03338 
L 186.009557 324.095851 
L 186.305092 331.064615 
L 186.600628 324.095851 
L 186.896164 338.03338 
L 187.1917 337.666603 
L 187.487235 344.818756 
L 188.373843 344.818756 
L 188.669378 351.970909 
L 188.964914 337.666603 
L 189.555985 337.666603 
L 189.851521 344.625455 
L 190.147057 344.625455 
L 190.442593 337.28 
L 190.738128 337.28 
L 191.033664 344.625455 
L 191.3292 329.934545 
L 191.624735 337.28 
L 192.511343 337.28 
L 192.806878 344.625455 
L 193.102414 344.421414 
L 193.39795 344.421414 
L 193.989021 329.322424 
L 194.284557 313.144935 
L 194.875628 327.99016 
L 195.171164 327.263471 
L 195.4667 334.984545 
L 195.762236 326.491364 
L 196.057771 334.984545 
L 196.353307 326.491364 
L 196.648843 334.436598 
L 197.53545 308.135132 
L 197.830986 316.902287 
L 198.126521 316.902287 
L 198.422057 308.135132 
L 198.717593 308.135132 
L 199.013129 288.555152 
L 199.308664 306.673939 
L 199.899736 306.673939 
L 200.195271 297.614545 
L 200.490807 315.733333 
L 200.786343 315.733333 
L 201.081879 324.792727 
L 202.264021 324.792727 
L 202.559557 323.855549 
L 202.855093 314.483762 
L 203.150629 313.144935 
L 203.446164 322.851429 
L 203.7417 313.144935 
L 204.037236 311.706936 
L 204.628307 311.706936 
L 205.219379 291.574949 
L 205.81045 311.706936 
L 206.105986 301.640943 
L 206.401522 311.706936 
L 206.697057 301.640943 
L 207.583664 301.640943 
L 207.8792 320.611469 
L 208.174736 310.158322 
L 208.470272 310.158322 
L 208.765807 319.357091 
L 209.652415 319.357091 
L 209.94795 317.998182 
L 210.243486 317.998182 
L 210.539022 316.521107 
L 210.834557 316.521107 
L 211.130093 328.337708 
L 211.721165 326.086926 
L 212.0167 326.086926 
L 212.312236 300.202944 
L 212.607772 313.144935 
L 212.903307 297.614545 
L 213.198843 297.614545 
L 213.789915 323.362297 
L 214.08545 323.362297 
L 214.380986 337.666603 
L 214.972058 337.666603 
L 215.267593 323.362297 
L 215.563129 321.772929 
L 215.858665 321.772929 
L 216.1542 319.996578 
L 216.449736 319.996578 
L 216.745272 288.022246 
L 217.040808 319.996578 
L 217.336343 304.009412 
L 217.631879 335.983743 
L 218.22295 335.983743 
L 218.518486 317.998182 
L 218.814022 334.984545 
L 219.109558 334.984545 
L 219.405093 317.998182 
L 219.700629 334.984545 
L 219.996165 334.984545 
L 220.291701 333.852121 
L 221.473843 333.852121 
L 221.769379 351.970909 
L 226.497951 351.970909 
L 226.793486 331.064615 
L 227.680094 331.064615 
L 227.975629 310.158322 
L 228.271165 310.158322 
L 228.566701 289.252028 
L 228.862236 289.252028 
L 229.157772 268.345734 
L 229.453308 289.252028 
L 229.748844 289.252028 
L 230.044379 331.064615 
L 230.339915 310.158322 
L 230.930987 310.158322 
L 231.226522 289.252028 
L 231.522058 310.158322 
L 231.817594 310.158322 
L 232.113129 329.322424 
L 232.408665 329.322424 
L 232.704201 351.970909 
L 233.295272 351.970909 
L 233.590808 306.673939 
L 234.477415 306.673939 
L 234.772951 324.792727 
L 235.068487 351.970909 
L 243.047951 351.970909 
L 243.343487 313.144935 
L 246.298844 313.144935 
L 246.59438 351.970909 
L 259.597952 351.970909 
L 259.893487 284.025455 
L 260.189023 284.025455 
L 260.484559 216.08 
L 260.780094 351.970909 
L 261.962237 351.970909 
L 262.257773 261.37697 
L 262.848845 261.37697 
L 263.14438 351.970909 
L 268.759559 351.970909 
L 269.055095 261.37697 
L 269.35063 351.970909 
L 280.580988 351.970909 
L 280.876524 216.08 
L 281.172059 351.970909 
L 424.506885 351.970909 
L 424.80242 80.189091 
L 426.280099 80.189091 
L 426.575635 351.970909 
L 426.87117 80.189091 
L 427.166706 80.189091 
L 427.462242 351.970909 
L 434.259564 351.970909 
L 434.555099 80.189091 
L 435.146171 80.189091 
L 435.441706 351.970909 
L 439.874742 351.970909 
L 440.170278 80.189091 
L 441.056885 80.189091 
L 441.352421 351.970909 
L 449.03635 351.970909 
L 449.331885 80.189091 
L 457.31135 80.189091 
L 457.606886 351.970909 
L 465.58635 351.970909 
L 465.881886 80.189091 
L 466.177422 80.189091 
L 466.472957 351.970909 
L 470.905993 351.970909 
L 471.201529 80.189091 
L 471.7926 80.189091 
L 472.088136 351.970909 
L 485.978315 351.970909 
L 486.273851 80.189091 
L 486.569386 80.189091 
L 486.569386 80.189091 
" style="fill:none;stroke:#2ca02c;stroke-linecap:square;stroke-width:1.5;"/>
   </g>
   <g id="line2d_18">
    <path clip-path="url(#pfc4eddb0cd)" d="M 89.960447 351.970909 
L 90.255983 351.970909 
L 90.551518 346.535273 
L 90.847054 351.970909 
L 91.438126 330.228364 
L 91.733661 346.535273 
L 92.029197 335.664 
L 92.324733 319.357091 
L 92.620268 335.664 
L 92.915804 330.228364 
L 93.21134 341.099636 
L 93.506876 346.535273 
L 93.802411 335.664 
L 94.097947 341.099636 
L 94.393483 330.228364 
L 94.689019 335.664 
L 94.984554 330.228364 
L 95.28009 308.485818 
L 95.575626 308.485818 
L 95.871161 324.792727 
L 96.166697 319.357091 
L 96.757769 319.357091 
L 97.053304 330.228364 
L 97.644376 330.228364 
L 97.939911 324.792727 
L 98.235447 335.664 
L 98.530983 330.228364 
L 99.122054 330.228364 
L 99.41759 324.792727 
L 99.713126 330.228364 
L 100.008662 324.792727 
L 100.304197 330.228364 
L 100.599733 319.357091 
L 100.895269 330.228364 
L 101.190804 319.357091 
L 101.48634 330.228364 
L 101.781876 335.664 
L 102.077412 330.228364 
L 102.372947 335.664 
L 103.259554 335.664 
L 103.55509 313.921455 
L 103.850626 308.485818 
L 104.146162 319.357091 
L 104.737233 330.228364 
L 105.62384 330.228364 
L 106.214912 319.357091 
L 106.510447 330.228364 
L 107.397055 346.535273 
L 107.69259 335.664 
L 107.988126 335.664 
L 108.283662 341.099636 
L 108.579197 330.228364 
L 108.874733 341.099636 
L 109.465805 351.970909 
L 109.76134 351.970909 
L 110.056876 335.664 
L 110.352412 346.535273 
L 110.647948 341.099636 
L 110.943483 330.228364 
L 111.239019 324.792727 
L 111.83009 324.792727 
L 112.125626 319.357091 
L 112.716698 319.357091 
L 113.012233 313.921455 
L 113.307769 313.921455 
L 114.194376 330.228364 
L 114.489912 324.792727 
L 115.080983 335.664 
L 115.376519 330.228364 
L 116.854198 330.228364 
L 117.149733 335.664 
L 117.445269 335.664 
L 117.740805 330.228364 
L 118.036341 341.099636 
L 118.331876 346.535273 
L 118.627412 335.664 
L 118.922948 346.535273 
L 119.218483 346.535273 
L 119.514019 330.228364 
L 119.809555 341.099636 
L 120.400626 330.228364 
L 120.991698 341.099636 
L 121.287234 330.228364 
L 121.582769 341.099636 
L 121.878305 346.535273 
L 122.173841 346.535273 
L 122.764912 324.792727 
L 123.060448 335.664 
L 123.355984 319.357091 
L 123.651519 330.228364 
L 123.947055 319.357091 
L 124.242591 330.228364 
L 124.833662 341.099636 
L 125.129198 330.228364 
L 125.424734 335.664 
L 125.720269 335.664 
L 126.015805 346.535273 
L 126.311341 335.664 
L 126.606877 351.970909 
L 126.902412 341.099636 
L 127.493484 341.099636 
L 127.789019 330.228364 
L 128.084555 346.535273 
L 128.675627 335.664 
L 129.562234 335.664 
L 129.857769 330.228364 
L 130.448841 341.099636 
L 130.744377 335.664 
L 131.335448 346.535273 
L 131.630984 335.664 
L 132.222055 346.535273 
L 132.517591 341.099636 
L 132.813127 341.099636 
L 133.108662 335.664 
L 133.404198 346.535273 
L 133.699734 330.228364 
L 133.99527 324.792727 
L 134.290805 330.228364 
L 134.881877 330.228364 
L 135.472948 341.099636 
L 136.06402 341.099636 
L 136.359555 330.228364 
L 136.655091 335.664 
L 136.950627 330.228364 
L 137.246163 346.535273 
L 137.541698 335.664 
L 137.837234 335.664 
L 138.13277 330.228364 
L 138.428305 341.099636 
L 138.723841 341.099636 
L 139.019377 335.664 
L 139.314913 346.535273 
L 139.905984 346.535273 
L 140.20152 341.099636 
L 140.497055 341.099636 
L 140.792591 335.664 
L 141.088127 341.099636 
L 141.383663 335.664 
L 141.679198 346.535273 
L 141.974734 346.535273 
L 142.27027 341.099636 
L 142.565806 341.099636 
L 142.861341 335.664 
L 143.452413 335.664 
L 143.747948 341.099636 
L 144.33902 330.228364 
L 144.634556 319.357091 
L 144.930091 346.535273 
L 145.225627 341.099636 
L 146.703306 341.099636 
L 146.998841 346.535273 
L 147.294377 346.535273 
L 147.589913 341.099636 
L 147.885449 351.970909 
L 148.47652 341.099636 
L 148.772056 341.099636 
L 149.067591 335.664 
L 149.363127 341.099636 
L 149.658663 341.099636 
L 149.954199 346.535273 
L 150.54527 346.535273 
L 150.840806 341.099636 
L 151.727413 341.099636 
L 152.022949 346.535273 
L 152.61402 335.664 
L 153.500627 335.664 
L 153.796163 341.099636 
L 154.091699 335.664 
L 154.387234 341.099636 
L 154.68277 341.099636 
L 154.978306 346.535273 
L 156.75152 346.535273 
L 157.047056 341.099636 
L 157.638127 319.357091 
L 157.933663 330.228364 
L 158.229199 324.792727 
L 158.524735 324.792727 
L 158.82027 341.099636 
L 159.115806 341.099636 
L 159.411342 346.535273 
L 159.706877 346.535273 
L 160.002413 341.099636 
L 160.593485 341.099636 
L 160.88902 330.228364 
L 161.184556 346.535273 
L 161.480092 346.535273 
L 161.775628 351.970909 
L 162.366699 351.970909 
L 162.662235 346.535273 
L 162.95777 346.535273 
L 163.253306 341.099636 
L 164.139913 341.099636 
L 164.435449 346.535273 
L 164.730985 340.877774 
L 165.322056 340.877774 
L 165.617592 329.784638 
L 165.913128 335.331206 
L 166.208663 335.331206 
L 166.799735 324.238071 
L 167.095271 329.784638 
L 167.390806 329.784638 
L 167.686342 335.331206 
L 167.981878 335.331206 
L 168.572949 324.238071 
L 168.868485 335.331206 
L 169.755092 335.331206 
L 170.050628 324.238071 
L 170.346163 335.331206 
L 171.528306 335.331206 
L 171.823842 329.784638 
L 172.119378 329.784638 
L 172.710449 340.877774 
L 173.005985 340.877774 
L 173.597056 329.322424 
L 173.892592 334.984545 
L 174.188128 334.984545 
L 174.483664 340.646667 
L 174.779199 340.646667 
L 175.074735 334.984545 
L 175.370271 323.05795 
L 175.665806 334.623133 
L 175.961342 339.891717 
L 176.256878 327.812525 
L 176.552414 339.891717 
L 176.847949 345.931313 
L 177.143485 339.891717 
L 177.439021 339.891717 
L 177.734557 333.440331 
L 178.030092 339.61719 
L 178.325628 327.263471 
L 178.621164 345.79405 
L 178.916699 345.79405 
L 179.212235 339.329894 
L 179.507771 339.329894 
L 179.803307 339.028918 
L 180.985449 339.028918 
L 181.280985 338.713259 
L 181.576521 325.45561 
L 181.872057 338.381818 
L 182.167592 345.176364 
L 182.463128 338.381818 
L 182.758664 345.176364 
L 183.349735 331.587273 
L 183.645271 351.970909 
L 184.531878 351.970909 
L 184.827414 345.002145 
L 185.12295 351.970909 
L 185.418485 351.970909 
L 185.714021 338.03338 
L 186.009557 338.03338 
L 186.305092 345.002145 
L 186.600628 345.002145 
L 186.896164 338.03338 
L 187.1917 351.970909 
L 187.782771 337.666603 
L 188.373843 351.970909 
L 188.669378 344.818756 
L 188.964914 351.970909 
L 190.738128 351.970909 
L 191.033664 344.625455 
L 191.3292 344.625455 
L 191.624735 337.28 
L 192.215807 337.28 
L 192.511343 344.625455 
L 192.806878 337.28 
L 193.102414 336.871919 
L 193.39795 344.421414 
L 193.693486 344.421414 
L 193.989021 336.871919 
L 194.284557 344.205714 
L 194.580093 335.983743 
L 194.875628 335.983743 
L 195.171164 343.735096 
L 195.4667 343.477727 
L 195.762236 343.477727 
L 196.057771 334.984545 
L 196.353307 334.984545 
L 196.648843 334.436598 
L 197.53545 334.436598 
L 197.830986 325.669443 
L 198.126521 343.203754 
L 198.717593 343.203754 
L 199.013129 342.911515 
L 199.308664 324.792727 
L 199.6042 324.792727 
L 199.899736 342.911515 
L 200.195271 342.911515 
L 200.490807 315.733333 
L 200.786343 315.733333 
L 201.081879 306.673939 
L 201.377414 306.673939 
L 201.67295 324.792727 
L 201.968486 324.792727 
L 202.264021 333.852121 
L 202.559557 333.227335 
L 202.855093 333.227335 
L 203.150629 332.557922 
L 203.446164 322.851429 
L 203.7417 322.851429 
L 204.037236 331.838923 
L 204.923843 331.838923 
L 205.219379 321.772929 
L 206.105986 321.772929 
L 206.401522 311.706936 
L 206.697057 321.772929 
L 206.992593 311.706936 
L 207.583664 311.706936 
L 207.8792 289.252028 
L 208.174736 310.158322 
L 208.470272 320.611469 
L 208.765807 308.485818 
L 209.061343 319.357091 
L 209.652415 319.357091 
L 209.94795 317.998182 
L 210.243486 317.998182 
L 210.539022 316.521107 
L 210.834557 316.521107 
L 211.130093 304.704506 
L 212.0167 339.028918 
L 212.312236 339.028918 
L 212.607772 326.086926 
L 212.903307 351.970909 
L 213.198843 351.970909 
L 213.494379 337.666603 
L 214.08545 337.666603 
L 214.380986 323.362297 
L 214.972058 323.362297 
L 215.267593 337.666603 
L 215.563129 336.871919 
L 215.858665 336.871919 
L 216.1542 351.970909 
L 216.745272 351.970909 
L 217.040808 319.996578 
L 217.336343 335.983743 
L 217.631879 304.009412 
L 217.927415 319.996578 
L 218.22295 319.996578 
L 218.518486 317.998182 
L 218.814022 301.011818 
L 219.109558 317.998182 
L 219.405093 351.970909 
L 219.700629 334.984545 
L 219.996165 351.970909 
L 221.473843 351.970909 
L 221.769379 333.852121 
L 224.429201 333.852121 
L 224.724736 331.064615 
L 225.020272 331.064615 
L 225.315808 351.970909 
L 227.975629 351.970909 
L 228.271165 331.064615 
L 229.157772 331.064615 
L 229.453308 310.158322 
L 229.748844 331.064615 
L 230.044379 289.252028 
L 230.930987 289.252028 
L 231.226522 310.158322 
L 231.522058 289.252028 
L 231.817594 331.064615 
L 232.113129 306.673939 
L 232.408665 306.673939 
L 232.704201 284.025455 
L 233.886344 284.025455 
L 234.181879 329.322424 
L 234.477415 329.322424 
L 234.772951 324.792727 
L 235.068487 297.614545 
L 235.364022 291.574949 
L 236.546165 291.574949 
L 236.841701 284.025455 
L 237.137237 317.998182 
L 238.614915 317.998182 
L 238.910451 351.970909 
L 246.298844 351.970909 
L 246.59438 313.144935 
L 246.889916 313.144935 
L 247.185451 306.673939 
L 248.66313 306.673939 
L 248.958666 351.970909 
L 260.484559 351.970909 
L 260.780094 261.37697 
L 261.962237 261.37697 
L 262.257773 351.970909 
L 262.848845 351.970909 
L 263.14438 261.37697 
L 263.439916 351.970909 
L 269.055095 351.970909 
L 269.35063 261.37697 
L 269.646166 351.970909 
L 280.876524 351.970909 
L 281.172059 216.08 
L 281.467595 351.970909 
L 441.056885 351.970909 
L 441.352421 80.189091 
L 441.647957 351.970909 
L 486.569386 351.970909 
L 486.569386 351.970909 
" style="fill:none;stroke:#d62728;stroke-linecap:square;stroke-width:1.5;"/>
   </g>
   <g id="line2d_19">
    <path clip-path="url(#pfc4eddb0cd)" d="M 89.960447 351.970909 
L 90.551518 351.970909 
L 90.847054 346.535273 
L 91.14259 351.970909 
L 91.438126 351.970909 
L 91.733661 335.664 
L 92.029197 335.664 
L 92.324733 346.535273 
L 92.620268 335.664 
L 92.915804 341.099636 
L 93.21134 335.664 
L 93.506876 335.664 
L 93.802411 346.535273 
L 94.097947 341.099636 
L 94.393483 346.535273 
L 94.689019 335.664 
L 94.984554 335.664 
L 95.28009 346.535273 
L 95.575626 335.664 
L 95.871161 330.228364 
L 96.166697 330.228364 
L 96.462233 335.664 
L 96.757769 324.792727 
L 97.34884 335.664 
L 97.644376 346.535273 
L 97.939911 346.535273 
L 98.235447 330.228364 
L 98.530983 341.099636 
L 98.826519 346.535273 
L 99.122054 346.535273 
L 99.41759 351.970909 
L 99.713126 346.535273 
L 100.008662 346.535273 
L 100.599733 335.664 
L 100.895269 335.664 
L 101.190804 351.970909 
L 101.48634 341.099636 
L 101.781876 335.664 
L 102.077412 341.099636 
L 102.372947 335.664 
L 102.668483 341.099636 
L 102.964019 341.099636 
L 103.55509 351.970909 
L 103.850626 346.535273 
L 104.146162 330.228364 
L 104.441697 341.099636 
L 104.737233 330.228364 
L 105.032769 330.228364 
L 105.328305 335.664 
L 105.62384 324.792727 
L 105.919376 341.099636 
L 106.214912 335.664 
L 106.510447 335.664 
L 106.805983 346.535273 
L 107.101519 335.664 
L 107.397055 335.664 
L 107.69259 346.535273 
L 108.283662 346.535273 
L 108.579197 351.970909 
L 108.874733 346.535273 
L 109.170269 346.535273 
L 109.465805 341.099636 
L 109.76134 351.970909 
L 110.056876 351.970909 
L 110.352412 341.099636 
L 110.647948 346.535273 
L 110.943483 346.535273 
L 111.239019 341.099636 
L 111.534555 330.228364 
L 111.83009 335.664 
L 112.125626 330.228364 
L 112.421162 335.664 
L 112.716698 335.664 
L 113.012233 341.099636 
L 113.603305 341.099636 
L 114.194376 319.357091 
L 114.489912 324.792727 
L 114.785448 346.535273 
L 115.080983 335.664 
L 115.672055 346.535273 
L 115.967591 346.535273 
L 116.263126 341.099636 
L 116.558662 346.535273 
L 116.854198 346.535273 
L 117.149733 351.970909 
L 117.740805 351.970909 
L 118.036341 341.099636 
L 118.331876 351.970909 
L 118.627412 346.535273 
L 118.922948 346.535273 
L 119.218483 351.970909 
L 119.514019 351.970909 
L 119.809555 341.099636 
L 120.105091 351.970909 
L 120.400626 346.535273 
L 120.696162 330.228364 
L 120.991698 341.099636 
L 122.173841 341.099636 
L 122.469376 351.970909 
L 122.764912 351.970909 
L 123.060448 341.099636 
L 123.355984 351.970909 
L 123.651519 346.535273 
L 123.947055 346.535273 
L 124.242591 330.228364 
L 124.538126 341.099636 
L 124.833662 341.099636 
L 125.129198 346.535273 
L 125.424734 335.664 
L 125.720269 341.099636 
L 126.015805 330.228364 
L 127.493484 330.228364 
L 127.789019 335.664 
L 128.084555 324.792727 
L 128.971162 341.099636 
L 129.562234 341.099636 
L 129.857769 346.535273 
L 130.153305 341.099636 
L 130.448841 330.228364 
L 131.039912 341.099636 
L 131.92652 341.099636 
L 132.222055 335.664 
L 132.813127 335.664 
L 133.108662 346.535273 
L 133.404198 335.664 
L 133.699734 341.099636 
L 133.99527 341.099636 
L 134.290805 330.228364 
L 134.586341 341.099636 
L 134.881877 335.664 
L 135.768484 335.664 
L 136.06402 341.099636 
L 136.359555 341.099636 
L 136.655091 335.664 
L 136.950627 335.664 
L 137.246163 319.357091 
L 137.541698 324.792727 
L 137.837234 324.792727 
L 138.13277 341.099636 
L 138.428305 324.792727 
L 139.019377 335.664 
L 139.314913 324.792727 
L 139.610448 330.228364 
L 139.905984 324.792727 
L 140.20152 324.792727 
L 140.497055 335.664 
L 140.792591 335.664 
L 141.383663 346.535273 
L 141.679198 341.099636 
L 142.27027 351.970909 
L 142.565806 351.970909 
L 142.861341 346.535273 
L 143.156877 346.535273 
L 143.747948 335.664 
L 144.043484 346.535273 
L 144.634556 346.535273 
L 144.930091 319.357091 
L 145.225627 324.792727 
L 145.521163 335.664 
L 145.816698 341.099636 
L 146.703306 341.099636 
L 146.998841 346.535273 
L 147.294377 346.535273 
L 147.885449 335.664 
L 148.180984 346.535273 
L 148.47652 351.970909 
L 148.772056 346.535273 
L 149.067591 351.970909 
L 149.363127 346.535273 
L 151.431877 346.535273 
L 151.727413 341.099636 
L 152.022949 346.535273 
L 152.318484 346.535273 
L 152.61402 341.099636 
L 152.909556 341.099636 
L 153.205092 346.535273 
L 153.500627 346.535273 
L 153.796163 341.099636 
L 154.091699 346.535273 
L 154.387234 335.664 
L 154.68277 341.099636 
L 154.978306 341.099636 
L 155.569377 351.970909 
L 157.342592 351.970909 
L 157.933663 341.099636 
L 158.229199 341.099636 
L 158.82027 330.228364 
L 159.115806 330.228364 
L 159.411342 324.792727 
L 159.706877 330.228364 
L 160.002413 341.099636 
L 160.297949 341.099636 
L 160.593485 330.228364 
L 160.88902 341.099636 
L 161.184556 324.792727 
L 161.480092 324.792727 
L 161.775628 330.228364 
L 162.662235 330.228364 
L 162.95777 335.664 
L 163.253306 351.970909 
L 163.548842 346.535273 
L 163.844378 346.535273 
L 164.139913 351.970909 
L 164.435449 346.535273 
L 165.02652 346.424341 
L 165.322056 351.970909 
L 166.799735 351.970909 
L 167.095271 340.877774 
L 167.390806 346.424341 
L 167.686342 340.877774 
L 167.981878 340.877774 
L 168.277413 346.424341 
L 168.868485 335.331206 
L 169.164021 340.877774 
L 169.459556 340.877774 
L 169.755092 351.970909 
L 170.050628 351.970909 
L 170.346163 340.877774 
L 170.641699 346.424341 
L 171.232771 346.424341 
L 171.528306 351.970909 
L 171.823842 351.970909 
L 172.119378 346.424341 
L 172.414914 335.331206 
L 172.710449 346.424341 
L 173.005985 346.424341 
L 173.301521 351.970909 
L 173.597056 351.970909 
L 173.892592 340.646667 
L 174.188128 340.646667 
L 174.483664 334.984545 
L 175.074735 334.984545 
L 175.370271 334.623133 
L 175.665806 328.840542 
L 176.256878 339.891717 
L 176.552414 333.852121 
L 176.847949 333.852121 
L 177.143485 351.970909 
L 177.439021 345.931313 
L 177.734557 345.79405 
L 178.030092 345.79405 
L 178.325628 351.970909 
L 178.621164 333.440331 
L 178.916699 339.61719 
L 179.212235 351.970909 
L 179.507771 351.970909 
L 179.803307 345.499913 
L 180.394378 345.499913 
L 180.689914 351.970909 
L 181.872057 351.970909 
L 182.167592 345.176364 
L 183.349735 345.176364 
L 183.645271 324.792727 
L 183.940807 345.176364 
L 184.236342 345.176364 
L 184.531878 351.970909 
L 184.827414 351.970909 
L 185.12295 345.002145 
L 185.418485 345.002145 
L 185.714021 351.970909 
L 186.009557 351.970909 
L 186.305092 345.002145 
L 186.600628 351.970909 
L 186.896164 345.002145 
L 187.1917 330.51445 
L 187.487235 344.818756 
L 187.782771 344.818756 
L 188.373843 330.51445 
L 188.669378 344.818756 
L 189.555985 344.818756 
L 189.851521 344.625455 
L 190.147057 344.625455 
L 190.442593 351.970909 
L 192.215807 351.970909 
L 192.511343 344.625455 
L 192.806878 351.970909 
L 193.102414 351.970909 
L 193.39795 344.421414 
L 193.989021 344.421414 
L 194.284557 344.205714 
L 194.580093 351.970909 
L 194.875628 343.977326 
L 195.171164 351.970909 
L 197.830986 351.970909 
L 198.126521 334.436598 
L 198.422057 334.436598 
L 198.717593 343.203754 
L 199.013129 342.911515 
L 199.6042 342.911515 
L 199.899736 324.792727 
L 200.490807 342.911515 
L 201.377414 342.911515 
L 201.67295 324.792727 
L 201.968486 324.792727 
L 202.264021 333.852121 
L 202.559557 333.227335 
L 203.150629 351.970909 
L 203.7417 351.970909 
L 204.332772 331.838923 
L 204.923843 331.838923 
L 205.219379 341.904916 
L 205.81045 321.772929 
L 206.401522 341.904916 
L 206.697057 331.838923 
L 206.992593 331.838923 
L 207.288129 341.904916 
L 207.583664 331.838923 
L 207.8792 331.064615 
L 208.174736 331.064615 
L 208.470272 320.611469 
L 208.765807 330.228364 
L 209.061343 319.357091 
L 209.356879 319.357091 
L 209.94795 340.646667 
L 210.243486 340.646667 
L 210.539022 340.154308 
L 211.130093 340.154308 
L 211.721165 313.144935 
L 212.312236 313.144935 
L 212.903307 284.025455 
L 213.494379 309.05799 
L 213.789915 294.753684 
L 214.08545 309.05799 
L 214.380986 309.05799 
L 214.972058 337.666603 
L 215.267593 323.362297 
L 215.563129 321.772929 
L 215.858665 321.772929 
L 216.1542 335.983743 
L 217.040808 335.983743 
L 217.336343 319.996578 
L 217.631879 319.996578 
L 217.927415 304.009412 
L 218.22295 319.996578 
L 218.518486 317.998182 
L 218.814022 317.998182 
L 219.109558 301.011818 
L 219.405093 267.039091 
L 219.700629 317.998182 
L 219.996165 301.011818 
L 220.291701 315.733333 
L 220.587236 315.733333 
L 220.882772 333.852121 
L 224.429201 333.852121 
L 224.724736 331.064615 
L 230.044379 331.064615 
L 230.339915 351.970909 
L 230.930987 351.970909 
L 231.226522 331.064615 
L 231.522058 351.970909 
L 231.817594 331.064615 
L 232.113129 329.322424 
L 233.886344 329.322424 
L 234.181879 306.673939 
L 234.772951 351.970909 
L 236.841701 351.970909 
L 237.137237 317.998182 
L 238.614915 317.998182 
L 238.910451 284.025455 
L 239.205987 284.025455 
L 239.501522 317.998182 
L 241.865808 317.998182 
L 242.161344 313.144935 
L 242.752415 313.144935 
L 243.047951 351.970909 
L 248.66313 351.970909 
L 248.958666 306.673939 
L 249.254201 306.673939 
L 249.549737 351.970909 
L 261.962237 351.970909 
L 262.257773 261.37697 
L 263.14438 261.37697 
L 263.439916 170.78303 
L 263.735452 261.37697 
L 266.690809 261.37697 
L 266.986345 351.970909 
L 269.35063 351.970909 
L 269.646166 261.37697 
L 270.237238 261.37697 
L 270.532773 351.970909 
L 281.172059 351.970909 
L 281.467595 216.08 
L 281.763131 351.970909 
L 486.569386 351.970909 
L 486.569386 351.970909 
" style="fill:none;stroke:#9467bd;stroke-linecap:square;stroke-width:1.5;"/>
   </g>
   <g id="line2d_20">
    <path clip-path="url(#pfc4eddb0cd)" d="M 89.960447 351.970909 
L 91.733661 351.970909 
L 92.029197 346.535273 
L 92.324733 335.664 
L 92.620268 335.664 
L 92.915804 324.792727 
L 93.21134 324.792727 
L 93.506876 319.357091 
L 93.802411 308.485818 
L 94.393483 297.614545 
L 94.689019 308.485818 
L 95.28009 297.614545 
L 95.575626 303.050182 
L 95.871161 292.178909 
L 96.166697 292.178909 
L 96.462233 281.307636 
L 96.757769 286.743273 
L 97.053304 265.000727 
L 97.34884 259.565091 
L 97.644376 265.000727 
L 97.939911 265.000727 
L 98.235447 275.872 
L 98.826519 265.000727 
L 99.41759 265.000727 
L 100.008662 275.872 
L 100.304197 275.872 
L 100.599733 281.307636 
L 100.895269 275.872 
L 101.190804 265.000727 
L 101.48634 275.872 
L 102.372947 275.872 
L 102.668483 270.436364 
L 104.146162 270.436364 
L 104.441697 254.129455 
L 105.032769 265.000727 
L 105.328305 254.129455 
L 105.62384 254.129455 
L 105.919376 232.386909 
L 106.510447 232.386909 
L 106.805983 221.515636 
L 107.101519 221.515636 
L 107.397055 216.08 
L 107.69259 216.08 
L 107.988126 221.515636 
L 108.283662 221.515636 
L 108.579197 216.08 
L 108.874733 221.515636 
L 109.170269 221.515636 
L 109.465805 243.258182 
L 109.76134 243.258182 
L 110.352412 265.000727 
L 110.647948 259.565091 
L 111.239019 259.565091 
L 111.534555 270.436364 
L 112.125626 259.565091 
L 112.421162 248.693818 
L 112.716698 248.693818 
L 113.307769 237.822545 
L 113.603305 237.822545 
L 113.89884 243.258182 
L 114.194376 243.258182 
L 114.489912 237.822545 
L 114.785448 216.08 
L 115.080983 221.515636 
L 115.376519 221.515636 
L 115.672055 216.08 
L 115.967591 216.08 
L 116.263126 232.386909 
L 116.854198 232.386909 
L 117.149733 237.822545 
L 117.445269 248.693818 
L 117.740805 254.129455 
L 118.036341 265.000727 
L 118.331876 254.129455 
L 118.627412 254.129455 
L 118.922948 248.693818 
L 119.514019 248.693818 
L 119.809555 254.129455 
L 120.105091 248.693818 
L 120.696162 248.693818 
L 120.991698 232.386909 
L 121.287234 226.951273 
L 121.582769 226.951273 
L 121.878305 232.386909 
L 122.173841 232.386909 
L 122.469376 221.515636 
L 122.764912 226.951273 
L 123.060448 226.951273 
L 123.355984 216.08 
L 124.242591 216.08 
L 124.538126 199.773091 
L 124.833662 199.773091 
L 125.129198 194.337455 
L 126.311341 194.337455 
L 126.606877 188.901818 
L 126.902412 194.337455 
L 127.197948 194.337455 
L 127.789019 183.466182 
L 128.084555 188.901818 
L 128.380091 183.466182 
L 128.675627 183.466182 
L 128.971162 178.030545 
L 129.266698 183.466182 
L 129.857769 183.466182 
L 130.153305 194.337455 
L 130.448841 199.773091 
L 131.039912 188.901818 
L 131.335448 188.901818 
L 131.630984 194.337455 
L 131.92652 194.337455 
L 132.222055 199.773091 
L 132.517591 210.644364 
L 132.813127 210.644364 
L 133.108662 199.773091 
L 133.404198 216.08 
L 133.699734 210.644364 
L 133.99527 216.08 
L 134.290805 216.08 
L 134.586341 205.208727 
L 134.881877 199.773091 
L 135.177412 199.773091 
L 135.472948 194.337455 
L 136.359555 194.337455 
L 136.655091 199.773091 
L 136.950627 199.773091 
L 137.246163 210.644364 
L 137.837234 221.515636 
L 138.13277 210.644364 
L 138.428305 221.515636 
L 138.723841 210.644364 
L 139.019377 210.644364 
L 139.314913 216.08 
L 139.610448 216.08 
L 139.905984 221.515636 
L 140.20152 221.515636 
L 140.497055 210.644364 
L 140.792591 221.515636 
L 141.088127 216.08 
L 141.383663 216.08 
L 142.27027 199.773091 
L 142.861341 210.644364 
L 143.156877 205.208727 
L 143.452413 205.208727 
L 143.747948 199.773091 
L 144.043484 183.466182 
L 144.33902 188.901818 
L 144.634556 188.901818 
L 144.930091 199.773091 
L 145.225627 194.337455 
L 145.521163 194.337455 
L 145.816698 210.644364 
L 146.112234 205.208727 
L 146.703306 216.08 
L 146.998841 205.208727 
L 147.589913 216.08 
L 147.885449 210.644364 
L 148.180984 199.773091 
L 148.47652 194.337455 
L 148.772056 199.773091 
L 149.067591 194.337455 
L 149.363127 194.337455 
L 149.658663 205.208727 
L 149.954199 205.208727 
L 151.136342 226.951273 
L 151.431877 237.822545 
L 151.727413 237.822545 
L 152.022949 232.386909 
L 152.61402 232.386909 
L 153.205092 221.515636 
L 153.500627 226.951273 
L 153.796163 226.951273 
L 154.091699 221.515636 
L 154.978306 221.515636 
L 155.569377 210.644364 
L 155.864913 210.644364 
L 156.160449 216.08 
L 156.75152 216.08 
L 157.342592 237.822545 
L 157.638127 243.258182 
L 157.933663 237.822545 
L 158.524735 237.822545 
L 158.82027 232.386909 
L 159.115806 237.822545 
L 159.411342 237.822545 
L 159.706877 232.386909 
L 160.002413 216.08 
L 160.297949 221.515636 
L 160.593485 221.515636 
L 160.88902 216.08 
L 161.184556 216.08 
L 161.480092 210.644364 
L 162.366699 210.644364 
L 162.662235 216.08 
L 162.95777 210.644364 
L 163.253306 194.337455 
L 163.548842 199.773091 
L 163.844378 199.773091 
L 164.139913 194.337455 
L 164.435449 194.337455 
L 164.730985 196.667013 
L 165.02652 196.667013 
L 165.322056 191.120445 
L 165.617592 196.667013 
L 165.913128 196.667013 
L 166.208663 202.213581 
L 167.095271 202.213581 
L 167.390806 196.667013 
L 167.981878 196.667013 
L 168.277413 191.120445 
L 168.572949 196.667013 
L 168.868485 185.573878 
L 169.164021 180.02731 
L 169.459556 180.02731 
L 169.755092 168.934174 
L 170.050628 168.934174 
L 170.346163 185.573878 
L 170.641699 185.573878 
L 170.937235 191.120445 
L 171.232771 191.120445 
L 171.528306 196.667013 
L 171.823842 207.760148 
L 172.414914 207.760148 
L 172.710449 191.120445 
L 173.005985 191.120445 
L 173.301521 187.769394 
L 173.597056 187.769394 
L 174.188128 199.093636 
L 174.779199 221.742121 
L 175.074735 221.742121 
L 175.370271 218.971296 
L 175.665806 218.971296 
L 176.256878 207.020606 
L 176.552414 207.020606 
L 176.847949 200.98101 
L 177.143485 182.862222 
L 177.439021 182.862222 
L 177.734557 185.195702 
L 178.030092 191.372562 
L 178.325628 185.195702 
L 178.621164 191.372562 
L 178.916699 185.195702 
L 179.212235 168.676195 
L 179.507771 168.676195 
L 179.803307 170.78303 
L 180.098842 170.78303 
L 180.394378 177.254026 
L 180.689914 170.78303 
L 180.985449 170.78303 
L 181.280985 179.621463 
L 181.576521 179.621463 
L 181.872057 175.312727 
L 182.167592 182.107273 
L 182.463128 182.107273 
L 182.758664 175.312727 
L 183.0542 182.107273 
L 183.645271 182.107273 
L 183.940807 168.518182 
L 184.236342 168.518182 
L 184.531878 182.107273 
L 184.827414 177.751795 
L 185.12295 191.689324 
L 185.418485 198.658089 
L 185.714021 191.689324 
L 186.305092 191.689324 
L 186.600628 184.720559 
L 186.896164 184.720559 
L 187.1917 187.471388 
L 187.487235 173.167081 
L 188.373843 194.623541 
L 188.669378 180.319234 
L 188.964914 173.167081 
L 189.555985 173.167081 
L 189.851521 168.334545 
L 190.147057 175.68 
L 190.442593 168.334545 
L 190.738128 175.68 
L 191.920271 175.68 
L 192.511343 190.370909 
L 192.806878 183.025455 
L 193.102414 185.88202 
L 193.39795 193.431515 
L 193.989021 193.431515 
L 194.580093 184.105668 
L 194.875628 192.099251 
L 195.171164 187.254656 
L 195.4667 190.600455 
L 196.353307 190.600455 
L 196.648843 194.162111 
L 196.944378 202.929267 
L 197.53545 202.929267 
L 197.830986 211.696422 
L 198.126521 211.696422 
L 198.422057 220.463578 
L 198.717593 211.696422 
L 199.013129 216.08 
L 199.308664 216.08 
L 199.6042 225.139394 
L 199.899736 225.139394 
L 200.490807 207.020606 
L 200.786343 207.020606 
L 201.081879 225.139394 
L 201.377414 234.198788 
L 201.968486 234.198788 
L 202.264021 216.08 
L 202.559557 230.13768 
L 202.855093 220.765893 
L 203.150629 216.08 
L 203.446164 225.786494 
L 203.7417 225.786494 
L 204.037236 231.17899 
L 204.628307 231.17899 
L 204.923843 241.244983 
L 205.219379 231.17899 
L 206.105986 231.17899 
L 206.401522 221.112997 
L 206.992593 221.112997 
L 207.288129 211.047003 
L 207.583664 211.047003 
L 207.8792 216.08 
L 208.174736 205.626853 
L 208.470272 216.08 
L 208.765807 221.515636 
L 209.652415 221.515636 
L 209.94795 216.08 
L 210.243486 227.404242 
L 210.834557 257.438103 
L 211.130093 257.438103 
L 211.425629 253.141157 
L 211.721165 261.37697 
L 212.607772 261.37697 
L 212.903307 256.847273 
L 213.198843 243.258182 
L 213.494379 237.536459 
L 213.789915 266.145072 
L 214.08545 251.840766 
L 214.380986 251.840766 
L 214.972058 223.232153 
L 215.267593 237.536459 
L 215.563129 231.17899 
L 215.858665 231.17899 
L 216.1542 224.073583 
L 218.22295 224.073583 
L 218.518486 233.066364 
L 218.814022 233.066364 
L 219.109558 250.052727 
L 219.405093 250.052727 
L 219.700629 199.093636 
L 219.996165 199.093636 
L 220.291701 188.901818 
L 220.587236 188.901818 
L 220.882772 170.78303 
L 221.178308 188.901818 
L 224.429201 188.901818 
L 224.724736 205.626853 
L 226.202415 205.626853 
L 226.793486 247.439441 
L 227.384558 247.439441 
L 227.680094 268.345734 
L 229.453308 268.345734 
L 229.748844 247.439441 
L 230.044379 247.439441 
L 230.339915 226.533147 
L 230.635451 226.533147 
L 230.930987 247.439441 
L 231.226522 247.439441 
L 231.522058 226.533147 
L 231.817594 226.533147 
L 232.113129 238.728485 
L 233.886344 238.728485 
L 234.477415 193.431515 
L 234.772951 161.723636 
L 235.068487 161.723636 
L 235.364022 170.78303 
L 236.546165 170.78303 
L 236.841701 182.107273 
L 238.614915 182.107273 
L 238.910451 216.08 
L 239.205987 216.08 
L 239.501522 182.107273 
L 241.865808 182.107273 
L 242.161344 196.667013 
L 242.752415 196.667013 
L 243.047951 157.841039 
L 246.889916 157.841039 
L 247.185451 170.78303 
L 249.254201 170.78303 
L 249.549737 125.486061 
L 249.845273 125.486061 
L 250.140808 134.545455 
L 250.436344 188.901818 
L 252.505094 188.901818 
L 252.80063 243.258182 
L 253.391701 243.258182 
L 253.687237 284.025455 
L 259.00688 284.025455 
L 259.302416 351.970909 
L 263.439916 351.970909 
L 263.735452 261.37697 
L 266.690809 261.37697 
L 266.986345 170.78303 
L 267.28188 170.78303 
L 267.577416 261.37697 
L 270.237238 261.37697 
L 270.532773 170.78303 
L 272.601523 170.78303 
L 272.897059 216.08 
L 279.694381 216.08 
L 279.989916 351.970909 
L 281.467595 351.970909 
L 281.763131 216.08 
L 284.127417 216.08 
L 284.422952 351.970909 
L 486.569386 351.970909 
L 486.569386 351.970909 
" style="fill:none;stroke:#8c564b;stroke-linecap:square;stroke-width:1.5;"/>
   </g>
   <g id="patch_3">
    <path d="M 70.13 365.56 
L 70.13 66.6 
" style="fill:none;stroke:#000000;stroke-linecap:square;stroke-linejoin:miter;stroke-width:0.8;"/>
   </g>
   <g id="patch_4">
    <path d="M 506.399833 365.56 
L 506.399833 66.6 
" style="fill:none;stroke:#000000;stroke-linecap:square;stroke-linejoin:miter;stroke-width:0.8;"/>
   </g>
   <g id="patch_5">
    <path d="M 70.13 365.56 
L 506.399833 365.56 
" style="fill:none;stroke:#000000;stroke-linecap:square;stroke-linejoin:miter;stroke-width:0.8;"/>
   </g>
   <g id="patch_6">
    <path d="M 70.13 66.6 
L 506.399833 66.6 
" style="fill:none;stroke:#000000;stroke-linecap:square;stroke-linejoin:miter;stroke-width:0.8;"/>
   </g>
   <g id="legend_1">
    <g id="patch_7">
     <path d="M 80.63 59.1 
L 495.899833 59.1 
Q 498.899833 59.1 498.899833 56.1 
L 498.899833 13.565625 
Q 498.899833 10.565625 495.899833 10.565625 
L 80.63 10.565625 
Q 77.63 10.565625 77.63 13.565625 
L 77.63 56.1 
Q 77.63 59.1 80.63 59.1 
z
" style="fill:#ffffff;opacity:0.8;stroke:#cccccc;stroke-linejoin:miter;"/>
    </g>
    <g id="line2d_21">
     <path d="M 83.63 22.713281 
L 113.63 22.713281 
" style="fill:none;stroke:#1f77b4;stroke-linecap:square;stroke-width:1.5;"/>
    </g>
    <g id="line2d_22"/>
    <g id="text_17">
     <!-- CKC #0 -->
     <g transform="translate(125.63 27.963281)scale(0.15 -0.15)">
      <use xlink:href="#DejaVuSans-67"/>
      <use x="69.824219" xlink:href="#DejaVuSans-75"/>
      <use x="135.322266" xlink:href="#DejaVuSans-67"/>
      <use x="205.146484" xlink:href="#DejaVuSans-32"/>
      <use x="236.933594" xlink:href="#DejaVuSans-35"/>
      <use x="320.722656" xlink:href="#DejaVuSans-48"/>
     </g>
    </g>
    <g id="line2d_23">
     <path d="M 83.63 44.730469 
L 113.63 44.730469 
" style="fill:none;stroke:#ff7f0e;stroke-linecap:square;stroke-width:1.5;"/>
    </g>
    <g id="line2d_24"/>
    <g id="text_18">
     <!-- CKC #1 -->
     <g transform="translate(125.63 49.980469)scale(0.15 -0.15)">
      <use xlink:href="#DejaVuSans-67"/>
      <use x="69.824219" xlink:href="#DejaVuSans-75"/>
      <use x="135.322266" xlink:href="#DejaVuSans-67"/>
      <use x="205.146484" xlink:href="#DejaVuSans-32"/>
      <use x="236.933594" xlink:href="#DejaVuSans-35"/>
      <use x="320.722656" xlink:href="#DejaVuSans-49"/>
     </g>
    </g>
    <g id="line2d_25">
     <path d="M 186.835309 22.713281 
L 216.835309 22.713281 
" style="fill:none;stroke:#2ca02c;stroke-linecap:square;stroke-width:1.5;"/>
    </g>
    <g id="line2d_26"/>
    <g id="text_19">
     <!-- CKC #2 -->
     <g transform="translate(228.835309 27.963281)scale(0.15 -0.15)">
      <use xlink:href="#DejaVuSans-67"/>
      <use x="69.824219" xlink:href="#DejaVuSans-75"/>
      <use x="135.322266" xlink:href="#DejaVuSans-67"/>
      <use x="205.146484" xlink:href="#DejaVuSans-32"/>
      <use x="236.933594" xlink:href="#DejaVuSans-35"/>
      <use x="320.722656" xlink:href="#DejaVuSans-50"/>
     </g>
    </g>
    <g id="line2d_27">
     <path d="M 186.835309 44.730469 
L 216.835309 44.730469 
" style="fill:none;stroke:#d62728;stroke-linecap:square;stroke-width:1.5;"/>
    </g>
    <g id="line2d_28"/>
    <g id="text_20">
     <!-- CKC #3 -->
     <defs>
      <path d="M 40.578125 39.3125 
Q 47.65625 37.796875 51.625 33 
Q 55.609375 28.21875 55.609375 21.1875 
Q 55.609375 10.40625 48.1875 4.484375 
Q 40.765625 -1.421875 27.09375 -1.421875 
Q 22.515625 -1.421875 17.65625 -0.515625 
Q 12.796875 0.390625 7.625 2.203125 
L 7.625 11.71875 
Q 11.71875 9.328125 16.59375 8.109375 
Q 21.484375 6.890625 26.8125 6.890625 
Q 36.078125 6.890625 40.9375 10.546875 
Q 45.796875 14.203125 45.796875 21.1875 
Q 45.796875 27.640625 41.28125 31.265625 
Q 36.765625 34.90625 28.71875 34.90625 
L 20.21875 34.90625 
L 20.21875 43.015625 
L 29.109375 43.015625 
Q 36.375 43.015625 40.234375 45.921875 
Q 44.09375 48.828125 44.09375 54.296875 
Q 44.09375 59.90625 40.109375 62.90625 
Q 36.140625 65.921875 28.71875 65.921875 
Q 24.65625 65.921875 20.015625 65.03125 
Q 15.375 64.15625 9.8125 62.3125 
L 9.8125 71.09375 
Q 15.4375 72.65625 20.34375 73.4375 
Q 25.25 74.21875 29.59375 74.21875 
Q 40.828125 74.21875 47.359375 69.109375 
Q 53.90625 64.015625 53.90625 55.328125 
Q 53.90625 49.265625 50.4375 45.09375 
Q 46.96875 40.921875 40.578125 39.3125 
z
" id="DejaVuSans-51"/>
     </defs>
     <g transform="translate(228.835309 49.980469)scale(0.15 -0.15)">
      <use xlink:href="#DejaVuSans-67"/>
      <use x="69.824219" xlink:href="#DejaVuSans-75"/>
      <use x="135.322266" xlink:href="#DejaVuSans-67"/>
      <use x="205.146484" xlink:href="#DejaVuSans-32"/>
      <use x="236.933594" xlink:href="#DejaVuSans-35"/>
      <use x="320.722656" xlink:href="#DejaVuSans-51"/>
     </g>
    </g>
    <g id="line2d_29">
     <path d="M 290.040618 22.713281 
L 320.040618 22.713281 
" style="fill:none;stroke:#9467bd;stroke-linecap:square;stroke-width:1.5;"/>
    </g>
    <g id="line2d_30"/>
    <g id="text_21">
     <!-- CKC #4 -->
     <g transform="translate(332.040618 27.963281)scale(0.15 -0.15)">
      <use xlink:href="#DejaVuSans-67"/>
      <use x="69.824219" xlink:href="#DejaVuSans-75"/>
      <use x="135.322266" xlink:href="#DejaVuSans-67"/>
      <use x="205.146484" xlink:href="#DejaVuSans-32"/>
      <use x="236.933594" xlink:href="#DejaVuSans-35"/>
      <use x="320.722656" xlink:href="#DejaVuSans-52"/>
     </g>
    </g>
    <g id="line2d_31">
     <path d="M 393.245927 22.713281 
L 423.245927 22.713281 
" style="fill:none;stroke:#8c564b;stroke-linecap:square;stroke-width:1.5;"/>
    </g>
    <g id="line2d_32"/>
    <g id="text_22">
     <!-- CKC #5 -->
     <defs>
      <path d="M 10.796875 72.90625 
L 49.515625 72.90625 
L 49.515625 64.59375 
L 19.828125 64.59375 
L 19.828125 46.734375 
Q 21.96875 47.46875 24.109375 47.828125 
Q 26.265625 48.1875 28.421875 48.1875 
Q 40.625 48.1875 47.75 41.5 
Q 54.890625 34.8125 54.890625 23.390625 
Q 54.890625 11.625 47.5625 5.09375 
Q 40.234375 -1.421875 26.90625 -1.421875 
Q 22.3125 -1.421875 17.546875 -0.640625 
Q 12.796875 0.140625 7.71875 1.703125 
L 7.71875 11.625 
Q 12.109375 9.234375 16.796875 8.0625 
Q 21.484375 6.890625 26.703125 6.890625 
Q 35.15625 6.890625 40.078125 11.328125 
Q 45.015625 15.765625 45.015625 23.390625 
Q 45.015625 31 40.078125 35.4375 
Q 35.15625 39.890625 26.703125 39.890625 
Q 22.75 39.890625 18.8125 39.015625 
Q 14.890625 38.140625 10.796875 36.28125 
z
" id="DejaVuSans-53"/>
     </defs>
     <g transform="translate(435.245927 27.963281)scale(0.15 -0.15)">
      <use xlink:href="#DejaVuSans-67"/>
      <use x="69.824219" xlink:href="#DejaVuSans-75"/>
      <use x="135.322266" xlink:href="#DejaVuSans-67"/>
      <use x="205.146484" xlink:href="#DejaVuSans-32"/>
      <use x="236.933594" xlink:href="#DejaVuSans-35"/>
      <use x="320.722656" xlink:href="#DejaVuSans-53"/>
     </g>
    </g>
   </g>
  </g>
 </g>
 <defs>
  <clipPath id="pfc4eddb0cd">
   <rect height="298.96" width="436.269833" x="70.13" y="66.6"/>
  </clipPath>
 </defs>
</svg>
