<?xml version="1.0" encoding="utf-8" standalone="no"?>
<!DOCTYPE svg PUBLIC "-//W3C//DTD SVG 1.1//EN"
  "http://www.w3.org/Graphics/SVG/1.1/DTD/svg11.dtd">
<!-- Created with matplotlib (https://matplotlib.org/) -->
<svg height="432pt" version="1.1" viewBox="0 0 540 432" width="540pt" xmlns="http://www.w3.org/2000/svg" xmlns:xlink="http://www.w3.org/1999/xlink">
 <defs>
  <style type="text/css">
*{stroke-linecap:butt;stroke-linejoin:round;}
  </style>
 </defs>
 <g id="figure_1">
  <g id="patch_1">
   <path d="M 0 432 
L 540 432 
L 540 0 
L 0 0 
z
" style="fill:#ffffff;"/>
  </g>
  <g id="axes_1">
   <g id="patch_2">
    <path d="M 58.97 365.56 
L 506.387572 365.56 
L 506.387572 10.8 
L 58.97 10.8 
z
" style="fill:#ffffff;"/>
   </g>
   <g id="matplotlib.axis_1">
    <g id="xtick_1">
     <g id="line2d_1">
      <defs>
       <path d="M 0 0 
L 0 3.5 
" id="m4f6a1fe079" style="stroke:#000000;stroke-width:0.8;"/>
      </defs>
      <g>
       <use style="stroke:#000000;stroke-width:0.8;" x="79.003849" xlink:href="#m4f6a1fe079" y="365.56"/>
      </g>
     </g>
     <g id="text_1">
      <!-- 0 -->
      <defs>
       <path d="M 31.78125 66.40625 
Q 24.171875 66.40625 20.328125 58.90625 
Q 16.5 51.421875 16.5 36.375 
Q 16.5 21.390625 20.328125 13.890625 
Q 24.171875 6.390625 31.78125 6.390625 
Q 39.453125 6.390625 43.28125 13.890625 
Q 47.125 21.390625 47.125 36.375 
Q 47.125 51.421875 43.28125 58.90625 
Q 39.453125 66.40625 31.78125 66.40625 
z
M 31.78125 74.21875 
Q 44.046875 74.21875 50.515625 64.515625 
Q 56.984375 54.828125 56.984375 36.375 
Q 56.984375 17.96875 50.515625 8.265625 
Q 44.046875 -1.421875 31.78125 -1.421875 
Q 19.53125 -1.421875 13.0625 8.265625 
Q 6.59375 17.96875 6.59375 36.375 
Q 6.59375 54.828125 13.0625 64.515625 
Q 19.53125 74.21875 31.78125 74.21875 
z
" id="DejaVuSans-48"/>
      </defs>
      <g transform="translate(72.641349 387.756875)scale(0.2 -0.2)">
       <use xlink:href="#DejaVuSans-48"/>
      </g>
     </g>
    </g>
    <g id="xtick_2">
     <g id="line2d_2">
      <g>
       <use style="stroke:#000000;stroke-width:0.8;" x="139.666526" xlink:href="#m4f6a1fe079" y="365.56"/>
      </g>
     </g>
     <g id="text_2">
      <!-- 200 -->
      <defs>
       <path d="M 19.1875 8.296875 
L 53.609375 8.296875 
L 53.609375 0 
L 7.328125 0 
L 7.328125 8.296875 
Q 12.9375 14.109375 22.625 23.890625 
Q 32.328125 33.6875 34.8125 36.53125 
Q 39.546875 41.84375 41.421875 45.53125 
Q 43.3125 49.21875 43.3125 52.78125 
Q 43.3125 58.59375 39.234375 62.25 
Q 35.15625 65.921875 28.609375 65.921875 
Q 23.96875 65.921875 18.8125 64.3125 
Q 13.671875 62.703125 7.8125 59.421875 
L 7.8125 69.390625 
Q 13.765625 71.78125 18.9375 73 
Q 24.125 74.21875 28.421875 74.21875 
Q 39.75 74.21875 46.484375 68.546875 
Q 53.21875 62.890625 53.21875 53.421875 
Q 53.21875 48.921875 51.53125 44.890625 
Q 49.859375 40.875 45.40625 35.40625 
Q 44.1875 33.984375 37.640625 27.21875 
Q 31.109375 20.453125 19.1875 8.296875 
z
" id="DejaVuSans-50"/>
      </defs>
      <g transform="translate(120.579026 387.756875)scale(0.2 -0.2)">
       <use xlink:href="#DejaVuSans-50"/>
       <use x="63.623047" xlink:href="#DejaVuSans-48"/>
       <use x="127.246094" xlink:href="#DejaVuSans-48"/>
      </g>
     </g>
    </g>
    <g id="xtick_3">
     <g id="line2d_3">
      <g>
       <use style="stroke:#000000;stroke-width:0.8;" x="200.329202" xlink:href="#m4f6a1fe079" y="365.56"/>
      </g>
     </g>
     <g id="text_3">
      <!-- 400 -->
      <defs>
       <path d="M 37.796875 64.3125 
L 12.890625 25.390625 
L 37.796875 25.390625 
z
M 35.203125 72.90625 
L 47.609375 72.90625 
L 47.609375 25.390625 
L 58.015625 25.390625 
L 58.015625 17.1875 
L 47.609375 17.1875 
L 47.609375 0 
L 37.796875 0 
L 37.796875 17.1875 
L 4.890625 17.1875 
L 4.890625 26.703125 
z
" id="DejaVuSans-52"/>
      </defs>
      <g transform="translate(181.241702 387.756875)scale(0.2 -0.2)">
       <use xlink:href="#DejaVuSans-52"/>
       <use x="63.623047" xlink:href="#DejaVuSans-48"/>
       <use x="127.246094" xlink:href="#DejaVuSans-48"/>
      </g>
     </g>
    </g>
    <g id="xtick_4">
     <g id="line2d_4">
      <g>
       <use style="stroke:#000000;stroke-width:0.8;" x="260.991879" xlink:href="#m4f6a1fe079" y="365.56"/>
      </g>
     </g>
     <g id="text_4">
      <!-- 600 -->
      <defs>
       <path d="M 33.015625 40.375 
Q 26.375 40.375 22.484375 35.828125 
Q 18.609375 31.296875 18.609375 23.390625 
Q 18.609375 15.53125 22.484375 10.953125 
Q 26.375 6.390625 33.015625 6.390625 
Q 39.65625 6.390625 43.53125 10.953125 
Q 47.40625 15.53125 47.40625 23.390625 
Q 47.40625 31.296875 43.53125 35.828125 
Q 39.65625 40.375 33.015625 40.375 
z
M 52.59375 71.296875 
L 52.59375 62.3125 
Q 48.875 64.0625 45.09375 64.984375 
Q 41.3125 65.921875 37.59375 65.921875 
Q 27.828125 65.921875 22.671875 59.328125 
Q 17.53125 52.734375 16.796875 39.40625 
Q 19.671875 43.65625 24.015625 45.921875 
Q 28.375 48.1875 33.59375 48.1875 
Q 44.578125 48.1875 50.953125 41.515625 
Q 57.328125 34.859375 57.328125 23.390625 
Q 57.328125 12.15625 50.6875 5.359375 
Q 44.046875 -1.421875 33.015625 -1.421875 
Q 20.359375 -1.421875 13.671875 8.265625 
Q 6.984375 17.96875 6.984375 36.375 
Q 6.984375 53.65625 15.1875 63.9375 
Q 23.390625 74.21875 37.203125 74.21875 
Q 40.921875 74.21875 44.703125 73.484375 
Q 48.484375 72.75 52.59375 71.296875 
z
" id="DejaVuSans-54"/>
      </defs>
      <g transform="translate(241.904379 387.756875)scale(0.2 -0.2)">
       <use xlink:href="#DejaVuSans-54"/>
       <use x="63.623047" xlink:href="#DejaVuSans-48"/>
       <use x="127.246094" xlink:href="#DejaVuSans-48"/>
      </g>
     </g>
    </g>
    <g id="xtick_5">
     <g id="line2d_5">
      <g>
       <use style="stroke:#000000;stroke-width:0.8;" x="321.654556" xlink:href="#m4f6a1fe079" y="365.56"/>
      </g>
     </g>
     <g id="text_5">
      <!-- 800 -->
      <defs>
       <path d="M 31.78125 34.625 
Q 24.75 34.625 20.71875 30.859375 
Q 16.703125 27.09375 16.703125 20.515625 
Q 16.703125 13.921875 20.71875 10.15625 
Q 24.75 6.390625 31.78125 6.390625 
Q 38.8125 6.390625 42.859375 10.171875 
Q 46.921875 13.96875 46.921875 20.515625 
Q 46.921875 27.09375 42.890625 30.859375 
Q 38.875 34.625 31.78125 34.625 
z
M 21.921875 38.8125 
Q 15.578125 40.375 12.03125 44.71875 
Q 8.5 49.078125 8.5 55.328125 
Q 8.5 64.0625 14.71875 69.140625 
Q 20.953125 74.21875 31.78125 74.21875 
Q 42.671875 74.21875 48.875 69.140625 
Q 55.078125 64.0625 55.078125 55.328125 
Q 55.078125 49.078125 51.53125 44.71875 
Q 48 40.375 41.703125 38.8125 
Q 48.828125 37.15625 52.796875 32.3125 
Q 56.78125 27.484375 56.78125 20.515625 
Q 56.78125 9.90625 50.3125 4.234375 
Q 43.84375 -1.421875 31.78125 -1.421875 
Q 19.734375 -1.421875 13.25 4.234375 
Q 6.78125 9.90625 6.78125 20.515625 
Q 6.78125 27.484375 10.78125 32.3125 
Q 14.796875 37.15625 21.921875 38.8125 
z
M 18.3125 54.390625 
Q 18.3125 48.734375 21.84375 45.5625 
Q 25.390625 42.390625 31.78125 42.390625 
Q 38.140625 42.390625 41.71875 45.5625 
Q 45.3125 48.734375 45.3125 54.390625 
Q 45.3125 60.0625 41.71875 63.234375 
Q 38.140625 66.40625 31.78125 66.40625 
Q 25.390625 66.40625 21.84375 63.234375 
Q 18.3125 60.0625 18.3125 54.390625 
z
" id="DejaVuSans-56"/>
      </defs>
      <g transform="translate(302.567056 387.756875)scale(0.2 -0.2)">
       <use xlink:href="#DejaVuSans-56"/>
       <use x="63.623047" xlink:href="#DejaVuSans-48"/>
       <use x="127.246094" xlink:href="#DejaVuSans-48"/>
      </g>
     </g>
    </g>
    <g id="xtick_6">
     <g id="line2d_6">
      <g>
       <use style="stroke:#000000;stroke-width:0.8;" x="382.317232" xlink:href="#m4f6a1fe079" y="365.56"/>
      </g>
     </g>
     <g id="text_6">
      <!-- 1000 -->
      <defs>
       <path d="M 12.40625 8.296875 
L 28.515625 8.296875 
L 28.515625 63.921875 
L 10.984375 60.40625 
L 10.984375 69.390625 
L 28.421875 72.90625 
L 38.28125 72.90625 
L 38.28125 8.296875 
L 54.390625 8.296875 
L 54.390625 0 
L 12.40625 0 
z
" id="DejaVuSans-49"/>
      </defs>
      <g transform="translate(356.867232 387.756875)scale(0.2 -0.2)">
       <use xlink:href="#DejaVuSans-49"/>
       <use x="63.623047" xlink:href="#DejaVuSans-48"/>
       <use x="127.246094" xlink:href="#DejaVuSans-48"/>
       <use x="190.869141" xlink:href="#DejaVuSans-48"/>
      </g>
     </g>
    </g>
    <g id="xtick_7">
     <g id="line2d_7">
      <g>
       <use style="stroke:#000000;stroke-width:0.8;" x="442.979909" xlink:href="#m4f6a1fe079" y="365.56"/>
      </g>
     </g>
     <g id="text_7">
      <!-- 1200 -->
      <g transform="translate(417.529909 387.756875)scale(0.2 -0.2)">
       <use xlink:href="#DejaVuSans-49"/>
       <use x="63.623047" xlink:href="#DejaVuSans-50"/>
       <use x="127.246094" xlink:href="#DejaVuSans-48"/>
       <use x="190.869141" xlink:href="#DejaVuSans-48"/>
      </g>
     </g>
    </g>
    <g id="xtick_8">
     <g id="line2d_8">
      <g>
       <use style="stroke:#000000;stroke-width:0.8;" x="503.642586" xlink:href="#m4f6a1fe079" y="365.56"/>
      </g>
     </g>
     <g id="text_8">
      <!-- 1400 -->
      <g transform="translate(478.192586 387.756875)scale(0.2 -0.2)">
       <use xlink:href="#DejaVuSans-49"/>
       <use x="63.623047" xlink:href="#DejaVuSans-52"/>
       <use x="127.246094" xlink:href="#DejaVuSans-48"/>
       <use x="190.869141" xlink:href="#DejaVuSans-48"/>
      </g>
     </g>
    </g>
    <g id="text_9">
     <!-- # of games -->
     <defs>
      <path d="M 51.125 44 
L 36.921875 44 
L 32.8125 27.6875 
L 47.125 27.6875 
z
M 43.796875 71.78125 
L 38.71875 51.515625 
L 52.984375 51.515625 
L 58.109375 71.78125 
L 65.921875 71.78125 
L 60.890625 51.515625 
L 76.125 51.515625 
L 76.125 44 
L 58.984375 44 
L 54.984375 27.6875 
L 70.515625 27.6875 
L 70.515625 20.21875 
L 53.078125 20.21875 
L 48 0 
L 40.1875 0 
L 45.21875 20.21875 
L 30.90625 20.21875 
L 25.875 0 
L 18.015625 0 
L 23.09375 20.21875 
L 7.71875 20.21875 
L 7.71875 27.6875 
L 24.90625 27.6875 
L 29 44 
L 13.28125 44 
L 13.28125 51.515625 
L 30.90625 51.515625 
L 35.890625 71.78125 
z
" id="DejaVuSans-35"/>
      <path id="DejaVuSans-32"/>
      <path d="M 30.609375 48.390625 
Q 23.390625 48.390625 19.1875 42.75 
Q 14.984375 37.109375 14.984375 27.296875 
Q 14.984375 17.484375 19.15625 11.84375 
Q 23.34375 6.203125 30.609375 6.203125 
Q 37.796875 6.203125 41.984375 11.859375 
Q 46.1875 17.53125 46.1875 27.296875 
Q 46.1875 37.015625 41.984375 42.703125 
Q 37.796875 48.390625 30.609375 48.390625 
z
M 30.609375 56 
Q 42.328125 56 49.015625 48.375 
Q 55.71875 40.765625 55.71875 27.296875 
Q 55.71875 13.875 49.015625 6.21875 
Q 42.328125 -1.421875 30.609375 -1.421875 
Q 18.84375 -1.421875 12.171875 6.21875 
Q 5.515625 13.875 5.515625 27.296875 
Q 5.515625 40.765625 12.171875 48.375 
Q 18.84375 56 30.609375 56 
z
" id="DejaVuSans-111"/>
      <path d="M 37.109375 75.984375 
L 37.109375 68.5 
L 28.515625 68.5 
Q 23.6875 68.5 21.796875 66.546875 
Q 19.921875 64.59375 19.921875 59.515625 
L 19.921875 54.6875 
L 34.71875 54.6875 
L 34.71875 47.703125 
L 19.921875 47.703125 
L 19.921875 0 
L 10.890625 0 
L 10.890625 47.703125 
L 2.296875 47.703125 
L 2.296875 54.6875 
L 10.890625 54.6875 
L 10.890625 58.5 
Q 10.890625 67.625 15.140625 71.796875 
Q 19.390625 75.984375 28.609375 75.984375 
z
" id="DejaVuSans-102"/>
      <path d="M 45.40625 27.984375 
Q 45.40625 37.75 41.375 43.109375 
Q 37.359375 48.484375 30.078125 48.484375 
Q 22.859375 48.484375 18.828125 43.109375 
Q 14.796875 37.75 14.796875 27.984375 
Q 14.796875 18.265625 18.828125 12.890625 
Q 22.859375 7.515625 30.078125 7.515625 
Q 37.359375 7.515625 41.375 12.890625 
Q 45.40625 18.265625 45.40625 27.984375 
z
M 54.390625 6.78125 
Q 54.390625 -7.171875 48.1875 -13.984375 
Q 42 -20.796875 29.203125 -20.796875 
Q 24.46875 -20.796875 20.265625 -20.09375 
Q 16.0625 -19.390625 12.109375 -17.921875 
L 12.109375 -9.1875 
Q 16.0625 -11.328125 19.921875 -12.34375 
Q 23.78125 -13.375 27.78125 -13.375 
Q 36.625 -13.375 41.015625 -8.765625 
Q 45.40625 -4.15625 45.40625 5.171875 
L 45.40625 9.625 
Q 42.625 4.78125 38.28125 2.390625 
Q 33.9375 0 27.875 0 
Q 17.828125 0 11.671875 7.65625 
Q 5.515625 15.328125 5.515625 27.984375 
Q 5.515625 40.671875 11.671875 48.328125 
Q 17.828125 56 27.875 56 
Q 33.9375 56 38.28125 53.609375 
Q 42.625 51.21875 45.40625 46.390625 
L 45.40625 54.6875 
L 54.390625 54.6875 
z
" id="DejaVuSans-103"/>
      <path d="M 34.28125 27.484375 
Q 23.390625 27.484375 19.1875 25 
Q 14.984375 22.515625 14.984375 16.5 
Q 14.984375 11.71875 18.140625 8.90625 
Q 21.296875 6.109375 26.703125 6.109375 
Q 34.1875 6.109375 38.703125 11.40625 
Q 43.21875 16.703125 43.21875 25.484375 
L 43.21875 27.484375 
z
M 52.203125 31.203125 
L 52.203125 0 
L 43.21875 0 
L 43.21875 8.296875 
Q 40.140625 3.328125 35.546875 0.953125 
Q 30.953125 -1.421875 24.3125 -1.421875 
Q 15.921875 -1.421875 10.953125 3.296875 
Q 6 8.015625 6 15.921875 
Q 6 25.140625 12.171875 29.828125 
Q 18.359375 34.515625 30.609375 34.515625 
L 43.21875 34.515625 
L 43.21875 35.40625 
Q 43.21875 41.609375 39.140625 45 
Q 35.0625 48.390625 27.6875 48.390625 
Q 23 48.390625 18.546875 47.265625 
Q 14.109375 46.140625 10.015625 43.890625 
L 10.015625 52.203125 
Q 14.9375 54.109375 19.578125 55.046875 
Q 24.21875 56 28.609375 56 
Q 40.484375 56 46.34375 49.84375 
Q 52.203125 43.703125 52.203125 31.203125 
z
" id="DejaVuSans-97"/>
      <path d="M 52 44.1875 
Q 55.375 50.25 60.0625 53.125 
Q 64.75 56 71.09375 56 
Q 79.640625 56 84.28125 50.015625 
Q 88.921875 44.046875 88.921875 33.015625 
L 88.921875 0 
L 79.890625 0 
L 79.890625 32.71875 
Q 79.890625 40.578125 77.09375 44.375 
Q 74.3125 48.1875 68.609375 48.1875 
Q 61.625 48.1875 57.5625 43.546875 
Q 53.515625 38.921875 53.515625 30.90625 
L 53.515625 0 
L 44.484375 0 
L 44.484375 32.71875 
Q 44.484375 40.625 41.703125 44.40625 
Q 38.921875 48.1875 33.109375 48.1875 
Q 26.21875 48.1875 22.15625 43.53125 
Q 18.109375 38.875 18.109375 30.90625 
L 18.109375 0 
L 9.078125 0 
L 9.078125 54.6875 
L 18.109375 54.6875 
L 18.109375 46.1875 
Q 21.1875 51.21875 25.484375 53.609375 
Q 29.78125 56 35.6875 56 
Q 41.65625 56 45.828125 52.96875 
Q 50 49.953125 52 44.1875 
z
" id="DejaVuSans-109"/>
      <path d="M 56.203125 29.59375 
L 56.203125 25.203125 
L 14.890625 25.203125 
Q 15.484375 15.921875 20.484375 11.0625 
Q 25.484375 6.203125 34.421875 6.203125 
Q 39.59375 6.203125 44.453125 7.46875 
Q 49.3125 8.734375 54.109375 11.28125 
L 54.109375 2.78125 
Q 49.265625 0.734375 44.1875 -0.34375 
Q 39.109375 -1.421875 33.890625 -1.421875 
Q 20.796875 -1.421875 13.15625 6.1875 
Q 5.515625 13.8125 5.515625 26.8125 
Q 5.515625 40.234375 12.765625 48.109375 
Q 20.015625 56 32.328125 56 
Q 43.359375 56 49.78125 48.890625 
Q 56.203125 41.796875 56.203125 29.59375 
z
M 47.21875 32.234375 
Q 47.125 39.59375 43.09375 43.984375 
Q 39.0625 48.390625 32.421875 48.390625 
Q 24.90625 48.390625 20.390625 44.140625 
Q 15.875 39.890625 15.1875 32.171875 
z
" id="DejaVuSans-101"/>
      <path d="M 44.28125 53.078125 
L 44.28125 44.578125 
Q 40.484375 46.53125 36.375 47.5 
Q 32.28125 48.484375 27.875 48.484375 
Q 21.1875 48.484375 17.84375 46.4375 
Q 14.5 44.390625 14.5 40.28125 
Q 14.5 37.15625 16.890625 35.375 
Q 19.28125 33.59375 26.515625 31.984375 
L 29.59375 31.296875 
Q 39.15625 29.25 43.1875 25.515625 
Q 47.21875 21.78125 47.21875 15.09375 
Q 47.21875 7.46875 41.1875 3.015625 
Q 35.15625 -1.421875 24.609375 -1.421875 
Q 20.21875 -1.421875 15.453125 -0.5625 
Q 10.6875 0.296875 5.421875 2 
L 5.421875 11.28125 
Q 10.40625 8.6875 15.234375 7.390625 
Q 20.0625 6.109375 24.8125 6.109375 
Q 31.15625 6.109375 34.5625 8.28125 
Q 37.984375 10.453125 37.984375 14.40625 
Q 37.984375 18.0625 35.515625 20.015625 
Q 33.0625 21.96875 24.703125 23.78125 
L 21.578125 24.515625 
Q 13.234375 26.265625 9.515625 29.90625 
Q 5.8125 33.546875 5.8125 39.890625 
Q 5.8125 47.609375 11.28125 51.796875 
Q 16.75 56 26.8125 56 
Q 31.78125 56 36.171875 55.265625 
Q 40.578125 54.546875 44.28125 53.078125 
z
" id="DejaVuSans-115"/>
     </defs>
     <g transform="translate(210.235426 414.912344)scale(0.25 -0.25)">
      <use xlink:href="#DejaVuSans-35"/>
      <use x="83.789062" xlink:href="#DejaVuSans-32"/>
      <use x="115.576172" xlink:href="#DejaVuSans-111"/>
      <use x="176.757812" xlink:href="#DejaVuSans-102"/>
      <use x="211.962891" xlink:href="#DejaVuSans-32"/>
      <use x="243.75" xlink:href="#DejaVuSans-103"/>
      <use x="307.226562" xlink:href="#DejaVuSans-97"/>
      <use x="368.505859" xlink:href="#DejaVuSans-109"/>
      <use x="465.917969" xlink:href="#DejaVuSans-101"/>
      <use x="527.441406" xlink:href="#DejaVuSans-115"/>
     </g>
    </g>
   </g>
   <g id="matplotlib.axis_2">
    <g id="ytick_1">
     <g id="line2d_9">
      <defs>
       <path d="M 0 0 
L -3.5 0 
" id="mf5a13213db" style="stroke:#000000;stroke-width:0.8;"/>
      </defs>
      <g>
       <use style="stroke:#000000;stroke-width:0.8;" x="58.97" xlink:href="#mf5a13213db" y="349.434545"/>
      </g>
     </g>
     <g id="text_10">
      <!-- 1 -->
      <g transform="translate(39.245 357.032983)scale(0.2 -0.2)">
       <use xlink:href="#DejaVuSans-49"/>
      </g>
     </g>
    </g>
    <g id="ytick_2">
     <g id="line2d_10">
      <g>
       <use style="stroke:#000000;stroke-width:0.8;" x="58.97" xlink:href="#mf5a13213db" y="309.120909"/>
      </g>
     </g>
     <g id="text_11">
      <!-- 2 -->
      <g transform="translate(39.245 316.719347)scale(0.2 -0.2)">
       <use xlink:href="#DejaVuSans-50"/>
      </g>
     </g>
    </g>
    <g id="ytick_3">
     <g id="line2d_11">
      <g>
       <use style="stroke:#000000;stroke-width:0.8;" x="58.97" xlink:href="#mf5a13213db" y="268.807273"/>
      </g>
     </g>
     <g id="text_12">
      <!-- 3 -->
      <defs>
       <path d="M 40.578125 39.3125 
Q 47.65625 37.796875 51.625 33 
Q 55.609375 28.21875 55.609375 21.1875 
Q 55.609375 10.40625 48.1875 4.484375 
Q 40.765625 -1.421875 27.09375 -1.421875 
Q 22.515625 -1.421875 17.65625 -0.515625 
Q 12.796875 0.390625 7.625 2.203125 
L 7.625 11.71875 
Q 11.71875 9.328125 16.59375 8.109375 
Q 21.484375 6.890625 26.8125 6.890625 
Q 36.078125 6.890625 40.9375 10.546875 
Q 45.796875 14.203125 45.796875 21.1875 
Q 45.796875 27.640625 41.28125 31.265625 
Q 36.765625 34.90625 28.71875 34.90625 
L 20.21875 34.90625 
L 20.21875 43.015625 
L 29.109375 43.015625 
Q 36.375 43.015625 40.234375 45.921875 
Q 44.09375 48.828125 44.09375 54.296875 
Q 44.09375 59.90625 40.109375 62.90625 
Q 36.140625 65.921875 28.71875 65.921875 
Q 24.65625 65.921875 20.015625 65.03125 
Q 15.375 64.15625 9.8125 62.3125 
L 9.8125 71.09375 
Q 15.4375 72.65625 20.34375 73.4375 
Q 25.25 74.21875 29.59375 74.21875 
Q 40.828125 74.21875 47.359375 69.109375 
Q 53.90625 64.015625 53.90625 55.328125 
Q 53.90625 49.265625 50.4375 45.09375 
Q 46.96875 40.921875 40.578125 39.3125 
z
" id="DejaVuSans-51"/>
      </defs>
      <g transform="translate(39.245 276.40571)scale(0.2 -0.2)">
       <use xlink:href="#DejaVuSans-51"/>
      </g>
     </g>
    </g>
    <g id="ytick_4">
     <g id="line2d_12">
      <g>
       <use style="stroke:#000000;stroke-width:0.8;" x="58.97" xlink:href="#mf5a13213db" y="228.493636"/>
      </g>
     </g>
     <g id="text_13">
      <!-- 4 -->
      <g transform="translate(39.245 236.092074)scale(0.2 -0.2)">
       <use xlink:href="#DejaVuSans-52"/>
      </g>
     </g>
    </g>
    <g id="ytick_5">
     <g id="line2d_13">
      <g>
       <use style="stroke:#000000;stroke-width:0.8;" x="58.97" xlink:href="#mf5a13213db" y="188.18"/>
      </g>
     </g>
     <g id="text_14">
      <!-- 5 -->
      <defs>
       <path d="M 10.796875 72.90625 
L 49.515625 72.90625 
L 49.515625 64.59375 
L 19.828125 64.59375 
L 19.828125 46.734375 
Q 21.96875 47.46875 24.109375 47.828125 
Q 26.265625 48.1875 28.421875 48.1875 
Q 40.625 48.1875 47.75 41.5 
Q 54.890625 34.8125 54.890625 23.390625 
Q 54.890625 11.625 47.5625 5.09375 
Q 40.234375 -1.421875 26.90625 -1.421875 
Q 22.3125 -1.421875 17.546875 -0.640625 
Q 12.796875 0.140625 7.71875 1.703125 
L 7.71875 11.625 
Q 12.109375 9.234375 16.796875 8.0625 
Q 21.484375 6.890625 26.703125 6.890625 
Q 35.15625 6.890625 40.078125 11.328125 
Q 45.015625 15.765625 45.015625 23.390625 
Q 45.015625 31 40.078125 35.4375 
Q 35.15625 39.890625 26.703125 39.890625 
Q 22.75 39.890625 18.8125 39.015625 
Q 14.890625 38.140625 10.796875 36.28125 
z
" id="DejaVuSans-53"/>
      </defs>
      <g transform="translate(39.245 195.778437)scale(0.2 -0.2)">
       <use xlink:href="#DejaVuSans-53"/>
      </g>
     </g>
    </g>
    <g id="ytick_6">
     <g id="line2d_14">
      <g>
       <use style="stroke:#000000;stroke-width:0.8;" x="58.97" xlink:href="#mf5a13213db" y="147.866364"/>
      </g>
     </g>
     <g id="text_15">
      <!-- 6 -->
      <g transform="translate(39.245 155.464801)scale(0.2 -0.2)">
       <use xlink:href="#DejaVuSans-54"/>
      </g>
     </g>
    </g>
    <g id="ytick_7">
     <g id="line2d_15">
      <g>
       <use style="stroke:#000000;stroke-width:0.8;" x="58.97" xlink:href="#mf5a13213db" y="107.552727"/>
      </g>
     </g>
     <g id="text_16">
      <!-- 7 -->
      <defs>
       <path d="M 8.203125 72.90625 
L 55.078125 72.90625 
L 55.078125 68.703125 
L 28.609375 0 
L 18.3125 0 
L 43.21875 64.59375 
L 8.203125 64.59375 
z
" id="DejaVuSans-55"/>
      </defs>
      <g transform="translate(39.245 115.151165)scale(0.2 -0.2)">
       <use xlink:href="#DejaVuSans-55"/>
      </g>
     </g>
    </g>
    <g id="ytick_8">
     <g id="line2d_16">
      <g>
       <use style="stroke:#000000;stroke-width:0.8;" x="58.97" xlink:href="#mf5a13213db" y="67.239091"/>
      </g>
     </g>
     <g id="text_17">
      <!-- 8 -->
      <g transform="translate(39.245 74.837528)scale(0.2 -0.2)">
       <use xlink:href="#DejaVuSans-56"/>
      </g>
     </g>
    </g>
    <g id="ytick_9">
     <g id="line2d_17">
      <g>
       <use style="stroke:#000000;stroke-width:0.8;" x="58.97" xlink:href="#mf5a13213db" y="26.925455"/>
      </g>
     </g>
     <g id="text_18">
      <!-- 9 -->
      <defs>
       <path d="M 10.984375 1.515625 
L 10.984375 10.5 
Q 14.703125 8.734375 18.5 7.8125 
Q 22.3125 6.890625 25.984375 6.890625 
Q 35.75 6.890625 40.890625 13.453125 
Q 46.046875 20.015625 46.78125 33.40625 
Q 43.953125 29.203125 39.59375 26.953125 
Q 35.25 24.703125 29.984375 24.703125 
Q 19.046875 24.703125 12.671875 31.3125 
Q 6.296875 37.9375 6.296875 49.421875 
Q 6.296875 60.640625 12.9375 67.421875 
Q 19.578125 74.21875 30.609375 74.21875 
Q 43.265625 74.21875 49.921875 64.515625 
Q 56.59375 54.828125 56.59375 36.375 
Q 56.59375 19.140625 48.40625 8.859375 
Q 40.234375 -1.421875 26.421875 -1.421875 
Q 22.703125 -1.421875 18.890625 -0.6875 
Q 15.09375 0.046875 10.984375 1.515625 
z
M 30.609375 32.421875 
Q 37.25 32.421875 41.125 36.953125 
Q 45.015625 41.5 45.015625 49.421875 
Q 45.015625 57.28125 41.125 61.84375 
Q 37.25 66.40625 30.609375 66.40625 
Q 23.96875 66.40625 20.09375 61.84375 
Q 16.21875 57.28125 16.21875 49.421875 
Q 16.21875 41.5 20.09375 36.953125 
Q 23.96875 32.421875 30.609375 32.421875 
z
" id="DejaVuSans-57"/>
      </defs>
      <g transform="translate(39.245 34.523892)scale(0.2 -0.2)">
       <use xlink:href="#DejaVuSans-57"/>
      </g>
     </g>
    </g>
    <g id="text_19">
     <!-- Averaged AHEU -->
     <defs>
      <path d="M 34.1875 63.1875 
L 20.796875 26.90625 
L 47.609375 26.90625 
z
M 28.609375 72.90625 
L 39.796875 72.90625 
L 67.578125 0 
L 57.328125 0 
L 50.6875 18.703125 
L 17.828125 18.703125 
L 11.1875 0 
L 0.78125 0 
z
" id="DejaVuSans-65"/>
      <path d="M 2.984375 54.6875 
L 12.5 54.6875 
L 29.59375 8.796875 
L 46.6875 54.6875 
L 56.203125 54.6875 
L 35.6875 0 
L 23.484375 0 
z
" id="DejaVuSans-118"/>
      <path d="M 41.109375 46.296875 
Q 39.59375 47.171875 37.8125 47.578125 
Q 36.03125 48 33.890625 48 
Q 26.265625 48 22.1875 43.046875 
Q 18.109375 38.09375 18.109375 28.8125 
L 18.109375 0 
L 9.078125 0 
L 9.078125 54.6875 
L 18.109375 54.6875 
L 18.109375 46.1875 
Q 20.953125 51.171875 25.484375 53.578125 
Q 30.03125 56 36.53125 56 
Q 37.453125 56 38.578125 55.875 
Q 39.703125 55.765625 41.0625 55.515625 
z
" id="DejaVuSans-114"/>
      <path d="M 45.40625 46.390625 
L 45.40625 75.984375 
L 54.390625 75.984375 
L 54.390625 0 
L 45.40625 0 
L 45.40625 8.203125 
Q 42.578125 3.328125 38.25 0.953125 
Q 33.9375 -1.421875 27.875 -1.421875 
Q 17.96875 -1.421875 11.734375 6.484375 
Q 5.515625 14.40625 5.515625 27.296875 
Q 5.515625 40.1875 11.734375 48.09375 
Q 17.96875 56 27.875 56 
Q 33.9375 56 38.25 53.625 
Q 42.578125 51.265625 45.40625 46.390625 
z
M 14.796875 27.296875 
Q 14.796875 17.390625 18.875 11.75 
Q 22.953125 6.109375 30.078125 6.109375 
Q 37.203125 6.109375 41.296875 11.75 
Q 45.40625 17.390625 45.40625 27.296875 
Q 45.40625 37.203125 41.296875 42.84375 
Q 37.203125 48.484375 30.078125 48.484375 
Q 22.953125 48.484375 18.875 42.84375 
Q 14.796875 37.203125 14.796875 27.296875 
z
" id="DejaVuSans-100"/>
      <path d="M 9.8125 72.90625 
L 19.671875 72.90625 
L 19.671875 43.015625 
L 55.515625 43.015625 
L 55.515625 72.90625 
L 65.375 72.90625 
L 65.375 0 
L 55.515625 0 
L 55.515625 34.71875 
L 19.671875 34.71875 
L 19.671875 0 
L 9.8125 0 
z
" id="DejaVuSans-72"/>
      <path d="M 9.8125 72.90625 
L 55.90625 72.90625 
L 55.90625 64.59375 
L 19.671875 64.59375 
L 19.671875 43.015625 
L 54.390625 43.015625 
L 54.390625 34.71875 
L 19.671875 34.71875 
L 19.671875 8.296875 
L 56.78125 8.296875 
L 56.78125 0 
L 9.8125 0 
z
" id="DejaVuSans-69"/>
      <path d="M 8.6875 72.90625 
L 18.609375 72.90625 
L 18.609375 28.609375 
Q 18.609375 16.890625 22.84375 11.734375 
Q 27.09375 6.59375 36.625 6.59375 
Q 46.09375 6.59375 50.34375 11.734375 
Q 54.59375 16.890625 54.59375 28.609375 
L 54.59375 72.90625 
L 64.5 72.90625 
L 64.5 27.390625 
Q 64.5 13.140625 57.4375 5.859375 
Q 50.390625 -1.421875 36.625 -1.421875 
Q 22.796875 -1.421875 15.734375 5.859375 
Q 8.6875 13.140625 8.6875 27.390625 
z
" id="DejaVuSans-85"/>
     </defs>
     <g transform="translate(30.045781 287.142891)rotate(-90)scale(0.25 -0.25)">
      <use xlink:href="#DejaVuSans-65"/>
      <use x="68.330078" xlink:href="#DejaVuSans-118"/>
      <use x="127.509766" xlink:href="#DejaVuSans-101"/>
      <use x="189.033203" xlink:href="#DejaVuSans-114"/>
      <use x="230.146484" xlink:href="#DejaVuSans-97"/>
      <use x="291.425781" xlink:href="#DejaVuSans-103"/>
      <use x="354.902344" xlink:href="#DejaVuSans-101"/>
      <use x="416.425781" xlink:href="#DejaVuSans-100"/>
      <use x="479.902344" xlink:href="#DejaVuSans-32"/>
      <use x="511.689453" xlink:href="#DejaVuSans-65"/>
      <use x="580.097656" xlink:href="#DejaVuSans-72"/>
      <use x="655.292969" xlink:href="#DejaVuSans-69"/>
      <use x="718.476562" xlink:href="#DejaVuSans-85"/>
     </g>
    </g>
   </g>
   <g id="line2d_18">
    <path clip-path="url(#p426520e37c)" d="M 79.307162 345.134424 
L 79.610476 340.834303 
L 79.913789 329.228989 
L 80.217102 339.974279 
L 80.520416 332.669945 
L 80.823729 285.150139 
L 81.127043 290.419945 
L 81.430356 275.801359 
L 81.733669 276.339665 
L 82.036983 293.086832 
L 82.340296 279.017781 
L 82.64361 271.280929 
L 82.946923 256.308366 
L 83.250236 267.215652 
L 83.55355 248.079853 
L 83.856863 267.091441 
L 84.160176 238.798156 
L 84.46349 227.75353 
L 85.070117 256.936664 
L 85.676743 223.322171 
L 85.980057 221.719669 
L 86.28337 235.214517 
L 86.586684 236.851116 
L 86.889997 232.592964 
L 87.19331 235.373088 
L 87.496624 240.827242 
L 87.799937 229.24533 
L 88.10325 229.654225 
L 88.406564 219.631953 
L 88.709877 223.407069 
L 89.013191 232.472558 
L 89.619817 256.220395 
L 89.923131 250.609718 
L 90.226444 215.494342 
L 90.529758 202.759802 
L 90.833071 252.256414 
L 91.136384 233.089207 
L 91.439698 243.172653 
L 91.743011 234.576916 
L 92.046324 239.136581 
L 92.349638 231.607861 
L 92.652951 242.135515 
L 92.956265 216.200134 
L 93.259578 216.17939 
L 93.562891 233.636643 
L 93.866205 227.269335 
L 94.169518 192.344392 
L 94.472832 241.491917 
L 94.776145 227.351809 
L 95.079458 194.491091 
L 95.382772 182.478126 
L 95.686085 195.116812 
L 95.989398 201.797032 
L 96.292712 185.755272 
L 96.596025 233.313456 
L 96.899339 190.053035 
L 97.202652 204.435747 
L 97.505965 227.28261 
L 97.809279 193.948578 
L 98.112592 215.976115 
L 98.415905 222.281213 
L 98.719219 223.233059 
L 99.325846 216.804948 
L 99.629159 242.766577 
L 99.932472 228.391307 
L 100.235786 241.251002 
L 100.539099 202.235483 
L 100.842413 200.912301 
L 101.145726 202.474192 
L 101.449039 195.876421 
L 101.752353 213.952684 
L 102.055666 201.89178 
L 102.358979 230.45638 
L 102.662293 213.500221 
L 102.965606 212.243186 
L 103.26892 200.980005 
L 103.572233 212.065183 
L 103.875546 227.66937 
L 104.17886 202.42815 
L 104.482173 198.949976 
L 104.785487 185.202498 
L 105.0888 182.327695 
L 105.392113 210.977246 
L 105.695427 205.545665 
L 105.99874 214.505418 
L 106.302053 211.870065 
L 106.605367 195.322125 
L 106.90868 190.90551 
L 107.211994 227.140442 
L 107.515307 220.274182 
L 108.121934 198.619078 
L 108.425247 213.471357 
L 108.728561 186.592078 
L 109.031874 220.040827 
L 109.335187 214.731949 
L 109.638501 201.330733 
L 109.941814 221.279607 
L 110.245127 209.590094 
L 110.548441 221.316381 
L 110.851754 194.679601 
L 111.155068 208.1062 
L 111.458381 200.739905 
L 111.761694 220.001819 
L 112.065008 212.051457 
L 112.368321 186.14443 
L 112.671635 218.850052 
L 112.974948 179.398818 
L 113.278261 205.16935 
L 113.581575 194.226124 
L 113.884888 196.788936 
L 114.188201 178.722178 
L 114.491515 176.349719 
L 114.794828 183.854139 
L 115.098142 210.535226 
L 115.401455 187.020546 
L 115.704768 205.056785 
L 116.008082 159.458345 
L 116.614708 197.655568 
L 116.918022 184.835509 
L 117.221335 193.603134 
L 117.524649 181.464891 
L 118.131275 190.179783 
L 118.434589 165.192899 
L 119.041216 196.627768 
L 119.344529 183.93678 
L 119.647842 144.630087 
L 119.951156 183.921692 
L 120.254469 162.360095 
L 120.557782 195.975672 
L 120.861096 149.796126 
L 121.164409 212.880528 
L 121.771036 154.774925 
L 122.074349 172.765655 
L 122.377663 164.783357 
L 122.680976 205.070704 
L 122.98429 193.828194 
L 123.287603 193.338726 
L 123.590916 180.081882 
L 124.197543 207.134626 
L 124.500856 169.543645 
L 124.80417 160.50117 
L 125.107483 190.951257 
L 125.410797 178.070134 
L 125.71411 212.468002 
L 126.017423 195.508739 
L 126.320737 161.135222 
L 126.62405 180.595491 
L 126.927364 169.512734 
L 127.230677 171.64962 
L 127.53399 178.109005 
L 127.837304 205.043752 
L 128.140617 213.58913 
L 128.44393 204.666304 
L 128.747244 210.755429 
L 129.050557 224.925837 
L 129.353871 201.377221 
L 129.657184 187.752385 
L 129.960497 205.828996 
L 130.263811 232.890177 
L 130.567124 201.241424 
L 130.870438 215.72369 
L 131.173751 206.039086 
L 131.477064 183.572523 
L 131.780378 219.088779 
L 132.083691 209.371662 
L 132.387004 213.455025 
L 132.690318 209.041233 
L 132.993631 210.331567 
L 133.600258 185.149567 
L 133.903571 200.652602 
L 134.206885 180.333478 
L 134.813511 184.485494 
L 135.116825 170.64051 
L 135.420138 218.895417 
L 135.723452 228.1344 
L 136.026765 191.836819 
L 136.330078 245.304136 
L 136.633392 191.26797 
L 136.936705 227.329574 
L 137.240019 213.132064 
L 137.543332 192.474259 
L 137.846645 239.560899 
L 138.149959 206.252432 
L 138.453272 208.834341 
L 138.756585 188.848202 
L 139.363212 175.290969 
L 139.666526 210.138711 
L 139.969839 192.026048 
L 140.273152 199.566241 
L 140.576466 201.535599 
L 140.879779 202.600519 
L 141.183093 194.446369 
L 141.486406 220.154504 
L 141.789719 226.238906 
L 142.093033 247.581103 
L 142.396346 234.052183 
L 142.699659 211.003405 
L 143.306286 206.100176 
L 143.6096 207.09942 
L 143.912913 202.179311 
L 144.216226 205.827273 
L 144.51954 223.643619 
L 144.822853 200.671605 
L 145.126167 192.027976 
L 145.42948 220.112018 
L 145.732793 211.195375 
L 146.036107 195.063338 
L 146.33942 214.66276 
L 146.642733 187.437743 
L 147.552674 230.80935 
L 147.855987 226.852107 
L 148.1593 196.985142 
L 148.462614 191.319053 
L 148.765927 202.811857 
L 149.069241 226.716321 
L 149.372554 197.564566 
L 149.675867 191.756862 
L 149.979181 226.443664 
L 150.282494 226.466501 
L 150.585807 217.827965 
L 150.889121 185.864941 
L 151.192434 204.241543 
L 151.495748 205.274864 
L 151.799061 225.774491 
L 152.102374 172.738443 
L 152.405688 202.772204 
L 152.709001 199.822376 
L 153.012314 192.276667 
L 153.315628 200.863953 
L 153.618941 191.236353 
L 153.922255 190.136534 
L 154.225568 181.732667 
L 154.528881 187.105062 
L 154.832195 195.365746 
L 155.135508 179.211256 
L 155.438822 194.68966 
L 155.742135 176.545891 
L 156.348762 199.197007 
L 156.652075 160.607083 
L 157.258702 183.875289 
L 157.562015 197.62922 
L 157.865329 174.071949 
L 158.168642 188.843126 
L 158.471955 147.875055 
L 158.775269 172.641765 
L 159.078582 170.89003 
L 159.381896 166.007687 
L 159.685209 164.757236 
L 159.988522 167.565966 
L 160.291836 146.874703 
L 160.595149 151.742923 
L 160.898462 137.534947 
L 161.201776 183.807285 
L 161.505089 153.876927 
L 161.808403 197.184811 
L 162.111716 177.880122 
L 162.415029 181.196766 
L 162.718343 207.07909 
L 163.021656 195.700987 
L 163.32497 220.22618 
L 163.931596 175.25954 
L 164.23491 217.422027 
L 164.841536 171.750797 
L 165.14485 187.311806 
L 165.448163 196.515435 
L 165.751477 212.384799 
L 166.05479 216.061297 
L 166.358103 185.097336 
L 166.661417 193.742936 
L 167.268044 172.734621 
L 167.571357 174.312427 
L 167.87467 214.660837 
L 168.481297 179.32998 
L 168.78461 190.621169 
L 169.087924 193.80785 
L 169.391237 191.618475 
L 169.694551 185.503323 
L 169.997864 168.17302 
L 170.301177 173.296619 
L 170.907804 228.431157 
L 171.211117 168.193185 
L 171.514431 184.348797 
L 171.817744 181.522689 
L 172.121058 223.53614 
L 172.727684 161.627366 
L 173.030998 177.46536 
L 173.334311 181.186738 
L 173.637625 170.08731 
L 173.940938 167.996312 
L 174.244251 193.036488 
L 174.547565 178.779552 
L 174.850878 172.869363 
L 175.154191 186.621143 
L 175.457505 180.436888 
L 175.760818 167.103221 
L 176.064132 203.949208 
L 176.367445 189.265617 
L 176.670758 185.164847 
L 176.974072 207.249083 
L 177.277385 204.399359 
L 177.580699 164.253527 
L 177.884012 196.459917 
L 178.187325 163.969214 
L 178.490639 169.42833 
L 178.793952 229.563218 
L 179.097265 161.615336 
L 179.400579 215.416245 
L 179.703892 185.326534 
L 180.007206 225.790194 
L 180.310519 180.578231 
L 180.613832 182.250578 
L 180.917146 191.302553 
L 181.220459 187.32936 
L 181.523773 172.493671 
L 181.827086 191.937049 
L 182.130399 187.883041 
L 182.433713 188.451624 
L 182.737026 190.671035 
L 183.040339 177.399076 
L 183.343653 156.813266 
L 183.646966 184.41737 
L 183.95028 198.069595 
L 184.253593 165.556248 
L 184.556906 235.476057 
L 184.86022 205.780763 
L 185.163533 206.115104 
L 185.466847 186.446018 
L 185.77016 219.589453 
L 186.6801 166.702393 
L 186.983413 205.756623 
L 187.59004 181.49687 
L 187.893354 206.001936 
L 188.49998 199.151964 
L 188.803294 174.151745 
L 189.106607 192.420392 
L 189.40992 182.96092 
L 189.713234 239.10129 
L 190.016547 168.402131 
L 190.623174 219.759618 
L 190.926487 188.184885 
L 191.229801 200.683202 
L 191.533114 179.96044 
L 191.836428 178.851767 
L 192.139741 162.688253 
L 192.443054 178.917225 
L 192.746368 177.835646 
L 193.049681 230.452552 
L 193.352994 217.992076 
L 193.656308 200.3546 
L 193.959621 198.567021 
L 194.262935 199.296743 
L 194.566248 198.972322 
L 194.869561 224.546652 
L 195.172875 220.119162 
L 195.779502 245.60068 
L 196.082815 173.518875 
L 196.386128 187.391325 
L 196.689442 217.28447 
L 196.992755 192.582013 
L 197.296068 210.320612 
L 197.599382 153.604265 
L 197.902695 238.342914 
L 198.206009 174.647698 
L 198.509322 207.284403 
L 198.812635 153.182695 
L 199.115949 186.234406 
L 199.419262 206.495359 
L 199.722576 166.127645 
L 200.025889 167.512522 
L 200.329202 184.233834 
L 200.632516 175.784251 
L 200.935829 187.359353 
L 201.239142 209.718679 
L 201.542456 155.102906 
L 201.845769 188.203401 
L 202.149083 174.752294 
L 202.452396 220.885605 
L 202.755709 247.986553 
L 203.059023 202.159643 
L 203.665649 219.945103 
L 203.968963 209.680606 
L 204.272276 254.729495 
L 204.878903 209.681351 
L 205.182216 193.54929 
L 205.48553 187.600853 
L 205.788843 216.051061 
L 206.092157 224.960784 
L 206.39547 191.000454 
L 206.698783 210.827634 
L 207.002097 183.09546 
L 207.30541 233.943385 
L 207.608723 183.087751 
L 208.21535 252.697135 
L 208.518664 196.297341 
L 208.821977 259.637897 
L 209.428604 191.227049 
L 209.731917 178.794771 
L 210.035231 142.649872 
L 210.338544 231.190096 
L 210.945171 186.908604 
L 211.551797 225.537838 
L 211.855111 163.05179 
L 212.158424 173.412154 
L 212.461738 188.142927 
L 212.765051 231.150807 
L 213.068364 112.924617 
L 213.371678 213.156538 
L 213.674991 233.181475 
L 213.978305 206.121584 
L 214.281618 148.801279 
L 214.584931 158.077511 
L 214.888245 161.649493 
L 215.191558 206.115065 
L 215.494871 188.19842 
L 215.798185 245.498671 
L 216.101498 202.508853 
L 216.404812 186.7386 
L 216.708125 145.916086 
L 217.011438 158.171112 
L 217.314752 211.387016 
L 217.618065 196.465467 
L 217.921379 248.582426 
L 218.224692 176.656392 
L 218.528005 217.119314 
L 218.831319 211.397562 
L 219.134632 242.79474 
L 219.437945 250.216005 
L 219.741259 208.868686 
L 220.044572 258.440372 
L 220.347886 211.334499 
L 220.651199 270.865242 
L 220.954512 252.708102 
L 221.257826 184.04948 
L 221.561139 203.846875 
L 221.864452 203.891981 
L 222.167766 189.04073 
L 222.471079 152.2146 
L 222.774393 214.630761 
L 223.077706 215.419113 
L 223.381019 192.728205 
L 223.684333 190.247366 
L 223.987646 171.611748 
L 224.29096 195.700017 
L 224.594273 164.248426 
L 224.897586 186.459345 
L 225.2009 146.174107 
L 225.504213 190.936522 
L 226.11084 213.353966 
L 226.414153 237.120552 
L 226.717467 145.263242 
L 227.02078 197.168978 
L 227.324093 130.882893 
L 227.627407 118.283484 
L 227.93072 169.91906 
L 228.234034 102.275027 
L 228.537347 164.30129 
L 228.84066 188.310011 
L 229.143974 114.238804 
L 229.447287 182.252778 
L 229.7506 154.637177 
L 230.053914 174.721893 
L 230.357227 134.544335 
L 230.660541 181.505406 
L 230.963854 201.703212 
L 231.267167 134.419537 
L 231.570481 171.983413 
L 231.873794 174.742115 
L 232.177108 235.212576 
L 232.480421 248.704323 
L 232.783734 134.483383 
L 233.087048 138.530006 
L 233.693674 155.941274 
L 233.996988 138.427272 
L 234.300301 102.219046 
L 234.603615 151.94898 
L 234.906928 125.037228 
L 235.210241 180.570966 
L 235.513555 162.141876 
L 235.816868 226.573939 
L 236.120182 131.35697 
L 236.423495 157.464848 
L 236.726808 106.679679 
L 237.030122 123.69562 
L 237.333435 165.178514 
L 237.636748 96.069423 
L 237.940062 134.397095 
L 238.243375 96.065941 
L 238.546689 218.91259 
L 238.850002 142.107273 
L 239.153315 126.77062 
L 239.456629 165.171542 
L 239.759942 123.433857 
L 240.063255 162.12792 
L 240.366569 161.353063 
L 240.973196 98.594141 
L 241.276509 179.196959 
L 241.579822 161.304242 
L 241.883136 170.287239 
L 242.186449 95.010707 
L 242.489763 77.142356 
L 242.793076 152.345657 
L 243.096389 59.225184 
L 243.399703 156.09431 
L 243.703016 187.98454 
L 244.006329 155.929091 
L 244.612956 226.881091 
L 244.91627 220.372271 
L 245.219583 220.430909 
L 245.522896 220.654584 
L 246.129523 284.932727 
L 246.432837 259.132 
L 246.73615 194.630182 
L 247.039463 268.807273 
L 247.342777 268.807273 
L 247.64609 236.556364 
L 247.949403 276.87 
L 248.252717 268.807273 
L 248.55603 241.931515 
L 249.162657 317.146988 
L 249.46597 244.619091 
L 249.769284 268.807273 
L 250.072597 309.120909 
L 250.375911 212.368182 
L 250.679224 268.807273 
L 250.982537 204.305455 
L 251.285851 349.434545 
L 251.589164 236.556364 
L 251.892477 317.183636 
L 252.195791 349.434545 
L 252.499104 317.183636 
L 252.802418 252.681818 
L 253.105731 317.183636 
L 253.409044 349.434545 
L 253.712358 236.556364 
L 254.015671 349.434545 
L 254.318985 198.930303 
L 254.622298 306.433333 
L 254.925611 198.930303 
L 255.228925 241.931515 
L 255.532238 191.763434 
L 255.835551 277.765859 
L 256.442178 199.051716 
L 256.745492 277.765859 
L 257.048805 163.030806 
L 257.352118 241.931515 
L 257.655432 241.931515 
L 257.958745 163.114067 
L 258.262058 162.983694 
L 258.565372 170.262828 
L 258.868685 198.343923 
L 259.171999 277.765859 
L 259.475312 277.765859 
L 259.778625 295.780612 
L 260.081939 306.027374 
L 260.385252 170.262828 
L 260.688566 170.262828 
L 260.991879 313.600202 
L 261.295192 241.931515 
L 261.598506 242.061664 
L 261.901819 306.433333 
L 262.205132 241.931515 
L 262.508446 242.12662 
L 262.811759 306.433333 
L 263.115073 295.780583 
L 263.418386 241.931515 
L 263.721699 134.62359 
L 264.025013 242.12662 
L 264.328326 91.622378 
L 264.63164 224.111896 
L 264.934953 127.261616 
L 265.238266 277.765859 
L 265.54158 170.132364 
L 265.844893 134.428485 
L 266.148206 234.02872 
L 266.45152 199.265512 
L 266.754833 123.678182 
L 267.058147 123.678182 
L 267.664773 268.831698 
L 268.2714 123.678182 
L 268.574714 124.116771 
L 268.878027 188.18 
L 269.18134 188.618589 
L 269.484654 188.18 
L 270.09128 188.253264 
L 270.394594 123.751446 
L 270.697907 123.678182 
L 271.304534 268.62461 
L 271.607847 124.189637 
L 271.911161 188.18 
L 272.214474 188.18 
L 272.517788 268.880504 
L 272.821101 188.18 
L 273.124414 204.36649 
L 273.731041 349.141577 
L 274.034354 349.434545 
L 275.247608 349.434545 
L 275.854235 228.505856 
L 276.157548 188.18 
L 276.460861 177.446102 
L 276.764175 188.18 
L 277.067488 123.678182 
L 277.370802 349.369392 
L 277.674115 295.438705 
L 277.977428 188.18 
L 278.280742 188.545657 
L 278.584055 349.434545 
L 280.100622 349.434545 
L 280.403935 220.430909 
L 280.707249 349.434545 
L 281.010562 349.434545 
L 281.313876 220.430909 
L 281.617189 349.434545 
L 281.920502 349.434545 
L 282.223816 220.430909 
L 282.527129 220.430909 
L 282.830443 349.434545 
L 283.133756 220.430909 
L 283.437069 220.430909 
L 283.740383 349.434545 
L 284.650323 349.434545 
L 284.953636 220.430909 
L 285.25695 349.434545 
L 285.560263 349.434545 
L 285.863576 220.430909 
L 286.16689 349.434545 
L 286.470203 220.430909 
L 286.773517 349.434545 
L 287.683457 349.434545 
L 287.98677 220.430909 
L 288.290083 349.434545 
L 288.593397 349.434545 
L 288.89671 220.430909 
L 289.200024 349.434545 
L 291.019904 349.434545 
L 291.323217 220.430909 
L 291.626531 349.434545 
L 291.929844 220.430909 
L 292.233157 349.434545 
L 292.536471 349.434545 
L 292.839784 220.430909 
L 293.143098 349.434545 
L 293.446411 220.430909 
L 293.749724 349.434545 
L 294.053038 349.434545 
L 294.356351 220.430909 
L 294.659664 349.434545 
L 294.962978 349.434545 
L 295.266291 220.430909 
L 295.569605 349.434545 
L 295.872918 349.434545 
L 296.176231 220.430909 
L 296.479545 349.434545 
L 296.782858 349.434545 
L 297.086172 220.430909 
L 297.389485 349.434545 
L 297.692798 220.430909 
L 297.996112 349.434545 
L 298.602738 349.434545 
L 298.906052 220.430909 
L 299.209365 349.434545 
L 299.512679 349.434545 
L 299.815992 220.430909 
L 300.119305 349.434545 
L 301.635872 349.434545 
L 301.939186 220.430909 
L 302.242499 349.434545 
L 302.545812 220.430909 
L 302.849126 349.434545 
L 303.152439 220.430909 
L 304.062379 220.430909 
L 304.365693 349.434545 
L 304.669006 220.430909 
L 305.275633 220.430909 
L 305.578946 349.434545 
L 306.7922 349.434545 
L 307.095513 220.430909 
L 307.398827 349.434545 
L 307.70214 349.434545 
L 308.005453 220.430909 
L 308.308767 349.434545 
L 308.61208 349.434545 
L 308.915393 220.430909 
L 309.218707 349.434545 
L 309.52202 220.430909 
L 309.825334 349.434545 
L 310.735274 349.434545 
L 311.038587 220.430909 
L 311.341901 220.430909 
L 311.645214 349.434545 
L 311.948527 220.430909 
L 312.251841 349.434545 
L 312.858467 349.434545 
L 313.161781 220.430909 
L 313.465094 220.430909 
L 313.768408 349.434545 
L 315.891601 349.434545 
L 316.194915 220.430909 
L 316.498228 349.434545 
L 316.801541 220.430909 
L 317.104855 220.430909 
L 317.408168 349.434545 
L 318.014795 349.434545 
L 318.318108 220.430909 
L 318.924735 220.430909 
L 319.228049 349.434545 
L 319.531362 220.430909 
L 319.834675 349.434545 
L 320.137989 349.434545 
L 320.441302 220.430909 
L 320.744615 220.430909 
L 321.047929 349.434545 
L 321.351242 220.430909 
L 321.654556 349.434545 
L 322.867809 349.434545 
L 323.171123 220.430909 
L 323.474436 220.430909 
L 323.777749 349.434545 
L 326.204256 349.434545 
L 326.50757 220.430909 
L 326.810883 349.434545 
L 327.114196 220.430909 
L 327.41751 349.434545 
L 327.720823 220.430909 
L 328.024137 220.430909 
L 328.32745 349.434545 
L 328.630763 220.430909 
L 328.934077 349.434545 
L 329.23739 349.434545 
L 329.540704 220.430909 
L 329.844017 349.434545 
L 330.14733 220.430909 
L 330.450644 220.430909 
L 330.753957 349.434545 
L 331.360584 349.434545 
L 331.663897 220.430909 
L 332.270524 220.430909 
L 332.573837 349.434545 
L 332.877151 220.430909 
L 333.180464 220.430909 
L 333.483778 349.434545 
L 334.697031 349.434545 
L 335.000344 220.430909 
L 335.606971 220.430909 
L 335.910285 349.434545 
L 336.516911 349.434545 
L 336.820225 220.430909 
L 337.123538 349.434545 
L 337.426852 220.430909 
L 337.730165 349.434545 
L 339.246732 349.434545 
L 339.550045 220.430909 
L 339.853359 349.434545 
L 340.459985 349.434545 
L 340.763299 220.430909 
L 341.066612 349.434545 
L 341.369926 349.434545 
L 341.673239 220.430909 
L 342.279866 220.430909 
L 342.583179 349.434545 
L 344.099746 349.434545 
L 344.403059 220.430909 
L 344.706373 349.434545 
L 345.009686 220.430909 
L 345.312999 220.430909 
L 345.616313 349.434545 
L 345.919626 220.430909 
L 346.22294 349.434545 
L 346.526253 349.434545 
L 346.829566 220.430909 
L 347.13288 349.434545 
L 348.04282 349.434545 
L 348.346133 220.430909 
L 348.649447 220.430909 
L 348.95276 349.434545 
L 350.166014 349.434545 
L 350.469327 220.430909 
L 350.77264 349.434545 
L 351.075954 349.434545 
L 351.379267 220.430909 
L 352.289207 220.430909 
L 352.592521 349.434545 
L 353.199147 349.434545 
L 353.502461 220.430909 
L 354.412401 220.430909 
L 354.715714 349.434545 
L 357.142221 349.434545 
L 357.445535 220.430909 
L 357.748848 349.434545 
L 358.052162 349.434545 
L 358.355475 220.430909 
L 358.658788 349.434545 
L 358.962102 220.430909 
L 359.265415 349.434545 
L 361.085295 349.434545 
L 361.388609 220.430909 
L 361.691922 220.430909 
L 361.995236 349.434545 
L 362.601862 349.434545 
L 362.905176 220.430909 
L 363.208489 220.430909 
L 363.511802 349.434545 
L 364.725056 349.434545 
L 365.028369 220.430909 
L 365.331683 220.430909 
L 365.634996 349.434545 
L 366.241623 349.434545 
L 366.544936 220.430909 
L 366.84825 349.434545 
L 367.75819 349.434545 
L 368.061503 220.430909 
L 368.364817 349.434545 
L 368.66813 220.430909 
L 369.57807 220.430909 
L 369.881384 349.434545 
L 370.184697 220.430909 
L 370.48801 349.434545 
L 371.701264 349.434545 
L 372.004577 220.430909 
L 372.611204 220.430909 
L 372.914517 349.434545 
L 373.824458 349.434545 
L 374.127771 220.430909 
L 374.431084 349.434545 
L 374.734398 220.430909 
L 375.037711 349.434545 
L 375.341024 349.434545 
L 375.644338 220.430909 
L 375.947651 349.434545 
L 377.160905 349.434545 
L 377.464218 220.430909 
L 377.767532 349.434545 
L 378.070845 349.434545 
L 378.374158 220.430909 
L 378.677472 349.434545 
L 378.980785 349.434545 
L 379.284098 220.430909 
L 379.587412 220.430909 
L 379.890725 349.434545 
L 382.317232 349.434545 
L 382.620546 220.430909 
L 382.923859 349.434545 
L 383.227172 220.430909 
L 383.530486 220.430909 
L 383.833799 349.434545 
L 384.137113 220.430909 
L 384.440426 349.434545 
L 385.047053 349.434545 
L 385.350366 220.430909 
L 385.653679 349.434545 
L 386.260306 349.434545 
L 386.56362 220.430909 
L 386.866933 349.434545 
L 387.776873 349.434545 
L 388.080187 220.430909 
L 388.3835 349.434545 
L 389.29344 349.434545 
L 389.596753 220.430909 
L 389.900067 349.434545 
L 390.20338 220.430909 
L 390.506694 349.434545 
L 390.810007 349.434545 
L 391.11332 220.430909 
L 391.416634 220.430909 
L 391.719947 349.434545 
L 392.326574 349.434545 
L 392.629887 220.430909 
L 392.933201 349.434545 
L 393.236514 220.430909 
L 393.539827 220.430909 
L 393.843141 349.434545 
L 394.753081 349.434545 
L 395.056394 220.430909 
L 395.359708 349.434545 
L 395.663021 349.434545 
L 395.966335 220.430909 
L 396.269648 349.434545 
L 396.876275 349.434545 
L 397.179588 220.430909 
L 397.482901 349.434545 
L 398.089528 349.434545 
L 398.392842 220.430909 
L 398.696155 349.434545 
L 398.999468 349.434545 
L 399.302782 220.430909 
L 399.606095 349.434545 
L 401.729289 349.434545 
L 402.032602 220.430909 
L 402.335916 349.434545 
L 402.639229 220.430909 
L 402.942542 349.434545 
L 405.369049 349.434545 
L 405.672363 220.430909 
L 405.975676 220.430909 
L 406.27899 349.434545 
L 407.18893 349.434545 
L 407.492243 220.430909 
L 407.795556 220.430909 
L 408.09887 349.434545 
L 409.312123 349.434545 
L 409.615437 220.430909 
L 409.91875 349.434545 
L 410.222064 220.430909 
L 410.525377 220.430909 
L 410.82869 349.434545 
L 411.132004 220.430909 
L 411.435317 220.430909 
L 411.73863 349.434545 
L 413.558511 349.434545 
L 413.861824 220.430909 
L 414.165138 220.430909 
L 414.468451 349.434545 
L 415.075078 349.434545 
L 415.378391 220.430909 
L 415.681704 349.434545 
L 416.591645 349.434545 
L 416.894958 220.430909 
L 417.198271 220.430909 
L 417.501585 349.434545 
L 418.108211 349.434545 
L 418.411525 220.430909 
L 418.714838 349.434545 
L 419.321465 349.434545 
L 419.624778 220.430909 
L 419.928092 349.434545 
L 420.231405 220.430909 
L 420.534719 349.434545 
L 420.838032 220.430909 
L 421.141345 349.434545 
L 421.444659 220.430909 
L 421.747972 349.434545 
L 422.051285 220.430909 
L 422.354599 349.434545 
L 423.264539 349.434545 
L 423.567852 26.925455 
L 423.871166 348.457245 
L 424.174479 349.434545 
L 424.477793 349.434545 
L 424.781106 241.931515 
L 425.084419 220.606983 
L 425.387733 349.434545 
L 432.060627 349.434545 
L 432.36394 220.430909 
L 432.667254 349.434545 
L 432.970567 349.434545 
L 433.273881 91.450736 
L 433.577194 349.434545 
L 436.307014 349.434545 
L 436.610328 220.430909 
L 437.520268 220.430909 
L 437.823581 349.434545 
L 438.430208 349.434545 
L 438.733522 155.960372 
L 439.036835 349.434545 
L 439.340148 26.925455 
L 439.946775 349.434545 
L 445.406416 349.434545 
L 445.709729 220.430909 
L 446.013043 349.434545 
L 447.832923 349.434545 
L 448.136236 26.925455 
L 448.43955 349.434545 
L 448.742863 188.192217 
L 449.046177 107.558836 
L 449.34949 349.410113 
L 449.652803 26.925455 
L 449.956117 26.925455 
L 450.25943 134.428485 
L 450.562743 349.434545 
L 450.866057 134.428485 
L 451.472684 134.428485 
L 451.775997 349.434545 
L 452.07931 134.428485 
L 452.685937 134.428485 
L 452.989251 349.434545 
L 453.292564 134.428485 
L 453.899191 134.428485 
L 454.202504 349.434545 
L 454.505817 134.428485 
L 455.112444 134.428485 
L 455.415758 349.434545 
L 455.719071 134.428485 
L 456.022384 134.428485 
L 456.325698 349.434545 
L 458.145578 349.434545 
L 458.448891 241.931515 
L 458.752205 220.430909 
L 459.055518 349.434545 
L 459.358832 220.430909 
L 459.965458 220.430909 
L 460.268772 349.434545 
L 460.875399 349.434545 
L 461.178712 220.430909 
L 461.785339 220.430909 
L 462.088652 349.434545 
L 463.301906 349.434545 
L 463.605219 220.430909 
L 463.908532 349.434545 
L 470.278113 349.434545 
L 470.581427 26.925455 
L 470.88474 349.434545 
L 478.164261 349.434545 
L 478.467575 220.430909 
L 478.770888 349.434545 
L 482.107335 349.434545 
L 482.410649 220.430909 
L 482.713962 349.434545 
L 483.017276 220.430909 
L 483.320589 220.430909 
L 483.623902 349.434545 
L 483.927216 220.430909 
L 484.230529 220.430909 
L 484.533842 349.434545 
L 486.050409 349.434545 
L 486.050409 349.434545 
" style="fill:none;stroke:#1f77b4;stroke-linecap:square;stroke-width:1.5;"/>
   </g>
   <g id="patch_3">
    <path d="M 58.97 365.56 
L 58.97 10.8 
" style="fill:none;stroke:#000000;stroke-linecap:square;stroke-linejoin:miter;stroke-width:0.8;"/>
   </g>
   <g id="patch_4">
    <path d="M 506.387572 365.56 
L 506.387572 10.8 
" style="fill:none;stroke:#000000;stroke-linecap:square;stroke-linejoin:miter;stroke-width:0.8;"/>
   </g>
   <g id="patch_5">
    <path d="M 58.97 365.56 
L 506.387572 365.56 
" style="fill:none;stroke:#000000;stroke-linecap:square;stroke-linejoin:miter;stroke-width:0.8;"/>
   </g>
   <g id="patch_6">
    <path d="M 58.97 10.8 
L 506.387572 10.8 
" style="fill:none;stroke:#000000;stroke-linecap:square;stroke-linejoin:miter;stroke-width:0.8;"/>
   </g>
  </g>
 </g>
 <defs>
  <clipPath id="p426520e37c">
   <rect height="354.76" width="447.417572" x="58.97" y="10.8"/>
  </clipPath>
 </defs>
</svg>
