<?xml version="1.0" encoding="utf-8" standalone="no"?>
<!DOCTYPE svg PUBLIC "-//W3C//DTD SVG 1.1//EN"
  "http://www.w3.org/Graphics/SVG/1.1/DTD/svg11.dtd">
<!-- Created with matplotlib (https://matplotlib.org/) -->
<svg height="432pt" version="1.1" viewBox="0 0 540 432" width="540pt" xmlns="http://www.w3.org/2000/svg" xmlns:xlink="http://www.w3.org/1999/xlink">
 <defs>
  <style type="text/css">
*{stroke-linecap:butt;stroke-linejoin:round;}
  </style>
 </defs>
 <g id="figure_1">
  <g id="patch_1">
   <path d="M 0 432 
L 540 432 
L 540 0 
L 0 0 
z
" style="fill:#ffffff;"/>
  </g>
  <g id="axes_1">
   <g id="patch_2">
    <path d="M 63.74 365.56 
L 506.399833 365.56 
L 506.399833 66.6 
L 63.74 66.6 
z
" style="fill:#ffffff;"/>
   </g>
   <g id="matplotlib.axis_1">
    <g id="xtick_1">
     <g id="line2d_1">
      <defs>
       <path d="M 0 0 
L 0 3.5 
" id="m31468cc81b" style="stroke:#000000;stroke-width:0.8;"/>
      </defs>
      <g>
       <use style="stroke:#000000;stroke-width:0.8;" x="83.860902" xlink:href="#m31468cc81b" y="365.56"/>
      </g>
     </g>
     <g id="text_1">
      <!-- 0 -->
      <defs>
       <path d="M 31.78125 66.40625 
Q 24.171875 66.40625 20.328125 58.90625 
Q 16.5 51.421875 16.5 36.375 
Q 16.5 21.390625 20.328125 13.890625 
Q 24.171875 6.390625 31.78125 6.390625 
Q 39.453125 6.390625 43.28125 13.890625 
Q 47.125 21.390625 47.125 36.375 
Q 47.125 51.421875 43.28125 58.90625 
Q 39.453125 66.40625 31.78125 66.40625 
z
M 31.78125 74.21875 
Q 44.046875 74.21875 50.515625 64.515625 
Q 56.984375 54.828125 56.984375 36.375 
Q 56.984375 17.96875 50.515625 8.265625 
Q 44.046875 -1.421875 31.78125 -1.421875 
Q 19.53125 -1.421875 13.0625 8.265625 
Q 6.59375 17.96875 6.59375 36.375 
Q 6.59375 54.828125 13.0625 64.515625 
Q 19.53125 74.21875 31.78125 74.21875 
z
" id="DejaVuSans-48"/>
      </defs>
      <g transform="translate(77.498402 387.756875)scale(0.2 -0.2)">
       <use xlink:href="#DejaVuSans-48"/>
      </g>
     </g>
    </g>
    <g id="xtick_2">
     <g id="line2d_2">
      <g>
       <use style="stroke:#000000;stroke-width:0.8;" x="143.833782" xlink:href="#m31468cc81b" y="365.56"/>
      </g>
     </g>
     <g id="text_2">
      <!-- 200 -->
      <defs>
       <path d="M 19.1875 8.296875 
L 53.609375 8.296875 
L 53.609375 0 
L 7.328125 0 
L 7.328125 8.296875 
Q 12.9375 14.109375 22.625 23.890625 
Q 32.328125 33.6875 34.8125 36.53125 
Q 39.546875 41.84375 41.421875 45.53125 
Q 43.3125 49.21875 43.3125 52.78125 
Q 43.3125 58.59375 39.234375 62.25 
Q 35.15625 65.921875 28.609375 65.921875 
Q 23.96875 65.921875 18.8125 64.3125 
Q 13.671875 62.703125 7.8125 59.421875 
L 7.8125 69.390625 
Q 13.765625 71.78125 18.9375 73 
Q 24.125 74.21875 28.421875 74.21875 
Q 39.75 74.21875 46.484375 68.546875 
Q 53.21875 62.890625 53.21875 53.421875 
Q 53.21875 48.921875 51.53125 44.890625 
Q 49.859375 40.875 45.40625 35.40625 
Q 44.1875 33.984375 37.640625 27.21875 
Q 31.109375 20.453125 19.1875 8.296875 
z
" id="DejaVuSans-50"/>
      </defs>
      <g transform="translate(124.746282 387.756875)scale(0.2 -0.2)">
       <use xlink:href="#DejaVuSans-50"/>
       <use x="63.623047" xlink:href="#DejaVuSans-48"/>
       <use x="127.246094" xlink:href="#DejaVuSans-48"/>
      </g>
     </g>
    </g>
    <g id="xtick_3">
     <g id="line2d_3">
      <g>
       <use style="stroke:#000000;stroke-width:0.8;" x="203.806663" xlink:href="#m31468cc81b" y="365.56"/>
      </g>
     </g>
     <g id="text_3">
      <!-- 400 -->
      <defs>
       <path d="M 37.796875 64.3125 
L 12.890625 25.390625 
L 37.796875 25.390625 
z
M 35.203125 72.90625 
L 47.609375 72.90625 
L 47.609375 25.390625 
L 58.015625 25.390625 
L 58.015625 17.1875 
L 47.609375 17.1875 
L 47.609375 0 
L 37.796875 0 
L 37.796875 17.1875 
L 4.890625 17.1875 
L 4.890625 26.703125 
z
" id="DejaVuSans-52"/>
      </defs>
      <g transform="translate(184.719163 387.756875)scale(0.2 -0.2)">
       <use xlink:href="#DejaVuSans-52"/>
       <use x="63.623047" xlink:href="#DejaVuSans-48"/>
       <use x="127.246094" xlink:href="#DejaVuSans-48"/>
      </g>
     </g>
    </g>
    <g id="xtick_4">
     <g id="line2d_4">
      <g>
       <use style="stroke:#000000;stroke-width:0.8;" x="263.779544" xlink:href="#m31468cc81b" y="365.56"/>
      </g>
     </g>
     <g id="text_4">
      <!-- 600 -->
      <defs>
       <path d="M 33.015625 40.375 
Q 26.375 40.375 22.484375 35.828125 
Q 18.609375 31.296875 18.609375 23.390625 
Q 18.609375 15.53125 22.484375 10.953125 
Q 26.375 6.390625 33.015625 6.390625 
Q 39.65625 6.390625 43.53125 10.953125 
Q 47.40625 15.53125 47.40625 23.390625 
Q 47.40625 31.296875 43.53125 35.828125 
Q 39.65625 40.375 33.015625 40.375 
z
M 52.59375 71.296875 
L 52.59375 62.3125 
Q 48.875 64.0625 45.09375 64.984375 
Q 41.3125 65.921875 37.59375 65.921875 
Q 27.828125 65.921875 22.671875 59.328125 
Q 17.53125 52.734375 16.796875 39.40625 
Q 19.671875 43.65625 24.015625 45.921875 
Q 28.375 48.1875 33.59375 48.1875 
Q 44.578125 48.1875 50.953125 41.515625 
Q 57.328125 34.859375 57.328125 23.390625 
Q 57.328125 12.15625 50.6875 5.359375 
Q 44.046875 -1.421875 33.015625 -1.421875 
Q 20.359375 -1.421875 13.671875 8.265625 
Q 6.984375 17.96875 6.984375 36.375 
Q 6.984375 53.65625 15.1875 63.9375 
Q 23.390625 74.21875 37.203125 74.21875 
Q 40.921875 74.21875 44.703125 73.484375 
Q 48.484375 72.75 52.59375 71.296875 
z
" id="DejaVuSans-54"/>
      </defs>
      <g transform="translate(244.692044 387.756875)scale(0.2 -0.2)">
       <use xlink:href="#DejaVuSans-54"/>
       <use x="63.623047" xlink:href="#DejaVuSans-48"/>
       <use x="127.246094" xlink:href="#DejaVuSans-48"/>
      </g>
     </g>
    </g>
    <g id="xtick_5">
     <g id="line2d_5">
      <g>
       <use style="stroke:#000000;stroke-width:0.8;" x="323.752425" xlink:href="#m31468cc81b" y="365.56"/>
      </g>
     </g>
     <g id="text_5">
      <!-- 800 -->
      <defs>
       <path d="M 31.78125 34.625 
Q 24.75 34.625 20.71875 30.859375 
Q 16.703125 27.09375 16.703125 20.515625 
Q 16.703125 13.921875 20.71875 10.15625 
Q 24.75 6.390625 31.78125 6.390625 
Q 38.8125 6.390625 42.859375 10.171875 
Q 46.921875 13.96875 46.921875 20.515625 
Q 46.921875 27.09375 42.890625 30.859375 
Q 38.875 34.625 31.78125 34.625 
z
M 21.921875 38.8125 
Q 15.578125 40.375 12.03125 44.71875 
Q 8.5 49.078125 8.5 55.328125 
Q 8.5 64.0625 14.71875 69.140625 
Q 20.953125 74.21875 31.78125 74.21875 
Q 42.671875 74.21875 48.875 69.140625 
Q 55.078125 64.0625 55.078125 55.328125 
Q 55.078125 49.078125 51.53125 44.71875 
Q 48 40.375 41.703125 38.8125 
Q 48.828125 37.15625 52.796875 32.3125 
Q 56.78125 27.484375 56.78125 20.515625 
Q 56.78125 9.90625 50.3125 4.234375 
Q 43.84375 -1.421875 31.78125 -1.421875 
Q 19.734375 -1.421875 13.25 4.234375 
Q 6.78125 9.90625 6.78125 20.515625 
Q 6.78125 27.484375 10.78125 32.3125 
Q 14.796875 37.15625 21.921875 38.8125 
z
M 18.3125 54.390625 
Q 18.3125 48.734375 21.84375 45.5625 
Q 25.390625 42.390625 31.78125 42.390625 
Q 38.140625 42.390625 41.71875 45.5625 
Q 45.3125 48.734375 45.3125 54.390625 
Q 45.3125 60.0625 41.71875 63.234375 
Q 38.140625 66.40625 31.78125 66.40625 
Q 25.390625 66.40625 21.84375 63.234375 
Q 18.3125 60.0625 18.3125 54.390625 
z
" id="DejaVuSans-56"/>
      </defs>
      <g transform="translate(304.664925 387.756875)scale(0.2 -0.2)">
       <use xlink:href="#DejaVuSans-56"/>
       <use x="63.623047" xlink:href="#DejaVuSans-48"/>
       <use x="127.246094" xlink:href="#DejaVuSans-48"/>
      </g>
     </g>
    </g>
    <g id="xtick_6">
     <g id="line2d_6">
      <g>
       <use style="stroke:#000000;stroke-width:0.8;" x="383.725306" xlink:href="#m31468cc81b" y="365.56"/>
      </g>
     </g>
     <g id="text_6">
      <!-- 1000 -->
      <defs>
       <path d="M 12.40625 8.296875 
L 28.515625 8.296875 
L 28.515625 63.921875 
L 10.984375 60.40625 
L 10.984375 69.390625 
L 28.421875 72.90625 
L 38.28125 72.90625 
L 38.28125 8.296875 
L 54.390625 8.296875 
L 54.390625 0 
L 12.40625 0 
z
" id="DejaVuSans-49"/>
      </defs>
      <g transform="translate(358.275306 387.756875)scale(0.2 -0.2)">
       <use xlink:href="#DejaVuSans-49"/>
       <use x="63.623047" xlink:href="#DejaVuSans-48"/>
       <use x="127.246094" xlink:href="#DejaVuSans-48"/>
       <use x="190.869141" xlink:href="#DejaVuSans-48"/>
      </g>
     </g>
    </g>
    <g id="xtick_7">
     <g id="line2d_7">
      <g>
       <use style="stroke:#000000;stroke-width:0.8;" x="443.698186" xlink:href="#m31468cc81b" y="365.56"/>
      </g>
     </g>
     <g id="text_7">
      <!-- 1200 -->
      <g transform="translate(418.248186 387.756875)scale(0.2 -0.2)">
       <use xlink:href="#DejaVuSans-49"/>
       <use x="63.623047" xlink:href="#DejaVuSans-50"/>
       <use x="127.246094" xlink:href="#DejaVuSans-48"/>
       <use x="190.869141" xlink:href="#DejaVuSans-48"/>
      </g>
     </g>
    </g>
    <g id="xtick_8">
     <g id="line2d_8">
      <g>
       <use style="stroke:#000000;stroke-width:0.8;" x="503.671067" xlink:href="#m31468cc81b" y="365.56"/>
      </g>
     </g>
     <g id="text_8">
      <!-- 1400 -->
      <g transform="translate(478.221067 387.756875)scale(0.2 -0.2)">
       <use xlink:href="#DejaVuSans-49"/>
       <use x="63.623047" xlink:href="#DejaVuSans-52"/>
       <use x="127.246094" xlink:href="#DejaVuSans-48"/>
       <use x="190.869141" xlink:href="#DejaVuSans-48"/>
      </g>
     </g>
    </g>
    <g id="text_9">
     <!-- # of games -->
     <defs>
      <path d="M 51.125 44 
L 36.921875 44 
L 32.8125 27.6875 
L 47.125 27.6875 
z
M 43.796875 71.78125 
L 38.71875 51.515625 
L 52.984375 51.515625 
L 58.109375 71.78125 
L 65.921875 71.78125 
L 60.890625 51.515625 
L 76.125 51.515625 
L 76.125 44 
L 58.984375 44 
L 54.984375 27.6875 
L 70.515625 27.6875 
L 70.515625 20.21875 
L 53.078125 20.21875 
L 48 0 
L 40.1875 0 
L 45.21875 20.21875 
L 30.90625 20.21875 
L 25.875 0 
L 18.015625 0 
L 23.09375 20.21875 
L 7.71875 20.21875 
L 7.71875 27.6875 
L 24.90625 27.6875 
L 29 44 
L 13.28125 44 
L 13.28125 51.515625 
L 30.90625 51.515625 
L 35.890625 71.78125 
z
" id="DejaVuSans-35"/>
      <path id="DejaVuSans-32"/>
      <path d="M 30.609375 48.390625 
Q 23.390625 48.390625 19.1875 42.75 
Q 14.984375 37.109375 14.984375 27.296875 
Q 14.984375 17.484375 19.15625 11.84375 
Q 23.34375 6.203125 30.609375 6.203125 
Q 37.796875 6.203125 41.984375 11.859375 
Q 46.1875 17.53125 46.1875 27.296875 
Q 46.1875 37.015625 41.984375 42.703125 
Q 37.796875 48.390625 30.609375 48.390625 
z
M 30.609375 56 
Q 42.328125 56 49.015625 48.375 
Q 55.71875 40.765625 55.71875 27.296875 
Q 55.71875 13.875 49.015625 6.21875 
Q 42.328125 -1.421875 30.609375 -1.421875 
Q 18.84375 -1.421875 12.171875 6.21875 
Q 5.515625 13.875 5.515625 27.296875 
Q 5.515625 40.765625 12.171875 48.375 
Q 18.84375 56 30.609375 56 
z
" id="DejaVuSans-111"/>
      <path d="M 37.109375 75.984375 
L 37.109375 68.5 
L 28.515625 68.5 
Q 23.6875 68.5 21.796875 66.546875 
Q 19.921875 64.59375 19.921875 59.515625 
L 19.921875 54.6875 
L 34.71875 54.6875 
L 34.71875 47.703125 
L 19.921875 47.703125 
L 19.921875 0 
L 10.890625 0 
L 10.890625 47.703125 
L 2.296875 47.703125 
L 2.296875 54.6875 
L 10.890625 54.6875 
L 10.890625 58.5 
Q 10.890625 67.625 15.140625 71.796875 
Q 19.390625 75.984375 28.609375 75.984375 
z
" id="DejaVuSans-102"/>
      <path d="M 45.40625 27.984375 
Q 45.40625 37.75 41.375 43.109375 
Q 37.359375 48.484375 30.078125 48.484375 
Q 22.859375 48.484375 18.828125 43.109375 
Q 14.796875 37.75 14.796875 27.984375 
Q 14.796875 18.265625 18.828125 12.890625 
Q 22.859375 7.515625 30.078125 7.515625 
Q 37.359375 7.515625 41.375 12.890625 
Q 45.40625 18.265625 45.40625 27.984375 
z
M 54.390625 6.78125 
Q 54.390625 -7.171875 48.1875 -13.984375 
Q 42 -20.796875 29.203125 -20.796875 
Q 24.46875 -20.796875 20.265625 -20.09375 
Q 16.0625 -19.390625 12.109375 -17.921875 
L 12.109375 -9.1875 
Q 16.0625 -11.328125 19.921875 -12.34375 
Q 23.78125 -13.375 27.78125 -13.375 
Q 36.625 -13.375 41.015625 -8.765625 
Q 45.40625 -4.15625 45.40625 5.171875 
L 45.40625 9.625 
Q 42.625 4.78125 38.28125 2.390625 
Q 33.9375 0 27.875 0 
Q 17.828125 0 11.671875 7.65625 
Q 5.515625 15.328125 5.515625 27.984375 
Q 5.515625 40.671875 11.671875 48.328125 
Q 17.828125 56 27.875 56 
Q 33.9375 56 38.28125 53.609375 
Q 42.625 51.21875 45.40625 46.390625 
L 45.40625 54.6875 
L 54.390625 54.6875 
z
" id="DejaVuSans-103"/>
      <path d="M 34.28125 27.484375 
Q 23.390625 27.484375 19.1875 25 
Q 14.984375 22.515625 14.984375 16.5 
Q 14.984375 11.71875 18.140625 8.90625 
Q 21.296875 6.109375 26.703125 6.109375 
Q 34.1875 6.109375 38.703125 11.40625 
Q 43.21875 16.703125 43.21875 25.484375 
L 43.21875 27.484375 
z
M 52.203125 31.203125 
L 52.203125 0 
L 43.21875 0 
L 43.21875 8.296875 
Q 40.140625 3.328125 35.546875 0.953125 
Q 30.953125 -1.421875 24.3125 -1.421875 
Q 15.921875 -1.421875 10.953125 3.296875 
Q 6 8.015625 6 15.921875 
Q 6 25.140625 12.171875 29.828125 
Q 18.359375 34.515625 30.609375 34.515625 
L 43.21875 34.515625 
L 43.21875 35.40625 
Q 43.21875 41.609375 39.140625 45 
Q 35.0625 48.390625 27.6875 48.390625 
Q 23 48.390625 18.546875 47.265625 
Q 14.109375 46.140625 10.015625 43.890625 
L 10.015625 52.203125 
Q 14.9375 54.109375 19.578125 55.046875 
Q 24.21875 56 28.609375 56 
Q 40.484375 56 46.34375 49.84375 
Q 52.203125 43.703125 52.203125 31.203125 
z
" id="DejaVuSans-97"/>
      <path d="M 52 44.1875 
Q 55.375 50.25 60.0625 53.125 
Q 64.75 56 71.09375 56 
Q 79.640625 56 84.28125 50.015625 
Q 88.921875 44.046875 88.921875 33.015625 
L 88.921875 0 
L 79.890625 0 
L 79.890625 32.71875 
Q 79.890625 40.578125 77.09375 44.375 
Q 74.3125 48.1875 68.609375 48.1875 
Q 61.625 48.1875 57.5625 43.546875 
Q 53.515625 38.921875 53.515625 30.90625 
L 53.515625 0 
L 44.484375 0 
L 44.484375 32.71875 
Q 44.484375 40.625 41.703125 44.40625 
Q 38.921875 48.1875 33.109375 48.1875 
Q 26.21875 48.1875 22.15625 43.53125 
Q 18.109375 38.875 18.109375 30.90625 
L 18.109375 0 
L 9.078125 0 
L 9.078125 54.6875 
L 18.109375 54.6875 
L 18.109375 46.1875 
Q 21.1875 51.21875 25.484375 53.609375 
Q 29.78125 56 35.6875 56 
Q 41.65625 56 45.828125 52.96875 
Q 50 49.953125 52 44.1875 
z
" id="DejaVuSans-109"/>
      <path d="M 56.203125 29.59375 
L 56.203125 25.203125 
L 14.890625 25.203125 
Q 15.484375 15.921875 20.484375 11.0625 
Q 25.484375 6.203125 34.421875 6.203125 
Q 39.59375 6.203125 44.453125 7.46875 
Q 49.3125 8.734375 54.109375 11.28125 
L 54.109375 2.78125 
Q 49.265625 0.734375 44.1875 -0.34375 
Q 39.109375 -1.421875 33.890625 -1.421875 
Q 20.796875 -1.421875 13.15625 6.1875 
Q 5.515625 13.8125 5.515625 26.8125 
Q 5.515625 40.234375 12.765625 48.109375 
Q 20.015625 56 32.328125 56 
Q 43.359375 56 49.78125 48.890625 
Q 56.203125 41.796875 56.203125 29.59375 
z
M 47.21875 32.234375 
Q 47.125 39.59375 43.09375 43.984375 
Q 39.0625 48.390625 32.421875 48.390625 
Q 24.90625 48.390625 20.390625 44.140625 
Q 15.875 39.890625 15.1875 32.171875 
z
" id="DejaVuSans-101"/>
      <path d="M 44.28125 53.078125 
L 44.28125 44.578125 
Q 40.484375 46.53125 36.375 47.5 
Q 32.28125 48.484375 27.875 48.484375 
Q 21.1875 48.484375 17.84375 46.4375 
Q 14.5 44.390625 14.5 40.28125 
Q 14.5 37.15625 16.890625 35.375 
Q 19.28125 33.59375 26.515625 31.984375 
L 29.59375 31.296875 
Q 39.15625 29.25 43.1875 25.515625 
Q 47.21875 21.78125 47.21875 15.09375 
Q 47.21875 7.46875 41.1875 3.015625 
Q 35.15625 -1.421875 24.609375 -1.421875 
Q 20.21875 -1.421875 15.453125 -0.5625 
Q 10.6875 0.296875 5.421875 2 
L 5.421875 11.28125 
Q 10.40625 8.6875 15.234375 7.390625 
Q 20.0625 6.109375 24.8125 6.109375 
Q 31.15625 6.109375 34.5625 8.28125 
Q 37.984375 10.453125 37.984375 14.40625 
Q 37.984375 18.0625 35.515625 20.015625 
Q 33.0625 21.96875 24.703125 23.78125 
L 21.578125 24.515625 
Q 13.234375 26.265625 9.515625 29.90625 
Q 5.8125 33.546875 5.8125 39.890625 
Q 5.8125 47.609375 11.28125 51.796875 
Q 16.75 56 26.8125 56 
Q 31.78125 56 36.171875 55.265625 
Q 40.578125 54.546875 44.28125 53.078125 
z
" id="DejaVuSans-115"/>
     </defs>
     <g transform="translate(212.626557 414.912344)scale(0.25 -0.25)">
      <use xlink:href="#DejaVuSans-35"/>
      <use x="83.789062" xlink:href="#DejaVuSans-32"/>
      <use x="115.576172" xlink:href="#DejaVuSans-111"/>
      <use x="176.757812" xlink:href="#DejaVuSans-102"/>
      <use x="211.962891" xlink:href="#DejaVuSans-32"/>
      <use x="243.75" xlink:href="#DejaVuSans-103"/>
      <use x="307.226562" xlink:href="#DejaVuSans-97"/>
      <use x="368.505859" xlink:href="#DejaVuSans-109"/>
      <use x="465.917969" xlink:href="#DejaVuSans-101"/>
      <use x="527.441406" xlink:href="#DejaVuSans-115"/>
     </g>
    </g>
   </g>
   <g id="matplotlib.axis_2">
    <g id="ytick_1">
     <g id="line2d_9">
      <defs>
       <path d="M 0 0 
L -3.5 0 
" id="mcf4cb3a833" style="stroke:#000000;stroke-width:0.8;"/>
      </defs>
      <g>
       <use style="stroke:#000000;stroke-width:0.8;" x="63.74" xlink:href="#mcf4cb3a833" y="351.970909"/>
      </g>
     </g>
     <g id="text_10">
      <!-- 0 -->
      <g transform="translate(44.015 359.569347)scale(0.2 -0.2)">
       <use xlink:href="#DejaVuSans-48"/>
      </g>
     </g>
    </g>
    <g id="ytick_2">
     <g id="line2d_10">
      <g>
       <use style="stroke:#000000;stroke-width:0.8;" x="63.74" xlink:href="#mcf4cb3a833" y="317.998182"/>
      </g>
     </g>
     <g id="text_11">
      <!-- 5 -->
      <defs>
       <path d="M 10.796875 72.90625 
L 49.515625 72.90625 
L 49.515625 64.59375 
L 19.828125 64.59375 
L 19.828125 46.734375 
Q 21.96875 47.46875 24.109375 47.828125 
Q 26.265625 48.1875 28.421875 48.1875 
Q 40.625 48.1875 47.75 41.5 
Q 54.890625 34.8125 54.890625 23.390625 
Q 54.890625 11.625 47.5625 5.09375 
Q 40.234375 -1.421875 26.90625 -1.421875 
Q 22.3125 -1.421875 17.546875 -0.640625 
Q 12.796875 0.140625 7.71875 1.703125 
L 7.71875 11.625 
Q 12.109375 9.234375 16.796875 8.0625 
Q 21.484375 6.890625 26.703125 6.890625 
Q 35.15625 6.890625 40.078125 11.328125 
Q 45.015625 15.765625 45.015625 23.390625 
Q 45.015625 31 40.078125 35.4375 
Q 35.15625 39.890625 26.703125 39.890625 
Q 22.75 39.890625 18.8125 39.015625 
Q 14.890625 38.140625 10.796875 36.28125 
z
" id="DejaVuSans-53"/>
      </defs>
      <g transform="translate(44.015 325.596619)scale(0.2 -0.2)">
       <use xlink:href="#DejaVuSans-53"/>
      </g>
     </g>
    </g>
    <g id="ytick_3">
     <g id="line2d_11">
      <g>
       <use style="stroke:#000000;stroke-width:0.8;" x="63.74" xlink:href="#mcf4cb3a833" y="284.025455"/>
      </g>
     </g>
     <g id="text_12">
      <!-- 10 -->
      <g transform="translate(31.29 291.623892)scale(0.2 -0.2)">
       <use xlink:href="#DejaVuSans-49"/>
       <use x="63.623047" xlink:href="#DejaVuSans-48"/>
      </g>
     </g>
    </g>
    <g id="ytick_4">
     <g id="line2d_12">
      <g>
       <use style="stroke:#000000;stroke-width:0.8;" x="63.74" xlink:href="#mcf4cb3a833" y="250.052727"/>
      </g>
     </g>
     <g id="text_13">
      <!-- 15 -->
      <g transform="translate(31.29 257.651165)scale(0.2 -0.2)">
       <use xlink:href="#DejaVuSans-49"/>
       <use x="63.623047" xlink:href="#DejaVuSans-53"/>
      </g>
     </g>
    </g>
    <g id="ytick_5">
     <g id="line2d_13">
      <g>
       <use style="stroke:#000000;stroke-width:0.8;" x="63.74" xlink:href="#mcf4cb3a833" y="216.08"/>
      </g>
     </g>
     <g id="text_14">
      <!-- 20 -->
      <g transform="translate(31.29 223.678437)scale(0.2 -0.2)">
       <use xlink:href="#DejaVuSans-50"/>
       <use x="63.623047" xlink:href="#DejaVuSans-48"/>
      </g>
     </g>
    </g>
    <g id="ytick_6">
     <g id="line2d_14">
      <g>
       <use style="stroke:#000000;stroke-width:0.8;" x="63.74" xlink:href="#mcf4cb3a833" y="182.107273"/>
      </g>
     </g>
     <g id="text_15">
      <!-- 25 -->
      <g transform="translate(31.29 189.70571)scale(0.2 -0.2)">
       <use xlink:href="#DejaVuSans-50"/>
       <use x="63.623047" xlink:href="#DejaVuSans-53"/>
      </g>
     </g>
    </g>
    <g id="ytick_7">
     <g id="line2d_15">
      <g>
       <use style="stroke:#000000;stroke-width:0.8;" x="63.74" xlink:href="#mcf4cb3a833" y="148.134545"/>
      </g>
     </g>
     <g id="text_16">
      <!-- 30 -->
      <defs>
       <path d="M 40.578125 39.3125 
Q 47.65625 37.796875 51.625 33 
Q 55.609375 28.21875 55.609375 21.1875 
Q 55.609375 10.40625 48.1875 4.484375 
Q 40.765625 -1.421875 27.09375 -1.421875 
Q 22.515625 -1.421875 17.65625 -0.515625 
Q 12.796875 0.390625 7.625 2.203125 
L 7.625 11.71875 
Q 11.71875 9.328125 16.59375 8.109375 
Q 21.484375 6.890625 26.8125 6.890625 
Q 36.078125 6.890625 40.9375 10.546875 
Q 45.796875 14.203125 45.796875 21.1875 
Q 45.796875 27.640625 41.28125 31.265625 
Q 36.765625 34.90625 28.71875 34.90625 
L 20.21875 34.90625 
L 20.21875 43.015625 
L 29.109375 43.015625 
Q 36.375 43.015625 40.234375 45.921875 
Q 44.09375 48.828125 44.09375 54.296875 
Q 44.09375 59.90625 40.109375 62.90625 
Q 36.140625 65.921875 28.71875 65.921875 
Q 24.65625 65.921875 20.015625 65.03125 
Q 15.375 64.15625 9.8125 62.3125 
L 9.8125 71.09375 
Q 15.4375 72.65625 20.34375 73.4375 
Q 25.25 74.21875 29.59375 74.21875 
Q 40.828125 74.21875 47.359375 69.109375 
Q 53.90625 64.015625 53.90625 55.328125 
Q 53.90625 49.265625 50.4375 45.09375 
Q 46.96875 40.921875 40.578125 39.3125 
z
" id="DejaVuSans-51"/>
      </defs>
      <g transform="translate(31.29 155.732983)scale(0.2 -0.2)">
       <use xlink:href="#DejaVuSans-51"/>
       <use x="63.623047" xlink:href="#DejaVuSans-48"/>
      </g>
     </g>
    </g>
    <g id="ytick_8">
     <g id="line2d_16">
      <g>
       <use style="stroke:#000000;stroke-width:0.8;" x="63.74" xlink:href="#mcf4cb3a833" y="114.161818"/>
      </g>
     </g>
     <g id="text_17">
      <!-- 35 -->
      <g transform="translate(31.29 121.760256)scale(0.2 -0.2)">
       <use xlink:href="#DejaVuSans-51"/>
       <use x="63.623047" xlink:href="#DejaVuSans-53"/>
      </g>
     </g>
    </g>
    <g id="ytick_9">
     <g id="line2d_17">
      <g>
       <use style="stroke:#000000;stroke-width:0.8;" x="63.74" xlink:href="#mcf4cb3a833" y="80.189091"/>
      </g>
     </g>
     <g id="text_18">
      <!-- 40 -->
      <g transform="translate(31.29 87.787528)scale(0.2 -0.2)">
       <use xlink:href="#DejaVuSans-52"/>
       <use x="63.623047" xlink:href="#DejaVuSans-48"/>
      </g>
     </g>
    </g>
    <g id="text_19">
     <!-- Number of Attackers in CKC -->
     <defs>
      <path d="M 9.8125 72.90625 
L 23.09375 72.90625 
L 55.421875 11.921875 
L 55.421875 72.90625 
L 64.984375 72.90625 
L 64.984375 0 
L 51.703125 0 
L 19.390625 60.984375 
L 19.390625 0 
L 9.8125 0 
z
" id="DejaVuSans-78"/>
      <path d="M 8.5 21.578125 
L 8.5 54.6875 
L 17.484375 54.6875 
L 17.484375 21.921875 
Q 17.484375 14.15625 20.5 10.265625 
Q 23.53125 6.390625 29.59375 6.390625 
Q 36.859375 6.390625 41.078125 11.03125 
Q 45.3125 15.671875 45.3125 23.6875 
L 45.3125 54.6875 
L 54.296875 54.6875 
L 54.296875 0 
L 45.3125 0 
L 45.3125 8.40625 
Q 42.046875 3.421875 37.71875 1 
Q 33.40625 -1.421875 27.6875 -1.421875 
Q 18.265625 -1.421875 13.375 4.4375 
Q 8.5 10.296875 8.5 21.578125 
z
M 31.109375 56 
z
" id="DejaVuSans-117"/>
      <path d="M 48.6875 27.296875 
Q 48.6875 37.203125 44.609375 42.84375 
Q 40.53125 48.484375 33.40625 48.484375 
Q 26.265625 48.484375 22.1875 42.84375 
Q 18.109375 37.203125 18.109375 27.296875 
Q 18.109375 17.390625 22.1875 11.75 
Q 26.265625 6.109375 33.40625 6.109375 
Q 40.53125 6.109375 44.609375 11.75 
Q 48.6875 17.390625 48.6875 27.296875 
z
M 18.109375 46.390625 
Q 20.953125 51.265625 25.265625 53.625 
Q 29.59375 56 35.59375 56 
Q 45.5625 56 51.78125 48.09375 
Q 58.015625 40.1875 58.015625 27.296875 
Q 58.015625 14.40625 51.78125 6.484375 
Q 45.5625 -1.421875 35.59375 -1.421875 
Q 29.59375 -1.421875 25.265625 0.953125 
Q 20.953125 3.328125 18.109375 8.203125 
L 18.109375 0 
L 9.078125 0 
L 9.078125 75.984375 
L 18.109375 75.984375 
z
" id="DejaVuSans-98"/>
      <path d="M 41.109375 46.296875 
Q 39.59375 47.171875 37.8125 47.578125 
Q 36.03125 48 33.890625 48 
Q 26.265625 48 22.1875 43.046875 
Q 18.109375 38.09375 18.109375 28.8125 
L 18.109375 0 
L 9.078125 0 
L 9.078125 54.6875 
L 18.109375 54.6875 
L 18.109375 46.1875 
Q 20.953125 51.171875 25.484375 53.578125 
Q 30.03125 56 36.53125 56 
Q 37.453125 56 38.578125 55.875 
Q 39.703125 55.765625 41.0625 55.515625 
z
" id="DejaVuSans-114"/>
      <path d="M 34.1875 63.1875 
L 20.796875 26.90625 
L 47.609375 26.90625 
z
M 28.609375 72.90625 
L 39.796875 72.90625 
L 67.578125 0 
L 57.328125 0 
L 50.6875 18.703125 
L 17.828125 18.703125 
L 11.1875 0 
L 0.78125 0 
z
" id="DejaVuSans-65"/>
      <path d="M 18.3125 70.21875 
L 18.3125 54.6875 
L 36.8125 54.6875 
L 36.8125 47.703125 
L 18.3125 47.703125 
L 18.3125 18.015625 
Q 18.3125 11.328125 20.140625 9.421875 
Q 21.96875 7.515625 27.59375 7.515625 
L 36.8125 7.515625 
L 36.8125 0 
L 27.59375 0 
Q 17.1875 0 13.234375 3.875 
Q 9.28125 7.765625 9.28125 18.015625 
L 9.28125 47.703125 
L 2.6875 47.703125 
L 2.6875 54.6875 
L 9.28125 54.6875 
L 9.28125 70.21875 
z
" id="DejaVuSans-116"/>
      <path d="M 48.78125 52.59375 
L 48.78125 44.1875 
Q 44.96875 46.296875 41.140625 47.34375 
Q 37.3125 48.390625 33.40625 48.390625 
Q 24.65625 48.390625 19.8125 42.84375 
Q 14.984375 37.3125 14.984375 27.296875 
Q 14.984375 17.28125 19.8125 11.734375 
Q 24.65625 6.203125 33.40625 6.203125 
Q 37.3125 6.203125 41.140625 7.25 
Q 44.96875 8.296875 48.78125 10.40625 
L 48.78125 2.09375 
Q 45.015625 0.34375 40.984375 -0.53125 
Q 36.96875 -1.421875 32.421875 -1.421875 
Q 20.0625 -1.421875 12.78125 6.34375 
Q 5.515625 14.109375 5.515625 27.296875 
Q 5.515625 40.671875 12.859375 48.328125 
Q 20.21875 56 33.015625 56 
Q 37.15625 56 41.109375 55.140625 
Q 45.0625 54.296875 48.78125 52.59375 
z
" id="DejaVuSans-99"/>
      <path d="M 9.078125 75.984375 
L 18.109375 75.984375 
L 18.109375 31.109375 
L 44.921875 54.6875 
L 56.390625 54.6875 
L 27.390625 29.109375 
L 57.625 0 
L 45.90625 0 
L 18.109375 26.703125 
L 18.109375 0 
L 9.078125 0 
z
" id="DejaVuSans-107"/>
      <path d="M 9.421875 54.6875 
L 18.40625 54.6875 
L 18.40625 0 
L 9.421875 0 
z
M 9.421875 75.984375 
L 18.40625 75.984375 
L 18.40625 64.59375 
L 9.421875 64.59375 
z
" id="DejaVuSans-105"/>
      <path d="M 54.890625 33.015625 
L 54.890625 0 
L 45.90625 0 
L 45.90625 32.71875 
Q 45.90625 40.484375 42.875 44.328125 
Q 39.84375 48.1875 33.796875 48.1875 
Q 26.515625 48.1875 22.3125 43.546875 
Q 18.109375 38.921875 18.109375 30.90625 
L 18.109375 0 
L 9.078125 0 
L 9.078125 54.6875 
L 18.109375 54.6875 
L 18.109375 46.1875 
Q 21.34375 51.125 25.703125 53.5625 
Q 30.078125 56 35.796875 56 
Q 45.21875 56 50.046875 50.171875 
Q 54.890625 44.34375 54.890625 33.015625 
z
" id="DejaVuSans-110"/>
      <path d="M 64.40625 67.28125 
L 64.40625 56.890625 
Q 59.421875 61.53125 53.78125 63.8125 
Q 48.140625 66.109375 41.796875 66.109375 
Q 29.296875 66.109375 22.65625 58.46875 
Q 16.015625 50.828125 16.015625 36.375 
Q 16.015625 21.96875 22.65625 14.328125 
Q 29.296875 6.6875 41.796875 6.6875 
Q 48.140625 6.6875 53.78125 8.984375 
Q 59.421875 11.28125 64.40625 15.921875 
L 64.40625 5.609375 
Q 59.234375 2.09375 53.4375 0.328125 
Q 47.65625 -1.421875 41.21875 -1.421875 
Q 24.65625 -1.421875 15.125 8.703125 
Q 5.609375 18.84375 5.609375 36.375 
Q 5.609375 53.953125 15.125 64.078125 
Q 24.65625 74.21875 41.21875 74.21875 
Q 47.75 74.21875 53.53125 72.484375 
Q 59.328125 70.75 64.40625 67.28125 
z
" id="DejaVuSans-67"/>
      <path d="M 9.8125 72.90625 
L 19.671875 72.90625 
L 19.671875 42.09375 
L 52.390625 72.90625 
L 65.09375 72.90625 
L 28.90625 38.921875 
L 67.671875 0 
L 54.6875 0 
L 19.671875 35.109375 
L 19.671875 0 
L 9.8125 0 
z
" id="DejaVuSans-75"/>
     </defs>
     <g transform="translate(23.823854 332.513594)rotate(-90)scale(0.166667 -0.166667)">
      <use xlink:href="#DejaVuSans-78"/>
      <use x="74.804688" xlink:href="#DejaVuSans-117"/>
      <use x="138.183594" xlink:href="#DejaVuSans-109"/>
      <use x="235.595703" xlink:href="#DejaVuSans-98"/>
      <use x="299.072266" xlink:href="#DejaVuSans-101"/>
      <use x="360.595703" xlink:href="#DejaVuSans-114"/>
      <use x="401.708984" xlink:href="#DejaVuSans-32"/>
      <use x="433.496094" xlink:href="#DejaVuSans-111"/>
      <use x="494.677734" xlink:href="#DejaVuSans-102"/>
      <use x="529.882812" xlink:href="#DejaVuSans-32"/>
      <use x="561.669922" xlink:href="#DejaVuSans-65"/>
      <use x="630.0625" xlink:href="#DejaVuSans-116"/>
      <use x="669.271484" xlink:href="#DejaVuSans-116"/>
      <use x="708.480469" xlink:href="#DejaVuSans-97"/>
      <use x="769.759766" xlink:href="#DejaVuSans-99"/>
      <use x="824.740234" xlink:href="#DejaVuSans-107"/>
      <use x="882.603516" xlink:href="#DejaVuSans-101"/>
      <use x="944.126953" xlink:href="#DejaVuSans-114"/>
      <use x="985.240234" xlink:href="#DejaVuSans-115"/>
      <use x="1037.339844" xlink:href="#DejaVuSans-32"/>
      <use x="1069.126953" xlink:href="#DejaVuSans-105"/>
      <use x="1096.910156" xlink:href="#DejaVuSans-110"/>
      <use x="1160.289062" xlink:href="#DejaVuSans-32"/>
      <use x="1192.076172" xlink:href="#DejaVuSans-67"/>
      <use x="1261.900391" xlink:href="#DejaVuSans-75"/>
      <use x="1327.398438" xlink:href="#DejaVuSans-67"/>
     </g>
    </g>
   </g>
   <g id="line2d_18">
    <path clip-path="url(#pc6e1cad414)" d="M 83.860902 80.189091 
L 84.46063 202.490909 
L 85.060359 263.641818 
L 85.360224 290.82 
L 85.660088 290.82 
L 85.959952 311.203636 
L 86.259817 304.409091 
L 86.559681 284.025455 
L 87.15941 270.436364 
L 87.459274 304.409091 
L 87.759139 317.998182 
L 88.059003 324.792727 
L 88.358868 345.176364 
L 88.658732 338.381818 
L 88.958596 338.381818 
L 89.258461 331.587273 
L 89.558325 317.998182 
L 90.158054 331.587273 
L 90.457918 331.587273 
L 90.757783 317.998182 
L 91.057647 311.203636 
L 91.357512 311.203636 
L 91.657376 304.409091 
L 91.95724 311.203636 
L 93.156698 311.203636 
L 93.756427 324.792727 
L 94.056291 324.792727 
L 94.65602 311.203636 
L 94.955884 311.203636 
L 95.255749 324.792727 
L 95.555613 311.203636 
L 95.855478 331.587273 
L 96.155342 317.998182 
L 96.455206 317.998182 
L 96.755071 311.203636 
L 97.054935 311.203636 
L 97.3548 297.614545 
L 97.954529 345.176364 
L 98.254393 338.381818 
L 98.554257 338.381818 
L 98.854122 324.792727 
L 99.153986 317.998182 
L 99.753715 345.176364 
L 100.053579 351.970909 
L 100.353444 345.176364 
L 100.653308 331.587273 
L 100.953173 304.409091 
L 101.253037 311.203636 
L 101.552901 324.792727 
L 101.852766 317.998182 
L 102.15263 317.998182 
L 102.452495 311.203636 
L 102.752359 324.792727 
L 103.052223 317.998182 
L 103.352088 331.587273 
L 103.651952 297.614545 
L 103.951817 311.203636 
L 104.251681 311.203636 
L 104.551545 317.998182 
L 105.151274 345.176364 
L 105.451139 345.176364 
L 105.751003 338.381818 
L 106.350732 338.381818 
L 106.950461 351.970909 
L 107.550189 351.970909 
L 107.850054 345.176364 
L 108.149918 351.970909 
L 108.449783 345.176364 
L 108.749647 331.587273 
L 109.949105 331.587273 
L 110.248969 351.970909 
L 110.548833 338.381818 
L 110.848698 338.381818 
L 111.148562 324.792727 
L 112.048156 304.409091 
L 112.647884 317.998182 
L 114.147206 317.998182 
L 114.746935 304.409091 
L 115.0468 304.409091 
L 115.346664 317.998182 
L 115.646528 324.792727 
L 115.946393 317.998182 
L 116.246257 304.409091 
L 116.845986 345.176364 
L 117.14585 338.381818 
L 117.445715 338.381818 
L 117.745579 345.176364 
L 118.345308 331.587273 
L 119.244901 331.587273 
L 119.84463 345.176364 
L 120.744223 345.176364 
L 121.044088 338.381818 
L 121.343952 351.970909 
L 121.643816 338.381818 
L 121.943681 338.381818 
L 122.243545 345.176364 
L 122.54341 338.381818 
L 122.843274 338.381818 
L 123.443003 324.792727 
L 124.64246 324.792727 
L 125.242189 338.381818 
L 125.542054 338.381818 
L 126.441647 317.998182 
L 127.041376 317.998182 
L 127.34124 324.792727 
L 127.641105 324.792727 
L 127.940969 311.203636 
L 128.240833 311.203636 
L 128.540698 317.998182 
L 128.840562 317.998182 
L 129.740155 338.381818 
L 130.939613 338.381818 
L 131.539342 324.792727 
L 131.839206 324.792727 
L 132.139071 317.998182 
L 132.738799 331.587273 
L 133.038664 317.998182 
L 133.338528 324.792727 
L 133.638393 317.998182 
L 133.938257 317.998182 
L 134.83785 338.381818 
L 135.137715 324.792727 
L 135.437579 331.587273 
L 135.737443 324.792727 
L 136.037308 324.792727 
L 136.337172 331.587273 
L 137.53663 331.587273 
L 137.836494 351.970909 
L 138.136359 351.970909 
L 138.436223 345.176364 
L 138.736087 345.176364 
L 139.035952 338.381818 
L 139.335816 338.381818 
L 139.635681 331.587273 
L 140.235409 331.587273 
L 140.535274 304.409091 
L 141.135003 304.409091 
L 141.434867 284.025455 
L 141.734732 297.614545 
L 142.33446 311.203636 
L 142.634325 311.203636 
L 142.934189 331.587273 
L 143.234054 331.587273 
L 143.533918 338.381818 
L 143.833782 338.381818 
L 144.433511 324.792727 
L 144.733376 324.792727 
L 145.03324 317.998182 
L 145.333104 317.998182 
L 145.632969 297.614545 
L 145.932833 311.203636 
L 146.232698 297.614545 
L 146.532562 324.792727 
L 146.832426 317.998182 
L 147.132291 331.587273 
L 147.432155 331.587273 
L 147.73202 317.998182 
L 148.031884 324.792727 
L 148.331748 324.792727 
L 148.631613 331.587273 
L 148.931477 331.587273 
L 149.231342 345.176364 
L 149.83107 317.998182 
L 150.130935 317.998182 
L 150.730664 345.176364 
L 151.030528 331.587273 
L 151.630257 331.587273 
L 151.930121 317.998182 
L 152.229986 311.203636 
L 152.829714 311.203636 
L 153.129579 304.409091 
L 153.729308 317.998182 
L 154.029172 311.203636 
L 154.329036 317.998182 
L 154.628901 317.998182 
L 154.928765 338.381818 
L 155.22863 331.587273 
L 155.528494 338.381818 
L 156.727952 338.381818 
L 157.027816 331.587273 
L 157.327681 331.587273 
L 157.927409 317.998182 
L 158.227274 317.998182 
L 158.827003 331.587273 
L 159.126867 324.792727 
L 159.726596 338.381818 
L 160.626189 338.381818 
L 160.926053 324.792727 
L 161.225918 317.998182 
L 161.825647 317.998182 
L 162.425375 331.587273 
L 162.72524 345.176364 
L 163.324969 345.176364 
L 163.624833 351.970909 
L 164.224562 351.970909 
L 164.824291 338.381818 
L 165.124155 338.381818 
L 165.424019 317.998182 
L 165.723884 317.998182 
L 166.023748 311.203636 
L 166.323613 311.203636 
L 166.623477 317.998182 
L 166.923341 304.409091 
L 167.822935 304.409091 
L 168.122799 324.792727 
L 168.422663 324.792727 
L 168.722528 338.381818 
L 169.022392 331.587273 
L 169.622121 331.587273 
L 169.921985 317.998182 
L 170.521714 331.587273 
L 170.821579 317.998182 
L 171.121443 331.587273 
L 171.421308 331.587273 
L 171.721172 324.792727 
L 172.021036 324.792727 
L 172.620765 338.381818 
L 172.92063 338.381818 
L 173.220494 324.792727 
L 173.820223 324.792727 
L 174.120087 317.998182 
L 174.419952 338.381818 
L 174.719816 331.587273 
L 175.01968 345.176364 
L 176.219138 345.176364 
L 176.519002 338.381818 
L 176.818867 345.176364 
L 177.118731 331.587273 
L 177.71846 331.587273 
L 178.018324 345.176364 
L 178.618053 331.587273 
L 179.517646 331.587273 
L 179.817511 324.792727 
L 180.117375 331.587273 
L 180.41724 317.998182 
L 180.717104 311.203636 
L 181.016968 324.792727 
L 181.316833 331.587273 
L 181.616697 324.792727 
L 181.916562 331.587273 
L 182.51629 331.587273 
L 182.816155 338.381818 
L 183.116019 338.381818 
L 183.715748 324.792727 
L 184.015612 331.587273 
L 184.615341 331.587273 
L 185.21507 345.176364 
L 185.514935 338.381818 
L 186.114663 338.381818 
L 186.414528 351.970909 
L 187.314121 351.970909 
L 187.91385 338.381818 
L 188.513579 351.970909 
L 188.813443 345.176364 
L 190.012901 345.176364 
L 190.912494 324.792727 
L 191.212358 338.381818 
L 191.812087 338.381818 
L 192.111951 345.176364 
L 192.411816 338.381818 
L 193.011545 338.381818 
L 193.311409 331.587273 
L 193.611273 338.381818 
L 193.911138 338.381818 
L 194.211002 345.176364 
L 194.810731 345.176364 
L 195.110595 331.587273 
L 195.41046 338.381818 
L 195.710324 338.381818 
L 196.010189 345.176364 
L 196.310053 345.176364 
L 196.909782 331.587273 
L 197.509511 331.587273 
L 197.809375 338.381818 
L 198.109239 331.587273 
L 198.409104 338.381818 
L 198.708968 338.381818 
L 199.008833 331.587273 
L 199.308697 338.381818 
L 199.908426 338.381818 
L 200.20829 345.176364 
L 202.307341 345.176364 
L 202.607206 351.970909 
L 203.506799 351.970909 
L 204.406392 331.587273 
L 205.006121 331.587273 
L 205.305985 324.792727 
L 205.905714 324.792727 
L 206.205578 317.998182 
L 206.505443 304.409091 
L 206.805307 304.409091 
L 207.405036 331.587273 
L 207.7049 338.381818 
L 208.004765 338.381818 
L 208.304629 345.176364 
L 209.204222 345.176364 
L 209.504087 338.381818 
L 209.803951 338.381818 
L 210.103816 345.176364 
L 210.703544 345.176364 
L 211.003409 338.381818 
L 211.303273 345.176364 
L 211.603138 345.176364 
L 211.903002 338.381818 
L 212.202866 345.176364 
L 214.601782 345.176364 
L 214.901646 338.381818 
L 216.700833 338.381818 
L 217.000697 331.587273 
L 217.90029 331.587273 
L 218.200155 338.381818 
L 218.799883 338.381818 
L 219.099748 345.176364 
L 220.898934 345.176364 
L 221.198799 338.381818 
L 222.098392 338.381818 
L 222.698121 324.792727 
L 223.597714 324.792727 
L 223.897578 338.381818 
L 224.497307 351.970909 
L 226.596358 351.970909 
L 226.896222 345.176364 
L 227.495951 345.176364 
L 227.795815 351.970909 
L 234.692697 351.970909 
L 234.992561 345.176364 
L 235.292426 351.970909 
L 246.387409 351.970909 
L 246.687273 345.176364 
L 248.786324 345.176364 
L 249.086188 338.381818 
L 250.58551 338.381818 
L 251.185239 351.970909 
L 255.383341 351.970909 
L 255.683205 345.176364 
L 257.182527 345.176364 
L 257.482391 351.970909 
L 263.779544 351.970909 
L 264.079408 345.176364 
L 264.379273 351.970909 
L 276.373849 351.970909 
L 276.673713 345.176364 
L 276.973578 345.176364 
L 277.273442 351.970909 
L 426.006187 351.970909 
L 426.306051 345.176364 
L 430.504153 345.176364 
L 430.804017 351.970909 
L 434.102526 351.970909 
L 434.40239 345.176364 
L 435.601848 345.176364 
L 435.901712 351.970909 
L 440.399678 351.970909 
L 440.699542 345.176364 
L 444.897644 345.176364 
L 445.197508 351.970909 
L 456.592356 351.970909 
L 456.89222 345.176364 
L 458.391542 345.176364 
L 458.691407 351.970909 
L 465.588288 351.970909 
L 465.888152 345.176364 
L 467.687339 345.176364 
L 467.987203 351.970909 
L 471.285712 351.970909 
L 471.585576 345.176364 
L 477.283 345.176364 
L 477.582864 351.970909 
L 486.278932 351.970909 
L 486.278932 351.970909 
" style="fill:none;stroke:#1f77b4;stroke-linecap:square;stroke-width:1.5;"/>
   </g>
   <g id="line2d_19">
    <path clip-path="url(#pc6e1cad414)" d="M 83.860902 284.025455 
L 84.46063 175.312727 
L 84.760495 175.312727 
L 85.060359 161.723636 
L 85.360224 175.312727 
L 85.660088 168.518182 
L 86.259817 202.490909 
L 86.559681 202.490909 
L 86.859546 229.669091 
L 87.15941 229.669091 
L 87.459274 195.696364 
L 87.759139 188.901818 
L 88.358868 188.901818 
L 89.258461 243.258182 
L 89.558325 250.052727 
L 89.85819 250.052727 
L 90.158054 256.847273 
L 90.457918 256.847273 
L 90.757783 263.641818 
L 91.057647 290.82 
L 91.657376 277.230909 
L 91.95724 263.641818 
L 92.556969 263.641818 
L 92.856834 243.258182 
L 93.156698 256.847273 
L 93.456562 250.052727 
L 93.756427 256.847273 
L 94.056291 243.258182 
L 94.356156 270.436364 
L 94.65602 270.436364 
L 94.955884 263.641818 
L 95.255749 236.463636 
L 95.855478 250.052727 
L 96.155342 250.052727 
L 96.455206 270.436364 
L 96.755071 277.230909 
L 97.054935 263.641818 
L 97.3548 290.82 
L 97.654664 256.847273 
L 97.954529 250.052727 
L 98.254393 270.436364 
L 98.554257 277.230909 
L 98.854122 277.230909 
L 99.153986 284.025455 
L 100.053579 284.025455 
L 100.653308 297.614545 
L 100.953173 311.203636 
L 101.253037 304.409091 
L 101.552901 304.409091 
L 101.852766 284.025455 
L 102.15263 277.230909 
L 102.452495 290.82 
L 103.052223 277.230909 
L 103.352088 256.847273 
L 103.651952 263.641818 
L 103.951817 250.052727 
L 104.551545 236.463636 
L 104.85141 236.463636 
L 105.151274 256.847273 
L 105.451139 263.641818 
L 106.050867 250.052727 
L 106.650596 250.052727 
L 106.950461 243.258182 
L 107.250325 250.052727 
L 107.550189 263.641818 
L 107.850054 284.025455 
L 108.149918 277.230909 
L 108.449783 317.998182 
L 109.64924 290.82 
L 109.949105 290.82 
L 110.248969 270.436364 
L 110.848698 270.436364 
L 111.148562 277.230909 
L 111.448427 263.641818 
L 112.048156 290.82 
L 112.34802 270.436364 
L 112.647884 263.641818 
L 112.947749 263.641818 
L 113.247613 250.052727 
L 113.547478 263.641818 
L 113.847342 270.436364 
L 114.147206 270.436364 
L 114.447071 304.409091 
L 114.746935 297.614545 
L 115.346664 297.614545 
L 115.946393 284.025455 
L 116.246257 304.409091 
L 116.546122 297.614545 
L 116.845986 297.614545 
L 117.14585 311.203636 
L 117.745579 297.614545 
L 118.645172 297.614545 
L 118.945037 304.409091 
L 119.244901 304.409091 
L 119.544766 297.614545 
L 119.84463 297.614545 
L 120.444359 311.203636 
L 120.744223 311.203636 
L 121.343952 297.614545 
L 121.943681 311.203636 
L 122.243545 304.409091 
L 122.54341 304.409091 
L 123.143138 317.998182 
L 123.443003 338.381818 
L 123.742867 331.587273 
L 124.342596 331.587273 
L 124.64246 324.792727 
L 124.942325 311.203636 
L 125.242189 317.998182 
L 125.542054 304.409091 
L 126.741511 304.409091 
L 127.041376 297.614545 
L 127.34124 297.614545 
L 127.641105 311.203636 
L 127.940969 304.409091 
L 128.240833 311.203636 
L 128.540698 297.614545 
L 128.840562 304.409091 
L 129.140427 290.82 
L 129.440291 284.025455 
L 129.740155 270.436364 
L 130.04002 290.82 
L 130.339884 297.614545 
L 130.639749 290.82 
L 130.939613 290.82 
L 131.239477 304.409091 
L 131.539342 304.409091 
L 131.839206 297.614545 
L 132.139071 297.614545 
L 132.438935 284.025455 
L 132.738799 277.230909 
L 133.038664 277.230909 
L 133.338528 290.82 
L 133.638393 290.82 
L 133.938257 284.025455 
L 134.238121 270.436364 
L 134.537986 270.436364 
L 135.137715 284.025455 
L 135.437579 263.641818 
L 135.737443 263.641818 
L 136.337172 250.052727 
L 136.936901 284.025455 
L 137.53663 284.025455 
L 137.836494 270.436364 
L 138.136359 284.025455 
L 138.436223 290.82 
L 139.335816 290.82 
L 139.635681 297.614545 
L 139.935545 297.614545 
L 140.235409 284.025455 
L 140.535274 290.82 
L 140.835138 290.82 
L 141.135003 284.025455 
L 141.434867 297.614545 
L 141.734732 284.025455 
L 142.33446 270.436364 
L 142.634325 277.230909 
L 142.934189 270.436364 
L 143.234054 277.230909 
L 143.533918 270.436364 
L 143.833782 270.436364 
L 144.133647 277.230909 
L 144.433511 277.230909 
L 144.733376 270.436364 
L 145.03324 277.230909 
L 145.333104 277.230909 
L 145.632969 284.025455 
L 145.932833 263.641818 
L 146.232698 270.436364 
L 146.532562 243.258182 
L 146.832426 256.847273 
L 147.132291 243.258182 
L 147.432155 256.847273 
L 147.73202 263.641818 
L 148.031884 256.847273 
L 148.331748 256.847273 
L 148.631613 263.641818 
L 148.931477 263.641818 
L 149.231342 256.847273 
L 149.531206 256.847273 
L 149.83107 263.641818 
L 150.130935 277.230909 
L 150.730664 263.641818 
L 151.030528 263.641818 
L 151.630257 277.230909 
L 151.930121 277.230909 
L 152.229986 270.436364 
L 152.52985 277.230909 
L 152.829714 290.82 
L 153.129579 290.82 
L 153.429443 284.025455 
L 153.729308 270.436364 
L 154.029172 263.641818 
L 154.329036 263.641818 
L 154.628901 277.230909 
L 154.928765 256.847273 
L 155.22863 277.230909 
L 155.528494 284.025455 
L 156.128223 284.025455 
L 156.428087 290.82 
L 156.727952 277.230909 
L 157.027816 290.82 
L 157.327681 297.614545 
L 157.627545 290.82 
L 158.227274 290.82 
L 158.527138 277.230909 
L 158.827003 270.436364 
L 159.126867 284.025455 
L 159.426731 277.230909 
L 159.726596 277.230909 
L 160.326325 290.82 
L 160.626189 290.82 
L 160.926053 297.614545 
L 161.225918 311.203636 
L 161.525782 304.409091 
L 161.825647 311.203636 
L 162.425375 297.614545 
L 162.72524 284.025455 
L 163.324969 311.203636 
L 163.624833 297.614545 
L 164.524426 317.998182 
L 165.424019 317.998182 
L 165.723884 311.203636 
L 166.023748 317.998182 
L 166.323613 317.998182 
L 166.623477 297.614545 
L 166.923341 297.614545 
L 167.223206 304.409091 
L 167.822935 304.409091 
L 168.122799 284.025455 
L 168.422663 297.614545 
L 168.722528 290.82 
L 169.022392 297.614545 
L 169.322257 297.614545 
L 169.622121 284.025455 
L 169.921985 297.614545 
L 170.821579 297.614545 
L 171.121443 277.230909 
L 171.721172 277.230909 
L 172.021036 284.025455 
L 172.320901 284.025455 
L 172.620765 290.82 
L 172.92063 304.409091 
L 173.220494 311.203636 
L 173.520358 311.203636 
L 173.820223 304.409091 
L 174.120087 311.203636 
L 174.419952 297.614545 
L 174.719816 311.203636 
L 175.01968 297.614545 
L 175.319545 304.409091 
L 175.619409 297.614545 
L 176.219138 311.203636 
L 176.519002 311.203636 
L 176.818867 304.409091 
L 177.118731 304.409091 
L 177.418596 297.614545 
L 177.71846 304.409091 
L 178.018324 297.614545 
L 178.318189 304.409091 
L 178.917918 304.409091 
L 179.217782 297.614545 
L 180.117375 297.614545 
L 180.717104 311.203636 
L 181.016968 297.614545 
L 181.316833 304.409091 
L 182.51629 304.409091 
L 182.816155 297.614545 
L 183.715748 297.614545 
L 184.015612 290.82 
L 184.315477 304.409091 
L 184.615341 304.409091 
L 185.21507 290.82 
L 185.514935 290.82 
L 185.814799 297.614545 
L 186.114663 290.82 
L 186.414528 277.230909 
L 186.714392 290.82 
L 187.91385 290.82 
L 188.513579 277.230909 
L 188.813443 277.230909 
L 189.113307 284.025455 
L 189.713036 311.203636 
L 190.912494 311.203636 
L 191.212358 304.409091 
L 191.512223 304.409091 
L 191.812087 311.203636 
L 192.111951 297.614545 
L 193.011545 317.998182 
L 193.311409 317.998182 
L 193.611273 311.203636 
L 193.911138 311.203636 
L 194.211002 304.409091 
L 194.510867 317.998182 
L 194.810731 317.998182 
L 195.110595 324.792727 
L 195.41046 317.998182 
L 195.710324 324.792727 
L 196.310053 324.792727 
L 196.609917 317.998182 
L 197.509511 317.998182 
L 197.809375 311.203636 
L 199.608562 311.203636 
L 199.908426 317.998182 
L 200.20829 311.203636 
L 200.508155 311.203636 
L 200.808019 324.792727 
L 202.007477 324.792727 
L 202.307341 331.587273 
L 202.90707 331.587273 
L 203.206934 338.381818 
L 203.506799 338.381818 
L 203.806663 345.176364 
L 205.60585 345.176364 
L 205.905714 338.381818 
L 206.205578 338.381818 
L 206.505443 345.176364 
L 206.805307 345.176364 
L 207.105172 338.381818 
L 207.7049 311.203636 
L 208.004765 324.792727 
L 208.304629 324.792727 
L 208.604494 331.587273 
L 209.204222 331.587273 
L 209.504087 324.792727 
L 209.803951 324.792727 
L 210.103816 317.998182 
L 210.703544 317.998182 
L 211.003409 324.792727 
L 211.903002 324.792727 
L 212.202866 317.998182 
L 212.502731 331.587273 
L 212.802595 331.587273 
L 213.10246 338.381818 
L 213.702188 338.381818 
L 214.002053 331.587273 
L 214.301917 338.381818 
L 214.901646 338.381818 
L 215.201511 345.176364 
L 217.90029 345.176364 
L 218.200155 338.381818 
L 218.799883 338.381818 
L 219.099748 331.587273 
L 222.398256 331.587273 
L 222.698121 338.381818 
L 223.297849 338.381818 
L 223.897578 324.792727 
L 224.797171 324.792727 
L 225.097036 331.587273 
L 225.996629 331.587273 
L 226.296493 338.381818 
L 226.896222 338.381818 
L 227.196087 345.176364 
L 227.495951 345.176364 
L 227.795815 331.587273 
L 229.295138 331.587273 
L 229.595002 345.176364 
L 234.992561 345.176364 
L 235.292426 338.381818 
L 239.190663 338.381818 
L 239.490527 345.176364 
L 250.58551 345.176364 
L 251.185239 331.587273 
L 255.983069 331.587273 
L 256.282934 338.381818 
L 256.582798 338.381818 
L 256.882663 345.176364 
L 257.182527 345.176364 
L 257.482391 338.381818 
L 258.381985 338.381818 
L 258.681849 345.176364 
L 264.079408 345.176364 
L 264.379273 338.381818 
L 265.278866 338.381818 
L 265.57873 345.176364 
L 276.973578 345.176364 
L 277.273442 338.381818 
L 277.573307 345.176364 
L 423.307407 345.176364 
L 423.607271 351.970909 
L 425.106593 351.970909 
L 425.406458 345.176364 
L 425.706322 351.970909 
L 430.504153 351.970909 
L 430.804017 345.176364 
L 433.202932 345.176364 
L 433.502797 351.970909 
L 435.601848 351.970909 
L 435.901712 345.176364 
L 438.900356 345.176364 
L 439.20022 351.970909 
L 444.897644 351.970909 
L 445.197508 345.176364 
L 448.196153 345.176364 
L 448.496017 351.970909 
L 458.391542 351.970909 
L 458.691407 345.176364 
L 464.988559 345.176364 
L 465.288424 351.970909 
L 467.687339 351.970909 
L 467.987203 345.176364 
L 470.386118 345.176364 
L 470.685983 351.970909 
L 477.283 351.970909 
L 477.582864 345.176364 
L 485.679203 345.176364 
L 485.979067 351.970909 
L 486.278932 351.970909 
L 486.278932 351.970909 
" style="fill:none;stroke:#ff7f0e;stroke-linecap:square;stroke-width:1.5;"/>
   </g>
   <g id="line2d_20">
    <path clip-path="url(#pc6e1cad414)" d="M 83.860902 351.970909 
L 84.160766 338.381818 
L 84.46063 345.176364 
L 84.760495 311.203636 
L 85.060359 304.409091 
L 85.360224 277.230909 
L 85.660088 284.025455 
L 85.959952 263.641818 
L 86.559681 290.82 
L 86.859546 284.025455 
L 87.459274 284.025455 
L 87.759139 290.82 
L 88.059003 290.82 
L 88.358868 284.025455 
L 88.658732 263.641818 
L 88.958596 256.847273 
L 89.558325 284.025455 
L 90.158054 270.436364 
L 90.457918 277.230909 
L 90.757783 290.82 
L 91.057647 277.230909 
L 91.357512 284.025455 
L 91.657376 277.230909 
L 91.95724 290.82 
L 92.257105 284.025455 
L 92.556969 284.025455 
L 92.856834 304.409091 
L 93.156698 290.82 
L 93.456562 290.82 
L 93.756427 270.436364 
L 94.056291 284.025455 
L 94.356156 263.641818 
L 94.65602 284.025455 
L 94.955884 284.025455 
L 95.255749 304.409091 
L 95.555613 297.614545 
L 95.855478 270.436364 
L 96.155342 284.025455 
L 96.455206 263.641818 
L 96.755071 263.641818 
L 97.054935 277.230909 
L 97.3548 256.847273 
L 97.654664 284.025455 
L 97.954529 284.025455 
L 98.554257 270.436364 
L 98.854122 284.025455 
L 99.453851 270.436364 
L 99.753715 270.436364 
L 100.053579 277.230909 
L 100.353444 290.82 
L 100.653308 284.025455 
L 101.253037 297.614545 
L 101.552901 284.025455 
L 101.852766 311.203636 
L 102.15263 311.203636 
L 102.452495 297.614545 
L 102.752359 304.409091 
L 103.651952 304.409091 
L 103.951817 290.82 
L 104.251681 304.409091 
L 104.551545 290.82 
L 104.85141 284.025455 
L 105.151274 263.641818 
L 105.451139 270.436364 
L 105.751003 284.025455 
L 106.050867 290.82 
L 106.350732 311.203636 
L 107.250325 311.203636 
L 107.550189 304.409091 
L 107.850054 284.025455 
L 108.149918 284.025455 
L 108.449783 256.847273 
L 108.749647 284.025455 
L 109.049511 284.025455 
L 109.64924 297.614545 
L 110.548833 297.614545 
L 110.848698 290.82 
L 111.148562 297.614545 
L 111.448427 297.614545 
L 111.748291 277.230909 
L 112.048156 270.436364 
L 112.34802 270.436364 
L 112.647884 263.641818 
L 112.947749 284.025455 
L 113.247613 290.82 
L 113.547478 270.436364 
L 113.847342 284.025455 
L 114.147206 277.230909 
L 114.447071 250.052727 
L 114.746935 277.230909 
L 115.0468 290.82 
L 115.346664 277.230909 
L 115.646528 297.614545 
L 115.946393 297.614545 
L 116.546122 263.641818 
L 116.845986 256.847273 
L 117.14585 256.847273 
L 117.445715 263.641818 
L 117.745579 284.025455 
L 118.045444 284.025455 
L 118.345308 304.409091 
L 118.645172 311.203636 
L 119.244901 297.614545 
L 119.544766 311.203636 
L 119.84463 311.203636 
L 120.144494 297.614545 
L 120.444359 290.82 
L 120.744223 304.409091 
L 121.343952 304.409091 
L 121.643816 311.203636 
L 121.943681 311.203636 
L 122.243545 324.792727 
L 122.54341 317.998182 
L 123.143138 317.998182 
L 123.443003 304.409091 
L 124.342596 304.409091 
L 124.64246 297.614545 
L 124.942325 304.409091 
L 125.242189 297.614545 
L 125.542054 304.409091 
L 125.841918 304.409091 
L 126.141782 317.998182 
L 126.441647 317.998182 
L 126.741511 311.203636 
L 127.041376 311.203636 
L 127.641105 297.614545 
L 127.940969 297.614545 
L 128.240833 311.203636 
L 128.540698 317.998182 
L 128.840562 317.998182 
L 129.140427 324.792727 
L 129.440291 338.381818 
L 129.740155 338.381818 
L 130.04002 317.998182 
L 130.339884 311.203636 
L 130.639749 311.203636 
L 130.939613 324.792727 
L 131.239477 311.203636 
L 131.539342 324.792727 
L 131.839206 317.998182 
L 132.139071 324.792727 
L 132.738799 324.792727 
L 133.038664 331.587273 
L 133.338528 317.998182 
L 133.638393 324.792727 
L 134.238121 324.792727 
L 134.83785 311.203636 
L 135.437579 324.792727 
L 135.737443 324.792727 
L 136.037308 331.587273 
L 136.337172 331.587273 
L 136.637037 311.203636 
L 137.236765 297.614545 
L 137.53663 304.409091 
L 137.836494 304.409091 
L 138.136359 297.614545 
L 138.436223 304.409091 
L 138.736087 317.998182 
L 139.035952 324.792727 
L 139.335816 338.381818 
L 139.635681 324.792727 
L 139.935545 331.587273 
L 140.235409 331.587273 
L 140.535274 324.792727 
L 140.835138 331.587273 
L 141.734732 331.587273 
L 142.034596 324.792727 
L 142.33446 331.587273 
L 142.934189 317.998182 
L 143.533918 317.998182 
L 143.833782 324.792727 
L 144.133647 324.792727 
L 144.433511 317.998182 
L 144.733376 317.998182 
L 145.333104 304.409091 
L 145.632969 317.998182 
L 145.932833 317.998182 
L 146.232698 311.203636 
L 146.532562 317.998182 
L 146.832426 304.409091 
L 147.132291 311.203636 
L 147.432155 311.203636 
L 147.73202 324.792727 
L 148.031884 324.792727 
L 148.331748 317.998182 
L 148.631613 304.409091 
L 148.931477 311.203636 
L 149.231342 311.203636 
L 149.531206 317.998182 
L 149.83107 317.998182 
L 150.130935 304.409091 
L 150.730664 290.82 
L 151.030528 297.614545 
L 151.630257 284.025455 
L 151.930121 290.82 
L 152.229986 304.409091 
L 152.52985 311.203636 
L 152.829714 297.614545 
L 153.129579 311.203636 
L 153.429443 317.998182 
L 153.729308 317.998182 
L 154.029172 324.792727 
L 154.329036 317.998182 
L 154.628901 304.409091 
L 154.928765 317.998182 
L 155.22863 297.614545 
L 155.528494 297.614545 
L 155.828359 304.409091 
L 156.727952 304.409091 
L 157.327681 290.82 
L 157.627545 304.409091 
L 158.527138 324.792727 
L 158.827003 324.792727 
L 159.126867 317.998182 
L 159.726596 317.998182 
L 160.326325 304.409091 
L 160.626189 311.203636 
L 160.926053 311.203636 
L 161.225918 297.614545 
L 161.525782 311.203636 
L 161.825647 311.203636 
L 162.125511 317.998182 
L 162.72524 317.998182 
L 163.025104 304.409091 
L 163.324969 297.614545 
L 163.624833 311.203636 
L 163.924697 311.203636 
L 164.224562 304.409091 
L 164.524426 304.409091 
L 164.824291 311.203636 
L 165.124155 324.792727 
L 165.723884 324.792727 
L 166.023748 317.998182 
L 166.623477 317.998182 
L 166.923341 324.792727 
L 167.223206 324.792727 
L 167.52307 331.587273 
L 168.122799 331.587273 
L 168.422663 324.792727 
L 169.022392 324.792727 
L 169.322257 317.998182 
L 169.622121 317.998182 
L 169.921985 304.409091 
L 170.22185 304.409091 
L 170.521714 317.998182 
L 171.121443 331.587273 
L 171.421308 345.176364 
L 171.721172 345.176364 
L 172.021036 338.381818 
L 172.320901 338.381818 
L 173.220494 317.998182 
L 173.520358 331.587273 
L 174.120087 331.587273 
L 174.419952 338.381818 
L 174.719816 331.587273 
L 175.01968 338.381818 
L 175.319545 331.587273 
L 175.619409 331.587273 
L 176.219138 317.998182 
L 176.519002 317.998182 
L 176.818867 331.587273 
L 177.118731 338.381818 
L 177.71846 338.381818 
L 178.018324 331.587273 
L 178.318189 331.587273 
L 178.618053 345.176364 
L 179.517646 345.176364 
L 179.817511 331.587273 
L 180.117375 338.381818 
L 180.717104 324.792727 
L 181.016968 338.381818 
L 181.316833 324.792727 
L 181.616697 331.587273 
L 181.916562 324.792727 
L 182.216426 338.381818 
L 182.51629 338.381818 
L 182.816155 345.176364 
L 183.715748 345.176364 
L 184.015612 351.970909 
L 184.315477 338.381818 
L 184.915206 338.381818 
L 185.21507 345.176364 
L 185.514935 345.176364 
L 185.814799 338.381818 
L 186.114663 338.381818 
L 186.414528 345.176364 
L 186.714392 331.587273 
L 187.014257 338.381818 
L 187.91385 338.381818 
L 188.213714 345.176364 
L 188.813443 345.176364 
L 189.413172 331.587273 
L 189.713036 317.998182 
L 190.312765 331.587273 
L 190.612629 331.587273 
L 190.912494 338.381818 
L 191.212358 331.587273 
L 191.512223 338.381818 
L 191.812087 331.587273 
L 192.111951 338.381818 
L 193.011545 317.998182 
L 193.311409 324.792727 
L 193.611273 324.792727 
L 193.911138 317.998182 
L 194.211002 317.998182 
L 194.510867 304.409091 
L 194.810731 317.998182 
L 195.41046 317.998182 
L 195.710324 311.203636 
L 196.010189 324.792727 
L 196.310053 324.792727 
L 196.609917 331.587273 
L 198.109239 331.587273 
L 198.409104 324.792727 
L 198.708968 324.792727 
L 199.008833 331.587273 
L 199.308697 324.792727 
L 200.20829 324.792727 
L 200.808019 311.203636 
L 201.407748 324.792727 
L 201.707612 317.998182 
L 202.007477 324.792727 
L 202.307341 317.998182 
L 203.206934 317.998182 
L 203.506799 331.587273 
L 203.806663 324.792727 
L 204.106528 324.792727 
L 204.406392 331.587273 
L 206.505443 331.587273 
L 206.805307 338.381818 
L 207.7049 338.381818 
L 208.004765 324.792727 
L 208.304629 331.587273 
L 208.604494 324.792727 
L 208.904358 324.792727 
L 209.504087 338.381818 
L 209.803951 338.381818 
L 210.103816 345.176364 
L 210.703544 345.176364 
L 211.003409 338.381818 
L 212.202866 338.381818 
L 212.502731 324.792727 
L 212.802595 338.381818 
L 213.10246 331.587273 
L 213.402324 345.176364 
L 214.002053 345.176364 
L 214.301917 338.381818 
L 214.601782 345.176364 
L 214.901646 345.176364 
L 215.201511 338.381818 
L 215.501375 345.176364 
L 217.300561 345.176364 
L 217.600426 351.970909 
L 222.398256 351.970909 
L 222.698121 345.176364 
L 223.597714 345.176364 
L 223.897578 338.381818 
L 224.197443 338.381818 
L 224.497307 331.587273 
L 224.797171 331.587273 
L 225.097036 324.792727 
L 225.3969 331.587273 
L 225.696765 331.587273 
L 225.996629 345.176364 
L 226.296493 338.381818 
L 226.896222 338.381818 
L 227.196087 331.587273 
L 227.495951 338.381818 
L 227.795815 338.381818 
L 228.09568 345.176364 
L 228.395544 345.176364 
L 228.695409 351.970909 
L 229.295138 351.970909 
L 229.595002 338.381818 
L 230.494595 338.381818 
L 231.094324 351.970909 
L 239.190663 351.970909 
L 239.490527 345.176364 
L 242.489171 345.176364 
L 242.789036 351.970909 
L 255.983069 351.970909 
L 256.282934 345.176364 
L 256.582798 345.176364 
L 256.882663 338.381818 
L 257.182527 351.970909 
L 258.381985 351.970909 
L 258.681849 345.176364 
L 259.281578 345.176364 
L 259.581442 351.970909 
L 265.278866 351.970909 
L 265.57873 345.176364 
L 265.878595 351.970909 
L 277.273442 351.970909 
L 277.573307 345.176364 
L 277.873171 351.970909 
L 423.307407 351.970909 
L 423.607271 345.176364 
L 425.106593 345.176364 
L 425.406458 351.970909 
L 425.706322 345.176364 
L 426.006187 345.176364 
L 426.306051 351.970909 
L 433.202932 351.970909 
L 433.502797 345.176364 
L 434.102526 345.176364 
L 434.40239 351.970909 
L 438.900356 351.970909 
L 439.20022 345.176364 
L 440.099814 345.176364 
L 440.399678 351.970909 
L 448.196153 351.970909 
L 448.496017 345.176364 
L 456.592356 345.176364 
L 456.89222 351.970909 
L 464.988559 351.970909 
L 465.288424 345.176364 
L 465.588288 345.176364 
L 465.888152 351.970909 
L 470.386118 351.970909 
L 470.685983 345.176364 
L 471.285712 345.176364 
L 471.585576 351.970909 
L 485.679203 351.970909 
L 485.979067 345.176364 
L 486.278932 345.176364 
L 486.278932 345.176364 
" style="fill:none;stroke:#2ca02c;stroke-linecap:square;stroke-width:1.5;"/>
   </g>
   <g id="line2d_21">
    <path clip-path="url(#pc6e1cad414)" d="M 83.860902 351.970909 
L 84.160766 351.970909 
L 84.46063 345.176364 
L 84.760495 351.970909 
L 85.360224 324.792727 
L 85.660088 345.176364 
L 85.959952 331.587273 
L 86.259817 311.203636 
L 86.559681 331.587273 
L 86.859546 324.792727 
L 87.15941 338.381818 
L 87.459274 345.176364 
L 87.759139 331.587273 
L 88.059003 338.381818 
L 88.358868 324.792727 
L 88.658732 331.587273 
L 88.958596 324.792727 
L 89.258461 297.614545 
L 89.558325 297.614545 
L 89.85819 317.998182 
L 90.158054 311.203636 
L 90.757783 311.203636 
L 91.057647 324.792727 
L 91.657376 324.792727 
L 91.95724 317.998182 
L 92.257105 331.587273 
L 92.556969 324.792727 
L 93.156698 324.792727 
L 93.456562 317.998182 
L 93.756427 324.792727 
L 94.056291 317.998182 
L 94.356156 324.792727 
L 94.65602 311.203636 
L 94.955884 324.792727 
L 95.255749 311.203636 
L 95.555613 324.792727 
L 95.855478 331.587273 
L 96.155342 324.792727 
L 96.455206 331.587273 
L 97.3548 331.587273 
L 97.654664 304.409091 
L 97.954529 297.614545 
L 98.254393 311.203636 
L 98.854122 324.792727 
L 99.753715 324.792727 
L 100.353444 311.203636 
L 100.653308 324.792727 
L 101.552901 345.176364 
L 101.852766 331.587273 
L 102.15263 331.587273 
L 102.452495 338.381818 
L 102.752359 324.792727 
L 103.052223 338.381818 
L 103.651952 351.970909 
L 103.951817 351.970909 
L 104.251681 331.587273 
L 104.551545 345.176364 
L 104.85141 338.381818 
L 105.151274 324.792727 
L 105.451139 317.998182 
L 106.050867 317.998182 
L 106.350732 311.203636 
L 106.950461 311.203636 
L 107.250325 304.409091 
L 107.550189 304.409091 
L 108.449783 324.792727 
L 108.749647 317.998182 
L 109.349376 331.587273 
L 109.64924 324.792727 
L 111.148562 324.792727 
L 111.448427 331.587273 
L 111.748291 331.587273 
L 112.048156 324.792727 
L 112.34802 338.381818 
L 112.647884 345.176364 
L 112.947749 331.587273 
L 113.247613 345.176364 
L 113.547478 345.176364 
L 113.847342 324.792727 
L 114.147206 338.381818 
L 114.746935 324.792727 
L 115.346664 338.381818 
L 115.646528 324.792727 
L 115.946393 338.381818 
L 116.246257 345.176364 
L 116.546122 345.176364 
L 117.14585 317.998182 
L 117.445715 331.587273 
L 117.745579 311.203636 
L 118.045444 324.792727 
L 118.345308 311.203636 
L 118.645172 324.792727 
L 119.244901 338.381818 
L 119.544766 324.792727 
L 119.84463 331.587273 
L 120.144494 331.587273 
L 120.444359 345.176364 
L 120.744223 331.587273 
L 121.044088 351.970909 
L 121.343952 338.381818 
L 121.943681 338.381818 
L 122.243545 324.792727 
L 122.54341 345.176364 
L 123.143138 331.587273 
L 124.042732 331.587273 
L 124.342596 324.792727 
L 124.942325 338.381818 
L 125.242189 331.587273 
L 125.841918 345.176364 
L 126.141782 331.587273 
L 126.741511 345.176364 
L 127.041376 338.381818 
L 127.34124 338.381818 
L 127.641105 331.587273 
L 127.940969 345.176364 
L 128.240833 324.792727 
L 128.540698 317.998182 
L 128.840562 324.792727 
L 129.440291 324.792727 
L 130.04002 338.381818 
L 130.639749 338.381818 
L 130.939613 324.792727 
L 131.239477 331.587273 
L 131.539342 324.792727 
L 131.839206 345.176364 
L 132.139071 331.587273 
L 132.438935 331.587273 
L 132.738799 324.792727 
L 133.038664 338.381818 
L 133.338528 338.381818 
L 133.638393 331.587273 
L 133.938257 345.176364 
L 134.537986 345.176364 
L 134.83785 338.381818 
L 135.137715 338.381818 
L 135.437579 331.587273 
L 135.737443 338.381818 
L 136.037308 331.587273 
L 136.337172 345.176364 
L 136.637037 345.176364 
L 136.936901 338.381818 
L 137.236765 338.381818 
L 137.53663 331.587273 
L 138.136359 331.587273 
L 138.436223 338.381818 
L 139.035952 324.792727 
L 139.335816 311.203636 
L 139.635681 345.176364 
L 139.935545 338.381818 
L 141.434867 338.381818 
L 141.734732 345.176364 
L 142.034596 345.176364 
L 142.33446 338.381818 
L 142.634325 351.970909 
L 143.234054 338.381818 
L 143.533918 338.381818 
L 143.833782 331.587273 
L 144.133647 338.381818 
L 144.433511 338.381818 
L 144.733376 345.176364 
L 145.333104 345.176364 
L 145.632969 338.381818 
L 146.532562 338.381818 
L 146.832426 345.176364 
L 147.432155 331.587273 
L 148.331748 331.587273 
L 148.631613 338.381818 
L 148.931477 331.587273 
L 149.231342 338.381818 
L 149.531206 338.381818 
L 149.83107 345.176364 
L 151.630257 345.176364 
L 151.930121 338.381818 
L 152.52985 311.203636 
L 152.829714 324.792727 
L 153.129579 317.998182 
L 153.429443 317.998182 
L 153.729308 338.381818 
L 154.029172 338.381818 
L 154.329036 345.176364 
L 154.628901 345.176364 
L 154.928765 338.381818 
L 155.528494 338.381818 
L 155.828359 324.792727 
L 156.128223 345.176364 
L 156.428087 345.176364 
L 156.727952 351.970909 
L 157.327681 351.970909 
L 157.627545 345.176364 
L 157.927409 345.176364 
L 158.227274 338.381818 
L 159.126867 338.381818 
L 159.426731 345.176364 
L 159.726596 338.381818 
L 160.326325 338.381818 
L 160.626189 324.792727 
L 160.926053 331.587273 
L 161.225918 331.587273 
L 161.825647 317.998182 
L 162.125511 324.792727 
L 162.425375 324.792727 
L 162.72524 331.587273 
L 163.025104 331.587273 
L 163.624833 317.998182 
L 163.924697 331.587273 
L 164.824291 331.587273 
L 165.124155 317.998182 
L 165.424019 331.587273 
L 166.623477 331.587273 
L 166.923341 324.792727 
L 167.223206 324.792727 
L 167.822935 338.381818 
L 168.122799 338.381818 
L 168.722528 324.792727 
L 169.022392 331.587273 
L 169.322257 331.587273 
L 169.622121 338.381818 
L 169.921985 338.381818 
L 170.22185 331.587273 
L 170.521714 317.998182 
L 170.821579 331.587273 
L 171.121443 338.381818 
L 171.421308 324.792727 
L 171.721172 338.381818 
L 172.021036 345.176364 
L 172.320901 338.381818 
L 172.620765 338.381818 
L 172.92063 331.587273 
L 173.220494 338.381818 
L 173.520358 324.792727 
L 173.820223 345.176364 
L 174.120087 345.176364 
L 174.419952 338.381818 
L 176.519002 338.381818 
L 176.818867 324.792727 
L 177.118731 338.381818 
L 177.418596 345.176364 
L 177.71846 338.381818 
L 178.018324 345.176364 
L 178.618053 331.587273 
L 178.917918 351.970909 
L 179.817511 351.970909 
L 180.117375 345.176364 
L 180.41724 351.970909 
L 180.717104 351.970909 
L 181.016968 338.381818 
L 181.316833 338.381818 
L 181.616697 345.176364 
L 181.916562 345.176364 
L 182.216426 338.381818 
L 182.51629 351.970909 
L 183.116019 338.381818 
L 183.715748 351.970909 
L 184.015612 345.176364 
L 184.315477 351.970909 
L 186.114663 351.970909 
L 186.414528 345.176364 
L 186.714392 345.176364 
L 187.014257 338.381818 
L 187.613985 338.381818 
L 187.91385 345.176364 
L 188.213714 338.381818 
L 188.513579 338.381818 
L 188.813443 345.176364 
L 189.113307 345.176364 
L 189.413172 338.381818 
L 189.713036 345.176364 
L 190.012901 338.381818 
L 190.312765 338.381818 
L 190.612629 345.176364 
L 191.212358 345.176364 
L 191.512223 338.381818 
L 193.011545 338.381818 
L 193.311409 331.587273 
L 193.611273 345.176364 
L 194.510867 345.176364 
L 194.810731 331.587273 
L 195.110595 331.587273 
L 195.41046 345.176364 
L 195.710324 345.176364 
L 196.010189 324.792727 
L 196.310053 324.792727 
L 196.609917 317.998182 
L 196.909782 317.998182 
L 197.209646 331.587273 
L 197.509511 331.587273 
L 197.809375 338.381818 
L 198.708968 338.381818 
L 199.008833 331.587273 
L 199.308697 331.587273 
L 199.608562 338.381818 
L 200.508155 338.381818 
L 200.808019 331.587273 
L 201.707612 331.587273 
L 202.007477 324.792727 
L 202.307341 331.587273 
L 202.607206 324.792727 
L 203.206934 324.792727 
L 203.506799 311.203636 
L 203.806663 324.792727 
L 204.106528 331.587273 
L 204.406392 324.792727 
L 204.706256 331.587273 
L 206.505443 331.587273 
L 206.805307 324.792727 
L 207.7049 345.176364 
L 208.004765 345.176364 
L 208.304629 338.381818 
L 208.604494 351.970909 
L 208.904358 351.970909 
L 209.204222 345.176364 
L 209.803951 345.176364 
L 210.103816 338.381818 
L 210.703544 338.381818 
L 211.003409 345.176364 
L 211.603138 345.176364 
L 211.903002 351.970909 
L 212.502731 351.970909 
L 212.802595 338.381818 
L 213.10246 345.176364 
L 213.402324 331.587273 
L 213.702188 338.381818 
L 214.301917 338.381818 
L 214.601782 331.587273 
L 214.901646 338.381818 
L 215.201511 351.970909 
L 215.501375 345.176364 
L 215.801239 351.970909 
L 217.300561 351.970909 
L 217.600426 345.176364 
L 220.898934 345.176364 
L 221.198799 351.970909 
L 223.897578 351.970909 
L 224.197443 345.176364 
L 225.097036 345.176364 
L 225.3969 338.381818 
L 225.696765 345.176364 
L 225.996629 331.587273 
L 226.896222 331.587273 
L 227.196087 338.381818 
L 227.495951 331.587273 
L 227.795815 345.176364 
L 228.09568 338.381818 
L 228.395544 338.381818 
L 228.695409 331.587273 
L 229.894866 331.587273 
L 230.194731 345.176364 
L 230.79446 345.176364 
L 231.094324 338.381818 
L 232.89351 338.381818 
L 233.193375 345.176364 
L 234.692697 345.176364 
L 234.992561 351.970909 
L 242.489171 351.970909 
L 242.789036 345.176364 
L 244.888087 345.176364 
L 245.187951 351.970909 
L 256.882663 351.970909 
L 257.182527 345.176364 
L 258.381985 345.176364 
L 258.681849 351.970909 
L 259.281578 351.970909 
L 259.581442 345.176364 
L 259.881307 351.970909 
L 265.57873 351.970909 
L 265.878595 345.176364 
L 266.178459 351.970909 
L 277.573307 351.970909 
L 277.873171 345.176364 
L 278.173035 351.970909 
L 440.099814 351.970909 
L 440.399678 345.176364 
L 440.699542 351.970909 
L 486.278932 351.970909 
L 486.278932 351.970909 
" style="fill:none;stroke:#d62728;stroke-linecap:square;stroke-width:1.5;"/>
   </g>
   <g id="line2d_22">
    <path clip-path="url(#pc6e1cad414)" d="M 83.860902 351.970909 
L 84.46063 351.970909 
L 84.760495 345.176364 
L 85.060359 351.970909 
L 85.360224 351.970909 
L 85.660088 331.587273 
L 85.959952 331.587273 
L 86.259817 345.176364 
L 86.559681 331.587273 
L 86.859546 338.381818 
L 87.15941 331.587273 
L 87.459274 331.587273 
L 87.759139 345.176364 
L 88.059003 338.381818 
L 88.358868 345.176364 
L 88.658732 331.587273 
L 88.958596 331.587273 
L 89.258461 345.176364 
L 89.558325 331.587273 
L 89.85819 324.792727 
L 90.158054 324.792727 
L 90.457918 331.587273 
L 90.757783 317.998182 
L 91.357512 331.587273 
L 91.657376 345.176364 
L 91.95724 345.176364 
L 92.257105 324.792727 
L 92.556969 338.381818 
L 92.856834 345.176364 
L 93.156698 345.176364 
L 93.456562 351.970909 
L 93.756427 345.176364 
L 94.056291 345.176364 
L 94.65602 331.587273 
L 94.955884 331.587273 
L 95.255749 351.970909 
L 95.555613 338.381818 
L 95.855478 331.587273 
L 96.155342 338.381818 
L 96.455206 331.587273 
L 96.755071 338.381818 
L 97.054935 338.381818 
L 97.654664 351.970909 
L 97.954529 345.176364 
L 98.254393 324.792727 
L 98.554257 338.381818 
L 98.854122 324.792727 
L 99.153986 324.792727 
L 99.453851 331.587273 
L 99.753715 317.998182 
L 100.053579 338.381818 
L 100.353444 331.587273 
L 100.653308 331.587273 
L 100.953173 345.176364 
L 101.253037 331.587273 
L 101.552901 331.587273 
L 101.852766 345.176364 
L 102.452495 345.176364 
L 102.752359 351.970909 
L 103.052223 345.176364 
L 103.352088 345.176364 
L 103.651952 338.381818 
L 103.951817 351.970909 
L 104.251681 351.970909 
L 104.551545 338.381818 
L 104.85141 345.176364 
L 105.151274 345.176364 
L 105.451139 338.381818 
L 105.751003 324.792727 
L 106.050867 331.587273 
L 106.350732 324.792727 
L 106.650596 331.587273 
L 106.950461 331.587273 
L 107.250325 338.381818 
L 107.850054 338.381818 
L 108.449783 311.203636 
L 108.749647 317.998182 
L 109.049511 345.176364 
L 109.349376 331.587273 
L 109.949105 345.176364 
L 110.248969 345.176364 
L 110.548833 338.381818 
L 110.848698 345.176364 
L 111.148562 345.176364 
L 111.448427 351.970909 
L 112.048156 351.970909 
L 112.34802 338.381818 
L 112.647884 351.970909 
L 112.947749 345.176364 
L 113.247613 345.176364 
L 113.547478 351.970909 
L 113.847342 351.970909 
L 114.147206 338.381818 
L 114.447071 351.970909 
L 114.746935 345.176364 
L 115.0468 324.792727 
L 115.346664 338.381818 
L 116.546122 338.381818 
L 116.845986 351.970909 
L 117.14585 351.970909 
L 117.445715 338.381818 
L 117.745579 351.970909 
L 118.045444 345.176364 
L 118.345308 345.176364 
L 118.645172 324.792727 
L 118.945037 338.381818 
L 119.244901 338.381818 
L 119.544766 345.176364 
L 119.84463 331.587273 
L 120.144494 338.381818 
L 120.444359 324.792727 
L 121.943681 324.792727 
L 122.243545 331.587273 
L 122.54341 317.998182 
L 123.443003 338.381818 
L 124.042732 338.381818 
L 124.342596 345.176364 
L 124.64246 338.381818 
L 124.942325 324.792727 
L 125.542054 338.381818 
L 126.441647 338.381818 
L 126.741511 331.587273 
L 127.34124 331.587273 
L 127.641105 345.176364 
L 127.940969 331.587273 
L 128.240833 338.381818 
L 128.540698 338.381818 
L 128.840562 324.792727 
L 129.140427 338.381818 
L 129.440291 331.587273 
L 130.339884 331.587273 
L 130.639749 338.381818 
L 130.939613 338.381818 
L 131.239477 331.587273 
L 131.539342 331.587273 
L 131.839206 311.203636 
L 132.139071 317.998182 
L 132.438935 317.998182 
L 132.738799 338.381818 
L 133.038664 317.998182 
L 133.638393 331.587273 
L 133.938257 317.998182 
L 134.238121 324.792727 
L 134.537986 317.998182 
L 134.83785 317.998182 
L 135.137715 331.587273 
L 135.437579 331.587273 
L 136.037308 345.176364 
L 136.337172 338.381818 
L 136.936901 351.970909 
L 137.236765 351.970909 
L 137.53663 345.176364 
L 137.836494 345.176364 
L 138.436223 331.587273 
L 138.736087 345.176364 
L 139.335816 345.176364 
L 139.635681 311.203636 
L 139.935545 317.998182 
L 140.235409 331.587273 
L 140.535274 338.381818 
L 141.434867 338.381818 
L 141.734732 345.176364 
L 142.034596 345.176364 
L 142.634325 331.587273 
L 142.934189 345.176364 
L 143.234054 351.970909 
L 143.533918 345.176364 
L 143.833782 351.970909 
L 144.133647 345.176364 
L 146.232698 345.176364 
L 146.532562 338.381818 
L 146.832426 345.176364 
L 147.132291 345.176364 
L 147.432155 338.381818 
L 147.73202 338.381818 
L 148.031884 345.176364 
L 148.331748 345.176364 
L 148.631613 338.381818 
L 148.931477 345.176364 
L 149.231342 331.587273 
L 149.531206 338.381818 
L 149.83107 338.381818 
L 150.430799 351.970909 
L 152.229986 351.970909 
L 152.829714 338.381818 
L 153.129579 338.381818 
L 153.729308 324.792727 
L 154.029172 324.792727 
L 154.329036 317.998182 
L 154.628901 324.792727 
L 154.928765 338.381818 
L 155.22863 338.381818 
L 155.528494 324.792727 
L 155.828359 338.381818 
L 156.128223 317.998182 
L 156.428087 317.998182 
L 156.727952 324.792727 
L 157.627545 324.792727 
L 157.927409 331.587273 
L 158.227274 351.970909 
L 158.527138 345.176364 
L 158.827003 345.176364 
L 159.126867 351.970909 
L 159.426731 345.176364 
L 160.02646 345.176364 
L 160.326325 351.970909 
L 161.825647 351.970909 
L 162.125511 338.381818 
L 162.425375 345.176364 
L 162.72524 338.381818 
L 163.025104 338.381818 
L 163.324969 345.176364 
L 163.924697 331.587273 
L 164.224562 338.381818 
L 164.524426 338.381818 
L 164.824291 351.970909 
L 165.124155 351.970909 
L 165.424019 338.381818 
L 165.723884 345.176364 
L 166.323613 345.176364 
L 166.623477 351.970909 
L 166.923341 351.970909 
L 167.223206 345.176364 
L 167.52307 331.587273 
L 167.822935 345.176364 
L 168.122799 345.176364 
L 168.422663 351.970909 
L 168.722528 351.970909 
L 169.022392 338.381818 
L 169.322257 338.381818 
L 169.622121 331.587273 
L 170.521714 331.587273 
L 170.821579 324.792727 
L 171.421308 338.381818 
L 171.721172 331.587273 
L 172.021036 331.587273 
L 172.320901 351.970909 
L 172.620765 345.176364 
L 173.220494 345.176364 
L 173.520358 351.970909 
L 173.820223 331.587273 
L 174.120087 338.381818 
L 174.419952 351.970909 
L 174.719816 351.970909 
L 175.01968 345.176364 
L 175.619409 345.176364 
L 175.919274 351.970909 
L 177.118731 351.970909 
L 177.418596 345.176364 
L 178.618053 345.176364 
L 178.917918 324.792727 
L 179.217782 345.176364 
L 179.517646 345.176364 
L 179.817511 351.970909 
L 180.117375 351.970909 
L 180.41724 345.176364 
L 180.717104 345.176364 
L 181.016968 351.970909 
L 181.316833 351.970909 
L 181.616697 345.176364 
L 181.916562 351.970909 
L 182.216426 345.176364 
L 182.51629 331.587273 
L 182.816155 345.176364 
L 183.116019 345.176364 
L 183.715748 331.587273 
L 184.015612 345.176364 
L 185.514935 345.176364 
L 185.814799 351.970909 
L 187.613985 351.970909 
L 187.91385 345.176364 
L 188.213714 351.970909 
L 188.513579 351.970909 
L 188.813443 345.176364 
L 189.713036 345.176364 
L 190.012901 351.970909 
L 190.312765 345.176364 
L 190.612629 351.970909 
L 193.311409 351.970909 
L 193.611273 338.381818 
L 193.911138 338.381818 
L 194.211002 345.176364 
L 195.110595 345.176364 
L 195.41046 331.587273 
L 196.010189 345.176364 
L 196.909782 345.176364 
L 197.209646 331.587273 
L 197.509511 331.587273 
L 197.809375 338.381818 
L 198.109239 338.381818 
L 198.708968 351.970909 
L 199.308697 351.970909 
L 199.908426 338.381818 
L 200.508155 338.381818 
L 200.808019 345.176364 
L 201.407748 331.587273 
L 202.007477 345.176364 
L 202.307341 338.381818 
L 202.607206 338.381818 
L 202.90707 345.176364 
L 203.206934 338.381818 
L 203.806663 338.381818 
L 204.106528 331.587273 
L 204.406392 338.381818 
L 204.706256 331.587273 
L 205.006121 331.587273 
L 205.60585 345.176364 
L 206.805307 345.176364 
L 207.405036 331.587273 
L 208.004765 331.587273 
L 208.604494 317.998182 
L 209.204222 331.587273 
L 209.504087 324.792727 
L 209.803951 331.587273 
L 210.103816 331.587273 
L 210.703544 345.176364 
L 211.003409 338.381818 
L 211.603138 338.381818 
L 211.903002 345.176364 
L 212.802595 345.176364 
L 213.10246 338.381818 
L 213.402324 338.381818 
L 213.702188 331.587273 
L 214.002053 338.381818 
L 214.601782 338.381818 
L 214.901646 331.587273 
L 215.201511 317.998182 
L 215.501375 338.381818 
L 215.801239 331.587273 
L 216.101104 338.381818 
L 216.400968 338.381818 
L 216.700833 345.176364 
L 225.996629 345.176364 
L 226.296493 351.970909 
L 226.896222 351.970909 
L 227.196087 345.176364 
L 227.495951 351.970909 
L 227.795815 345.176364 
L 229.894866 345.176364 
L 230.194731 338.381818 
L 230.79446 351.970909 
L 232.89351 351.970909 
L 233.193375 345.176364 
L 234.692697 345.176364 
L 234.992561 338.381818 
L 235.292426 338.381818 
L 235.59229 345.176364 
L 238.890798 345.176364 
L 239.190663 351.970909 
L 244.888087 351.970909 
L 245.187951 345.176364 
L 245.487815 345.176364 
L 245.78768 351.970909 
L 258.381985 351.970909 
L 258.681849 345.176364 
L 259.581442 345.176364 
L 259.881307 338.381818 
L 260.181171 345.176364 
L 263.179815 345.176364 
L 263.47968 351.970909 
L 265.878595 351.970909 
L 266.178459 345.176364 
L 266.778188 345.176364 
L 267.078052 351.970909 
L 277.873171 351.970909 
L 278.173035 345.176364 
L 278.4729 351.970909 
L 486.278932 351.970909 
L 486.278932 351.970909 
" style="fill:none;stroke:#9467bd;stroke-linecap:square;stroke-width:1.5;"/>
   </g>
   <g id="line2d_23">
    <path clip-path="url(#pc6e1cad414)" d="M 83.860902 351.970909 
L 85.660088 351.970909 
L 85.959952 345.176364 
L 86.259817 331.587273 
L 86.559681 331.587273 
L 86.859546 317.998182 
L 87.15941 317.998182 
L 87.459274 311.203636 
L 87.759139 297.614545 
L 88.358868 284.025455 
L 88.658732 297.614545 
L 89.258461 284.025455 
L 89.558325 290.82 
L 89.85819 277.230909 
L 90.158054 277.230909 
L 90.457918 263.641818 
L 90.757783 270.436364 
L 91.057647 243.258182 
L 91.357512 236.463636 
L 91.657376 243.258182 
L 91.95724 243.258182 
L 92.257105 256.847273 
L 92.856834 243.258182 
L 93.456562 243.258182 
L 94.056291 256.847273 
L 94.356156 256.847273 
L 94.65602 263.641818 
L 94.955884 256.847273 
L 95.255749 243.258182 
L 95.555613 256.847273 
L 96.455206 256.847273 
L 96.755071 250.052727 
L 98.254393 250.052727 
L 98.554257 229.669091 
L 99.153986 243.258182 
L 99.453851 229.669091 
L 99.753715 229.669091 
L 100.053579 202.490909 
L 100.653308 202.490909 
L 100.953173 188.901818 
L 101.253037 188.901818 
L 101.552901 182.107273 
L 101.852766 182.107273 
L 102.15263 188.901818 
L 102.452495 188.901818 
L 102.752359 182.107273 
L 103.052223 188.901818 
L 103.352088 188.901818 
L 103.651952 216.08 
L 103.951817 216.08 
L 104.551545 243.258182 
L 104.85141 236.463636 
L 105.451139 236.463636 
L 105.751003 250.052727 
L 106.350732 236.463636 
L 106.650596 222.874545 
L 106.950461 222.874545 
L 107.550189 209.285455 
L 107.850054 209.285455 
L 108.149918 216.08 
L 108.449783 216.08 
L 108.749647 209.285455 
L 109.049511 182.107273 
L 109.349376 188.901818 
L 109.64924 188.901818 
L 109.949105 182.107273 
L 110.248969 182.107273 
L 110.548833 202.490909 
L 111.148562 202.490909 
L 111.448427 209.285455 
L 111.748291 222.874545 
L 112.048156 229.669091 
L 112.34802 243.258182 
L 112.647884 229.669091 
L 112.947749 229.669091 
L 113.247613 222.874545 
L 113.847342 222.874545 
L 114.147206 229.669091 
L 114.447071 222.874545 
L 115.0468 222.874545 
L 115.346664 202.490909 
L 115.646528 195.696364 
L 115.946393 195.696364 
L 116.246257 202.490909 
L 116.546122 202.490909 
L 116.845986 188.901818 
L 117.14585 195.696364 
L 117.445715 195.696364 
L 117.745579 182.107273 
L 118.645172 182.107273 
L 118.945037 161.723636 
L 119.244901 161.723636 
L 119.544766 154.929091 
L 120.744223 154.929091 
L 121.044088 148.134545 
L 121.343952 154.929091 
L 121.643816 154.929091 
L 122.243545 141.34 
L 122.54341 148.134545 
L 122.843274 141.34 
L 123.143138 141.34 
L 123.443003 134.545455 
L 123.742867 141.34 
L 124.342596 141.34 
L 124.64246 154.929091 
L 124.942325 161.723636 
L 125.542054 148.134545 
L 125.841918 148.134545 
L 126.141782 154.929091 
L 126.441647 154.929091 
L 126.741511 161.723636 
L 127.041376 175.312727 
L 127.34124 175.312727 
L 127.641105 161.723636 
L 127.940969 182.107273 
L 128.240833 175.312727 
L 128.540698 182.107273 
L 128.840562 182.107273 
L 129.140427 168.518182 
L 129.440291 161.723636 
L 129.740155 161.723636 
L 130.04002 154.929091 
L 130.939613 154.929091 
L 131.239477 161.723636 
L 131.539342 161.723636 
L 131.839206 175.312727 
L 132.438935 188.901818 
L 132.738799 175.312727 
L 133.038664 188.901818 
L 133.338528 175.312727 
L 133.638393 175.312727 
L 133.938257 182.107273 
L 134.238121 182.107273 
L 134.537986 188.901818 
L 134.83785 188.901818 
L 135.137715 175.312727 
L 135.437579 188.901818 
L 135.737443 182.107273 
L 136.037308 182.107273 
L 136.936901 161.723636 
L 137.53663 175.312727 
L 137.836494 168.518182 
L 138.136359 168.518182 
L 138.436223 161.723636 
L 138.736087 141.34 
L 139.035952 148.134545 
L 139.335816 148.134545 
L 139.635681 161.723636 
L 139.935545 154.929091 
L 140.235409 154.929091 
L 140.535274 175.312727 
L 140.835138 168.518182 
L 141.434867 182.107273 
L 141.734732 168.518182 
L 142.33446 182.107273 
L 142.634325 175.312727 
L 142.934189 161.723636 
L 143.234054 154.929091 
L 143.533918 161.723636 
L 143.833782 154.929091 
L 144.133647 154.929091 
L 144.433511 168.518182 
L 144.733376 168.518182 
L 145.932833 195.696364 
L 146.232698 209.285455 
L 146.532562 209.285455 
L 146.832426 202.490909 
L 147.432155 202.490909 
L 148.031884 188.901818 
L 148.331748 195.696364 
L 148.631613 195.696364 
L 148.931477 188.901818 
L 149.83107 188.901818 
L 150.430799 175.312727 
L 150.730664 175.312727 
L 151.030528 182.107273 
L 151.630257 182.107273 
L 152.229986 209.285455 
L 152.52985 216.08 
L 152.829714 209.285455 
L 153.429443 209.285455 
L 153.729308 202.490909 
L 154.029172 209.285455 
L 154.329036 209.285455 
L 154.628901 202.490909 
L 154.928765 182.107273 
L 155.22863 188.901818 
L 155.528494 188.901818 
L 155.828359 182.107273 
L 156.128223 182.107273 
L 156.428087 175.312727 
L 157.327681 175.312727 
L 157.627545 182.107273 
L 157.927409 175.312727 
L 158.227274 154.929091 
L 158.527138 161.723636 
L 158.827003 161.723636 
L 159.126867 154.929091 
L 159.426731 154.929091 
L 159.726596 161.723636 
L 160.02646 161.723636 
L 160.326325 154.929091 
L 160.626189 161.723636 
L 160.926053 161.723636 
L 161.225918 168.518182 
L 162.125511 168.518182 
L 162.425375 161.723636 
L 163.025104 161.723636 
L 163.324969 154.929091 
L 163.624833 161.723636 
L 163.924697 148.134545 
L 164.224562 141.34 
L 164.524426 141.34 
L 164.824291 127.750909 
L 165.124155 127.750909 
L 165.424019 148.134545 
L 165.723884 148.134545 
L 166.023748 154.929091 
L 166.323613 154.929091 
L 166.623477 161.723636 
L 166.923341 175.312727 
L 167.52307 175.312727 
L 167.822935 154.929091 
L 168.722528 154.929091 
L 169.322257 168.518182 
L 169.921985 195.696364 
L 171.121443 195.696364 
L 171.421308 188.901818 
L 171.721172 188.901818 
L 172.021036 182.107273 
L 172.320901 161.723636 
L 172.620765 161.723636 
L 173.220494 175.312727 
L 173.520358 168.518182 
L 173.820223 175.312727 
L 174.120087 168.518182 
L 174.419952 154.929091 
L 174.719816 154.929091 
L 175.01968 161.723636 
L 175.319545 161.723636 
L 175.619409 168.518182 
L 175.919274 161.723636 
L 176.219138 161.723636 
L 176.519002 175.312727 
L 177.118731 175.312727 
L 177.418596 182.107273 
L 177.71846 182.107273 
L 178.018324 175.312727 
L 178.318189 182.107273 
L 178.917918 182.107273 
L 179.217782 168.518182 
L 179.517646 168.518182 
L 179.817511 182.107273 
L 180.117375 182.107273 
L 180.41724 195.696364 
L 180.717104 202.490909 
L 181.016968 195.696364 
L 181.616697 195.696364 
L 181.916562 188.901818 
L 182.216426 188.901818 
L 182.51629 195.696364 
L 182.816155 182.107273 
L 183.715748 202.490909 
L 184.015612 188.901818 
L 184.315477 182.107273 
L 185.21507 182.107273 
L 185.514935 188.901818 
L 185.814799 182.107273 
L 186.114663 188.901818 
L 187.314121 188.901818 
L 187.91385 202.490909 
L 188.213714 195.696364 
L 188.813443 209.285455 
L 190.012901 209.285455 
L 190.312765 216.08 
L 190.612629 216.08 
L 190.912494 222.874545 
L 191.812087 222.874545 
L 192.411816 236.463636 
L 193.011545 236.463636 
L 193.311409 243.258182 
L 193.611273 243.258182 
L 193.911138 250.052727 
L 194.211002 243.258182 
L 194.510867 250.052727 
L 194.810731 250.052727 
L 195.110595 256.847273 
L 195.41046 256.847273 
L 196.010189 243.258182 
L 196.310053 243.258182 
L 196.609917 256.847273 
L 196.909782 263.641818 
L 197.509511 263.641818 
L 197.809375 250.052727 
L 198.109239 263.641818 
L 198.409104 256.847273 
L 198.708968 256.847273 
L 199.008833 263.641818 
L 199.308697 263.641818 
L 199.608562 270.436364 
L 200.20829 270.436364 
L 200.508155 277.230909 
L 200.808019 270.436364 
L 201.707612 270.436364 
L 202.007477 263.641818 
L 202.607206 263.641818 
L 202.90707 256.847273 
L 203.206934 256.847273 
L 203.506799 263.641818 
L 203.806663 256.847273 
L 204.406392 270.436364 
L 205.60585 270.436364 
L 205.905714 277.230909 
L 206.205578 290.82 
L 206.505443 297.614545 
L 207.105172 297.614545 
L 207.405036 304.409091 
L 208.604494 304.409091 
L 208.904358 297.614545 
L 209.204222 297.614545 
L 209.504087 311.203636 
L 209.803951 304.409091 
L 210.103816 304.409091 
L 210.703544 290.82 
L 211.003409 297.614545 
L 214.002053 297.614545 
L 214.301917 304.409091 
L 214.601782 304.409091 
L 214.901646 311.203636 
L 215.201511 311.203636 
L 215.501375 290.82 
L 216.400968 290.82 
L 216.700833 284.025455 
L 217.000697 290.82 
L 220.299205 290.82 
L 220.59907 304.409091 
L 222.098392 304.409091 
L 222.698121 317.998182 
L 223.297849 317.998182 
L 223.597714 324.792727 
L 225.3969 324.792727 
L 225.696765 317.998182 
L 225.996629 317.998182 
L 226.296493 311.203636 
L 226.596358 311.203636 
L 226.896222 317.998182 
L 227.196087 317.998182 
L 227.495951 311.203636 
L 227.795815 311.203636 
L 228.09568 317.998182 
L 229.894866 317.998182 
L 230.494595 304.409091 
L 231.094324 304.409091 
L 231.394188 311.203636 
L 232.593646 311.203636 
L 232.89351 317.998182 
L 234.692697 317.998182 
L 234.992561 324.792727 
L 235.292426 324.792727 
L 235.59229 317.998182 
L 237.991205 317.998182 
L 238.29107 324.792727 
L 238.890798 324.792727 
L 239.190663 317.998182 
L 243.0889 317.998182 
L 243.388765 324.792727 
L 245.487815 324.792727 
L 245.78768 317.998182 
L 246.087544 317.998182 
L 246.687273 331.587273 
L 248.786324 331.587273 
L 249.086188 338.381818 
L 249.685917 338.381818 
L 249.985781 345.176364 
L 255.383341 345.176364 
L 255.683205 351.970909 
L 259.881307 351.970909 
L 260.181171 345.176364 
L 263.179815 345.176364 
L 263.47968 338.381818 
L 263.779544 338.381818 
L 264.079408 345.176364 
L 266.778188 345.176364 
L 267.078052 338.381818 
L 269.177103 338.381818 
L 269.476968 345.176364 
L 276.373849 345.176364 
L 276.673713 351.970909 
L 278.173035 351.970909 
L 278.4729 345.176364 
L 280.871815 345.176364 
L 281.171679 351.970909 
L 486.278932 351.970909 
L 486.278932 351.970909 
" style="fill:none;stroke:#8c564b;stroke-linecap:square;stroke-width:1.5;"/>
   </g>
   <g id="patch_3">
    <path d="M 63.74 365.56 
L 63.74 66.6 
" style="fill:none;stroke:#000000;stroke-linecap:square;stroke-linejoin:miter;stroke-width:0.8;"/>
   </g>
   <g id="patch_4">
    <path d="M 506.399833 365.56 
L 506.399833 66.6 
" style="fill:none;stroke:#000000;stroke-linecap:square;stroke-linejoin:miter;stroke-width:0.8;"/>
   </g>
   <g id="patch_5">
    <path d="M 63.74 365.56 
L 506.399833 365.56 
" style="fill:none;stroke:#000000;stroke-linecap:square;stroke-linejoin:miter;stroke-width:0.8;"/>
   </g>
   <g id="patch_6">
    <path d="M 63.74 66.6 
L 506.399833 66.6 
" style="fill:none;stroke:#000000;stroke-linecap:square;stroke-linejoin:miter;stroke-width:0.8;"/>
   </g>
   <g id="legend_1">
    <g id="patch_7">
     <path d="M 74.24 59.1 
L 495.899833 59.1 
Q 498.899833 59.1 498.899833 56.1 
L 498.899833 13.565625 
Q 498.899833 10.565625 495.899833 10.565625 
L 74.24 10.565625 
Q 71.24 10.565625 71.24 13.565625 
L 71.24 56.1 
Q 71.24 59.1 74.24 59.1 
z
" style="fill:#ffffff;opacity:0.8;stroke:#cccccc;stroke-linejoin:miter;"/>
    </g>
    <g id="line2d_24">
     <path d="M 77.24 22.713281 
L 107.24 22.713281 
" style="fill:none;stroke:#1f77b4;stroke-linecap:square;stroke-width:1.5;"/>
    </g>
    <g id="line2d_25"/>
    <g id="text_20">
     <!-- CKC #0 -->
     <g transform="translate(119.24 27.963281)scale(0.15 -0.15)">
      <use xlink:href="#DejaVuSans-67"/>
      <use x="69.824219" xlink:href="#DejaVuSans-75"/>
      <use x="135.322266" xlink:href="#DejaVuSans-67"/>
      <use x="205.146484" xlink:href="#DejaVuSans-32"/>
      <use x="236.933594" xlink:href="#DejaVuSans-35"/>
      <use x="320.722656" xlink:href="#DejaVuSans-48"/>
     </g>
    </g>
    <g id="line2d_26">
     <path d="M 77.24 44.730469 
L 107.24 44.730469 
" style="fill:none;stroke:#ff7f0e;stroke-linecap:square;stroke-width:1.5;"/>
    </g>
    <g id="line2d_27"/>
    <g id="text_21">
     <!-- CKC #1 -->
     <g transform="translate(119.24 49.980469)scale(0.15 -0.15)">
      <use xlink:href="#DejaVuSans-67"/>
      <use x="69.824219" xlink:href="#DejaVuSans-75"/>
      <use x="135.322266" xlink:href="#DejaVuSans-67"/>
      <use x="205.146484" xlink:href="#DejaVuSans-32"/>
      <use x="236.933594" xlink:href="#DejaVuSans-35"/>
      <use x="320.722656" xlink:href="#DejaVuSans-49"/>
     </g>
    </g>
    <g id="line2d_28">
     <path d="M 182.575309 22.713281 
L 212.575309 22.713281 
" style="fill:none;stroke:#2ca02c;stroke-linecap:square;stroke-width:1.5;"/>
    </g>
    <g id="line2d_29"/>
    <g id="text_22">
     <!-- CKC #2 -->
     <g transform="translate(224.575309 27.963281)scale(0.15 -0.15)">
      <use xlink:href="#DejaVuSans-67"/>
      <use x="69.824219" xlink:href="#DejaVuSans-75"/>
      <use x="135.322266" xlink:href="#DejaVuSans-67"/>
      <use x="205.146484" xlink:href="#DejaVuSans-32"/>
      <use x="236.933594" xlink:href="#DejaVuSans-35"/>
      <use x="320.722656" xlink:href="#DejaVuSans-50"/>
     </g>
    </g>
    <g id="line2d_30">
     <path d="M 182.575309 44.730469 
L 212.575309 44.730469 
" style="fill:none;stroke:#d62728;stroke-linecap:square;stroke-width:1.5;"/>
    </g>
    <g id="line2d_31"/>
    <g id="text_23">
     <!-- CKC #3 -->
     <g transform="translate(224.575309 49.980469)scale(0.15 -0.15)">
      <use xlink:href="#DejaVuSans-67"/>
      <use x="69.824219" xlink:href="#DejaVuSans-75"/>
      <use x="135.322266" xlink:href="#DejaVuSans-67"/>
      <use x="205.146484" xlink:href="#DejaVuSans-32"/>
      <use x="236.933594" xlink:href="#DejaVuSans-35"/>
      <use x="320.722656" xlink:href="#DejaVuSans-51"/>
     </g>
    </g>
    <g id="line2d_32">
     <path d="M 287.910618 22.713281 
L 317.910618 22.713281 
" style="fill:none;stroke:#9467bd;stroke-linecap:square;stroke-width:1.5;"/>
    </g>
    <g id="line2d_33"/>
    <g id="text_24">
     <!-- CKC #4 -->
     <g transform="translate(329.910618 27.963281)scale(0.15 -0.15)">
      <use xlink:href="#DejaVuSans-67"/>
      <use x="69.824219" xlink:href="#DejaVuSans-75"/>
      <use x="135.322266" xlink:href="#DejaVuSans-67"/>
      <use x="205.146484" xlink:href="#DejaVuSans-32"/>
      <use x="236.933594" xlink:href="#DejaVuSans-35"/>
      <use x="320.722656" xlink:href="#DejaVuSans-52"/>
     </g>
    </g>
    <g id="line2d_34">
     <path d="M 393.245927 22.713281 
L 423.245927 22.713281 
" style="fill:none;stroke:#8c564b;stroke-linecap:square;stroke-width:1.5;"/>
    </g>
    <g id="line2d_35"/>
    <g id="text_25">
     <!-- CKC #5 -->
     <g transform="translate(435.245927 27.963281)scale(0.15 -0.15)">
      <use xlink:href="#DejaVuSans-67"/>
      <use x="69.824219" xlink:href="#DejaVuSans-75"/>
      <use x="135.322266" xlink:href="#DejaVuSans-67"/>
      <use x="205.146484" xlink:href="#DejaVuSans-32"/>
      <use x="236.933594" xlink:href="#DejaVuSans-35"/>
      <use x="320.722656" xlink:href="#DejaVuSans-53"/>
     </g>
    </g>
   </g>
  </g>
 </g>
 <defs>
  <clipPath id="pc6e1cad414">
   <rect height="298.96" width="442.659833" x="63.74" y="66.6"/>
  </clipPath>
 </defs>
</svg>
