<?xml version="1.0" encoding="utf-8" standalone="no"?>
<!DOCTYPE svg PUBLIC "-//W3C//DTD SVG 1.1//EN"
  "http://www.w3.org/Graphics/SVG/1.1/DTD/svg11.dtd">
<!-- Created with matplotlib (https://matplotlib.org/) -->
<svg height="432pt" version="1.1" viewBox="0 0 540 432" width="540pt" xmlns="http://www.w3.org/2000/svg" xmlns:xlink="http://www.w3.org/1999/xlink">
 <defs>
  <style type="text/css">
*{stroke-linecap:butt;stroke-linejoin:round;}
  </style>
 </defs>
 <g id="figure_1">
  <g id="patch_1">
   <path d="M 0 432 
L 540 432 
L 540 0 
L 0 0 
z
" style="fill:#ffffff;"/>
  </g>
  <g id="axes_1">
   <g id="patch_2">
    <path d="M 63.74 365.56 
L 511.558294 365.56 
L 511.558294 66.6 
L 63.74 66.6 
z
" style="fill:#ffffff;"/>
   </g>
   <g id="matplotlib.axis_1">
    <g id="xtick_1">
     <g id="line2d_1">
      <defs>
       <path d="M 0 0 
L 0 3.5 
" id="m4daedb72e5" style="stroke:#000000;stroke-width:0.8;"/>
      </defs>
      <g>
       <use style="stroke:#000000;stroke-width:0.8;" x="84.095377" xlink:href="#m4daedb72e5" y="365.56"/>
      </g>
     </g>
     <g id="text_1">
      <!-- 0 -->
      <defs>
       <path d="M 31.78125 66.40625 
Q 24.171875 66.40625 20.328125 58.90625 
Q 16.5 51.421875 16.5 36.375 
Q 16.5 21.390625 20.328125 13.890625 
Q 24.171875 6.390625 31.78125 6.390625 
Q 39.453125 6.390625 43.28125 13.890625 
Q 47.125 21.390625 47.125 36.375 
Q 47.125 51.421875 43.28125 58.90625 
Q 39.453125 66.40625 31.78125 66.40625 
z
M 31.78125 74.21875 
Q 44.046875 74.21875 50.515625 64.515625 
Q 56.984375 54.828125 56.984375 36.375 
Q 56.984375 17.96875 50.515625 8.265625 
Q 44.046875 -1.421875 31.78125 -1.421875 
Q 19.53125 -1.421875 13.0625 8.265625 
Q 6.59375 17.96875 6.59375 36.375 
Q 6.59375 54.828125 13.0625 64.515625 
Q 19.53125 74.21875 31.78125 74.21875 
z
" id="DejaVuSans-48"/>
      </defs>
      <g transform="translate(77.732877 387.756875)scale(0.2 -0.2)">
       <use xlink:href="#DejaVuSans-48"/>
      </g>
     </g>
    </g>
    <g id="xtick_2">
     <g id="line2d_2">
      <g>
       <use style="stroke:#000000;stroke-width:0.8;" x="144.948522" xlink:href="#m4daedb72e5" y="365.56"/>
      </g>
     </g>
     <g id="text_2">
      <!-- 100 -->
      <defs>
       <path d="M 12.40625 8.296875 
L 28.515625 8.296875 
L 28.515625 63.921875 
L 10.984375 60.40625 
L 10.984375 69.390625 
L 28.421875 72.90625 
L 38.28125 72.90625 
L 38.28125 8.296875 
L 54.390625 8.296875 
L 54.390625 0 
L 12.40625 0 
z
" id="DejaVuSans-49"/>
      </defs>
      <g transform="translate(125.861022 387.756875)scale(0.2 -0.2)">
       <use xlink:href="#DejaVuSans-49"/>
       <use x="63.623047" xlink:href="#DejaVuSans-48"/>
       <use x="127.246094" xlink:href="#DejaVuSans-48"/>
      </g>
     </g>
    </g>
    <g id="xtick_3">
     <g id="line2d_3">
      <g>
       <use style="stroke:#000000;stroke-width:0.8;" x="205.801667" xlink:href="#m4daedb72e5" y="365.56"/>
      </g>
     </g>
     <g id="text_3">
      <!-- 200 -->
      <defs>
       <path d="M 19.1875 8.296875 
L 53.609375 8.296875 
L 53.609375 0 
L 7.328125 0 
L 7.328125 8.296875 
Q 12.9375 14.109375 22.625 23.890625 
Q 32.328125 33.6875 34.8125 36.53125 
Q 39.546875 41.84375 41.421875 45.53125 
Q 43.3125 49.21875 43.3125 52.78125 
Q 43.3125 58.59375 39.234375 62.25 
Q 35.15625 65.921875 28.609375 65.921875 
Q 23.96875 65.921875 18.8125 64.3125 
Q 13.671875 62.703125 7.8125 59.421875 
L 7.8125 69.390625 
Q 13.765625 71.78125 18.9375 73 
Q 24.125 74.21875 28.421875 74.21875 
Q 39.75 74.21875 46.484375 68.546875 
Q 53.21875 62.890625 53.21875 53.421875 
Q 53.21875 48.921875 51.53125 44.890625 
Q 49.859375 40.875 45.40625 35.40625 
Q 44.1875 33.984375 37.640625 27.21875 
Q 31.109375 20.453125 19.1875 8.296875 
z
" id="DejaVuSans-50"/>
      </defs>
      <g transform="translate(186.714167 387.756875)scale(0.2 -0.2)">
       <use xlink:href="#DejaVuSans-50"/>
       <use x="63.623047" xlink:href="#DejaVuSans-48"/>
       <use x="127.246094" xlink:href="#DejaVuSans-48"/>
      </g>
     </g>
    </g>
    <g id="xtick_4">
     <g id="line2d_4">
      <g>
       <use style="stroke:#000000;stroke-width:0.8;" x="266.654812" xlink:href="#m4daedb72e5" y="365.56"/>
      </g>
     </g>
     <g id="text_4">
      <!-- 300 -->
      <defs>
       <path d="M 40.578125 39.3125 
Q 47.65625 37.796875 51.625 33 
Q 55.609375 28.21875 55.609375 21.1875 
Q 55.609375 10.40625 48.1875 4.484375 
Q 40.765625 -1.421875 27.09375 -1.421875 
Q 22.515625 -1.421875 17.65625 -0.515625 
Q 12.796875 0.390625 7.625 2.203125 
L 7.625 11.71875 
Q 11.71875 9.328125 16.59375 8.109375 
Q 21.484375 6.890625 26.8125 6.890625 
Q 36.078125 6.890625 40.9375 10.546875 
Q 45.796875 14.203125 45.796875 21.1875 
Q 45.796875 27.640625 41.28125 31.265625 
Q 36.765625 34.90625 28.71875 34.90625 
L 20.21875 34.90625 
L 20.21875 43.015625 
L 29.109375 43.015625 
Q 36.375 43.015625 40.234375 45.921875 
Q 44.09375 48.828125 44.09375 54.296875 
Q 44.09375 59.90625 40.109375 62.90625 
Q 36.140625 65.921875 28.71875 65.921875 
Q 24.65625 65.921875 20.015625 65.03125 
Q 15.375 64.15625 9.8125 62.3125 
L 9.8125 71.09375 
Q 15.4375 72.65625 20.34375 73.4375 
Q 25.25 74.21875 29.59375 74.21875 
Q 40.828125 74.21875 47.359375 69.109375 
Q 53.90625 64.015625 53.90625 55.328125 
Q 53.90625 49.265625 50.4375 45.09375 
Q 46.96875 40.921875 40.578125 39.3125 
z
" id="DejaVuSans-51"/>
      </defs>
      <g transform="translate(247.567312 387.756875)scale(0.2 -0.2)">
       <use xlink:href="#DejaVuSans-51"/>
       <use x="63.623047" xlink:href="#DejaVuSans-48"/>
       <use x="127.246094" xlink:href="#DejaVuSans-48"/>
      </g>
     </g>
    </g>
    <g id="xtick_5">
     <g id="line2d_5">
      <g>
       <use style="stroke:#000000;stroke-width:0.8;" x="327.507957" xlink:href="#m4daedb72e5" y="365.56"/>
      </g>
     </g>
     <g id="text_5">
      <!-- 400 -->
      <defs>
       <path d="M 37.796875 64.3125 
L 12.890625 25.390625 
L 37.796875 25.390625 
z
M 35.203125 72.90625 
L 47.609375 72.90625 
L 47.609375 25.390625 
L 58.015625 25.390625 
L 58.015625 17.1875 
L 47.609375 17.1875 
L 47.609375 0 
L 37.796875 0 
L 37.796875 17.1875 
L 4.890625 17.1875 
L 4.890625 26.703125 
z
" id="DejaVuSans-52"/>
      </defs>
      <g transform="translate(308.420457 387.756875)scale(0.2 -0.2)">
       <use xlink:href="#DejaVuSans-52"/>
       <use x="63.623047" xlink:href="#DejaVuSans-48"/>
       <use x="127.246094" xlink:href="#DejaVuSans-48"/>
      </g>
     </g>
    </g>
    <g id="xtick_6">
     <g id="line2d_6">
      <g>
       <use style="stroke:#000000;stroke-width:0.8;" x="388.361102" xlink:href="#m4daedb72e5" y="365.56"/>
      </g>
     </g>
     <g id="text_6">
      <!-- 500 -->
      <defs>
       <path d="M 10.796875 72.90625 
L 49.515625 72.90625 
L 49.515625 64.59375 
L 19.828125 64.59375 
L 19.828125 46.734375 
Q 21.96875 47.46875 24.109375 47.828125 
Q 26.265625 48.1875 28.421875 48.1875 
Q 40.625 48.1875 47.75 41.5 
Q 54.890625 34.8125 54.890625 23.390625 
Q 54.890625 11.625 47.5625 5.09375 
Q 40.234375 -1.421875 26.90625 -1.421875 
Q 22.3125 -1.421875 17.546875 -0.640625 
Q 12.796875 0.140625 7.71875 1.703125 
L 7.71875 11.625 
Q 12.109375 9.234375 16.796875 8.0625 
Q 21.484375 6.890625 26.703125 6.890625 
Q 35.15625 6.890625 40.078125 11.328125 
Q 45.015625 15.765625 45.015625 23.390625 
Q 45.015625 31 40.078125 35.4375 
Q 35.15625 39.890625 26.703125 39.890625 
Q 22.75 39.890625 18.8125 39.015625 
Q 14.890625 38.140625 10.796875 36.28125 
z
" id="DejaVuSans-53"/>
      </defs>
      <g transform="translate(369.273602 387.756875)scale(0.2 -0.2)">
       <use xlink:href="#DejaVuSans-53"/>
       <use x="63.623047" xlink:href="#DejaVuSans-48"/>
       <use x="127.246094" xlink:href="#DejaVuSans-48"/>
      </g>
     </g>
    </g>
    <g id="xtick_7">
     <g id="line2d_7">
      <g>
       <use style="stroke:#000000;stroke-width:0.8;" x="449.214247" xlink:href="#m4daedb72e5" y="365.56"/>
      </g>
     </g>
     <g id="text_7">
      <!-- 600 -->
      <defs>
       <path d="M 33.015625 40.375 
Q 26.375 40.375 22.484375 35.828125 
Q 18.609375 31.296875 18.609375 23.390625 
Q 18.609375 15.53125 22.484375 10.953125 
Q 26.375 6.390625 33.015625 6.390625 
Q 39.65625 6.390625 43.53125 10.953125 
Q 47.40625 15.53125 47.40625 23.390625 
Q 47.40625 31.296875 43.53125 35.828125 
Q 39.65625 40.375 33.015625 40.375 
z
M 52.59375 71.296875 
L 52.59375 62.3125 
Q 48.875 64.0625 45.09375 64.984375 
Q 41.3125 65.921875 37.59375 65.921875 
Q 27.828125 65.921875 22.671875 59.328125 
Q 17.53125 52.734375 16.796875 39.40625 
Q 19.671875 43.65625 24.015625 45.921875 
Q 28.375 48.1875 33.59375 48.1875 
Q 44.578125 48.1875 50.953125 41.515625 
Q 57.328125 34.859375 57.328125 23.390625 
Q 57.328125 12.15625 50.6875 5.359375 
Q 44.046875 -1.421875 33.015625 -1.421875 
Q 20.359375 -1.421875 13.671875 8.265625 
Q 6.984375 17.96875 6.984375 36.375 
Q 6.984375 53.65625 15.1875 63.9375 
Q 23.390625 74.21875 37.203125 74.21875 
Q 40.921875 74.21875 44.703125 73.484375 
Q 48.484375 72.75 52.59375 71.296875 
z
" id="DejaVuSans-54"/>
      </defs>
      <g transform="translate(430.126747 387.756875)scale(0.2 -0.2)">
       <use xlink:href="#DejaVuSans-54"/>
       <use x="63.623047" xlink:href="#DejaVuSans-48"/>
       <use x="127.246094" xlink:href="#DejaVuSans-48"/>
      </g>
     </g>
    </g>
    <g id="xtick_8">
     <g id="line2d_8">
      <g>
       <use style="stroke:#000000;stroke-width:0.8;" x="510.067392" xlink:href="#m4daedb72e5" y="365.56"/>
      </g>
     </g>
     <g id="text_8">
      <!-- 700 -->
      <defs>
       <path d="M 8.203125 72.90625 
L 55.078125 72.90625 
L 55.078125 68.703125 
L 28.609375 0 
L 18.3125 0 
L 43.21875 64.59375 
L 8.203125 64.59375 
z
" id="DejaVuSans-55"/>
      </defs>
      <g transform="translate(490.979892 387.756875)scale(0.2 -0.2)">
       <use xlink:href="#DejaVuSans-55"/>
       <use x="63.623047" xlink:href="#DejaVuSans-48"/>
       <use x="127.246094" xlink:href="#DejaVuSans-48"/>
      </g>
     </g>
    </g>
    <g id="text_9">
     <!-- # of games -->
     <defs>
      <path d="M 51.125 44 
L 36.921875 44 
L 32.8125 27.6875 
L 47.125 27.6875 
z
M 43.796875 71.78125 
L 38.71875 51.515625 
L 52.984375 51.515625 
L 58.109375 71.78125 
L 65.921875 71.78125 
L 60.890625 51.515625 
L 76.125 51.515625 
L 76.125 44 
L 58.984375 44 
L 54.984375 27.6875 
L 70.515625 27.6875 
L 70.515625 20.21875 
L 53.078125 20.21875 
L 48 0 
L 40.1875 0 
L 45.21875 20.21875 
L 30.90625 20.21875 
L 25.875 0 
L 18.015625 0 
L 23.09375 20.21875 
L 7.71875 20.21875 
L 7.71875 27.6875 
L 24.90625 27.6875 
L 29 44 
L 13.28125 44 
L 13.28125 51.515625 
L 30.90625 51.515625 
L 35.890625 71.78125 
z
" id="DejaVuSans-35"/>
      <path id="DejaVuSans-32"/>
      <path d="M 30.609375 48.390625 
Q 23.390625 48.390625 19.1875 42.75 
Q 14.984375 37.109375 14.984375 27.296875 
Q 14.984375 17.484375 19.15625 11.84375 
Q 23.34375 6.203125 30.609375 6.203125 
Q 37.796875 6.203125 41.984375 11.859375 
Q 46.1875 17.53125 46.1875 27.296875 
Q 46.1875 37.015625 41.984375 42.703125 
Q 37.796875 48.390625 30.609375 48.390625 
z
M 30.609375 56 
Q 42.328125 56 49.015625 48.375 
Q 55.71875 40.765625 55.71875 27.296875 
Q 55.71875 13.875 49.015625 6.21875 
Q 42.328125 -1.421875 30.609375 -1.421875 
Q 18.84375 -1.421875 12.171875 6.21875 
Q 5.515625 13.875 5.515625 27.296875 
Q 5.515625 40.765625 12.171875 48.375 
Q 18.84375 56 30.609375 56 
z
" id="DejaVuSans-111"/>
      <path d="M 37.109375 75.984375 
L 37.109375 68.5 
L 28.515625 68.5 
Q 23.6875 68.5 21.796875 66.546875 
Q 19.921875 64.59375 19.921875 59.515625 
L 19.921875 54.6875 
L 34.71875 54.6875 
L 34.71875 47.703125 
L 19.921875 47.703125 
L 19.921875 0 
L 10.890625 0 
L 10.890625 47.703125 
L 2.296875 47.703125 
L 2.296875 54.6875 
L 10.890625 54.6875 
L 10.890625 58.5 
Q 10.890625 67.625 15.140625 71.796875 
Q 19.390625 75.984375 28.609375 75.984375 
z
" id="DejaVuSans-102"/>
      <path d="M 45.40625 27.984375 
Q 45.40625 37.75 41.375 43.109375 
Q 37.359375 48.484375 30.078125 48.484375 
Q 22.859375 48.484375 18.828125 43.109375 
Q 14.796875 37.75 14.796875 27.984375 
Q 14.796875 18.265625 18.828125 12.890625 
Q 22.859375 7.515625 30.078125 7.515625 
Q 37.359375 7.515625 41.375 12.890625 
Q 45.40625 18.265625 45.40625 27.984375 
z
M 54.390625 6.78125 
Q 54.390625 -7.171875 48.1875 -13.984375 
Q 42 -20.796875 29.203125 -20.796875 
Q 24.46875 -20.796875 20.265625 -20.09375 
Q 16.0625 -19.390625 12.109375 -17.921875 
L 12.109375 -9.1875 
Q 16.0625 -11.328125 19.921875 -12.34375 
Q 23.78125 -13.375 27.78125 -13.375 
Q 36.625 -13.375 41.015625 -8.765625 
Q 45.40625 -4.15625 45.40625 5.171875 
L 45.40625 9.625 
Q 42.625 4.78125 38.28125 2.390625 
Q 33.9375 0 27.875 0 
Q 17.828125 0 11.671875 7.65625 
Q 5.515625 15.328125 5.515625 27.984375 
Q 5.515625 40.671875 11.671875 48.328125 
Q 17.828125 56 27.875 56 
Q 33.9375 56 38.28125 53.609375 
Q 42.625 51.21875 45.40625 46.390625 
L 45.40625 54.6875 
L 54.390625 54.6875 
z
" id="DejaVuSans-103"/>
      <path d="M 34.28125 27.484375 
Q 23.390625 27.484375 19.1875 25 
Q 14.984375 22.515625 14.984375 16.5 
Q 14.984375 11.71875 18.140625 8.90625 
Q 21.296875 6.109375 26.703125 6.109375 
Q 34.1875 6.109375 38.703125 11.40625 
Q 43.21875 16.703125 43.21875 25.484375 
L 43.21875 27.484375 
z
M 52.203125 31.203125 
L 52.203125 0 
L 43.21875 0 
L 43.21875 8.296875 
Q 40.140625 3.328125 35.546875 0.953125 
Q 30.953125 -1.421875 24.3125 -1.421875 
Q 15.921875 -1.421875 10.953125 3.296875 
Q 6 8.015625 6 15.921875 
Q 6 25.140625 12.171875 29.828125 
Q 18.359375 34.515625 30.609375 34.515625 
L 43.21875 34.515625 
L 43.21875 35.40625 
Q 43.21875 41.609375 39.140625 45 
Q 35.0625 48.390625 27.6875 48.390625 
Q 23 48.390625 18.546875 47.265625 
Q 14.109375 46.140625 10.015625 43.890625 
L 10.015625 52.203125 
Q 14.9375 54.109375 19.578125 55.046875 
Q 24.21875 56 28.609375 56 
Q 40.484375 56 46.34375 49.84375 
Q 52.203125 43.703125 52.203125 31.203125 
z
" id="DejaVuSans-97"/>
      <path d="M 52 44.1875 
Q 55.375 50.25 60.0625 53.125 
Q 64.75 56 71.09375 56 
Q 79.640625 56 84.28125 50.015625 
Q 88.921875 44.046875 88.921875 33.015625 
L 88.921875 0 
L 79.890625 0 
L 79.890625 32.71875 
Q 79.890625 40.578125 77.09375 44.375 
Q 74.3125 48.1875 68.609375 48.1875 
Q 61.625 48.1875 57.5625 43.546875 
Q 53.515625 38.921875 53.515625 30.90625 
L 53.515625 0 
L 44.484375 0 
L 44.484375 32.71875 
Q 44.484375 40.625 41.703125 44.40625 
Q 38.921875 48.1875 33.109375 48.1875 
Q 26.21875 48.1875 22.15625 43.53125 
Q 18.109375 38.875 18.109375 30.90625 
L 18.109375 0 
L 9.078125 0 
L 9.078125 54.6875 
L 18.109375 54.6875 
L 18.109375 46.1875 
Q 21.1875 51.21875 25.484375 53.609375 
Q 29.78125 56 35.6875 56 
Q 41.65625 56 45.828125 52.96875 
Q 50 49.953125 52 44.1875 
z
" id="DejaVuSans-109"/>
      <path d="M 56.203125 29.59375 
L 56.203125 25.203125 
L 14.890625 25.203125 
Q 15.484375 15.921875 20.484375 11.0625 
Q 25.484375 6.203125 34.421875 6.203125 
Q 39.59375 6.203125 44.453125 7.46875 
Q 49.3125 8.734375 54.109375 11.28125 
L 54.109375 2.78125 
Q 49.265625 0.734375 44.1875 -0.34375 
Q 39.109375 -1.421875 33.890625 -1.421875 
Q 20.796875 -1.421875 13.15625 6.1875 
Q 5.515625 13.8125 5.515625 26.8125 
Q 5.515625 40.234375 12.765625 48.109375 
Q 20.015625 56 32.328125 56 
Q 43.359375 56 49.78125 48.890625 
Q 56.203125 41.796875 56.203125 29.59375 
z
M 47.21875 32.234375 
Q 47.125 39.59375 43.09375 43.984375 
Q 39.0625 48.390625 32.421875 48.390625 
Q 24.90625 48.390625 20.390625 44.140625 
Q 15.875 39.890625 15.1875 32.171875 
z
" id="DejaVuSans-101"/>
      <path d="M 44.28125 53.078125 
L 44.28125 44.578125 
Q 40.484375 46.53125 36.375 47.5 
Q 32.28125 48.484375 27.875 48.484375 
Q 21.1875 48.484375 17.84375 46.4375 
Q 14.5 44.390625 14.5 40.28125 
Q 14.5 37.15625 16.890625 35.375 
Q 19.28125 33.59375 26.515625 31.984375 
L 29.59375 31.296875 
Q 39.15625 29.25 43.1875 25.515625 
Q 47.21875 21.78125 47.21875 15.09375 
Q 47.21875 7.46875 41.1875 3.015625 
Q 35.15625 -1.421875 24.609375 -1.421875 
Q 20.21875 -1.421875 15.453125 -0.5625 
Q 10.6875 0.296875 5.421875 2 
L 5.421875 11.28125 
Q 10.40625 8.6875 15.234375 7.390625 
Q 20.0625 6.109375 24.8125 6.109375 
Q 31.15625 6.109375 34.5625 8.28125 
Q 37.984375 10.453125 37.984375 14.40625 
Q 37.984375 18.0625 35.515625 20.015625 
Q 33.0625 21.96875 24.703125 23.78125 
L 21.578125 24.515625 
Q 13.234375 26.265625 9.515625 29.90625 
Q 5.8125 33.546875 5.8125 39.890625 
Q 5.8125 47.609375 11.28125 51.796875 
Q 16.75 56 26.8125 56 
Q 31.78125 56 36.171875 55.265625 
Q 40.578125 54.546875 44.28125 53.078125 
z
" id="DejaVuSans-115"/>
     </defs>
     <g transform="translate(215.205788 414.912344)scale(0.25 -0.25)">
      <use xlink:href="#DejaVuSans-35"/>
      <use x="83.789062" xlink:href="#DejaVuSans-32"/>
      <use x="115.576172" xlink:href="#DejaVuSans-111"/>
      <use x="176.757812" xlink:href="#DejaVuSans-102"/>
      <use x="211.962891" xlink:href="#DejaVuSans-32"/>
      <use x="243.75" xlink:href="#DejaVuSans-103"/>
      <use x="307.226562" xlink:href="#DejaVuSans-97"/>
      <use x="368.505859" xlink:href="#DejaVuSans-109"/>
      <use x="465.917969" xlink:href="#DejaVuSans-101"/>
      <use x="527.441406" xlink:href="#DejaVuSans-115"/>
     </g>
    </g>
   </g>
   <g id="matplotlib.axis_2">
    <g id="ytick_1">
     <g id="line2d_9">
      <defs>
       <path d="M 0 0 
L -3.5 0 
" id="mea70bb10e5" style="stroke:#000000;stroke-width:0.8;"/>
      </defs>
      <g>
       <use style="stroke:#000000;stroke-width:0.8;" x="63.74" xlink:href="#mea70bb10e5" y="351.970909"/>
      </g>
     </g>
     <g id="text_10">
      <!-- 0 -->
      <g transform="translate(44.015 359.569347)scale(0.2 -0.2)">
       <use xlink:href="#DejaVuSans-48"/>
      </g>
     </g>
    </g>
    <g id="ytick_2">
     <g id="line2d_10">
      <g>
       <use style="stroke:#000000;stroke-width:0.8;" x="63.74" xlink:href="#mea70bb10e5" y="317.998182"/>
      </g>
     </g>
     <g id="text_11">
      <!-- 5 -->
      <g transform="translate(44.015 325.596619)scale(0.2 -0.2)">
       <use xlink:href="#DejaVuSans-53"/>
      </g>
     </g>
    </g>
    <g id="ytick_3">
     <g id="line2d_11">
      <g>
       <use style="stroke:#000000;stroke-width:0.8;" x="63.74" xlink:href="#mea70bb10e5" y="284.025455"/>
      </g>
     </g>
     <g id="text_12">
      <!-- 10 -->
      <g transform="translate(31.29 291.623892)scale(0.2 -0.2)">
       <use xlink:href="#DejaVuSans-49"/>
       <use x="63.623047" xlink:href="#DejaVuSans-48"/>
      </g>
     </g>
    </g>
    <g id="ytick_4">
     <g id="line2d_12">
      <g>
       <use style="stroke:#000000;stroke-width:0.8;" x="63.74" xlink:href="#mea70bb10e5" y="250.052727"/>
      </g>
     </g>
     <g id="text_13">
      <!-- 15 -->
      <g transform="translate(31.29 257.651165)scale(0.2 -0.2)">
       <use xlink:href="#DejaVuSans-49"/>
       <use x="63.623047" xlink:href="#DejaVuSans-53"/>
      </g>
     </g>
    </g>
    <g id="ytick_5">
     <g id="line2d_13">
      <g>
       <use style="stroke:#000000;stroke-width:0.8;" x="63.74" xlink:href="#mea70bb10e5" y="216.08"/>
      </g>
     </g>
     <g id="text_14">
      <!-- 20 -->
      <g transform="translate(31.29 223.678437)scale(0.2 -0.2)">
       <use xlink:href="#DejaVuSans-50"/>
       <use x="63.623047" xlink:href="#DejaVuSans-48"/>
      </g>
     </g>
    </g>
    <g id="ytick_6">
     <g id="line2d_14">
      <g>
       <use style="stroke:#000000;stroke-width:0.8;" x="63.74" xlink:href="#mea70bb10e5" y="182.107273"/>
      </g>
     </g>
     <g id="text_15">
      <!-- 25 -->
      <g transform="translate(31.29 189.70571)scale(0.2 -0.2)">
       <use xlink:href="#DejaVuSans-50"/>
       <use x="63.623047" xlink:href="#DejaVuSans-53"/>
      </g>
     </g>
    </g>
    <g id="ytick_7">
     <g id="line2d_15">
      <g>
       <use style="stroke:#000000;stroke-width:0.8;" x="63.74" xlink:href="#mea70bb10e5" y="148.134545"/>
      </g>
     </g>
     <g id="text_16">
      <!-- 30 -->
      <g transform="translate(31.29 155.732983)scale(0.2 -0.2)">
       <use xlink:href="#DejaVuSans-51"/>
       <use x="63.623047" xlink:href="#DejaVuSans-48"/>
      </g>
     </g>
    </g>
    <g id="ytick_8">
     <g id="line2d_16">
      <g>
       <use style="stroke:#000000;stroke-width:0.8;" x="63.74" xlink:href="#mea70bb10e5" y="114.161818"/>
      </g>
     </g>
     <g id="text_17">
      <!-- 35 -->
      <g transform="translate(31.29 121.760256)scale(0.2 -0.2)">
       <use xlink:href="#DejaVuSans-51"/>
       <use x="63.623047" xlink:href="#DejaVuSans-53"/>
      </g>
     </g>
    </g>
    <g id="ytick_9">
     <g id="line2d_17">
      <g>
       <use style="stroke:#000000;stroke-width:0.8;" x="63.74" xlink:href="#mea70bb10e5" y="80.189091"/>
      </g>
     </g>
     <g id="text_18">
      <!-- 40 -->
      <g transform="translate(31.29 87.787528)scale(0.2 -0.2)">
       <use xlink:href="#DejaVuSans-52"/>
       <use x="63.623047" xlink:href="#DejaVuSans-48"/>
      </g>
     </g>
    </g>
    <g id="text_19">
     <!-- Number of Attackers in CKC -->
     <defs>
      <path d="M 9.8125 72.90625 
L 23.09375 72.90625 
L 55.421875 11.921875 
L 55.421875 72.90625 
L 64.984375 72.90625 
L 64.984375 0 
L 51.703125 0 
L 19.390625 60.984375 
L 19.390625 0 
L 9.8125 0 
z
" id="DejaVuSans-78"/>
      <path d="M 8.5 21.578125 
L 8.5 54.6875 
L 17.484375 54.6875 
L 17.484375 21.921875 
Q 17.484375 14.15625 20.5 10.265625 
Q 23.53125 6.390625 29.59375 6.390625 
Q 36.859375 6.390625 41.078125 11.03125 
Q 45.3125 15.671875 45.3125 23.6875 
L 45.3125 54.6875 
L 54.296875 54.6875 
L 54.296875 0 
L 45.3125 0 
L 45.3125 8.40625 
Q 42.046875 3.421875 37.71875 1 
Q 33.40625 -1.421875 27.6875 -1.421875 
Q 18.265625 -1.421875 13.375 4.4375 
Q 8.5 10.296875 8.5 21.578125 
z
M 31.109375 56 
z
" id="DejaVuSans-117"/>
      <path d="M 48.6875 27.296875 
Q 48.6875 37.203125 44.609375 42.84375 
Q 40.53125 48.484375 33.40625 48.484375 
Q 26.265625 48.484375 22.1875 42.84375 
Q 18.109375 37.203125 18.109375 27.296875 
Q 18.109375 17.390625 22.1875 11.75 
Q 26.265625 6.109375 33.40625 6.109375 
Q 40.53125 6.109375 44.609375 11.75 
Q 48.6875 17.390625 48.6875 27.296875 
z
M 18.109375 46.390625 
Q 20.953125 51.265625 25.265625 53.625 
Q 29.59375 56 35.59375 56 
Q 45.5625 56 51.78125 48.09375 
Q 58.015625 40.1875 58.015625 27.296875 
Q 58.015625 14.40625 51.78125 6.484375 
Q 45.5625 -1.421875 35.59375 -1.421875 
Q 29.59375 -1.421875 25.265625 0.953125 
Q 20.953125 3.328125 18.109375 8.203125 
L 18.109375 0 
L 9.078125 0 
L 9.078125 75.984375 
L 18.109375 75.984375 
z
" id="DejaVuSans-98"/>
      <path d="M 41.109375 46.296875 
Q 39.59375 47.171875 37.8125 47.578125 
Q 36.03125 48 33.890625 48 
Q 26.265625 48 22.1875 43.046875 
Q 18.109375 38.09375 18.109375 28.8125 
L 18.109375 0 
L 9.078125 0 
L 9.078125 54.6875 
L 18.109375 54.6875 
L 18.109375 46.1875 
Q 20.953125 51.171875 25.484375 53.578125 
Q 30.03125 56 36.53125 56 
Q 37.453125 56 38.578125 55.875 
Q 39.703125 55.765625 41.0625 55.515625 
z
" id="DejaVuSans-114"/>
      <path d="M 34.1875 63.1875 
L 20.796875 26.90625 
L 47.609375 26.90625 
z
M 28.609375 72.90625 
L 39.796875 72.90625 
L 67.578125 0 
L 57.328125 0 
L 50.6875 18.703125 
L 17.828125 18.703125 
L 11.1875 0 
L 0.78125 0 
z
" id="DejaVuSans-65"/>
      <path d="M 18.3125 70.21875 
L 18.3125 54.6875 
L 36.8125 54.6875 
L 36.8125 47.703125 
L 18.3125 47.703125 
L 18.3125 18.015625 
Q 18.3125 11.328125 20.140625 9.421875 
Q 21.96875 7.515625 27.59375 7.515625 
L 36.8125 7.515625 
L 36.8125 0 
L 27.59375 0 
Q 17.1875 0 13.234375 3.875 
Q 9.28125 7.765625 9.28125 18.015625 
L 9.28125 47.703125 
L 2.6875 47.703125 
L 2.6875 54.6875 
L 9.28125 54.6875 
L 9.28125 70.21875 
z
" id="DejaVuSans-116"/>
      <path d="M 48.78125 52.59375 
L 48.78125 44.1875 
Q 44.96875 46.296875 41.140625 47.34375 
Q 37.3125 48.390625 33.40625 48.390625 
Q 24.65625 48.390625 19.8125 42.84375 
Q 14.984375 37.3125 14.984375 27.296875 
Q 14.984375 17.28125 19.8125 11.734375 
Q 24.65625 6.203125 33.40625 6.203125 
Q 37.3125 6.203125 41.140625 7.25 
Q 44.96875 8.296875 48.78125 10.40625 
L 48.78125 2.09375 
Q 45.015625 0.34375 40.984375 -0.53125 
Q 36.96875 -1.421875 32.421875 -1.421875 
Q 20.0625 -1.421875 12.78125 6.34375 
Q 5.515625 14.109375 5.515625 27.296875 
Q 5.515625 40.671875 12.859375 48.328125 
Q 20.21875 56 33.015625 56 
Q 37.15625 56 41.109375 55.140625 
Q 45.0625 54.296875 48.78125 52.59375 
z
" id="DejaVuSans-99"/>
      <path d="M 9.078125 75.984375 
L 18.109375 75.984375 
L 18.109375 31.109375 
L 44.921875 54.6875 
L 56.390625 54.6875 
L 27.390625 29.109375 
L 57.625 0 
L 45.90625 0 
L 18.109375 26.703125 
L 18.109375 0 
L 9.078125 0 
z
" id="DejaVuSans-107"/>
      <path d="M 9.421875 54.6875 
L 18.40625 54.6875 
L 18.40625 0 
L 9.421875 0 
z
M 9.421875 75.984375 
L 18.40625 75.984375 
L 18.40625 64.59375 
L 9.421875 64.59375 
z
" id="DejaVuSans-105"/>
      <path d="M 54.890625 33.015625 
L 54.890625 0 
L 45.90625 0 
L 45.90625 32.71875 
Q 45.90625 40.484375 42.875 44.328125 
Q 39.84375 48.1875 33.796875 48.1875 
Q 26.515625 48.1875 22.3125 43.546875 
Q 18.109375 38.921875 18.109375 30.90625 
L 18.109375 0 
L 9.078125 0 
L 9.078125 54.6875 
L 18.109375 54.6875 
L 18.109375 46.1875 
Q 21.34375 51.125 25.703125 53.5625 
Q 30.078125 56 35.796875 56 
Q 45.21875 56 50.046875 50.171875 
Q 54.890625 44.34375 54.890625 33.015625 
z
" id="DejaVuSans-110"/>
      <path d="M 64.40625 67.28125 
L 64.40625 56.890625 
Q 59.421875 61.53125 53.78125 63.8125 
Q 48.140625 66.109375 41.796875 66.109375 
Q 29.296875 66.109375 22.65625 58.46875 
Q 16.015625 50.828125 16.015625 36.375 
Q 16.015625 21.96875 22.65625 14.328125 
Q 29.296875 6.6875 41.796875 6.6875 
Q 48.140625 6.6875 53.78125 8.984375 
Q 59.421875 11.28125 64.40625 15.921875 
L 64.40625 5.609375 
Q 59.234375 2.09375 53.4375 0.328125 
Q 47.65625 -1.421875 41.21875 -1.421875 
Q 24.65625 -1.421875 15.125 8.703125 
Q 5.609375 18.84375 5.609375 36.375 
Q 5.609375 53.953125 15.125 64.078125 
Q 24.65625 74.21875 41.21875 74.21875 
Q 47.75 74.21875 53.53125 72.484375 
Q 59.328125 70.75 64.40625 67.28125 
z
" id="DejaVuSans-67"/>
      <path d="M 9.8125 72.90625 
L 19.671875 72.90625 
L 19.671875 42.09375 
L 52.390625 72.90625 
L 65.09375 72.90625 
L 28.90625 38.921875 
L 67.671875 0 
L 54.6875 0 
L 19.671875 35.109375 
L 19.671875 0 
L 9.8125 0 
z
" id="DejaVuSans-75"/>
     </defs>
     <g transform="translate(23.823854 332.513594)rotate(-90)scale(0.166667 -0.166667)">
      <use xlink:href="#DejaVuSans-78"/>
      <use x="74.804688" xlink:href="#DejaVuSans-117"/>
      <use x="138.183594" xlink:href="#DejaVuSans-109"/>
      <use x="235.595703" xlink:href="#DejaVuSans-98"/>
      <use x="299.072266" xlink:href="#DejaVuSans-101"/>
      <use x="360.595703" xlink:href="#DejaVuSans-114"/>
      <use x="401.708984" xlink:href="#DejaVuSans-32"/>
      <use x="433.496094" xlink:href="#DejaVuSans-111"/>
      <use x="494.677734" xlink:href="#DejaVuSans-102"/>
      <use x="529.882812" xlink:href="#DejaVuSans-32"/>
      <use x="561.669922" xlink:href="#DejaVuSans-65"/>
      <use x="630.0625" xlink:href="#DejaVuSans-116"/>
      <use x="669.271484" xlink:href="#DejaVuSans-116"/>
      <use x="708.480469" xlink:href="#DejaVuSans-97"/>
      <use x="769.759766" xlink:href="#DejaVuSans-99"/>
      <use x="824.740234" xlink:href="#DejaVuSans-107"/>
      <use x="882.603516" xlink:href="#DejaVuSans-101"/>
      <use x="944.126953" xlink:href="#DejaVuSans-114"/>
      <use x="985.240234" xlink:href="#DejaVuSans-115"/>
      <use x="1037.339844" xlink:href="#DejaVuSans-32"/>
      <use x="1069.126953" xlink:href="#DejaVuSans-105"/>
      <use x="1096.910156" xlink:href="#DejaVuSans-110"/>
      <use x="1160.289062" xlink:href="#DejaVuSans-32"/>
      <use x="1192.076172" xlink:href="#DejaVuSans-67"/>
      <use x="1261.900391" xlink:href="#DejaVuSans-75"/>
      <use x="1327.398438" xlink:href="#DejaVuSans-67"/>
     </g>
    </g>
   </g>
   <g id="line2d_18">
    <path clip-path="url(#pec5416fed7)" d="M 84.095377 80.189091 
L 85.31244 188.901818 
L 85.920971 216.08 
L 86.529503 263.641818 
L 87.138034 290.82 
L 88.355097 290.82 
L 88.963629 311.203636 
L 89.57216 311.203636 
L 90.180691 324.792727 
L 90.789223 304.409091 
L 91.397754 317.998182 
L 92.006286 317.998182 
L 93.223349 290.82 
L 93.83188 311.203636 
L 94.440412 311.203636 
L 95.657475 284.025455 
L 96.266006 311.203636 
L 97.483069 324.792727 
L 98.700132 324.792727 
L 99.308663 338.381818 
L 99.917195 338.381818 
L 101.134258 324.792727 
L 101.742789 331.587273 
L 102.959852 317.998182 
L 103.568383 304.409091 
L 104.785446 317.998182 
L 105.393978 311.203636 
L 106.002509 324.792727 
L 106.611041 317.998182 
L 107.219572 304.409091 
L 107.828104 317.998182 
L 108.436635 324.792727 
L 109.045166 317.998182 
L 109.653698 324.792727 
L 110.262229 311.203636 
L 112.087824 311.203636 
L 112.696355 317.998182 
L 113.304887 331.587273 
L 113.913418 324.792727 
L 114.521949 324.792727 
L 115.130481 338.381818 
L 115.739012 345.176364 
L 116.347544 345.176364 
L 116.956075 331.587273 
L 118.173138 317.998182 
L 119.998733 338.381818 
L 120.607264 338.381818 
L 121.215795 345.176364 
L 122.432858 331.587273 
L 123.04139 331.587273 
L 123.649921 324.792727 
L 124.258453 324.792727 
L 125.475516 311.203636 
L 126.084047 317.998182 
L 126.692578 311.203636 
L 127.30111 324.792727 
L 127.909641 324.792727 
L 129.126704 297.614545 
L 129.735236 311.203636 
L 130.952299 311.203636 
L 132.169362 324.792727 
L 133.386424 324.792727 
L 133.994956 317.998182 
L 135.212019 331.587273 
L 135.82055 324.792727 
L 136.429082 324.792727 
L 137.037613 331.587273 
L 137.646145 331.587273 
L 138.863207 317.998182 
L 140.688802 317.998182 
L 141.297333 324.792727 
L 142.514396 351.970909 
L 143.731459 338.381818 
L 144.339991 338.381818 
L 145.557053 324.792727 
L 146.774116 324.792727 
L 147.382648 331.587273 
L 147.991179 324.792727 
L 148.599711 324.792727 
L 149.208242 338.381818 
L 149.816774 338.381818 
L 150.425305 331.587273 
L 151.033836 317.998182 
L 151.642368 324.792727 
L 152.250899 338.381818 
L 152.859431 338.381818 
L 153.467962 331.587273 
L 154.076494 338.381818 
L 154.685025 338.381818 
L 155.902088 324.792727 
L 157.119151 338.381818 
L 157.727682 338.381818 
L 158.336214 331.587273 
L 158.944745 331.587273 
L 159.553277 324.792727 
L 162.595934 324.792727 
L 163.204465 311.203636 
L 163.812997 311.203636 
L 164.421528 297.614545 
L 165.03006 297.614545 
L 165.638591 304.409091 
L 166.247123 297.614545 
L 166.855654 311.203636 
L 167.464186 284.025455 
L 168.072717 270.436364 
L 168.681249 311.203636 
L 169.28978 317.998182 
L 169.898311 304.409091 
L 170.506843 304.409091 
L 171.115374 290.82 
L 171.723906 311.203636 
L 172.940969 338.381818 
L 173.5495 317.998182 
L 174.158032 324.792727 
L 175.375094 324.792727 
L 175.983626 311.203636 
L 176.592157 311.203636 
L 177.200689 324.792727 
L 177.80922 324.792727 
L 178.417752 311.203636 
L 179.634815 297.614545 
L 180.243346 304.409091 
L 180.851878 297.614545 
L 181.460409 297.614545 
L 182.06894 311.203636 
L 182.677472 297.614545 
L 183.894535 338.381818 
L 185.111598 338.381818 
L 185.720129 331.587273 
L 186.328661 331.587273 
L 186.937192 324.792727 
L 188.154255 324.792727 
L 189.371318 311.203636 
L 189.979849 297.614545 
L 191.196912 324.792727 
L 191.805444 317.998182 
L 193.022507 317.998182 
L 194.239569 345.176364 
L 196.065164 345.176364 
L 196.673695 338.381818 
L 197.282227 324.792727 
L 198.49929 324.792727 
L 199.107821 317.998182 
L 199.716352 317.998182 
L 200.324884 311.203636 
L 200.933415 317.998182 
L 201.541947 311.203636 
L 202.150478 290.82 
L 202.75901 290.82 
L 203.367541 304.409091 
L 205.193136 324.792727 
L 205.801667 324.792727 
L 206.410198 331.587273 
L 207.01873 317.998182 
L 208.235793 331.587273 
L 209.452856 331.587273 
L 210.061387 338.381818 
L 210.669919 324.792727 
L 211.886981 311.203636 
L 212.495513 331.587273 
L 213.104044 345.176364 
L 214.321107 345.176364 
L 214.929639 338.381818 
L 215.53817 345.176364 
L 216.146702 331.587273 
L 216.755233 324.792727 
L 217.972296 324.792727 
L 218.580827 311.203636 
L 219.189359 324.792727 
L 219.79789 317.998182 
L 220.406422 324.792727 
L 221.014953 324.792727 
L 221.623485 317.998182 
L 222.840548 331.587273 
L 223.449079 331.587273 
L 224.05761 338.381818 
L 225.274673 338.381818 
L 225.883205 331.587273 
L 226.491736 311.203636 
L 227.100268 311.203636 
L 227.708799 304.409091 
L 228.317331 304.409091 
L 228.925862 324.792727 
L 230.142925 324.792727 
L 230.751456 338.381818 
L 231.359988 311.203636 
L 231.968519 311.203636 
L 232.577051 317.998182 
L 233.185582 317.998182 
L 233.794114 311.203636 
L 234.402645 324.792727 
L 235.011177 331.587273 
L 236.228239 331.587273 
L 236.836771 317.998182 
L 237.445302 290.82 
L 238.053834 304.409091 
L 238.662365 297.614545 
L 239.270897 311.203636 
L 239.879428 311.203636 
L 240.48796 297.614545 
L 241.096491 311.203636 
L 241.705023 311.203636 
L 242.922085 324.792727 
L 243.530617 317.998182 
L 244.139148 338.381818 
L 244.74768 324.792727 
L 245.356211 331.587273 
L 245.964743 304.409091 
L 246.573274 317.998182 
L 247.790337 317.998182 
L 248.398868 324.792727 
L 249.0074 311.203636 
L 249.615931 304.409091 
L 250.224463 317.998182 
L 250.832994 317.998182 
L 251.441526 297.614545 
L 252.050057 304.409091 
L 252.658589 297.614545 
L 253.26712 297.614545 
L 253.875651 311.203636 
L 254.484183 311.203636 
L 255.701246 297.614545 
L 256.309777 317.998182 
L 257.52684 331.587273 
L 258.743903 317.998182 
L 259.352435 317.998182 
L 259.960966 311.203636 
L 260.569497 317.998182 
L 261.178029 311.203636 
L 261.78656 311.203636 
L 262.395092 317.998182 
L 263.003623 331.587273 
L 263.612155 317.998182 
L 264.220686 331.587273 
L 264.829218 351.970909 
L 265.437749 351.970909 
L 266.04628 345.176364 
L 266.654812 345.176364 
L 267.263343 324.792727 
L 267.871875 338.381818 
L 268.480406 338.381818 
L 269.088938 345.176364 
L 269.697469 338.381818 
L 270.306001 345.176364 
L 272.131595 345.176364 
L 272.740126 331.587273 
L 273.348658 331.587273 
L 273.957189 338.381818 
L 274.565721 338.381818 
L 275.174252 324.792727 
L 275.782784 317.998182 
L 277.608378 317.998182 
L 278.825441 304.409091 
L 280.042504 331.587273 
L 280.651035 331.587273 
L 281.259567 317.998182 
L 281.868098 311.203636 
L 282.47663 324.792727 
L 283.085161 311.203636 
L 283.693693 304.409091 
L 284.302224 311.203636 
L 284.910755 311.203636 
L 285.519287 317.998182 
L 286.127818 331.587273 
L 286.73635 317.998182 
L 287.344881 311.203636 
L 288.561944 311.203636 
L 289.779007 324.792727 
L 290.387538 311.203636 
L 290.99607 304.409091 
L 292.213133 317.998182 
L 292.821664 317.998182 
L 293.430196 324.792727 
L 294.038727 338.381818 
L 294.647259 345.176364 
L 295.864322 345.176364 
L 296.472853 351.970909 
L 298.298447 351.970909 
L 298.906979 345.176364 
L 299.51551 345.176364 
L 300.124042 338.381818 
L 300.732573 324.792727 
L 301.949636 311.203636 
L 302.558167 317.998182 
L 303.166699 331.587273 
L 303.77523 331.587273 
L 304.383762 338.381818 
L 305.600825 338.381818 
L 306.209356 345.176364 
L 306.817888 345.176364 
L 307.426419 338.381818 
L 308.034951 338.381818 
L 308.643482 331.587273 
L 309.252013 338.381818 
L 309.860545 338.381818 
L 310.469076 331.587273 
L 311.686139 331.587273 
L 312.294671 345.176364 
L 313.511734 345.176364 
L 314.120265 331.587273 
L 314.728796 331.587273 
L 315.337328 324.792727 
L 316.554391 338.381818 
L 317.162922 331.587273 
L 317.771454 331.587273 
L 318.379985 338.381818 
L 319.597048 338.381818 
L 320.20558 345.176364 
L 321.422642 345.176364 
L 322.031174 331.587273 
L 322.639705 324.792727 
L 323.248237 311.203636 
L 323.856768 317.998182 
L 324.4653 317.998182 
L 325.073831 331.587273 
L 325.682363 338.381818 
L 326.290894 338.381818 
L 327.507957 351.970909 
L 328.116488 351.970909 
L 328.72502 345.176364 
L 329.333551 331.587273 
L 331.159146 331.587273 
L 331.767677 338.381818 
L 332.376209 324.792727 
L 332.98474 324.792727 
L 333.593271 331.587273 
L 335.418866 331.587273 
L 336.635929 345.176364 
L 338.461523 345.176364 
L 339.070054 351.970909 
L 341.50418 351.970909 
L 342.721243 338.381818 
L 344.546838 338.381818 
L 345.155369 345.176364 
L 348.806558 345.176364 
L 349.415089 351.970909 
L 350.023621 351.970909 
L 350.632152 345.176364 
L 351.849215 345.176364 
L 352.457746 351.970909 
L 353.674809 351.970909 
L 354.283341 345.176364 
L 361.585718 345.176364 
L 362.19425 351.970909 
L 364.628375 351.970909 
L 365.236907 345.176364 
L 366.45397 345.176364 
L 367.062501 338.381818 
L 368.279564 351.970909 
L 368.888096 345.176364 
L 370.71369 345.176364 
L 371.322221 351.970909 
L 374.364879 351.970909 
L 374.97341 345.176364 
L 379.23313 345.176364 
L 379.841662 351.970909 
L 381.667256 351.970909 
L 382.275787 345.176364 
L 385.926976 345.176364 
L 386.535508 351.970909 
L 425.48152 351.970909 
L 426.090052 345.176364 
L 428.524178 345.176364 
L 429.132709 351.970909 
L 468.078722 351.970909 
L 468.687253 345.176364 
L 471.121379 345.176364 
L 471.729911 351.970909 
L 491.202917 351.970909 
L 491.202917 351.970909 
" style="fill:none;stroke:#1f77b4;stroke-linecap:square;stroke-width:1.5;"/>
   </g>
   <g id="line2d_19">
    <path clip-path="url(#pec5416fed7)" d="M 84.095377 284.025455 
L 84.703908 243.258182 
L 85.31244 216.08 
L 85.920971 216.08 
L 86.529503 188.901818 
L 87.746566 229.669091 
L 88.355097 256.847273 
L 88.963629 243.258182 
L 89.57216 250.052727 
L 90.180691 250.052727 
L 90.789223 263.641818 
L 91.397754 243.258182 
L 92.006286 270.436364 
L 92.614817 290.82 
L 93.223349 284.025455 
L 93.83188 250.052727 
L 94.440412 256.847273 
L 95.048943 256.847273 
L 95.657475 263.641818 
L 96.266006 250.052727 
L 96.874537 270.436364 
L 97.483069 270.436364 
L 98.0916 284.025455 
L 98.700132 284.025455 
L 99.308663 277.230909 
L 99.917195 277.230909 
L 100.525726 284.025455 
L 101.742789 284.025455 
L 102.35132 311.203636 
L 102.959852 304.409091 
L 103.568383 311.203636 
L 104.176915 290.82 
L 104.785446 277.230909 
L 105.393978 297.614545 
L 106.002509 304.409091 
L 106.611041 297.614545 
L 107.219572 297.614545 
L 107.828104 284.025455 
L 109.045166 297.614545 
L 109.653698 297.614545 
L 110.262229 304.409091 
L 111.479292 304.409091 
L 112.087824 311.203636 
L 112.696355 311.203636 
L 113.304887 297.614545 
L 113.913418 297.614545 
L 114.521949 277.230909 
L 115.130481 270.436364 
L 115.739012 277.230909 
L 116.347544 290.82 
L 116.956075 290.82 
L 117.564607 304.409091 
L 118.173138 311.203636 
L 118.78167 297.614545 
L 119.998733 297.614545 
L 120.607264 304.409091 
L 121.215795 297.614545 
L 121.824327 317.998182 
L 122.432858 317.998182 
L 123.04139 304.409091 
L 123.649921 304.409091 
L 124.866984 317.998182 
L 125.475516 317.998182 
L 126.084047 311.203636 
L 126.692578 324.792727 
L 127.30111 304.409091 
L 127.909641 324.792727 
L 128.518173 324.792727 
L 129.126704 331.587273 
L 130.343767 317.998182 
L 130.952299 317.998182 
L 131.56083 311.203636 
L 132.169362 317.998182 
L 132.777893 311.203636 
L 133.386424 317.998182 
L 133.994956 317.998182 
L 134.603487 324.792727 
L 135.212019 324.792727 
L 135.82055 317.998182 
L 136.429082 331.587273 
L 137.037613 317.998182 
L 137.646145 317.998182 
L 138.254676 311.203636 
L 138.863207 297.614545 
L 140.688802 297.614545 
L 141.297333 304.409091 
L 142.514396 290.82 
L 143.122928 304.409091 
L 143.731459 304.409091 
L 144.948522 317.998182 
L 145.557053 338.381818 
L 146.165585 331.587273 
L 146.774116 331.587273 
L 147.382648 304.409091 
L 148.599711 317.998182 
L 149.208242 290.82 
L 149.816774 290.82 
L 150.425305 311.203636 
L 151.033836 311.203636 
L 152.250899 297.614545 
L 153.467962 297.614545 
L 154.076494 290.82 
L 155.293557 304.409091 
L 155.902088 324.792727 
L 156.51062 317.998182 
L 157.119151 317.998182 
L 157.727682 331.587273 
L 158.336214 331.587273 
L 158.944745 317.998182 
L 160.161808 317.998182 
L 160.77034 331.587273 
L 161.987403 331.587273 
L 162.595934 324.792727 
L 163.204465 331.587273 
L 163.812997 324.792727 
L 164.421528 324.792727 
L 165.03006 311.203636 
L 165.638591 311.203636 
L 166.247123 324.792727 
L 166.855654 317.998182 
L 167.464186 317.998182 
L 168.072717 324.792727 
L 168.681249 284.025455 
L 169.28978 290.82 
L 169.898311 311.203636 
L 170.506843 311.203636 
L 171.115374 317.998182 
L 171.723906 311.203636 
L 172.332437 311.203636 
L 172.940969 304.409091 
L 174.766563 324.792727 
L 175.983626 324.792727 
L 176.592157 317.998182 
L 177.200689 297.614545 
L 177.80922 290.82 
L 178.417752 277.230909 
L 179.026283 284.025455 
L 179.634815 317.998182 
L 180.243346 317.998182 
L 180.851878 331.587273 
L 181.460409 331.587273 
L 182.677472 317.998182 
L 183.894535 317.998182 
L 184.503066 324.792727 
L 185.111598 317.998182 
L 185.720129 331.587273 
L 186.328661 331.587273 
L 186.937192 324.792727 
L 187.545723 331.587273 
L 188.762786 331.587273 
L 189.371318 338.381818 
L 189.979849 324.792727 
L 191.196912 311.203636 
L 191.805444 311.203636 
L 192.413975 317.998182 
L 193.022507 311.203636 
L 193.631038 297.614545 
L 194.239569 290.82 
L 196.065164 311.203636 
L 197.282227 338.381818 
L 197.890758 324.792727 
L 198.49929 324.792727 
L 199.107821 331.587273 
L 200.324884 331.587273 
L 200.933415 311.203636 
L 202.75901 331.587273 
L 203.367541 324.792727 
L 203.976073 331.587273 
L 205.801667 311.203636 
L 206.410198 311.203636 
L 207.627261 324.792727 
L 208.235793 317.998182 
L 208.844324 331.587273 
L 209.452856 311.203636 
L 210.061387 317.998182 
L 210.669919 304.409091 
L 211.27845 311.203636 
L 211.886981 324.792727 
L 212.495513 317.998182 
L 213.104044 304.409091 
L 213.712576 311.203636 
L 214.321107 311.203636 
L 214.929639 324.792727 
L 215.53817 324.792727 
L 216.146702 338.381818 
L 216.755233 345.176364 
L 218.580827 324.792727 
L 219.189359 311.203636 
L 219.79789 317.998182 
L 220.406422 317.998182 
L 221.014953 297.614545 
L 221.623485 317.998182 
L 222.232016 324.792727 
L 222.840548 317.998182 
L 224.05761 317.998182 
L 224.666142 331.587273 
L 225.883205 345.176364 
L 226.491736 338.381818 
L 227.100268 345.176364 
L 227.708799 345.176364 
L 228.317331 338.381818 
L 228.925862 317.998182 
L 229.534394 317.998182 
L 230.142925 324.792727 
L 231.359988 311.203636 
L 232.577051 311.203636 
L 233.185582 317.998182 
L 233.794114 317.998182 
L 234.402645 304.409091 
L 235.011177 317.998182 
L 235.619708 324.792727 
L 236.836771 351.970909 
L 237.445302 351.970909 
L 238.053834 331.587273 
L 238.662365 331.587273 
L 239.270897 311.203636 
L 240.48796 338.381818 
L 241.096491 317.998182 
L 241.705023 304.409091 
L 242.313554 297.614545 
L 242.922085 304.409091 
L 243.530617 304.409091 
L 244.139148 277.230909 
L 244.74768 290.82 
L 245.356211 311.203636 
L 245.964743 317.998182 
L 246.573274 297.614545 
L 247.181806 311.203636 
L 247.790337 317.998182 
L 248.398868 317.998182 
L 249.0074 304.409091 
L 249.615931 311.203636 
L 250.224463 304.409091 
L 250.832994 304.409091 
L 251.441526 317.998182 
L 252.050057 304.409091 
L 252.658589 297.614545 
L 253.26712 304.409091 
L 253.875651 304.409091 
L 254.484183 317.998182 
L 255.092714 311.203636 
L 255.701246 317.998182 
L 256.309777 304.409091 
L 256.918309 297.614545 
L 257.52684 297.614545 
L 258.743903 311.203636 
L 259.352435 311.203636 
L 259.960966 317.998182 
L 260.569497 317.998182 
L 261.178029 324.792727 
L 262.395092 324.792727 
L 263.003623 317.998182 
L 263.612155 324.792727 
L 264.220686 324.792727 
L 265.437749 311.203636 
L 266.04628 311.203636 
L 266.654812 324.792727 
L 267.263343 331.587273 
L 267.871875 317.998182 
L 270.914532 317.998182 
L 271.523064 338.381818 
L 272.131595 338.381818 
L 272.740126 324.792727 
L 273.957189 324.792727 
L 274.565721 331.587273 
L 276.391315 331.587273 
L 276.999847 324.792727 
L 277.608378 324.792727 
L 279.433972 304.409091 
L 280.042504 311.203636 
L 280.651035 304.409091 
L 281.868098 331.587273 
L 282.47663 317.998182 
L 283.085161 317.998182 
L 283.693693 324.792727 
L 284.302224 317.998182 
L 284.910755 338.381818 
L 285.519287 338.381818 
L 286.127818 324.792727 
L 286.73635 338.381818 
L 287.344881 338.381818 
L 289.170476 317.998182 
L 289.779007 331.587273 
L 290.387538 338.381818 
L 290.99607 338.381818 
L 291.604601 324.792727 
L 292.213133 331.587273 
L 292.821664 317.998182 
L 294.647259 297.614545 
L 295.25579 304.409091 
L 295.864322 324.792727 
L 296.472853 317.998182 
L 297.081384 324.792727 
L 297.689916 338.381818 
L 300.124042 338.381818 
L 300.732573 345.176364 
L 301.341105 345.176364 
L 301.949636 338.381818 
L 303.166699 311.203636 
L 303.77523 331.587273 
L 304.383762 324.792727 
L 304.992293 331.587273 
L 306.209356 331.587273 
L 307.426419 345.176364 
L 308.643482 345.176364 
L 309.252013 338.381818 
L 309.860545 338.381818 
L 311.077608 351.970909 
L 311.686139 351.970909 
L 312.294671 338.381818 
L 312.903202 338.381818 
L 314.120265 351.970909 
L 316.554391 324.792727 
L 317.162922 331.587273 
L 318.379985 317.998182 
L 318.988517 331.587273 
L 319.597048 331.587273 
L 320.20558 324.792727 
L 320.814111 338.381818 
L 321.422642 345.176364 
L 323.248237 345.176364 
L 323.856768 338.381818 
L 324.4653 351.970909 
L 325.073831 338.381818 
L 325.682363 338.381818 
L 326.290894 345.176364 
L 326.899425 338.381818 
L 327.507957 338.381818 
L 328.116488 345.176364 
L 329.333551 345.176364 
L 329.942083 351.970909 
L 331.159146 351.970909 
L 331.767677 345.176364 
L 332.98474 345.176364 
L 333.593271 338.381818 
L 334.201803 345.176364 
L 335.418866 345.176364 
L 336.027397 338.381818 
L 337.852992 338.381818 
L 338.461523 345.176364 
L 339.070054 338.381818 
L 339.678586 338.381818 
L 340.287117 345.176364 
L 342.112712 345.176364 
L 342.721243 351.970909 
L 344.546838 351.970909 
L 345.155369 345.176364 
L 346.980963 345.176364 
L 347.589495 338.381818 
L 348.198026 345.176364 
L 348.806558 345.176364 
L 349.415089 338.381818 
L 350.632152 338.381818 
L 351.240683 345.176364 
L 351.849215 345.176364 
L 352.457746 338.381818 
L 353.674809 338.381818 
L 354.283341 345.176364 
L 356.108935 345.176364 
L 356.717467 351.970909 
L 358.543061 351.970909 
L 359.151592 345.176364 
L 360.368655 345.176364 
L 360.977187 351.970909 
L 361.585718 351.970909 
L 362.19425 345.176364 
L 362.802781 351.970909 
L 367.062501 351.970909 
L 368.279564 338.381818 
L 368.888096 345.176364 
L 371.322221 345.176364 
L 371.930753 351.970909 
L 379.23313 351.970909 
L 379.841662 345.176364 
L 384.709913 345.176364 
L 385.318445 351.970909 
L 385.926976 351.970909 
L 386.535508 345.176364 
L 388.361102 345.176364 
L 388.969633 351.970909 
L 428.524178 351.970909 
L 429.132709 345.176364 
L 430.958303 345.176364 
L 431.566835 351.970909 
L 471.121379 351.970909 
L 471.729911 345.176364 
L 472.946973 345.176364 
L 473.555505 351.970909 
L 491.202917 351.970909 
L 491.202917 351.970909 
" style="fill:none;stroke:#ff7f0e;stroke-linecap:square;stroke-width:1.5;"/>
   </g>
   <g id="line2d_20">
    <path clip-path="url(#pec5416fed7)" d="M 84.095377 351.970909 
L 84.703908 338.381818 
L 85.31244 317.998182 
L 85.920971 290.82 
L 86.529503 277.230909 
L 87.138034 256.847273 
L 87.746566 256.847273 
L 88.355097 236.463636 
L 88.963629 263.641818 
L 89.57216 256.847273 
L 90.180691 243.258182 
L 91.397754 256.847273 
L 92.006286 236.463636 
L 92.614817 243.258182 
L 93.223349 256.847273 
L 93.83188 256.847273 
L 94.440412 243.258182 
L 95.048943 263.641818 
L 96.266006 263.641818 
L 96.874537 250.052727 
L 97.483069 256.847273 
L 98.0916 256.847273 
L 98.700132 270.436364 
L 99.308663 270.436364 
L 99.917195 284.025455 
L 101.134258 297.614545 
L 101.742789 290.82 
L 102.35132 277.230909 
L 102.959852 284.025455 
L 103.568383 277.230909 
L 104.785446 277.230909 
L 105.393978 256.847273 
L 106.002509 250.052727 
L 107.219572 277.230909 
L 107.828104 284.025455 
L 108.436635 277.230909 
L 109.045166 290.82 
L 109.653698 284.025455 
L 110.262229 284.025455 
L 110.870761 290.82 
L 111.479292 284.025455 
L 112.087824 290.82 
L 114.521949 290.82 
L 115.130481 284.025455 
L 115.739012 270.436364 
L 116.347544 263.641818 
L 116.956075 277.230909 
L 118.173138 277.230909 
L 118.78167 290.82 
L 119.390201 284.025455 
L 119.998733 284.025455 
L 120.607264 277.230909 
L 121.215795 277.230909 
L 121.824327 256.847273 
L 123.04139 256.847273 
L 123.649921 277.230909 
L 124.258453 277.230909 
L 124.866984 270.436364 
L 127.909641 270.436364 
L 128.518173 284.025455 
L 129.126704 277.230909 
L 129.735236 277.230909 
L 130.952299 290.82 
L 131.56083 290.82 
L 132.169362 277.230909 
L 132.777893 277.230909 
L 133.386424 263.641818 
L 133.994956 277.230909 
L 134.603487 270.436364 
L 135.212019 270.436364 
L 135.82055 290.82 
L 136.429082 270.436364 
L 137.037613 297.614545 
L 137.646145 290.82 
L 138.254676 290.82 
L 138.863207 277.230909 
L 140.08027 277.230909 
L 140.688802 270.436364 
L 141.297333 277.230909 
L 141.905865 270.436364 
L 142.514396 277.230909 
L 143.122928 263.641818 
L 143.731459 284.025455 
L 144.339991 284.025455 
L 144.948522 270.436364 
L 145.557053 263.641818 
L 146.165585 284.025455 
L 146.774116 290.82 
L 147.382648 290.82 
L 148.599711 277.230909 
L 149.208242 284.025455 
L 149.816774 277.230909 
L 150.425305 263.641818 
L 151.033836 290.82 
L 151.642368 304.409091 
L 152.250899 304.409091 
L 152.859431 290.82 
L 153.467962 304.409091 
L 154.076494 311.203636 
L 154.685025 304.409091 
L 155.293557 311.203636 
L 155.902088 290.82 
L 156.51062 290.82 
L 157.119151 304.409091 
L 157.727682 290.82 
L 158.336214 304.409091 
L 158.944745 304.409091 
L 159.553277 311.203636 
L 160.161808 311.203636 
L 160.77034 297.614545 
L 161.378871 311.203636 
L 162.595934 324.792727 
L 163.812997 311.203636 
L 164.421528 311.203636 
L 165.03006 317.998182 
L 166.247123 304.409091 
L 168.681249 304.409091 
L 169.898311 277.230909 
L 170.506843 284.025455 
L 171.723906 284.025455 
L 172.940969 270.436364 
L 173.5495 284.025455 
L 174.158032 290.82 
L 174.766563 277.230909 
L 175.375094 311.203636 
L 175.983626 311.203636 
L 176.592157 317.998182 
L 177.80922 317.998182 
L 178.417752 324.792727 
L 179.026283 317.998182 
L 179.634815 290.82 
L 180.243346 277.230909 
L 180.851878 270.436364 
L 181.460409 270.436364 
L 182.06894 277.230909 
L 182.677472 297.614545 
L 183.286003 290.82 
L 183.894535 290.82 
L 184.503066 277.230909 
L 185.111598 290.82 
L 186.328661 277.230909 
L 188.154255 297.614545 
L 188.762786 311.203636 
L 189.979849 324.792727 
L 190.588381 324.792727 
L 191.196912 317.998182 
L 191.805444 324.792727 
L 193.022507 324.792727 
L 193.631038 338.381818 
L 194.239569 331.587273 
L 194.848101 331.587273 
L 195.456632 324.792727 
L 196.065164 324.792727 
L 197.282227 311.203636 
L 197.890758 324.792727 
L 198.49929 331.587273 
L 199.107821 317.998182 
L 199.716352 324.792727 
L 200.933415 324.792727 
L 201.541947 311.203636 
L 202.150478 317.998182 
L 205.801667 317.998182 
L 207.01873 304.409091 
L 207.627261 290.82 
L 208.235793 304.409091 
L 208.844324 290.82 
L 209.452856 311.203636 
L 210.061387 304.409091 
L 210.669919 324.792727 
L 211.886981 311.203636 
L 213.712576 311.203636 
L 214.321107 324.792727 
L 214.929639 311.203636 
L 215.53817 311.203636 
L 216.146702 297.614545 
L 216.755233 297.614545 
L 217.363765 311.203636 
L 217.972296 317.998182 
L 218.580827 317.998182 
L 219.189359 331.587273 
L 219.79789 317.998182 
L 220.406422 317.998182 
L 221.014953 331.587273 
L 221.623485 311.203636 
L 222.840548 311.203636 
L 223.449079 317.998182 
L 224.666142 304.409091 
L 225.274673 304.409091 
L 225.883205 311.203636 
L 227.100268 297.614545 
L 227.708799 311.203636 
L 228.317331 317.998182 
L 228.925862 317.998182 
L 229.534394 304.409091 
L 230.142925 304.409091 
L 231.359988 317.998182 
L 231.968519 304.409091 
L 233.185582 317.998182 
L 234.402645 317.998182 
L 235.011177 297.614545 
L 235.619708 290.82 
L 236.228239 297.614545 
L 236.836771 297.614545 
L 238.053834 324.792727 
L 238.662365 331.587273 
L 240.48796 311.203636 
L 241.096491 317.998182 
L 241.705023 331.587273 
L 242.313554 331.587273 
L 242.922085 324.792727 
L 243.530617 324.792727 
L 244.139148 331.587273 
L 245.356211 304.409091 
L 245.964743 297.614545 
L 246.573274 297.614545 
L 247.181806 284.025455 
L 248.398868 284.025455 
L 249.0074 290.82 
L 249.615931 304.409091 
L 250.224463 297.614545 
L 250.832994 297.614545 
L 251.441526 290.82 
L 252.050057 304.409091 
L 252.658589 311.203636 
L 253.26712 290.82 
L 253.875651 304.409091 
L 254.484183 284.025455 
L 255.092714 311.203636 
L 255.701246 317.998182 
L 256.309777 311.203636 
L 256.918309 311.203636 
L 257.52684 304.409091 
L 258.743903 304.409091 
L 259.352435 311.203636 
L 259.960966 304.409091 
L 260.569497 304.409091 
L 261.178029 297.614545 
L 262.395092 297.614545 
L 263.003623 304.409091 
L 263.612155 290.82 
L 264.220686 284.025455 
L 264.829218 304.409091 
L 265.437749 317.998182 
L 266.04628 317.998182 
L 266.654812 311.203636 
L 267.263343 317.998182 
L 267.871875 317.998182 
L 268.480406 331.587273 
L 269.088938 331.587273 
L 269.697469 338.381818 
L 270.306001 324.792727 
L 270.914532 338.381818 
L 271.523064 317.998182 
L 272.131595 331.587273 
L 273.348658 331.587273 
L 274.565721 317.998182 
L 275.782784 331.587273 
L 277.608378 331.587273 
L 278.216909 324.792727 
L 278.825441 331.587273 
L 279.433972 331.587273 
L 280.042504 311.203636 
L 280.651035 317.998182 
L 281.259567 311.203636 
L 281.868098 297.614545 
L 282.47663 311.203636 
L 283.085161 317.998182 
L 283.693693 317.998182 
L 284.302224 311.203636 
L 284.910755 297.614545 
L 285.519287 317.998182 
L 286.127818 324.792727 
L 286.73635 311.203636 
L 287.344881 317.998182 
L 287.953413 331.587273 
L 288.561944 324.792727 
L 289.170476 331.587273 
L 289.779007 311.203636 
L 290.99607 324.792727 
L 291.604601 324.792727 
L 292.213133 317.998182 
L 292.821664 331.587273 
L 293.430196 338.381818 
L 294.038727 331.587273 
L 294.647259 338.381818 
L 295.25579 338.381818 
L 295.864322 324.792727 
L 296.472853 338.381818 
L 297.689916 324.792727 
L 298.906979 338.381818 
L 299.51551 338.381818 
L 300.124042 351.970909 
L 300.732573 345.176364 
L 301.341105 351.970909 
L 301.949636 351.970909 
L 302.558167 345.176364 
L 303.166699 351.970909 
L 303.77523 324.792727 
L 304.383762 351.970909 
L 304.992293 345.176364 
L 305.600825 345.176364 
L 306.209356 338.381818 
L 306.817888 338.381818 
L 307.426419 331.587273 
L 308.034951 345.176364 
L 309.252013 345.176364 
L 309.860545 351.970909 
L 310.469076 345.176364 
L 311.077608 345.176364 
L 311.686139 351.970909 
L 312.903202 351.970909 
L 314.120265 338.381818 
L 316.554391 338.381818 
L 317.162922 331.587273 
L 317.771454 331.587273 
L 318.379985 338.381818 
L 318.988517 324.792727 
L 319.597048 331.587273 
L 320.20558 331.587273 
L 320.814111 317.998182 
L 321.422642 317.998182 
L 322.031174 324.792727 
L 323.856768 324.792727 
L 324.4653 311.203636 
L 325.682363 324.792727 
L 326.290894 317.998182 
L 326.899425 324.792727 
L 329.942083 324.792727 
L 331.159146 338.381818 
L 332.98474 338.381818 
L 333.593271 345.176364 
L 334.201803 338.381818 
L 334.810334 338.381818 
L 335.418866 345.176364 
L 336.027397 345.176364 
L 336.635929 338.381818 
L 337.24446 345.176364 
L 337.852992 345.176364 
L 338.461523 338.381818 
L 339.070054 345.176364 
L 339.678586 345.176364 
L 340.287117 338.381818 
L 342.112712 338.381818 
L 342.721243 331.587273 
L 343.329775 338.381818 
L 343.938306 338.381818 
L 345.155369 351.970909 
L 347.589495 351.970909 
L 348.198026 345.176364 
L 350.023621 345.176364 
L 350.632152 351.970909 
L 351.240683 345.176364 
L 351.849215 351.970909 
L 353.674809 351.970909 
L 354.283341 345.176364 
L 354.891872 351.970909 
L 356.108935 351.970909 
L 356.717467 345.176364 
L 358.543061 345.176364 
L 359.151592 351.970909 
L 360.368655 351.970909 
L 360.977187 345.176364 
L 361.585718 351.970909 
L 362.19425 351.970909 
L 362.802781 345.176364 
L 363.411312 351.970909 
L 368.279564 351.970909 
L 368.888096 345.176364 
L 370.71369 345.176364 
L 371.322221 338.381818 
L 374.97341 338.381818 
L 375.581941 345.176364 
L 377.407536 345.176364 
L 378.016067 351.970909 
L 384.709913 351.970909 
L 385.318445 345.176364 
L 385.926976 351.970909 
L 388.361102 351.970909 
L 388.969633 345.176364 
L 392.620822 345.176364 
L 393.229354 351.970909 
L 430.958303 351.970909 
L 431.566835 345.176364 
L 432.175366 351.970909 
L 472.946973 351.970909 
L 473.555505 345.176364 
L 474.164036 351.970909 
L 491.202917 351.970909 
L 491.202917 351.970909 
" style="fill:none;stroke:#2ca02c;stroke-linecap:square;stroke-width:1.5;"/>
   </g>
   <g id="line2d_21">
    <path clip-path="url(#pec5416fed7)" d="M 84.095377 351.970909 
L 84.703908 351.970909 
L 85.31244 345.176364 
L 85.920971 345.176364 
L 86.529503 338.381818 
L 87.138034 324.792727 
L 87.746566 331.587273 
L 88.355097 331.587273 
L 88.963629 304.409091 
L 89.57216 311.203636 
L 90.180691 324.792727 
L 90.789223 331.587273 
L 92.614817 331.587273 
L 93.223349 324.792727 
L 94.440412 338.381818 
L 95.048943 324.792727 
L 95.657475 324.792727 
L 96.266006 304.409091 
L 96.874537 304.409091 
L 97.483069 317.998182 
L 98.0916 304.409091 
L 98.700132 304.409091 
L 99.308663 317.998182 
L 100.525726 317.998182 
L 101.134258 331.587273 
L 101.742789 338.381818 
L 102.35132 338.381818 
L 102.959852 345.176364 
L 104.785446 345.176364 
L 105.393978 338.381818 
L 106.611041 311.203636 
L 107.219572 317.998182 
L 107.828104 311.203636 
L 108.436635 311.203636 
L 109.045166 297.614545 
L 109.653698 311.203636 
L 110.262229 297.614545 
L 111.479292 311.203636 
L 112.087824 297.614545 
L 112.696355 290.82 
L 113.304887 297.614545 
L 114.521949 338.381818 
L 115.739012 338.381818 
L 116.347544 324.792727 
L 116.956075 317.998182 
L 117.564607 317.998182 
L 118.173138 324.792727 
L 118.78167 324.792727 
L 119.390201 331.587273 
L 119.998733 324.792727 
L 120.607264 331.587273 
L 121.215795 331.587273 
L 121.824327 338.381818 
L 123.04139 338.381818 
L 123.649921 317.998182 
L 124.258453 311.203636 
L 124.866984 311.203636 
L 125.475516 331.587273 
L 126.084047 338.381818 
L 127.30111 324.792727 
L 127.909641 311.203636 
L 128.518173 311.203636 
L 129.126704 324.792727 
L 129.735236 317.998182 
L 130.343767 324.792727 
L 130.952299 324.792727 
L 132.777893 345.176364 
L 133.386424 345.176364 
L 133.994956 331.587273 
L 134.603487 338.381818 
L 135.82055 324.792727 
L 136.429082 331.587273 
L 137.037613 311.203636 
L 137.646145 338.381818 
L 138.254676 338.381818 
L 138.863207 345.176364 
L 139.471739 331.587273 
L 140.08027 324.792727 
L 140.688802 338.381818 
L 141.297333 324.792727 
L 141.905865 331.587273 
L 142.514396 324.792727 
L 143.122928 338.381818 
L 143.731459 317.998182 
L 144.339991 324.792727 
L 144.948522 338.381818 
L 145.557053 331.587273 
L 146.165585 331.587273 
L 146.774116 338.381818 
L 148.599711 338.381818 
L 149.816774 324.792727 
L 150.425305 311.203636 
L 151.033836 311.203636 
L 151.642368 297.614545 
L 152.859431 324.792727 
L 153.467962 324.792727 
L 154.076494 331.587273 
L 154.685025 331.587273 
L 155.293557 324.792727 
L 155.902088 331.587273 
L 156.51062 317.998182 
L 157.119151 311.203636 
L 157.727682 331.587273 
L 158.336214 317.998182 
L 158.944745 331.587273 
L 159.553277 324.792727 
L 160.77034 324.792727 
L 161.378871 317.998182 
L 161.987403 331.587273 
L 162.595934 331.587273 
L 163.812997 345.176364 
L 164.421528 345.176364 
L 165.03006 338.381818 
L 165.638591 338.381818 
L 166.855654 324.792727 
L 167.464186 324.792727 
L 168.072717 317.998182 
L 168.681249 338.381818 
L 169.28978 338.381818 
L 170.506843 324.792727 
L 171.115374 324.792727 
L 171.723906 317.998182 
L 172.332437 324.792727 
L 172.940969 324.792727 
L 173.5495 317.998182 
L 174.158032 304.409091 
L 174.766563 331.587273 
L 175.375094 290.82 
L 175.983626 297.614545 
L 176.592157 317.998182 
L 177.200689 317.998182 
L 177.80922 324.792727 
L 178.417752 317.998182 
L 179.634815 317.998182 
L 180.243346 331.587273 
L 180.851878 324.792727 
L 181.460409 338.381818 
L 182.06894 331.587273 
L 182.677472 317.998182 
L 183.286003 297.614545 
L 183.894535 290.82 
L 184.503066 304.409091 
L 185.111598 290.82 
L 185.720129 324.792727 
L 186.328661 345.176364 
L 186.937192 345.176364 
L 187.545723 331.587273 
L 188.762786 317.998182 
L 189.371318 317.998182 
L 189.979849 311.203636 
L 191.196912 324.792727 
L 191.805444 317.998182 
L 193.631038 317.998182 
L 194.239569 324.792727 
L 194.848101 324.792727 
L 195.456632 338.381818 
L 196.065164 338.381818 
L 196.673695 331.587273 
L 197.282227 331.587273 
L 197.890758 317.998182 
L 199.107821 331.587273 
L 199.716352 324.792727 
L 200.933415 338.381818 
L 201.541947 338.381818 
L 202.150478 324.792727 
L 202.75901 324.792727 
L 203.976073 311.203636 
L 204.584604 324.792727 
L 205.193136 317.998182 
L 206.410198 331.587273 
L 207.01873 324.792727 
L 207.627261 331.587273 
L 208.235793 311.203636 
L 208.844324 324.792727 
L 209.452856 311.203636 
L 210.669919 311.203636 
L 211.886981 324.792727 
L 212.495513 311.203636 
L 213.104044 317.998182 
L 213.712576 304.409091 
L 214.321107 297.614545 
L 214.929639 317.998182 
L 215.53817 317.998182 
L 216.146702 324.792727 
L 216.755233 324.792727 
L 217.363765 311.203636 
L 218.580827 324.792727 
L 219.189359 317.998182 
L 219.79789 317.998182 
L 220.406422 311.203636 
L 221.014953 311.203636 
L 221.623485 324.792727 
L 222.232016 311.203636 
L 222.840548 317.998182 
L 223.449079 311.203636 
L 224.05761 331.587273 
L 224.666142 324.792727 
L 225.883205 324.792727 
L 226.491736 331.587273 
L 227.100268 331.587273 
L 227.708799 317.998182 
L 228.925862 317.998182 
L 229.534394 331.587273 
L 230.751456 317.998182 
L 231.359988 324.792727 
L 231.968519 338.381818 
L 232.577051 324.792727 
L 233.185582 324.792727 
L 233.794114 331.587273 
L 234.402645 324.792727 
L 235.011177 331.587273 
L 235.619708 324.792727 
L 236.228239 311.203636 
L 236.836771 304.409091 
L 238.053834 304.409091 
L 238.662365 317.998182 
L 239.270897 324.792727 
L 239.879428 317.998182 
L 241.705023 317.998182 
L 242.313554 324.792727 
L 242.922085 317.998182 
L 243.530617 331.587273 
L 244.139148 324.792727 
L 244.74768 331.587273 
L 245.356211 317.998182 
L 245.964743 338.381818 
L 246.573274 345.176364 
L 247.790337 331.587273 
L 248.398868 338.381818 
L 249.0074 338.381818 
L 249.615931 324.792727 
L 250.224463 338.381818 
L 250.832994 331.587273 
L 251.441526 331.587273 
L 252.050057 338.381818 
L 253.26712 338.381818 
L 253.875651 311.203636 
L 254.484183 331.587273 
L 255.092714 317.998182 
L 255.701246 324.792727 
L 256.309777 338.381818 
L 256.918309 345.176364 
L 257.52684 345.176364 
L 258.135372 351.970909 
L 258.743903 338.381818 
L 259.352435 331.587273 
L 259.960966 338.381818 
L 260.569497 338.381818 
L 261.178029 345.176364 
L 261.78656 338.381818 
L 262.395092 338.381818 
L 263.003623 331.587273 
L 263.612155 345.176364 
L 264.220686 338.381818 
L 264.829218 311.203636 
L 265.437749 311.203636 
L 266.04628 338.381818 
L 266.654812 331.587273 
L 267.263343 317.998182 
L 267.871875 317.998182 
L 268.480406 311.203636 
L 270.306001 311.203636 
L 270.914532 304.409091 
L 271.523064 311.203636 
L 272.131595 304.409091 
L 272.740126 331.587273 
L 273.348658 338.381818 
L 274.565721 338.381818 
L 275.174252 331.587273 
L 275.782784 331.587273 
L 276.391315 345.176364 
L 278.216909 345.176364 
L 278.825441 338.381818 
L 279.433972 338.381818 
L 280.042504 351.970909 
L 280.651035 338.381818 
L 281.259567 338.381818 
L 281.868098 351.970909 
L 282.47663 338.381818 
L 283.085161 338.381818 
L 283.693693 331.587273 
L 284.302224 345.176364 
L 284.910755 345.176364 
L 285.519287 324.792727 
L 286.127818 331.587273 
L 286.73635 331.587273 
L 287.344881 345.176364 
L 287.953413 331.587273 
L 289.779007 331.587273 
L 290.387538 317.998182 
L 290.99607 345.176364 
L 291.604601 345.176364 
L 292.213133 338.381818 
L 292.821664 324.792727 
L 294.038727 351.970909 
L 294.647259 345.176364 
L 295.25579 345.176364 
L 295.864322 338.381818 
L 296.472853 324.792727 
L 297.081384 338.381818 
L 297.689916 331.587273 
L 298.298447 345.176364 
L 298.906979 345.176364 
L 299.51551 351.970909 
L 300.124042 338.381818 
L 300.732573 345.176364 
L 301.341105 345.176364 
L 301.949636 351.970909 
L 302.558167 351.970909 
L 303.166699 345.176364 
L 303.77523 351.970909 
L 304.383762 331.587273 
L 304.992293 351.970909 
L 305.600825 345.176364 
L 306.209356 351.970909 
L 306.817888 345.176364 
L 307.426419 351.970909 
L 308.034951 338.381818 
L 308.643482 351.970909 
L 310.469076 351.970909 
L 311.686139 338.381818 
L 312.294671 338.381818 
L 313.511734 351.970909 
L 317.771454 351.970909 
L 318.379985 345.176364 
L 319.597048 345.176364 
L 320.20558 351.970909 
L 320.814111 351.970909 
L 322.031174 338.381818 
L 322.639705 338.381818 
L 323.248237 351.970909 
L 324.4653 351.970909 
L 325.073831 345.176364 
L 325.682363 345.176364 
L 326.290894 351.970909 
L 327.507957 338.381818 
L 328.72502 338.381818 
L 329.333551 345.176364 
L 331.159146 324.792727 
L 331.767677 331.587273 
L 332.376209 351.970909 
L 332.98474 351.970909 
L 333.593271 345.176364 
L 335.418866 345.176364 
L 336.027397 351.970909 
L 336.635929 351.970909 
L 337.24446 345.176364 
L 337.852992 351.970909 
L 338.461523 351.970909 
L 339.070054 345.176364 
L 339.678586 351.970909 
L 342.721243 351.970909 
L 343.329775 345.176364 
L 344.546838 345.176364 
L 345.155369 338.381818 
L 345.7639 338.381818 
L 346.980963 351.970909 
L 350.023621 351.970909 
L 350.632152 345.176364 
L 351.240683 351.970909 
L 354.283341 351.970909 
L 354.891872 345.176364 
L 355.500404 351.970909 
L 358.543061 351.970909 
L 359.151592 345.176364 
L 359.760124 351.970909 
L 360.977187 351.970909 
L 361.585718 345.176364 
L 362.19425 345.176364 
L 362.802781 351.970909 
L 363.411312 345.176364 
L 364.019844 351.970909 
L 371.322221 351.970909 
L 371.930753 345.176364 
L 372.539284 351.970909 
L 374.97341 351.970909 
L 375.581941 345.176364 
L 377.407536 345.176364 
L 378.016067 338.381818 
L 378.624599 338.381818 
L 379.23313 345.176364 
L 385.318445 345.176364 
L 385.926976 338.381818 
L 386.535508 345.176364 
L 387.144039 345.176364 
L 387.75257 351.970909 
L 392.620822 351.970909 
L 393.229354 345.176364 
L 393.837885 345.176364 
L 394.446416 351.970909 
L 431.566835 351.970909 
L 432.175366 345.176364 
L 432.783898 351.970909 
L 473.555505 351.970909 
L 474.164036 345.176364 
L 475.381099 345.176364 
L 475.989631 351.970909 
L 491.202917 351.970909 
L 491.202917 351.970909 
" style="fill:none;stroke:#d62728;stroke-linecap:square;stroke-width:1.5;"/>
   </g>
   <g id="line2d_22">
    <path clip-path="url(#pec5416fed7)" d="M 84.095377 351.970909 
L 86.529503 351.970909 
L 87.138034 338.381818 
L 87.746566 317.998182 
L 88.355097 331.587273 
L 89.57216 345.176364 
L 90.180691 338.381818 
L 91.397754 338.381818 
L 92.614817 324.792727 
L 93.223349 331.587273 
L 93.83188 351.970909 
L 94.440412 345.176364 
L 95.048943 351.970909 
L 96.266006 351.970909 
L 96.874537 338.381818 
L 97.483069 311.203636 
L 98.700132 338.381818 
L 99.308663 317.998182 
L 100.525726 317.998182 
L 101.134258 297.614545 
L 101.742789 304.409091 
L 102.35132 317.998182 
L 102.959852 324.792727 
L 103.568383 324.792727 
L 104.176915 338.381818 
L 104.785446 331.587273 
L 105.393978 338.381818 
L 106.611041 338.381818 
L 107.219572 324.792727 
L 107.828104 331.587273 
L 108.436635 324.792727 
L 109.045166 331.587273 
L 109.653698 324.792727 
L 110.262229 324.792727 
L 110.870761 317.998182 
L 111.479292 317.998182 
L 112.087824 331.587273 
L 112.696355 331.587273 
L 113.304887 317.998182 
L 115.130481 317.998182 
L 115.739012 331.587273 
L 116.956075 331.587273 
L 117.564607 324.792727 
L 118.173138 331.587273 
L 118.78167 317.998182 
L 119.390201 317.998182 
L 119.998733 345.176364 
L 120.607264 338.381818 
L 121.215795 345.176364 
L 121.824327 338.381818 
L 124.258453 338.381818 
L 124.866984 331.587273 
L 125.475516 317.998182 
L 126.084047 317.998182 
L 126.692578 311.203636 
L 127.909641 311.203636 
L 128.518173 324.792727 
L 129.735236 324.792727 
L 130.343767 311.203636 
L 130.952299 311.203636 
L 131.56083 317.998182 
L 132.777893 317.998182 
L 133.386424 324.792727 
L 133.994956 324.792727 
L 134.603487 311.203636 
L 135.212019 317.998182 
L 136.429082 317.998182 
L 137.037613 324.792727 
L 137.646145 304.409091 
L 138.863207 317.998182 
L 139.471739 317.998182 
L 140.08027 324.792727 
L 140.688802 304.409091 
L 141.297333 324.792727 
L 143.122928 304.409091 
L 143.731459 317.998182 
L 144.339991 311.203636 
L 144.948522 317.998182 
L 145.557053 317.998182 
L 146.165585 304.409091 
L 146.774116 304.409091 
L 147.382648 311.203636 
L 147.991179 311.203636 
L 148.599711 317.998182 
L 149.208242 331.587273 
L 150.425305 331.587273 
L 151.033836 317.998182 
L 151.642368 331.587273 
L 152.859431 304.409091 
L 153.467962 297.614545 
L 154.076494 297.614545 
L 154.685025 311.203636 
L 155.293557 311.203636 
L 155.902088 324.792727 
L 157.119151 324.792727 
L 157.727682 311.203636 
L 158.336214 331.587273 
L 158.944745 317.998182 
L 160.77034 317.998182 
L 161.378871 324.792727 
L 161.987403 311.203636 
L 162.595934 324.792727 
L 163.204465 317.998182 
L 164.421528 331.587273 
L 165.03006 331.587273 
L 166.247123 345.176364 
L 166.855654 345.176364 
L 167.464186 351.970909 
L 168.072717 351.970909 
L 168.681249 331.587273 
L 169.898311 345.176364 
L 171.115374 331.587273 
L 171.723906 331.587273 
L 172.332437 324.792727 
L 172.940969 324.792727 
L 174.158032 338.381818 
L 174.766563 311.203636 
L 175.375094 324.792727 
L 175.983626 324.792727 
L 176.592157 304.409091 
L 177.200689 304.409091 
L 177.80922 297.614545 
L 178.417752 311.203636 
L 179.026283 311.203636 
L 179.634815 317.998182 
L 180.243346 317.998182 
L 180.851878 324.792727 
L 181.460409 311.203636 
L 182.06894 331.587273 
L 182.677472 324.792727 
L 183.894535 324.792727 
L 184.503066 317.998182 
L 185.111598 317.998182 
L 185.720129 290.82 
L 186.328661 277.230909 
L 186.937192 304.409091 
L 188.154255 317.998182 
L 189.371318 317.998182 
L 189.979849 324.792727 
L 190.588381 324.792727 
L 191.196912 317.998182 
L 191.805444 331.587273 
L 193.022507 331.587273 
L 193.631038 324.792727 
L 194.239569 324.792727 
L 194.848101 331.587273 
L 195.456632 324.792727 
L 196.673695 324.792727 
L 197.282227 331.587273 
L 197.890758 331.587273 
L 198.49929 317.998182 
L 199.107821 317.998182 
L 199.716352 338.381818 
L 200.324884 331.587273 
L 201.541947 331.587273 
L 202.150478 338.381818 
L 202.75901 331.587273 
L 203.367541 331.587273 
L 203.976073 324.792727 
L 204.584604 311.203636 
L 205.193136 324.792727 
L 206.410198 311.203636 
L 207.01873 317.998182 
L 207.627261 317.998182 
L 208.235793 324.792727 
L 208.844324 311.203636 
L 211.886981 311.203636 
L 212.495513 324.792727 
L 213.104044 331.587273 
L 213.712576 345.176364 
L 214.321107 338.381818 
L 214.929639 317.998182 
L 215.53817 317.998182 
L 216.146702 338.381818 
L 217.363765 338.381818 
L 217.972296 324.792727 
L 218.580827 338.381818 
L 219.189359 331.587273 
L 219.79789 338.381818 
L 220.406422 338.381818 
L 221.014953 331.587273 
L 221.623485 317.998182 
L 222.232016 324.792727 
L 222.840548 311.203636 
L 223.449079 311.203636 
L 224.05761 297.614545 
L 224.666142 311.203636 
L 225.274673 304.409091 
L 225.883205 304.409091 
L 226.491736 311.203636 
L 227.100268 311.203636 
L 227.708799 317.998182 
L 228.317331 311.203636 
L 229.534394 311.203636 
L 230.142925 324.792727 
L 230.751456 317.998182 
L 231.359988 324.792727 
L 231.968519 324.792727 
L 232.577051 331.587273 
L 233.794114 331.587273 
L 234.402645 338.381818 
L 235.011177 331.587273 
L 235.619708 345.176364 
L 236.228239 338.381818 
L 236.836771 345.176364 
L 237.445302 338.381818 
L 238.053834 324.792727 
L 238.662365 317.998182 
L 239.270897 317.998182 
L 240.48796 331.587273 
L 241.096491 331.587273 
L 241.705023 324.792727 
L 242.922085 338.381818 
L 243.530617 324.792727 
L 244.139148 331.587273 
L 244.74768 324.792727 
L 245.356211 324.792727 
L 245.964743 317.998182 
L 247.181806 345.176364 
L 248.398868 331.587273 
L 249.0074 331.587273 
L 249.615931 338.381818 
L 250.224463 324.792727 
L 250.832994 345.176364 
L 251.441526 345.176364 
L 252.050057 331.587273 
L 252.658589 331.587273 
L 253.26712 345.176364 
L 253.875651 345.176364 
L 254.484183 324.792727 
L 255.701246 311.203636 
L 256.918309 338.381818 
L 258.135372 338.381818 
L 258.743903 345.176364 
L 259.960966 317.998182 
L 260.569497 331.587273 
L 261.178029 324.792727 
L 261.78656 338.381818 
L 262.395092 338.381818 
L 263.003623 331.587273 
L 263.612155 317.998182 
L 264.220686 331.587273 
L 264.829218 338.381818 
L 266.04628 311.203636 
L 266.654812 317.998182 
L 267.263343 331.587273 
L 268.480406 317.998182 
L 269.697469 317.998182 
L 270.306001 324.792727 
L 270.914532 338.381818 
L 271.523064 345.176364 
L 272.131595 338.381818 
L 272.740126 324.792727 
L 273.348658 338.381818 
L 273.957189 345.176364 
L 275.174252 345.176364 
L 275.782784 331.587273 
L 276.391315 324.792727 
L 276.999847 331.587273 
L 278.216909 331.587273 
L 278.825441 345.176364 
L 279.433972 338.381818 
L 280.042504 324.792727 
L 280.651035 338.381818 
L 281.259567 331.587273 
L 281.868098 331.587273 
L 282.47663 345.176364 
L 283.085161 331.587273 
L 283.693693 345.176364 
L 284.910755 331.587273 
L 286.73635 331.587273 
L 287.344881 324.792727 
L 287.953413 331.587273 
L 288.561944 331.587273 
L 289.779007 345.176364 
L 290.387538 345.176364 
L 290.99607 317.998182 
L 291.604601 345.176364 
L 292.213133 351.970909 
L 292.821664 351.970909 
L 293.430196 331.587273 
L 294.038727 324.792727 
L 294.647259 338.381818 
L 295.25579 345.176364 
L 296.472853 345.176364 
L 297.081384 331.587273 
L 297.689916 331.587273 
L 298.298447 311.203636 
L 298.906979 324.792727 
L 299.51551 324.792727 
L 300.124042 331.587273 
L 300.732573 331.587273 
L 301.341105 324.792727 
L 301.949636 338.381818 
L 303.166699 351.970909 
L 304.383762 351.970909 
L 304.992293 331.587273 
L 305.600825 338.381818 
L 306.209356 338.381818 
L 306.817888 351.970909 
L 307.426419 345.176364 
L 308.034951 345.176364 
L 308.643482 338.381818 
L 309.252013 351.970909 
L 312.294671 351.970909 
L 313.511734 338.381818 
L 314.120265 338.381818 
L 315.337328 351.970909 
L 319.597048 351.970909 
L 320.20558 345.176364 
L 321.422642 345.176364 
L 322.031174 351.970909 
L 325.073831 351.970909 
L 325.682363 345.176364 
L 326.290894 345.176364 
L 326.899425 351.970909 
L 327.507957 351.970909 
L 328.116488 345.176364 
L 328.72502 351.970909 
L 329.333551 345.176364 
L 330.550614 345.176364 
L 331.159146 351.970909 
L 332.376209 338.381818 
L 334.201803 338.381818 
L 334.810334 345.176364 
L 335.418866 338.381818 
L 336.027397 338.381818 
L 337.24446 351.970909 
L 337.852992 345.176364 
L 338.461523 351.970909 
L 339.070054 351.970909 
L 339.678586 345.176364 
L 340.287117 351.970909 
L 343.938306 351.970909 
L 344.546838 345.176364 
L 345.7639 345.176364 
L 346.980963 331.587273 
L 347.589495 338.381818 
L 348.806558 338.381818 
L 349.415089 351.970909 
L 350.632152 351.970909 
L 351.240683 345.176364 
L 351.849215 351.970909 
L 354.891872 351.970909 
L 355.500404 345.176364 
L 356.108935 345.176364 
L 356.717467 351.970909 
L 362.19425 351.970909 
L 362.802781 345.176364 
L 371.930753 345.176364 
L 372.539284 338.381818 
L 378.624599 338.381818 
L 379.23313 331.587273 
L 379.841662 338.381818 
L 381.667256 338.381818 
L 382.275787 351.970909 
L 385.926976 351.970909 
L 386.535508 345.176364 
L 387.144039 345.176364 
L 387.75257 338.381818 
L 388.361102 338.381818 
L 388.969633 351.970909 
L 432.175366 351.970909 
L 432.783898 345.176364 
L 433.392429 351.970909 
L 475.381099 351.970909 
L 475.989631 345.176364 
L 476.598162 345.176364 
L 477.206694 351.970909 
L 491.202917 351.970909 
L 491.202917 351.970909 
" style="fill:none;stroke:#9467bd;stroke-linecap:square;stroke-width:1.5;"/>
   </g>
   <g id="line2d_23">
    <path clip-path="url(#pec5416fed7)" d="M 84.095377 351.970909 
L 87.138034 351.970909 
L 87.746566 345.176364 
L 88.355097 324.792727 
L 89.57216 297.614545 
L 90.789223 284.025455 
L 92.006286 284.025455 
L 92.614817 277.230909 
L 93.223349 284.025455 
L 93.83188 270.436364 
L 94.440412 277.230909 
L 95.048943 277.230909 
L 96.266006 290.82 
L 97.483069 290.82 
L 98.0916 277.230909 
L 98.700132 250.052727 
L 99.308663 250.052727 
L 99.917195 236.463636 
L 100.525726 229.669091 
L 101.134258 236.463636 
L 101.742789 222.874545 
L 102.35132 202.490909 
L 102.959852 195.696364 
L 103.568383 209.285455 
L 104.176915 209.285455 
L 104.785446 222.874545 
L 105.393978 229.669091 
L 106.002509 229.669091 
L 106.611041 243.258182 
L 107.219572 250.052727 
L 107.828104 243.258182 
L 108.436635 243.258182 
L 109.653698 229.669091 
L 110.262229 250.052727 
L 110.870761 243.258182 
L 111.479292 243.258182 
L 112.087824 229.669091 
L 112.696355 229.669091 
L 113.304887 236.463636 
L 113.913418 222.874545 
L 115.130481 222.874545 
L 115.739012 209.285455 
L 116.956075 222.874545 
L 117.564607 222.874545 
L 118.173138 209.285455 
L 118.78167 216.08 
L 119.390201 209.285455 
L 119.998733 182.107273 
L 120.607264 182.107273 
L 121.215795 175.312727 
L 122.432858 188.901818 
L 123.04139 202.490909 
L 123.649921 209.285455 
L 124.258453 209.285455 
L 124.866984 222.874545 
L 125.475516 222.874545 
L 126.084047 216.08 
L 126.692578 222.874545 
L 127.30111 236.463636 
L 127.909641 229.669091 
L 128.518173 216.08 
L 129.735236 216.08 
L 130.343767 222.874545 
L 130.952299 216.08 
L 131.56083 202.490909 
L 132.169362 195.696364 
L 133.386424 195.696364 
L 133.994956 202.490909 
L 134.603487 202.490909 
L 135.212019 195.696364 
L 136.429082 195.696364 
L 137.037613 188.901818 
L 137.646145 188.901818 
L 138.254676 195.696364 
L 138.863207 216.08 
L 139.471739 229.669091 
L 140.08027 229.669091 
L 140.688802 243.258182 
L 141.297333 216.08 
L 143.122928 216.08 
L 144.948522 195.696364 
L 146.165585 195.696364 
L 146.774116 182.107273 
L 147.382648 195.696364 
L 147.991179 202.490909 
L 148.599711 195.696364 
L 149.208242 195.696364 
L 150.425305 222.874545 
L 151.033836 222.874545 
L 151.642368 209.285455 
L 152.250899 202.490909 
L 152.859431 216.08 
L 153.467962 216.08 
L 154.685025 188.901818 
L 155.293557 188.901818 
L 155.902088 175.312727 
L 156.51062 188.901818 
L 157.119151 175.312727 
L 157.727682 168.518182 
L 158.336214 154.929091 
L 158.944745 168.518182 
L 159.553277 175.312727 
L 160.77034 175.312727 
L 161.378871 161.723636 
L 161.987403 154.929091 
L 162.595934 141.34 
L 163.204465 154.929091 
L 163.812997 154.929091 
L 164.421528 161.723636 
L 165.03006 175.312727 
L 165.638591 168.518182 
L 166.855654 168.518182 
L 167.464186 188.901818 
L 168.072717 202.490909 
L 168.681249 202.490909 
L 169.28978 195.696364 
L 170.506843 209.285455 
L 171.115374 222.874545 
L 172.332437 209.285455 
L 173.5495 209.285455 
L 174.158032 195.696364 
L 174.766563 202.490909 
L 175.375094 195.696364 
L 175.983626 202.490909 
L 176.592157 202.490909 
L 177.80922 216.08 
L 178.417752 229.669091 
L 179.026283 236.463636 
L 180.243346 222.874545 
L 181.460409 222.874545 
L 182.06894 195.696364 
L 182.677472 216.08 
L 183.286003 222.874545 
L 183.894535 209.285455 
L 184.503066 209.285455 
L 185.111598 216.08 
L 185.720129 209.285455 
L 186.328661 209.285455 
L 186.937192 188.901818 
L 188.154255 175.312727 
L 188.762786 175.312727 
L 189.371318 168.518182 
L 189.979849 188.901818 
L 190.588381 175.312727 
L 191.196912 175.312727 
L 192.413975 161.723636 
L 193.022507 168.518182 
L 194.239569 154.929091 
L 194.848101 141.34 
L 196.065164 127.750909 
L 196.673695 134.545455 
L 197.282227 134.545455 
L 197.890758 148.134545 
L 198.49929 148.134545 
L 199.107821 154.929091 
L 199.716352 134.545455 
L 200.933415 148.134545 
L 202.150478 175.312727 
L 202.75901 182.107273 
L 204.584604 182.107273 
L 205.193136 175.312727 
L 205.801667 182.107273 
L 206.410198 182.107273 
L 207.01873 195.696364 
L 207.627261 188.901818 
L 208.844324 188.901818 
L 209.452856 202.490909 
L 210.061387 195.696364 
L 210.669919 202.490909 
L 211.27845 202.490909 
L 211.886981 195.696364 
L 212.495513 182.107273 
L 213.712576 168.518182 
L 214.321107 168.518182 
L 214.929639 175.312727 
L 215.53817 168.518182 
L 216.146702 154.929091 
L 216.755233 154.929091 
L 217.972296 168.518182 
L 219.189359 168.518182 
L 219.79789 175.312727 
L 220.406422 175.312727 
L 221.014953 188.901818 
L 221.623485 195.696364 
L 222.232016 188.901818 
L 222.840548 195.696364 
L 223.449079 195.696364 
L 224.05761 188.901818 
L 224.666142 175.312727 
L 225.274673 175.312727 
L 225.883205 168.518182 
L 226.491736 188.901818 
L 227.708799 188.901818 
L 228.317331 195.696364 
L 229.534394 195.696364 
L 230.142925 182.107273 
L 230.751456 182.107273 
L 231.359988 195.696364 
L 231.968519 195.696364 
L 232.577051 188.901818 
L 233.185582 175.312727 
L 235.011177 175.312727 
L 235.619708 168.518182 
L 236.836771 168.518182 
L 237.445302 188.901818 
L 238.053834 195.696364 
L 238.662365 188.901818 
L 239.270897 195.696364 
L 239.879428 188.901818 
L 241.096491 188.901818 
L 241.705023 195.696364 
L 242.313554 182.107273 
L 242.922085 175.312727 
L 243.530617 182.107273 
L 244.139148 182.107273 
L 244.74768 195.696364 
L 245.356211 195.696364 
L 245.964743 209.285455 
L 247.181806 195.696364 
L 247.790337 202.490909 
L 248.398868 195.696364 
L 249.0074 216.08 
L 249.615931 209.285455 
L 250.224463 209.285455 
L 250.832994 195.696364 
L 251.441526 209.285455 
L 252.658589 222.874545 
L 253.875651 222.874545 
L 255.092714 236.463636 
L 255.701246 229.669091 
L 256.309777 202.490909 
L 256.918309 182.107273 
L 257.52684 182.107273 
L 258.135372 175.312727 
L 258.743903 182.107273 
L 259.960966 209.285455 
L 260.569497 188.901818 
L 261.178029 195.696364 
L 262.395092 182.107273 
L 263.003623 182.107273 
L 263.612155 202.490909 
L 264.829218 175.312727 
L 265.437749 182.107273 
L 266.654812 168.518182 
L 267.871875 182.107273 
L 268.480406 182.107273 
L 269.088938 175.312727 
L 270.306001 175.312727 
L 270.914532 154.929091 
L 271.523064 148.134545 
L 272.131595 148.134545 
L 272.740126 168.518182 
L 273.348658 148.134545 
L 273.957189 141.34 
L 274.565721 141.34 
L 275.782784 168.518182 
L 276.391315 161.723636 
L 277.608378 161.723636 
L 278.216909 182.107273 
L 280.042504 182.107273 
L 280.651035 188.901818 
L 281.259567 209.285455 
L 281.868098 209.285455 
L 282.47663 195.696364 
L 283.085161 216.08 
L 283.693693 209.285455 
L 284.302224 216.08 
L 284.910755 216.08 
L 286.127818 202.490909 
L 286.73635 216.08 
L 287.344881 216.08 
L 287.953413 222.874545 
L 288.561944 236.463636 
L 289.170476 229.669091 
L 289.779007 229.669091 
L 290.387538 243.258182 
L 290.99607 243.258182 
L 291.604601 222.874545 
L 292.213133 216.08 
L 292.821664 229.669091 
L 293.430196 229.669091 
L 294.038727 222.874545 
L 295.25579 195.696364 
L 296.472853 209.285455 
L 298.298447 209.285455 
L 298.906979 195.696364 
L 299.51551 188.901818 
L 300.124042 188.901818 
L 301.341105 202.490909 
L 301.949636 195.696364 
L 302.558167 202.490909 
L 303.166699 195.696364 
L 303.77523 209.285455 
L 304.992293 209.285455 
L 305.600825 222.874545 
L 306.209356 229.669091 
L 306.817888 222.874545 
L 307.426419 229.669091 
L 308.643482 229.669091 
L 309.252013 216.08 
L 310.469076 229.669091 
L 311.077608 229.669091 
L 311.686139 236.463636 
L 312.294671 236.463636 
L 312.903202 243.258182 
L 313.511734 243.258182 
L 314.120265 256.847273 
L 314.728796 256.847273 
L 315.337328 277.230909 
L 316.554391 277.230909 
L 317.771454 290.82 
L 318.379985 290.82 
L 318.988517 297.614545 
L 321.422642 297.614545 
L 322.639705 311.203636 
L 323.856768 311.203636 
L 324.4653 317.998182 
L 325.682363 317.998182 
L 326.899425 304.409091 
L 327.507957 304.409091 
L 328.116488 311.203636 
L 328.72502 311.203636 
L 329.333551 324.792727 
L 330.550614 324.792727 
L 331.159146 317.998182 
L 333.593271 317.998182 
L 334.201803 324.792727 
L 334.810334 317.998182 
L 335.418866 317.998182 
L 337.24446 297.614545 
L 337.852992 297.614545 
L 338.461523 290.82 
L 339.070054 297.614545 
L 339.678586 297.614545 
L 340.287117 290.82 
L 340.895649 290.82 
L 341.50418 297.614545 
L 342.112712 311.203636 
L 342.721243 317.998182 
L 348.806558 317.998182 
L 349.415089 304.409091 
L 350.023621 304.409091 
L 350.632152 317.998182 
L 351.240683 317.998182 
L 351.849215 311.203636 
L 353.674809 311.203636 
L 354.283341 317.998182 
L 356.108935 317.998182 
L 356.717467 311.203636 
L 358.543061 311.203636 
L 359.151592 317.998182 
L 364.628375 317.998182 
L 365.236907 324.792727 
L 366.45397 324.792727 
L 367.062501 331.587273 
L 368.279564 331.587273 
L 368.888096 338.381818 
L 374.364879 338.381818 
L 374.97341 345.176364 
L 379.23313 345.176364 
L 379.841662 338.381818 
L 380.450193 338.381818 
L 381.058725 345.176364 
L 381.667256 345.176364 
L 382.275787 338.381818 
L 388.361102 338.381818 
L 388.969633 324.792727 
L 390.186696 324.792727 
L 390.795228 331.587273 
L 392.012291 331.587273 
L 392.620822 338.381818 
L 407.225577 338.381818 
L 407.834108 345.176364 
L 425.48152 345.176364 
L 426.090052 351.970909 
L 432.783898 351.970909 
L 433.392429 345.176364 
L 468.078722 345.176364 
L 468.687253 351.970909 
L 476.598162 351.970909 
L 477.206694 345.176364 
L 491.202917 345.176364 
L 491.202917 345.176364 
" style="fill:none;stroke:#8c564b;stroke-linecap:square;stroke-width:1.5;"/>
   </g>
   <g id="patch_3">
    <path d="M 63.74 365.56 
L 63.74 66.6 
" style="fill:none;stroke:#000000;stroke-linecap:square;stroke-linejoin:miter;stroke-width:0.8;"/>
   </g>
   <g id="patch_4">
    <path d="M 511.558294 365.56 
L 511.558294 66.6 
" style="fill:none;stroke:#000000;stroke-linecap:square;stroke-linejoin:miter;stroke-width:0.8;"/>
   </g>
   <g id="patch_5">
    <path d="M 63.74 365.56 
L 511.558294 365.56 
" style="fill:none;stroke:#000000;stroke-linecap:square;stroke-linejoin:miter;stroke-width:0.8;"/>
   </g>
   <g id="patch_6">
    <path d="M 63.74 66.6 
L 511.558294 66.6 
" style="fill:none;stroke:#000000;stroke-linecap:square;stroke-linejoin:miter;stroke-width:0.8;"/>
   </g>
   <g id="legend_1">
    <g id="patch_7">
     <path d="M 74.24 59.1 
L 501.058294 59.1 
Q 504.058294 59.1 504.058294 56.1 
L 504.058294 13.565625 
Q 504.058294 10.565625 501.058294 10.565625 
L 74.24 10.565625 
Q 71.24 10.565625 71.24 13.565625 
L 71.24 56.1 
Q 71.24 59.1 74.24 59.1 
z
" style="fill:#ffffff;opacity:0.8;stroke:#cccccc;stroke-linejoin:miter;"/>
    </g>
    <g id="line2d_24">
     <path d="M 77.24 22.713281 
L 107.24 22.713281 
" style="fill:none;stroke:#1f77b4;stroke-linecap:square;stroke-width:1.5;"/>
    </g>
    <g id="line2d_25"/>
    <g id="text_20">
     <!-- CKC #0 -->
     <g transform="translate(119.24 27.963281)scale(0.15 -0.15)">
      <use xlink:href="#DejaVuSans-67"/>
      <use x="69.824219" xlink:href="#DejaVuSans-75"/>
      <use x="135.322266" xlink:href="#DejaVuSans-67"/>
      <use x="205.146484" xlink:href="#DejaVuSans-32"/>
      <use x="236.933594" xlink:href="#DejaVuSans-35"/>
      <use x="320.722656" xlink:href="#DejaVuSans-48"/>
     </g>
    </g>
    <g id="line2d_26">
     <path d="M 77.24 44.730469 
L 107.24 44.730469 
" style="fill:none;stroke:#ff7f0e;stroke-linecap:square;stroke-width:1.5;"/>
    </g>
    <g id="line2d_27"/>
    <g id="text_21">
     <!-- CKC #1 -->
     <g transform="translate(119.24 49.980469)scale(0.15 -0.15)">
      <use xlink:href="#DejaVuSans-67"/>
      <use x="69.824219" xlink:href="#DejaVuSans-75"/>
      <use x="135.322266" xlink:href="#DejaVuSans-67"/>
      <use x="205.146484" xlink:href="#DejaVuSans-32"/>
      <use x="236.933594" xlink:href="#DejaVuSans-35"/>
      <use x="320.722656" xlink:href="#DejaVuSans-49"/>
     </g>
    </g>
    <g id="line2d_28">
     <path d="M 184.294796 22.713281 
L 214.294796 22.713281 
" style="fill:none;stroke:#2ca02c;stroke-linecap:square;stroke-width:1.5;"/>
    </g>
    <g id="line2d_29"/>
    <g id="text_22">
     <!-- CKC #2 -->
     <g transform="translate(226.294796 27.963281)scale(0.15 -0.15)">
      <use xlink:href="#DejaVuSans-67"/>
      <use x="69.824219" xlink:href="#DejaVuSans-75"/>
      <use x="135.322266" xlink:href="#DejaVuSans-67"/>
      <use x="205.146484" xlink:href="#DejaVuSans-32"/>
      <use x="236.933594" xlink:href="#DejaVuSans-35"/>
      <use x="320.722656" xlink:href="#DejaVuSans-50"/>
     </g>
    </g>
    <g id="line2d_30">
     <path d="M 184.294796 44.730469 
L 214.294796 44.730469 
" style="fill:none;stroke:#d62728;stroke-linecap:square;stroke-width:1.5;"/>
    </g>
    <g id="line2d_31"/>
    <g id="text_23">
     <!-- CKC #3 -->
     <g transform="translate(226.294796 49.980469)scale(0.15 -0.15)">
      <use xlink:href="#DejaVuSans-67"/>
      <use x="69.824219" xlink:href="#DejaVuSans-75"/>
      <use x="135.322266" xlink:href="#DejaVuSans-67"/>
      <use x="205.146484" xlink:href="#DejaVuSans-32"/>
      <use x="236.933594" xlink:href="#DejaVuSans-35"/>
      <use x="320.722656" xlink:href="#DejaVuSans-51"/>
     </g>
    </g>
    <g id="line2d_32">
     <path d="M 291.349592 22.713281 
L 321.349592 22.713281 
" style="fill:none;stroke:#9467bd;stroke-linecap:square;stroke-width:1.5;"/>
    </g>
    <g id="line2d_33"/>
    <g id="text_24">
     <!-- CKC #4 -->
     <g transform="translate(333.349592 27.963281)scale(0.15 -0.15)">
      <use xlink:href="#DejaVuSans-67"/>
      <use x="69.824219" xlink:href="#DejaVuSans-75"/>
      <use x="135.322266" xlink:href="#DejaVuSans-67"/>
      <use x="205.146484" xlink:href="#DejaVuSans-32"/>
      <use x="236.933594" xlink:href="#DejaVuSans-35"/>
      <use x="320.722656" xlink:href="#DejaVuSans-52"/>
     </g>
    </g>
    <g id="line2d_34">
     <path d="M 398.404388 22.713281 
L 428.404388 22.713281 
" style="fill:none;stroke:#8c564b;stroke-linecap:square;stroke-width:1.5;"/>
    </g>
    <g id="line2d_35"/>
    <g id="text_25">
     <!-- CKC #5 -->
     <g transform="translate(440.404388 27.963281)scale(0.15 -0.15)">
      <use xlink:href="#DejaVuSans-67"/>
      <use x="69.824219" xlink:href="#DejaVuSans-75"/>
      <use x="135.322266" xlink:href="#DejaVuSans-67"/>
      <use x="205.146484" xlink:href="#DejaVuSans-32"/>
      <use x="236.933594" xlink:href="#DejaVuSans-35"/>
      <use x="320.722656" xlink:href="#DejaVuSans-53"/>
     </g>
    </g>
   </g>
  </g>
 </g>
 <defs>
  <clipPath id="pec5416fed7">
   <rect height="298.96" width="447.818294" x="63.74" y="66.6"/>
  </clipPath>
 </defs>
</svg>
