<?xml version="1.0" encoding="utf-8" standalone="no"?>
<!DOCTYPE svg PUBLIC "-//W3C//DTD SVG 1.1//EN"
  "http://www.w3.org/Graphics/SVG/1.1/DTD/svg11.dtd">
<!-- Created with matplotlib (https://matplotlib.org/) -->
<svg height="432pt" version="1.1" viewBox="0 0 540 432" width="540pt" xmlns="http://www.w3.org/2000/svg" xmlns:xlink="http://www.w3.org/1999/xlink">
 <defs>
  <style type="text/css">
*{stroke-linecap:butt;stroke-linejoin:round;}
  </style>
 </defs>
 <g id="figure_1">
  <g id="patch_1">
   <path d="M 0 432 
L 540 432 
L 540 0 
L 0 0 
z
" style="fill:#ffffff;"/>
  </g>
  <g id="axes_1">
   <g id="patch_2">
    <path d="M 70.13 365.56 
L 529.187727 365.56 
L 529.187727 66.6 
L 70.13 66.6 
z
" style="fill:#ffffff;"/>
   </g>
   <g id="matplotlib.axis_1">
    <g id="xtick_1">
     <g id="line2d_1">
      <defs>
       <path d="M 0 0 
L 0 3.5 
" id="m17c338dd6e" style="stroke:#000000;stroke-width:0.8;"/>
      </defs>
      <g>
       <use style="stroke:#000000;stroke-width:0.8;" x="90.99626" xlink:href="#m17c338dd6e" y="365.56"/>
      </g>
     </g>
     <g id="text_1">
      <!-- 0 -->
      <defs>
       <path d="M 31.78125 66.40625 
Q 24.171875 66.40625 20.328125 58.90625 
Q 16.5 51.421875 16.5 36.375 
Q 16.5 21.390625 20.328125 13.890625 
Q 24.171875 6.390625 31.78125 6.390625 
Q 39.453125 6.390625 43.28125 13.890625 
Q 47.125 21.390625 47.125 36.375 
Q 47.125 51.421875 43.28125 58.90625 
Q 39.453125 66.40625 31.78125 66.40625 
z
M 31.78125 74.21875 
Q 44.046875 74.21875 50.515625 64.515625 
Q 56.984375 54.828125 56.984375 36.375 
Q 56.984375 17.96875 50.515625 8.265625 
Q 44.046875 -1.421875 31.78125 -1.421875 
Q 19.53125 -1.421875 13.0625 8.265625 
Q 6.59375 17.96875 6.59375 36.375 
Q 6.59375 54.828125 13.0625 64.515625 
Q 19.53125 74.21875 31.78125 74.21875 
z
" id="DejaVuSans-48"/>
      </defs>
      <g transform="translate(84.63376 387.756875)scale(0.2 -0.2)">
       <use xlink:href="#DejaVuSans-48"/>
      </g>
     </g>
    </g>
    <g id="xtick_2">
     <g id="line2d_2">
      <g>
       <use style="stroke:#000000;stroke-width:0.8;" x="174.461302" xlink:href="#m17c338dd6e" y="365.56"/>
      </g>
     </g>
     <g id="text_2">
      <!-- 50 -->
      <defs>
       <path d="M 10.796875 72.90625 
L 49.515625 72.90625 
L 49.515625 64.59375 
L 19.828125 64.59375 
L 19.828125 46.734375 
Q 21.96875 47.46875 24.109375 47.828125 
Q 26.265625 48.1875 28.421875 48.1875 
Q 40.625 48.1875 47.75 41.5 
Q 54.890625 34.8125 54.890625 23.390625 
Q 54.890625 11.625 47.5625 5.09375 
Q 40.234375 -1.421875 26.90625 -1.421875 
Q 22.3125 -1.421875 17.546875 -0.640625 
Q 12.796875 0.140625 7.71875 1.703125 
L 7.71875 11.625 
Q 12.109375 9.234375 16.796875 8.0625 
Q 21.484375 6.890625 26.703125 6.890625 
Q 35.15625 6.890625 40.078125 11.328125 
Q 45.015625 15.765625 45.015625 23.390625 
Q 45.015625 31 40.078125 35.4375 
Q 35.15625 39.890625 26.703125 39.890625 
Q 22.75 39.890625 18.8125 39.015625 
Q 14.890625 38.140625 10.796875 36.28125 
z
" id="DejaVuSans-53"/>
      </defs>
      <g transform="translate(161.736302 387.756875)scale(0.2 -0.2)">
       <use xlink:href="#DejaVuSans-53"/>
       <use x="63.623047" xlink:href="#DejaVuSans-48"/>
      </g>
     </g>
    </g>
    <g id="xtick_3">
     <g id="line2d_3">
      <g>
       <use style="stroke:#000000;stroke-width:0.8;" x="257.926343" xlink:href="#m17c338dd6e" y="365.56"/>
      </g>
     </g>
     <g id="text_3">
      <!-- 100 -->
      <defs>
       <path d="M 12.40625 8.296875 
L 28.515625 8.296875 
L 28.515625 63.921875 
L 10.984375 60.40625 
L 10.984375 69.390625 
L 28.421875 72.90625 
L 38.28125 72.90625 
L 38.28125 8.296875 
L 54.390625 8.296875 
L 54.390625 0 
L 12.40625 0 
z
" id="DejaVuSans-49"/>
      </defs>
      <g transform="translate(238.838843 387.756875)scale(0.2 -0.2)">
       <use xlink:href="#DejaVuSans-49"/>
       <use x="63.623047" xlink:href="#DejaVuSans-48"/>
       <use x="127.246094" xlink:href="#DejaVuSans-48"/>
      </g>
     </g>
    </g>
    <g id="xtick_4">
     <g id="line2d_4">
      <g>
       <use style="stroke:#000000;stroke-width:0.8;" x="341.391384" xlink:href="#m17c338dd6e" y="365.56"/>
      </g>
     </g>
     <g id="text_4">
      <!-- 150 -->
      <g transform="translate(322.303884 387.756875)scale(0.2 -0.2)">
       <use xlink:href="#DejaVuSans-49"/>
       <use x="63.623047" xlink:href="#DejaVuSans-53"/>
       <use x="127.246094" xlink:href="#DejaVuSans-48"/>
      </g>
     </g>
    </g>
    <g id="xtick_5">
     <g id="line2d_5">
      <g>
       <use style="stroke:#000000;stroke-width:0.8;" x="424.856426" xlink:href="#m17c338dd6e" y="365.56"/>
      </g>
     </g>
     <g id="text_5">
      <!-- 200 -->
      <defs>
       <path d="M 19.1875 8.296875 
L 53.609375 8.296875 
L 53.609375 0 
L 7.328125 0 
L 7.328125 8.296875 
Q 12.9375 14.109375 22.625 23.890625 
Q 32.328125 33.6875 34.8125 36.53125 
Q 39.546875 41.84375 41.421875 45.53125 
Q 43.3125 49.21875 43.3125 52.78125 
Q 43.3125 58.59375 39.234375 62.25 
Q 35.15625 65.921875 28.609375 65.921875 
Q 23.96875 65.921875 18.8125 64.3125 
Q 13.671875 62.703125 7.8125 59.421875 
L 7.8125 69.390625 
Q 13.765625 71.78125 18.9375 73 
Q 24.125 74.21875 28.421875 74.21875 
Q 39.75 74.21875 46.484375 68.546875 
Q 53.21875 62.890625 53.21875 53.421875 
Q 53.21875 48.921875 51.53125 44.890625 
Q 49.859375 40.875 45.40625 35.40625 
Q 44.1875 33.984375 37.640625 27.21875 
Q 31.109375 20.453125 19.1875 8.296875 
z
" id="DejaVuSans-50"/>
      </defs>
      <g transform="translate(405.768926 387.756875)scale(0.2 -0.2)">
       <use xlink:href="#DejaVuSans-50"/>
       <use x="63.623047" xlink:href="#DejaVuSans-48"/>
       <use x="127.246094" xlink:href="#DejaVuSans-48"/>
      </g>
     </g>
    </g>
    <g id="xtick_6">
     <g id="line2d_6">
      <g>
       <use style="stroke:#000000;stroke-width:0.8;" x="508.321467" xlink:href="#m17c338dd6e" y="365.56"/>
      </g>
     </g>
     <g id="text_6">
      <!-- 250 -->
      <g transform="translate(489.233967 387.756875)scale(0.2 -0.2)">
       <use xlink:href="#DejaVuSans-50"/>
       <use x="63.623047" xlink:href="#DejaVuSans-53"/>
       <use x="127.246094" xlink:href="#DejaVuSans-48"/>
      </g>
     </g>
    </g>
    <g id="text_7">
     <!-- # of games -->
     <defs>
      <path d="M 51.125 44 
L 36.921875 44 
L 32.8125 27.6875 
L 47.125 27.6875 
z
M 43.796875 71.78125 
L 38.71875 51.515625 
L 52.984375 51.515625 
L 58.109375 71.78125 
L 65.921875 71.78125 
L 60.890625 51.515625 
L 76.125 51.515625 
L 76.125 44 
L 58.984375 44 
L 54.984375 27.6875 
L 70.515625 27.6875 
L 70.515625 20.21875 
L 53.078125 20.21875 
L 48 0 
L 40.1875 0 
L 45.21875 20.21875 
L 30.90625 20.21875 
L 25.875 0 
L 18.015625 0 
L 23.09375 20.21875 
L 7.71875 20.21875 
L 7.71875 27.6875 
L 24.90625 27.6875 
L 29 44 
L 13.28125 44 
L 13.28125 51.515625 
L 30.90625 51.515625 
L 35.890625 71.78125 
z
" id="DejaVuSans-35"/>
      <path id="DejaVuSans-32"/>
      <path d="M 30.609375 48.390625 
Q 23.390625 48.390625 19.1875 42.75 
Q 14.984375 37.109375 14.984375 27.296875 
Q 14.984375 17.484375 19.15625 11.84375 
Q 23.34375 6.203125 30.609375 6.203125 
Q 37.796875 6.203125 41.984375 11.859375 
Q 46.1875 17.53125 46.1875 27.296875 
Q 46.1875 37.015625 41.984375 42.703125 
Q 37.796875 48.390625 30.609375 48.390625 
z
M 30.609375 56 
Q 42.328125 56 49.015625 48.375 
Q 55.71875 40.765625 55.71875 27.296875 
Q 55.71875 13.875 49.015625 6.21875 
Q 42.328125 -1.421875 30.609375 -1.421875 
Q 18.84375 -1.421875 12.171875 6.21875 
Q 5.515625 13.875 5.515625 27.296875 
Q 5.515625 40.765625 12.171875 48.375 
Q 18.84375 56 30.609375 56 
z
" id="DejaVuSans-111"/>
      <path d="M 37.109375 75.984375 
L 37.109375 68.5 
L 28.515625 68.5 
Q 23.6875 68.5 21.796875 66.546875 
Q 19.921875 64.59375 19.921875 59.515625 
L 19.921875 54.6875 
L 34.71875 54.6875 
L 34.71875 47.703125 
L 19.921875 47.703125 
L 19.921875 0 
L 10.890625 0 
L 10.890625 47.703125 
L 2.296875 47.703125 
L 2.296875 54.6875 
L 10.890625 54.6875 
L 10.890625 58.5 
Q 10.890625 67.625 15.140625 71.796875 
Q 19.390625 75.984375 28.609375 75.984375 
z
" id="DejaVuSans-102"/>
      <path d="M 45.40625 27.984375 
Q 45.40625 37.75 41.375 43.109375 
Q 37.359375 48.484375 30.078125 48.484375 
Q 22.859375 48.484375 18.828125 43.109375 
Q 14.796875 37.75 14.796875 27.984375 
Q 14.796875 18.265625 18.828125 12.890625 
Q 22.859375 7.515625 30.078125 7.515625 
Q 37.359375 7.515625 41.375 12.890625 
Q 45.40625 18.265625 45.40625 27.984375 
z
M 54.390625 6.78125 
Q 54.390625 -7.171875 48.1875 -13.984375 
Q 42 -20.796875 29.203125 -20.796875 
Q 24.46875 -20.796875 20.265625 -20.09375 
Q 16.0625 -19.390625 12.109375 -17.921875 
L 12.109375 -9.1875 
Q 16.0625 -11.328125 19.921875 -12.34375 
Q 23.78125 -13.375 27.78125 -13.375 
Q 36.625 -13.375 41.015625 -8.765625 
Q 45.40625 -4.15625 45.40625 5.171875 
L 45.40625 9.625 
Q 42.625 4.78125 38.28125 2.390625 
Q 33.9375 0 27.875 0 
Q 17.828125 0 11.671875 7.65625 
Q 5.515625 15.328125 5.515625 27.984375 
Q 5.515625 40.671875 11.671875 48.328125 
Q 17.828125 56 27.875 56 
Q 33.9375 56 38.28125 53.609375 
Q 42.625 51.21875 45.40625 46.390625 
L 45.40625 54.6875 
L 54.390625 54.6875 
z
" id="DejaVuSans-103"/>
      <path d="M 34.28125 27.484375 
Q 23.390625 27.484375 19.1875 25 
Q 14.984375 22.515625 14.984375 16.5 
Q 14.984375 11.71875 18.140625 8.90625 
Q 21.296875 6.109375 26.703125 6.109375 
Q 34.1875 6.109375 38.703125 11.40625 
Q 43.21875 16.703125 43.21875 25.484375 
L 43.21875 27.484375 
z
M 52.203125 31.203125 
L 52.203125 0 
L 43.21875 0 
L 43.21875 8.296875 
Q 40.140625 3.328125 35.546875 0.953125 
Q 30.953125 -1.421875 24.3125 -1.421875 
Q 15.921875 -1.421875 10.953125 3.296875 
Q 6 8.015625 6 15.921875 
Q 6 25.140625 12.171875 29.828125 
Q 18.359375 34.515625 30.609375 34.515625 
L 43.21875 34.515625 
L 43.21875 35.40625 
Q 43.21875 41.609375 39.140625 45 
Q 35.0625 48.390625 27.6875 48.390625 
Q 23 48.390625 18.546875 47.265625 
Q 14.109375 46.140625 10.015625 43.890625 
L 10.015625 52.203125 
Q 14.9375 54.109375 19.578125 55.046875 
Q 24.21875 56 28.609375 56 
Q 40.484375 56 46.34375 49.84375 
Q 52.203125 43.703125 52.203125 31.203125 
z
" id="DejaVuSans-97"/>
      <path d="M 52 44.1875 
Q 55.375 50.25 60.0625 53.125 
Q 64.75 56 71.09375 56 
Q 79.640625 56 84.28125 50.015625 
Q 88.921875 44.046875 88.921875 33.015625 
L 88.921875 0 
L 79.890625 0 
L 79.890625 32.71875 
Q 79.890625 40.578125 77.09375 44.375 
Q 74.3125 48.1875 68.609375 48.1875 
Q 61.625 48.1875 57.5625 43.546875 
Q 53.515625 38.921875 53.515625 30.90625 
L 53.515625 0 
L 44.484375 0 
L 44.484375 32.71875 
Q 44.484375 40.625 41.703125 44.40625 
Q 38.921875 48.1875 33.109375 48.1875 
Q 26.21875 48.1875 22.15625 43.53125 
Q 18.109375 38.875 18.109375 30.90625 
L 18.109375 0 
L 9.078125 0 
L 9.078125 54.6875 
L 18.109375 54.6875 
L 18.109375 46.1875 
Q 21.1875 51.21875 25.484375 53.609375 
Q 29.78125 56 35.6875 56 
Q 41.65625 56 45.828125 52.96875 
Q 50 49.953125 52 44.1875 
z
" id="DejaVuSans-109"/>
      <path d="M 56.203125 29.59375 
L 56.203125 25.203125 
L 14.890625 25.203125 
Q 15.484375 15.921875 20.484375 11.0625 
Q 25.484375 6.203125 34.421875 6.203125 
Q 39.59375 6.203125 44.453125 7.46875 
Q 49.3125 8.734375 54.109375 11.28125 
L 54.109375 2.78125 
Q 49.265625 0.734375 44.1875 -0.34375 
Q 39.109375 -1.421875 33.890625 -1.421875 
Q 20.796875 -1.421875 13.15625 6.1875 
Q 5.515625 13.8125 5.515625 26.8125 
Q 5.515625 40.234375 12.765625 48.109375 
Q 20.015625 56 32.328125 56 
Q 43.359375 56 49.78125 48.890625 
Q 56.203125 41.796875 56.203125 29.59375 
z
M 47.21875 32.234375 
Q 47.125 39.59375 43.09375 43.984375 
Q 39.0625 48.390625 32.421875 48.390625 
Q 24.90625 48.390625 20.390625 44.140625 
Q 15.875 39.890625 15.1875 32.171875 
z
" id="DejaVuSans-101"/>
      <path d="M 44.28125 53.078125 
L 44.28125 44.578125 
Q 40.484375 46.53125 36.375 47.5 
Q 32.28125 48.484375 27.875 48.484375 
Q 21.1875 48.484375 17.84375 46.4375 
Q 14.5 44.390625 14.5 40.28125 
Q 14.5 37.15625 16.890625 35.375 
Q 19.28125 33.59375 26.515625 31.984375 
L 29.59375 31.296875 
Q 39.15625 29.25 43.1875 25.515625 
Q 47.21875 21.78125 47.21875 15.09375 
Q 47.21875 7.46875 41.1875 3.015625 
Q 35.15625 -1.421875 24.609375 -1.421875 
Q 20.21875 -1.421875 15.453125 -0.5625 
Q 10.6875 0.296875 5.421875 2 
L 5.421875 11.28125 
Q 10.40625 8.6875 15.234375 7.390625 
Q 20.0625 6.109375 24.8125 6.109375 
Q 31.15625 6.109375 34.5625 8.28125 
Q 37.984375 10.453125 37.984375 14.40625 
Q 37.984375 18.0625 35.515625 20.015625 
Q 33.0625 21.96875 24.703125 23.78125 
L 21.578125 24.515625 
Q 13.234375 26.265625 9.515625 29.90625 
Q 5.8125 33.546875 5.8125 39.890625 
Q 5.8125 47.609375 11.28125 51.796875 
Q 16.75 56 26.8125 56 
Q 31.78125 56 36.171875 55.265625 
Q 40.578125 54.546875 44.28125 53.078125 
z
" id="DejaVuSans-115"/>
     </defs>
     <g transform="translate(227.215504 414.912344)scale(0.25 -0.25)">
      <use xlink:href="#DejaVuSans-35"/>
      <use x="83.789062" xlink:href="#DejaVuSans-32"/>
      <use x="115.576172" xlink:href="#DejaVuSans-111"/>
      <use x="176.757812" xlink:href="#DejaVuSans-102"/>
      <use x="211.962891" xlink:href="#DejaVuSans-32"/>
      <use x="243.75" xlink:href="#DejaVuSans-103"/>
      <use x="307.226562" xlink:href="#DejaVuSans-97"/>
      <use x="368.505859" xlink:href="#DejaVuSans-109"/>
      <use x="465.917969" xlink:href="#DejaVuSans-101"/>
      <use x="527.441406" xlink:href="#DejaVuSans-115"/>
     </g>
    </g>
   </g>
   <g id="matplotlib.axis_2">
    <g id="ytick_1">
     <g id="line2d_7">
      <defs>
       <path d="M 0 0 
L -3.5 0 
" id="ma2cf833a51" style="stroke:#000000;stroke-width:0.8;"/>
      </defs>
      <g>
       <use style="stroke:#000000;stroke-width:0.8;" x="70.13" xlink:href="#ma2cf833a51" y="351.970909"/>
      </g>
     </g>
     <g id="text_8">
      <!-- 0.0 -->
      <defs>
       <path d="M 10.6875 12.40625 
L 21 12.40625 
L 21 0 
L 10.6875 0 
z
" id="DejaVuSans-46"/>
      </defs>
      <g transform="translate(31.32375 359.569347)scale(0.2 -0.2)">
       <use xlink:href="#DejaVuSans-48"/>
       <use x="63.623047" xlink:href="#DejaVuSans-46"/>
       <use x="95.410156" xlink:href="#DejaVuSans-48"/>
      </g>
     </g>
    </g>
    <g id="ytick_2">
     <g id="line2d_8">
      <g>
       <use style="stroke:#000000;stroke-width:0.8;" x="70.13" xlink:href="#ma2cf833a51" y="297.614545"/>
      </g>
     </g>
     <g id="text_9">
      <!-- 0.2 -->
      <g transform="translate(31.32375 305.212983)scale(0.2 -0.2)">
       <use xlink:href="#DejaVuSans-48"/>
       <use x="63.623047" xlink:href="#DejaVuSans-46"/>
       <use x="95.410156" xlink:href="#DejaVuSans-50"/>
      </g>
     </g>
    </g>
    <g id="ytick_3">
     <g id="line2d_9">
      <g>
       <use style="stroke:#000000;stroke-width:0.8;" x="70.13" xlink:href="#ma2cf833a51" y="243.258182"/>
      </g>
     </g>
     <g id="text_10">
      <!-- 0.4 -->
      <defs>
       <path d="M 37.796875 64.3125 
L 12.890625 25.390625 
L 37.796875 25.390625 
z
M 35.203125 72.90625 
L 47.609375 72.90625 
L 47.609375 25.390625 
L 58.015625 25.390625 
L 58.015625 17.1875 
L 47.609375 17.1875 
L 47.609375 0 
L 37.796875 0 
L 37.796875 17.1875 
L 4.890625 17.1875 
L 4.890625 26.703125 
z
" id="DejaVuSans-52"/>
      </defs>
      <g transform="translate(31.32375 250.856619)scale(0.2 -0.2)">
       <use xlink:href="#DejaVuSans-48"/>
       <use x="63.623047" xlink:href="#DejaVuSans-46"/>
       <use x="95.410156" xlink:href="#DejaVuSans-52"/>
      </g>
     </g>
    </g>
    <g id="ytick_4">
     <g id="line2d_10">
      <g>
       <use style="stroke:#000000;stroke-width:0.8;" x="70.13" xlink:href="#ma2cf833a51" y="188.901818"/>
      </g>
     </g>
     <g id="text_11">
      <!-- 0.6 -->
      <defs>
       <path d="M 33.015625 40.375 
Q 26.375 40.375 22.484375 35.828125 
Q 18.609375 31.296875 18.609375 23.390625 
Q 18.609375 15.53125 22.484375 10.953125 
Q 26.375 6.390625 33.015625 6.390625 
Q 39.65625 6.390625 43.53125 10.953125 
Q 47.40625 15.53125 47.40625 23.390625 
Q 47.40625 31.296875 43.53125 35.828125 
Q 39.65625 40.375 33.015625 40.375 
z
M 52.59375 71.296875 
L 52.59375 62.3125 
Q 48.875 64.0625 45.09375 64.984375 
Q 41.3125 65.921875 37.59375 65.921875 
Q 27.828125 65.921875 22.671875 59.328125 
Q 17.53125 52.734375 16.796875 39.40625 
Q 19.671875 43.65625 24.015625 45.921875 
Q 28.375 48.1875 33.59375 48.1875 
Q 44.578125 48.1875 50.953125 41.515625 
Q 57.328125 34.859375 57.328125 23.390625 
Q 57.328125 12.15625 50.6875 5.359375 
Q 44.046875 -1.421875 33.015625 -1.421875 
Q 20.359375 -1.421875 13.671875 8.265625 
Q 6.984375 17.96875 6.984375 36.375 
Q 6.984375 53.65625 15.1875 63.9375 
Q 23.390625 74.21875 37.203125 74.21875 
Q 40.921875 74.21875 44.703125 73.484375 
Q 48.484375 72.75 52.59375 71.296875 
z
" id="DejaVuSans-54"/>
      </defs>
      <g transform="translate(31.32375 196.500256)scale(0.2 -0.2)">
       <use xlink:href="#DejaVuSans-48"/>
       <use x="63.623047" xlink:href="#DejaVuSans-46"/>
       <use x="95.410156" xlink:href="#DejaVuSans-54"/>
      </g>
     </g>
    </g>
    <g id="ytick_5">
     <g id="line2d_11">
      <g>
       <use style="stroke:#000000;stroke-width:0.8;" x="70.13" xlink:href="#ma2cf833a51" y="134.545455"/>
      </g>
     </g>
     <g id="text_12">
      <!-- 0.8 -->
      <defs>
       <path d="M 31.78125 34.625 
Q 24.75 34.625 20.71875 30.859375 
Q 16.703125 27.09375 16.703125 20.515625 
Q 16.703125 13.921875 20.71875 10.15625 
Q 24.75 6.390625 31.78125 6.390625 
Q 38.8125 6.390625 42.859375 10.171875 
Q 46.921875 13.96875 46.921875 20.515625 
Q 46.921875 27.09375 42.890625 30.859375 
Q 38.875 34.625 31.78125 34.625 
z
M 21.921875 38.8125 
Q 15.578125 40.375 12.03125 44.71875 
Q 8.5 49.078125 8.5 55.328125 
Q 8.5 64.0625 14.71875 69.140625 
Q 20.953125 74.21875 31.78125 74.21875 
Q 42.671875 74.21875 48.875 69.140625 
Q 55.078125 64.0625 55.078125 55.328125 
Q 55.078125 49.078125 51.53125 44.71875 
Q 48 40.375 41.703125 38.8125 
Q 48.828125 37.15625 52.796875 32.3125 
Q 56.78125 27.484375 56.78125 20.515625 
Q 56.78125 9.90625 50.3125 4.234375 
Q 43.84375 -1.421875 31.78125 -1.421875 
Q 19.734375 -1.421875 13.25 4.234375 
Q 6.78125 9.90625 6.78125 20.515625 
Q 6.78125 27.484375 10.78125 32.3125 
Q 14.796875 37.15625 21.921875 38.8125 
z
M 18.3125 54.390625 
Q 18.3125 48.734375 21.84375 45.5625 
Q 25.390625 42.390625 31.78125 42.390625 
Q 38.140625 42.390625 41.71875 45.5625 
Q 45.3125 48.734375 45.3125 54.390625 
Q 45.3125 60.0625 41.71875 63.234375 
Q 38.140625 66.40625 31.78125 66.40625 
Q 25.390625 66.40625 21.84375 63.234375 
Q 18.3125 60.0625 18.3125 54.390625 
z
" id="DejaVuSans-56"/>
      </defs>
      <g transform="translate(31.32375 142.143892)scale(0.2 -0.2)">
       <use xlink:href="#DejaVuSans-48"/>
       <use x="63.623047" xlink:href="#DejaVuSans-46"/>
       <use x="95.410156" xlink:href="#DejaVuSans-56"/>
      </g>
     </g>
    </g>
    <g id="ytick_6">
     <g id="line2d_12">
      <g>
       <use style="stroke:#000000;stroke-width:0.8;" x="70.13" xlink:href="#ma2cf833a51" y="80.189091"/>
      </g>
     </g>
     <g id="text_13">
      <!-- 1.0 -->
      <g transform="translate(31.32375 87.787528)scale(0.2 -0.2)">
       <use xlink:href="#DejaVuSans-49"/>
       <use x="63.623047" xlink:href="#DejaVuSans-46"/>
       <use x="95.410156" xlink:href="#DejaVuSans-48"/>
      </g>
     </g>
    </g>
    <g id="text_14">
     <!-- Percentage of Att strategy used -->
     <defs>
      <path d="M 19.671875 64.796875 
L 19.671875 37.40625 
L 32.078125 37.40625 
Q 38.96875 37.40625 42.71875 40.96875 
Q 46.484375 44.53125 46.484375 51.125 
Q 46.484375 57.671875 42.71875 61.234375 
Q 38.96875 64.796875 32.078125 64.796875 
z
M 9.8125 72.90625 
L 32.078125 72.90625 
Q 44.34375 72.90625 50.609375 67.359375 
Q 56.890625 61.8125 56.890625 51.125 
Q 56.890625 40.328125 50.609375 34.8125 
Q 44.34375 29.296875 32.078125 29.296875 
L 19.671875 29.296875 
L 19.671875 0 
L 9.8125 0 
z
" id="DejaVuSans-80"/>
      <path d="M 41.109375 46.296875 
Q 39.59375 47.171875 37.8125 47.578125 
Q 36.03125 48 33.890625 48 
Q 26.265625 48 22.1875 43.046875 
Q 18.109375 38.09375 18.109375 28.8125 
L 18.109375 0 
L 9.078125 0 
L 9.078125 54.6875 
L 18.109375 54.6875 
L 18.109375 46.1875 
Q 20.953125 51.171875 25.484375 53.578125 
Q 30.03125 56 36.53125 56 
Q 37.453125 56 38.578125 55.875 
Q 39.703125 55.765625 41.0625 55.515625 
z
" id="DejaVuSans-114"/>
      <path d="M 48.78125 52.59375 
L 48.78125 44.1875 
Q 44.96875 46.296875 41.140625 47.34375 
Q 37.3125 48.390625 33.40625 48.390625 
Q 24.65625 48.390625 19.8125 42.84375 
Q 14.984375 37.3125 14.984375 27.296875 
Q 14.984375 17.28125 19.8125 11.734375 
Q 24.65625 6.203125 33.40625 6.203125 
Q 37.3125 6.203125 41.140625 7.25 
Q 44.96875 8.296875 48.78125 10.40625 
L 48.78125 2.09375 
Q 45.015625 0.34375 40.984375 -0.53125 
Q 36.96875 -1.421875 32.421875 -1.421875 
Q 20.0625 -1.421875 12.78125 6.34375 
Q 5.515625 14.109375 5.515625 27.296875 
Q 5.515625 40.671875 12.859375 48.328125 
Q 20.21875 56 33.015625 56 
Q 37.15625 56 41.109375 55.140625 
Q 45.0625 54.296875 48.78125 52.59375 
z
" id="DejaVuSans-99"/>
      <path d="M 54.890625 33.015625 
L 54.890625 0 
L 45.90625 0 
L 45.90625 32.71875 
Q 45.90625 40.484375 42.875 44.328125 
Q 39.84375 48.1875 33.796875 48.1875 
Q 26.515625 48.1875 22.3125 43.546875 
Q 18.109375 38.921875 18.109375 30.90625 
L 18.109375 0 
L 9.078125 0 
L 9.078125 54.6875 
L 18.109375 54.6875 
L 18.109375 46.1875 
Q 21.34375 51.125 25.703125 53.5625 
Q 30.078125 56 35.796875 56 
Q 45.21875 56 50.046875 50.171875 
Q 54.890625 44.34375 54.890625 33.015625 
z
" id="DejaVuSans-110"/>
      <path d="M 18.3125 70.21875 
L 18.3125 54.6875 
L 36.8125 54.6875 
L 36.8125 47.703125 
L 18.3125 47.703125 
L 18.3125 18.015625 
Q 18.3125 11.328125 20.140625 9.421875 
Q 21.96875 7.515625 27.59375 7.515625 
L 36.8125 7.515625 
L 36.8125 0 
L 27.59375 0 
Q 17.1875 0 13.234375 3.875 
Q 9.28125 7.765625 9.28125 18.015625 
L 9.28125 47.703125 
L 2.6875 47.703125 
L 2.6875 54.6875 
L 9.28125 54.6875 
L 9.28125 70.21875 
z
" id="DejaVuSans-116"/>
      <path d="M 34.1875 63.1875 
L 20.796875 26.90625 
L 47.609375 26.90625 
z
M 28.609375 72.90625 
L 39.796875 72.90625 
L 67.578125 0 
L 57.328125 0 
L 50.6875 18.703125 
L 17.828125 18.703125 
L 11.1875 0 
L 0.78125 0 
z
" id="DejaVuSans-65"/>
      <path d="M 32.171875 -5.078125 
Q 28.375 -14.84375 24.75 -17.8125 
Q 21.140625 -20.796875 15.09375 -20.796875 
L 7.90625 -20.796875 
L 7.90625 -13.28125 
L 13.1875 -13.28125 
Q 16.890625 -13.28125 18.9375 -11.515625 
Q 21 -9.765625 23.484375 -3.21875 
L 25.09375 0.875 
L 2.984375 54.6875 
L 12.5 54.6875 
L 29.59375 11.921875 
L 46.6875 54.6875 
L 56.203125 54.6875 
z
" id="DejaVuSans-121"/>
      <path d="M 8.5 21.578125 
L 8.5 54.6875 
L 17.484375 54.6875 
L 17.484375 21.921875 
Q 17.484375 14.15625 20.5 10.265625 
Q 23.53125 6.390625 29.59375 6.390625 
Q 36.859375 6.390625 41.078125 11.03125 
Q 45.3125 15.671875 45.3125 23.6875 
L 45.3125 54.6875 
L 54.296875 54.6875 
L 54.296875 0 
L 45.3125 0 
L 45.3125 8.40625 
Q 42.046875 3.421875 37.71875 1 
Q 33.40625 -1.421875 27.6875 -1.421875 
Q 18.265625 -1.421875 13.375 4.4375 
Q 8.5 10.296875 8.5 21.578125 
z
M 31.109375 56 
z
" id="DejaVuSans-117"/>
      <path d="M 45.40625 46.390625 
L 45.40625 75.984375 
L 54.390625 75.984375 
L 54.390625 0 
L 45.40625 0 
L 45.40625 8.203125 
Q 42.578125 3.328125 38.25 0.953125 
Q 33.9375 -1.421875 27.875 -1.421875 
Q 17.96875 -1.421875 11.734375 6.484375 
Q 5.515625 14.40625 5.515625 27.296875 
Q 5.515625 40.1875 11.734375 48.09375 
Q 17.96875 56 27.875 56 
Q 33.9375 56 38.25 53.625 
Q 42.578125 51.265625 45.40625 46.390625 
z
M 14.796875 27.296875 
Q 14.796875 17.390625 18.875 11.75 
Q 22.953125 6.109375 30.078125 6.109375 
Q 37.203125 6.109375 41.296875 11.75 
Q 45.40625 17.390625 45.40625 27.296875 
Q 45.40625 37.203125 41.296875 42.84375 
Q 37.203125 48.484375 30.078125 48.484375 
Q 22.953125 48.484375 18.875 42.84375 
Q 14.796875 37.203125 14.796875 27.296875 
z
" id="DejaVuSans-100"/>
     </defs>
     <g transform="translate(23.857604 349.091719)rotate(-90)scale(0.166667 -0.166667)">
      <use xlink:href="#DejaVuSans-80"/>
      <use x="60.255859" xlink:href="#DejaVuSans-101"/>
      <use x="121.779297" xlink:href="#DejaVuSans-114"/>
      <use x="162.861328" xlink:href="#DejaVuSans-99"/>
      <use x="217.841797" xlink:href="#DejaVuSans-101"/>
      <use x="279.365234" xlink:href="#DejaVuSans-110"/>
      <use x="342.744141" xlink:href="#DejaVuSans-116"/>
      <use x="381.953125" xlink:href="#DejaVuSans-97"/>
      <use x="443.232422" xlink:href="#DejaVuSans-103"/>
      <use x="506.708984" xlink:href="#DejaVuSans-101"/>
      <use x="568.232422" xlink:href="#DejaVuSans-32"/>
      <use x="600.019531" xlink:href="#DejaVuSans-111"/>
      <use x="661.201172" xlink:href="#DejaVuSans-102"/>
      <use x="696.40625" xlink:href="#DejaVuSans-32"/>
      <use x="728.193359" xlink:href="#DejaVuSans-65"/>
      <use x="796.585938" xlink:href="#DejaVuSans-116"/>
      <use x="835.794922" xlink:href="#DejaVuSans-116"/>
      <use x="875.003906" xlink:href="#DejaVuSans-32"/>
      <use x="906.791016" xlink:href="#DejaVuSans-115"/>
      <use x="958.890625" xlink:href="#DejaVuSans-116"/>
      <use x="998.099609" xlink:href="#DejaVuSans-114"/>
      <use x="1039.212891" xlink:href="#DejaVuSans-97"/>
      <use x="1100.492188" xlink:href="#DejaVuSans-116"/>
      <use x="1139.701172" xlink:href="#DejaVuSans-101"/>
      <use x="1201.224609" xlink:href="#DejaVuSans-103"/>
      <use x="1264.701172" xlink:href="#DejaVuSans-121"/>
      <use x="1323.880859" xlink:href="#DejaVuSans-32"/>
      <use x="1355.667969" xlink:href="#DejaVuSans-117"/>
      <use x="1419.046875" xlink:href="#DejaVuSans-115"/>
      <use x="1471.146484" xlink:href="#DejaVuSans-101"/>
      <use x="1532.669922" xlink:href="#DejaVuSans-100"/>
     </g>
    </g>
   </g>
   <g id="line2d_13">
    <path clip-path="url(#p5aee81bbe4)" d="M 90.99626 80.189091 
L 92.665561 85.624727 
L 94.334862 134.545455 
L 96.004163 156.288 
L 97.673464 172.594909 
L 99.342764 210.644364 
L 101.012065 205.208727 
L 102.681366 188.901818 
L 106.019968 265.000727 
L 107.689269 275.872 
L 109.358569 229.946419 
L 111.02787 246.586122 
L 112.697171 252.13269 
L 114.366472 265.232031 
L 116.035773 247.884255 
L 117.705074 288.362398 
L 119.374374 236.319072 
L 121.043675 253.666847 
L 122.712976 286.979605 
L 124.382277 257.438103 
L 126.051578 275.163004 
L 129.390179 275.163004 
L 131.05948 243.258182 
L 132.728781 291.574949 
L 134.398082 263.483805 
L 136.067383 250.842791 
L 137.736683 263.483805 
L 139.405984 248.434978 
L 141.075285 287.260952 
L 142.744586 250.052727 
L 144.413887 263.641818 
L 146.083188 275.314499 
L 147.752488 194.623541 
L 149.421789 208.530505 
L 151.09109 204.432208 
L 152.760391 251.023377 
L 154.429692 179.018843 
L 156.098993 203.726281 
L 157.768293 269.612782 
L 159.437594 261.37697 
L 161.106895 284.025455 
L 162.776196 281.833666 
L 164.445497 229.230733 
L 166.114798 246.765044 
L 167.784098 243.258182 
L 169.453399 243.258182 
L 171.1227 234.198788 
L 172.792001 252.317576 
L 174.461302 252.317576 
L 176.130602 234.198788 
L 177.799903 261.37697 
L 179.469204 267.624828 
L 181.138505 303.438442 
L 182.807806 264.612468 
L 184.477107 264.612468 
L 186.146407 241.244983 
L 187.815708 231.17899 
L 189.485009 251.310976 
L 191.15431 281.508956 
L 192.823611 257.892587 
L 194.492912 216.08 
L 196.162212 243.258182 
L 197.831513 261.37697 
L 199.500814 272.701212 
L 201.170115 261.37697 
L 202.839416 265.494876 
L 204.508717 240.787438 
L 207.847318 240.787438 
L 209.516619 216.08 
L 211.18592 235.492987 
L 212.855221 170.78303 
L 214.524521 170.78303 
L 216.193822 196.667013 
L 217.863123 243.258182 
L 221.201725 243.258182 
L 222.871026 270.436364 
L 224.540326 251.840766 
L 226.209627 246.27798 
L 227.878928 231.17899 
L 229.548229 231.17899 
L 231.21753 256.047914 
L 232.886831 240.060749 
L 234.556131 284.025455 
L 236.225432 301.011818 
L 237.894733 301.011818 
L 239.564034 284.025455 
L 241.233335 297.614545 
L 242.902636 235.492987 
L 244.571936 216.08 
L 246.241237 250.052727 
L 247.910538 216.08 
L 249.579839 216.08 
L 251.24914 284.025455 
L 252.91844 284.025455 
L 254.587741 250.052727 
L 256.257042 148.134545 
L 257.926343 216.08 
L 259.595644 182.107273 
L 261.264945 216.08 
L 262.934245 182.107273 
L 264.603546 196.667013 
L 266.272847 274.318961 
L 267.942148 157.841039 
L 269.611449 196.667013 
L 271.28075 274.318961 
L 272.95005 235.492987 
L 274.619351 274.318961 
L 276.288652 125.486061 
L 277.957953 216.08 
L 279.627254 170.78303 
L 281.296555 306.673939 
L 282.965855 261.37697 
L 284.635156 351.970909 
L 286.304457 216.08 
L 287.973758 306.673939 
L 289.643059 306.673939 
L 291.31236 261.37697 
L 292.98166 134.545455 
L 294.650961 188.901818 
L 296.320262 188.901818 
L 297.989563 243.258182 
L 299.658864 188.901818 
L 301.328164 80.189091 
L 302.997465 188.901818 
L 304.666766 188.901818 
L 306.336067 243.258182 
L 308.005368 188.901818 
L 311.343969 297.614545 
L 313.01327 243.258182 
L 316.351872 243.258182 
L 318.021173 351.970909 
L 319.690474 243.258182 
L 321.359774 243.258182 
L 323.029075 351.970909 
L 324.698376 297.614545 
L 326.367677 188.901818 
L 329.706279 188.901818 
L 331.375579 297.614545 
L 334.714181 188.901818 
L 336.383482 297.614545 
L 338.052783 351.970909 
L 339.722083 243.258182 
L 341.391384 297.614545 
L 343.060685 297.614545 
L 344.729986 188.901818 
L 346.399287 243.258182 
L 348.068588 188.901818 
L 349.737888 243.258182 
L 351.407189 243.258182 
L 353.07649 284.025455 
L 354.745791 148.134545 
L 356.415092 216.08 
L 358.084393 170.78303 
L 359.753693 261.37697 
L 361.422994 170.78303 
L 363.092295 261.37697 
L 364.761596 170.78303 
L 366.430897 261.37697 
L 368.100198 170.78303 
L 369.769498 170.78303 
L 371.438799 80.189091 
L 376.446702 351.970909 
L 378.116002 170.78303 
L 379.785303 80.189091 
L 381.454604 261.37697 
L 383.123905 261.37697 
L 384.793206 170.78303 
L 386.462507 261.37697 
L 391.470409 261.37697 
L 393.13971 80.189091 
L 394.809011 261.37697 
L 396.478312 170.78303 
L 399.816913 351.970909 
L 401.486214 170.78303 
L 403.155515 261.37697 
L 404.824816 170.78303 
L 406.494117 261.37697 
L 411.502019 261.37697 
L 414.840621 80.189091 
L 416.509921 80.189091 
L 418.179222 170.78303 
L 419.848523 170.78303 
L 423.187125 351.970909 
L 424.856426 261.37697 
L 426.525726 351.970909 
L 428.195027 170.78303 
L 429.864328 80.189091 
L 431.533629 261.37697 
L 433.20293 170.78303 
L 434.872231 261.37697 
L 438.210832 261.37697 
L 439.880133 170.78303 
L 443.218735 170.78303 
L 446.557336 351.970909 
L 448.226637 351.970909 
L 449.895938 80.189091 
L 451.565239 170.78303 
L 453.23454 80.189091 
L 454.90384 261.37697 
L 456.573141 80.189091 
L 458.242442 261.37697 
L 459.911743 170.78303 
L 461.581044 351.970909 
L 464.919645 170.78303 
L 466.588946 261.37697 
L 468.258247 170.78303 
L 469.927548 170.78303 
L 471.596849 80.189091 
L 473.26615 351.970909 
L 474.93545 261.37697 
L 476.604751 351.970909 
L 478.274052 216.08 
L 481.612654 216.08 
L 483.281955 80.189091 
L 484.951255 351.970909 
L 486.620556 351.970909 
L 488.289857 80.189091 
L 489.959158 351.970909 
L 491.628459 80.189091 
L 493.29776 351.970909 
L 498.305662 351.970909 
L 499.974963 80.189091 
L 503.313564 80.189091 
L 504.982865 351.970909 
L 508.321467 351.970909 
L 508.321467 351.970909 
" style="fill:none;stroke:#1f77b4;stroke-linecap:square;stroke-width:1.5;"/>
   </g>
   <g id="line2d_14">
    <path clip-path="url(#p5aee81bbe4)" d="M 90.99626 351.970909 
L 92.665561 346.535273 
L 94.334862 303.050182 
L 96.004163 286.743273 
L 97.673464 275.872 
L 99.342764 275.872 
L 101.012065 281.307636 
L 102.681366 303.050182 
L 104.350667 281.307636 
L 106.019968 265.000727 
L 107.689269 292.178909 
L 109.358569 302.0518 
L 112.697171 313.144935 
L 114.366472 305.710174 
L 116.035773 311.492766 
L 117.705074 323.05795 
L 119.374374 311.492766 
L 121.043675 305.710174 
L 122.712976 316.521107 
L 124.382277 334.246008 
L 126.051578 310.612806 
L 127.720879 340.154308 
L 129.390179 322.429407 
L 131.05948 333.852121 
L 132.728781 297.614545 
L 134.398082 320.368372 
L 136.067383 314.047865 
L 137.736683 320.368372 
L 139.405984 326.086926 
L 141.075285 332.557922 
L 142.744586 324.792727 
L 144.413887 324.792727 
L 146.083188 303.189557 
L 147.752488 344.818756 
L 149.421789 344.421414 
L 151.09109 320.91013 
L 152.760391 313.144935 
L 154.429692 351.970909 
L 156.098993 327.263471 
L 157.768293 310.791846 
L 159.437594 302.556033 
L 162.776196 316.902287 
L 164.445497 316.902287 
L 166.114798 299.367977 
L 167.784098 315.733333 
L 169.453399 342.911515 
L 171.1227 324.792727 
L 172.792001 297.614545 
L 174.461302 324.792727 
L 176.130602 333.852121 
L 177.799903 333.852121 
L 179.469204 314.483762 
L 181.138505 303.438442 
L 182.807806 342.264416 
L 184.477107 342.264416 
L 186.146407 321.772929 
L 187.815708 321.772929 
L 191.15431 341.904916 
L 192.823611 331.064615 
L 194.492912 331.064615 
L 196.162212 319.357091 
L 197.831513 340.646667 
L 199.500814 317.998182 
L 201.170115 329.322424 
L 202.839416 314.909752 
L 206.178017 339.61719 
L 207.847318 339.61719 
L 209.516619 351.970909 
L 211.18592 326.086926 
L 212.855221 351.970909 
L 214.524521 351.970909 
L 216.193822 313.144935 
L 217.863123 311.203636 
L 221.201725 338.381818 
L 222.871026 324.792727 
L 224.540326 323.362297 
L 226.209627 336.871919 
L 229.548229 306.673939 
L 231.21753 319.996578 
L 232.886831 335.983743 
L 234.556131 284.025455 
L 236.225432 317.998182 
L 237.894733 334.984545 
L 239.564034 301.011818 
L 241.233335 315.733333 
L 242.902636 332.557922 
L 244.571936 329.322424 
L 246.241237 351.970909 
L 247.910538 317.998182 
L 249.579839 351.970909 
L 256.257042 351.970909 
L 257.926343 284.025455 
L 261.264945 351.970909 
L 262.934245 351.970909 
L 264.603546 313.144935 
L 266.272847 313.144935 
L 267.942148 351.970909 
L 271.28075 351.970909 
L 272.95005 313.144935 
L 274.619351 313.144935 
L 276.288652 351.970909 
L 279.627254 351.970909 
L 281.296555 170.78303 
L 282.965855 306.673939 
L 284.635156 306.673939 
L 286.304457 351.970909 
L 287.973758 351.970909 
L 289.643059 306.673939 
L 291.31236 306.673939 
L 292.98166 351.970909 
L 296.320262 351.970909 
L 297.989563 297.614545 
L 299.658864 351.970909 
L 302.997465 351.970909 
L 306.336067 243.258182 
L 308.005368 351.970909 
L 309.674669 351.970909 
L 311.343969 297.614545 
L 313.01327 351.970909 
L 316.351872 351.970909 
L 318.021173 297.614545 
L 319.690474 351.970909 
L 321.359774 351.970909 
L 323.029075 297.614545 
L 324.698376 351.970909 
L 328.036978 351.970909 
L 329.706279 297.614545 
L 331.375579 351.970909 
L 334.714181 351.970909 
L 338.052783 243.258182 
L 339.722083 351.970909 
L 341.391384 297.614545 
L 343.060685 297.614545 
L 344.729986 351.970909 
L 351.407189 351.970909 
L 353.07649 284.025455 
L 354.745791 351.970909 
L 356.415092 284.025455 
L 358.084393 351.970909 
L 359.753693 261.37697 
L 363.092295 261.37697 
L 364.761596 351.970909 
L 366.430897 261.37697 
L 368.100198 351.970909 
L 369.769498 261.37697 
L 371.438799 351.970909 
L 373.1081 351.970909 
L 376.446702 170.78303 
L 378.116002 351.970909 
L 379.785303 351.970909 
L 381.454604 261.37697 
L 383.123905 261.37697 
L 384.793206 351.970909 
L 386.462507 261.37697 
L 388.131807 351.970909 
L 396.478312 351.970909 
L 398.147612 170.78303 
L 399.816913 170.78303 
L 401.486214 351.970909 
L 403.155515 351.970909 
L 404.824816 261.37697 
L 406.494117 261.37697 
L 408.163417 351.970909 
L 418.179222 351.970909 
L 419.848523 261.37697 
L 421.517824 351.970909 
L 423.187125 261.37697 
L 424.856426 261.37697 
L 426.525726 170.78303 
L 428.195027 351.970909 
L 434.872231 351.970909 
L 436.541531 261.37697 
L 438.210832 351.970909 
L 444.888036 351.970909 
L 446.557336 261.37697 
L 448.226637 261.37697 
L 449.895938 351.970909 
L 451.565239 261.37697 
L 453.23454 351.970909 
L 454.90384 170.78303 
L 456.573141 351.970909 
L 458.242442 261.37697 
L 459.911743 261.37697 
L 461.581044 170.78303 
L 464.919645 351.970909 
L 466.588946 170.78303 
L 468.258247 351.970909 
L 471.596849 351.970909 
L 473.26615 170.78303 
L 474.93545 351.970909 
L 476.604751 261.37697 
L 478.274052 216.08 
L 479.943353 351.970909 
L 483.281955 351.970909 
L 484.951255 80.189091 
L 486.620556 351.970909 
L 508.321467 351.970909 
L 508.321467 351.970909 
" style="fill:none;stroke:#ff7f0e;stroke-linecap:square;stroke-width:1.5;"/>
   </g>
   <g id="line2d_15">
    <path clip-path="url(#p5aee81bbe4)" d="M 90.99626 351.970909 
L 92.665561 351.970909 
L 94.334862 346.535273 
L 96.004163 346.535273 
L 97.673464 351.970909 
L 99.342764 335.664 
L 101.012065 346.535273 
L 104.350667 335.664 
L 106.019968 335.664 
L 107.689269 313.921455 
L 109.358569 335.331206 
L 111.02787 324.238071 
L 112.697171 335.331206 
L 114.366472 340.405725 
L 116.035773 340.405725 
L 117.705074 328.840542 
L 119.374374 340.405725 
L 121.043675 346.188317 
L 122.712976 334.246008 
L 124.382277 334.246008 
L 126.051578 340.154308 
L 127.720879 322.429407 
L 129.390179 346.062609 
L 131.05948 327.812525 
L 132.728781 345.931313 
L 134.398082 339.329894 
L 136.067383 345.650402 
L 137.736683 345.650402 
L 139.405984 339.028918 
L 141.075285 339.028918 
L 142.744586 345.176364 
L 144.413887 338.381818 
L 146.083188 345.002145 
L 147.752488 344.818756 
L 149.421789 336.871919 
L 151.09109 344.205714 
L 152.760391 344.205714 
L 154.429692 343.735096 
L 157.768293 343.735096 
L 159.437594 351.970909 
L 161.106895 326.491364 
L 162.776196 325.669443 
L 164.445497 351.970909 
L 166.114798 334.436598 
L 167.784098 342.911515 
L 169.453399 351.970909 
L 171.1227 324.792727 
L 172.792001 342.911515 
L 174.461302 342.911515 
L 176.130602 351.970909 
L 177.799903 333.852121 
L 181.138505 332.557922 
L 182.807806 342.264416 
L 184.477107 332.557922 
L 186.146407 341.904916 
L 187.815708 341.904916 
L 189.485009 331.838923 
L 191.15431 351.970909 
L 192.823611 341.517762 
L 194.492912 351.970909 
L 196.162212 319.357091 
L 197.831513 351.970909 
L 199.500814 340.646667 
L 201.170115 306.673939 
L 202.839416 327.263471 
L 209.516619 327.263471 
L 211.18592 351.970909 
L 212.855221 339.028918 
L 214.524521 351.970909 
L 216.193822 326.086926 
L 217.863123 351.970909 
L 219.532424 311.203636 
L 221.201725 338.381818 
L 222.871026 351.970909 
L 224.540326 351.970909 
L 226.209627 336.871919 
L 229.548229 336.871919 
L 231.21753 351.970909 
L 232.886831 335.983743 
L 234.556131 334.984545 
L 236.225432 334.984545 
L 237.894733 351.970909 
L 247.910538 351.970909 
L 249.579839 317.998182 
L 251.24914 317.998182 
L 252.91844 284.025455 
L 254.587741 351.970909 
L 264.603546 351.970909 
L 266.272847 313.144935 
L 267.942148 351.970909 
L 269.611449 351.970909 
L 271.28075 313.144935 
L 272.95005 351.970909 
L 274.619351 351.970909 
L 276.288652 306.673939 
L 277.957953 351.970909 
L 291.31236 351.970909 
L 292.98166 297.614545 
L 294.650961 297.614545 
L 296.320262 351.970909 
L 304.666766 351.970909 
L 306.336067 297.614545 
L 308.005368 351.970909 
L 309.674669 243.258182 
L 311.343969 351.970909 
L 313.01327 351.970909 
L 314.682571 243.258182 
L 316.351872 351.970909 
L 318.021173 243.258182 
L 319.690474 351.970909 
L 329.706279 351.970909 
L 331.375579 297.614545 
L 333.04488 297.614545 
L 334.714181 351.970909 
L 336.383482 297.614545 
L 338.052783 351.970909 
L 348.068588 351.970909 
L 349.737888 297.614545 
L 351.407189 351.970909 
L 386.462507 351.970909 
L 388.131807 261.37697 
L 389.801108 351.970909 
L 419.848523 351.970909 
L 421.517824 261.37697 
L 423.187125 351.970909 
L 443.218735 351.970909 
L 444.888036 261.37697 
L 446.557336 351.970909 
L 463.250345 351.970909 
L 464.919645 261.37697 
L 466.588946 351.970909 
L 494.96706 351.970909 
L 496.636361 80.189091 
L 498.305662 351.970909 
L 508.321467 351.970909 
L 508.321467 351.970909 
" style="fill:none;stroke:#2ca02c;stroke-linecap:square;stroke-width:1.5;"/>
   </g>
   <g id="line2d_16">
    <path clip-path="url(#p5aee81bbe4)" d="M 90.99626 351.970909 
L 96.004163 351.970909 
L 97.673464 346.535273 
L 99.342764 351.970909 
L 101.012065 335.664 
L 102.681366 341.099636 
L 106.019968 330.228364 
L 107.689269 351.970909 
L 109.358569 340.877774 
L 111.02787 340.877774 
L 112.697171 318.691503 
L 114.366472 334.623133 
L 119.374374 334.623133 
L 121.043675 328.840542 
L 122.712976 322.429407 
L 124.382277 328.337708 
L 126.051578 346.062609 
L 127.720879 328.337708 
L 131.05948 351.970909 
L 132.728781 321.772929 
L 134.398082 326.688879 
L 136.067383 339.329894 
L 137.736683 339.329894 
L 139.405984 351.970909 
L 141.075285 313.144935 
L 142.744586 345.176364 
L 144.413887 345.176364 
L 146.083188 351.970909 
L 147.752488 337.666603 
L 149.421789 351.970909 
L 151.09109 336.440519 
L 152.760391 344.205714 
L 154.429692 343.735096 
L 156.098993 335.499284 
L 157.768293 335.499284 
L 159.437594 351.970909 
L 161.106895 326.491364 
L 162.776196 316.902287 
L 164.445497 334.436598 
L 167.784098 351.970909 
L 169.453399 351.970909 
L 171.1227 342.911515 
L 174.461302 342.911515 
L 176.130602 333.852121 
L 177.799903 351.970909 
L 179.469204 342.599122 
L 181.138505 322.851429 
L 182.807806 332.557922 
L 184.477107 332.557922 
L 186.146407 341.904916 
L 191.15431 341.904916 
L 192.823611 341.517762 
L 194.492912 331.064615 
L 196.162212 330.228364 
L 197.831513 340.646667 
L 199.500814 317.998182 
L 201.170115 351.970909 
L 202.839416 351.970909 
L 204.508717 327.263471 
L 206.178017 339.61719 
L 207.847318 327.263471 
L 211.18592 351.970909 
L 212.855221 339.028918 
L 214.524521 351.970909 
L 217.863123 351.970909 
L 219.532424 338.381818 
L 221.201725 311.203636 
L 222.871026 351.970909 
L 224.540326 323.362297 
L 226.209627 336.871919 
L 227.878928 351.970909 
L 229.548229 336.871919 
L 231.21753 335.983743 
L 232.886831 351.970909 
L 234.556131 334.984545 
L 236.225432 334.984545 
L 237.894733 301.011818 
L 241.233335 333.852121 
L 242.902636 332.557922 
L 244.571936 351.970909 
L 246.241237 351.970909 
L 247.910538 317.998182 
L 249.579839 351.970909 
L 257.926343 351.970909 
L 259.595644 317.998182 
L 262.934245 317.998182 
L 264.603546 351.970909 
L 266.272847 351.970909 
L 267.942148 313.144935 
L 269.611449 313.144935 
L 271.28075 351.970909 
L 272.95005 313.144935 
L 274.619351 351.970909 
L 281.296555 351.970909 
L 282.965855 306.673939 
L 284.635156 351.970909 
L 286.304457 351.970909 
L 287.973758 261.37697 
L 289.643059 306.673939 
L 291.31236 306.673939 
L 292.98166 351.970909 
L 296.320262 351.970909 
L 297.989563 297.614545 
L 299.658864 351.970909 
L 306.336067 351.970909 
L 308.005368 243.258182 
L 309.674669 351.970909 
L 318.021173 351.970909 
L 319.690474 297.614545 
L 323.029075 297.614545 
L 324.698376 351.970909 
L 339.722083 351.970909 
L 341.391384 297.614545 
L 343.060685 351.970909 
L 344.729986 297.614545 
L 346.399287 297.614545 
L 348.068588 351.970909 
L 351.407189 351.970909 
L 353.07649 284.025455 
L 354.745791 351.970909 
L 376.446702 351.970909 
L 378.116002 261.37697 
L 379.785303 351.970909 
L 389.801108 351.970909 
L 391.470409 261.37697 
L 393.13971 351.970909 
L 404.824816 351.970909 
L 406.494117 261.37697 
L 408.163417 351.970909 
L 409.832718 261.37697 
L 411.502019 351.970909 
L 421.517824 351.970909 
L 423.187125 261.37697 
L 424.856426 351.970909 
L 461.581044 351.970909 
L 463.250345 261.37697 
L 464.919645 351.970909 
L 488.289857 351.970909 
L 489.959158 80.189091 
L 491.628459 351.970909 
L 508.321467 351.970909 
L 508.321467 351.970909 
" style="fill:none;stroke:#d62728;stroke-linecap:square;stroke-width:1.5;"/>
   </g>
   <g id="line2d_17">
    <path clip-path="url(#p5aee81bbe4)" d="M 90.99626 351.970909 
L 97.673464 351.970909 
L 99.342764 341.099636 
L 101.012065 324.792727 
L 102.681366 341.099636 
L 104.350667 341.099636 
L 106.019968 313.921455 
L 107.689269 308.485818 
L 109.358569 313.144935 
L 111.02787 324.238071 
L 112.697171 302.0518 
L 114.366472 305.710174 
L 116.035773 323.05795 
L 117.705074 294.14499 
L 119.374374 317.275358 
L 121.043675 299.927582 
L 122.712976 298.796206 
L 124.382277 322.429407 
L 126.051578 298.796206 
L 127.720879 298.796206 
L 129.390179 269.254704 
L 131.05948 315.733333 
L 132.728781 285.535354 
L 134.398082 326.688879 
L 136.067383 295.086342 
L 137.736683 269.804313 
L 139.405984 261.37697 
L 141.075285 287.260952 
L 142.744586 256.847273 
L 144.413887 263.641818 
L 146.083188 310.158322 
L 147.752488 309.05799 
L 149.421789 314.223434 
L 151.09109 305.37974 
L 152.760391 297.614545 
L 154.429692 302.556033 
L 156.098993 302.556033 
L 157.768293 294.32022 
L 159.437594 294.32022 
L 161.106895 275.532273 
L 162.776196 299.367977 
L 164.445497 316.902287 
L 166.114798 281.833666 
L 167.784098 333.852121 
L 169.453399 261.37697 
L 171.1227 297.614545 
L 172.792001 297.614545 
L 174.461302 306.673939 
L 176.130602 279.495758 
L 177.799903 297.614545 
L 179.469204 286.368401 
L 181.138505 284.025455 
L 182.807806 293.731948 
L 184.477107 264.612468 
L 186.146407 281.508956 
L 187.815708 301.640943 
L 189.485009 291.574949 
L 191.15431 271.442963 
L 192.823611 278.798881 
L 194.492912 268.345734 
L 196.162212 297.614545 
L 197.831513 216.08 
L 199.500814 295.349697 
L 201.170115 284.025455 
L 202.839416 302.556033 
L 204.508717 290.202314 
L 206.178017 290.202314 
L 207.847318 253.141157 
L 209.516619 327.263471 
L 211.18592 326.086926 
L 212.855221 326.086926 
L 214.524521 287.260952 
L 216.193822 313.144935 
L 217.863123 311.203636 
L 219.532424 338.381818 
L 221.201725 270.436364 
L 222.871026 284.025455 
L 224.540326 309.05799 
L 226.209627 306.673939 
L 227.878928 321.772929 
L 229.548229 321.772929 
L 231.21753 288.022246 
L 232.886831 319.996578 
L 234.556131 301.011818 
L 236.225432 267.039091 
L 239.564034 301.011818 
L 241.233335 207.020606 
L 242.902636 274.318961 
L 244.571936 284.025455 
L 247.910538 284.025455 
L 249.579839 317.998182 
L 251.24914 250.052727 
L 252.91844 284.025455 
L 254.587741 250.052727 
L 256.257042 317.998182 
L 262.934245 317.998182 
L 264.603546 351.970909 
L 266.272847 274.318961 
L 267.942148 313.144935 
L 269.611449 274.318961 
L 272.95005 274.318961 
L 274.619351 351.970909 
L 277.957953 351.970909 
L 279.627254 306.673939 
L 281.296555 351.970909 
L 282.965855 351.970909 
L 284.635156 261.37697 
L 286.304457 261.37697 
L 287.973758 216.08 
L 292.98166 351.970909 
L 294.650961 351.970909 
L 296.320262 297.614545 
L 299.658864 297.614545 
L 301.328164 351.970909 
L 302.997465 297.614545 
L 304.666766 351.970909 
L 308.005368 351.970909 
L 311.343969 243.258182 
L 313.01327 243.258182 
L 314.682571 351.970909 
L 316.351872 243.258182 
L 318.021173 243.258182 
L 321.359774 351.970909 
L 324.698376 243.258182 
L 326.367677 351.970909 
L 328.036978 297.614545 
L 329.706279 351.970909 
L 331.375579 351.970909 
L 333.04488 243.258182 
L 334.714181 351.970909 
L 336.383482 297.614545 
L 338.052783 351.970909 
L 339.722083 243.258182 
L 343.060685 243.258182 
L 344.729986 351.970909 
L 346.399287 297.614545 
L 348.068588 297.614545 
L 349.737888 243.258182 
L 351.407189 243.258182 
L 353.07649 351.970909 
L 354.745791 284.025455 
L 356.415092 284.025455 
L 358.084393 261.37697 
L 359.753693 351.970909 
L 361.422994 351.970909 
L 363.092295 261.37697 
L 364.761596 351.970909 
L 366.430897 261.37697 
L 368.100198 351.970909 
L 371.438799 351.970909 
L 373.1081 261.37697 
L 376.446702 261.37697 
L 378.116002 351.970909 
L 379.785303 351.970909 
L 381.454604 261.37697 
L 383.123905 261.37697 
L 384.793206 351.970909 
L 386.462507 351.970909 
L 388.131807 261.37697 
L 389.801108 351.970909 
L 391.470409 261.37697 
L 393.13971 351.970909 
L 394.809011 170.78303 
L 398.147612 351.970909 
L 399.816913 261.37697 
L 401.486214 351.970909 
L 403.155515 261.37697 
L 404.824816 351.970909 
L 406.494117 351.970909 
L 408.163417 170.78303 
L 409.832718 261.37697 
L 413.17132 261.37697 
L 414.840621 351.970909 
L 419.848523 351.970909 
L 421.517824 261.37697 
L 423.187125 351.970909 
L 424.856426 351.970909 
L 426.525726 261.37697 
L 428.195027 351.970909 
L 433.20293 351.970909 
L 434.872231 170.78303 
L 436.541531 261.37697 
L 438.210832 170.78303 
L 441.549434 351.970909 
L 444.888036 351.970909 
L 446.557336 170.78303 
L 448.226637 351.970909 
L 456.573141 351.970909 
L 458.242442 261.37697 
L 459.911743 351.970909 
L 461.581044 261.37697 
L 463.250345 351.970909 
L 468.258247 351.970909 
L 469.927548 261.37697 
L 471.596849 351.970909 
L 473.26615 261.37697 
L 474.93545 261.37697 
L 476.604751 351.970909 
L 479.943353 351.970909 
L 481.612654 216.08 
L 483.281955 351.970909 
L 491.628459 351.970909 
L 493.29776 80.189091 
L 494.96706 80.189091 
L 496.636361 351.970909 
L 498.305662 80.189091 
L 499.974963 351.970909 
L 503.313564 351.970909 
L 504.982865 80.189091 
L 506.652166 351.970909 
L 508.321467 80.189091 
L 508.321467 80.189091 
" style="fill:none;stroke:#9467bd;stroke-linecap:square;stroke-width:1.5;"/>
   </g>
   <g id="line2d_18">
    <path clip-path="url(#p5aee81bbe4)" d="M 90.99626 351.970909 
L 102.681366 351.970909 
L 104.350667 346.535273 
L 107.689269 346.535273 
L 109.358569 340.877774 
L 111.02787 340.877774 
L 112.697171 351.970909 
L 114.366472 346.188317 
L 116.035773 328.840542 
L 117.705074 334.623133 
L 119.374374 346.188317 
L 121.043675 328.840542 
L 122.712976 328.337708 
L 124.382277 316.521107 
L 126.051578 328.337708 
L 127.720879 346.062609 
L 129.390179 346.062609 
L 131.05948 333.852121 
L 132.728781 339.891717 
L 134.398082 326.688879 
L 136.067383 339.329894 
L 137.736683 333.009387 
L 139.405984 345.499913 
L 141.075285 345.499913 
L 142.744586 338.381818 
L 144.413887 338.381818 
L 146.083188 345.002145 
L 147.752488 337.666603 
L 149.421789 344.421414 
L 151.09109 351.970909 
L 152.760391 344.205714 
L 154.429692 343.735096 
L 156.098993 343.735096 
L 157.768293 319.027658 
L 159.437594 327.263471 
L 161.106895 351.970909 
L 162.776196 343.203754 
L 164.445497 351.970909 
L 166.114798 343.203754 
L 167.784098 324.792727 
L 171.1227 342.911515 
L 172.792001 342.911515 
L 174.461302 315.733333 
L 176.130602 342.911515 
L 177.799903 333.852121 
L 179.469204 351.970909 
L 181.138505 332.557922 
L 182.807806 332.557922 
L 184.477107 342.264416 
L 186.146407 341.904916 
L 187.815708 331.838923 
L 189.485009 341.904916 
L 191.15431 331.838923 
L 192.823611 331.064615 
L 194.492912 351.970909 
L 196.162212 341.099636 
L 197.831513 351.970909 
L 201.170115 351.970909 
L 202.839416 339.61719 
L 204.508717 351.970909 
L 207.847318 351.970909 
L 209.516619 327.263471 
L 211.18592 351.970909 
L 212.855221 326.086926 
L 214.524521 351.970909 
L 217.863123 351.970909 
L 219.532424 324.792727 
L 222.871026 351.970909 
L 224.540326 323.362297 
L 226.209627 336.871919 
L 227.878928 351.970909 
L 229.548229 351.970909 
L 231.21753 304.009412 
L 232.886831 319.996578 
L 234.556131 351.970909 
L 236.225432 351.970909 
L 237.894733 334.984545 
L 239.564034 334.984545 
L 241.233335 351.970909 
L 242.902636 351.970909 
L 244.571936 329.322424 
L 246.241237 317.998182 
L 247.910538 351.970909 
L 249.579839 317.998182 
L 251.24914 351.970909 
L 252.91844 284.025455 
L 254.587741 351.970909 
L 276.288652 351.970909 
L 277.957953 306.673939 
L 279.627254 306.673939 
L 281.296555 351.970909 
L 282.965855 351.970909 
L 284.635156 306.673939 
L 286.304457 306.673939 
L 287.973758 351.970909 
L 294.650961 351.970909 
L 296.320262 297.614545 
L 297.989563 351.970909 
L 299.658864 297.614545 
L 301.328164 351.970909 
L 321.359774 351.970909 
L 323.029075 297.614545 
L 324.698376 297.614545 
L 326.367677 351.970909 
L 329.706279 351.970909 
L 331.375579 297.614545 
L 333.04488 351.970909 
L 334.714181 297.614545 
L 336.383482 297.614545 
L 338.052783 351.970909 
L 346.399287 351.970909 
L 348.068588 297.614545 
L 349.737888 351.970909 
L 366.430897 351.970909 
L 368.100198 261.37697 
L 369.769498 351.970909 
L 399.816913 351.970909 
L 401.486214 261.37697 
L 403.155515 351.970909 
L 423.187125 351.970909 
L 424.856426 261.37697 
L 426.525726 351.970909 
L 431.533629 351.970909 
L 433.20293 261.37697 
L 434.872231 351.970909 
L 443.218735 351.970909 
L 444.888036 261.37697 
L 446.557336 351.970909 
L 474.93545 351.970909 
L 476.604751 170.78303 
L 478.274052 351.970909 
L 504.982865 351.970909 
L 506.652166 80.189091 
L 508.321467 351.970909 
L 508.321467 351.970909 
" style="fill:none;stroke:#8c564b;stroke-linecap:square;stroke-width:1.5;"/>
   </g>
   <g id="line2d_19">
    <path clip-path="url(#p5aee81bbe4)" d="M 90.99626 351.970909 
L 94.334862 351.970909 
L 97.673464 341.099636 
L 99.342764 324.792727 
L 101.012065 346.535273 
L 102.681366 324.792727 
L 106.019968 335.664 
L 107.689269 319.357091 
L 109.358569 329.784638 
L 111.02787 313.144935 
L 112.697171 324.238071 
L 114.366472 299.927582 
L 116.035773 305.710174 
L 117.705074 294.14499 
L 119.374374 323.05795 
L 121.043675 340.405725 
L 122.712976 310.612806 
L 124.382277 304.704506 
L 126.051578 322.429407 
L 127.720879 298.796206 
L 129.390179 322.429407 
L 131.05948 303.654141 
L 132.728781 309.693737 
L 134.398082 295.086342 
L 136.067383 314.047865 
L 137.736683 326.688879 
L 139.405984 332.557922 
L 141.075285 306.673939 
L 142.744586 331.587273 
L 144.413887 317.998182 
L 146.083188 303.189557 
L 147.752488 323.362297 
L 149.421789 291.574949 
L 151.09109 328.675325 
L 152.760391 297.614545 
L 154.429692 327.263471 
L 156.098993 335.499284 
L 157.768293 319.027658 
L 159.437594 319.027658 
L 161.106895 334.984545 
L 162.776196 316.902287 
L 164.445497 316.902287 
L 166.114798 343.203754 
L 167.784098 288.555152 
L 171.1227 324.792727 
L 174.461302 324.792727 
L 176.130602 315.733333 
L 177.799903 279.495758 
L 179.469204 305.111975 
L 181.138505 313.144935 
L 182.807806 303.438442 
L 184.477107 322.851429 
L 186.146407 331.838923 
L 187.815708 321.772929 
L 189.485009 301.640943 
L 191.15431 301.640943 
L 192.823611 320.611469 
L 194.492912 341.517762 
L 197.831513 340.646667 
L 199.500814 317.998182 
L 201.170115 317.998182 
L 202.839416 290.202314 
L 204.508717 339.61719 
L 206.178017 314.909752 
L 207.847318 351.970909 
L 209.516619 314.909752 
L 211.18592 287.260952 
L 212.855221 351.970909 
L 214.524521 339.028918 
L 216.193822 339.028918 
L 217.863123 284.025455 
L 219.532424 311.203636 
L 221.201725 351.970909 
L 222.871026 270.436364 
L 224.540326 309.05799 
L 226.209627 306.673939 
L 227.878928 276.47596 
L 229.548229 321.772929 
L 231.21753 351.970909 
L 232.886831 288.022246 
L 234.556131 317.998182 
L 236.225432 301.011818 
L 237.894733 301.011818 
L 239.564034 334.984545 
L 241.233335 333.852121 
L 242.902636 313.144935 
L 244.571936 329.322424 
L 246.241237 317.998182 
L 247.910538 351.970909 
L 251.24914 284.025455 
L 252.91844 351.970909 
L 254.587741 284.025455 
L 256.257042 317.998182 
L 257.926343 317.998182 
L 259.595644 351.970909 
L 261.264945 317.998182 
L 262.934245 317.998182 
L 264.603546 313.144935 
L 266.272847 313.144935 
L 267.942148 351.970909 
L 269.611449 351.970909 
L 271.28075 274.318961 
L 272.95005 351.970909 
L 274.619351 235.492987 
L 276.288652 351.970909 
L 277.957953 261.37697 
L 279.627254 351.970909 
L 282.965855 261.37697 
L 284.635156 261.37697 
L 286.304457 351.970909 
L 287.973758 351.970909 
L 289.643059 306.673939 
L 291.31236 351.970909 
L 301.328164 351.970909 
L 302.997465 297.614545 
L 304.666766 351.970909 
L 309.674669 351.970909 
L 311.343969 297.614545 
L 316.351872 297.614545 
L 318.021173 351.970909 
L 321.359774 243.258182 
L 323.029075 297.614545 
L 326.367677 297.614545 
L 328.036978 351.970909 
L 329.706279 351.970909 
L 331.375579 243.258182 
L 333.04488 351.970909 
L 336.383482 351.970909 
L 338.052783 243.258182 
L 341.391384 351.970909 
L 343.060685 297.614545 
L 346.399287 297.614545 
L 348.068588 351.970909 
L 349.737888 351.970909 
L 351.407189 297.614545 
L 353.07649 351.970909 
L 358.084393 351.970909 
L 359.753693 261.37697 
L 361.422994 351.970909 
L 363.092295 351.970909 
L 364.761596 261.37697 
L 366.430897 351.970909 
L 383.123905 351.970909 
L 384.793206 261.37697 
L 386.462507 351.970909 
L 388.131807 351.970909 
L 389.801108 170.78303 
L 391.470409 351.970909 
L 401.486214 351.970909 
L 403.155515 261.37697 
L 404.824816 351.970909 
L 416.509921 351.970909 
L 418.179222 261.37697 
L 419.848523 351.970909 
L 426.525726 351.970909 
L 428.195027 261.37697 
L 429.864328 351.970909 
L 431.533629 261.37697 
L 433.20293 351.970909 
L 439.880133 351.970909 
L 441.549434 261.37697 
L 443.218735 261.37697 
L 444.888036 351.970909 
L 446.557336 351.970909 
L 448.226637 261.37697 
L 449.895938 351.970909 
L 466.588946 351.970909 
L 468.258247 261.37697 
L 469.927548 351.970909 
L 473.26615 351.970909 
L 474.93545 261.37697 
L 476.604751 351.970909 
L 484.951255 351.970909 
L 486.620556 80.189091 
L 488.289857 351.970909 
L 508.321467 351.970909 
L 508.321467 351.970909 
" style="fill:none;stroke:#e377c2;stroke-linecap:square;stroke-width:1.5;"/>
   </g>
   <g id="line2d_20">
    <path clip-path="url(#p5aee81bbe4)" d="M 90.99626 351.970909 
L 102.681366 351.970909 
L 104.350667 346.535273 
L 106.019968 351.970909 
L 107.689269 335.664 
L 109.358569 351.970909 
L 111.02787 346.424341 
L 112.697171 346.424341 
L 114.366472 346.188317 
L 116.035773 351.970909 
L 117.705074 346.188317 
L 119.374374 334.623133 
L 122.712976 346.062609 
L 124.382277 346.062609 
L 126.051578 322.429407 
L 127.720879 334.246008 
L 129.390179 322.429407 
L 131.05948 333.852121 
L 132.728781 351.970909 
L 134.398082 345.650402 
L 137.736683 345.650402 
L 141.075285 332.557922 
L 142.744586 351.970909 
L 144.413887 351.970909 
L 146.083188 310.158322 
L 147.752488 351.970909 
L 157.768293 351.970909 
L 159.437594 335.499284 
L 161.106895 334.984545 
L 162.776196 343.203754 
L 164.445497 325.669443 
L 166.114798 351.970909 
L 167.784098 342.911515 
L 169.453399 351.970909 
L 171.1227 351.970909 
L 174.461302 333.852121 
L 176.130602 351.970909 
L 177.799903 351.970909 
L 179.469204 342.599122 
L 181.138505 351.970909 
L 182.807806 332.557922 
L 184.477107 342.264416 
L 186.146407 341.904916 
L 187.815708 351.970909 
L 189.485009 351.970909 
L 191.15431 321.772929 
L 192.823611 341.517762 
L 194.492912 351.970909 
L 196.162212 351.970909 
L 199.500814 329.322424 
L 202.839416 351.970909 
L 204.508717 339.61719 
L 206.178017 339.61719 
L 207.847318 351.970909 
L 209.516619 339.61719 
L 211.18592 313.144935 
L 212.855221 339.028918 
L 214.524521 339.028918 
L 216.193822 351.970909 
L 217.863123 338.381818 
L 219.532424 351.970909 
L 221.201725 351.970909 
L 222.871026 338.381818 
L 224.540326 351.970909 
L 226.209627 336.871919 
L 227.878928 351.970909 
L 229.548229 336.871919 
L 231.21753 335.983743 
L 232.886831 351.970909 
L 234.556131 334.984545 
L 237.894733 334.984545 
L 239.564034 317.998182 
L 241.233335 351.970909 
L 244.571936 351.970909 
L 246.241237 317.998182 
L 247.910538 351.970909 
L 259.595644 351.970909 
L 261.264945 317.998182 
L 262.934245 351.970909 
L 264.603546 313.144935 
L 266.272847 351.970909 
L 272.95005 351.970909 
L 274.619351 313.144935 
L 276.288652 351.970909 
L 289.643059 351.970909 
L 291.31236 306.673939 
L 292.98166 351.970909 
L 294.650961 297.614545 
L 296.320262 351.970909 
L 302.997465 351.970909 
L 304.666766 297.614545 
L 306.336067 351.970909 
L 324.698376 351.970909 
L 326.367677 297.614545 
L 329.706279 297.614545 
L 331.375579 351.970909 
L 333.04488 351.970909 
L 334.714181 297.614545 
L 336.383482 351.970909 
L 338.052783 297.614545 
L 339.722083 351.970909 
L 351.407189 351.970909 
L 353.07649 284.025455 
L 354.745791 351.970909 
L 384.793206 351.970909 
L 386.462507 261.37697 
L 388.131807 351.970909 
L 409.832718 351.970909 
L 411.502019 261.37697 
L 413.17132 351.970909 
L 421.517824 351.970909 
L 423.187125 261.37697 
L 424.856426 351.970909 
L 429.864328 351.970909 
L 431.533629 261.37697 
L 433.20293 351.970909 
L 446.557336 351.970909 
L 448.226637 261.37697 
L 449.895938 351.970909 
L 478.274052 351.970909 
L 479.943353 216.08 
L 481.612654 351.970909 
L 508.321467 351.970909 
L 508.321467 351.970909 
" style="fill:none;stroke:#7f7f7f;stroke-linecap:square;stroke-width:1.5;"/>
   </g>
   <g id="patch_3">
    <path d="M 70.13 365.56 
L 70.13 66.6 
" style="fill:none;stroke:#000000;stroke-linecap:square;stroke-linejoin:miter;stroke-width:0.8;"/>
   </g>
   <g id="patch_4">
    <path d="M 529.187727 365.56 
L 529.187727 66.6 
" style="fill:none;stroke:#000000;stroke-linecap:square;stroke-linejoin:miter;stroke-width:0.8;"/>
   </g>
   <g id="patch_5">
    <path d="M 70.13 365.56 
L 529.187727 365.56 
" style="fill:none;stroke:#000000;stroke-linecap:square;stroke-linejoin:miter;stroke-width:0.8;"/>
   </g>
   <g id="patch_6">
    <path d="M 70.13 66.6 
L 529.187727 66.6 
" style="fill:none;stroke:#000000;stroke-linecap:square;stroke-linejoin:miter;stroke-width:0.8;"/>
   </g>
   <g id="legend_1">
    <g id="patch_7">
     <path d="M 80.63 59.1 
L 518.687727 59.1 
Q 521.687727 59.1 521.687727 56.1 
L 521.687727 13.565625 
Q 521.687727 10.565625 518.687727 10.565625 
L 80.63 10.565625 
Q 77.63 10.565625 77.63 13.565625 
L 77.63 56.1 
Q 77.63 59.1 80.63 59.1 
z
" style="fill:#ffffff;opacity:0.8;stroke:#cccccc;stroke-linejoin:miter;"/>
    </g>
    <g id="line2d_21">
     <path d="M 83.63 22.713281 
L 113.63 22.713281 
" style="fill:none;stroke:#1f77b4;stroke-linecap:square;stroke-width:1.5;"/>
    </g>
    <g id="line2d_22"/>
    <g id="text_15">
     <!-- Stra 1 -->
     <defs>
      <path d="M 53.515625 70.515625 
L 53.515625 60.890625 
Q 47.90625 63.578125 42.921875 64.890625 
Q 37.9375 66.21875 33.296875 66.21875 
Q 25.25 66.21875 20.875 63.09375 
Q 16.5 59.96875 16.5 54.203125 
Q 16.5 49.359375 19.40625 46.890625 
Q 22.3125 44.4375 30.421875 42.921875 
L 36.375 41.703125 
Q 47.40625 39.59375 52.65625 34.296875 
Q 57.90625 29 57.90625 20.125 
Q 57.90625 9.515625 50.796875 4.046875 
Q 43.703125 -1.421875 29.984375 -1.421875 
Q 24.8125 -1.421875 18.96875 -0.25 
Q 13.140625 0.921875 6.890625 3.21875 
L 6.890625 13.375 
Q 12.890625 10.015625 18.65625 8.296875 
Q 24.421875 6.59375 29.984375 6.59375 
Q 38.421875 6.59375 43.015625 9.90625 
Q 47.609375 13.234375 47.609375 19.390625 
Q 47.609375 24.75 44.3125 27.78125 
Q 41.015625 30.8125 33.5 32.328125 
L 27.484375 33.5 
Q 16.453125 35.6875 11.515625 40.375 
Q 6.59375 45.0625 6.59375 53.421875 
Q 6.59375 63.09375 13.40625 68.65625 
Q 20.21875 74.21875 32.171875 74.21875 
Q 37.3125 74.21875 42.625 73.28125 
Q 47.953125 72.359375 53.515625 70.515625 
z
" id="DejaVuSans-83"/>
     </defs>
     <g transform="translate(125.63 27.963281)scale(0.15 -0.15)">
      <use xlink:href="#DejaVuSans-83"/>
      <use x="63.476562" xlink:href="#DejaVuSans-116"/>
      <use x="102.685547" xlink:href="#DejaVuSans-114"/>
      <use x="143.798828" xlink:href="#DejaVuSans-97"/>
      <use x="205.078125" xlink:href="#DejaVuSans-32"/>
      <use x="236.865234" xlink:href="#DejaVuSans-49"/>
     </g>
    </g>
    <g id="line2d_23">
     <path d="M 83.63 44.730469 
L 113.63 44.730469 
" style="fill:none;stroke:#ff7f0e;stroke-linecap:square;stroke-width:1.5;"/>
    </g>
    <g id="line2d_24"/>
    <g id="text_16">
     <!-- Stra 2 -->
     <g transform="translate(125.63 49.980469)scale(0.15 -0.15)">
      <use xlink:href="#DejaVuSans-83"/>
      <use x="63.476562" xlink:href="#DejaVuSans-116"/>
      <use x="102.685547" xlink:href="#DejaVuSans-114"/>
      <use x="143.798828" xlink:href="#DejaVuSans-97"/>
      <use x="205.078125" xlink:href="#DejaVuSans-32"/>
      <use x="236.865234" xlink:href="#DejaVuSans-50"/>
     </g>
    </g>
    <g id="line2d_25">
     <path d="M 198.625024 22.713281 
L 228.625024 22.713281 
" style="fill:none;stroke:#2ca02c;stroke-linecap:square;stroke-width:1.5;"/>
    </g>
    <g id="line2d_26"/>
    <g id="text_17">
     <!-- Stra 3 -->
     <defs>
      <path d="M 40.578125 39.3125 
Q 47.65625 37.796875 51.625 33 
Q 55.609375 28.21875 55.609375 21.1875 
Q 55.609375 10.40625 48.1875 4.484375 
Q 40.765625 -1.421875 27.09375 -1.421875 
Q 22.515625 -1.421875 17.65625 -0.515625 
Q 12.796875 0.390625 7.625 2.203125 
L 7.625 11.71875 
Q 11.71875 9.328125 16.59375 8.109375 
Q 21.484375 6.890625 26.8125 6.890625 
Q 36.078125 6.890625 40.9375 10.546875 
Q 45.796875 14.203125 45.796875 21.1875 
Q 45.796875 27.640625 41.28125 31.265625 
Q 36.765625 34.90625 28.71875 34.90625 
L 20.21875 34.90625 
L 20.21875 43.015625 
L 29.109375 43.015625 
Q 36.375 43.015625 40.234375 45.921875 
Q 44.09375 48.828125 44.09375 54.296875 
Q 44.09375 59.90625 40.109375 62.90625 
Q 36.140625 65.921875 28.71875 65.921875 
Q 24.65625 65.921875 20.015625 65.03125 
Q 15.375 64.15625 9.8125 62.3125 
L 9.8125 71.09375 
Q 15.4375 72.65625 20.34375 73.4375 
Q 25.25 74.21875 29.59375 74.21875 
Q 40.828125 74.21875 47.359375 69.109375 
Q 53.90625 64.015625 53.90625 55.328125 
Q 53.90625 49.265625 50.4375 45.09375 
Q 46.96875 40.921875 40.578125 39.3125 
z
" id="DejaVuSans-51"/>
     </defs>
     <g transform="translate(240.625024 27.963281)scale(0.15 -0.15)">
      <use xlink:href="#DejaVuSans-83"/>
      <use x="63.476562" xlink:href="#DejaVuSans-116"/>
      <use x="102.685547" xlink:href="#DejaVuSans-114"/>
      <use x="143.798828" xlink:href="#DejaVuSans-97"/>
      <use x="205.078125" xlink:href="#DejaVuSans-32"/>
      <use x="236.865234" xlink:href="#DejaVuSans-51"/>
     </g>
    </g>
    <g id="line2d_27">
     <path d="M 198.625024 44.730469 
L 228.625024 44.730469 
" style="fill:none;stroke:#d62728;stroke-linecap:square;stroke-width:1.5;"/>
    </g>
    <g id="line2d_28"/>
    <g id="text_18">
     <!-- Stra 4 -->
     <g transform="translate(240.625024 49.980469)scale(0.15 -0.15)">
      <use xlink:href="#DejaVuSans-83"/>
      <use x="63.476562" xlink:href="#DejaVuSans-116"/>
      <use x="102.685547" xlink:href="#DejaVuSans-114"/>
      <use x="143.798828" xlink:href="#DejaVuSans-97"/>
      <use x="205.078125" xlink:href="#DejaVuSans-32"/>
      <use x="236.865234" xlink:href="#DejaVuSans-52"/>
     </g>
    </g>
    <g id="line2d_29">
     <path d="M 313.620047 22.713281 
L 343.620047 22.713281 
" style="fill:none;stroke:#9467bd;stroke-linecap:square;stroke-width:1.5;"/>
    </g>
    <g id="line2d_30"/>
    <g id="text_19">
     <!-- Stra 5 -->
     <g transform="translate(355.620047 27.963281)scale(0.15 -0.15)">
      <use xlink:href="#DejaVuSans-83"/>
      <use x="63.476562" xlink:href="#DejaVuSans-116"/>
      <use x="102.685547" xlink:href="#DejaVuSans-114"/>
      <use x="143.798828" xlink:href="#DejaVuSans-97"/>
      <use x="205.078125" xlink:href="#DejaVuSans-32"/>
      <use x="236.865234" xlink:href="#DejaVuSans-53"/>
     </g>
    </g>
    <g id="line2d_31">
     <path d="M 313.620047 44.730469 
L 343.620047 44.730469 
" style="fill:none;stroke:#8c564b;stroke-linecap:square;stroke-width:1.5;"/>
    </g>
    <g id="line2d_32"/>
    <g id="text_20">
     <!-- Stra 6 -->
     <g transform="translate(355.620047 49.980469)scale(0.15 -0.15)">
      <use xlink:href="#DejaVuSans-83"/>
      <use x="63.476562" xlink:href="#DejaVuSans-116"/>
      <use x="102.685547" xlink:href="#DejaVuSans-114"/>
      <use x="143.798828" xlink:href="#DejaVuSans-97"/>
      <use x="205.078125" xlink:href="#DejaVuSans-32"/>
      <use x="236.865234" xlink:href="#DejaVuSans-54"/>
     </g>
    </g>
    <g id="line2d_33">
     <path d="M 428.615071 22.713281 
L 458.615071 22.713281 
" style="fill:none;stroke:#e377c2;stroke-linecap:square;stroke-width:1.5;"/>
    </g>
    <g id="line2d_34"/>
    <g id="text_21">
     <!-- Stra 7 -->
     <defs>
      <path d="M 8.203125 72.90625 
L 55.078125 72.90625 
L 55.078125 68.703125 
L 28.609375 0 
L 18.3125 0 
L 43.21875 64.59375 
L 8.203125 64.59375 
z
" id="DejaVuSans-55"/>
     </defs>
     <g transform="translate(470.615071 27.963281)scale(0.15 -0.15)">
      <use xlink:href="#DejaVuSans-83"/>
      <use x="63.476562" xlink:href="#DejaVuSans-116"/>
      <use x="102.685547" xlink:href="#DejaVuSans-114"/>
      <use x="143.798828" xlink:href="#DejaVuSans-97"/>
      <use x="205.078125" xlink:href="#DejaVuSans-32"/>
      <use x="236.865234" xlink:href="#DejaVuSans-55"/>
     </g>
    </g>
    <g id="line2d_35">
     <path d="M 428.615071 44.730469 
L 458.615071 44.730469 
" style="fill:none;stroke:#7f7f7f;stroke-linecap:square;stroke-width:1.5;"/>
    </g>
    <g id="line2d_36"/>
    <g id="text_22">
     <!-- Stra 8 -->
     <g transform="translate(470.615071 49.980469)scale(0.15 -0.15)">
      <use xlink:href="#DejaVuSans-83"/>
      <use x="63.476562" xlink:href="#DejaVuSans-116"/>
      <use x="102.685547" xlink:href="#DejaVuSans-114"/>
      <use x="143.798828" xlink:href="#DejaVuSans-97"/>
      <use x="205.078125" xlink:href="#DejaVuSans-32"/>
      <use x="236.865234" xlink:href="#DejaVuSans-56"/>
     </g>
    </g>
   </g>
  </g>
 </g>
 <defs>
  <clipPath id="p5aee81bbe4">
   <rect height="298.96" width="459.057727" x="70.13" y="66.6"/>
  </clipPath>
 </defs>
</svg>
