<?xml version="1.0" encoding="utf-8" standalone="no"?>
<!DOCTYPE svg PUBLIC "-//W3C//DTD SVG 1.1//EN"
  "http://www.w3.org/Graphics/SVG/1.1/DTD/svg11.dtd">
<!-- Created with matplotlib (https://matplotlib.org/) -->
<svg height="432pt" version="1.1" viewBox="0 0 540 432" width="540pt" xmlns="http://www.w3.org/2000/svg" xmlns:xlink="http://www.w3.org/1999/xlink">
 <defs>
  <style type="text/css">
*{stroke-linecap:butt;stroke-linejoin:round;}
  </style>
 </defs>
 <g id="figure_1">
  <g id="patch_1">
   <path d="M 0 432 
L 540 432 
L 540 0 
L 0 0 
z
" style="fill:#ffffff;"/>
  </g>
  <g id="axes_1">
   <g id="patch_2">
    <path d="M 63.74 365.56 
L 529.187727 365.56 
L 529.187727 66.6 
L 63.74 66.6 
z
" style="fill:#ffffff;"/>
   </g>
   <g id="matplotlib.axis_1">
    <g id="xtick_1">
     <g id="line2d_1">
      <defs>
       <path d="M 0 0 
L 0 3.5 
" id="mce340941da" style="stroke:#000000;stroke-width:0.8;"/>
      </defs>
      <g>
       <use style="stroke:#000000;stroke-width:0.8;" x="84.896715" xlink:href="#mce340941da" y="365.56"/>
      </g>
     </g>
     <g id="text_1">
      <!-- 0 -->
      <defs>
       <path d="M 31.78125 66.40625 
Q 24.171875 66.40625 20.328125 58.90625 
Q 16.5 51.421875 16.5 36.375 
Q 16.5 21.390625 20.328125 13.890625 
Q 24.171875 6.390625 31.78125 6.390625 
Q 39.453125 6.390625 43.28125 13.890625 
Q 47.125 21.390625 47.125 36.375 
Q 47.125 51.421875 43.28125 58.90625 
Q 39.453125 66.40625 31.78125 66.40625 
z
M 31.78125 74.21875 
Q 44.046875 74.21875 50.515625 64.515625 
Q 56.984375 54.828125 56.984375 36.375 
Q 56.984375 17.96875 50.515625 8.265625 
Q 44.046875 -1.421875 31.78125 -1.421875 
Q 19.53125 -1.421875 13.0625 8.265625 
Q 6.59375 17.96875 6.59375 36.375 
Q 6.59375 54.828125 13.0625 64.515625 
Q 19.53125 74.21875 31.78125 74.21875 
z
" id="DejaVuSans-48"/>
      </defs>
      <g transform="translate(78.534215 387.756875)scale(0.2 -0.2)">
       <use xlink:href="#DejaVuSans-48"/>
      </g>
     </g>
    </g>
    <g id="xtick_2">
     <g id="line2d_2">
      <g>
       <use style="stroke:#000000;stroke-width:0.8;" x="169.523574" xlink:href="#mce340941da" y="365.56"/>
      </g>
     </g>
     <g id="text_2">
      <!-- 50 -->
      <defs>
       <path d="M 10.796875 72.90625 
L 49.515625 72.90625 
L 49.515625 64.59375 
L 19.828125 64.59375 
L 19.828125 46.734375 
Q 21.96875 47.46875 24.109375 47.828125 
Q 26.265625 48.1875 28.421875 48.1875 
Q 40.625 48.1875 47.75 41.5 
Q 54.890625 34.8125 54.890625 23.390625 
Q 54.890625 11.625 47.5625 5.09375 
Q 40.234375 -1.421875 26.90625 -1.421875 
Q 22.3125 -1.421875 17.546875 -0.640625 
Q 12.796875 0.140625 7.71875 1.703125 
L 7.71875 11.625 
Q 12.109375 9.234375 16.796875 8.0625 
Q 21.484375 6.890625 26.703125 6.890625 
Q 35.15625 6.890625 40.078125 11.328125 
Q 45.015625 15.765625 45.015625 23.390625 
Q 45.015625 31 40.078125 35.4375 
Q 35.15625 39.890625 26.703125 39.890625 
Q 22.75 39.890625 18.8125 39.015625 
Q 14.890625 38.140625 10.796875 36.28125 
z
" id="DejaVuSans-53"/>
      </defs>
      <g transform="translate(156.798574 387.756875)scale(0.2 -0.2)">
       <use xlink:href="#DejaVuSans-53"/>
       <use x="63.623047" xlink:href="#DejaVuSans-48"/>
      </g>
     </g>
    </g>
    <g id="xtick_3">
     <g id="line2d_3">
      <g>
       <use style="stroke:#000000;stroke-width:0.8;" x="254.150434" xlink:href="#mce340941da" y="365.56"/>
      </g>
     </g>
     <g id="text_3">
      <!-- 100 -->
      <defs>
       <path d="M 12.40625 8.296875 
L 28.515625 8.296875 
L 28.515625 63.921875 
L 10.984375 60.40625 
L 10.984375 69.390625 
L 28.421875 72.90625 
L 38.28125 72.90625 
L 38.28125 8.296875 
L 54.390625 8.296875 
L 54.390625 0 
L 12.40625 0 
z
" id="DejaVuSans-49"/>
      </defs>
      <g transform="translate(235.062934 387.756875)scale(0.2 -0.2)">
       <use xlink:href="#DejaVuSans-49"/>
       <use x="63.623047" xlink:href="#DejaVuSans-48"/>
       <use x="127.246094" xlink:href="#DejaVuSans-48"/>
      </g>
     </g>
    </g>
    <g id="xtick_4">
     <g id="line2d_4">
      <g>
       <use style="stroke:#000000;stroke-width:0.8;" x="338.777293" xlink:href="#mce340941da" y="365.56"/>
      </g>
     </g>
     <g id="text_4">
      <!-- 150 -->
      <g transform="translate(319.689793 387.756875)scale(0.2 -0.2)">
       <use xlink:href="#DejaVuSans-49"/>
       <use x="63.623047" xlink:href="#DejaVuSans-53"/>
       <use x="127.246094" xlink:href="#DejaVuSans-48"/>
      </g>
     </g>
    </g>
    <g id="xtick_5">
     <g id="line2d_5">
      <g>
       <use style="stroke:#000000;stroke-width:0.8;" x="423.404153" xlink:href="#mce340941da" y="365.56"/>
      </g>
     </g>
     <g id="text_5">
      <!-- 200 -->
      <defs>
       <path d="M 19.1875 8.296875 
L 53.609375 8.296875 
L 53.609375 0 
L 7.328125 0 
L 7.328125 8.296875 
Q 12.9375 14.109375 22.625 23.890625 
Q 32.328125 33.6875 34.8125 36.53125 
Q 39.546875 41.84375 41.421875 45.53125 
Q 43.3125 49.21875 43.3125 52.78125 
Q 43.3125 58.59375 39.234375 62.25 
Q 35.15625 65.921875 28.609375 65.921875 
Q 23.96875 65.921875 18.8125 64.3125 
Q 13.671875 62.703125 7.8125 59.421875 
L 7.8125 69.390625 
Q 13.765625 71.78125 18.9375 73 
Q 24.125 74.21875 28.421875 74.21875 
Q 39.75 74.21875 46.484375 68.546875 
Q 53.21875 62.890625 53.21875 53.421875 
Q 53.21875 48.921875 51.53125 44.890625 
Q 49.859375 40.875 45.40625 35.40625 
Q 44.1875 33.984375 37.640625 27.21875 
Q 31.109375 20.453125 19.1875 8.296875 
z
" id="DejaVuSans-50"/>
      </defs>
      <g transform="translate(404.316653 387.756875)scale(0.2 -0.2)">
       <use xlink:href="#DejaVuSans-50"/>
       <use x="63.623047" xlink:href="#DejaVuSans-48"/>
       <use x="127.246094" xlink:href="#DejaVuSans-48"/>
      </g>
     </g>
    </g>
    <g id="xtick_6">
     <g id="line2d_6">
      <g>
       <use style="stroke:#000000;stroke-width:0.8;" x="508.031012" xlink:href="#mce340941da" y="365.56"/>
      </g>
     </g>
     <g id="text_6">
      <!-- 250 -->
      <g transform="translate(488.943512 387.756875)scale(0.2 -0.2)">
       <use xlink:href="#DejaVuSans-50"/>
       <use x="63.623047" xlink:href="#DejaVuSans-53"/>
       <use x="127.246094" xlink:href="#DejaVuSans-48"/>
      </g>
     </g>
    </g>
    <g id="text_7">
     <!-- # of games -->
     <defs>
      <path d="M 51.125 44 
L 36.921875 44 
L 32.8125 27.6875 
L 47.125 27.6875 
z
M 43.796875 71.78125 
L 38.71875 51.515625 
L 52.984375 51.515625 
L 58.109375 71.78125 
L 65.921875 71.78125 
L 60.890625 51.515625 
L 76.125 51.515625 
L 76.125 44 
L 58.984375 44 
L 54.984375 27.6875 
L 70.515625 27.6875 
L 70.515625 20.21875 
L 53.078125 20.21875 
L 48 0 
L 40.1875 0 
L 45.21875 20.21875 
L 30.90625 20.21875 
L 25.875 0 
L 18.015625 0 
L 23.09375 20.21875 
L 7.71875 20.21875 
L 7.71875 27.6875 
L 24.90625 27.6875 
L 29 44 
L 13.28125 44 
L 13.28125 51.515625 
L 30.90625 51.515625 
L 35.890625 71.78125 
z
" id="DejaVuSans-35"/>
      <path id="DejaVuSans-32"/>
      <path d="M 30.609375 48.390625 
Q 23.390625 48.390625 19.1875 42.75 
Q 14.984375 37.109375 14.984375 27.296875 
Q 14.984375 17.484375 19.15625 11.84375 
Q 23.34375 6.203125 30.609375 6.203125 
Q 37.796875 6.203125 41.984375 11.859375 
Q 46.1875 17.53125 46.1875 27.296875 
Q 46.1875 37.015625 41.984375 42.703125 
Q 37.796875 48.390625 30.609375 48.390625 
z
M 30.609375 56 
Q 42.328125 56 49.015625 48.375 
Q 55.71875 40.765625 55.71875 27.296875 
Q 55.71875 13.875 49.015625 6.21875 
Q 42.328125 -1.421875 30.609375 -1.421875 
Q 18.84375 -1.421875 12.171875 6.21875 
Q 5.515625 13.875 5.515625 27.296875 
Q 5.515625 40.765625 12.171875 48.375 
Q 18.84375 56 30.609375 56 
z
" id="DejaVuSans-111"/>
      <path d="M 37.109375 75.984375 
L 37.109375 68.5 
L 28.515625 68.5 
Q 23.6875 68.5 21.796875 66.546875 
Q 19.921875 64.59375 19.921875 59.515625 
L 19.921875 54.6875 
L 34.71875 54.6875 
L 34.71875 47.703125 
L 19.921875 47.703125 
L 19.921875 0 
L 10.890625 0 
L 10.890625 47.703125 
L 2.296875 47.703125 
L 2.296875 54.6875 
L 10.890625 54.6875 
L 10.890625 58.5 
Q 10.890625 67.625 15.140625 71.796875 
Q 19.390625 75.984375 28.609375 75.984375 
z
" id="DejaVuSans-102"/>
      <path d="M 45.40625 27.984375 
Q 45.40625 37.75 41.375 43.109375 
Q 37.359375 48.484375 30.078125 48.484375 
Q 22.859375 48.484375 18.828125 43.109375 
Q 14.796875 37.75 14.796875 27.984375 
Q 14.796875 18.265625 18.828125 12.890625 
Q 22.859375 7.515625 30.078125 7.515625 
Q 37.359375 7.515625 41.375 12.890625 
Q 45.40625 18.265625 45.40625 27.984375 
z
M 54.390625 6.78125 
Q 54.390625 -7.171875 48.1875 -13.984375 
Q 42 -20.796875 29.203125 -20.796875 
Q 24.46875 -20.796875 20.265625 -20.09375 
Q 16.0625 -19.390625 12.109375 -17.921875 
L 12.109375 -9.1875 
Q 16.0625 -11.328125 19.921875 -12.34375 
Q 23.78125 -13.375 27.78125 -13.375 
Q 36.625 -13.375 41.015625 -8.765625 
Q 45.40625 -4.15625 45.40625 5.171875 
L 45.40625 9.625 
Q 42.625 4.78125 38.28125 2.390625 
Q 33.9375 0 27.875 0 
Q 17.828125 0 11.671875 7.65625 
Q 5.515625 15.328125 5.515625 27.984375 
Q 5.515625 40.671875 11.671875 48.328125 
Q 17.828125 56 27.875 56 
Q 33.9375 56 38.28125 53.609375 
Q 42.625 51.21875 45.40625 46.390625 
L 45.40625 54.6875 
L 54.390625 54.6875 
z
" id="DejaVuSans-103"/>
      <path d="M 34.28125 27.484375 
Q 23.390625 27.484375 19.1875 25 
Q 14.984375 22.515625 14.984375 16.5 
Q 14.984375 11.71875 18.140625 8.90625 
Q 21.296875 6.109375 26.703125 6.109375 
Q 34.1875 6.109375 38.703125 11.40625 
Q 43.21875 16.703125 43.21875 25.484375 
L 43.21875 27.484375 
z
M 52.203125 31.203125 
L 52.203125 0 
L 43.21875 0 
L 43.21875 8.296875 
Q 40.140625 3.328125 35.546875 0.953125 
Q 30.953125 -1.421875 24.3125 -1.421875 
Q 15.921875 -1.421875 10.953125 3.296875 
Q 6 8.015625 6 15.921875 
Q 6 25.140625 12.171875 29.828125 
Q 18.359375 34.515625 30.609375 34.515625 
L 43.21875 34.515625 
L 43.21875 35.40625 
Q 43.21875 41.609375 39.140625 45 
Q 35.0625 48.390625 27.6875 48.390625 
Q 23 48.390625 18.546875 47.265625 
Q 14.109375 46.140625 10.015625 43.890625 
L 10.015625 52.203125 
Q 14.9375 54.109375 19.578125 55.046875 
Q 24.21875 56 28.609375 56 
Q 40.484375 56 46.34375 49.84375 
Q 52.203125 43.703125 52.203125 31.203125 
z
" id="DejaVuSans-97"/>
      <path d="M 52 44.1875 
Q 55.375 50.25 60.0625 53.125 
Q 64.75 56 71.09375 56 
Q 79.640625 56 84.28125 50.015625 
Q 88.921875 44.046875 88.921875 33.015625 
L 88.921875 0 
L 79.890625 0 
L 79.890625 32.71875 
Q 79.890625 40.578125 77.09375 44.375 
Q 74.3125 48.1875 68.609375 48.1875 
Q 61.625 48.1875 57.5625 43.546875 
Q 53.515625 38.921875 53.515625 30.90625 
L 53.515625 0 
L 44.484375 0 
L 44.484375 32.71875 
Q 44.484375 40.625 41.703125 44.40625 
Q 38.921875 48.1875 33.109375 48.1875 
Q 26.21875 48.1875 22.15625 43.53125 
Q 18.109375 38.875 18.109375 30.90625 
L 18.109375 0 
L 9.078125 0 
L 9.078125 54.6875 
L 18.109375 54.6875 
L 18.109375 46.1875 
Q 21.1875 51.21875 25.484375 53.609375 
Q 29.78125 56 35.6875 56 
Q 41.65625 56 45.828125 52.96875 
Q 50 49.953125 52 44.1875 
z
" id="DejaVuSans-109"/>
      <path d="M 56.203125 29.59375 
L 56.203125 25.203125 
L 14.890625 25.203125 
Q 15.484375 15.921875 20.484375 11.0625 
Q 25.484375 6.203125 34.421875 6.203125 
Q 39.59375 6.203125 44.453125 7.46875 
Q 49.3125 8.734375 54.109375 11.28125 
L 54.109375 2.78125 
Q 49.265625 0.734375 44.1875 -0.34375 
Q 39.109375 -1.421875 33.890625 -1.421875 
Q 20.796875 -1.421875 13.15625 6.1875 
Q 5.515625 13.8125 5.515625 26.8125 
Q 5.515625 40.234375 12.765625 48.109375 
Q 20.015625 56 32.328125 56 
Q 43.359375 56 49.78125 48.890625 
Q 56.203125 41.796875 56.203125 29.59375 
z
M 47.21875 32.234375 
Q 47.125 39.59375 43.09375 43.984375 
Q 39.0625 48.390625 32.421875 48.390625 
Q 24.90625 48.390625 20.390625 44.140625 
Q 15.875 39.890625 15.1875 32.171875 
z
" id="DejaVuSans-101"/>
      <path d="M 44.28125 53.078125 
L 44.28125 44.578125 
Q 40.484375 46.53125 36.375 47.5 
Q 32.28125 48.484375 27.875 48.484375 
Q 21.1875 48.484375 17.84375 46.4375 
Q 14.5 44.390625 14.5 40.28125 
Q 14.5 37.15625 16.890625 35.375 
Q 19.28125 33.59375 26.515625 31.984375 
L 29.59375 31.296875 
Q 39.15625 29.25 43.1875 25.515625 
Q 47.21875 21.78125 47.21875 15.09375 
Q 47.21875 7.46875 41.1875 3.015625 
Q 35.15625 -1.421875 24.609375 -1.421875 
Q 20.21875 -1.421875 15.453125 -0.5625 
Q 10.6875 0.296875 5.421875 2 
L 5.421875 11.28125 
Q 10.40625 8.6875 15.234375 7.390625 
Q 20.0625 6.109375 24.8125 6.109375 
Q 31.15625 6.109375 34.5625 8.28125 
Q 37.984375 10.453125 37.984375 14.40625 
Q 37.984375 18.0625 35.515625 20.015625 
Q 33.0625 21.96875 24.703125 23.78125 
L 21.578125 24.515625 
Q 13.234375 26.265625 9.515625 29.90625 
Q 5.8125 33.546875 5.8125 39.890625 
Q 5.8125 47.609375 11.28125 51.796875 
Q 16.75 56 26.8125 56 
Q 31.78125 56 36.171875 55.265625 
Q 40.578125 54.546875 44.28125 53.078125 
z
" id="DejaVuSans-115"/>
     </defs>
     <g transform="translate(224.020504 414.912344)scale(0.25 -0.25)">
      <use xlink:href="#DejaVuSans-35"/>
      <use x="83.789062" xlink:href="#DejaVuSans-32"/>
      <use x="115.576172" xlink:href="#DejaVuSans-111"/>
      <use x="176.757812" xlink:href="#DejaVuSans-102"/>
      <use x="211.962891" xlink:href="#DejaVuSans-32"/>
      <use x="243.75" xlink:href="#DejaVuSans-103"/>
      <use x="307.226562" xlink:href="#DejaVuSans-97"/>
      <use x="368.505859" xlink:href="#DejaVuSans-109"/>
      <use x="465.917969" xlink:href="#DejaVuSans-101"/>
      <use x="527.441406" xlink:href="#DejaVuSans-115"/>
     </g>
    </g>
   </g>
   <g id="matplotlib.axis_2">
    <g id="ytick_1">
     <g id="line2d_7">
      <defs>
       <path d="M 0 0 
L -3.5 0 
" id="mc173cd0534" style="stroke:#000000;stroke-width:0.8;"/>
      </defs>
      <g>
       <use style="stroke:#000000;stroke-width:0.8;" x="63.74" xlink:href="#mc173cd0534" y="351.970909"/>
      </g>
     </g>
     <g id="text_8">
      <!-- 0 -->
      <g transform="translate(44.015 359.569347)scale(0.2 -0.2)">
       <use xlink:href="#DejaVuSans-48"/>
      </g>
     </g>
    </g>
    <g id="ytick_2">
     <g id="line2d_8">
      <g>
       <use style="stroke:#000000;stroke-width:0.8;" x="63.74" xlink:href="#mc173cd0534" y="297.614545"/>
      </g>
     </g>
     <g id="text_9">
      <!-- 10 -->
      <g transform="translate(31.29 305.212983)scale(0.2 -0.2)">
       <use xlink:href="#DejaVuSans-49"/>
       <use x="63.623047" xlink:href="#DejaVuSans-48"/>
      </g>
     </g>
    </g>
    <g id="ytick_3">
     <g id="line2d_9">
      <g>
       <use style="stroke:#000000;stroke-width:0.8;" x="63.74" xlink:href="#mc173cd0534" y="243.258182"/>
      </g>
     </g>
     <g id="text_10">
      <!-- 20 -->
      <g transform="translate(31.29 250.856619)scale(0.2 -0.2)">
       <use xlink:href="#DejaVuSans-50"/>
       <use x="63.623047" xlink:href="#DejaVuSans-48"/>
      </g>
     </g>
    </g>
    <g id="ytick_4">
     <g id="line2d_10">
      <g>
       <use style="stroke:#000000;stroke-width:0.8;" x="63.74" xlink:href="#mc173cd0534" y="188.901818"/>
      </g>
     </g>
     <g id="text_11">
      <!-- 30 -->
      <defs>
       <path d="M 40.578125 39.3125 
Q 47.65625 37.796875 51.625 33 
Q 55.609375 28.21875 55.609375 21.1875 
Q 55.609375 10.40625 48.1875 4.484375 
Q 40.765625 -1.421875 27.09375 -1.421875 
Q 22.515625 -1.421875 17.65625 -0.515625 
Q 12.796875 0.390625 7.625 2.203125 
L 7.625 11.71875 
Q 11.71875 9.328125 16.59375 8.109375 
Q 21.484375 6.890625 26.8125 6.890625 
Q 36.078125 6.890625 40.9375 10.546875 
Q 45.796875 14.203125 45.796875 21.1875 
Q 45.796875 27.640625 41.28125 31.265625 
Q 36.765625 34.90625 28.71875 34.90625 
L 20.21875 34.90625 
L 20.21875 43.015625 
L 29.109375 43.015625 
Q 36.375 43.015625 40.234375 45.921875 
Q 44.09375 48.828125 44.09375 54.296875 
Q 44.09375 59.90625 40.109375 62.90625 
Q 36.140625 65.921875 28.71875 65.921875 
Q 24.65625 65.921875 20.015625 65.03125 
Q 15.375 64.15625 9.8125 62.3125 
L 9.8125 71.09375 
Q 15.4375 72.65625 20.34375 73.4375 
Q 25.25 74.21875 29.59375 74.21875 
Q 40.828125 74.21875 47.359375 69.109375 
Q 53.90625 64.015625 53.90625 55.328125 
Q 53.90625 49.265625 50.4375 45.09375 
Q 46.96875 40.921875 40.578125 39.3125 
z
" id="DejaVuSans-51"/>
      </defs>
      <g transform="translate(31.29 196.500256)scale(0.2 -0.2)">
       <use xlink:href="#DejaVuSans-51"/>
       <use x="63.623047" xlink:href="#DejaVuSans-48"/>
      </g>
     </g>
    </g>
    <g id="ytick_5">
     <g id="line2d_11">
      <g>
       <use style="stroke:#000000;stroke-width:0.8;" x="63.74" xlink:href="#mc173cd0534" y="134.545455"/>
      </g>
     </g>
     <g id="text_12">
      <!-- 40 -->
      <defs>
       <path d="M 37.796875 64.3125 
L 12.890625 25.390625 
L 37.796875 25.390625 
z
M 35.203125 72.90625 
L 47.609375 72.90625 
L 47.609375 25.390625 
L 58.015625 25.390625 
L 58.015625 17.1875 
L 47.609375 17.1875 
L 47.609375 0 
L 37.796875 0 
L 37.796875 17.1875 
L 4.890625 17.1875 
L 4.890625 26.703125 
z
" id="DejaVuSans-52"/>
      </defs>
      <g transform="translate(31.29 142.143892)scale(0.2 -0.2)">
       <use xlink:href="#DejaVuSans-52"/>
       <use x="63.623047" xlink:href="#DejaVuSans-48"/>
      </g>
     </g>
    </g>
    <g id="ytick_6">
     <g id="line2d_12">
      <g>
       <use style="stroke:#000000;stroke-width:0.8;" x="63.74" xlink:href="#mc173cd0534" y="80.189091"/>
      </g>
     </g>
     <g id="text_13">
      <!-- 50 -->
      <g transform="translate(31.29 87.787528)scale(0.2 -0.2)">
       <use xlink:href="#DejaVuSans-53"/>
       <use x="63.623047" xlink:href="#DejaVuSans-48"/>
      </g>
     </g>
    </g>
    <g id="text_14">
     <!-- Number of Att strategy used -->
     <defs>
      <path d="M 9.8125 72.90625 
L 23.09375 72.90625 
L 55.421875 11.921875 
L 55.421875 72.90625 
L 64.984375 72.90625 
L 64.984375 0 
L 51.703125 0 
L 19.390625 60.984375 
L 19.390625 0 
L 9.8125 0 
z
" id="DejaVuSans-78"/>
      <path d="M 8.5 21.578125 
L 8.5 54.6875 
L 17.484375 54.6875 
L 17.484375 21.921875 
Q 17.484375 14.15625 20.5 10.265625 
Q 23.53125 6.390625 29.59375 6.390625 
Q 36.859375 6.390625 41.078125 11.03125 
Q 45.3125 15.671875 45.3125 23.6875 
L 45.3125 54.6875 
L 54.296875 54.6875 
L 54.296875 0 
L 45.3125 0 
L 45.3125 8.40625 
Q 42.046875 3.421875 37.71875 1 
Q 33.40625 -1.421875 27.6875 -1.421875 
Q 18.265625 -1.421875 13.375 4.4375 
Q 8.5 10.296875 8.5 21.578125 
z
M 31.109375 56 
z
" id="DejaVuSans-117"/>
      <path d="M 48.6875 27.296875 
Q 48.6875 37.203125 44.609375 42.84375 
Q 40.53125 48.484375 33.40625 48.484375 
Q 26.265625 48.484375 22.1875 42.84375 
Q 18.109375 37.203125 18.109375 27.296875 
Q 18.109375 17.390625 22.1875 11.75 
Q 26.265625 6.109375 33.40625 6.109375 
Q 40.53125 6.109375 44.609375 11.75 
Q 48.6875 17.390625 48.6875 27.296875 
z
M 18.109375 46.390625 
Q 20.953125 51.265625 25.265625 53.625 
Q 29.59375 56 35.59375 56 
Q 45.5625 56 51.78125 48.09375 
Q 58.015625 40.1875 58.015625 27.296875 
Q 58.015625 14.40625 51.78125 6.484375 
Q 45.5625 -1.421875 35.59375 -1.421875 
Q 29.59375 -1.421875 25.265625 0.953125 
Q 20.953125 3.328125 18.109375 8.203125 
L 18.109375 0 
L 9.078125 0 
L 9.078125 75.984375 
L 18.109375 75.984375 
z
" id="DejaVuSans-98"/>
      <path d="M 41.109375 46.296875 
Q 39.59375 47.171875 37.8125 47.578125 
Q 36.03125 48 33.890625 48 
Q 26.265625 48 22.1875 43.046875 
Q 18.109375 38.09375 18.109375 28.8125 
L 18.109375 0 
L 9.078125 0 
L 9.078125 54.6875 
L 18.109375 54.6875 
L 18.109375 46.1875 
Q 20.953125 51.171875 25.484375 53.578125 
Q 30.03125 56 36.53125 56 
Q 37.453125 56 38.578125 55.875 
Q 39.703125 55.765625 41.0625 55.515625 
z
" id="DejaVuSans-114"/>
      <path d="M 34.1875 63.1875 
L 20.796875 26.90625 
L 47.609375 26.90625 
z
M 28.609375 72.90625 
L 39.796875 72.90625 
L 67.578125 0 
L 57.328125 0 
L 50.6875 18.703125 
L 17.828125 18.703125 
L 11.1875 0 
L 0.78125 0 
z
" id="DejaVuSans-65"/>
      <path d="M 18.3125 70.21875 
L 18.3125 54.6875 
L 36.8125 54.6875 
L 36.8125 47.703125 
L 18.3125 47.703125 
L 18.3125 18.015625 
Q 18.3125 11.328125 20.140625 9.421875 
Q 21.96875 7.515625 27.59375 7.515625 
L 36.8125 7.515625 
L 36.8125 0 
L 27.59375 0 
Q 17.1875 0 13.234375 3.875 
Q 9.28125 7.765625 9.28125 18.015625 
L 9.28125 47.703125 
L 2.6875 47.703125 
L 2.6875 54.6875 
L 9.28125 54.6875 
L 9.28125 70.21875 
z
" id="DejaVuSans-116"/>
      <path d="M 32.171875 -5.078125 
Q 28.375 -14.84375 24.75 -17.8125 
Q 21.140625 -20.796875 15.09375 -20.796875 
L 7.90625 -20.796875 
L 7.90625 -13.28125 
L 13.1875 -13.28125 
Q 16.890625 -13.28125 18.9375 -11.515625 
Q 21 -9.765625 23.484375 -3.21875 
L 25.09375 0.875 
L 2.984375 54.6875 
L 12.5 54.6875 
L 29.59375 11.921875 
L 46.6875 54.6875 
L 56.203125 54.6875 
z
" id="DejaVuSans-121"/>
      <path d="M 45.40625 46.390625 
L 45.40625 75.984375 
L 54.390625 75.984375 
L 54.390625 0 
L 45.40625 0 
L 45.40625 8.203125 
Q 42.578125 3.328125 38.25 0.953125 
Q 33.9375 -1.421875 27.875 -1.421875 
Q 17.96875 -1.421875 11.734375 6.484375 
Q 5.515625 14.40625 5.515625 27.296875 
Q 5.515625 40.1875 11.734375 48.09375 
Q 17.96875 56 27.875 56 
Q 33.9375 56 38.25 53.625 
Q 42.578125 51.265625 45.40625 46.390625 
z
M 14.796875 27.296875 
Q 14.796875 17.390625 18.875 11.75 
Q 22.953125 6.109375 30.078125 6.109375 
Q 37.203125 6.109375 41.296875 11.75 
Q 45.40625 17.390625 45.40625 27.296875 
Q 45.40625 37.203125 41.296875 42.84375 
Q 37.203125 48.484375 30.078125 48.484375 
Q 22.953125 48.484375 18.875 42.84375 
Q 14.796875 37.203125 14.796875 27.296875 
z
" id="DejaVuSans-100"/>
     </defs>
     <g transform="translate(23.823854 335.214115)rotate(-90)scale(0.166667 -0.166667)">
      <use xlink:href="#DejaVuSans-78"/>
      <use x="74.804688" xlink:href="#DejaVuSans-117"/>
      <use x="138.183594" xlink:href="#DejaVuSans-109"/>
      <use x="235.595703" xlink:href="#DejaVuSans-98"/>
      <use x="299.072266" xlink:href="#DejaVuSans-101"/>
      <use x="360.595703" xlink:href="#DejaVuSans-114"/>
      <use x="401.708984" xlink:href="#DejaVuSans-32"/>
      <use x="433.496094" xlink:href="#DejaVuSans-111"/>
      <use x="494.677734" xlink:href="#DejaVuSans-102"/>
      <use x="529.882812" xlink:href="#DejaVuSans-32"/>
      <use x="561.669922" xlink:href="#DejaVuSans-65"/>
      <use x="630.0625" xlink:href="#DejaVuSans-116"/>
      <use x="669.271484" xlink:href="#DejaVuSans-116"/>
      <use x="708.480469" xlink:href="#DejaVuSans-32"/>
      <use x="740.267578" xlink:href="#DejaVuSans-115"/>
      <use x="792.367188" xlink:href="#DejaVuSans-116"/>
      <use x="831.576172" xlink:href="#DejaVuSans-114"/>
      <use x="872.689453" xlink:href="#DejaVuSans-97"/>
      <use x="933.96875" xlink:href="#DejaVuSans-116"/>
      <use x="973.177734" xlink:href="#DejaVuSans-101"/>
      <use x="1034.701172" xlink:href="#DejaVuSans-103"/>
      <use x="1098.177734" xlink:href="#DejaVuSans-121"/>
      <use x="1157.357422" xlink:href="#DejaVuSans-32"/>
      <use x="1189.144531" xlink:href="#DejaVuSans-117"/>
      <use x="1252.523438" xlink:href="#DejaVuSans-115"/>
      <use x="1304.623047" xlink:href="#DejaVuSans-101"/>
      <use x="1366.146484" xlink:href="#DejaVuSans-100"/>
     </g>
    </g>
   </g>
   <g id="line2d_13">
    <path clip-path="url(#p36ad9264fd)" d="M 84.896715 80.189091 
L 86.589252 85.624727 
L 88.281789 134.545455 
L 89.974326 156.288 
L 91.666864 172.594909 
L 93.359401 210.644364 
L 95.051938 205.208727 
L 96.744475 188.901818 
L 100.12955 265.000727 
L 101.822087 275.872 
L 103.514624 232.386909 
L 105.207161 248.693818 
L 106.899698 254.129455 
L 108.592236 270.436364 
L 110.284773 254.129455 
L 111.97731 292.178909 
L 113.669847 243.258182 
L 115.362384 259.565091 
L 117.054921 292.178909 
L 118.747459 265.000727 
L 120.439996 281.307636 
L 123.82507 281.307636 
L 125.517607 254.129455 
L 127.210145 297.614545 
L 128.902682 275.872 
L 130.595219 265.000727 
L 132.287756 275.872 
L 133.980293 265.000727 
L 135.672831 297.614545 
L 137.365368 270.436364 
L 140.750442 292.178909 
L 142.442979 232.386909 
L 144.135517 248.693818 
L 145.828054 248.693818 
L 147.520591 281.307636 
L 149.213128 237.822545 
L 150.905665 254.129455 
L 152.598202 297.614545 
L 154.29074 292.178909 
L 155.983277 308.485818 
L 157.675814 308.485818 
L 159.368351 275.872 
L 161.060888 286.743273 
L 164.445963 286.743273 
L 166.1385 281.307636 
L 167.831037 292.178909 
L 169.523574 292.178909 
L 171.216112 281.307636 
L 172.908649 297.614545 
L 174.601186 303.050182 
L 176.293723 324.792727 
L 177.98626 303.050182 
L 179.678798 303.050182 
L 181.371335 292.178909 
L 183.063872 286.743273 
L 184.756409 297.614545 
L 186.448946 313.921455 
L 188.141483 303.050182 
L 189.834021 281.307636 
L 191.526558 297.614545 
L 193.219095 308.485818 
L 194.911632 313.921455 
L 196.604169 308.485818 
L 198.296707 313.921455 
L 199.989244 303.050182 
L 203.374318 303.050182 
L 205.066855 292.178909 
L 206.759393 303.050182 
L 208.45193 275.872 
L 210.144467 275.872 
L 211.837004 286.743273 
L 213.529541 308.485818 
L 216.914616 308.485818 
L 218.607153 319.357091 
L 220.29969 313.921455 
L 221.992227 313.921455 
L 223.684764 308.485818 
L 225.377302 308.485818 
L 227.069839 319.357091 
L 228.762376 313.921455 
L 230.454913 330.228364 
L 232.14745 335.664 
L 233.839988 335.664 
L 235.532525 330.228364 
L 237.225062 335.664 
L 238.917599 319.357091 
L 240.610136 319.357091 
L 242.302674 335.664 
L 243.995211 330.228364 
L 245.687748 330.228364 
L 247.380285 341.099636 
L 249.072822 341.099636 
L 250.76536 335.664 
L 252.457897 319.357091 
L 254.150434 330.228364 
L 255.842971 324.792727 
L 257.535508 330.228364 
L 259.228045 324.792727 
L 260.920583 330.228364 
L 262.61312 341.099636 
L 264.305657 324.792727 
L 265.998194 330.228364 
L 267.690731 341.099636 
L 269.383269 335.664 
L 271.075806 341.099636 
L 272.768343 324.792727 
L 274.46088 335.664 
L 276.153417 330.228364 
L 277.845955 346.535273 
L 279.538492 341.099636 
L 281.231029 351.970909 
L 282.923566 335.664 
L 284.616103 346.535273 
L 286.30864 346.535273 
L 288.001178 341.099636 
L 289.693715 330.228364 
L 291.386252 335.664 
L 293.078789 335.664 
L 294.771326 341.099636 
L 296.463864 335.664 
L 298.156401 324.792727 
L 299.848938 335.664 
L 301.541475 335.664 
L 303.234012 341.099636 
L 304.92655 335.664 
L 308.311624 346.535273 
L 310.004161 341.099636 
L 313.389236 341.099636 
L 315.081773 351.970909 
L 316.77431 341.099636 
L 318.466847 341.099636 
L 320.159384 351.970909 
L 321.851921 346.535273 
L 323.544459 335.664 
L 326.929533 335.664 
L 328.62207 346.535273 
L 332.007145 335.664 
L 333.699682 346.535273 
L 335.392219 351.970909 
L 337.084756 341.099636 
L 338.777293 346.535273 
L 340.469831 346.535273 
L 342.162368 335.664 
L 343.854905 341.099636 
L 345.547442 335.664 
L 347.239979 341.099636 
L 348.932517 341.099636 
L 350.625054 346.535273 
L 352.317591 335.664 
L 354.010128 341.099636 
L 355.702665 341.099636 
L 357.395202 346.535273 
L 359.08774 341.099636 
L 360.780277 346.535273 
L 362.472814 341.099636 
L 364.165351 346.535273 
L 365.857888 341.099636 
L 367.550426 341.099636 
L 369.242963 335.664 
L 374.320574 351.970909 
L 376.013112 341.099636 
L 377.705649 335.664 
L 379.398186 346.535273 
L 381.090723 346.535273 
L 382.78326 341.099636 
L 384.475798 346.535273 
L 389.553409 346.535273 
L 391.245946 335.664 
L 392.938483 346.535273 
L 394.631021 341.099636 
L 398.016095 351.970909 
L 399.708632 341.099636 
L 401.401169 346.535273 
L 403.093707 341.099636 
L 404.786244 346.535273 
L 409.863855 346.535273 
L 413.24893 335.664 
L 414.941467 335.664 
L 416.634004 341.099636 
L 418.326541 341.099636 
L 421.711616 351.970909 
L 423.404153 346.535273 
L 425.09669 351.970909 
L 426.789227 341.099636 
L 428.481764 335.664 
L 430.174302 346.535273 
L 431.866839 341.099636 
L 433.559376 346.535273 
L 436.94445 346.535273 
L 438.636988 341.099636 
L 442.022062 341.099636 
L 445.407136 351.970909 
L 447.099674 351.970909 
L 448.792211 335.664 
L 450.484748 341.099636 
L 452.177285 335.664 
L 453.869822 346.535273 
L 455.56236 335.664 
L 457.254897 346.535273 
L 458.947434 341.099636 
L 460.639971 351.970909 
L 464.025045 341.099636 
L 465.717583 346.535273 
L 467.41012 341.099636 
L 469.102657 341.099636 
L 470.795194 335.664 
L 472.487731 351.970909 
L 474.180269 346.535273 
L 475.872806 351.970909 
L 477.565343 346.535273 
L 480.950417 346.535273 
L 482.642955 341.099636 
L 484.335492 351.970909 
L 486.028029 351.970909 
L 487.720566 346.535273 
L 489.413103 351.970909 
L 491.10564 346.535273 
L 492.798178 351.970909 
L 497.875789 351.970909 
L 499.568326 346.535273 
L 502.953401 346.535273 
L 504.645938 351.970909 
L 508.031012 351.970909 
L 508.031012 351.970909 
" style="fill:none;stroke:#1f77b4;stroke-linecap:square;stroke-width:1.5;"/>
   </g>
   <g id="line2d_14">
    <path clip-path="url(#p36ad9264fd)" d="M 84.896715 351.970909 
L 86.589252 346.535273 
L 88.281789 303.050182 
L 89.974326 286.743273 
L 91.666864 275.872 
L 93.359401 275.872 
L 95.051938 281.307636 
L 96.744475 303.050182 
L 98.437012 281.307636 
L 100.12955 265.000727 
L 101.822087 292.178909 
L 103.514624 303.050182 
L 106.899698 313.921455 
L 108.592236 308.485818 
L 110.284773 313.921455 
L 111.97731 324.792727 
L 113.669847 313.921455 
L 115.362384 308.485818 
L 117.054921 319.357091 
L 118.747459 335.664 
L 120.439996 313.921455 
L 122.132533 341.099636 
L 123.82507 324.792727 
L 125.517607 335.664 
L 127.210145 303.050182 
L 128.902682 324.792727 
L 130.595219 319.357091 
L 135.672831 335.664 
L 137.365368 330.228364 
L 139.057905 330.228364 
L 140.750442 313.921455 
L 142.442979 346.535273 
L 144.135517 346.535273 
L 145.828054 330.228364 
L 147.520591 324.792727 
L 149.213128 351.970909 
L 150.905665 335.664 
L 152.598202 324.792727 
L 154.29074 319.357091 
L 157.675814 330.228364 
L 159.368351 330.228364 
L 161.060888 319.357091 
L 162.753426 330.228364 
L 164.445963 346.535273 
L 166.1385 335.664 
L 167.831037 319.357091 
L 169.523574 335.664 
L 171.216112 341.099636 
L 172.908649 341.099636 
L 174.601186 330.228364 
L 176.293723 324.792727 
L 177.98626 346.535273 
L 179.678798 346.535273 
L 181.371335 335.664 
L 183.063872 335.664 
L 186.448946 346.535273 
L 188.141483 341.099636 
L 189.834021 341.099636 
L 191.526558 335.664 
L 193.219095 346.535273 
L 194.911632 335.664 
L 196.604169 341.099636 
L 198.296707 335.664 
L 201.681781 346.535273 
L 203.374318 346.535273 
L 205.066855 351.970909 
L 206.759393 341.099636 
L 208.45193 351.970909 
L 210.144467 351.970909 
L 211.837004 335.664 
L 213.529541 335.664 
L 216.914616 346.535273 
L 218.607153 341.099636 
L 220.29969 341.099636 
L 221.992227 346.535273 
L 225.377302 335.664 
L 228.762376 346.535273 
L 230.454913 330.228364 
L 232.14745 341.099636 
L 233.839988 346.535273 
L 235.532525 335.664 
L 238.917599 346.535273 
L 240.610136 346.535273 
L 242.302674 351.970909 
L 243.995211 346.535273 
L 245.687748 351.970909 
L 252.457897 351.970909 
L 254.150434 341.099636 
L 257.535508 351.970909 
L 259.228045 351.970909 
L 260.920583 346.535273 
L 262.61312 346.535273 
L 264.305657 351.970909 
L 267.690731 351.970909 
L 269.383269 346.535273 
L 271.075806 346.535273 
L 272.768343 351.970909 
L 276.153417 351.970909 
L 277.845955 330.228364 
L 279.538492 346.535273 
L 281.231029 346.535273 
L 282.923566 351.970909 
L 284.616103 351.970909 
L 286.30864 346.535273 
L 288.001178 346.535273 
L 289.693715 351.970909 
L 293.078789 351.970909 
L 294.771326 346.535273 
L 296.463864 351.970909 
L 299.848938 351.970909 
L 303.234012 341.099636 
L 304.92655 351.970909 
L 306.619087 351.970909 
L 308.311624 346.535273 
L 310.004161 351.970909 
L 313.389236 351.970909 
L 315.081773 346.535273 
L 316.77431 351.970909 
L 318.466847 351.970909 
L 320.159384 346.535273 
L 321.851921 351.970909 
L 325.236996 351.970909 
L 326.929533 346.535273 
L 328.62207 351.970909 
L 332.007145 351.970909 
L 335.392219 341.099636 
L 337.084756 351.970909 
L 338.777293 346.535273 
L 340.469831 346.535273 
L 342.162368 351.970909 
L 348.932517 351.970909 
L 350.625054 346.535273 
L 352.317591 351.970909 
L 354.010128 346.535273 
L 355.702665 351.970909 
L 357.395202 346.535273 
L 360.780277 346.535273 
L 362.472814 351.970909 
L 364.165351 346.535273 
L 365.857888 351.970909 
L 367.550426 346.535273 
L 369.242963 351.970909 
L 370.9355 351.970909 
L 374.320574 341.099636 
L 376.013112 351.970909 
L 377.705649 351.970909 
L 379.398186 346.535273 
L 381.090723 346.535273 
L 382.78326 351.970909 
L 384.475798 346.535273 
L 386.168335 351.970909 
L 394.631021 351.970909 
L 396.323558 341.099636 
L 398.016095 341.099636 
L 399.708632 351.970909 
L 401.401169 351.970909 
L 403.093707 346.535273 
L 404.786244 346.535273 
L 406.478781 351.970909 
L 416.634004 351.970909 
L 418.326541 346.535273 
L 420.019079 351.970909 
L 421.711616 346.535273 
L 423.404153 346.535273 
L 425.09669 341.099636 
L 426.789227 351.970909 
L 433.559376 351.970909 
L 435.251913 346.535273 
L 436.94445 351.970909 
L 443.714599 351.970909 
L 445.407136 346.535273 
L 447.099674 346.535273 
L 448.792211 351.970909 
L 450.484748 346.535273 
L 452.177285 351.970909 
L 453.869822 341.099636 
L 455.56236 351.970909 
L 457.254897 346.535273 
L 458.947434 346.535273 
L 460.639971 341.099636 
L 464.025045 351.970909 
L 465.717583 341.099636 
L 467.41012 351.970909 
L 470.795194 351.970909 
L 472.487731 341.099636 
L 474.180269 351.970909 
L 475.872806 346.535273 
L 477.565343 346.535273 
L 479.25788 351.970909 
L 482.642955 351.970909 
L 484.335492 346.535273 
L 486.028029 351.970909 
L 508.031012 351.970909 
L 508.031012 351.970909 
" style="fill:none;stroke:#ff7f0e;stroke-linecap:square;stroke-width:1.5;"/>
   </g>
   <g id="line2d_15">
    <path clip-path="url(#p36ad9264fd)" d="M 84.896715 351.970909 
L 86.589252 351.970909 
L 88.281789 346.535273 
L 89.974326 346.535273 
L 91.666864 351.970909 
L 93.359401 335.664 
L 95.051938 346.535273 
L 98.437012 335.664 
L 100.12955 335.664 
L 101.822087 313.921455 
L 103.514624 335.664 
L 105.207161 324.792727 
L 106.899698 335.664 
L 108.592236 341.099636 
L 110.284773 341.099636 
L 111.97731 330.228364 
L 113.669847 341.099636 
L 115.362384 346.535273 
L 117.054921 335.664 
L 118.747459 335.664 
L 120.439996 341.099636 
L 122.132533 324.792727 
L 123.82507 346.535273 
L 125.517607 330.228364 
L 127.210145 346.535273 
L 128.902682 341.099636 
L 130.595219 346.535273 
L 132.287756 346.535273 
L 133.980293 341.099636 
L 135.672831 341.099636 
L 137.365368 346.535273 
L 139.057905 341.099636 
L 140.750442 346.535273 
L 142.442979 346.535273 
L 144.135517 341.099636 
L 145.828054 346.535273 
L 152.598202 346.535273 
L 154.29074 351.970909 
L 155.983277 335.664 
L 157.675814 335.664 
L 159.368351 351.970909 
L 161.060888 341.099636 
L 164.445963 351.970909 
L 166.1385 335.664 
L 167.831037 346.535273 
L 169.523574 346.535273 
L 171.216112 351.970909 
L 172.908649 341.099636 
L 176.293723 341.099636 
L 177.98626 346.535273 
L 179.678798 341.099636 
L 181.371335 346.535273 
L 183.063872 346.535273 
L 184.756409 341.099636 
L 186.448946 351.970909 
L 188.141483 346.535273 
L 189.834021 351.970909 
L 191.526558 335.664 
L 193.219095 351.970909 
L 194.911632 346.535273 
L 196.604169 330.228364 
L 198.296707 341.099636 
L 205.066855 341.099636 
L 206.759393 351.970909 
L 208.45193 346.535273 
L 210.144467 351.970909 
L 211.837004 341.099636 
L 213.529541 351.970909 
L 215.222079 335.664 
L 216.914616 346.535273 
L 218.607153 351.970909 
L 220.29969 351.970909 
L 221.992227 346.535273 
L 225.377302 346.535273 
L 227.069839 351.970909 
L 228.762376 346.535273 
L 232.14745 346.535273 
L 233.839988 351.970909 
L 243.995211 351.970909 
L 245.687748 346.535273 
L 247.380285 346.535273 
L 249.072822 341.099636 
L 250.76536 351.970909 
L 260.920583 351.970909 
L 262.61312 346.535273 
L 264.305657 351.970909 
L 265.998194 351.970909 
L 267.690731 346.535273 
L 269.383269 351.970909 
L 271.075806 351.970909 
L 272.768343 346.535273 
L 274.46088 351.970909 
L 288.001178 351.970909 
L 289.693715 346.535273 
L 291.386252 346.535273 
L 293.078789 351.970909 
L 301.541475 351.970909 
L 303.234012 346.535273 
L 304.92655 351.970909 
L 306.619087 341.099636 
L 308.311624 351.970909 
L 310.004161 351.970909 
L 311.696698 341.099636 
L 313.389236 351.970909 
L 315.081773 341.099636 
L 316.77431 351.970909 
L 326.929533 351.970909 
L 328.62207 346.535273 
L 330.314607 346.535273 
L 332.007145 351.970909 
L 333.699682 346.535273 
L 335.392219 351.970909 
L 345.547442 351.970909 
L 347.239979 346.535273 
L 348.932517 351.970909 
L 384.475798 351.970909 
L 386.168335 346.535273 
L 387.860872 351.970909 
L 418.326541 351.970909 
L 420.019079 346.535273 
L 421.711616 351.970909 
L 442.022062 351.970909 
L 443.714599 346.535273 
L 445.407136 351.970909 
L 462.332508 351.970909 
L 464.025045 346.535273 
L 465.717583 351.970909 
L 494.490715 351.970909 
L 496.183252 346.535273 
L 497.875789 351.970909 
L 508.031012 351.970909 
L 508.031012 351.970909 
" style="fill:none;stroke:#2ca02c;stroke-linecap:square;stroke-width:1.5;"/>
   </g>
   <g id="line2d_16">
    <path clip-path="url(#p36ad9264fd)" d="M 84.896715 351.970909 
L 89.974326 351.970909 
L 91.666864 346.535273 
L 93.359401 351.970909 
L 95.051938 335.664 
L 96.744475 341.099636 
L 100.12955 330.228364 
L 101.822087 351.970909 
L 103.514624 341.099636 
L 105.207161 341.099636 
L 106.899698 319.357091 
L 108.592236 335.664 
L 113.669847 335.664 
L 117.054921 324.792727 
L 118.747459 330.228364 
L 120.439996 346.535273 
L 122.132533 330.228364 
L 125.517607 351.970909 
L 127.210145 324.792727 
L 128.902682 330.228364 
L 130.595219 341.099636 
L 132.287756 341.099636 
L 133.980293 351.970909 
L 135.672831 319.357091 
L 137.365368 346.535273 
L 139.057905 346.535273 
L 140.750442 351.970909 
L 142.442979 341.099636 
L 144.135517 351.970909 
L 145.828054 341.099636 
L 147.520591 346.535273 
L 149.213128 346.535273 
L 150.905665 341.099636 
L 152.598202 341.099636 
L 154.29074 351.970909 
L 155.983277 335.664 
L 157.675814 330.228364 
L 159.368351 341.099636 
L 162.753426 351.970909 
L 164.445963 351.970909 
L 166.1385 346.535273 
L 169.523574 346.535273 
L 171.216112 341.099636 
L 172.908649 351.970909 
L 174.601186 346.535273 
L 176.293723 335.664 
L 177.98626 341.099636 
L 179.678798 341.099636 
L 181.371335 346.535273 
L 188.141483 346.535273 
L 189.834021 341.099636 
L 191.526558 341.099636 
L 193.219095 346.535273 
L 194.911632 335.664 
L 196.604169 351.970909 
L 198.296707 351.970909 
L 199.989244 341.099636 
L 201.681781 346.535273 
L 203.374318 341.099636 
L 206.759393 351.970909 
L 208.45193 346.535273 
L 210.144467 351.970909 
L 213.529541 351.970909 
L 215.222079 346.535273 
L 216.914616 335.664 
L 218.607153 351.970909 
L 220.29969 341.099636 
L 223.684764 351.970909 
L 225.377302 346.535273 
L 227.069839 346.535273 
L 228.762376 351.970909 
L 230.454913 346.535273 
L 232.14745 346.535273 
L 233.839988 335.664 
L 237.225062 346.535273 
L 238.917599 346.535273 
L 240.610136 351.970909 
L 242.302674 351.970909 
L 243.995211 346.535273 
L 245.687748 351.970909 
L 254.150434 351.970909 
L 255.842971 346.535273 
L 259.228045 346.535273 
L 260.920583 351.970909 
L 262.61312 351.970909 
L 264.305657 346.535273 
L 265.998194 346.535273 
L 267.690731 351.970909 
L 269.383269 346.535273 
L 271.075806 351.970909 
L 277.845955 351.970909 
L 279.538492 346.535273 
L 281.231029 351.970909 
L 282.923566 351.970909 
L 284.616103 341.099636 
L 286.30864 346.535273 
L 288.001178 346.535273 
L 289.693715 351.970909 
L 293.078789 351.970909 
L 294.771326 346.535273 
L 296.463864 351.970909 
L 303.234012 351.970909 
L 304.92655 341.099636 
L 306.619087 351.970909 
L 315.081773 351.970909 
L 316.77431 346.535273 
L 320.159384 346.535273 
L 321.851921 351.970909 
L 337.084756 351.970909 
L 338.777293 346.535273 
L 340.469831 351.970909 
L 342.162368 346.535273 
L 343.854905 346.535273 
L 345.547442 351.970909 
L 348.932517 351.970909 
L 350.625054 346.535273 
L 352.317591 351.970909 
L 374.320574 351.970909 
L 376.013112 346.535273 
L 377.705649 351.970909 
L 387.860872 351.970909 
L 389.553409 346.535273 
L 391.245946 351.970909 
L 403.093707 351.970909 
L 404.786244 346.535273 
L 406.478781 351.970909 
L 408.171318 346.535273 
L 409.863855 351.970909 
L 420.019079 351.970909 
L 421.711616 346.535273 
L 423.404153 351.970909 
L 460.639971 351.970909 
L 462.332508 346.535273 
L 464.025045 351.970909 
L 487.720566 351.970909 
L 489.413103 346.535273 
L 491.10564 351.970909 
L 508.031012 351.970909 
L 508.031012 351.970909 
" style="fill:none;stroke:#d62728;stroke-linecap:square;stroke-width:1.5;"/>
   </g>
   <g id="line2d_17">
    <path clip-path="url(#p36ad9264fd)" d="M 84.896715 351.970909 
L 91.666864 351.970909 
L 93.359401 341.099636 
L 95.051938 324.792727 
L 96.744475 341.099636 
L 98.437012 341.099636 
L 100.12955 313.921455 
L 101.822087 308.485818 
L 103.514624 313.921455 
L 105.207161 324.792727 
L 106.899698 303.050182 
L 108.592236 308.485818 
L 110.284773 324.792727 
L 111.97731 297.614545 
L 113.669847 319.357091 
L 115.362384 303.050182 
L 117.054921 303.050182 
L 118.747459 324.792727 
L 120.439996 303.050182 
L 122.132533 303.050182 
L 123.82507 275.872 
L 125.517607 319.357091 
L 127.210145 292.178909 
L 128.902682 330.228364 
L 130.595219 303.050182 
L 132.287756 281.307636 
L 133.980293 275.872 
L 135.672831 297.614545 
L 137.365368 275.872 
L 139.057905 281.307636 
L 140.750442 319.357091 
L 142.442979 319.357091 
L 144.135517 324.792727 
L 147.520591 313.921455 
L 149.213128 319.357091 
L 150.905665 319.357091 
L 152.598202 313.921455 
L 154.29074 313.921455 
L 155.983277 303.050182 
L 157.675814 319.357091 
L 159.368351 330.228364 
L 161.060888 308.485818 
L 162.753426 341.099636 
L 164.445963 297.614545 
L 166.1385 319.357091 
L 167.831037 319.357091 
L 169.523574 324.792727 
L 171.216112 308.485818 
L 172.908649 319.357091 
L 174.601186 313.921455 
L 176.293723 313.921455 
L 177.98626 319.357091 
L 179.678798 303.050182 
L 183.063872 324.792727 
L 184.756409 319.357091 
L 186.448946 308.485818 
L 188.141483 313.921455 
L 189.834021 308.485818 
L 191.526558 324.792727 
L 193.219095 286.743273 
L 194.911632 324.792727 
L 196.604169 319.357091 
L 198.296707 330.228364 
L 199.989244 324.792727 
L 201.681781 324.792727 
L 203.374318 308.485818 
L 205.066855 341.099636 
L 208.45193 341.099636 
L 210.144467 324.792727 
L 211.837004 335.664 
L 213.529541 335.664 
L 215.222079 346.535273 
L 216.914616 319.357091 
L 218.607153 324.792727 
L 220.29969 335.664 
L 221.992227 335.664 
L 223.684764 341.099636 
L 225.377302 341.099636 
L 227.069839 330.228364 
L 228.762376 341.099636 
L 230.454913 335.664 
L 232.14745 324.792727 
L 235.532525 335.664 
L 237.225062 308.485818 
L 238.917599 330.228364 
L 242.302674 341.099636 
L 243.995211 341.099636 
L 245.687748 346.535273 
L 247.380285 335.664 
L 249.072822 341.099636 
L 250.76536 335.664 
L 252.457897 346.535273 
L 259.228045 346.535273 
L 260.920583 351.970909 
L 262.61312 341.099636 
L 264.305657 346.535273 
L 265.998194 341.099636 
L 269.383269 341.099636 
L 271.075806 351.970909 
L 274.46088 351.970909 
L 276.153417 346.535273 
L 277.845955 351.970909 
L 279.538492 351.970909 
L 281.231029 341.099636 
L 282.923566 341.099636 
L 284.616103 335.664 
L 289.693715 351.970909 
L 291.386252 351.970909 
L 293.078789 346.535273 
L 296.463864 346.535273 
L 298.156401 351.970909 
L 299.848938 346.535273 
L 301.541475 351.970909 
L 304.92655 351.970909 
L 308.311624 341.099636 
L 310.004161 341.099636 
L 311.696698 351.970909 
L 313.389236 341.099636 
L 315.081773 341.099636 
L 318.466847 351.970909 
L 321.851921 341.099636 
L 323.544459 351.970909 
L 325.236996 346.535273 
L 326.929533 351.970909 
L 328.62207 351.970909 
L 330.314607 341.099636 
L 332.007145 351.970909 
L 333.699682 346.535273 
L 335.392219 351.970909 
L 337.084756 341.099636 
L 340.469831 341.099636 
L 342.162368 351.970909 
L 343.854905 346.535273 
L 345.547442 346.535273 
L 347.239979 341.099636 
L 348.932517 341.099636 
L 350.625054 351.970909 
L 352.317591 346.535273 
L 355.702665 346.535273 
L 357.395202 351.970909 
L 359.08774 351.970909 
L 360.780277 346.535273 
L 362.472814 351.970909 
L 364.165351 346.535273 
L 365.857888 351.970909 
L 369.242963 351.970909 
L 370.9355 346.535273 
L 374.320574 346.535273 
L 376.013112 351.970909 
L 377.705649 351.970909 
L 379.398186 346.535273 
L 381.090723 346.535273 
L 382.78326 351.970909 
L 384.475798 351.970909 
L 386.168335 346.535273 
L 387.860872 351.970909 
L 389.553409 346.535273 
L 391.245946 351.970909 
L 392.938483 341.099636 
L 396.323558 351.970909 
L 398.016095 346.535273 
L 399.708632 351.970909 
L 401.401169 346.535273 
L 403.093707 351.970909 
L 404.786244 351.970909 
L 406.478781 341.099636 
L 408.171318 346.535273 
L 411.556393 346.535273 
L 413.24893 351.970909 
L 418.326541 351.970909 
L 420.019079 346.535273 
L 421.711616 351.970909 
L 423.404153 351.970909 
L 425.09669 346.535273 
L 426.789227 351.970909 
L 431.866839 351.970909 
L 433.559376 341.099636 
L 435.251913 346.535273 
L 436.94445 341.099636 
L 440.329525 351.970909 
L 443.714599 351.970909 
L 445.407136 341.099636 
L 447.099674 351.970909 
L 455.56236 351.970909 
L 457.254897 346.535273 
L 458.947434 351.970909 
L 460.639971 346.535273 
L 462.332508 351.970909 
L 467.41012 351.970909 
L 469.102657 346.535273 
L 470.795194 351.970909 
L 472.487731 346.535273 
L 474.180269 346.535273 
L 475.872806 351.970909 
L 479.25788 351.970909 
L 480.950417 346.535273 
L 482.642955 351.970909 
L 491.10564 351.970909 
L 492.798178 346.535273 
L 494.490715 346.535273 
L 496.183252 351.970909 
L 497.875789 346.535273 
L 499.568326 351.970909 
L 502.953401 351.970909 
L 504.645938 346.535273 
L 506.338475 351.970909 
L 508.031012 346.535273 
L 508.031012 346.535273 
" style="fill:none;stroke:#9467bd;stroke-linecap:square;stroke-width:1.5;"/>
   </g>
   <g id="line2d_18">
    <path clip-path="url(#p36ad9264fd)" d="M 84.896715 351.970909 
L 96.744475 351.970909 
L 98.437012 346.535273 
L 101.822087 346.535273 
L 103.514624 341.099636 
L 105.207161 341.099636 
L 106.899698 351.970909 
L 108.592236 346.535273 
L 110.284773 330.228364 
L 111.97731 335.664 
L 113.669847 346.535273 
L 115.362384 330.228364 
L 117.054921 330.228364 
L 118.747459 319.357091 
L 120.439996 330.228364 
L 122.132533 346.535273 
L 123.82507 346.535273 
L 125.517607 335.664 
L 127.210145 341.099636 
L 128.902682 330.228364 
L 130.595219 341.099636 
L 132.287756 335.664 
L 133.980293 346.535273 
L 135.672831 346.535273 
L 137.365368 341.099636 
L 139.057905 341.099636 
L 140.750442 346.535273 
L 142.442979 341.099636 
L 145.828054 351.970909 
L 147.520591 346.535273 
L 150.905665 346.535273 
L 152.598202 330.228364 
L 154.29074 335.664 
L 155.983277 351.970909 
L 157.675814 346.535273 
L 159.368351 351.970909 
L 161.060888 346.535273 
L 162.753426 335.664 
L 166.1385 346.535273 
L 167.831037 346.535273 
L 169.523574 330.228364 
L 171.216112 346.535273 
L 172.908649 341.099636 
L 174.601186 351.970909 
L 176.293723 341.099636 
L 177.98626 341.099636 
L 179.678798 346.535273 
L 181.371335 346.535273 
L 183.063872 341.099636 
L 184.756409 346.535273 
L 186.448946 341.099636 
L 188.141483 341.099636 
L 189.834021 351.970909 
L 191.526558 346.535273 
L 193.219095 351.970909 
L 196.604169 351.970909 
L 198.296707 346.535273 
L 199.989244 351.970909 
L 203.374318 351.970909 
L 205.066855 341.099636 
L 206.759393 351.970909 
L 208.45193 341.099636 
L 210.144467 351.970909 
L 213.529541 351.970909 
L 215.222079 341.099636 
L 218.607153 351.970909 
L 220.29969 341.099636 
L 223.684764 351.970909 
L 225.377302 351.970909 
L 227.069839 335.664 
L 228.762376 341.099636 
L 230.454913 351.970909 
L 232.14745 351.970909 
L 233.839988 346.535273 
L 235.532525 346.535273 
L 237.225062 351.970909 
L 238.917599 351.970909 
L 240.610136 346.535273 
L 242.302674 346.535273 
L 243.995211 351.970909 
L 245.687748 346.535273 
L 247.380285 351.970909 
L 249.072822 341.099636 
L 250.76536 351.970909 
L 272.768343 351.970909 
L 274.46088 346.535273 
L 276.153417 346.535273 
L 277.845955 351.970909 
L 279.538492 351.970909 
L 281.231029 346.535273 
L 282.923566 346.535273 
L 284.616103 351.970909 
L 291.386252 351.970909 
L 293.078789 346.535273 
L 294.771326 351.970909 
L 296.463864 346.535273 
L 298.156401 351.970909 
L 318.466847 351.970909 
L 320.159384 346.535273 
L 321.851921 346.535273 
L 323.544459 351.970909 
L 326.929533 351.970909 
L 328.62207 346.535273 
L 330.314607 351.970909 
L 332.007145 346.535273 
L 333.699682 346.535273 
L 335.392219 351.970909 
L 343.854905 351.970909 
L 345.547442 346.535273 
L 347.239979 351.970909 
L 364.165351 351.970909 
L 365.857888 346.535273 
L 367.550426 351.970909 
L 398.016095 351.970909 
L 399.708632 346.535273 
L 401.401169 351.970909 
L 421.711616 351.970909 
L 423.404153 346.535273 
L 425.09669 351.970909 
L 430.174302 351.970909 
L 431.866839 346.535273 
L 433.559376 351.970909 
L 442.022062 351.970909 
L 443.714599 346.535273 
L 445.407136 351.970909 
L 474.180269 351.970909 
L 475.872806 341.099636 
L 477.565343 351.970909 
L 504.645938 351.970909 
L 506.338475 346.535273 
L 508.031012 351.970909 
L 508.031012 351.970909 
" style="fill:none;stroke:#8c564b;stroke-linecap:square;stroke-width:1.5;"/>
   </g>
   <g id="line2d_19">
    <path clip-path="url(#p36ad9264fd)" d="M 84.896715 351.970909 
L 88.281789 351.970909 
L 91.666864 341.099636 
L 93.359401 324.792727 
L 95.051938 346.535273 
L 96.744475 324.792727 
L 100.12955 335.664 
L 101.822087 319.357091 
L 103.514624 330.228364 
L 105.207161 313.921455 
L 106.899698 324.792727 
L 108.592236 303.050182 
L 110.284773 308.485818 
L 111.97731 297.614545 
L 113.669847 324.792727 
L 115.362384 341.099636 
L 117.054921 313.921455 
L 118.747459 308.485818 
L 120.439996 324.792727 
L 122.132533 303.050182 
L 123.82507 324.792727 
L 125.517607 308.485818 
L 127.210145 313.921455 
L 128.902682 303.050182 
L 130.595219 319.357091 
L 132.287756 330.228364 
L 133.980293 335.664 
L 135.672831 313.921455 
L 137.365368 335.664 
L 140.750442 313.921455 
L 142.442979 330.228364 
L 144.135517 308.485818 
L 145.828054 335.664 
L 147.520591 313.921455 
L 149.213128 335.664 
L 150.905665 341.099636 
L 152.598202 330.228364 
L 154.29074 330.228364 
L 155.983277 341.099636 
L 157.675814 330.228364 
L 159.368351 330.228364 
L 161.060888 346.535273 
L 162.753426 313.921455 
L 166.1385 335.664 
L 169.523574 335.664 
L 171.216112 330.228364 
L 172.908649 308.485818 
L 174.601186 324.792727 
L 176.293723 330.228364 
L 177.98626 324.792727 
L 179.678798 335.664 
L 181.371335 341.099636 
L 183.063872 335.664 
L 184.756409 324.792727 
L 186.448946 324.792727 
L 189.834021 346.535273 
L 193.219095 346.535273 
L 194.911632 335.664 
L 196.604169 335.664 
L 198.296707 324.792727 
L 199.989244 346.535273 
L 201.681781 335.664 
L 203.374318 351.970909 
L 205.066855 335.664 
L 206.759393 324.792727 
L 208.45193 351.970909 
L 210.144467 346.535273 
L 211.837004 346.535273 
L 213.529541 324.792727 
L 215.222079 335.664 
L 216.914616 351.970909 
L 218.607153 319.357091 
L 220.29969 335.664 
L 221.992227 335.664 
L 223.684764 324.792727 
L 225.377302 341.099636 
L 227.069839 351.970909 
L 228.762376 330.228364 
L 230.454913 341.099636 
L 232.14745 335.664 
L 233.839988 335.664 
L 235.532525 346.535273 
L 237.225062 346.535273 
L 238.917599 341.099636 
L 240.610136 346.535273 
L 242.302674 346.535273 
L 243.995211 351.970909 
L 247.380285 341.099636 
L 249.072822 351.970909 
L 250.76536 341.099636 
L 252.457897 346.535273 
L 254.150434 346.535273 
L 255.842971 351.970909 
L 257.535508 346.535273 
L 262.61312 346.535273 
L 264.305657 351.970909 
L 265.998194 351.970909 
L 267.690731 341.099636 
L 269.383269 351.970909 
L 271.075806 335.664 
L 272.768343 351.970909 
L 274.46088 341.099636 
L 276.153417 351.970909 
L 279.538492 341.099636 
L 281.231029 341.099636 
L 282.923566 351.970909 
L 284.616103 351.970909 
L 286.30864 346.535273 
L 288.001178 351.970909 
L 298.156401 351.970909 
L 299.848938 346.535273 
L 301.541475 351.970909 
L 306.619087 351.970909 
L 308.311624 346.535273 
L 313.389236 346.535273 
L 315.081773 351.970909 
L 318.466847 341.099636 
L 320.159384 346.535273 
L 323.544459 346.535273 
L 325.236996 351.970909 
L 326.929533 351.970909 
L 328.62207 341.099636 
L 330.314607 351.970909 
L 333.699682 351.970909 
L 335.392219 341.099636 
L 338.777293 351.970909 
L 340.469831 346.535273 
L 343.854905 346.535273 
L 345.547442 351.970909 
L 347.239979 351.970909 
L 348.932517 346.535273 
L 350.625054 351.970909 
L 355.702665 351.970909 
L 357.395202 346.535273 
L 359.08774 351.970909 
L 360.780277 351.970909 
L 362.472814 346.535273 
L 364.165351 351.970909 
L 381.090723 351.970909 
L 382.78326 346.535273 
L 384.475798 351.970909 
L 386.168335 351.970909 
L 387.860872 341.099636 
L 389.553409 351.970909 
L 399.708632 351.970909 
L 401.401169 346.535273 
L 403.093707 351.970909 
L 414.941467 351.970909 
L 416.634004 346.535273 
L 418.326541 351.970909 
L 425.09669 351.970909 
L 426.789227 346.535273 
L 428.481764 351.970909 
L 430.174302 346.535273 
L 431.866839 351.970909 
L 438.636988 351.970909 
L 440.329525 346.535273 
L 442.022062 346.535273 
L 443.714599 351.970909 
L 445.407136 351.970909 
L 447.099674 346.535273 
L 448.792211 351.970909 
L 465.717583 351.970909 
L 467.41012 346.535273 
L 469.102657 351.970909 
L 472.487731 351.970909 
L 474.180269 346.535273 
L 475.872806 351.970909 
L 484.335492 351.970909 
L 486.028029 346.535273 
L 487.720566 351.970909 
L 508.031012 351.970909 
L 508.031012 351.970909 
" style="fill:none;stroke:#e377c2;stroke-linecap:square;stroke-width:1.5;"/>
   </g>
   <g id="line2d_20">
    <path clip-path="url(#p36ad9264fd)" d="M 84.896715 351.970909 
L 96.744475 351.970909 
L 98.437012 346.535273 
L 100.12955 351.970909 
L 101.822087 335.664 
L 103.514624 351.970909 
L 105.207161 346.535273 
L 108.592236 346.535273 
L 110.284773 351.970909 
L 111.97731 346.535273 
L 113.669847 335.664 
L 117.054921 346.535273 
L 118.747459 346.535273 
L 120.439996 324.792727 
L 122.132533 335.664 
L 123.82507 324.792727 
L 125.517607 335.664 
L 127.210145 351.970909 
L 128.902682 346.535273 
L 132.287756 346.535273 
L 135.672831 335.664 
L 137.365368 351.970909 
L 139.057905 351.970909 
L 140.750442 319.357091 
L 142.442979 351.970909 
L 152.598202 351.970909 
L 154.29074 341.099636 
L 155.983277 341.099636 
L 157.675814 346.535273 
L 159.368351 335.664 
L 161.060888 351.970909 
L 162.753426 346.535273 
L 164.445963 351.970909 
L 166.1385 351.970909 
L 169.523574 341.099636 
L 171.216112 351.970909 
L 172.908649 351.970909 
L 174.601186 346.535273 
L 176.293723 351.970909 
L 177.98626 341.099636 
L 179.678798 346.535273 
L 181.371335 346.535273 
L 183.063872 351.970909 
L 184.756409 351.970909 
L 186.448946 335.664 
L 188.141483 346.535273 
L 189.834021 351.970909 
L 191.526558 351.970909 
L 194.911632 341.099636 
L 198.296707 351.970909 
L 199.989244 346.535273 
L 201.681781 346.535273 
L 203.374318 351.970909 
L 205.066855 346.535273 
L 206.759393 335.664 
L 208.45193 346.535273 
L 210.144467 346.535273 
L 211.837004 351.970909 
L 213.529541 346.535273 
L 215.222079 351.970909 
L 216.914616 351.970909 
L 218.607153 346.535273 
L 220.29969 351.970909 
L 221.992227 346.535273 
L 223.684764 351.970909 
L 225.377302 346.535273 
L 227.069839 346.535273 
L 228.762376 351.970909 
L 230.454913 346.535273 
L 233.839988 346.535273 
L 235.532525 341.099636 
L 237.225062 351.970909 
L 240.610136 351.970909 
L 242.302674 346.535273 
L 243.995211 351.970909 
L 255.842971 351.970909 
L 257.535508 346.535273 
L 259.228045 351.970909 
L 260.920583 346.535273 
L 262.61312 351.970909 
L 269.383269 351.970909 
L 271.075806 346.535273 
L 272.768343 351.970909 
L 286.30864 351.970909 
L 288.001178 346.535273 
L 289.693715 351.970909 
L 291.386252 346.535273 
L 293.078789 351.970909 
L 299.848938 351.970909 
L 301.541475 346.535273 
L 303.234012 351.970909 
L 321.851921 351.970909 
L 323.544459 346.535273 
L 326.929533 346.535273 
L 328.62207 351.970909 
L 330.314607 351.970909 
L 332.007145 346.535273 
L 333.699682 351.970909 
L 335.392219 346.535273 
L 337.084756 351.970909 
L 348.932517 351.970909 
L 350.625054 346.535273 
L 352.317591 351.970909 
L 382.78326 351.970909 
L 384.475798 346.535273 
L 386.168335 351.970909 
L 408.171318 351.970909 
L 409.863855 346.535273 
L 411.556393 351.970909 
L 420.019079 351.970909 
L 421.711616 346.535273 
L 423.404153 351.970909 
L 428.481764 351.970909 
L 430.174302 346.535273 
L 431.866839 351.970909 
L 445.407136 351.970909 
L 447.099674 346.535273 
L 448.792211 351.970909 
L 477.565343 351.970909 
L 479.25788 346.535273 
L 480.950417 351.970909 
L 508.031012 351.970909 
L 508.031012 351.970909 
" style="fill:none;stroke:#7f7f7f;stroke-linecap:square;stroke-width:1.5;"/>
   </g>
   <g id="patch_3">
    <path d="M 63.74 365.56 
L 63.74 66.6 
" style="fill:none;stroke:#000000;stroke-linecap:square;stroke-linejoin:miter;stroke-width:0.8;"/>
   </g>
   <g id="patch_4">
    <path d="M 529.187727 365.56 
L 529.187727 66.6 
" style="fill:none;stroke:#000000;stroke-linecap:square;stroke-linejoin:miter;stroke-width:0.8;"/>
   </g>
   <g id="patch_5">
    <path d="M 63.74 365.56 
L 529.187727 365.56 
" style="fill:none;stroke:#000000;stroke-linecap:square;stroke-linejoin:miter;stroke-width:0.8;"/>
   </g>
   <g id="patch_6">
    <path d="M 63.74 66.6 
L 529.187727 66.6 
" style="fill:none;stroke:#000000;stroke-linecap:square;stroke-linejoin:miter;stroke-width:0.8;"/>
   </g>
   <g id="legend_1">
    <g id="patch_7">
     <path d="M 74.24 59.1 
L 518.687727 59.1 
Q 521.687727 59.1 521.687727 56.1 
L 521.687727 13.565625 
Q 521.687727 10.565625 518.687727 10.565625 
L 74.24 10.565625 
Q 71.24 10.565625 71.24 13.565625 
L 71.24 56.1 
Q 71.24 59.1 74.24 59.1 
z
" style="fill:#ffffff;opacity:0.8;stroke:#cccccc;stroke-linejoin:miter;"/>
    </g>
    <g id="line2d_21">
     <path d="M 77.24 22.713281 
L 107.24 22.713281 
" style="fill:none;stroke:#1f77b4;stroke-linecap:square;stroke-width:1.5;"/>
    </g>
    <g id="line2d_22"/>
    <g id="text_15">
     <!-- Stra 1 -->
     <defs>
      <path d="M 53.515625 70.515625 
L 53.515625 60.890625 
Q 47.90625 63.578125 42.921875 64.890625 
Q 37.9375 66.21875 33.296875 66.21875 
Q 25.25 66.21875 20.875 63.09375 
Q 16.5 59.96875 16.5 54.203125 
Q 16.5 49.359375 19.40625 46.890625 
Q 22.3125 44.4375 30.421875 42.921875 
L 36.375 41.703125 
Q 47.40625 39.59375 52.65625 34.296875 
Q 57.90625 29 57.90625 20.125 
Q 57.90625 9.515625 50.796875 4.046875 
Q 43.703125 -1.421875 29.984375 -1.421875 
Q 24.8125 -1.421875 18.96875 -0.25 
Q 13.140625 0.921875 6.890625 3.21875 
L 6.890625 13.375 
Q 12.890625 10.015625 18.65625 8.296875 
Q 24.421875 6.59375 29.984375 6.59375 
Q 38.421875 6.59375 43.015625 9.90625 
Q 47.609375 13.234375 47.609375 19.390625 
Q 47.609375 24.75 44.3125 27.78125 
Q 41.015625 30.8125 33.5 32.328125 
L 27.484375 33.5 
Q 16.453125 35.6875 11.515625 40.375 
Q 6.59375 45.0625 6.59375 53.421875 
Q 6.59375 63.09375 13.40625 68.65625 
Q 20.21875 74.21875 32.171875 74.21875 
Q 37.3125 74.21875 42.625 73.28125 
Q 47.953125 72.359375 53.515625 70.515625 
z
" id="DejaVuSans-83"/>
     </defs>
     <g transform="translate(119.24 27.963281)scale(0.15 -0.15)">
      <use xlink:href="#DejaVuSans-83"/>
      <use x="63.476562" xlink:href="#DejaVuSans-116"/>
      <use x="102.685547" xlink:href="#DejaVuSans-114"/>
      <use x="143.798828" xlink:href="#DejaVuSans-97"/>
      <use x="205.078125" xlink:href="#DejaVuSans-32"/>
      <use x="236.865234" xlink:href="#DejaVuSans-49"/>
     </g>
    </g>
    <g id="line2d_23">
     <path d="M 77.24 44.730469 
L 107.24 44.730469 
" style="fill:none;stroke:#ff7f0e;stroke-linecap:square;stroke-width:1.5;"/>
    </g>
    <g id="line2d_24"/>
    <g id="text_16">
     <!-- Stra 2 -->
     <g transform="translate(119.24 49.980469)scale(0.15 -0.15)">
      <use xlink:href="#DejaVuSans-83"/>
      <use x="63.476562" xlink:href="#DejaVuSans-116"/>
      <use x="102.685547" xlink:href="#DejaVuSans-114"/>
      <use x="143.798828" xlink:href="#DejaVuSans-97"/>
      <use x="205.078125" xlink:href="#DejaVuSans-32"/>
      <use x="236.865234" xlink:href="#DejaVuSans-50"/>
     </g>
    </g>
    <g id="line2d_25">
     <path d="M 194.365024 22.713281 
L 224.365024 22.713281 
" style="fill:none;stroke:#2ca02c;stroke-linecap:square;stroke-width:1.5;"/>
    </g>
    <g id="line2d_26"/>
    <g id="text_17">
     <!-- Stra 3 -->
     <g transform="translate(236.365024 27.963281)scale(0.15 -0.15)">
      <use xlink:href="#DejaVuSans-83"/>
      <use x="63.476562" xlink:href="#DejaVuSans-116"/>
      <use x="102.685547" xlink:href="#DejaVuSans-114"/>
      <use x="143.798828" xlink:href="#DejaVuSans-97"/>
      <use x="205.078125" xlink:href="#DejaVuSans-32"/>
      <use x="236.865234" xlink:href="#DejaVuSans-51"/>
     </g>
    </g>
    <g id="line2d_27">
     <path d="M 194.365024 44.730469 
L 224.365024 44.730469 
" style="fill:none;stroke:#d62728;stroke-linecap:square;stroke-width:1.5;"/>
    </g>
    <g id="line2d_28"/>
    <g id="text_18">
     <!-- Stra 4 -->
     <g transform="translate(236.365024 49.980469)scale(0.15 -0.15)">
      <use xlink:href="#DejaVuSans-83"/>
      <use x="63.476562" xlink:href="#DejaVuSans-116"/>
      <use x="102.685547" xlink:href="#DejaVuSans-114"/>
      <use x="143.798828" xlink:href="#DejaVuSans-97"/>
      <use x="205.078125" xlink:href="#DejaVuSans-32"/>
      <use x="236.865234" xlink:href="#DejaVuSans-52"/>
     </g>
    </g>
    <g id="line2d_29">
     <path d="M 311.490047 22.713281 
L 341.490047 22.713281 
" style="fill:none;stroke:#9467bd;stroke-linecap:square;stroke-width:1.5;"/>
    </g>
    <g id="line2d_30"/>
    <g id="text_19">
     <!-- Stra 5 -->
     <g transform="translate(353.490047 27.963281)scale(0.15 -0.15)">
      <use xlink:href="#DejaVuSans-83"/>
      <use x="63.476562" xlink:href="#DejaVuSans-116"/>
      <use x="102.685547" xlink:href="#DejaVuSans-114"/>
      <use x="143.798828" xlink:href="#DejaVuSans-97"/>
      <use x="205.078125" xlink:href="#DejaVuSans-32"/>
      <use x="236.865234" xlink:href="#DejaVuSans-53"/>
     </g>
    </g>
    <g id="line2d_31">
     <path d="M 311.490047 44.730469 
L 341.490047 44.730469 
" style="fill:none;stroke:#8c564b;stroke-linecap:square;stroke-width:1.5;"/>
    </g>
    <g id="line2d_32"/>
    <g id="text_20">
     <!-- Stra 6 -->
     <defs>
      <path d="M 33.015625 40.375 
Q 26.375 40.375 22.484375 35.828125 
Q 18.609375 31.296875 18.609375 23.390625 
Q 18.609375 15.53125 22.484375 10.953125 
Q 26.375 6.390625 33.015625 6.390625 
Q 39.65625 6.390625 43.53125 10.953125 
Q 47.40625 15.53125 47.40625 23.390625 
Q 47.40625 31.296875 43.53125 35.828125 
Q 39.65625 40.375 33.015625 40.375 
z
M 52.59375 71.296875 
L 52.59375 62.3125 
Q 48.875 64.0625 45.09375 64.984375 
Q 41.3125 65.921875 37.59375 65.921875 
Q 27.828125 65.921875 22.671875 59.328125 
Q 17.53125 52.734375 16.796875 39.40625 
Q 19.671875 43.65625 24.015625 45.921875 
Q 28.375 48.1875 33.59375 48.1875 
Q 44.578125 48.1875 50.953125 41.515625 
Q 57.328125 34.859375 57.328125 23.390625 
Q 57.328125 12.15625 50.6875 5.359375 
Q 44.046875 -1.421875 33.015625 -1.421875 
Q 20.359375 -1.421875 13.671875 8.265625 
Q 6.984375 17.96875 6.984375 36.375 
Q 6.984375 53.65625 15.1875 63.9375 
Q 23.390625 74.21875 37.203125 74.21875 
Q 40.921875 74.21875 44.703125 73.484375 
Q 48.484375 72.75 52.59375 71.296875 
z
" id="DejaVuSans-54"/>
     </defs>
     <g transform="translate(353.490047 49.980469)scale(0.15 -0.15)">
      <use xlink:href="#DejaVuSans-83"/>
      <use x="63.476562" xlink:href="#DejaVuSans-116"/>
      <use x="102.685547" xlink:href="#DejaVuSans-114"/>
      <use x="143.798828" xlink:href="#DejaVuSans-97"/>
      <use x="205.078125" xlink:href="#DejaVuSans-32"/>
      <use x="236.865234" xlink:href="#DejaVuSans-54"/>
     </g>
    </g>
    <g id="line2d_33">
     <path d="M 428.615071 22.713281 
L 458.615071 22.713281 
" style="fill:none;stroke:#e377c2;stroke-linecap:square;stroke-width:1.5;"/>
    </g>
    <g id="line2d_34"/>
    <g id="text_21">
     <!-- Stra 7 -->
     <defs>
      <path d="M 8.203125 72.90625 
L 55.078125 72.90625 
L 55.078125 68.703125 
L 28.609375 0 
L 18.3125 0 
L 43.21875 64.59375 
L 8.203125 64.59375 
z
" id="DejaVuSans-55"/>
     </defs>
     <g transform="translate(470.615071 27.963281)scale(0.15 -0.15)">
      <use xlink:href="#DejaVuSans-83"/>
      <use x="63.476562" xlink:href="#DejaVuSans-116"/>
      <use x="102.685547" xlink:href="#DejaVuSans-114"/>
      <use x="143.798828" xlink:href="#DejaVuSans-97"/>
      <use x="205.078125" xlink:href="#DejaVuSans-32"/>
      <use x="236.865234" xlink:href="#DejaVuSans-55"/>
     </g>
    </g>
    <g id="line2d_35">
     <path d="M 428.615071 44.730469 
L 458.615071 44.730469 
" style="fill:none;stroke:#7f7f7f;stroke-linecap:square;stroke-width:1.5;"/>
    </g>
    <g id="line2d_36"/>
    <g id="text_22">
     <!-- Stra 8 -->
     <defs>
      <path d="M 31.78125 34.625 
Q 24.75 34.625 20.71875 30.859375 
Q 16.703125 27.09375 16.703125 20.515625 
Q 16.703125 13.921875 20.71875 10.15625 
Q 24.75 6.390625 31.78125 6.390625 
Q 38.8125 6.390625 42.859375 10.171875 
Q 46.921875 13.96875 46.921875 20.515625 
Q 46.921875 27.09375 42.890625 30.859375 
Q 38.875 34.625 31.78125 34.625 
z
M 21.921875 38.8125 
Q 15.578125 40.375 12.03125 44.71875 
Q 8.5 49.078125 8.5 55.328125 
Q 8.5 64.0625 14.71875 69.140625 
Q 20.953125 74.21875 31.78125 74.21875 
Q 42.671875 74.21875 48.875 69.140625 
Q 55.078125 64.0625 55.078125 55.328125 
Q 55.078125 49.078125 51.53125 44.71875 
Q 48 40.375 41.703125 38.8125 
Q 48.828125 37.15625 52.796875 32.3125 
Q 56.78125 27.484375 56.78125 20.515625 
Q 56.78125 9.90625 50.3125 4.234375 
Q 43.84375 -1.421875 31.78125 -1.421875 
Q 19.734375 -1.421875 13.25 4.234375 
Q 6.78125 9.90625 6.78125 20.515625 
Q 6.78125 27.484375 10.78125 32.3125 
Q 14.796875 37.15625 21.921875 38.8125 
z
M 18.3125 54.390625 
Q 18.3125 48.734375 21.84375 45.5625 
Q 25.390625 42.390625 31.78125 42.390625 
Q 38.140625 42.390625 41.71875 45.5625 
Q 45.3125 48.734375 45.3125 54.390625 
Q 45.3125 60.0625 41.71875 63.234375 
Q 38.140625 66.40625 31.78125 66.40625 
Q 25.390625 66.40625 21.84375 63.234375 
Q 18.3125 60.0625 18.3125 54.390625 
z
" id="DejaVuSans-56"/>
     </defs>
     <g transform="translate(470.615071 49.980469)scale(0.15 -0.15)">
      <use xlink:href="#DejaVuSans-83"/>
      <use x="63.476562" xlink:href="#DejaVuSans-116"/>
      <use x="102.685547" xlink:href="#DejaVuSans-114"/>
      <use x="143.798828" xlink:href="#DejaVuSans-97"/>
      <use x="205.078125" xlink:href="#DejaVuSans-32"/>
      <use x="236.865234" xlink:href="#DejaVuSans-56"/>
     </g>
    </g>
   </g>
  </g>
 </g>
 <defs>
  <clipPath id="p36ad9264fd">
   <rect height="298.96" width="465.447727" x="63.74" y="66.6"/>
  </clipPath>
 </defs>
</svg>
