<?xml version="1.0" encoding="utf-8" standalone="no"?>
<!DOCTYPE svg PUBLIC "-//W3C//DTD SVG 1.1//EN"
  "http://www.w3.org/Graphics/SVG/1.1/DTD/svg11.dtd">
<!-- Created with matplotlib (https://matplotlib.org/) -->
<svg height="432pt" version="1.1" viewBox="0 0 540 432" width="540pt" xmlns="http://www.w3.org/2000/svg" xmlns:xlink="http://www.w3.org/1999/xlink">
 <defs>
  <style type="text/css">
*{stroke-linecap:butt;stroke-linejoin:round;}
  </style>
 </defs>
 <g id="figure_1">
  <g id="patch_1">
   <path d="M 0 432 
L 540 432 
L 540 0 
L 0 0 
z
" style="fill:#ffffff;"/>
  </g>
  <g id="axes_1">
   <g id="patch_2">
    <path d="M 70.13 365.56 
L 529.2 365.56 
L 529.2 88.5 
L 70.13 88.5 
z
" style="fill:#ffffff;"/>
   </g>
   <g id="matplotlib.axis_1">
    <g id="xtick_1">
     <g id="line2d_1">
      <defs>
       <path d="M 0 0 
L 0 3.5 
" id="m79ec8eb781" style="stroke:#000000;stroke-width:0.8;"/>
      </defs>
      <g>
       <use style="stroke:#000000;stroke-width:0.8;" x="90.996818" xlink:href="#m79ec8eb781" y="365.56"/>
      </g>
     </g>
     <g id="text_1">
      <!-- 0 -->
      <defs>
       <path d="M 31.78125 66.40625 
Q 24.171875 66.40625 20.328125 58.90625 
Q 16.5 51.421875 16.5 36.375 
Q 16.5 21.390625 20.328125 13.890625 
Q 24.171875 6.390625 31.78125 6.390625 
Q 39.453125 6.390625 43.28125 13.890625 
Q 47.125 21.390625 47.125 36.375 
Q 47.125 51.421875 43.28125 58.90625 
Q 39.453125 66.40625 31.78125 66.40625 
z
M 31.78125 74.21875 
Q 44.046875 74.21875 50.515625 64.515625 
Q 56.984375 54.828125 56.984375 36.375 
Q 56.984375 17.96875 50.515625 8.265625 
Q 44.046875 -1.421875 31.78125 -1.421875 
Q 19.53125 -1.421875 13.0625 8.265625 
Q 6.59375 17.96875 6.59375 36.375 
Q 6.59375 54.828125 13.0625 64.515625 
Q 19.53125 74.21875 31.78125 74.21875 
z
" id="DejaVuSans-48"/>
      </defs>
      <g transform="translate(84.634318 387.756875)scale(0.2 -0.2)">
       <use xlink:href="#DejaVuSans-48"/>
      </g>
     </g>
    </g>
    <g id="xtick_2">
     <g id="line2d_2">
      <g>
       <use style="stroke:#000000;stroke-width:0.8;" x="164.213724" xlink:href="#m79ec8eb781" y="365.56"/>
      </g>
     </g>
     <g id="text_2">
      <!-- 10 -->
      <defs>
       <path d="M 12.40625 8.296875 
L 28.515625 8.296875 
L 28.515625 63.921875 
L 10.984375 60.40625 
L 10.984375 69.390625 
L 28.421875 72.90625 
L 38.28125 72.90625 
L 38.28125 8.296875 
L 54.390625 8.296875 
L 54.390625 0 
L 12.40625 0 
z
" id="DejaVuSans-49"/>
      </defs>
      <g transform="translate(151.488724 387.756875)scale(0.2 -0.2)">
       <use xlink:href="#DejaVuSans-49"/>
       <use x="63.623047" xlink:href="#DejaVuSans-48"/>
      </g>
     </g>
    </g>
    <g id="xtick_3">
     <g id="line2d_3">
      <g>
       <use style="stroke:#000000;stroke-width:0.8;" x="237.43063" xlink:href="#m79ec8eb781" y="365.56"/>
      </g>
     </g>
     <g id="text_3">
      <!-- 20 -->
      <defs>
       <path d="M 19.1875 8.296875 
L 53.609375 8.296875 
L 53.609375 0 
L 7.328125 0 
L 7.328125 8.296875 
Q 12.9375 14.109375 22.625 23.890625 
Q 32.328125 33.6875 34.8125 36.53125 
Q 39.546875 41.84375 41.421875 45.53125 
Q 43.3125 49.21875 43.3125 52.78125 
Q 43.3125 58.59375 39.234375 62.25 
Q 35.15625 65.921875 28.609375 65.921875 
Q 23.96875 65.921875 18.8125 64.3125 
Q 13.671875 62.703125 7.8125 59.421875 
L 7.8125 69.390625 
Q 13.765625 71.78125 18.9375 73 
Q 24.125 74.21875 28.421875 74.21875 
Q 39.75 74.21875 46.484375 68.546875 
Q 53.21875 62.890625 53.21875 53.421875 
Q 53.21875 48.921875 51.53125 44.890625 
Q 49.859375 40.875 45.40625 35.40625 
Q 44.1875 33.984375 37.640625 27.21875 
Q 31.109375 20.453125 19.1875 8.296875 
z
" id="DejaVuSans-50"/>
      </defs>
      <g transform="translate(224.70563 387.756875)scale(0.2 -0.2)">
       <use xlink:href="#DejaVuSans-50"/>
       <use x="63.623047" xlink:href="#DejaVuSans-48"/>
      </g>
     </g>
    </g>
    <g id="xtick_4">
     <g id="line2d_4">
      <g>
       <use style="stroke:#000000;stroke-width:0.8;" x="310.647536" xlink:href="#m79ec8eb781" y="365.56"/>
      </g>
     </g>
     <g id="text_4">
      <!-- 30 -->
      <defs>
       <path d="M 40.578125 39.3125 
Q 47.65625 37.796875 51.625 33 
Q 55.609375 28.21875 55.609375 21.1875 
Q 55.609375 10.40625 48.1875 4.484375 
Q 40.765625 -1.421875 27.09375 -1.421875 
Q 22.515625 -1.421875 17.65625 -0.515625 
Q 12.796875 0.390625 7.625 2.203125 
L 7.625 11.71875 
Q 11.71875 9.328125 16.59375 8.109375 
Q 21.484375 6.890625 26.8125 6.890625 
Q 36.078125 6.890625 40.9375 10.546875 
Q 45.796875 14.203125 45.796875 21.1875 
Q 45.796875 27.640625 41.28125 31.265625 
Q 36.765625 34.90625 28.71875 34.90625 
L 20.21875 34.90625 
L 20.21875 43.015625 
L 29.109375 43.015625 
Q 36.375 43.015625 40.234375 45.921875 
Q 44.09375 48.828125 44.09375 54.296875 
Q 44.09375 59.90625 40.109375 62.90625 
Q 36.140625 65.921875 28.71875 65.921875 
Q 24.65625 65.921875 20.015625 65.03125 
Q 15.375 64.15625 9.8125 62.3125 
L 9.8125 71.09375 
Q 15.4375 72.65625 20.34375 73.4375 
Q 25.25 74.21875 29.59375 74.21875 
Q 40.828125 74.21875 47.359375 69.109375 
Q 53.90625 64.015625 53.90625 55.328125 
Q 53.90625 49.265625 50.4375 45.09375 
Q 46.96875 40.921875 40.578125 39.3125 
z
" id="DejaVuSans-51"/>
      </defs>
      <g transform="translate(297.922536 387.756875)scale(0.2 -0.2)">
       <use xlink:href="#DejaVuSans-51"/>
       <use x="63.623047" xlink:href="#DejaVuSans-48"/>
      </g>
     </g>
    </g>
    <g id="xtick_5">
     <g id="line2d_5">
      <g>
       <use style="stroke:#000000;stroke-width:0.8;" x="383.864442" xlink:href="#m79ec8eb781" y="365.56"/>
      </g>
     </g>
     <g id="text_5">
      <!-- 40 -->
      <defs>
       <path d="M 37.796875 64.3125 
L 12.890625 25.390625 
L 37.796875 25.390625 
z
M 35.203125 72.90625 
L 47.609375 72.90625 
L 47.609375 25.390625 
L 58.015625 25.390625 
L 58.015625 17.1875 
L 47.609375 17.1875 
L 47.609375 0 
L 37.796875 0 
L 37.796875 17.1875 
L 4.890625 17.1875 
L 4.890625 26.703125 
z
" id="DejaVuSans-52"/>
      </defs>
      <g transform="translate(371.139442 387.756875)scale(0.2 -0.2)">
       <use xlink:href="#DejaVuSans-52"/>
       <use x="63.623047" xlink:href="#DejaVuSans-48"/>
      </g>
     </g>
    </g>
    <g id="xtick_6">
     <g id="line2d_6">
      <g>
       <use style="stroke:#000000;stroke-width:0.8;" x="457.081348" xlink:href="#m79ec8eb781" y="365.56"/>
      </g>
     </g>
     <g id="text_6">
      <!-- 50 -->
      <defs>
       <path d="M 10.796875 72.90625 
L 49.515625 72.90625 
L 49.515625 64.59375 
L 19.828125 64.59375 
L 19.828125 46.734375 
Q 21.96875 47.46875 24.109375 47.828125 
Q 26.265625 48.1875 28.421875 48.1875 
Q 40.625 48.1875 47.75 41.5 
Q 54.890625 34.8125 54.890625 23.390625 
Q 54.890625 11.625 47.5625 5.09375 
Q 40.234375 -1.421875 26.90625 -1.421875 
Q 22.3125 -1.421875 17.546875 -0.640625 
Q 12.796875 0.140625 7.71875 1.703125 
L 7.71875 11.625 
Q 12.109375 9.234375 16.796875 8.0625 
Q 21.484375 6.890625 26.703125 6.890625 
Q 35.15625 6.890625 40.078125 11.328125 
Q 45.015625 15.765625 45.015625 23.390625 
Q 45.015625 31 40.078125 35.4375 
Q 35.15625 39.890625 26.703125 39.890625 
Q 22.75 39.890625 18.8125 39.015625 
Q 14.890625 38.140625 10.796875 36.28125 
z
" id="DejaVuSans-53"/>
      </defs>
      <g transform="translate(444.356348 387.756875)scale(0.2 -0.2)">
       <use xlink:href="#DejaVuSans-53"/>
       <use x="63.623047" xlink:href="#DejaVuSans-48"/>
      </g>
     </g>
    </g>
    <g id="text_7">
     <!-- # of games -->
     <defs>
      <path d="M 51.125 44 
L 36.921875 44 
L 32.8125 27.6875 
L 47.125 27.6875 
z
M 43.796875 71.78125 
L 38.71875 51.515625 
L 52.984375 51.515625 
L 58.109375 71.78125 
L 65.921875 71.78125 
L 60.890625 51.515625 
L 76.125 51.515625 
L 76.125 44 
L 58.984375 44 
L 54.984375 27.6875 
L 70.515625 27.6875 
L 70.515625 20.21875 
L 53.078125 20.21875 
L 48 0 
L 40.1875 0 
L 45.21875 20.21875 
L 30.90625 20.21875 
L 25.875 0 
L 18.015625 0 
L 23.09375 20.21875 
L 7.71875 20.21875 
L 7.71875 27.6875 
L 24.90625 27.6875 
L 29 44 
L 13.28125 44 
L 13.28125 51.515625 
L 30.90625 51.515625 
L 35.890625 71.78125 
z
" id="DejaVuSans-35"/>
      <path id="DejaVuSans-32"/>
      <path d="M 30.609375 48.390625 
Q 23.390625 48.390625 19.1875 42.75 
Q 14.984375 37.109375 14.984375 27.296875 
Q 14.984375 17.484375 19.15625 11.84375 
Q 23.34375 6.203125 30.609375 6.203125 
Q 37.796875 6.203125 41.984375 11.859375 
Q 46.1875 17.53125 46.1875 27.296875 
Q 46.1875 37.015625 41.984375 42.703125 
Q 37.796875 48.390625 30.609375 48.390625 
z
M 30.609375 56 
Q 42.328125 56 49.015625 48.375 
Q 55.71875 40.765625 55.71875 27.296875 
Q 55.71875 13.875 49.015625 6.21875 
Q 42.328125 -1.421875 30.609375 -1.421875 
Q 18.84375 -1.421875 12.171875 6.21875 
Q 5.515625 13.875 5.515625 27.296875 
Q 5.515625 40.765625 12.171875 48.375 
Q 18.84375 56 30.609375 56 
z
" id="DejaVuSans-111"/>
      <path d="M 37.109375 75.984375 
L 37.109375 68.5 
L 28.515625 68.5 
Q 23.6875 68.5 21.796875 66.546875 
Q 19.921875 64.59375 19.921875 59.515625 
L 19.921875 54.6875 
L 34.71875 54.6875 
L 34.71875 47.703125 
L 19.921875 47.703125 
L 19.921875 0 
L 10.890625 0 
L 10.890625 47.703125 
L 2.296875 47.703125 
L 2.296875 54.6875 
L 10.890625 54.6875 
L 10.890625 58.5 
Q 10.890625 67.625 15.140625 71.796875 
Q 19.390625 75.984375 28.609375 75.984375 
z
" id="DejaVuSans-102"/>
      <path d="M 45.40625 27.984375 
Q 45.40625 37.75 41.375 43.109375 
Q 37.359375 48.484375 30.078125 48.484375 
Q 22.859375 48.484375 18.828125 43.109375 
Q 14.796875 37.75 14.796875 27.984375 
Q 14.796875 18.265625 18.828125 12.890625 
Q 22.859375 7.515625 30.078125 7.515625 
Q 37.359375 7.515625 41.375 12.890625 
Q 45.40625 18.265625 45.40625 27.984375 
z
M 54.390625 6.78125 
Q 54.390625 -7.171875 48.1875 -13.984375 
Q 42 -20.796875 29.203125 -20.796875 
Q 24.46875 -20.796875 20.265625 -20.09375 
Q 16.0625 -19.390625 12.109375 -17.921875 
L 12.109375 -9.1875 
Q 16.0625 -11.328125 19.921875 -12.34375 
Q 23.78125 -13.375 27.78125 -13.375 
Q 36.625 -13.375 41.015625 -8.765625 
Q 45.40625 -4.15625 45.40625 5.171875 
L 45.40625 9.625 
Q 42.625 4.78125 38.28125 2.390625 
Q 33.9375 0 27.875 0 
Q 17.828125 0 11.671875 7.65625 
Q 5.515625 15.328125 5.515625 27.984375 
Q 5.515625 40.671875 11.671875 48.328125 
Q 17.828125 56 27.875 56 
Q 33.9375 56 38.28125 53.609375 
Q 42.625 51.21875 45.40625 46.390625 
L 45.40625 54.6875 
L 54.390625 54.6875 
z
" id="DejaVuSans-103"/>
      <path d="M 34.28125 27.484375 
Q 23.390625 27.484375 19.1875 25 
Q 14.984375 22.515625 14.984375 16.5 
Q 14.984375 11.71875 18.140625 8.90625 
Q 21.296875 6.109375 26.703125 6.109375 
Q 34.1875 6.109375 38.703125 11.40625 
Q 43.21875 16.703125 43.21875 25.484375 
L 43.21875 27.484375 
z
M 52.203125 31.203125 
L 52.203125 0 
L 43.21875 0 
L 43.21875 8.296875 
Q 40.140625 3.328125 35.546875 0.953125 
Q 30.953125 -1.421875 24.3125 -1.421875 
Q 15.921875 -1.421875 10.953125 3.296875 
Q 6 8.015625 6 15.921875 
Q 6 25.140625 12.171875 29.828125 
Q 18.359375 34.515625 30.609375 34.515625 
L 43.21875 34.515625 
L 43.21875 35.40625 
Q 43.21875 41.609375 39.140625 45 
Q 35.0625 48.390625 27.6875 48.390625 
Q 23 48.390625 18.546875 47.265625 
Q 14.109375 46.140625 10.015625 43.890625 
L 10.015625 52.203125 
Q 14.9375 54.109375 19.578125 55.046875 
Q 24.21875 56 28.609375 56 
Q 40.484375 56 46.34375 49.84375 
Q 52.203125 43.703125 52.203125 31.203125 
z
" id="DejaVuSans-97"/>
      <path d="M 52 44.1875 
Q 55.375 50.25 60.0625 53.125 
Q 64.75 56 71.09375 56 
Q 79.640625 56 84.28125 50.015625 
Q 88.921875 44.046875 88.921875 33.015625 
L 88.921875 0 
L 79.890625 0 
L 79.890625 32.71875 
Q 79.890625 40.578125 77.09375 44.375 
Q 74.3125 48.1875 68.609375 48.1875 
Q 61.625 48.1875 57.5625 43.546875 
Q 53.515625 38.921875 53.515625 30.90625 
L 53.515625 0 
L 44.484375 0 
L 44.484375 32.71875 
Q 44.484375 40.625 41.703125 44.40625 
Q 38.921875 48.1875 33.109375 48.1875 
Q 26.21875 48.1875 22.15625 43.53125 
Q 18.109375 38.875 18.109375 30.90625 
L 18.109375 0 
L 9.078125 0 
L 9.078125 54.6875 
L 18.109375 54.6875 
L 18.109375 46.1875 
Q 21.1875 51.21875 25.484375 53.609375 
Q 29.78125 56 35.6875 56 
Q 41.65625 56 45.828125 52.96875 
Q 50 49.953125 52 44.1875 
z
" id="DejaVuSans-109"/>
      <path d="M 56.203125 29.59375 
L 56.203125 25.203125 
L 14.890625 25.203125 
Q 15.484375 15.921875 20.484375 11.0625 
Q 25.484375 6.203125 34.421875 6.203125 
Q 39.59375 6.203125 44.453125 7.46875 
Q 49.3125 8.734375 54.109375 11.28125 
L 54.109375 2.78125 
Q 49.265625 0.734375 44.1875 -0.34375 
Q 39.109375 -1.421875 33.890625 -1.421875 
Q 20.796875 -1.421875 13.15625 6.1875 
Q 5.515625 13.8125 5.515625 26.8125 
Q 5.515625 40.234375 12.765625 48.109375 
Q 20.015625 56 32.328125 56 
Q 43.359375 56 49.78125 48.890625 
Q 56.203125 41.796875 56.203125 29.59375 
z
M 47.21875 32.234375 
Q 47.125 39.59375 43.09375 43.984375 
Q 39.0625 48.390625 32.421875 48.390625 
Q 24.90625 48.390625 20.390625 44.140625 
Q 15.875 39.890625 15.1875 32.171875 
z
" id="DejaVuSans-101"/>
      <path d="M 44.28125 53.078125 
L 44.28125 44.578125 
Q 40.484375 46.53125 36.375 47.5 
Q 32.28125 48.484375 27.875 48.484375 
Q 21.1875 48.484375 17.84375 46.4375 
Q 14.5 44.390625 14.5 40.28125 
Q 14.5 37.15625 16.890625 35.375 
Q 19.28125 33.59375 26.515625 31.984375 
L 29.59375 31.296875 
Q 39.15625 29.25 43.1875 25.515625 
Q 47.21875 21.78125 47.21875 15.09375 
Q 47.21875 7.46875 41.1875 3.015625 
Q 35.15625 -1.421875 24.609375 -1.421875 
Q 20.21875 -1.421875 15.453125 -0.5625 
Q 10.6875 0.296875 5.421875 2 
L 5.421875 11.28125 
Q 10.40625 8.6875 15.234375 7.390625 
Q 20.0625 6.109375 24.8125 6.109375 
Q 31.15625 6.109375 34.5625 8.28125 
Q 37.984375 10.453125 37.984375 14.40625 
Q 37.984375 18.0625 35.515625 20.015625 
Q 33.0625 21.96875 24.703125 23.78125 
L 21.578125 24.515625 
Q 13.234375 26.265625 9.515625 29.90625 
Q 5.8125 33.546875 5.8125 39.890625 
Q 5.8125 47.609375 11.28125 51.796875 
Q 16.75 56 26.8125 56 
Q 31.78125 56 36.171875 55.265625 
Q 40.578125 54.546875 44.28125 53.078125 
z
" id="DejaVuSans-115"/>
     </defs>
     <g transform="translate(227.221641 414.912344)scale(0.25 -0.25)">
      <use xlink:href="#DejaVuSans-35"/>
      <use x="83.789062" xlink:href="#DejaVuSans-32"/>
      <use x="115.576172" xlink:href="#DejaVuSans-111"/>
      <use x="176.757812" xlink:href="#DejaVuSans-102"/>
      <use x="211.962891" xlink:href="#DejaVuSans-32"/>
      <use x="243.75" xlink:href="#DejaVuSans-103"/>
      <use x="307.226562" xlink:href="#DejaVuSans-97"/>
      <use x="368.505859" xlink:href="#DejaVuSans-109"/>
      <use x="465.917969" xlink:href="#DejaVuSans-101"/>
      <use x="527.441406" xlink:href="#DejaVuSans-115"/>
     </g>
    </g>
   </g>
   <g id="matplotlib.axis_2">
    <g id="ytick_1">
     <g id="line2d_7">
      <defs>
       <path d="M 0 0 
L -3.5 0 
" id="mc0dc983bb9" style="stroke:#000000;stroke-width:0.8;"/>
      </defs>
      <g>
       <use style="stroke:#000000;stroke-width:0.8;" x="70.13" xlink:href="#mc0dc983bb9" y="352.966364"/>
      </g>
     </g>
     <g id="text_8">
      <!-- 0.0 -->
      <defs>
       <path d="M 10.6875 12.40625 
L 21 12.40625 
L 21 0 
L 10.6875 0 
z
" id="DejaVuSans-46"/>
      </defs>
      <g transform="translate(31.32375 360.564801)scale(0.2 -0.2)">
       <use xlink:href="#DejaVuSans-48"/>
       <use x="63.623047" xlink:href="#DejaVuSans-46"/>
       <use x="95.410156" xlink:href="#DejaVuSans-48"/>
      </g>
     </g>
    </g>
    <g id="ytick_2">
     <g id="line2d_8">
      <g>
       <use style="stroke:#000000;stroke-width:0.8;" x="70.13" xlink:href="#mc0dc983bb9" y="302.591818"/>
      </g>
     </g>
     <g id="text_9">
      <!-- 0.2 -->
      <g transform="translate(31.32375 310.190256)scale(0.2 -0.2)">
       <use xlink:href="#DejaVuSans-48"/>
       <use x="63.623047" xlink:href="#DejaVuSans-46"/>
       <use x="95.410156" xlink:href="#DejaVuSans-50"/>
      </g>
     </g>
    </g>
    <g id="ytick_3">
     <g id="line2d_9">
      <g>
       <use style="stroke:#000000;stroke-width:0.8;" x="70.13" xlink:href="#mc0dc983bb9" y="252.217273"/>
      </g>
     </g>
     <g id="text_10">
      <!-- 0.4 -->
      <g transform="translate(31.32375 259.81571)scale(0.2 -0.2)">
       <use xlink:href="#DejaVuSans-48"/>
       <use x="63.623047" xlink:href="#DejaVuSans-46"/>
       <use x="95.410156" xlink:href="#DejaVuSans-52"/>
      </g>
     </g>
    </g>
    <g id="ytick_4">
     <g id="line2d_10">
      <g>
       <use style="stroke:#000000;stroke-width:0.8;" x="70.13" xlink:href="#mc0dc983bb9" y="201.842727"/>
      </g>
     </g>
     <g id="text_11">
      <!-- 0.6 -->
      <defs>
       <path d="M 33.015625 40.375 
Q 26.375 40.375 22.484375 35.828125 
Q 18.609375 31.296875 18.609375 23.390625 
Q 18.609375 15.53125 22.484375 10.953125 
Q 26.375 6.390625 33.015625 6.390625 
Q 39.65625 6.390625 43.53125 10.953125 
Q 47.40625 15.53125 47.40625 23.390625 
Q 47.40625 31.296875 43.53125 35.828125 
Q 39.65625 40.375 33.015625 40.375 
z
M 52.59375 71.296875 
L 52.59375 62.3125 
Q 48.875 64.0625 45.09375 64.984375 
Q 41.3125 65.921875 37.59375 65.921875 
Q 27.828125 65.921875 22.671875 59.328125 
Q 17.53125 52.734375 16.796875 39.40625 
Q 19.671875 43.65625 24.015625 45.921875 
Q 28.375 48.1875 33.59375 48.1875 
Q 44.578125 48.1875 50.953125 41.515625 
Q 57.328125 34.859375 57.328125 23.390625 
Q 57.328125 12.15625 50.6875 5.359375 
Q 44.046875 -1.421875 33.015625 -1.421875 
Q 20.359375 -1.421875 13.671875 8.265625 
Q 6.984375 17.96875 6.984375 36.375 
Q 6.984375 53.65625 15.1875 63.9375 
Q 23.390625 74.21875 37.203125 74.21875 
Q 40.921875 74.21875 44.703125 73.484375 
Q 48.484375 72.75 52.59375 71.296875 
z
" id="DejaVuSans-54"/>
      </defs>
      <g transform="translate(31.32375 209.441165)scale(0.2 -0.2)">
       <use xlink:href="#DejaVuSans-48"/>
       <use x="63.623047" xlink:href="#DejaVuSans-46"/>
       <use x="95.410156" xlink:href="#DejaVuSans-54"/>
      </g>
     </g>
    </g>
    <g id="ytick_5">
     <g id="line2d_11">
      <g>
       <use style="stroke:#000000;stroke-width:0.8;" x="70.13" xlink:href="#mc0dc983bb9" y="151.468182"/>
      </g>
     </g>
     <g id="text_12">
      <!-- 0.8 -->
      <defs>
       <path d="M 31.78125 34.625 
Q 24.75 34.625 20.71875 30.859375 
Q 16.703125 27.09375 16.703125 20.515625 
Q 16.703125 13.921875 20.71875 10.15625 
Q 24.75 6.390625 31.78125 6.390625 
Q 38.8125 6.390625 42.859375 10.171875 
Q 46.921875 13.96875 46.921875 20.515625 
Q 46.921875 27.09375 42.890625 30.859375 
Q 38.875 34.625 31.78125 34.625 
z
M 21.921875 38.8125 
Q 15.578125 40.375 12.03125 44.71875 
Q 8.5 49.078125 8.5 55.328125 
Q 8.5 64.0625 14.71875 69.140625 
Q 20.953125 74.21875 31.78125 74.21875 
Q 42.671875 74.21875 48.875 69.140625 
Q 55.078125 64.0625 55.078125 55.328125 
Q 55.078125 49.078125 51.53125 44.71875 
Q 48 40.375 41.703125 38.8125 
Q 48.828125 37.15625 52.796875 32.3125 
Q 56.78125 27.484375 56.78125 20.515625 
Q 56.78125 9.90625 50.3125 4.234375 
Q 43.84375 -1.421875 31.78125 -1.421875 
Q 19.734375 -1.421875 13.25 4.234375 
Q 6.78125 9.90625 6.78125 20.515625 
Q 6.78125 27.484375 10.78125 32.3125 
Q 14.796875 37.15625 21.921875 38.8125 
z
M 18.3125 54.390625 
Q 18.3125 48.734375 21.84375 45.5625 
Q 25.390625 42.390625 31.78125 42.390625 
Q 38.140625 42.390625 41.71875 45.5625 
Q 45.3125 48.734375 45.3125 54.390625 
Q 45.3125 60.0625 41.71875 63.234375 
Q 38.140625 66.40625 31.78125 66.40625 
Q 25.390625 66.40625 21.84375 63.234375 
Q 18.3125 60.0625 18.3125 54.390625 
z
" id="DejaVuSans-56"/>
      </defs>
      <g transform="translate(31.32375 159.066619)scale(0.2 -0.2)">
       <use xlink:href="#DejaVuSans-48"/>
       <use x="63.623047" xlink:href="#DejaVuSans-46"/>
       <use x="95.410156" xlink:href="#DejaVuSans-56"/>
      </g>
     </g>
    </g>
    <g id="ytick_6">
     <g id="line2d_12">
      <g>
       <use style="stroke:#000000;stroke-width:0.8;" x="70.13" xlink:href="#mc0dc983bb9" y="101.093636"/>
      </g>
     </g>
     <g id="text_13">
      <!-- 1.0 -->
      <g transform="translate(31.32375 108.692074)scale(0.2 -0.2)">
       <use xlink:href="#DejaVuSans-49"/>
       <use x="63.623047" xlink:href="#DejaVuSans-46"/>
       <use x="95.410156" xlink:href="#DejaVuSans-48"/>
      </g>
     </g>
    </g>
    <g id="text_14">
     <!-- Percentage of Def strategy used -->
     <defs>
      <path d="M 19.671875 64.796875 
L 19.671875 37.40625 
L 32.078125 37.40625 
Q 38.96875 37.40625 42.71875 40.96875 
Q 46.484375 44.53125 46.484375 51.125 
Q 46.484375 57.671875 42.71875 61.234375 
Q 38.96875 64.796875 32.078125 64.796875 
z
M 9.8125 72.90625 
L 32.078125 72.90625 
Q 44.34375 72.90625 50.609375 67.359375 
Q 56.890625 61.8125 56.890625 51.125 
Q 56.890625 40.328125 50.609375 34.8125 
Q 44.34375 29.296875 32.078125 29.296875 
L 19.671875 29.296875 
L 19.671875 0 
L 9.8125 0 
z
" id="DejaVuSans-80"/>
      <path d="M 41.109375 46.296875 
Q 39.59375 47.171875 37.8125 47.578125 
Q 36.03125 48 33.890625 48 
Q 26.265625 48 22.1875 43.046875 
Q 18.109375 38.09375 18.109375 28.8125 
L 18.109375 0 
L 9.078125 0 
L 9.078125 54.6875 
L 18.109375 54.6875 
L 18.109375 46.1875 
Q 20.953125 51.171875 25.484375 53.578125 
Q 30.03125 56 36.53125 56 
Q 37.453125 56 38.578125 55.875 
Q 39.703125 55.765625 41.0625 55.515625 
z
" id="DejaVuSans-114"/>
      <path d="M 48.78125 52.59375 
L 48.78125 44.1875 
Q 44.96875 46.296875 41.140625 47.34375 
Q 37.3125 48.390625 33.40625 48.390625 
Q 24.65625 48.390625 19.8125 42.84375 
Q 14.984375 37.3125 14.984375 27.296875 
Q 14.984375 17.28125 19.8125 11.734375 
Q 24.65625 6.203125 33.40625 6.203125 
Q 37.3125 6.203125 41.140625 7.25 
Q 44.96875 8.296875 48.78125 10.40625 
L 48.78125 2.09375 
Q 45.015625 0.34375 40.984375 -0.53125 
Q 36.96875 -1.421875 32.421875 -1.421875 
Q 20.0625 -1.421875 12.78125 6.34375 
Q 5.515625 14.109375 5.515625 27.296875 
Q 5.515625 40.671875 12.859375 48.328125 
Q 20.21875 56 33.015625 56 
Q 37.15625 56 41.109375 55.140625 
Q 45.0625 54.296875 48.78125 52.59375 
z
" id="DejaVuSans-99"/>
      <path d="M 54.890625 33.015625 
L 54.890625 0 
L 45.90625 0 
L 45.90625 32.71875 
Q 45.90625 40.484375 42.875 44.328125 
Q 39.84375 48.1875 33.796875 48.1875 
Q 26.515625 48.1875 22.3125 43.546875 
Q 18.109375 38.921875 18.109375 30.90625 
L 18.109375 0 
L 9.078125 0 
L 9.078125 54.6875 
L 18.109375 54.6875 
L 18.109375 46.1875 
Q 21.34375 51.125 25.703125 53.5625 
Q 30.078125 56 35.796875 56 
Q 45.21875 56 50.046875 50.171875 
Q 54.890625 44.34375 54.890625 33.015625 
z
" id="DejaVuSans-110"/>
      <path d="M 18.3125 70.21875 
L 18.3125 54.6875 
L 36.8125 54.6875 
L 36.8125 47.703125 
L 18.3125 47.703125 
L 18.3125 18.015625 
Q 18.3125 11.328125 20.140625 9.421875 
Q 21.96875 7.515625 27.59375 7.515625 
L 36.8125 7.515625 
L 36.8125 0 
L 27.59375 0 
Q 17.1875 0 13.234375 3.875 
Q 9.28125 7.765625 9.28125 18.015625 
L 9.28125 47.703125 
L 2.6875 47.703125 
L 2.6875 54.6875 
L 9.28125 54.6875 
L 9.28125 70.21875 
z
" id="DejaVuSans-116"/>
      <path d="M 19.671875 64.796875 
L 19.671875 8.109375 
L 31.59375 8.109375 
Q 46.6875 8.109375 53.6875 14.9375 
Q 60.6875 21.78125 60.6875 36.53125 
Q 60.6875 51.171875 53.6875 57.984375 
Q 46.6875 64.796875 31.59375 64.796875 
z
M 9.8125 72.90625 
L 30.078125 72.90625 
Q 51.265625 72.90625 61.171875 64.09375 
Q 71.09375 55.28125 71.09375 36.53125 
Q 71.09375 17.671875 61.125 8.828125 
Q 51.171875 0 30.078125 0 
L 9.8125 0 
z
" id="DejaVuSans-68"/>
      <path d="M 32.171875 -5.078125 
Q 28.375 -14.84375 24.75 -17.8125 
Q 21.140625 -20.796875 15.09375 -20.796875 
L 7.90625 -20.796875 
L 7.90625 -13.28125 
L 13.1875 -13.28125 
Q 16.890625 -13.28125 18.9375 -11.515625 
Q 21 -9.765625 23.484375 -3.21875 
L 25.09375 0.875 
L 2.984375 54.6875 
L 12.5 54.6875 
L 29.59375 11.921875 
L 46.6875 54.6875 
L 56.203125 54.6875 
z
" id="DejaVuSans-121"/>
      <path d="M 8.5 21.578125 
L 8.5 54.6875 
L 17.484375 54.6875 
L 17.484375 21.921875 
Q 17.484375 14.15625 20.5 10.265625 
Q 23.53125 6.390625 29.59375 6.390625 
Q 36.859375 6.390625 41.078125 11.03125 
Q 45.3125 15.671875 45.3125 23.6875 
L 45.3125 54.6875 
L 54.296875 54.6875 
L 54.296875 0 
L 45.3125 0 
L 45.3125 8.40625 
Q 42.046875 3.421875 37.71875 1 
Q 33.40625 -1.421875 27.6875 -1.421875 
Q 18.265625 -1.421875 13.375 4.4375 
Q 8.5 10.296875 8.5 21.578125 
z
M 31.109375 56 
z
" id="DejaVuSans-117"/>
      <path d="M 45.40625 46.390625 
L 45.40625 75.984375 
L 54.390625 75.984375 
L 54.390625 0 
L 45.40625 0 
L 45.40625 8.203125 
Q 42.578125 3.328125 38.25 0.953125 
Q 33.9375 -1.421875 27.875 -1.421875 
Q 17.96875 -1.421875 11.734375 6.484375 
Q 5.515625 14.40625 5.515625 27.296875 
Q 5.515625 40.1875 11.734375 48.09375 
Q 17.96875 56 27.875 56 
Q 33.9375 56 38.25 53.625 
Q 42.578125 51.265625 45.40625 46.390625 
z
M 14.796875 27.296875 
Q 14.796875 17.390625 18.875 11.75 
Q 22.953125 6.109375 30.078125 6.109375 
Q 37.203125 6.109375 41.296875 11.75 
Q 45.40625 17.390625 45.40625 27.296875 
Q 45.40625 37.203125 41.296875 42.84375 
Q 37.203125 48.484375 30.078125 48.484375 
Q 22.953125 48.484375 18.875 42.84375 
Q 14.796875 37.203125 14.796875 27.296875 
z
" id="DejaVuSans-100"/>
     </defs>
     <g transform="translate(23.857604 362.28651)rotate(-90)scale(0.166667 -0.166667)">
      <use xlink:href="#DejaVuSans-80"/>
      <use x="60.255859" xlink:href="#DejaVuSans-101"/>
      <use x="121.779297" xlink:href="#DejaVuSans-114"/>
      <use x="162.861328" xlink:href="#DejaVuSans-99"/>
      <use x="217.841797" xlink:href="#DejaVuSans-101"/>
      <use x="279.365234" xlink:href="#DejaVuSans-110"/>
      <use x="342.744141" xlink:href="#DejaVuSans-116"/>
      <use x="381.953125" xlink:href="#DejaVuSans-97"/>
      <use x="443.232422" xlink:href="#DejaVuSans-103"/>
      <use x="506.708984" xlink:href="#DejaVuSans-101"/>
      <use x="568.232422" xlink:href="#DejaVuSans-32"/>
      <use x="600.019531" xlink:href="#DejaVuSans-111"/>
      <use x="661.201172" xlink:href="#DejaVuSans-102"/>
      <use x="696.40625" xlink:href="#DejaVuSans-32"/>
      <use x="728.193359" xlink:href="#DejaVuSans-68"/>
      <use x="805.195312" xlink:href="#DejaVuSans-101"/>
      <use x="866.71875" xlink:href="#DejaVuSans-102"/>
      <use x="901.923828" xlink:href="#DejaVuSans-32"/>
      <use x="933.710938" xlink:href="#DejaVuSans-115"/>
      <use x="985.810547" xlink:href="#DejaVuSans-116"/>
      <use x="1025.019531" xlink:href="#DejaVuSans-114"/>
      <use x="1066.132812" xlink:href="#DejaVuSans-97"/>
      <use x="1127.412109" xlink:href="#DejaVuSans-116"/>
      <use x="1166.621094" xlink:href="#DejaVuSans-101"/>
      <use x="1228.144531" xlink:href="#DejaVuSans-103"/>
      <use x="1291.621094" xlink:href="#DejaVuSans-121"/>
      <use x="1350.800781" xlink:href="#DejaVuSans-32"/>
      <use x="1382.587891" xlink:href="#DejaVuSans-117"/>
      <use x="1445.966797" xlink:href="#DejaVuSans-115"/>
      <use x="1498.066406" xlink:href="#DejaVuSans-101"/>
      <use x="1559.589844" xlink:href="#DejaVuSans-100"/>
     </g>
    </g>
   </g>
   <g id="line2d_13">
    <path clip-path="url(#p54e4934efe)" d="M 90.996818 320.982525 
L 98.318509 294.841888 
L 105.640199 292.817653 
L 112.96189 291.030447 
L 120.283581 259.04772 
L 127.605271 303.355069 
L 134.926962 283.610105 
L 142.248652 279.342028 
L 149.570343 278.191648 
L 156.892033 304.095536 
L 164.213724 301.804716 
L 171.535415 303.301319 
L 178.857105 299.753816 
L 186.178796 300.336242 
L 193.500486 304.814225 
L 200.822177 307.489343 
L 208.143868 305.314767 
L 215.465558 309.788182 
L 222.787249 320.982525 
L 230.108939 313.196986 
L 237.43063 308.33069 
L 244.752321 310.341748 
L 252.074011 315.012939 
L 259.395702 306.19 
L 266.717392 279.083697 
L 274.039083 328.478737 
L 281.360774 308.112316 
L 288.682464 324.980505 
L 296.004155 310.987576 
L 303.325845 306.848822 
L 310.647536 321.038835 
L 317.969226 310.987576 
L 325.290917 311.562628 
L 332.612608 306.19 
L 339.934298 310.987576 
L 347.255989 298.507396 
L 354.577679 316.984545 
L 361.89937 314.216713 
L 369.221061 312.34173 
L 376.542751 308.778166 
L 383.864442 333.957101 
L 391.186132 302.591818 
L 398.507823 316.984545 
L 405.829514 322.981515 
L 413.151204 286.684067 
L 420.472895 301.110214 
L 427.794585 309.540031 
L 435.116276 299.940526 
L 442.437967 321.482273 
L 449.759657 302.591818 
L 457.081348 327.779091 
L 464.403038 321.482273 
L 471.724729 269.008788 
L 479.046419 352.966364 
L 486.36811 352.966364 
L 493.689801 302.591818 
L 501.011491 352.966364 
L 508.333182 352.966364 
" style="fill:none;stroke:#1f77b4;stroke-linecap:square;stroke-width:1.5;"/>
   </g>
   <g id="line2d_14">
    <path clip-path="url(#p54e4934efe)" d="M 90.996818 320.982525 
L 98.318509 333.591538 
L 105.640199 345.447775 
L 112.96189 332.321058 
L 120.283581 340.159276 
L 127.605271 326.25259 
L 134.926962 331.064387 
L 142.248652 321.966643 
L 149.570343 317.546761 
L 156.892033 300.336242 
L 164.213724 329.353295 
L 171.535415 335.228848 
L 178.857105 345.871357 
L 186.178796 330.410597 
L 193.500486 323.334278 
L 200.822177 328.478737 
L 208.143868 312.122138 
L 215.465558 324.180909 
L 222.787249 328.978485 
L 230.108939 343.024019 
L 237.43063 321.08374 
L 244.752321 314.216713 
L 252.074011 321.913562 
L 259.395702 338.573636 
L 266.717392 342.891455 
L 274.039083 338.973434 
L 281.360774 335.714807 
L 288.682464 314.485808 
L 296.004155 321.482273 
L 303.325845 335.228848 
L 310.647536 342.323854 
L 317.969226 324.980505 
L 325.290917 315.012939 
L 332.612608 327.779091 
L 339.934298 321.482273 
L 347.255989 329.140565 
L 354.577679 327.779091 
L 361.89937 333.591538 
L 369.221061 336.71651 
L 376.542751 344.128724 
L 383.864442 310.195523 
L 391.186132 337.854 
L 398.507823 342.685844 
L 405.829514 328.978485 
L 413.151204 333.081675 
L 420.472895 345.558342 
L 427.794585 326.910564 
L 435.116276 352.966364 
L 442.437967 337.224318 
L 449.759657 302.591818 
L 457.081348 352.966364 
L 464.403038 352.966364 
L 471.724729 352.966364 
L 479.046419 352.966364 
L 486.36811 289.998182 
L 493.689801 352.966364 
L 501.011491 352.966364 
L 508.333182 352.966364 
" style="fill:none;stroke:#ff7f0e;stroke-linecap:square;stroke-width:1.5;"/>
   </g>
   <g id="line2d_15">
    <path clip-path="url(#p54e4934efe)" d="M 90.996818 320.982525 
L 98.318509 333.591538 
L 105.640199 341.68848 
L 112.96189 348.837303 
L 120.283581 348.697334 
L 127.605271 349.15011 
L 134.926962 349.316034 
L 142.248652 349.091399 
L 149.570343 349.030852 
L 156.892033 341.68848 
L 164.213724 349.030852 
L 171.535415 338.776351 
L 178.857105 335.228848 
L 186.178796 330.410597 
L 193.500486 345.558342 
L 200.822177 328.478737 
L 208.143868 335.947936 
L 215.465558 345.77 
L 222.787249 336.974444 
L 230.108939 326.453445 
L 237.43063 327.460265 
L 244.752321 329.716573 
L 252.074011 339.165118 
L 259.395702 334.975455 
L 266.717392 346.249758 
L 274.039083 328.478737 
L 281.360774 328.814184 
L 288.682464 335.475202 
L 296.004155 331.97697 
L 303.325845 335.228848 
L 310.647536 321.038835 
L 317.969226 328.478737 
L 325.290917 325.363873 
L 332.612608 331.377273 
L 339.934298 331.97697 
L 347.255989 329.140565 
L 354.577679 324.180909 
L 361.89937 318.091678 
L 369.221061 328.591584 
L 376.542751 304.359346 
L 383.864442 314.947839 
L 391.186132 322.741636 
L 398.507823 322.124805 
L 405.829514 322.981515 
L 413.151204 333.081675 
L 420.472895 330.742299 
L 427.794585 326.910564 
L 435.116276 326.453445 
L 442.437967 337.224318 
L 449.759657 327.779091 
L 457.081348 352.966364 
L 464.403038 321.482273 
L 471.724729 324.980505 
L 479.046419 352.966364 
L 486.36811 352.966364 
L 493.689801 352.966364 
L 501.011491 227.03 
L 508.333182 352.966364 
" style="fill:none;stroke:#2ca02c;stroke-linecap:square;stroke-width:1.5;"/>
   </g>
   <g id="line2d_16">
    <path clip-path="url(#p54e4934efe)" d="M 90.996818 336.974444 
L 98.318509 349.091399 
L 105.640199 349.207069 
L 112.96189 352.966364 
L 120.283581 352.966364 
L 127.605271 352.966364 
L 134.926962 352.966364 
L 142.248652 352.966364 
L 149.570343 352.966364 
L 156.892033 345.447775 
L 164.213724 341.15983 
L 171.535415 345.871357 
L 178.857105 331.681344 
L 186.178796 345.447775 
L 193.500486 341.854332 
L 200.822177 338.973434 
L 208.143868 349.562678 
L 215.465558 345.77 
L 222.787249 352.966364 
L 230.108939 336.395789 
L 237.43063 343.401577 
L 244.752321 345.216434 
L 252.074011 342.61543 
L 259.395702 352.966364 
L 266.717392 346.249758 
L 274.039083 345.969899 
L 281.360774 346.065741 
L 288.682464 349.468131 
L 296.004155 352.966364 
L 303.325845 342.323854 
L 310.647536 342.323854 
L 317.969226 352.966364 
L 325.290917 349.516052 
L 332.612608 342.171818 
L 339.934298 345.969899 
L 347.255989 352.966364 
L 354.577679 331.377273 
L 361.89937 349.091399 
L 369.221061 340.778974 
L 376.542751 352.966364 
L 383.864442 348.214048 
L 391.186132 342.891455 
L 398.507823 347.826104 
L 405.829514 346.969394 
L 413.151204 352.966364 
L 420.472895 345.558342 
L 427.794585 335.595831 
L 435.116276 339.709904 
L 442.437967 337.224318 
L 449.759657 352.966364 
L 457.081348 302.591818 
L 464.403038 352.966364 
L 471.724729 352.966364 
L 479.046419 352.966364 
L 486.36811 352.966364 
L 493.689801 352.966364 
L 501.011491 227.03 
L 508.333182 352.966364 
" style="fill:none;stroke:#d62728;stroke-linecap:square;stroke-width:1.5;"/>
   </g>
   <g id="line2d_17">
    <path clip-path="url(#p54e4934efe)" d="M 90.996818 320.982525 
L 98.318509 352.966364 
L 105.640199 352.966364 
L 112.96189 352.966364 
L 120.283581 352.966364 
L 127.605271 352.966364 
L 134.926962 352.966364 
L 142.248652 349.091399 
L 149.570343 349.030852 
L 156.892033 349.207069 
L 164.213724 345.095341 
L 171.535415 345.871357 
L 178.857105 345.871357 
L 186.178796 345.447775 
L 193.500486 338.150321 
L 200.822177 345.969899 
L 208.143868 349.562678 
L 215.465558 352.966364 
L 222.787249 340.972424 
L 230.108939 343.024019 
L 237.43063 352.966364 
L 244.752321 349.091399 
L 252.074011 349.516052 
L 259.395702 334.975455 
L 266.717392 346.249758 
L 274.039083 349.468131 
L 281.360774 342.61543 
L 288.682464 349.468131 
L 296.004155 352.966364 
L 303.325845 342.323854 
L 310.647536 335.228848 
L 317.969226 349.468131 
L 325.290917 352.966364 
L 332.612608 338.573636 
L 339.934298 349.468131 
L 347.255989 342.755307 
L 354.577679 345.77 
L 361.89937 352.966364 
L 369.221061 344.841437 
L 376.542751 348.547544 
L 383.864442 352.966364 
L 391.186132 347.928909 
L 398.507823 347.826104 
L 405.829514 346.969394 
L 413.151204 346.338134 
L 420.472895 352.966364 
L 427.794585 352.966364 
L 435.116276 352.966364 
L 442.437967 352.966364 
L 449.759657 352.966364 
L 457.081348 327.779091 
L 464.403038 352.966364 
L 471.724729 324.980505 
L 479.046419 352.966364 
L 486.36811 289.998182 
L 493.689801 352.966364 
L 501.011491 352.966364 
L 508.333182 352.966364 
" style="fill:none;stroke:#9467bd;stroke-linecap:square;stroke-width:1.5;"/>
   </g>
   <g id="line2d_18">
    <path clip-path="url(#p54e4934efe)" d="M 90.996818 336.974444 
L 98.318509 333.591538 
L 105.640199 345.447775 
L 112.96189 352.966364 
L 120.283581 348.697334 
L 127.605271 352.966364 
L 134.926962 352.966364 
L 142.248652 352.966364 
L 149.570343 349.030852 
L 156.892033 352.966364 
L 164.213724 345.095341 
L 171.535415 338.776351 
L 178.857105 335.228848 
L 186.178796 334.169891 
L 193.500486 338.150321 
L 200.822177 335.475202 
L 208.143868 335.947936 
L 215.465558 316.984545 
L 222.787249 324.980505 
L 230.108939 323.13933 
L 237.43063 321.08374 
L 244.752321 325.841608 
L 252.074011 315.012939 
L 259.395702 295.395455 
L 266.717392 319.383333 
L 274.039083 310.987576 
L 281.360774 318.46325 
L 288.682464 317.98404 
L 296.004155 314.485808 
L 303.325845 299.753816 
L 310.647536 313.943828 
L 317.969226 310.987576 
L 325.290917 321.913562 
L 332.612608 331.377273 
L 339.934298 310.987576 
L 347.255989 312.122138 
L 354.577679 320.582727 
L 361.89937 287.091958 
L 369.221061 312.34173 
L 376.542751 313.196986 
L 383.864442 310.195523 
L 391.186132 327.779091 
L 398.507823 301.563766 
L 405.829514 292.996667 
L 413.151204 319.825215 
L 420.472895 308.518235 
L 427.794585 292.169498 
L 435.116276 286.684067 
L 442.437967 305.740227 
L 449.759657 302.591818 
L 457.081348 327.779091 
L 464.403038 289.998182 
L 471.724729 352.966364 
L 479.046419 269.008788 
L 486.36811 352.966364 
L 493.689801 302.591818 
L 501.011491 352.966364 
L 508.333182 352.966364 
" style="fill:none;stroke:#8c564b;stroke-linecap:square;stroke-width:1.5;"/>
   </g>
   <g id="line2d_19">
    <path clip-path="url(#p54e4934efe)" d="M 90.996818 332.976465 
L 98.318509 337.466503 
L 105.640199 349.207069 
L 112.96189 352.966364 
L 120.283581 352.966364 
L 127.605271 352.966364 
L 134.926962 352.966364 
L 142.248652 341.341469 
L 149.570343 341.15983 
L 156.892033 337.929186 
L 164.213724 341.15983 
L 171.535415 338.776351 
L 178.857105 321.038835 
L 186.178796 334.169891 
L 193.500486 327.038289 
L 200.822177 335.475202 
L 208.143868 322.333194 
L 215.465558 331.377273 
L 222.787249 348.968384 
L 230.108939 319.825215 
L 237.43063 333.836789 
L 244.752321 341.341469 
L 252.074011 332.264496 
L 259.395702 320.582727 
L 266.717392 342.891455 
L 274.039083 307.489343 
L 281.360774 332.264496 
L 288.682464 324.980505 
L 296.004155 328.478737 
L 303.325845 321.038835 
L 310.647536 335.228848 
L 317.969226 342.471667 
L 325.290917 335.714807 
L 332.612608 324.180909 
L 339.934298 331.97697 
L 347.255989 329.140565 
L 354.577679 334.975455 
L 361.89937 321.966643 
L 369.221061 320.466657 
L 376.542751 330.872265 
L 383.864442 333.957101 
L 391.186132 327.779091 
L 398.507823 337.545584 
L 405.829514 346.969394 
L 413.151204 306.568756 
L 420.472895 323.334278 
L 427.794585 326.910564 
L 435.116276 326.453445 
L 442.437967 321.482273 
L 449.759657 352.966364 
L 457.081348 327.779091 
L 464.403038 289.998182 
L 471.724729 352.966364 
L 479.046419 352.966364 
L 486.36811 352.966364 
L 493.689801 352.966364 
L 501.011491 352.966364 
L 508.333182 352.966364 
" style="fill:none;stroke:#e377c2;stroke-linecap:square;stroke-width:1.5;"/>
   </g>
   <g id="line2d_20">
    <path clip-path="url(#p54e4934efe)" d="M 90.996818 328.978485 
L 98.318509 325.841608 
L 105.640199 296.576947 
L 112.96189 282.772325 
L 120.283581 314.5451 
L 127.605271 288.090055 
L 134.926962 290.910764 
L 142.248652 310.341748 
L 149.570343 325.417784 
L 156.892033 322.892008 
L 164.213724 313.61125 
L 171.535415 310.396325 
L 178.857105 321.038835 
L 186.178796 319.132714 
L 193.500486 338.150321 
L 200.822177 321.482273 
L 208.143868 325.73688 
L 215.465558 306.19 
L 222.787249 296.994646 
L 230.108939 329.76756 
L 237.43063 337.025052 
L 244.752321 333.591538 
L 252.074011 335.714807 
L 259.395702 342.171818 
L 266.717392 326.099939 
L 274.039083 335.475202 
L 281.360774 318.46325 
L 288.682464 335.475202 
L 296.004155 324.980505 
L 303.325845 345.871357 
L 310.647536 331.681344 
L 317.969226 317.98404 
L 325.290917 325.363873 
L 332.612608 338.573636 
L 339.934298 314.485808 
L 347.255989 342.755307 
L 354.577679 338.573636 
L 361.89937 341.341469 
L 369.221061 324.52912 
L 376.542751 322.034625 
L 383.864442 329.204786 
L 391.186132 327.779091 
L 398.507823 332.405325 
L 405.829514 328.978485 
L 413.151204 339.709904 
L 420.472895 315.926257 
L 427.794585 344.281097 
L 435.116276 339.709904 
L 442.437967 352.966364 
L 449.759657 277.404545 
L 457.081348 327.779091 
L 464.403038 321.482273 
L 471.724729 324.980505 
L 479.046419 269.008788 
L 486.36811 289.998182 
L 493.689801 352.966364 
L 501.011491 352.966364 
L 508.333182 101.093636 
" style="fill:none;stroke:#7f7f7f;stroke-linecap:square;stroke-width:1.5;"/>
   </g>
   <g id="line2d_21">
    <path clip-path="url(#p54e4934efe)" d="M 90.996818 304.990606 
L 98.318509 263.842168 
L 105.640199 251.465414 
L 112.96189 257.997958 
L 120.283581 254.77869 
L 127.605271 246.111267 
L 134.926962 258.0578 
L 142.248652 267.717133 
L 149.570343 262.449602 
L 156.892033 270.261886 
L 164.213724 258.514091 
L 171.535415 267.826287 
L 178.857105 289.111306 
L 186.178796 285.299064 
L 193.500486 267.774118 
L 200.822177 283.001717 
L 208.143868 288.296339 
L 215.465558 291.797273 
L 222.787249 273.006768 
L 230.108939 289.998182 
L 237.43063 279.636329 
L 244.752321 275.467063 
L 252.074011 273.609203 
L 259.395702 298.993636 
L 266.717392 275.725394 
L 274.039083 279.503485 
L 281.360774 294.311071 
L 288.682464 272.50702 
L 296.004155 286.499949 
L 303.325845 296.206312 
L 310.647536 282.0163 
L 317.969226 286.499949 
L 325.290917 287.410448 
L 332.612608 284.600909 
L 339.934298 307.489343 
L 347.255989 288.296339 
L 354.577679 284.600909 
L 361.89937 306.466783 
L 369.221061 304.216804 
L 376.542751 299.940526 
L 383.864442 291.186261 
L 391.186132 287.479455 
L 398.507823 275.862468 
L 405.829514 286.999697 
L 413.151204 306.568756 
L 420.472895 301.110214 
L 427.794585 309.540031 
L 435.116276 299.940526 
L 442.437967 258.514091 
L 449.759657 352.966364 
L 457.081348 277.404545 
L 464.403038 321.482273 
L 471.724729 269.008788 
L 479.046419 269.008788 
L 486.36811 289.998182 
L 493.689801 201.842727 
L 501.011491 352.966364 
L 508.333182 352.966364 
" style="fill:none;stroke:#bcbd22;stroke-linecap:square;stroke-width:1.5;"/>
   </g>
   <g id="patch_3">
    <path d="M 70.13 365.56 
L 70.13 88.5 
" style="fill:none;stroke:#000000;stroke-linecap:square;stroke-linejoin:miter;stroke-width:0.8;"/>
   </g>
   <g id="patch_4">
    <path d="M 529.2 365.56 
L 529.2 88.5 
" style="fill:none;stroke:#000000;stroke-linecap:square;stroke-linejoin:miter;stroke-width:0.8;"/>
   </g>
   <g id="patch_5">
    <path d="M 70.13 365.56 
L 529.2 365.56 
" style="fill:none;stroke:#000000;stroke-linecap:square;stroke-linejoin:miter;stroke-width:0.8;"/>
   </g>
   <g id="patch_6">
    <path d="M 70.13 88.5 
L 529.2 88.5 
" style="fill:none;stroke:#000000;stroke-linecap:square;stroke-linejoin:miter;stroke-width:0.8;"/>
   </g>
   <g id="legend_1">
    <g id="patch_7">
     <path d="M 80.63 81 
L 518.7 81 
Q 521.7 81 521.7 78 
L 521.7 13.448438 
Q 521.7 10.448438 518.7 10.448438 
L 80.63 10.448438 
Q 77.63 10.448438 77.63 13.448438 
L 77.63 78 
Q 77.63 81 80.63 81 
z
" style="fill:#ffffff;opacity:0.8;stroke:#cccccc;stroke-linejoin:miter;"/>
    </g>
    <g id="line2d_22">
     <path d="M 83.63 22.596094 
L 113.63 22.596094 
" style="fill:none;stroke:#1f77b4;stroke-linecap:square;stroke-width:1.5;"/>
    </g>
    <g id="line2d_23"/>
    <g id="text_15">
     <!-- Stra 1 -->
     <defs>
      <path d="M 53.515625 70.515625 
L 53.515625 60.890625 
Q 47.90625 63.578125 42.921875 64.890625 
Q 37.9375 66.21875 33.296875 66.21875 
Q 25.25 66.21875 20.875 63.09375 
Q 16.5 59.96875 16.5 54.203125 
Q 16.5 49.359375 19.40625 46.890625 
Q 22.3125 44.4375 30.421875 42.921875 
L 36.375 41.703125 
Q 47.40625 39.59375 52.65625 34.296875 
Q 57.90625 29 57.90625 20.125 
Q 57.90625 9.515625 50.796875 4.046875 
Q 43.703125 -1.421875 29.984375 -1.421875 
Q 24.8125 -1.421875 18.96875 -0.25 
Q 13.140625 0.921875 6.890625 3.21875 
L 6.890625 13.375 
Q 12.890625 10.015625 18.65625 8.296875 
Q 24.421875 6.59375 29.984375 6.59375 
Q 38.421875 6.59375 43.015625 9.90625 
Q 47.609375 13.234375 47.609375 19.390625 
Q 47.609375 24.75 44.3125 27.78125 
Q 41.015625 30.8125 33.5 32.328125 
L 27.484375 33.5 
Q 16.453125 35.6875 11.515625 40.375 
Q 6.59375 45.0625 6.59375 53.421875 
Q 6.59375 63.09375 13.40625 68.65625 
Q 20.21875 74.21875 32.171875 74.21875 
Q 37.3125 74.21875 42.625 73.28125 
Q 47.953125 72.359375 53.515625 70.515625 
z
" id="DejaVuSans-83"/>
     </defs>
     <g transform="translate(125.63 27.846094)scale(0.15 -0.15)">
      <use xlink:href="#DejaVuSans-83"/>
      <use x="63.476562" xlink:href="#DejaVuSans-116"/>
      <use x="102.685547" xlink:href="#DejaVuSans-114"/>
      <use x="143.798828" xlink:href="#DejaVuSans-97"/>
      <use x="205.078125" xlink:href="#DejaVuSans-32"/>
      <use x="236.865234" xlink:href="#DejaVuSans-49"/>
     </g>
    </g>
    <g id="line2d_24">
     <path d="M 83.63 44.613281 
L 113.63 44.613281 
" style="fill:none;stroke:#ff7f0e;stroke-linecap:square;stroke-width:1.5;"/>
    </g>
    <g id="line2d_25"/>
    <g id="text_16">
     <!-- Stra 2 -->
     <g transform="translate(125.63 49.863281)scale(0.15 -0.15)">
      <use xlink:href="#DejaVuSans-83"/>
      <use x="63.476562" xlink:href="#DejaVuSans-116"/>
      <use x="102.685547" xlink:href="#DejaVuSans-114"/>
      <use x="143.798828" xlink:href="#DejaVuSans-97"/>
      <use x="205.078125" xlink:href="#DejaVuSans-32"/>
      <use x="236.865234" xlink:href="#DejaVuSans-50"/>
     </g>
    </g>
    <g id="line2d_26">
     <path d="M 83.63 66.630469 
L 113.63 66.630469 
" style="fill:none;stroke:#2ca02c;stroke-linecap:square;stroke-width:1.5;"/>
    </g>
    <g id="line2d_27"/>
    <g id="text_17">
     <!-- Stra 3 -->
     <g transform="translate(125.63 71.880469)scale(0.15 -0.15)">
      <use xlink:href="#DejaVuSans-83"/>
      <use x="63.476562" xlink:href="#DejaVuSans-116"/>
      <use x="102.685547" xlink:href="#DejaVuSans-114"/>
      <use x="143.798828" xlink:href="#DejaVuSans-97"/>
      <use x="205.078125" xlink:href="#DejaVuSans-32"/>
      <use x="236.865234" xlink:href="#DejaVuSans-51"/>
     </g>
    </g>
    <g id="line2d_28">
     <path d="M 198.629115 22.596094 
L 228.629115 22.596094 
" style="fill:none;stroke:#d62728;stroke-linecap:square;stroke-width:1.5;"/>
    </g>
    <g id="line2d_29"/>
    <g id="text_18">
     <!-- Stra 4 -->
     <g transform="translate(240.629115 27.846094)scale(0.15 -0.15)">
      <use xlink:href="#DejaVuSans-83"/>
      <use x="63.476562" xlink:href="#DejaVuSans-116"/>
      <use x="102.685547" xlink:href="#DejaVuSans-114"/>
      <use x="143.798828" xlink:href="#DejaVuSans-97"/>
      <use x="205.078125" xlink:href="#DejaVuSans-32"/>
      <use x="236.865234" xlink:href="#DejaVuSans-52"/>
     </g>
    </g>
    <g id="line2d_30">
     <path d="M 198.629115 44.613281 
L 228.629115 44.613281 
" style="fill:none;stroke:#9467bd;stroke-linecap:square;stroke-width:1.5;"/>
    </g>
    <g id="line2d_31"/>
    <g id="text_19">
     <!-- Stra 5 -->
     <g transform="translate(240.629115 49.863281)scale(0.15 -0.15)">
      <use xlink:href="#DejaVuSans-83"/>
      <use x="63.476562" xlink:href="#DejaVuSans-116"/>
      <use x="102.685547" xlink:href="#DejaVuSans-114"/>
      <use x="143.798828" xlink:href="#DejaVuSans-97"/>
      <use x="205.078125" xlink:href="#DejaVuSans-32"/>
      <use x="236.865234" xlink:href="#DejaVuSans-53"/>
     </g>
    </g>
    <g id="line2d_32">
     <path d="M 313.628229 22.596094 
L 343.628229 22.596094 
" style="fill:none;stroke:#8c564b;stroke-linecap:square;stroke-width:1.5;"/>
    </g>
    <g id="line2d_33"/>
    <g id="text_20">
     <!-- Stra 6 -->
     <g transform="translate(355.628229 27.846094)scale(0.15 -0.15)">
      <use xlink:href="#DejaVuSans-83"/>
      <use x="63.476562" xlink:href="#DejaVuSans-116"/>
      <use x="102.685547" xlink:href="#DejaVuSans-114"/>
      <use x="143.798828" xlink:href="#DejaVuSans-97"/>
      <use x="205.078125" xlink:href="#DejaVuSans-32"/>
      <use x="236.865234" xlink:href="#DejaVuSans-54"/>
     </g>
    </g>
    <g id="line2d_34">
     <path d="M 313.628229 44.613281 
L 343.628229 44.613281 
" style="fill:none;stroke:#e377c2;stroke-linecap:square;stroke-width:1.5;"/>
    </g>
    <g id="line2d_35"/>
    <g id="text_21">
     <!-- Stra 7 -->
     <defs>
      <path d="M 8.203125 72.90625 
L 55.078125 72.90625 
L 55.078125 68.703125 
L 28.609375 0 
L 18.3125 0 
L 43.21875 64.59375 
L 8.203125 64.59375 
z
" id="DejaVuSans-55"/>
     </defs>
     <g transform="translate(355.628229 49.863281)scale(0.15 -0.15)">
      <use xlink:href="#DejaVuSans-83"/>
      <use x="63.476562" xlink:href="#DejaVuSans-116"/>
      <use x="102.685547" xlink:href="#DejaVuSans-114"/>
      <use x="143.798828" xlink:href="#DejaVuSans-97"/>
      <use x="205.078125" xlink:href="#DejaVuSans-32"/>
      <use x="236.865234" xlink:href="#DejaVuSans-55"/>
     </g>
    </g>
    <g id="line2d_36">
     <path d="M 428.627344 22.596094 
L 458.627344 22.596094 
" style="fill:none;stroke:#7f7f7f;stroke-linecap:square;stroke-width:1.5;"/>
    </g>
    <g id="line2d_37"/>
    <g id="text_22">
     <!-- Stra 8 -->
     <g transform="translate(470.627344 27.846094)scale(0.15 -0.15)">
      <use xlink:href="#DejaVuSans-83"/>
      <use x="63.476562" xlink:href="#DejaVuSans-116"/>
      <use x="102.685547" xlink:href="#DejaVuSans-114"/>
      <use x="143.798828" xlink:href="#DejaVuSans-97"/>
      <use x="205.078125" xlink:href="#DejaVuSans-32"/>
      <use x="236.865234" xlink:href="#DejaVuSans-56"/>
     </g>
    </g>
    <g id="line2d_38">
     <path d="M 428.627344 44.613281 
L 458.627344 44.613281 
" style="fill:none;stroke:#bcbd22;stroke-linecap:square;stroke-width:1.5;"/>
    </g>
    <g id="line2d_39"/>
    <g id="text_23">
     <!-- Stra 9 -->
     <defs>
      <path d="M 10.984375 1.515625 
L 10.984375 10.5 
Q 14.703125 8.734375 18.5 7.8125 
Q 22.3125 6.890625 25.984375 6.890625 
Q 35.75 6.890625 40.890625 13.453125 
Q 46.046875 20.015625 46.78125 33.40625 
Q 43.953125 29.203125 39.59375 26.953125 
Q 35.25 24.703125 29.984375 24.703125 
Q 19.046875 24.703125 12.671875 31.3125 
Q 6.296875 37.9375 6.296875 49.421875 
Q 6.296875 60.640625 12.9375 67.421875 
Q 19.578125 74.21875 30.609375 74.21875 
Q 43.265625 74.21875 49.921875 64.515625 
Q 56.59375 54.828125 56.59375 36.375 
Q 56.59375 19.140625 48.40625 8.859375 
Q 40.234375 -1.421875 26.421875 -1.421875 
Q 22.703125 -1.421875 18.890625 -0.6875 
Q 15.09375 0.046875 10.984375 1.515625 
z
M 30.609375 32.421875 
Q 37.25 32.421875 41.125 36.953125 
Q 45.015625 41.5 45.015625 49.421875 
Q 45.015625 57.28125 41.125 61.84375 
Q 37.25 66.40625 30.609375 66.40625 
Q 23.96875 66.40625 20.09375 61.84375 
Q 16.21875 57.28125 16.21875 49.421875 
Q 16.21875 41.5 20.09375 36.953125 
Q 23.96875 32.421875 30.609375 32.421875 
z
" id="DejaVuSans-57"/>
     </defs>
     <g transform="translate(470.627344 49.863281)scale(0.15 -0.15)">
      <use xlink:href="#DejaVuSans-83"/>
      <use x="63.476562" xlink:href="#DejaVuSans-116"/>
      <use x="102.685547" xlink:href="#DejaVuSans-114"/>
      <use x="143.798828" xlink:href="#DejaVuSans-97"/>
      <use x="205.078125" xlink:href="#DejaVuSans-32"/>
      <use x="236.865234" xlink:href="#DejaVuSans-57"/>
     </g>
    </g>
   </g>
  </g>
 </g>
 <defs>
  <clipPath id="p54e4934efe">
   <rect height="277.06" width="459.07" x="70.13" y="88.5"/>
  </clipPath>
 </defs>
</svg>
