<?xml version="1.0" encoding="utf-8" standalone="no"?>
<!DOCTYPE svg PUBLIC "-//W3C//DTD SVG 1.1//EN"
  "http://www.w3.org/Graphics/SVG/1.1/DTD/svg11.dtd">
<!-- Created with matplotlib (https://matplotlib.org/) -->
<svg height="432pt" version="1.1" viewBox="0 0 540 432" width="540pt" xmlns="http://www.w3.org/2000/svg" xmlns:xlink="http://www.w3.org/1999/xlink">
 <defs>
  <style type="text/css">
*{stroke-linecap:butt;stroke-linejoin:round;}
  </style>
 </defs>
 <g id="figure_1">
  <g id="patch_1">
   <path d="M 0 432 
L 540 432 
L 540 0 
L 0 0 
z
" style="fill:#ffffff;"/>
  </g>
  <g id="axes_1">
   <g id="patch_2">
    <path d="M 58.97 365.56 
L 511.531903 365.56 
L 511.531903 10.8 
L 58.97 10.8 
z
" style="fill:#ffffff;"/>
   </g>
   <g id="matplotlib.axis_1">
    <g id="xtick_1">
     <g id="line2d_1">
      <defs>
       <path d="M 0 0 
L 0 3.5 
" id="m86d7081fbe" style="stroke:#000000;stroke-width:0.8;"/>
      </defs>
      <g>
       <use style="stroke:#000000;stroke-width:0.8;" x="78.925097" xlink:href="#m86d7081fbe" y="365.56"/>
      </g>
     </g>
     <g id="text_1">
      <!-- 0 -->
      <defs>
       <path d="M 31.78125 66.40625 
Q 24.171875 66.40625 20.328125 58.90625 
Q 16.5 51.421875 16.5 36.375 
Q 16.5 21.390625 20.328125 13.890625 
Q 24.171875 6.390625 31.78125 6.390625 
Q 39.453125 6.390625 43.28125 13.890625 
Q 47.125 21.390625 47.125 36.375 
Q 47.125 51.421875 43.28125 58.90625 
Q 39.453125 66.40625 31.78125 66.40625 
z
M 31.78125 74.21875 
Q 44.046875 74.21875 50.515625 64.515625 
Q 56.984375 54.828125 56.984375 36.375 
Q 56.984375 17.96875 50.515625 8.265625 
Q 44.046875 -1.421875 31.78125 -1.421875 
Q 19.53125 -1.421875 13.0625 8.265625 
Q 6.59375 17.96875 6.59375 36.375 
Q 6.59375 54.828125 13.0625 64.515625 
Q 19.53125 74.21875 31.78125 74.21875 
z
" id="DejaVuSans-48"/>
      </defs>
      <g transform="translate(72.562597 387.756875)scale(0.2 -0.2)">
       <use xlink:href="#DejaVuSans-48"/>
      </g>
     </g>
    </g>
    <g id="xtick_2">
     <g id="line2d_2">
      <g>
       <use style="stroke:#000000;stroke-width:0.8;" x="140.514905" xlink:href="#m86d7081fbe" y="365.56"/>
      </g>
     </g>
     <g id="text_2">
      <!-- 100 -->
      <defs>
       <path d="M 12.40625 8.296875 
L 28.515625 8.296875 
L 28.515625 63.921875 
L 10.984375 60.40625 
L 10.984375 69.390625 
L 28.421875 72.90625 
L 38.28125 72.90625 
L 38.28125 8.296875 
L 54.390625 8.296875 
L 54.390625 0 
L 12.40625 0 
z
" id="DejaVuSans-49"/>
      </defs>
      <g transform="translate(121.427405 387.756875)scale(0.2 -0.2)">
       <use xlink:href="#DejaVuSans-49"/>
       <use x="63.623047" xlink:href="#DejaVuSans-48"/>
       <use x="127.246094" xlink:href="#DejaVuSans-48"/>
      </g>
     </g>
    </g>
    <g id="xtick_3">
     <g id="line2d_3">
      <g>
       <use style="stroke:#000000;stroke-width:0.8;" x="202.104712" xlink:href="#m86d7081fbe" y="365.56"/>
      </g>
     </g>
     <g id="text_3">
      <!-- 200 -->
      <defs>
       <path d="M 19.1875 8.296875 
L 53.609375 8.296875 
L 53.609375 0 
L 7.328125 0 
L 7.328125 8.296875 
Q 12.9375 14.109375 22.625 23.890625 
Q 32.328125 33.6875 34.8125 36.53125 
Q 39.546875 41.84375 41.421875 45.53125 
Q 43.3125 49.21875 43.3125 52.78125 
Q 43.3125 58.59375 39.234375 62.25 
Q 35.15625 65.921875 28.609375 65.921875 
Q 23.96875 65.921875 18.8125 64.3125 
Q 13.671875 62.703125 7.8125 59.421875 
L 7.8125 69.390625 
Q 13.765625 71.78125 18.9375 73 
Q 24.125 74.21875 28.421875 74.21875 
Q 39.75 74.21875 46.484375 68.546875 
Q 53.21875 62.890625 53.21875 53.421875 
Q 53.21875 48.921875 51.53125 44.890625 
Q 49.859375 40.875 45.40625 35.40625 
Q 44.1875 33.984375 37.640625 27.21875 
Q 31.109375 20.453125 19.1875 8.296875 
z
" id="DejaVuSans-50"/>
      </defs>
      <g transform="translate(183.017212 387.756875)scale(0.2 -0.2)">
       <use xlink:href="#DejaVuSans-50"/>
       <use x="63.623047" xlink:href="#DejaVuSans-48"/>
       <use x="127.246094" xlink:href="#DejaVuSans-48"/>
      </g>
     </g>
    </g>
    <g id="xtick_4">
     <g id="line2d_4">
      <g>
       <use style="stroke:#000000;stroke-width:0.8;" x="263.694519" xlink:href="#m86d7081fbe" y="365.56"/>
      </g>
     </g>
     <g id="text_4">
      <!-- 300 -->
      <defs>
       <path d="M 40.578125 39.3125 
Q 47.65625 37.796875 51.625 33 
Q 55.609375 28.21875 55.609375 21.1875 
Q 55.609375 10.40625 48.1875 4.484375 
Q 40.765625 -1.421875 27.09375 -1.421875 
Q 22.515625 -1.421875 17.65625 -0.515625 
Q 12.796875 0.390625 7.625 2.203125 
L 7.625 11.71875 
Q 11.71875 9.328125 16.59375 8.109375 
Q 21.484375 6.890625 26.8125 6.890625 
Q 36.078125 6.890625 40.9375 10.546875 
Q 45.796875 14.203125 45.796875 21.1875 
Q 45.796875 27.640625 41.28125 31.265625 
Q 36.765625 34.90625 28.71875 34.90625 
L 20.21875 34.90625 
L 20.21875 43.015625 
L 29.109375 43.015625 
Q 36.375 43.015625 40.234375 45.921875 
Q 44.09375 48.828125 44.09375 54.296875 
Q 44.09375 59.90625 40.109375 62.90625 
Q 36.140625 65.921875 28.71875 65.921875 
Q 24.65625 65.921875 20.015625 65.03125 
Q 15.375 64.15625 9.8125 62.3125 
L 9.8125 71.09375 
Q 15.4375 72.65625 20.34375 73.4375 
Q 25.25 74.21875 29.59375 74.21875 
Q 40.828125 74.21875 47.359375 69.109375 
Q 53.90625 64.015625 53.90625 55.328125 
Q 53.90625 49.265625 50.4375 45.09375 
Q 46.96875 40.921875 40.578125 39.3125 
z
" id="DejaVuSans-51"/>
      </defs>
      <g transform="translate(244.607019 387.756875)scale(0.2 -0.2)">
       <use xlink:href="#DejaVuSans-51"/>
       <use x="63.623047" xlink:href="#DejaVuSans-48"/>
       <use x="127.246094" xlink:href="#DejaVuSans-48"/>
      </g>
     </g>
    </g>
    <g id="xtick_5">
     <g id="line2d_5">
      <g>
       <use style="stroke:#000000;stroke-width:0.8;" x="325.284326" xlink:href="#m86d7081fbe" y="365.56"/>
      </g>
     </g>
     <g id="text_5">
      <!-- 400 -->
      <defs>
       <path d="M 37.796875 64.3125 
L 12.890625 25.390625 
L 37.796875 25.390625 
z
M 35.203125 72.90625 
L 47.609375 72.90625 
L 47.609375 25.390625 
L 58.015625 25.390625 
L 58.015625 17.1875 
L 47.609375 17.1875 
L 47.609375 0 
L 37.796875 0 
L 37.796875 17.1875 
L 4.890625 17.1875 
L 4.890625 26.703125 
z
" id="DejaVuSans-52"/>
      </defs>
      <g transform="translate(306.196826 387.756875)scale(0.2 -0.2)">
       <use xlink:href="#DejaVuSans-52"/>
       <use x="63.623047" xlink:href="#DejaVuSans-48"/>
       <use x="127.246094" xlink:href="#DejaVuSans-48"/>
      </g>
     </g>
    </g>
    <g id="xtick_6">
     <g id="line2d_6">
      <g>
       <use style="stroke:#000000;stroke-width:0.8;" x="386.874133" xlink:href="#m86d7081fbe" y="365.56"/>
      </g>
     </g>
     <g id="text_6">
      <!-- 500 -->
      <defs>
       <path d="M 10.796875 72.90625 
L 49.515625 72.90625 
L 49.515625 64.59375 
L 19.828125 64.59375 
L 19.828125 46.734375 
Q 21.96875 47.46875 24.109375 47.828125 
Q 26.265625 48.1875 28.421875 48.1875 
Q 40.625 48.1875 47.75 41.5 
Q 54.890625 34.8125 54.890625 23.390625 
Q 54.890625 11.625 47.5625 5.09375 
Q 40.234375 -1.421875 26.90625 -1.421875 
Q 22.3125 -1.421875 17.546875 -0.640625 
Q 12.796875 0.140625 7.71875 1.703125 
L 7.71875 11.625 
Q 12.109375 9.234375 16.796875 8.0625 
Q 21.484375 6.890625 26.703125 6.890625 
Q 35.15625 6.890625 40.078125 11.328125 
Q 45.015625 15.765625 45.015625 23.390625 
Q 45.015625 31 40.078125 35.4375 
Q 35.15625 39.890625 26.703125 39.890625 
Q 22.75 39.890625 18.8125 39.015625 
Q 14.890625 38.140625 10.796875 36.28125 
z
" id="DejaVuSans-53"/>
      </defs>
      <g transform="translate(367.786633 387.756875)scale(0.2 -0.2)">
       <use xlink:href="#DejaVuSans-53"/>
       <use x="63.623047" xlink:href="#DejaVuSans-48"/>
       <use x="127.246094" xlink:href="#DejaVuSans-48"/>
      </g>
     </g>
    </g>
    <g id="xtick_7">
     <g id="line2d_7">
      <g>
       <use style="stroke:#000000;stroke-width:0.8;" x="448.46394" xlink:href="#m86d7081fbe" y="365.56"/>
      </g>
     </g>
     <g id="text_7">
      <!-- 600 -->
      <defs>
       <path d="M 33.015625 40.375 
Q 26.375 40.375 22.484375 35.828125 
Q 18.609375 31.296875 18.609375 23.390625 
Q 18.609375 15.53125 22.484375 10.953125 
Q 26.375 6.390625 33.015625 6.390625 
Q 39.65625 6.390625 43.53125 10.953125 
Q 47.40625 15.53125 47.40625 23.390625 
Q 47.40625 31.296875 43.53125 35.828125 
Q 39.65625 40.375 33.015625 40.375 
z
M 52.59375 71.296875 
L 52.59375 62.3125 
Q 48.875 64.0625 45.09375 64.984375 
Q 41.3125 65.921875 37.59375 65.921875 
Q 27.828125 65.921875 22.671875 59.328125 
Q 17.53125 52.734375 16.796875 39.40625 
Q 19.671875 43.65625 24.015625 45.921875 
Q 28.375 48.1875 33.59375 48.1875 
Q 44.578125 48.1875 50.953125 41.515625 
Q 57.328125 34.859375 57.328125 23.390625 
Q 57.328125 12.15625 50.6875 5.359375 
Q 44.046875 -1.421875 33.015625 -1.421875 
Q 20.359375 -1.421875 13.671875 8.265625 
Q 6.984375 17.96875 6.984375 36.375 
Q 6.984375 53.65625 15.1875 63.9375 
Q 23.390625 74.21875 37.203125 74.21875 
Q 40.921875 74.21875 44.703125 73.484375 
Q 48.484375 72.75 52.59375 71.296875 
z
" id="DejaVuSans-54"/>
      </defs>
      <g transform="translate(429.37644 387.756875)scale(0.2 -0.2)">
       <use xlink:href="#DejaVuSans-54"/>
       <use x="63.623047" xlink:href="#DejaVuSans-48"/>
       <use x="127.246094" xlink:href="#DejaVuSans-48"/>
      </g>
     </g>
    </g>
    <g id="xtick_8">
     <g id="line2d_8">
      <g>
       <use style="stroke:#000000;stroke-width:0.8;" x="510.053747" xlink:href="#m86d7081fbe" y="365.56"/>
      </g>
     </g>
     <g id="text_8">
      <!-- 700 -->
      <defs>
       <path d="M 8.203125 72.90625 
L 55.078125 72.90625 
L 55.078125 68.703125 
L 28.609375 0 
L 18.3125 0 
L 43.21875 64.59375 
L 8.203125 64.59375 
z
" id="DejaVuSans-55"/>
      </defs>
      <g transform="translate(490.966247 387.756875)scale(0.2 -0.2)">
       <use xlink:href="#DejaVuSans-55"/>
       <use x="63.623047" xlink:href="#DejaVuSans-48"/>
       <use x="127.246094" xlink:href="#DejaVuSans-48"/>
      </g>
     </g>
    </g>
    <g id="text_9">
     <!-- # of games -->
     <defs>
      <path d="M 51.125 44 
L 36.921875 44 
L 32.8125 27.6875 
L 47.125 27.6875 
z
M 43.796875 71.78125 
L 38.71875 51.515625 
L 52.984375 51.515625 
L 58.109375 71.78125 
L 65.921875 71.78125 
L 60.890625 51.515625 
L 76.125 51.515625 
L 76.125 44 
L 58.984375 44 
L 54.984375 27.6875 
L 70.515625 27.6875 
L 70.515625 20.21875 
L 53.078125 20.21875 
L 48 0 
L 40.1875 0 
L 45.21875 20.21875 
L 30.90625 20.21875 
L 25.875 0 
L 18.015625 0 
L 23.09375 20.21875 
L 7.71875 20.21875 
L 7.71875 27.6875 
L 24.90625 27.6875 
L 29 44 
L 13.28125 44 
L 13.28125 51.515625 
L 30.90625 51.515625 
L 35.890625 71.78125 
z
" id="DejaVuSans-35"/>
      <path id="DejaVuSans-32"/>
      <path d="M 30.609375 48.390625 
Q 23.390625 48.390625 19.1875 42.75 
Q 14.984375 37.109375 14.984375 27.296875 
Q 14.984375 17.484375 19.15625 11.84375 
Q 23.34375 6.203125 30.609375 6.203125 
Q 37.796875 6.203125 41.984375 11.859375 
Q 46.1875 17.53125 46.1875 27.296875 
Q 46.1875 37.015625 41.984375 42.703125 
Q 37.796875 48.390625 30.609375 48.390625 
z
M 30.609375 56 
Q 42.328125 56 49.015625 48.375 
Q 55.71875 40.765625 55.71875 27.296875 
Q 55.71875 13.875 49.015625 6.21875 
Q 42.328125 -1.421875 30.609375 -1.421875 
Q 18.84375 -1.421875 12.171875 6.21875 
Q 5.515625 13.875 5.515625 27.296875 
Q 5.515625 40.765625 12.171875 48.375 
Q 18.84375 56 30.609375 56 
z
" id="DejaVuSans-111"/>
      <path d="M 37.109375 75.984375 
L 37.109375 68.5 
L 28.515625 68.5 
Q 23.6875 68.5 21.796875 66.546875 
Q 19.921875 64.59375 19.921875 59.515625 
L 19.921875 54.6875 
L 34.71875 54.6875 
L 34.71875 47.703125 
L 19.921875 47.703125 
L 19.921875 0 
L 10.890625 0 
L 10.890625 47.703125 
L 2.296875 47.703125 
L 2.296875 54.6875 
L 10.890625 54.6875 
L 10.890625 58.5 
Q 10.890625 67.625 15.140625 71.796875 
Q 19.390625 75.984375 28.609375 75.984375 
z
" id="DejaVuSans-102"/>
      <path d="M 45.40625 27.984375 
Q 45.40625 37.75 41.375 43.109375 
Q 37.359375 48.484375 30.078125 48.484375 
Q 22.859375 48.484375 18.828125 43.109375 
Q 14.796875 37.75 14.796875 27.984375 
Q 14.796875 18.265625 18.828125 12.890625 
Q 22.859375 7.515625 30.078125 7.515625 
Q 37.359375 7.515625 41.375 12.890625 
Q 45.40625 18.265625 45.40625 27.984375 
z
M 54.390625 6.78125 
Q 54.390625 -7.171875 48.1875 -13.984375 
Q 42 -20.796875 29.203125 -20.796875 
Q 24.46875 -20.796875 20.265625 -20.09375 
Q 16.0625 -19.390625 12.109375 -17.921875 
L 12.109375 -9.1875 
Q 16.0625 -11.328125 19.921875 -12.34375 
Q 23.78125 -13.375 27.78125 -13.375 
Q 36.625 -13.375 41.015625 -8.765625 
Q 45.40625 -4.15625 45.40625 5.171875 
L 45.40625 9.625 
Q 42.625 4.78125 38.28125 2.390625 
Q 33.9375 0 27.875 0 
Q 17.828125 0 11.671875 7.65625 
Q 5.515625 15.328125 5.515625 27.984375 
Q 5.515625 40.671875 11.671875 48.328125 
Q 17.828125 56 27.875 56 
Q 33.9375 56 38.28125 53.609375 
Q 42.625 51.21875 45.40625 46.390625 
L 45.40625 54.6875 
L 54.390625 54.6875 
z
" id="DejaVuSans-103"/>
      <path d="M 34.28125 27.484375 
Q 23.390625 27.484375 19.1875 25 
Q 14.984375 22.515625 14.984375 16.5 
Q 14.984375 11.71875 18.140625 8.90625 
Q 21.296875 6.109375 26.703125 6.109375 
Q 34.1875 6.109375 38.703125 11.40625 
Q 43.21875 16.703125 43.21875 25.484375 
L 43.21875 27.484375 
z
M 52.203125 31.203125 
L 52.203125 0 
L 43.21875 0 
L 43.21875 8.296875 
Q 40.140625 3.328125 35.546875 0.953125 
Q 30.953125 -1.421875 24.3125 -1.421875 
Q 15.921875 -1.421875 10.953125 3.296875 
Q 6 8.015625 6 15.921875 
Q 6 25.140625 12.171875 29.828125 
Q 18.359375 34.515625 30.609375 34.515625 
L 43.21875 34.515625 
L 43.21875 35.40625 
Q 43.21875 41.609375 39.140625 45 
Q 35.0625 48.390625 27.6875 48.390625 
Q 23 48.390625 18.546875 47.265625 
Q 14.109375 46.140625 10.015625 43.890625 
L 10.015625 52.203125 
Q 14.9375 54.109375 19.578125 55.046875 
Q 24.21875 56 28.609375 56 
Q 40.484375 56 46.34375 49.84375 
Q 52.203125 43.703125 52.203125 31.203125 
z
" id="DejaVuSans-97"/>
      <path d="M 52 44.1875 
Q 55.375 50.25 60.0625 53.125 
Q 64.75 56 71.09375 56 
Q 79.640625 56 84.28125 50.015625 
Q 88.921875 44.046875 88.921875 33.015625 
L 88.921875 0 
L 79.890625 0 
L 79.890625 32.71875 
Q 79.890625 40.578125 77.09375 44.375 
Q 74.3125 48.1875 68.609375 48.1875 
Q 61.625 48.1875 57.5625 43.546875 
Q 53.515625 38.921875 53.515625 30.90625 
L 53.515625 0 
L 44.484375 0 
L 44.484375 32.71875 
Q 44.484375 40.625 41.703125 44.40625 
Q 38.921875 48.1875 33.109375 48.1875 
Q 26.21875 48.1875 22.15625 43.53125 
Q 18.109375 38.875 18.109375 30.90625 
L 18.109375 0 
L 9.078125 0 
L 9.078125 54.6875 
L 18.109375 54.6875 
L 18.109375 46.1875 
Q 21.1875 51.21875 25.484375 53.609375 
Q 29.78125 56 35.6875 56 
Q 41.65625 56 45.828125 52.96875 
Q 50 49.953125 52 44.1875 
z
" id="DejaVuSans-109"/>
      <path d="M 56.203125 29.59375 
L 56.203125 25.203125 
L 14.890625 25.203125 
Q 15.484375 15.921875 20.484375 11.0625 
Q 25.484375 6.203125 34.421875 6.203125 
Q 39.59375 6.203125 44.453125 7.46875 
Q 49.3125 8.734375 54.109375 11.28125 
L 54.109375 2.78125 
Q 49.265625 0.734375 44.1875 -0.34375 
Q 39.109375 -1.421875 33.890625 -1.421875 
Q 20.796875 -1.421875 13.15625 6.1875 
Q 5.515625 13.8125 5.515625 26.8125 
Q 5.515625 40.234375 12.765625 48.109375 
Q 20.015625 56 32.328125 56 
Q 43.359375 56 49.78125 48.890625 
Q 56.203125 41.796875 56.203125 29.59375 
z
M 47.21875 32.234375 
Q 47.125 39.59375 43.09375 43.984375 
Q 39.0625 48.390625 32.421875 48.390625 
Q 24.90625 48.390625 20.390625 44.140625 
Q 15.875 39.890625 15.1875 32.171875 
z
" id="DejaVuSans-101"/>
      <path d="M 44.28125 53.078125 
L 44.28125 44.578125 
Q 40.484375 46.53125 36.375 47.5 
Q 32.28125 48.484375 27.875 48.484375 
Q 21.1875 48.484375 17.84375 46.4375 
Q 14.5 44.390625 14.5 40.28125 
Q 14.5 37.15625 16.890625 35.375 
Q 19.28125 33.59375 26.515625 31.984375 
L 29.59375 31.296875 
Q 39.15625 29.25 43.1875 25.515625 
Q 47.21875 21.78125 47.21875 15.09375 
Q 47.21875 7.46875 41.1875 3.015625 
Q 35.15625 -1.421875 24.609375 -1.421875 
Q 20.21875 -1.421875 15.453125 -0.5625 
Q 10.6875 0.296875 5.421875 2 
L 5.421875 11.28125 
Q 10.40625 8.6875 15.234375 7.390625 
Q 20.0625 6.109375 24.8125 6.109375 
Q 31.15625 6.109375 34.5625 8.28125 
Q 37.984375 10.453125 37.984375 14.40625 
Q 37.984375 18.0625 35.515625 20.015625 
Q 33.0625 21.96875 24.703125 23.78125 
L 21.578125 24.515625 
Q 13.234375 26.265625 9.515625 29.90625 
Q 5.8125 33.546875 5.8125 39.890625 
Q 5.8125 47.609375 11.28125 51.796875 
Q 16.75 56 26.8125 56 
Q 31.78125 56 36.171875 55.265625 
Q 40.578125 54.546875 44.28125 53.078125 
z
" id="DejaVuSans-115"/>
     </defs>
     <g transform="translate(212.807592 414.912344)scale(0.25 -0.25)">
      <use xlink:href="#DejaVuSans-35"/>
      <use x="83.789062" xlink:href="#DejaVuSans-32"/>
      <use x="115.576172" xlink:href="#DejaVuSans-111"/>
      <use x="176.757812" xlink:href="#DejaVuSans-102"/>
      <use x="211.962891" xlink:href="#DejaVuSans-32"/>
      <use x="243.75" xlink:href="#DejaVuSans-103"/>
      <use x="307.226562" xlink:href="#DejaVuSans-97"/>
      <use x="368.505859" xlink:href="#DejaVuSans-109"/>
      <use x="465.917969" xlink:href="#DejaVuSans-101"/>
      <use x="527.441406" xlink:href="#DejaVuSans-115"/>
     </g>
    </g>
   </g>
   <g id="matplotlib.axis_2">
    <g id="ytick_1">
     <g id="line2d_9">
      <defs>
       <path d="M 0 0 
L -3.5 0 
" id="m9af2d6df42" style="stroke:#000000;stroke-width:0.8;"/>
      </defs>
      <g>
       <use style="stroke:#000000;stroke-width:0.8;" x="58.97" xlink:href="#m9af2d6df42" y="349.434545"/>
      </g>
     </g>
     <g id="text_10">
      <!-- 1 -->
      <g transform="translate(39.245 357.032983)scale(0.2 -0.2)">
       <use xlink:href="#DejaVuSans-49"/>
      </g>
     </g>
    </g>
    <g id="ytick_2">
     <g id="line2d_10">
      <g>
       <use style="stroke:#000000;stroke-width:0.8;" x="58.97" xlink:href="#m9af2d6df42" y="309.120909"/>
      </g>
     </g>
     <g id="text_11">
      <!-- 2 -->
      <g transform="translate(39.245 316.719347)scale(0.2 -0.2)">
       <use xlink:href="#DejaVuSans-50"/>
      </g>
     </g>
    </g>
    <g id="ytick_3">
     <g id="line2d_11">
      <g>
       <use style="stroke:#000000;stroke-width:0.8;" x="58.97" xlink:href="#m9af2d6df42" y="268.807273"/>
      </g>
     </g>
     <g id="text_12">
      <!-- 3 -->
      <g transform="translate(39.245 276.40571)scale(0.2 -0.2)">
       <use xlink:href="#DejaVuSans-51"/>
      </g>
     </g>
    </g>
    <g id="ytick_4">
     <g id="line2d_12">
      <g>
       <use style="stroke:#000000;stroke-width:0.8;" x="58.97" xlink:href="#m9af2d6df42" y="228.493636"/>
      </g>
     </g>
     <g id="text_13">
      <!-- 4 -->
      <g transform="translate(39.245 236.092074)scale(0.2 -0.2)">
       <use xlink:href="#DejaVuSans-52"/>
      </g>
     </g>
    </g>
    <g id="ytick_5">
     <g id="line2d_13">
      <g>
       <use style="stroke:#000000;stroke-width:0.8;" x="58.97" xlink:href="#m9af2d6df42" y="188.18"/>
      </g>
     </g>
     <g id="text_14">
      <!-- 5 -->
      <g transform="translate(39.245 195.778437)scale(0.2 -0.2)">
       <use xlink:href="#DejaVuSans-53"/>
      </g>
     </g>
    </g>
    <g id="ytick_6">
     <g id="line2d_14">
      <g>
       <use style="stroke:#000000;stroke-width:0.8;" x="58.97" xlink:href="#m9af2d6df42" y="147.866364"/>
      </g>
     </g>
     <g id="text_15">
      <!-- 6 -->
      <g transform="translate(39.245 155.464801)scale(0.2 -0.2)">
       <use xlink:href="#DejaVuSans-54"/>
      </g>
     </g>
    </g>
    <g id="ytick_7">
     <g id="line2d_15">
      <g>
       <use style="stroke:#000000;stroke-width:0.8;" x="58.97" xlink:href="#m9af2d6df42" y="107.552727"/>
      </g>
     </g>
     <g id="text_16">
      <!-- 7 -->
      <g transform="translate(39.245 115.151165)scale(0.2 -0.2)">
       <use xlink:href="#DejaVuSans-55"/>
      </g>
     </g>
    </g>
    <g id="ytick_8">
     <g id="line2d_16">
      <g>
       <use style="stroke:#000000;stroke-width:0.8;" x="58.97" xlink:href="#m9af2d6df42" y="67.239091"/>
      </g>
     </g>
     <g id="text_17">
      <!-- 8 -->
      <defs>
       <path d="M 31.78125 34.625 
Q 24.75 34.625 20.71875 30.859375 
Q 16.703125 27.09375 16.703125 20.515625 
Q 16.703125 13.921875 20.71875 10.15625 
Q 24.75 6.390625 31.78125 6.390625 
Q 38.8125 6.390625 42.859375 10.171875 
Q 46.921875 13.96875 46.921875 20.515625 
Q 46.921875 27.09375 42.890625 30.859375 
Q 38.875 34.625 31.78125 34.625 
z
M 21.921875 38.8125 
Q 15.578125 40.375 12.03125 44.71875 
Q 8.5 49.078125 8.5 55.328125 
Q 8.5 64.0625 14.71875 69.140625 
Q 20.953125 74.21875 31.78125 74.21875 
Q 42.671875 74.21875 48.875 69.140625 
Q 55.078125 64.0625 55.078125 55.328125 
Q 55.078125 49.078125 51.53125 44.71875 
Q 48 40.375 41.703125 38.8125 
Q 48.828125 37.15625 52.796875 32.3125 
Q 56.78125 27.484375 56.78125 20.515625 
Q 56.78125 9.90625 50.3125 4.234375 
Q 43.84375 -1.421875 31.78125 -1.421875 
Q 19.734375 -1.421875 13.25 4.234375 
Q 6.78125 9.90625 6.78125 20.515625 
Q 6.78125 27.484375 10.78125 32.3125 
Q 14.796875 37.15625 21.921875 38.8125 
z
M 18.3125 54.390625 
Q 18.3125 48.734375 21.84375 45.5625 
Q 25.390625 42.390625 31.78125 42.390625 
Q 38.140625 42.390625 41.71875 45.5625 
Q 45.3125 48.734375 45.3125 54.390625 
Q 45.3125 60.0625 41.71875 63.234375 
Q 38.140625 66.40625 31.78125 66.40625 
Q 25.390625 66.40625 21.84375 63.234375 
Q 18.3125 60.0625 18.3125 54.390625 
z
" id="DejaVuSans-56"/>
      </defs>
      <g transform="translate(39.245 74.837528)scale(0.2 -0.2)">
       <use xlink:href="#DejaVuSans-56"/>
      </g>
     </g>
    </g>
    <g id="ytick_9">
     <g id="line2d_17">
      <g>
       <use style="stroke:#000000;stroke-width:0.8;" x="58.97" xlink:href="#m9af2d6df42" y="26.925455"/>
      </g>
     </g>
     <g id="text_18">
      <!-- 9 -->
      <defs>
       <path d="M 10.984375 1.515625 
L 10.984375 10.5 
Q 14.703125 8.734375 18.5 7.8125 
Q 22.3125 6.890625 25.984375 6.890625 
Q 35.75 6.890625 40.890625 13.453125 
Q 46.046875 20.015625 46.78125 33.40625 
Q 43.953125 29.203125 39.59375 26.953125 
Q 35.25 24.703125 29.984375 24.703125 
Q 19.046875 24.703125 12.671875 31.3125 
Q 6.296875 37.9375 6.296875 49.421875 
Q 6.296875 60.640625 12.9375 67.421875 
Q 19.578125 74.21875 30.609375 74.21875 
Q 43.265625 74.21875 49.921875 64.515625 
Q 56.59375 54.828125 56.59375 36.375 
Q 56.59375 19.140625 48.40625 8.859375 
Q 40.234375 -1.421875 26.421875 -1.421875 
Q 22.703125 -1.421875 18.890625 -0.6875 
Q 15.09375 0.046875 10.984375 1.515625 
z
M 30.609375 32.421875 
Q 37.25 32.421875 41.125 36.953125 
Q 45.015625 41.5 45.015625 49.421875 
Q 45.015625 57.28125 41.125 61.84375 
Q 37.25 66.40625 30.609375 66.40625 
Q 23.96875 66.40625 20.09375 61.84375 
Q 16.21875 57.28125 16.21875 49.421875 
Q 16.21875 41.5 20.09375 36.953125 
Q 23.96875 32.421875 30.609375 32.421875 
z
" id="DejaVuSans-57"/>
      </defs>
      <g transform="translate(39.245 34.523892)scale(0.2 -0.2)">
       <use xlink:href="#DejaVuSans-57"/>
      </g>
     </g>
    </g>
    <g id="text_19">
     <!-- Averaged DHEU -->
     <defs>
      <path d="M 34.1875 63.1875 
L 20.796875 26.90625 
L 47.609375 26.90625 
z
M 28.609375 72.90625 
L 39.796875 72.90625 
L 67.578125 0 
L 57.328125 0 
L 50.6875 18.703125 
L 17.828125 18.703125 
L 11.1875 0 
L 0.78125 0 
z
" id="DejaVuSans-65"/>
      <path d="M 2.984375 54.6875 
L 12.5 54.6875 
L 29.59375 8.796875 
L 46.6875 54.6875 
L 56.203125 54.6875 
L 35.6875 0 
L 23.484375 0 
z
" id="DejaVuSans-118"/>
      <path d="M 41.109375 46.296875 
Q 39.59375 47.171875 37.8125 47.578125 
Q 36.03125 48 33.890625 48 
Q 26.265625 48 22.1875 43.046875 
Q 18.109375 38.09375 18.109375 28.8125 
L 18.109375 0 
L 9.078125 0 
L 9.078125 54.6875 
L 18.109375 54.6875 
L 18.109375 46.1875 
Q 20.953125 51.171875 25.484375 53.578125 
Q 30.03125 56 36.53125 56 
Q 37.453125 56 38.578125 55.875 
Q 39.703125 55.765625 41.0625 55.515625 
z
" id="DejaVuSans-114"/>
      <path d="M 45.40625 46.390625 
L 45.40625 75.984375 
L 54.390625 75.984375 
L 54.390625 0 
L 45.40625 0 
L 45.40625 8.203125 
Q 42.578125 3.328125 38.25 0.953125 
Q 33.9375 -1.421875 27.875 -1.421875 
Q 17.96875 -1.421875 11.734375 6.484375 
Q 5.515625 14.40625 5.515625 27.296875 
Q 5.515625 40.1875 11.734375 48.09375 
Q 17.96875 56 27.875 56 
Q 33.9375 56 38.25 53.625 
Q 42.578125 51.265625 45.40625 46.390625 
z
M 14.796875 27.296875 
Q 14.796875 17.390625 18.875 11.75 
Q 22.953125 6.109375 30.078125 6.109375 
Q 37.203125 6.109375 41.296875 11.75 
Q 45.40625 17.390625 45.40625 27.296875 
Q 45.40625 37.203125 41.296875 42.84375 
Q 37.203125 48.484375 30.078125 48.484375 
Q 22.953125 48.484375 18.875 42.84375 
Q 14.796875 37.203125 14.796875 27.296875 
z
" id="DejaVuSans-100"/>
      <path d="M 19.671875 64.796875 
L 19.671875 8.109375 
L 31.59375 8.109375 
Q 46.6875 8.109375 53.6875 14.9375 
Q 60.6875 21.78125 60.6875 36.53125 
Q 60.6875 51.171875 53.6875 57.984375 
Q 46.6875 64.796875 31.59375 64.796875 
z
M 9.8125 72.90625 
L 30.078125 72.90625 
Q 51.265625 72.90625 61.171875 64.09375 
Q 71.09375 55.28125 71.09375 36.53125 
Q 71.09375 17.671875 61.125 8.828125 
Q 51.171875 0 30.078125 0 
L 9.8125 0 
z
" id="DejaVuSans-68"/>
      <path d="M 9.8125 72.90625 
L 19.671875 72.90625 
L 19.671875 43.015625 
L 55.515625 43.015625 
L 55.515625 72.90625 
L 65.375 72.90625 
L 65.375 0 
L 55.515625 0 
L 55.515625 34.71875 
L 19.671875 34.71875 
L 19.671875 0 
L 9.8125 0 
z
" id="DejaVuSans-72"/>
      <path d="M 9.8125 72.90625 
L 55.90625 72.90625 
L 55.90625 64.59375 
L 19.671875 64.59375 
L 19.671875 43.015625 
L 54.390625 43.015625 
L 54.390625 34.71875 
L 19.671875 34.71875 
L 19.671875 8.296875 
L 56.78125 8.296875 
L 56.78125 0 
L 9.8125 0 
z
" id="DejaVuSans-69"/>
      <path d="M 8.6875 72.90625 
L 18.609375 72.90625 
L 18.609375 28.609375 
Q 18.609375 16.890625 22.84375 11.734375 
Q 27.09375 6.59375 36.625 6.59375 
Q 46.09375 6.59375 50.34375 11.734375 
Q 54.59375 16.890625 54.59375 28.609375 
L 54.59375 72.90625 
L 64.5 72.90625 
L 64.5 27.390625 
Q 64.5 13.140625 57.4375 5.859375 
Q 50.390625 -1.421875 36.625 -1.421875 
Q 22.796875 -1.421875 15.734375 5.859375 
Q 8.6875 13.140625 8.6875 27.390625 
z
" id="DejaVuSans-85"/>
     </defs>
     <g transform="translate(30.045781 288.217109)rotate(-90)scale(0.25 -0.25)">
      <use xlink:href="#DejaVuSans-65"/>
      <use x="68.330078" xlink:href="#DejaVuSans-118"/>
      <use x="127.509766" xlink:href="#DejaVuSans-101"/>
      <use x="189.033203" xlink:href="#DejaVuSans-114"/>
      <use x="230.146484" xlink:href="#DejaVuSans-97"/>
      <use x="291.425781" xlink:href="#DejaVuSans-103"/>
      <use x="354.902344" xlink:href="#DejaVuSans-101"/>
      <use x="416.425781" xlink:href="#DejaVuSans-100"/>
      <use x="479.902344" xlink:href="#DejaVuSans-32"/>
      <use x="511.689453" xlink:href="#DejaVuSans-68"/>
      <use x="588.691406" xlink:href="#DejaVuSans-72"/>
      <use x="663.886719" xlink:href="#DejaVuSans-69"/>
      <use x="727.070312" xlink:href="#DejaVuSans-85"/>
     </g>
    </g>
   </g>
   <g id="line2d_18">
    <path clip-path="url(#p79928fdcdd)" d="M 79.540996 236.556364 
L 80.156894 204.320114 
L 80.772792 223.656 
L 81.38869 181.729818 
L 82.004588 184.985205 
L 82.620486 175.300866 
L 83.236384 175.298386 
L 83.852282 194.666678 
L 84.46818 197.892791 
L 85.084078 165.610663 
L 85.699976 152.780574 
L 86.315874 162.462796 
L 86.931772 133.514407 
L 87.54767 159.185955 
L 88.163569 168.97529 
L 88.779467 159.238436 
L 89.395365 155.981617 
L 90.011263 168.958848 
L 90.627161 136.686311 
L 91.243059 139.864192 
L 91.858957 152.763062 
L 92.474855 149.646275 
L 93.090753 162.408292 
L 93.706651 168.909141 
L 94.322549 156.044639 
L 94.938447 162.595269 
L 95.554345 165.733435 
L 96.170243 149.551859 
L 96.786142 168.898547 
L 97.40204 152.848237 
L 98.017938 185.027757 
L 98.633836 136.735318 
L 99.249734 139.982589 
L 100.48153 152.744182 
L 101.097428 156.137849 
L 101.713326 152.728005 
L 102.945122 133.426644 
L 103.56102 152.830444 
L 104.176918 159.235699 
L 104.792816 162.429227 
L 105.408715 152.766402 
L 106.024613 152.748995 
L 106.640511 130.194856 
L 107.256409 143.046921 
L 108.488205 162.438779 
L 109.104103 162.462519 
L 109.720001 146.293648 
L 110.335899 165.57944 
L 110.951797 146.302123 
L 111.567695 139.866435 
L 112.183593 162.453892 
L 112.799491 178.517678 
L 113.415389 159.247556 
L 114.031288 155.927376 
L 114.647186 165.658141 
L 115.263084 143.115415 
L 115.878982 152.807713 
L 116.49488 155.978964 
L 117.110778 175.31635 
L 117.726676 168.899181 
L 118.342574 152.788127 
L 118.958472 155.926854 
L 120.190268 168.967378 
L 120.806166 143.194492 
L 121.422064 146.298267 
L 122.037962 168.845263 
L 122.653861 156.105392 
L 123.269759 162.440025 
L 123.885657 130.205036 
L 124.501555 152.72653 
L 125.117453 152.753889 
L 125.733351 159.161926 
L 126.349249 162.551228 
L 126.965147 143.04806 
L 127.581045 152.824678 
L 128.196943 146.350831 
L 128.812841 133.351201 
L 129.428739 143.053281 
L 130.044637 162.403444 
L 130.660535 155.985292 
L 131.276434 175.289753 
L 131.892332 139.925648 
L 132.50823 155.913896 
L 133.740026 168.878318 
L 134.355924 165.604751 
L 134.971822 146.440778 
L 135.58772 159.184112 
L 136.203618 143.128558 
L 136.819516 152.70871 
L 137.435414 139.825038 
L 138.051312 159.211372 
L 138.66721 172.091254 
L 139.283108 152.792154 
L 139.899007 172.087804 
L 140.514905 143.336936 
L 141.130803 178.597606 
L 141.746701 162.390963 
L 142.362599 139.84298 
L 142.978497 159.217456 
L 143.594395 123.667418 
L 144.210293 159.22691 
L 144.826191 156.214293 
L 145.442089 162.415611 
L 146.057987 152.790208 
L 147.289783 152.764333 
L 147.905681 123.823657 
L 148.52158 159.217185 
L 149.137478 165.61312 
L 149.753376 152.812467 
L 150.369274 136.666113 
L 150.985172 136.970949 
L 151.60107 146.418774 
L 152.216968 165.702756 
L 152.832866 136.644192 
L 153.448764 165.73148 
L 154.064662 168.989253 
L 154.68056 146.359325 
L 155.912356 152.807134 
L 156.528254 149.607864 
L 157.144153 165.763584 
L 157.760051 159.232209 
L 158.991847 165.649955 
L 159.607745 139.794152 
L 160.223643 136.688085 
L 160.839541 162.501 
L 161.455439 130.156758 
L 162.071337 152.785567 
L 162.687235 156.03236 
L 163.303133 162.460324 
L 163.919031 139.949366 
L 164.534929 136.703151 
L 165.150827 146.242899 
L 166.382624 159.139165 
L 166.998522 120.470568 
L 167.61442 136.535273 
L 168.230318 168.919179 
L 168.846216 152.727657 
L 169.462114 168.880416 
L 170.078012 149.53019 
L 170.69391 168.960743 
L 171.309808 159.200084 
L 171.925706 143.046385 
L 172.541604 172.176793 
L 173.157502 136.596162 
L 173.7734 159.178761 
L 174.389299 136.74268 
L 175.005197 152.707978 
L 175.621095 123.78294 
L 176.236993 149.524032 
L 176.852891 136.681818 
L 177.468789 143.105291 
L 178.084687 155.935786 
L 178.700585 159.161676 
L 179.316483 146.365113 
L 179.932381 165.667528 
L 180.548279 175.326626 
L 181.164177 130.169421 
L 181.780075 159.21197 
L 182.395973 136.721776 
L 183.011871 146.2956 
L 183.62777 146.234555 
L 184.243668 162.463915 
L 184.859566 159.264324 
L 185.475464 143.047494 
L 186.091362 143.014666 
L 186.70726 149.520148 
L 187.323158 130.220692 
L 187.939056 126.930693 
L 188.554954 159.14595 
L 189.170852 159.161583 
L 189.78675 123.839761 
L 190.402648 162.372844 
L 191.018546 149.494241 
L 191.634444 149.481794 
L 192.250343 149.629907 
L 192.866241 152.779571 
L 193.482139 130.25456 
L 194.098037 152.757013 
L 194.713935 146.262214 
L 195.329833 159.533348 
L 195.945731 139.881941 
L 196.561629 162.433514 
L 197.177527 130.175543 
L 197.793425 123.676201 
L 198.409323 143.071681 
L 199.025221 129.011059 
L 199.641119 135.592066 
L 200.872916 155.293948 
L 201.488814 158.655774 
L 202.104712 132.29173 
L 202.72061 132.328259 
L 203.336508 161.952673 
L 203.952406 161.895119 
L 204.568304 168.516266 
L 205.184202 155.475239 
L 205.8001 135.600122 
L 206.415998 142.144234 
L 207.031896 171.73596 
L 208.263692 115.764013 
L 208.87959 161.970782 
L 209.495489 151.23951 
L 210.111387 174.863607 
L 210.727285 151.328863 
L 211.343183 154.592292 
L 211.959081 134.415963 
L 212.574979 151.294227 
L 213.190877 157.99346 
L 213.806775 171.587469 
L 214.422673 147.951734 
L 215.038571 148.111113 
L 215.654469 174.724853 
L 216.270367 134.554417 
L 216.886265 144.510775 
L 217.502163 144.570925 
L 218.118062 124.337143 
L 218.73396 161.288884 
L 219.349858 161.257757 
L 219.965756 141.137194 
L 220.581654 151.245987 
L 221.197552 141.291602 
L 221.81345 174.802478 
L 222.429348 157.998967 
L 223.045246 154.744491 
L 223.661144 194.908177 
L 224.277042 137.774438 
L 224.89294 168.06379 
L 225.508838 154.528295 
L 226.124736 134.571531 
L 226.740635 151.277531 
L 227.356533 161.248963 
L 227.972431 121.033862 
L 228.588329 127.736717 
L 229.204227 117.656284 
L 229.820125 147.920396 
L 230.436023 151.241051 
L 231.051921 147.911527 
L 231.667819 168.068444 
L 232.283717 131.218773 
L 232.899615 157.939467 
L 233.515513 158.020728 
L 234.131411 137.827438 
L 234.747309 161.340384 
L 235.363208 147.928112 
L 235.979106 141.210256 
L 237.210902 154.60658 
L 237.8268 147.949323 
L 239.058596 161.319202 
L 239.674494 131.129821 
L 240.290392 127.790734 
L 240.90629 164.688108 
L 241.522188 131.17993 
L 242.138086 144.552742 
L 242.753984 154.664295 
L 243.369882 140.16354 
L 243.985781 143.644727 
L 244.601679 140.169287 
L 245.217577 157.250633 
L 245.833475 136.776083 
L 246.449373 147.048885 
L 247.065271 136.725653 
L 247.681169 160.693076 
L 248.297067 146.949498 
L 248.912965 160.154017 
L 249.528863 163.652985 
L 250.144761 111.027296 
L 250.760659 121.608901 
L 251.376557 153.18969 
L 251.992455 139.113172 
L 252.608354 149.646045 
L 253.224252 121.631489 
L 253.84015 156.587366 
L 254.456048 128.539867 
L 255.071946 153.126297 
L 255.687844 146.108395 
L 256.303742 135.6454 
L 256.91964 156.596154 
L 257.535538 142.581172 
L 258.151436 167.203368 
L 258.767334 142.584489 
L 259.383232 142.635099 
L 259.99913 146.136739 
L 260.615028 177.618271 
L 261.230927 132.11726 
L 262.462723 153.110495 
L 263.078621 146.175268 
L 264.310417 153.214011 
L 264.926315 132.054214 
L 265.542213 174.192542 
L 266.158111 146.155112 
L 266.774009 153.11702 
L 267.389907 125.180767 
L 268.005805 146.211894 
L 268.621703 134.391314 
L 269.237601 181.027946 
L 269.8535 169.884843 
L 270.469398 136.949438 
L 271.085296 162.656055 
L 271.701194 144.243616 
L 272.317092 180.851554 
L 273.548888 122.255141 
L 274.164786 158.875323 
L 274.780684 147.878788 
L 275.396582 144.276746 
L 276.01248 133.259879 
L 276.628378 133.297322 
L 277.244276 147.895485 
L 277.860174 124.436145 
L 278.476072 142.1048 
L 279.091971 129.209128 
L 279.707869 129.24665 
L 280.323767 141.078291 
L 280.939665 133.127429 
L 281.555563 147.988259 
L 282.171461 147.917092 
L 282.787359 151.957091 
L 283.403257 159.234609 
L 284.019155 126.200755 
L 284.635053 141.725616 
L 285.250951 144.639032 
L 285.866849 175.187074 
L 286.482747 148.018023 
L 287.098645 151.384641 
L 287.714544 165.167331 
L 288.330442 151.367974 
L 288.94634 132.91245 
L 289.562238 165.163925 
L 290.178136 151.434471 
L 290.794034 146.709507 
L 291.409932 151.453209 
L 292.02583 119.164425 
L 292.641728 151.408829 
L 293.873524 168.717185 
L 294.489422 149.046306 
L 295.10532 154.24967 
L 295.721218 124.763057 
L 296.337117 173.549891 
L 296.953015 168.723339 
L 297.568913 154.00318 
L 298.184811 158.881846 
L 298.800709 134.620265 
L 299.416607 163.71455 
L 300.032505 114.93228 
L 300.648403 139.297168 
L 301.264301 151.778373 
L 301.880199 123.728867 
L 302.496097 161.381903 
L 303.111995 147.96972 
L 303.727893 151.229379 
L 304.343791 175.457546 
L 305.575588 123.699085 
L 306.191486 155.891658 
L 306.807384 162.513429 
L 307.423282 174.425362 
L 308.03918 160.154074 
L 308.655078 181.405606 
L 309.270976 151.473807 
L 309.886874 144.161349 
L 310.502772 142.146891 
L 311.11867 149.752193 
L 311.734568 142.091537 
L 312.350466 165.24413 
L 312.966364 128.79929 
L 313.582263 154.268156 
L 314.198161 137.26129 
L 314.814059 137.315865 
L 315.429957 137.245183 
L 316.045855 154.153796 
L 316.661753 134.496274 
L 317.277651 169.192262 
L 317.893549 159.798651 
L 318.509447 131.4678 
L 319.125345 159.718915 
L 319.741243 169.203815 
L 320.357141 159.886972 
L 320.973039 140.786597 
L 321.588937 159.777099 
L 322.204836 127.766032 
L 322.820734 137.789379 
L 323.436632 166.699551 
L 324.05253 134.59133 
L 324.668428 166.71103 
L 325.284326 177.470144 
L 325.900224 153.721332 
L 326.516122 165.175847 
L 327.13202 153.660185 
L 327.747918 130.577572 
L 328.363816 142.210976 
L 329.595612 142.217173 
L 330.21151 119.080493 
L 330.827409 165.153225 
L 331.443307 142.069111 
L 332.059205 138.618544 
L 332.675103 101.453885 
L 333.291001 138.634885 
L 333.906899 126.208989 
L 334.522797 138.836948 
L 335.138695 101.511537 
L 335.754593 150.963925 
L 336.370491 175.833433 
L 336.986389 121.074303 
L 337.602287 161.375601 
L 338.218185 147.857432 
L 338.834083 121.554185 
L 339.449982 158.917231 
L 340.06588 188.322742 
L 340.681778 123.657284 
L 341.297676 172.133823 
L 341.913574 123.741589 
L 342.529472 123.795341 
L 343.14537 172.100792 
L 343.761268 155.887238 
L 344.377166 172.012674 
L 344.993064 91.441816 
L 345.608962 156.043599 
L 346.22486 139.886638 
L 346.840758 156.024073 
L 347.456656 139.788638 
L 348.072555 204.61558 
L 348.688453 152.32496 
L 349.304351 170.288131 
L 349.920249 87.485252 
L 350.536147 168.113066 
L 351.152045 147.809393 
L 351.767943 168.106531 
L 352.383841 107.668367 
L 352.999739 168.125115 
L 353.615637 147.870489 
L 354.231535 167.959079 
L 354.847433 127.636304 
L 355.463331 147.704561 
L 356.079229 127.657637 
L 356.695128 188.130823 
L 357.311026 167.971656 
L 357.926924 211.147937 
L 358.542822 72.972677 
L 359.15872 119.083706 
L 359.774618 188.251445 
L 361.006414 142.135279 
L 361.622312 188.256865 
L 362.23821 134.432735 
L 362.854108 241.905567 
L 363.470006 107.498578 
L 364.085904 134.447513 
L 364.701802 81.010639 
L 365.317701 134.391635 
L 365.933599 134.406469 
L 366.549497 188.195757 
L 367.165395 80.680771 
L 368.397191 134.280514 
L 369.013089 134.603423 
L 369.628987 161.249522 
L 370.244885 134.322248 
L 370.860783 161.230582 
L 372.092579 161.142763 
L 372.708477 134.452376 
L 373.324375 214.956166 
L 373.940274 214.866625 
L 374.556172 188.1063 
L 375.17207 107.515878 
L 375.787968 107.658467 
L 376.403866 107.548454 
L 377.019764 161.230543 
L 377.635662 188.060254 
L 378.25156 107.479028 
L 378.867458 215.067706 
L 379.483356 91.372017 
L 380.099254 188.080525 
L 380.715152 123.678182 
L 381.33105 220.331434 
L 381.946948 123.633962 
L 382.562846 155.91419 
L 383.178745 91.427273 
L 383.794643 155.829616 
L 384.410541 124.038038 
L 385.642337 188.119617 
L 386.258235 155.842654 
L 387.490031 155.81174 
L 388.105929 91.465988 
L 388.721827 155.86042 
L 389.337725 188.130795 
L 389.953623 228.499631 
L 390.569521 147.789886 
L 391.185419 188.028808 
L 391.801318 134.493299 
L 392.417216 188.183127 
L 393.033114 26.925455 
L 393.649012 107.516062 
L 394.26491 107.760498 
L 394.880808 268.819495 
L 395.496706 188.06997 
L 396.112604 188.06997 
L 396.728502 107.516062 
L 397.3444 188.143335 
L 399.192094 188.143335 
L 401.039789 188.143335 
L 401.655687 27.09656 
L 402.271585 268.807273 
L 402.887483 26.925455 
L 404.119279 188.18 
L 404.735177 188.18 
L 405.351075 26.925455 
L 405.966973 187.922111 
L 406.582871 188.18 
L 407.198769 26.925455 
L 407.814667 349.434545 
L 408.430565 26.925455 
L 409.046464 187.793475 
L 409.662362 188.670937 
L 410.27826 187.793475 
L 410.894158 188.670937 
L 411.510056 187.793475 
L 412.125954 348.661495 
L 412.741852 26.925455 
L 413.35775 187.793475 
L 413.973648 187.793475 
L 414.589546 26.925455 
L 415.205444 26.925455 
L 415.821342 187.793475 
L 419.516731 187.793475 
L 420.132629 26.925455 
L 421.364425 26.925455 
L 421.980323 187.793475 
L 423.212119 187.793475 
L 423.828017 188.573441 
L 424.443915 187.793475 
L 425.059813 27.071698 
L 425.675711 187.793475 
L 426.29161 187.793475 
L 426.907508 26.925455 
L 427.523406 187.793475 
L 428.139304 26.925455 
L 428.755202 187.793475 
L 429.3711 26.925455 
L 429.986998 187.793475 
L 430.602896 26.925455 
L 431.218794 187.793475 
L 431.834692 26.925455 
L 432.45059 187.695686 
L 433.066488 187.695686 
L 433.682386 26.925455 
L 434.298284 187.939573 
L 434.914183 187.695686 
L 435.530081 26.974232 
L 436.145979 188.037214 
L 436.761877 188.037214 
L 437.377775 26.925455 
L 437.993673 26.974232 
L 438.609571 187.939573 
L 439.225469 187.939573 
L 439.841367 26.974232 
L 440.457265 187.695686 
L 441.073163 26.974232 
L 441.689061 26.925455 
L 442.304959 188.037214 
L 442.920857 26.925455 
L 443.536756 187.793475 
L 444.152654 26.925455 
L 444.768552 188.037214 
L 445.38445 26.925455 
L 446.000348 26.925455 
L 446.616246 187.695686 
L 447.232144 26.974232 
L 447.848042 187.793475 
L 448.46394 26.925455 
L 449.079838 188.037214 
L 449.695736 187.793475 
L 450.927532 187.793475 
L 451.54343 26.925455 
L 452.159329 187.695686 
L 452.775227 188.037128 
L 453.391125 188.037128 
L 454.007023 187.695686 
L 454.622921 27.023009 
L 455.238819 187.793475 
L 455.854717 188.13471 
L 456.470615 187.793475 
L 457.086513 187.988467 
L 457.702411 349.434545 
L 458.318309 188.448132 
L 458.934207 188.106233 
L 459.550105 26.925455 
L 460.166003 26.925455 
L 460.781902 188.106233 
L 461.3978 26.925455 
L 462.013698 188.106233 
L 462.629596 188.301604 
L 463.245494 26.925455 
L 463.861392 188.106233 
L 464.47729 26.925455 
L 465.093188 188.106233 
L 465.709086 188.252761 
L 466.324984 349.434545 
L 467.55678 26.925455 
L 468.172678 188.18 
L 469.404475 188.18 
L 470.020373 27.120915 
L 470.636271 188.18 
L 471.252169 26.925455 
L 471.868067 26.925455 
L 472.483965 188.18 
L 473.099863 26.925455 
L 473.715761 188.18 
L 474.331659 189.54822 
L 474.947557 26.925455 
L 475.563455 26.925455 
L 476.179353 187.959807 
L 477.411149 187.959807 
L 478.027047 26.925455 
L 478.642946 187.812678 
L 479.258844 189.184015 
L 479.874742 189.184015 
L 480.49064 187.812678 
L 481.106538 188.253464 
L 481.722436 188.84118 
L 482.338334 27.219312 
L 482.954232 188.18 
L 483.57013 26.925455 
L 484.186028 26.925455 
L 485.417824 349.434545 
L 486.033722 190.257707 
L 486.64962 188.106669 
L 487.265519 27.512101 
L 487.881417 188.18 
L 489.113213 188.18 
L 489.729111 27.07205 
L 490.960907 349.434545 
L 490.960907 349.434545 
" style="fill:none;stroke:#1f77b4;stroke-linecap:square;stroke-width:1.5;"/>
   </g>
   <g id="patch_3">
    <path d="M 58.97 365.56 
L 58.97 10.8 
" style="fill:none;stroke:#000000;stroke-linecap:square;stroke-linejoin:miter;stroke-width:0.8;"/>
   </g>
   <g id="patch_4">
    <path d="M 511.531903 365.56 
L 511.531903 10.8 
" style="fill:none;stroke:#000000;stroke-linecap:square;stroke-linejoin:miter;stroke-width:0.8;"/>
   </g>
   <g id="patch_5">
    <path d="M 58.97 365.56 
L 511.531903 365.56 
" style="fill:none;stroke:#000000;stroke-linecap:square;stroke-linejoin:miter;stroke-width:0.8;"/>
   </g>
   <g id="patch_6">
    <path d="M 58.97 10.8 
L 511.531903 10.8 
" style="fill:none;stroke:#000000;stroke-linecap:square;stroke-linejoin:miter;stroke-width:0.8;"/>
   </g>
  </g>
 </g>
 <defs>
  <clipPath id="p79928fdcdd">
   <rect height="354.76" width="452.561903" x="58.97" y="10.8"/>
  </clipPath>
 </defs>
</svg>
