<?xml version="1.0" encoding="utf-8" standalone="no"?>
<!DOCTYPE svg PUBLIC "-//W3C//DTD SVG 1.1//EN"
  "http://www.w3.org/Graphics/SVG/1.1/DTD/svg11.dtd">
<!-- Created with matplotlib (https://matplotlib.org/) -->
<svg height="432pt" version="1.1" viewBox="0 0 540 432" width="540pt" xmlns="http://www.w3.org/2000/svg" xmlns:xlink="http://www.w3.org/1999/xlink">
 <defs>
  <style type="text/css">
*{stroke-linecap:butt;stroke-linejoin:round;}
  </style>
 </defs>
 <g id="figure_1">
  <g id="patch_1">
   <path d="M 0 432 
L 540 432 
L 540 0 
L 0 0 
z
" style="fill:#ffffff;"/>
  </g>
  <g id="axes_1">
   <g id="patch_2">
    <path d="M 63.74 365.56 
L 529.187727 365.56 
L 529.187727 66.6 
L 63.74 66.6 
z
" style="fill:#ffffff;"/>
   </g>
   <g id="matplotlib.axis_1">
    <g id="xtick_1">
     <g id="line2d_1">
      <defs>
       <path d="M 0 0 
L 0 3.5 
" id="m2698bed8b9" style="stroke:#000000;stroke-width:0.8;"/>
      </defs>
      <g>
       <use style="stroke:#000000;stroke-width:0.8;" x="84.896715" xlink:href="#m2698bed8b9" y="365.56"/>
      </g>
     </g>
     <g id="text_1">
      <!-- 0 -->
      <defs>
       <path d="M 31.78125 66.40625 
Q 24.171875 66.40625 20.328125 58.90625 
Q 16.5 51.421875 16.5 36.375 
Q 16.5 21.390625 20.328125 13.890625 
Q 24.171875 6.390625 31.78125 6.390625 
Q 39.453125 6.390625 43.28125 13.890625 
Q 47.125 21.390625 47.125 36.375 
Q 47.125 51.421875 43.28125 58.90625 
Q 39.453125 66.40625 31.78125 66.40625 
z
M 31.78125 74.21875 
Q 44.046875 74.21875 50.515625 64.515625 
Q 56.984375 54.828125 56.984375 36.375 
Q 56.984375 17.96875 50.515625 8.265625 
Q 44.046875 -1.421875 31.78125 -1.421875 
Q 19.53125 -1.421875 13.0625 8.265625 
Q 6.59375 17.96875 6.59375 36.375 
Q 6.59375 54.828125 13.0625 64.515625 
Q 19.53125 74.21875 31.78125 74.21875 
z
" id="DejaVuSans-48"/>
      </defs>
      <g transform="translate(78.534215 387.756875)scale(0.2 -0.2)">
       <use xlink:href="#DejaVuSans-48"/>
      </g>
     </g>
    </g>
    <g id="xtick_2">
     <g id="line2d_2">
      <g>
       <use style="stroke:#000000;stroke-width:0.8;" x="169.523574" xlink:href="#m2698bed8b9" y="365.56"/>
      </g>
     </g>
     <g id="text_2">
      <!-- 50 -->
      <defs>
       <path d="M 10.796875 72.90625 
L 49.515625 72.90625 
L 49.515625 64.59375 
L 19.828125 64.59375 
L 19.828125 46.734375 
Q 21.96875 47.46875 24.109375 47.828125 
Q 26.265625 48.1875 28.421875 48.1875 
Q 40.625 48.1875 47.75 41.5 
Q 54.890625 34.8125 54.890625 23.390625 
Q 54.890625 11.625 47.5625 5.09375 
Q 40.234375 -1.421875 26.90625 -1.421875 
Q 22.3125 -1.421875 17.546875 -0.640625 
Q 12.796875 0.140625 7.71875 1.703125 
L 7.71875 11.625 
Q 12.109375 9.234375 16.796875 8.0625 
Q 21.484375 6.890625 26.703125 6.890625 
Q 35.15625 6.890625 40.078125 11.328125 
Q 45.015625 15.765625 45.015625 23.390625 
Q 45.015625 31 40.078125 35.4375 
Q 35.15625 39.890625 26.703125 39.890625 
Q 22.75 39.890625 18.8125 39.015625 
Q 14.890625 38.140625 10.796875 36.28125 
z
" id="DejaVuSans-53"/>
      </defs>
      <g transform="translate(156.798574 387.756875)scale(0.2 -0.2)">
       <use xlink:href="#DejaVuSans-53"/>
       <use x="63.623047" xlink:href="#DejaVuSans-48"/>
      </g>
     </g>
    </g>
    <g id="xtick_3">
     <g id="line2d_3">
      <g>
       <use style="stroke:#000000;stroke-width:0.8;" x="254.150434" xlink:href="#m2698bed8b9" y="365.56"/>
      </g>
     </g>
     <g id="text_3">
      <!-- 100 -->
      <defs>
       <path d="M 12.40625 8.296875 
L 28.515625 8.296875 
L 28.515625 63.921875 
L 10.984375 60.40625 
L 10.984375 69.390625 
L 28.421875 72.90625 
L 38.28125 72.90625 
L 38.28125 8.296875 
L 54.390625 8.296875 
L 54.390625 0 
L 12.40625 0 
z
" id="DejaVuSans-49"/>
      </defs>
      <g transform="translate(235.062934 387.756875)scale(0.2 -0.2)">
       <use xlink:href="#DejaVuSans-49"/>
       <use x="63.623047" xlink:href="#DejaVuSans-48"/>
       <use x="127.246094" xlink:href="#DejaVuSans-48"/>
      </g>
     </g>
    </g>
    <g id="xtick_4">
     <g id="line2d_4">
      <g>
       <use style="stroke:#000000;stroke-width:0.8;" x="338.777293" xlink:href="#m2698bed8b9" y="365.56"/>
      </g>
     </g>
     <g id="text_4">
      <!-- 150 -->
      <g transform="translate(319.689793 387.756875)scale(0.2 -0.2)">
       <use xlink:href="#DejaVuSans-49"/>
       <use x="63.623047" xlink:href="#DejaVuSans-53"/>
       <use x="127.246094" xlink:href="#DejaVuSans-48"/>
      </g>
     </g>
    </g>
    <g id="xtick_5">
     <g id="line2d_5">
      <g>
       <use style="stroke:#000000;stroke-width:0.8;" x="423.404153" xlink:href="#m2698bed8b9" y="365.56"/>
      </g>
     </g>
     <g id="text_5">
      <!-- 200 -->
      <defs>
       <path d="M 19.1875 8.296875 
L 53.609375 8.296875 
L 53.609375 0 
L 7.328125 0 
L 7.328125 8.296875 
Q 12.9375 14.109375 22.625 23.890625 
Q 32.328125 33.6875 34.8125 36.53125 
Q 39.546875 41.84375 41.421875 45.53125 
Q 43.3125 49.21875 43.3125 52.78125 
Q 43.3125 58.59375 39.234375 62.25 
Q 35.15625 65.921875 28.609375 65.921875 
Q 23.96875 65.921875 18.8125 64.3125 
Q 13.671875 62.703125 7.8125 59.421875 
L 7.8125 69.390625 
Q 13.765625 71.78125 18.9375 73 
Q 24.125 74.21875 28.421875 74.21875 
Q 39.75 74.21875 46.484375 68.546875 
Q 53.21875 62.890625 53.21875 53.421875 
Q 53.21875 48.921875 51.53125 44.890625 
Q 49.859375 40.875 45.40625 35.40625 
Q 44.1875 33.984375 37.640625 27.21875 
Q 31.109375 20.453125 19.1875 8.296875 
z
" id="DejaVuSans-50"/>
      </defs>
      <g transform="translate(404.316653 387.756875)scale(0.2 -0.2)">
       <use xlink:href="#DejaVuSans-50"/>
       <use x="63.623047" xlink:href="#DejaVuSans-48"/>
       <use x="127.246094" xlink:href="#DejaVuSans-48"/>
      </g>
     </g>
    </g>
    <g id="xtick_6">
     <g id="line2d_6">
      <g>
       <use style="stroke:#000000;stroke-width:0.8;" x="508.031012" xlink:href="#m2698bed8b9" y="365.56"/>
      </g>
     </g>
     <g id="text_6">
      <!-- 250 -->
      <g transform="translate(488.943512 387.756875)scale(0.2 -0.2)">
       <use xlink:href="#DejaVuSans-50"/>
       <use x="63.623047" xlink:href="#DejaVuSans-53"/>
       <use x="127.246094" xlink:href="#DejaVuSans-48"/>
      </g>
     </g>
    </g>
    <g id="text_7">
     <!-- # of games -->
     <defs>
      <path d="M 51.125 44 
L 36.921875 44 
L 32.8125 27.6875 
L 47.125 27.6875 
z
M 43.796875 71.78125 
L 38.71875 51.515625 
L 52.984375 51.515625 
L 58.109375 71.78125 
L 65.921875 71.78125 
L 60.890625 51.515625 
L 76.125 51.515625 
L 76.125 44 
L 58.984375 44 
L 54.984375 27.6875 
L 70.515625 27.6875 
L 70.515625 20.21875 
L 53.078125 20.21875 
L 48 0 
L 40.1875 0 
L 45.21875 20.21875 
L 30.90625 20.21875 
L 25.875 0 
L 18.015625 0 
L 23.09375 20.21875 
L 7.71875 20.21875 
L 7.71875 27.6875 
L 24.90625 27.6875 
L 29 44 
L 13.28125 44 
L 13.28125 51.515625 
L 30.90625 51.515625 
L 35.890625 71.78125 
z
" id="DejaVuSans-35"/>
      <path id="DejaVuSans-32"/>
      <path d="M 30.609375 48.390625 
Q 23.390625 48.390625 19.1875 42.75 
Q 14.984375 37.109375 14.984375 27.296875 
Q 14.984375 17.484375 19.15625 11.84375 
Q 23.34375 6.203125 30.609375 6.203125 
Q 37.796875 6.203125 41.984375 11.859375 
Q 46.1875 17.53125 46.1875 27.296875 
Q 46.1875 37.015625 41.984375 42.703125 
Q 37.796875 48.390625 30.609375 48.390625 
z
M 30.609375 56 
Q 42.328125 56 49.015625 48.375 
Q 55.71875 40.765625 55.71875 27.296875 
Q 55.71875 13.875 49.015625 6.21875 
Q 42.328125 -1.421875 30.609375 -1.421875 
Q 18.84375 -1.421875 12.171875 6.21875 
Q 5.515625 13.875 5.515625 27.296875 
Q 5.515625 40.765625 12.171875 48.375 
Q 18.84375 56 30.609375 56 
z
" id="DejaVuSans-111"/>
      <path d="M 37.109375 75.984375 
L 37.109375 68.5 
L 28.515625 68.5 
Q 23.6875 68.5 21.796875 66.546875 
Q 19.921875 64.59375 19.921875 59.515625 
L 19.921875 54.6875 
L 34.71875 54.6875 
L 34.71875 47.703125 
L 19.921875 47.703125 
L 19.921875 0 
L 10.890625 0 
L 10.890625 47.703125 
L 2.296875 47.703125 
L 2.296875 54.6875 
L 10.890625 54.6875 
L 10.890625 58.5 
Q 10.890625 67.625 15.140625 71.796875 
Q 19.390625 75.984375 28.609375 75.984375 
z
" id="DejaVuSans-102"/>
      <path d="M 45.40625 27.984375 
Q 45.40625 37.75 41.375 43.109375 
Q 37.359375 48.484375 30.078125 48.484375 
Q 22.859375 48.484375 18.828125 43.109375 
Q 14.796875 37.75 14.796875 27.984375 
Q 14.796875 18.265625 18.828125 12.890625 
Q 22.859375 7.515625 30.078125 7.515625 
Q 37.359375 7.515625 41.375 12.890625 
Q 45.40625 18.265625 45.40625 27.984375 
z
M 54.390625 6.78125 
Q 54.390625 -7.171875 48.1875 -13.984375 
Q 42 -20.796875 29.203125 -20.796875 
Q 24.46875 -20.796875 20.265625 -20.09375 
Q 16.0625 -19.390625 12.109375 -17.921875 
L 12.109375 -9.1875 
Q 16.0625 -11.328125 19.921875 -12.34375 
Q 23.78125 -13.375 27.78125 -13.375 
Q 36.625 -13.375 41.015625 -8.765625 
Q 45.40625 -4.15625 45.40625 5.171875 
L 45.40625 9.625 
Q 42.625 4.78125 38.28125 2.390625 
Q 33.9375 0 27.875 0 
Q 17.828125 0 11.671875 7.65625 
Q 5.515625 15.328125 5.515625 27.984375 
Q 5.515625 40.671875 11.671875 48.328125 
Q 17.828125 56 27.875 56 
Q 33.9375 56 38.28125 53.609375 
Q 42.625 51.21875 45.40625 46.390625 
L 45.40625 54.6875 
L 54.390625 54.6875 
z
" id="DejaVuSans-103"/>
      <path d="M 34.28125 27.484375 
Q 23.390625 27.484375 19.1875 25 
Q 14.984375 22.515625 14.984375 16.5 
Q 14.984375 11.71875 18.140625 8.90625 
Q 21.296875 6.109375 26.703125 6.109375 
Q 34.1875 6.109375 38.703125 11.40625 
Q 43.21875 16.703125 43.21875 25.484375 
L 43.21875 27.484375 
z
M 52.203125 31.203125 
L 52.203125 0 
L 43.21875 0 
L 43.21875 8.296875 
Q 40.140625 3.328125 35.546875 0.953125 
Q 30.953125 -1.421875 24.3125 -1.421875 
Q 15.921875 -1.421875 10.953125 3.296875 
Q 6 8.015625 6 15.921875 
Q 6 25.140625 12.171875 29.828125 
Q 18.359375 34.515625 30.609375 34.515625 
L 43.21875 34.515625 
L 43.21875 35.40625 
Q 43.21875 41.609375 39.140625 45 
Q 35.0625 48.390625 27.6875 48.390625 
Q 23 48.390625 18.546875 47.265625 
Q 14.109375 46.140625 10.015625 43.890625 
L 10.015625 52.203125 
Q 14.9375 54.109375 19.578125 55.046875 
Q 24.21875 56 28.609375 56 
Q 40.484375 56 46.34375 49.84375 
Q 52.203125 43.703125 52.203125 31.203125 
z
" id="DejaVuSans-97"/>
      <path d="M 52 44.1875 
Q 55.375 50.25 60.0625 53.125 
Q 64.75 56 71.09375 56 
Q 79.640625 56 84.28125 50.015625 
Q 88.921875 44.046875 88.921875 33.015625 
L 88.921875 0 
L 79.890625 0 
L 79.890625 32.71875 
Q 79.890625 40.578125 77.09375 44.375 
Q 74.3125 48.1875 68.609375 48.1875 
Q 61.625 48.1875 57.5625 43.546875 
Q 53.515625 38.921875 53.515625 30.90625 
L 53.515625 0 
L 44.484375 0 
L 44.484375 32.71875 
Q 44.484375 40.625 41.703125 44.40625 
Q 38.921875 48.1875 33.109375 48.1875 
Q 26.21875 48.1875 22.15625 43.53125 
Q 18.109375 38.875 18.109375 30.90625 
L 18.109375 0 
L 9.078125 0 
L 9.078125 54.6875 
L 18.109375 54.6875 
L 18.109375 46.1875 
Q 21.1875 51.21875 25.484375 53.609375 
Q 29.78125 56 35.6875 56 
Q 41.65625 56 45.828125 52.96875 
Q 50 49.953125 52 44.1875 
z
" id="DejaVuSans-109"/>
      <path d="M 56.203125 29.59375 
L 56.203125 25.203125 
L 14.890625 25.203125 
Q 15.484375 15.921875 20.484375 11.0625 
Q 25.484375 6.203125 34.421875 6.203125 
Q 39.59375 6.203125 44.453125 7.46875 
Q 49.3125 8.734375 54.109375 11.28125 
L 54.109375 2.78125 
Q 49.265625 0.734375 44.1875 -0.34375 
Q 39.109375 -1.421875 33.890625 -1.421875 
Q 20.796875 -1.421875 13.15625 6.1875 
Q 5.515625 13.8125 5.515625 26.8125 
Q 5.515625 40.234375 12.765625 48.109375 
Q 20.015625 56 32.328125 56 
Q 43.359375 56 49.78125 48.890625 
Q 56.203125 41.796875 56.203125 29.59375 
z
M 47.21875 32.234375 
Q 47.125 39.59375 43.09375 43.984375 
Q 39.0625 48.390625 32.421875 48.390625 
Q 24.90625 48.390625 20.390625 44.140625 
Q 15.875 39.890625 15.1875 32.171875 
z
" id="DejaVuSans-101"/>
      <path d="M 44.28125 53.078125 
L 44.28125 44.578125 
Q 40.484375 46.53125 36.375 47.5 
Q 32.28125 48.484375 27.875 48.484375 
Q 21.1875 48.484375 17.84375 46.4375 
Q 14.5 44.390625 14.5 40.28125 
Q 14.5 37.15625 16.890625 35.375 
Q 19.28125 33.59375 26.515625 31.984375 
L 29.59375 31.296875 
Q 39.15625 29.25 43.1875 25.515625 
Q 47.21875 21.78125 47.21875 15.09375 
Q 47.21875 7.46875 41.1875 3.015625 
Q 35.15625 -1.421875 24.609375 -1.421875 
Q 20.21875 -1.421875 15.453125 -0.5625 
Q 10.6875 0.296875 5.421875 2 
L 5.421875 11.28125 
Q 10.40625 8.6875 15.234375 7.390625 
Q 20.0625 6.109375 24.8125 6.109375 
Q 31.15625 6.109375 34.5625 8.28125 
Q 37.984375 10.453125 37.984375 14.40625 
Q 37.984375 18.0625 35.515625 20.015625 
Q 33.0625 21.96875 24.703125 23.78125 
L 21.578125 24.515625 
Q 13.234375 26.265625 9.515625 29.90625 
Q 5.8125 33.546875 5.8125 39.890625 
Q 5.8125 47.609375 11.28125 51.796875 
Q 16.75 56 26.8125 56 
Q 31.78125 56 36.171875 55.265625 
Q 40.578125 54.546875 44.28125 53.078125 
z
" id="DejaVuSans-115"/>
     </defs>
     <g transform="translate(224.020504 414.912344)scale(0.25 -0.25)">
      <use xlink:href="#DejaVuSans-35"/>
      <use x="83.789062" xlink:href="#DejaVuSans-32"/>
      <use x="115.576172" xlink:href="#DejaVuSans-111"/>
      <use x="176.757812" xlink:href="#DejaVuSans-102"/>
      <use x="211.962891" xlink:href="#DejaVuSans-32"/>
      <use x="243.75" xlink:href="#DejaVuSans-103"/>
      <use x="307.226562" xlink:href="#DejaVuSans-97"/>
      <use x="368.505859" xlink:href="#DejaVuSans-109"/>
      <use x="465.917969" xlink:href="#DejaVuSans-101"/>
      <use x="527.441406" xlink:href="#DejaVuSans-115"/>
     </g>
    </g>
   </g>
   <g id="matplotlib.axis_2">
    <g id="ytick_1">
     <g id="line2d_7">
      <defs>
       <path d="M 0 0 
L -3.5 0 
" id="mfcc2943b32" style="stroke:#000000;stroke-width:0.8;"/>
      </defs>
      <g>
       <use style="stroke:#000000;stroke-width:0.8;" x="63.74" xlink:href="#mfcc2943b32" y="351.970909"/>
      </g>
     </g>
     <g id="text_8">
      <!-- 0 -->
      <g transform="translate(44.015 359.569347)scale(0.2 -0.2)">
       <use xlink:href="#DejaVuSans-48"/>
      </g>
     </g>
    </g>
    <g id="ytick_2">
     <g id="line2d_8">
      <g>
       <use style="stroke:#000000;stroke-width:0.8;" x="63.74" xlink:href="#mfcc2943b32" y="292.887905"/>
      </g>
     </g>
     <g id="text_9">
      <!-- 5 -->
      <g transform="translate(44.015 300.486343)scale(0.2 -0.2)">
       <use xlink:href="#DejaVuSans-53"/>
      </g>
     </g>
    </g>
    <g id="ytick_3">
     <g id="line2d_9">
      <g>
       <use style="stroke:#000000;stroke-width:0.8;" x="63.74" xlink:href="#mfcc2943b32" y="233.804901"/>
      </g>
     </g>
     <g id="text_10">
      <!-- 10 -->
      <g transform="translate(31.29 241.403339)scale(0.2 -0.2)">
       <use xlink:href="#DejaVuSans-49"/>
       <use x="63.623047" xlink:href="#DejaVuSans-48"/>
      </g>
     </g>
    </g>
    <g id="ytick_4">
     <g id="line2d_10">
      <g>
       <use style="stroke:#000000;stroke-width:0.8;" x="63.74" xlink:href="#mfcc2943b32" y="174.721897"/>
      </g>
     </g>
     <g id="text_11">
      <!-- 15 -->
      <g transform="translate(31.29 182.320335)scale(0.2 -0.2)">
       <use xlink:href="#DejaVuSans-49"/>
       <use x="63.623047" xlink:href="#DejaVuSans-53"/>
      </g>
     </g>
    </g>
    <g id="ytick_5">
     <g id="line2d_11">
      <g>
       <use style="stroke:#000000;stroke-width:0.8;" x="63.74" xlink:href="#mfcc2943b32" y="115.638893"/>
      </g>
     </g>
     <g id="text_12">
      <!-- 20 -->
      <g transform="translate(31.29 123.237331)scale(0.2 -0.2)">
       <use xlink:href="#DejaVuSans-50"/>
       <use x="63.623047" xlink:href="#DejaVuSans-48"/>
      </g>
     </g>
    </g>
    <g id="text_13">
     <!-- Number of Def strategy used -->
     <defs>
      <path d="M 9.8125 72.90625 
L 23.09375 72.90625 
L 55.421875 11.921875 
L 55.421875 72.90625 
L 64.984375 72.90625 
L 64.984375 0 
L 51.703125 0 
L 19.390625 60.984375 
L 19.390625 0 
L 9.8125 0 
z
" id="DejaVuSans-78"/>
      <path d="M 8.5 21.578125 
L 8.5 54.6875 
L 17.484375 54.6875 
L 17.484375 21.921875 
Q 17.484375 14.15625 20.5 10.265625 
Q 23.53125 6.390625 29.59375 6.390625 
Q 36.859375 6.390625 41.078125 11.03125 
Q 45.3125 15.671875 45.3125 23.6875 
L 45.3125 54.6875 
L 54.296875 54.6875 
L 54.296875 0 
L 45.3125 0 
L 45.3125 8.40625 
Q 42.046875 3.421875 37.71875 1 
Q 33.40625 -1.421875 27.6875 -1.421875 
Q 18.265625 -1.421875 13.375 4.4375 
Q 8.5 10.296875 8.5 21.578125 
z
M 31.109375 56 
z
" id="DejaVuSans-117"/>
      <path d="M 48.6875 27.296875 
Q 48.6875 37.203125 44.609375 42.84375 
Q 40.53125 48.484375 33.40625 48.484375 
Q 26.265625 48.484375 22.1875 42.84375 
Q 18.109375 37.203125 18.109375 27.296875 
Q 18.109375 17.390625 22.1875 11.75 
Q 26.265625 6.109375 33.40625 6.109375 
Q 40.53125 6.109375 44.609375 11.75 
Q 48.6875 17.390625 48.6875 27.296875 
z
M 18.109375 46.390625 
Q 20.953125 51.265625 25.265625 53.625 
Q 29.59375 56 35.59375 56 
Q 45.5625 56 51.78125 48.09375 
Q 58.015625 40.1875 58.015625 27.296875 
Q 58.015625 14.40625 51.78125 6.484375 
Q 45.5625 -1.421875 35.59375 -1.421875 
Q 29.59375 -1.421875 25.265625 0.953125 
Q 20.953125 3.328125 18.109375 8.203125 
L 18.109375 0 
L 9.078125 0 
L 9.078125 75.984375 
L 18.109375 75.984375 
z
" id="DejaVuSans-98"/>
      <path d="M 41.109375 46.296875 
Q 39.59375 47.171875 37.8125 47.578125 
Q 36.03125 48 33.890625 48 
Q 26.265625 48 22.1875 43.046875 
Q 18.109375 38.09375 18.109375 28.8125 
L 18.109375 0 
L 9.078125 0 
L 9.078125 54.6875 
L 18.109375 54.6875 
L 18.109375 46.1875 
Q 20.953125 51.171875 25.484375 53.578125 
Q 30.03125 56 36.53125 56 
Q 37.453125 56 38.578125 55.875 
Q 39.703125 55.765625 41.0625 55.515625 
z
" id="DejaVuSans-114"/>
      <path d="M 19.671875 64.796875 
L 19.671875 8.109375 
L 31.59375 8.109375 
Q 46.6875 8.109375 53.6875 14.9375 
Q 60.6875 21.78125 60.6875 36.53125 
Q 60.6875 51.171875 53.6875 57.984375 
Q 46.6875 64.796875 31.59375 64.796875 
z
M 9.8125 72.90625 
L 30.078125 72.90625 
Q 51.265625 72.90625 61.171875 64.09375 
Q 71.09375 55.28125 71.09375 36.53125 
Q 71.09375 17.671875 61.125 8.828125 
Q 51.171875 0 30.078125 0 
L 9.8125 0 
z
" id="DejaVuSans-68"/>
      <path d="M 18.3125 70.21875 
L 18.3125 54.6875 
L 36.8125 54.6875 
L 36.8125 47.703125 
L 18.3125 47.703125 
L 18.3125 18.015625 
Q 18.3125 11.328125 20.140625 9.421875 
Q 21.96875 7.515625 27.59375 7.515625 
L 36.8125 7.515625 
L 36.8125 0 
L 27.59375 0 
Q 17.1875 0 13.234375 3.875 
Q 9.28125 7.765625 9.28125 18.015625 
L 9.28125 47.703125 
L 2.6875 47.703125 
L 2.6875 54.6875 
L 9.28125 54.6875 
L 9.28125 70.21875 
z
" id="DejaVuSans-116"/>
      <path d="M 32.171875 -5.078125 
Q 28.375 -14.84375 24.75 -17.8125 
Q 21.140625 -20.796875 15.09375 -20.796875 
L 7.90625 -20.796875 
L 7.90625 -13.28125 
L 13.1875 -13.28125 
Q 16.890625 -13.28125 18.9375 -11.515625 
Q 21 -9.765625 23.484375 -3.21875 
L 25.09375 0.875 
L 2.984375 54.6875 
L 12.5 54.6875 
L 29.59375 11.921875 
L 46.6875 54.6875 
L 56.203125 54.6875 
z
" id="DejaVuSans-121"/>
      <path d="M 45.40625 46.390625 
L 45.40625 75.984375 
L 54.390625 75.984375 
L 54.390625 0 
L 45.40625 0 
L 45.40625 8.203125 
Q 42.578125 3.328125 38.25 0.953125 
Q 33.9375 -1.421875 27.875 -1.421875 
Q 17.96875 -1.421875 11.734375 6.484375 
Q 5.515625 14.40625 5.515625 27.296875 
Q 5.515625 40.1875 11.734375 48.09375 
Q 17.96875 56 27.875 56 
Q 33.9375 56 38.25 53.625 
Q 42.578125 51.265625 45.40625 46.390625 
z
M 14.796875 27.296875 
Q 14.796875 17.390625 18.875 11.75 
Q 22.953125 6.109375 30.078125 6.109375 
Q 37.203125 6.109375 41.296875 11.75 
Q 45.40625 17.390625 45.40625 27.296875 
Q 45.40625 37.203125 41.296875 42.84375 
Q 37.203125 48.484375 30.078125 48.484375 
Q 22.953125 48.484375 18.875 42.84375 
Q 14.796875 37.203125 14.796875 27.296875 
z
" id="DejaVuSans-100"/>
     </defs>
     <g transform="translate(23.823854 337.458906)rotate(-90)scale(0.166667 -0.166667)">
      <use xlink:href="#DejaVuSans-78"/>
      <use x="74.804688" xlink:href="#DejaVuSans-117"/>
      <use x="138.183594" xlink:href="#DejaVuSans-109"/>
      <use x="235.595703" xlink:href="#DejaVuSans-98"/>
      <use x="299.072266" xlink:href="#DejaVuSans-101"/>
      <use x="360.595703" xlink:href="#DejaVuSans-114"/>
      <use x="401.708984" xlink:href="#DejaVuSans-32"/>
      <use x="433.496094" xlink:href="#DejaVuSans-111"/>
      <use x="494.677734" xlink:href="#DejaVuSans-102"/>
      <use x="529.882812" xlink:href="#DejaVuSans-32"/>
      <use x="561.669922" xlink:href="#DejaVuSans-68"/>
      <use x="638.671875" xlink:href="#DejaVuSans-101"/>
      <use x="700.195312" xlink:href="#DejaVuSans-102"/>
      <use x="735.400391" xlink:href="#DejaVuSans-32"/>
      <use x="767.1875" xlink:href="#DejaVuSans-115"/>
      <use x="819.287109" xlink:href="#DejaVuSans-116"/>
      <use x="858.496094" xlink:href="#DejaVuSans-114"/>
      <use x="899.609375" xlink:href="#DejaVuSans-97"/>
      <use x="960.888672" xlink:href="#DejaVuSans-116"/>
      <use x="1000.097656" xlink:href="#DejaVuSans-101"/>
      <use x="1061.621094" xlink:href="#DejaVuSans-103"/>
      <use x="1125.097656" xlink:href="#DejaVuSans-121"/>
      <use x="1184.277344" xlink:href="#DejaVuSans-32"/>
      <use x="1216.064453" xlink:href="#DejaVuSans-117"/>
      <use x="1279.443359" xlink:href="#DejaVuSans-115"/>
      <use x="1331.542969" xlink:href="#DejaVuSans-101"/>
      <use x="1393.066406" xlink:href="#DejaVuSans-100"/>
     </g>
    </g>
   </g>
   <g id="line2d_12">
    <path clip-path="url(#pd284f87c7d)" d="M 84.896715 257.438103 
L 86.589252 139.272095 
L 88.281789 80.189091 
L 89.974326 80.189091 
L 91.666864 174.721897 
L 93.359401 221.9883 
L 95.051938 162.905296 
L 100.12955 233.804901 
L 101.822087 221.9883 
L 103.514624 198.355099 
L 105.207161 257.438103 
L 106.899698 257.438103 
L 108.592236 221.9883 
L 110.284773 233.804901 
L 111.97731 257.438103 
L 113.669847 233.804901 
L 115.362384 233.804901 
L 117.054921 245.621502 
L 118.747459 304.704506 
L 120.439996 316.521107 
L 122.132533 304.704506 
L 123.82507 304.704506 
L 127.210145 328.337708 
L 128.902682 269.254704 
L 130.595219 292.887905 
L 132.287756 304.704506 
L 133.980293 281.071304 
L 135.672831 316.521107 
L 137.365368 304.704506 
L 139.057905 281.071304 
L 140.750442 304.704506 
L 142.442979 281.071304 
L 144.135517 269.254704 
L 145.828054 281.071304 
L 147.520591 281.071304 
L 149.213128 316.521107 
L 152.598202 269.254704 
L 154.29074 257.438103 
L 155.983277 316.521107 
L 157.675814 281.071304 
L 159.368351 292.887905 
L 161.060888 269.254704 
L 162.753426 292.887905 
L 164.445963 269.254704 
L 167.831037 292.887905 
L 169.523574 292.887905 
L 171.216112 316.521107 
L 172.908649 328.337708 
L 174.601186 316.521107 
L 176.293723 316.521107 
L 179.678798 340.154308 
L 181.371335 328.337708 
L 183.063872 304.704506 
L 184.756409 316.521107 
L 186.448946 304.704506 
L 188.141483 340.154308 
L 189.834021 328.337708 
L 191.526558 340.154308 
L 193.219095 304.704506 
L 194.911632 328.337708 
L 196.604169 316.521107 
L 198.296707 351.970909 
L 199.989244 328.337708 
L 203.374318 328.337708 
L 205.066855 316.521107 
L 208.45193 316.521107 
L 210.144467 304.704506 
L 211.837004 269.254704 
L 213.529541 292.887905 
L 215.222079 304.704506 
L 216.914616 351.970909 
L 220.29969 304.704506 
L 221.992227 340.154308 
L 223.684764 328.337708 
L 225.377302 328.337708 
L 227.069839 316.521107 
L 228.762376 328.337708 
L 230.454913 316.521107 
L 232.14745 340.154308 
L 233.839988 328.337708 
L 235.532525 340.154308 
L 237.225062 328.337708 
L 238.917599 351.970909 
L 240.610136 351.970909 
L 243.995211 328.337708 
L 245.687748 328.337708 
L 249.072822 351.970909 
L 250.76536 328.337708 
L 254.150434 351.970909 
L 255.842971 328.337708 
L 257.535508 351.970909 
L 259.228045 328.337708 
L 262.61312 351.970909 
L 264.305657 328.337708 
L 267.690731 328.337708 
L 269.383269 340.154308 
L 271.075806 328.337708 
L 276.153417 328.337708 
L 277.845955 316.521107 
L 279.538492 340.154308 
L 281.231029 351.970909 
L 282.923566 340.154308 
L 284.616103 351.970909 
L 286.30864 351.970909 
L 288.001178 340.154308 
L 289.693715 340.154308 
L 291.386252 328.337708 
L 293.078789 328.337708 
L 294.771326 340.154308 
L 296.463864 316.521107 
L 299.848938 340.154308 
L 301.541475 328.337708 
L 303.234012 328.337708 
L 304.92655 351.970909 
L 306.619087 351.970909 
L 308.311624 340.154308 
L 310.004161 340.154308 
L 311.696698 351.970909 
L 313.389236 351.970909 
L 315.081773 340.154308 
L 316.77431 351.970909 
L 318.466847 351.970909 
L 320.159384 340.154308 
L 323.544459 340.154308 
L 325.236996 351.970909 
L 326.929533 351.970909 
L 328.62207 340.154308 
L 332.007145 340.154308 
L 333.699682 351.970909 
L 335.392219 340.154308 
L 337.084756 351.970909 
L 342.162368 351.970909 
L 343.854905 340.154308 
L 345.547442 351.970909 
L 347.239979 340.154308 
L 348.932517 340.154308 
L 350.625054 351.970909 
L 354.010128 328.337708 
L 355.702665 328.337708 
L 357.395202 351.970909 
L 359.08774 351.970909 
L 360.780277 340.154308 
L 362.472814 351.970909 
L 364.165351 328.337708 
L 365.857888 340.154308 
L 367.550426 340.154308 
L 369.242963 351.970909 
L 372.628037 328.337708 
L 374.320574 351.970909 
L 376.013112 340.154308 
L 379.398186 340.154308 
L 381.090723 351.970909 
L 382.78326 351.970909 
L 384.475798 328.337708 
L 386.168335 351.970909 
L 389.553409 351.970909 
L 391.245946 340.154308 
L 392.938483 351.970909 
L 394.631021 340.154308 
L 399.708632 340.154308 
L 401.401169 351.970909 
L 406.478781 351.970909 
L 408.171318 340.154308 
L 409.863855 351.970909 
L 411.556393 340.154308 
L 418.326541 340.154308 
L 420.019079 351.970909 
L 421.711616 340.154308 
L 423.404153 351.970909 
L 425.09669 340.154308 
L 426.789227 340.154308 
L 428.481764 351.970909 
L 430.174302 351.970909 
L 431.866839 340.154308 
L 433.559376 340.154308 
L 435.251913 351.970909 
L 436.94445 351.970909 
L 438.636988 340.154308 
L 442.022062 340.154308 
L 443.714599 351.970909 
L 447.099674 351.970909 
L 448.792211 340.154308 
L 450.484748 340.154308 
L 452.177285 351.970909 
L 453.869822 351.970909 
L 455.56236 328.337708 
L 457.254897 328.337708 
L 458.947434 351.970909 
L 460.639971 340.154308 
L 467.41012 340.154308 
L 469.102657 351.970909 
L 470.795194 351.970909 
L 472.487731 340.154308 
L 474.180269 351.970909 
L 475.872806 351.970909 
L 477.565343 340.154308 
L 479.25788 351.970909 
L 480.950417 340.154308 
L 482.642955 351.970909 
L 484.335492 340.154308 
L 486.028029 351.970909 
L 508.031012 351.970909 
L 508.031012 351.970909 
" style="fill:none;stroke:#1f77b4;stroke-linecap:square;stroke-width:1.5;"/>
   </g>
   <g id="line2d_13">
    <path clip-path="url(#pd284f87c7d)" d="M 84.896715 281.071304 
L 86.589252 316.521107 
L 88.281789 292.887905 
L 89.974326 316.521107 
L 91.666864 269.254704 
L 93.359401 198.355099 
L 95.051938 257.438103 
L 96.744475 257.438103 
L 98.437012 210.1717 
L 100.12955 245.621502 
L 101.822087 269.254704 
L 103.514624 221.9883 
L 105.207161 221.9883 
L 106.899698 245.621502 
L 108.592236 174.721897 
L 110.284773 210.1717 
L 111.97731 269.254704 
L 113.669847 269.254704 
L 115.362384 304.704506 
L 117.054921 316.521107 
L 118.747459 198.355099 
L 120.439996 186.538498 
L 122.132533 281.071304 
L 123.82507 233.804901 
L 125.517607 221.9883 
L 127.210145 233.804901 
L 128.902682 269.254704 
L 130.595219 257.438103 
L 132.287756 281.071304 
L 133.980293 292.887905 
L 137.365368 269.254704 
L 139.057905 328.337708 
L 140.750442 328.337708 
L 142.442979 316.521107 
L 144.135517 281.071304 
L 145.828054 316.521107 
L 147.520591 316.521107 
L 149.213128 281.071304 
L 150.905665 269.254704 
L 152.598202 281.071304 
L 154.29074 269.254704 
L 155.983277 304.704506 
L 157.675814 245.621502 
L 159.368351 292.887905 
L 161.060888 292.887905 
L 162.753426 328.337708 
L 164.445963 245.621502 
L 166.1385 233.804901 
L 167.831037 281.071304 
L 169.523574 304.704506 
L 171.216112 316.521107 
L 176.293723 316.521107 
L 177.98626 292.887905 
L 179.678798 257.438103 
L 181.371335 281.071304 
L 183.063872 292.887905 
L 184.756409 292.887905 
L 186.448946 281.071304 
L 188.141483 281.071304 
L 189.834021 316.521107 
L 191.526558 304.704506 
L 193.219095 316.521107 
L 194.911632 292.887905 
L 196.604169 328.337708 
L 199.989244 281.071304 
L 201.681781 292.887905 
L 203.374318 292.887905 
L 205.066855 316.521107 
L 206.759393 281.071304 
L 208.45193 316.521107 
L 210.144467 292.887905 
L 211.837004 328.337708 
L 218.607153 328.337708 
L 220.29969 340.154308 
L 221.992227 304.704506 
L 223.684764 328.337708 
L 225.377302 328.337708 
L 227.069839 304.704506 
L 228.762376 292.887905 
L 230.454913 316.521107 
L 232.14745 304.704506 
L 233.839988 328.337708 
L 235.532525 292.887905 
L 237.225062 328.337708 
L 238.917599 316.521107 
L 242.302674 316.521107 
L 243.995211 328.337708 
L 245.687748 351.970909 
L 247.380285 316.521107 
L 249.072822 328.337708 
L 250.76536 351.970909 
L 252.457897 316.521107 
L 254.150434 304.704506 
L 257.535508 351.970909 
L 260.920583 351.970909 
L 262.61312 340.154308 
L 264.305657 340.154308 
L 265.998194 351.970909 
L 269.383269 328.337708 
L 271.075806 328.337708 
L 274.46088 351.970909 
L 276.153417 340.154308 
L 277.845955 351.970909 
L 279.538492 328.337708 
L 282.923566 351.970909 
L 284.616103 340.154308 
L 286.30864 340.154308 
L 288.001178 351.970909 
L 289.693715 328.337708 
L 291.386252 351.970909 
L 293.078789 340.154308 
L 294.771326 351.970909 
L 296.463864 328.337708 
L 298.156401 351.970909 
L 299.848938 340.154308 
L 301.541475 340.154308 
L 303.234012 351.970909 
L 306.619087 328.337708 
L 310.004161 351.970909 
L 311.696698 340.154308 
L 313.389236 340.154308 
L 315.081773 351.970909 
L 316.77431 351.970909 
L 318.466847 328.337708 
L 320.159384 340.154308 
L 323.544459 340.154308 
L 325.236996 328.337708 
L 326.929533 351.970909 
L 333.699682 351.970909 
L 335.392219 328.337708 
L 337.084756 328.337708 
L 338.777293 340.154308 
L 340.469831 340.154308 
L 342.162368 328.337708 
L 343.854905 351.970909 
L 345.547442 351.970909 
L 347.239979 340.154308 
L 348.932517 351.970909 
L 350.625054 328.337708 
L 352.317591 351.970909 
L 355.702665 351.970909 
L 359.08774 328.337708 
L 360.780277 351.970909 
L 362.472814 340.154308 
L 364.165351 351.970909 
L 365.857888 328.337708 
L 367.550426 328.337708 
L 370.9355 351.970909 
L 372.628037 351.970909 
L 376.013112 328.337708 
L 377.705649 340.154308 
L 379.398186 340.154308 
L 381.090723 328.337708 
L 382.78326 351.970909 
L 386.168335 351.970909 
L 387.860872 340.154308 
L 389.553409 351.970909 
L 391.245946 351.970909 
L 392.938483 328.337708 
L 394.631021 351.970909 
L 399.708632 351.970909 
L 401.401169 328.337708 
L 403.093707 351.970909 
L 404.786244 340.154308 
L 408.171318 340.154308 
L 409.863855 328.337708 
L 413.24893 351.970909 
L 414.941467 340.154308 
L 416.634004 351.970909 
L 418.326541 328.337708 
L 420.019079 340.154308 
L 421.711616 340.154308 
L 423.404153 351.970909 
L 425.09669 351.970909 
L 426.789227 340.154308 
L 428.481764 351.970909 
L 431.866839 351.970909 
L 433.559376 340.154308 
L 436.94445 340.154308 
L 438.636988 351.970909 
L 440.329525 340.154308 
L 442.022062 351.970909 
L 443.714599 340.154308 
L 448.792211 340.154308 
L 450.484748 351.970909 
L 452.177285 351.970909 
L 453.869822 340.154308 
L 455.56236 351.970909 
L 469.102657 351.970909 
L 470.795194 340.154308 
L 472.487731 351.970909 
L 477.565343 351.970909 
L 479.25788 340.154308 
L 480.950417 351.970909 
L 482.642955 340.154308 
L 484.335492 351.970909 
L 489.413103 351.970909 
L 491.10564 340.154308 
L 492.798178 340.154308 
L 494.490715 351.970909 
L 496.183252 351.970909 
L 497.875789 340.154308 
L 499.568326 351.970909 
L 501.260864 351.970909 
L 502.953401 340.154308 
L 504.645938 340.154308 
L 506.338475 351.970909 
L 508.031012 351.970909 
L 508.031012 351.970909 
" style="fill:none;stroke:#ff7f0e;stroke-linecap:square;stroke-width:1.5;"/>
   </g>
   <g id="line2d_14">
    <path clip-path="url(#pd284f87c7d)" d="M 84.896715 269.254704 
L 86.589252 328.337708 
L 88.281789 328.337708 
L 89.974326 316.521107 
L 91.666864 292.887905 
L 95.051938 316.521107 
L 96.744475 316.521107 
L 98.437012 269.254704 
L 101.822087 292.887905 
L 103.514624 328.337708 
L 105.207161 269.254704 
L 106.899698 281.071304 
L 108.592236 281.071304 
L 110.284773 304.704506 
L 111.97731 269.254704 
L 115.362384 292.887905 
L 117.054921 257.438103 
L 118.747459 304.704506 
L 120.439996 245.621502 
L 122.132533 245.621502 
L 123.82507 269.254704 
L 125.517607 304.704506 
L 127.210145 316.521107 
L 128.902682 281.071304 
L 130.595219 269.254704 
L 133.980293 269.254704 
L 135.672831 281.071304 
L 137.365368 304.704506 
L 139.057905 292.887905 
L 140.750442 316.521107 
L 142.442979 304.704506 
L 144.135517 281.071304 
L 145.828054 304.704506 
L 149.213128 304.704506 
L 150.905665 351.970909 
L 152.598202 340.154308 
L 154.29074 281.071304 
L 155.983277 304.704506 
L 157.675814 316.521107 
L 161.060888 292.887905 
L 162.753426 304.704506 
L 164.445963 328.337708 
L 166.1385 292.887905 
L 167.831037 304.704506 
L 169.523574 340.154308 
L 171.216112 304.704506 
L 172.908649 245.621502 
L 174.601186 316.521107 
L 176.293723 316.521107 
L 177.98626 269.254704 
L 179.678798 292.887905 
L 181.371335 304.704506 
L 183.063872 292.887905 
L 184.756409 304.704506 
L 186.448946 292.887905 
L 188.141483 316.521107 
L 189.834021 292.887905 
L 191.526558 304.704506 
L 193.219095 292.887905 
L 194.911632 316.521107 
L 196.604169 328.337708 
L 198.296707 316.521107 
L 199.989244 316.521107 
L 203.374318 340.154308 
L 205.066855 304.704506 
L 206.759393 328.337708 
L 208.45193 316.521107 
L 210.144467 340.154308 
L 211.837004 340.154308 
L 213.529541 316.521107 
L 215.222079 340.154308 
L 216.914616 316.521107 
L 218.607153 328.337708 
L 220.29969 316.521107 
L 221.992227 328.337708 
L 223.684764 328.337708 
L 225.377302 340.154308 
L 227.069839 328.337708 
L 228.762376 351.970909 
L 230.454913 304.704506 
L 232.14745 328.337708 
L 233.839988 340.154308 
L 235.532525 340.154308 
L 237.225062 328.337708 
L 238.917599 328.337708 
L 240.610136 340.154308 
L 245.687748 340.154308 
L 247.380285 351.970909 
L 249.072822 351.970909 
L 250.76536 340.154308 
L 252.457897 340.154308 
L 254.150434 351.970909 
L 255.842971 351.970909 
L 257.535508 328.337708 
L 259.228045 351.970909 
L 260.920583 340.154308 
L 262.61312 351.970909 
L 264.305657 340.154308 
L 265.998194 351.970909 
L 269.383269 328.337708 
L 271.075806 340.154308 
L 272.768343 340.154308 
L 274.46088 351.970909 
L 277.845955 351.970909 
L 279.538492 340.154308 
L 282.923566 340.154308 
L 284.616103 328.337708 
L 286.30864 340.154308 
L 288.001178 340.154308 
L 289.693715 351.970909 
L 291.386252 340.154308 
L 294.771326 340.154308 
L 296.463864 351.970909 
L 298.156401 351.970909 
L 301.541475 328.337708 
L 303.234012 340.154308 
L 304.92655 340.154308 
L 306.619087 351.970909 
L 308.311624 340.154308 
L 310.004161 351.970909 
L 313.389236 351.970909 
L 315.081773 328.337708 
L 316.77431 328.337708 
L 320.159384 351.970909 
L 321.851921 328.337708 
L 323.544459 351.970909 
L 325.236996 328.337708 
L 326.929533 351.970909 
L 328.62207 340.154308 
L 330.314607 340.154308 
L 332.007145 351.970909 
L 333.699682 340.154308 
L 335.392219 351.970909 
L 340.469831 351.970909 
L 342.162368 340.154308 
L 343.854905 351.970909 
L 347.239979 328.337708 
L 348.932517 351.970909 
L 367.550426 351.970909 
L 369.242963 340.154308 
L 370.9355 351.970909 
L 372.628037 340.154308 
L 374.320574 351.970909 
L 389.553409 351.970909 
L 391.245946 340.154308 
L 392.938483 351.970909 
L 394.631021 340.154308 
L 396.323558 351.970909 
L 398.016095 351.970909 
L 399.708632 340.154308 
L 401.401169 351.970909 
L 403.093707 351.970909 
L 404.786244 340.154308 
L 406.478781 351.970909 
L 408.171318 351.970909 
L 409.863855 340.154308 
L 411.556393 351.970909 
L 420.019079 351.970909 
L 421.711616 340.154308 
L 423.404153 340.154308 
L 425.09669 351.970909 
L 435.251913 351.970909 
L 436.94445 340.154308 
L 438.636988 351.970909 
L 443.714599 351.970909 
L 445.407136 340.154308 
L 447.099674 351.970909 
L 448.792211 340.154308 
L 450.484748 351.970909 
L 455.56236 351.970909 
L 457.254897 340.154308 
L 458.947434 351.970909 
L 460.639971 351.970909 
L 462.332508 340.154308 
L 464.025045 351.970909 
L 465.717583 340.154308 
L 467.41012 351.970909 
L 469.102657 351.970909 
L 470.795194 340.154308 
L 472.487731 351.970909 
L 474.180269 328.337708 
L 475.872806 351.970909 
L 486.028029 351.970909 
L 487.720566 340.154308 
L 489.413103 340.154308 
L 491.10564 351.970909 
L 494.490715 351.970909 
L 496.183252 340.154308 
L 497.875789 351.970909 
L 504.645938 351.970909 
L 506.338475 340.154308 
L 508.031012 351.970909 
L 508.031012 351.970909 
" style="fill:none;stroke:#2ca02c;stroke-linecap:square;stroke-width:1.5;"/>
   </g>
   <g id="line2d_15">
    <path clip-path="url(#pd284f87c7d)" d="M 84.896715 304.704506 
L 91.666864 351.970909 
L 93.359401 351.970909 
L 95.051938 328.337708 
L 96.744475 340.154308 
L 100.12955 316.521107 
L 101.822087 292.887905 
L 103.514624 328.337708 
L 106.899698 304.704506 
L 108.592236 351.970909 
L 110.284773 340.154308 
L 111.97731 351.970909 
L 113.669847 351.970909 
L 115.362384 340.154308 
L 117.054921 304.704506 
L 118.747459 340.154308 
L 120.439996 340.154308 
L 122.132533 351.970909 
L 123.82507 340.154308 
L 125.517607 340.154308 
L 127.210145 328.337708 
L 128.902682 351.970909 
L 130.595219 340.154308 
L 132.287756 340.154308 
L 133.980293 351.970909 
L 135.672831 304.704506 
L 137.365368 328.337708 
L 139.057905 340.154308 
L 140.750442 340.154308 
L 142.442979 316.521107 
L 144.135517 340.154308 
L 145.828054 351.970909 
L 147.520591 328.337708 
L 149.213128 351.970909 
L 152.598202 351.970909 
L 154.29074 340.154308 
L 155.983277 340.154308 
L 157.675814 351.970909 
L 159.368351 351.970909 
L 161.060888 340.154308 
L 162.753426 351.970909 
L 166.1385 351.970909 
L 167.831037 340.154308 
L 169.523574 351.970909 
L 171.216112 340.154308 
L 176.293723 340.154308 
L 177.98626 351.970909 
L 179.678798 328.337708 
L 181.371335 351.970909 
L 184.756409 351.970909 
L 186.448946 340.154308 
L 188.141483 351.970909 
L 189.834021 340.154308 
L 193.219095 340.154308 
L 194.911632 351.970909 
L 196.604169 328.337708 
L 198.296707 351.970909 
L 201.681781 351.970909 
L 203.374318 340.154308 
L 206.759393 340.154308 
L 208.45193 351.970909 
L 210.144467 351.970909 
L 211.837004 340.154308 
L 213.529541 351.970909 
L 215.222079 340.154308 
L 216.914616 351.970909 
L 218.607153 340.154308 
L 221.992227 340.154308 
L 223.684764 351.970909 
L 225.377302 340.154308 
L 228.762376 340.154308 
L 230.454913 351.970909 
L 232.14745 328.337708 
L 233.839988 351.970909 
L 235.532525 328.337708 
L 237.225062 340.154308 
L 238.917599 328.337708 
L 240.610136 304.704506 
L 242.302674 351.970909 
L 255.842971 351.970909 
L 259.228045 328.337708 
L 260.920583 351.970909 
L 269.383269 351.970909 
L 271.075806 340.154308 
L 272.768343 351.970909 
L 286.30864 351.970909 
L 288.001178 340.154308 
L 289.693715 351.970909 
L 347.239979 351.970909 
L 348.932517 340.154308 
L 350.625054 351.970909 
L 352.317591 340.154308 
L 354.010128 340.154308 
L 355.702665 351.970909 
L 474.180269 351.970909 
L 475.872806 340.154308 
L 477.565343 351.970909 
L 480.950417 351.970909 
L 482.642955 340.154308 
L 484.335492 351.970909 
L 506.338475 351.970909 
L 508.031012 340.154308 
L 508.031012 340.154308 
" style="fill:none;stroke:#d62728;stroke-linecap:square;stroke-width:1.5;"/>
   </g>
   <g id="line2d_16">
    <path clip-path="url(#pd284f87c7d)" d="M 84.896715 221.9883 
L 86.589252 328.337708 
L 88.281789 340.154308 
L 89.974326 316.521107 
L 91.666864 281.071304 
L 93.359401 351.970909 
L 95.051938 351.970909 
L 96.744475 304.704506 
L 98.437012 328.337708 
L 100.12955 281.071304 
L 101.822087 328.337708 
L 103.514624 328.337708 
L 105.207161 340.154308 
L 106.899698 328.337708 
L 108.592236 340.154308 
L 110.284773 340.154308 
L 111.97731 304.704506 
L 113.669847 351.970909 
L 115.362384 304.704506 
L 117.054921 328.337708 
L 118.747459 316.521107 
L 120.439996 316.521107 
L 122.132533 351.970909 
L 123.82507 316.521107 
L 125.517607 340.154308 
L 127.210145 304.704506 
L 128.902682 340.154308 
L 130.595219 328.337708 
L 132.287756 351.970909 
L 133.980293 351.970909 
L 135.672831 316.521107 
L 137.365368 328.337708 
L 139.057905 316.521107 
L 140.750442 351.970909 
L 142.442979 351.970909 
L 144.135517 340.154308 
L 145.828054 351.970909 
L 147.520591 328.337708 
L 149.213128 316.521107 
L 150.905665 340.154308 
L 152.598202 351.970909 
L 154.29074 328.337708 
L 155.983277 351.970909 
L 157.675814 340.154308 
L 159.368351 340.154308 
L 161.060888 351.970909 
L 162.753426 340.154308 
L 164.445963 351.970909 
L 166.1385 351.970909 
L 167.831037 340.154308 
L 169.523574 340.154308 
L 171.216112 328.337708 
L 172.908649 328.337708 
L 174.601186 351.970909 
L 176.293723 351.970909 
L 177.98626 340.154308 
L 179.678798 351.970909 
L 181.371335 328.337708 
L 183.063872 340.154308 
L 184.756409 340.154308 
L 186.448946 351.970909 
L 188.141483 340.154308 
L 189.834021 340.154308 
L 191.526558 351.970909 
L 193.219095 340.154308 
L 194.911632 351.970909 
L 196.604169 328.337708 
L 198.296707 351.970909 
L 203.374318 351.970909 
L 205.066855 340.154308 
L 206.759393 351.970909 
L 213.529541 351.970909 
L 215.222079 340.154308 
L 216.914616 351.970909 
L 218.607153 351.970909 
L 220.29969 340.154308 
L 221.992227 351.970909 
L 228.762376 351.970909 
L 230.454913 340.154308 
L 232.14745 351.970909 
L 233.839988 351.970909 
L 235.532525 340.154308 
L 237.225062 351.970909 
L 243.995211 351.970909 
L 245.687748 340.154308 
L 247.380285 351.970909 
L 249.072822 340.154308 
L 250.76536 351.970909 
L 252.457897 340.154308 
L 254.150434 351.970909 
L 255.842971 340.154308 
L 257.535508 351.970909 
L 259.228045 340.154308 
L 260.920583 351.970909 
L 262.61312 340.154308 
L 264.305657 351.970909 
L 267.690731 351.970909 
L 269.383269 340.154308 
L 271.075806 351.970909 
L 293.078789 351.970909 
L 294.771326 340.154308 
L 296.463864 351.970909 
L 310.004161 351.970909 
L 311.696698 340.154308 
L 313.389236 340.154308 
L 315.081773 351.970909 
L 321.851921 351.970909 
L 323.544459 340.154308 
L 325.236996 351.970909 
L 369.242963 351.970909 
L 370.9355 340.154308 
L 372.628037 351.970909 
L 430.174302 351.970909 
L 431.866839 340.154308 
L 433.559376 351.970909 
L 467.41012 351.970909 
L 469.102657 340.154308 
L 470.795194 351.970909 
L 477.565343 351.970909 
L 479.25788 340.154308 
L 480.950417 351.970909 
L 497.875789 351.970909 
L 499.568326 340.154308 
L 501.260864 351.970909 
L 508.031012 351.970909 
L 508.031012 351.970909 
" style="fill:none;stroke:#9467bd;stroke-linecap:square;stroke-width:1.5;"/>
   </g>
   <g id="line2d_17">
    <path clip-path="url(#pd284f87c7d)" d="M 84.896715 269.254704 
L 88.281789 292.887905 
L 89.974326 328.337708 
L 91.666864 351.970909 
L 93.359401 292.887905 
L 95.051938 281.071304 
L 100.12955 316.521107 
L 101.822087 257.438103 
L 103.514624 292.887905 
L 105.207161 269.254704 
L 106.899698 328.337708 
L 108.592236 316.521107 
L 110.284773 292.887905 
L 113.669847 292.887905 
L 115.362384 257.438103 
L 117.054921 281.071304 
L 118.747459 257.438103 
L 120.439996 257.438103 
L 122.132533 233.804901 
L 123.82507 281.071304 
L 125.517607 245.621502 
L 127.210145 245.621502 
L 128.902682 233.804901 
L 130.595219 245.621502 
L 132.287756 198.355099 
L 133.980293 198.355099 
L 135.672831 257.438103 
L 137.365368 257.438103 
L 139.057905 245.621502 
L 140.750442 257.438103 
L 142.442979 233.804901 
L 144.135517 316.521107 
L 145.828054 233.804901 
L 147.520591 292.887905 
L 149.213128 304.704506 
L 150.905665 269.254704 
L 152.598202 269.254704 
L 154.29074 304.704506 
L 155.983277 281.071304 
L 157.675814 281.071304 
L 159.368351 292.887905 
L 161.060888 328.337708 
L 162.753426 304.704506 
L 164.445963 304.704506 
L 166.1385 316.521107 
L 167.831037 316.521107 
L 169.523574 269.254704 
L 172.908649 292.887905 
L 174.601186 245.621502 
L 176.293723 257.438103 
L 177.98626 316.521107 
L 179.678798 292.887905 
L 181.371335 292.887905 
L 183.063872 281.071304 
L 184.756409 281.071304 
L 186.448946 316.521107 
L 188.141483 292.887905 
L 189.834021 292.887905 
L 191.526558 304.704506 
L 194.911632 304.704506 
L 196.604169 292.887905 
L 198.296707 292.887905 
L 199.989244 257.438103 
L 201.681781 292.887905 
L 203.374318 281.071304 
L 205.066855 304.704506 
L 206.759393 340.154308 
L 210.144467 269.254704 
L 211.837004 304.704506 
L 213.529541 316.521107 
L 215.222079 340.154308 
L 216.914616 269.254704 
L 220.29969 316.521107 
L 221.992227 304.704506 
L 223.684764 340.154308 
L 225.377302 292.887905 
L 227.069839 328.337708 
L 228.762376 292.887905 
L 230.454913 351.970909 
L 233.839988 281.071304 
L 235.532525 340.154308 
L 237.225062 304.704506 
L 238.917599 292.887905 
L 240.610136 340.154308 
L 242.302674 340.154308 
L 243.995211 351.970909 
L 245.687748 328.337708 
L 247.380285 340.154308 
L 249.072822 328.337708 
L 250.76536 328.337708 
L 252.457897 351.970909 
L 254.150434 340.154308 
L 255.842971 351.970909 
L 257.535508 340.154308 
L 260.920583 340.154308 
L 262.61312 328.337708 
L 264.305657 351.970909 
L 265.998194 316.521107 
L 267.690731 328.337708 
L 269.383269 351.970909 
L 272.768343 351.970909 
L 274.46088 316.521107 
L 276.153417 328.337708 
L 277.845955 328.337708 
L 281.231029 351.970909 
L 282.923566 328.337708 
L 284.616103 316.521107 
L 286.30864 351.970909 
L 288.001178 340.154308 
L 289.693715 340.154308 
L 291.386252 351.970909 
L 293.078789 340.154308 
L 294.771326 351.970909 
L 296.463864 351.970909 
L 298.156401 328.337708 
L 301.541475 351.970909 
L 304.92655 328.337708 
L 306.619087 340.154308 
L 310.004161 340.154308 
L 311.696698 351.970909 
L 313.389236 351.970909 
L 315.081773 340.154308 
L 318.466847 340.154308 
L 320.159384 316.521107 
L 321.851921 340.154308 
L 323.544459 328.337708 
L 325.236996 340.154308 
L 326.929533 328.337708 
L 328.62207 340.154308 
L 332.007145 340.154308 
L 333.699682 316.521107 
L 335.392219 340.154308 
L 337.084756 351.970909 
L 338.777293 351.970909 
L 340.469831 328.337708 
L 342.162368 328.337708 
L 343.854905 340.154308 
L 347.239979 340.154308 
L 348.932517 351.970909 
L 350.625054 340.154308 
L 352.317591 351.970909 
L 359.08774 351.970909 
L 360.780277 340.154308 
L 362.472814 351.970909 
L 364.165351 340.154308 
L 365.857888 351.970909 
L 372.628037 351.970909 
L 374.320574 340.154308 
L 376.013112 351.970909 
L 377.705649 340.154308 
L 379.398186 351.970909 
L 386.168335 351.970909 
L 387.860872 340.154308 
L 389.553409 340.154308 
L 391.245946 351.970909 
L 394.631021 351.970909 
L 396.323558 340.154308 
L 404.786244 340.154308 
L 406.478781 328.337708 
L 408.171318 351.970909 
L 413.24893 351.970909 
L 414.941467 340.154308 
L 416.634004 340.154308 
L 418.326541 351.970909 
L 420.019079 340.154308 
L 421.711616 351.970909 
L 423.404153 340.154308 
L 425.09669 351.970909 
L 426.789227 340.154308 
L 428.481764 351.970909 
L 431.866839 351.970909 
L 435.251913 328.337708 
L 436.94445 340.154308 
L 438.636988 340.154308 
L 440.329525 351.970909 
L 442.022062 351.970909 
L 443.714599 340.154308 
L 445.407136 351.970909 
L 447.099674 340.154308 
L 448.792211 351.970909 
L 452.177285 351.970909 
L 453.869822 340.154308 
L 455.56236 340.154308 
L 457.254897 351.970909 
L 458.947434 340.154308 
L 460.639971 351.970909 
L 470.795194 351.970909 
L 472.487731 328.337708 
L 474.180269 351.970909 
L 475.872806 340.154308 
L 477.565343 340.154308 
L 479.25788 351.970909 
L 480.950417 340.154308 
L 482.642955 351.970909 
L 508.031012 351.970909 
L 508.031012 351.970909 
" style="fill:none;stroke:#8c564b;stroke-linecap:square;stroke-width:1.5;"/>
   </g>
   <g id="line2d_18">
    <path clip-path="url(#pd284f87c7d)" d="M 84.896715 316.521107 
L 88.281789 316.521107 
L 89.974326 328.337708 
L 91.666864 304.704506 
L 93.359401 328.337708 
L 95.051938 281.071304 
L 98.437012 328.337708 
L 100.12955 304.704506 
L 103.514624 281.071304 
L 105.207161 328.337708 
L 106.899698 269.254704 
L 108.592236 292.887905 
L 110.284773 281.071304 
L 111.97731 245.621502 
L 113.669847 221.9883 
L 115.362384 281.071304 
L 117.054921 257.438103 
L 118.747459 328.337708 
L 120.439996 304.704506 
L 122.132533 304.704506 
L 123.82507 257.438103 
L 125.517607 221.9883 
L 127.210145 292.887905 
L 128.902682 340.154308 
L 132.287756 269.254704 
L 133.980293 304.704506 
L 135.672831 328.337708 
L 137.365368 292.887905 
L 139.057905 316.521107 
L 140.750442 221.9883 
L 142.442979 292.887905 
L 144.135517 269.254704 
L 145.828054 316.521107 
L 147.520591 269.254704 
L 149.213128 316.521107 
L 150.905665 316.521107 
L 152.598202 281.071304 
L 154.29074 340.154308 
L 155.983277 304.704506 
L 157.675814 340.154308 
L 159.368351 304.704506 
L 161.060888 328.337708 
L 162.753426 304.704506 
L 164.445963 328.337708 
L 166.1385 328.337708 
L 167.831037 304.704506 
L 169.523574 292.887905 
L 171.216112 269.254704 
L 172.908649 304.704506 
L 174.601186 304.704506 
L 176.293723 281.071304 
L 177.98626 292.887905 
L 179.678798 328.337708 
L 181.371335 316.521107 
L 183.063872 316.521107 
L 184.756409 304.704506 
L 186.448946 304.704506 
L 188.141483 316.521107 
L 189.834021 281.071304 
L 193.219095 304.704506 
L 194.911632 304.704506 
L 196.604169 316.521107 
L 198.296707 304.704506 
L 199.989244 340.154308 
L 201.681781 304.704506 
L 203.374318 328.337708 
L 205.066855 292.887905 
L 206.759393 328.337708 
L 210.144467 328.337708 
L 213.529541 304.704506 
L 216.914616 328.337708 
L 221.992227 328.337708 
L 223.684764 316.521107 
L 225.377302 340.154308 
L 227.069839 340.154308 
L 228.762376 328.337708 
L 232.14745 351.970909 
L 233.839988 340.154308 
L 235.532525 304.704506 
L 238.917599 351.970909 
L 240.610136 340.154308 
L 242.302674 340.154308 
L 243.995211 351.970909 
L 245.687748 340.154308 
L 249.072822 340.154308 
L 250.76536 328.337708 
L 252.457897 340.154308 
L 255.842971 340.154308 
L 257.535508 328.337708 
L 260.920583 351.970909 
L 262.61312 351.970909 
L 264.305657 340.154308 
L 265.998194 351.970909 
L 267.690731 340.154308 
L 269.383269 351.970909 
L 271.075806 351.970909 
L 272.768343 340.154308 
L 274.46088 351.970909 
L 277.845955 351.970909 
L 279.538492 340.154308 
L 282.923566 340.154308 
L 284.616103 351.970909 
L 286.30864 328.337708 
L 288.001178 328.337708 
L 291.386252 351.970909 
L 303.234012 351.970909 
L 304.92655 340.154308 
L 306.619087 351.970909 
L 308.311624 351.970909 
L 310.004161 316.521107 
L 313.389236 340.154308 
L 318.466847 340.154308 
L 320.159384 351.970909 
L 325.236996 351.970909 
L 326.929533 340.154308 
L 328.62207 351.970909 
L 330.314607 351.970909 
L 332.007145 340.154308 
L 333.699682 351.970909 
L 335.392219 340.154308 
L 337.084756 351.970909 
L 342.162368 351.970909 
L 343.854905 328.337708 
L 345.547442 351.970909 
L 347.239979 351.970909 
L 348.932517 340.154308 
L 350.625054 340.154308 
L 352.317591 328.337708 
L 355.702665 351.970909 
L 381.090723 351.970909 
L 382.78326 340.154308 
L 384.475798 340.154308 
L 386.168335 328.337708 
L 387.860872 351.970909 
L 394.631021 351.970909 
L 396.323558 340.154308 
L 398.016095 340.154308 
L 399.708632 351.970909 
L 401.401169 351.970909 
L 403.093707 340.154308 
L 404.786244 351.970909 
L 411.556393 351.970909 
L 413.24893 340.154308 
L 414.941467 351.970909 
L 430.174302 351.970909 
L 431.866839 340.154308 
L 433.559376 351.970909 
L 438.636988 351.970909 
L 440.329525 340.154308 
L 447.099674 340.154308 
L 448.792211 351.970909 
L 462.332508 351.970909 
L 464.025045 328.337708 
L 467.41012 351.970909 
L 484.335492 351.970909 
L 486.028029 340.154308 
L 487.720566 351.970909 
L 492.798178 351.970909 
L 494.490715 340.154308 
L 496.183252 351.970909 
L 508.031012 351.970909 
L 508.031012 351.970909 
" style="fill:none;stroke:#e377c2;stroke-linecap:square;stroke-width:1.5;"/>
   </g>
   <g id="line2d_19">
    <path clip-path="url(#pd284f87c7d)" d="M 84.896715 304.704506 
L 86.589252 198.355099 
L 88.281789 245.621502 
L 89.974326 198.355099 
L 91.666864 198.355099 
L 93.359401 174.721897 
L 95.051938 245.621502 
L 96.744475 221.9883 
L 98.437012 245.621502 
L 100.12955 245.621502 
L 101.822087 269.254704 
L 103.514624 257.438103 
L 105.207161 233.804901 
L 106.899698 221.9883 
L 108.592236 281.071304 
L 110.284773 257.438103 
L 111.97731 269.254704 
L 115.362384 245.621502 
L 117.054921 281.071304 
L 118.747459 221.9883 
L 120.439996 304.704506 
L 122.132533 198.355099 
L 123.82507 269.254704 
L 125.517607 292.887905 
L 127.210145 233.804901 
L 128.902682 221.9883 
L 130.595219 269.254704 
L 132.287756 292.887905 
L 133.980293 269.254704 
L 135.672831 233.804901 
L 137.365368 257.438103 
L 139.057905 221.9883 
L 140.750442 233.804901 
L 142.442979 269.254704 
L 144.135517 292.887905 
L 145.828054 245.621502 
L 147.520591 281.071304 
L 149.213128 233.804901 
L 150.905665 233.804901 
L 152.598202 281.071304 
L 154.29074 304.704506 
L 155.983277 233.804901 
L 157.675814 292.887905 
L 161.060888 245.621502 
L 162.753426 233.804901 
L 164.445963 281.071304 
L 166.1385 304.704506 
L 167.831037 281.071304 
L 169.523574 269.254704 
L 171.216112 304.704506 
L 172.908649 304.704506 
L 174.601186 281.071304 
L 176.293723 304.704506 
L 177.98626 292.887905 
L 181.371335 292.887905 
L 183.063872 316.521107 
L 184.756409 304.704506 
L 186.448946 304.704506 
L 188.141483 269.254704 
L 189.834021 316.521107 
L 191.526558 281.071304 
L 193.219095 328.337708 
L 194.911632 281.071304 
L 196.604169 292.887905 
L 198.296707 281.071304 
L 199.989244 328.337708 
L 201.681781 304.704506 
L 203.374318 292.887905 
L 205.066855 340.154308 
L 206.759393 281.071304 
L 208.45193 281.071304 
L 210.144467 328.337708 
L 211.837004 316.521107 
L 213.529541 316.521107 
L 215.222079 269.254704 
L 216.914616 281.071304 
L 218.607153 281.071304 
L 220.29969 304.704506 
L 221.992227 304.704506 
L 223.684764 257.438103 
L 228.762376 328.337708 
L 230.454913 304.704506 
L 233.839988 304.704506 
L 235.532525 340.154308 
L 237.225062 328.337708 
L 240.610136 328.337708 
L 242.302674 340.154308 
L 243.995211 316.521107 
L 245.687748 340.154308 
L 247.380285 328.337708 
L 249.072822 328.337708 
L 250.76536 340.154308 
L 252.457897 340.154308 
L 254.150434 328.337708 
L 257.535508 328.337708 
L 259.228045 340.154308 
L 260.920583 304.704506 
L 264.305657 328.337708 
L 265.998194 328.337708 
L 267.690731 351.970909 
L 269.383269 340.154308 
L 277.845955 340.154308 
L 279.538492 351.970909 
L 281.231029 316.521107 
L 282.923566 340.154308 
L 284.616103 351.970909 
L 286.30864 328.337708 
L 288.001178 351.970909 
L 289.693715 351.970909 
L 291.386252 328.337708 
L 293.078789 351.970909 
L 294.771326 328.337708 
L 296.463864 351.970909 
L 298.156401 340.154308 
L 299.848938 340.154308 
L 301.541475 351.970909 
L 303.234012 340.154308 
L 304.92655 351.970909 
L 306.619087 328.337708 
L 310.004161 351.970909 
L 313.389236 328.337708 
L 315.081773 351.970909 
L 316.77431 340.154308 
L 318.466847 351.970909 
L 325.236996 351.970909 
L 326.929533 328.337708 
L 332.007145 328.337708 
L 335.392219 351.970909 
L 337.084756 316.521107 
L 338.777293 304.704506 
L 342.162368 351.970909 
L 343.854905 340.154308 
L 345.547442 316.521107 
L 347.239979 351.970909 
L 348.932517 328.337708 
L 350.625054 351.970909 
L 354.010128 351.970909 
L 357.395202 328.337708 
L 359.08774 340.154308 
L 360.780277 340.154308 
L 362.472814 328.337708 
L 364.165351 351.970909 
L 367.550426 351.970909 
L 369.242963 340.154308 
L 370.9355 340.154308 
L 372.628037 351.970909 
L 374.320574 340.154308 
L 376.013112 351.970909 
L 377.705649 351.970909 
L 379.398186 340.154308 
L 381.090723 340.154308 
L 382.78326 328.337708 
L 384.475798 351.970909 
L 386.168335 340.154308 
L 387.860872 340.154308 
L 389.553409 328.337708 
L 391.245946 340.154308 
L 394.631021 340.154308 
L 396.323558 351.970909 
L 401.401169 351.970909 
L 403.093707 340.154308 
L 404.786244 351.970909 
L 406.478781 351.970909 
L 408.171318 340.154308 
L 409.863855 351.970909 
L 411.556393 340.154308 
L 413.24893 340.154308 
L 414.941467 351.970909 
L 416.634004 340.154308 
L 418.326541 351.970909 
L 420.019079 340.154308 
L 421.711616 351.970909 
L 425.09669 328.337708 
L 426.789227 351.970909 
L 428.481764 316.521107 
L 430.174302 316.521107 
L 431.866839 351.970909 
L 436.94445 351.970909 
L 438.636988 340.154308 
L 440.329525 351.970909 
L 442.022062 340.154308 
L 443.714599 351.970909 
L 448.792211 351.970909 
L 450.484748 328.337708 
L 452.177285 316.521107 
L 453.869822 340.154308 
L 455.56236 351.970909 
L 457.254897 351.970909 
L 458.947434 328.337708 
L 460.639971 328.337708 
L 464.025045 351.970909 
L 465.717583 351.970909 
L 467.41012 328.337708 
L 469.102657 328.337708 
L 472.487731 351.970909 
L 474.180269 340.154308 
L 475.872806 340.154308 
L 477.565343 351.970909 
L 499.568326 351.970909 
L 501.260864 340.154308 
L 502.953401 351.970909 
L 508.031012 351.970909 
L 508.031012 351.970909 
" style="fill:none;stroke:#7f7f7f;stroke-linecap:square;stroke-width:1.5;"/>
   </g>
   <g id="patch_3">
    <path d="M 63.74 365.56 
L 63.74 66.6 
" style="fill:none;stroke:#000000;stroke-linecap:square;stroke-linejoin:miter;stroke-width:0.8;"/>
   </g>
   <g id="patch_4">
    <path d="M 529.187727 365.56 
L 529.187727 66.6 
" style="fill:none;stroke:#000000;stroke-linecap:square;stroke-linejoin:miter;stroke-width:0.8;"/>
   </g>
   <g id="patch_5">
    <path d="M 63.74 365.56 
L 529.187727 365.56 
" style="fill:none;stroke:#000000;stroke-linecap:square;stroke-linejoin:miter;stroke-width:0.8;"/>
   </g>
   <g id="patch_6">
    <path d="M 63.74 66.6 
L 529.187727 66.6 
" style="fill:none;stroke:#000000;stroke-linecap:square;stroke-linejoin:miter;stroke-width:0.8;"/>
   </g>
   <g id="legend_1">
    <g id="patch_7">
     <path d="M 74.24 59.1 
L 518.687727 59.1 
Q 521.687727 59.1 521.687727 56.1 
L 521.687727 13.565625 
Q 521.687727 10.565625 518.687727 10.565625 
L 74.24 10.565625 
Q 71.24 10.565625 71.24 13.565625 
L 71.24 56.1 
Q 71.24 59.1 74.24 59.1 
z
" style="fill:#ffffff;opacity:0.8;stroke:#cccccc;stroke-linejoin:miter;"/>
    </g>
    <g id="line2d_20">
     <path d="M 77.24 22.713281 
L 107.24 22.713281 
" style="fill:none;stroke:#1f77b4;stroke-linecap:square;stroke-width:1.5;"/>
    </g>
    <g id="line2d_21"/>
    <g id="text_14">
     <!-- Stra 1 -->
     <defs>
      <path d="M 53.515625 70.515625 
L 53.515625 60.890625 
Q 47.90625 63.578125 42.921875 64.890625 
Q 37.9375 66.21875 33.296875 66.21875 
Q 25.25 66.21875 20.875 63.09375 
Q 16.5 59.96875 16.5 54.203125 
Q 16.5 49.359375 19.40625 46.890625 
Q 22.3125 44.4375 30.421875 42.921875 
L 36.375 41.703125 
Q 47.40625 39.59375 52.65625 34.296875 
Q 57.90625 29 57.90625 20.125 
Q 57.90625 9.515625 50.796875 4.046875 
Q 43.703125 -1.421875 29.984375 -1.421875 
Q 24.8125 -1.421875 18.96875 -0.25 
Q 13.140625 0.921875 6.890625 3.21875 
L 6.890625 13.375 
Q 12.890625 10.015625 18.65625 8.296875 
Q 24.421875 6.59375 29.984375 6.59375 
Q 38.421875 6.59375 43.015625 9.90625 
Q 47.609375 13.234375 47.609375 19.390625 
Q 47.609375 24.75 44.3125 27.78125 
Q 41.015625 30.8125 33.5 32.328125 
L 27.484375 33.5 
Q 16.453125 35.6875 11.515625 40.375 
Q 6.59375 45.0625 6.59375 53.421875 
Q 6.59375 63.09375 13.40625 68.65625 
Q 20.21875 74.21875 32.171875 74.21875 
Q 37.3125 74.21875 42.625 73.28125 
Q 47.953125 72.359375 53.515625 70.515625 
z
" id="DejaVuSans-83"/>
     </defs>
     <g transform="translate(119.24 27.963281)scale(0.15 -0.15)">
      <use xlink:href="#DejaVuSans-83"/>
      <use x="63.476562" xlink:href="#DejaVuSans-116"/>
      <use x="102.685547" xlink:href="#DejaVuSans-114"/>
      <use x="143.798828" xlink:href="#DejaVuSans-97"/>
      <use x="205.078125" xlink:href="#DejaVuSans-32"/>
      <use x="236.865234" xlink:href="#DejaVuSans-49"/>
     </g>
    </g>
    <g id="line2d_22">
     <path d="M 77.24 44.730469 
L 107.24 44.730469 
" style="fill:none;stroke:#ff7f0e;stroke-linecap:square;stroke-width:1.5;"/>
    </g>
    <g id="line2d_23"/>
    <g id="text_15">
     <!-- Stra 2 -->
     <g transform="translate(119.24 49.980469)scale(0.15 -0.15)">
      <use xlink:href="#DejaVuSans-83"/>
      <use x="63.476562" xlink:href="#DejaVuSans-116"/>
      <use x="102.685547" xlink:href="#DejaVuSans-114"/>
      <use x="143.798828" xlink:href="#DejaVuSans-97"/>
      <use x="205.078125" xlink:href="#DejaVuSans-32"/>
      <use x="236.865234" xlink:href="#DejaVuSans-50"/>
     </g>
    </g>
    <g id="line2d_24">
     <path d="M 194.365024 22.713281 
L 224.365024 22.713281 
" style="fill:none;stroke:#2ca02c;stroke-linecap:square;stroke-width:1.5;"/>
    </g>
    <g id="line2d_25"/>
    <g id="text_16">
     <!-- Stra 3 -->
     <defs>
      <path d="M 40.578125 39.3125 
Q 47.65625 37.796875 51.625 33 
Q 55.609375 28.21875 55.609375 21.1875 
Q 55.609375 10.40625 48.1875 4.484375 
Q 40.765625 -1.421875 27.09375 -1.421875 
Q 22.515625 -1.421875 17.65625 -0.515625 
Q 12.796875 0.390625 7.625 2.203125 
L 7.625 11.71875 
Q 11.71875 9.328125 16.59375 8.109375 
Q 21.484375 6.890625 26.8125 6.890625 
Q 36.078125 6.890625 40.9375 10.546875 
Q 45.796875 14.203125 45.796875 21.1875 
Q 45.796875 27.640625 41.28125 31.265625 
Q 36.765625 34.90625 28.71875 34.90625 
L 20.21875 34.90625 
L 20.21875 43.015625 
L 29.109375 43.015625 
Q 36.375 43.015625 40.234375 45.921875 
Q 44.09375 48.828125 44.09375 54.296875 
Q 44.09375 59.90625 40.109375 62.90625 
Q 36.140625 65.921875 28.71875 65.921875 
Q 24.65625 65.921875 20.015625 65.03125 
Q 15.375 64.15625 9.8125 62.3125 
L 9.8125 71.09375 
Q 15.4375 72.65625 20.34375 73.4375 
Q 25.25 74.21875 29.59375 74.21875 
Q 40.828125 74.21875 47.359375 69.109375 
Q 53.90625 64.015625 53.90625 55.328125 
Q 53.90625 49.265625 50.4375 45.09375 
Q 46.96875 40.921875 40.578125 39.3125 
z
" id="DejaVuSans-51"/>
     </defs>
     <g transform="translate(236.365024 27.963281)scale(0.15 -0.15)">
      <use xlink:href="#DejaVuSans-83"/>
      <use x="63.476562" xlink:href="#DejaVuSans-116"/>
      <use x="102.685547" xlink:href="#DejaVuSans-114"/>
      <use x="143.798828" xlink:href="#DejaVuSans-97"/>
      <use x="205.078125" xlink:href="#DejaVuSans-32"/>
      <use x="236.865234" xlink:href="#DejaVuSans-51"/>
     </g>
    </g>
    <g id="line2d_26">
     <path d="M 194.365024 44.730469 
L 224.365024 44.730469 
" style="fill:none;stroke:#d62728;stroke-linecap:square;stroke-width:1.5;"/>
    </g>
    <g id="line2d_27"/>
    <g id="text_17">
     <!-- Stra 4 -->
     <defs>
      <path d="M 37.796875 64.3125 
L 12.890625 25.390625 
L 37.796875 25.390625 
z
M 35.203125 72.90625 
L 47.609375 72.90625 
L 47.609375 25.390625 
L 58.015625 25.390625 
L 58.015625 17.1875 
L 47.609375 17.1875 
L 47.609375 0 
L 37.796875 0 
L 37.796875 17.1875 
L 4.890625 17.1875 
L 4.890625 26.703125 
z
" id="DejaVuSans-52"/>
     </defs>
     <g transform="translate(236.365024 49.980469)scale(0.15 -0.15)">
      <use xlink:href="#DejaVuSans-83"/>
      <use x="63.476562" xlink:href="#DejaVuSans-116"/>
      <use x="102.685547" xlink:href="#DejaVuSans-114"/>
      <use x="143.798828" xlink:href="#DejaVuSans-97"/>
      <use x="205.078125" xlink:href="#DejaVuSans-32"/>
      <use x="236.865234" xlink:href="#DejaVuSans-52"/>
     </g>
    </g>
    <g id="line2d_28">
     <path d="M 311.490047 22.713281 
L 341.490047 22.713281 
" style="fill:none;stroke:#9467bd;stroke-linecap:square;stroke-width:1.5;"/>
    </g>
    <g id="line2d_29"/>
    <g id="text_18">
     <!-- Stra 5 -->
     <g transform="translate(353.490047 27.963281)scale(0.15 -0.15)">
      <use xlink:href="#DejaVuSans-83"/>
      <use x="63.476562" xlink:href="#DejaVuSans-116"/>
      <use x="102.685547" xlink:href="#DejaVuSans-114"/>
      <use x="143.798828" xlink:href="#DejaVuSans-97"/>
      <use x="205.078125" xlink:href="#DejaVuSans-32"/>
      <use x="236.865234" xlink:href="#DejaVuSans-53"/>
     </g>
    </g>
    <g id="line2d_30">
     <path d="M 311.490047 44.730469 
L 341.490047 44.730469 
" style="fill:none;stroke:#8c564b;stroke-linecap:square;stroke-width:1.5;"/>
    </g>
    <g id="line2d_31"/>
    <g id="text_19">
     <!-- Stra 6 -->
     <defs>
      <path d="M 33.015625 40.375 
Q 26.375 40.375 22.484375 35.828125 
Q 18.609375 31.296875 18.609375 23.390625 
Q 18.609375 15.53125 22.484375 10.953125 
Q 26.375 6.390625 33.015625 6.390625 
Q 39.65625 6.390625 43.53125 10.953125 
Q 47.40625 15.53125 47.40625 23.390625 
Q 47.40625 31.296875 43.53125 35.828125 
Q 39.65625 40.375 33.015625 40.375 
z
M 52.59375 71.296875 
L 52.59375 62.3125 
Q 48.875 64.0625 45.09375 64.984375 
Q 41.3125 65.921875 37.59375 65.921875 
Q 27.828125 65.921875 22.671875 59.328125 
Q 17.53125 52.734375 16.796875 39.40625 
Q 19.671875 43.65625 24.015625 45.921875 
Q 28.375 48.1875 33.59375 48.1875 
Q 44.578125 48.1875 50.953125 41.515625 
Q 57.328125 34.859375 57.328125 23.390625 
Q 57.328125 12.15625 50.6875 5.359375 
Q 44.046875 -1.421875 33.015625 -1.421875 
Q 20.359375 -1.421875 13.671875 8.265625 
Q 6.984375 17.96875 6.984375 36.375 
Q 6.984375 53.65625 15.1875 63.9375 
Q 23.390625 74.21875 37.203125 74.21875 
Q 40.921875 74.21875 44.703125 73.484375 
Q 48.484375 72.75 52.59375 71.296875 
z
" id="DejaVuSans-54"/>
     </defs>
     <g transform="translate(353.490047 49.980469)scale(0.15 -0.15)">
      <use xlink:href="#DejaVuSans-83"/>
      <use x="63.476562" xlink:href="#DejaVuSans-116"/>
      <use x="102.685547" xlink:href="#DejaVuSans-114"/>
      <use x="143.798828" xlink:href="#DejaVuSans-97"/>
      <use x="205.078125" xlink:href="#DejaVuSans-32"/>
      <use x="236.865234" xlink:href="#DejaVuSans-54"/>
     </g>
    </g>
    <g id="line2d_32">
     <path d="M 428.615071 22.713281 
L 458.615071 22.713281 
" style="fill:none;stroke:#e377c2;stroke-linecap:square;stroke-width:1.5;"/>
    </g>
    <g id="line2d_33"/>
    <g id="text_20">
     <!-- Stra 7 -->
     <defs>
      <path d="M 8.203125 72.90625 
L 55.078125 72.90625 
L 55.078125 68.703125 
L 28.609375 0 
L 18.3125 0 
L 43.21875 64.59375 
L 8.203125 64.59375 
z
" id="DejaVuSans-55"/>
     </defs>
     <g transform="translate(470.615071 27.963281)scale(0.15 -0.15)">
      <use xlink:href="#DejaVuSans-83"/>
      <use x="63.476562" xlink:href="#DejaVuSans-116"/>
      <use x="102.685547" xlink:href="#DejaVuSans-114"/>
      <use x="143.798828" xlink:href="#DejaVuSans-97"/>
      <use x="205.078125" xlink:href="#DejaVuSans-32"/>
      <use x="236.865234" xlink:href="#DejaVuSans-55"/>
     </g>
    </g>
    <g id="line2d_34">
     <path d="M 428.615071 44.730469 
L 458.615071 44.730469 
" style="fill:none;stroke:#7f7f7f;stroke-linecap:square;stroke-width:1.5;"/>
    </g>
    <g id="line2d_35"/>
    <g id="text_21">
     <!-- Stra 8 -->
     <defs>
      <path d="M 31.78125 34.625 
Q 24.75 34.625 20.71875 30.859375 
Q 16.703125 27.09375 16.703125 20.515625 
Q 16.703125 13.921875 20.71875 10.15625 
Q 24.75 6.390625 31.78125 6.390625 
Q 38.8125 6.390625 42.859375 10.171875 
Q 46.921875 13.96875 46.921875 20.515625 
Q 46.921875 27.09375 42.890625 30.859375 
Q 38.875 34.625 31.78125 34.625 
z
M 21.921875 38.8125 
Q 15.578125 40.375 12.03125 44.71875 
Q 8.5 49.078125 8.5 55.328125 
Q 8.5 64.0625 14.71875 69.140625 
Q 20.953125 74.21875 31.78125 74.21875 
Q 42.671875 74.21875 48.875 69.140625 
Q 55.078125 64.0625 55.078125 55.328125 
Q 55.078125 49.078125 51.53125 44.71875 
Q 48 40.375 41.703125 38.8125 
Q 48.828125 37.15625 52.796875 32.3125 
Q 56.78125 27.484375 56.78125 20.515625 
Q 56.78125 9.90625 50.3125 4.234375 
Q 43.84375 -1.421875 31.78125 -1.421875 
Q 19.734375 -1.421875 13.25 4.234375 
Q 6.78125 9.90625 6.78125 20.515625 
Q 6.78125 27.484375 10.78125 32.3125 
Q 14.796875 37.15625 21.921875 38.8125 
z
M 18.3125 54.390625 
Q 18.3125 48.734375 21.84375 45.5625 
Q 25.390625 42.390625 31.78125 42.390625 
Q 38.140625 42.390625 41.71875 45.5625 
Q 45.3125 48.734375 45.3125 54.390625 
Q 45.3125 60.0625 41.71875 63.234375 
Q 38.140625 66.40625 31.78125 66.40625 
Q 25.390625 66.40625 21.84375 63.234375 
Q 18.3125 60.0625 18.3125 54.390625 
z
" id="DejaVuSans-56"/>
     </defs>
     <g transform="translate(470.615071 49.980469)scale(0.15 -0.15)">
      <use xlink:href="#DejaVuSans-83"/>
      <use x="63.476562" xlink:href="#DejaVuSans-116"/>
      <use x="102.685547" xlink:href="#DejaVuSans-114"/>
      <use x="143.798828" xlink:href="#DejaVuSans-97"/>
      <use x="205.078125" xlink:href="#DejaVuSans-32"/>
      <use x="236.865234" xlink:href="#DejaVuSans-56"/>
     </g>
    </g>
   </g>
  </g>
 </g>
 <defs>
  <clipPath id="pd284f87c7d">
   <rect height="298.96" width="465.447727" x="63.74" y="66.6"/>
  </clipPath>
 </defs>
</svg>
