<?xml version="1.0" encoding="utf-8" standalone="no"?>
<!DOCTYPE svg PUBLIC "-//W3C//DTD SVG 1.1//EN"
  "http://www.w3.org/Graphics/SVG/1.1/DTD/svg11.dtd">
<!-- Created with matplotlib (https://matplotlib.org/) -->
<svg height="432pt" version="1.1" viewBox="0 0 540 432" width="540pt" xmlns="http://www.w3.org/2000/svg" xmlns:xlink="http://www.w3.org/1999/xlink">
 <defs>
  <style type="text/css">
*{stroke-linecap:butt;stroke-linejoin:round;}
  </style>
 </defs>
 <g id="figure_1">
  <g id="patch_1">
   <path d="M 0 432 
L 540 432 
L 540 0 
L 0 0 
z
" style="fill:#ffffff;"/>
  </g>
  <g id="axes_1">
   <g id="patch_2">
    <path d="M 82.82 365.56 
L 529.2 365.56 
L 529.2 66.6 
L 82.82 66.6 
z
" style="fill:#ffffff;"/>
   </g>
   <g id="matplotlib.axis_1">
    <g id="xtick_1">
     <g id="line2d_1">
      <defs>
       <path d="M 0 0 
L 0 3.5 
" id="m02f9653d68" style="stroke:#000000;stroke-width:0.8;"/>
      </defs>
      <g>
       <use style="stroke:#000000;stroke-width:0.8;" x="103.11" xlink:href="#m02f9653d68" y="365.56"/>
      </g>
     </g>
     <g id="text_1">
      <!-- 0 -->
      <defs>
       <path d="M 31.78125 66.40625 
Q 24.171875 66.40625 20.328125 58.90625 
Q 16.5 51.421875 16.5 36.375 
Q 16.5 21.390625 20.328125 13.890625 
Q 24.171875 6.390625 31.78125 6.390625 
Q 39.453125 6.390625 43.28125 13.890625 
Q 47.125 21.390625 47.125 36.375 
Q 47.125 51.421875 43.28125 58.90625 
Q 39.453125 66.40625 31.78125 66.40625 
z
M 31.78125 74.21875 
Q 44.046875 74.21875 50.515625 64.515625 
Q 56.984375 54.828125 56.984375 36.375 
Q 56.984375 17.96875 50.515625 8.265625 
Q 44.046875 -1.421875 31.78125 -1.421875 
Q 19.53125 -1.421875 13.0625 8.265625 
Q 6.59375 17.96875 6.59375 36.375 
Q 6.59375 54.828125 13.0625 64.515625 
Q 19.53125 74.21875 31.78125 74.21875 
z
" id="DejaVuSans-48"/>
      </defs>
      <g transform="translate(96.7475 387.756875)scale(0.2 -0.2)">
       <use xlink:href="#DejaVuSans-48"/>
      </g>
     </g>
    </g>
    <g id="xtick_2">
     <g id="line2d_2">
      <g>
       <use style="stroke:#000000;stroke-width:0.8;" x="179.966061" xlink:href="#m02f9653d68" y="365.56"/>
      </g>
     </g>
     <g id="text_2">
      <!-- 100 -->
      <defs>
       <path d="M 12.40625 8.296875 
L 28.515625 8.296875 
L 28.515625 63.921875 
L 10.984375 60.40625 
L 10.984375 69.390625 
L 28.421875 72.90625 
L 38.28125 72.90625 
L 38.28125 8.296875 
L 54.390625 8.296875 
L 54.390625 0 
L 12.40625 0 
z
" id="DejaVuSans-49"/>
      </defs>
      <g transform="translate(160.878561 387.756875)scale(0.2 -0.2)">
       <use xlink:href="#DejaVuSans-49"/>
       <use x="63.623047" xlink:href="#DejaVuSans-48"/>
       <use x="127.246094" xlink:href="#DejaVuSans-48"/>
      </g>
     </g>
    </g>
    <g id="xtick_3">
     <g id="line2d_3">
      <g>
       <use style="stroke:#000000;stroke-width:0.8;" x="256.822121" xlink:href="#m02f9653d68" y="365.56"/>
      </g>
     </g>
     <g id="text_3">
      <!-- 200 -->
      <defs>
       <path d="M 19.1875 8.296875 
L 53.609375 8.296875 
L 53.609375 0 
L 7.328125 0 
L 7.328125 8.296875 
Q 12.9375 14.109375 22.625 23.890625 
Q 32.328125 33.6875 34.8125 36.53125 
Q 39.546875 41.84375 41.421875 45.53125 
Q 43.3125 49.21875 43.3125 52.78125 
Q 43.3125 58.59375 39.234375 62.25 
Q 35.15625 65.921875 28.609375 65.921875 
Q 23.96875 65.921875 18.8125 64.3125 
Q 13.671875 62.703125 7.8125 59.421875 
L 7.8125 69.390625 
Q 13.765625 71.78125 18.9375 73 
Q 24.125 74.21875 28.421875 74.21875 
Q 39.75 74.21875 46.484375 68.546875 
Q 53.21875 62.890625 53.21875 53.421875 
Q 53.21875 48.921875 51.53125 44.890625 
Q 49.859375 40.875 45.40625 35.40625 
Q 44.1875 33.984375 37.640625 27.21875 
Q 31.109375 20.453125 19.1875 8.296875 
z
" id="DejaVuSans-50"/>
      </defs>
      <g transform="translate(237.734621 387.756875)scale(0.2 -0.2)">
       <use xlink:href="#DejaVuSans-50"/>
       <use x="63.623047" xlink:href="#DejaVuSans-48"/>
       <use x="127.246094" xlink:href="#DejaVuSans-48"/>
      </g>
     </g>
    </g>
    <g id="xtick_4">
     <g id="line2d_4">
      <g>
       <use style="stroke:#000000;stroke-width:0.8;" x="333.678182" xlink:href="#m02f9653d68" y="365.56"/>
      </g>
     </g>
     <g id="text_4">
      <!-- 300 -->
      <defs>
       <path d="M 40.578125 39.3125 
Q 47.65625 37.796875 51.625 33 
Q 55.609375 28.21875 55.609375 21.1875 
Q 55.609375 10.40625 48.1875 4.484375 
Q 40.765625 -1.421875 27.09375 -1.421875 
Q 22.515625 -1.421875 17.65625 -0.515625 
Q 12.796875 0.390625 7.625 2.203125 
L 7.625 11.71875 
Q 11.71875 9.328125 16.59375 8.109375 
Q 21.484375 6.890625 26.8125 6.890625 
Q 36.078125 6.890625 40.9375 10.546875 
Q 45.796875 14.203125 45.796875 21.1875 
Q 45.796875 27.640625 41.28125 31.265625 
Q 36.765625 34.90625 28.71875 34.90625 
L 20.21875 34.90625 
L 20.21875 43.015625 
L 29.109375 43.015625 
Q 36.375 43.015625 40.234375 45.921875 
Q 44.09375 48.828125 44.09375 54.296875 
Q 44.09375 59.90625 40.109375 62.90625 
Q 36.140625 65.921875 28.71875 65.921875 
Q 24.65625 65.921875 20.015625 65.03125 
Q 15.375 64.15625 9.8125 62.3125 
L 9.8125 71.09375 
Q 15.4375 72.65625 20.34375 73.4375 
Q 25.25 74.21875 29.59375 74.21875 
Q 40.828125 74.21875 47.359375 69.109375 
Q 53.90625 64.015625 53.90625 55.328125 
Q 53.90625 49.265625 50.4375 45.09375 
Q 46.96875 40.921875 40.578125 39.3125 
z
" id="DejaVuSans-51"/>
      </defs>
      <g transform="translate(314.590682 387.756875)scale(0.2 -0.2)">
       <use xlink:href="#DejaVuSans-51"/>
       <use x="63.623047" xlink:href="#DejaVuSans-48"/>
       <use x="127.246094" xlink:href="#DejaVuSans-48"/>
      </g>
     </g>
    </g>
    <g id="xtick_5">
     <g id="line2d_5">
      <g>
       <use style="stroke:#000000;stroke-width:0.8;" x="410.534242" xlink:href="#m02f9653d68" y="365.56"/>
      </g>
     </g>
     <g id="text_5">
      <!-- 400 -->
      <defs>
       <path d="M 37.796875 64.3125 
L 12.890625 25.390625 
L 37.796875 25.390625 
z
M 35.203125 72.90625 
L 47.609375 72.90625 
L 47.609375 25.390625 
L 58.015625 25.390625 
L 58.015625 17.1875 
L 47.609375 17.1875 
L 47.609375 0 
L 37.796875 0 
L 37.796875 17.1875 
L 4.890625 17.1875 
L 4.890625 26.703125 
z
" id="DejaVuSans-52"/>
      </defs>
      <g transform="translate(391.446742 387.756875)scale(0.2 -0.2)">
       <use xlink:href="#DejaVuSans-52"/>
       <use x="63.623047" xlink:href="#DejaVuSans-48"/>
       <use x="127.246094" xlink:href="#DejaVuSans-48"/>
      </g>
     </g>
    </g>
    <g id="xtick_6">
     <g id="line2d_6">
      <g>
       <use style="stroke:#000000;stroke-width:0.8;" x="487.390303" xlink:href="#m02f9653d68" y="365.56"/>
      </g>
     </g>
     <g id="text_6">
      <!-- 500 -->
      <defs>
       <path d="M 10.796875 72.90625 
L 49.515625 72.90625 
L 49.515625 64.59375 
L 19.828125 64.59375 
L 19.828125 46.734375 
Q 21.96875 47.46875 24.109375 47.828125 
Q 26.265625 48.1875 28.421875 48.1875 
Q 40.625 48.1875 47.75 41.5 
Q 54.890625 34.8125 54.890625 23.390625 
Q 54.890625 11.625 47.5625 5.09375 
Q 40.234375 -1.421875 26.90625 -1.421875 
Q 22.3125 -1.421875 17.546875 -0.640625 
Q 12.796875 0.140625 7.71875 1.703125 
L 7.71875 11.625 
Q 12.109375 9.234375 16.796875 8.0625 
Q 21.484375 6.890625 26.703125 6.890625 
Q 35.15625 6.890625 40.078125 11.328125 
Q 45.015625 15.765625 45.015625 23.390625 
Q 45.015625 31 40.078125 35.4375 
Q 35.15625 39.890625 26.703125 39.890625 
Q 22.75 39.890625 18.8125 39.015625 
Q 14.890625 38.140625 10.796875 36.28125 
z
" id="DejaVuSans-53"/>
      </defs>
      <g transform="translate(468.302803 387.756875)scale(0.2 -0.2)">
       <use xlink:href="#DejaVuSans-53"/>
       <use x="63.623047" xlink:href="#DejaVuSans-48"/>
       <use x="127.246094" xlink:href="#DejaVuSans-48"/>
      </g>
     </g>
    </g>
    <g id="text_7">
     <!-- # of games -->
     <defs>
      <path d="M 51.125 44 
L 36.921875 44 
L 32.8125 27.6875 
L 47.125 27.6875 
z
M 43.796875 71.78125 
L 38.71875 51.515625 
L 52.984375 51.515625 
L 58.109375 71.78125 
L 65.921875 71.78125 
L 60.890625 51.515625 
L 76.125 51.515625 
L 76.125 44 
L 58.984375 44 
L 54.984375 27.6875 
L 70.515625 27.6875 
L 70.515625 20.21875 
L 53.078125 20.21875 
L 48 0 
L 40.1875 0 
L 45.21875 20.21875 
L 30.90625 20.21875 
L 25.875 0 
L 18.015625 0 
L 23.09375 20.21875 
L 7.71875 20.21875 
L 7.71875 27.6875 
L 24.90625 27.6875 
L 29 44 
L 13.28125 44 
L 13.28125 51.515625 
L 30.90625 51.515625 
L 35.890625 71.78125 
z
" id="DejaVuSans-35"/>
      <path id="DejaVuSans-32"/>
      <path d="M 30.609375 48.390625 
Q 23.390625 48.390625 19.1875 42.75 
Q 14.984375 37.109375 14.984375 27.296875 
Q 14.984375 17.484375 19.15625 11.84375 
Q 23.34375 6.203125 30.609375 6.203125 
Q 37.796875 6.203125 41.984375 11.859375 
Q 46.1875 17.53125 46.1875 27.296875 
Q 46.1875 37.015625 41.984375 42.703125 
Q 37.796875 48.390625 30.609375 48.390625 
z
M 30.609375 56 
Q 42.328125 56 49.015625 48.375 
Q 55.71875 40.765625 55.71875 27.296875 
Q 55.71875 13.875 49.015625 6.21875 
Q 42.328125 -1.421875 30.609375 -1.421875 
Q 18.84375 -1.421875 12.171875 6.21875 
Q 5.515625 13.875 5.515625 27.296875 
Q 5.515625 40.765625 12.171875 48.375 
Q 18.84375 56 30.609375 56 
z
" id="DejaVuSans-111"/>
      <path d="M 37.109375 75.984375 
L 37.109375 68.5 
L 28.515625 68.5 
Q 23.6875 68.5 21.796875 66.546875 
Q 19.921875 64.59375 19.921875 59.515625 
L 19.921875 54.6875 
L 34.71875 54.6875 
L 34.71875 47.703125 
L 19.921875 47.703125 
L 19.921875 0 
L 10.890625 0 
L 10.890625 47.703125 
L 2.296875 47.703125 
L 2.296875 54.6875 
L 10.890625 54.6875 
L 10.890625 58.5 
Q 10.890625 67.625 15.140625 71.796875 
Q 19.390625 75.984375 28.609375 75.984375 
z
" id="DejaVuSans-102"/>
      <path d="M 45.40625 27.984375 
Q 45.40625 37.75 41.375 43.109375 
Q 37.359375 48.484375 30.078125 48.484375 
Q 22.859375 48.484375 18.828125 43.109375 
Q 14.796875 37.75 14.796875 27.984375 
Q 14.796875 18.265625 18.828125 12.890625 
Q 22.859375 7.515625 30.078125 7.515625 
Q 37.359375 7.515625 41.375 12.890625 
Q 45.40625 18.265625 45.40625 27.984375 
z
M 54.390625 6.78125 
Q 54.390625 -7.171875 48.1875 -13.984375 
Q 42 -20.796875 29.203125 -20.796875 
Q 24.46875 -20.796875 20.265625 -20.09375 
Q 16.0625 -19.390625 12.109375 -17.921875 
L 12.109375 -9.1875 
Q 16.0625 -11.328125 19.921875 -12.34375 
Q 23.78125 -13.375 27.78125 -13.375 
Q 36.625 -13.375 41.015625 -8.765625 
Q 45.40625 -4.15625 45.40625 5.171875 
L 45.40625 9.625 
Q 42.625 4.78125 38.28125 2.390625 
Q 33.9375 0 27.875 0 
Q 17.828125 0 11.671875 7.65625 
Q 5.515625 15.328125 5.515625 27.984375 
Q 5.515625 40.671875 11.671875 48.328125 
Q 17.828125 56 27.875 56 
Q 33.9375 56 38.28125 53.609375 
Q 42.625 51.21875 45.40625 46.390625 
L 45.40625 54.6875 
L 54.390625 54.6875 
z
" id="DejaVuSans-103"/>
      <path d="M 34.28125 27.484375 
Q 23.390625 27.484375 19.1875 25 
Q 14.984375 22.515625 14.984375 16.5 
Q 14.984375 11.71875 18.140625 8.90625 
Q 21.296875 6.109375 26.703125 6.109375 
Q 34.1875 6.109375 38.703125 11.40625 
Q 43.21875 16.703125 43.21875 25.484375 
L 43.21875 27.484375 
z
M 52.203125 31.203125 
L 52.203125 0 
L 43.21875 0 
L 43.21875 8.296875 
Q 40.140625 3.328125 35.546875 0.953125 
Q 30.953125 -1.421875 24.3125 -1.421875 
Q 15.921875 -1.421875 10.953125 3.296875 
Q 6 8.015625 6 15.921875 
Q 6 25.140625 12.171875 29.828125 
Q 18.359375 34.515625 30.609375 34.515625 
L 43.21875 34.515625 
L 43.21875 35.40625 
Q 43.21875 41.609375 39.140625 45 
Q 35.0625 48.390625 27.6875 48.390625 
Q 23 48.390625 18.546875 47.265625 
Q 14.109375 46.140625 10.015625 43.890625 
L 10.015625 52.203125 
Q 14.9375 54.109375 19.578125 55.046875 
Q 24.21875 56 28.609375 56 
Q 40.484375 56 46.34375 49.84375 
Q 52.203125 43.703125 52.203125 31.203125 
z
" id="DejaVuSans-97"/>
      <path d="M 52 44.1875 
Q 55.375 50.25 60.0625 53.125 
Q 64.75 56 71.09375 56 
Q 79.640625 56 84.28125 50.015625 
Q 88.921875 44.046875 88.921875 33.015625 
L 88.921875 0 
L 79.890625 0 
L 79.890625 32.71875 
Q 79.890625 40.578125 77.09375 44.375 
Q 74.3125 48.1875 68.609375 48.1875 
Q 61.625 48.1875 57.5625 43.546875 
Q 53.515625 38.921875 53.515625 30.90625 
L 53.515625 0 
L 44.484375 0 
L 44.484375 32.71875 
Q 44.484375 40.625 41.703125 44.40625 
Q 38.921875 48.1875 33.109375 48.1875 
Q 26.21875 48.1875 22.15625 43.53125 
Q 18.109375 38.875 18.109375 30.90625 
L 18.109375 0 
L 9.078125 0 
L 9.078125 54.6875 
L 18.109375 54.6875 
L 18.109375 46.1875 
Q 21.1875 51.21875 25.484375 53.609375 
Q 29.78125 56 35.6875 56 
Q 41.65625 56 45.828125 52.96875 
Q 50 49.953125 52 44.1875 
z
" id="DejaVuSans-109"/>
      <path d="M 56.203125 29.59375 
L 56.203125 25.203125 
L 14.890625 25.203125 
Q 15.484375 15.921875 20.484375 11.0625 
Q 25.484375 6.203125 34.421875 6.203125 
Q 39.59375 6.203125 44.453125 7.46875 
Q 49.3125 8.734375 54.109375 11.28125 
L 54.109375 2.78125 
Q 49.265625 0.734375 44.1875 -0.34375 
Q 39.109375 -1.421875 33.890625 -1.421875 
Q 20.796875 -1.421875 13.15625 6.1875 
Q 5.515625 13.8125 5.515625 26.8125 
Q 5.515625 40.234375 12.765625 48.109375 
Q 20.015625 56 32.328125 56 
Q 43.359375 56 49.78125 48.890625 
Q 56.203125 41.796875 56.203125 29.59375 
z
M 47.21875 32.234375 
Q 47.125 39.59375 43.09375 43.984375 
Q 39.0625 48.390625 32.421875 48.390625 
Q 24.90625 48.390625 20.390625 44.140625 
Q 15.875 39.890625 15.1875 32.171875 
z
" id="DejaVuSans-101"/>
      <path d="M 44.28125 53.078125 
L 44.28125 44.578125 
Q 40.484375 46.53125 36.375 47.5 
Q 32.28125 48.484375 27.875 48.484375 
Q 21.1875 48.484375 17.84375 46.4375 
Q 14.5 44.390625 14.5 40.28125 
Q 14.5 37.15625 16.890625 35.375 
Q 19.28125 33.59375 26.515625 31.984375 
L 29.59375 31.296875 
Q 39.15625 29.25 43.1875 25.515625 
Q 47.21875 21.78125 47.21875 15.09375 
Q 47.21875 7.46875 41.1875 3.015625 
Q 35.15625 -1.421875 24.609375 -1.421875 
Q 20.21875 -1.421875 15.453125 -0.5625 
Q 10.6875 0.296875 5.421875 2 
L 5.421875 11.28125 
Q 10.40625 8.6875 15.234375 7.390625 
Q 20.0625 6.109375 24.8125 6.109375 
Q 31.15625 6.109375 34.5625 8.28125 
Q 37.984375 10.453125 37.984375 14.40625 
Q 37.984375 18.0625 35.515625 20.015625 
Q 33.0625 21.96875 24.703125 23.78125 
L 21.578125 24.515625 
Q 13.234375 26.265625 9.515625 29.90625 
Q 5.8125 33.546875 5.8125 39.890625 
Q 5.8125 47.609375 11.28125 51.796875 
Q 16.75 56 26.8125 56 
Q 31.78125 56 36.171875 55.265625 
Q 40.578125 54.546875 44.28125 53.078125 
z
" id="DejaVuSans-115"/>
     </defs>
     <g transform="translate(233.566641 414.912344)scale(0.25 -0.25)">
      <use xlink:href="#DejaVuSans-35"/>
      <use x="83.789062" xlink:href="#DejaVuSans-32"/>
      <use x="115.576172" xlink:href="#DejaVuSans-111"/>
      <use x="176.757812" xlink:href="#DejaVuSans-102"/>
      <use x="211.962891" xlink:href="#DejaVuSans-32"/>
      <use x="243.75" xlink:href="#DejaVuSans-103"/>
      <use x="307.226562" xlink:href="#DejaVuSans-97"/>
      <use x="368.505859" xlink:href="#DejaVuSans-109"/>
      <use x="465.917969" xlink:href="#DejaVuSans-101"/>
      <use x="527.441406" xlink:href="#DejaVuSans-115"/>
     </g>
    </g>
   </g>
   <g id="matplotlib.axis_2">
    <g id="ytick_1">
     <g id="line2d_7">
      <defs>
       <path d="M 0 0 
L -3.5 0 
" id="m52d4ea9845" style="stroke:#000000;stroke-width:0.8;"/>
      </defs>
      <g>
       <use style="stroke:#000000;stroke-width:0.8;" x="82.82" xlink:href="#m52d4ea9845" y="340.873935"/>
      </g>
     </g>
     <g id="text_8">
      <!-- 0.86 -->
      <defs>
       <path d="M 10.6875 12.40625 
L 21 12.40625 
L 21 0 
L 10.6875 0 
z
" id="DejaVuSans-46"/>
       <path d="M 31.78125 34.625 
Q 24.75 34.625 20.71875 30.859375 
Q 16.703125 27.09375 16.703125 20.515625 
Q 16.703125 13.921875 20.71875 10.15625 
Q 24.75 6.390625 31.78125 6.390625 
Q 38.8125 6.390625 42.859375 10.171875 
Q 46.921875 13.96875 46.921875 20.515625 
Q 46.921875 27.09375 42.890625 30.859375 
Q 38.875 34.625 31.78125 34.625 
z
M 21.921875 38.8125 
Q 15.578125 40.375 12.03125 44.71875 
Q 8.5 49.078125 8.5 55.328125 
Q 8.5 64.0625 14.71875 69.140625 
Q 20.953125 74.21875 31.78125 74.21875 
Q 42.671875 74.21875 48.875 69.140625 
Q 55.078125 64.0625 55.078125 55.328125 
Q 55.078125 49.078125 51.53125 44.71875 
Q 48 40.375 41.703125 38.8125 
Q 48.828125 37.15625 52.796875 32.3125 
Q 56.78125 27.484375 56.78125 20.515625 
Q 56.78125 9.90625 50.3125 4.234375 
Q 43.84375 -1.421875 31.78125 -1.421875 
Q 19.734375 -1.421875 13.25 4.234375 
Q 6.78125 9.90625 6.78125 20.515625 
Q 6.78125 27.484375 10.78125 32.3125 
Q 14.796875 37.15625 21.921875 38.8125 
z
M 18.3125 54.390625 
Q 18.3125 48.734375 21.84375 45.5625 
Q 25.390625 42.390625 31.78125 42.390625 
Q 38.140625 42.390625 41.71875 45.5625 
Q 45.3125 48.734375 45.3125 54.390625 
Q 45.3125 60.0625 41.71875 63.234375 
Q 38.140625 66.40625 31.78125 66.40625 
Q 25.390625 66.40625 21.84375 63.234375 
Q 18.3125 60.0625 18.3125 54.390625 
z
" id="DejaVuSans-56"/>
       <path d="M 33.015625 40.375 
Q 26.375 40.375 22.484375 35.828125 
Q 18.609375 31.296875 18.609375 23.390625 
Q 18.609375 15.53125 22.484375 10.953125 
Q 26.375 6.390625 33.015625 6.390625 
Q 39.65625 6.390625 43.53125 10.953125 
Q 47.40625 15.53125 47.40625 23.390625 
Q 47.40625 31.296875 43.53125 35.828125 
Q 39.65625 40.375 33.015625 40.375 
z
M 52.59375 71.296875 
L 52.59375 62.3125 
Q 48.875 64.0625 45.09375 64.984375 
Q 41.3125 65.921875 37.59375 65.921875 
Q 27.828125 65.921875 22.671875 59.328125 
Q 17.53125 52.734375 16.796875 39.40625 
Q 19.671875 43.65625 24.015625 45.921875 
Q 28.375 48.1875 33.59375 48.1875 
Q 44.578125 48.1875 50.953125 41.515625 
Q 57.328125 34.859375 57.328125 23.390625 
Q 57.328125 12.15625 50.6875 5.359375 
Q 44.046875 -1.421875 33.015625 -1.421875 
Q 20.359375 -1.421875 13.671875 8.265625 
Q 6.984375 17.96875 6.984375 36.375 
Q 6.984375 53.65625 15.1875 63.9375 
Q 23.390625 74.21875 37.203125 74.21875 
Q 40.921875 74.21875 44.703125 73.484375 
Q 48.484375 72.75 52.59375 71.296875 
z
" id="DejaVuSans-54"/>
      </defs>
      <g transform="translate(31.28875 348.472373)scale(0.2 -0.2)">
       <use xlink:href="#DejaVuSans-48"/>
       <use x="63.623047" xlink:href="#DejaVuSans-46"/>
       <use x="95.410156" xlink:href="#DejaVuSans-56"/>
       <use x="159.033203" xlink:href="#DejaVuSans-54"/>
      </g>
     </g>
    </g>
    <g id="ytick_2">
     <g id="line2d_8">
      <g>
       <use style="stroke:#000000;stroke-width:0.8;" x="82.82" xlink:href="#m52d4ea9845" y="303.633243"/>
      </g>
     </g>
     <g id="text_9">
      <!-- 0.88 -->
      <g transform="translate(31.28875 311.231681)scale(0.2 -0.2)">
       <use xlink:href="#DejaVuSans-48"/>
       <use x="63.623047" xlink:href="#DejaVuSans-46"/>
       <use x="95.410156" xlink:href="#DejaVuSans-56"/>
       <use x="159.033203" xlink:href="#DejaVuSans-56"/>
      </g>
     </g>
    </g>
    <g id="ytick_3">
     <g id="line2d_9">
      <g>
       <use style="stroke:#000000;stroke-width:0.8;" x="82.82" xlink:href="#m52d4ea9845" y="266.392551"/>
      </g>
     </g>
     <g id="text_10">
      <!-- 0.90 -->
      <defs>
       <path d="M 10.984375 1.515625 
L 10.984375 10.5 
Q 14.703125 8.734375 18.5 7.8125 
Q 22.3125 6.890625 25.984375 6.890625 
Q 35.75 6.890625 40.890625 13.453125 
Q 46.046875 20.015625 46.78125 33.40625 
Q 43.953125 29.203125 39.59375 26.953125 
Q 35.25 24.703125 29.984375 24.703125 
Q 19.046875 24.703125 12.671875 31.3125 
Q 6.296875 37.9375 6.296875 49.421875 
Q 6.296875 60.640625 12.9375 67.421875 
Q 19.578125 74.21875 30.609375 74.21875 
Q 43.265625 74.21875 49.921875 64.515625 
Q 56.59375 54.828125 56.59375 36.375 
Q 56.59375 19.140625 48.40625 8.859375 
Q 40.234375 -1.421875 26.421875 -1.421875 
Q 22.703125 -1.421875 18.890625 -0.6875 
Q 15.09375 0.046875 10.984375 1.515625 
z
M 30.609375 32.421875 
Q 37.25 32.421875 41.125 36.953125 
Q 45.015625 41.5 45.015625 49.421875 
Q 45.015625 57.28125 41.125 61.84375 
Q 37.25 66.40625 30.609375 66.40625 
Q 23.96875 66.40625 20.09375 61.84375 
Q 16.21875 57.28125 16.21875 49.421875 
Q 16.21875 41.5 20.09375 36.953125 
Q 23.96875 32.421875 30.609375 32.421875 
z
" id="DejaVuSans-57"/>
      </defs>
      <g transform="translate(31.28875 273.990989)scale(0.2 -0.2)">
       <use xlink:href="#DejaVuSans-48"/>
       <use x="63.623047" xlink:href="#DejaVuSans-46"/>
       <use x="95.410156" xlink:href="#DejaVuSans-57"/>
       <use x="159.033203" xlink:href="#DejaVuSans-48"/>
      </g>
     </g>
    </g>
    <g id="ytick_4">
     <g id="line2d_10">
      <g>
       <use style="stroke:#000000;stroke-width:0.8;" x="82.82" xlink:href="#m52d4ea9845" y="229.151859"/>
      </g>
     </g>
     <g id="text_11">
      <!-- 0.92 -->
      <g transform="translate(31.28875 236.750297)scale(0.2 -0.2)">
       <use xlink:href="#DejaVuSans-48"/>
       <use x="63.623047" xlink:href="#DejaVuSans-46"/>
       <use x="95.410156" xlink:href="#DejaVuSans-57"/>
       <use x="159.033203" xlink:href="#DejaVuSans-50"/>
      </g>
     </g>
    </g>
    <g id="ytick_5">
     <g id="line2d_11">
      <g>
       <use style="stroke:#000000;stroke-width:0.8;" x="82.82" xlink:href="#m52d4ea9845" y="191.911167"/>
      </g>
     </g>
     <g id="text_12">
      <!-- 0.94 -->
      <g transform="translate(31.28875 199.509605)scale(0.2 -0.2)">
       <use xlink:href="#DejaVuSans-48"/>
       <use x="63.623047" xlink:href="#DejaVuSans-46"/>
       <use x="95.410156" xlink:href="#DejaVuSans-57"/>
       <use x="159.033203" xlink:href="#DejaVuSans-52"/>
      </g>
     </g>
    </g>
    <g id="ytick_6">
     <g id="line2d_12">
      <g>
       <use style="stroke:#000000;stroke-width:0.8;" x="82.82" xlink:href="#m52d4ea9845" y="154.670475"/>
      </g>
     </g>
     <g id="text_13">
      <!-- 0.96 -->
      <g transform="translate(31.28875 162.268912)scale(0.2 -0.2)">
       <use xlink:href="#DejaVuSans-48"/>
       <use x="63.623047" xlink:href="#DejaVuSans-46"/>
       <use x="95.410156" xlink:href="#DejaVuSans-57"/>
       <use x="159.033203" xlink:href="#DejaVuSans-54"/>
      </g>
     </g>
    </g>
    <g id="ytick_7">
     <g id="line2d_13">
      <g>
       <use style="stroke:#000000;stroke-width:0.8;" x="82.82" xlink:href="#m52d4ea9845" y="117.429783"/>
      </g>
     </g>
     <g id="text_14">
      <!-- 0.98 -->
      <g transform="translate(31.28875 125.02822)scale(0.2 -0.2)">
       <use xlink:href="#DejaVuSans-48"/>
       <use x="63.623047" xlink:href="#DejaVuSans-46"/>
       <use x="95.410156" xlink:href="#DejaVuSans-57"/>
       <use x="159.033203" xlink:href="#DejaVuSans-56"/>
      </g>
     </g>
    </g>
    <g id="ytick_8">
     <g id="line2d_14">
      <g>
       <use style="stroke:#000000;stroke-width:0.8;" x="82.82" xlink:href="#m52d4ea9845" y="80.189091"/>
      </g>
     </g>
     <g id="text_15">
      <!-- 1.00 -->
      <g transform="translate(31.28875 87.787528)scale(0.2 -0.2)">
       <use xlink:href="#DejaVuSans-49"/>
       <use x="63.623047" xlink:href="#DejaVuSans-46"/>
       <use x="95.410156" xlink:href="#DejaVuSans-48"/>
       <use x="159.033203" xlink:href="#DejaVuSans-48"/>
      </g>
     </g>
    </g>
    <g id="text_16">
     <!-- defense impact Value -->
     <defs>
      <path d="M 45.40625 46.390625 
L 45.40625 75.984375 
L 54.390625 75.984375 
L 54.390625 0 
L 45.40625 0 
L 45.40625 8.203125 
Q 42.578125 3.328125 38.25 0.953125 
Q 33.9375 -1.421875 27.875 -1.421875 
Q 17.96875 -1.421875 11.734375 6.484375 
Q 5.515625 14.40625 5.515625 27.296875 
Q 5.515625 40.1875 11.734375 48.09375 
Q 17.96875 56 27.875 56 
Q 33.9375 56 38.25 53.625 
Q 42.578125 51.265625 45.40625 46.390625 
z
M 14.796875 27.296875 
Q 14.796875 17.390625 18.875 11.75 
Q 22.953125 6.109375 30.078125 6.109375 
Q 37.203125 6.109375 41.296875 11.75 
Q 45.40625 17.390625 45.40625 27.296875 
Q 45.40625 37.203125 41.296875 42.84375 
Q 37.203125 48.484375 30.078125 48.484375 
Q 22.953125 48.484375 18.875 42.84375 
Q 14.796875 37.203125 14.796875 27.296875 
z
" id="DejaVuSans-100"/>
      <path d="M 54.890625 33.015625 
L 54.890625 0 
L 45.90625 0 
L 45.90625 32.71875 
Q 45.90625 40.484375 42.875 44.328125 
Q 39.84375 48.1875 33.796875 48.1875 
Q 26.515625 48.1875 22.3125 43.546875 
Q 18.109375 38.921875 18.109375 30.90625 
L 18.109375 0 
L 9.078125 0 
L 9.078125 54.6875 
L 18.109375 54.6875 
L 18.109375 46.1875 
Q 21.34375 51.125 25.703125 53.5625 
Q 30.078125 56 35.796875 56 
Q 45.21875 56 50.046875 50.171875 
Q 54.890625 44.34375 54.890625 33.015625 
z
" id="DejaVuSans-110"/>
      <path d="M 9.421875 54.6875 
L 18.40625 54.6875 
L 18.40625 0 
L 9.421875 0 
z
M 9.421875 75.984375 
L 18.40625 75.984375 
L 18.40625 64.59375 
L 9.421875 64.59375 
z
" id="DejaVuSans-105"/>
      <path d="M 18.109375 8.203125 
L 18.109375 -20.796875 
L 9.078125 -20.796875 
L 9.078125 54.6875 
L 18.109375 54.6875 
L 18.109375 46.390625 
Q 20.953125 51.265625 25.265625 53.625 
Q 29.59375 56 35.59375 56 
Q 45.5625 56 51.78125 48.09375 
Q 58.015625 40.1875 58.015625 27.296875 
Q 58.015625 14.40625 51.78125 6.484375 
Q 45.5625 -1.421875 35.59375 -1.421875 
Q 29.59375 -1.421875 25.265625 0.953125 
Q 20.953125 3.328125 18.109375 8.203125 
z
M 48.6875 27.296875 
Q 48.6875 37.203125 44.609375 42.84375 
Q 40.53125 48.484375 33.40625 48.484375 
Q 26.265625 48.484375 22.1875 42.84375 
Q 18.109375 37.203125 18.109375 27.296875 
Q 18.109375 17.390625 22.1875 11.75 
Q 26.265625 6.109375 33.40625 6.109375 
Q 40.53125 6.109375 44.609375 11.75 
Q 48.6875 17.390625 48.6875 27.296875 
z
" id="DejaVuSans-112"/>
      <path d="M 48.78125 52.59375 
L 48.78125 44.1875 
Q 44.96875 46.296875 41.140625 47.34375 
Q 37.3125 48.390625 33.40625 48.390625 
Q 24.65625 48.390625 19.8125 42.84375 
Q 14.984375 37.3125 14.984375 27.296875 
Q 14.984375 17.28125 19.8125 11.734375 
Q 24.65625 6.203125 33.40625 6.203125 
Q 37.3125 6.203125 41.140625 7.25 
Q 44.96875 8.296875 48.78125 10.40625 
L 48.78125 2.09375 
Q 45.015625 0.34375 40.984375 -0.53125 
Q 36.96875 -1.421875 32.421875 -1.421875 
Q 20.0625 -1.421875 12.78125 6.34375 
Q 5.515625 14.109375 5.515625 27.296875 
Q 5.515625 40.671875 12.859375 48.328125 
Q 20.21875 56 33.015625 56 
Q 37.15625 56 41.109375 55.140625 
Q 45.0625 54.296875 48.78125 52.59375 
z
" id="DejaVuSans-99"/>
      <path d="M 18.3125 70.21875 
L 18.3125 54.6875 
L 36.8125 54.6875 
L 36.8125 47.703125 
L 18.3125 47.703125 
L 18.3125 18.015625 
Q 18.3125 11.328125 20.140625 9.421875 
Q 21.96875 7.515625 27.59375 7.515625 
L 36.8125 7.515625 
L 36.8125 0 
L 27.59375 0 
Q 17.1875 0 13.234375 3.875 
Q 9.28125 7.765625 9.28125 18.015625 
L 9.28125 47.703125 
L 2.6875 47.703125 
L 2.6875 54.6875 
L 9.28125 54.6875 
L 9.28125 70.21875 
z
" id="DejaVuSans-116"/>
      <path d="M 28.609375 0 
L 0.78125 72.90625 
L 11.078125 72.90625 
L 34.1875 11.53125 
L 57.328125 72.90625 
L 67.578125 72.90625 
L 39.796875 0 
z
" id="DejaVuSans-86"/>
      <path d="M 9.421875 75.984375 
L 18.40625 75.984375 
L 18.40625 0 
L 9.421875 0 
z
" id="DejaVuSans-108"/>
      <path d="M 8.5 21.578125 
L 8.5 54.6875 
L 17.484375 54.6875 
L 17.484375 21.921875 
Q 17.484375 14.15625 20.5 10.265625 
Q 23.53125 6.390625 29.59375 6.390625 
Q 36.859375 6.390625 41.078125 11.03125 
Q 45.3125 15.671875 45.3125 23.6875 
L 45.3125 54.6875 
L 54.296875 54.6875 
L 54.296875 0 
L 45.3125 0 
L 45.3125 8.40625 
Q 42.046875 3.421875 37.71875 1 
Q 33.40625 -1.421875 27.6875 -1.421875 
Q 18.265625 -1.421875 13.375 4.4375 
Q 8.5 10.296875 8.5 21.578125 
z
M 31.109375 56 
z
" id="DejaVuSans-117"/>
     </defs>
     <g transform="translate(23.822604 306.806562)rotate(-90)scale(0.166667 -0.166667)">
      <use xlink:href="#DejaVuSans-100"/>
      <use x="63.476562" xlink:href="#DejaVuSans-101"/>
      <use x="125" xlink:href="#DejaVuSans-102"/>
      <use x="160.205078" xlink:href="#DejaVuSans-101"/>
      <use x="221.728516" xlink:href="#DejaVuSans-110"/>
      <use x="285.107422" xlink:href="#DejaVuSans-115"/>
      <use x="337.207031" xlink:href="#DejaVuSans-101"/>
      <use x="398.730469" xlink:href="#DejaVuSans-32"/>
      <use x="430.517578" xlink:href="#DejaVuSans-105"/>
      <use x="458.300781" xlink:href="#DejaVuSans-109"/>
      <use x="555.712891" xlink:href="#DejaVuSans-112"/>
      <use x="619.189453" xlink:href="#DejaVuSans-97"/>
      <use x="680.46875" xlink:href="#DejaVuSans-99"/>
      <use x="735.449219" xlink:href="#DejaVuSans-116"/>
      <use x="774.658203" xlink:href="#DejaVuSans-32"/>
      <use x="806.445312" xlink:href="#DejaVuSans-86"/>
      <use x="874.744141" xlink:href="#DejaVuSans-97"/>
      <use x="936.023438" xlink:href="#DejaVuSans-108"/>
      <use x="963.806641" xlink:href="#DejaVuSans-117"/>
      <use x="1027.185547" xlink:href="#DejaVuSans-101"/>
     </g>
    </g>
   </g>
   <g id="line2d_15">
    <path clip-path="url(#pa594f87bbc)" d="M 103.11 80.189091 
L 104.647121 80.189091 
L 105.415682 82.446103 
L 106.184242 82.446103 
L 106.952803 92.790739 
L 107.721364 93.919245 
L 108.489924 101.442617 
L 109.258485 101.442617 
L 110.027045 105.95664 
L 110.795606 120.627216 
L 111.564167 119.197775 
L 112.332727 134.24452 
L 113.101288 139.51088 
L 113.869848 143.272566 
L 114.638409 152.018486 
L 115.40697 163.585671 
L 116.17553 156.689247 
L 116.944091 157.098938 
L 117.712652 157.098938 
L 118.481212 161.577135 
L 119.249773 164.023751 
L 120.018333 164.023751 
L 120.786894 161.868618 
L 121.555455 163.60648 
L 122.324015 168.077615 
L 123.092576 168.077615 
L 123.861136 170.365065 
L 124.629697 164.936379 
L 125.398258 168.216919 
L 126.166818 169.893639 
L 126.935379 164.715072 
L 127.703939 204.210045 
L 128.4725 199.010967 
L 129.241061 199.010967 
L 130.009621 199.316986 
L 130.778182 199.316986 
L 131.546742 188.868059 
L 132.315303 188.868059 
L 133.083864 191.810525 
L 133.852424 180.591462 
L 134.620985 166.021617 
L 136.926667 166.021617 
L 137.695227 167.082297 
L 138.463788 163.385048 
L 140.000909 163.385048 
L 140.76947 155.861676 
L 141.53803 155.861676 
L 142.306591 159.981617 
L 143.075152 169.654524 
L 144.612273 175.076672 
L 145.380833 188.164614 
L 146.149394 204.162589 
L 146.917955 213.292322 
L 147.686515 203.485069 
L 148.455076 203.485069 
L 149.223636 205.613457 
L 149.992197 210.437471 
L 150.760758 209.144391 
L 151.529318 211.634371 
L 152.297879 211.634371 
L 153.066439 232.152659 
L 153.835 232.152659 
L 154.603561 239.389019 
L 155.372121 239.389019 
L 156.140682 247.349015 
L 156.909242 238.328393 
L 160.752045 238.328393 
L 161.520606 247.11391 
L 166.13197 247.11391 
L 167.669091 222.819688 
L 168.437652 189.904934 
L 169.206212 189.904934 
L 169.974773 162.388898 
L 170.743333 154.316434 
L 171.511894 158.949393 
L 172.280455 158.949393 
L 173.049015 164.20008 
L 173.817576 205.578626 
L 174.586136 214.535022 
L 175.354697 214.535022 
L 176.123258 291.132871 
L 176.891818 291.132871 
L 177.660379 308.711519 
L 178.428939 203.697783 
L 179.1975 214.925846 
L 182.271742 214.925846 
L 183.040303 208.428389 
L 183.808864 221.252318 
L 184.577424 226.38189 
L 189.957348 226.38189 
L 190.725909 169.529135 
L 195.337273 169.529135 
L 196.105833 179.455807 
L 196.874394 179.455807 
L 197.642955 184.810985 
L 199.948636 184.810985 
L 200.717197 194.2152 
L 201.485758 116.630425 
L 203.791439 116.630425 
L 204.56 107.226209 
L 205.328561 107.226209 
L 206.097121 116.630425 
L 206.865682 121.836329 
L 211.477045 121.836329 
L 212.245606 101.68444 
L 219.931212 101.68444 
L 220.699773 92.728044 
L 222.236894 92.728044 
L 223.005455 95.235835 
L 238.376667 95.235835 
L 239.145227 80.189091 
L 249.136515 80.189091 
L 249.905076 164.827027 
L 250.673636 164.827027 
L 251.442197 193.039673 
L 256.822121 193.039673 
L 257.590682 80.189091 
L 272.961894 80.189091 
L 273.730455 85.033687 
L 274.499015 87.455984 
L 342.132348 87.455984 
L 342.900909 80.189091 
L 455.110758 80.189091 
L 455.879318 98.621353 
L 479.704697 98.621353 
L 480.473258 80.189091 
L 508.91 80.189091 
L 508.91 80.189091 
" style="fill:none;stroke:#1f77b4;stroke-linecap:square;stroke-width:1.5;"/>
   </g>
   <g id="line2d_16">
    <path clip-path="url(#pa594f87bbc)" d="M 103.11 80.189091 
L 106.952803 80.189091 
L 107.721364 89.405222 
L 108.489924 90.909896 
L 109.258485 91.662233 
L 110.027045 92.038402 
L 110.795606 101.066449 
L 111.564167 114.608518 
L 112.332727 116.86553 
L 113.101288 116.86553 
L 113.869848 120.251047 
L 114.638409 118.558289 
L 115.40697 131.222632 
L 116.17553 128.213283 
L 116.944091 160.092933 
L 117.712652 145.7627 
L 118.481212 157.885821 
L 119.249773 158.916739 
L 120.018333 181.904821 
L 120.786894 219.195146 
L 121.555455 214.782752 
L 122.324015 217.640555 
L 123.092576 217.947214 
L 123.861136 221.468267 
L 124.629697 184.711961 
L 125.398258 183.353063 
L 126.166818 188.543387 
L 126.935379 171.723096 
L 127.703939 175.840663 
L 128.4725 195.26075 
L 129.241061 194.403157 
L 130.009621 191.459242 
L 130.778182 190.203566 
L 131.546742 199.186756 
L 132.315303 200.392425 
L 133.083864 197.430556 
L 133.852424 193.938348 
L 134.620985 172.057978 
L 135.389545 172.057978 
L 136.158106 159.511322 
L 136.926667 164.503908 
L 137.695227 153.821517 
L 138.463788 149.751785 
L 139.232348 142.329609 
L 140.000909 140.909381 
L 140.76947 145.912167 
L 141.53803 168.019536 
L 142.306591 169.305747 
L 143.075152 173.359156 
L 143.843712 191.666388 
L 144.612273 194.816507 
L 145.380833 156.113902 
L 146.149394 150.21948 
L 147.686515 167.149548 
L 148.455076 168.032331 
L 149.223636 170.589176 
L 149.992197 176.091626 
L 150.760758 170.534468 
L 151.529318 182.421491 
L 152.297879 169.596061 
L 153.066439 169.596061 
L 153.835 148.935285 
L 154.603561 144.167799 
L 155.372121 148.773945 
L 156.140682 146.978624 
L 156.909242 150.493863 
L 157.677803 176.211788 
L 158.446364 141.564679 
L 159.214924 144.022974 
L 159.983485 117.559572 
L 160.752045 147.775621 
L 161.520606 136.812282 
L 162.289167 136.812282 
L 163.057727 139.424564 
L 163.826288 139.94702 
L 164.594848 134.983685 
L 165.363409 132.608883 
L 166.13197 132.896234 
L 166.90053 123.074054 
L 167.669091 123.074054 
L 168.437652 119.594969 
L 169.206212 121.333776 
L 170.743333 113.612251 
L 171.511894 111.390933 
L 172.280455 117.005855 
L 173.049015 113.471056 
L 173.817576 113.471056 
L 174.586136 114.312957 
L 175.354697 120.786976 
L 176.123258 115.394614 
L 176.891818 121.970989 
L 177.660379 125.452813 
L 178.428939 125.452813 
L 179.1975 129.567697 
L 179.966061 129.567697 
L 180.734621 121.795619 
L 181.503182 121.795619 
L 182.271742 83.608806 
L 183.040303 81.328996 
L 183.808864 84.321246 
L 184.577424 81.328996 
L 187.651667 81.328996 
L 188.420227 106.976855 
L 189.188788 105.022733 
L 189.957348 105.022733 
L 190.725909 98.370574 
L 192.26303 98.370574 
L 193.031591 100.396097 
L 193.800152 184.908644 
L 194.568712 193.372437 
L 195.337273 194.689028 
L 196.105833 211.743612 
L 196.874394 211.743612 
L 197.642955 215.962447 
L 199.180076 215.962447 
L 199.948636 229.285085 
L 202.254318 229.285085 
L 203.022879 215.962447 
L 206.097121 215.962447 
L 206.865682 101.01271 
L 207.634242 80.189091 
L 208.402803 101.68444 
L 209.171364 101.68444 
L 209.939924 113.775574 
L 210.708485 92.728044 
L 211.477045 113.148626 
L 212.245606 113.148626 
L 213.014167 100.609672 
L 213.782727 100.609672 
L 214.551288 80.189091 
L 215.319848 80.189091 
L 216.088409 90.936765 
L 216.85697 90.936765 
L 217.62553 102.452131 
L 218.394091 105.043088 
L 219.931212 105.043088 
L 220.699773 96.646467 
L 222.236894 96.646467 
L 223.005455 99.937943 
L 232.228182 99.937943 
L 232.996742 95.235835 
L 233.765303 95.235835 
L 234.533864 100.878364 
L 235.302424 351.970909 
L 238.376667 351.970909 
L 239.145227 80.189091 
L 269.119091 80.189091 
L 269.887652 107.356824 
L 273.730455 107.356824 
L 274.499015 80.189091 
L 332.909621 80.189091 
L 333.678182 123.918691 
L 334.446742 89.08497 
L 357.503561 89.08497 
L 358.272121 80.189091 
L 367.494848 80.189091 
L 368.263409 275.796766 
L 369.80053 275.796766 
L 370.569091 80.189091 
L 504.298636 80.189091 
L 505.067197 190.654872 
L 505.835758 190.654872 
L 506.604318 98.997521 
L 507.372879 98.997521 
L 508.141439 80.189091 
L 508.91 80.189091 
L 508.91 80.189091 
" style="fill:none;stroke:#ff7f0e;stroke-linecap:square;stroke-width:1.5;"/>
   </g>
   <g id="line2d_17">
    <path clip-path="url(#pa594f87bbc)" d="M 103.11 80.189091 
L 104.647121 80.189091 
L 105.415682 91.474149 
L 106.184242 89.217137 
L 106.952803 89.217137 
L 107.721364 91.850318 
L 108.489924 91.850318 
L 109.258485 96.489731 
L 110.027045 104.451966 
L 110.795606 105.580472 
L 111.564167 108.025568 
L 112.332727 108.025568 
L 113.101288 112.539591 
L 113.869848 119.49871 
L 114.638409 123.009617 
L 115.40697 113.793486 
L 116.17553 113.793486 
L 116.944091 151.136537 
L 117.712652 136.166562 
L 118.481212 136.373637 
L 119.249773 136.94023 
L 120.018333 139.604757 
L 121.555455 127.142768 
L 122.324015 128.327052 
L 123.092576 123.256953 
L 123.861136 123.038739 
L 124.629697 123.75598 
L 125.398258 116.64606 
L 126.166818 111.74712 
L 126.935379 109.587673 
L 127.703939 114.509849 
L 128.4725 110.399679 
L 129.241061 113.610875 
L 130.009621 146.256177 
L 131.546742 151.026 
L 132.315303 155.821116 
L 133.083864 152.229398 
L 133.852424 166.321972 
L 134.620985 169.142171 
L 135.389545 170.532026 
L 136.158106 171.113788 
L 136.926667 171.113788 
L 137.695227 131.768326 
L 138.463788 127.019883 
L 139.232348 126.661627 
L 140.000909 127.402022 
L 140.76947 125.548048 
L 141.53803 126.801944 
L 142.306591 140.048879 
L 143.075152 144.079257 
L 143.843712 150.49914 
L 144.612273 152.479487 
L 145.380833 168.1753 
L 146.149394 149.799247 
L 146.917955 149.598405 
L 147.686515 149.598405 
L 148.455076 158.385101 
L 149.223636 160.979386 
L 150.760758 150.911355 
L 151.529318 147.793949 
L 153.066439 127.774477 
L 153.835 131.4145 
L 154.603561 124.641513 
L 155.372121 162.317297 
L 156.140682 158.745321 
L 156.909242 188.617711 
L 157.677803 163.869776 
L 158.446364 161.889942 
L 159.214924 160.952125 
L 159.983485 161.640763 
L 160.752045 161.640763 
L 162.289167 178.314932 
L 163.057727 187.719147 
L 163.826288 158.778576 
L 164.594848 160.064622 
L 165.363409 174.441222 
L 166.13197 174.441222 
L 166.90053 175.534409 
L 167.669091 159.835838 
L 168.437652 156.943543 
L 169.206212 156.246934 
L 169.974773 156.246934 
L 170.743333 145.231629 
L 171.511894 137.931299 
L 172.280455 145.508881 
L 173.049015 146.639231 
L 173.817576 146.276112 
L 174.586136 149.343125 
L 175.354697 153.117606 
L 176.123258 147.053808 
L 176.891818 110.369331 
L 178.428939 113.937301 
L 179.1975 117.00532 
L 179.966061 113.015653 
L 180.734621 113.015653 
L 181.503182 129.259298 
L 182.271742 105.321296 
L 185.345985 105.316559 
L 186.114545 104.127093 
L 186.883106 105.83695 
L 187.651667 97.287664 
L 188.420227 99.947442 
L 189.188788 114.386237 
L 189.957348 111.821451 
L 190.725909 96.176257 
L 192.26303 96.176257 
L 193.031591 93.354992 
L 195.337273 93.354992 
L 196.105833 91.334827 
L 196.874394 124.772037 
L 197.642955 130.344905 
L 200.717197 130.344905 
L 201.485758 124.859113 
L 202.254318 117.805952 
L 203.022879 117.805952 
L 203.791439 96.385239 
L 206.097121 96.385239 
L 206.865682 98.698975 
L 208.402803 98.698975 
L 209.171364 80.189091 
L 209.939924 101.68444 
L 211.477045 101.68444 
L 212.245606 98.997521 
L 219.162652 98.997521 
L 219.931212 113.775574 
L 220.699773 97.430152 
L 221.468333 123.508288 
L 222.236894 123.508288 
L 223.005455 80.189091 
L 225.311136 80.189091 
L 226.079697 221.252318 
L 238.376667 221.252318 
L 239.145227 80.189091 
L 245.293712 80.189091 
L 246.062273 90.768833 
L 250.673636 90.768833 
L 251.442197 80.189091 
L 318.30697 80.189091 
L 319.07553 86.583957 
L 325.224015 86.583957 
L 325.992576 80.189091 
L 336.752424 80.189091 
L 337.520985 149.080435 
L 338.289545 149.080435 
L 339.058106 80.189091 
L 365.957727 80.189091 
L 366.726288 202.443888 
L 369.80053 202.443888 
L 370.569091 80.189091 
L 498.150152 80.189091 
L 498.918712 142.883859 
L 499.687273 142.883859 
L 500.455833 147.89944 
L 508.91 147.89944 
L 508.91 147.89944 
" style="fill:none;stroke:#2ca02c;stroke-linecap:square;stroke-width:1.5;"/>
   </g>
   <g id="line2d_18">
    <path clip-path="url(#pa594f87bbc)" d="M 103.11 80.189091 
L 109.258485 80.189091 
L 110.027045 85.83162 
L 110.795606 85.83162 
L 111.564167 88.088632 
L 112.332727 91.09798 
L 114.638409 91.09798 
L 115.40697 92.790739 
L 116.17553 92.790739 
L 116.944091 87.290233 
L 117.712652 91.256637 
L 118.481212 91.256637 
L 119.249773 90.938631 
L 120.786894 90.938631 
L 121.555455 103.973085 
L 122.324015 102.650173 
L 123.092576 102.650173 
L 123.861136 99.805587 
L 124.629697 99.114163 
L 125.398258 99.114163 
L 126.166818 109.721243 
L 126.935379 109.827296 
L 127.703939 107.797726 
L 129.241061 107.797726 
L 130.009621 108.487942 
L 130.778182 108.487942 
L 131.546742 109.213553 
L 132.315303 109.213553 
L 133.083864 97.974607 
L 133.852424 97.974607 
L 134.620985 99.726136 
L 135.389545 126.223148 
L 136.158106 128.256492 
L 136.926667 128.256492 
L 137.695227 102.358657 
L 138.463788 102.992074 
L 139.232348 105.4103 
L 142.306591 105.4103 
L 143.075152 107.828527 
L 144.612273 109.503644 
L 145.380833 110.996003 
L 146.149394 110.996003 
L 146.917955 112.096249 
L 147.686515 112.096249 
L 148.455076 112.480095 
L 149.992197 114.964018 
L 150.760758 117.861929 
L 151.529318 121.482145 
L 152.297879 121.482145 
L 153.066439 131.741289 
L 153.835 131.741289 
L 154.603561 134.196155 
L 155.372121 134.196155 
L 156.140682 135.956087 
L 156.909242 127.012183 
L 160.752045 127.012183 
L 161.520606 124.911359 
L 164.594848 124.911359 
L 165.363409 138.495225 
L 166.13197 139.122173 
L 169.974773 139.122173 
L 170.743333 128.205907 
L 171.511894 131.206958 
L 172.280455 131.206958 
L 173.049015 94.483498 
L 173.817576 94.483498 
L 174.586136 95.504527 
L 175.354697 95.504527 
L 176.123258 96.682638 
L 176.891818 96.682638 
L 177.660379 97.116678 
L 178.428939 97.116678 
L 179.1975 98.65555 
L 189.957348 98.65555 
L 190.725909 100.502196 
L 191.49447 100.502196 
L 192.26303 155.360117 
L 195.337273 155.360117 
L 196.105833 163.712454 
L 196.874394 163.712454 
L 197.642955 172.272031 
L 206.097121 172.272031 
L 206.865682 173.335603 
L 219.931212 173.335603 
L 220.699773 97.430152 
L 222.236894 97.430152 
L 223.005455 100.878364 
L 238.376667 100.878364 
L 239.145227 91.94436 
L 250.673636 91.94436 
L 251.442197 95.862783 
L 273.730455 95.862783 
L 274.499015 80.189091 
L 508.91 80.189091 
L 508.91 80.189091 
" style="fill:none;stroke:#d62728;stroke-linecap:square;stroke-width:1.5;"/>
   </g>
   <g id="line2d_19">
    <path clip-path="url(#pa594f87bbc)" d="M 103.11 80.189091 
L 112.332727 80.189091 
L 113.101288 85.059484 
L 114.638409 85.059484 
L 115.40697 89.959576 
L 116.17553 89.959576 
L 116.944091 90.158973 
L 117.712652 91.714558 
L 118.481212 91.714558 
L 119.249773 90.933819 
L 120.018333 90.933819 
L 120.786894 99.486293 
L 121.555455 99.896872 
L 122.324015 125.596888 
L 123.092576 125.596888 
L 123.861136 126.60595 
L 124.629697 129.973686 
L 126.166818 129.973686 
L 126.935379 128.369981 
L 127.703939 125.389282 
L 128.4725 127.797679 
L 129.241061 121.122635 
L 130.009621 122.145973 
L 130.778182 122.145973 
L 131.546742 124.85171 
L 132.315303 126.057378 
L 133.083864 126.027042 
L 133.852424 124.542166 
L 134.620985 123.680799 
L 135.389545 133.491683 
L 136.158106 133.491683 
L 136.926667 130.822919 
L 137.695227 129.22529 
L 138.463788 130.626324 
L 140.76947 130.626324 
L 141.53803 131.163708 
L 143.075152 131.132097 
L 143.843712 132.630421 
L 144.612273 134.433284 
L 145.380833 137.78063 
L 146.149394 137.78063 
L 146.917955 139.501606 
L 148.455076 139.501606 
L 149.223636 141.698366 
L 149.992197 145.331419 
L 150.760758 150.759947 
L 151.529318 171.950496 
L 152.297879 179.362605 
L 153.835 179.362605 
L 154.603561 184.085153 
L 155.372121 183.787654 
L 156.140682 185.676107 
L 156.909242 148.904745 
L 157.677803 145.22213 
L 159.214924 145.22213 
L 159.983485 146.155021 
L 160.752045 128.583987 
L 161.520606 131.272592 
L 162.289167 129.911456 
L 164.594848 129.911456 
L 165.363409 139.187349 
L 166.13197 139.187349 
L 166.90053 147.546651 
L 169.974773 147.546651 
L 170.743333 141.687327 
L 171.511894 128.872513 
L 172.280455 128.872513 
L 173.049015 132.118075 
L 173.817576 132.118075 
L 174.586136 135.827288 
L 175.354697 135.827288 
L 176.123258 127.563581 
L 176.891818 127.563581 
L 177.660379 131.511455 
L 178.428939 131.511455 
L 179.1975 136.177124 
L 189.957348 136.177124 
L 190.725909 126.729183 
L 195.337273 126.729183 
L 196.105833 136.079956 
L 196.874394 136.079956 
L 197.642955 138.364206 
L 204.56 138.364206 
L 205.328561 89.462288 
L 206.097121 89.462288 
L 206.865682 90.78703 
L 214.551288 90.78703 
L 215.319848 100.191245 
L 219.162652 100.191245 
L 219.931212 120.451554 
L 220.699773 121.564218 
L 222.236894 121.564218 
L 223.005455 101.47481 
L 237.608106 101.47481 
L 238.376667 107.758066 
L 239.145227 98.735484 
L 249.136515 98.735484 
L 249.905076 127.637537 
L 250.673636 109.091143 
L 251.442197 80.189091 
L 369.03197 80.189091 
L 369.80053 243.52546 
L 370.569091 80.189091 
L 501.992955 80.189091 
L 502.761515 166.250034 
L 508.91 166.250034 
L 508.91 166.250034 
" style="fill:none;stroke:#9467bd;stroke-linecap:square;stroke-width:1.5;"/>
   </g>
   <g id="line2d_20">
    <path clip-path="url(#pa594f87bbc)" d="M 103.11 80.189091 
L 106.184242 80.189091 
L 106.952803 83.950777 
L 107.721364 83.950777 
L 108.489924 97.743626 
L 109.258485 97.743626 
L 110.027045 93.98194 
L 110.795606 97.555542 
L 111.564167 104.890829 
L 112.332727 100.376806 
L 113.101288 109.028684 
L 113.869848 126.896693 
L 114.638409 136.144171 
L 115.40697 136.144171 
L 116.17553 140.590715 
L 117.712652 126.117722 
L 118.481212 133.461966 
L 119.249773 134.375897 
L 120.018333 150.271633 
L 120.786894 153.719845 
L 121.555455 160.619703 
L 122.324015 157.979561 
L 123.092576 157.029814 
L 123.861136 161.235094 
L 124.629697 170.719722 
L 125.398258 166.382119 
L 126.166818 153.095163 
L 126.935379 156.399458 
L 127.703939 142.104083 
L 128.4725 141.675924 
L 129.241061 133.627815 
L 130.009621 119.917039 
L 130.778182 120.669376 
L 132.315303 129.727325 
L 133.852424 136.892098 
L 134.620985 134.737361 
L 135.389545 131.591485 
L 136.926667 139.338364 
L 137.695227 111.796863 
L 138.463788 115.348941 
L 139.232348 117.229784 
L 140.000909 121.243413 
L 140.76947 120.659967 
L 141.53803 113.118334 
L 142.306591 114.669069 
L 143.075152 114.600404 
L 143.843712 117.164908 
L 144.612273 119.196443 
L 145.380833 106.426169 
L 146.149394 119.922637 
L 146.917955 115.891522 
L 147.686515 120.862321 
L 148.455076 123.54924 
L 149.223636 119.265663 
L 149.992197 119.719676 
L 150.760758 128.85794 
L 151.529318 110.626586 
L 152.297879 111.257605 
L 153.066439 109.954857 
L 153.835 117.245498 
L 154.603561 101.072419 
L 155.372121 106.249845 
L 156.909242 107.565335 
L 157.677803 113.92909 
L 158.446364 133.523922 
L 159.214924 112.480447 
L 159.983485 112.480447 
L 160.752045 106.228984 
L 161.520606 130.926482 
L 162.289167 106.109436 
L 163.057727 144.645484 
L 163.826288 147.646077 
L 164.594848 123.665328 
L 165.363409 126.0537 
L 166.13197 109.356806 
L 166.90053 108.660197 
L 167.669091 109.854383 
L 168.437652 109.854383 
L 169.206212 114.802845 
L 169.974773 114.653571 
L 170.743333 104.031949 
L 171.511894 97.930591 
L 172.280455 97.930591 
L 173.049015 99.113357 
L 173.817576 95.351671 
L 174.586136 102.760613 
L 175.354697 102.760613 
L 176.123258 92.700946 
L 176.891818 92.700946 
L 177.660379 92.350383 
L 178.428939 100.91063 
L 179.1975 102.794407 
L 179.966061 102.005242 
L 186.883106 102.005242 
L 187.651667 161.850247 
L 188.420227 98.096996 
L 189.957348 98.096996 
L 190.725909 98.320418 
L 191.49447 100.714218 
L 192.26303 100.514735 
L 193.031591 100.044524 
L 193.800152 100.044524 
L 194.568712 102.709051 
L 195.337273 102.709051 
L 196.105833 105.211269 
L 196.874394 105.211269 
L 197.642955 91.94436 
L 198.411515 91.94436 
L 199.180076 123.59962 
L 199.948636 91.94436 
L 201.485758 91.94436 
L 202.254318 147.429229 
L 204.56 147.429229 
L 205.328561 172.507136 
L 206.097121 147.429229 
L 206.865682 86.637696 
L 207.634242 80.189091 
L 208.402803 80.189091 
L 209.171364 90.936765 
L 209.939924 125.500309 
L 210.708485 125.500309 
L 211.477045 108.035338 
L 212.245606 113.865138 
L 213.014167 88.78723 
L 213.782727 88.78723 
L 214.551288 98.191446 
L 215.319848 98.191446 
L 216.088409 122.757559 
L 216.85697 105.244607 
L 217.62553 102.580079 
L 218.394091 95.056707 
L 219.162652 98.997521 
L 219.931212 98.997521 
L 220.699773 86.458568 
L 221.468333 96.211087 
L 222.236894 102.794038 
L 223.005455 99.415486 
L 223.774015 80.189091 
L 226.848258 80.189091 
L 227.616818 97.492847 
L 229.9225 97.492847 
L 230.691061 98.579556 
L 231.459621 80.189091 
L 236.839545 80.189091 
L 237.608106 297.614545 
L 238.376667 297.614545 
L 239.145227 80.189091 
L 248.367955 80.189091 
L 249.136515 103.699629 
L 249.905076 103.699629 
L 250.673636 80.189091 
L 330.603939 80.189091 
L 331.3725 109.144174 
L 332.141061 89.332078 
L 334.446742 89.332078 
L 335.215303 134.320671 
L 335.983864 134.320671 
L 336.752424 138.405661 
L 339.058106 138.405661 
L 339.826667 80.189091 
L 368.263409 80.189091 
L 369.03197 274.542871 
L 369.80053 274.542871 
L 370.569091 80.189091 
L 482.778939 80.189091 
L 484.316061 155.422812 
L 485.853182 155.422812 
L 486.621742 136.614382 
L 492.001667 136.614382 
L 492.770227 117.805952 
L 493.538788 193.039673 
L 494.307348 80.189091 
L 495.075909 80.189091 
L 495.84447 102.759207 
L 496.61303 142.883859 
L 502.761515 142.883859 
L 503.530076 185.945265 
L 505.067197 185.945265 
L 505.835758 80.189091 
L 508.91 80.189091 
L 508.91 80.189091 
" style="fill:none;stroke:#8c564b;stroke-linecap:square;stroke-width:1.5;"/>
   </g>
   <g id="line2d_21">
    <path clip-path="url(#pa594f87bbc)" d="M 103.11 80.189091 
L 108.489924 80.189091 
L 109.258485 89.217137 
L 110.795606 89.217137 
L 111.564167 91.09798 
L 112.332727 91.09798 
L 113.101288 97.492847 
L 113.869848 97.492847 
L 114.638409 100.251417 
L 115.40697 103.825018 
L 116.17553 102.947292 
L 116.944091 100.340981 
L 117.712652 98.421753 
L 118.481212 99.752417 
L 119.249773 100.009781 
L 120.018333 116.3608 
L 120.786894 116.556721 
L 121.555455 123.499932 
L 122.324015 119.855214 
L 123.092576 125.443226 
L 123.861136 117.283495 
L 124.629697 127.829824 
L 125.398258 133.984743 
L 126.166818 150.57852 
L 126.935379 150.416827 
L 127.703939 149.377245 
L 128.4725 161.044589 
L 129.241061 137.488177 
L 130.009621 138.55222 
L 130.778182 138.12903 
L 131.546742 134.952751 
L 132.315303 134.952751 
L 133.083864 156.279408 
L 133.852424 159.991599 
L 134.620985 162.961174 
L 135.389545 162.961174 
L 136.158106 169.253243 
L 136.926667 167.803182 
L 137.695227 136.206687 
L 138.463788 138.365472 
L 139.232348 139.900854 
L 140.000909 159.231741 
L 140.76947 158.051125 
L 141.53803 159.663276 
L 142.306591 159.75284 
L 143.075152 159.381985 
L 144.612273 165.268301 
L 145.380833 144.786592 
L 146.917955 138.596266 
L 147.686515 126.73019 
L 149.223636 157.511572 
L 149.992197 156.064241 
L 151.529318 171.29671 
L 152.297879 170.270795 
L 153.066439 147.949658 
L 153.835 136.262768 
L 154.603561 141.112333 
L 155.372121 115.321618 
L 156.140682 110.137038 
L 156.909242 107.22562 
L 157.677803 127.356421 
L 158.446364 127.356421 
L 159.214924 119.340324 
L 159.983485 113.183732 
L 160.752045 113.183732 
L 161.520606 112.378516 
L 162.289167 114.341459 
L 163.057727 104.556859 
L 163.826288 109.019344 
L 164.594848 109.019344 
L 165.363409 110.325485 
L 166.13197 109.019344 
L 166.90053 109.019344 
L 167.669091 106.481698 
L 168.437652 112.250106 
L 169.206212 114.787751 
L 169.974773 114.787751 
L 170.743333 101.149274 
L 171.511894 105.335832 
L 172.280455 101.553335 
L 173.049015 99.932443 
L 173.817576 109.567639 
L 174.586136 105.770115 
L 175.354697 105.770115 
L 176.123258 96.857256 
L 176.891818 127.860163 
L 177.660379 128.246266 
L 178.428939 128.246266 
L 179.1975 132.6151 
L 179.966061 132.6151 
L 180.734621 232.641752 
L 184.577424 232.641752 
L 185.345985 225.417355 
L 186.114545 224.102081 
L 189.957348 224.102081 
L 190.725909 91.599539 
L 192.26303 91.599539 
L 193.031591 99.122911 
L 193.800152 101.003754 
L 194.568712 99.749858 
L 195.337273 181.127667 
L 196.105833 193.546297 
L 196.874394 183.287153 
L 197.642955 196.174411 
L 199.948636 196.174411 
L 200.717197 213.728946 
L 202.254318 213.728946 
L 203.022879 202.757362 
L 203.791439 202.757362 
L 204.56 110.282579 
L 205.328561 110.282579 
L 206.097121 156.519971 
L 206.865682 96.847986 
L 207.634242 96.847986 
L 208.402803 80.189091 
L 213.014167 80.189091 
L 213.782727 108.401736 
L 214.551288 108.401736 
L 215.319848 122.987866 
L 216.088409 122.987866 
L 216.85697 103.027899 
L 218.394091 103.027899 
L 219.162652 87.354207 
L 219.931212 87.354207 
L 220.699773 88.548393 
L 222.236894 88.548393 
L 223.005455 90.220254 
L 228.385379 90.220254 
L 229.153939 174.231243 
L 229.9225 85.83162 
L 231.459621 85.83162 
L 232.228182 96.74051 
L 232.996742 96.74051 
L 233.765303 80.189091 
L 252.979318 80.189091 
L 253.747879 310.592362 
L 271.424773 310.592362 
L 272.193333 80.189091 
L 272.961894 80.189091 
L 273.730455 117.805952 
L 274.499015 80.189091 
L 294.481591 80.189091 
L 295.250152 86.85041 
L 298.324394 86.85041 
L 299.092955 80.189091 
L 317.538409 80.189091 
L 318.30697 82.338626 
L 319.844091 82.338626 
L 320.612652 80.189091 
L 323.686894 80.189091 
L 324.455455 89.869901 
L 327.529697 89.869901 
L 328.298258 89.593306 
L 329.835379 89.593306 
L 330.603939 98.489185 
L 369.80053 98.489185 
L 370.569091 80.189091 
L 470.48197 80.189091 
L 471.25053 98.259936 
L 472.019091 98.259936 
L 472.787652 80.189091 
L 484.316061 80.189091 
L 485.084621 117.805952 
L 486.621742 117.805952 
L 487.390303 80.189091 
L 496.61303 80.189091 
L 497.381591 164.827027 
L 500.455833 164.827027 
L 501.224394 142.883859 
L 501.992955 171.544324 
L 506.604318 171.544324 
L 507.372879 80.189091 
L 508.91 80.189091 
L 508.91 80.189091 
" style="fill:none;stroke:#e377c2;stroke-linecap:square;stroke-width:1.5;"/>
   </g>
   <g id="line2d_22">
    <path clip-path="url(#pa594f87bbc)" d="M 103.11 80.189091 
L 106.184242 80.189091 
L 106.952803 89.593306 
L 107.721364 89.593306 
L 109.258485 106.708978 
L 110.795606 92.602655 
L 111.564167 92.602655 
L 112.332727 92.477265 
L 113.101288 88.339411 
L 113.869848 89.656001 
L 114.638409 93.166908 
L 115.40697 93.166908 
L 116.17553 106.771672 
L 117.712652 113.68601 
L 119.249773 131.193897 
L 120.018333 123.422358 
L 120.786894 118.328408 
L 121.555455 125.942932 
L 122.324015 132.116714 
L 123.092576 153.351159 
L 123.861136 153.374783 
L 124.629697 130.097042 
L 125.398258 127.326808 
L 126.166818 120.328322 
L 126.935379 107.401606 
L 127.703939 113.165814 
L 128.4725 123.831571 
L 130.009621 132.507109 
L 130.778182 135.328373 
L 131.546742 133.49034 
L 132.315303 123.846925 
L 133.083864 126.975651 
L 133.852424 126.975651 
L 134.620985 129.256824 
L 135.389545 125.190136 
L 136.158106 131.629059 
L 136.926667 125.017464 
L 137.695227 120.985887 
L 138.463788 118.911853 
L 139.232348 126.456628 
L 140.000909 126.456628 
L 140.76947 121.997971 
L 141.53803 119.687692 
L 142.306591 119.577773 
L 143.075152 113.666552 
L 145.380833 116.628291 
L 146.149394 116.628291 
L 146.917955 106.67822 
L 147.686515 108.357544 
L 148.455076 114.130906 
L 149.223636 112.945783 
L 149.992197 135.726841 
L 150.760758 135.32199 
L 151.529318 143.201371 
L 152.297879 138.106403 
L 153.066439 124.939122 
L 153.835 121.861379 
L 154.603561 137.439068 
L 155.372121 122.959562 
L 156.140682 122.487518 
L 156.909242 125.433691 
L 157.677803 137.312699 
L 158.446364 154.739676 
L 159.214924 160.721376 
L 159.983485 178.539889 
L 160.752045 177.691389 
L 161.520606 175.161373 
L 162.289167 164.712245 
L 163.057727 168.36944 
L 163.826288 169.677164 
L 164.594848 169.050217 
L 165.363409 159.90101 
L 166.13197 160.684694 
L 166.90053 135.416803 
L 167.669091 135.416803 
L 168.437652 129.408555 
L 169.206212 126.041613 
L 169.974773 121.316067 
L 170.743333 108.243636 
L 171.511894 109.997045 
L 172.280455 112.449742 
L 173.049015 97.730427 
L 173.817576 88.395873 
L 174.586136 84.965835 
L 175.354697 82.540145 
L 176.123258 82.720995 
L 176.891818 82.720995 
L 177.660379 82.931987 
L 178.428939 82.931987 
L 179.1975 80.189091 
L 180.734621 80.189091 
L 181.503182 86.458568 
L 182.271742 86.458568 
L 183.040303 89.878282 
L 183.808864 89.878282 
L 184.577424 189.619958 
L 185.345985 164.684539 
L 186.114545 164.684539 
L 186.883106 189.021508 
L 187.651667 177.508469 
L 189.188788 177.508469 
L 189.957348 201.161495 
L 190.725909 206.362311 
L 193.800152 206.362311 
L 194.568712 212.00484 
L 195.337273 222.752515 
L 196.105833 236.682197 
L 196.874394 236.682197 
L 197.642955 256.243836 
L 198.411515 256.243836 
L 199.180076 249.073122 
L 199.948636 249.073122 
L 200.717197 318.429208 
L 201.485758 242.01996 
L 202.254318 242.01996 
L 203.022879 89.005543 
L 204.56 89.005543 
L 205.328561 101.544496 
L 206.097121 107.170232 
L 206.865682 111.024681 
L 207.634242 94.519324 
L 209.939924 94.519324 
L 211.477045 138.704207 
L 212.245606 138.704207 
L 213.014167 116.014672 
L 213.782727 101.68444 
L 214.551288 116.152463 
L 215.319848 101.68444 
L 216.088409 115.119033 
L 217.62553 115.119033 
L 218.394091 133.159772 
L 219.162652 133.159772 
L 219.931212 122.412098 
L 220.699773 116.910312 
L 221.468333 116.910312 
L 222.236894 101.23662 
L 223.005455 80.189091 
L 227.616818 80.189091 
L 228.385379 97.629635 
L 235.302424 97.629635 
L 236.070985 98.997521 
L 236.839545 93.98194 
L 238.376667 93.98194 
L 239.145227 80.189091 
L 244.525152 80.189091 
L 245.293712 101.348575 
L 246.062273 101.348575 
L 246.830833 80.189091 
L 247.599394 102.759207 
L 248.367955 91.474149 
L 250.673636 91.474149 
L 251.442197 80.189091 
L 252.210758 92.728044 
L 254.516439 92.728044 
L 255.285 80.189091 
L 273.730455 80.189091 
L 274.499015 87.140033 
L 275.267576 80.189091 
L 328.298258 80.189091 
L 329.066818 92.728044 
L 332.141061 92.728044 
L 332.909621 119.252754 
L 337.520985 119.252754 
L 338.289545 80.189091 
L 365.189167 80.189091 
L 365.957727 164.827027 
L 369.80053 164.827027 
L 370.569091 80.189091 
L 481.241818 80.189091 
L 482.778939 155.422812 
L 488.927424 155.422812 
L 489.695985 80.189091 
L 490.464545 80.189091 
L 491.233106 130.344905 
L 492.001667 117.805952 
L 494.307348 117.805952 
L 495.075909 108.401736 
L 503.530076 108.401736 
L 504.298636 179.131334 
L 508.91 179.131334 
L 508.91 179.131334 
" style="fill:none;stroke:#7f7f7f;stroke-linecap:square;stroke-width:1.5;"/>
   </g>
   <g id="patch_3">
    <path d="M 82.82 365.56 
L 82.82 66.6 
" style="fill:none;stroke:#000000;stroke-linecap:square;stroke-linejoin:miter;stroke-width:0.8;"/>
   </g>
   <g id="patch_4">
    <path d="M 529.2 365.56 
L 529.2 66.6 
" style="fill:none;stroke:#000000;stroke-linecap:square;stroke-linejoin:miter;stroke-width:0.8;"/>
   </g>
   <g id="patch_5">
    <path d="M 82.82 365.56 
L 529.2 365.56 
" style="fill:none;stroke:#000000;stroke-linecap:square;stroke-linejoin:miter;stroke-width:0.8;"/>
   </g>
   <g id="patch_6">
    <path d="M 82.82 66.6 
L 529.2 66.6 
" style="fill:none;stroke:#000000;stroke-linecap:square;stroke-linejoin:miter;stroke-width:0.8;"/>
   </g>
   <g id="legend_1">
    <g id="patch_7">
     <path d="M 93.32 59.1 
L 518.7 59.1 
Q 521.7 59.1 521.7 56.1 
L 521.7 13.565625 
Q 521.7 10.565625 518.7 10.565625 
L 93.32 10.565625 
Q 90.32 10.565625 90.32 13.565625 
L 90.32 56.1 
Q 90.32 59.1 93.32 59.1 
z
" style="fill:#ffffff;opacity:0.8;stroke:#cccccc;stroke-linejoin:miter;"/>
    </g>
    <g id="line2d_23">
     <path d="M 96.32 22.713281 
L 126.32 22.713281 
" style="fill:none;stroke:#1f77b4;stroke-linecap:square;stroke-width:1.5;"/>
    </g>
    <g id="line2d_24"/>
    <g id="text_17">
     <!-- Stra 1 -->
     <defs>
      <path d="M 53.515625 70.515625 
L 53.515625 60.890625 
Q 47.90625 63.578125 42.921875 64.890625 
Q 37.9375 66.21875 33.296875 66.21875 
Q 25.25 66.21875 20.875 63.09375 
Q 16.5 59.96875 16.5 54.203125 
Q 16.5 49.359375 19.40625 46.890625 
Q 22.3125 44.4375 30.421875 42.921875 
L 36.375 41.703125 
Q 47.40625 39.59375 52.65625 34.296875 
Q 57.90625 29 57.90625 20.125 
Q 57.90625 9.515625 50.796875 4.046875 
Q 43.703125 -1.421875 29.984375 -1.421875 
Q 24.8125 -1.421875 18.96875 -0.25 
Q 13.140625 0.921875 6.890625 3.21875 
L 6.890625 13.375 
Q 12.890625 10.015625 18.65625 8.296875 
Q 24.421875 6.59375 29.984375 6.59375 
Q 38.421875 6.59375 43.015625 9.90625 
Q 47.609375 13.234375 47.609375 19.390625 
Q 47.609375 24.75 44.3125 27.78125 
Q 41.015625 30.8125 33.5 32.328125 
L 27.484375 33.5 
Q 16.453125 35.6875 11.515625 40.375 
Q 6.59375 45.0625 6.59375 53.421875 
Q 6.59375 63.09375 13.40625 68.65625 
Q 20.21875 74.21875 32.171875 74.21875 
Q 37.3125 74.21875 42.625 73.28125 
Q 47.953125 72.359375 53.515625 70.515625 
z
" id="DejaVuSans-83"/>
      <path d="M 41.109375 46.296875 
Q 39.59375 47.171875 37.8125 47.578125 
Q 36.03125 48 33.890625 48 
Q 26.265625 48 22.1875 43.046875 
Q 18.109375 38.09375 18.109375 28.8125 
L 18.109375 0 
L 9.078125 0 
L 9.078125 54.6875 
L 18.109375 54.6875 
L 18.109375 46.1875 
Q 20.953125 51.171875 25.484375 53.578125 
Q 30.03125 56 36.53125 56 
Q 37.453125 56 38.578125 55.875 
Q 39.703125 55.765625 41.0625 55.515625 
z
" id="DejaVuSans-114"/>
     </defs>
     <g transform="translate(138.32 27.963281)scale(0.15 -0.15)">
      <use xlink:href="#DejaVuSans-83"/>
      <use x="63.476562" xlink:href="#DejaVuSans-116"/>
      <use x="102.685547" xlink:href="#DejaVuSans-114"/>
      <use x="143.798828" xlink:href="#DejaVuSans-97"/>
      <use x="205.078125" xlink:href="#DejaVuSans-32"/>
      <use x="236.865234" xlink:href="#DejaVuSans-49"/>
     </g>
    </g>
    <g id="line2d_25">
     <path d="M 96.32 44.730469 
L 126.32 44.730469 
" style="fill:none;stroke:#ff7f0e;stroke-linecap:square;stroke-width:1.5;"/>
    </g>
    <g id="line2d_26"/>
    <g id="text_18">
     <!-- Stra 2 -->
     <g transform="translate(138.32 49.980469)scale(0.15 -0.15)">
      <use xlink:href="#DejaVuSans-83"/>
      <use x="63.476562" xlink:href="#DejaVuSans-116"/>
      <use x="102.685547" xlink:href="#DejaVuSans-114"/>
      <use x="143.798828" xlink:href="#DejaVuSans-97"/>
      <use x="205.078125" xlink:href="#DejaVuSans-32"/>
      <use x="236.865234" xlink:href="#DejaVuSans-50"/>
     </g>
    </g>
    <g id="line2d_27">
     <path d="M 207.089115 22.713281 
L 237.089115 22.713281 
" style="fill:none;stroke:#2ca02c;stroke-linecap:square;stroke-width:1.5;"/>
    </g>
    <g id="line2d_28"/>
    <g id="text_19">
     <!-- Stra 3 -->
     <g transform="translate(249.089115 27.963281)scale(0.15 -0.15)">
      <use xlink:href="#DejaVuSans-83"/>
      <use x="63.476562" xlink:href="#DejaVuSans-116"/>
      <use x="102.685547" xlink:href="#DejaVuSans-114"/>
      <use x="143.798828" xlink:href="#DejaVuSans-97"/>
      <use x="205.078125" xlink:href="#DejaVuSans-32"/>
      <use x="236.865234" xlink:href="#DejaVuSans-51"/>
     </g>
    </g>
    <g id="line2d_29">
     <path d="M 207.089115 44.730469 
L 237.089115 44.730469 
" style="fill:none;stroke:#d62728;stroke-linecap:square;stroke-width:1.5;"/>
    </g>
    <g id="line2d_30"/>
    <g id="text_20">
     <!-- Stra 4 -->
     <g transform="translate(249.089115 49.980469)scale(0.15 -0.15)">
      <use xlink:href="#DejaVuSans-83"/>
      <use x="63.476562" xlink:href="#DejaVuSans-116"/>
      <use x="102.685547" xlink:href="#DejaVuSans-114"/>
      <use x="143.798828" xlink:href="#DejaVuSans-97"/>
      <use x="205.078125" xlink:href="#DejaVuSans-32"/>
      <use x="236.865234" xlink:href="#DejaVuSans-52"/>
     </g>
    </g>
    <g id="line2d_31">
     <path d="M 317.858229 22.713281 
L 347.858229 22.713281 
" style="fill:none;stroke:#9467bd;stroke-linecap:square;stroke-width:1.5;"/>
    </g>
    <g id="line2d_32"/>
    <g id="text_21">
     <!-- Stra 5 -->
     <g transform="translate(359.858229 27.963281)scale(0.15 -0.15)">
      <use xlink:href="#DejaVuSans-83"/>
      <use x="63.476562" xlink:href="#DejaVuSans-116"/>
      <use x="102.685547" xlink:href="#DejaVuSans-114"/>
      <use x="143.798828" xlink:href="#DejaVuSans-97"/>
      <use x="205.078125" xlink:href="#DejaVuSans-32"/>
      <use x="236.865234" xlink:href="#DejaVuSans-53"/>
     </g>
    </g>
    <g id="line2d_33">
     <path d="M 317.858229 44.730469 
L 347.858229 44.730469 
" style="fill:none;stroke:#8c564b;stroke-linecap:square;stroke-width:1.5;"/>
    </g>
    <g id="line2d_34"/>
    <g id="text_22">
     <!-- Stra 6 -->
     <g transform="translate(359.858229 49.980469)scale(0.15 -0.15)">
      <use xlink:href="#DejaVuSans-83"/>
      <use x="63.476562" xlink:href="#DejaVuSans-116"/>
      <use x="102.685547" xlink:href="#DejaVuSans-114"/>
      <use x="143.798828" xlink:href="#DejaVuSans-97"/>
      <use x="205.078125" xlink:href="#DejaVuSans-32"/>
      <use x="236.865234" xlink:href="#DejaVuSans-54"/>
     </g>
    </g>
    <g id="line2d_35">
     <path d="M 428.627344 22.713281 
L 458.627344 22.713281 
" style="fill:none;stroke:#e377c2;stroke-linecap:square;stroke-width:1.5;"/>
    </g>
    <g id="line2d_36"/>
    <g id="text_23">
     <!-- Stra 7 -->
     <defs>
      <path d="M 8.203125 72.90625 
L 55.078125 72.90625 
L 55.078125 68.703125 
L 28.609375 0 
L 18.3125 0 
L 43.21875 64.59375 
L 8.203125 64.59375 
z
" id="DejaVuSans-55"/>
     </defs>
     <g transform="translate(470.627344 27.963281)scale(0.15 -0.15)">
      <use xlink:href="#DejaVuSans-83"/>
      <use x="63.476562" xlink:href="#DejaVuSans-116"/>
      <use x="102.685547" xlink:href="#DejaVuSans-114"/>
      <use x="143.798828" xlink:href="#DejaVuSans-97"/>
      <use x="205.078125" xlink:href="#DejaVuSans-32"/>
      <use x="236.865234" xlink:href="#DejaVuSans-55"/>
     </g>
    </g>
    <g id="line2d_37">
     <path d="M 428.627344 44.730469 
L 458.627344 44.730469 
" style="fill:none;stroke:#7f7f7f;stroke-linecap:square;stroke-width:1.5;"/>
    </g>
    <g id="line2d_38"/>
    <g id="text_24">
     <!-- Stra 8 -->
     <g transform="translate(470.627344 49.980469)scale(0.15 -0.15)">
      <use xlink:href="#DejaVuSans-83"/>
      <use x="63.476562" xlink:href="#DejaVuSans-116"/>
      <use x="102.685547" xlink:href="#DejaVuSans-114"/>
      <use x="143.798828" xlink:href="#DejaVuSans-97"/>
      <use x="205.078125" xlink:href="#DejaVuSans-32"/>
      <use x="236.865234" xlink:href="#DejaVuSans-56"/>
     </g>
    </g>
   </g>
  </g>
 </g>
 <defs>
  <clipPath id="pa594f87bbc">
   <rect height="298.96" width="446.38" x="82.82" y="66.6"/>
  </clipPath>
 </defs>
</svg>
