<?xml version="1.0" encoding="utf-8" standalone="no"?>
<!DOCTYPE svg PUBLIC "-//W3C//DTD SVG 1.1//EN"
  "http://www.w3.org/Graphics/SVG/1.1/DTD/svg11.dtd">
<!-- Created with matplotlib (https://matplotlib.org/) -->
<svg height="432pt" version="1.1" viewBox="0 0 540 432" width="540pt" xmlns="http://www.w3.org/2000/svg" xmlns:xlink="http://www.w3.org/1999/xlink">
 <defs>
  <style type="text/css">
*{stroke-linecap:butt;stroke-linejoin:round;}
  </style>
 </defs>
 <g id="figure_1">
  <g id="patch_1">
   <path d="M 0 432 
L 540 432 
L 540 0 
L 0 0 
z
" style="fill:#ffffff;"/>
  </g>
  <g id="axes_1">
   <g id="patch_2">
    <path d="M 95.51 365.56 
L 529.187727 365.56 
L 529.187727 66.6 
L 95.51 66.6 
z
" style="fill:#ffffff;"/>
   </g>
   <g id="matplotlib.axis_1">
    <g id="xtick_1">
     <g id="line2d_1">
      <defs>
       <path d="M 0 0 
L 0 3.5 
" id="m1d3bd41eed" style="stroke:#000000;stroke-width:0.8;"/>
      </defs>
      <g>
       <use style="stroke:#000000;stroke-width:0.8;" x="115.222624" xlink:href="#m1d3bd41eed" y="365.56"/>
      </g>
     </g>
     <g id="text_1">
      <!-- 0 -->
      <defs>
       <path d="M 31.78125 66.40625 
Q 24.171875 66.40625 20.328125 58.90625 
Q 16.5 51.421875 16.5 36.375 
Q 16.5 21.390625 20.328125 13.890625 
Q 24.171875 6.390625 31.78125 6.390625 
Q 39.453125 6.390625 43.28125 13.890625 
Q 47.125 21.390625 47.125 36.375 
Q 47.125 51.421875 43.28125 58.90625 
Q 39.453125 66.40625 31.78125 66.40625 
z
M 31.78125 74.21875 
Q 44.046875 74.21875 50.515625 64.515625 
Q 56.984375 54.828125 56.984375 36.375 
Q 56.984375 17.96875 50.515625 8.265625 
Q 44.046875 -1.421875 31.78125 -1.421875 
Q 19.53125 -1.421875 13.0625 8.265625 
Q 6.59375 17.96875 6.59375 36.375 
Q 6.59375 54.828125 13.0625 64.515625 
Q 19.53125 74.21875 31.78125 74.21875 
z
" id="DejaVuSans-48"/>
      </defs>
      <g transform="translate(108.860124 387.756875)scale(0.2 -0.2)">
       <use xlink:href="#DejaVuSans-48"/>
      </g>
     </g>
    </g>
    <g id="xtick_2">
     <g id="line2d_2">
      <g>
       <use style="stroke:#000000;stroke-width:0.8;" x="194.07312" xlink:href="#m1d3bd41eed" y="365.56"/>
      </g>
     </g>
     <g id="text_2">
      <!-- 50 -->
      <defs>
       <path d="M 10.796875 72.90625 
L 49.515625 72.90625 
L 49.515625 64.59375 
L 19.828125 64.59375 
L 19.828125 46.734375 
Q 21.96875 47.46875 24.109375 47.828125 
Q 26.265625 48.1875 28.421875 48.1875 
Q 40.625 48.1875 47.75 41.5 
Q 54.890625 34.8125 54.890625 23.390625 
Q 54.890625 11.625 47.5625 5.09375 
Q 40.234375 -1.421875 26.90625 -1.421875 
Q 22.3125 -1.421875 17.546875 -0.640625 
Q 12.796875 0.140625 7.71875 1.703125 
L 7.71875 11.625 
Q 12.109375 9.234375 16.796875 8.0625 
Q 21.484375 6.890625 26.703125 6.890625 
Q 35.15625 6.890625 40.078125 11.328125 
Q 45.015625 15.765625 45.015625 23.390625 
Q 45.015625 31 40.078125 35.4375 
Q 35.15625 39.890625 26.703125 39.890625 
Q 22.75 39.890625 18.8125 39.015625 
Q 14.890625 38.140625 10.796875 36.28125 
z
" id="DejaVuSans-53"/>
      </defs>
      <g transform="translate(181.34812 387.756875)scale(0.2 -0.2)">
       <use xlink:href="#DejaVuSans-53"/>
       <use x="63.623047" xlink:href="#DejaVuSans-48"/>
      </g>
     </g>
    </g>
    <g id="xtick_3">
     <g id="line2d_3">
      <g>
       <use style="stroke:#000000;stroke-width:0.8;" x="272.923616" xlink:href="#m1d3bd41eed" y="365.56"/>
      </g>
     </g>
     <g id="text_3">
      <!-- 100 -->
      <defs>
       <path d="M 12.40625 8.296875 
L 28.515625 8.296875 
L 28.515625 63.921875 
L 10.984375 60.40625 
L 10.984375 69.390625 
L 28.421875 72.90625 
L 38.28125 72.90625 
L 38.28125 8.296875 
L 54.390625 8.296875 
L 54.390625 0 
L 12.40625 0 
z
" id="DejaVuSans-49"/>
      </defs>
      <g transform="translate(253.836116 387.756875)scale(0.2 -0.2)">
       <use xlink:href="#DejaVuSans-49"/>
       <use x="63.623047" xlink:href="#DejaVuSans-48"/>
       <use x="127.246094" xlink:href="#DejaVuSans-48"/>
      </g>
     </g>
    </g>
    <g id="xtick_4">
     <g id="line2d_4">
      <g>
       <use style="stroke:#000000;stroke-width:0.8;" x="351.774112" xlink:href="#m1d3bd41eed" y="365.56"/>
      </g>
     </g>
     <g id="text_4">
      <!-- 150 -->
      <g transform="translate(332.686612 387.756875)scale(0.2 -0.2)">
       <use xlink:href="#DejaVuSans-49"/>
       <use x="63.623047" xlink:href="#DejaVuSans-53"/>
       <use x="127.246094" xlink:href="#DejaVuSans-48"/>
      </g>
     </g>
    </g>
    <g id="xtick_5">
     <g id="line2d_5">
      <g>
       <use style="stroke:#000000;stroke-width:0.8;" x="430.624607" xlink:href="#m1d3bd41eed" y="365.56"/>
      </g>
     </g>
     <g id="text_5">
      <!-- 200 -->
      <defs>
       <path d="M 19.1875 8.296875 
L 53.609375 8.296875 
L 53.609375 0 
L 7.328125 0 
L 7.328125 8.296875 
Q 12.9375 14.109375 22.625 23.890625 
Q 32.328125 33.6875 34.8125 36.53125 
Q 39.546875 41.84375 41.421875 45.53125 
Q 43.3125 49.21875 43.3125 52.78125 
Q 43.3125 58.59375 39.234375 62.25 
Q 35.15625 65.921875 28.609375 65.921875 
Q 23.96875 65.921875 18.8125 64.3125 
Q 13.671875 62.703125 7.8125 59.421875 
L 7.8125 69.390625 
Q 13.765625 71.78125 18.9375 73 
Q 24.125 74.21875 28.421875 74.21875 
Q 39.75 74.21875 46.484375 68.546875 
Q 53.21875 62.890625 53.21875 53.421875 
Q 53.21875 48.921875 51.53125 44.890625 
Q 49.859375 40.875 45.40625 35.40625 
Q 44.1875 33.984375 37.640625 27.21875 
Q 31.109375 20.453125 19.1875 8.296875 
z
" id="DejaVuSans-50"/>
      </defs>
      <g transform="translate(411.537107 387.756875)scale(0.2 -0.2)">
       <use xlink:href="#DejaVuSans-50"/>
       <use x="63.623047" xlink:href="#DejaVuSans-48"/>
       <use x="127.246094" xlink:href="#DejaVuSans-48"/>
      </g>
     </g>
    </g>
    <g id="xtick_6">
     <g id="line2d_6">
      <g>
       <use style="stroke:#000000;stroke-width:0.8;" x="509.475103" xlink:href="#m1d3bd41eed" y="365.56"/>
      </g>
     </g>
     <g id="text_6">
      <!-- 250 -->
      <g transform="translate(490.387603 387.756875)scale(0.2 -0.2)">
       <use xlink:href="#DejaVuSans-50"/>
       <use x="63.623047" xlink:href="#DejaVuSans-53"/>
       <use x="127.246094" xlink:href="#DejaVuSans-48"/>
      </g>
     </g>
    </g>
    <g id="text_7">
     <!-- # of games -->
     <defs>
      <path d="M 51.125 44 
L 36.921875 44 
L 32.8125 27.6875 
L 47.125 27.6875 
z
M 43.796875 71.78125 
L 38.71875 51.515625 
L 52.984375 51.515625 
L 58.109375 71.78125 
L 65.921875 71.78125 
L 60.890625 51.515625 
L 76.125 51.515625 
L 76.125 44 
L 58.984375 44 
L 54.984375 27.6875 
L 70.515625 27.6875 
L 70.515625 20.21875 
L 53.078125 20.21875 
L 48 0 
L 40.1875 0 
L 45.21875 20.21875 
L 30.90625 20.21875 
L 25.875 0 
L 18.015625 0 
L 23.09375 20.21875 
L 7.71875 20.21875 
L 7.71875 27.6875 
L 24.90625 27.6875 
L 29 44 
L 13.28125 44 
L 13.28125 51.515625 
L 30.90625 51.515625 
L 35.890625 71.78125 
z
" id="DejaVuSans-35"/>
      <path id="DejaVuSans-32"/>
      <path d="M 30.609375 48.390625 
Q 23.390625 48.390625 19.1875 42.75 
Q 14.984375 37.109375 14.984375 27.296875 
Q 14.984375 17.484375 19.15625 11.84375 
Q 23.34375 6.203125 30.609375 6.203125 
Q 37.796875 6.203125 41.984375 11.859375 
Q 46.1875 17.53125 46.1875 27.296875 
Q 46.1875 37.015625 41.984375 42.703125 
Q 37.796875 48.390625 30.609375 48.390625 
z
M 30.609375 56 
Q 42.328125 56 49.015625 48.375 
Q 55.71875 40.765625 55.71875 27.296875 
Q 55.71875 13.875 49.015625 6.21875 
Q 42.328125 -1.421875 30.609375 -1.421875 
Q 18.84375 -1.421875 12.171875 6.21875 
Q 5.515625 13.875 5.515625 27.296875 
Q 5.515625 40.765625 12.171875 48.375 
Q 18.84375 56 30.609375 56 
z
" id="DejaVuSans-111"/>
      <path d="M 37.109375 75.984375 
L 37.109375 68.5 
L 28.515625 68.5 
Q 23.6875 68.5 21.796875 66.546875 
Q 19.921875 64.59375 19.921875 59.515625 
L 19.921875 54.6875 
L 34.71875 54.6875 
L 34.71875 47.703125 
L 19.921875 47.703125 
L 19.921875 0 
L 10.890625 0 
L 10.890625 47.703125 
L 2.296875 47.703125 
L 2.296875 54.6875 
L 10.890625 54.6875 
L 10.890625 58.5 
Q 10.890625 67.625 15.140625 71.796875 
Q 19.390625 75.984375 28.609375 75.984375 
z
" id="DejaVuSans-102"/>
      <path d="M 45.40625 27.984375 
Q 45.40625 37.75 41.375 43.109375 
Q 37.359375 48.484375 30.078125 48.484375 
Q 22.859375 48.484375 18.828125 43.109375 
Q 14.796875 37.75 14.796875 27.984375 
Q 14.796875 18.265625 18.828125 12.890625 
Q 22.859375 7.515625 30.078125 7.515625 
Q 37.359375 7.515625 41.375 12.890625 
Q 45.40625 18.265625 45.40625 27.984375 
z
M 54.390625 6.78125 
Q 54.390625 -7.171875 48.1875 -13.984375 
Q 42 -20.796875 29.203125 -20.796875 
Q 24.46875 -20.796875 20.265625 -20.09375 
Q 16.0625 -19.390625 12.109375 -17.921875 
L 12.109375 -9.1875 
Q 16.0625 -11.328125 19.921875 -12.34375 
Q 23.78125 -13.375 27.78125 -13.375 
Q 36.625 -13.375 41.015625 -8.765625 
Q 45.40625 -4.15625 45.40625 5.171875 
L 45.40625 9.625 
Q 42.625 4.78125 38.28125 2.390625 
Q 33.9375 0 27.875 0 
Q 17.828125 0 11.671875 7.65625 
Q 5.515625 15.328125 5.515625 27.984375 
Q 5.515625 40.671875 11.671875 48.328125 
Q 17.828125 56 27.875 56 
Q 33.9375 56 38.28125 53.609375 
Q 42.625 51.21875 45.40625 46.390625 
L 45.40625 54.6875 
L 54.390625 54.6875 
z
" id="DejaVuSans-103"/>
      <path d="M 34.28125 27.484375 
Q 23.390625 27.484375 19.1875 25 
Q 14.984375 22.515625 14.984375 16.5 
Q 14.984375 11.71875 18.140625 8.90625 
Q 21.296875 6.109375 26.703125 6.109375 
Q 34.1875 6.109375 38.703125 11.40625 
Q 43.21875 16.703125 43.21875 25.484375 
L 43.21875 27.484375 
z
M 52.203125 31.203125 
L 52.203125 0 
L 43.21875 0 
L 43.21875 8.296875 
Q 40.140625 3.328125 35.546875 0.953125 
Q 30.953125 -1.421875 24.3125 -1.421875 
Q 15.921875 -1.421875 10.953125 3.296875 
Q 6 8.015625 6 15.921875 
Q 6 25.140625 12.171875 29.828125 
Q 18.359375 34.515625 30.609375 34.515625 
L 43.21875 34.515625 
L 43.21875 35.40625 
Q 43.21875 41.609375 39.140625 45 
Q 35.0625 48.390625 27.6875 48.390625 
Q 23 48.390625 18.546875 47.265625 
Q 14.109375 46.140625 10.015625 43.890625 
L 10.015625 52.203125 
Q 14.9375 54.109375 19.578125 55.046875 
Q 24.21875 56 28.609375 56 
Q 40.484375 56 46.34375 49.84375 
Q 52.203125 43.703125 52.203125 31.203125 
z
" id="DejaVuSans-97"/>
      <path d="M 52 44.1875 
Q 55.375 50.25 60.0625 53.125 
Q 64.75 56 71.09375 56 
Q 79.640625 56 84.28125 50.015625 
Q 88.921875 44.046875 88.921875 33.015625 
L 88.921875 0 
L 79.890625 0 
L 79.890625 32.71875 
Q 79.890625 40.578125 77.09375 44.375 
Q 74.3125 48.1875 68.609375 48.1875 
Q 61.625 48.1875 57.5625 43.546875 
Q 53.515625 38.921875 53.515625 30.90625 
L 53.515625 0 
L 44.484375 0 
L 44.484375 32.71875 
Q 44.484375 40.625 41.703125 44.40625 
Q 38.921875 48.1875 33.109375 48.1875 
Q 26.21875 48.1875 22.15625 43.53125 
Q 18.109375 38.875 18.109375 30.90625 
L 18.109375 0 
L 9.078125 0 
L 9.078125 54.6875 
L 18.109375 54.6875 
L 18.109375 46.1875 
Q 21.1875 51.21875 25.484375 53.609375 
Q 29.78125 56 35.6875 56 
Q 41.65625 56 45.828125 52.96875 
Q 50 49.953125 52 44.1875 
z
" id="DejaVuSans-109"/>
      <path d="M 56.203125 29.59375 
L 56.203125 25.203125 
L 14.890625 25.203125 
Q 15.484375 15.921875 20.484375 11.0625 
Q 25.484375 6.203125 34.421875 6.203125 
Q 39.59375 6.203125 44.453125 7.46875 
Q 49.3125 8.734375 54.109375 11.28125 
L 54.109375 2.78125 
Q 49.265625 0.734375 44.1875 -0.34375 
Q 39.109375 -1.421875 33.890625 -1.421875 
Q 20.796875 -1.421875 13.15625 6.1875 
Q 5.515625 13.8125 5.515625 26.8125 
Q 5.515625 40.234375 12.765625 48.109375 
Q 20.015625 56 32.328125 56 
Q 43.359375 56 49.78125 48.890625 
Q 56.203125 41.796875 56.203125 29.59375 
z
M 47.21875 32.234375 
Q 47.125 39.59375 43.09375 43.984375 
Q 39.0625 48.390625 32.421875 48.390625 
Q 24.90625 48.390625 20.390625 44.140625 
Q 15.875 39.890625 15.1875 32.171875 
z
" id="DejaVuSans-101"/>
      <path d="M 44.28125 53.078125 
L 44.28125 44.578125 
Q 40.484375 46.53125 36.375 47.5 
Q 32.28125 48.484375 27.875 48.484375 
Q 21.1875 48.484375 17.84375 46.4375 
Q 14.5 44.390625 14.5 40.28125 
Q 14.5 37.15625 16.890625 35.375 
Q 19.28125 33.59375 26.515625 31.984375 
L 29.59375 31.296875 
Q 39.15625 29.25 43.1875 25.515625 
Q 47.21875 21.78125 47.21875 15.09375 
Q 47.21875 7.46875 41.1875 3.015625 
Q 35.15625 -1.421875 24.609375 -1.421875 
Q 20.21875 -1.421875 15.453125 -0.5625 
Q 10.6875 0.296875 5.421875 2 
L 5.421875 11.28125 
Q 10.40625 8.6875 15.234375 7.390625 
Q 20.0625 6.109375 24.8125 6.109375 
Q 31.15625 6.109375 34.5625 8.28125 
Q 37.984375 10.453125 37.984375 14.40625 
Q 37.984375 18.0625 35.515625 20.015625 
Q 33.0625 21.96875 24.703125 23.78125 
L 21.578125 24.515625 
Q 13.234375 26.265625 9.515625 29.90625 
Q 5.8125 33.546875 5.8125 39.890625 
Q 5.8125 47.609375 11.28125 51.796875 
Q 16.75 56 26.8125 56 
Q 31.78125 56 36.171875 55.265625 
Q 40.578125 54.546875 44.28125 53.078125 
z
" id="DejaVuSans-115"/>
     </defs>
     <g transform="translate(239.905504 414.912344)scale(0.25 -0.25)">
      <use xlink:href="#DejaVuSans-35"/>
      <use x="83.789062" xlink:href="#DejaVuSans-32"/>
      <use x="115.576172" xlink:href="#DejaVuSans-111"/>
      <use x="176.757812" xlink:href="#DejaVuSans-102"/>
      <use x="211.962891" xlink:href="#DejaVuSans-32"/>
      <use x="243.75" xlink:href="#DejaVuSans-103"/>
      <use x="307.226562" xlink:href="#DejaVuSans-97"/>
      <use x="368.505859" xlink:href="#DejaVuSans-109"/>
      <use x="465.917969" xlink:href="#DejaVuSans-101"/>
      <use x="527.441406" xlink:href="#DejaVuSans-115"/>
     </g>
    </g>
   </g>
   <g id="matplotlib.axis_2">
    <g id="ytick_1">
     <g id="line2d_7">
      <defs>
       <path d="M 0 0 
L -3.5 0 
" id="m4e84085feb" style="stroke:#000000;stroke-width:0.8;"/>
      </defs>
      <g>
       <use style="stroke:#000000;stroke-width:0.8;" x="95.51" xlink:href="#m4e84085feb" y="342.277187"/>
      </g>
     </g>
     <g id="text_8">
      <!-- 0.996 -->
      <defs>
       <path d="M 10.6875 12.40625 
L 21 12.40625 
L 21 0 
L 10.6875 0 
z
" id="DejaVuSans-46"/>
       <path d="M 10.984375 1.515625 
L 10.984375 10.5 
Q 14.703125 8.734375 18.5 7.8125 
Q 22.3125 6.890625 25.984375 6.890625 
Q 35.75 6.890625 40.890625 13.453125 
Q 46.046875 20.015625 46.78125 33.40625 
Q 43.953125 29.203125 39.59375 26.953125 
Q 35.25 24.703125 29.984375 24.703125 
Q 19.046875 24.703125 12.671875 31.3125 
Q 6.296875 37.9375 6.296875 49.421875 
Q 6.296875 60.640625 12.9375 67.421875 
Q 19.578125 74.21875 30.609375 74.21875 
Q 43.265625 74.21875 49.921875 64.515625 
Q 56.59375 54.828125 56.59375 36.375 
Q 56.59375 19.140625 48.40625 8.859375 
Q 40.234375 -1.421875 26.421875 -1.421875 
Q 22.703125 -1.421875 18.890625 -0.6875 
Q 15.09375 0.046875 10.984375 1.515625 
z
M 30.609375 32.421875 
Q 37.25 32.421875 41.125 36.953125 
Q 45.015625 41.5 45.015625 49.421875 
Q 45.015625 57.28125 41.125 61.84375 
Q 37.25 66.40625 30.609375 66.40625 
Q 23.96875 66.40625 20.09375 61.84375 
Q 16.21875 57.28125 16.21875 49.421875 
Q 16.21875 41.5 20.09375 36.953125 
Q 23.96875 32.421875 30.609375 32.421875 
z
" id="DejaVuSans-57"/>
       <path d="M 33.015625 40.375 
Q 26.375 40.375 22.484375 35.828125 
Q 18.609375 31.296875 18.609375 23.390625 
Q 18.609375 15.53125 22.484375 10.953125 
Q 26.375 6.390625 33.015625 6.390625 
Q 39.65625 6.390625 43.53125 10.953125 
Q 47.40625 15.53125 47.40625 23.390625 
Q 47.40625 31.296875 43.53125 35.828125 
Q 39.65625 40.375 33.015625 40.375 
z
M 52.59375 71.296875 
L 52.59375 62.3125 
Q 48.875 64.0625 45.09375 64.984375 
Q 41.3125 65.921875 37.59375 65.921875 
Q 27.828125 65.921875 22.671875 59.328125 
Q 17.53125 52.734375 16.796875 39.40625 
Q 19.671875 43.65625 24.015625 45.921875 
Q 28.375 48.1875 33.59375 48.1875 
Q 44.578125 48.1875 50.953125 41.515625 
Q 57.328125 34.859375 57.328125 23.390625 
Q 57.328125 12.15625 50.6875 5.359375 
Q 44.046875 -1.421875 33.015625 -1.421875 
Q 20.359375 -1.421875 13.671875 8.265625 
Q 6.984375 17.96875 6.984375 36.375 
Q 6.984375 53.65625 15.1875 63.9375 
Q 23.390625 74.21875 37.203125 74.21875 
Q 40.921875 74.21875 44.703125 73.484375 
Q 48.484375 72.75 52.59375 71.296875 
z
" id="DejaVuSans-54"/>
      </defs>
      <g transform="translate(31.25375 349.875624)scale(0.2 -0.2)">
       <use xlink:href="#DejaVuSans-48"/>
       <use x="63.623047" xlink:href="#DejaVuSans-46"/>
       <use x="95.410156" xlink:href="#DejaVuSans-57"/>
       <use x="159.033203" xlink:href="#DejaVuSans-57"/>
       <use x="222.65625" xlink:href="#DejaVuSans-54"/>
      </g>
     </g>
    </g>
    <g id="ytick_2">
     <g id="line2d_8">
      <g>
       <use style="stroke:#000000;stroke-width:0.8;" x="95.51" xlink:href="#m4e84085feb" y="276.755163"/>
      </g>
     </g>
     <g id="text_9">
      <!-- 0.997 -->
      <defs>
       <path d="M 8.203125 72.90625 
L 55.078125 72.90625 
L 55.078125 68.703125 
L 28.609375 0 
L 18.3125 0 
L 43.21875 64.59375 
L 8.203125 64.59375 
z
" id="DejaVuSans-55"/>
      </defs>
      <g transform="translate(31.25375 284.3536)scale(0.2 -0.2)">
       <use xlink:href="#DejaVuSans-48"/>
       <use x="63.623047" xlink:href="#DejaVuSans-46"/>
       <use x="95.410156" xlink:href="#DejaVuSans-57"/>
       <use x="159.033203" xlink:href="#DejaVuSans-57"/>
       <use x="222.65625" xlink:href="#DejaVuSans-55"/>
      </g>
     </g>
    </g>
    <g id="ytick_3">
     <g id="line2d_9">
      <g>
       <use style="stroke:#000000;stroke-width:0.8;" x="95.51" xlink:href="#m4e84085feb" y="211.233139"/>
      </g>
     </g>
     <g id="text_10">
      <!-- 0.998 -->
      <defs>
       <path d="M 31.78125 34.625 
Q 24.75 34.625 20.71875 30.859375 
Q 16.703125 27.09375 16.703125 20.515625 
Q 16.703125 13.921875 20.71875 10.15625 
Q 24.75 6.390625 31.78125 6.390625 
Q 38.8125 6.390625 42.859375 10.171875 
Q 46.921875 13.96875 46.921875 20.515625 
Q 46.921875 27.09375 42.890625 30.859375 
Q 38.875 34.625 31.78125 34.625 
z
M 21.921875 38.8125 
Q 15.578125 40.375 12.03125 44.71875 
Q 8.5 49.078125 8.5 55.328125 
Q 8.5 64.0625 14.71875 69.140625 
Q 20.953125 74.21875 31.78125 74.21875 
Q 42.671875 74.21875 48.875 69.140625 
Q 55.078125 64.0625 55.078125 55.328125 
Q 55.078125 49.078125 51.53125 44.71875 
Q 48 40.375 41.703125 38.8125 
Q 48.828125 37.15625 52.796875 32.3125 
Q 56.78125 27.484375 56.78125 20.515625 
Q 56.78125 9.90625 50.3125 4.234375 
Q 43.84375 -1.421875 31.78125 -1.421875 
Q 19.734375 -1.421875 13.25 4.234375 
Q 6.78125 9.90625 6.78125 20.515625 
Q 6.78125 27.484375 10.78125 32.3125 
Q 14.796875 37.15625 21.921875 38.8125 
z
M 18.3125 54.390625 
Q 18.3125 48.734375 21.84375 45.5625 
Q 25.390625 42.390625 31.78125 42.390625 
Q 38.140625 42.390625 41.71875 45.5625 
Q 45.3125 48.734375 45.3125 54.390625 
Q 45.3125 60.0625 41.71875 63.234375 
Q 38.140625 66.40625 31.78125 66.40625 
Q 25.390625 66.40625 21.84375 63.234375 
Q 18.3125 60.0625 18.3125 54.390625 
z
" id="DejaVuSans-56"/>
      </defs>
      <g transform="translate(31.25375 218.831576)scale(0.2 -0.2)">
       <use xlink:href="#DejaVuSans-48"/>
       <use x="63.623047" xlink:href="#DejaVuSans-46"/>
       <use x="95.410156" xlink:href="#DejaVuSans-57"/>
       <use x="159.033203" xlink:href="#DejaVuSans-57"/>
       <use x="222.65625" xlink:href="#DejaVuSans-56"/>
      </g>
     </g>
    </g>
    <g id="ytick_4">
     <g id="line2d_10">
      <g>
       <use style="stroke:#000000;stroke-width:0.8;" x="95.51" xlink:href="#m4e84085feb" y="145.711115"/>
      </g>
     </g>
     <g id="text_11">
      <!-- 0.999 -->
      <g transform="translate(31.25375 153.309552)scale(0.2 -0.2)">
       <use xlink:href="#DejaVuSans-48"/>
       <use x="63.623047" xlink:href="#DejaVuSans-46"/>
       <use x="95.410156" xlink:href="#DejaVuSans-57"/>
       <use x="159.033203" xlink:href="#DejaVuSans-57"/>
       <use x="222.65625" xlink:href="#DejaVuSans-57"/>
      </g>
     </g>
    </g>
    <g id="ytick_5">
     <g id="line2d_11">
      <g>
       <use style="stroke:#000000;stroke-width:0.8;" x="95.51" xlink:href="#m4e84085feb" y="80.189091"/>
      </g>
     </g>
     <g id="text_12">
      <!-- 1.000 -->
      <g transform="translate(31.25375 87.787528)scale(0.2 -0.2)">
       <use xlink:href="#DejaVuSans-49"/>
       <use x="63.623047" xlink:href="#DejaVuSans-46"/>
       <use x="95.410156" xlink:href="#DejaVuSans-48"/>
       <use x="159.033203" xlink:href="#DejaVuSans-48"/>
       <use x="222.65625" xlink:href="#DejaVuSans-48"/>
      </g>
     </g>
    </g>
    <g id="text_13">
     <!-- defense impact Value -->
     <defs>
      <path d="M 45.40625 46.390625 
L 45.40625 75.984375 
L 54.390625 75.984375 
L 54.390625 0 
L 45.40625 0 
L 45.40625 8.203125 
Q 42.578125 3.328125 38.25 0.953125 
Q 33.9375 -1.421875 27.875 -1.421875 
Q 17.96875 -1.421875 11.734375 6.484375 
Q 5.515625 14.40625 5.515625 27.296875 
Q 5.515625 40.1875 11.734375 48.09375 
Q 17.96875 56 27.875 56 
Q 33.9375 56 38.25 53.625 
Q 42.578125 51.265625 45.40625 46.390625 
z
M 14.796875 27.296875 
Q 14.796875 17.390625 18.875 11.75 
Q 22.953125 6.109375 30.078125 6.109375 
Q 37.203125 6.109375 41.296875 11.75 
Q 45.40625 17.390625 45.40625 27.296875 
Q 45.40625 37.203125 41.296875 42.84375 
Q 37.203125 48.484375 30.078125 48.484375 
Q 22.953125 48.484375 18.875 42.84375 
Q 14.796875 37.203125 14.796875 27.296875 
z
" id="DejaVuSans-100"/>
      <path d="M 54.890625 33.015625 
L 54.890625 0 
L 45.90625 0 
L 45.90625 32.71875 
Q 45.90625 40.484375 42.875 44.328125 
Q 39.84375 48.1875 33.796875 48.1875 
Q 26.515625 48.1875 22.3125 43.546875 
Q 18.109375 38.921875 18.109375 30.90625 
L 18.109375 0 
L 9.078125 0 
L 9.078125 54.6875 
L 18.109375 54.6875 
L 18.109375 46.1875 
Q 21.34375 51.125 25.703125 53.5625 
Q 30.078125 56 35.796875 56 
Q 45.21875 56 50.046875 50.171875 
Q 54.890625 44.34375 54.890625 33.015625 
z
" id="DejaVuSans-110"/>
      <path d="M 9.421875 54.6875 
L 18.40625 54.6875 
L 18.40625 0 
L 9.421875 0 
z
M 9.421875 75.984375 
L 18.40625 75.984375 
L 18.40625 64.59375 
L 9.421875 64.59375 
z
" id="DejaVuSans-105"/>
      <path d="M 18.109375 8.203125 
L 18.109375 -20.796875 
L 9.078125 -20.796875 
L 9.078125 54.6875 
L 18.109375 54.6875 
L 18.109375 46.390625 
Q 20.953125 51.265625 25.265625 53.625 
Q 29.59375 56 35.59375 56 
Q 45.5625 56 51.78125 48.09375 
Q 58.015625 40.1875 58.015625 27.296875 
Q 58.015625 14.40625 51.78125 6.484375 
Q 45.5625 -1.421875 35.59375 -1.421875 
Q 29.59375 -1.421875 25.265625 0.953125 
Q 20.953125 3.328125 18.109375 8.203125 
z
M 48.6875 27.296875 
Q 48.6875 37.203125 44.609375 42.84375 
Q 40.53125 48.484375 33.40625 48.484375 
Q 26.265625 48.484375 22.1875 42.84375 
Q 18.109375 37.203125 18.109375 27.296875 
Q 18.109375 17.390625 22.1875 11.75 
Q 26.265625 6.109375 33.40625 6.109375 
Q 40.53125 6.109375 44.609375 11.75 
Q 48.6875 17.390625 48.6875 27.296875 
z
" id="DejaVuSans-112"/>
      <path d="M 48.78125 52.59375 
L 48.78125 44.1875 
Q 44.96875 46.296875 41.140625 47.34375 
Q 37.3125 48.390625 33.40625 48.390625 
Q 24.65625 48.390625 19.8125 42.84375 
Q 14.984375 37.3125 14.984375 27.296875 
Q 14.984375 17.28125 19.8125 11.734375 
Q 24.65625 6.203125 33.40625 6.203125 
Q 37.3125 6.203125 41.140625 7.25 
Q 44.96875 8.296875 48.78125 10.40625 
L 48.78125 2.09375 
Q 45.015625 0.34375 40.984375 -0.53125 
Q 36.96875 -1.421875 32.421875 -1.421875 
Q 20.0625 -1.421875 12.78125 6.34375 
Q 5.515625 14.109375 5.515625 27.296875 
Q 5.515625 40.671875 12.859375 48.328125 
Q 20.21875 56 33.015625 56 
Q 37.15625 56 41.109375 55.140625 
Q 45.0625 54.296875 48.78125 52.59375 
z
" id="DejaVuSans-99"/>
      <path d="M 18.3125 70.21875 
L 18.3125 54.6875 
L 36.8125 54.6875 
L 36.8125 47.703125 
L 18.3125 47.703125 
L 18.3125 18.015625 
Q 18.3125 11.328125 20.140625 9.421875 
Q 21.96875 7.515625 27.59375 7.515625 
L 36.8125 7.515625 
L 36.8125 0 
L 27.59375 0 
Q 17.1875 0 13.234375 3.875 
Q 9.28125 7.765625 9.28125 18.015625 
L 9.28125 47.703125 
L 2.6875 47.703125 
L 2.6875 54.6875 
L 9.28125 54.6875 
L 9.28125 70.21875 
z
" id="DejaVuSans-116"/>
      <path d="M 28.609375 0 
L 0.78125 72.90625 
L 11.078125 72.90625 
L 34.1875 11.53125 
L 57.328125 72.90625 
L 67.578125 72.90625 
L 39.796875 0 
z
" id="DejaVuSans-86"/>
      <path d="M 9.421875 75.984375 
L 18.40625 75.984375 
L 18.40625 0 
L 9.421875 0 
z
" id="DejaVuSans-108"/>
      <path d="M 8.5 21.578125 
L 8.5 54.6875 
L 17.484375 54.6875 
L 17.484375 21.921875 
Q 17.484375 14.15625 20.5 10.265625 
Q 23.53125 6.390625 29.59375 6.390625 
Q 36.859375 6.390625 41.078125 11.03125 
Q 45.3125 15.671875 45.3125 23.6875 
L 45.3125 54.6875 
L 54.296875 54.6875 
L 54.296875 0 
L 45.3125 0 
L 45.3125 8.40625 
Q 42.046875 3.421875 37.71875 1 
Q 33.40625 -1.421875 27.6875 -1.421875 
Q 18.265625 -1.421875 13.375 4.4375 
Q 8.5 10.296875 8.5 21.578125 
z
M 31.109375 56 
z
" id="DejaVuSans-117"/>
     </defs>
     <g transform="translate(23.787604 306.806562)rotate(-90)scale(0.166667 -0.166667)">
      <use xlink:href="#DejaVuSans-100"/>
      <use x="63.476562" xlink:href="#DejaVuSans-101"/>
      <use x="125" xlink:href="#DejaVuSans-102"/>
      <use x="160.205078" xlink:href="#DejaVuSans-101"/>
      <use x="221.728516" xlink:href="#DejaVuSans-110"/>
      <use x="285.107422" xlink:href="#DejaVuSans-115"/>
      <use x="337.207031" xlink:href="#DejaVuSans-101"/>
      <use x="398.730469" xlink:href="#DejaVuSans-32"/>
      <use x="430.517578" xlink:href="#DejaVuSans-105"/>
      <use x="458.300781" xlink:href="#DejaVuSans-109"/>
      <use x="555.712891" xlink:href="#DejaVuSans-112"/>
      <use x="619.189453" xlink:href="#DejaVuSans-97"/>
      <use x="680.46875" xlink:href="#DejaVuSans-99"/>
      <use x="735.449219" xlink:href="#DejaVuSans-116"/>
      <use x="774.658203" xlink:href="#DejaVuSans-32"/>
      <use x="806.445312" xlink:href="#DejaVuSans-86"/>
      <use x="874.744141" xlink:href="#DejaVuSans-97"/>
      <use x="936.023438" xlink:href="#DejaVuSans-108"/>
      <use x="963.806641" xlink:href="#DejaVuSans-117"/>
      <use x="1027.185547" xlink:href="#DejaVuSans-101"/>
     </g>
    </g>
   </g>
   <g id="line2d_12">
    <path clip-path="url(#p83af573a1b)" d="M 115.222624 80.189091 
L 118.376644 80.189091 
L 119.953654 80.507305 
L 121.530664 81.675073 
L 123.107674 80.905835 
L 124.684683 83.25524 
L 126.261693 85.373893 
L 129.415713 85.468778 
L 130.992723 86.256801 
L 132.569733 86.380631 
L 134.146743 84.237657 
L 135.723753 89.109954 
L 137.300763 89.489565 
L 138.877773 93.866497 
L 140.454783 94.105701 
L 143.608802 94.105701 
L 145.185812 94.973362 
L 146.762822 93.576255 
L 149.916842 93.576255 
L 154.647872 93.327143 
L 156.224882 93.484199 
L 157.801892 92.590535 
L 159.378902 92.590535 
L 160.955912 92.765265 
L 162.532921 92.765265 
L 164.109931 94.003 
L 165.686941 94.003 
L 167.263951 92.650039 
L 168.840961 92.977958 
L 170.417971 94.361519 
L 171.994981 94.766445 
L 175.149001 96.749412 
L 178.303021 96.749412 
L 179.880031 104.623404 
L 181.45704 107.606444 
L 183.03405 108.490875 
L 184.61106 111.847931 
L 186.18807 111.847931 
L 187.76508 112.688412 
L 189.34209 109.084919 
L 190.9191 109.084919 
L 192.49611 112.110447 
L 194.07312 112.9255 
L 195.65013 113.020819 
L 197.22714 113.714174 
L 198.80415 114.152948 
L 200.38116 126.480912 
L 201.958169 131.265286 
L 203.535179 131.265286 
L 205.112189 133.156997 
L 206.689199 133.156997 
L 208.266209 127.194694 
L 209.843219 127.194694 
L 211.420229 133.972084 
L 212.997239 134.816109 
L 214.574249 133.582959 
L 216.151259 135.807704 
L 219.305279 135.807704 
L 220.882288 140.565141 
L 227.190328 140.565141 
L 228.767338 137.287499 
L 231.921358 137.287499 
L 233.498368 128.034795 
L 235.075378 132.153162 
L 236.652388 132.153162 
L 238.229398 132.326018 
L 239.806407 132.326018 
L 242.960427 138.33966 
L 244.537437 138.33966 
L 246.114447 138.073094 
L 247.691457 141.478035 
L 249.268467 142.245802 
L 250.845477 144.752805 
L 252.422487 143.199555 
L 253.999497 143.199555 
L 255.576507 142.008743 
L 257.153517 146.130054 
L 258.730526 146.87677 
L 260.307536 128.931155 
L 261.884546 102.823692 
L 277.654645 102.823692 
L 279.231655 98.125109 
L 280.808665 101.826938 
L 288.693715 101.826938 
L 290.270725 105.433246 
L 291.847735 103.718509 
L 295.001755 103.718509 
L 296.578764 108.794964 
L 304.463814 108.794964 
L 306.040824 98.367721 
L 307.617834 93.18516 
L 309.194844 93.18516 
L 310.771854 86.280836 
L 318.656903 86.280836 
L 320.233913 90.530308 
L 361.236171 90.530308 
L 362.813181 93.115613 
L 365.967201 93.115613 
L 367.544211 87.271544 
L 394.353379 87.271544 
L 395.930389 141.588061 
L 419.585538 141.588061 
L 421.162548 134.505608 
L 454.279756 134.505608 
L 455.856766 80.189091 
L 487.396964 80.189091 
L 488.973974 317.203208 
L 509.475103 317.203208 
L 509.475103 317.203208 
" style="fill:none;stroke:#1f77b4;stroke-linecap:square;stroke-width:1.5;"/>
   </g>
   <g id="line2d_13">
    <path clip-path="url(#p83af573a1b)" d="M 115.222624 80.189091 
L 116.799634 80.189091 
L 119.953654 80.791219 
L 121.530664 81.427666 
L 123.107674 82.186023 
L 124.684683 81.481366 
L 126.261693 81.698857 
L 127.838703 82.479878 
L 129.415713 86.992207 
L 130.992723 83.904529 
L 134.146743 84.612754 
L 135.723753 84.55791 
L 138.877773 87.263364 
L 140.454783 84.696489 
L 142.031793 90.001989 
L 143.608802 89.782157 
L 145.185812 88.374411 
L 146.762822 88.374411 
L 148.339832 91.342642 
L 149.916842 90.946715 
L 151.493852 89.703831 
L 153.070862 90.418117 
L 154.647872 93.686202 
L 156.224882 93.437842 
L 157.801892 95.23745 
L 159.378902 103.056246 
L 160.955912 102.300664 
L 162.532921 102.602058 
L 164.109931 93.549704 
L 165.686941 88.06889 
L 167.263951 88.680519 
L 168.840961 88.903978 
L 170.417971 89.771156 
L 171.994981 89.690182 
L 173.571991 89.847484 
L 175.149001 92.270679 
L 178.303021 89.280167 
L 179.880031 89.001287 
L 181.45704 89.017612 
L 183.03405 89.6706 
L 184.61106 91.139373 
L 186.18807 91.139373 
L 187.76508 91.004968 
L 189.34209 91.004968 
L 190.9191 92.974251 
L 194.07312 101.764255 
L 195.65013 97.402437 
L 197.22714 97.402437 
L 198.80415 98.231961 
L 200.38116 90.943962 
L 201.958169 84.487707 
L 205.112189 84.081466 
L 206.689199 84.081466 
L 208.266209 84.466499 
L 209.843219 84.466499 
L 211.420229 84.698014 
L 212.997239 84.100536 
L 214.574249 81.34261 
L 217.728269 81.378387 
L 219.305279 82.035289 
L 220.882288 82.098925 
L 222.459298 82.486459 
L 224.036308 96.048212 
L 225.613318 93.009804 
L 227.190328 88.048095 
L 228.767338 88.814177 
L 230.344348 86.852435 
L 231.921358 86.04671 
L 233.498368 91.234062 
L 235.075378 91.78631 
L 236.652388 85.913303 
L 239.806407 85.913303 
L 241.383417 87.415512 
L 242.960427 87.81698 
L 244.537437 87.81698 
L 246.114447 90.538595 
L 247.691457 91.147389 
L 249.268467 100.249066 
L 250.845477 111.468929 
L 252.422487 92.667753 
L 253.999497 97.908048 
L 255.576507 99.227478 
L 257.153517 87.301657 
L 258.730526 98.50962 
L 260.307536 100.165341 
L 261.884546 120.170909 
L 263.461556 113.841844 
L 266.615576 113.841844 
L 268.192586 83.009598 
L 271.346606 83.009598 
L 272.923616 92.749527 
L 274.500626 83.009598 
L 277.654645 83.009598 
L 279.231655 83.412527 
L 285.539695 83.412527 
L 287.116705 144.12844 
L 288.693715 147.795577 
L 290.270725 155.931186 
L 291.847735 151.024322 
L 293.424745 151.024322 
L 295.001755 89.997043 
L 296.578764 89.997043 
L 298.155774 95.254303 
L 304.463814 95.254303 
L 306.040824 98.267345 
L 307.617834 177.501764 
L 312.348864 177.501764 
L 313.925874 174.658127 
L 317.079893 174.658127 
L 318.656903 95.423708 
L 321.810923 95.423708 
L 323.387933 94.810912 
L 328.118963 94.810912 
L 329.695973 80.189091 
L 334.427002 80.189091 
L 336.004012 85.499676 
L 337.581022 80.189091 
L 348.620092 80.189091 
L 350.197102 86.227954 
L 351.774112 88.64547 
L 353.351121 87.677873 
L 356.505141 97.818593 
L 359.659161 97.818593 
L 361.236171 97.995027 
L 362.813181 99.204074 
L 364.390191 92.864991 
L 365.967201 92.864991 
L 367.544211 88.833674 
L 386.46833 88.833674 
L 388.04534 105.997831 
L 389.62235 105.997831 
L 391.19936 97.353248 
L 392.776369 80.189091 
L 402.238429 80.189091 
L 403.815439 80.548025 
L 410.123479 80.548025 
L 411.700488 80.189091 
L 425.893578 80.189091 
L 427.470588 95.946793 
L 429.047598 80.189091 
L 430.624607 83.830678 
L 433.778627 83.830678 
L 435.355637 80.189091 
L 440.086667 80.189091 
L 441.663677 109.707798 
L 446.394707 109.707798 
L 447.971717 118.001903 
L 474.780885 118.001903 
L 476.357895 80.189091 
L 506.321083 80.189091 
L 507.898093 104.617167 
L 509.475103 104.617167 
L 509.475103 104.617167 
" style="fill:none;stroke:#ff7f0e;stroke-linecap:square;stroke-width:1.5;"/>
   </g>
   <g id="line2d_14">
    <path clip-path="url(#p83af573a1b)" d="M 115.222624 80.189091 
L 123.107674 80.189091 
L 124.684683 80.891716 
L 127.838703 80.891716 
L 129.415713 81.227116 
L 130.992723 82.994231 
L 132.569733 84.277327 
L 134.146743 85.193427 
L 135.723753 88.675199 
L 137.300763 91.062692 
L 138.877773 90.196092 
L 140.454783 90.809871 
L 142.031793 91.866453 
L 143.608802 94.369182 
L 145.185812 92.478239 
L 146.762822 92.49778 
L 148.339832 91.850263 
L 149.916842 86.715724 
L 151.493852 89.982164 
L 153.070862 90.89914 
L 154.647872 92.219289 
L 156.224882 90.540176 
L 157.801892 91.361826 
L 159.378902 90.930311 
L 160.955912 89.469893 
L 162.532921 89.949091 
L 164.109931 91.176317 
L 165.686941 91.310246 
L 167.263951 90.479074 
L 168.840961 90.079964 
L 170.417971 90.499081 
L 171.994981 88.055319 
L 173.571991 94.517117 
L 175.149001 97.593666 
L 176.726011 96.339119 
L 179.880031 96.339119 
L 181.45704 86.866934 
L 183.03405 86.641987 
L 186.18807 86.566881 
L 187.76508 85.860932 
L 189.34209 86.176802 
L 190.9191 86.176802 
L 192.49611 94.319324 
L 194.07312 97.933892 
L 195.65013 97.933892 
L 197.22714 97.522293 
L 198.80415 105.054406 
L 200.38116 97.218321 
L 201.958169 93.269805 
L 203.535179 93.043976 
L 206.689199 92.01777 
L 208.266209 91.727484 
L 209.843219 94.511786 
L 211.420229 101.665318 
L 212.997239 101.25088 
L 214.574249 103.562256 
L 216.151259 104.633766 
L 217.728269 101.008962 
L 219.305279 103.16228 
L 220.882288 97.939159 
L 222.459298 95.529306 
L 224.036308 95.326219 
L 225.613318 93.830982 
L 227.190328 93.830982 
L 228.767338 94.480596 
L 230.344348 94.480596 
L 231.921358 88.842147 
L 233.498368 89.62006 
L 235.075378 88.478873 
L 236.652388 97.072957 
L 238.229398 98.792794 
L 239.806407 91.998885 
L 241.383417 92.05129 
L 242.960427 87.87887 
L 244.537437 87.700586 
L 246.114447 85.789656 
L 247.691457 83.079124 
L 249.268467 83.079124 
L 250.845477 83.259751 
L 252.422487 85.430628 
L 253.999497 84.729237 
L 255.576507 84.729237 
L 257.153517 83.464461 
L 258.730526 83.721336 
L 260.307536 80.189091 
L 261.884546 80.189091 
L 263.461556 146.494383 
L 265.038566 157.562625 
L 271.346606 157.562625 
L 272.923616 91.257333 
L 277.654645 91.257333 
L 279.231655 92.83851 
L 285.539695 92.83851 
L 287.116705 95.363774 
L 288.693715 97.643787 
L 290.270725 100.552903 
L 291.847735 134.465145 
L 298.155774 134.465145 
L 299.732784 101.512872 
L 301.309794 86.755216 
L 302.886804 99.289395 
L 304.463814 108.578172 
L 306.040824 113.783177 
L 307.617834 113.783177 
L 309.194844 110.247808 
L 310.771854 110.247808 
L 312.348864 112.056996 
L 315.502883 112.056996 
L 317.079893 110.247808 
L 318.656903 113.716821 
L 320.233913 110.247808 
L 321.810923 94.757294 
L 329.695973 94.757294 
L 331.272983 99.663048 
L 332.849993 351.970909 
L 334.427002 347.065155 
L 336.004012 347.065155 
L 337.581022 338.060712 
L 339.158032 338.060712 
L 340.735042 319.666307 
L 359.659161 319.666307 
L 361.236171 80.189091 
L 418.008528 80.189091 
L 419.585538 81.625332 
L 430.624607 81.71052 
L 432.201617 80.274279 
L 443.240687 80.274279 
L 444.817697 118.721915 
L 451.125736 118.721915 
L 452.702746 121.719947 
L 454.279756 121.719947 
L 455.856766 118.636727 
L 462.164806 118.636727 
L 463.741816 119.754527 
L 466.895836 119.754527 
L 468.472845 90.172748 
L 474.780885 90.095495 
L 476.357895 88.977695 
L 477.934905 88.977695 
L 479.511915 82.811196 
L 481.088925 80.189091 
L 509.475103 80.189091 
L 509.475103 80.189091 
" style="fill:none;stroke:#2ca02c;stroke-linecap:square;stroke-width:1.5;"/>
   </g>
   <g id="line2d_15">
    <path clip-path="url(#p83af573a1b)" d="M 115.222624 80.189091 
L 126.261693 80.189091 
L 127.838703 81.212709 
L 129.415713 81.456132 
L 130.992723 82.537767 
L 132.569733 82.274061 
L 135.723753 82.274061 
L 137.300763 81.828352 
L 145.185812 81.863988 
L 146.762822 82.267675 
L 148.339832 82.267675 
L 149.916842 83.845036 
L 151.493852 83.845036 
L 153.070862 83.415978 
L 154.647872 83.515796 
L 156.224882 83.238676 
L 162.532921 83.311285 
L 164.109931 83.467395 
L 167.263951 83.551454 
L 170.417971 83.831651 
L 176.726011 84.162792 
L 179.880031 84.162792 
L 181.45704 84.286971 
L 186.18807 84.274263 
L 187.76508 84.410436 
L 197.22714 84.410436 
L 198.80415 82.053979 
L 201.958169 82.120582 
L 209.843219 82.192119 
L 216.151259 82.442497 
L 219.305279 82.442497 
L 220.882288 82.647352 
L 227.190328 82.647352 
L 228.767338 82.764412 
L 233.498368 82.764412 
L 235.075378 82.893178 
L 239.806407 82.893178 
L 241.383417 83.035499 
L 242.960427 80.189091 
L 509.475103 80.189091 
L 509.475103 80.189091 
" style="fill:none;stroke:#d62728;stroke-linecap:square;stroke-width:1.5;"/>
   </g>
   <g id="line2d_16">
    <path clip-path="url(#p83af573a1b)" d="M 115.222624 80.189091 
L 119.953654 80.189091 
L 121.530664 82.589105 
L 123.107674 80.417404 
L 126.261693 80.417404 
L 127.838703 80.763949 
L 129.415713 80.763949 
L 130.992723 81.662264 
L 134.146743 81.692328 
L 135.723753 83.004926 
L 137.300763 82.881863 
L 138.877773 83.264099 
L 140.454783 84.087498 
L 142.031793 84.659008 
L 143.608802 84.659008 
L 145.185812 84.852979 
L 148.339832 84.852979 
L 149.916842 85.361637 
L 151.493852 85.361637 
L 153.070862 85.098617 
L 154.647872 85.098617 
L 156.224882 83.831217 
L 157.801892 83.358932 
L 159.378902 83.504251 
L 162.532921 83.434405 
L 164.109931 83.780645 
L 167.263951 83.872736 
L 168.840961 83.969674 
L 170.417971 84.179707 
L 171.994981 82.484946 
L 175.149001 82.489156 
L 176.726011 82.720905 
L 179.880031 82.720905 
L 181.45704 82.258548 
L 183.03405 82.325304 
L 184.61106 83.63016 
L 186.18807 82.119181 
L 187.76508 81.584679 
L 194.07312 81.584679 
L 195.65013 83.6828 
L 197.22714 83.6828 
L 200.38116 83.93235 
L 203.535179 83.93235 
L 205.112189 84.070989 
L 206.689199 81.739744 
L 211.420229 81.799385 
L 212.997239 80.766272 
L 219.305279 80.814371 
L 220.882288 80.189091 
L 227.190328 80.189091 
L 228.767338 80.6578 
L 241.383417 80.707137 
L 242.960427 81.223415 
L 249.268467 81.284257 
L 250.845477 81.352705 
L 252.422487 80.791061 
L 255.576507 80.791061 
L 257.153517 82.834546 
L 258.730526 83.023507 
L 260.307536 83.49591 
L 261.884546 85.149319 
L 268.192586 85.042248 
L 269.769596 83.94538 
L 277.654645 83.94538 
L 279.231655 84.481992 
L 280.808665 84.481992 
L 282.385675 81.12627 
L 288.693715 81.12627 
L 290.270725 81.282466 
L 304.463814 81.282466 
L 306.040824 81.501141 
L 310.771854 81.501141 
L 312.348864 80.189091 
L 328.118963 80.189091 
L 329.695973 83.638663 
L 337.581022 83.638663 
L 339.158032 82.192578 
L 361.236171 82.192578 
L 362.813181 82.693449 
L 365.967201 82.693449 
L 367.544211 83.528235 
L 381.7373 83.528235 
L 383.31431 80.189091 
L 482.665935 80.189091 
L 484.242945 84.894598 
L 485.819955 84.894598 
L 487.396964 80.189091 
L 509.475103 80.189091 
L 509.475103 80.189091 
" style="fill:none;stroke:#9467bd;stroke-linecap:square;stroke-width:1.5;"/>
   </g>
   <g id="line2d_17">
    <path clip-path="url(#p83af573a1b)" d="M 115.222624 80.189091 
L 123.107674 80.189091 
L 124.684683 80.923465 
L 126.261693 80.965748 
L 127.838703 82.13401 
L 129.415713 82.089587 
L 130.992723 82.297931 
L 132.569733 82.934922 
L 134.146743 84.447062 
L 135.723753 84.037554 
L 137.300763 85.2804 
L 138.877773 85.220809 
L 140.454783 83.834243 
L 142.031793 82.856267 
L 143.608802 84.404915 
L 146.762822 88.720142 
L 148.339832 90.446198 
L 149.916842 88.276824 
L 151.493852 89.361916 
L 153.070862 87.707024 
L 154.647872 90.797184 
L 156.224882 89.958259 
L 159.378902 99.671942 
L 160.955912 101.839202 
L 162.532921 93.850787 
L 164.109931 94.713234 
L 165.686941 91.830219 
L 167.263951 90.229669 
L 168.840961 87.048724 
L 170.417971 85.375625 
L 171.994981 85.523812 
L 173.571991 83.226068 
L 175.149001 83.537408 
L 176.726011 83.537408 
L 178.303021 81.638567 
L 179.880031 83.234614 
L 181.45704 82.108999 
L 183.03405 82.244291 
L 184.61106 84.74397 
L 186.18807 84.328146 
L 187.76508 84.466114 
L 189.34209 89.365426 
L 190.9191 88.461065 
L 192.49611 83.561754 
L 194.07312 84.256194 
L 195.65013 86.641901 
L 197.22714 86.641901 
L 198.80415 86.864412 
L 201.958169 86.908257 
L 203.535179 86.908257 
L 205.112189 86.612163 
L 206.689199 85.883366 
L 208.266209 87.889293 
L 209.843219 86.127413 
L 211.420229 88.311948 
L 212.997239 95.49952 
L 214.574249 89.850594 
L 216.151259 118.628617 
L 217.728269 117.324429 
L 219.305279 122.051183 
L 220.882288 121.049547 
L 222.459298 118.05846 
L 224.036308 137.168117 
L 225.613318 118.886539 
L 227.190328 117.549084 
L 228.767338 119.667877 
L 230.344348 119.667877 
L 231.921358 118.045655 
L 233.498368 117.242858 
L 235.075378 119.095547 
L 238.229398 119.095547 
L 239.806407 128.556534 
L 241.383417 131.731382 
L 242.960427 90.859032 
L 244.537437 90.859032 
L 246.114447 88.124457 
L 247.691457 92.139882 
L 249.268467 92.352404 
L 250.845477 87.286716 
L 252.422487 87.286716 
L 253.999497 90.174314 
L 255.576507 119.787075 
L 257.153517 122.426941 
L 258.730526 126.676296 
L 260.307536 140.146839 
L 261.884546 152.074032 
L 263.461556 149.026348 
L 265.038566 149.026348 
L 266.615576 82.866901 
L 268.192586 82.866901 
L 269.769596 83.612853 
L 271.346606 86.159319 
L 272.923616 86.159319 
L 274.500626 133.180959 
L 276.077636 133.180959 
L 277.654645 137.566435 
L 279.231655 83.753263 
L 280.808665 83.753263 
L 282.385675 133.521474 
L 283.962685 133.521474 
L 285.539695 128.155216 
L 287.116705 90.819753 
L 288.693715 90.819753 
L 290.270725 92.591529 
L 291.847735 92.591529 
L 293.424745 81.435547 
L 295.001755 85.023039 
L 296.578764 81.435547 
L 299.732784 81.435547 
L 301.309794 95.130779 
L 302.886804 83.490697 
L 304.463814 83.490697 
L 306.040824 84.151018 
L 309.194844 84.151018 
L 310.771854 84.628584 
L 313.925874 84.628584 
L 315.502883 84.151018 
L 318.656903 84.151018 
L 320.233913 88.380939 
L 324.964943 88.380939 
L 326.541953 91.887705 
L 334.427002 91.887705 
L 336.004012 83.695857 
L 340.735042 83.695857 
L 342.312052 80.189091 
L 347.043082 80.189091 
L 348.620092 86.817205 
L 353.351121 86.817205 
L 354.928131 91.573419 
L 356.505141 80.5008 
L 359.659161 80.470249 
L 361.236171 89.799631 
L 362.813181 92.202266 
L 364.390191 92.835602 
L 365.967201 92.835602 
L 367.544211 96.206658 
L 372.27524 96.206658 
L 373.85225 80.657688 
L 399.084409 80.657688 
L 400.661419 81.01437 
L 405.392449 81.01437 
L 406.969459 80.545773 
L 408.546469 167.573271 
L 413.277498 167.573271 
L 414.854508 80.189091 
L 416.431518 176.984061 
L 427.470588 176.984061 
L 429.047598 225.491736 
L 430.624607 225.491736 
L 432.201617 134.870575 
L 440.086667 134.941046 
L 441.663677 134.088918 
L 443.240687 111.092298 
L 444.817697 112.178789 
L 446.394707 111.092298 
L 449.548726 111.092298 
L 451.125736 80.189091 
L 476.357895 80.189091 
L 477.934905 127.456129 
L 479.511915 127.456129 
L 481.088925 98.162783 
L 482.665935 80.189091 
L 484.242945 80.189091 
L 485.819955 95.018349 
L 487.396964 80.189091 
L 509.475103 80.189091 
L 509.475103 80.189091 
" style="fill:none;stroke:#8c564b;stroke-linecap:square;stroke-width:1.5;"/>
   </g>
   <g id="line2d_18">
    <path clip-path="url(#p83af573a1b)" d="M 115.222624 80.189091 
L 126.261693 80.189091 
L 127.838703 82.377078 
L 130.992723 82.487331 
L 132.569733 85.465921 
L 134.146743 85.626075 
L 135.723753 85.626075 
L 137.300763 84.432518 
L 138.877773 85.017546 
L 140.454783 84.814351 
L 142.031793 92.022787 
L 143.608802 90.684746 
L 145.185812 89.923426 
L 146.762822 92.442315 
L 148.339832 99.442403 
L 149.916842 99.442403 
L 151.493852 96.803996 
L 153.070862 99.630085 
L 154.647872 100.572881 
L 156.224882 100.678279 
L 157.801892 99.685102 
L 159.378902 99.685102 
L 160.955912 100.362948 
L 162.532921 101.311423 
L 164.109931 101.332098 
L 165.686941 96.761816 
L 167.263951 97.186758 
L 168.840961 95.035551 
L 170.417971 94.119753 
L 171.994981 94.74433 
L 173.571991 94.74433 
L 176.726011 96.455193 
L 178.303021 96.48285 
L 179.880031 97.965383 
L 181.45704 99.983629 
L 183.03405 90.795395 
L 184.61106 90.795395 
L 186.18807 90.105762 
L 187.76508 87.595941 
L 189.34209 88.761794 
L 190.9191 92.822434 
L 192.49611 96.24506 
L 194.07312 96.627611 
L 195.65013 92.932092 
L 197.22714 85.972047 
L 198.80415 85.614781 
L 200.38116 85.58899 
L 201.958169 84.956189 
L 203.535179 84.956189 
L 205.112189 85.132748 
L 206.689199 83.598098 
L 209.843219 83.558328 
L 211.420229 90.065194 
L 212.997239 90.065194 
L 214.574249 84.372813 
L 216.151259 84.714581 
L 217.728269 88.279482 
L 219.305279 87.544383 
L 220.882288 94.104 
L 225.613318 94.104 
L 227.190328 95.429597 
L 228.767338 95.008292 
L 230.344348 88.56133 
L 231.921358 83.798111 
L 233.498368 83.798111 
L 235.075378 83.978562 
L 236.652388 88.420101 
L 238.229398 89.71663 
L 239.806407 89.71663 
L 241.383417 90.21808 
L 242.960427 84.894406 
L 244.537437 83.898654 
L 246.114447 80.387895 
L 257.153517 80.41978 
L 258.730526 86.415578 
L 260.307536 87.453325 
L 261.884546 80.621634 
L 266.615576 80.621634 
L 268.192586 84.317107 
L 269.769596 96.400406 
L 271.346606 132.044799 
L 276.077636 132.044799 
L 277.654645 96.400406 
L 279.231655 98.716308 
L 288.693715 98.716308 
L 290.270725 101.804178 
L 291.847735 96.87688 
L 296.578764 96.87688 
L 298.155774 80.493443 
L 299.732784 83.865217 
L 301.309794 155.546246 
L 302.886804 155.546246 
L 304.463814 80.493443 
L 306.040824 80.189091 
L 324.964943 80.189091 
L 326.541953 89.295607 
L 328.118963 80.189091 
L 332.849993 80.261385 
L 334.427002 158.950905 
L 361.236171 158.950905 
L 362.813181 183.280158 
L 364.390191 178.550991 
L 365.967201 83.961619 
L 367.544211 80.189091 
L 395.930389 80.189091 
L 397.507399 81.492042 
L 405.392449 81.492042 
L 406.969459 80.189091 
L 449.548726 80.189091 
L 451.125736 80.78735 
L 452.702746 83.699396 
L 454.279756 83.865862 
L 468.472845 83.865862 
L 470.049855 80.189091 
L 509.475103 80.189091 
L 509.475103 80.189091 
" style="fill:none;stroke:#e377c2;stroke-linecap:square;stroke-width:1.5;"/>
   </g>
   <g id="line2d_19">
    <path clip-path="url(#p83af573a1b)" d="M 115.222624 80.189091 
L 119.953654 80.189091 
L 121.530664 81.257038 
L 123.107674 80.571978 
L 124.684683 82.281303 
L 126.261693 82.677819 
L 129.415713 82.74584 
L 130.992723 84.176555 
L 132.569733 83.071108 
L 134.146743 86.244015 
L 135.723753 86.450215 
L 137.300763 92.236774 
L 138.877773 87.594091 
L 140.454783 89.070695 
L 142.031793 88.786486 
L 143.608802 87.820684 
L 145.185812 90.604581 
L 146.762822 87.459985 
L 149.916842 87.471756 
L 151.493852 89.38651 
L 153.070862 89.50801 
L 154.647872 90.237294 
L 156.224882 94.08493 
L 157.801892 91.900676 
L 159.378902 92.221581 
L 160.955912 93.62493 
L 162.532921 92.741468 
L 164.109931 92.306843 
L 165.686941 92.35764 
L 167.263951 91.142158 
L 168.840961 90.327778 
L 170.417971 82.034535 
L 175.149001 82.202303 
L 176.726011 81.212784 
L 178.303021 80.908336 
L 179.880031 84.787959 
L 181.45704 85.553957 
L 183.03405 85.872203 
L 184.61106 85.872203 
L 186.18807 87.126658 
L 187.76508 86.56403 
L 189.34209 87.120621 
L 190.9191 87.120621 
L 192.49611 83.814036 
L 194.07312 86.07464 
L 195.65013 83.159951 
L 200.38116 83.191323 
L 201.958169 82.56508 
L 203.535179 82.301047 
L 205.112189 86.235973 
L 206.689199 87.583412 
L 208.266209 87.583412 
L 209.843219 87.927082 
L 211.420229 87.867809 
L 212.997239 88.688247 
L 214.574249 86.413119 
L 217.728269 86.830099 
L 222.459298 88.640833 
L 224.036308 88.640833 
L 225.613318 84.836354 
L 227.190328 90.817157 
L 228.767338 91.323256 
L 230.344348 90.759965 
L 231.921358 90.759965 
L 233.498368 87.224367 
L 236.652388 87.82103 
L 238.229398 120.332769 
L 239.806407 120.168886 
L 241.383417 128.421723 
L 242.960427 81.177062 
L 244.537437 81.634192 
L 246.114447 81.177062 
L 247.691457 81.235178 
L 249.268467 81.868087 
L 250.845477 81.300558 
L 252.422487 116.680756 
L 253.999497 119.668229 
L 255.576507 130.314556 
L 258.730526 137.520049 
L 260.307536 148.485354 
L 261.884546 115.270278 
L 263.461556 112.707888 
L 265.038566 122.071186 
L 266.615576 122.071186 
L 268.192586 120.963027 
L 269.769596 118.740092 
L 277.654645 118.740092 
L 279.231655 124.247378 
L 280.808665 82.174301 
L 282.385675 82.174301 
L 283.962685 88.056063 
L 287.116705 88.056063 
L 288.693715 85.081283 
L 290.270725 111.22503 
L 295.001755 111.22503 
L 296.578764 88.7363 
L 298.155774 88.7363 
L 299.732784 90.438015 
L 301.309794 87.046536 
L 302.886804 87.046536 
L 304.463814 88.20947 
L 306.040824 87.771487 
L 307.617834 87.771487 
L 309.194844 86.375966 
L 310.771854 86.375966 
L 312.348864 82.968384 
L 318.656903 82.968384 
L 320.233913 80.189091 
L 323.387933 80.189091 
L 324.964943 88.446936 
L 328.118963 88.446936 
L 329.695973 90.979079 
L 340.735042 90.979079 
L 342.312052 319.547527 
L 343.889062 330.480265 
L 345.466072 84.069645 
L 347.043082 90.203598 
L 350.197102 90.203598 
L 351.774112 83.232615 
L 353.351121 105.623931 
L 356.505141 105.623931 
L 358.082151 106.306578 
L 359.659161 89.144708 
L 361.236171 89.144708 
L 362.813181 96.401832 
L 365.967201 96.401832 
L 367.544211 101.806079 
L 369.121221 92.493427 
L 370.698231 80.189091 
L 389.62235 80.189091 
L 391.19936 80.700781 
L 402.238429 80.700781 
L 403.815439 96.609226 
L 405.392449 80.700781 
L 416.431518 80.700781 
L 418.008528 80.189091 
L 432.201617 80.189091 
L 433.778627 124.134808 
L 435.355637 124.134808 
L 436.932647 80.189091 
L 438.509657 80.993159 
L 444.817697 80.993159 
L 446.394707 114.02773 
L 447.971717 114.02773 
L 449.548726 117.51174 
L 455.856766 117.51174 
L 457.433776 80.189091 
L 465.318826 80.189091 
L 466.895836 81.273927 
L 468.472845 80.189091 
L 509.475103 80.189091 
L 509.475103 80.189091 
" style="fill:none;stroke:#7f7f7f;stroke-linecap:square;stroke-width:1.5;"/>
   </g>
   <g id="patch_3">
    <path d="M 95.51 365.56 
L 95.51 66.6 
" style="fill:none;stroke:#000000;stroke-linecap:square;stroke-linejoin:miter;stroke-width:0.8;"/>
   </g>
   <g id="patch_4">
    <path d="M 529.187727 365.56 
L 529.187727 66.6 
" style="fill:none;stroke:#000000;stroke-linecap:square;stroke-linejoin:miter;stroke-width:0.8;"/>
   </g>
   <g id="patch_5">
    <path d="M 95.51 365.56 
L 529.187727 365.56 
" style="fill:none;stroke:#000000;stroke-linecap:square;stroke-linejoin:miter;stroke-width:0.8;"/>
   </g>
   <g id="patch_6">
    <path d="M 95.51 66.6 
L 529.187727 66.6 
" style="fill:none;stroke:#000000;stroke-linecap:square;stroke-linejoin:miter;stroke-width:0.8;"/>
   </g>
   <g id="legend_1">
    <g id="patch_7">
     <path d="M 106.01 59.1 
L 518.687727 59.1 
Q 521.687727 59.1 521.687727 56.1 
L 521.687727 13.565625 
Q 521.687727 10.565625 518.687727 10.565625 
L 106.01 10.565625 
Q 103.01 10.565625 103.01 13.565625 
L 103.01 56.1 
Q 103.01 59.1 106.01 59.1 
z
" style="fill:#ffffff;opacity:0.8;stroke:#cccccc;stroke-linejoin:miter;"/>
    </g>
    <g id="line2d_20">
     <path d="M 109.01 22.713281 
L 139.01 22.713281 
" style="fill:none;stroke:#1f77b4;stroke-linecap:square;stroke-width:1.5;"/>
    </g>
    <g id="line2d_21"/>
    <g id="text_14">
     <!-- Stra 1 -->
     <defs>
      <path d="M 53.515625 70.515625 
L 53.515625 60.890625 
Q 47.90625 63.578125 42.921875 64.890625 
Q 37.9375 66.21875 33.296875 66.21875 
Q 25.25 66.21875 20.875 63.09375 
Q 16.5 59.96875 16.5 54.203125 
Q 16.5 49.359375 19.40625 46.890625 
Q 22.3125 44.4375 30.421875 42.921875 
L 36.375 41.703125 
Q 47.40625 39.59375 52.65625 34.296875 
Q 57.90625 29 57.90625 20.125 
Q 57.90625 9.515625 50.796875 4.046875 
Q 43.703125 -1.421875 29.984375 -1.421875 
Q 24.8125 -1.421875 18.96875 -0.25 
Q 13.140625 0.921875 6.890625 3.21875 
L 6.890625 13.375 
Q 12.890625 10.015625 18.65625 8.296875 
Q 24.421875 6.59375 29.984375 6.59375 
Q 38.421875 6.59375 43.015625 9.90625 
Q 47.609375 13.234375 47.609375 19.390625 
Q 47.609375 24.75 44.3125 27.78125 
Q 41.015625 30.8125 33.5 32.328125 
L 27.484375 33.5 
Q 16.453125 35.6875 11.515625 40.375 
Q 6.59375 45.0625 6.59375 53.421875 
Q 6.59375 63.09375 13.40625 68.65625 
Q 20.21875 74.21875 32.171875 74.21875 
Q 37.3125 74.21875 42.625 73.28125 
Q 47.953125 72.359375 53.515625 70.515625 
z
" id="DejaVuSans-83"/>
      <path d="M 41.109375 46.296875 
Q 39.59375 47.171875 37.8125 47.578125 
Q 36.03125 48 33.890625 48 
Q 26.265625 48 22.1875 43.046875 
Q 18.109375 38.09375 18.109375 28.8125 
L 18.109375 0 
L 9.078125 0 
L 9.078125 54.6875 
L 18.109375 54.6875 
L 18.109375 46.1875 
Q 20.953125 51.171875 25.484375 53.578125 
Q 30.03125 56 36.53125 56 
Q 37.453125 56 38.578125 55.875 
Q 39.703125 55.765625 41.0625 55.515625 
z
" id="DejaVuSans-114"/>
     </defs>
     <g transform="translate(151.01 27.963281)scale(0.15 -0.15)">
      <use xlink:href="#DejaVuSans-83"/>
      <use x="63.476562" xlink:href="#DejaVuSans-116"/>
      <use x="102.685547" xlink:href="#DejaVuSans-114"/>
      <use x="143.798828" xlink:href="#DejaVuSans-97"/>
      <use x="205.078125" xlink:href="#DejaVuSans-32"/>
      <use x="236.865234" xlink:href="#DejaVuSans-49"/>
     </g>
    </g>
    <g id="line2d_22">
     <path d="M 109.01 44.730469 
L 139.01 44.730469 
" style="fill:none;stroke:#ff7f0e;stroke-linecap:square;stroke-width:1.5;"/>
    </g>
    <g id="line2d_23"/>
    <g id="text_15">
     <!-- Stra 2 -->
     <g transform="translate(151.01 49.980469)scale(0.15 -0.15)">
      <use xlink:href="#DejaVuSans-83"/>
      <use x="63.476562" xlink:href="#DejaVuSans-116"/>
      <use x="102.685547" xlink:href="#DejaVuSans-114"/>
      <use x="143.798828" xlink:href="#DejaVuSans-97"/>
      <use x="205.078125" xlink:href="#DejaVuSans-32"/>
      <use x="236.865234" xlink:href="#DejaVuSans-50"/>
     </g>
    </g>
    <g id="line2d_24">
     <path d="M 215.545024 22.713281 
L 245.545024 22.713281 
" style="fill:none;stroke:#2ca02c;stroke-linecap:square;stroke-width:1.5;"/>
    </g>
    <g id="line2d_25"/>
    <g id="text_16">
     <!-- Stra 3 -->
     <defs>
      <path d="M 40.578125 39.3125 
Q 47.65625 37.796875 51.625 33 
Q 55.609375 28.21875 55.609375 21.1875 
Q 55.609375 10.40625 48.1875 4.484375 
Q 40.765625 -1.421875 27.09375 -1.421875 
Q 22.515625 -1.421875 17.65625 -0.515625 
Q 12.796875 0.390625 7.625 2.203125 
L 7.625 11.71875 
Q 11.71875 9.328125 16.59375 8.109375 
Q 21.484375 6.890625 26.8125 6.890625 
Q 36.078125 6.890625 40.9375 10.546875 
Q 45.796875 14.203125 45.796875 21.1875 
Q 45.796875 27.640625 41.28125 31.265625 
Q 36.765625 34.90625 28.71875 34.90625 
L 20.21875 34.90625 
L 20.21875 43.015625 
L 29.109375 43.015625 
Q 36.375 43.015625 40.234375 45.921875 
Q 44.09375 48.828125 44.09375 54.296875 
Q 44.09375 59.90625 40.109375 62.90625 
Q 36.140625 65.921875 28.71875 65.921875 
Q 24.65625 65.921875 20.015625 65.03125 
Q 15.375 64.15625 9.8125 62.3125 
L 9.8125 71.09375 
Q 15.4375 72.65625 20.34375 73.4375 
Q 25.25 74.21875 29.59375 74.21875 
Q 40.828125 74.21875 47.359375 69.109375 
Q 53.90625 64.015625 53.90625 55.328125 
Q 53.90625 49.265625 50.4375 45.09375 
Q 46.96875 40.921875 40.578125 39.3125 
z
" id="DejaVuSans-51"/>
     </defs>
     <g transform="translate(257.545024 27.963281)scale(0.15 -0.15)">
      <use xlink:href="#DejaVuSans-83"/>
      <use x="63.476562" xlink:href="#DejaVuSans-116"/>
      <use x="102.685547" xlink:href="#DejaVuSans-114"/>
      <use x="143.798828" xlink:href="#DejaVuSans-97"/>
      <use x="205.078125" xlink:href="#DejaVuSans-32"/>
      <use x="236.865234" xlink:href="#DejaVuSans-51"/>
     </g>
    </g>
    <g id="line2d_26">
     <path d="M 215.545024 44.730469 
L 245.545024 44.730469 
" style="fill:none;stroke:#d62728;stroke-linecap:square;stroke-width:1.5;"/>
    </g>
    <g id="line2d_27"/>
    <g id="text_17">
     <!-- Stra 4 -->
     <defs>
      <path d="M 37.796875 64.3125 
L 12.890625 25.390625 
L 37.796875 25.390625 
z
M 35.203125 72.90625 
L 47.609375 72.90625 
L 47.609375 25.390625 
L 58.015625 25.390625 
L 58.015625 17.1875 
L 47.609375 17.1875 
L 47.609375 0 
L 37.796875 0 
L 37.796875 17.1875 
L 4.890625 17.1875 
L 4.890625 26.703125 
z
" id="DejaVuSans-52"/>
     </defs>
     <g transform="translate(257.545024 49.980469)scale(0.15 -0.15)">
      <use xlink:href="#DejaVuSans-83"/>
      <use x="63.476562" xlink:href="#DejaVuSans-116"/>
      <use x="102.685547" xlink:href="#DejaVuSans-114"/>
      <use x="143.798828" xlink:href="#DejaVuSans-97"/>
      <use x="205.078125" xlink:href="#DejaVuSans-32"/>
      <use x="236.865234" xlink:href="#DejaVuSans-52"/>
     </g>
    </g>
    <g id="line2d_28">
     <path d="M 322.080047 22.713281 
L 352.080047 22.713281 
" style="fill:none;stroke:#9467bd;stroke-linecap:square;stroke-width:1.5;"/>
    </g>
    <g id="line2d_29"/>
    <g id="text_18">
     <!-- Stra 5 -->
     <g transform="translate(364.080047 27.963281)scale(0.15 -0.15)">
      <use xlink:href="#DejaVuSans-83"/>
      <use x="63.476562" xlink:href="#DejaVuSans-116"/>
      <use x="102.685547" xlink:href="#DejaVuSans-114"/>
      <use x="143.798828" xlink:href="#DejaVuSans-97"/>
      <use x="205.078125" xlink:href="#DejaVuSans-32"/>
      <use x="236.865234" xlink:href="#DejaVuSans-53"/>
     </g>
    </g>
    <g id="line2d_30">
     <path d="M 322.080047 44.730469 
L 352.080047 44.730469 
" style="fill:none;stroke:#8c564b;stroke-linecap:square;stroke-width:1.5;"/>
    </g>
    <g id="line2d_31"/>
    <g id="text_19">
     <!-- Stra 6 -->
     <g transform="translate(364.080047 49.980469)scale(0.15 -0.15)">
      <use xlink:href="#DejaVuSans-83"/>
      <use x="63.476562" xlink:href="#DejaVuSans-116"/>
      <use x="102.685547" xlink:href="#DejaVuSans-114"/>
      <use x="143.798828" xlink:href="#DejaVuSans-97"/>
      <use x="205.078125" xlink:href="#DejaVuSans-32"/>
      <use x="236.865234" xlink:href="#DejaVuSans-54"/>
     </g>
    </g>
    <g id="line2d_32">
     <path d="M 428.615071 22.713281 
L 458.615071 22.713281 
" style="fill:none;stroke:#e377c2;stroke-linecap:square;stroke-width:1.5;"/>
    </g>
    <g id="line2d_33"/>
    <g id="text_20">
     <!-- Stra 7 -->
     <g transform="translate(470.615071 27.963281)scale(0.15 -0.15)">
      <use xlink:href="#DejaVuSans-83"/>
      <use x="63.476562" xlink:href="#DejaVuSans-116"/>
      <use x="102.685547" xlink:href="#DejaVuSans-114"/>
      <use x="143.798828" xlink:href="#DejaVuSans-97"/>
      <use x="205.078125" xlink:href="#DejaVuSans-32"/>
      <use x="236.865234" xlink:href="#DejaVuSans-55"/>
     </g>
    </g>
    <g id="line2d_34">
     <path d="M 428.615071 44.730469 
L 458.615071 44.730469 
" style="fill:none;stroke:#7f7f7f;stroke-linecap:square;stroke-width:1.5;"/>
    </g>
    <g id="line2d_35"/>
    <g id="text_21">
     <!-- Stra 8 -->
     <g transform="translate(470.615071 49.980469)scale(0.15 -0.15)">
      <use xlink:href="#DejaVuSans-83"/>
      <use x="63.476562" xlink:href="#DejaVuSans-116"/>
      <use x="102.685547" xlink:href="#DejaVuSans-114"/>
      <use x="143.798828" xlink:href="#DejaVuSans-97"/>
      <use x="205.078125" xlink:href="#DejaVuSans-32"/>
      <use x="236.865234" xlink:href="#DejaVuSans-56"/>
     </g>
    </g>
   </g>
  </g>
 </g>
 <defs>
  <clipPath id="p83af573a1b">
   <rect height="298.96" width="433.677727" x="95.51" y="66.6"/>
  </clipPath>
 </defs>
</svg>
