<?xml version="1.0" encoding="utf-8" standalone="no"?>
<!DOCTYPE svg PUBLIC "-//W3C//DTD SVG 1.1//EN"
  "http://www.w3.org/Graphics/SVG/1.1/DTD/svg11.dtd">
<!-- Created with matplotlib (https://matplotlib.org/) -->
<svg height="432pt" version="1.1" viewBox="0 0 540 432" width="540pt" xmlns="http://www.w3.org/2000/svg" xmlns:xlink="http://www.w3.org/1999/xlink">
 <defs>
  <style type="text/css">
*{stroke-linecap:butt;stroke-linejoin:round;}
  </style>
 </defs>
 <g id="figure_1">
  <g id="patch_1">
   <path d="M 0 432 
L 540 432 
L 540 0 
L 0 0 
z
" style="fill:#ffffff;"/>
  </g>
  <g id="axes_1">
   <g id="patch_2">
    <path d="M 51.05 365.56 
L 529.187727 365.56 
L 529.187727 66.6 
L 51.05 66.6 
z
" style="fill:#ffffff;"/>
   </g>
   <g id="matplotlib.axis_1">
    <g id="xtick_1">
     <g id="line2d_1">
      <defs>
       <path d="M 0 0 
L 0 3.5 
" id="m368ed481f5" style="stroke:#000000;stroke-width:0.8;"/>
      </defs>
      <g>
       <use style="stroke:#000000;stroke-width:0.8;" x="72.783533" xlink:href="#m368ed481f5" y="365.56"/>
      </g>
     </g>
     <g id="text_1">
      <!-- 0 -->
      <defs>
       <path d="M 31.78125 66.40625 
Q 24.171875 66.40625 20.328125 58.90625 
Q 16.5 51.421875 16.5 36.375 
Q 16.5 21.390625 20.328125 13.890625 
Q 24.171875 6.390625 31.78125 6.390625 
Q 39.453125 6.390625 43.28125 13.890625 
Q 47.125 21.390625 47.125 36.375 
Q 47.125 51.421875 43.28125 58.90625 
Q 39.453125 66.40625 31.78125 66.40625 
z
M 31.78125 74.21875 
Q 44.046875 74.21875 50.515625 64.515625 
Q 56.984375 54.828125 56.984375 36.375 
Q 56.984375 17.96875 50.515625 8.265625 
Q 44.046875 -1.421875 31.78125 -1.421875 
Q 19.53125 -1.421875 13.0625 8.265625 
Q 6.59375 17.96875 6.59375 36.375 
Q 6.59375 54.828125 13.0625 64.515625 
Q 19.53125 74.21875 31.78125 74.21875 
z
" id="DejaVuSans-48"/>
      </defs>
      <g transform="translate(66.421033 387.756875)scale(0.2 -0.2)">
       <use xlink:href="#DejaVuSans-48"/>
      </g>
     </g>
    </g>
    <g id="xtick_2">
     <g id="line2d_2">
      <g>
       <use style="stroke:#000000;stroke-width:0.8;" x="159.717665" xlink:href="#m368ed481f5" y="365.56"/>
      </g>
     </g>
     <g id="text_2">
      <!-- 50 -->
      <defs>
       <path d="M 10.796875 72.90625 
L 49.515625 72.90625 
L 49.515625 64.59375 
L 19.828125 64.59375 
L 19.828125 46.734375 
Q 21.96875 47.46875 24.109375 47.828125 
Q 26.265625 48.1875 28.421875 48.1875 
Q 40.625 48.1875 47.75 41.5 
Q 54.890625 34.8125 54.890625 23.390625 
Q 54.890625 11.625 47.5625 5.09375 
Q 40.234375 -1.421875 26.90625 -1.421875 
Q 22.3125 -1.421875 17.546875 -0.640625 
Q 12.796875 0.140625 7.71875 1.703125 
L 7.71875 11.625 
Q 12.109375 9.234375 16.796875 8.0625 
Q 21.484375 6.890625 26.703125 6.890625 
Q 35.15625 6.890625 40.078125 11.328125 
Q 45.015625 15.765625 45.015625 23.390625 
Q 45.015625 31 40.078125 35.4375 
Q 35.15625 39.890625 26.703125 39.890625 
Q 22.75 39.890625 18.8125 39.015625 
Q 14.890625 38.140625 10.796875 36.28125 
z
" id="DejaVuSans-53"/>
      </defs>
      <g transform="translate(146.992665 387.756875)scale(0.2 -0.2)">
       <use xlink:href="#DejaVuSans-53"/>
       <use x="63.623047" xlink:href="#DejaVuSans-48"/>
      </g>
     </g>
    </g>
    <g id="xtick_3">
     <g id="line2d_3">
      <g>
       <use style="stroke:#000000;stroke-width:0.8;" x="246.651798" xlink:href="#m368ed481f5" y="365.56"/>
      </g>
     </g>
     <g id="text_3">
      <!-- 100 -->
      <defs>
       <path d="M 12.40625 8.296875 
L 28.515625 8.296875 
L 28.515625 63.921875 
L 10.984375 60.40625 
L 10.984375 69.390625 
L 28.421875 72.90625 
L 38.28125 72.90625 
L 38.28125 8.296875 
L 54.390625 8.296875 
L 54.390625 0 
L 12.40625 0 
z
" id="DejaVuSans-49"/>
      </defs>
      <g transform="translate(227.564298 387.756875)scale(0.2 -0.2)">
       <use xlink:href="#DejaVuSans-49"/>
       <use x="63.623047" xlink:href="#DejaVuSans-48"/>
       <use x="127.246094" xlink:href="#DejaVuSans-48"/>
      </g>
     </g>
    </g>
    <g id="xtick_4">
     <g id="line2d_4">
      <g>
       <use style="stroke:#000000;stroke-width:0.8;" x="333.58593" xlink:href="#m368ed481f5" y="365.56"/>
      </g>
     </g>
     <g id="text_4">
      <!-- 150 -->
      <g transform="translate(314.49843 387.756875)scale(0.2 -0.2)">
       <use xlink:href="#DejaVuSans-49"/>
       <use x="63.623047" xlink:href="#DejaVuSans-53"/>
       <use x="127.246094" xlink:href="#DejaVuSans-48"/>
      </g>
     </g>
    </g>
    <g id="xtick_5">
     <g id="line2d_5">
      <g>
       <use style="stroke:#000000;stroke-width:0.8;" x="420.520062" xlink:href="#m368ed481f5" y="365.56"/>
      </g>
     </g>
     <g id="text_5">
      <!-- 200 -->
      <defs>
       <path d="M 19.1875 8.296875 
L 53.609375 8.296875 
L 53.609375 0 
L 7.328125 0 
L 7.328125 8.296875 
Q 12.9375 14.109375 22.625 23.890625 
Q 32.328125 33.6875 34.8125 36.53125 
Q 39.546875 41.84375 41.421875 45.53125 
Q 43.3125 49.21875 43.3125 52.78125 
Q 43.3125 58.59375 39.234375 62.25 
Q 35.15625 65.921875 28.609375 65.921875 
Q 23.96875 65.921875 18.8125 64.3125 
Q 13.671875 62.703125 7.8125 59.421875 
L 7.8125 69.390625 
Q 13.765625 71.78125 18.9375 73 
Q 24.125 74.21875 28.421875 74.21875 
Q 39.75 74.21875 46.484375 68.546875 
Q 53.21875 62.890625 53.21875 53.421875 
Q 53.21875 48.921875 51.53125 44.890625 
Q 49.859375 40.875 45.40625 35.40625 
Q 44.1875 33.984375 37.640625 27.21875 
Q 31.109375 20.453125 19.1875 8.296875 
z
" id="DejaVuSans-50"/>
      </defs>
      <g transform="translate(401.432562 387.756875)scale(0.2 -0.2)">
       <use xlink:href="#DejaVuSans-50"/>
       <use x="63.623047" xlink:href="#DejaVuSans-48"/>
       <use x="127.246094" xlink:href="#DejaVuSans-48"/>
      </g>
     </g>
    </g>
    <g id="xtick_6">
     <g id="line2d_6">
      <g>
       <use style="stroke:#000000;stroke-width:0.8;" x="507.454194" xlink:href="#m368ed481f5" y="365.56"/>
      </g>
     </g>
     <g id="text_6">
      <!-- 250 -->
      <g transform="translate(488.366694 387.756875)scale(0.2 -0.2)">
       <use xlink:href="#DejaVuSans-50"/>
       <use x="63.623047" xlink:href="#DejaVuSans-53"/>
       <use x="127.246094" xlink:href="#DejaVuSans-48"/>
      </g>
     </g>
    </g>
    <g id="text_7">
     <!-- # of games -->
     <defs>
      <path d="M 51.125 44 
L 36.921875 44 
L 32.8125 27.6875 
L 47.125 27.6875 
z
M 43.796875 71.78125 
L 38.71875 51.515625 
L 52.984375 51.515625 
L 58.109375 71.78125 
L 65.921875 71.78125 
L 60.890625 51.515625 
L 76.125 51.515625 
L 76.125 44 
L 58.984375 44 
L 54.984375 27.6875 
L 70.515625 27.6875 
L 70.515625 20.21875 
L 53.078125 20.21875 
L 48 0 
L 40.1875 0 
L 45.21875 20.21875 
L 30.90625 20.21875 
L 25.875 0 
L 18.015625 0 
L 23.09375 20.21875 
L 7.71875 20.21875 
L 7.71875 27.6875 
L 24.90625 27.6875 
L 29 44 
L 13.28125 44 
L 13.28125 51.515625 
L 30.90625 51.515625 
L 35.890625 71.78125 
z
" id="DejaVuSans-35"/>
      <path id="DejaVuSans-32"/>
      <path d="M 30.609375 48.390625 
Q 23.390625 48.390625 19.1875 42.75 
Q 14.984375 37.109375 14.984375 27.296875 
Q 14.984375 17.484375 19.15625 11.84375 
Q 23.34375 6.203125 30.609375 6.203125 
Q 37.796875 6.203125 41.984375 11.859375 
Q 46.1875 17.53125 46.1875 27.296875 
Q 46.1875 37.015625 41.984375 42.703125 
Q 37.796875 48.390625 30.609375 48.390625 
z
M 30.609375 56 
Q 42.328125 56 49.015625 48.375 
Q 55.71875 40.765625 55.71875 27.296875 
Q 55.71875 13.875 49.015625 6.21875 
Q 42.328125 -1.421875 30.609375 -1.421875 
Q 18.84375 -1.421875 12.171875 6.21875 
Q 5.515625 13.875 5.515625 27.296875 
Q 5.515625 40.765625 12.171875 48.375 
Q 18.84375 56 30.609375 56 
z
" id="DejaVuSans-111"/>
      <path d="M 37.109375 75.984375 
L 37.109375 68.5 
L 28.515625 68.5 
Q 23.6875 68.5 21.796875 66.546875 
Q 19.921875 64.59375 19.921875 59.515625 
L 19.921875 54.6875 
L 34.71875 54.6875 
L 34.71875 47.703125 
L 19.921875 47.703125 
L 19.921875 0 
L 10.890625 0 
L 10.890625 47.703125 
L 2.296875 47.703125 
L 2.296875 54.6875 
L 10.890625 54.6875 
L 10.890625 58.5 
Q 10.890625 67.625 15.140625 71.796875 
Q 19.390625 75.984375 28.609375 75.984375 
z
" id="DejaVuSans-102"/>
      <path d="M 45.40625 27.984375 
Q 45.40625 37.75 41.375 43.109375 
Q 37.359375 48.484375 30.078125 48.484375 
Q 22.859375 48.484375 18.828125 43.109375 
Q 14.796875 37.75 14.796875 27.984375 
Q 14.796875 18.265625 18.828125 12.890625 
Q 22.859375 7.515625 30.078125 7.515625 
Q 37.359375 7.515625 41.375 12.890625 
Q 45.40625 18.265625 45.40625 27.984375 
z
M 54.390625 6.78125 
Q 54.390625 -7.171875 48.1875 -13.984375 
Q 42 -20.796875 29.203125 -20.796875 
Q 24.46875 -20.796875 20.265625 -20.09375 
Q 16.0625 -19.390625 12.109375 -17.921875 
L 12.109375 -9.1875 
Q 16.0625 -11.328125 19.921875 -12.34375 
Q 23.78125 -13.375 27.78125 -13.375 
Q 36.625 -13.375 41.015625 -8.765625 
Q 45.40625 -4.15625 45.40625 5.171875 
L 45.40625 9.625 
Q 42.625 4.78125 38.28125 2.390625 
Q 33.9375 0 27.875 0 
Q 17.828125 0 11.671875 7.65625 
Q 5.515625 15.328125 5.515625 27.984375 
Q 5.515625 40.671875 11.671875 48.328125 
Q 17.828125 56 27.875 56 
Q 33.9375 56 38.28125 53.609375 
Q 42.625 51.21875 45.40625 46.390625 
L 45.40625 54.6875 
L 54.390625 54.6875 
z
" id="DejaVuSans-103"/>
      <path d="M 34.28125 27.484375 
Q 23.390625 27.484375 19.1875 25 
Q 14.984375 22.515625 14.984375 16.5 
Q 14.984375 11.71875 18.140625 8.90625 
Q 21.296875 6.109375 26.703125 6.109375 
Q 34.1875 6.109375 38.703125 11.40625 
Q 43.21875 16.703125 43.21875 25.484375 
L 43.21875 27.484375 
z
M 52.203125 31.203125 
L 52.203125 0 
L 43.21875 0 
L 43.21875 8.296875 
Q 40.140625 3.328125 35.546875 0.953125 
Q 30.953125 -1.421875 24.3125 -1.421875 
Q 15.921875 -1.421875 10.953125 3.296875 
Q 6 8.015625 6 15.921875 
Q 6 25.140625 12.171875 29.828125 
Q 18.359375 34.515625 30.609375 34.515625 
L 43.21875 34.515625 
L 43.21875 35.40625 
Q 43.21875 41.609375 39.140625 45 
Q 35.0625 48.390625 27.6875 48.390625 
Q 23 48.390625 18.546875 47.265625 
Q 14.109375 46.140625 10.015625 43.890625 
L 10.015625 52.203125 
Q 14.9375 54.109375 19.578125 55.046875 
Q 24.21875 56 28.609375 56 
Q 40.484375 56 46.34375 49.84375 
Q 52.203125 43.703125 52.203125 31.203125 
z
" id="DejaVuSans-97"/>
      <path d="M 52 44.1875 
Q 55.375 50.25 60.0625 53.125 
Q 64.75 56 71.09375 56 
Q 79.640625 56 84.28125 50.015625 
Q 88.921875 44.046875 88.921875 33.015625 
L 88.921875 0 
L 79.890625 0 
L 79.890625 32.71875 
Q 79.890625 40.578125 77.09375 44.375 
Q 74.3125 48.1875 68.609375 48.1875 
Q 61.625 48.1875 57.5625 43.546875 
Q 53.515625 38.921875 53.515625 30.90625 
L 53.515625 0 
L 44.484375 0 
L 44.484375 32.71875 
Q 44.484375 40.625 41.703125 44.40625 
Q 38.921875 48.1875 33.109375 48.1875 
Q 26.21875 48.1875 22.15625 43.53125 
Q 18.109375 38.875 18.109375 30.90625 
L 18.109375 0 
L 9.078125 0 
L 9.078125 54.6875 
L 18.109375 54.6875 
L 18.109375 46.1875 
Q 21.1875 51.21875 25.484375 53.609375 
Q 29.78125 56 35.6875 56 
Q 41.65625 56 45.828125 52.96875 
Q 50 49.953125 52 44.1875 
z
" id="DejaVuSans-109"/>
      <path d="M 56.203125 29.59375 
L 56.203125 25.203125 
L 14.890625 25.203125 
Q 15.484375 15.921875 20.484375 11.0625 
Q 25.484375 6.203125 34.421875 6.203125 
Q 39.59375 6.203125 44.453125 7.46875 
Q 49.3125 8.734375 54.109375 11.28125 
L 54.109375 2.78125 
Q 49.265625 0.734375 44.1875 -0.34375 
Q 39.109375 -1.421875 33.890625 -1.421875 
Q 20.796875 -1.421875 13.15625 6.1875 
Q 5.515625 13.8125 5.515625 26.8125 
Q 5.515625 40.234375 12.765625 48.109375 
Q 20.015625 56 32.328125 56 
Q 43.359375 56 49.78125 48.890625 
Q 56.203125 41.796875 56.203125 29.59375 
z
M 47.21875 32.234375 
Q 47.125 39.59375 43.09375 43.984375 
Q 39.0625 48.390625 32.421875 48.390625 
Q 24.90625 48.390625 20.390625 44.140625 
Q 15.875 39.890625 15.1875 32.171875 
z
" id="DejaVuSans-101"/>
      <path d="M 44.28125 53.078125 
L 44.28125 44.578125 
Q 40.484375 46.53125 36.375 47.5 
Q 32.28125 48.484375 27.875 48.484375 
Q 21.1875 48.484375 17.84375 46.4375 
Q 14.5 44.390625 14.5 40.28125 
Q 14.5 37.15625 16.890625 35.375 
Q 19.28125 33.59375 26.515625 31.984375 
L 29.59375 31.296875 
Q 39.15625 29.25 43.1875 25.515625 
Q 47.21875 21.78125 47.21875 15.09375 
Q 47.21875 7.46875 41.1875 3.015625 
Q 35.15625 -1.421875 24.609375 -1.421875 
Q 20.21875 -1.421875 15.453125 -0.5625 
Q 10.6875 0.296875 5.421875 2 
L 5.421875 11.28125 
Q 10.40625 8.6875 15.234375 7.390625 
Q 20.0625 6.109375 24.8125 6.109375 
Q 31.15625 6.109375 34.5625 8.28125 
Q 37.984375 10.453125 37.984375 14.40625 
Q 37.984375 18.0625 35.515625 20.015625 
Q 33.0625 21.96875 24.703125 23.78125 
L 21.578125 24.515625 
Q 13.234375 26.265625 9.515625 29.90625 
Q 5.8125 33.546875 5.8125 39.890625 
Q 5.8125 47.609375 11.28125 51.796875 
Q 16.75 56 26.8125 56 
Q 31.78125 56 36.171875 55.265625 
Q 40.578125 54.546875 44.28125 53.078125 
z
" id="DejaVuSans-115"/>
     </defs>
     <g transform="translate(217.675504 414.912344)scale(0.25 -0.25)">
      <use xlink:href="#DejaVuSans-35"/>
      <use x="83.789062" xlink:href="#DejaVuSans-32"/>
      <use x="115.576172" xlink:href="#DejaVuSans-111"/>
      <use x="176.757812" xlink:href="#DejaVuSans-102"/>
      <use x="211.962891" xlink:href="#DejaVuSans-32"/>
      <use x="243.75" xlink:href="#DejaVuSans-103"/>
      <use x="307.226562" xlink:href="#DejaVuSans-97"/>
      <use x="368.505859" xlink:href="#DejaVuSans-109"/>
      <use x="465.917969" xlink:href="#DejaVuSans-101"/>
      <use x="527.441406" xlink:href="#DejaVuSans-115"/>
     </g>
    </g>
   </g>
   <g id="matplotlib.axis_2">
    <g id="ytick_1">
     <g id="line2d_7">
      <defs>
       <path d="M 0 0 
L -3.5 0 
" id="m66b88ae77e" style="stroke:#000000;stroke-width:0.8;"/>
      </defs>
      <g>
       <use style="stroke:#000000;stroke-width:0.8;" x="51.05" xlink:href="#m66b88ae77e" y="351.970909"/>
      </g>
     </g>
     <g id="text_8">
      <!-- 1 -->
      <g transform="translate(31.325 359.569347)scale(0.2 -0.2)">
       <use xlink:href="#DejaVuSans-49"/>
      </g>
     </g>
    </g>
    <g id="ytick_2">
     <g id="line2d_8">
      <g>
       <use style="stroke:#000000;stroke-width:0.8;" x="51.05" xlink:href="#m66b88ae77e" y="317.998182"/>
      </g>
     </g>
     <g id="text_9">
      <!-- 2 -->
      <g transform="translate(31.325 325.596619)scale(0.2 -0.2)">
       <use xlink:href="#DejaVuSans-50"/>
      </g>
     </g>
    </g>
    <g id="ytick_3">
     <g id="line2d_9">
      <g>
       <use style="stroke:#000000;stroke-width:0.8;" x="51.05" xlink:href="#m66b88ae77e" y="284.025455"/>
      </g>
     </g>
     <g id="text_10">
      <!-- 3 -->
      <defs>
       <path d="M 40.578125 39.3125 
Q 47.65625 37.796875 51.625 33 
Q 55.609375 28.21875 55.609375 21.1875 
Q 55.609375 10.40625 48.1875 4.484375 
Q 40.765625 -1.421875 27.09375 -1.421875 
Q 22.515625 -1.421875 17.65625 -0.515625 
Q 12.796875 0.390625 7.625 2.203125 
L 7.625 11.71875 
Q 11.71875 9.328125 16.59375 8.109375 
Q 21.484375 6.890625 26.8125 6.890625 
Q 36.078125 6.890625 40.9375 10.546875 
Q 45.796875 14.203125 45.796875 21.1875 
Q 45.796875 27.640625 41.28125 31.265625 
Q 36.765625 34.90625 28.71875 34.90625 
L 20.21875 34.90625 
L 20.21875 43.015625 
L 29.109375 43.015625 
Q 36.375 43.015625 40.234375 45.921875 
Q 44.09375 48.828125 44.09375 54.296875 
Q 44.09375 59.90625 40.109375 62.90625 
Q 36.140625 65.921875 28.71875 65.921875 
Q 24.65625 65.921875 20.015625 65.03125 
Q 15.375 64.15625 9.8125 62.3125 
L 9.8125 71.09375 
Q 15.4375 72.65625 20.34375 73.4375 
Q 25.25 74.21875 29.59375 74.21875 
Q 40.828125 74.21875 47.359375 69.109375 
Q 53.90625 64.015625 53.90625 55.328125 
Q 53.90625 49.265625 50.4375 45.09375 
Q 46.96875 40.921875 40.578125 39.3125 
z
" id="DejaVuSans-51"/>
      </defs>
      <g transform="translate(31.325 291.623892)scale(0.2 -0.2)">
       <use xlink:href="#DejaVuSans-51"/>
      </g>
     </g>
    </g>
    <g id="ytick_4">
     <g id="line2d_10">
      <g>
       <use style="stroke:#000000;stroke-width:0.8;" x="51.05" xlink:href="#m66b88ae77e" y="250.052727"/>
      </g>
     </g>
     <g id="text_11">
      <!-- 4 -->
      <defs>
       <path d="M 37.796875 64.3125 
L 12.890625 25.390625 
L 37.796875 25.390625 
z
M 35.203125 72.90625 
L 47.609375 72.90625 
L 47.609375 25.390625 
L 58.015625 25.390625 
L 58.015625 17.1875 
L 47.609375 17.1875 
L 47.609375 0 
L 37.796875 0 
L 37.796875 17.1875 
L 4.890625 17.1875 
L 4.890625 26.703125 
z
" id="DejaVuSans-52"/>
      </defs>
      <g transform="translate(31.325 257.651165)scale(0.2 -0.2)">
       <use xlink:href="#DejaVuSans-52"/>
      </g>
     </g>
    </g>
    <g id="ytick_5">
     <g id="line2d_11">
      <g>
       <use style="stroke:#000000;stroke-width:0.8;" x="51.05" xlink:href="#m66b88ae77e" y="216.08"/>
      </g>
     </g>
     <g id="text_12">
      <!-- 5 -->
      <g transform="translate(31.325 223.678437)scale(0.2 -0.2)">
       <use xlink:href="#DejaVuSans-53"/>
      </g>
     </g>
    </g>
    <g id="ytick_6">
     <g id="line2d_12">
      <g>
       <use style="stroke:#000000;stroke-width:0.8;" x="51.05" xlink:href="#m66b88ae77e" y="182.107273"/>
      </g>
     </g>
     <g id="text_13">
      <!-- 6 -->
      <defs>
       <path d="M 33.015625 40.375 
Q 26.375 40.375 22.484375 35.828125 
Q 18.609375 31.296875 18.609375 23.390625 
Q 18.609375 15.53125 22.484375 10.953125 
Q 26.375 6.390625 33.015625 6.390625 
Q 39.65625 6.390625 43.53125 10.953125 
Q 47.40625 15.53125 47.40625 23.390625 
Q 47.40625 31.296875 43.53125 35.828125 
Q 39.65625 40.375 33.015625 40.375 
z
M 52.59375 71.296875 
L 52.59375 62.3125 
Q 48.875 64.0625 45.09375 64.984375 
Q 41.3125 65.921875 37.59375 65.921875 
Q 27.828125 65.921875 22.671875 59.328125 
Q 17.53125 52.734375 16.796875 39.40625 
Q 19.671875 43.65625 24.015625 45.921875 
Q 28.375 48.1875 33.59375 48.1875 
Q 44.578125 48.1875 50.953125 41.515625 
Q 57.328125 34.859375 57.328125 23.390625 
Q 57.328125 12.15625 50.6875 5.359375 
Q 44.046875 -1.421875 33.015625 -1.421875 
Q 20.359375 -1.421875 13.671875 8.265625 
Q 6.984375 17.96875 6.984375 36.375 
Q 6.984375 53.65625 15.1875 63.9375 
Q 23.390625 74.21875 37.203125 74.21875 
Q 40.921875 74.21875 44.703125 73.484375 
Q 48.484375 72.75 52.59375 71.296875 
z
" id="DejaVuSans-54"/>
      </defs>
      <g transform="translate(31.325 189.70571)scale(0.2 -0.2)">
       <use xlink:href="#DejaVuSans-54"/>
      </g>
     </g>
    </g>
    <g id="ytick_7">
     <g id="line2d_13">
      <g>
       <use style="stroke:#000000;stroke-width:0.8;" x="51.05" xlink:href="#m66b88ae77e" y="148.134545"/>
      </g>
     </g>
     <g id="text_14">
      <!-- 7 -->
      <defs>
       <path d="M 8.203125 72.90625 
L 55.078125 72.90625 
L 55.078125 68.703125 
L 28.609375 0 
L 18.3125 0 
L 43.21875 64.59375 
L 8.203125 64.59375 
z
" id="DejaVuSans-55"/>
      </defs>
      <g transform="translate(31.325 155.732983)scale(0.2 -0.2)">
       <use xlink:href="#DejaVuSans-55"/>
      </g>
     </g>
    </g>
    <g id="ytick_8">
     <g id="line2d_14">
      <g>
       <use style="stroke:#000000;stroke-width:0.8;" x="51.05" xlink:href="#m66b88ae77e" y="114.161818"/>
      </g>
     </g>
     <g id="text_15">
      <!-- 8 -->
      <defs>
       <path d="M 31.78125 34.625 
Q 24.75 34.625 20.71875 30.859375 
Q 16.703125 27.09375 16.703125 20.515625 
Q 16.703125 13.921875 20.71875 10.15625 
Q 24.75 6.390625 31.78125 6.390625 
Q 38.8125 6.390625 42.859375 10.171875 
Q 46.921875 13.96875 46.921875 20.515625 
Q 46.921875 27.09375 42.890625 30.859375 
Q 38.875 34.625 31.78125 34.625 
z
M 21.921875 38.8125 
Q 15.578125 40.375 12.03125 44.71875 
Q 8.5 49.078125 8.5 55.328125 
Q 8.5 64.0625 14.71875 69.140625 
Q 20.953125 74.21875 31.78125 74.21875 
Q 42.671875 74.21875 48.875 69.140625 
Q 55.078125 64.0625 55.078125 55.328125 
Q 55.078125 49.078125 51.53125 44.71875 
Q 48 40.375 41.703125 38.8125 
Q 48.828125 37.15625 52.796875 32.3125 
Q 56.78125 27.484375 56.78125 20.515625 
Q 56.78125 9.90625 50.3125 4.234375 
Q 43.84375 -1.421875 31.78125 -1.421875 
Q 19.734375 -1.421875 13.25 4.234375 
Q 6.78125 9.90625 6.78125 20.515625 
Q 6.78125 27.484375 10.78125 32.3125 
Q 14.796875 37.15625 21.921875 38.8125 
z
M 18.3125 54.390625 
Q 18.3125 48.734375 21.84375 45.5625 
Q 25.390625 42.390625 31.78125 42.390625 
Q 38.140625 42.390625 41.71875 45.5625 
Q 45.3125 48.734375 45.3125 54.390625 
Q 45.3125 60.0625 41.71875 63.234375 
Q 38.140625 66.40625 31.78125 66.40625 
Q 25.390625 66.40625 21.84375 63.234375 
Q 18.3125 60.0625 18.3125 54.390625 
z
" id="DejaVuSans-56"/>
      </defs>
      <g transform="translate(31.325 121.760256)scale(0.2 -0.2)">
       <use xlink:href="#DejaVuSans-56"/>
      </g>
     </g>
    </g>
    <g id="ytick_9">
     <g id="line2d_15">
      <g>
       <use style="stroke:#000000;stroke-width:0.8;" x="51.05" xlink:href="#m66b88ae77e" y="80.189091"/>
      </g>
     </g>
     <g id="text_16">
      <!-- 9 -->
      <defs>
       <path d="M 10.984375 1.515625 
L 10.984375 10.5 
Q 14.703125 8.734375 18.5 7.8125 
Q 22.3125 6.890625 25.984375 6.890625 
Q 35.75 6.890625 40.890625 13.453125 
Q 46.046875 20.015625 46.78125 33.40625 
Q 43.953125 29.203125 39.59375 26.953125 
Q 35.25 24.703125 29.984375 24.703125 
Q 19.046875 24.703125 12.671875 31.3125 
Q 6.296875 37.9375 6.296875 49.421875 
Q 6.296875 60.640625 12.9375 67.421875 
Q 19.578125 74.21875 30.609375 74.21875 
Q 43.265625 74.21875 49.921875 64.515625 
Q 56.59375 54.828125 56.59375 36.375 
Q 56.59375 19.140625 48.40625 8.859375 
Q 40.234375 -1.421875 26.421875 -1.421875 
Q 22.703125 -1.421875 18.890625 -0.6875 
Q 15.09375 0.046875 10.984375 1.515625 
z
M 30.609375 32.421875 
Q 37.25 32.421875 41.125 36.953125 
Q 45.015625 41.5 45.015625 49.421875 
Q 45.015625 57.28125 41.125 61.84375 
Q 37.25 66.40625 30.609375 66.40625 
Q 23.96875 66.40625 20.09375 61.84375 
Q 16.21875 57.28125 16.21875 49.421875 
Q 16.21875 41.5 20.09375 36.953125 
Q 23.96875 32.421875 30.609375 32.421875 
z
" id="DejaVuSans-57"/>
      </defs>
      <g transform="translate(31.325 87.787528)scale(0.2 -0.2)">
       <use xlink:href="#DejaVuSans-57"/>
      </g>
     </g>
    </g>
    <g id="text_17">
     <!-- DHEU Value -->
     <defs>
      <path d="M 19.671875 64.796875 
L 19.671875 8.109375 
L 31.59375 8.109375 
Q 46.6875 8.109375 53.6875 14.9375 
Q 60.6875 21.78125 60.6875 36.53125 
Q 60.6875 51.171875 53.6875 57.984375 
Q 46.6875 64.796875 31.59375 64.796875 
z
M 9.8125 72.90625 
L 30.078125 72.90625 
Q 51.265625 72.90625 61.171875 64.09375 
Q 71.09375 55.28125 71.09375 36.53125 
Q 71.09375 17.671875 61.125 8.828125 
Q 51.171875 0 30.078125 0 
L 9.8125 0 
z
" id="DejaVuSans-68"/>
      <path d="M 9.8125 72.90625 
L 19.671875 72.90625 
L 19.671875 43.015625 
L 55.515625 43.015625 
L 55.515625 72.90625 
L 65.375 72.90625 
L 65.375 0 
L 55.515625 0 
L 55.515625 34.71875 
L 19.671875 34.71875 
L 19.671875 0 
L 9.8125 0 
z
" id="DejaVuSans-72"/>
      <path d="M 9.8125 72.90625 
L 55.90625 72.90625 
L 55.90625 64.59375 
L 19.671875 64.59375 
L 19.671875 43.015625 
L 54.390625 43.015625 
L 54.390625 34.71875 
L 19.671875 34.71875 
L 19.671875 8.296875 
L 56.78125 8.296875 
L 56.78125 0 
L 9.8125 0 
z
" id="DejaVuSans-69"/>
      <path d="M 8.6875 72.90625 
L 18.609375 72.90625 
L 18.609375 28.609375 
Q 18.609375 16.890625 22.84375 11.734375 
Q 27.09375 6.59375 36.625 6.59375 
Q 46.09375 6.59375 50.34375 11.734375 
Q 54.59375 16.890625 54.59375 28.609375 
L 54.59375 72.90625 
L 64.5 72.90625 
L 64.5 27.390625 
Q 64.5 13.140625 57.4375 5.859375 
Q 50.390625 -1.421875 36.625 -1.421875 
Q 22.796875 -1.421875 15.734375 5.859375 
Q 8.6875 13.140625 8.6875 27.390625 
z
" id="DejaVuSans-85"/>
      <path d="M 28.609375 0 
L 0.78125 72.90625 
L 11.078125 72.90625 
L 34.1875 11.53125 
L 57.328125 72.90625 
L 67.578125 72.90625 
L 39.796875 0 
z
" id="DejaVuSans-86"/>
      <path d="M 9.421875 75.984375 
L 18.40625 75.984375 
L 18.40625 0 
L 9.421875 0 
z
" id="DejaVuSans-108"/>
      <path d="M 8.5 21.578125 
L 8.5 54.6875 
L 17.484375 54.6875 
L 17.484375 21.921875 
Q 17.484375 14.15625 20.5 10.265625 
Q 23.53125 6.390625 29.59375 6.390625 
Q 36.859375 6.390625 41.078125 11.03125 
Q 45.3125 15.671875 45.3125 23.6875 
L 45.3125 54.6875 
L 54.296875 54.6875 
L 54.296875 0 
L 45.3125 0 
L 45.3125 8.40625 
Q 42.046875 3.421875 37.71875 1 
Q 33.40625 -1.421875 27.6875 -1.421875 
Q 18.265625 -1.421875 13.375 4.4375 
Q 8.5 10.296875 8.5 21.578125 
z
M 31.109375 56 
z
" id="DejaVuSans-117"/>
     </defs>
     <g transform="translate(23.858854 266.29875)rotate(-90)scale(0.166667 -0.166667)">
      <use xlink:href="#DejaVuSans-68"/>
      <use x="77.001953" xlink:href="#DejaVuSans-72"/>
      <use x="152.197266" xlink:href="#DejaVuSans-69"/>
      <use x="215.380859" xlink:href="#DejaVuSans-85"/>
      <use x="288.574219" xlink:href="#DejaVuSans-32"/>
      <use x="320.361328" xlink:href="#DejaVuSans-86"/>
      <use x="388.660156" xlink:href="#DejaVuSans-97"/>
      <use x="449.939453" xlink:href="#DejaVuSans-108"/>
      <use x="477.722656" xlink:href="#DejaVuSans-117"/>
      <use x="541.101562" xlink:href="#DejaVuSans-101"/>
     </g>
    </g>
   </g>
   <g id="line2d_16">
    <path clip-path="url(#pb5ab2117bb)" d="M 72.783533 351.970909 
L 74.522216 243.258182 
L 76.260898 210.644364 
L 77.999581 161.725616 
L 79.738264 178.039791 
L 81.476946 150.856823 
L 83.215629 140.000168 
L 84.954312 134.563546 
L 86.692994 123.70459 
L 88.431677 140.00966 
L 90.17036 118.261971 
L 91.909042 102.409851 
L 93.647725 130.127996 
L 95.386407 135.705271 
L 97.12509 120.711955 
L 98.863773 97.613112 
L 100.602455 114.949346 
L 102.341138 103.402194 
L 104.079821 126.519139 
L 105.818503 109.803441 
L 107.557186 103.900086 
L 109.295869 115.679304 
L 111.034551 97.981837 
L 112.773234 109.80403 
L 114.511917 110.447296 
L 116.250599 116.477278 
L 117.989282 105.531486 
L 119.727964 86.573892 
L 121.466647 99.211391 
L 123.20533 93.194313 
L 124.944012 112.60195 
L 126.682695 93.835812 
L 128.421378 87.041785 
L 130.16006 115.094694 
L 131.898743 94.55563 
L 133.637426 95.342485 
L 135.376108 95.78914 
L 137.114791 119.099593 
L 138.853474 113.224769 
L 140.592156 80.292118 
L 142.330839 88.526717 
L 144.069521 88.571135 
L 145.808204 80.353701 
L 147.546887 97.813454 
L 149.285569 89.131054 
L 151.024252 89.129235 
L 152.762935 89.42285 
L 156.2403 89.384393 
L 157.978983 89.442649 
L 159.717665 80.384018 
L 163.195031 80.390862 
L 164.933713 99.095399 
L 166.672396 90.169193 
L 168.411079 119.300622 
L 170.149761 90.192814 
L 171.888444 80.504075 
L 175.365809 80.454615 
L 177.104492 90.531502 
L 178.843174 80.494898 
L 184.059222 80.514137 
L 185.797905 91.837136 
L 187.536588 125.796036 
L 189.27527 92.880978 
L 191.013953 80.53573 
L 192.752636 92.867433 
L 194.491318 92.879307 
L 196.230001 80.540686 
L 197.968683 80.518297 
L 199.707366 106.361366 
L 201.446049 93.466208 
L 203.184731 93.335379 
L 204.923414 80.495178 
L 206.662097 94.075038 
L 208.400779 94.085344 
L 210.139462 80.46963 
L 222.31024 80.572293 
L 224.048923 97.527421 
L 225.787606 80.548955 
L 232.742336 80.431392 
L 234.481019 80.246265 
L 236.219702 80.265223 
L 237.958384 114.211101 
L 239.697067 80.32802 
L 244.913115 80.30756 
L 246.651798 114.280287 
L 248.39048 80.262482 
L 250.129163 114.192026 
L 251.867845 80.262482 
L 257.083893 80.270862 
L 304.028325 80.253433 
L 305.767007 134.583357 
L 307.50569 80.253433 
L 321.415151 80.253427 
L 323.153834 134.609791 
L 324.892517 134.609791 
L 326.631199 80.253427 
L 380.530361 80.233157 
L 382.269044 80.568206 
L 387.485092 80.565987 
L 389.223774 171.159927 
L 390.962457 80.565987 
L 417.042697 80.527044 
L 418.781379 80.225354 
L 427.474793 80.225354 
L 429.213475 170.819293 
L 430.952158 80.225354 
L 441.384254 80.335076 
L 443.122936 80.527044 
L 446.600302 80.527044 
L 448.338984 80.189091 
L 465.725811 80.189091 
L 467.464493 170.78303 
L 469.203176 80.189091 
L 483.112637 80.189091 
L 484.85132 81.663774 
L 507.454194 81.663774 
L 507.454194 81.663774 
" style="fill:none;stroke:#1f77b4;stroke-linecap:square;stroke-width:1.5;"/>
   </g>
   <g id="line2d_17">
    <path clip-path="url(#pb5ab2117bb)" d="M 72.783533 351.970909 
L 74.522216 297.614545 
L 76.260898 281.309831 
L 77.999581 256.851019 
L 79.738264 265.008434 
L 81.476946 251.423351 
L 83.215629 245.982388 
L 84.954312 243.266865 
L 86.692994 237.831613 
L 88.431677 246.012383 
L 90.17036 235.112061 
L 91.909042 227.189959 
L 93.647725 241.052426 
L 95.386407 243.823105 
L 97.12509 236.3395 
L 98.863773 224.78561 
L 100.602455 233.438323 
L 102.341138 227.680729 
L 104.079821 239.22251 
L 105.818503 230.879893 
L 107.557186 227.902185 
L 109.295869 233.839435 
L 111.034551 224.973523 
L 112.773234 230.880002 
L 114.511917 231.190206 
L 116.250599 234.233242 
L 117.989282 228.776474 
L 119.727964 219.30708 
L 121.466647 225.67397 
L 123.20533 222.661555 
L 124.944012 232.346956 
L 126.682695 222.925168 
L 128.421378 219.494408 
L 130.16006 233.524066 
L 131.898743 223.228926 
L 133.637426 223.660768 
L 135.376108 223.88139 
L 137.114791 235.541124 
L 138.853474 232.607318 
L 140.592156 216.125855 
L 142.330839 220.23422 
L 144.069521 220.193967 
L 145.808204 216.11277 
L 147.546887 224.883724 
L 149.285569 220.49353 
L 151.024252 220.489964 
L 152.762935 220.647115 
L 157.978983 220.697601 
L 159.717665 216.192392 
L 163.195031 216.159686 
L 164.933713 225.497005 
L 166.672396 220.98145 
L 168.411079 235.491774 
L 170.149761 220.927275 
L 171.888444 216.078649 
L 175.365809 216.082032 
L 177.104492 221.120526 
L 178.843174 216.082142 
L 184.059222 216.067967 
L 185.797905 221.72939 
L 187.536588 238.709969 
L 189.27527 222.248157 
L 191.013953 216.072073 
L 192.752636 222.325429 
L 194.491318 222.312438 
L 196.230001 216.109182 
L 197.968683 216.111127 
L 199.707366 229.040917 
L 201.446049 222.56787 
L 203.184731 222.602038 
L 204.923414 216.133594 
L 206.662097 222.893785 
L 208.400779 222.891569 
L 210.139462 216.083668 
L 220.571558 216.173523 
L 222.31024 216.26182 
L 224.048923 224.639695 
L 225.787606 216.172278 
L 232.742336 216.163491 
L 234.481019 216.271566 
L 236.219702 216.241557 
L 237.958384 233.018536 
L 239.697067 216.273346 
L 241.43575 216.081498 
L 244.913115 216.074665 
L 246.651798 233.12163 
L 248.39048 216.052084 
L 250.129163 233.038448 
L 251.867845 216.052084 
L 258.822576 216.070694 
L 260.561259 216.065471 
L 262.299941 216.443092 
L 269.254672 216.513527 
L 270.993355 216.122589 
L 283.164133 216.176107 
L 284.902816 216.681387 
L 295.334912 216.667779 
L 297.073594 216.174789 
L 304.028325 216.170976 
L 305.767007 243.349158 
L 307.50569 216.170976 
L 310.983055 216.069273 
L 321.415151 216.073769 
L 323.153834 243.25195 
L 324.892517 243.25195 
L 326.631199 216.073769 
L 371.836948 216.133786 
L 375.314313 216.24058 
L 384.007726 216.078542 
L 387.485092 216.077433 
L 389.223774 261.374402 
L 390.962457 216.079666 
L 417.042697 216.178043 
L 418.781379 215.92859 
L 425.73611 215.92859 
L 427.474793 215.92859 
L 429.213475 261.22556 
L 430.952158 215.92859 
L 432.69084 216.112867 
L 437.906888 216.167711 
L 446.600302 216.315268 
L 465.725811 216.315268 
L 467.464493 261.612238 
L 469.203176 216.315268 
L 470.941859 216.08 
L 503.976829 216.08 
L 505.715512 216.23199 
L 507.454194 216.23199 
L 507.454194 216.23199 
" style="fill:none;stroke:#ff7f0e;stroke-linecap:square;stroke-width:1.5;"/>
   </g>
   <g id="line2d_18">
    <path clip-path="url(#pb5ab2117bb)" d="M 72.783533 351.970909 
L 74.522216 297.614545 
L 76.260898 281.307636 
L 77.999581 256.847273 
L 79.738264 265.000727 
L 81.476946 251.410926 
L 83.215629 245.980372 
L 84.954312 243.261843 
L 86.692994 237.821733 
L 88.431677 245.976519 
L 90.17036 235.11453 
L 91.909042 227.190624 
L 93.647725 241.061876 
L 95.386407 243.843847 
L 97.12509 236.368562 
L 98.863773 224.790079 
L 100.602455 233.476623 
L 102.341138 227.697297 
L 104.079821 239.270399 
L 105.818503 230.903305 
L 107.557186 227.923757 
L 109.295869 233.845815 
L 111.034551 224.950421 
L 112.773234 230.882059 
L 114.511917 231.219203 
L 116.250599 234.25012 
L 117.989282 228.758254 
L 119.727964 219.28278 
L 121.466647 225.589683 
L 123.20533 222.579063 
L 124.944012 232.298822 
L 126.682695 222.893882 
L 128.421378 219.514636 
L 130.16006 233.529128 
L 131.898743 223.266952 
L 133.637426 223.658215 
L 135.376108 223.870908 
L 137.114791 235.570183 
L 138.853474 232.639078 
L 140.592156 216.160264 
L 142.330839 220.283262 
L 144.069521 220.275274 
L 145.808204 216.099393 
L 147.546887 224.864885 
L 149.285569 220.471036 
L 151.024252 220.471895 
L 152.762935 220.615116 
L 157.978983 220.680628 
L 159.717665 216.168573 
L 163.195031 216.160494 
L 164.933713 225.583886 
L 166.672396 221.020495 
L 168.411079 235.552396 
L 170.149761 220.985254 
L 171.888444 216.131237 
L 175.365809 216.127213 
L 177.104492 221.18303 
L 178.843174 216.187714 
L 184.059222 216.212643 
L 185.797905 221.851589 
L 187.536588 238.85098 
L 189.27527 222.348883 
L 191.013953 216.153188 
L 192.752636 222.320871 
L 194.491318 222.317514 
L 196.230001 216.145129 
L 197.968683 216.146351 
L 199.707366 229.088342 
L 201.446049 222.585269 
L 203.184731 222.59197 
L 204.923414 216.112988 
L 206.662097 222.958138 
L 208.400779 222.971706 
L 210.139462 216.12153 
L 222.31024 216.086245 
L 224.048923 224.594681 
L 225.787606 216.090286 
L 234.481019 216.022686 
L 236.219702 216.445482 
L 237.958384 233.500714 
L 239.697067 216.545377 
L 244.913115 216.538753 
L 246.651798 233.112355 
L 248.39048 216.103411 
L 250.129163 233.020909 
L 251.867845 216.103411 
L 257.083893 216.129342 
L 265.777307 216.165996 
L 267.515989 216.377087 
L 274.47072 216.410458 
L 277.948085 216.10402 
L 283.164133 216.272648 
L 297.073594 216.288607 
L 304.028325 216.170642 
L 305.767007 243.258182 
L 307.50569 216.170642 
L 310.983055 216.190402 
L 312.721738 217.760241 
L 321.415151 217.563777 
L 323.153834 244.741958 
L 324.892517 243.25195 
L 326.631199 217.563777 
L 342.279343 217.563777 
L 344.018026 216.060542 
L 375.314313 216.08 
L 387.485092 216.077433 
L 389.223774 261.374402 
L 390.962457 216.077433 
L 417.042697 216.088936 
L 418.781379 215.937556 
L 427.474793 215.92912 
L 429.213475 261.22556 
L 430.952158 215.92912 
L 434.429523 215.984187 
L 436.168206 216.223914 
L 443.122936 216.319748 
L 451.81635 216.319218 
L 460.509763 216.326173 
L 462.248445 216.142118 
L 465.725811 216.141637 
L 467.464493 261.431652 
L 469.203176 216.141637 
L 507.454194 216.08 
L 507.454194 216.08 
" style="fill:none;stroke:#2ca02c;stroke-linecap:square;stroke-width:1.5;"/>
   </g>
   <g id="line2d_19">
    <path clip-path="url(#pb5ab2117bb)" d="M 72.783533 351.970909 
L 507.454194 351.970909 
L 507.454194 351.970909 
" style="fill:none;stroke:#d62728;stroke-linecap:square;stroke-width:1.5;"/>
   </g>
   <g id="line2d_20">
    <path clip-path="url(#pb5ab2117bb)" d="M 72.783533 351.970909 
L 507.454194 351.970909 
L 507.454194 351.970909 
" style="fill:none;stroke:#9467bd;stroke-linecap:square;stroke-width:1.5;"/>
   </g>
   <g id="line2d_21">
    <path clip-path="url(#pb5ab2117bb)" d="M 72.783533 351.970909 
L 74.522216 243.258182 
L 76.260898 210.644364 
L 77.999581 161.723636 
L 79.738264 178.030545 
L 81.476946 150.852364 
L 83.215629 139.98566 
L 84.954312 134.550286 
L 86.692994 123.684023 
L 88.431677 139.98412 
L 90.17036 118.249805 
L 91.909042 102.389335 
L 93.647725 130.131742 
L 95.386407 135.668258 
L 97.12509 120.696259 
L 98.863773 97.556548 
L 100.602455 114.906401 
L 102.341138 103.332967 
L 104.079821 126.462267 
L 105.818503 109.760347 
L 107.557186 103.826037 
L 109.295869 115.686072 
L 111.034551 97.953322 
L 112.773234 109.77661 
L 114.511917 110.419634 
L 116.250599 116.459042 
L 117.989282 105.519062 
L 119.727964 86.58771 
L 121.466647 99.256205 
L 123.20533 93.250795 
L 124.944012 112.605138 
L 126.682695 93.845692 
L 128.421378 87.034379 
L 130.16006 115.071799 
L 131.898743 94.504813 
L 133.637426 95.310448 
L 135.376108 95.742487 
L 137.114791 119.03396 
L 138.853474 113.149059 
L 140.592156 80.209923 
L 142.330839 88.433922 
L 144.069521 88.434812 
L 145.808204 80.195066 
L 147.546887 97.730026 
L 149.285569 88.962414 
L 151.024252 88.958006 
L 152.762935 89.250303 
L 157.978983 89.265028 
L 159.717665 80.205634 
L 163.195031 80.222489 
L 164.933713 98.967215 
L 166.672396 89.935537 
L 168.411079 119.036316 
L 170.149761 89.914416 
L 171.888444 80.214515 
L 175.365809 80.20998 
L 177.104492 90.275974 
L 178.843174 80.210784 
L 184.059222 80.407158 
L 185.797905 91.711288 
L 187.536588 125.546854 
L 189.27527 92.758086 
L 191.013953 80.395577 
L 192.752636 92.852517 
L 194.491318 92.750511 
L 196.230001 80.397403 
L 197.968683 80.408588 
L 199.707366 106.29257 
L 201.446049 93.144638 
L 203.184731 93.345144 
L 204.923414 80.413856 
L 206.662097 94.002947 
L 208.400779 94.002947 
L 210.139462 80.44601 
L 211.878145 80.460367 
L 213.616827 80.20527 
L 222.31024 80.21476 
L 224.048923 97.201123 
L 225.787606 80.219034 
L 227.526288 80.381885 
L 232.742336 80.501618 
L 236.219702 80.553342 
L 237.958384 114.526069 
L 239.697067 80.203854 
L 244.913115 80.203854 
L 246.651798 114.176581 
L 248.39048 80.451823 
L 250.129163 114.42455 
L 251.867845 80.479159 
L 253.606528 80.205963 
L 255.345211 80.189091 
L 257.083893 80.468281 
L 260.561259 80.424423 
L 262.299941 80.191316 
L 304.028325 80.24006 
L 305.767007 134.618242 
L 307.50569 80.261879 
L 321.415151 80.21091 
L 323.153834 134.545455 
L 324.892517 134.545455 
L 326.631199 80.189091 
L 387.485092 80.189091 
L 389.223774 170.78303 
L 390.962457 80.189091 
L 394.439822 80.189091 
L 396.178505 80.688965 
L 401.394553 80.688965 
L 403.133236 80.189091 
L 404.871918 80.747547 
L 420.520062 80.791341 
L 422.258745 80.227504 
L 427.474793 80.227942 
L 429.213475 170.78303 
L 430.952158 80.227942 
L 465.725811 80.189091 
L 467.464493 170.78303 
L 469.203176 80.189091 
L 470.941859 80.189091 
L 472.680541 80.483183 
L 474.419224 80.483183 
L 477.896589 80.189091 
L 507.454194 80.189091 
L 507.454194 80.189091 
" style="fill:none;stroke:#8c564b;stroke-linecap:square;stroke-width:1.5;"/>
   </g>
   <g id="line2d_22">
    <path clip-path="url(#pb5ab2117bb)" d="M 72.783533 351.970909 
L 74.522216 297.614545 
L 76.260898 281.307636 
L 77.999581 256.847273 
L 79.738264 265.000727 
L 81.476946 251.410926 
L 83.215629 245.976 
L 84.954312 243.257472 
L 86.692994 237.830975 
L 88.431677 245.983672 
L 90.17036 235.111375 
L 91.909042 227.198016 
L 93.647725 241.064564 
L 95.386407 243.831988 
L 97.12509 236.32239 
L 98.863773 224.752626 
L 100.602455 233.439326 
L 102.341138 227.695634 
L 104.079821 239.229848 
L 105.818503 230.889224 
L 107.557186 227.953612 
L 109.295869 233.881181 
L 111.034551 225.027033 
L 112.773234 230.930453 
L 114.511917 231.249649 
L 116.250599 234.271048 
L 117.989282 228.797306 
L 119.727964 219.319598 
L 121.466647 225.655257 
L 123.20533 222.621281 
L 124.944012 232.332326 
L 126.682695 222.967065 
L 128.421378 219.548549 
L 130.16006 233.583091 
L 131.898743 223.28475 
L 133.637426 223.687877 
L 135.376108 223.905978 
L 137.114791 235.571599 
L 138.853474 232.611852 
L 140.592156 216.16098 
L 142.330839 220.282486 
L 144.069521 220.280167 
L 145.808204 216.180995 
L 147.546887 224.89072 
L 149.285569 220.496864 
L 151.024252 220.477959 
L 152.762935 220.625905 
L 157.978983 220.690264 
L 159.717665 216.160431 
L 163.195031 216.088626 
L 164.933713 225.465017 
L 166.672396 220.948194 
L 168.411079 235.500729 
L 170.149761 220.934988 
L 171.888444 216.085197 
L 175.365809 216.076626 
L 177.104492 221.114873 
L 178.843174 216.115532 
L 184.059222 216.088641 
L 185.797905 221.772393 
L 187.536588 238.753812 
L 189.27527 222.325091 
L 191.013953 216.144429 
L 192.752636 222.313373 
L 194.491318 222.319318 
L 196.230001 216.155153 
L 197.968683 216.149711 
L 199.707366 229.05159 
L 201.446049 222.553898 
L 203.184731 222.555762 
L 204.923414 216.085005 
L 206.662097 222.90382 
L 208.400779 222.915277 
L 210.139462 216.107408 
L 222.31024 216.069226 
L 224.048923 224.564155 
L 225.787606 216.064124 
L 236.219702 216.034863 
L 237.958384 233.021227 
L 239.697067 216.066653 
L 243.174432 216.165922 
L 244.913115 216.37978 
L 246.651798 233.366143 
L 248.39048 216.35723 
L 250.129163 233.267141 
L 251.867845 216.135453 
L 257.083893 216.165914 
L 276.209402 216.09559 
L 277.948085 216.53202 
L 279.686768 216.535187 
L 281.42545 216.068218 
L 304.028325 216.08 
L 305.767007 243.314842 
L 307.50569 216.08 
L 312.721738 216.069723 
L 314.460421 216.559129 
L 321.415151 216.563706 
L 323.153834 243.741888 
L 324.892517 243.741438 
L 326.631199 216.563706 
L 344.018026 216.550718 
L 345.756708 216.69726 
L 347.495391 216.665865 
L 349.234074 216.077181 
L 356.188804 216.04757 
L 366.6209 216.069614 
L 387.485092 216.08554 
L 389.223774 261.382509 
L 390.962457 216.08554 
L 417.042697 216.08 
L 418.781379 215.92859 
L 427.474793 215.92859 
L 429.213475 261.22556 
L 430.952158 215.92859 
L 441.384254 215.983657 
L 444.861619 216.101841 
L 465.725811 216.08 
L 467.464493 261.37697 
L 469.203176 216.08 
L 507.454194 216.08 
L 507.454194 216.08 
" style="fill:none;stroke:#e377c2;stroke-linecap:square;stroke-width:1.5;"/>
   </g>
   <g id="line2d_23">
    <path clip-path="url(#pb5ab2117bb)" d="M 72.783533 351.970909 
L 74.522216 297.614545 
L 76.260898 281.307636 
L 77.999581 256.847273 
L 79.738264 265.007372 
L 81.476946 251.413309 
L 83.215629 245.987936 
L 84.954312 243.272956 
L 86.692994 237.832189 
L 88.431677 245.985968 
L 90.17036 235.114298 
L 91.909042 227.183121 
L 93.647725 241.064384 
L 95.386407 243.833949 
L 97.12509 236.340639 
L 98.863773 224.787671 
L 100.602455 233.445563 
L 102.341138 227.678149 
L 104.079821 239.221694 
L 105.818503 230.895565 
L 107.557186 227.922342 
L 109.295869 233.822774 
L 111.034551 224.959665 
L 112.773234 230.884306 
L 114.511917 231.213093 
L 116.250599 234.195645 
L 117.989282 228.779247 
L 119.727964 219.287695 
L 121.466647 225.605159 
L 123.20533 222.607626 
L 124.944012 232.309921 
L 126.682695 222.917488 
L 128.421378 219.521141 
L 130.16006 233.543272 
L 131.898743 223.267683 
L 133.637426 223.612684 
L 135.376108 223.83409 
L 137.114791 235.49285 
L 138.853474 232.541577 
L 140.592156 216.066149 
L 142.330839 220.184655 
L 144.069521 220.20153 
L 145.808204 216.091229 
L 147.546887 224.860103 
L 149.285569 220.466262 
L 151.024252 220.473883 
L 152.762935 220.597885 
L 157.978983 220.61818 
L 159.717665 216.094784 
L 163.195031 216.071133 
L 164.933713 225.444821 
L 166.672396 220.927518 
L 168.411079 235.484736 
L 170.149761 220.910052 
L 171.888444 216.09204 
L 175.365809 216.10143 
L 177.104492 221.142062 
L 178.843174 216.101868 
L 184.059222 216.10083 
L 185.797905 221.76331 
L 187.536588 238.752891 
L 189.27527 222.286832 
L 191.013953 216.110368 
L 192.752636 222.279311 
L 194.491318 222.261586 
L 196.230001 216.126367 
L 197.968683 216.126696 
L 199.707366 229.065182 
L 201.446049 222.59715 
L 203.184731 222.577014 
L 204.923414 216.107319 
L 206.662097 222.905604 
L 208.400779 223.105674 
L 210.139462 216.296753 
L 211.878145 216.344914 
L 213.616827 216.057781 
L 222.31024 216.07404 
L 224.048923 224.789102 
L 225.787606 216.307778 
L 232.742336 216.464713 
L 234.481019 216.241063 
L 236.219702 216.234501 
L 237.958384 233.03926 
L 239.697067 216.324547 
L 244.913115 216.296987 
L 246.651798 233.28335 
L 248.39048 216.274406 
L 250.129163 233.26077 
L 251.867845 216.274406 
L 253.606528 216.338129 
L 255.345211 216.067907 
L 264.038624 216.075557 
L 265.777307 216.232476 
L 276.209402 216.13649 
L 283.164133 216.110772 
L 295.334912 216.097293 
L 304.028325 216.13138 
L 305.767007 243.309561 
L 307.50569 216.13138 
L 321.415151 216.140903 
L 323.153834 244.725465 
L 324.892517 243.267705 
L 326.631199 216.097913 
L 331.847247 216.136068 
L 333.58593 216.092705 
L 335.324612 216.232022 
L 342.279343 216.12949 
L 349.234074 216.154593 
L 352.711439 216.124127 
L 356.188804 216.04757 
L 366.6209 216.069614 
L 385.746409 216.081726 
L 387.485092 216.080616 
L 389.223774 261.377586 
L 390.962457 216.179601 
L 394.439822 216.082074 
L 404.871918 216.061141 
L 422.258745 215.92859 
L 423.997427 216.202927 
L 425.73611 216.202927 
L 427.474793 215.92859 
L 429.213475 261.22556 
L 430.952158 215.933593 
L 436.168206 215.98866 
L 437.906888 216.194635 
L 441.384254 216.216359 
L 444.861619 216.312218 
L 448.338984 216.312218 
L 450.077667 216.08 
L 465.725811 216.08 
L 467.464493 261.37697 
L 469.203176 216.08 
L 507.454194 216.08 
L 507.454194 216.08 
" style="fill:none;stroke:#7f7f7f;stroke-linecap:square;stroke-width:1.5;"/>
   </g>
   <g id="patch_3">
    <path d="M 51.05 365.56 
L 51.05 66.6 
" style="fill:none;stroke:#000000;stroke-linecap:square;stroke-linejoin:miter;stroke-width:0.8;"/>
   </g>
   <g id="patch_4">
    <path d="M 529.187727 365.56 
L 529.187727 66.6 
" style="fill:none;stroke:#000000;stroke-linecap:square;stroke-linejoin:miter;stroke-width:0.8;"/>
   </g>
   <g id="patch_5">
    <path d="M 51.05 365.56 
L 529.187727 365.56 
" style="fill:none;stroke:#000000;stroke-linecap:square;stroke-linejoin:miter;stroke-width:0.8;"/>
   </g>
   <g id="patch_6">
    <path d="M 51.05 66.6 
L 529.187727 66.6 
" style="fill:none;stroke:#000000;stroke-linecap:square;stroke-linejoin:miter;stroke-width:0.8;"/>
   </g>
   <g id="legend_1">
    <g id="patch_7">
     <path d="M 61.55 59.1 
L 518.687727 59.1 
Q 521.687727 59.1 521.687727 56.1 
L 521.687727 13.565625 
Q 521.687727 10.565625 518.687727 10.565625 
L 61.55 10.565625 
Q 58.55 10.565625 58.55 13.565625 
L 58.55 56.1 
Q 58.55 59.1 61.55 59.1 
z
" style="fill:#ffffff;opacity:0.8;stroke:#cccccc;stroke-linejoin:miter;"/>
    </g>
    <g id="line2d_24">
     <path d="M 64.55 22.713281 
L 94.55 22.713281 
" style="fill:none;stroke:#1f77b4;stroke-linecap:square;stroke-width:1.5;"/>
    </g>
    <g id="line2d_25"/>
    <g id="text_18">
     <!-- Stra 1 -->
     <defs>
      <path d="M 53.515625 70.515625 
L 53.515625 60.890625 
Q 47.90625 63.578125 42.921875 64.890625 
Q 37.9375 66.21875 33.296875 66.21875 
Q 25.25 66.21875 20.875 63.09375 
Q 16.5 59.96875 16.5 54.203125 
Q 16.5 49.359375 19.40625 46.890625 
Q 22.3125 44.4375 30.421875 42.921875 
L 36.375 41.703125 
Q 47.40625 39.59375 52.65625 34.296875 
Q 57.90625 29 57.90625 20.125 
Q 57.90625 9.515625 50.796875 4.046875 
Q 43.703125 -1.421875 29.984375 -1.421875 
Q 24.8125 -1.421875 18.96875 -0.25 
Q 13.140625 0.921875 6.890625 3.21875 
L 6.890625 13.375 
Q 12.890625 10.015625 18.65625 8.296875 
Q 24.421875 6.59375 29.984375 6.59375 
Q 38.421875 6.59375 43.015625 9.90625 
Q 47.609375 13.234375 47.609375 19.390625 
Q 47.609375 24.75 44.3125 27.78125 
Q 41.015625 30.8125 33.5 32.328125 
L 27.484375 33.5 
Q 16.453125 35.6875 11.515625 40.375 
Q 6.59375 45.0625 6.59375 53.421875 
Q 6.59375 63.09375 13.40625 68.65625 
Q 20.21875 74.21875 32.171875 74.21875 
Q 37.3125 74.21875 42.625 73.28125 
Q 47.953125 72.359375 53.515625 70.515625 
z
" id="DejaVuSans-83"/>
      <path d="M 18.3125 70.21875 
L 18.3125 54.6875 
L 36.8125 54.6875 
L 36.8125 47.703125 
L 18.3125 47.703125 
L 18.3125 18.015625 
Q 18.3125 11.328125 20.140625 9.421875 
Q 21.96875 7.515625 27.59375 7.515625 
L 36.8125 7.515625 
L 36.8125 0 
L 27.59375 0 
Q 17.1875 0 13.234375 3.875 
Q 9.28125 7.765625 9.28125 18.015625 
L 9.28125 47.703125 
L 2.6875 47.703125 
L 2.6875 54.6875 
L 9.28125 54.6875 
L 9.28125 70.21875 
z
" id="DejaVuSans-116"/>
      <path d="M 41.109375 46.296875 
Q 39.59375 47.171875 37.8125 47.578125 
Q 36.03125 48 33.890625 48 
Q 26.265625 48 22.1875 43.046875 
Q 18.109375 38.09375 18.109375 28.8125 
L 18.109375 0 
L 9.078125 0 
L 9.078125 54.6875 
L 18.109375 54.6875 
L 18.109375 46.1875 
Q 20.953125 51.171875 25.484375 53.578125 
Q 30.03125 56 36.53125 56 
Q 37.453125 56 38.578125 55.875 
Q 39.703125 55.765625 41.0625 55.515625 
z
" id="DejaVuSans-114"/>
     </defs>
     <g transform="translate(106.55 27.963281)scale(0.15 -0.15)">
      <use xlink:href="#DejaVuSans-83"/>
      <use x="63.476562" xlink:href="#DejaVuSans-116"/>
      <use x="102.685547" xlink:href="#DejaVuSans-114"/>
      <use x="143.798828" xlink:href="#DejaVuSans-97"/>
      <use x="205.078125" xlink:href="#DejaVuSans-32"/>
      <use x="236.865234" xlink:href="#DejaVuSans-49"/>
     </g>
    </g>
    <g id="line2d_26">
     <path d="M 64.55 44.730469 
L 94.55 44.730469 
" style="fill:none;stroke:#ff7f0e;stroke-linecap:square;stroke-width:1.5;"/>
    </g>
    <g id="line2d_27"/>
    <g id="text_19">
     <!-- Stra 2 -->
     <g transform="translate(106.55 49.980469)scale(0.15 -0.15)">
      <use xlink:href="#DejaVuSans-83"/>
      <use x="63.476562" xlink:href="#DejaVuSans-116"/>
      <use x="102.685547" xlink:href="#DejaVuSans-114"/>
      <use x="143.798828" xlink:href="#DejaVuSans-97"/>
      <use x="205.078125" xlink:href="#DejaVuSans-32"/>
      <use x="236.865234" xlink:href="#DejaVuSans-50"/>
     </g>
    </g>
    <g id="line2d_28">
     <path d="M 185.905024 22.713281 
L 215.905024 22.713281 
" style="fill:none;stroke:#2ca02c;stroke-linecap:square;stroke-width:1.5;"/>
    </g>
    <g id="line2d_29"/>
    <g id="text_20">
     <!-- Stra 3 -->
     <g transform="translate(227.905024 27.963281)scale(0.15 -0.15)">
      <use xlink:href="#DejaVuSans-83"/>
      <use x="63.476562" xlink:href="#DejaVuSans-116"/>
      <use x="102.685547" xlink:href="#DejaVuSans-114"/>
      <use x="143.798828" xlink:href="#DejaVuSans-97"/>
      <use x="205.078125" xlink:href="#DejaVuSans-32"/>
      <use x="236.865234" xlink:href="#DejaVuSans-51"/>
     </g>
    </g>
    <g id="line2d_30">
     <path d="M 185.905024 44.730469 
L 215.905024 44.730469 
" style="fill:none;stroke:#d62728;stroke-linecap:square;stroke-width:1.5;"/>
    </g>
    <g id="line2d_31"/>
    <g id="text_21">
     <!-- Stra 4 -->
     <g transform="translate(227.905024 49.980469)scale(0.15 -0.15)">
      <use xlink:href="#DejaVuSans-83"/>
      <use x="63.476562" xlink:href="#DejaVuSans-116"/>
      <use x="102.685547" xlink:href="#DejaVuSans-114"/>
      <use x="143.798828" xlink:href="#DejaVuSans-97"/>
      <use x="205.078125" xlink:href="#DejaVuSans-32"/>
      <use x="236.865234" xlink:href="#DejaVuSans-52"/>
     </g>
    </g>
    <g id="line2d_32">
     <path d="M 307.260047 22.713281 
L 337.260047 22.713281 
" style="fill:none;stroke:#9467bd;stroke-linecap:square;stroke-width:1.5;"/>
    </g>
    <g id="line2d_33"/>
    <g id="text_22">
     <!-- Stra 5 -->
     <g transform="translate(349.260047 27.963281)scale(0.15 -0.15)">
      <use xlink:href="#DejaVuSans-83"/>
      <use x="63.476562" xlink:href="#DejaVuSans-116"/>
      <use x="102.685547" xlink:href="#DejaVuSans-114"/>
      <use x="143.798828" xlink:href="#DejaVuSans-97"/>
      <use x="205.078125" xlink:href="#DejaVuSans-32"/>
      <use x="236.865234" xlink:href="#DejaVuSans-53"/>
     </g>
    </g>
    <g id="line2d_34">
     <path d="M 307.260047 44.730469 
L 337.260047 44.730469 
" style="fill:none;stroke:#8c564b;stroke-linecap:square;stroke-width:1.5;"/>
    </g>
    <g id="line2d_35"/>
    <g id="text_23">
     <!-- Stra 6 -->
     <g transform="translate(349.260047 49.980469)scale(0.15 -0.15)">
      <use xlink:href="#DejaVuSans-83"/>
      <use x="63.476562" xlink:href="#DejaVuSans-116"/>
      <use x="102.685547" xlink:href="#DejaVuSans-114"/>
      <use x="143.798828" xlink:href="#DejaVuSans-97"/>
      <use x="205.078125" xlink:href="#DejaVuSans-32"/>
      <use x="236.865234" xlink:href="#DejaVuSans-54"/>
     </g>
    </g>
    <g id="line2d_36">
     <path d="M 428.615071 22.713281 
L 458.615071 22.713281 
" style="fill:none;stroke:#e377c2;stroke-linecap:square;stroke-width:1.5;"/>
    </g>
    <g id="line2d_37"/>
    <g id="text_24">
     <!-- Stra 7 -->
     <g transform="translate(470.615071 27.963281)scale(0.15 -0.15)">
      <use xlink:href="#DejaVuSans-83"/>
      <use x="63.476562" xlink:href="#DejaVuSans-116"/>
      <use x="102.685547" xlink:href="#DejaVuSans-114"/>
      <use x="143.798828" xlink:href="#DejaVuSans-97"/>
      <use x="205.078125" xlink:href="#DejaVuSans-32"/>
      <use x="236.865234" xlink:href="#DejaVuSans-55"/>
     </g>
    </g>
    <g id="line2d_38">
     <path d="M 428.615071 44.730469 
L 458.615071 44.730469 
" style="fill:none;stroke:#7f7f7f;stroke-linecap:square;stroke-width:1.5;"/>
    </g>
    <g id="line2d_39"/>
    <g id="text_25">
     <!-- Stra 8 -->
     <g transform="translate(470.615071 49.980469)scale(0.15 -0.15)">
      <use xlink:href="#DejaVuSans-83"/>
      <use x="63.476562" xlink:href="#DejaVuSans-116"/>
      <use x="102.685547" xlink:href="#DejaVuSans-114"/>
      <use x="143.798828" xlink:href="#DejaVuSans-97"/>
      <use x="205.078125" xlink:href="#DejaVuSans-32"/>
      <use x="236.865234" xlink:href="#DejaVuSans-56"/>
     </g>
    </g>
   </g>
  </g>
 </g>
 <defs>
  <clipPath id="pb5ab2117bb">
   <rect height="298.96" width="478.137727" x="51.05" y="66.6"/>
  </clipPath>
 </defs>
</svg>
