<?xml version="1.0" encoding="utf-8" standalone="no"?>
<!DOCTYPE svg PUBLIC "-//W3C//DTD SVG 1.1//EN"
  "http://www.w3.org/Graphics/SVG/1.1/DTD/svg11.dtd">
<!-- Created with matplotlib (https://matplotlib.org/) -->
<svg height="432pt" version="1.1" viewBox="0 0 540 432" width="540pt" xmlns="http://www.w3.org/2000/svg" xmlns:xlink="http://www.w3.org/1999/xlink">
 <defs>
  <style type="text/css">
*{stroke-linecap:butt;stroke-linejoin:round;}
  </style>
 </defs>
 <g id="figure_1">
  <g id="patch_1">
   <path d="M 0 432 
L 540 432 
L 540 0 
L 0 0 
z
" style="fill:#ffffff;"/>
  </g>
  <g id="axes_1">
   <g id="patch_2">
    <path d="M 67.5 384.48 
L 486 384.48 
L 486 51.84 
L 67.5 51.84 
z
" style="fill:#ffffff;"/>
   </g>
   <g id="matplotlib.axis_1">
    <g id="xtick_1">
     <g id="line2d_1">
      <defs>
       <path d="M 0 0 
L 0 3.5 
" id="mf6041e10b8" style="stroke:#000000;stroke-width:0.8;"/>
      </defs>
      <g>
       <use style="stroke:#000000;stroke-width:0.8;" x="86.522727" xlink:href="#mf6041e10b8" y="384.48"/>
      </g>
     </g>
     <g id="text_1">
      <!-- 0 -->
      <defs>
       <path d="M 31.78125 66.40625 
Q 24.171875 66.40625 20.328125 58.90625 
Q 16.5 51.421875 16.5 36.375 
Q 16.5 21.390625 20.328125 13.890625 
Q 24.171875 6.390625 31.78125 6.390625 
Q 39.453125 6.390625 43.28125 13.890625 
Q 47.125 21.390625 47.125 36.375 
Q 47.125 51.421875 43.28125 58.90625 
Q 39.453125 66.40625 31.78125 66.40625 
z
M 31.78125 74.21875 
Q 44.046875 74.21875 50.515625 64.515625 
Q 56.984375 54.828125 56.984375 36.375 
Q 56.984375 17.96875 50.515625 8.265625 
Q 44.046875 -1.421875 31.78125 -1.421875 
Q 19.53125 -1.421875 13.0625 8.265625 
Q 6.59375 17.96875 6.59375 36.375 
Q 6.59375 54.828125 13.0625 64.515625 
Q 19.53125 74.21875 31.78125 74.21875 
z
" id="DejaVuSans-48"/>
      </defs>
      <g transform="translate(83.341477 399.078438)scale(0.1 -0.1)">
       <use xlink:href="#DejaVuSans-48"/>
      </g>
     </g>
    </g>
    <g id="xtick_2">
     <g id="line2d_2">
      <g>
       <use style="stroke:#000000;stroke-width:0.8;" x="143.222361" xlink:href="#mf6041e10b8" y="384.48"/>
      </g>
     </g>
     <g id="text_2">
      <!-- 200 -->
      <defs>
       <path d="M 19.1875 8.296875 
L 53.609375 8.296875 
L 53.609375 0 
L 7.328125 0 
L 7.328125 8.296875 
Q 12.9375 14.109375 22.625 23.890625 
Q 32.328125 33.6875 34.8125 36.53125 
Q 39.546875 41.84375 41.421875 45.53125 
Q 43.3125 49.21875 43.3125 52.78125 
Q 43.3125 58.59375 39.234375 62.25 
Q 35.15625 65.921875 28.609375 65.921875 
Q 23.96875 65.921875 18.8125 64.3125 
Q 13.671875 62.703125 7.8125 59.421875 
L 7.8125 69.390625 
Q 13.765625 71.78125 18.9375 73 
Q 24.125 74.21875 28.421875 74.21875 
Q 39.75 74.21875 46.484375 68.546875 
Q 53.21875 62.890625 53.21875 53.421875 
Q 53.21875 48.921875 51.53125 44.890625 
Q 49.859375 40.875 45.40625 35.40625 
Q 44.1875 33.984375 37.640625 27.21875 
Q 31.109375 20.453125 19.1875 8.296875 
z
" id="DejaVuSans-50"/>
      </defs>
      <g transform="translate(133.678611 399.078438)scale(0.1 -0.1)">
       <use xlink:href="#DejaVuSans-50"/>
       <use x="63.623047" xlink:href="#DejaVuSans-48"/>
       <use x="127.246094" xlink:href="#DejaVuSans-48"/>
      </g>
     </g>
    </g>
    <g id="xtick_3">
     <g id="line2d_3">
      <g>
       <use style="stroke:#000000;stroke-width:0.8;" x="199.921996" xlink:href="#mf6041e10b8" y="384.48"/>
      </g>
     </g>
     <g id="text_3">
      <!-- 400 -->
      <defs>
       <path d="M 37.796875 64.3125 
L 12.890625 25.390625 
L 37.796875 25.390625 
z
M 35.203125 72.90625 
L 47.609375 72.90625 
L 47.609375 25.390625 
L 58.015625 25.390625 
L 58.015625 17.1875 
L 47.609375 17.1875 
L 47.609375 0 
L 37.796875 0 
L 37.796875 17.1875 
L 4.890625 17.1875 
L 4.890625 26.703125 
z
" id="DejaVuSans-52"/>
      </defs>
      <g transform="translate(190.378246 399.078438)scale(0.1 -0.1)">
       <use xlink:href="#DejaVuSans-52"/>
       <use x="63.623047" xlink:href="#DejaVuSans-48"/>
       <use x="127.246094" xlink:href="#DejaVuSans-48"/>
      </g>
     </g>
    </g>
    <g id="xtick_4">
     <g id="line2d_4">
      <g>
       <use style="stroke:#000000;stroke-width:0.8;" x="256.62163" xlink:href="#mf6041e10b8" y="384.48"/>
      </g>
     </g>
     <g id="text_4">
      <!-- 600 -->
      <defs>
       <path d="M 33.015625 40.375 
Q 26.375 40.375 22.484375 35.828125 
Q 18.609375 31.296875 18.609375 23.390625 
Q 18.609375 15.53125 22.484375 10.953125 
Q 26.375 6.390625 33.015625 6.390625 
Q 39.65625 6.390625 43.53125 10.953125 
Q 47.40625 15.53125 47.40625 23.390625 
Q 47.40625 31.296875 43.53125 35.828125 
Q 39.65625 40.375 33.015625 40.375 
z
M 52.59375 71.296875 
L 52.59375 62.3125 
Q 48.875 64.0625 45.09375 64.984375 
Q 41.3125 65.921875 37.59375 65.921875 
Q 27.828125 65.921875 22.671875 59.328125 
Q 17.53125 52.734375 16.796875 39.40625 
Q 19.671875 43.65625 24.015625 45.921875 
Q 28.375 48.1875 33.59375 48.1875 
Q 44.578125 48.1875 50.953125 41.515625 
Q 57.328125 34.859375 57.328125 23.390625 
Q 57.328125 12.15625 50.6875 5.359375 
Q 44.046875 -1.421875 33.015625 -1.421875 
Q 20.359375 -1.421875 13.671875 8.265625 
Q 6.984375 17.96875 6.984375 36.375 
Q 6.984375 53.65625 15.1875 63.9375 
Q 23.390625 74.21875 37.203125 74.21875 
Q 40.921875 74.21875 44.703125 73.484375 
Q 48.484375 72.75 52.59375 71.296875 
z
" id="DejaVuSans-54"/>
      </defs>
      <g transform="translate(247.07788 399.078438)scale(0.1 -0.1)">
       <use xlink:href="#DejaVuSans-54"/>
       <use x="63.623047" xlink:href="#DejaVuSans-48"/>
       <use x="127.246094" xlink:href="#DejaVuSans-48"/>
      </g>
     </g>
    </g>
    <g id="xtick_5">
     <g id="line2d_5">
      <g>
       <use style="stroke:#000000;stroke-width:0.8;" x="313.321264" xlink:href="#mf6041e10b8" y="384.48"/>
      </g>
     </g>
     <g id="text_5">
      <!-- 800 -->
      <defs>
       <path d="M 31.78125 34.625 
Q 24.75 34.625 20.71875 30.859375 
Q 16.703125 27.09375 16.703125 20.515625 
Q 16.703125 13.921875 20.71875 10.15625 
Q 24.75 6.390625 31.78125 6.390625 
Q 38.8125 6.390625 42.859375 10.171875 
Q 46.921875 13.96875 46.921875 20.515625 
Q 46.921875 27.09375 42.890625 30.859375 
Q 38.875 34.625 31.78125 34.625 
z
M 21.921875 38.8125 
Q 15.578125 40.375 12.03125 44.71875 
Q 8.5 49.078125 8.5 55.328125 
Q 8.5 64.0625 14.71875 69.140625 
Q 20.953125 74.21875 31.78125 74.21875 
Q 42.671875 74.21875 48.875 69.140625 
Q 55.078125 64.0625 55.078125 55.328125 
Q 55.078125 49.078125 51.53125 44.71875 
Q 48 40.375 41.703125 38.8125 
Q 48.828125 37.15625 52.796875 32.3125 
Q 56.78125 27.484375 56.78125 20.515625 
Q 56.78125 9.90625 50.3125 4.234375 
Q 43.84375 -1.421875 31.78125 -1.421875 
Q 19.734375 -1.421875 13.25 4.234375 
Q 6.78125 9.90625 6.78125 20.515625 
Q 6.78125 27.484375 10.78125 32.3125 
Q 14.796875 37.15625 21.921875 38.8125 
z
M 18.3125 54.390625 
Q 18.3125 48.734375 21.84375 45.5625 
Q 25.390625 42.390625 31.78125 42.390625 
Q 38.140625 42.390625 41.71875 45.5625 
Q 45.3125 48.734375 45.3125 54.390625 
Q 45.3125 60.0625 41.71875 63.234375 
Q 38.140625 66.40625 31.78125 66.40625 
Q 25.390625 66.40625 21.84375 63.234375 
Q 18.3125 60.0625 18.3125 54.390625 
z
" id="DejaVuSans-56"/>
      </defs>
      <g transform="translate(303.777514 399.078438)scale(0.1 -0.1)">
       <use xlink:href="#DejaVuSans-56"/>
       <use x="63.623047" xlink:href="#DejaVuSans-48"/>
       <use x="127.246094" xlink:href="#DejaVuSans-48"/>
      </g>
     </g>
    </g>
    <g id="xtick_6">
     <g id="line2d_6">
      <g>
       <use style="stroke:#000000;stroke-width:0.8;" x="370.020898" xlink:href="#mf6041e10b8" y="384.48"/>
      </g>
     </g>
     <g id="text_6">
      <!-- 1000 -->
      <defs>
       <path d="M 12.40625 8.296875 
L 28.515625 8.296875 
L 28.515625 63.921875 
L 10.984375 60.40625 
L 10.984375 69.390625 
L 28.421875 72.90625 
L 38.28125 72.90625 
L 38.28125 8.296875 
L 54.390625 8.296875 
L 54.390625 0 
L 12.40625 0 
z
" id="DejaVuSans-49"/>
      </defs>
      <g transform="translate(357.295898 399.078438)scale(0.1 -0.1)">
       <use xlink:href="#DejaVuSans-49"/>
       <use x="63.623047" xlink:href="#DejaVuSans-48"/>
       <use x="127.246094" xlink:href="#DejaVuSans-48"/>
       <use x="190.869141" xlink:href="#DejaVuSans-48"/>
      </g>
     </g>
    </g>
    <g id="xtick_7">
     <g id="line2d_7">
      <g>
       <use style="stroke:#000000;stroke-width:0.8;" x="426.720532" xlink:href="#mf6041e10b8" y="384.48"/>
      </g>
     </g>
     <g id="text_7">
      <!-- 1200 -->
      <g transform="translate(413.995532 399.078438)scale(0.1 -0.1)">
       <use xlink:href="#DejaVuSans-49"/>
       <use x="63.623047" xlink:href="#DejaVuSans-50"/>
       <use x="127.246094" xlink:href="#DejaVuSans-48"/>
       <use x="190.869141" xlink:href="#DejaVuSans-48"/>
      </g>
     </g>
    </g>
    <g id="xtick_8">
     <g id="line2d_8">
      <g>
       <use style="stroke:#000000;stroke-width:0.8;" x="483.420167" xlink:href="#mf6041e10b8" y="384.48"/>
      </g>
     </g>
     <g id="text_8">
      <!-- 1400 -->
      <g transform="translate(470.695167 399.078438)scale(0.1 -0.1)">
       <use xlink:href="#DejaVuSans-49"/>
       <use x="63.623047" xlink:href="#DejaVuSans-52"/>
       <use x="127.246094" xlink:href="#DejaVuSans-48"/>
       <use x="190.869141" xlink:href="#DejaVuSans-48"/>
      </g>
     </g>
    </g>
   </g>
   <g id="matplotlib.axis_2">
    <g id="ytick_1">
     <g id="line2d_9">
      <defs>
       <path d="M 0 0 
L -3.5 0 
" id="mbf4088a7c7" style="stroke:#000000;stroke-width:0.8;"/>
      </defs>
      <g>
       <use style="stroke:#000000;stroke-width:0.8;" x="67.5" xlink:href="#mbf4088a7c7" y="369.36"/>
      </g>
     </g>
     <g id="text_9">
      <!-- 0.0 -->
      <defs>
       <path d="M 10.6875 12.40625 
L 21 12.40625 
L 21 0 
L 10.6875 0 
z
" id="DejaVuSans-46"/>
      </defs>
      <g transform="translate(44.596875 373.159219)scale(0.1 -0.1)">
       <use xlink:href="#DejaVuSans-48"/>
       <use x="63.623047" xlink:href="#DejaVuSans-46"/>
       <use x="95.410156" xlink:href="#DejaVuSans-48"/>
      </g>
     </g>
    </g>
    <g id="ytick_2">
     <g id="line2d_10">
      <g>
       <use style="stroke:#000000;stroke-width:0.8;" x="67.5" xlink:href="#mbf4088a7c7" y="308.88"/>
      </g>
     </g>
     <g id="text_10">
      <!-- 0.2 -->
      <g transform="translate(44.596875 312.679219)scale(0.1 -0.1)">
       <use xlink:href="#DejaVuSans-48"/>
       <use x="63.623047" xlink:href="#DejaVuSans-46"/>
       <use x="95.410156" xlink:href="#DejaVuSans-50"/>
      </g>
     </g>
    </g>
    <g id="ytick_3">
     <g id="line2d_11">
      <g>
       <use style="stroke:#000000;stroke-width:0.8;" x="67.5" xlink:href="#mbf4088a7c7" y="248.4"/>
      </g>
     </g>
     <g id="text_11">
      <!-- 0.4 -->
      <g transform="translate(44.596875 252.199219)scale(0.1 -0.1)">
       <use xlink:href="#DejaVuSans-48"/>
       <use x="63.623047" xlink:href="#DejaVuSans-46"/>
       <use x="95.410156" xlink:href="#DejaVuSans-52"/>
      </g>
     </g>
    </g>
    <g id="ytick_4">
     <g id="line2d_12">
      <g>
       <use style="stroke:#000000;stroke-width:0.8;" x="67.5" xlink:href="#mbf4088a7c7" y="187.92"/>
      </g>
     </g>
     <g id="text_12">
      <!-- 0.6 -->
      <g transform="translate(44.596875 191.719219)scale(0.1 -0.1)">
       <use xlink:href="#DejaVuSans-48"/>
       <use x="63.623047" xlink:href="#DejaVuSans-46"/>
       <use x="95.410156" xlink:href="#DejaVuSans-54"/>
      </g>
     </g>
    </g>
    <g id="ytick_5">
     <g id="line2d_13">
      <g>
       <use style="stroke:#000000;stroke-width:0.8;" x="67.5" xlink:href="#mbf4088a7c7" y="127.44"/>
      </g>
     </g>
     <g id="text_13">
      <!-- 0.8 -->
      <g transform="translate(44.596875 131.239219)scale(0.1 -0.1)">
       <use xlink:href="#DejaVuSans-48"/>
       <use x="63.623047" xlink:href="#DejaVuSans-46"/>
       <use x="95.410156" xlink:href="#DejaVuSans-56"/>
      </g>
     </g>
    </g>
    <g id="ytick_6">
     <g id="line2d_14">
      <g>
       <use style="stroke:#000000;stroke-width:0.8;" x="67.5" xlink:href="#mbf4088a7c7" y="66.96"/>
      </g>
     </g>
     <g id="text_14">
      <!-- 1.0 -->
      <g transform="translate(44.596875 70.759219)scale(0.1 -0.1)">
       <use xlink:href="#DejaVuSans-49"/>
       <use x="63.623047" xlink:href="#DejaVuSans-46"/>
       <use x="95.410156" xlink:href="#DejaVuSans-48"/>
      </g>
     </g>
    </g>
   </g>
   <g id="line2d_15">
    <path clip-path="url(#p715ddc613b)" d="M 86.522727 66.96 
L 466.977273 66.96 
L 466.977273 66.96 
" style="fill:none;stroke:#1f77b4;stroke-linecap:square;stroke-width:1.5;"/>
   </g>
   <g id="line2d_16">
    <path clip-path="url(#p715ddc613b)" d="M 86.522727 369.36 
L 86.806225 369.36 
L 87.089724 363.312 
L 87.373222 363.312 
L 88.223716 296.784 
L 88.507214 284.688 
L 88.790713 260.496 
L 89.357709 272.592 
L 89.924705 248.4 
L 90.208203 254.448 
L 90.491702 242.352 
L 90.7752 236.304 
L 91.058698 236.304 
L 91.342196 206.064 
L 91.625694 193.968 
L 91.909193 200.016 
L 92.192691 200.016 
L 92.476189 193.968 
L 92.759687 175.824 
L 93.043185 181.872 
L 93.326683 181.872 
L 93.610182 163.728 
L 93.89368 181.872 
L 94.177178 181.872 
L 94.460676 193.968 
L 94.744174 187.92 
L 95.027672 200.016 
L 95.311171 206.064 
L 95.594669 193.968 
L 95.878167 193.968 
L 96.161665 187.92 
L 96.445163 200.016 
L 96.728661 181.872 
L 97.01216 181.872 
L 97.295658 193.968 
L 97.579156 218.16 
L 97.862654 200.016 
L 98.146152 193.968 
L 98.42965 193.968 
L 98.713149 181.872 
L 99.280145 193.968 
L 99.563643 175.824 
L 99.847141 175.824 
L 100.130639 169.776 
L 100.414138 157.68 
L 100.697636 157.68 
L 100.981134 169.776 
L 101.831629 133.488 
L 102.115127 133.488 
L 102.398625 139.536 
L 102.682123 157.68 
L 102.965621 145.584 
L 103.249119 145.584 
L 103.532618 157.68 
L 104.099614 169.776 
L 104.383112 157.68 
L 104.950108 169.776 
L 105.233607 200.016 
L 105.517105 206.064 
L 105.800603 206.064 
L 106.084101 212.112 
L 106.651097 187.92 
L 106.934596 157.68 
L 107.501592 169.776 
L 108.068588 169.776 
L 108.352086 163.728 
L 108.635585 163.728 
L 109.202581 151.632 
L 109.486079 139.536 
L 109.769577 139.536 
L 110.053075 121.392 
L 110.90357 139.536 
L 111.470566 139.536 
L 111.754064 157.68 
L 112.037563 163.728 
L 112.321061 163.728 
L 112.888057 187.92 
L 113.171555 175.824 
L 113.455054 175.824 
L 113.738552 187.92 
L 114.02205 181.872 
L 114.589046 193.968 
L 114.872544 175.824 
L 115.156043 181.872 
L 115.439541 175.824 
L 115.723039 157.68 
L 116.290035 157.68 
L 116.573533 145.584 
L 117.14053 169.776 
L 117.707526 139.536 
L 117.991024 133.488 
L 118.274522 121.392 
L 118.841519 133.488 
L 119.125017 133.488 
L 119.408515 139.536 
L 119.692013 133.488 
L 119.975511 133.488 
L 120.25901 127.44 
L 120.826006 127.44 
L 121.109504 115.344 
L 121.393002 109.296 
L 121.6765 121.392 
L 121.959999 127.44 
L 122.243497 127.44 
L 122.810493 115.344 
L 123.093991 127.44 
L 123.37749 121.392 
L 123.944486 121.392 
L 124.227984 109.296 
L 124.511482 115.344 
L 124.79498 115.344 
L 125.078479 121.392 
L 125.928973 121.392 
L 127.346464 151.632 
L 127.629962 145.584 
L 128.480457 145.584 
L 128.763955 151.632 
L 129.047453 145.584 
L 129.614449 145.584 
L 129.897947 151.632 
L 130.181446 151.632 
L 130.464944 133.488 
L 131.03194 133.488 
L 131.315438 139.536 
L 131.598936 133.488 
L 131.882435 145.584 
L 132.449431 157.68 
L 132.732929 157.68 
L 133.016427 163.728 
L 133.299925 163.728 
L 133.583424 157.68 
L 133.866922 157.68 
L 134.433918 169.776 
L 134.717416 157.68 
L 135.000915 157.68 
L 135.851409 175.824 
L 136.418405 175.824 
L 136.701904 157.68 
L 136.985402 151.632 
L 137.2689 151.632 
L 138.402893 127.44 
L 138.686391 133.488 
L 138.969889 133.488 
L 139.253387 145.584 
L 139.536885 133.488 
L 139.820383 145.584 
L 140.103882 175.824 
L 140.38738 163.728 
L 140.954376 187.92 
L 141.237874 175.824 
L 141.521372 181.872 
L 141.804871 181.872 
L 142.371867 169.776 
L 142.655365 157.68 
L 142.938863 157.68 
L 143.222361 151.632 
L 143.50586 157.68 
L 143.789358 169.776 
L 144.072856 163.728 
L 144.356354 169.776 
L 144.639852 169.776 
L 144.92335 181.872 
L 145.206849 181.872 
L 145.490347 193.968 
L 145.773845 187.92 
L 146.057343 193.968 
L 146.340841 181.872 
L 146.907838 181.872 
L 147.191336 175.824 
L 147.474834 181.872 
L 147.758332 181.872 
L 148.04183 163.728 
L 148.325329 163.728 
L 148.608827 169.776 
L 148.892325 181.872 
L 149.175823 175.824 
L 149.459321 163.728 
L 149.742819 157.68 
L 150.026318 163.728 
L 150.309816 163.728 
L 150.593314 157.68 
L 150.876812 163.728 
L 151.16031 175.824 
L 151.443808 181.872 
L 151.727307 169.776 
L 152.010805 163.728 
L 152.294303 169.776 
L 152.577801 169.776 
L 152.861299 181.872 
L 153.144797 181.872 
L 153.428296 175.824 
L 153.711794 163.728 
L 153.995292 169.776 
L 154.27879 151.632 
L 154.845786 139.536 
L 155.129285 139.536 
L 155.696281 151.632 
L 155.979779 139.536 
L 156.546776 151.632 
L 156.830274 151.632 
L 157.39727 163.728 
L 157.680768 163.728 
L 157.964266 151.632 
L 158.247765 153.36 
L 158.814761 141.017143 
L 159.098259 141.017143 
L 159.381757 147.188571 
L 159.948754 147.188571 
L 160.51575 134.845714 
L 161.366244 134.845714 
L 161.649743 122.502857 
L 161.933241 116.331429 
L 162.216739 116.331429 
L 162.500237 110.16 
L 163.350732 110.16 
L 163.63423 128.674286 
L 164.201226 141.017143 
L 164.484724 134.845714 
L 164.768222 147.188571 
L 165.051721 165.702857 
L 165.618717 153.36 
L 166.185713 153.36 
L 166.469211 155.16 
L 166.75271 142.56 
L 167.319706 142.56 
L 167.603204 148.86 
L 167.886702 161.46 
L 168.170201 155.16 
L 168.453699 144.168511 
L 168.737197 150.602553 
L 169.020695 161.04 
L 169.304193 161.04 
L 169.587691 167.76 
L 169.87119 167.76 
L 171.28868 135.687273 
L 171.855677 149.432727 
L 172.139175 137.285581 
L 172.422673 144.31814 
L 172.706171 131.76 
L 173.556666 131.76 
L 173.840164 124.56 
L 174.123662 133.340488 
L 174.40716 125.964878 
L 174.690658 142.56 
L 174.974157 150.12 
L 175.257655 150.12 
L 175.541153 142.56 
L 176.391647 142.56 
L 176.675146 150.12 
L 176.958644 150.12 
L 177.242142 172.8 
L 177.52564 152.252308 
L 177.809138 167.76 
L 178.092636 167.76 
L 178.376135 160.006154 
L 178.659633 160.006154 
L 178.943131 152.252308 
L 179.510127 152.252308 
L 179.793626 146.538947 
L 180.077124 146.538947 
L 180.360622 154.496842 
L 180.64412 154.496842 
L 180.927618 162.454737 
L 181.494615 162.454737 
L 181.778113 146.538947 
L 182.061611 146.538947 
L 182.345109 148.68973 
L 182.628607 156.862703 
L 183.7626 156.862703 
L 184.046098 140.516757 
L 184.329596 140.516757 
L 184.896593 156.862703 
L 185.180091 156.862703 
L 185.463589 159.36 
L 185.747087 167.76 
L 186.030585 167.76 
L 186.314083 159.36 
L 186.88108 129.218824 
L 187.448076 149.432727 
L 187.731574 161.46 
L 188.015072 161.46 
L 188.298571 152.01 
L 188.582069 152.01 
L 188.865567 154.753548 
L 189.149065 164.508387 
L 189.716062 144.99871 
L 190.283058 144.99871 
L 190.566556 154.753548 
L 190.850054 144.99871 
L 191.133552 147.6 
L 191.417051 127.44 
L 191.700549 147.6 
L 191.984047 137.52 
L 192.267545 137.52 
L 192.834541 117.36 
L 193.11804 137.52 
L 193.401538 147.6 
L 194.252032 147.6 
L 194.53553 160.808276 
L 194.819029 160.808276 
L 195.102527 153.36 
L 195.386025 164.16 
L 195.669523 164.16 
L 195.953021 156.56 
L 196.236519 156.56 
L 196.520018 145.36 
L 196.803516 156.56 
L 197.087014 145.36 
L 197.370512 122.96 
L 197.65401 122.96 
L 197.937508 134.16 
L 198.221007 122.96 
L 198.504505 122.96 
L 199.071501 100.56 
L 199.354999 100.56 
L 199.638497 90.221538 
L 199.921996 101.852308 
L 200.205494 101.852308 
L 200.488992 115.344 
L 201.055988 115.344 
L 201.339487 127.44 
L 201.622985 129.96 
L 202.189981 158.994783 
L 202.473479 185.290435 
L 203.040476 163.178182 
L 203.323974 167.76 
L 203.607472 182.16 
L 203.89097 182.16 
L 204.174468 153.36 
L 204.457966 142.56 
L 204.741465 127.44 
L 205.024963 130.623158 
L 205.308461 162.454737 
L 206.442454 162.454737 
L 206.725952 178.370526 
L 207.00945 150.96 
L 207.292948 150.96 
L 207.576446 173.689412 
L 208.143443 173.689412 
L 208.426941 138.112941 
L 208.710439 138.112941 
L 208.993937 120.324706 
L 209.277435 120.324706 
L 209.560933 138.112941 
L 209.844432 142.56 
L 210.12793 123.66 
L 210.411428 142.56 
L 210.694926 142.56 
L 210.978424 123.66 
L 211.261923 123.66 
L 211.545421 127.44 
L 212.112417 127.44 
L 212.395915 147.6 
L 215.514395 147.6 
L 215.797893 160.006154 
L 216.081391 160.006154 
L 216.36489 183.267692 
L 217.215384 183.267692 
L 217.78238 229.790769 
L 218.065879 206.529231 
L 218.349377 206.529231 
L 218.632875 229.790769 
L 218.916373 229.790769 
L 219.766868 160.006154 
L 220.050366 160.006154 
L 220.333864 136.744615 
L 221.184358 136.744615 
L 221.467857 113.483077 
L 221.751355 136.744615 
L 222.034853 136.744615 
L 222.318351 113.483077 
L 222.601849 136.744615 
L 222.885348 142.56 
L 224.302838 142.56 
L 224.586337 92.16 
L 225.153333 92.16 
L 225.436831 97.2 
L 225.720329 97.2 
L 226.003827 100.56 
L 227.13782 100.56 
L 227.421318 104.76 
L 229.122307 104.76 
L 229.405805 142.56 
L 232.240787 142.56 
L 232.524285 153.36 
L 233.658278 153.36 
L 233.941776 110.16 
L 237.060256 110.16 
L 237.343754 117.36 
L 239.895238 117.36 
L 240.178736 127.44 
L 240.462234 187.92 
L 242.446721 187.92 
L 242.730219 248.4 
L 243.297216 248.4 
L 243.580714 293.76 
L 248.683681 293.76 
L 248.967179 369.36 
L 249.534176 369.36 
L 249.817674 293.76 
L 250.101172 293.76 
L 250.38467 268.56 
L 251.802161 268.56 
L 252.085659 167.76 
L 256.62163 167.76 
L 256.905128 268.56 
L 258.322619 268.56 
L 258.606117 167.76 
L 261.724597 167.76 
L 262.008095 218.16 
L 268.528553 218.16 
L 268.812051 369.36 
L 269.662546 369.36 
L 269.946044 218.16 
L 272.781026 218.16 
L 273.064524 369.36 
L 407.726155 369.36 
L 408.009653 66.96 
L 409.143646 66.96 
L 409.427144 369.36 
L 409.710642 369.36 
L 409.99414 66.96 
L 410.277639 369.36 
L 417.081595 369.36 
L 417.365093 66.96 
L 417.648591 66.96 
L 417.932089 369.36 
L 422.46806 369.36 
L 422.751558 66.96 
L 423.602053 66.96 
L 423.885551 369.36 
L 431.256503 369.36 
L 431.540001 66.96 
L 438.910954 66.96 
L 439.194452 369.36 
L 447.132401 369.36 
L 447.415899 66.96 
L 447.699397 369.36 
L 452.235368 369.36 
L 452.518866 66.96 
L 452.802364 66.96 
L 453.085862 369.36 
L 466.693775 369.36 
L 466.977273 66.96 
L 466.977273 66.96 
" style="fill:none;stroke:#ff7f0e;stroke-linecap:square;stroke-width:1.5;"/>
   </g>
   <g id="patch_3">
    <path d="M 67.5 384.48 
L 67.5 51.84 
" style="fill:none;stroke:#000000;stroke-linecap:square;stroke-linejoin:miter;stroke-width:0.8;"/>
   </g>
   <g id="patch_4">
    <path d="M 486 384.48 
L 486 51.84 
" style="fill:none;stroke:#000000;stroke-linecap:square;stroke-linejoin:miter;stroke-width:0.8;"/>
   </g>
   <g id="patch_5">
    <path d="M 67.5 384.48 
L 486 384.48 
" style="fill:none;stroke:#000000;stroke-linecap:square;stroke-linejoin:miter;stroke-width:0.8;"/>
   </g>
   <g id="patch_6">
    <path d="M 67.5 51.84 
L 486 51.84 
" style="fill:none;stroke:#000000;stroke-linecap:square;stroke-linejoin:miter;stroke-width:0.8;"/>
   </g>
   <g id="legend_1">
    <g id="patch_7">
     <path d="M 78 44.34 
L 475.5 44.34 
Q 478.5 44.34 478.5 41.34 
L 478.5 20.822812 
Q 478.5 17.822812 475.5 17.822812 
L 78 17.822812 
Q 75 17.822812 75 20.822812 
L 75 41.34 
Q 75 44.34 78 44.34 
z
" style="fill:#ffffff;opacity:0.8;stroke:#cccccc;stroke-linejoin:miter;"/>
    </g>
    <g id="line2d_17">
     <path d="M 81 29.970469 
L 111 29.970469 
" style="fill:none;stroke:#1f77b4;stroke-linecap:square;stroke-width:1.5;"/>
    </g>
    <g id="line2d_18"/>
    <g id="text_15">
     <!-- # of total attacker -->
     <defs>
      <path d="M 51.125 44 
L 36.921875 44 
L 32.8125 27.6875 
L 47.125 27.6875 
z
M 43.796875 71.78125 
L 38.71875 51.515625 
L 52.984375 51.515625 
L 58.109375 71.78125 
L 65.921875 71.78125 
L 60.890625 51.515625 
L 76.125 51.515625 
L 76.125 44 
L 58.984375 44 
L 54.984375 27.6875 
L 70.515625 27.6875 
L 70.515625 20.21875 
L 53.078125 20.21875 
L 48 0 
L 40.1875 0 
L 45.21875 20.21875 
L 30.90625 20.21875 
L 25.875 0 
L 18.015625 0 
L 23.09375 20.21875 
L 7.71875 20.21875 
L 7.71875 27.6875 
L 24.90625 27.6875 
L 29 44 
L 13.28125 44 
L 13.28125 51.515625 
L 30.90625 51.515625 
L 35.890625 71.78125 
z
" id="DejaVuSans-35"/>
      <path id="DejaVuSans-32"/>
      <path d="M 30.609375 48.390625 
Q 23.390625 48.390625 19.1875 42.75 
Q 14.984375 37.109375 14.984375 27.296875 
Q 14.984375 17.484375 19.15625 11.84375 
Q 23.34375 6.203125 30.609375 6.203125 
Q 37.796875 6.203125 41.984375 11.859375 
Q 46.1875 17.53125 46.1875 27.296875 
Q 46.1875 37.015625 41.984375 42.703125 
Q 37.796875 48.390625 30.609375 48.390625 
z
M 30.609375 56 
Q 42.328125 56 49.015625 48.375 
Q 55.71875 40.765625 55.71875 27.296875 
Q 55.71875 13.875 49.015625 6.21875 
Q 42.328125 -1.421875 30.609375 -1.421875 
Q 18.84375 -1.421875 12.171875 6.21875 
Q 5.515625 13.875 5.515625 27.296875 
Q 5.515625 40.765625 12.171875 48.375 
Q 18.84375 56 30.609375 56 
z
" id="DejaVuSans-111"/>
      <path d="M 37.109375 75.984375 
L 37.109375 68.5 
L 28.515625 68.5 
Q 23.6875 68.5 21.796875 66.546875 
Q 19.921875 64.59375 19.921875 59.515625 
L 19.921875 54.6875 
L 34.71875 54.6875 
L 34.71875 47.703125 
L 19.921875 47.703125 
L 19.921875 0 
L 10.890625 0 
L 10.890625 47.703125 
L 2.296875 47.703125 
L 2.296875 54.6875 
L 10.890625 54.6875 
L 10.890625 58.5 
Q 10.890625 67.625 15.140625 71.796875 
Q 19.390625 75.984375 28.609375 75.984375 
z
" id="DejaVuSans-102"/>
      <path d="M 18.3125 70.21875 
L 18.3125 54.6875 
L 36.8125 54.6875 
L 36.8125 47.703125 
L 18.3125 47.703125 
L 18.3125 18.015625 
Q 18.3125 11.328125 20.140625 9.421875 
Q 21.96875 7.515625 27.59375 7.515625 
L 36.8125 7.515625 
L 36.8125 0 
L 27.59375 0 
Q 17.1875 0 13.234375 3.875 
Q 9.28125 7.765625 9.28125 18.015625 
L 9.28125 47.703125 
L 2.6875 47.703125 
L 2.6875 54.6875 
L 9.28125 54.6875 
L 9.28125 70.21875 
z
" id="DejaVuSans-116"/>
      <path d="M 34.28125 27.484375 
Q 23.390625 27.484375 19.1875 25 
Q 14.984375 22.515625 14.984375 16.5 
Q 14.984375 11.71875 18.140625 8.90625 
Q 21.296875 6.109375 26.703125 6.109375 
Q 34.1875 6.109375 38.703125 11.40625 
Q 43.21875 16.703125 43.21875 25.484375 
L 43.21875 27.484375 
z
M 52.203125 31.203125 
L 52.203125 0 
L 43.21875 0 
L 43.21875 8.296875 
Q 40.140625 3.328125 35.546875 0.953125 
Q 30.953125 -1.421875 24.3125 -1.421875 
Q 15.921875 -1.421875 10.953125 3.296875 
Q 6 8.015625 6 15.921875 
Q 6 25.140625 12.171875 29.828125 
Q 18.359375 34.515625 30.609375 34.515625 
L 43.21875 34.515625 
L 43.21875 35.40625 
Q 43.21875 41.609375 39.140625 45 
Q 35.0625 48.390625 27.6875 48.390625 
Q 23 48.390625 18.546875 47.265625 
Q 14.109375 46.140625 10.015625 43.890625 
L 10.015625 52.203125 
Q 14.9375 54.109375 19.578125 55.046875 
Q 24.21875 56 28.609375 56 
Q 40.484375 56 46.34375 49.84375 
Q 52.203125 43.703125 52.203125 31.203125 
z
" id="DejaVuSans-97"/>
      <path d="M 9.421875 75.984375 
L 18.40625 75.984375 
L 18.40625 0 
L 9.421875 0 
z
" id="DejaVuSans-108"/>
      <path d="M 48.78125 52.59375 
L 48.78125 44.1875 
Q 44.96875 46.296875 41.140625 47.34375 
Q 37.3125 48.390625 33.40625 48.390625 
Q 24.65625 48.390625 19.8125 42.84375 
Q 14.984375 37.3125 14.984375 27.296875 
Q 14.984375 17.28125 19.8125 11.734375 
Q 24.65625 6.203125 33.40625 6.203125 
Q 37.3125 6.203125 41.140625 7.25 
Q 44.96875 8.296875 48.78125 10.40625 
L 48.78125 2.09375 
Q 45.015625 0.34375 40.984375 -0.53125 
Q 36.96875 -1.421875 32.421875 -1.421875 
Q 20.0625 -1.421875 12.78125 6.34375 
Q 5.515625 14.109375 5.515625 27.296875 
Q 5.515625 40.671875 12.859375 48.328125 
Q 20.21875 56 33.015625 56 
Q 37.15625 56 41.109375 55.140625 
Q 45.0625 54.296875 48.78125 52.59375 
z
" id="DejaVuSans-99"/>
      <path d="M 9.078125 75.984375 
L 18.109375 75.984375 
L 18.109375 31.109375 
L 44.921875 54.6875 
L 56.390625 54.6875 
L 27.390625 29.109375 
L 57.625 0 
L 45.90625 0 
L 18.109375 26.703125 
L 18.109375 0 
L 9.078125 0 
z
" id="DejaVuSans-107"/>
      <path d="M 56.203125 29.59375 
L 56.203125 25.203125 
L 14.890625 25.203125 
Q 15.484375 15.921875 20.484375 11.0625 
Q 25.484375 6.203125 34.421875 6.203125 
Q 39.59375 6.203125 44.453125 7.46875 
Q 49.3125 8.734375 54.109375 11.28125 
L 54.109375 2.78125 
Q 49.265625 0.734375 44.1875 -0.34375 
Q 39.109375 -1.421875 33.890625 -1.421875 
Q 20.796875 -1.421875 13.15625 6.1875 
Q 5.515625 13.8125 5.515625 26.8125 
Q 5.515625 40.234375 12.765625 48.109375 
Q 20.015625 56 32.328125 56 
Q 43.359375 56 49.78125 48.890625 
Q 56.203125 41.796875 56.203125 29.59375 
z
M 47.21875 32.234375 
Q 47.125 39.59375 43.09375 43.984375 
Q 39.0625 48.390625 32.421875 48.390625 
Q 24.90625 48.390625 20.390625 44.140625 
Q 15.875 39.890625 15.1875 32.171875 
z
" id="DejaVuSans-101"/>
      <path d="M 41.109375 46.296875 
Q 39.59375 47.171875 37.8125 47.578125 
Q 36.03125 48 33.890625 48 
Q 26.265625 48 22.1875 43.046875 
Q 18.109375 38.09375 18.109375 28.8125 
L 18.109375 0 
L 9.078125 0 
L 9.078125 54.6875 
L 18.109375 54.6875 
L 18.109375 46.1875 
Q 20.953125 51.171875 25.484375 53.578125 
Q 30.03125 56 36.53125 56 
Q 37.453125 56 38.578125 55.875 
Q 39.703125 55.765625 41.0625 55.515625 
z
" id="DejaVuSans-114"/>
     </defs>
     <g transform="translate(123 35.220469)scale(0.15 -0.15)">
      <use xlink:href="#DejaVuSans-35"/>
      <use x="83.789062" xlink:href="#DejaVuSans-32"/>
      <use x="115.576172" xlink:href="#DejaVuSans-111"/>
      <use x="176.757812" xlink:href="#DejaVuSans-102"/>
      <use x="211.962891" xlink:href="#DejaVuSans-32"/>
      <use x="243.75" xlink:href="#DejaVuSans-116"/>
      <use x="282.958984" xlink:href="#DejaVuSans-111"/>
      <use x="344.140625" xlink:href="#DejaVuSans-116"/>
      <use x="383.349609" xlink:href="#DejaVuSans-97"/>
      <use x="444.628906" xlink:href="#DejaVuSans-108"/>
      <use x="472.412109" xlink:href="#DejaVuSans-32"/>
      <use x="504.199219" xlink:href="#DejaVuSans-97"/>
      <use x="565.478516" xlink:href="#DejaVuSans-116"/>
      <use x="604.6875" xlink:href="#DejaVuSans-116"/>
      <use x="643.896484" xlink:href="#DejaVuSans-97"/>
      <use x="705.175781" xlink:href="#DejaVuSans-99"/>
      <use x="760.15625" xlink:href="#DejaVuSans-107"/>
      <use x="818.019531" xlink:href="#DejaVuSans-101"/>
      <use x="879.542969" xlink:href="#DejaVuSans-114"/>
     </g>
    </g>
    <g id="line2d_19">
     <path d="M 282.295313 29.970469 
L 312.295313 29.970469 
" style="fill:none;stroke:#ff7f0e;stroke-linecap:square;stroke-width:1.5;"/>
    </g>
    <g id="line2d_20"/>
    <g id="text_16">
     <!-- # of inside attacker -->
     <defs>
      <path d="M 9.421875 54.6875 
L 18.40625 54.6875 
L 18.40625 0 
L 9.421875 0 
z
M 9.421875 75.984375 
L 18.40625 75.984375 
L 18.40625 64.59375 
L 9.421875 64.59375 
z
" id="DejaVuSans-105"/>
      <path d="M 54.890625 33.015625 
L 54.890625 0 
L 45.90625 0 
L 45.90625 32.71875 
Q 45.90625 40.484375 42.875 44.328125 
Q 39.84375 48.1875 33.796875 48.1875 
Q 26.515625 48.1875 22.3125 43.546875 
Q 18.109375 38.921875 18.109375 30.90625 
L 18.109375 0 
L 9.078125 0 
L 9.078125 54.6875 
L 18.109375 54.6875 
L 18.109375 46.1875 
Q 21.34375 51.125 25.703125 53.5625 
Q 30.078125 56 35.796875 56 
Q 45.21875 56 50.046875 50.171875 
Q 54.890625 44.34375 54.890625 33.015625 
z
" id="DejaVuSans-110"/>
      <path d="M 44.28125 53.078125 
L 44.28125 44.578125 
Q 40.484375 46.53125 36.375 47.5 
Q 32.28125 48.484375 27.875 48.484375 
Q 21.1875 48.484375 17.84375 46.4375 
Q 14.5 44.390625 14.5 40.28125 
Q 14.5 37.15625 16.890625 35.375 
Q 19.28125 33.59375 26.515625 31.984375 
L 29.59375 31.296875 
Q 39.15625 29.25 43.1875 25.515625 
Q 47.21875 21.78125 47.21875 15.09375 
Q 47.21875 7.46875 41.1875 3.015625 
Q 35.15625 -1.421875 24.609375 -1.421875 
Q 20.21875 -1.421875 15.453125 -0.5625 
Q 10.6875 0.296875 5.421875 2 
L 5.421875 11.28125 
Q 10.40625 8.6875 15.234375 7.390625 
Q 20.0625 6.109375 24.8125 6.109375 
Q 31.15625 6.109375 34.5625 8.28125 
Q 37.984375 10.453125 37.984375 14.40625 
Q 37.984375 18.0625 35.515625 20.015625 
Q 33.0625 21.96875 24.703125 23.78125 
L 21.578125 24.515625 
Q 13.234375 26.265625 9.515625 29.90625 
Q 5.8125 33.546875 5.8125 39.890625 
Q 5.8125 47.609375 11.28125 51.796875 
Q 16.75 56 26.8125 56 
Q 31.78125 56 36.171875 55.265625 
Q 40.578125 54.546875 44.28125 53.078125 
z
" id="DejaVuSans-115"/>
      <path d="M 45.40625 46.390625 
L 45.40625 75.984375 
L 54.390625 75.984375 
L 54.390625 0 
L 45.40625 0 
L 45.40625 8.203125 
Q 42.578125 3.328125 38.25 0.953125 
Q 33.9375 -1.421875 27.875 -1.421875 
Q 17.96875 -1.421875 11.734375 6.484375 
Q 5.515625 14.40625 5.515625 27.296875 
Q 5.515625 40.1875 11.734375 48.09375 
Q 17.96875 56 27.875 56 
Q 33.9375 56 38.25 53.625 
Q 42.578125 51.265625 45.40625 46.390625 
z
M 14.796875 27.296875 
Q 14.796875 17.390625 18.875 11.75 
Q 22.953125 6.109375 30.078125 6.109375 
Q 37.203125 6.109375 41.296875 11.75 
Q 45.40625 17.390625 45.40625 27.296875 
Q 45.40625 37.203125 41.296875 42.84375 
Q 37.203125 48.484375 30.078125 48.484375 
Q 22.953125 48.484375 18.875 42.84375 
Q 14.796875 37.203125 14.796875 27.296875 
z
" id="DejaVuSans-100"/>
     </defs>
     <g transform="translate(324.295313 35.220469)scale(0.15 -0.15)">
      <use xlink:href="#DejaVuSans-35"/>
      <use x="83.789062" xlink:href="#DejaVuSans-32"/>
      <use x="115.576172" xlink:href="#DejaVuSans-111"/>
      <use x="176.757812" xlink:href="#DejaVuSans-102"/>
      <use x="211.962891" xlink:href="#DejaVuSans-32"/>
      <use x="243.75" xlink:href="#DejaVuSans-105"/>
      <use x="271.533203" xlink:href="#DejaVuSans-110"/>
      <use x="334.912109" xlink:href="#DejaVuSans-115"/>
      <use x="387.011719" xlink:href="#DejaVuSans-105"/>
      <use x="414.794922" xlink:href="#DejaVuSans-100"/>
      <use x="478.271484" xlink:href="#DejaVuSans-101"/>
      <use x="539.794922" xlink:href="#DejaVuSans-32"/>
      <use x="571.582031" xlink:href="#DejaVuSans-97"/>
      <use x="632.861328" xlink:href="#DejaVuSans-116"/>
      <use x="672.070312" xlink:href="#DejaVuSans-116"/>
      <use x="711.279297" xlink:href="#DejaVuSans-97"/>
      <use x="772.558594" xlink:href="#DejaVuSans-99"/>
      <use x="827.539062" xlink:href="#DejaVuSans-107"/>
      <use x="885.402344" xlink:href="#DejaVuSans-101"/>
      <use x="946.925781" xlink:href="#DejaVuSans-114"/>
     </g>
    </g>
   </g>
  </g>
 </g>
 <defs>
  <clipPath id="p715ddc613b">
   <rect height="332.64" width="418.5" x="67.5" y="51.84"/>
  </clipPath>
 </defs>
</svg>
