<?xml version="1.0" encoding="utf-8" standalone="no"?>
<!DOCTYPE svg PUBLIC "-//W3C//DTD SVG 1.1//EN"
  "http://www.w3.org/Graphics/SVG/1.1/DTD/svg11.dtd">
<!-- Created with matplotlib (https://matplotlib.org/) -->
<svg height="432pt" version="1.1" viewBox="0 0 540 432" width="540pt" xmlns="http://www.w3.org/2000/svg" xmlns:xlink="http://www.w3.org/1999/xlink">
 <defs>
  <style type="text/css">
*{stroke-linecap:butt;stroke-linejoin:round;}
  </style>
 </defs>
 <g id="figure_1">
  <g id="patch_1">
   <path d="M 0 432 
L 540 432 
L 540 0 
L 0 0 
z
" style="fill:#ffffff;"/>
  </g>
  <g id="axes_1">
   <g id="patch_2">
    <path d="M 67.5 384.48 
L 486 384.48 
L 486 51.84 
L 67.5 51.84 
z
" style="fill:#ffffff;"/>
   </g>
   <g id="matplotlib.axis_1">
    <g id="xtick_1">
     <g id="line2d_1">
      <defs>
       <path d="M 0 0 
L 0 3.5 
" id="m2ed05bc9a6" style="stroke:#000000;stroke-width:0.8;"/>
      </defs>
      <g>
       <use style="stroke:#000000;stroke-width:0.8;" x="86.522727" xlink:href="#m2ed05bc9a6" y="384.48"/>
      </g>
     </g>
     <g id="text_1">
      <!-- 0 -->
      <defs>
       <path d="M 31.78125 66.40625 
Q 24.171875 66.40625 20.328125 58.90625 
Q 16.5 51.421875 16.5 36.375 
Q 16.5 21.390625 20.328125 13.890625 
Q 24.171875 6.390625 31.78125 6.390625 
Q 39.453125 6.390625 43.28125 13.890625 
Q 47.125 21.390625 47.125 36.375 
Q 47.125 51.421875 43.28125 58.90625 
Q 39.453125 66.40625 31.78125 66.40625 
z
M 31.78125 74.21875 
Q 44.046875 74.21875 50.515625 64.515625 
Q 56.984375 54.828125 56.984375 36.375 
Q 56.984375 17.96875 50.515625 8.265625 
Q 44.046875 -1.421875 31.78125 -1.421875 
Q 19.53125 -1.421875 13.0625 8.265625 
Q 6.59375 17.96875 6.59375 36.375 
Q 6.59375 54.828125 13.0625 64.515625 
Q 19.53125 74.21875 31.78125 74.21875 
z
" id="DejaVuSans-48"/>
      </defs>
      <g transform="translate(83.341477 399.078438)scale(0.1 -0.1)">
       <use xlink:href="#DejaVuSans-48"/>
      </g>
     </g>
    </g>
    <g id="xtick_2">
     <g id="line2d_2">
      <g>
       <use style="stroke:#000000;stroke-width:0.8;" x="143.391867" xlink:href="#m2ed05bc9a6" y="384.48"/>
      </g>
     </g>
     <g id="text_2">
      <!-- 100 -->
      <defs>
       <path d="M 12.40625 8.296875 
L 28.515625 8.296875 
L 28.515625 63.921875 
L 10.984375 60.40625 
L 10.984375 69.390625 
L 28.421875 72.90625 
L 38.28125 72.90625 
L 38.28125 8.296875 
L 54.390625 8.296875 
L 54.390625 0 
L 12.40625 0 
z
" id="DejaVuSans-49"/>
      </defs>
      <g transform="translate(133.848117 399.078438)scale(0.1 -0.1)">
       <use xlink:href="#DejaVuSans-49"/>
       <use x="63.623047" xlink:href="#DejaVuSans-48"/>
       <use x="127.246094" xlink:href="#DejaVuSans-48"/>
      </g>
     </g>
    </g>
    <g id="xtick_3">
     <g id="line2d_3">
      <g>
       <use style="stroke:#000000;stroke-width:0.8;" x="200.261007" xlink:href="#m2ed05bc9a6" y="384.48"/>
      </g>
     </g>
     <g id="text_3">
      <!-- 200 -->
      <defs>
       <path d="M 19.1875 8.296875 
L 53.609375 8.296875 
L 53.609375 0 
L 7.328125 0 
L 7.328125 8.296875 
Q 12.9375 14.109375 22.625 23.890625 
Q 32.328125 33.6875 34.8125 36.53125 
Q 39.546875 41.84375 41.421875 45.53125 
Q 43.3125 49.21875 43.3125 52.78125 
Q 43.3125 58.59375 39.234375 62.25 
Q 35.15625 65.921875 28.609375 65.921875 
Q 23.96875 65.921875 18.8125 64.3125 
Q 13.671875 62.703125 7.8125 59.421875 
L 7.8125 69.390625 
Q 13.765625 71.78125 18.9375 73 
Q 24.125 74.21875 28.421875 74.21875 
Q 39.75 74.21875 46.484375 68.546875 
Q 53.21875 62.890625 53.21875 53.421875 
Q 53.21875 48.921875 51.53125 44.890625 
Q 49.859375 40.875 45.40625 35.40625 
Q 44.1875 33.984375 37.640625 27.21875 
Q 31.109375 20.453125 19.1875 8.296875 
z
" id="DejaVuSans-50"/>
      </defs>
      <g transform="translate(190.717257 399.078438)scale(0.1 -0.1)">
       <use xlink:href="#DejaVuSans-50"/>
       <use x="63.623047" xlink:href="#DejaVuSans-48"/>
       <use x="127.246094" xlink:href="#DejaVuSans-48"/>
      </g>
     </g>
    </g>
    <g id="xtick_4">
     <g id="line2d_4">
      <g>
       <use style="stroke:#000000;stroke-width:0.8;" x="257.130147" xlink:href="#m2ed05bc9a6" y="384.48"/>
      </g>
     </g>
     <g id="text_4">
      <!-- 300 -->
      <defs>
       <path d="M 40.578125 39.3125 
Q 47.65625 37.796875 51.625 33 
Q 55.609375 28.21875 55.609375 21.1875 
Q 55.609375 10.40625 48.1875 4.484375 
Q 40.765625 -1.421875 27.09375 -1.421875 
Q 22.515625 -1.421875 17.65625 -0.515625 
Q 12.796875 0.390625 7.625 2.203125 
L 7.625 11.71875 
Q 11.71875 9.328125 16.59375 8.109375 
Q 21.484375 6.890625 26.8125 6.890625 
Q 36.078125 6.890625 40.9375 10.546875 
Q 45.796875 14.203125 45.796875 21.1875 
Q 45.796875 27.640625 41.28125 31.265625 
Q 36.765625 34.90625 28.71875 34.90625 
L 20.21875 34.90625 
L 20.21875 43.015625 
L 29.109375 43.015625 
Q 36.375 43.015625 40.234375 45.921875 
Q 44.09375 48.828125 44.09375 54.296875 
Q 44.09375 59.90625 40.109375 62.90625 
Q 36.140625 65.921875 28.71875 65.921875 
Q 24.65625 65.921875 20.015625 65.03125 
Q 15.375 64.15625 9.8125 62.3125 
L 9.8125 71.09375 
Q 15.4375 72.65625 20.34375 73.4375 
Q 25.25 74.21875 29.59375 74.21875 
Q 40.828125 74.21875 47.359375 69.109375 
Q 53.90625 64.015625 53.90625 55.328125 
Q 53.90625 49.265625 50.4375 45.09375 
Q 46.96875 40.921875 40.578125 39.3125 
z
" id="DejaVuSans-51"/>
      </defs>
      <g transform="translate(247.586397 399.078438)scale(0.1 -0.1)">
       <use xlink:href="#DejaVuSans-51"/>
       <use x="63.623047" xlink:href="#DejaVuSans-48"/>
       <use x="127.246094" xlink:href="#DejaVuSans-48"/>
      </g>
     </g>
    </g>
    <g id="xtick_5">
     <g id="line2d_5">
      <g>
       <use style="stroke:#000000;stroke-width:0.8;" x="313.999287" xlink:href="#m2ed05bc9a6" y="384.48"/>
      </g>
     </g>
     <g id="text_5">
      <!-- 400 -->
      <defs>
       <path d="M 37.796875 64.3125 
L 12.890625 25.390625 
L 37.796875 25.390625 
z
M 35.203125 72.90625 
L 47.609375 72.90625 
L 47.609375 25.390625 
L 58.015625 25.390625 
L 58.015625 17.1875 
L 47.609375 17.1875 
L 47.609375 0 
L 37.796875 0 
L 37.796875 17.1875 
L 4.890625 17.1875 
L 4.890625 26.703125 
z
" id="DejaVuSans-52"/>
      </defs>
      <g transform="translate(304.455537 399.078438)scale(0.1 -0.1)">
       <use xlink:href="#DejaVuSans-52"/>
       <use x="63.623047" xlink:href="#DejaVuSans-48"/>
       <use x="127.246094" xlink:href="#DejaVuSans-48"/>
      </g>
     </g>
    </g>
    <g id="xtick_6">
     <g id="line2d_6">
      <g>
       <use style="stroke:#000000;stroke-width:0.8;" x="370.868426" xlink:href="#m2ed05bc9a6" y="384.48"/>
      </g>
     </g>
     <g id="text_6">
      <!-- 500 -->
      <defs>
       <path d="M 10.796875 72.90625 
L 49.515625 72.90625 
L 49.515625 64.59375 
L 19.828125 64.59375 
L 19.828125 46.734375 
Q 21.96875 47.46875 24.109375 47.828125 
Q 26.265625 48.1875 28.421875 48.1875 
Q 40.625 48.1875 47.75 41.5 
Q 54.890625 34.8125 54.890625 23.390625 
Q 54.890625 11.625 47.5625 5.09375 
Q 40.234375 -1.421875 26.90625 -1.421875 
Q 22.3125 -1.421875 17.546875 -0.640625 
Q 12.796875 0.140625 7.71875 1.703125 
L 7.71875 11.625 
Q 12.109375 9.234375 16.796875 8.0625 
Q 21.484375 6.890625 26.703125 6.890625 
Q 35.15625 6.890625 40.078125 11.328125 
Q 45.015625 15.765625 45.015625 23.390625 
Q 45.015625 31 40.078125 35.4375 
Q 35.15625 39.890625 26.703125 39.890625 
Q 22.75 39.890625 18.8125 39.015625 
Q 14.890625 38.140625 10.796875 36.28125 
z
" id="DejaVuSans-53"/>
      </defs>
      <g transform="translate(361.324676 399.078438)scale(0.1 -0.1)">
       <use xlink:href="#DejaVuSans-53"/>
       <use x="63.623047" xlink:href="#DejaVuSans-48"/>
       <use x="127.246094" xlink:href="#DejaVuSans-48"/>
      </g>
     </g>
    </g>
    <g id="xtick_7">
     <g id="line2d_7">
      <g>
       <use style="stroke:#000000;stroke-width:0.8;" x="427.737566" xlink:href="#m2ed05bc9a6" y="384.48"/>
      </g>
     </g>
     <g id="text_7">
      <!-- 600 -->
      <defs>
       <path d="M 33.015625 40.375 
Q 26.375 40.375 22.484375 35.828125 
Q 18.609375 31.296875 18.609375 23.390625 
Q 18.609375 15.53125 22.484375 10.953125 
Q 26.375 6.390625 33.015625 6.390625 
Q 39.65625 6.390625 43.53125 10.953125 
Q 47.40625 15.53125 47.40625 23.390625 
Q 47.40625 31.296875 43.53125 35.828125 
Q 39.65625 40.375 33.015625 40.375 
z
M 52.59375 71.296875 
L 52.59375 62.3125 
Q 48.875 64.0625 45.09375 64.984375 
Q 41.3125 65.921875 37.59375 65.921875 
Q 27.828125 65.921875 22.671875 59.328125 
Q 17.53125 52.734375 16.796875 39.40625 
Q 19.671875 43.65625 24.015625 45.921875 
Q 28.375 48.1875 33.59375 48.1875 
Q 44.578125 48.1875 50.953125 41.515625 
Q 57.328125 34.859375 57.328125 23.390625 
Q 57.328125 12.15625 50.6875 5.359375 
Q 44.046875 -1.421875 33.015625 -1.421875 
Q 20.359375 -1.421875 13.671875 8.265625 
Q 6.984375 17.96875 6.984375 36.375 
Q 6.984375 53.65625 15.1875 63.9375 
Q 23.390625 74.21875 37.203125 74.21875 
Q 40.921875 74.21875 44.703125 73.484375 
Q 48.484375 72.75 52.59375 71.296875 
z
" id="DejaVuSans-54"/>
      </defs>
      <g transform="translate(418.193816 399.078438)scale(0.1 -0.1)">
       <use xlink:href="#DejaVuSans-54"/>
       <use x="63.623047" xlink:href="#DejaVuSans-48"/>
       <use x="127.246094" xlink:href="#DejaVuSans-48"/>
      </g>
     </g>
    </g>
    <g id="xtick_8">
     <g id="line2d_8">
      <g>
       <use style="stroke:#000000;stroke-width:0.8;" x="484.606706" xlink:href="#m2ed05bc9a6" y="384.48"/>
      </g>
     </g>
     <g id="text_8">
      <!-- 700 -->
      <defs>
       <path d="M 8.203125 72.90625 
L 55.078125 72.90625 
L 55.078125 68.703125 
L 28.609375 0 
L 18.3125 0 
L 43.21875 64.59375 
L 8.203125 64.59375 
z
" id="DejaVuSans-55"/>
      </defs>
      <g transform="translate(475.062956 399.078438)scale(0.1 -0.1)">
       <use xlink:href="#DejaVuSans-55"/>
       <use x="63.623047" xlink:href="#DejaVuSans-48"/>
       <use x="127.246094" xlink:href="#DejaVuSans-48"/>
      </g>
     </g>
    </g>
   </g>
   <g id="matplotlib.axis_2">
    <g id="ytick_1">
     <g id="line2d_9">
      <defs>
       <path d="M 0 0 
L -3.5 0 
" id="m87904086c4" style="stroke:#000000;stroke-width:0.8;"/>
      </defs>
      <g>
       <use style="stroke:#000000;stroke-width:0.8;" x="67.5" xlink:href="#m87904086c4" y="369.36"/>
      </g>
     </g>
     <g id="text_9">
      <!-- 0.0 -->
      <defs>
       <path d="M 10.6875 12.40625 
L 21 12.40625 
L 21 0 
L 10.6875 0 
z
" id="DejaVuSans-46"/>
      </defs>
      <g transform="translate(44.596875 373.159219)scale(0.1 -0.1)">
       <use xlink:href="#DejaVuSans-48"/>
       <use x="63.623047" xlink:href="#DejaVuSans-46"/>
       <use x="95.410156" xlink:href="#DejaVuSans-48"/>
      </g>
     </g>
    </g>
    <g id="ytick_2">
     <g id="line2d_10">
      <g>
       <use style="stroke:#000000;stroke-width:0.8;" x="67.5" xlink:href="#m87904086c4" y="308.88"/>
      </g>
     </g>
     <g id="text_10">
      <!-- 0.2 -->
      <g transform="translate(44.596875 312.679219)scale(0.1 -0.1)">
       <use xlink:href="#DejaVuSans-48"/>
       <use x="63.623047" xlink:href="#DejaVuSans-46"/>
       <use x="95.410156" xlink:href="#DejaVuSans-50"/>
      </g>
     </g>
    </g>
    <g id="ytick_3">
     <g id="line2d_11">
      <g>
       <use style="stroke:#000000;stroke-width:0.8;" x="67.5" xlink:href="#m87904086c4" y="248.4"/>
      </g>
     </g>
     <g id="text_11">
      <!-- 0.4 -->
      <g transform="translate(44.596875 252.199219)scale(0.1 -0.1)">
       <use xlink:href="#DejaVuSans-48"/>
       <use x="63.623047" xlink:href="#DejaVuSans-46"/>
       <use x="95.410156" xlink:href="#DejaVuSans-52"/>
      </g>
     </g>
    </g>
    <g id="ytick_4">
     <g id="line2d_12">
      <g>
       <use style="stroke:#000000;stroke-width:0.8;" x="67.5" xlink:href="#m87904086c4" y="187.92"/>
      </g>
     </g>
     <g id="text_12">
      <!-- 0.6 -->
      <g transform="translate(44.596875 191.719219)scale(0.1 -0.1)">
       <use xlink:href="#DejaVuSans-48"/>
       <use x="63.623047" xlink:href="#DejaVuSans-46"/>
       <use x="95.410156" xlink:href="#DejaVuSans-54"/>
      </g>
     </g>
    </g>
    <g id="ytick_5">
     <g id="line2d_13">
      <g>
       <use style="stroke:#000000;stroke-width:0.8;" x="67.5" xlink:href="#m87904086c4" y="127.44"/>
      </g>
     </g>
     <g id="text_13">
      <!-- 0.8 -->
      <defs>
       <path d="M 31.78125 34.625 
Q 24.75 34.625 20.71875 30.859375 
Q 16.703125 27.09375 16.703125 20.515625 
Q 16.703125 13.921875 20.71875 10.15625 
Q 24.75 6.390625 31.78125 6.390625 
Q 38.8125 6.390625 42.859375 10.171875 
Q 46.921875 13.96875 46.921875 20.515625 
Q 46.921875 27.09375 42.890625 30.859375 
Q 38.875 34.625 31.78125 34.625 
z
M 21.921875 38.8125 
Q 15.578125 40.375 12.03125 44.71875 
Q 8.5 49.078125 8.5 55.328125 
Q 8.5 64.0625 14.71875 69.140625 
Q 20.953125 74.21875 31.78125 74.21875 
Q 42.671875 74.21875 48.875 69.140625 
Q 55.078125 64.0625 55.078125 55.328125 
Q 55.078125 49.078125 51.53125 44.71875 
Q 48 40.375 41.703125 38.8125 
Q 48.828125 37.15625 52.796875 32.3125 
Q 56.78125 27.484375 56.78125 20.515625 
Q 56.78125 9.90625 50.3125 4.234375 
Q 43.84375 -1.421875 31.78125 -1.421875 
Q 19.734375 -1.421875 13.25 4.234375 
Q 6.78125 9.90625 6.78125 20.515625 
Q 6.78125 27.484375 10.78125 32.3125 
Q 14.796875 37.15625 21.921875 38.8125 
z
M 18.3125 54.390625 
Q 18.3125 48.734375 21.84375 45.5625 
Q 25.390625 42.390625 31.78125 42.390625 
Q 38.140625 42.390625 41.71875 45.5625 
Q 45.3125 48.734375 45.3125 54.390625 
Q 45.3125 60.0625 41.71875 63.234375 
Q 38.140625 66.40625 31.78125 66.40625 
Q 25.390625 66.40625 21.84375 63.234375 
Q 18.3125 60.0625 18.3125 54.390625 
z
" id="DejaVuSans-56"/>
      </defs>
      <g transform="translate(44.596875 131.239219)scale(0.1 -0.1)">
       <use xlink:href="#DejaVuSans-48"/>
       <use x="63.623047" xlink:href="#DejaVuSans-46"/>
       <use x="95.410156" xlink:href="#DejaVuSans-56"/>
      </g>
     </g>
    </g>
    <g id="ytick_6">
     <g id="line2d_14">
      <g>
       <use style="stroke:#000000;stroke-width:0.8;" x="67.5" xlink:href="#m87904086c4" y="66.96"/>
      </g>
     </g>
     <g id="text_14">
      <!-- 1.0 -->
      <g transform="translate(44.596875 70.759219)scale(0.1 -0.1)">
       <use xlink:href="#DejaVuSans-49"/>
       <use x="63.623047" xlink:href="#DejaVuSans-46"/>
       <use x="95.410156" xlink:href="#DejaVuSans-48"/>
      </g>
     </g>
    </g>
   </g>
   <g id="line2d_15">
    <path clip-path="url(#p4ec6043f0a)" d="M 86.522727 66.96 
L 466.977273 66.96 
L 466.977273 66.96 
" style="fill:none;stroke:#1f77b4;stroke-linecap:square;stroke-width:1.5;"/>
   </g>
   <g id="line2d_16">
    <path clip-path="url(#p4ec6043f0a)" d="M 86.522727 369.36 
L 87.091419 369.36 
L 87.66011 357.264 
L 88.228801 339.12 
L 89.366184 290.736 
L 89.934876 254.448 
L 90.503567 242.352 
L 91.072258 212.112 
L 91.64095 212.112 
L 92.209641 193.968 
L 92.778333 200.016 
L 93.347024 200.016 
L 94.484407 187.92 
L 95.053098 187.92 
L 95.62179 200.016 
L 97.327864 218.16 
L 97.896555 212.112 
L 98.465247 193.968 
L 100.171321 157.68 
L 100.740012 151.632 
L 101.308704 157.68 
L 101.877395 151.632 
L 102.446086 157.68 
L 103.014778 151.632 
L 103.583469 151.632 
L 104.152161 145.584 
L 104.720852 157.68 
L 106.426926 175.824 
L 106.995618 151.632 
L 107.564309 145.584 
L 108.133 157.68 
L 108.701692 163.728 
L 110.407766 145.584 
L 110.976457 157.68 
L 111.545149 151.632 
L 112.682532 151.632 
L 113.251223 139.536 
L 113.819914 139.536 
L 114.388606 145.584 
L 114.957297 157.68 
L 115.525989 157.68 
L 116.09468 151.632 
L 116.663371 151.632 
L 117.232063 139.536 
L 117.800754 145.584 
L 118.369446 139.536 
L 119.506828 139.536 
L 120.07552 133.488 
L 120.644211 133.488 
L 121.212903 121.392 
L 121.781594 127.44 
L 122.350285 115.344 
L 122.918977 127.44 
L 123.487668 133.488 
L 124.05636 133.488 
L 124.625051 139.536 
L 126.331125 139.536 
L 126.899817 145.584 
L 127.468508 133.488 
L 128.037199 127.44 
L 128.605891 139.536 
L 129.174582 133.488 
L 129.743274 139.536 
L 130.880656 139.536 
L 132.018039 127.44 
L 132.586731 133.488 
L 133.155422 127.44 
L 133.724113 127.44 
L 134.292805 115.344 
L 135.430188 127.44 
L 135.998879 121.392 
L 136.56757 121.392 
L 137.136262 127.44 
L 137.704953 157.68 
L 138.273645 163.728 
L 138.842336 151.632 
L 139.411027 157.68 
L 139.979719 145.584 
L 140.54841 139.536 
L 141.117102 127.44 
L 141.685793 127.44 
L 142.254484 121.392 
L 142.823176 121.392 
L 143.391867 127.44 
L 143.960558 121.392 
L 144.52925 109.296 
L 145.097941 109.296 
L 145.666633 127.44 
L 146.235324 133.488 
L 146.804015 127.44 
L 147.372707 133.488 
L 147.941398 145.584 
L 148.51009 145.584 
L 149.078781 133.488 
L 149.647472 139.536 
L 150.216164 133.488 
L 150.784855 139.536 
L 151.353547 133.488 
L 151.922238 133.488 
L 152.490929 139.536 
L 153.059621 133.488 
L 153.628312 133.488 
L 154.197004 127.44 
L 154.765695 115.344 
L 155.903078 103.248 
L 157.040461 127.44 
L 158.177843 127.44 
L 158.746535 115.344 
L 159.315226 109.296 
L 159.883918 115.344 
L 160.452609 127.44 
L 161.0213 133.488 
L 161.589992 145.584 
L 162.158683 151.632 
L 163.296066 151.632 
L 163.864757 139.536 
L 164.433449 157.68 
L 165.00214 169.776 
L 165.570832 169.776 
L 166.139523 163.728 
L 166.708214 163.728 
L 167.276906 151.632 
L 167.845597 157.68 
L 168.414289 151.632 
L 169.551671 127.44 
L 170.120363 139.536 
L 171.826437 121.392 
L 172.395128 133.488 
L 172.96382 133.488 
L 173.532511 139.536 
L 174.101203 151.632 
L 175.238585 187.92 
L 175.807277 175.824 
L 176.375968 151.632 
L 176.94466 151.632 
L 177.513351 139.536 
L 178.082042 133.488 
L 178.650734 145.584 
L 179.219425 151.632 
L 179.788117 127.44 
L 180.356808 115.344 
L 180.925499 109.296 
L 181.494191 115.344 
L 182.062882 109.296 
L 182.631574 115.344 
L 183.200265 115.344 
L 183.768956 109.296 
L 184.906339 121.392 
L 185.475031 139.536 
L 186.043722 139.536 
L 186.612413 133.488 
L 187.749796 133.488 
L 188.318488 139.536 
L 188.887179 133.488 
L 189.45587 133.488 
L 191.161945 115.344 
L 193.43671 115.344 
L 194.005402 127.44 
L 194.574093 115.344 
L 195.142784 121.392 
L 196.280167 145.584 
L 196.848859 151.632 
L 197.41755 147.188571 
L 198.554933 134.845714 
L 199.123624 122.502857 
L 199.692316 128.674286 
L 200.829698 128.674286 
L 201.39839 141.017143 
L 201.967081 128.674286 
L 203.104464 116.331429 
L 203.673155 122.502857 
L 204.241847 122.502857 
L 204.810538 134.845714 
L 205.37923 141.017143 
L 205.947921 141.017143 
L 207.085304 117.36 
L 207.653995 123.66 
L 208.222687 111.06 
L 208.791378 117.36 
L 209.360069 104.76 
L 209.928761 111.06 
L 210.497452 104.76 
L 211.066143 104.76 
L 211.634835 111.06 
L 212.203526 129.96 
L 212.772218 129.96 
L 213.340909 142.56 
L 213.9096 129.96 
L 214.478292 142.56 
L 215.046983 148.86 
L 215.615675 129.96 
L 216.184366 123.66 
L 216.753057 123.66 
L 217.89044 111.06 
L 218.459132 98.46 
L 219.027823 98.46 
L 219.596514 123.66 
L 220.165206 117.36 
L 220.733897 123.66 
L 221.87128 123.66 
L 222.439971 136.26 
L 223.008663 123.66 
L 223.577354 117.36 
L 224.146046 142.56 
L 224.714737 155.16 
L 225.283428 142.56 
L 225.85212 136.26 
L 226.420811 136.26 
L 226.989503 142.56 
L 227.558194 136.26 
L 228.695577 111.06 
L 229.264268 111.06 
L 229.83296 123.66 
L 230.970342 136.26 
L 231.539034 148.86 
L 232.107725 142.56 
L 232.676417 142.56 
L 233.245108 136.26 
L 233.813799 148.86 
L 234.382491 155.16 
L 234.951182 155.16 
L 235.519874 142.56 
L 236.088565 148.86 
L 236.657256 174.06 
L 237.225948 148.86 
L 237.794639 148.86 
L 238.363331 150.602553 
L 238.932022 157.036596 
L 240.069405 131.300426 
L 240.638096 150.602553 
L 241.206788 157.036596 
L 241.775479 150.602553 
L 242.34417 150.602553 
L 242.912862 163.470638 
L 243.481553 158.994783 
L 244.050245 172.142609 
L 244.618936 191.864348 
L 245.187627 165.568696 
L 246.32501 152.42087 
L 246.893702 158.994783 
L 248.031084 145.846957 
L 249.168467 145.846957 
L 249.737159 152.42087 
L 250.874541 152.42087 
L 251.443233 139.273043 
L 252.580616 139.273043 
L 253.717998 126.125217 
L 254.28669 139.273043 
L 255.424073 112.977391 
L 255.992764 106.403478 
L 256.561455 112.977391 
L 257.130147 112.977391 
L 257.698838 119.551304 
L 258.26753 119.551304 
L 258.836221 112.977391 
L 259.973604 112.977391 
L 260.542295 119.551304 
L 261.110987 106.403478 
L 261.679678 107.28 
L 262.248369 87.12 
L 262.817061 115.069091 
L 263.385752 121.941818 
L 264.523135 108.196364 
L 265.091826 115.069091 
L 265.660518 128.814545 
L 266.229209 121.941818 
L 267.366592 135.687273 
L 267.935283 149.432727 
L 268.503975 156.305455 
L 269.072666 156.305455 
L 269.641358 149.432727 
L 270.210049 144.31814 
L 270.77874 153.36 
L 271.347432 155.467317 
L 271.916123 140.716098 
L 272.484815 155.467317 
L 273.053506 155.467317 
L 273.622197 157.68 
L 274.190889 150.12 
L 274.75958 127.44 
L 275.328272 121.236923 
L 275.896963 136.744615 
L 276.465654 130.623158 
L 277.034346 140.516757 
L 277.603037 156.862703 
L 278.171728 150.96 
L 278.74042 153.36 
L 279.309111 144.72 
L 279.877803 144.72 
L 280.446494 153.36 
L 282.72126 153.36 
L 283.289951 144.72 
L 283.858642 144.72 
L 284.427334 138.112941 
L 284.996025 121.941818 
L 286.133408 103.614545 
L 286.702099 85.287273 
L 287.270791 94.450909 
L 287.839482 94.450909 
L 288.408174 103.614545 
L 288.976865 121.941818 
L 289.545556 121.941818 
L 290.682939 158.596364 
L 291.251631 149.432727 
L 291.820322 164.508387 
L 292.389013 127.44 
L 292.957705 127.44 
L 293.526396 131.76 
L 294.095088 125.113846 
L 294.663779 115.344 
L 295.23247 115.344 
L 295.801162 103.248 
L 296.369853 115.344 
L 296.938545 115.344 
L 297.507236 119.551304 
L 298.075927 132.69913 
L 299.21331 108.196364 
L 299.782002 108.196364 
L 300.350693 110.16 
L 300.919384 110.16 
L 301.488076 124.56 
L 302.056767 124.56 
L 302.625459 162.454737 
L 303.762841 162.454737 
L 304.331533 178.370526 
L 305.468916 178.370526 
L 306.037607 184.56 
L 306.606298 155.901176 
L 307.743681 155.901176 
L 308.312373 120.324706 
L 309.449755 155.901176 
L 310.018447 191.477647 
L 310.587138 191.477647 
L 311.15583 199.26 
L 311.724521 161.46 
L 312.293212 167.76 
L 313.430595 127.44 
L 313.999287 127.44 
L 314.567978 110.16 
L 315.136669 110.16 
L 315.705361 153.36 
L 316.274052 153.36 
L 316.842744 131.76 
L 317.980126 131.76 
L 318.548818 174.96 
L 319.686201 174.96 
L 320.254892 183.267692 
L 320.823583 160.006154 
L 322.529658 160.006154 
L 323.098349 136.744615 
L 324.235732 136.744615 
L 324.804423 117.36 
L 325.941806 117.36 
L 326.510497 92.16 
L 327.079189 94.450909 
L 328.216572 157.68 
L 328.785263 127.44 
L 332.197411 127.44 
L 332.766103 157.68 
L 333.334794 157.68 
L 333.903486 127.44 
L 335.040868 127.44 
L 335.60956 167.76 
L 336.178251 167.76 
L 336.746943 142.56 
L 338.453017 142.56 
L 339.021708 180.36 
L 339.5904 142.56 
L 341.296474 142.56 
L 341.865165 104.76 
L 343.002548 104.76 
L 343.571239 142.56 
L 344.139931 153.36 
L 345.277313 153.36 
L 345.846005 110.16 
L 346.983388 110.16 
L 347.552079 66.96 
L 348.689462 66.96 
L 349.258153 117.36 
L 350.395536 117.36 
L 350.964227 167.76 
L 352.10161 167.76 
L 352.670302 218.16 
L 353.238993 167.76 
L 354.945067 167.76 
L 356.08245 66.96 
L 357.788524 66.96 
L 358.357216 117.36 
L 363.475438 117.36 
L 364.04413 127.44 
L 364.612821 127.44 
L 365.181512 187.92 
L 368.024969 187.92 
L 368.593661 127.44 
L 371.437118 127.44 
L 372.005809 66.96 
L 405.558602 66.96 
L 406.127293 369.36 
L 411.245516 369.36 
L 411.814207 66.96 
L 445.367 66.96 
L 445.935691 369.36 
L 450.485222 369.36 
L 451.053914 66.96 
L 466.977273 66.96 
L 466.977273 66.96 
" style="fill:none;stroke:#ff7f0e;stroke-linecap:square;stroke-width:1.5;"/>
   </g>
   <g id="patch_3">
    <path d="M 67.5 384.48 
L 67.5 51.84 
" style="fill:none;stroke:#000000;stroke-linecap:square;stroke-linejoin:miter;stroke-width:0.8;"/>
   </g>
   <g id="patch_4">
    <path d="M 486 384.48 
L 486 51.84 
" style="fill:none;stroke:#000000;stroke-linecap:square;stroke-linejoin:miter;stroke-width:0.8;"/>
   </g>
   <g id="patch_5">
    <path d="M 67.5 384.48 
L 486 384.48 
" style="fill:none;stroke:#000000;stroke-linecap:square;stroke-linejoin:miter;stroke-width:0.8;"/>
   </g>
   <g id="patch_6">
    <path d="M 67.5 51.84 
L 486 51.84 
" style="fill:none;stroke:#000000;stroke-linecap:square;stroke-linejoin:miter;stroke-width:0.8;"/>
   </g>
   <g id="legend_1">
    <g id="patch_7">
     <path d="M 78 44.34 
L 475.5 44.34 
Q 478.5 44.34 478.5 41.34 
L 478.5 20.822812 
Q 478.5 17.822812 475.5 17.822812 
L 78 17.822812 
Q 75 17.822812 75 20.822812 
L 75 41.34 
Q 75 44.34 78 44.34 
z
" style="fill:#ffffff;opacity:0.8;stroke:#cccccc;stroke-linejoin:miter;"/>
    </g>
    <g id="line2d_17">
     <path d="M 81 29.970469 
L 111 29.970469 
" style="fill:none;stroke:#1f77b4;stroke-linecap:square;stroke-width:1.5;"/>
    </g>
    <g id="line2d_18"/>
    <g id="text_15">
     <!-- # of total attacker -->
     <defs>
      <path d="M 51.125 44 
L 36.921875 44 
L 32.8125 27.6875 
L 47.125 27.6875 
z
M 43.796875 71.78125 
L 38.71875 51.515625 
L 52.984375 51.515625 
L 58.109375 71.78125 
L 65.921875 71.78125 
L 60.890625 51.515625 
L 76.125 51.515625 
L 76.125 44 
L 58.984375 44 
L 54.984375 27.6875 
L 70.515625 27.6875 
L 70.515625 20.21875 
L 53.078125 20.21875 
L 48 0 
L 40.1875 0 
L 45.21875 20.21875 
L 30.90625 20.21875 
L 25.875 0 
L 18.015625 0 
L 23.09375 20.21875 
L 7.71875 20.21875 
L 7.71875 27.6875 
L 24.90625 27.6875 
L 29 44 
L 13.28125 44 
L 13.28125 51.515625 
L 30.90625 51.515625 
L 35.890625 71.78125 
z
" id="DejaVuSans-35"/>
      <path id="DejaVuSans-32"/>
      <path d="M 30.609375 48.390625 
Q 23.390625 48.390625 19.1875 42.75 
Q 14.984375 37.109375 14.984375 27.296875 
Q 14.984375 17.484375 19.15625 11.84375 
Q 23.34375 6.203125 30.609375 6.203125 
Q 37.796875 6.203125 41.984375 11.859375 
Q 46.1875 17.53125 46.1875 27.296875 
Q 46.1875 37.015625 41.984375 42.703125 
Q 37.796875 48.390625 30.609375 48.390625 
z
M 30.609375 56 
Q 42.328125 56 49.015625 48.375 
Q 55.71875 40.765625 55.71875 27.296875 
Q 55.71875 13.875 49.015625 6.21875 
Q 42.328125 -1.421875 30.609375 -1.421875 
Q 18.84375 -1.421875 12.171875 6.21875 
Q 5.515625 13.875 5.515625 27.296875 
Q 5.515625 40.765625 12.171875 48.375 
Q 18.84375 56 30.609375 56 
z
" id="DejaVuSans-111"/>
      <path d="M 37.109375 75.984375 
L 37.109375 68.5 
L 28.515625 68.5 
Q 23.6875 68.5 21.796875 66.546875 
Q 19.921875 64.59375 19.921875 59.515625 
L 19.921875 54.6875 
L 34.71875 54.6875 
L 34.71875 47.703125 
L 19.921875 47.703125 
L 19.921875 0 
L 10.890625 0 
L 10.890625 47.703125 
L 2.296875 47.703125 
L 2.296875 54.6875 
L 10.890625 54.6875 
L 10.890625 58.5 
Q 10.890625 67.625 15.140625 71.796875 
Q 19.390625 75.984375 28.609375 75.984375 
z
" id="DejaVuSans-102"/>
      <path d="M 18.3125 70.21875 
L 18.3125 54.6875 
L 36.8125 54.6875 
L 36.8125 47.703125 
L 18.3125 47.703125 
L 18.3125 18.015625 
Q 18.3125 11.328125 20.140625 9.421875 
Q 21.96875 7.515625 27.59375 7.515625 
L 36.8125 7.515625 
L 36.8125 0 
L 27.59375 0 
Q 17.1875 0 13.234375 3.875 
Q 9.28125 7.765625 9.28125 18.015625 
L 9.28125 47.703125 
L 2.6875 47.703125 
L 2.6875 54.6875 
L 9.28125 54.6875 
L 9.28125 70.21875 
z
" id="DejaVuSans-116"/>
      <path d="M 34.28125 27.484375 
Q 23.390625 27.484375 19.1875 25 
Q 14.984375 22.515625 14.984375 16.5 
Q 14.984375 11.71875 18.140625 8.90625 
Q 21.296875 6.109375 26.703125 6.109375 
Q 34.1875 6.109375 38.703125 11.40625 
Q 43.21875 16.703125 43.21875 25.484375 
L 43.21875 27.484375 
z
M 52.203125 31.203125 
L 52.203125 0 
L 43.21875 0 
L 43.21875 8.296875 
Q 40.140625 3.328125 35.546875 0.953125 
Q 30.953125 -1.421875 24.3125 -1.421875 
Q 15.921875 -1.421875 10.953125 3.296875 
Q 6 8.015625 6 15.921875 
Q 6 25.140625 12.171875 29.828125 
Q 18.359375 34.515625 30.609375 34.515625 
L 43.21875 34.515625 
L 43.21875 35.40625 
Q 43.21875 41.609375 39.140625 45 
Q 35.0625 48.390625 27.6875 48.390625 
Q 23 48.390625 18.546875 47.265625 
Q 14.109375 46.140625 10.015625 43.890625 
L 10.015625 52.203125 
Q 14.9375 54.109375 19.578125 55.046875 
Q 24.21875 56 28.609375 56 
Q 40.484375 56 46.34375 49.84375 
Q 52.203125 43.703125 52.203125 31.203125 
z
" id="DejaVuSans-97"/>
      <path d="M 9.421875 75.984375 
L 18.40625 75.984375 
L 18.40625 0 
L 9.421875 0 
z
" id="DejaVuSans-108"/>
      <path d="M 48.78125 52.59375 
L 48.78125 44.1875 
Q 44.96875 46.296875 41.140625 47.34375 
Q 37.3125 48.390625 33.40625 48.390625 
Q 24.65625 48.390625 19.8125 42.84375 
Q 14.984375 37.3125 14.984375 27.296875 
Q 14.984375 17.28125 19.8125 11.734375 
Q 24.65625 6.203125 33.40625 6.203125 
Q 37.3125 6.203125 41.140625 7.25 
Q 44.96875 8.296875 48.78125 10.40625 
L 48.78125 2.09375 
Q 45.015625 0.34375 40.984375 -0.53125 
Q 36.96875 -1.421875 32.421875 -1.421875 
Q 20.0625 -1.421875 12.78125 6.34375 
Q 5.515625 14.109375 5.515625 27.296875 
Q 5.515625 40.671875 12.859375 48.328125 
Q 20.21875 56 33.015625 56 
Q 37.15625 56 41.109375 55.140625 
Q 45.0625 54.296875 48.78125 52.59375 
z
" id="DejaVuSans-99"/>
      <path d="M 9.078125 75.984375 
L 18.109375 75.984375 
L 18.109375 31.109375 
L 44.921875 54.6875 
L 56.390625 54.6875 
L 27.390625 29.109375 
L 57.625 0 
L 45.90625 0 
L 18.109375 26.703125 
L 18.109375 0 
L 9.078125 0 
z
" id="DejaVuSans-107"/>
      <path d="M 56.203125 29.59375 
L 56.203125 25.203125 
L 14.890625 25.203125 
Q 15.484375 15.921875 20.484375 11.0625 
Q 25.484375 6.203125 34.421875 6.203125 
Q 39.59375 6.203125 44.453125 7.46875 
Q 49.3125 8.734375 54.109375 11.28125 
L 54.109375 2.78125 
Q 49.265625 0.734375 44.1875 -0.34375 
Q 39.109375 -1.421875 33.890625 -1.421875 
Q 20.796875 -1.421875 13.15625 6.1875 
Q 5.515625 13.8125 5.515625 26.8125 
Q 5.515625 40.234375 12.765625 48.109375 
Q 20.015625 56 32.328125 56 
Q 43.359375 56 49.78125 48.890625 
Q 56.203125 41.796875 56.203125 29.59375 
z
M 47.21875 32.234375 
Q 47.125 39.59375 43.09375 43.984375 
Q 39.0625 48.390625 32.421875 48.390625 
Q 24.90625 48.390625 20.390625 44.140625 
Q 15.875 39.890625 15.1875 32.171875 
z
" id="DejaVuSans-101"/>
      <path d="M 41.109375 46.296875 
Q 39.59375 47.171875 37.8125 47.578125 
Q 36.03125 48 33.890625 48 
Q 26.265625 48 22.1875 43.046875 
Q 18.109375 38.09375 18.109375 28.8125 
L 18.109375 0 
L 9.078125 0 
L 9.078125 54.6875 
L 18.109375 54.6875 
L 18.109375 46.1875 
Q 20.953125 51.171875 25.484375 53.578125 
Q 30.03125 56 36.53125 56 
Q 37.453125 56 38.578125 55.875 
Q 39.703125 55.765625 41.0625 55.515625 
z
" id="DejaVuSans-114"/>
     </defs>
     <g transform="translate(123 35.220469)scale(0.15 -0.15)">
      <use xlink:href="#DejaVuSans-35"/>
      <use x="83.789062" xlink:href="#DejaVuSans-32"/>
      <use x="115.576172" xlink:href="#DejaVuSans-111"/>
      <use x="176.757812" xlink:href="#DejaVuSans-102"/>
      <use x="211.962891" xlink:href="#DejaVuSans-32"/>
      <use x="243.75" xlink:href="#DejaVuSans-116"/>
      <use x="282.958984" xlink:href="#DejaVuSans-111"/>
      <use x="344.140625" xlink:href="#DejaVuSans-116"/>
      <use x="383.349609" xlink:href="#DejaVuSans-97"/>
      <use x="444.628906" xlink:href="#DejaVuSans-108"/>
      <use x="472.412109" xlink:href="#DejaVuSans-32"/>
      <use x="504.199219" xlink:href="#DejaVuSans-97"/>
      <use x="565.478516" xlink:href="#DejaVuSans-116"/>
      <use x="604.6875" xlink:href="#DejaVuSans-116"/>
      <use x="643.896484" xlink:href="#DejaVuSans-97"/>
      <use x="705.175781" xlink:href="#DejaVuSans-99"/>
      <use x="760.15625" xlink:href="#DejaVuSans-107"/>
      <use x="818.019531" xlink:href="#DejaVuSans-101"/>
      <use x="879.542969" xlink:href="#DejaVuSans-114"/>
     </g>
    </g>
    <g id="line2d_19">
     <path d="M 282.295313 29.970469 
L 312.295313 29.970469 
" style="fill:none;stroke:#ff7f0e;stroke-linecap:square;stroke-width:1.5;"/>
    </g>
    <g id="line2d_20"/>
    <g id="text_16">
     <!-- # of inside attacker -->
     <defs>
      <path d="M 9.421875 54.6875 
L 18.40625 54.6875 
L 18.40625 0 
L 9.421875 0 
z
M 9.421875 75.984375 
L 18.40625 75.984375 
L 18.40625 64.59375 
L 9.421875 64.59375 
z
" id="DejaVuSans-105"/>
      <path d="M 54.890625 33.015625 
L 54.890625 0 
L 45.90625 0 
L 45.90625 32.71875 
Q 45.90625 40.484375 42.875 44.328125 
Q 39.84375 48.1875 33.796875 48.1875 
Q 26.515625 48.1875 22.3125 43.546875 
Q 18.109375 38.921875 18.109375 30.90625 
L 18.109375 0 
L 9.078125 0 
L 9.078125 54.6875 
L 18.109375 54.6875 
L 18.109375 46.1875 
Q 21.34375 51.125 25.703125 53.5625 
Q 30.078125 56 35.796875 56 
Q 45.21875 56 50.046875 50.171875 
Q 54.890625 44.34375 54.890625 33.015625 
z
" id="DejaVuSans-110"/>
      <path d="M 44.28125 53.078125 
L 44.28125 44.578125 
Q 40.484375 46.53125 36.375 47.5 
Q 32.28125 48.484375 27.875 48.484375 
Q 21.1875 48.484375 17.84375 46.4375 
Q 14.5 44.390625 14.5 40.28125 
Q 14.5 37.15625 16.890625 35.375 
Q 19.28125 33.59375 26.515625 31.984375 
L 29.59375 31.296875 
Q 39.15625 29.25 43.1875 25.515625 
Q 47.21875 21.78125 47.21875 15.09375 
Q 47.21875 7.46875 41.1875 3.015625 
Q 35.15625 -1.421875 24.609375 -1.421875 
Q 20.21875 -1.421875 15.453125 -0.5625 
Q 10.6875 0.296875 5.421875 2 
L 5.421875 11.28125 
Q 10.40625 8.6875 15.234375 7.390625 
Q 20.0625 6.109375 24.8125 6.109375 
Q 31.15625 6.109375 34.5625 8.28125 
Q 37.984375 10.453125 37.984375 14.40625 
Q 37.984375 18.0625 35.515625 20.015625 
Q 33.0625 21.96875 24.703125 23.78125 
L 21.578125 24.515625 
Q 13.234375 26.265625 9.515625 29.90625 
Q 5.8125 33.546875 5.8125 39.890625 
Q 5.8125 47.609375 11.28125 51.796875 
Q 16.75 56 26.8125 56 
Q 31.78125 56 36.171875 55.265625 
Q 40.578125 54.546875 44.28125 53.078125 
z
" id="DejaVuSans-115"/>
      <path d="M 45.40625 46.390625 
L 45.40625 75.984375 
L 54.390625 75.984375 
L 54.390625 0 
L 45.40625 0 
L 45.40625 8.203125 
Q 42.578125 3.328125 38.25 0.953125 
Q 33.9375 -1.421875 27.875 -1.421875 
Q 17.96875 -1.421875 11.734375 6.484375 
Q 5.515625 14.40625 5.515625 27.296875 
Q 5.515625 40.1875 11.734375 48.09375 
Q 17.96875 56 27.875 56 
Q 33.9375 56 38.25 53.625 
Q 42.578125 51.265625 45.40625 46.390625 
z
M 14.796875 27.296875 
Q 14.796875 17.390625 18.875 11.75 
Q 22.953125 6.109375 30.078125 6.109375 
Q 37.203125 6.109375 41.296875 11.75 
Q 45.40625 17.390625 45.40625 27.296875 
Q 45.40625 37.203125 41.296875 42.84375 
Q 37.203125 48.484375 30.078125 48.484375 
Q 22.953125 48.484375 18.875 42.84375 
Q 14.796875 37.203125 14.796875 27.296875 
z
" id="DejaVuSans-100"/>
     </defs>
     <g transform="translate(324.295313 35.220469)scale(0.15 -0.15)">
      <use xlink:href="#DejaVuSans-35"/>
      <use x="83.789062" xlink:href="#DejaVuSans-32"/>
      <use x="115.576172" xlink:href="#DejaVuSans-111"/>
      <use x="176.757812" xlink:href="#DejaVuSans-102"/>
      <use x="211.962891" xlink:href="#DejaVuSans-32"/>
      <use x="243.75" xlink:href="#DejaVuSans-105"/>
      <use x="271.533203" xlink:href="#DejaVuSans-110"/>
      <use x="334.912109" xlink:href="#DejaVuSans-115"/>
      <use x="387.011719" xlink:href="#DejaVuSans-105"/>
      <use x="414.794922" xlink:href="#DejaVuSans-100"/>
      <use x="478.271484" xlink:href="#DejaVuSans-101"/>
      <use x="539.794922" xlink:href="#DejaVuSans-32"/>
      <use x="571.582031" xlink:href="#DejaVuSans-97"/>
      <use x="632.861328" xlink:href="#DejaVuSans-116"/>
      <use x="672.070312" xlink:href="#DejaVuSans-116"/>
      <use x="711.279297" xlink:href="#DejaVuSans-97"/>
      <use x="772.558594" xlink:href="#DejaVuSans-99"/>
      <use x="827.539062" xlink:href="#DejaVuSans-107"/>
      <use x="885.402344" xlink:href="#DejaVuSans-101"/>
      <use x="946.925781" xlink:href="#DejaVuSans-114"/>
     </g>
    </g>
   </g>
  </g>
 </g>
 <defs>
  <clipPath id="p4ec6043f0a">
   <rect height="332.64" width="418.5" x="67.5" y="51.84"/>
  </clipPath>
 </defs>
</svg>
