<?xml version="1.0" encoding="utf-8" standalone="no"?>
<!DOCTYPE svg PUBLIC "-//W3C//DTD SVG 1.1//EN"
  "http://www.w3.org/Graphics/SVG/1.1/DTD/svg11.dtd">
<!-- Created with matplotlib (https://matplotlib.org/) -->
<svg height="432pt" version="1.1" viewBox="0 0 540 432" width="540pt" xmlns="http://www.w3.org/2000/svg" xmlns:xlink="http://www.w3.org/1999/xlink">
 <defs>
  <style type="text/css">
*{stroke-linecap:butt;stroke-linejoin:round;}
  </style>
 </defs>
 <g id="figure_1">
  <g id="patch_1">
   <path d="M 0 432 
L 540 432 
L 540 0 
L 0 0 
z
" style="fill:#ffffff;"/>
  </g>
  <g id="axes_1">
   <g id="patch_2">
    <path d="M 89.12 365.56 
L 529.2 365.56 
L 529.2 66.6 
L 89.12 66.6 
z
" style="fill:#ffffff;"/>
   </g>
   <g id="matplotlib.axis_1">
    <g id="xtick_1">
     <g id="line2d_1">
      <defs>
       <path d="M 0 0 
L 0 3.5 
" id="mb85052e83e" style="stroke:#000000;stroke-width:0.8;"/>
      </defs>
      <g>
       <use style="stroke:#000000;stroke-width:0.8;" x="109.123636" xlink:href="#mb85052e83e" y="365.56"/>
      </g>
     </g>
     <g id="text_1">
      <!-- 0 -->
      <defs>
       <path d="M 31.78125 66.40625 
Q 24.171875 66.40625 20.328125 58.90625 
Q 16.5 51.421875 16.5 36.375 
Q 16.5 21.390625 20.328125 13.890625 
Q 24.171875 6.390625 31.78125 6.390625 
Q 39.453125 6.390625 43.28125 13.890625 
Q 47.125 21.390625 47.125 36.375 
Q 47.125 51.421875 43.28125 58.90625 
Q 39.453125 66.40625 31.78125 66.40625 
z
M 31.78125 74.21875 
Q 44.046875 74.21875 50.515625 64.515625 
Q 56.984375 54.828125 56.984375 36.375 
Q 56.984375 17.96875 50.515625 8.265625 
Q 44.046875 -1.421875 31.78125 -1.421875 
Q 19.53125 -1.421875 13.0625 8.265625 
Q 6.59375 17.96875 6.59375 36.375 
Q 6.59375 54.828125 13.0625 64.515625 
Q 19.53125 74.21875 31.78125 74.21875 
z
" id="DejaVuSans-48"/>
      </defs>
      <g transform="translate(102.761136 387.756875)scale(0.2 -0.2)">
       <use xlink:href="#DejaVuSans-48"/>
      </g>
     </g>
    </g>
    <g id="xtick_2">
     <g id="line2d_2">
      <g>
       <use style="stroke:#000000;stroke-width:0.8;" x="198.028687" xlink:href="#mb85052e83e" y="365.56"/>
      </g>
     </g>
     <g id="text_2">
      <!-- 20 -->
      <defs>
       <path d="M 19.1875 8.296875 
L 53.609375 8.296875 
L 53.609375 0 
L 7.328125 0 
L 7.328125 8.296875 
Q 12.9375 14.109375 22.625 23.890625 
Q 32.328125 33.6875 34.8125 36.53125 
Q 39.546875 41.84375 41.421875 45.53125 
Q 43.3125 49.21875 43.3125 52.78125 
Q 43.3125 58.59375 39.234375 62.25 
Q 35.15625 65.921875 28.609375 65.921875 
Q 23.96875 65.921875 18.8125 64.3125 
Q 13.671875 62.703125 7.8125 59.421875 
L 7.8125 69.390625 
Q 13.765625 71.78125 18.9375 73 
Q 24.125 74.21875 28.421875 74.21875 
Q 39.75 74.21875 46.484375 68.546875 
Q 53.21875 62.890625 53.21875 53.421875 
Q 53.21875 48.921875 51.53125 44.890625 
Q 49.859375 40.875 45.40625 35.40625 
Q 44.1875 33.984375 37.640625 27.21875 
Q 31.109375 20.453125 19.1875 8.296875 
z
" id="DejaVuSans-50"/>
      </defs>
      <g transform="translate(185.303687 387.756875)scale(0.2 -0.2)">
       <use xlink:href="#DejaVuSans-50"/>
       <use x="63.623047" xlink:href="#DejaVuSans-48"/>
      </g>
     </g>
    </g>
    <g id="xtick_3">
     <g id="line2d_3">
      <g>
       <use style="stroke:#000000;stroke-width:0.8;" x="286.933737" xlink:href="#mb85052e83e" y="365.56"/>
      </g>
     </g>
     <g id="text_3">
      <!-- 40 -->
      <defs>
       <path d="M 37.796875 64.3125 
L 12.890625 25.390625 
L 37.796875 25.390625 
z
M 35.203125 72.90625 
L 47.609375 72.90625 
L 47.609375 25.390625 
L 58.015625 25.390625 
L 58.015625 17.1875 
L 47.609375 17.1875 
L 47.609375 0 
L 37.796875 0 
L 37.796875 17.1875 
L 4.890625 17.1875 
L 4.890625 26.703125 
z
" id="DejaVuSans-52"/>
      </defs>
      <g transform="translate(274.208737 387.756875)scale(0.2 -0.2)">
       <use xlink:href="#DejaVuSans-52"/>
       <use x="63.623047" xlink:href="#DejaVuSans-48"/>
      </g>
     </g>
    </g>
    <g id="xtick_4">
     <g id="line2d_4">
      <g>
       <use style="stroke:#000000;stroke-width:0.8;" x="375.838788" xlink:href="#mb85052e83e" y="365.56"/>
      </g>
     </g>
     <g id="text_4">
      <!-- 60 -->
      <defs>
       <path d="M 33.015625 40.375 
Q 26.375 40.375 22.484375 35.828125 
Q 18.609375 31.296875 18.609375 23.390625 
Q 18.609375 15.53125 22.484375 10.953125 
Q 26.375 6.390625 33.015625 6.390625 
Q 39.65625 6.390625 43.53125 10.953125 
Q 47.40625 15.53125 47.40625 23.390625 
Q 47.40625 31.296875 43.53125 35.828125 
Q 39.65625 40.375 33.015625 40.375 
z
M 52.59375 71.296875 
L 52.59375 62.3125 
Q 48.875 64.0625 45.09375 64.984375 
Q 41.3125 65.921875 37.59375 65.921875 
Q 27.828125 65.921875 22.671875 59.328125 
Q 17.53125 52.734375 16.796875 39.40625 
Q 19.671875 43.65625 24.015625 45.921875 
Q 28.375 48.1875 33.59375 48.1875 
Q 44.578125 48.1875 50.953125 41.515625 
Q 57.328125 34.859375 57.328125 23.390625 
Q 57.328125 12.15625 50.6875 5.359375 
Q 44.046875 -1.421875 33.015625 -1.421875 
Q 20.359375 -1.421875 13.671875 8.265625 
Q 6.984375 17.96875 6.984375 36.375 
Q 6.984375 53.65625 15.1875 63.9375 
Q 23.390625 74.21875 37.203125 74.21875 
Q 40.921875 74.21875 44.703125 73.484375 
Q 48.484375 72.75 52.59375 71.296875 
z
" id="DejaVuSans-54"/>
      </defs>
      <g transform="translate(363.113788 387.756875)scale(0.2 -0.2)">
       <use xlink:href="#DejaVuSans-54"/>
       <use x="63.623047" xlink:href="#DejaVuSans-48"/>
      </g>
     </g>
    </g>
    <g id="xtick_5">
     <g id="line2d_5">
      <g>
       <use style="stroke:#000000;stroke-width:0.8;" x="464.743838" xlink:href="#mb85052e83e" y="365.56"/>
      </g>
     </g>
     <g id="text_5">
      <!-- 80 -->
      <defs>
       <path d="M 31.78125 34.625 
Q 24.75 34.625 20.71875 30.859375 
Q 16.703125 27.09375 16.703125 20.515625 
Q 16.703125 13.921875 20.71875 10.15625 
Q 24.75 6.390625 31.78125 6.390625 
Q 38.8125 6.390625 42.859375 10.171875 
Q 46.921875 13.96875 46.921875 20.515625 
Q 46.921875 27.09375 42.890625 30.859375 
Q 38.875 34.625 31.78125 34.625 
z
M 21.921875 38.8125 
Q 15.578125 40.375 12.03125 44.71875 
Q 8.5 49.078125 8.5 55.328125 
Q 8.5 64.0625 14.71875 69.140625 
Q 20.953125 74.21875 31.78125 74.21875 
Q 42.671875 74.21875 48.875 69.140625 
Q 55.078125 64.0625 55.078125 55.328125 
Q 55.078125 49.078125 51.53125 44.71875 
Q 48 40.375 41.703125 38.8125 
Q 48.828125 37.15625 52.796875 32.3125 
Q 56.78125 27.484375 56.78125 20.515625 
Q 56.78125 9.90625 50.3125 4.234375 
Q 43.84375 -1.421875 31.78125 -1.421875 
Q 19.734375 -1.421875 13.25 4.234375 
Q 6.78125 9.90625 6.78125 20.515625 
Q 6.78125 27.484375 10.78125 32.3125 
Q 14.796875 37.15625 21.921875 38.8125 
z
M 18.3125 54.390625 
Q 18.3125 48.734375 21.84375 45.5625 
Q 25.390625 42.390625 31.78125 42.390625 
Q 38.140625 42.390625 41.71875 45.5625 
Q 45.3125 48.734375 45.3125 54.390625 
Q 45.3125 60.0625 41.71875 63.234375 
Q 38.140625 66.40625 31.78125 66.40625 
Q 25.390625 66.40625 21.84375 63.234375 
Q 18.3125 60.0625 18.3125 54.390625 
z
" id="DejaVuSans-56"/>
      </defs>
      <g transform="translate(452.018838 387.756875)scale(0.2 -0.2)">
       <use xlink:href="#DejaVuSans-56"/>
       <use x="63.623047" xlink:href="#DejaVuSans-48"/>
      </g>
     </g>
    </g>
    <g id="text_6">
     <!-- # of games -->
     <defs>
      <path d="M 51.125 44 
L 36.921875 44 
L 32.8125 27.6875 
L 47.125 27.6875 
z
M 43.796875 71.78125 
L 38.71875 51.515625 
L 52.984375 51.515625 
L 58.109375 71.78125 
L 65.921875 71.78125 
L 60.890625 51.515625 
L 76.125 51.515625 
L 76.125 44 
L 58.984375 44 
L 54.984375 27.6875 
L 70.515625 27.6875 
L 70.515625 20.21875 
L 53.078125 20.21875 
L 48 0 
L 40.1875 0 
L 45.21875 20.21875 
L 30.90625 20.21875 
L 25.875 0 
L 18.015625 0 
L 23.09375 20.21875 
L 7.71875 20.21875 
L 7.71875 27.6875 
L 24.90625 27.6875 
L 29 44 
L 13.28125 44 
L 13.28125 51.515625 
L 30.90625 51.515625 
L 35.890625 71.78125 
z
" id="DejaVuSans-35"/>
      <path id="DejaVuSans-32"/>
      <path d="M 30.609375 48.390625 
Q 23.390625 48.390625 19.1875 42.75 
Q 14.984375 37.109375 14.984375 27.296875 
Q 14.984375 17.484375 19.15625 11.84375 
Q 23.34375 6.203125 30.609375 6.203125 
Q 37.796875 6.203125 41.984375 11.859375 
Q 46.1875 17.53125 46.1875 27.296875 
Q 46.1875 37.015625 41.984375 42.703125 
Q 37.796875 48.390625 30.609375 48.390625 
z
M 30.609375 56 
Q 42.328125 56 49.015625 48.375 
Q 55.71875 40.765625 55.71875 27.296875 
Q 55.71875 13.875 49.015625 6.21875 
Q 42.328125 -1.421875 30.609375 -1.421875 
Q 18.84375 -1.421875 12.171875 6.21875 
Q 5.515625 13.875 5.515625 27.296875 
Q 5.515625 40.765625 12.171875 48.375 
Q 18.84375 56 30.609375 56 
z
" id="DejaVuSans-111"/>
      <path d="M 37.109375 75.984375 
L 37.109375 68.5 
L 28.515625 68.5 
Q 23.6875 68.5 21.796875 66.546875 
Q 19.921875 64.59375 19.921875 59.515625 
L 19.921875 54.6875 
L 34.71875 54.6875 
L 34.71875 47.703125 
L 19.921875 47.703125 
L 19.921875 0 
L 10.890625 0 
L 10.890625 47.703125 
L 2.296875 47.703125 
L 2.296875 54.6875 
L 10.890625 54.6875 
L 10.890625 58.5 
Q 10.890625 67.625 15.140625 71.796875 
Q 19.390625 75.984375 28.609375 75.984375 
z
" id="DejaVuSans-102"/>
      <path d="M 45.40625 27.984375 
Q 45.40625 37.75 41.375 43.109375 
Q 37.359375 48.484375 30.078125 48.484375 
Q 22.859375 48.484375 18.828125 43.109375 
Q 14.796875 37.75 14.796875 27.984375 
Q 14.796875 18.265625 18.828125 12.890625 
Q 22.859375 7.515625 30.078125 7.515625 
Q 37.359375 7.515625 41.375 12.890625 
Q 45.40625 18.265625 45.40625 27.984375 
z
M 54.390625 6.78125 
Q 54.390625 -7.171875 48.1875 -13.984375 
Q 42 -20.796875 29.203125 -20.796875 
Q 24.46875 -20.796875 20.265625 -20.09375 
Q 16.0625 -19.390625 12.109375 -17.921875 
L 12.109375 -9.1875 
Q 16.0625 -11.328125 19.921875 -12.34375 
Q 23.78125 -13.375 27.78125 -13.375 
Q 36.625 -13.375 41.015625 -8.765625 
Q 45.40625 -4.15625 45.40625 5.171875 
L 45.40625 9.625 
Q 42.625 4.78125 38.28125 2.390625 
Q 33.9375 0 27.875 0 
Q 17.828125 0 11.671875 7.65625 
Q 5.515625 15.328125 5.515625 27.984375 
Q 5.515625 40.671875 11.671875 48.328125 
Q 17.828125 56 27.875 56 
Q 33.9375 56 38.28125 53.609375 
Q 42.625 51.21875 45.40625 46.390625 
L 45.40625 54.6875 
L 54.390625 54.6875 
z
" id="DejaVuSans-103"/>
      <path d="M 34.28125 27.484375 
Q 23.390625 27.484375 19.1875 25 
Q 14.984375 22.515625 14.984375 16.5 
Q 14.984375 11.71875 18.140625 8.90625 
Q 21.296875 6.109375 26.703125 6.109375 
Q 34.1875 6.109375 38.703125 11.40625 
Q 43.21875 16.703125 43.21875 25.484375 
L 43.21875 27.484375 
z
M 52.203125 31.203125 
L 52.203125 0 
L 43.21875 0 
L 43.21875 8.296875 
Q 40.140625 3.328125 35.546875 0.953125 
Q 30.953125 -1.421875 24.3125 -1.421875 
Q 15.921875 -1.421875 10.953125 3.296875 
Q 6 8.015625 6 15.921875 
Q 6 25.140625 12.171875 29.828125 
Q 18.359375 34.515625 30.609375 34.515625 
L 43.21875 34.515625 
L 43.21875 35.40625 
Q 43.21875 41.609375 39.140625 45 
Q 35.0625 48.390625 27.6875 48.390625 
Q 23 48.390625 18.546875 47.265625 
Q 14.109375 46.140625 10.015625 43.890625 
L 10.015625 52.203125 
Q 14.9375 54.109375 19.578125 55.046875 
Q 24.21875 56 28.609375 56 
Q 40.484375 56 46.34375 49.84375 
Q 52.203125 43.703125 52.203125 31.203125 
z
" id="DejaVuSans-97"/>
      <path d="M 52 44.1875 
Q 55.375 50.25 60.0625 53.125 
Q 64.75 56 71.09375 56 
Q 79.640625 56 84.28125 50.015625 
Q 88.921875 44.046875 88.921875 33.015625 
L 88.921875 0 
L 79.890625 0 
L 79.890625 32.71875 
Q 79.890625 40.578125 77.09375 44.375 
Q 74.3125 48.1875 68.609375 48.1875 
Q 61.625 48.1875 57.5625 43.546875 
Q 53.515625 38.921875 53.515625 30.90625 
L 53.515625 0 
L 44.484375 0 
L 44.484375 32.71875 
Q 44.484375 40.625 41.703125 44.40625 
Q 38.921875 48.1875 33.109375 48.1875 
Q 26.21875 48.1875 22.15625 43.53125 
Q 18.109375 38.875 18.109375 30.90625 
L 18.109375 0 
L 9.078125 0 
L 9.078125 54.6875 
L 18.109375 54.6875 
L 18.109375 46.1875 
Q 21.1875 51.21875 25.484375 53.609375 
Q 29.78125 56 35.6875 56 
Q 41.65625 56 45.828125 52.96875 
Q 50 49.953125 52 44.1875 
z
" id="DejaVuSans-109"/>
      <path d="M 56.203125 29.59375 
L 56.203125 25.203125 
L 14.890625 25.203125 
Q 15.484375 15.921875 20.484375 11.0625 
Q 25.484375 6.203125 34.421875 6.203125 
Q 39.59375 6.203125 44.453125 7.46875 
Q 49.3125 8.734375 54.109375 11.28125 
L 54.109375 2.78125 
Q 49.265625 0.734375 44.1875 -0.34375 
Q 39.109375 -1.421875 33.890625 -1.421875 
Q 20.796875 -1.421875 13.15625 6.1875 
Q 5.515625 13.8125 5.515625 26.8125 
Q 5.515625 40.234375 12.765625 48.109375 
Q 20.015625 56 32.328125 56 
Q 43.359375 56 49.78125 48.890625 
Q 56.203125 41.796875 56.203125 29.59375 
z
M 47.21875 32.234375 
Q 47.125 39.59375 43.09375 43.984375 
Q 39.0625 48.390625 32.421875 48.390625 
Q 24.90625 48.390625 20.390625 44.140625 
Q 15.875 39.890625 15.1875 32.171875 
z
" id="DejaVuSans-101"/>
      <path d="M 44.28125 53.078125 
L 44.28125 44.578125 
Q 40.484375 46.53125 36.375 47.5 
Q 32.28125 48.484375 27.875 48.484375 
Q 21.1875 48.484375 17.84375 46.4375 
Q 14.5 44.390625 14.5 40.28125 
Q 14.5 37.15625 16.890625 35.375 
Q 19.28125 33.59375 26.515625 31.984375 
L 29.59375 31.296875 
Q 39.15625 29.25 43.1875 25.515625 
Q 47.21875 21.78125 47.21875 15.09375 
Q 47.21875 7.46875 41.1875 3.015625 
Q 35.15625 -1.421875 24.609375 -1.421875 
Q 20.21875 -1.421875 15.453125 -0.5625 
Q 10.6875 0.296875 5.421875 2 
L 5.421875 11.28125 
Q 10.40625 8.6875 15.234375 7.390625 
Q 20.0625 6.109375 24.8125 6.109375 
Q 31.15625 6.109375 34.5625 8.28125 
Q 37.984375 10.453125 37.984375 14.40625 
Q 37.984375 18.0625 35.515625 20.015625 
Q 33.0625 21.96875 24.703125 23.78125 
L 21.578125 24.515625 
Q 13.234375 26.265625 9.515625 29.90625 
Q 5.8125 33.546875 5.8125 39.890625 
Q 5.8125 47.609375 11.28125 51.796875 
Q 16.75 56 26.8125 56 
Q 31.78125 56 36.171875 55.265625 
Q 40.578125 54.546875 44.28125 53.078125 
z
" id="DejaVuSans-115"/>
     </defs>
     <g transform="translate(236.716641 414.912344)scale(0.25 -0.25)">
      <use xlink:href="#DejaVuSans-35"/>
      <use x="83.789062" xlink:href="#DejaVuSans-32"/>
      <use x="115.576172" xlink:href="#DejaVuSans-111"/>
      <use x="176.757812" xlink:href="#DejaVuSans-102"/>
      <use x="211.962891" xlink:href="#DejaVuSans-32"/>
      <use x="243.75" xlink:href="#DejaVuSans-103"/>
      <use x="307.226562" xlink:href="#DejaVuSans-97"/>
      <use x="368.505859" xlink:href="#DejaVuSans-109"/>
      <use x="465.917969" xlink:href="#DejaVuSans-101"/>
      <use x="527.441406" xlink:href="#DejaVuSans-115"/>
     </g>
    </g>
   </g>
   <g id="matplotlib.axis_2">
    <g id="ytick_1">
     <g id="line2d_6">
      <defs>
       <path d="M 0 0 
L -3.5 0 
" id="mb102cd66bf" style="stroke:#000000;stroke-width:0.8;"/>
      </defs>
      <g>
       <use style="stroke:#000000;stroke-width:0.8;" x="89.12" xlink:href="#mb102cd66bf" y="351.970909"/>
      </g>
     </g>
     <g id="text_7">
      <!-- 0 -->
      <g transform="translate(69.395 359.569347)scale(0.2 -0.2)">
       <use xlink:href="#DejaVuSans-48"/>
      </g>
     </g>
    </g>
    <g id="ytick_2">
     <g id="line2d_7">
      <g>
       <use style="stroke:#000000;stroke-width:0.8;" x="89.12" xlink:href="#mb102cd66bf" y="293.523206"/>
      </g>
     </g>
     <g id="text_8">
      <!-- 500 -->
      <defs>
       <path d="M 10.796875 72.90625 
L 49.515625 72.90625 
L 49.515625 64.59375 
L 19.828125 64.59375 
L 19.828125 46.734375 
Q 21.96875 47.46875 24.109375 47.828125 
Q 26.265625 48.1875 28.421875 48.1875 
Q 40.625 48.1875 47.75 41.5 
Q 54.890625 34.8125 54.890625 23.390625 
Q 54.890625 11.625 47.5625 5.09375 
Q 40.234375 -1.421875 26.90625 -1.421875 
Q 22.3125 -1.421875 17.546875 -0.640625 
Q 12.796875 0.140625 7.71875 1.703125 
L 7.71875 11.625 
Q 12.109375 9.234375 16.796875 8.0625 
Q 21.484375 6.890625 26.703125 6.890625 
Q 35.15625 6.890625 40.078125 11.328125 
Q 45.015625 15.765625 45.015625 23.390625 
Q 45.015625 31 40.078125 35.4375 
Q 35.15625 39.890625 26.703125 39.890625 
Q 22.75 39.890625 18.8125 39.015625 
Q 14.890625 38.140625 10.796875 36.28125 
z
" id="DejaVuSans-53"/>
      </defs>
      <g transform="translate(43.945 301.121644)scale(0.2 -0.2)">
       <use xlink:href="#DejaVuSans-53"/>
       <use x="63.623047" xlink:href="#DejaVuSans-48"/>
       <use x="127.246094" xlink:href="#DejaVuSans-48"/>
      </g>
     </g>
    </g>
    <g id="ytick_3">
     <g id="line2d_8">
      <g>
       <use style="stroke:#000000;stroke-width:0.8;" x="89.12" xlink:href="#mb102cd66bf" y="235.075503"/>
      </g>
     </g>
     <g id="text_9">
      <!-- 1000 -->
      <defs>
       <path d="M 12.40625 8.296875 
L 28.515625 8.296875 
L 28.515625 63.921875 
L 10.984375 60.40625 
L 10.984375 69.390625 
L 28.421875 72.90625 
L 38.28125 72.90625 
L 38.28125 8.296875 
L 54.390625 8.296875 
L 54.390625 0 
L 12.40625 0 
z
" id="DejaVuSans-49"/>
      </defs>
      <g transform="translate(31.22 242.673941)scale(0.2 -0.2)">
       <use xlink:href="#DejaVuSans-49"/>
       <use x="63.623047" xlink:href="#DejaVuSans-48"/>
       <use x="127.246094" xlink:href="#DejaVuSans-48"/>
       <use x="190.869141" xlink:href="#DejaVuSans-48"/>
      </g>
     </g>
    </g>
    <g id="ytick_4">
     <g id="line2d_9">
      <g>
       <use style="stroke:#000000;stroke-width:0.8;" x="89.12" xlink:href="#mb102cd66bf" y="176.627801"/>
      </g>
     </g>
     <g id="text_10">
      <!-- 1500 -->
      <g transform="translate(31.22 184.226238)scale(0.2 -0.2)">
       <use xlink:href="#DejaVuSans-49"/>
       <use x="63.623047" xlink:href="#DejaVuSans-53"/>
       <use x="127.246094" xlink:href="#DejaVuSans-48"/>
       <use x="190.869141" xlink:href="#DejaVuSans-48"/>
      </g>
     </g>
    </g>
    <g id="ytick_5">
     <g id="line2d_10">
      <g>
       <use style="stroke:#000000;stroke-width:0.8;" x="89.12" xlink:href="#mb102cd66bf" y="118.180098"/>
      </g>
     </g>
     <g id="text_11">
      <!-- 2000 -->
      <g transform="translate(31.22 125.778535)scale(0.2 -0.2)">
       <use xlink:href="#DejaVuSans-50"/>
       <use x="63.623047" xlink:href="#DejaVuSans-48"/>
       <use x="127.246094" xlink:href="#DejaVuSans-48"/>
       <use x="190.869141" xlink:href="#DejaVuSans-48"/>
      </g>
     </g>
    </g>
    <g id="text_12">
     <!-- Number of Attackers in CKC -->
     <defs>
      <path d="M 9.8125 72.90625 
L 23.09375 72.90625 
L 55.421875 11.921875 
L 55.421875 72.90625 
L 64.984375 72.90625 
L 64.984375 0 
L 51.703125 0 
L 19.390625 60.984375 
L 19.390625 0 
L 9.8125 0 
z
" id="DejaVuSans-78"/>
      <path d="M 8.5 21.578125 
L 8.5 54.6875 
L 17.484375 54.6875 
L 17.484375 21.921875 
Q 17.484375 14.15625 20.5 10.265625 
Q 23.53125 6.390625 29.59375 6.390625 
Q 36.859375 6.390625 41.078125 11.03125 
Q 45.3125 15.671875 45.3125 23.6875 
L 45.3125 54.6875 
L 54.296875 54.6875 
L 54.296875 0 
L 45.3125 0 
L 45.3125 8.40625 
Q 42.046875 3.421875 37.71875 1 
Q 33.40625 -1.421875 27.6875 -1.421875 
Q 18.265625 -1.421875 13.375 4.4375 
Q 8.5 10.296875 8.5 21.578125 
z
M 31.109375 56 
z
" id="DejaVuSans-117"/>
      <path d="M 48.6875 27.296875 
Q 48.6875 37.203125 44.609375 42.84375 
Q 40.53125 48.484375 33.40625 48.484375 
Q 26.265625 48.484375 22.1875 42.84375 
Q 18.109375 37.203125 18.109375 27.296875 
Q 18.109375 17.390625 22.1875 11.75 
Q 26.265625 6.109375 33.40625 6.109375 
Q 40.53125 6.109375 44.609375 11.75 
Q 48.6875 17.390625 48.6875 27.296875 
z
M 18.109375 46.390625 
Q 20.953125 51.265625 25.265625 53.625 
Q 29.59375 56 35.59375 56 
Q 45.5625 56 51.78125 48.09375 
Q 58.015625 40.1875 58.015625 27.296875 
Q 58.015625 14.40625 51.78125 6.484375 
Q 45.5625 -1.421875 35.59375 -1.421875 
Q 29.59375 -1.421875 25.265625 0.953125 
Q 20.953125 3.328125 18.109375 8.203125 
L 18.109375 0 
L 9.078125 0 
L 9.078125 75.984375 
L 18.109375 75.984375 
z
" id="DejaVuSans-98"/>
      <path d="M 41.109375 46.296875 
Q 39.59375 47.171875 37.8125 47.578125 
Q 36.03125 48 33.890625 48 
Q 26.265625 48 22.1875 43.046875 
Q 18.109375 38.09375 18.109375 28.8125 
L 18.109375 0 
L 9.078125 0 
L 9.078125 54.6875 
L 18.109375 54.6875 
L 18.109375 46.1875 
Q 20.953125 51.171875 25.484375 53.578125 
Q 30.03125 56 36.53125 56 
Q 37.453125 56 38.578125 55.875 
Q 39.703125 55.765625 41.0625 55.515625 
z
" id="DejaVuSans-114"/>
      <path d="M 34.1875 63.1875 
L 20.796875 26.90625 
L 47.609375 26.90625 
z
M 28.609375 72.90625 
L 39.796875 72.90625 
L 67.578125 0 
L 57.328125 0 
L 50.6875 18.703125 
L 17.828125 18.703125 
L 11.1875 0 
L 0.78125 0 
z
" id="DejaVuSans-65"/>
      <path d="M 18.3125 70.21875 
L 18.3125 54.6875 
L 36.8125 54.6875 
L 36.8125 47.703125 
L 18.3125 47.703125 
L 18.3125 18.015625 
Q 18.3125 11.328125 20.140625 9.421875 
Q 21.96875 7.515625 27.59375 7.515625 
L 36.8125 7.515625 
L 36.8125 0 
L 27.59375 0 
Q 17.1875 0 13.234375 3.875 
Q 9.28125 7.765625 9.28125 18.015625 
L 9.28125 47.703125 
L 2.6875 47.703125 
L 2.6875 54.6875 
L 9.28125 54.6875 
L 9.28125 70.21875 
z
" id="DejaVuSans-116"/>
      <path d="M 48.78125 52.59375 
L 48.78125 44.1875 
Q 44.96875 46.296875 41.140625 47.34375 
Q 37.3125 48.390625 33.40625 48.390625 
Q 24.65625 48.390625 19.8125 42.84375 
Q 14.984375 37.3125 14.984375 27.296875 
Q 14.984375 17.28125 19.8125 11.734375 
Q 24.65625 6.203125 33.40625 6.203125 
Q 37.3125 6.203125 41.140625 7.25 
Q 44.96875 8.296875 48.78125 10.40625 
L 48.78125 2.09375 
Q 45.015625 0.34375 40.984375 -0.53125 
Q 36.96875 -1.421875 32.421875 -1.421875 
Q 20.0625 -1.421875 12.78125 6.34375 
Q 5.515625 14.109375 5.515625 27.296875 
Q 5.515625 40.671875 12.859375 48.328125 
Q 20.21875 56 33.015625 56 
Q 37.15625 56 41.109375 55.140625 
Q 45.0625 54.296875 48.78125 52.59375 
z
" id="DejaVuSans-99"/>
      <path d="M 9.078125 75.984375 
L 18.109375 75.984375 
L 18.109375 31.109375 
L 44.921875 54.6875 
L 56.390625 54.6875 
L 27.390625 29.109375 
L 57.625 0 
L 45.90625 0 
L 18.109375 26.703125 
L 18.109375 0 
L 9.078125 0 
z
" id="DejaVuSans-107"/>
      <path d="M 9.421875 54.6875 
L 18.40625 54.6875 
L 18.40625 0 
L 9.421875 0 
z
M 9.421875 75.984375 
L 18.40625 75.984375 
L 18.40625 64.59375 
L 9.421875 64.59375 
z
" id="DejaVuSans-105"/>
      <path d="M 54.890625 33.015625 
L 54.890625 0 
L 45.90625 0 
L 45.90625 32.71875 
Q 45.90625 40.484375 42.875 44.328125 
Q 39.84375 48.1875 33.796875 48.1875 
Q 26.515625 48.1875 22.3125 43.546875 
Q 18.109375 38.921875 18.109375 30.90625 
L 18.109375 0 
L 9.078125 0 
L 9.078125 54.6875 
L 18.109375 54.6875 
L 18.109375 46.1875 
Q 21.34375 51.125 25.703125 53.5625 
Q 30.078125 56 35.796875 56 
Q 45.21875 56 50.046875 50.171875 
Q 54.890625 44.34375 54.890625 33.015625 
z
" id="DejaVuSans-110"/>
      <path d="M 64.40625 67.28125 
L 64.40625 56.890625 
Q 59.421875 61.53125 53.78125 63.8125 
Q 48.140625 66.109375 41.796875 66.109375 
Q 29.296875 66.109375 22.65625 58.46875 
Q 16.015625 50.828125 16.015625 36.375 
Q 16.015625 21.96875 22.65625 14.328125 
Q 29.296875 6.6875 41.796875 6.6875 
Q 48.140625 6.6875 53.78125 8.984375 
Q 59.421875 11.28125 64.40625 15.921875 
L 64.40625 5.609375 
Q 59.234375 2.09375 53.4375 0.328125 
Q 47.65625 -1.421875 41.21875 -1.421875 
Q 24.65625 -1.421875 15.125 8.703125 
Q 5.609375 18.84375 5.609375 36.375 
Q 5.609375 53.953125 15.125 64.078125 
Q 24.65625 74.21875 41.21875 74.21875 
Q 47.75 74.21875 53.53125 72.484375 
Q 59.328125 70.75 64.40625 67.28125 
z
" id="DejaVuSans-67"/>
      <path d="M 9.8125 72.90625 
L 19.671875 72.90625 
L 19.671875 42.09375 
L 52.390625 72.90625 
L 65.09375 72.90625 
L 28.90625 38.921875 
L 67.671875 0 
L 54.6875 0 
L 19.671875 35.109375 
L 19.671875 0 
L 9.8125 0 
z
" id="DejaVuSans-75"/>
     </defs>
     <g transform="translate(23.753854 332.513594)rotate(-90)scale(0.166667 -0.166667)">
      <use xlink:href="#DejaVuSans-78"/>
      <use x="74.804688" xlink:href="#DejaVuSans-117"/>
      <use x="138.183594" xlink:href="#DejaVuSans-109"/>
      <use x="235.595703" xlink:href="#DejaVuSans-98"/>
      <use x="299.072266" xlink:href="#DejaVuSans-101"/>
      <use x="360.595703" xlink:href="#DejaVuSans-114"/>
      <use x="401.708984" xlink:href="#DejaVuSans-32"/>
      <use x="433.496094" xlink:href="#DejaVuSans-111"/>
      <use x="494.677734" xlink:href="#DejaVuSans-102"/>
      <use x="529.882812" xlink:href="#DejaVuSans-32"/>
      <use x="561.669922" xlink:href="#DejaVuSans-65"/>
      <use x="630.0625" xlink:href="#DejaVuSans-116"/>
      <use x="669.271484" xlink:href="#DejaVuSans-116"/>
      <use x="708.480469" xlink:href="#DejaVuSans-97"/>
      <use x="769.759766" xlink:href="#DejaVuSans-99"/>
      <use x="824.740234" xlink:href="#DejaVuSans-107"/>
      <use x="882.603516" xlink:href="#DejaVuSans-101"/>
      <use x="944.126953" xlink:href="#DejaVuSans-114"/>
      <use x="985.240234" xlink:href="#DejaVuSans-115"/>
      <use x="1037.339844" xlink:href="#DejaVuSans-32"/>
      <use x="1069.126953" xlink:href="#DejaVuSans-105"/>
      <use x="1096.910156" xlink:href="#DejaVuSans-110"/>
      <use x="1160.289062" xlink:href="#DejaVuSans-32"/>
      <use x="1192.076172" xlink:href="#DejaVuSans-67"/>
      <use x="1261.900391" xlink:href="#DejaVuSans-75"/>
      <use x="1327.398438" xlink:href="#DejaVuSans-67"/>
     </g>
    </g>
   </g>
   <g id="line2d_11">
    <path clip-path="url(#p6519dfa17f)" d="M 109.123636 302.524152 
L 113.568889 292.704938 
L 118.014141 287.093959 
L 122.459394 286.392587 
L 126.904646 286.0419 
L 131.349899 283.119515 
L 135.795152 279.963339 
L 140.240404 280.19713 
L 144.685657 277.625431 
L 149.130909 282.301247 
L 153.576162 280.430921 
L 158.021414 277.508536 
L 162.466667 277.39164 
L 166.911919 275.638209 
L 171.357172 276.690268 
L 175.802424 278.093013 
L 180.247677 277.157849 
L 184.692929 272.598929 
L 189.138182 270.962393 
L 193.583434 272.131347 
L 198.028687 274.235464 
L 202.473939 273.650987 
L 206.919192 275.404418 
L 211.364444 279.846444 
L 215.809697 285.223632 
L 220.254949 286.275691 
L 224.700202 288.84739 
L 229.145455 290.36703 
L 233.590707 293.055625 
L 238.03596 294.69216 
L 242.481212 292.588043 
L 246.926465 292.003566 
L 251.371717 295.510428 
L 255.81697 297.848336 
L 260.262222 296.211801 
L 264.707475 296.211801 
L 269.152727 301.939675 
L 273.59798 303.576211 
L 278.043232 307.199969 
L 282.488485 306.498596 
L 286.933737 308.9534 
L 291.37899 311.75889 
L 295.824242 310.823726 
L 300.269495 311.875785 
L 304.714747 312.226471 
L 309.16 315.733333 
L 313.605253 316.434706 
L 318.050505 317.720555 
L 322.495758 319.824673 
L 326.94101 319.357091 
L 331.386263 318.538823 
L 335.831515 321.694999 
L 340.276768 323.799116 
L 344.72202 324.149803 
L 349.167273 326.721501 
L 353.612525 329.526991 
L 358.057778 329.994573 
L 362.50303 329.877677 
L 366.948283 331.280422 
L 371.393535 333.969017 
L 375.838788 335.488657 
L 380.28404 337.358983 
L 384.729293 338.527937 
L 389.174545 338.995519 
L 393.619798 340.865846 
L 398.065051 341.684113 
L 402.510303 342.619277 
L 406.955556 342.969963 
L 411.400808 344.489603 
L 415.846061 344.723394 
L 420.291313 345.658557 
L 424.736566 346.009243 
L 429.181818 346.710616 
L 433.627071 348.230256 
L 438.072323 348.347152 
L 442.517576 349.048524 
L 446.962828 349.39921 
L 451.408081 350.334373 
L 455.853333 350.451269 
L 460.298586 350.801955 
L 464.743838 350.801955 
L 469.189091 350.334373 
L 473.634343 350.100583 
L 478.079596 350.334373 
L 482.524848 350.568164 
L 486.970101 350.801955 
L 491.415354 351.152641 
L 495.860606 351.269537 
L 500.305859 351.386432 
L 504.751111 351.152641 
L 509.196364 351.620223 
" style="fill:none;stroke:#1f77b4;stroke-linecap:square;stroke-width:1.5;"/>
   </g>
   <g id="line2d_12">
    <path clip-path="url(#p6519dfa17f)" d="M 109.123636 342.969963 
L 113.568889 330.57905 
L 118.014141 315.031961 
L 122.459394 297.731441 
L 126.904646 280.547816 
L 131.349899 264.883832 
L 135.795152 249.570534 
L 140.240404 230.282792 
L 144.685657 213.80054 
L 149.130909 195.331065 
L 153.576162 181.537408 
L 158.021414 170.198553 
L 162.466667 156.755582 
L 166.911919 145.650518 
L 171.357172 132.207546 
L 175.802424 119.933529 
L 180.247677 108.594674 
L 184.692929 106.607453 
L 189.138182 100.178205 
L 193.583434 98.424774 
L 198.028687 88.956246 
L 202.473939 84.514221 
L 206.919192 84.631116 
L 211.364444 81.708731 
L 215.809697 81.24115 
L 220.254949 80.189091 
L 224.700202 82.059417 
L 229.145455 80.189091 
L 233.590707 80.656673 
L 238.03596 81.358045 
L 242.481212 85.80007 
L 246.926465 88.488665 
L 251.371717 86.501443 
L 255.81697 90.943468 
L 260.262222 97.489611 
L 264.707475 94.917912 
L 269.152727 97.25582 
L 273.59798 100.996473 
L 278.043232 106.958139 
L 282.488485 115.725294 
L 286.933737 117.595621 
L 291.37899 119.349052 
L 295.824242 121.219378 
L 300.269495 119.699738 
L 304.714747 124.49245 
L 309.16 131.739965 
L 313.605253 138.98748 
L 318.050505 149.15738 
L 322.495758 156.288 
L 326.94101 164.93826 
L 331.386263 169.730972 
L 335.831515 170.432344 
L 340.276768 184.576688 
L 344.72202 199.422405 
L 349.167273 209.007828 
L 353.612525 213.216063 
L 358.057778 219.995996 
L 362.50303 225.139394 
L 366.948283 238.46547 
L 371.393535 251.908442 
L 375.838788 259.857329 
L 380.28404 273.183406 
L 384.729293 279.963339 
L 389.174545 286.743273 
L 393.619798 295.861114 
L 398.065051 298.549709 
L 402.510303 303.693107 
L 406.955556 304.62827 
L 411.400808 306.615492 
L 415.846061 310.47304 
L 420.291313 315.499543 
L 424.736566 317.486764 
L 429.181818 321.110522 
L 433.627071 324.032907 
L 438.072323 329.05941 
L 442.517576 334.553494 
L 446.962828 335.488657 
L 451.408081 338.060356 
L 455.853333 339.22931 
L 460.298586 340.398264 
L 464.743838 342.151695 
L 469.189091 342.385486 
L 473.634343 342.619277 
L 478.079596 346.710616 
L 482.524848 346.827511 
L 486.970101 348.347152 
L 491.415354 347.996465 
L 495.860606 349.048524 
L 500.305859 348.814733 
L 504.751111 348.931629 
L 509.196364 349.866792 
" style="fill:none;stroke:#ff7f0e;stroke-linecap:square;stroke-width:1.5;"/>
   </g>
   <g id="line2d_13">
    <path clip-path="url(#p6519dfa17f)" d="M 109.123636 351.970909 
L 113.568889 350.801955 
L 118.014141 348.113361 
L 122.459394 345.307871 
L 126.904646 341.917904 
L 131.349899 339.696891 
L 135.795152 336.42382 
L 140.240404 335.021075 
L 144.685657 331.514213 
L 149.130909 327.422874 
L 153.576162 324.032907 
L 158.021414 319.1233 
L 162.466667 316.785392 
L 166.911919 311.525099 
L 171.357172 311.875785 
L 175.802424 308.485818 
L 180.247677 306.031015 
L 184.692929 304.043793 
L 189.138182 303.225525 
L 193.583434 299.952454 
L 198.028687 298.666604 
L 202.473939 297.146964 
L 206.919192 294.45837 
L 211.364444 293.640102 
L 215.809697 295.510428 
L 220.254949 295.393533 
L 224.700202 294.925951 
L 229.145455 293.873892 
L 233.590707 293.873892 
L 238.03596 293.289415 
L 242.481212 292.120461 
L 246.926465 290.951507 
L 251.371717 291.419089 
L 255.81697 290.600821 
L 260.262222 292.003566 
L 264.707475 291.886671 
L 269.152727 296.562487 
L 273.59798 294.575265 
L 278.043232 293.289415 
L 282.488485 295.393533 
L 286.933737 297.380755 
L 291.37899 296.328696 
L 295.824242 295.276637 
L 300.269495 296.679382 
L 304.714747 296.796278 
L 309.16 300.069349 
L 313.605253 298.900395 
L 318.050505 300.770721 
L 322.495758 303.693107 
L 326.94101 306.498596 
L 331.386263 308.135132 
L 335.831515 309.070295 
L 340.276768 311.408203 
L 344.72202 313.512321 
L 349.167273 315.499543 
L 353.612525 316.31781 
L 358.057778 318.421928 
L 362.50303 320.175359 
L 366.948283 326.370815 
L 371.393535 328.708723 
L 375.838788 330.345259 
L 380.28404 333.267644 
L 384.729293 335.254866 
L 389.174545 337.475879 
L 393.619798 339.463101 
L 398.065051 341.333427 
L 402.510303 342.385486 
L 406.955556 342.736172 
L 411.400808 343.55444 
L 415.846061 344.840289 
L 420.291313 345.775453 
L 424.736566 346.476825 
L 429.181818 346.35993 
L 433.627071 347.645779 
L 438.072323 347.645779 
L 442.517576 348.230256 
L 446.962828 348.697838 
L 451.408081 349.282315 
L 455.853333 349.866792 
L 460.298586 350.217478 
L 464.743838 350.451269 
L 469.189091 350.568164 
L 473.634343 350.568164 
L 478.079596 351.152641 
L 482.524848 350.801955 
L 486.970101 351.035746 
L 491.415354 350.91885 
L 495.860606 351.152641 
L 500.305859 351.386432 
L 504.751111 351.269537 
L 509.196364 351.503327 
" style="fill:none;stroke:#2ca02c;stroke-linecap:square;stroke-width:1.5;"/>
   </g>
   <g id="line2d_14">
    <path clip-path="url(#p6519dfa17f)" d="M 109.123636 351.970909 
L 113.568889 351.970909 
L 118.014141 351.737118 
L 122.459394 351.035746 
L 126.904646 350.68506 
L 131.349899 349.633001 
L 135.795152 349.633001 
L 140.240404 348.347152 
L 144.685657 347.528884 
L 149.130909 347.411988 
L 153.576162 346.243034 
L 158.021414 345.541662 
L 162.466667 343.788231 
L 166.911919 342.736172 
L 171.357172 342.0348 
L 175.802424 342.736172 
L 180.247677 341.450323 
L 184.692929 341.801009 
L 189.138182 340.632055 
L 193.583434 338.761728 
L 198.028687 335.956239 
L 202.473939 335.254866 
L 206.919192 335.021075 
L 211.364444 334.202807 
L 215.809697 332.683167 
L 220.254949 332.332481 
L 224.700202 330.929736 
L 229.145455 332.215586 
L 233.590707 332.215586 
L 238.03596 332.09869 
L 242.481212 331.046631 
L 246.926465 330.57905 
L 251.371717 329.2932 
L 255.81697 331.748004 
L 260.262222 331.163527 
L 264.707475 329.410096 
L 269.152727 328.591828 
L 273.59798 331.280422 
L 278.043232 331.864899 
L 282.488485 332.683167 
L 286.933737 331.280422 
L 291.37899 329.877677 
L 295.824242 329.877677 
L 300.269495 329.410096 
L 304.714747 330.111468 
L 309.16 329.994573 
L 313.605253 331.748004 
L 318.050505 331.046631 
L 322.495758 331.514213 
L 326.94101 331.631109 
L 331.386263 331.163527 
L 335.831515 330.462154 
L 340.276768 331.748004 
L 344.72202 332.566272 
L 349.167273 333.969017 
L 353.612525 334.670389 
L 358.057778 335.371761 
L 362.50303 336.190029 
L 366.948283 338.644833 
L 371.393535 340.398264 
L 375.838788 340.74895 
L 380.28404 342.502381 
L 384.729293 343.55444 
L 389.174545 344.957185 
L 393.619798 346.243034 
L 398.065051 346.59372 
L 402.510303 347.762674 
L 406.955556 348.113361 
L 411.400808 348.347152 
L 415.846061 347.762674 
L 420.291313 348.347152 
L 424.736566 348.580942 
L 429.181818 349.165419 
L 433.627071 349.633001 
L 438.072323 349.516106 
L 442.517576 349.866792 
L 446.962828 350.451269 
L 451.408081 350.91885 
L 455.853333 350.568164 
L 460.298586 350.68506 
L 464.743838 350.91885 
L 469.189091 350.68506 
L 473.634343 350.68506 
L 478.079596 350.91885 
L 482.524848 351.035746 
L 486.970101 351.269537 
L 491.415354 351.152641 
L 495.860606 351.737118 
L 500.305859 351.503327 
L 504.751111 351.503327 
L 509.196364 351.854014 
" style="fill:none;stroke:#d62728;stroke-linecap:square;stroke-width:1.5;"/>
   </g>
   <g id="line2d_15">
    <path clip-path="url(#p6519dfa17f)" d="M 109.123636 351.970909 
L 113.568889 351.970909 
L 118.014141 351.970909 
L 122.459394 351.970909 
L 126.904646 351.970909 
L 131.349899 351.737118 
L 135.795152 350.91885 
L 140.240404 350.100583 
L 144.685657 350.217478 
L 149.130909 349.165419 
L 153.576162 348.814733 
L 158.021414 347.762674 
L 162.466667 346.59372 
L 166.911919 346.59372 
L 171.357172 345.658557 
L 175.802424 344.723394 
L 180.247677 343.905126 
L 184.692929 342.385486 
L 189.138182 343.437544 
L 193.583434 343.55444 
L 198.028687 344.138917 
L 202.473939 342.619277 
L 206.919192 340.982741 
L 211.364444 340.047578 
L 215.809697 339.579996 
L 220.254949 339.696891 
L 224.700202 339.346205 
L 229.145455 338.411042 
L 233.590707 339.346205 
L 238.03596 339.813787 
L 242.481212 339.22931 
L 246.926465 338.177251 
L 251.371717 338.177251 
L 255.81697 336.306925 
L 260.262222 337.826565 
L 264.707475 338.761728 
L 269.152727 338.527937 
L 273.59798 338.527937 
L 278.043232 338.527937 
L 282.488485 339.930682 
L 286.933737 339.22931 
L 291.37899 338.644833 
L 295.824242 338.294147 
L 300.269495 336.891402 
L 304.714747 338.527937 
L 309.16 338.761728 
L 313.605253 337.826565 
L 318.050505 338.644833 
L 322.495758 338.761728 
L 326.94101 339.813787 
L 331.386263 339.463101 
L 335.831515 339.463101 
L 340.276768 339.813787 
L 344.72202 340.047578 
L 349.167273 339.346205 
L 353.612525 338.878624 
L 358.057778 340.281369 
L 362.50303 340.047578 
L 366.948283 341.099636 
L 371.393535 343.086858 
L 375.838788 344.606499 
L 380.28404 345.424766 
L 384.729293 346.009243 
L 389.174545 346.126139 
L 393.619798 346.827511 
L 398.065051 347.178197 
L 402.510303 347.87957 
L 406.955556 347.645779 
L 411.400808 348.230256 
L 415.846061 349.282315 
L 420.291313 349.39921 
L 424.736566 349.39921 
L 429.181818 350.100583 
L 433.627071 350.217478 
L 438.072323 350.91885 
L 442.517576 350.568164 
L 446.962828 350.334373 
L 451.408081 350.568164 
L 455.853333 350.801955 
L 460.298586 350.68506 
L 464.743838 351.152641 
L 469.189091 351.035746 
L 473.634343 351.035746 
L 478.079596 351.269537 
L 482.524848 351.152641 
L 486.970101 351.269537 
L 491.415354 351.269537 
L 495.860606 351.503327 
L 500.305859 351.503327 
L 504.751111 351.620223 
L 509.196364 351.737118 
" style="fill:none;stroke:#9467bd;stroke-linecap:square;stroke-width:1.5;"/>
   </g>
   <g id="line2d_16">
    <path clip-path="url(#p6519dfa17f)" d="M 109.123636 351.970909 
L 113.568889 351.970909 
L 118.014141 351.970909 
L 122.459394 351.970909 
L 126.904646 351.970909 
L 131.349899 351.970909 
L 135.795152 351.970909 
L 140.240404 351.854014 
L 144.685657 351.386432 
L 149.130909 351.269537 
L 153.576162 350.68506 
L 158.021414 350.100583 
L 162.466667 349.866792 
L 166.911919 348.697838 
L 171.357172 347.178197 
L 175.802424 346.243034 
L 180.247677 345.424766 
L 184.692929 344.957185 
L 189.138182 343.086858 
L 193.583434 341.567218 
L 198.028687 339.346205 
L 202.473939 337.592774 
L 206.919192 336.657611 
L 211.364444 335.371761 
L 215.809697 333.969017 
L 220.254949 333.033853 
L 224.700202 332.683167 
L 229.145455 330.929736 
L 233.590707 329.05941 
L 238.03596 327.656665 
L 242.481212 326.838397 
L 246.926465 325.669443 
L 251.371717 323.916012 
L 255.81697 323.097744 
L 260.262222 321.694999 
L 264.707475 319.473986 
L 269.152727 319.473986 
L 273.59798 318.188137 
L 278.043232 316.902287 
L 282.488485 316.668497 
L 286.933737 315.850229 
L 291.37899 315.148856 
L 295.824242 313.979902 
L 300.269495 313.27853 
L 304.714747 312.577157 
L 309.16 312.810948 
L 313.605253 311.525099 
L 318.050505 312.109576 
L 322.495758 313.629216 
L 326.94101 314.564379 
L 331.386263 314.330588 
L 335.831515 313.979902 
L 340.276768 317.369869 
L 344.72202 318.188137 
L 349.167273 318.421928 
L 353.612525 318.071241 
L 358.057778 317.60366 
L 362.50303 319.473986 
L 366.948283 321.811894 
L 371.393535 322.980848 
L 375.838788 324.617384 
L 380.28404 328.942514 
L 384.729293 330.812841 
L 389.174545 332.215586 
L 393.619798 334.90418 
L 398.065051 336.42382 
L 402.510303 337.70967 
L 406.955556 337.475879 
L 411.400808 338.527937 
L 415.846061 338.761728 
L 420.291313 340.632055 
L 424.736566 342.26859 
L 429.181818 342.969963 
L 433.627071 344.723394 
L 438.072323 345.541662 
L 442.517576 346.476825 
L 446.962828 346.35993 
L 451.408081 348.113361 
L 455.853333 348.347152 
L 460.298586 349.048524 
L 464.743838 349.633001 
L 469.189091 349.633001 
L 473.634343 349.516106 
L 478.079596 350.91885 
L 482.524848 350.801955 
L 486.970101 351.152641 
L 491.415354 351.152641 
L 495.860606 351.737118 
L 500.305859 351.737118 
L 504.751111 351.620223 
L 509.196364 351.970909 
" style="fill:none;stroke:#8c564b;stroke-linecap:square;stroke-width:1.5;"/>
   </g>
   <g id="patch_3">
    <path d="M 89.12 365.56 
L 89.12 66.6 
" style="fill:none;stroke:#000000;stroke-linecap:square;stroke-linejoin:miter;stroke-width:0.8;"/>
   </g>
   <g id="patch_4">
    <path d="M 529.2 365.56 
L 529.2 66.6 
" style="fill:none;stroke:#000000;stroke-linecap:square;stroke-linejoin:miter;stroke-width:0.8;"/>
   </g>
   <g id="patch_5">
    <path d="M 89.12 365.56 
L 529.2 365.56 
" style="fill:none;stroke:#000000;stroke-linecap:square;stroke-linejoin:miter;stroke-width:0.8;"/>
   </g>
   <g id="patch_6">
    <path d="M 89.12 66.6 
L 529.2 66.6 
" style="fill:none;stroke:#000000;stroke-linecap:square;stroke-linejoin:miter;stroke-width:0.8;"/>
   </g>
   <g id="legend_1">
    <g id="patch_7">
     <path d="M 99.62 59.1 
L 518.7 59.1 
Q 521.7 59.1 521.7 56.1 
L 521.7 13.565625 
Q 521.7 10.565625 518.7 10.565625 
L 99.62 10.565625 
Q 96.62 10.565625 96.62 13.565625 
L 96.62 56.1 
Q 96.62 59.1 99.62 59.1 
z
" style="fill:#ffffff;opacity:0.8;stroke:#cccccc;stroke-linejoin:miter;"/>
    </g>
    <g id="line2d_17">
     <path d="M 102.62 22.713281 
L 132.62 22.713281 
" style="fill:none;stroke:#1f77b4;stroke-linecap:square;stroke-width:1.5;"/>
    </g>
    <g id="line2d_18"/>
    <g id="text_13">
     <!-- CKC #0 -->
     <g transform="translate(144.62 27.963281)scale(0.15 -0.15)">
      <use xlink:href="#DejaVuSans-67"/>
      <use x="69.824219" xlink:href="#DejaVuSans-75"/>
      <use x="135.322266" xlink:href="#DejaVuSans-67"/>
      <use x="205.146484" xlink:href="#DejaVuSans-32"/>
      <use x="236.933594" xlink:href="#DejaVuSans-35"/>
      <use x="320.722656" xlink:href="#DejaVuSans-48"/>
     </g>
    </g>
    <g id="line2d_19">
     <path d="M 102.62 44.730469 
L 132.62 44.730469 
" style="fill:none;stroke:#ff7f0e;stroke-linecap:square;stroke-width:1.5;"/>
    </g>
    <g id="line2d_20"/>
    <g id="text_14">
     <!-- CKC #1 -->
     <g transform="translate(144.62 49.980469)scale(0.15 -0.15)">
      <use xlink:href="#DejaVuSans-67"/>
      <use x="69.824219" xlink:href="#DejaVuSans-75"/>
      <use x="135.322266" xlink:href="#DejaVuSans-67"/>
      <use x="205.146484" xlink:href="#DejaVuSans-32"/>
      <use x="236.933594" xlink:href="#DejaVuSans-35"/>
      <use x="320.722656" xlink:href="#DejaVuSans-49"/>
     </g>
    </g>
    <g id="line2d_21">
     <path d="M 207.095365 22.713281 
L 237.095365 22.713281 
" style="fill:none;stroke:#2ca02c;stroke-linecap:square;stroke-width:1.5;"/>
    </g>
    <g id="line2d_22"/>
    <g id="text_15">
     <!-- CKC #2 -->
     <g transform="translate(249.095365 27.963281)scale(0.15 -0.15)">
      <use xlink:href="#DejaVuSans-67"/>
      <use x="69.824219" xlink:href="#DejaVuSans-75"/>
      <use x="135.322266" xlink:href="#DejaVuSans-67"/>
      <use x="205.146484" xlink:href="#DejaVuSans-32"/>
      <use x="236.933594" xlink:href="#DejaVuSans-35"/>
      <use x="320.722656" xlink:href="#DejaVuSans-50"/>
     </g>
    </g>
    <g id="line2d_23">
     <path d="M 207.095365 44.730469 
L 237.095365 44.730469 
" style="fill:none;stroke:#d62728;stroke-linecap:square;stroke-width:1.5;"/>
    </g>
    <g id="line2d_24"/>
    <g id="text_16">
     <!-- CKC #3 -->
     <defs>
      <path d="M 40.578125 39.3125 
Q 47.65625 37.796875 51.625 33 
Q 55.609375 28.21875 55.609375 21.1875 
Q 55.609375 10.40625 48.1875 4.484375 
Q 40.765625 -1.421875 27.09375 -1.421875 
Q 22.515625 -1.421875 17.65625 -0.515625 
Q 12.796875 0.390625 7.625 2.203125 
L 7.625 11.71875 
Q 11.71875 9.328125 16.59375 8.109375 
Q 21.484375 6.890625 26.8125 6.890625 
Q 36.078125 6.890625 40.9375 10.546875 
Q 45.796875 14.203125 45.796875 21.1875 
Q 45.796875 27.640625 41.28125 31.265625 
Q 36.765625 34.90625 28.71875 34.90625 
L 20.21875 34.90625 
L 20.21875 43.015625 
L 29.109375 43.015625 
Q 36.375 43.015625 40.234375 45.921875 
Q 44.09375 48.828125 44.09375 54.296875 
Q 44.09375 59.90625 40.109375 62.90625 
Q 36.140625 65.921875 28.71875 65.921875 
Q 24.65625 65.921875 20.015625 65.03125 
Q 15.375 64.15625 9.8125 62.3125 
L 9.8125 71.09375 
Q 15.4375 72.65625 20.34375 73.4375 
Q 25.25 74.21875 29.59375 74.21875 
Q 40.828125 74.21875 47.359375 69.109375 
Q 53.90625 64.015625 53.90625 55.328125 
Q 53.90625 49.265625 50.4375 45.09375 
Q 46.96875 40.921875 40.578125 39.3125 
z
" id="DejaVuSans-51"/>
     </defs>
     <g transform="translate(249.095365 49.980469)scale(0.15 -0.15)">
      <use xlink:href="#DejaVuSans-67"/>
      <use x="69.824219" xlink:href="#DejaVuSans-75"/>
      <use x="135.322266" xlink:href="#DejaVuSans-67"/>
      <use x="205.146484" xlink:href="#DejaVuSans-32"/>
      <use x="236.933594" xlink:href="#DejaVuSans-35"/>
      <use x="320.722656" xlink:href="#DejaVuSans-51"/>
     </g>
    </g>
    <g id="line2d_25">
     <path d="M 311.570729 22.713281 
L 341.570729 22.713281 
" style="fill:none;stroke:#9467bd;stroke-linecap:square;stroke-width:1.5;"/>
    </g>
    <g id="line2d_26"/>
    <g id="text_17">
     <!-- CKC #4 -->
     <g transform="translate(353.570729 27.963281)scale(0.15 -0.15)">
      <use xlink:href="#DejaVuSans-67"/>
      <use x="69.824219" xlink:href="#DejaVuSans-75"/>
      <use x="135.322266" xlink:href="#DejaVuSans-67"/>
      <use x="205.146484" xlink:href="#DejaVuSans-32"/>
      <use x="236.933594" xlink:href="#DejaVuSans-35"/>
      <use x="320.722656" xlink:href="#DejaVuSans-52"/>
     </g>
    </g>
    <g id="line2d_27">
     <path d="M 416.046094 22.713281 
L 446.046094 22.713281 
" style="fill:none;stroke:#8c564b;stroke-linecap:square;stroke-width:1.5;"/>
    </g>
    <g id="line2d_28"/>
    <g id="text_18">
     <!-- CKC #5 -->
     <g transform="translate(458.046094 27.963281)scale(0.15 -0.15)">
      <use xlink:href="#DejaVuSans-67"/>
      <use x="69.824219" xlink:href="#DejaVuSans-75"/>
      <use x="135.322266" xlink:href="#DejaVuSans-67"/>
      <use x="205.146484" xlink:href="#DejaVuSans-32"/>
      <use x="236.933594" xlink:href="#DejaVuSans-35"/>
      <use x="320.722656" xlink:href="#DejaVuSans-53"/>
     </g>
    </g>
   </g>
  </g>
 </g>
 <defs>
  <clipPath id="p6519dfa17f">
   <rect height="298.96" width="440.08" x="89.12" y="66.6"/>
  </clipPath>
 </defs>
</svg>
