<?xml version="1.0" encoding="utf-8" standalone="no"?>
<!DOCTYPE svg PUBLIC "-//W3C//DTD SVG 1.1//EN"
  "http://www.w3.org/Graphics/SVG/1.1/DTD/svg11.dtd">
<!-- Created with matplotlib (https://matplotlib.org/) -->
<svg height="432pt" version="1.1" viewBox="0 0 540 432" width="540pt" xmlns="http://www.w3.org/2000/svg" xmlns:xlink="http://www.w3.org/1999/xlink">
 <defs>
  <style type="text/css">
*{stroke-linecap:butt;stroke-linejoin:round;}
  </style>
 </defs>
 <g id="figure_1">
  <g id="patch_1">
   <path d="M 0 432 
L 540 432 
L 540 0 
L 0 0 
z
" style="fill:#ffffff;"/>
  </g>
  <g id="axes_1">
   <g id="patch_2">
    <path d="M 89.12 365.56 
L 529.2 365.56 
L 529.2 88.5 
L 89.12 88.5 
z
" style="fill:#ffffff;"/>
   </g>
   <g id="matplotlib.axis_1">
    <g id="xtick_1">
     <g id="line2d_1">
      <defs>
       <path d="M 0 0 
L 0 3.5 
" id="m57a3942743" style="stroke:#000000;stroke-width:0.8;"/>
      </defs>
      <g>
       <use style="stroke:#000000;stroke-width:0.8;" x="109.123636" xlink:href="#m57a3942743" y="365.56"/>
      </g>
     </g>
     <g id="text_1">
      <!-- 0 -->
      <defs>
       <path d="M 31.78125 66.40625 
Q 24.171875 66.40625 20.328125 58.90625 
Q 16.5 51.421875 16.5 36.375 
Q 16.5 21.390625 20.328125 13.890625 
Q 24.171875 6.390625 31.78125 6.390625 
Q 39.453125 6.390625 43.28125 13.890625 
Q 47.125 21.390625 47.125 36.375 
Q 47.125 51.421875 43.28125 58.90625 
Q 39.453125 66.40625 31.78125 66.40625 
z
M 31.78125 74.21875 
Q 44.046875 74.21875 50.515625 64.515625 
Q 56.984375 54.828125 56.984375 36.375 
Q 56.984375 17.96875 50.515625 8.265625 
Q 44.046875 -1.421875 31.78125 -1.421875 
Q 19.53125 -1.421875 13.0625 8.265625 
Q 6.59375 17.96875 6.59375 36.375 
Q 6.59375 54.828125 13.0625 64.515625 
Q 19.53125 74.21875 31.78125 74.21875 
z
" id="DejaVuSans-48"/>
      </defs>
      <g transform="translate(102.761136 387.756875)scale(0.2 -0.2)">
       <use xlink:href="#DejaVuSans-48"/>
      </g>
     </g>
    </g>
    <g id="xtick_2">
     <g id="line2d_2">
      <g>
       <use style="stroke:#000000;stroke-width:0.8;" x="198.028687" xlink:href="#m57a3942743" y="365.56"/>
      </g>
     </g>
     <g id="text_2">
      <!-- 20 -->
      <defs>
       <path d="M 19.1875 8.296875 
L 53.609375 8.296875 
L 53.609375 0 
L 7.328125 0 
L 7.328125 8.296875 
Q 12.9375 14.109375 22.625 23.890625 
Q 32.328125 33.6875 34.8125 36.53125 
Q 39.546875 41.84375 41.421875 45.53125 
Q 43.3125 49.21875 43.3125 52.78125 
Q 43.3125 58.59375 39.234375 62.25 
Q 35.15625 65.921875 28.609375 65.921875 
Q 23.96875 65.921875 18.8125 64.3125 
Q 13.671875 62.703125 7.8125 59.421875 
L 7.8125 69.390625 
Q 13.765625 71.78125 18.9375 73 
Q 24.125 74.21875 28.421875 74.21875 
Q 39.75 74.21875 46.484375 68.546875 
Q 53.21875 62.890625 53.21875 53.421875 
Q 53.21875 48.921875 51.53125 44.890625 
Q 49.859375 40.875 45.40625 35.40625 
Q 44.1875 33.984375 37.640625 27.21875 
Q 31.109375 20.453125 19.1875 8.296875 
z
" id="DejaVuSans-50"/>
      </defs>
      <g transform="translate(185.303687 387.756875)scale(0.2 -0.2)">
       <use xlink:href="#DejaVuSans-50"/>
       <use x="63.623047" xlink:href="#DejaVuSans-48"/>
      </g>
     </g>
    </g>
    <g id="xtick_3">
     <g id="line2d_3">
      <g>
       <use style="stroke:#000000;stroke-width:0.8;" x="286.933737" xlink:href="#m57a3942743" y="365.56"/>
      </g>
     </g>
     <g id="text_3">
      <!-- 40 -->
      <defs>
       <path d="M 37.796875 64.3125 
L 12.890625 25.390625 
L 37.796875 25.390625 
z
M 35.203125 72.90625 
L 47.609375 72.90625 
L 47.609375 25.390625 
L 58.015625 25.390625 
L 58.015625 17.1875 
L 47.609375 17.1875 
L 47.609375 0 
L 37.796875 0 
L 37.796875 17.1875 
L 4.890625 17.1875 
L 4.890625 26.703125 
z
" id="DejaVuSans-52"/>
      </defs>
      <g transform="translate(274.208737 387.756875)scale(0.2 -0.2)">
       <use xlink:href="#DejaVuSans-52"/>
       <use x="63.623047" xlink:href="#DejaVuSans-48"/>
      </g>
     </g>
    </g>
    <g id="xtick_4">
     <g id="line2d_4">
      <g>
       <use style="stroke:#000000;stroke-width:0.8;" x="375.838788" xlink:href="#m57a3942743" y="365.56"/>
      </g>
     </g>
     <g id="text_4">
      <!-- 60 -->
      <defs>
       <path d="M 33.015625 40.375 
Q 26.375 40.375 22.484375 35.828125 
Q 18.609375 31.296875 18.609375 23.390625 
Q 18.609375 15.53125 22.484375 10.953125 
Q 26.375 6.390625 33.015625 6.390625 
Q 39.65625 6.390625 43.53125 10.953125 
Q 47.40625 15.53125 47.40625 23.390625 
Q 47.40625 31.296875 43.53125 35.828125 
Q 39.65625 40.375 33.015625 40.375 
z
M 52.59375 71.296875 
L 52.59375 62.3125 
Q 48.875 64.0625 45.09375 64.984375 
Q 41.3125 65.921875 37.59375 65.921875 
Q 27.828125 65.921875 22.671875 59.328125 
Q 17.53125 52.734375 16.796875 39.40625 
Q 19.671875 43.65625 24.015625 45.921875 
Q 28.375 48.1875 33.59375 48.1875 
Q 44.578125 48.1875 50.953125 41.515625 
Q 57.328125 34.859375 57.328125 23.390625 
Q 57.328125 12.15625 50.6875 5.359375 
Q 44.046875 -1.421875 33.015625 -1.421875 
Q 20.359375 -1.421875 13.671875 8.265625 
Q 6.984375 17.96875 6.984375 36.375 
Q 6.984375 53.65625 15.1875 63.9375 
Q 23.390625 74.21875 37.203125 74.21875 
Q 40.921875 74.21875 44.703125 73.484375 
Q 48.484375 72.75 52.59375 71.296875 
z
" id="DejaVuSans-54"/>
      </defs>
      <g transform="translate(363.113788 387.756875)scale(0.2 -0.2)">
       <use xlink:href="#DejaVuSans-54"/>
       <use x="63.623047" xlink:href="#DejaVuSans-48"/>
      </g>
     </g>
    </g>
    <g id="xtick_5">
     <g id="line2d_5">
      <g>
       <use style="stroke:#000000;stroke-width:0.8;" x="464.743838" xlink:href="#m57a3942743" y="365.56"/>
      </g>
     </g>
     <g id="text_5">
      <!-- 80 -->
      <defs>
       <path d="M 31.78125 34.625 
Q 24.75 34.625 20.71875 30.859375 
Q 16.703125 27.09375 16.703125 20.515625 
Q 16.703125 13.921875 20.71875 10.15625 
Q 24.75 6.390625 31.78125 6.390625 
Q 38.8125 6.390625 42.859375 10.171875 
Q 46.921875 13.96875 46.921875 20.515625 
Q 46.921875 27.09375 42.890625 30.859375 
Q 38.875 34.625 31.78125 34.625 
z
M 21.921875 38.8125 
Q 15.578125 40.375 12.03125 44.71875 
Q 8.5 49.078125 8.5 55.328125 
Q 8.5 64.0625 14.71875 69.140625 
Q 20.953125 74.21875 31.78125 74.21875 
Q 42.671875 74.21875 48.875 69.140625 
Q 55.078125 64.0625 55.078125 55.328125 
Q 55.078125 49.078125 51.53125 44.71875 
Q 48 40.375 41.703125 38.8125 
Q 48.828125 37.15625 52.796875 32.3125 
Q 56.78125 27.484375 56.78125 20.515625 
Q 56.78125 9.90625 50.3125 4.234375 
Q 43.84375 -1.421875 31.78125 -1.421875 
Q 19.734375 -1.421875 13.25 4.234375 
Q 6.78125 9.90625 6.78125 20.515625 
Q 6.78125 27.484375 10.78125 32.3125 
Q 14.796875 37.15625 21.921875 38.8125 
z
M 18.3125 54.390625 
Q 18.3125 48.734375 21.84375 45.5625 
Q 25.390625 42.390625 31.78125 42.390625 
Q 38.140625 42.390625 41.71875 45.5625 
Q 45.3125 48.734375 45.3125 54.390625 
Q 45.3125 60.0625 41.71875 63.234375 
Q 38.140625 66.40625 31.78125 66.40625 
Q 25.390625 66.40625 21.84375 63.234375 
Q 18.3125 60.0625 18.3125 54.390625 
z
" id="DejaVuSans-56"/>
      </defs>
      <g transform="translate(452.018838 387.756875)scale(0.2 -0.2)">
       <use xlink:href="#DejaVuSans-56"/>
       <use x="63.623047" xlink:href="#DejaVuSans-48"/>
      </g>
     </g>
    </g>
    <g id="text_6">
     <!-- # of games -->
     <defs>
      <path d="M 51.125 44 
L 36.921875 44 
L 32.8125 27.6875 
L 47.125 27.6875 
z
M 43.796875 71.78125 
L 38.71875 51.515625 
L 52.984375 51.515625 
L 58.109375 71.78125 
L 65.921875 71.78125 
L 60.890625 51.515625 
L 76.125 51.515625 
L 76.125 44 
L 58.984375 44 
L 54.984375 27.6875 
L 70.515625 27.6875 
L 70.515625 20.21875 
L 53.078125 20.21875 
L 48 0 
L 40.1875 0 
L 45.21875 20.21875 
L 30.90625 20.21875 
L 25.875 0 
L 18.015625 0 
L 23.09375 20.21875 
L 7.71875 20.21875 
L 7.71875 27.6875 
L 24.90625 27.6875 
L 29 44 
L 13.28125 44 
L 13.28125 51.515625 
L 30.90625 51.515625 
L 35.890625 71.78125 
z
" id="DejaVuSans-35"/>
      <path id="DejaVuSans-32"/>
      <path d="M 30.609375 48.390625 
Q 23.390625 48.390625 19.1875 42.75 
Q 14.984375 37.109375 14.984375 27.296875 
Q 14.984375 17.484375 19.15625 11.84375 
Q 23.34375 6.203125 30.609375 6.203125 
Q 37.796875 6.203125 41.984375 11.859375 
Q 46.1875 17.53125 46.1875 27.296875 
Q 46.1875 37.015625 41.984375 42.703125 
Q 37.796875 48.390625 30.609375 48.390625 
z
M 30.609375 56 
Q 42.328125 56 49.015625 48.375 
Q 55.71875 40.765625 55.71875 27.296875 
Q 55.71875 13.875 49.015625 6.21875 
Q 42.328125 -1.421875 30.609375 -1.421875 
Q 18.84375 -1.421875 12.171875 6.21875 
Q 5.515625 13.875 5.515625 27.296875 
Q 5.515625 40.765625 12.171875 48.375 
Q 18.84375 56 30.609375 56 
z
" id="DejaVuSans-111"/>
      <path d="M 37.109375 75.984375 
L 37.109375 68.5 
L 28.515625 68.5 
Q 23.6875 68.5 21.796875 66.546875 
Q 19.921875 64.59375 19.921875 59.515625 
L 19.921875 54.6875 
L 34.71875 54.6875 
L 34.71875 47.703125 
L 19.921875 47.703125 
L 19.921875 0 
L 10.890625 0 
L 10.890625 47.703125 
L 2.296875 47.703125 
L 2.296875 54.6875 
L 10.890625 54.6875 
L 10.890625 58.5 
Q 10.890625 67.625 15.140625 71.796875 
Q 19.390625 75.984375 28.609375 75.984375 
z
" id="DejaVuSans-102"/>
      <path d="M 45.40625 27.984375 
Q 45.40625 37.75 41.375 43.109375 
Q 37.359375 48.484375 30.078125 48.484375 
Q 22.859375 48.484375 18.828125 43.109375 
Q 14.796875 37.75 14.796875 27.984375 
Q 14.796875 18.265625 18.828125 12.890625 
Q 22.859375 7.515625 30.078125 7.515625 
Q 37.359375 7.515625 41.375 12.890625 
Q 45.40625 18.265625 45.40625 27.984375 
z
M 54.390625 6.78125 
Q 54.390625 -7.171875 48.1875 -13.984375 
Q 42 -20.796875 29.203125 -20.796875 
Q 24.46875 -20.796875 20.265625 -20.09375 
Q 16.0625 -19.390625 12.109375 -17.921875 
L 12.109375 -9.1875 
Q 16.0625 -11.328125 19.921875 -12.34375 
Q 23.78125 -13.375 27.78125 -13.375 
Q 36.625 -13.375 41.015625 -8.765625 
Q 45.40625 -4.15625 45.40625 5.171875 
L 45.40625 9.625 
Q 42.625 4.78125 38.28125 2.390625 
Q 33.9375 0 27.875 0 
Q 17.828125 0 11.671875 7.65625 
Q 5.515625 15.328125 5.515625 27.984375 
Q 5.515625 40.671875 11.671875 48.328125 
Q 17.828125 56 27.875 56 
Q 33.9375 56 38.28125 53.609375 
Q 42.625 51.21875 45.40625 46.390625 
L 45.40625 54.6875 
L 54.390625 54.6875 
z
" id="DejaVuSans-103"/>
      <path d="M 34.28125 27.484375 
Q 23.390625 27.484375 19.1875 25 
Q 14.984375 22.515625 14.984375 16.5 
Q 14.984375 11.71875 18.140625 8.90625 
Q 21.296875 6.109375 26.703125 6.109375 
Q 34.1875 6.109375 38.703125 11.40625 
Q 43.21875 16.703125 43.21875 25.484375 
L 43.21875 27.484375 
z
M 52.203125 31.203125 
L 52.203125 0 
L 43.21875 0 
L 43.21875 8.296875 
Q 40.140625 3.328125 35.546875 0.953125 
Q 30.953125 -1.421875 24.3125 -1.421875 
Q 15.921875 -1.421875 10.953125 3.296875 
Q 6 8.015625 6 15.921875 
Q 6 25.140625 12.171875 29.828125 
Q 18.359375 34.515625 30.609375 34.515625 
L 43.21875 34.515625 
L 43.21875 35.40625 
Q 43.21875 41.609375 39.140625 45 
Q 35.0625 48.390625 27.6875 48.390625 
Q 23 48.390625 18.546875 47.265625 
Q 14.109375 46.140625 10.015625 43.890625 
L 10.015625 52.203125 
Q 14.9375 54.109375 19.578125 55.046875 
Q 24.21875 56 28.609375 56 
Q 40.484375 56 46.34375 49.84375 
Q 52.203125 43.703125 52.203125 31.203125 
z
" id="DejaVuSans-97"/>
      <path d="M 52 44.1875 
Q 55.375 50.25 60.0625 53.125 
Q 64.75 56 71.09375 56 
Q 79.640625 56 84.28125 50.015625 
Q 88.921875 44.046875 88.921875 33.015625 
L 88.921875 0 
L 79.890625 0 
L 79.890625 32.71875 
Q 79.890625 40.578125 77.09375 44.375 
Q 74.3125 48.1875 68.609375 48.1875 
Q 61.625 48.1875 57.5625 43.546875 
Q 53.515625 38.921875 53.515625 30.90625 
L 53.515625 0 
L 44.484375 0 
L 44.484375 32.71875 
Q 44.484375 40.625 41.703125 44.40625 
Q 38.921875 48.1875 33.109375 48.1875 
Q 26.21875 48.1875 22.15625 43.53125 
Q 18.109375 38.875 18.109375 30.90625 
L 18.109375 0 
L 9.078125 0 
L 9.078125 54.6875 
L 18.109375 54.6875 
L 18.109375 46.1875 
Q 21.1875 51.21875 25.484375 53.609375 
Q 29.78125 56 35.6875 56 
Q 41.65625 56 45.828125 52.96875 
Q 50 49.953125 52 44.1875 
z
" id="DejaVuSans-109"/>
      <path d="M 56.203125 29.59375 
L 56.203125 25.203125 
L 14.890625 25.203125 
Q 15.484375 15.921875 20.484375 11.0625 
Q 25.484375 6.203125 34.421875 6.203125 
Q 39.59375 6.203125 44.453125 7.46875 
Q 49.3125 8.734375 54.109375 11.28125 
L 54.109375 2.78125 
Q 49.265625 0.734375 44.1875 -0.34375 
Q 39.109375 -1.421875 33.890625 -1.421875 
Q 20.796875 -1.421875 13.15625 6.1875 
Q 5.515625 13.8125 5.515625 26.8125 
Q 5.515625 40.234375 12.765625 48.109375 
Q 20.015625 56 32.328125 56 
Q 43.359375 56 49.78125 48.890625 
Q 56.203125 41.796875 56.203125 29.59375 
z
M 47.21875 32.234375 
Q 47.125 39.59375 43.09375 43.984375 
Q 39.0625 48.390625 32.421875 48.390625 
Q 24.90625 48.390625 20.390625 44.140625 
Q 15.875 39.890625 15.1875 32.171875 
z
" id="DejaVuSans-101"/>
      <path d="M 44.28125 53.078125 
L 44.28125 44.578125 
Q 40.484375 46.53125 36.375 47.5 
Q 32.28125 48.484375 27.875 48.484375 
Q 21.1875 48.484375 17.84375 46.4375 
Q 14.5 44.390625 14.5 40.28125 
Q 14.5 37.15625 16.890625 35.375 
Q 19.28125 33.59375 26.515625 31.984375 
L 29.59375 31.296875 
Q 39.15625 29.25 43.1875 25.515625 
Q 47.21875 21.78125 47.21875 15.09375 
Q 47.21875 7.46875 41.1875 3.015625 
Q 35.15625 -1.421875 24.609375 -1.421875 
Q 20.21875 -1.421875 15.453125 -0.5625 
Q 10.6875 0.296875 5.421875 2 
L 5.421875 11.28125 
Q 10.40625 8.6875 15.234375 7.390625 
Q 20.0625 6.109375 24.8125 6.109375 
Q 31.15625 6.109375 34.5625 8.28125 
Q 37.984375 10.453125 37.984375 14.40625 
Q 37.984375 18.0625 35.515625 20.015625 
Q 33.0625 21.96875 24.703125 23.78125 
L 21.578125 24.515625 
Q 13.234375 26.265625 9.515625 29.90625 
Q 5.8125 33.546875 5.8125 39.890625 
Q 5.8125 47.609375 11.28125 51.796875 
Q 16.75 56 26.8125 56 
Q 31.78125 56 36.171875 55.265625 
Q 40.578125 54.546875 44.28125 53.078125 
z
" id="DejaVuSans-115"/>
     </defs>
     <g transform="translate(236.716641 414.912344)scale(0.25 -0.25)">
      <use xlink:href="#DejaVuSans-35"/>
      <use x="83.789062" xlink:href="#DejaVuSans-32"/>
      <use x="115.576172" xlink:href="#DejaVuSans-111"/>
      <use x="176.757812" xlink:href="#DejaVuSans-102"/>
      <use x="211.962891" xlink:href="#DejaVuSans-32"/>
      <use x="243.75" xlink:href="#DejaVuSans-103"/>
      <use x="307.226562" xlink:href="#DejaVuSans-97"/>
      <use x="368.505859" xlink:href="#DejaVuSans-109"/>
      <use x="465.917969" xlink:href="#DejaVuSans-101"/>
      <use x="527.441406" xlink:href="#DejaVuSans-115"/>
     </g>
    </g>
   </g>
   <g id="matplotlib.axis_2">
    <g id="ytick_1">
     <g id="line2d_6">
      <defs>
       <path d="M 0 0 
L -3.5 0 
" id="md76e5ba80e" style="stroke:#000000;stroke-width:0.8;"/>
      </defs>
      <g>
       <use style="stroke:#000000;stroke-width:0.8;" x="89.12" xlink:href="#md76e5ba80e" y="352.966364"/>
      </g>
     </g>
     <g id="text_7">
      <!-- 0 -->
      <g transform="translate(69.395 360.564801)scale(0.2 -0.2)">
       <use xlink:href="#DejaVuSans-48"/>
      </g>
     </g>
    </g>
    <g id="ytick_2">
     <g id="line2d_7">
      <g>
       <use style="stroke:#000000;stroke-width:0.8;" x="89.12" xlink:href="#md76e5ba80e" y="303.070815"/>
      </g>
     </g>
     <g id="text_8">
      <!-- 500 -->
      <defs>
       <path d="M 10.796875 72.90625 
L 49.515625 72.90625 
L 49.515625 64.59375 
L 19.828125 64.59375 
L 19.828125 46.734375 
Q 21.96875 47.46875 24.109375 47.828125 
Q 26.265625 48.1875 28.421875 48.1875 
Q 40.625 48.1875 47.75 41.5 
Q 54.890625 34.8125 54.890625 23.390625 
Q 54.890625 11.625 47.5625 5.09375 
Q 40.234375 -1.421875 26.90625 -1.421875 
Q 22.3125 -1.421875 17.546875 -0.640625 
Q 12.796875 0.140625 7.71875 1.703125 
L 7.71875 11.625 
Q 12.109375 9.234375 16.796875 8.0625 
Q 21.484375 6.890625 26.703125 6.890625 
Q 35.15625 6.890625 40.078125 11.328125 
Q 45.015625 15.765625 45.015625 23.390625 
Q 45.015625 31 40.078125 35.4375 
Q 35.15625 39.890625 26.703125 39.890625 
Q 22.75 39.890625 18.8125 39.015625 
Q 14.890625 38.140625 10.796875 36.28125 
z
" id="DejaVuSans-53"/>
      </defs>
      <g transform="translate(43.945 310.669253)scale(0.2 -0.2)">
       <use xlink:href="#DejaVuSans-53"/>
       <use x="63.623047" xlink:href="#DejaVuSans-48"/>
       <use x="127.246094" xlink:href="#DejaVuSans-48"/>
      </g>
     </g>
    </g>
    <g id="ytick_3">
     <g id="line2d_8">
      <g>
       <use style="stroke:#000000;stroke-width:0.8;" x="89.12" xlink:href="#md76e5ba80e" y="253.175267"/>
      </g>
     </g>
     <g id="text_9">
      <!-- 1000 -->
      <defs>
       <path d="M 12.40625 8.296875 
L 28.515625 8.296875 
L 28.515625 63.921875 
L 10.984375 60.40625 
L 10.984375 69.390625 
L 28.421875 72.90625 
L 38.28125 72.90625 
L 38.28125 8.296875 
L 54.390625 8.296875 
L 54.390625 0 
L 12.40625 0 
z
" id="DejaVuSans-49"/>
      </defs>
      <g transform="translate(31.22 260.773705)scale(0.2 -0.2)">
       <use xlink:href="#DejaVuSans-49"/>
       <use x="63.623047" xlink:href="#DejaVuSans-48"/>
       <use x="127.246094" xlink:href="#DejaVuSans-48"/>
       <use x="190.869141" xlink:href="#DejaVuSans-48"/>
      </g>
     </g>
    </g>
    <g id="ytick_4">
     <g id="line2d_9">
      <g>
       <use style="stroke:#000000;stroke-width:0.8;" x="89.12" xlink:href="#md76e5ba80e" y="203.279719"/>
      </g>
     </g>
     <g id="text_10">
      <!-- 1500 -->
      <g transform="translate(31.22 210.878157)scale(0.2 -0.2)">
       <use xlink:href="#DejaVuSans-49"/>
       <use x="63.623047" xlink:href="#DejaVuSans-53"/>
       <use x="127.246094" xlink:href="#DejaVuSans-48"/>
       <use x="190.869141" xlink:href="#DejaVuSans-48"/>
      </g>
     </g>
    </g>
    <g id="ytick_5">
     <g id="line2d_10">
      <g>
       <use style="stroke:#000000;stroke-width:0.8;" x="89.12" xlink:href="#md76e5ba80e" y="153.384171"/>
      </g>
     </g>
     <g id="text_11">
      <!-- 2000 -->
      <g transform="translate(31.22 160.982608)scale(0.2 -0.2)">
       <use xlink:href="#DejaVuSans-50"/>
       <use x="63.623047" xlink:href="#DejaVuSans-48"/>
       <use x="127.246094" xlink:href="#DejaVuSans-48"/>
       <use x="190.869141" xlink:href="#DejaVuSans-48"/>
      </g>
     </g>
    </g>
    <g id="ytick_6">
     <g id="line2d_11">
      <g>
       <use style="stroke:#000000;stroke-width:0.8;" x="89.12" xlink:href="#md76e5ba80e" y="103.488623"/>
      </g>
     </g>
     <g id="text_12">
      <!-- 2500 -->
      <g transform="translate(31.22 111.08706)scale(0.2 -0.2)">
       <use xlink:href="#DejaVuSans-50"/>
       <use x="63.623047" xlink:href="#DejaVuSans-53"/>
       <use x="127.246094" xlink:href="#DejaVuSans-48"/>
       <use x="190.869141" xlink:href="#DejaVuSans-48"/>
      </g>
     </g>
    </g>
    <g id="text_13">
     <!-- Number of Att strategy used -->
     <defs>
      <path d="M 9.8125 72.90625 
L 23.09375 72.90625 
L 55.421875 11.921875 
L 55.421875 72.90625 
L 64.984375 72.90625 
L 64.984375 0 
L 51.703125 0 
L 19.390625 60.984375 
L 19.390625 0 
L 9.8125 0 
z
" id="DejaVuSans-78"/>
      <path d="M 8.5 21.578125 
L 8.5 54.6875 
L 17.484375 54.6875 
L 17.484375 21.921875 
Q 17.484375 14.15625 20.5 10.265625 
Q 23.53125 6.390625 29.59375 6.390625 
Q 36.859375 6.390625 41.078125 11.03125 
Q 45.3125 15.671875 45.3125 23.6875 
L 45.3125 54.6875 
L 54.296875 54.6875 
L 54.296875 0 
L 45.3125 0 
L 45.3125 8.40625 
Q 42.046875 3.421875 37.71875 1 
Q 33.40625 -1.421875 27.6875 -1.421875 
Q 18.265625 -1.421875 13.375 4.4375 
Q 8.5 10.296875 8.5 21.578125 
z
M 31.109375 56 
z
" id="DejaVuSans-117"/>
      <path d="M 48.6875 27.296875 
Q 48.6875 37.203125 44.609375 42.84375 
Q 40.53125 48.484375 33.40625 48.484375 
Q 26.265625 48.484375 22.1875 42.84375 
Q 18.109375 37.203125 18.109375 27.296875 
Q 18.109375 17.390625 22.1875 11.75 
Q 26.265625 6.109375 33.40625 6.109375 
Q 40.53125 6.109375 44.609375 11.75 
Q 48.6875 17.390625 48.6875 27.296875 
z
M 18.109375 46.390625 
Q 20.953125 51.265625 25.265625 53.625 
Q 29.59375 56 35.59375 56 
Q 45.5625 56 51.78125 48.09375 
Q 58.015625 40.1875 58.015625 27.296875 
Q 58.015625 14.40625 51.78125 6.484375 
Q 45.5625 -1.421875 35.59375 -1.421875 
Q 29.59375 -1.421875 25.265625 0.953125 
Q 20.953125 3.328125 18.109375 8.203125 
L 18.109375 0 
L 9.078125 0 
L 9.078125 75.984375 
L 18.109375 75.984375 
z
" id="DejaVuSans-98"/>
      <path d="M 41.109375 46.296875 
Q 39.59375 47.171875 37.8125 47.578125 
Q 36.03125 48 33.890625 48 
Q 26.265625 48 22.1875 43.046875 
Q 18.109375 38.09375 18.109375 28.8125 
L 18.109375 0 
L 9.078125 0 
L 9.078125 54.6875 
L 18.109375 54.6875 
L 18.109375 46.1875 
Q 20.953125 51.171875 25.484375 53.578125 
Q 30.03125 56 36.53125 56 
Q 37.453125 56 38.578125 55.875 
Q 39.703125 55.765625 41.0625 55.515625 
z
" id="DejaVuSans-114"/>
      <path d="M 34.1875 63.1875 
L 20.796875 26.90625 
L 47.609375 26.90625 
z
M 28.609375 72.90625 
L 39.796875 72.90625 
L 67.578125 0 
L 57.328125 0 
L 50.6875 18.703125 
L 17.828125 18.703125 
L 11.1875 0 
L 0.78125 0 
z
" id="DejaVuSans-65"/>
      <path d="M 18.3125 70.21875 
L 18.3125 54.6875 
L 36.8125 54.6875 
L 36.8125 47.703125 
L 18.3125 47.703125 
L 18.3125 18.015625 
Q 18.3125 11.328125 20.140625 9.421875 
Q 21.96875 7.515625 27.59375 7.515625 
L 36.8125 7.515625 
L 36.8125 0 
L 27.59375 0 
Q 17.1875 0 13.234375 3.875 
Q 9.28125 7.765625 9.28125 18.015625 
L 9.28125 47.703125 
L 2.6875 47.703125 
L 2.6875 54.6875 
L 9.28125 54.6875 
L 9.28125 70.21875 
z
" id="DejaVuSans-116"/>
      <path d="M 32.171875 -5.078125 
Q 28.375 -14.84375 24.75 -17.8125 
Q 21.140625 -20.796875 15.09375 -20.796875 
L 7.90625 -20.796875 
L 7.90625 -13.28125 
L 13.1875 -13.28125 
Q 16.890625 -13.28125 18.9375 -11.515625 
Q 21 -9.765625 23.484375 -3.21875 
L 25.09375 0.875 
L 2.984375 54.6875 
L 12.5 54.6875 
L 29.59375 11.921875 
L 46.6875 54.6875 
L 56.203125 54.6875 
z
" id="DejaVuSans-121"/>
      <path d="M 45.40625 46.390625 
L 45.40625 75.984375 
L 54.390625 75.984375 
L 54.390625 0 
L 45.40625 0 
L 45.40625 8.203125 
Q 42.578125 3.328125 38.25 0.953125 
Q 33.9375 -1.421875 27.875 -1.421875 
Q 17.96875 -1.421875 11.734375 6.484375 
Q 5.515625 14.40625 5.515625 27.296875 
Q 5.515625 40.1875 11.734375 48.09375 
Q 17.96875 56 27.875 56 
Q 33.9375 56 38.25 53.625 
Q 42.578125 51.265625 45.40625 46.390625 
z
M 14.796875 27.296875 
Q 14.796875 17.390625 18.875 11.75 
Q 22.953125 6.109375 30.078125 6.109375 
Q 37.203125 6.109375 41.296875 11.75 
Q 45.40625 17.390625 45.40625 27.296875 
Q 45.40625 37.203125 41.296875 42.84375 
Q 37.203125 48.484375 30.078125 48.484375 
Q 22.953125 48.484375 18.875 42.84375 
Q 14.796875 37.203125 14.796875 27.296875 
z
" id="DejaVuSans-100"/>
     </defs>
     <g transform="translate(23.753854 346.164115)rotate(-90)scale(0.166667 -0.166667)">
      <use xlink:href="#DejaVuSans-78"/>
      <use x="74.804688" xlink:href="#DejaVuSans-117"/>
      <use x="138.183594" xlink:href="#DejaVuSans-109"/>
      <use x="235.595703" xlink:href="#DejaVuSans-98"/>
      <use x="299.072266" xlink:href="#DejaVuSans-101"/>
      <use x="360.595703" xlink:href="#DejaVuSans-114"/>
      <use x="401.708984" xlink:href="#DejaVuSans-32"/>
      <use x="433.496094" xlink:href="#DejaVuSans-111"/>
      <use x="494.677734" xlink:href="#DejaVuSans-102"/>
      <use x="529.882812" xlink:href="#DejaVuSans-32"/>
      <use x="561.669922" xlink:href="#DejaVuSans-65"/>
      <use x="630.0625" xlink:href="#DejaVuSans-116"/>
      <use x="669.271484" xlink:href="#DejaVuSans-116"/>
      <use x="708.480469" xlink:href="#DejaVuSans-32"/>
      <use x="740.267578" xlink:href="#DejaVuSans-115"/>
      <use x="792.367188" xlink:href="#DejaVuSans-116"/>
      <use x="831.576172" xlink:href="#DejaVuSans-114"/>
      <use x="872.689453" xlink:href="#DejaVuSans-97"/>
      <use x="933.96875" xlink:href="#DejaVuSans-116"/>
      <use x="973.177734" xlink:href="#DejaVuSans-101"/>
      <use x="1034.701172" xlink:href="#DejaVuSans-103"/>
      <use x="1098.177734" xlink:href="#DejaVuSans-121"/>
      <use x="1157.357422" xlink:href="#DejaVuSans-32"/>
      <use x="1189.144531" xlink:href="#DejaVuSans-117"/>
      <use x="1252.523438" xlink:href="#DejaVuSans-115"/>
      <use x="1304.623047" xlink:href="#DejaVuSans-101"/>
      <use x="1366.146484" xlink:href="#DejaVuSans-100"/>
     </g>
    </g>
   </g>
   <g id="line2d_12">
    <path clip-path="url(#pf4aae8a651)" d="M 109.123636 303.070815 
L 113.568889 288.501315 
L 118.014141 274.730144 
L 122.459394 264.152288 
L 126.904646 254.272969 
L 131.349899 242.996575 
L 135.795152 228.227493 
L 140.240404 212.759873 
L 144.685657 203.978257 
L 149.130909 191.903534 
L 153.576162 181.724842 
L 158.021414 172.743644 
L 162.466667 161.068085 
L 166.911919 151.687722 
L 171.357172 141.109866 
L 175.802424 137.218013 
L 180.247677 129.534099 
L 184.692929 121.051856 
L 189.138182 111.970866 
L 193.583434 110.873164 
L 198.028687 105.484445 
L 202.473939 101.093636 
L 206.919192 106.182982 
L 211.364444 106.382564 
L 215.809697 107.380475 
L 220.254949 109.57588 
L 224.700202 114.266061 
L 229.145455 112.569612 
L 233.590707 110.473999 
L 238.03596 117.559167 
L 242.481212 116.661047 
L 246.926465 114.266061 
L 251.371717 119.455198 
L 255.81697 123.846006 
L 260.262222 125.442664 
L 264.707475 120.453109 
L 269.152727 131.729503 
L 273.59798 134.623445 
L 278.043232 141.409239 
L 282.488485 145.10151 
L 286.933737 149.791691 
L 291.37899 150.59002 
L 295.824242 153.084798 
L 300.269495 152.785424 
L 304.714747 153.084798 
L 309.16 163.163698 
L 313.605253 168.752 
L 318.050505 177.733198 
L 322.495758 186.215442 
L 326.94101 188.410846 
L 331.386263 193.200818 
L 335.831515 195.695596 
L 340.276768 206.97199 
L 344.72202 220.343997 
L 349.167273 227.229582 
L 353.612525 228.626658 
L 358.057778 236.011199 
L 362.50303 241.898873 
L 366.948283 250.580699 
L 371.393535 261.757302 
L 375.838788 269.940171 
L 380.28404 281.216565 
L 384.729293 289.998182 
L 389.174545 293.391079 
L 393.619798 297.98147 
L 398.065051 303.869144 
L 402.510303 309.257863 
L 406.955556 308.95849 
L 411.400808 313.748463 
L 415.846061 317.041569 
L 420.291313 319.536346 
L 424.736566 321.232795 
L 429.181818 325.424021 
L 433.627071 328.916709 
L 438.072323 333.307518 
L 442.517576 337.099579 
L 446.962828 337.997699 
L 451.408081 342.288716 
L 455.853333 342.987254 
L 460.298586 343.286627 
L 464.743838 344.783494 
L 469.189091 344.384329 
L 473.634343 343.885374 
L 478.079596 347.078689 
L 482.524848 347.877018 
L 486.970101 349.373884 
L 491.415354 348.874929 
L 495.860606 350.471586 
L 500.305859 350.371795 
L 504.751111 350.072422 
L 509.196364 351.469497 
" style="fill:none;stroke:#1f77b4;stroke-linecap:square;stroke-width:1.5;"/>
   </g>
   <g id="line2d_13">
    <path clip-path="url(#pf4aae8a651)" d="M 109.123636 352.966364 
L 113.568889 347.577644 
L 118.014141 341.68997 
L 122.459394 336.301251 
L 126.904646 330.912531 
L 131.349899 326.122559 
L 135.795152 323.328408 
L 140.240404 322.729661 
L 144.685657 314.347209 
L 149.130909 313.748463 
L 153.576162 309.457446 
L 158.021414 305.066637 
L 162.466667 306.064548 
L 166.911919 302.771442 
L 171.357172 303.669562 
L 175.802424 296.684185 
L 180.247677 293.191497 
L 184.692929 296.484603 
L 189.138182 298.081261 
L 193.583434 295.187319 
L 198.028687 294.488781 
L 202.473939 292.892124 
L 206.919192 289.998182 
L 211.364444 291.894213 
L 215.809697 295.28711 
L 220.254949 291.195675 
L 224.700202 288.601106 
L 229.145455 292.792333 
L 233.590707 295.386901 
L 238.03596 292.393168 
L 242.481212 292.293377 
L 246.926465 293.989826 
L 251.371717 292.792333 
L 255.81697 293.391079 
L 260.262222 297.183141 
L 264.707475 298.779798 
L 269.152727 296.384812 
L 273.59798 296.085439 
L 278.043232 298.181052 
L 282.488485 299.8775 
L 286.933737 298.380634 
L 291.37899 302.971024 
L 295.824242 300.077083 
L 300.269495 302.671651 
L 304.714747 304.3681 
L 309.16 304.767264 
L 313.605253 304.3681 
L 318.050505 307.16225 
L 322.495758 309.357655 
L 326.94101 313.548881 
L 331.386263 312.451179 
L 335.831515 311.952223 
L 340.276768 316.442822 
L 344.72202 315.744285 
L 349.167273 318.9376 
L 353.612525 322.430288 
L 358.057778 324.126737 
L 362.50303 322.729661 
L 366.948283 329.515456 
L 371.393535 329.615247 
L 375.838788 332.110024 
L 380.28404 335.902086 
L 384.729293 336.600624 
L 389.174545 338.596446 
L 393.619798 343.286627 
L 398.065051 341.68997 
L 402.510303 342.288716 
L 406.955556 342.787672 
L 411.400808 342.288716 
L 415.846061 343.186836 
L 420.291313 345.38224 
L 424.736566 346.779316 
L 429.181818 346.479942 
L 433.627071 347.078689 
L 438.072323 347.078689 
L 442.517576 349.573466 
L 446.962828 349.074511 
L 451.408081 349.074511 
L 455.853333 349.87284 
L 460.298586 350.272004 
L 464.743838 350.970542 
L 469.189091 350.970542 
L 473.634343 350.970542 
L 478.079596 352.267826 
L 482.524848 351.469497 
L 486.970101 352.068244 
L 491.415354 351.968453 
L 495.860606 351.968453 
L 500.305859 352.267826 
L 504.751111 352.168035 
L 509.196364 352.168035 
" style="fill:none;stroke:#ff7f0e;stroke-linecap:square;stroke-width:1.5;"/>
   </g>
   <g id="line2d_14">
    <path clip-path="url(#pf4aae8a651)" d="M 109.123636 352.966364 
L 113.568889 352.966364 
L 118.014141 352.866573 
L 122.459394 352.367617 
L 126.904646 352.267826 
L 131.349899 350.970542 
L 135.795152 351.070333 
L 140.240404 351.070333 
L 144.685657 351.070333 
L 149.130909 350.272004 
L 153.576162 350.77096 
L 158.021414 348.575555 
L 162.466667 348.97472 
L 166.911919 347.877018 
L 171.357172 347.976809 
L 175.802424 348.575555 
L 180.247677 347.17848 
L 184.692929 346.679525 
L 189.138182 346.28036 
L 193.583434 346.28036 
L 198.028687 347.976809 
L 202.473939 346.180569 
L 206.919192 345.881196 
L 211.364444 344.683703 
L 215.809697 346.479942 
L 220.254949 344.983076 
L 224.700202 344.883285 
L 229.145455 344.384329 
L 233.590707 345.38224 
L 238.03596 346.479942 
L 242.481212 346.479942 
L 246.926465 345.581823 
L 251.371717 344.48412 
L 255.81697 344.683703 
L 260.262222 344.983076 
L 264.707475 345.282449 
L 269.152727 346.779316 
L 273.59798 346.28036 
L 278.043232 345.282449 
L 282.488485 345.681614 
L 286.933737 346.679525 
L 291.37899 345.781405 
L 295.824242 345.182658 
L 300.269495 343.885374 
L 304.714747 344.48412 
L 309.16 346.779316 
L 313.605253 345.781405 
L 318.050505 345.980987 
L 322.495758 346.978898 
L 326.94101 347.976809 
L 331.386263 346.28036 
L 335.831515 346.479942 
L 340.276768 347.777227 
L 344.72202 347.078689 
L 349.167273 346.380151 
L 353.612525 347.777227 
L 358.057778 348.874929 
L 362.50303 348.375973 
L 366.948283 348.675346 
L 371.393535 349.074511 
L 375.838788 348.97472 
L 380.28404 349.773049 
L 384.729293 350.77096 
L 389.174545 351.070333 
L 393.619798 351.569288 
L 398.065051 351.269915 
L 402.510303 351.170124 
L 406.955556 351.76887 
L 411.400808 351.76887 
L 415.846061 351.369706 
L 420.291313 351.968453 
L 424.736566 351.968453 
L 429.181818 352.068244 
L 433.627071 352.367617 
L 438.072323 352.267826 
L 442.517576 352.367617 
L 446.962828 352.467408 
L 451.408081 352.267826 
L 455.853333 352.766781 
L 460.298586 352.766781 
L 464.743838 352.766781 
L 469.189091 352.766781 
L 473.634343 352.766781 
L 478.079596 352.766781 
L 482.524848 352.766781 
L 486.970101 352.766781 
L 491.415354 352.966364 
L 495.860606 352.866573 
L 500.305859 352.866573 
L 504.751111 352.766781 
L 509.196364 352.966364 
" style="fill:none;stroke:#2ca02c;stroke-linecap:square;stroke-width:1.5;"/>
   </g>
   <g id="line2d_15">
    <path clip-path="url(#pf4aae8a651)" d="M 109.123636 352.966364 
L 113.568889 352.966364 
L 118.014141 352.866573 
L 122.459394 352.267826 
L 126.904646 351.569288 
L 131.349899 351.868662 
L 135.795152 351.170124 
L 140.240404 351.070333 
L 144.685657 350.371795 
L 149.130909 350.172213 
L 153.576162 349.373884 
L 158.021414 349.673257 
L 162.466667 348.874929 
L 166.911919 348.0766 
L 171.357172 348.575555 
L 175.802424 346.679525 
L 180.247677 347.976809 
L 184.692929 347.677436 
L 189.138182 347.378062 
L 193.583434 346.479942 
L 198.028687 345.482031 
L 202.473939 344.48412 
L 206.919192 345.482031 
L 211.364444 345.282449 
L 215.809697 346.579733 
L 220.254949 345.980987 
L 224.700202 345.581823 
L 229.145455 346.679525 
L 233.590707 345.980987 
L 238.03596 344.983076 
L 242.481212 345.482031 
L 246.926465 345.581823 
L 251.371717 344.48412 
L 255.81697 345.082867 
L 260.262222 344.384329 
L 264.707475 344.284538 
L 269.152727 345.881196 
L 273.59798 345.082867 
L 278.043232 344.783494 
L 282.488485 344.284538 
L 286.933737 345.38224 
L 291.37899 345.182658 
L 295.824242 344.983076 
L 300.269495 345.980987 
L 304.714747 345.781405 
L 309.16 346.879107 
L 313.605253 346.479942 
L 318.050505 344.48412 
L 322.495758 346.479942 
L 326.94101 345.38224 
L 331.386263 346.380151 
L 335.831515 346.978898 
L 340.276768 347.477853 
L 344.72202 348.775138 
L 349.167273 348.276182 
L 353.612525 347.877018 
L 358.057778 349.074511 
L 362.50303 347.677436 
L 366.948283 349.074511 
L 371.393535 348.97472 
L 375.838788 348.475764 
L 380.28404 350.471586 
L 384.729293 349.87284 
L 389.174545 350.870751 
L 393.619798 351.070333 
L 398.065051 350.671168 
L 402.510303 351.369706 
L 406.955556 351.369706 
L 411.400808 351.76887 
L 415.846061 350.970542 
L 420.291313 351.569288 
L 424.736566 351.968453 
L 429.181818 352.467408 
L 433.627071 352.068244 
L 438.072323 351.76887 
L 442.517576 352.267826 
L 446.962828 352.467408 
L 451.408081 352.467408 
L 455.853333 352.766781 
L 460.298586 352.66699 
L 464.743838 352.567199 
L 469.189091 352.766781 
L 473.634343 352.66699 
L 478.079596 352.766781 
L 482.524848 352.866573 
L 486.970101 352.866573 
L 491.415354 352.866573 
L 495.860606 352.866573 
L 500.305859 352.766781 
L 504.751111 352.966364 
L 509.196364 352.866573 
" style="fill:none;stroke:#d62728;stroke-linecap:square;stroke-width:1.5;"/>
   </g>
   <g id="line2d_16">
    <path clip-path="url(#pf4aae8a651)" d="M 109.123636 352.966364 
L 113.568889 352.966364 
L 118.014141 352.966364 
L 122.459394 352.367617 
L 126.904646 351.669079 
L 131.349899 350.970542 
L 135.795152 350.371795 
L 140.240404 348.775138 
L 144.685657 348.575555 
L 149.130909 349.373884 
L 153.576162 348.0766 
L 158.021414 346.080778 
L 162.466667 344.683703 
L 166.911919 344.384329 
L 171.357172 341.290805 
L 175.802424 342.188925 
L 180.247677 341.390596 
L 184.692929 340.692059 
L 189.138182 341.191014 
L 193.583434 340.692059 
L 198.028687 335.902086 
L 202.473939 338.396864 
L 206.919192 337.798117 
L 211.364444 336.600624 
L 215.809697 334.105846 
L 220.254949 336.201459 
L 224.700202 335.902086 
L 229.145455 334.305429 
L 233.590707 334.704593 
L 238.03596 334.704593 
L 242.481212 333.307518 
L 246.926465 333.307518 
L 251.371717 333.407309 
L 255.81697 331.71086 
L 260.262222 332.509189 
L 264.707475 332.209816 
L 269.152727 330.912531 
L 273.59798 330.81274 
L 278.043232 331.611069 
L 282.488485 330.712949 
L 286.933737 333.806473 
L 291.37899 332.60898 
L 295.824242 334.305429 
L 300.269495 329.116292 
L 304.714747 329.715038 
L 309.16 329.515456 
L 313.605253 329.91462 
L 318.050505 332.010233 
L 322.495758 331.71086 
L 326.94101 335.702504 
L 331.386263 333.008144 
L 335.831515 334.40522 
L 340.276768 332.509189 
L 344.72202 335.003966 
L 349.167273 336.401042 
L 353.612525 336.001877 
L 358.057778 335.203548 
L 362.50303 336.999788 
L 366.948283 339.195192 
L 371.393535 342.288716 
L 375.838788 342.987254 
L 380.28404 342.787672 
L 384.729293 341.590179 
L 389.174545 344.48412 
L 393.619798 346.28036 
L 398.065051 347.278271 
L 402.510303 346.679525 
L 406.955556 347.777227 
L 411.400808 347.777227 
L 415.846061 348.675346 
L 420.291313 347.877018 
L 424.736566 349.373884 
L 429.181818 349.972631 
L 433.627071 350.471586 
L 438.072323 350.870751 
L 442.517576 350.471586 
L 446.962828 350.77096 
L 451.408081 351.569288 
L 455.853333 351.070333 
L 460.298586 352.168035 
L 464.743838 351.968453 
L 469.189091 351.76887 
L 473.634343 351.868662 
L 478.079596 352.567199 
L 482.524848 351.968453 
L 486.970101 352.367617 
L 491.415354 352.66699 
L 495.860606 352.766781 
L 500.305859 352.766781 
L 504.751111 352.866573 
L 509.196364 352.866573 
" style="fill:none;stroke:#9467bd;stroke-linecap:square;stroke-width:1.5;"/>
   </g>
   <g id="line2d_17">
    <path clip-path="url(#pf4aae8a651)" d="M 109.123636 352.966364 
L 113.568889 352.966364 
L 118.014141 352.966364 
L 122.459394 352.966364 
L 126.904646 352.866573 
L 131.349899 352.766781 
L 135.795152 352.866573 
L 140.240404 352.66699 
L 144.685657 352.267826 
L 149.130909 352.168035 
L 153.576162 352.068244 
L 158.021414 351.868662 
L 162.466667 352.068244 
L 166.911919 351.469497 
L 171.357172 351.070333 
L 175.802424 351.569288 
L 180.247677 351.469497 
L 184.692929 350.870751 
L 189.138182 350.371795 
L 193.583434 350.671168 
L 198.028687 350.172213 
L 202.473939 349.174302 
L 206.919192 349.373884 
L 211.364444 349.773049 
L 215.809697 349.373884 
L 220.254949 349.274093 
L 224.700202 348.874929 
L 229.145455 349.773049 
L 233.590707 349.174302 
L 238.03596 347.976809 
L 242.481212 349.673257 
L 246.926465 349.673257 
L 251.371717 347.777227 
L 255.81697 348.575555 
L 260.262222 348.575555 
L 264.707475 349.074511 
L 269.152727 348.375973 
L 273.59798 349.473675 
L 278.043232 349.074511 
L 282.488485 348.97472 
L 286.933737 348.575555 
L 291.37899 349.673257 
L 295.824242 347.17848 
L 300.269495 347.877018 
L 304.714747 349.473675 
L 309.16 349.274093 
L 313.605253 349.972631 
L 318.050505 349.972631 
L 322.495758 348.575555 
L 326.94101 346.879107 
L 331.386263 349.87284 
L 335.831515 348.675346 
L 340.276768 349.373884 
L 344.72202 348.0766 
L 349.167273 349.174302 
L 353.612525 349.972631 
L 358.057778 350.272004 
L 362.50303 350.77096 
L 366.948283 349.773049 
L 371.393535 351.170124 
L 375.838788 349.573466 
L 380.28404 350.77096 
L 384.729293 351.070333 
L 389.174545 351.070333 
L 393.619798 351.170124 
L 398.065051 351.669079 
L 402.510303 352.467408 
L 406.955556 351.968453 
L 411.400808 352.367617 
L 415.846061 351.968453 
L 420.291313 352.367617 
L 424.736566 351.76887 
L 429.181818 352.367617 
L 433.627071 352.567199 
L 438.072323 352.367617 
L 442.517576 352.766781 
L 446.962828 352.66699 
L 451.408081 352.766781 
L 455.853333 352.66699 
L 460.298586 352.766781 
L 464.743838 352.567199 
L 469.189091 352.567199 
L 473.634343 352.866573 
L 478.079596 352.866573 
L 482.524848 352.966364 
L 486.970101 352.866573 
L 491.415354 352.966364 
L 495.860606 352.966364 
L 500.305859 352.966364 
L 504.751111 352.866573 
L 509.196364 352.966364 
" style="fill:none;stroke:#8c564b;stroke-linecap:square;stroke-width:1.5;"/>
   </g>
   <g id="line2d_18">
    <path clip-path="url(#pf4aae8a651)" d="M 109.123636 352.966364 
L 113.568889 352.966364 
L 118.014141 352.866573 
L 122.459394 352.467408 
L 126.904646 351.868662 
L 131.349899 351.170124 
L 135.795152 351.469497 
L 140.240404 350.172213 
L 144.685657 350.671168 
L 149.130909 348.475764 
L 153.576162 348.176391 
L 158.021414 348.0766 
L 162.466667 346.779316 
L 166.911919 346.978898 
L 171.357172 345.282449 
L 175.802424 345.38224 
L 180.247677 344.184747 
L 184.692929 344.583912 
L 189.138182 344.48412 
L 193.583434 342.687881 
L 198.028687 342.787672 
L 202.473939 341.889552 
L 206.919192 340.692059 
L 211.364444 339.394775 
L 215.809697 339.793939 
L 220.254949 341.091223 
L 224.700202 340.392685 
L 229.145455 337.897908 
L 233.590707 338.99561 
L 238.03596 340.492477 
L 242.481212 338.197281 
L 246.926465 339.095401 
L 251.371717 338.396864 
L 255.81697 338.895819 
L 260.262222 337.997699 
L 264.707475 338.895819 
L 269.152727 338.197281 
L 273.59798 339.89373 
L 278.043232 339.494566 
L 282.488485 338.796028 
L 286.933737 337.997699 
L 291.37899 337.897908 
L 295.824242 337.398953 
L 300.269495 337.19937 
L 304.714747 337.698326 
L 309.16 337.798117 
L 313.605253 336.700415 
L 318.050505 338.197281 
L 322.495758 337.498744 
L 326.94101 337.498744 
L 331.386263 340.093312 
L 335.831515 339.793939 
L 340.276768 341.191014 
L 344.72202 341.490388 
L 349.167273 342.58809 
L 353.612525 341.989343 
L 358.057778 342.388507 
L 362.50303 342.787672 
L 366.948283 343.486209 
L 371.393535 344.983076 
L 375.838788 344.983076 
L 380.28404 346.679525 
L 384.729293 346.779316 
L 389.174545 348.575555 
L 393.619798 347.976809 
L 398.065051 349.373884 
L 402.510303 348.575555 
L 406.955556 349.972631 
L 411.400808 349.074511 
L 415.846061 349.87284 
L 420.291313 350.471586 
L 424.736566 351.070333 
L 429.181818 349.972631 
L 433.627071 350.77096 
L 438.072323 351.369706 
L 442.517576 351.669079 
L 446.962828 351.170124 
L 451.408081 352.168035 
L 455.853333 351.569288 
L 460.298586 352.367617 
L 464.743838 352.567199 
L 469.189091 352.467408 
L 473.634343 352.567199 
L 478.079596 352.567199 
L 482.524848 352.766781 
L 486.970101 352.866573 
L 491.415354 352.567199 
L 495.860606 352.966364 
L 500.305859 352.766781 
L 504.751111 352.467408 
L 509.196364 352.966364 
" style="fill:none;stroke:#e377c2;stroke-linecap:square;stroke-width:1.5;"/>
   </g>
   <g id="line2d_19">
    <path clip-path="url(#pf4aae8a651)" d="M 109.123636 352.966364 
L 113.568889 352.966364 
L 118.014141 352.966364 
L 122.459394 352.966364 
L 126.904646 352.766781 
L 131.349899 352.766781 
L 135.795152 352.866573 
L 140.240404 352.467408 
L 144.685657 352.467408 
L 149.130909 352.467408 
L 153.576162 352.068244 
L 158.021414 352.168035 
L 162.466667 351.968453 
L 166.911919 351.269915 
L 171.357172 351.469497 
L 175.802424 350.571377 
L 180.247677 350.870751 
L 184.692929 351.269915 
L 189.138182 351.070333 
L 193.583434 350.471586 
L 198.028687 350.371795 
L 202.473939 350.272004 
L 206.919192 350.072422 
L 211.364444 348.675346 
L 215.809697 349.87284 
L 220.254949 348.775138 
L 224.700202 350.272004 
L 229.145455 349.373884 
L 233.590707 348.276182 
L 238.03596 347.976809 
L 242.481212 348.97472 
L 246.926465 348.375973 
L 251.371717 348.97472 
L 255.81697 349.473675 
L 260.262222 349.274093 
L 264.707475 348.276182 
L 269.152727 347.577644 
L 273.59798 349.373884 
L 278.043232 348.276182 
L 282.488485 349.373884 
L 286.933737 349.673257 
L 291.37899 349.473675 
L 295.824242 348.475764 
L 300.269495 348.375973 
L 304.714747 349.473675 
L 309.16 348.475764 
L 313.605253 348.97472 
L 318.050505 349.274093 
L 322.495758 349.773049 
L 326.94101 349.773049 
L 331.386263 348.675346 
L 335.831515 348.475764 
L 340.276768 348.475764 
L 344.72202 349.573466 
L 349.167273 349.972631 
L 353.612525 349.773049 
L 358.057778 349.074511 
L 362.50303 349.174302 
L 366.948283 348.874929 
L 371.393535 349.972631 
L 375.838788 351.070333 
L 380.28404 351.269915 
L 384.729293 350.072422 
L 389.174545 350.970542 
L 393.619798 351.968453 
L 398.065051 351.76887 
L 402.510303 351.968453 
L 406.955556 351.968453 
L 411.400808 351.868662 
L 415.846061 352.367617 
L 420.291313 352.168035 
L 424.736566 352.367617 
L 429.181818 352.168035 
L 433.627071 352.467408 
L 438.072323 352.567199 
L 442.517576 352.168035 
L 446.962828 352.766781 
L 451.408081 352.766781 
L 455.853333 352.866573 
L 460.298586 352.766781 
L 464.743838 352.866573 
L 469.189091 352.766781 
L 473.634343 352.766781 
L 478.079596 352.567199 
L 482.524848 352.966364 
L 486.970101 352.766781 
L 491.415354 352.866573 
L 495.860606 352.866573 
L 500.305859 352.766781 
L 504.751111 352.866573 
L 509.196364 352.966364 
" style="fill:none;stroke:#7f7f7f;stroke-linecap:square;stroke-width:1.5;"/>
   </g>
   <g id="line2d_20">
    <path clip-path="url(#pf4aae8a651)" d="M 109.123636 352.966364 
L 113.568889 352.966364 
L 118.014141 352.367617 
L 122.459394 352.068244 
L 126.904646 351.569288 
L 131.349899 351.269915 
L 135.795152 350.272004 
L 140.240404 350.571377 
L 144.685657 348.276182 
L 149.130909 347.078689 
L 153.576162 345.881196 
L 158.021414 344.983076 
L 162.466667 342.488299 
L 166.911919 341.091223 
L 171.357172 342.188925 
L 175.802424 340.592268 
L 180.247677 338.596446 
L 184.692929 336.401042 
L 189.138182 335.602713 
L 193.583434 336.999788 
L 198.028687 336.500833 
L 202.473939 335.802295 
L 206.919192 331.611069 
L 211.364444 332.409398 
L 215.809697 329.116292 
L 220.254949 329.814829 
L 224.700202 329.715038 
L 229.145455 328.317963 
L 233.590707 329.615247 
L 238.03596 326.022768 
L 242.481212 326.421932 
L 246.926465 326.122559 
L 251.371717 325.32423 
L 255.81697 324.326319 
L 260.262222 324.625692 
L 264.707475 322.829453 
L 269.152727 324.226528 
L 273.59798 322.530079 
L 278.043232 322.530079 
L 282.488485 328.218172 
L 286.933737 323.627781 
L 291.37899 320.434466 
L 295.824242 322.530079 
L 300.269495 323.927155 
L 304.714747 323.627781 
L 309.16 323.328408 
L 313.605253 324.42611 
L 318.050505 322.530079 
L 322.495758 322.929244 
L 326.94101 325.523812 
L 331.386263 324.625692 
L 335.831515 325.32423 
L 340.276768 327.719216 
L 344.72202 328.218172 
L 349.167273 328.218172 
L 353.612525 329.315874 
L 358.057778 328.118381 
L 362.50303 330.613158 
L 366.948283 334.704593 
L 371.393535 336.001877 
L 375.838788 338.197281 
L 380.28404 338.796028 
L 384.729293 342.388507 
L 389.174545 340.692059 
L 393.619798 343.486209 
L 398.065051 343.685792 
L 402.510303 346.28036 
L 406.955556 344.783494 
L 411.400808 345.980987 
L 415.846061 346.380151 
L 420.291313 348.575555 
L 424.736566 347.577644 
L 429.181818 348.475764 
L 433.627071 349.573466 
L 438.072323 350.272004 
L 442.517576 350.072422 
L 446.962828 350.77096 
L 451.408081 350.371795 
L 455.853333 350.870751 
L 460.298586 350.571377 
L 464.743838 351.369706 
L 469.189091 351.569288 
L 473.634343 351.569288 
L 478.079596 352.267826 
L 482.524848 351.968453 
L 486.970101 351.968453 
L 491.415354 351.968453 
L 495.860606 352.367617 
L 500.305859 352.467408 
L 504.751111 352.766781 
L 509.196364 352.66699 
" style="fill:none;stroke:#bcbd22;stroke-linecap:square;stroke-width:1.5;"/>
   </g>
   <g id="patch_3">
    <path d="M 89.12 365.56 
L 89.12 88.5 
" style="fill:none;stroke:#000000;stroke-linecap:square;stroke-linejoin:miter;stroke-width:0.8;"/>
   </g>
   <g id="patch_4">
    <path d="M 529.2 365.56 
L 529.2 88.5 
" style="fill:none;stroke:#000000;stroke-linecap:square;stroke-linejoin:miter;stroke-width:0.8;"/>
   </g>
   <g id="patch_5">
    <path d="M 89.12 365.56 
L 529.2 365.56 
" style="fill:none;stroke:#000000;stroke-linecap:square;stroke-linejoin:miter;stroke-width:0.8;"/>
   </g>
   <g id="patch_6">
    <path d="M 89.12 88.5 
L 529.2 88.5 
" style="fill:none;stroke:#000000;stroke-linecap:square;stroke-linejoin:miter;stroke-width:0.8;"/>
   </g>
   <g id="legend_1">
    <g id="patch_7">
     <path d="M 99.62 81 
L 518.7 81 
Q 521.7 81 521.7 78 
L 521.7 13.448438 
Q 521.7 10.448438 518.7 10.448438 
L 99.62 10.448438 
Q 96.62 10.448438 96.62 13.448438 
L 96.62 78 
Q 96.62 81 99.62 81 
z
" style="fill:#ffffff;opacity:0.8;stroke:#cccccc;stroke-linejoin:miter;"/>
    </g>
    <g id="line2d_21">
     <path d="M 102.62 22.596094 
L 132.62 22.596094 
" style="fill:none;stroke:#1f77b4;stroke-linecap:square;stroke-width:1.5;"/>
    </g>
    <g id="line2d_22"/>
    <g id="text_14">
     <!-- Stra 1 -->
     <defs>
      <path d="M 53.515625 70.515625 
L 53.515625 60.890625 
Q 47.90625 63.578125 42.921875 64.890625 
Q 37.9375 66.21875 33.296875 66.21875 
Q 25.25 66.21875 20.875 63.09375 
Q 16.5 59.96875 16.5 54.203125 
Q 16.5 49.359375 19.40625 46.890625 
Q 22.3125 44.4375 30.421875 42.921875 
L 36.375 41.703125 
Q 47.40625 39.59375 52.65625 34.296875 
Q 57.90625 29 57.90625 20.125 
Q 57.90625 9.515625 50.796875 4.046875 
Q 43.703125 -1.421875 29.984375 -1.421875 
Q 24.8125 -1.421875 18.96875 -0.25 
Q 13.140625 0.921875 6.890625 3.21875 
L 6.890625 13.375 
Q 12.890625 10.015625 18.65625 8.296875 
Q 24.421875 6.59375 29.984375 6.59375 
Q 38.421875 6.59375 43.015625 9.90625 
Q 47.609375 13.234375 47.609375 19.390625 
Q 47.609375 24.75 44.3125 27.78125 
Q 41.015625 30.8125 33.5 32.328125 
L 27.484375 33.5 
Q 16.453125 35.6875 11.515625 40.375 
Q 6.59375 45.0625 6.59375 53.421875 
Q 6.59375 63.09375 13.40625 68.65625 
Q 20.21875 74.21875 32.171875 74.21875 
Q 37.3125 74.21875 42.625 73.28125 
Q 47.953125 72.359375 53.515625 70.515625 
z
" id="DejaVuSans-83"/>
     </defs>
     <g transform="translate(144.62 27.846094)scale(0.15 -0.15)">
      <use xlink:href="#DejaVuSans-83"/>
      <use x="63.476562" xlink:href="#DejaVuSans-116"/>
      <use x="102.685547" xlink:href="#DejaVuSans-114"/>
      <use x="143.798828" xlink:href="#DejaVuSans-97"/>
      <use x="205.078125" xlink:href="#DejaVuSans-32"/>
      <use x="236.865234" xlink:href="#DejaVuSans-49"/>
     </g>
    </g>
    <g id="line2d_23">
     <path d="M 102.62 44.613281 
L 132.62 44.613281 
" style="fill:none;stroke:#ff7f0e;stroke-linecap:square;stroke-width:1.5;"/>
    </g>
    <g id="line2d_24"/>
    <g id="text_15">
     <!-- Stra 2 -->
     <g transform="translate(144.62 49.863281)scale(0.15 -0.15)">
      <use xlink:href="#DejaVuSans-83"/>
      <use x="63.476562" xlink:href="#DejaVuSans-116"/>
      <use x="102.685547" xlink:href="#DejaVuSans-114"/>
      <use x="143.798828" xlink:href="#DejaVuSans-97"/>
      <use x="205.078125" xlink:href="#DejaVuSans-32"/>
      <use x="236.865234" xlink:href="#DejaVuSans-50"/>
     </g>
    </g>
    <g id="line2d_25">
     <path d="M 102.62 66.630469 
L 132.62 66.630469 
" style="fill:none;stroke:#2ca02c;stroke-linecap:square;stroke-width:1.5;"/>
    </g>
    <g id="line2d_26"/>
    <g id="text_16">
     <!-- Stra 3 -->
     <defs>
      <path d="M 40.578125 39.3125 
Q 47.65625 37.796875 51.625 33 
Q 55.609375 28.21875 55.609375 21.1875 
Q 55.609375 10.40625 48.1875 4.484375 
Q 40.765625 -1.421875 27.09375 -1.421875 
Q 22.515625 -1.421875 17.65625 -0.515625 
Q 12.796875 0.390625 7.625 2.203125 
L 7.625 11.71875 
Q 11.71875 9.328125 16.59375 8.109375 
Q 21.484375 6.890625 26.8125 6.890625 
Q 36.078125 6.890625 40.9375 10.546875 
Q 45.796875 14.203125 45.796875 21.1875 
Q 45.796875 27.640625 41.28125 31.265625 
Q 36.765625 34.90625 28.71875 34.90625 
L 20.21875 34.90625 
L 20.21875 43.015625 
L 29.109375 43.015625 
Q 36.375 43.015625 40.234375 45.921875 
Q 44.09375 48.828125 44.09375 54.296875 
Q 44.09375 59.90625 40.109375 62.90625 
Q 36.140625 65.921875 28.71875 65.921875 
Q 24.65625 65.921875 20.015625 65.03125 
Q 15.375 64.15625 9.8125 62.3125 
L 9.8125 71.09375 
Q 15.4375 72.65625 20.34375 73.4375 
Q 25.25 74.21875 29.59375 74.21875 
Q 40.828125 74.21875 47.359375 69.109375 
Q 53.90625 64.015625 53.90625 55.328125 
Q 53.90625 49.265625 50.4375 45.09375 
Q 46.96875 40.921875 40.578125 39.3125 
z
" id="DejaVuSans-51"/>
     </defs>
     <g transform="translate(144.62 71.880469)scale(0.15 -0.15)">
      <use xlink:href="#DejaVuSans-83"/>
      <use x="63.476562" xlink:href="#DejaVuSans-116"/>
      <use x="102.685547" xlink:href="#DejaVuSans-114"/>
      <use x="143.798828" xlink:href="#DejaVuSans-97"/>
      <use x="205.078125" xlink:href="#DejaVuSans-32"/>
      <use x="236.865234" xlink:href="#DejaVuSans-51"/>
     </g>
    </g>
    <g id="line2d_27">
     <path d="M 211.289115 22.596094 
L 241.289115 22.596094 
" style="fill:none;stroke:#d62728;stroke-linecap:square;stroke-width:1.5;"/>
    </g>
    <g id="line2d_28"/>
    <g id="text_17">
     <!-- Stra 4 -->
     <g transform="translate(253.289115 27.846094)scale(0.15 -0.15)">
      <use xlink:href="#DejaVuSans-83"/>
      <use x="63.476562" xlink:href="#DejaVuSans-116"/>
      <use x="102.685547" xlink:href="#DejaVuSans-114"/>
      <use x="143.798828" xlink:href="#DejaVuSans-97"/>
      <use x="205.078125" xlink:href="#DejaVuSans-32"/>
      <use x="236.865234" xlink:href="#DejaVuSans-52"/>
     </g>
    </g>
    <g id="line2d_29">
     <path d="M 211.289115 44.613281 
L 241.289115 44.613281 
" style="fill:none;stroke:#9467bd;stroke-linecap:square;stroke-width:1.5;"/>
    </g>
    <g id="line2d_30"/>
    <g id="text_18">
     <!-- Stra 5 -->
     <g transform="translate(253.289115 49.863281)scale(0.15 -0.15)">
      <use xlink:href="#DejaVuSans-83"/>
      <use x="63.476562" xlink:href="#DejaVuSans-116"/>
      <use x="102.685547" xlink:href="#DejaVuSans-114"/>
      <use x="143.798828" xlink:href="#DejaVuSans-97"/>
      <use x="205.078125" xlink:href="#DejaVuSans-32"/>
      <use x="236.865234" xlink:href="#DejaVuSans-53"/>
     </g>
    </g>
    <g id="line2d_31">
     <path d="M 319.958229 22.596094 
L 349.958229 22.596094 
" style="fill:none;stroke:#8c564b;stroke-linecap:square;stroke-width:1.5;"/>
    </g>
    <g id="line2d_32"/>
    <g id="text_19">
     <!-- Stra 6 -->
     <g transform="translate(361.958229 27.846094)scale(0.15 -0.15)">
      <use xlink:href="#DejaVuSans-83"/>
      <use x="63.476562" xlink:href="#DejaVuSans-116"/>
      <use x="102.685547" xlink:href="#DejaVuSans-114"/>
      <use x="143.798828" xlink:href="#DejaVuSans-97"/>
      <use x="205.078125" xlink:href="#DejaVuSans-32"/>
      <use x="236.865234" xlink:href="#DejaVuSans-54"/>
     </g>
    </g>
    <g id="line2d_33">
     <path d="M 319.958229 44.613281 
L 349.958229 44.613281 
" style="fill:none;stroke:#e377c2;stroke-linecap:square;stroke-width:1.5;"/>
    </g>
    <g id="line2d_34"/>
    <g id="text_20">
     <!-- Stra 7 -->
     <defs>
      <path d="M 8.203125 72.90625 
L 55.078125 72.90625 
L 55.078125 68.703125 
L 28.609375 0 
L 18.3125 0 
L 43.21875 64.59375 
L 8.203125 64.59375 
z
" id="DejaVuSans-55"/>
     </defs>
     <g transform="translate(361.958229 49.863281)scale(0.15 -0.15)">
      <use xlink:href="#DejaVuSans-83"/>
      <use x="63.476562" xlink:href="#DejaVuSans-116"/>
      <use x="102.685547" xlink:href="#DejaVuSans-114"/>
      <use x="143.798828" xlink:href="#DejaVuSans-97"/>
      <use x="205.078125" xlink:href="#DejaVuSans-32"/>
      <use x="236.865234" xlink:href="#DejaVuSans-55"/>
     </g>
    </g>
    <g id="line2d_35">
     <path d="M 428.627344 22.596094 
L 458.627344 22.596094 
" style="fill:none;stroke:#7f7f7f;stroke-linecap:square;stroke-width:1.5;"/>
    </g>
    <g id="line2d_36"/>
    <g id="text_21">
     <!-- Stra 8 -->
     <g transform="translate(470.627344 27.846094)scale(0.15 -0.15)">
      <use xlink:href="#DejaVuSans-83"/>
      <use x="63.476562" xlink:href="#DejaVuSans-116"/>
      <use x="102.685547" xlink:href="#DejaVuSans-114"/>
      <use x="143.798828" xlink:href="#DejaVuSans-97"/>
      <use x="205.078125" xlink:href="#DejaVuSans-32"/>
      <use x="236.865234" xlink:href="#DejaVuSans-56"/>
     </g>
    </g>
    <g id="line2d_37">
     <path d="M 428.627344 44.613281 
L 458.627344 44.613281 
" style="fill:none;stroke:#bcbd22;stroke-linecap:square;stroke-width:1.5;"/>
    </g>
    <g id="line2d_38"/>
    <g id="text_22">
     <!-- Stra 9 -->
     <defs>
      <path d="M 10.984375 1.515625 
L 10.984375 10.5 
Q 14.703125 8.734375 18.5 7.8125 
Q 22.3125 6.890625 25.984375 6.890625 
Q 35.75 6.890625 40.890625 13.453125 
Q 46.046875 20.015625 46.78125 33.40625 
Q 43.953125 29.203125 39.59375 26.953125 
Q 35.25 24.703125 29.984375 24.703125 
Q 19.046875 24.703125 12.671875 31.3125 
Q 6.296875 37.9375 6.296875 49.421875 
Q 6.296875 60.640625 12.9375 67.421875 
Q 19.578125 74.21875 30.609375 74.21875 
Q 43.265625 74.21875 49.921875 64.515625 
Q 56.59375 54.828125 56.59375 36.375 
Q 56.59375 19.140625 48.40625 8.859375 
Q 40.234375 -1.421875 26.421875 -1.421875 
Q 22.703125 -1.421875 18.890625 -0.6875 
Q 15.09375 0.046875 10.984375 1.515625 
z
M 30.609375 32.421875 
Q 37.25 32.421875 41.125 36.953125 
Q 45.015625 41.5 45.015625 49.421875 
Q 45.015625 57.28125 41.125 61.84375 
Q 37.25 66.40625 30.609375 66.40625 
Q 23.96875 66.40625 20.09375 61.84375 
Q 16.21875 57.28125 16.21875 49.421875 
Q 16.21875 41.5 20.09375 36.953125 
Q 23.96875 32.421875 30.609375 32.421875 
z
" id="DejaVuSans-57"/>
     </defs>
     <g transform="translate(470.627344 49.863281)scale(0.15 -0.15)">
      <use xlink:href="#DejaVuSans-83"/>
      <use x="63.476562" xlink:href="#DejaVuSans-116"/>
      <use x="102.685547" xlink:href="#DejaVuSans-114"/>
      <use x="143.798828" xlink:href="#DejaVuSans-97"/>
      <use x="205.078125" xlink:href="#DejaVuSans-32"/>
      <use x="236.865234" xlink:href="#DejaVuSans-57"/>
     </g>
    </g>
   </g>
  </g>
 </g>
 <defs>
  <clipPath id="pf4aae8a651">
   <rect height="277.06" width="440.08" x="89.12" y="88.5"/>
  </clipPath>
 </defs>
</svg>
