<?xml version="1.0" encoding="utf-8" standalone="no"?>
<!DOCTYPE svg PUBLIC "-//W3C//DTD SVG 1.1//EN"
  "http://www.w3.org/Graphics/SVG/1.1/DTD/svg11.dtd">
<!-- Created with matplotlib (https://matplotlib.org/) -->
<svg height="432pt" version="1.1" viewBox="0 0 540 432" width="540pt" xmlns="http://www.w3.org/2000/svg" xmlns:xlink="http://www.w3.org/1999/xlink">
 <defs>
  <style type="text/css">
*{stroke-linecap:butt;stroke-linejoin:round;}
  </style>
 </defs>
 <g id="figure_1">
  <g id="patch_1">
   <path d="M 0 432 
L 540 432 
L 540 0 
L 0 0 
z
" style="fill:#ffffff;"/>
  </g>
  <g id="axes_1">
   <g id="patch_2">
    <path d="M 70.13 365.56 
L 529.2 365.56 
L 529.2 88.5 
L 70.13 88.5 
z
" style="fill:#ffffff;"/>
   </g>
   <g id="matplotlib.axis_1">
    <g id="xtick_1">
     <g id="line2d_1">
      <defs>
       <path d="M 0 0 
L 0 3.5 
" id="m37a380449f" style="stroke:#000000;stroke-width:0.8;"/>
      </defs>
      <g>
       <use style="stroke:#000000;stroke-width:0.8;" x="90.996818" xlink:href="#m37a380449f" y="365.56"/>
      </g>
     </g>
     <g id="text_1">
      <!-- 0 -->
      <defs>
       <path d="M 31.78125 66.40625 
Q 24.171875 66.40625 20.328125 58.90625 
Q 16.5 51.421875 16.5 36.375 
Q 16.5 21.390625 20.328125 13.890625 
Q 24.171875 6.390625 31.78125 6.390625 
Q 39.453125 6.390625 43.28125 13.890625 
Q 47.125 21.390625 47.125 36.375 
Q 47.125 51.421875 43.28125 58.90625 
Q 39.453125 66.40625 31.78125 66.40625 
z
M 31.78125 74.21875 
Q 44.046875 74.21875 50.515625 64.515625 
Q 56.984375 54.828125 56.984375 36.375 
Q 56.984375 17.96875 50.515625 8.265625 
Q 44.046875 -1.421875 31.78125 -1.421875 
Q 19.53125 -1.421875 13.0625 8.265625 
Q 6.59375 17.96875 6.59375 36.375 
Q 6.59375 54.828125 13.0625 64.515625 
Q 19.53125 74.21875 31.78125 74.21875 
z
" id="DejaVuSans-48"/>
      </defs>
      <g transform="translate(84.634318 387.756875)scale(0.2 -0.2)">
       <use xlink:href="#DejaVuSans-48"/>
      </g>
     </g>
    </g>
    <g id="xtick_2">
     <g id="line2d_2">
      <g>
       <use style="stroke:#000000;stroke-width:0.8;" x="183.738232" xlink:href="#m37a380449f" y="365.56"/>
      </g>
     </g>
     <g id="text_2">
      <!-- 20 -->
      <defs>
       <path d="M 19.1875 8.296875 
L 53.609375 8.296875 
L 53.609375 0 
L 7.328125 0 
L 7.328125 8.296875 
Q 12.9375 14.109375 22.625 23.890625 
Q 32.328125 33.6875 34.8125 36.53125 
Q 39.546875 41.84375 41.421875 45.53125 
Q 43.3125 49.21875 43.3125 52.78125 
Q 43.3125 58.59375 39.234375 62.25 
Q 35.15625 65.921875 28.609375 65.921875 
Q 23.96875 65.921875 18.8125 64.3125 
Q 13.671875 62.703125 7.8125 59.421875 
L 7.8125 69.390625 
Q 13.765625 71.78125 18.9375 73 
Q 24.125 74.21875 28.421875 74.21875 
Q 39.75 74.21875 46.484375 68.546875 
Q 53.21875 62.890625 53.21875 53.421875 
Q 53.21875 48.921875 51.53125 44.890625 
Q 49.859375 40.875 45.40625 35.40625 
Q 44.1875 33.984375 37.640625 27.21875 
Q 31.109375 20.453125 19.1875 8.296875 
z
" id="DejaVuSans-50"/>
      </defs>
      <g transform="translate(171.013232 387.756875)scale(0.2 -0.2)">
       <use xlink:href="#DejaVuSans-50"/>
       <use x="63.623047" xlink:href="#DejaVuSans-48"/>
      </g>
     </g>
    </g>
    <g id="xtick_3">
     <g id="line2d_3">
      <g>
       <use style="stroke:#000000;stroke-width:0.8;" x="276.479646" xlink:href="#m37a380449f" y="365.56"/>
      </g>
     </g>
     <g id="text_3">
      <!-- 40 -->
      <defs>
       <path d="M 37.796875 64.3125 
L 12.890625 25.390625 
L 37.796875 25.390625 
z
M 35.203125 72.90625 
L 47.609375 72.90625 
L 47.609375 25.390625 
L 58.015625 25.390625 
L 58.015625 17.1875 
L 47.609375 17.1875 
L 47.609375 0 
L 37.796875 0 
L 37.796875 17.1875 
L 4.890625 17.1875 
L 4.890625 26.703125 
z
" id="DejaVuSans-52"/>
      </defs>
      <g transform="translate(263.754646 387.756875)scale(0.2 -0.2)">
       <use xlink:href="#DejaVuSans-52"/>
       <use x="63.623047" xlink:href="#DejaVuSans-48"/>
      </g>
     </g>
    </g>
    <g id="xtick_4">
     <g id="line2d_4">
      <g>
       <use style="stroke:#000000;stroke-width:0.8;" x="369.221061" xlink:href="#m37a380449f" y="365.56"/>
      </g>
     </g>
     <g id="text_4">
      <!-- 60 -->
      <defs>
       <path d="M 33.015625 40.375 
Q 26.375 40.375 22.484375 35.828125 
Q 18.609375 31.296875 18.609375 23.390625 
Q 18.609375 15.53125 22.484375 10.953125 
Q 26.375 6.390625 33.015625 6.390625 
Q 39.65625 6.390625 43.53125 10.953125 
Q 47.40625 15.53125 47.40625 23.390625 
Q 47.40625 31.296875 43.53125 35.828125 
Q 39.65625 40.375 33.015625 40.375 
z
M 52.59375 71.296875 
L 52.59375 62.3125 
Q 48.875 64.0625 45.09375 64.984375 
Q 41.3125 65.921875 37.59375 65.921875 
Q 27.828125 65.921875 22.671875 59.328125 
Q 17.53125 52.734375 16.796875 39.40625 
Q 19.671875 43.65625 24.015625 45.921875 
Q 28.375 48.1875 33.59375 48.1875 
Q 44.578125 48.1875 50.953125 41.515625 
Q 57.328125 34.859375 57.328125 23.390625 
Q 57.328125 12.15625 50.6875 5.359375 
Q 44.046875 -1.421875 33.015625 -1.421875 
Q 20.359375 -1.421875 13.671875 8.265625 
Q 6.984375 17.96875 6.984375 36.375 
Q 6.984375 53.65625 15.1875 63.9375 
Q 23.390625 74.21875 37.203125 74.21875 
Q 40.921875 74.21875 44.703125 73.484375 
Q 48.484375 72.75 52.59375 71.296875 
z
" id="DejaVuSans-54"/>
      </defs>
      <g transform="translate(356.496061 387.756875)scale(0.2 -0.2)">
       <use xlink:href="#DejaVuSans-54"/>
       <use x="63.623047" xlink:href="#DejaVuSans-48"/>
      </g>
     </g>
    </g>
    <g id="xtick_5">
     <g id="line2d_5">
      <g>
       <use style="stroke:#000000;stroke-width:0.8;" x="461.962475" xlink:href="#m37a380449f" y="365.56"/>
      </g>
     </g>
     <g id="text_5">
      <!-- 80 -->
      <defs>
       <path d="M 31.78125 34.625 
Q 24.75 34.625 20.71875 30.859375 
Q 16.703125 27.09375 16.703125 20.515625 
Q 16.703125 13.921875 20.71875 10.15625 
Q 24.75 6.390625 31.78125 6.390625 
Q 38.8125 6.390625 42.859375 10.171875 
Q 46.921875 13.96875 46.921875 20.515625 
Q 46.921875 27.09375 42.890625 30.859375 
Q 38.875 34.625 31.78125 34.625 
z
M 21.921875 38.8125 
Q 15.578125 40.375 12.03125 44.71875 
Q 8.5 49.078125 8.5 55.328125 
Q 8.5 64.0625 14.71875 69.140625 
Q 20.953125 74.21875 31.78125 74.21875 
Q 42.671875 74.21875 48.875 69.140625 
Q 55.078125 64.0625 55.078125 55.328125 
Q 55.078125 49.078125 51.53125 44.71875 
Q 48 40.375 41.703125 38.8125 
Q 48.828125 37.15625 52.796875 32.3125 
Q 56.78125 27.484375 56.78125 20.515625 
Q 56.78125 9.90625 50.3125 4.234375 
Q 43.84375 -1.421875 31.78125 -1.421875 
Q 19.734375 -1.421875 13.25 4.234375 
Q 6.78125 9.90625 6.78125 20.515625 
Q 6.78125 27.484375 10.78125 32.3125 
Q 14.796875 37.15625 21.921875 38.8125 
z
M 18.3125 54.390625 
Q 18.3125 48.734375 21.84375 45.5625 
Q 25.390625 42.390625 31.78125 42.390625 
Q 38.140625 42.390625 41.71875 45.5625 
Q 45.3125 48.734375 45.3125 54.390625 
Q 45.3125 60.0625 41.71875 63.234375 
Q 38.140625 66.40625 31.78125 66.40625 
Q 25.390625 66.40625 21.84375 63.234375 
Q 18.3125 60.0625 18.3125 54.390625 
z
" id="DejaVuSans-56"/>
      </defs>
      <g transform="translate(449.237475 387.756875)scale(0.2 -0.2)">
       <use xlink:href="#DejaVuSans-56"/>
       <use x="63.623047" xlink:href="#DejaVuSans-48"/>
      </g>
     </g>
    </g>
    <g id="text_6">
     <!-- # of games -->
     <defs>
      <path d="M 51.125 44 
L 36.921875 44 
L 32.8125 27.6875 
L 47.125 27.6875 
z
M 43.796875 71.78125 
L 38.71875 51.515625 
L 52.984375 51.515625 
L 58.109375 71.78125 
L 65.921875 71.78125 
L 60.890625 51.515625 
L 76.125 51.515625 
L 76.125 44 
L 58.984375 44 
L 54.984375 27.6875 
L 70.515625 27.6875 
L 70.515625 20.21875 
L 53.078125 20.21875 
L 48 0 
L 40.1875 0 
L 45.21875 20.21875 
L 30.90625 20.21875 
L 25.875 0 
L 18.015625 0 
L 23.09375 20.21875 
L 7.71875 20.21875 
L 7.71875 27.6875 
L 24.90625 27.6875 
L 29 44 
L 13.28125 44 
L 13.28125 51.515625 
L 30.90625 51.515625 
L 35.890625 71.78125 
z
" id="DejaVuSans-35"/>
      <path id="DejaVuSans-32"/>
      <path d="M 30.609375 48.390625 
Q 23.390625 48.390625 19.1875 42.75 
Q 14.984375 37.109375 14.984375 27.296875 
Q 14.984375 17.484375 19.15625 11.84375 
Q 23.34375 6.203125 30.609375 6.203125 
Q 37.796875 6.203125 41.984375 11.859375 
Q 46.1875 17.53125 46.1875 27.296875 
Q 46.1875 37.015625 41.984375 42.703125 
Q 37.796875 48.390625 30.609375 48.390625 
z
M 30.609375 56 
Q 42.328125 56 49.015625 48.375 
Q 55.71875 40.765625 55.71875 27.296875 
Q 55.71875 13.875 49.015625 6.21875 
Q 42.328125 -1.421875 30.609375 -1.421875 
Q 18.84375 -1.421875 12.171875 6.21875 
Q 5.515625 13.875 5.515625 27.296875 
Q 5.515625 40.765625 12.171875 48.375 
Q 18.84375 56 30.609375 56 
z
" id="DejaVuSans-111"/>
      <path d="M 37.109375 75.984375 
L 37.109375 68.5 
L 28.515625 68.5 
Q 23.6875 68.5 21.796875 66.546875 
Q 19.921875 64.59375 19.921875 59.515625 
L 19.921875 54.6875 
L 34.71875 54.6875 
L 34.71875 47.703125 
L 19.921875 47.703125 
L 19.921875 0 
L 10.890625 0 
L 10.890625 47.703125 
L 2.296875 47.703125 
L 2.296875 54.6875 
L 10.890625 54.6875 
L 10.890625 58.5 
Q 10.890625 67.625 15.140625 71.796875 
Q 19.390625 75.984375 28.609375 75.984375 
z
" id="DejaVuSans-102"/>
      <path d="M 45.40625 27.984375 
Q 45.40625 37.75 41.375 43.109375 
Q 37.359375 48.484375 30.078125 48.484375 
Q 22.859375 48.484375 18.828125 43.109375 
Q 14.796875 37.75 14.796875 27.984375 
Q 14.796875 18.265625 18.828125 12.890625 
Q 22.859375 7.515625 30.078125 7.515625 
Q 37.359375 7.515625 41.375 12.890625 
Q 45.40625 18.265625 45.40625 27.984375 
z
M 54.390625 6.78125 
Q 54.390625 -7.171875 48.1875 -13.984375 
Q 42 -20.796875 29.203125 -20.796875 
Q 24.46875 -20.796875 20.265625 -20.09375 
Q 16.0625 -19.390625 12.109375 -17.921875 
L 12.109375 -9.1875 
Q 16.0625 -11.328125 19.921875 -12.34375 
Q 23.78125 -13.375 27.78125 -13.375 
Q 36.625 -13.375 41.015625 -8.765625 
Q 45.40625 -4.15625 45.40625 5.171875 
L 45.40625 9.625 
Q 42.625 4.78125 38.28125 2.390625 
Q 33.9375 0 27.875 0 
Q 17.828125 0 11.671875 7.65625 
Q 5.515625 15.328125 5.515625 27.984375 
Q 5.515625 40.671875 11.671875 48.328125 
Q 17.828125 56 27.875 56 
Q 33.9375 56 38.28125 53.609375 
Q 42.625 51.21875 45.40625 46.390625 
L 45.40625 54.6875 
L 54.390625 54.6875 
z
" id="DejaVuSans-103"/>
      <path d="M 34.28125 27.484375 
Q 23.390625 27.484375 19.1875 25 
Q 14.984375 22.515625 14.984375 16.5 
Q 14.984375 11.71875 18.140625 8.90625 
Q 21.296875 6.109375 26.703125 6.109375 
Q 34.1875 6.109375 38.703125 11.40625 
Q 43.21875 16.703125 43.21875 25.484375 
L 43.21875 27.484375 
z
M 52.203125 31.203125 
L 52.203125 0 
L 43.21875 0 
L 43.21875 8.296875 
Q 40.140625 3.328125 35.546875 0.953125 
Q 30.953125 -1.421875 24.3125 -1.421875 
Q 15.921875 -1.421875 10.953125 3.296875 
Q 6 8.015625 6 15.921875 
Q 6 25.140625 12.171875 29.828125 
Q 18.359375 34.515625 30.609375 34.515625 
L 43.21875 34.515625 
L 43.21875 35.40625 
Q 43.21875 41.609375 39.140625 45 
Q 35.0625 48.390625 27.6875 48.390625 
Q 23 48.390625 18.546875 47.265625 
Q 14.109375 46.140625 10.015625 43.890625 
L 10.015625 52.203125 
Q 14.9375 54.109375 19.578125 55.046875 
Q 24.21875 56 28.609375 56 
Q 40.484375 56 46.34375 49.84375 
Q 52.203125 43.703125 52.203125 31.203125 
z
" id="DejaVuSans-97"/>
      <path d="M 52 44.1875 
Q 55.375 50.25 60.0625 53.125 
Q 64.75 56 71.09375 56 
Q 79.640625 56 84.28125 50.015625 
Q 88.921875 44.046875 88.921875 33.015625 
L 88.921875 0 
L 79.890625 0 
L 79.890625 32.71875 
Q 79.890625 40.578125 77.09375 44.375 
Q 74.3125 48.1875 68.609375 48.1875 
Q 61.625 48.1875 57.5625 43.546875 
Q 53.515625 38.921875 53.515625 30.90625 
L 53.515625 0 
L 44.484375 0 
L 44.484375 32.71875 
Q 44.484375 40.625 41.703125 44.40625 
Q 38.921875 48.1875 33.109375 48.1875 
Q 26.21875 48.1875 22.15625 43.53125 
Q 18.109375 38.875 18.109375 30.90625 
L 18.109375 0 
L 9.078125 0 
L 9.078125 54.6875 
L 18.109375 54.6875 
L 18.109375 46.1875 
Q 21.1875 51.21875 25.484375 53.609375 
Q 29.78125 56 35.6875 56 
Q 41.65625 56 45.828125 52.96875 
Q 50 49.953125 52 44.1875 
z
" id="DejaVuSans-109"/>
      <path d="M 56.203125 29.59375 
L 56.203125 25.203125 
L 14.890625 25.203125 
Q 15.484375 15.921875 20.484375 11.0625 
Q 25.484375 6.203125 34.421875 6.203125 
Q 39.59375 6.203125 44.453125 7.46875 
Q 49.3125 8.734375 54.109375 11.28125 
L 54.109375 2.78125 
Q 49.265625 0.734375 44.1875 -0.34375 
Q 39.109375 -1.421875 33.890625 -1.421875 
Q 20.796875 -1.421875 13.15625 6.1875 
Q 5.515625 13.8125 5.515625 26.8125 
Q 5.515625 40.234375 12.765625 48.109375 
Q 20.015625 56 32.328125 56 
Q 43.359375 56 49.78125 48.890625 
Q 56.203125 41.796875 56.203125 29.59375 
z
M 47.21875 32.234375 
Q 47.125 39.59375 43.09375 43.984375 
Q 39.0625 48.390625 32.421875 48.390625 
Q 24.90625 48.390625 20.390625 44.140625 
Q 15.875 39.890625 15.1875 32.171875 
z
" id="DejaVuSans-101"/>
      <path d="M 44.28125 53.078125 
L 44.28125 44.578125 
Q 40.484375 46.53125 36.375 47.5 
Q 32.28125 48.484375 27.875 48.484375 
Q 21.1875 48.484375 17.84375 46.4375 
Q 14.5 44.390625 14.5 40.28125 
Q 14.5 37.15625 16.890625 35.375 
Q 19.28125 33.59375 26.515625 31.984375 
L 29.59375 31.296875 
Q 39.15625 29.25 43.1875 25.515625 
Q 47.21875 21.78125 47.21875 15.09375 
Q 47.21875 7.46875 41.1875 3.015625 
Q 35.15625 -1.421875 24.609375 -1.421875 
Q 20.21875 -1.421875 15.453125 -0.5625 
Q 10.6875 0.296875 5.421875 2 
L 5.421875 11.28125 
Q 10.40625 8.6875 15.234375 7.390625 
Q 20.0625 6.109375 24.8125 6.109375 
Q 31.15625 6.109375 34.5625 8.28125 
Q 37.984375 10.453125 37.984375 14.40625 
Q 37.984375 18.0625 35.515625 20.015625 
Q 33.0625 21.96875 24.703125 23.78125 
L 21.578125 24.515625 
Q 13.234375 26.265625 9.515625 29.90625 
Q 5.8125 33.546875 5.8125 39.890625 
Q 5.8125 47.609375 11.28125 51.796875 
Q 16.75 56 26.8125 56 
Q 31.78125 56 36.171875 55.265625 
Q 40.578125 54.546875 44.28125 53.078125 
z
" id="DejaVuSans-115"/>
     </defs>
     <g transform="translate(227.221641 414.912344)scale(0.25 -0.25)">
      <use xlink:href="#DejaVuSans-35"/>
      <use x="83.789062" xlink:href="#DejaVuSans-32"/>
      <use x="115.576172" xlink:href="#DejaVuSans-111"/>
      <use x="176.757812" xlink:href="#DejaVuSans-102"/>
      <use x="211.962891" xlink:href="#DejaVuSans-32"/>
      <use x="243.75" xlink:href="#DejaVuSans-103"/>
      <use x="307.226562" xlink:href="#DejaVuSans-97"/>
      <use x="368.505859" xlink:href="#DejaVuSans-109"/>
      <use x="465.917969" xlink:href="#DejaVuSans-101"/>
      <use x="527.441406" xlink:href="#DejaVuSans-115"/>
     </g>
    </g>
   </g>
   <g id="matplotlib.axis_2">
    <g id="ytick_1">
     <g id="line2d_6">
      <defs>
       <path d="M 0 0 
L -3.5 0 
" id="m582a8c6610" style="stroke:#000000;stroke-width:0.8;"/>
      </defs>
      <g>
       <use style="stroke:#000000;stroke-width:0.8;" x="70.13" xlink:href="#m582a8c6610" y="352.966364"/>
      </g>
     </g>
     <g id="text_7">
      <!-- 0.0 -->
      <defs>
       <path d="M 10.6875 12.40625 
L 21 12.40625 
L 21 0 
L 10.6875 0 
z
" id="DejaVuSans-46"/>
      </defs>
      <g transform="translate(31.32375 360.564801)scale(0.2 -0.2)">
       <use xlink:href="#DejaVuSans-48"/>
       <use x="63.623047" xlink:href="#DejaVuSans-46"/>
       <use x="95.410156" xlink:href="#DejaVuSans-48"/>
      </g>
     </g>
    </g>
    <g id="ytick_2">
     <g id="line2d_7">
      <g>
       <use style="stroke:#000000;stroke-width:0.8;" x="70.13" xlink:href="#m582a8c6610" y="302.591818"/>
      </g>
     </g>
     <g id="text_8">
      <!-- 0.1 -->
      <defs>
       <path d="M 12.40625 8.296875 
L 28.515625 8.296875 
L 28.515625 63.921875 
L 10.984375 60.40625 
L 10.984375 69.390625 
L 28.421875 72.90625 
L 38.28125 72.90625 
L 38.28125 8.296875 
L 54.390625 8.296875 
L 54.390625 0 
L 12.40625 0 
z
" id="DejaVuSans-49"/>
      </defs>
      <g transform="translate(31.32375 310.190256)scale(0.2 -0.2)">
       <use xlink:href="#DejaVuSans-48"/>
       <use x="63.623047" xlink:href="#DejaVuSans-46"/>
       <use x="95.410156" xlink:href="#DejaVuSans-49"/>
      </g>
     </g>
    </g>
    <g id="ytick_3">
     <g id="line2d_8">
      <g>
       <use style="stroke:#000000;stroke-width:0.8;" x="70.13" xlink:href="#m582a8c6610" y="252.217273"/>
      </g>
     </g>
     <g id="text_9">
      <!-- 0.2 -->
      <g transform="translate(31.32375 259.81571)scale(0.2 -0.2)">
       <use xlink:href="#DejaVuSans-48"/>
       <use x="63.623047" xlink:href="#DejaVuSans-46"/>
       <use x="95.410156" xlink:href="#DejaVuSans-50"/>
      </g>
     </g>
    </g>
    <g id="ytick_4">
     <g id="line2d_9">
      <g>
       <use style="stroke:#000000;stroke-width:0.8;" x="70.13" xlink:href="#m582a8c6610" y="201.842727"/>
      </g>
     </g>
     <g id="text_10">
      <!-- 0.3 -->
      <defs>
       <path d="M 40.578125 39.3125 
Q 47.65625 37.796875 51.625 33 
Q 55.609375 28.21875 55.609375 21.1875 
Q 55.609375 10.40625 48.1875 4.484375 
Q 40.765625 -1.421875 27.09375 -1.421875 
Q 22.515625 -1.421875 17.65625 -0.515625 
Q 12.796875 0.390625 7.625 2.203125 
L 7.625 11.71875 
Q 11.71875 9.328125 16.59375 8.109375 
Q 21.484375 6.890625 26.8125 6.890625 
Q 36.078125 6.890625 40.9375 10.546875 
Q 45.796875 14.203125 45.796875 21.1875 
Q 45.796875 27.640625 41.28125 31.265625 
Q 36.765625 34.90625 28.71875 34.90625 
L 20.21875 34.90625 
L 20.21875 43.015625 
L 29.109375 43.015625 
Q 36.375 43.015625 40.234375 45.921875 
Q 44.09375 48.828125 44.09375 54.296875 
Q 44.09375 59.90625 40.109375 62.90625 
Q 36.140625 65.921875 28.71875 65.921875 
Q 24.65625 65.921875 20.015625 65.03125 
Q 15.375 64.15625 9.8125 62.3125 
L 9.8125 71.09375 
Q 15.4375 72.65625 20.34375 73.4375 
Q 25.25 74.21875 29.59375 74.21875 
Q 40.828125 74.21875 47.359375 69.109375 
Q 53.90625 64.015625 53.90625 55.328125 
Q 53.90625 49.265625 50.4375 45.09375 
Q 46.96875 40.921875 40.578125 39.3125 
z
" id="DejaVuSans-51"/>
      </defs>
      <g transform="translate(31.32375 209.441165)scale(0.2 -0.2)">
       <use xlink:href="#DejaVuSans-48"/>
       <use x="63.623047" xlink:href="#DejaVuSans-46"/>
       <use x="95.410156" xlink:href="#DejaVuSans-51"/>
      </g>
     </g>
    </g>
    <g id="ytick_5">
     <g id="line2d_10">
      <g>
       <use style="stroke:#000000;stroke-width:0.8;" x="70.13" xlink:href="#m582a8c6610" y="151.468182"/>
      </g>
     </g>
     <g id="text_11">
      <!-- 0.4 -->
      <g transform="translate(31.32375 159.066619)scale(0.2 -0.2)">
       <use xlink:href="#DejaVuSans-48"/>
       <use x="63.623047" xlink:href="#DejaVuSans-46"/>
       <use x="95.410156" xlink:href="#DejaVuSans-52"/>
      </g>
     </g>
    </g>
    <g id="ytick_6">
     <g id="line2d_11">
      <g>
       <use style="stroke:#000000;stroke-width:0.8;" x="70.13" xlink:href="#m582a8c6610" y="101.093636"/>
      </g>
     </g>
     <g id="text_12">
      <!-- 0.5 -->
      <defs>
       <path d="M 10.796875 72.90625 
L 49.515625 72.90625 
L 49.515625 64.59375 
L 19.828125 64.59375 
L 19.828125 46.734375 
Q 21.96875 47.46875 24.109375 47.828125 
Q 26.265625 48.1875 28.421875 48.1875 
Q 40.625 48.1875 47.75 41.5 
Q 54.890625 34.8125 54.890625 23.390625 
Q 54.890625 11.625 47.5625 5.09375 
Q 40.234375 -1.421875 26.90625 -1.421875 
Q 22.3125 -1.421875 17.546875 -0.640625 
Q 12.796875 0.140625 7.71875 1.703125 
L 7.71875 11.625 
Q 12.109375 9.234375 16.796875 8.0625 
Q 21.484375 6.890625 26.703125 6.890625 
Q 35.15625 6.890625 40.078125 11.328125 
Q 45.015625 15.765625 45.015625 23.390625 
Q 45.015625 31 40.078125 35.4375 
Q 35.15625 39.890625 26.703125 39.890625 
Q 22.75 39.890625 18.8125 39.015625 
Q 14.890625 38.140625 10.796875 36.28125 
z
" id="DejaVuSans-53"/>
      </defs>
      <g transform="translate(31.32375 108.692074)scale(0.2 -0.2)">
       <use xlink:href="#DejaVuSans-48"/>
       <use x="63.623047" xlink:href="#DejaVuSans-46"/>
       <use x="95.410156" xlink:href="#DejaVuSans-53"/>
      </g>
     </g>
    </g>
    <g id="text_13">
     <!-- Percentage of Def strategy used -->
     <defs>
      <path d="M 19.671875 64.796875 
L 19.671875 37.40625 
L 32.078125 37.40625 
Q 38.96875 37.40625 42.71875 40.96875 
Q 46.484375 44.53125 46.484375 51.125 
Q 46.484375 57.671875 42.71875 61.234375 
Q 38.96875 64.796875 32.078125 64.796875 
z
M 9.8125 72.90625 
L 32.078125 72.90625 
Q 44.34375 72.90625 50.609375 67.359375 
Q 56.890625 61.8125 56.890625 51.125 
Q 56.890625 40.328125 50.609375 34.8125 
Q 44.34375 29.296875 32.078125 29.296875 
L 19.671875 29.296875 
L 19.671875 0 
L 9.8125 0 
z
" id="DejaVuSans-80"/>
      <path d="M 41.109375 46.296875 
Q 39.59375 47.171875 37.8125 47.578125 
Q 36.03125 48 33.890625 48 
Q 26.265625 48 22.1875 43.046875 
Q 18.109375 38.09375 18.109375 28.8125 
L 18.109375 0 
L 9.078125 0 
L 9.078125 54.6875 
L 18.109375 54.6875 
L 18.109375 46.1875 
Q 20.953125 51.171875 25.484375 53.578125 
Q 30.03125 56 36.53125 56 
Q 37.453125 56 38.578125 55.875 
Q 39.703125 55.765625 41.0625 55.515625 
z
" id="DejaVuSans-114"/>
      <path d="M 48.78125 52.59375 
L 48.78125 44.1875 
Q 44.96875 46.296875 41.140625 47.34375 
Q 37.3125 48.390625 33.40625 48.390625 
Q 24.65625 48.390625 19.8125 42.84375 
Q 14.984375 37.3125 14.984375 27.296875 
Q 14.984375 17.28125 19.8125 11.734375 
Q 24.65625 6.203125 33.40625 6.203125 
Q 37.3125 6.203125 41.140625 7.25 
Q 44.96875 8.296875 48.78125 10.40625 
L 48.78125 2.09375 
Q 45.015625 0.34375 40.984375 -0.53125 
Q 36.96875 -1.421875 32.421875 -1.421875 
Q 20.0625 -1.421875 12.78125 6.34375 
Q 5.515625 14.109375 5.515625 27.296875 
Q 5.515625 40.671875 12.859375 48.328125 
Q 20.21875 56 33.015625 56 
Q 37.15625 56 41.109375 55.140625 
Q 45.0625 54.296875 48.78125 52.59375 
z
" id="DejaVuSans-99"/>
      <path d="M 54.890625 33.015625 
L 54.890625 0 
L 45.90625 0 
L 45.90625 32.71875 
Q 45.90625 40.484375 42.875 44.328125 
Q 39.84375 48.1875 33.796875 48.1875 
Q 26.515625 48.1875 22.3125 43.546875 
Q 18.109375 38.921875 18.109375 30.90625 
L 18.109375 0 
L 9.078125 0 
L 9.078125 54.6875 
L 18.109375 54.6875 
L 18.109375 46.1875 
Q 21.34375 51.125 25.703125 53.5625 
Q 30.078125 56 35.796875 56 
Q 45.21875 56 50.046875 50.171875 
Q 54.890625 44.34375 54.890625 33.015625 
z
" id="DejaVuSans-110"/>
      <path d="M 18.3125 70.21875 
L 18.3125 54.6875 
L 36.8125 54.6875 
L 36.8125 47.703125 
L 18.3125 47.703125 
L 18.3125 18.015625 
Q 18.3125 11.328125 20.140625 9.421875 
Q 21.96875 7.515625 27.59375 7.515625 
L 36.8125 7.515625 
L 36.8125 0 
L 27.59375 0 
Q 17.1875 0 13.234375 3.875 
Q 9.28125 7.765625 9.28125 18.015625 
L 9.28125 47.703125 
L 2.6875 47.703125 
L 2.6875 54.6875 
L 9.28125 54.6875 
L 9.28125 70.21875 
z
" id="DejaVuSans-116"/>
      <path d="M 19.671875 64.796875 
L 19.671875 8.109375 
L 31.59375 8.109375 
Q 46.6875 8.109375 53.6875 14.9375 
Q 60.6875 21.78125 60.6875 36.53125 
Q 60.6875 51.171875 53.6875 57.984375 
Q 46.6875 64.796875 31.59375 64.796875 
z
M 9.8125 72.90625 
L 30.078125 72.90625 
Q 51.265625 72.90625 61.171875 64.09375 
Q 71.09375 55.28125 71.09375 36.53125 
Q 71.09375 17.671875 61.125 8.828125 
Q 51.171875 0 30.078125 0 
L 9.8125 0 
z
" id="DejaVuSans-68"/>
      <path d="M 32.171875 -5.078125 
Q 28.375 -14.84375 24.75 -17.8125 
Q 21.140625 -20.796875 15.09375 -20.796875 
L 7.90625 -20.796875 
L 7.90625 -13.28125 
L 13.1875 -13.28125 
Q 16.890625 -13.28125 18.9375 -11.515625 
Q 21 -9.765625 23.484375 -3.21875 
L 25.09375 0.875 
L 2.984375 54.6875 
L 12.5 54.6875 
L 29.59375 11.921875 
L 46.6875 54.6875 
L 56.203125 54.6875 
z
" id="DejaVuSans-121"/>
      <path d="M 8.5 21.578125 
L 8.5 54.6875 
L 17.484375 54.6875 
L 17.484375 21.921875 
Q 17.484375 14.15625 20.5 10.265625 
Q 23.53125 6.390625 29.59375 6.390625 
Q 36.859375 6.390625 41.078125 11.03125 
Q 45.3125 15.671875 45.3125 23.6875 
L 45.3125 54.6875 
L 54.296875 54.6875 
L 54.296875 0 
L 45.3125 0 
L 45.3125 8.40625 
Q 42.046875 3.421875 37.71875 1 
Q 33.40625 -1.421875 27.6875 -1.421875 
Q 18.265625 -1.421875 13.375 4.4375 
Q 8.5 10.296875 8.5 21.578125 
z
M 31.109375 56 
z
" id="DejaVuSans-117"/>
      <path d="M 45.40625 46.390625 
L 45.40625 75.984375 
L 54.390625 75.984375 
L 54.390625 0 
L 45.40625 0 
L 45.40625 8.203125 
Q 42.578125 3.328125 38.25 0.953125 
Q 33.9375 -1.421875 27.875 -1.421875 
Q 17.96875 -1.421875 11.734375 6.484375 
Q 5.515625 14.40625 5.515625 27.296875 
Q 5.515625 40.1875 11.734375 48.09375 
Q 17.96875 56 27.875 56 
Q 33.9375 56 38.25 53.625 
Q 42.578125 51.265625 45.40625 46.390625 
z
M 14.796875 27.296875 
Q 14.796875 17.390625 18.875 11.75 
Q 22.953125 6.109375 30.078125 6.109375 
Q 37.203125 6.109375 41.296875 11.75 
Q 45.40625 17.390625 45.40625 27.296875 
Q 45.40625 37.203125 41.296875 42.84375 
Q 37.203125 48.484375 30.078125 48.484375 
Q 22.953125 48.484375 18.875 42.84375 
Q 14.796875 37.203125 14.796875 27.296875 
z
" id="DejaVuSans-100"/>
     </defs>
     <g transform="translate(23.857604 362.28651)rotate(-90)scale(0.166667 -0.166667)">
      <use xlink:href="#DejaVuSans-80"/>
      <use x="60.255859" xlink:href="#DejaVuSans-101"/>
      <use x="121.779297" xlink:href="#DejaVuSans-114"/>
      <use x="162.861328" xlink:href="#DejaVuSans-99"/>
      <use x="217.841797" xlink:href="#DejaVuSans-101"/>
      <use x="279.365234" xlink:href="#DejaVuSans-110"/>
      <use x="342.744141" xlink:href="#DejaVuSans-116"/>
      <use x="381.953125" xlink:href="#DejaVuSans-97"/>
      <use x="443.232422" xlink:href="#DejaVuSans-103"/>
      <use x="506.708984" xlink:href="#DejaVuSans-101"/>
      <use x="568.232422" xlink:href="#DejaVuSans-32"/>
      <use x="600.019531" xlink:href="#DejaVuSans-111"/>
      <use x="661.201172" xlink:href="#DejaVuSans-102"/>
      <use x="696.40625" xlink:href="#DejaVuSans-32"/>
      <use x="728.193359" xlink:href="#DejaVuSans-68"/>
      <use x="805.195312" xlink:href="#DejaVuSans-101"/>
      <use x="866.71875" xlink:href="#DejaVuSans-102"/>
      <use x="901.923828" xlink:href="#DejaVuSans-32"/>
      <use x="933.710938" xlink:href="#DejaVuSans-115"/>
      <use x="985.810547" xlink:href="#DejaVuSans-116"/>
      <use x="1025.019531" xlink:href="#DejaVuSans-114"/>
      <use x="1066.132812" xlink:href="#DejaVuSans-97"/>
      <use x="1127.412109" xlink:href="#DejaVuSans-116"/>
      <use x="1166.621094" xlink:href="#DejaVuSans-101"/>
      <use x="1228.144531" xlink:href="#DejaVuSans-103"/>
      <use x="1291.621094" xlink:href="#DejaVuSans-121"/>
      <use x="1350.800781" xlink:href="#DejaVuSans-32"/>
      <use x="1382.587891" xlink:href="#DejaVuSans-117"/>
      <use x="1445.966797" xlink:href="#DejaVuSans-115"/>
      <use x="1498.066406" xlink:href="#DejaVuSans-101"/>
      <use x="1559.589844" xlink:href="#DejaVuSans-100"/>
     </g>
    </g>
   </g>
   <g id="line2d_12">
    <path clip-path="url(#p4199767341)" d="M 90.996818 282.298397 
L 95.633889 279.535191 
L 100.27096 284.32495 
L 104.90803 277.347258 
L 109.545101 283.033738 
L 114.182172 281.375596 
L 118.819242 289.571118 
L 123.456313 277.729173 
L 128.093384 285.598452 
L 132.730455 278.60038 
L 137.367525 282.918919 
L 142.004596 284.152834 
L 146.641667 287.158248 
L 151.278737 285.213366 
L 155.915808 284.714478 
L 160.552879 281.868368 
L 165.189949 285.299064 
L 169.82702 289.540786 
L 174.464091 279.725266 
L 179.101162 281.500746 
L 183.738232 281.90907 
L 188.375303 275.9074 
L 193.012374 282.60044 
L 197.649444 289.82147 
L 202.286515 285.372703 
L 206.923586 285.125267 
L 211.560657 283.938482 
L 216.197727 288.589948 
L 220.834798 287.091958 
L 225.471869 287.552137 
L 230.108939 275.156711 
L 234.74601 279.276981 
L 239.383081 277.77135 
L 244.020152 281.64526 
L 248.657222 288.141211 
L 253.294293 277.535729 
L 257.931364 282.302071 
L 262.568434 272.247507 
L 267.205505 294.528932 
L 271.842576 284.310089 
L 276.479646 275.588535 
L 281.116717 271.076708 
L 285.753788 290.754232 
L 290.390859 278.58784 
L 295.027929 284.588544 
L 299.665 281.002727 
L 304.302071 287.011076 
L 308.939141 282.560995 
L 313.576212 272.104837 
L 318.213283 273.077217 
L 322.850354 281.170867 
L 327.487424 288.006488 
L 332.124495 272.677885 
L 336.761566 289.998182 
L 341.398636 262.201417 
L 346.035707 286.012854 
L 350.672778 287.117285 
L 355.309848 287.733139 
L 359.946919 284.273802 
L 364.58399 291.763645 
L 369.221061 286.941474 
L 373.858131 285.800303 
L 378.495202 303.991111 
L 383.132273 274.367782 
L 387.769343 278.643264 
L 392.406414 282.347842 
L 397.043485 290.597879 
L 401.680556 300.248816 
L 406.317626 312.43512 
L 410.954697 281.002727 
L 415.591768 262.743297 
L 420.228838 287.260435 
L 424.865909 281.002727 
L 429.50298 279.247517 
L 434.140051 273.427608 
L 438.777121 291.906309 
L 443.414192 304.216804 
L 448.051263 227.03 
L 452.688333 246.914689 
L 457.325404 284.273802 
L 461.962475 289.998182 
L 466.599545 241.022929 
L 471.236616 258.514091 
L 475.873687 261.376281 
L 480.510758 227.03 
L 485.147828 352.966364 
L 489.784899 296.994646 
L 494.42197 252.217273 
L 499.05904 269.008788 
L 503.696111 269.008788 
L 508.333182 352.966364 
" style="fill:none;stroke:#1f77b4;stroke-linecap:square;stroke-width:1.5;"/>
   </g>
   <g id="line2d_13">
    <path clip-path="url(#p4199767341)" d="M 90.996818 294.769214 
L 95.633889 301.222118 
L 100.27096 304.204704 
L 104.90803 304.4632 
L 109.545101 297.635055 
L 114.182172 303.747711 
L 118.819242 303.616771 
L 123.456313 297.970651 
L 128.093384 298.088008 
L 132.730455 302.517079 
L 137.367525 297.82263 
L 142.004596 296.318762 
L 146.641667 294.600833 
L 151.278737 301.673133 
L 155.915808 296.736117 
L 160.552879 299.642867 
L 165.189949 306.27197 
L 169.82702 300.111715 
L 174.464091 305.700307 
L 179.101162 296.316788 
L 183.738232 306.440755 
L 188.375303 304.088964 
L 193.012374 304.968416 
L 197.649444 301.131003 
L 202.286515 303.134541 
L 206.923586 304.363787 
L 211.560657 301.854116 
L 216.197727 301.465231 
L 220.834798 298.716853 
L 225.471869 296.497672 
L 230.108939 299.364159 
L 234.74601 301.021389 
L 239.383081 307.115746 
L 244.020152 303.491364 
L 248.657222 300.295927 
L 253.294293 306.396146 
L 257.931364 291.397475 
L 262.568434 292.427221 
L 267.205505 298.227504 
L 271.842576 301.873322 
L 276.479646 304.802613 
L 281.116717 299.200428 
L 285.753788 298.530748 
L 290.390859 295.49205 
L 295.027929 297.571674 
L 299.665 296.152967 
L 304.302071 291.790445 
L 308.939141 304.376743 
L 313.576212 295.052027 
L 318.213283 305.25479 
L 322.850354 287.055743 
L 327.487424 297.811752 
L 332.124495 303.757296 
L 336.761566 307.171322 
L 341.398636 309.096639 
L 346.035707 300.360035 
L 350.672778 298.640873 
L 355.309848 294.981275 
L 359.946919 290.51858 
L 364.58399 301.179448 
L 369.221061 318.731236 
L 373.858131 308.18899 
L 378.495202 300.492879 
L 383.132273 285.08577 
L 387.769343 311.675753 
L 392.406414 310.595251 
L 397.043485 304.990606 
L 401.680556 294.391311 
L 406.317626 300.854765 
L 410.954697 326.797769 
L 415.591768 300.336242 
L 420.228838 301.861752 
L 424.865909 307.989091 
L 429.50298 266.961042 
L 434.140051 326.453445 
L 438.777121 291.906309 
L 443.414192 304.216804 
L 448.051263 277.404545 
L 452.688333 299.940526 
L 457.325404 307.171322 
L 461.962475 289.998182 
L 466.599545 269.008788 
L 471.236616 289.998182 
L 475.873687 261.376281 
L 480.510758 310.987576 
L 485.147828 227.03 
L 489.784899 296.994646 
L 494.42197 252.217273 
L 499.05904 352.966364 
L 503.696111 352.966364 
L 508.333182 352.966364 
" style="fill:none;stroke:#ff7f0e;stroke-linecap:square;stroke-width:1.5;"/>
   </g>
   <g id="line2d_14">
    <path clip-path="url(#p4199767341)" d="M 90.996818 301.193575 
L 95.633889 303.12448 
L 100.27096 299.703628 
L 104.90803 298.73448 
L 109.545101 303.782978 
L 114.182172 300.391894 
L 118.819242 297.922588 
L 123.456313 304.845115 
L 128.093384 299.980365 
L 132.730455 302.890777 
L 137.367525 297.450038 
L 142.004596 301.26117 
L 146.641667 301.651702 
L 151.278737 298.610851 
L 155.915808 302.553039 
L 160.552879 298.834935 
L 165.189949 306.27197 
L 169.82702 289.134212 
L 174.464091 298.887181 
L 179.101162 302.853278 
L 183.738232 303.057074 
L 188.375303 291.75953 
L 193.012374 301.706419 
L 197.649444 296.889929 
L 202.286515 306.588232 
L 206.923586 302.33868 
L 211.560657 290.788577 
L 216.197727 299.855821 
L 220.834798 296.502587 
L 225.471869 300.97044 
L 230.108939 301.66963 
L 234.74601 292.56523 
L 239.383081 307.115746 
L 244.020152 298.351104 
L 248.657222 296.244355 
L 253.294293 295.24553 
L 257.931364 306.090051 
L 262.568434 301.395983 
L 267.205505 306.364361 
L 271.842576 298.680007 
L 276.479646 302.433904 
L 281.116717 301.681933 
L 285.753788 292.482347 
L 290.390859 303.944155 
L 295.027929 292.378422 
L 299.665 293.312297 
L 304.302071 302.305056 
L 308.939141 308.343243 
L 313.576212 301.608367 
L 318.213283 304.145218 
L 322.850354 314.126177 
L 327.487424 297.811752 
L 332.124495 294.692468 
L 336.761566 307.171322 
L 341.398636 301.532894 
L 346.035707 309.924822 
L 350.672778 305.225781 
L 355.309848 296.793309 
L 359.946919 303.008137 
L 364.58399 305.887349 
L 369.221061 299.168305 
L 373.858131 299.793232 
L 378.495202 296.994646 
L 383.132273 310.09441 
L 387.769343 307.546692 
L 392.406414 315.303152 
L 397.043485 309.788182 
L 401.680556 311.963827 
L 406.317626 289.27441 
L 410.954697 307.171322 
L 415.591768 285.299064 
L 420.228838 331.064387 
L 424.865909 298.993636 
L 429.50298 254.674568 
L 434.140051 286.684067 
L 438.777121 276.641295 
L 443.414192 336.71651 
L 448.051263 327.779091 
L 452.688333 299.940526 
L 457.325404 330.068843 
L 461.962475 289.998182 
L 466.599545 296.994646 
L 471.236616 289.998182 
L 475.873687 307.171322 
L 480.510758 269.008788 
L 485.147828 227.03 
L 489.784899 352.966364 
L 494.42197 352.966364 
L 499.05904 269.008788 
L 503.696111 269.008788 
L 508.333182 352.966364 
" style="fill:none;stroke:#2ca02c;stroke-linecap:square;stroke-width:1.5;"/>
   </g>
   <g id="line2d_15">
    <path clip-path="url(#p4199767341)" d="M 90.996818 325.757307 
L 95.633889 324.430934 
L 100.27096 324.084457 
L 104.90803 317.830214 
L 109.545101 328.374671 
L 114.182172 321.272534 
L 118.819242 325.254669 
L 123.456313 323.558934 
L 128.093384 322.310179 
L 132.730455 330.918158 
L 137.367525 327.257461 
L 142.004596 322.551544 
L 146.641667 321.237451 
L 151.278737 324.640251 
L 155.915808 326.208522 
L 160.552879 323.476854 
L 165.189949 322.892008 
L 169.82702 324.099594 
L 174.464091 324.010581 
L 179.101162 324.20581 
L 183.738232 326.742839 
L 188.375303 320.821767 
L 193.012374 322.210397 
L 197.649444 327.991145 
L 202.286515 325.830223 
L 206.923586 317.526985 
L 211.560657 330.835287 
L 216.197727 319.168745 
L 220.834798 325.288042 
L 225.471869 330.602525 
L 230.108939 330.48802 
L 234.74601 327.597888 
L 239.383081 323.010627 
L 244.020152 326.622532 
L 248.657222 325.280621 
L 253.294293 321.482273 
L 257.931364 328.478737 
L 262.568434 326.807475 
L 267.205505 318.19979 
L 271.842576 321.831542 
L 276.479646 333.227122 
L 281.116717 326.49698 
L 285.753788 329.636814 
L 290.390859 324.229207 
L 295.027929 324.403477 
L 299.665 325.506555 
L 304.302071 324.290152 
L 308.939141 332.142241 
L 313.576212 322.37011 
L 318.213283 326.336648 
L 322.850354 324.718955 
L 327.487424 316.196622 
L 332.124495 324.476903 
L 336.761566 327.206653 
L 341.398636 328.762378 
L 346.035707 327.460265 
L 350.672778 321.688051 
L 355.309848 307.665513 
L 359.946919 305.08973 
L 364.58399 320.011054 
L 369.221061 316.285869 
L 373.858131 322.181919 
L 378.495202 303.991111 
L 383.132273 317.239736 
L 387.769343 332.321058 
L 392.406414 315.303152 
L 397.043485 343.371212 
L 401.680556 311.963827 
L 406.317626 335.595831 
L 410.954697 320.25562 
L 415.591768 337.929186 
L 420.228838 331.064387 
L 424.865909 289.998182 
L 429.50298 316.10694 
L 434.140051 339.709904 
L 438.777121 322.436336 
L 443.414192 304.216804 
L 448.051263 277.404545 
L 452.688333 326.453445 
L 457.325404 352.966364 
L 461.962475 321.482273 
L 466.599545 324.980505 
L 471.236616 289.998182 
L 475.873687 352.966364 
L 480.510758 352.966364 
L 485.147828 352.966364 
L 489.784899 352.966364 
L 494.42197 352.966364 
L 499.05904 352.966364 
L 503.696111 269.008788 
L 508.333182 101.093636 
" style="fill:none;stroke:#d62728;stroke-linecap:square;stroke-width:1.5;"/>
   </g>
   <g id="line2d_16">
    <path clip-path="url(#p4199767341)" d="M 90.996818 328.780535 
L 95.633889 323.669989 
L 100.27096 327.460265 
L 104.90803 325.468507 
L 109.545101 321.842503 
L 114.182172 322.39114 
L 118.819242 328.291567 
L 123.456313 325.850422 
L 128.093384 321.553236 
L 132.730455 326.060078 
L 137.367525 322.041162 
L 142.004596 321.791173 
L 146.641667 323.979456 
L 151.278737 326.936963 
L 155.915808 321.554984 
L 160.552879 324.688752 
L 165.189949 321.704863 
L 169.82702 325.319317 
L 174.464091 324.010581 
L 179.101162 319.412384 
L 183.738232 326.742839 
L 188.375303 330.068843 
L 193.012374 319.880399 
L 197.649444 321.865148 
L 202.286515 319.90961 
L 206.923586 317.526985 
L 211.560657 326.619844 
L 216.197727 320.241686 
L 220.834798 327.502308 
L 225.471869 323.334278 
L 230.108939 325.877077 
L 234.74601 327.597888 
L 239.383081 324.844651 
L 244.020152 326.622532 
L 248.657222 323.930097 
L 253.294293 330.665133 
L 257.931364 324.280859 
L 262.568434 318.58611 
L 267.205505 324.857219 
L 271.842576 332.209816 
L 276.479646 331.647982 
L 281.116717 329.805653 
L 285.753788 313.219724 
L 290.390859 320.848365 
L 295.027929 337.386607 
L 299.665 318.878325 
L 304.302071 330.025394 
L 308.939141 314.292992 
L 313.576212 326.741004 
L 318.213283 325.227076 
L 322.850354 318.834078 
L 327.487424 316.196622 
L 332.124495 328.36183 
L 336.761566 330.068843 
L 341.398636 327.249629 
L 346.035707 332.242658 
L 350.672778 323.334278 
L 355.309848 318.537717 
L 359.946919 332.150436 
L 364.58399 322.365004 
L 369.221061 318.731236 
L 373.858131 330.577677 
L 378.495202 321.482273 
L 383.132273 342.248375 
L 387.769343 324.062936 
L 392.406414 310.595251 
L 397.043485 319.383333 
L 401.680556 335.393848 
L 406.317626 312.43512 
L 410.954697 287.544876 
L 415.591768 330.410597 
L 420.228838 323.763729 
L 424.865909 352.966364 
L 429.50298 340.679889 
L 434.140051 326.453445 
L 438.777121 307.171322 
L 443.414192 352.966364 
L 448.051263 352.966364 
L 452.688333 352.966364 
L 457.325404 330.068843 
L 461.962475 352.966364 
L 466.599545 352.966364 
L 471.236616 352.966364 
L 475.873687 352.966364 
L 480.510758 310.987576 
L 485.147828 352.966364 
L 489.784899 296.994646 
L 494.42197 252.217273 
L 499.05904 352.966364 
L 503.696111 269.008788 
L 508.333182 352.966364 
" style="fill:none;stroke:#9467bd;stroke-linecap:square;stroke-width:1.5;"/>
   </g>
   <g id="line2d_17">
    <path clip-path="url(#p4199767341)" d="M 90.996818 283.810011 
L 95.633889 280.296136 
L 100.27096 285.825309 
L 104.90803 284.985552 
L 109.545101 277.27006 
L 114.182172 288.460099 
L 118.819242 277.043914 
L 123.456313 278.874917 
L 128.093384 282.949152 
L 132.730455 278.60038 
L 137.367525 287.017439 
L 142.004596 284.913204 
L 146.641667 284.024528 
L 151.278737 288.275648 
L 155.915808 281.224324 
L 160.552879 277.82871 
L 165.189949 275.406184 
L 169.82702 285.068469 
L 174.464091 279.725266 
L 179.101162 284.115341 
L 183.738232 273.026909 
L 188.375303 283.393128 
L 193.012374 268.620455 
L 197.649444 279.454398 
L 202.286515 285.372703 
L 206.923586 281.581329 
L 211.560657 280.24997 
L 216.197727 275.178194 
L 220.834798 283.216993 
L 225.471869 276.370218 
L 230.108939 279.191286 
L 234.74601 276.860935 
L 239.383081 276.548667 
L 244.020152 275.219935 
L 248.657222 265.182303 
L 253.294293 285.406752 
L 257.931364 283.701364 
L 262.568434 296.911602 
L 267.205505 278.255217 
L 271.842576 281.915103 
L 276.479646 275.588535 
L 281.116717 286.792905 
L 285.753788 281.249601 
L 290.390859 291.265998 
L 295.027929 279.395292 
L 299.665 286.684067 
L 304.302071 287.96695 
L 308.939141 276.611246 
L 313.576212 278.661177 
L 318.213283 286.392074 
L 322.850354 276.462965 
L 327.487424 286.780829 
L 332.124495 290.807541 
L 336.761566 278.549421 
L 341.398636 283.379904 
L 346.035707 281.23046 
L 350.672778 293.702193 
L 355.309848 296.793309 
L 359.946919 288.436987 
L 364.58399 282.347842 
L 369.221061 299.168305 
L 373.858131 283.001717 
L 378.495202 269.008788 
L 383.132273 302.949084 
L 387.769343 266.25608 
L 392.406414 282.347842 
L 397.043485 257.014848 
L 401.680556 294.391311 
L 406.317626 283.484232 
L 410.954697 281.002727 
L 415.591768 292.817653 
L 420.228838 287.260435 
L 424.865909 281.002727 
L 429.50298 266.961042 
L 434.140051 260.171148 
L 438.777121 307.171322 
L 443.414192 239.21739 
L 448.051263 352.966364 
L 452.688333 326.453445 
L 457.325404 261.376281 
L 461.962475 258.514091 
L 466.599545 324.980505 
L 471.236616 321.482273 
L 475.873687 307.171322 
L 480.510758 352.966364 
L 485.147828 227.03 
L 489.784899 241.022929 
L 494.42197 352.966364 
L 499.05904 269.008788 
L 503.696111 352.966364 
L 508.333182 101.093636 
" style="fill:none;stroke:#8c564b;stroke-linecap:square;stroke-width:1.5;"/>
   </g>
   <g id="line2d_18">
    <path clip-path="url(#p4199767341)" d="M 90.996818 301.949382 
L 95.633889 298.178338 
L 100.27096 296.32782 
L 104.90803 306.372773 
L 109.545101 300.709017 
L 114.182172 295.171733 
L 118.819242 299.061424 
L 123.456313 300.644053 
L 128.093384 299.980365 
L 132.730455 298.406396 
L 137.367525 304.156708 
L 142.004596 304.302652 
L 146.641667 305.177137 
L 151.278737 302.438704 
L 155.915808 304.104218 
L 160.552879 305.702355 
L 165.189949 299.544811 
L 169.82702 291.980231 
L 174.464091 297.60972 
L 179.101162 299.36715 
L 183.738232 296.712673 
L 188.375303 308.051996 
L 193.012374 305.434415 
L 197.649444 299.717312 
L 202.286515 303.134541 
L 206.923586 300.313572 
L 211.560657 302.381046 
L 216.197727 303.074641 
L 220.834798 300.931119 
L 225.471869 305.443208 
L 230.108939 296.48232 
L 234.74601 302.833423 
L 239.383081 300.390989 
L 244.020152 307.346558 
L 248.657222 303.672237 
L 253.294293 304.42839 
L 257.931364 304.690758 
L 262.568434 301.395983 
L 267.205505 299.706932 
L 271.842576 290.696719 
L 276.479646 304.013044 
L 281.116717 308.299279 
L 285.753788 306.307265 
L 290.390859 300.563313 
L 295.027929 294.109506 
L 299.665 305.621866 
L 304.302071 300.393309 
L 308.939141 296.443744 
L 313.576212 295.052027 
L 318.213283 298.597361 
L 322.850354 309.418275 
L 327.487424 306.391358 
L 332.124495 298.577394 
L 336.761566 281.411612 
L 341.398636 300.020145 
L 346.035707 290.795247 
L 350.672778 305.225781 
L 355.309848 298.605343 
L 359.946919 303.008137 
L 364.58399 303.533398 
L 369.221061 294.277573 
L 373.858131 288.598889 
L 378.495202 303.991111 
L 383.132273 285.08577 
L 387.769343 282.772325 
L 392.406414 315.303152 
L 397.043485 285.800303 
L 401.680556 265.103784 
L 406.317626 295.064587 
L 410.954697 307.171322 
L 415.591768 292.817653 
L 420.228838 265.358458 
L 424.865909 298.993636 
L 429.50298 328.393415 
L 434.140051 286.684067 
L 438.777121 261.376281 
L 443.414192 271.717097 
L 448.051263 252.217273 
L 452.688333 273.427608 
L 457.325404 261.376281 
L 461.962475 289.998182 
L 466.599545 296.994646 
L 471.236616 321.482273 
L 475.873687 352.966364 
L 480.510758 310.987576 
L 485.147828 289.998182 
L 489.784899 296.994646 
L 494.42197 252.217273 
L 499.05904 269.008788 
L 503.696111 352.966364 
L 508.333182 352.966364 
" style="fill:none;stroke:#e377c2;stroke-linecap:square;stroke-width:1.5;"/>
   </g>
   <g id="line2d_19">
    <path clip-path="url(#p4199767341)" d="M 90.996818 295.902925 
L 95.633889 301.60259 
L 100.27096 300.453807 
L 104.90803 296.442992 
L 109.545101 302.245998 
L 114.182172 304.493448 
L 118.819242 294.88569 
L 123.456313 297.970651 
L 128.093384 304.522022 
L 132.730455 293.548317 
L 137.367525 295.959666 
L 142.004596 299.360244 
L 146.641667 298.126267 
L 151.278737 290.57236 
L 155.915808 299.062885 
L 160.552879 296.815106 
L 165.189949 302.710533 
L 169.82702 305.39718 
L 174.464091 304.848666 
L 179.101162 305.467874 
L 183.738232 298.404513 
L 188.375303 297.924247 
L 193.012374 307.764413 
L 197.649444 296.889929 
L 202.286515 292.280085 
L 206.923586 307.907725 
L 211.560657 294.47709 
L 216.197727 297.70994 
L 220.834798 297.056154 
L 225.471869 293.702193 
L 230.108939 306.280572 
L 234.74601 302.229411 
L 239.383081 299.779647 
L 244.020152 297.708571 
L 248.657222 299.620665 
L 253.294293 292.621856 
L 257.931364 293.496414 
L 262.568434 296.911602 
L 267.205505 298.227504 
L 271.842576 303.46998 
L 276.479646 292.959068 
L 281.116717 292.583083 
L 285.753788 303.715093 
L 290.390859 298.027682 
L 295.027929 297.571674 
L 299.665 303.728086 
L 304.302071 295.61394 
L 308.939141 297.435369 
L 313.576212 313.628324 
L 318.213283 297.487789 
L 322.850354 304.710374 
L 327.487424 303.940042 
L 332.124495 303.757296 
L 336.761566 294.291467 
L 341.398636 303.045643 
L 346.035707 284.418723 
L 350.672778 301.933327 
L 355.309848 309.477547 
L 359.946919 309.252915 
L 364.58399 289.409694 
L 369.221061 299.168305 
L 373.858131 299.793232 
L 378.495202 310.987576 
L 383.132273 313.667073 
L 387.769343 299.288569 
L 392.406414 301.179448 
L 397.043485 304.990606 
L 401.680556 294.391311 
L 406.317626 300.854765 
L 410.954697 300.629174 
L 415.591768 315.373419 
L 420.228838 294.561094 
L 424.865909 307.989091 
L 429.50298 303.820466 
L 434.140051 273.427608 
L 438.777121 337.70135 
L 443.414192 304.216804 
L 448.051263 327.779091 
L 452.688333 273.427608 
L 457.325404 284.273802 
L 461.962475 289.998182 
L 466.599545 324.980505 
L 471.236616 321.482273 
L 475.873687 261.376281 
L 480.510758 310.987576 
L 485.147828 352.966364 
L 489.784899 296.994646 
L 494.42197 352.966364 
L 499.05904 352.966364 
L 503.696111 352.966364 
L 508.333182 352.966364 
" style="fill:none;stroke:#7f7f7f;stroke-linecap:square;stroke-width:1.5;"/>
   </g>
   <g id="line2d_20">
    <path clip-path="url(#p4199767341)" d="M 90.996818 258.490472 
L 95.633889 260.892043 
L 100.27096 250.566878 
L 104.90803 261.306842 
L 109.545101 258.0578 
L 114.182172 255.647664 
L 118.819242 257.304077 
L 123.456313 265.507903 
L 128.093384 257.970038 
L 132.730455 261.410254 
L 137.367525 258.327795 
L 142.004596 258.300237 
L 146.641667 256.996195 
L 151.278737 254.590542 
L 155.915808 256.793251 
L 160.552879 264.09387 
L 165.189949 252.850417 
L 169.82702 262.300313 
L 174.464091 258.43425 
L 179.101162 259.712447 
L 183.738232 259.915146 
L 188.375303 260.935944 
L 193.012374 259.766465 
L 197.649444 259.191485 
L 202.286515 251.329181 
L 206.923586 256.267487 
L 211.560657 261.807406 
L 216.197727 267.667613 
L 220.834798 256.645804 
L 225.471869 258.479147 
L 230.108939 258.442045 
L 234.74601 262.968675 
L 239.383081 256.374395 
L 244.020152 255.943961 
L 248.657222 270.584399 
L 253.294293 259.170009 
L 257.931364 258.514091 
L 262.568434 266.268333 
L 267.205505 254.584359 
L 271.842576 257.96524 
L 276.479646 252.691015 
L 281.116717 257.014848 
L 285.753788 257.055994 
L 290.390859 259.993209 
L 295.027929 265.54662 
L 299.665 262.064928 
L 304.302071 253.555496 
L 308.939141 260.745247 
L 313.576212 267.733944 
L 318.213283 256.433644 
L 322.850354 256.454384 
L 327.487424 259.816353 
L 332.124495 255.843204 
L 336.761566 257.082996 
L 341.398636 257.66317 
L 346.035707 260.506755 
L 350.672778 236.084248 
L 355.309848 262.364663 
L 359.946919 257.213095 
L 364.58399 256.454384 
L 369.221061 240.479515 
L 373.858131 255.015859 
L 378.495202 262.012323 
L 383.132273 242.213817 
L 387.769343 270.385142 
L 392.406414 239.976729 
L 397.043485 257.014848 
L 401.680556 265.103784 
L 406.317626 242.952989 
L 410.954697 261.376281 
L 415.591768 255.224708 
L 420.228838 250.757141 
L 424.865909 254.016364 
L 429.50298 316.10694 
L 434.140051 299.940526 
L 438.777121 276.641295 
L 443.414192 255.467243 
L 448.051263 277.404545 
L 452.688333 273.427608 
L 457.325404 261.376281 
L 461.962475 289.998182 
L 466.599545 241.022929 
L 471.236616 227.03 
L 475.873687 215.58124 
L 480.510758 227.03 
L 485.147828 289.998182 
L 489.784899 241.022929 
L 494.42197 252.217273 
L 499.05904 185.051212 
L 503.696111 185.051212 
L 508.333182 352.966364 
" style="fill:none;stroke:#bcbd22;stroke-linecap:square;stroke-width:1.5;"/>
   </g>
   <g id="patch_3">
    <path d="M 70.13 365.56 
L 70.13 88.5 
" style="fill:none;stroke:#000000;stroke-linecap:square;stroke-linejoin:miter;stroke-width:0.8;"/>
   </g>
   <g id="patch_4">
    <path d="M 529.2 365.56 
L 529.2 88.5 
" style="fill:none;stroke:#000000;stroke-linecap:square;stroke-linejoin:miter;stroke-width:0.8;"/>
   </g>
   <g id="patch_5">
    <path d="M 70.13 365.56 
L 529.2 365.56 
" style="fill:none;stroke:#000000;stroke-linecap:square;stroke-linejoin:miter;stroke-width:0.8;"/>
   </g>
   <g id="patch_6">
    <path d="M 70.13 88.5 
L 529.2 88.5 
" style="fill:none;stroke:#000000;stroke-linecap:square;stroke-linejoin:miter;stroke-width:0.8;"/>
   </g>
   <g id="legend_1">
    <g id="patch_7">
     <path d="M 80.63 81 
L 518.7 81 
Q 521.7 81 521.7 78 
L 521.7 13.448438 
Q 521.7 10.448438 518.7 10.448438 
L 80.63 10.448438 
Q 77.63 10.448438 77.63 13.448438 
L 77.63 78 
Q 77.63 81 80.63 81 
z
" style="fill:#ffffff;opacity:0.8;stroke:#cccccc;stroke-linejoin:miter;"/>
    </g>
    <g id="line2d_21">
     <path d="M 83.63 22.596094 
L 113.63 22.596094 
" style="fill:none;stroke:#1f77b4;stroke-linecap:square;stroke-width:1.5;"/>
    </g>
    <g id="line2d_22"/>
    <g id="text_14">
     <!-- Stra 1 -->
     <defs>
      <path d="M 53.515625 70.515625 
L 53.515625 60.890625 
Q 47.90625 63.578125 42.921875 64.890625 
Q 37.9375 66.21875 33.296875 66.21875 
Q 25.25 66.21875 20.875 63.09375 
Q 16.5 59.96875 16.5 54.203125 
Q 16.5 49.359375 19.40625 46.890625 
Q 22.3125 44.4375 30.421875 42.921875 
L 36.375 41.703125 
Q 47.40625 39.59375 52.65625 34.296875 
Q 57.90625 29 57.90625 20.125 
Q 57.90625 9.515625 50.796875 4.046875 
Q 43.703125 -1.421875 29.984375 -1.421875 
Q 24.8125 -1.421875 18.96875 -0.25 
Q 13.140625 0.921875 6.890625 3.21875 
L 6.890625 13.375 
Q 12.890625 10.015625 18.65625 8.296875 
Q 24.421875 6.59375 29.984375 6.59375 
Q 38.421875 6.59375 43.015625 9.90625 
Q 47.609375 13.234375 47.609375 19.390625 
Q 47.609375 24.75 44.3125 27.78125 
Q 41.015625 30.8125 33.5 32.328125 
L 27.484375 33.5 
Q 16.453125 35.6875 11.515625 40.375 
Q 6.59375 45.0625 6.59375 53.421875 
Q 6.59375 63.09375 13.40625 68.65625 
Q 20.21875 74.21875 32.171875 74.21875 
Q 37.3125 74.21875 42.625 73.28125 
Q 47.953125 72.359375 53.515625 70.515625 
z
" id="DejaVuSans-83"/>
     </defs>
     <g transform="translate(125.63 27.846094)scale(0.15 -0.15)">
      <use xlink:href="#DejaVuSans-83"/>
      <use x="63.476562" xlink:href="#DejaVuSans-116"/>
      <use x="102.685547" xlink:href="#DejaVuSans-114"/>
      <use x="143.798828" xlink:href="#DejaVuSans-97"/>
      <use x="205.078125" xlink:href="#DejaVuSans-32"/>
      <use x="236.865234" xlink:href="#DejaVuSans-49"/>
     </g>
    </g>
    <g id="line2d_23">
     <path d="M 83.63 44.613281 
L 113.63 44.613281 
" style="fill:none;stroke:#ff7f0e;stroke-linecap:square;stroke-width:1.5;"/>
    </g>
    <g id="line2d_24"/>
    <g id="text_15">
     <!-- Stra 2 -->
     <g transform="translate(125.63 49.863281)scale(0.15 -0.15)">
      <use xlink:href="#DejaVuSans-83"/>
      <use x="63.476562" xlink:href="#DejaVuSans-116"/>
      <use x="102.685547" xlink:href="#DejaVuSans-114"/>
      <use x="143.798828" xlink:href="#DejaVuSans-97"/>
      <use x="205.078125" xlink:href="#DejaVuSans-32"/>
      <use x="236.865234" xlink:href="#DejaVuSans-50"/>
     </g>
    </g>
    <g id="line2d_25">
     <path d="M 83.63 66.630469 
L 113.63 66.630469 
" style="fill:none;stroke:#2ca02c;stroke-linecap:square;stroke-width:1.5;"/>
    </g>
    <g id="line2d_26"/>
    <g id="text_16">
     <!-- Stra 3 -->
     <g transform="translate(125.63 71.880469)scale(0.15 -0.15)">
      <use xlink:href="#DejaVuSans-83"/>
      <use x="63.476562" xlink:href="#DejaVuSans-116"/>
      <use x="102.685547" xlink:href="#DejaVuSans-114"/>
      <use x="143.798828" xlink:href="#DejaVuSans-97"/>
      <use x="205.078125" xlink:href="#DejaVuSans-32"/>
      <use x="236.865234" xlink:href="#DejaVuSans-51"/>
     </g>
    </g>
    <g id="line2d_27">
     <path d="M 198.629115 22.596094 
L 228.629115 22.596094 
" style="fill:none;stroke:#d62728;stroke-linecap:square;stroke-width:1.5;"/>
    </g>
    <g id="line2d_28"/>
    <g id="text_17">
     <!-- Stra 4 -->
     <g transform="translate(240.629115 27.846094)scale(0.15 -0.15)">
      <use xlink:href="#DejaVuSans-83"/>
      <use x="63.476562" xlink:href="#DejaVuSans-116"/>
      <use x="102.685547" xlink:href="#DejaVuSans-114"/>
      <use x="143.798828" xlink:href="#DejaVuSans-97"/>
      <use x="205.078125" xlink:href="#DejaVuSans-32"/>
      <use x="236.865234" xlink:href="#DejaVuSans-52"/>
     </g>
    </g>
    <g id="line2d_29">
     <path d="M 198.629115 44.613281 
L 228.629115 44.613281 
" style="fill:none;stroke:#9467bd;stroke-linecap:square;stroke-width:1.5;"/>
    </g>
    <g id="line2d_30"/>
    <g id="text_18">
     <!-- Stra 5 -->
     <g transform="translate(240.629115 49.863281)scale(0.15 -0.15)">
      <use xlink:href="#DejaVuSans-83"/>
      <use x="63.476562" xlink:href="#DejaVuSans-116"/>
      <use x="102.685547" xlink:href="#DejaVuSans-114"/>
      <use x="143.798828" xlink:href="#DejaVuSans-97"/>
      <use x="205.078125" xlink:href="#DejaVuSans-32"/>
      <use x="236.865234" xlink:href="#DejaVuSans-53"/>
     </g>
    </g>
    <g id="line2d_31">
     <path d="M 313.628229 22.596094 
L 343.628229 22.596094 
" style="fill:none;stroke:#8c564b;stroke-linecap:square;stroke-width:1.5;"/>
    </g>
    <g id="line2d_32"/>
    <g id="text_19">
     <!-- Stra 6 -->
     <g transform="translate(355.628229 27.846094)scale(0.15 -0.15)">
      <use xlink:href="#DejaVuSans-83"/>
      <use x="63.476562" xlink:href="#DejaVuSans-116"/>
      <use x="102.685547" xlink:href="#DejaVuSans-114"/>
      <use x="143.798828" xlink:href="#DejaVuSans-97"/>
      <use x="205.078125" xlink:href="#DejaVuSans-32"/>
      <use x="236.865234" xlink:href="#DejaVuSans-54"/>
     </g>
    </g>
    <g id="line2d_33">
     <path d="M 313.628229 44.613281 
L 343.628229 44.613281 
" style="fill:none;stroke:#e377c2;stroke-linecap:square;stroke-width:1.5;"/>
    </g>
    <g id="line2d_34"/>
    <g id="text_20">
     <!-- Stra 7 -->
     <defs>
      <path d="M 8.203125 72.90625 
L 55.078125 72.90625 
L 55.078125 68.703125 
L 28.609375 0 
L 18.3125 0 
L 43.21875 64.59375 
L 8.203125 64.59375 
z
" id="DejaVuSans-55"/>
     </defs>
     <g transform="translate(355.628229 49.863281)scale(0.15 -0.15)">
      <use xlink:href="#DejaVuSans-83"/>
      <use x="63.476562" xlink:href="#DejaVuSans-116"/>
      <use x="102.685547" xlink:href="#DejaVuSans-114"/>
      <use x="143.798828" xlink:href="#DejaVuSans-97"/>
      <use x="205.078125" xlink:href="#DejaVuSans-32"/>
      <use x="236.865234" xlink:href="#DejaVuSans-55"/>
     </g>
    </g>
    <g id="line2d_35">
     <path d="M 428.627344 22.596094 
L 458.627344 22.596094 
" style="fill:none;stroke:#7f7f7f;stroke-linecap:square;stroke-width:1.5;"/>
    </g>
    <g id="line2d_36"/>
    <g id="text_21">
     <!-- Stra 8 -->
     <g transform="translate(470.627344 27.846094)scale(0.15 -0.15)">
      <use xlink:href="#DejaVuSans-83"/>
      <use x="63.476562" xlink:href="#DejaVuSans-116"/>
      <use x="102.685547" xlink:href="#DejaVuSans-114"/>
      <use x="143.798828" xlink:href="#DejaVuSans-97"/>
      <use x="205.078125" xlink:href="#DejaVuSans-32"/>
      <use x="236.865234" xlink:href="#DejaVuSans-56"/>
     </g>
    </g>
    <g id="line2d_37">
     <path d="M 428.627344 44.613281 
L 458.627344 44.613281 
" style="fill:none;stroke:#bcbd22;stroke-linecap:square;stroke-width:1.5;"/>
    </g>
    <g id="line2d_38"/>
    <g id="text_22">
     <!-- Stra 9 -->
     <defs>
      <path d="M 10.984375 1.515625 
L 10.984375 10.5 
Q 14.703125 8.734375 18.5 7.8125 
Q 22.3125 6.890625 25.984375 6.890625 
Q 35.75 6.890625 40.890625 13.453125 
Q 46.046875 20.015625 46.78125 33.40625 
Q 43.953125 29.203125 39.59375 26.953125 
Q 35.25 24.703125 29.984375 24.703125 
Q 19.046875 24.703125 12.671875 31.3125 
Q 6.296875 37.9375 6.296875 49.421875 
Q 6.296875 60.640625 12.9375 67.421875 
Q 19.578125 74.21875 30.609375 74.21875 
Q 43.265625 74.21875 49.921875 64.515625 
Q 56.59375 54.828125 56.59375 36.375 
Q 56.59375 19.140625 48.40625 8.859375 
Q 40.234375 -1.421875 26.421875 -1.421875 
Q 22.703125 -1.421875 18.890625 -0.6875 
Q 15.09375 0.046875 10.984375 1.515625 
z
M 30.609375 32.421875 
Q 37.25 32.421875 41.125 36.953125 
Q 45.015625 41.5 45.015625 49.421875 
Q 45.015625 57.28125 41.125 61.84375 
Q 37.25 66.40625 30.609375 66.40625 
Q 23.96875 66.40625 20.09375 61.84375 
Q 16.21875 57.28125 16.21875 49.421875 
Q 16.21875 41.5 20.09375 36.953125 
Q 23.96875 32.421875 30.609375 32.421875 
z
" id="DejaVuSans-57"/>
     </defs>
     <g transform="translate(470.627344 49.863281)scale(0.15 -0.15)">
      <use xlink:href="#DejaVuSans-83"/>
      <use x="63.476562" xlink:href="#DejaVuSans-116"/>
      <use x="102.685547" xlink:href="#DejaVuSans-114"/>
      <use x="143.798828" xlink:href="#DejaVuSans-97"/>
      <use x="205.078125" xlink:href="#DejaVuSans-32"/>
      <use x="236.865234" xlink:href="#DejaVuSans-57"/>
     </g>
    </g>
   </g>
  </g>
 </g>
 <defs>
  <clipPath id="p4199767341">
   <rect height="277.06" width="459.07" x="70.13" y="88.5"/>
  </clipPath>
 </defs>
</svg>
