<?xml version="1.0" encoding="utf-8" standalone="no"?>
<!DOCTYPE svg PUBLIC "-//W3C//DTD SVG 1.1//EN"
  "http://www.w3.org/Graphics/SVG/1.1/DTD/svg11.dtd">
<!-- Created with matplotlib (https://matplotlib.org/) -->
<svg height="432pt" version="1.1" viewBox="0 0 540 432" width="540pt" xmlns="http://www.w3.org/2000/svg" xmlns:xlink="http://www.w3.org/1999/xlink">
 <defs>
  <style type="text/css">
*{stroke-linecap:butt;stroke-linejoin:round;}
  </style>
 </defs>
 <g id="figure_1">
  <g id="patch_1">
   <path d="M 0 432 
L 540 432 
L 540 0 
L 0 0 
z
" style="fill:#ffffff;"/>
  </g>
  <g id="axes_1">
   <g id="patch_2">
    <path d="M 120.89 365.56 
L 529.2 365.56 
L 529.2 88.5 
L 120.89 88.5 
z
" style="fill:#ffffff;"/>
   </g>
   <g id="matplotlib.axis_1">
    <g id="xtick_1">
     <g id="line2d_1">
      <defs>
       <path d="M 0 0 
L 0 3.5 
" id="m2c7eacaf5f" style="stroke:#000000;stroke-width:0.8;"/>
      </defs>
      <g>
       <use style="stroke:#000000;stroke-width:0.8;" x="139.449545" xlink:href="#m2c7eacaf5f" y="365.56"/>
      </g>
     </g>
     <g id="text_1">
      <!-- 0 -->
      <defs>
       <path d="M 31.78125 66.40625 
Q 24.171875 66.40625 20.328125 58.90625 
Q 16.5 51.421875 16.5 36.375 
Q 16.5 21.390625 20.328125 13.890625 
Q 24.171875 6.390625 31.78125 6.390625 
Q 39.453125 6.390625 43.28125 13.890625 
Q 47.125 21.390625 47.125 36.375 
Q 47.125 51.421875 43.28125 58.90625 
Q 39.453125 66.40625 31.78125 66.40625 
z
M 31.78125 74.21875 
Q 44.046875 74.21875 50.515625 64.515625 
Q 56.984375 54.828125 56.984375 36.375 
Q 56.984375 17.96875 50.515625 8.265625 
Q 44.046875 -1.421875 31.78125 -1.421875 
Q 19.53125 -1.421875 13.0625 8.265625 
Q 6.59375 17.96875 6.59375 36.375 
Q 6.59375 54.828125 13.0625 64.515625 
Q 19.53125 74.21875 31.78125 74.21875 
z
" id="DejaVuSans-48"/>
      </defs>
      <g transform="translate(133.087045 387.756875)scale(0.2 -0.2)">
       <use xlink:href="#DejaVuSans-48"/>
      </g>
     </g>
    </g>
    <g id="xtick_2">
     <g id="line2d_2">
      <g>
       <use style="stroke:#000000;stroke-width:0.8;" x="221.936414" xlink:href="#m2c7eacaf5f" y="365.56"/>
      </g>
     </g>
     <g id="text_2">
      <!-- 20 -->
      <defs>
       <path d="M 19.1875 8.296875 
L 53.609375 8.296875 
L 53.609375 0 
L 7.328125 0 
L 7.328125 8.296875 
Q 12.9375 14.109375 22.625 23.890625 
Q 32.328125 33.6875 34.8125 36.53125 
Q 39.546875 41.84375 41.421875 45.53125 
Q 43.3125 49.21875 43.3125 52.78125 
Q 43.3125 58.59375 39.234375 62.25 
Q 35.15625 65.921875 28.609375 65.921875 
Q 23.96875 65.921875 18.8125 64.3125 
Q 13.671875 62.703125 7.8125 59.421875 
L 7.8125 69.390625 
Q 13.765625 71.78125 18.9375 73 
Q 24.125 74.21875 28.421875 74.21875 
Q 39.75 74.21875 46.484375 68.546875 
Q 53.21875 62.890625 53.21875 53.421875 
Q 53.21875 48.921875 51.53125 44.890625 
Q 49.859375 40.875 45.40625 35.40625 
Q 44.1875 33.984375 37.640625 27.21875 
Q 31.109375 20.453125 19.1875 8.296875 
z
" id="DejaVuSans-50"/>
      </defs>
      <g transform="translate(209.211414 387.756875)scale(0.2 -0.2)">
       <use xlink:href="#DejaVuSans-50"/>
       <use x="63.623047" xlink:href="#DejaVuSans-48"/>
      </g>
     </g>
    </g>
    <g id="xtick_3">
     <g id="line2d_3">
      <g>
       <use style="stroke:#000000;stroke-width:0.8;" x="304.423283" xlink:href="#m2c7eacaf5f" y="365.56"/>
      </g>
     </g>
     <g id="text_3">
      <!-- 40 -->
      <defs>
       <path d="M 37.796875 64.3125 
L 12.890625 25.390625 
L 37.796875 25.390625 
z
M 35.203125 72.90625 
L 47.609375 72.90625 
L 47.609375 25.390625 
L 58.015625 25.390625 
L 58.015625 17.1875 
L 47.609375 17.1875 
L 47.609375 0 
L 37.796875 0 
L 37.796875 17.1875 
L 4.890625 17.1875 
L 4.890625 26.703125 
z
" id="DejaVuSans-52"/>
      </defs>
      <g transform="translate(291.698283 387.756875)scale(0.2 -0.2)">
       <use xlink:href="#DejaVuSans-52"/>
       <use x="63.623047" xlink:href="#DejaVuSans-48"/>
      </g>
     </g>
    </g>
    <g id="xtick_4">
     <g id="line2d_4">
      <g>
       <use style="stroke:#000000;stroke-width:0.8;" x="386.910152" xlink:href="#m2c7eacaf5f" y="365.56"/>
      </g>
     </g>
     <g id="text_4">
      <!-- 60 -->
      <defs>
       <path d="M 33.015625 40.375 
Q 26.375 40.375 22.484375 35.828125 
Q 18.609375 31.296875 18.609375 23.390625 
Q 18.609375 15.53125 22.484375 10.953125 
Q 26.375 6.390625 33.015625 6.390625 
Q 39.65625 6.390625 43.53125 10.953125 
Q 47.40625 15.53125 47.40625 23.390625 
Q 47.40625 31.296875 43.53125 35.828125 
Q 39.65625 40.375 33.015625 40.375 
z
M 52.59375 71.296875 
L 52.59375 62.3125 
Q 48.875 64.0625 45.09375 64.984375 
Q 41.3125 65.921875 37.59375 65.921875 
Q 27.828125 65.921875 22.671875 59.328125 
Q 17.53125 52.734375 16.796875 39.40625 
Q 19.671875 43.65625 24.015625 45.921875 
Q 28.375 48.1875 33.59375 48.1875 
Q 44.578125 48.1875 50.953125 41.515625 
Q 57.328125 34.859375 57.328125 23.390625 
Q 57.328125 12.15625 50.6875 5.359375 
Q 44.046875 -1.421875 33.015625 -1.421875 
Q 20.359375 -1.421875 13.671875 8.265625 
Q 6.984375 17.96875 6.984375 36.375 
Q 6.984375 53.65625 15.1875 63.9375 
Q 23.390625 74.21875 37.203125 74.21875 
Q 40.921875 74.21875 44.703125 73.484375 
Q 48.484375 72.75 52.59375 71.296875 
z
" id="DejaVuSans-54"/>
      </defs>
      <g transform="translate(374.185152 387.756875)scale(0.2 -0.2)">
       <use xlink:href="#DejaVuSans-54"/>
       <use x="63.623047" xlink:href="#DejaVuSans-48"/>
      </g>
     </g>
    </g>
    <g id="xtick_5">
     <g id="line2d_5">
      <g>
       <use style="stroke:#000000;stroke-width:0.8;" x="469.39702" xlink:href="#m2c7eacaf5f" y="365.56"/>
      </g>
     </g>
     <g id="text_5">
      <!-- 80 -->
      <defs>
       <path d="M 31.78125 34.625 
Q 24.75 34.625 20.71875 30.859375 
Q 16.703125 27.09375 16.703125 20.515625 
Q 16.703125 13.921875 20.71875 10.15625 
Q 24.75 6.390625 31.78125 6.390625 
Q 38.8125 6.390625 42.859375 10.171875 
Q 46.921875 13.96875 46.921875 20.515625 
Q 46.921875 27.09375 42.890625 30.859375 
Q 38.875 34.625 31.78125 34.625 
z
M 21.921875 38.8125 
Q 15.578125 40.375 12.03125 44.71875 
Q 8.5 49.078125 8.5 55.328125 
Q 8.5 64.0625 14.71875 69.140625 
Q 20.953125 74.21875 31.78125 74.21875 
Q 42.671875 74.21875 48.875 69.140625 
Q 55.078125 64.0625 55.078125 55.328125 
Q 55.078125 49.078125 51.53125 44.71875 
Q 48 40.375 41.703125 38.8125 
Q 48.828125 37.15625 52.796875 32.3125 
Q 56.78125 27.484375 56.78125 20.515625 
Q 56.78125 9.90625 50.3125 4.234375 
Q 43.84375 -1.421875 31.78125 -1.421875 
Q 19.734375 -1.421875 13.25 4.234375 
Q 6.78125 9.90625 6.78125 20.515625 
Q 6.78125 27.484375 10.78125 32.3125 
Q 14.796875 37.15625 21.921875 38.8125 
z
M 18.3125 54.390625 
Q 18.3125 48.734375 21.84375 45.5625 
Q 25.390625 42.390625 31.78125 42.390625 
Q 38.140625 42.390625 41.71875 45.5625 
Q 45.3125 48.734375 45.3125 54.390625 
Q 45.3125 60.0625 41.71875 63.234375 
Q 38.140625 66.40625 31.78125 66.40625 
Q 25.390625 66.40625 21.84375 63.234375 
Q 18.3125 60.0625 18.3125 54.390625 
z
" id="DejaVuSans-56"/>
      </defs>
      <g transform="translate(456.67202 387.756875)scale(0.2 -0.2)">
       <use xlink:href="#DejaVuSans-56"/>
       <use x="63.623047" xlink:href="#DejaVuSans-48"/>
      </g>
     </g>
    </g>
    <g id="text_6">
     <!-- # of games -->
     <defs>
      <path d="M 51.125 44 
L 36.921875 44 
L 32.8125 27.6875 
L 47.125 27.6875 
z
M 43.796875 71.78125 
L 38.71875 51.515625 
L 52.984375 51.515625 
L 58.109375 71.78125 
L 65.921875 71.78125 
L 60.890625 51.515625 
L 76.125 51.515625 
L 76.125 44 
L 58.984375 44 
L 54.984375 27.6875 
L 70.515625 27.6875 
L 70.515625 20.21875 
L 53.078125 20.21875 
L 48 0 
L 40.1875 0 
L 45.21875 20.21875 
L 30.90625 20.21875 
L 25.875 0 
L 18.015625 0 
L 23.09375 20.21875 
L 7.71875 20.21875 
L 7.71875 27.6875 
L 24.90625 27.6875 
L 29 44 
L 13.28125 44 
L 13.28125 51.515625 
L 30.90625 51.515625 
L 35.890625 71.78125 
z
" id="DejaVuSans-35"/>
      <path id="DejaVuSans-32"/>
      <path d="M 30.609375 48.390625 
Q 23.390625 48.390625 19.1875 42.75 
Q 14.984375 37.109375 14.984375 27.296875 
Q 14.984375 17.484375 19.15625 11.84375 
Q 23.34375 6.203125 30.609375 6.203125 
Q 37.796875 6.203125 41.984375 11.859375 
Q 46.1875 17.53125 46.1875 27.296875 
Q 46.1875 37.015625 41.984375 42.703125 
Q 37.796875 48.390625 30.609375 48.390625 
z
M 30.609375 56 
Q 42.328125 56 49.015625 48.375 
Q 55.71875 40.765625 55.71875 27.296875 
Q 55.71875 13.875 49.015625 6.21875 
Q 42.328125 -1.421875 30.609375 -1.421875 
Q 18.84375 -1.421875 12.171875 6.21875 
Q 5.515625 13.875 5.515625 27.296875 
Q 5.515625 40.765625 12.171875 48.375 
Q 18.84375 56 30.609375 56 
z
" id="DejaVuSans-111"/>
      <path d="M 37.109375 75.984375 
L 37.109375 68.5 
L 28.515625 68.5 
Q 23.6875 68.5 21.796875 66.546875 
Q 19.921875 64.59375 19.921875 59.515625 
L 19.921875 54.6875 
L 34.71875 54.6875 
L 34.71875 47.703125 
L 19.921875 47.703125 
L 19.921875 0 
L 10.890625 0 
L 10.890625 47.703125 
L 2.296875 47.703125 
L 2.296875 54.6875 
L 10.890625 54.6875 
L 10.890625 58.5 
Q 10.890625 67.625 15.140625 71.796875 
Q 19.390625 75.984375 28.609375 75.984375 
z
" id="DejaVuSans-102"/>
      <path d="M 45.40625 27.984375 
Q 45.40625 37.75 41.375 43.109375 
Q 37.359375 48.484375 30.078125 48.484375 
Q 22.859375 48.484375 18.828125 43.109375 
Q 14.796875 37.75 14.796875 27.984375 
Q 14.796875 18.265625 18.828125 12.890625 
Q 22.859375 7.515625 30.078125 7.515625 
Q 37.359375 7.515625 41.375 12.890625 
Q 45.40625 18.265625 45.40625 27.984375 
z
M 54.390625 6.78125 
Q 54.390625 -7.171875 48.1875 -13.984375 
Q 42 -20.796875 29.203125 -20.796875 
Q 24.46875 -20.796875 20.265625 -20.09375 
Q 16.0625 -19.390625 12.109375 -17.921875 
L 12.109375 -9.1875 
Q 16.0625 -11.328125 19.921875 -12.34375 
Q 23.78125 -13.375 27.78125 -13.375 
Q 36.625 -13.375 41.015625 -8.765625 
Q 45.40625 -4.15625 45.40625 5.171875 
L 45.40625 9.625 
Q 42.625 4.78125 38.28125 2.390625 
Q 33.9375 0 27.875 0 
Q 17.828125 0 11.671875 7.65625 
Q 5.515625 15.328125 5.515625 27.984375 
Q 5.515625 40.671875 11.671875 48.328125 
Q 17.828125 56 27.875 56 
Q 33.9375 56 38.28125 53.609375 
Q 42.625 51.21875 45.40625 46.390625 
L 45.40625 54.6875 
L 54.390625 54.6875 
z
" id="DejaVuSans-103"/>
      <path d="M 34.28125 27.484375 
Q 23.390625 27.484375 19.1875 25 
Q 14.984375 22.515625 14.984375 16.5 
Q 14.984375 11.71875 18.140625 8.90625 
Q 21.296875 6.109375 26.703125 6.109375 
Q 34.1875 6.109375 38.703125 11.40625 
Q 43.21875 16.703125 43.21875 25.484375 
L 43.21875 27.484375 
z
M 52.203125 31.203125 
L 52.203125 0 
L 43.21875 0 
L 43.21875 8.296875 
Q 40.140625 3.328125 35.546875 0.953125 
Q 30.953125 -1.421875 24.3125 -1.421875 
Q 15.921875 -1.421875 10.953125 3.296875 
Q 6 8.015625 6 15.921875 
Q 6 25.140625 12.171875 29.828125 
Q 18.359375 34.515625 30.609375 34.515625 
L 43.21875 34.515625 
L 43.21875 35.40625 
Q 43.21875 41.609375 39.140625 45 
Q 35.0625 48.390625 27.6875 48.390625 
Q 23 48.390625 18.546875 47.265625 
Q 14.109375 46.140625 10.015625 43.890625 
L 10.015625 52.203125 
Q 14.9375 54.109375 19.578125 55.046875 
Q 24.21875 56 28.609375 56 
Q 40.484375 56 46.34375 49.84375 
Q 52.203125 43.703125 52.203125 31.203125 
z
" id="DejaVuSans-97"/>
      <path d="M 52 44.1875 
Q 55.375 50.25 60.0625 53.125 
Q 64.75 56 71.09375 56 
Q 79.640625 56 84.28125 50.015625 
Q 88.921875 44.046875 88.921875 33.015625 
L 88.921875 0 
L 79.890625 0 
L 79.890625 32.71875 
Q 79.890625 40.578125 77.09375 44.375 
Q 74.3125 48.1875 68.609375 48.1875 
Q 61.625 48.1875 57.5625 43.546875 
Q 53.515625 38.921875 53.515625 30.90625 
L 53.515625 0 
L 44.484375 0 
L 44.484375 32.71875 
Q 44.484375 40.625 41.703125 44.40625 
Q 38.921875 48.1875 33.109375 48.1875 
Q 26.21875 48.1875 22.15625 43.53125 
Q 18.109375 38.875 18.109375 30.90625 
L 18.109375 0 
L 9.078125 0 
L 9.078125 54.6875 
L 18.109375 54.6875 
L 18.109375 46.1875 
Q 21.1875 51.21875 25.484375 53.609375 
Q 29.78125 56 35.6875 56 
Q 41.65625 56 45.828125 52.96875 
Q 50 49.953125 52 44.1875 
z
" id="DejaVuSans-109"/>
      <path d="M 56.203125 29.59375 
L 56.203125 25.203125 
L 14.890625 25.203125 
Q 15.484375 15.921875 20.484375 11.0625 
Q 25.484375 6.203125 34.421875 6.203125 
Q 39.59375 6.203125 44.453125 7.46875 
Q 49.3125 8.734375 54.109375 11.28125 
L 54.109375 2.78125 
Q 49.265625 0.734375 44.1875 -0.34375 
Q 39.109375 -1.421875 33.890625 -1.421875 
Q 20.796875 -1.421875 13.15625 6.1875 
Q 5.515625 13.8125 5.515625 26.8125 
Q 5.515625 40.234375 12.765625 48.109375 
Q 20.015625 56 32.328125 56 
Q 43.359375 56 49.78125 48.890625 
Q 56.203125 41.796875 56.203125 29.59375 
z
M 47.21875 32.234375 
Q 47.125 39.59375 43.09375 43.984375 
Q 39.0625 48.390625 32.421875 48.390625 
Q 24.90625 48.390625 20.390625 44.140625 
Q 15.875 39.890625 15.1875 32.171875 
z
" id="DejaVuSans-101"/>
      <path d="M 44.28125 53.078125 
L 44.28125 44.578125 
Q 40.484375 46.53125 36.375 47.5 
Q 32.28125 48.484375 27.875 48.484375 
Q 21.1875 48.484375 17.84375 46.4375 
Q 14.5 44.390625 14.5 40.28125 
Q 14.5 37.15625 16.890625 35.375 
Q 19.28125 33.59375 26.515625 31.984375 
L 29.59375 31.296875 
Q 39.15625 29.25 43.1875 25.515625 
Q 47.21875 21.78125 47.21875 15.09375 
Q 47.21875 7.46875 41.1875 3.015625 
Q 35.15625 -1.421875 24.609375 -1.421875 
Q 20.21875 -1.421875 15.453125 -0.5625 
Q 10.6875 0.296875 5.421875 2 
L 5.421875 11.28125 
Q 10.40625 8.6875 15.234375 7.390625 
Q 20.0625 6.109375 24.8125 6.109375 
Q 31.15625 6.109375 34.5625 8.28125 
Q 37.984375 10.453125 37.984375 14.40625 
Q 37.984375 18.0625 35.515625 20.015625 
Q 33.0625 21.96875 24.703125 23.78125 
L 21.578125 24.515625 
Q 13.234375 26.265625 9.515625 29.90625 
Q 5.8125 33.546875 5.8125 39.890625 
Q 5.8125 47.609375 11.28125 51.796875 
Q 16.75 56 26.8125 56 
Q 31.78125 56 36.171875 55.265625 
Q 40.578125 54.546875 44.28125 53.078125 
z
" id="DejaVuSans-115"/>
     </defs>
     <g transform="translate(252.601641 414.912344)scale(0.25 -0.25)">
      <use xlink:href="#DejaVuSans-35"/>
      <use x="83.789062" xlink:href="#DejaVuSans-32"/>
      <use x="115.576172" xlink:href="#DejaVuSans-111"/>
      <use x="176.757812" xlink:href="#DejaVuSans-102"/>
      <use x="211.962891" xlink:href="#DejaVuSans-32"/>
      <use x="243.75" xlink:href="#DejaVuSans-103"/>
      <use x="307.226562" xlink:href="#DejaVuSans-97"/>
      <use x="368.505859" xlink:href="#DejaVuSans-109"/>
      <use x="465.917969" xlink:href="#DejaVuSans-101"/>
      <use x="527.441406" xlink:href="#DejaVuSans-115"/>
     </g>
    </g>
   </g>
   <g id="matplotlib.axis_2">
    <g id="ytick_1">
     <g id="line2d_6">
      <defs>
       <path d="M 0 0 
L -3.5 0 
" id="m503104f2e2" style="stroke:#000000;stroke-width:0.8;"/>
      </defs>
      <g>
       <use style="stroke:#000000;stroke-width:0.8;" x="120.89" xlink:href="#m503104f2e2" y="352.138428"/>
      </g>
     </g>
     <g id="text_7">
      <!-- 0.00002 -->
      <defs>
       <path d="M 10.6875 12.40625 
L 21 12.40625 
L 21 0 
L 10.6875 0 
z
" id="DejaVuSans-46"/>
      </defs>
      <g transform="translate(31.18375 359.736866)scale(0.2 -0.2)">
       <use xlink:href="#DejaVuSans-48"/>
       <use x="63.623047" xlink:href="#DejaVuSans-46"/>
       <use x="95.410156" xlink:href="#DejaVuSans-48"/>
       <use x="159.033203" xlink:href="#DejaVuSans-48"/>
       <use x="222.65625" xlink:href="#DejaVuSans-48"/>
       <use x="286.279297" xlink:href="#DejaVuSans-48"/>
       <use x="349.902344" xlink:href="#DejaVuSans-50"/>
      </g>
     </g>
    </g>
    <g id="ytick_2">
     <g id="line2d_7">
      <g>
       <use style="stroke:#000000;stroke-width:0.8;" x="120.89" xlink:href="#m503104f2e2" y="320.757829"/>
      </g>
     </g>
     <g id="text_8">
      <!-- 0.00003 -->
      <defs>
       <path d="M 40.578125 39.3125 
Q 47.65625 37.796875 51.625 33 
Q 55.609375 28.21875 55.609375 21.1875 
Q 55.609375 10.40625 48.1875 4.484375 
Q 40.765625 -1.421875 27.09375 -1.421875 
Q 22.515625 -1.421875 17.65625 -0.515625 
Q 12.796875 0.390625 7.625 2.203125 
L 7.625 11.71875 
Q 11.71875 9.328125 16.59375 8.109375 
Q 21.484375 6.890625 26.8125 6.890625 
Q 36.078125 6.890625 40.9375 10.546875 
Q 45.796875 14.203125 45.796875 21.1875 
Q 45.796875 27.640625 41.28125 31.265625 
Q 36.765625 34.90625 28.71875 34.90625 
L 20.21875 34.90625 
L 20.21875 43.015625 
L 29.109375 43.015625 
Q 36.375 43.015625 40.234375 45.921875 
Q 44.09375 48.828125 44.09375 54.296875 
Q 44.09375 59.90625 40.109375 62.90625 
Q 36.140625 65.921875 28.71875 65.921875 
Q 24.65625 65.921875 20.015625 65.03125 
Q 15.375 64.15625 9.8125 62.3125 
L 9.8125 71.09375 
Q 15.4375 72.65625 20.34375 73.4375 
Q 25.25 74.21875 29.59375 74.21875 
Q 40.828125 74.21875 47.359375 69.109375 
Q 53.90625 64.015625 53.90625 55.328125 
Q 53.90625 49.265625 50.4375 45.09375 
Q 46.96875 40.921875 40.578125 39.3125 
z
" id="DejaVuSans-51"/>
      </defs>
      <g transform="translate(31.18375 328.356267)scale(0.2 -0.2)">
       <use xlink:href="#DejaVuSans-48"/>
       <use x="63.623047" xlink:href="#DejaVuSans-46"/>
       <use x="95.410156" xlink:href="#DejaVuSans-48"/>
       <use x="159.033203" xlink:href="#DejaVuSans-48"/>
       <use x="222.65625" xlink:href="#DejaVuSans-48"/>
       <use x="286.279297" xlink:href="#DejaVuSans-48"/>
       <use x="349.902344" xlink:href="#DejaVuSans-51"/>
      </g>
     </g>
    </g>
    <g id="ytick_3">
     <g id="line2d_8">
      <g>
       <use style="stroke:#000000;stroke-width:0.8;" x="120.89" xlink:href="#m503104f2e2" y="289.37723"/>
      </g>
     </g>
     <g id="text_9">
      <!-- 0.00004 -->
      <g transform="translate(31.18375 296.975668)scale(0.2 -0.2)">
       <use xlink:href="#DejaVuSans-48"/>
       <use x="63.623047" xlink:href="#DejaVuSans-46"/>
       <use x="95.410156" xlink:href="#DejaVuSans-48"/>
       <use x="159.033203" xlink:href="#DejaVuSans-48"/>
       <use x="222.65625" xlink:href="#DejaVuSans-48"/>
       <use x="286.279297" xlink:href="#DejaVuSans-48"/>
       <use x="349.902344" xlink:href="#DejaVuSans-52"/>
      </g>
     </g>
    </g>
    <g id="ytick_4">
     <g id="line2d_9">
      <g>
       <use style="stroke:#000000;stroke-width:0.8;" x="120.89" xlink:href="#m503104f2e2" y="257.996631"/>
      </g>
     </g>
     <g id="text_10">
      <!-- 0.00005 -->
      <defs>
       <path d="M 10.796875 72.90625 
L 49.515625 72.90625 
L 49.515625 64.59375 
L 19.828125 64.59375 
L 19.828125 46.734375 
Q 21.96875 47.46875 24.109375 47.828125 
Q 26.265625 48.1875 28.421875 48.1875 
Q 40.625 48.1875 47.75 41.5 
Q 54.890625 34.8125 54.890625 23.390625 
Q 54.890625 11.625 47.5625 5.09375 
Q 40.234375 -1.421875 26.90625 -1.421875 
Q 22.3125 -1.421875 17.546875 -0.640625 
Q 12.796875 0.140625 7.71875 1.703125 
L 7.71875 11.625 
Q 12.109375 9.234375 16.796875 8.0625 
Q 21.484375 6.890625 26.703125 6.890625 
Q 35.15625 6.890625 40.078125 11.328125 
Q 45.015625 15.765625 45.015625 23.390625 
Q 45.015625 31 40.078125 35.4375 
Q 35.15625 39.890625 26.703125 39.890625 
Q 22.75 39.890625 18.8125 39.015625 
Q 14.890625 38.140625 10.796875 36.28125 
z
" id="DejaVuSans-53"/>
      </defs>
      <g transform="translate(31.18375 265.595069)scale(0.2 -0.2)">
       <use xlink:href="#DejaVuSans-48"/>
       <use x="63.623047" xlink:href="#DejaVuSans-46"/>
       <use x="95.410156" xlink:href="#DejaVuSans-48"/>
       <use x="159.033203" xlink:href="#DejaVuSans-48"/>
       <use x="222.65625" xlink:href="#DejaVuSans-48"/>
       <use x="286.279297" xlink:href="#DejaVuSans-48"/>
       <use x="349.902344" xlink:href="#DejaVuSans-53"/>
      </g>
     </g>
    </g>
    <g id="ytick_5">
     <g id="line2d_10">
      <g>
       <use style="stroke:#000000;stroke-width:0.8;" x="120.89" xlink:href="#m503104f2e2" y="226.616032"/>
      </g>
     </g>
     <g id="text_11">
      <!-- 0.00006 -->
      <g transform="translate(31.18375 234.21447)scale(0.2 -0.2)">
       <use xlink:href="#DejaVuSans-48"/>
       <use x="63.623047" xlink:href="#DejaVuSans-46"/>
       <use x="95.410156" xlink:href="#DejaVuSans-48"/>
       <use x="159.033203" xlink:href="#DejaVuSans-48"/>
       <use x="222.65625" xlink:href="#DejaVuSans-48"/>
       <use x="286.279297" xlink:href="#DejaVuSans-48"/>
       <use x="349.902344" xlink:href="#DejaVuSans-54"/>
      </g>
     </g>
    </g>
    <g id="ytick_6">
     <g id="line2d_11">
      <g>
       <use style="stroke:#000000;stroke-width:0.8;" x="120.89" xlink:href="#m503104f2e2" y="195.235433"/>
      </g>
     </g>
     <g id="text_12">
      <!-- 0.00007 -->
      <defs>
       <path d="M 8.203125 72.90625 
L 55.078125 72.90625 
L 55.078125 68.703125 
L 28.609375 0 
L 18.3125 0 
L 43.21875 64.59375 
L 8.203125 64.59375 
z
" id="DejaVuSans-55"/>
      </defs>
      <g transform="translate(31.18375 202.833871)scale(0.2 -0.2)">
       <use xlink:href="#DejaVuSans-48"/>
       <use x="63.623047" xlink:href="#DejaVuSans-46"/>
       <use x="95.410156" xlink:href="#DejaVuSans-48"/>
       <use x="159.033203" xlink:href="#DejaVuSans-48"/>
       <use x="222.65625" xlink:href="#DejaVuSans-48"/>
       <use x="286.279297" xlink:href="#DejaVuSans-48"/>
       <use x="349.902344" xlink:href="#DejaVuSans-55"/>
      </g>
     </g>
    </g>
    <g id="ytick_7">
     <g id="line2d_12">
      <g>
       <use style="stroke:#000000;stroke-width:0.8;" x="120.89" xlink:href="#m503104f2e2" y="163.854834"/>
      </g>
     </g>
     <g id="text_13">
      <!-- 0.00008 -->
      <g transform="translate(31.18375 171.453272)scale(0.2 -0.2)">
       <use xlink:href="#DejaVuSans-48"/>
       <use x="63.623047" xlink:href="#DejaVuSans-46"/>
       <use x="95.410156" xlink:href="#DejaVuSans-48"/>
       <use x="159.033203" xlink:href="#DejaVuSans-48"/>
       <use x="222.65625" xlink:href="#DejaVuSans-48"/>
       <use x="286.279297" xlink:href="#DejaVuSans-48"/>
       <use x="349.902344" xlink:href="#DejaVuSans-56"/>
      </g>
     </g>
    </g>
    <g id="ytick_8">
     <g id="line2d_13">
      <g>
       <use style="stroke:#000000;stroke-width:0.8;" x="120.89" xlink:href="#m503104f2e2" y="132.474235"/>
      </g>
     </g>
     <g id="text_14">
      <!-- 0.00009 -->
      <defs>
       <path d="M 10.984375 1.515625 
L 10.984375 10.5 
Q 14.703125 8.734375 18.5 7.8125 
Q 22.3125 6.890625 25.984375 6.890625 
Q 35.75 6.890625 40.890625 13.453125 
Q 46.046875 20.015625 46.78125 33.40625 
Q 43.953125 29.203125 39.59375 26.953125 
Q 35.25 24.703125 29.984375 24.703125 
Q 19.046875 24.703125 12.671875 31.3125 
Q 6.296875 37.9375 6.296875 49.421875 
Q 6.296875 60.640625 12.9375 67.421875 
Q 19.578125 74.21875 30.609375 74.21875 
Q 43.265625 74.21875 49.921875 64.515625 
Q 56.59375 54.828125 56.59375 36.375 
Q 56.59375 19.140625 48.40625 8.859375 
Q 40.234375 -1.421875 26.421875 -1.421875 
Q 22.703125 -1.421875 18.890625 -0.6875 
Q 15.09375 0.046875 10.984375 1.515625 
z
M 30.609375 32.421875 
Q 37.25 32.421875 41.125 36.953125 
Q 45.015625 41.5 45.015625 49.421875 
Q 45.015625 57.28125 41.125 61.84375 
Q 37.25 66.40625 30.609375 66.40625 
Q 23.96875 66.40625 20.09375 61.84375 
Q 16.21875 57.28125 16.21875 49.421875 
Q 16.21875 41.5 20.09375 36.953125 
Q 23.96875 32.421875 30.609375 32.421875 
z
" id="DejaVuSans-57"/>
      </defs>
      <g transform="translate(31.18375 140.072673)scale(0.2 -0.2)">
       <use xlink:href="#DejaVuSans-48"/>
       <use x="63.623047" xlink:href="#DejaVuSans-46"/>
       <use x="95.410156" xlink:href="#DejaVuSans-48"/>
       <use x="159.033203" xlink:href="#DejaVuSans-48"/>
       <use x="222.65625" xlink:href="#DejaVuSans-48"/>
       <use x="286.279297" xlink:href="#DejaVuSans-48"/>
       <use x="349.902344" xlink:href="#DejaVuSans-57"/>
      </g>
     </g>
    </g>
    <g id="ytick_9">
     <g id="line2d_14">
      <g>
       <use style="stroke:#000000;stroke-width:0.8;" x="120.89" xlink:href="#m503104f2e2" y="101.093636"/>
      </g>
     </g>
     <g id="text_15">
      <!-- 0.00010 -->
      <defs>
       <path d="M 12.40625 8.296875 
L 28.515625 8.296875 
L 28.515625 63.921875 
L 10.984375 60.40625 
L 10.984375 69.390625 
L 28.421875 72.90625 
L 38.28125 72.90625 
L 38.28125 8.296875 
L 54.390625 8.296875 
L 54.390625 0 
L 12.40625 0 
z
" id="DejaVuSans-49"/>
      </defs>
      <g transform="translate(31.18375 108.692074)scale(0.2 -0.2)">
       <use xlink:href="#DejaVuSans-48"/>
       <use x="63.623047" xlink:href="#DejaVuSans-46"/>
       <use x="95.410156" xlink:href="#DejaVuSans-48"/>
       <use x="159.033203" xlink:href="#DejaVuSans-48"/>
       <use x="222.65625" xlink:href="#DejaVuSans-48"/>
       <use x="286.279297" xlink:href="#DejaVuSans-49"/>
       <use x="349.902344" xlink:href="#DejaVuSans-48"/>
      </g>
     </g>
    </g>
    <g id="text_16">
     <!-- defense impact Value -->
     <defs>
      <path d="M 45.40625 46.390625 
L 45.40625 75.984375 
L 54.390625 75.984375 
L 54.390625 0 
L 45.40625 0 
L 45.40625 8.203125 
Q 42.578125 3.328125 38.25 0.953125 
Q 33.9375 -1.421875 27.875 -1.421875 
Q 17.96875 -1.421875 11.734375 6.484375 
Q 5.515625 14.40625 5.515625 27.296875 
Q 5.515625 40.1875 11.734375 48.09375 
Q 17.96875 56 27.875 56 
Q 33.9375 56 38.25 53.625 
Q 42.578125 51.265625 45.40625 46.390625 
z
M 14.796875 27.296875 
Q 14.796875 17.390625 18.875 11.75 
Q 22.953125 6.109375 30.078125 6.109375 
Q 37.203125 6.109375 41.296875 11.75 
Q 45.40625 17.390625 45.40625 27.296875 
Q 45.40625 37.203125 41.296875 42.84375 
Q 37.203125 48.484375 30.078125 48.484375 
Q 22.953125 48.484375 18.875 42.84375 
Q 14.796875 37.203125 14.796875 27.296875 
z
" id="DejaVuSans-100"/>
      <path d="M 54.890625 33.015625 
L 54.890625 0 
L 45.90625 0 
L 45.90625 32.71875 
Q 45.90625 40.484375 42.875 44.328125 
Q 39.84375 48.1875 33.796875 48.1875 
Q 26.515625 48.1875 22.3125 43.546875 
Q 18.109375 38.921875 18.109375 30.90625 
L 18.109375 0 
L 9.078125 0 
L 9.078125 54.6875 
L 18.109375 54.6875 
L 18.109375 46.1875 
Q 21.34375 51.125 25.703125 53.5625 
Q 30.078125 56 35.796875 56 
Q 45.21875 56 50.046875 50.171875 
Q 54.890625 44.34375 54.890625 33.015625 
z
" id="DejaVuSans-110"/>
      <path d="M 9.421875 54.6875 
L 18.40625 54.6875 
L 18.40625 0 
L 9.421875 0 
z
M 9.421875 75.984375 
L 18.40625 75.984375 
L 18.40625 64.59375 
L 9.421875 64.59375 
z
" id="DejaVuSans-105"/>
      <path d="M 18.109375 8.203125 
L 18.109375 -20.796875 
L 9.078125 -20.796875 
L 9.078125 54.6875 
L 18.109375 54.6875 
L 18.109375 46.390625 
Q 20.953125 51.265625 25.265625 53.625 
Q 29.59375 56 35.59375 56 
Q 45.5625 56 51.78125 48.09375 
Q 58.015625 40.1875 58.015625 27.296875 
Q 58.015625 14.40625 51.78125 6.484375 
Q 45.5625 -1.421875 35.59375 -1.421875 
Q 29.59375 -1.421875 25.265625 0.953125 
Q 20.953125 3.328125 18.109375 8.203125 
z
M 48.6875 27.296875 
Q 48.6875 37.203125 44.609375 42.84375 
Q 40.53125 48.484375 33.40625 48.484375 
Q 26.265625 48.484375 22.1875 42.84375 
Q 18.109375 37.203125 18.109375 27.296875 
Q 18.109375 17.390625 22.1875 11.75 
Q 26.265625 6.109375 33.40625 6.109375 
Q 40.53125 6.109375 44.609375 11.75 
Q 48.6875 17.390625 48.6875 27.296875 
z
" id="DejaVuSans-112"/>
      <path d="M 48.78125 52.59375 
L 48.78125 44.1875 
Q 44.96875 46.296875 41.140625 47.34375 
Q 37.3125 48.390625 33.40625 48.390625 
Q 24.65625 48.390625 19.8125 42.84375 
Q 14.984375 37.3125 14.984375 27.296875 
Q 14.984375 17.28125 19.8125 11.734375 
Q 24.65625 6.203125 33.40625 6.203125 
Q 37.3125 6.203125 41.140625 7.25 
Q 44.96875 8.296875 48.78125 10.40625 
L 48.78125 2.09375 
Q 45.015625 0.34375 40.984375 -0.53125 
Q 36.96875 -1.421875 32.421875 -1.421875 
Q 20.0625 -1.421875 12.78125 6.34375 
Q 5.515625 14.109375 5.515625 27.296875 
Q 5.515625 40.671875 12.859375 48.328125 
Q 20.21875 56 33.015625 56 
Q 37.15625 56 41.109375 55.140625 
Q 45.0625 54.296875 48.78125 52.59375 
z
" id="DejaVuSans-99"/>
      <path d="M 18.3125 70.21875 
L 18.3125 54.6875 
L 36.8125 54.6875 
L 36.8125 47.703125 
L 18.3125 47.703125 
L 18.3125 18.015625 
Q 18.3125 11.328125 20.140625 9.421875 
Q 21.96875 7.515625 27.59375 7.515625 
L 36.8125 7.515625 
L 36.8125 0 
L 27.59375 0 
Q 17.1875 0 13.234375 3.875 
Q 9.28125 7.765625 9.28125 18.015625 
L 9.28125 47.703125 
L 2.6875 47.703125 
L 2.6875 54.6875 
L 9.28125 54.6875 
L 9.28125 70.21875 
z
" id="DejaVuSans-116"/>
      <path d="M 28.609375 0 
L 0.78125 72.90625 
L 11.078125 72.90625 
L 34.1875 11.53125 
L 57.328125 72.90625 
L 67.578125 72.90625 
L 39.796875 0 
z
" id="DejaVuSans-86"/>
      <path d="M 9.421875 75.984375 
L 18.40625 75.984375 
L 18.40625 0 
L 9.421875 0 
z
" id="DejaVuSans-108"/>
      <path d="M 8.5 21.578125 
L 8.5 54.6875 
L 17.484375 54.6875 
L 17.484375 21.921875 
Q 17.484375 14.15625 20.5 10.265625 
Q 23.53125 6.390625 29.59375 6.390625 
Q 36.859375 6.390625 41.078125 11.03125 
Q 45.3125 15.671875 45.3125 23.6875 
L 45.3125 54.6875 
L 54.296875 54.6875 
L 54.296875 0 
L 45.3125 0 
L 45.3125 8.40625 
Q 42.046875 3.421875 37.71875 1 
Q 33.40625 -1.421875 27.6875 -1.421875 
Q 18.265625 -1.421875 13.375 4.4375 
Q 8.5 10.296875 8.5 21.578125 
z
M 31.109375 56 
z
" id="DejaVuSans-117"/>
     </defs>
     <g transform="translate(23.717604 317.756562)rotate(-90)scale(0.166667 -0.166667)">
      <use xlink:href="#DejaVuSans-100"/>
      <use x="63.476562" xlink:href="#DejaVuSans-101"/>
      <use x="125" xlink:href="#DejaVuSans-102"/>
      <use x="160.205078" xlink:href="#DejaVuSans-101"/>
      <use x="221.728516" xlink:href="#DejaVuSans-110"/>
      <use x="285.107422" xlink:href="#DejaVuSans-115"/>
      <use x="337.207031" xlink:href="#DejaVuSans-101"/>
      <use x="398.730469" xlink:href="#DejaVuSans-32"/>
      <use x="430.517578" xlink:href="#DejaVuSans-105"/>
      <use x="458.300781" xlink:href="#DejaVuSans-109"/>
      <use x="555.712891" xlink:href="#DejaVuSans-112"/>
      <use x="619.189453" xlink:href="#DejaVuSans-97"/>
      <use x="680.46875" xlink:href="#DejaVuSans-99"/>
      <use x="735.449219" xlink:href="#DejaVuSans-116"/>
      <use x="774.658203" xlink:href="#DejaVuSans-32"/>
      <use x="806.445312" xlink:href="#DejaVuSans-86"/>
      <use x="874.744141" xlink:href="#DejaVuSans-97"/>
      <use x="936.023438" xlink:href="#DejaVuSans-108"/>
      <use x="963.806641" xlink:href="#DejaVuSans-117"/>
      <use x="1027.185547" xlink:href="#DejaVuSans-101"/>
     </g>
    </g>
    <g id="text_17">
     <!-- +9.999e−1 -->
     <defs>
      <path d="M 46 62.703125 
L 46 35.5 
L 73.1875 35.5 
L 73.1875 27.203125 
L 46 27.203125 
L 46 0 
L 37.796875 0 
L 37.796875 27.203125 
L 10.59375 27.203125 
L 10.59375 35.5 
L 37.796875 35.5 
L 37.796875 62.703125 
z
" id="DejaVuSans-43"/>
      <path d="M 10.59375 35.5 
L 73.1875 35.5 
L 73.1875 27.203125 
L 10.59375 27.203125 
z
" id="DejaVuSans-8722"/>
     </defs>
     <g transform="translate(120.89 85.5)scale(0.1 -0.1)">
      <use xlink:href="#DejaVuSans-43"/>
      <use x="83.789062" xlink:href="#DejaVuSans-57"/>
      <use x="147.412109" xlink:href="#DejaVuSans-46"/>
      <use x="179.199219" xlink:href="#DejaVuSans-57"/>
      <use x="242.822266" xlink:href="#DejaVuSans-57"/>
      <use x="306.445312" xlink:href="#DejaVuSans-57"/>
      <use x="370.068359" xlink:href="#DejaVuSans-101"/>
      <use x="431.591797" xlink:href="#DejaVuSans-8722"/>
      <use x="515.380859" xlink:href="#DejaVuSans-49"/>
     </g>
    </g>
   </g>
   <g id="line2d_15">
    <path clip-path="url(#paf903777be)" d="M 139.449545 101.093636 
L 143.573889 101.093636 
L 147.698232 116.746888 
L 151.822576 119.47099 
L 155.946919 143.5746 
L 160.071263 134.793884 
L 164.195606 156.898789 
L 168.319949 177.111336 
L 172.444293 192.2167 
L 176.568636 185.700649 
L 180.69298 173.598833 
L 184.817323 176.967386 
L 188.941667 177.374813 
L 193.06601 182.480176 
L 197.190354 201.723717 
L 201.314697 191.951688 
L 205.43904 183.100943 
L 209.563384 190.934279 
L 213.687727 172.639209 
L 217.812071 177.744355 
L 221.936414 179.251952 
L 226.060758 201.492672 
L 230.185101 194.946413 
L 234.309444 189.202524 
L 238.433788 205.063561 
L 242.558131 217.781529 
L 246.682475 197.457493 
L 250.806818 200.596911 
L 254.931162 197.532968 
L 259.055505 207.494223 
L 263.179848 205.794525 
L 267.304192 196.836047 
L 271.428535 206.148874 
L 275.552879 210.052587 
L 279.677222 228.866132 
L 283.801566 234.154969 
L 287.925909 233.449914 
L 292.050253 227.999367 
L 296.174596 204.226841 
L 300.298939 207.482 
L 304.423283 223.45278 
L 308.547626 227.789269 
L 312.67197 228.021811 
L 316.796313 218.636812 
L 320.920657 233.846727 
L 325.045 237.863585 
L 329.169343 208.77447 
L 333.293687 219.571379 
L 337.41803 223.34141 
L 341.542374 216.189771 
L 345.666717 223.625736 
L 349.791061 245.053203 
L 353.915404 248.810507 
L 358.039747 254.738012 
L 362.164091 273.004112 
L 366.288434 263.457448 
L 370.412778 254.666605 
L 374.537121 239.016639 
L 378.661465 213.736423 
L 382.785808 218.899735 
L 386.910152 210.498438 
L 391.034495 215.054513 
L 395.158838 217.150682 
L 399.283182 209.282948 
L 403.407525 182.266335 
L 407.531869 179.409911 
L 411.656212 191.819299 
L 415.780556 188.432787 
L 419.904899 203.396163 
L 424.029242 204.967743 
L 428.153586 204.443386 
L 432.277929 204.306453 
L 436.402273 204.186354 
L 440.526616 164.669162 
L 444.65096 150.947352 
L 448.775303 128.524068 
L 452.899646 156.64265 
L 457.02399 124.131472 
L 461.148333 125.509138 
L 465.272677 152.621506 
L 469.39702 117.618599 
L 473.521364 113.427151 
L 477.645707 193.930108 
L 481.770051 147.716415 
L 485.894394 156.059014 
L 490.018737 170.735716 
L 494.143081 170.735716 
L 498.267424 190.264309 
L 502.391768 138.631677 
L 506.516111 156.605887 
L 510.640455 101.093636 
" style="fill:none;stroke:#1f77b4;stroke-linecap:square;stroke-width:1.5;"/>
   </g>
   <g id="line2d_16">
    <path clip-path="url(#paf903777be)" d="M 139.449545 101.093636 
L 143.573889 101.093636 
L 147.698232 106.057348 
L 151.822576 109.071324 
L 155.946919 128.962224 
L 160.071263 138.26028 
L 164.195606 145.283407 
L 168.319949 154.743143 
L 172.444293 165.840194 
L 176.568636 170.362909 
L 180.69298 182.092599 
L 184.817323 182.534343 
L 188.941667 190.33745 
L 193.06601 187.833884 
L 197.190354 179.115586 
L 201.314697 192.175579 
L 205.43904 200.167583 
L 209.563384 200.829349 
L 213.687727 197.295459 
L 217.812071 202.260102 
L 221.936414 207.587707 
L 226.060758 226.466068 
L 230.185101 227.810725 
L 234.309444 232.201723 
L 238.433788 221.469473 
L 242.558131 220.497655 
L 246.682475 224.286236 
L 250.806818 238.584764 
L 254.931162 215.853044 
L 259.055505 212.918506 
L 263.179848 206.705633 
L 267.304192 225.704003 
L 271.428535 219.750711 
L 275.552879 205.947888 
L 279.677222 215.396249 
L 283.801566 217.284074 
L 287.925909 221.277355 
L 292.050253 211.910403 
L 296.174596 218.040098 
L 300.298939 211.657394 
L 304.423283 216.245773 
L 308.547626 210.733481 
L 312.67197 213.145592 
L 316.796313 209.767223 
L 320.920657 213.682215 
L 325.045 210.558479 
L 329.169343 211.709858 
L 333.293687 197.958184 
L 337.41803 193.098219 
L 341.542374 199.099227 
L 345.666717 198.802514 
L 349.791061 205.042696 
L 353.915404 222.449061 
L 358.039747 232.883043 
L 362.164091 216.087321 
L 366.288434 217.672585 
L 370.412778 198.170857 
L 374.537121 214.896807 
L 378.661465 207.232992 
L 382.785808 235.091049 
L 386.910152 228.116065 
L 391.034495 231.275974 
L 395.158838 201.408824 
L 399.283182 212.22011 
L 403.407525 222.950522 
L 407.531869 236.777866 
L 411.656212 203.888865 
L 415.780556 215.343457 
L 419.904899 172.010805 
L 424.029242 177.774353 
L 428.153586 182.479582 
L 432.277929 199.526936 
L 436.402273 208.000008 
L 440.526616 181.680924 
L 444.65096 200.005113 
L 448.775303 261.159778 
L 452.899646 208.574015 
L 457.02399 213.853255 
L 461.148333 139.784281 
L 465.272677 167.514916 
L 469.39702 149.394745 
L 473.521364 159.341123 
L 477.645707 181.440162 
L 481.770051 226.984959 
L 485.894394 110.167824 
L 490.018737 101.093636 
L 494.143081 101.093636 
L 498.267424 181.487385 
L 502.391768 129.854753 
L 506.516111 129.854753 
L 510.640455 101.093636 
" style="fill:none;stroke:#ff7f0e;stroke-linecap:square;stroke-width:1.5;"/>
   </g>
   <g id="line2d_17">
    <path clip-path="url(#paf903777be)" d="M 139.449545 101.093636 
L 143.573889 101.093636 
L 147.698232 102.539498 
L 151.822576 106.983181 
L 155.946919 123.695398 
L 160.071263 127.66043 
L 164.195606 138.851431 
L 168.319949 144.718412 
L 172.444293 165.163876 
L 176.568636 175.282817 
L 180.69298 176.545534 
L 184.817323 164.068365 
L 188.941667 157.968241 
L 193.06601 160.715354 
L 197.190354 174.244963 
L 201.314697 194.963112 
L 205.43904 193.441299 
L 209.563384 194.295882 
L 213.687727 181.555069 
L 217.812071 187.157773 
L 221.936414 197.500369 
L 226.060758 205.575735 
L 230.185101 215.907223 
L 234.309444 218.056732 
L 238.433788 210.25679 
L 242.558131 205.816026 
L 246.682475 200.71196 
L 250.806818 212.956846 
L 254.931162 207.419885 
L 259.055505 199.80692 
L 263.179848 210.31205 
L 267.304192 221.228895 
L 271.428535 212.159684 
L 275.552879 209.019109 
L 279.677222 222.31889 
L 283.801566 232.865703 
L 287.925909 221.720043 
L 292.050253 221.032083 
L 296.174596 223.588881 
L 300.298939 204.866924 
L 304.423283 204.170449 
L 308.547626 216.723633 
L 312.67197 228.444041 
L 316.796313 237.199615 
L 320.920657 235.70406 
L 325.045 215.277244 
L 329.169343 225.805356 
L 333.293687 239.570052 
L 337.41803 231.914111 
L 341.542374 222.814432 
L 345.666717 223.148798 
L 349.791061 224.142975 
L 353.915404 219.932589 
L 358.039747 232.787119 
L 362.164091 233.552961 
L 366.288434 237.489055 
L 370.412778 228.580215 
L 374.537121 220.977883 
L 378.661465 214.770588 
L 382.785808 219.347295 
L 386.910152 226.942398 
L 391.034495 214.203518 
L 395.158838 196.581929 
L 399.283182 194.282659 
L 403.407525 167.032759 
L 407.531869 164.217038 
L 411.656212 171.738576 
L 415.780556 194.616079 
L 419.904899 233.606456 
L 424.029242 186.621185 
L 428.153586 187.252025 
L 432.277929 190.5562 
L 436.402273 204.609711 
L 440.526616 207.288037 
L 444.65096 193.666752 
L 448.775303 183.049757 
L 452.899646 222.889277 
L 457.02399 151.593245 
L 461.148333 170.050739 
L 465.272677 174.691548 
L 469.39702 184.169751 
L 473.521364 144.495916 
L 477.645707 198.791087 
L 481.770051 196.131313 
L 485.894394 201.501325 
L 490.018737 196.058403 
L 494.143081 352.966364 
L 498.267424 109.870561 
L 502.391768 109.870561 
L 506.516111 101.093636 
L 510.640455 101.093636 
" style="fill:none;stroke:#2ca02c;stroke-linecap:square;stroke-width:1.5;"/>
   </g>
   <g id="line2d_18">
    <path clip-path="url(#paf903777be)" d="M 139.449545 101.093636 
L 143.573889 101.093636 
L 147.698232 106.238939 
L 151.822576 118.972514 
L 155.946919 130.499703 
L 160.071263 133.222434 
L 164.195606 142.187792 
L 168.319949 161.055027 
L 172.444293 164.137926 
L 176.568636 172.121752 
L 180.69298 158.623843 
L 184.817323 166.344997 
L 188.941667 173.100975 
L 193.06601 171.440177 
L 197.190354 161.221712 
L 201.314697 178.88503 
L 205.43904 173.418883 
L 209.563384 171.934487 
L 213.687727 177.39785 
L 217.812071 170.956459 
L 221.936414 172.093846 
L 226.060758 166.039646 
L 230.185101 165.57588 
L 234.309444 169.40667 
L 238.433788 172.856927 
L 242.558131 167.343826 
L 246.682475 169.416039 
L 250.806818 172.001415 
L 254.931162 166.551927 
L 259.055505 161.282489 
L 263.179848 157.949443 
L 267.304192 159.875888 
L 271.428535 172.321905 
L 275.552879 176.454686 
L 279.677222 167.300529 
L 283.801566 187.346359 
L 287.925909 183.666891 
L 292.050253 184.409659 
L 296.174596 166.168031 
L 300.298939 166.084679 
L 304.423283 172.538764 
L 308.547626 166.990014 
L 312.67197 179.436449 
L 316.796313 184.125558 
L 320.920657 180.104513 
L 325.045 182.135517 
L 329.169343 186.252234 
L 333.293687 187.743245 
L 337.41803 190.633756 
L 341.542374 183.974948 
L 345.666717 192.894755 
L 349.791061 201.365736 
L 353.915404 189.606565 
L 358.039747 191.143803 
L 362.164091 191.639885 
L 366.288434 191.489336 
L 370.412778 188.65014 
L 374.537121 191.848608 
L 378.661465 193.879515 
L 382.785808 195.472923 
L 386.910152 206.152463 
L 391.034495 220.725287 
L 395.158838 231.540673 
L 399.283182 225.013862 
L 403.407525 247.793831 
L 407.531869 218.994481 
L 411.656212 206.837141 
L 415.780556 204.745849 
L 419.904899 205.848904 
L 424.029242 213.965733 
L 428.153586 217.665845 
L 432.277929 212.600508 
L 436.402273 210.120905 
L 440.526616 171.522585 
L 444.65096 158.188976 
L 448.775303 163.945472 
L 452.899646 169.218812 
L 457.02399 179.719843 
L 461.148333 194.91671 
L 465.272677 180.247268 
L 469.39702 193.439541 
L 473.521364 215.448125 
L 477.645707 167.09722 
L 481.770051 141.191593 
L 485.894394 141.191593 
L 490.018737 154.557579 
L 494.143081 154.557579 
L 498.267424 168.160463 
L 502.391768 168.160463 
L 506.516111 168.160463 
L 510.640455 101.093636 
" style="fill:none;stroke:#d62728;stroke-linecap:square;stroke-width:1.5;"/>
   </g>
   <g id="line2d_19">
    <path clip-path="url(#paf903777be)" d="M 139.449545 101.093636 
L 143.573889 101.093636 
L 147.698232 101.921127 
L 151.822576 106.810089 
L 155.946919 110.555521 
L 160.071263 122.195439 
L 164.195606 123.582203 
L 168.319949 127.300361 
L 172.444293 119.649275 
L 176.568636 118.91876 
L 180.69298 133.092854 
L 184.817323 137.530311 
L 188.941667 140.268991 
L 193.06601 147.248809 
L 197.190354 146.958348 
L 201.314697 148.513937 
L 205.43904 148.75045 
L 209.563384 152.548761 
L 213.687727 158.4104 
L 217.812071 156.92691 
L 221.936414 161.557743 
L 226.060758 163.76369 
L 230.185101 164.402594 
L 234.309444 165.378245 
L 238.433788 171.537952 
L 242.558131 168.454333 
L 246.682475 169.569881 
L 250.806818 154.136177 
L 254.931162 148.34313 
L 259.055505 151.240469 
L 263.179848 154.01099 
L 267.304192 160.075468 
L 271.428535 162.466039 
L 275.552879 164.431862 
L 279.677222 154.129816 
L 283.801566 153.673194 
L 287.925909 150.637831 
L 292.050253 154.414271 
L 296.174596 154.346173 
L 300.298939 149.174771 
L 304.423283 150.345505 
L 308.547626 157.157519 
L 312.67197 161.518439 
L 316.796313 159.865048 
L 320.920657 155.673939 
L 325.045 157.076648 
L 329.169343 157.453747 
L 333.293687 160.462661 
L 337.41803 172.782575 
L 341.542374 171.41718 
L 345.666717 167.934769 
L 349.791061 174.461923 
L 353.915404 175.339669 
L 358.039747 173.661393 
L 362.164091 179.073295 
L 366.288434 179.518941 
L 370.412778 177.337497 
L 374.537121 174.612533 
L 378.661465 171.173787 
L 382.785808 167.755228 
L 386.910152 167.645696 
L 391.034495 153.923882 
L 395.158838 159.625561 
L 399.283182 154.490847 
L 403.407525 157.372735 
L 407.531869 161.943025 
L 411.656212 145.101416 
L 415.780556 141.410312 
L 419.904899 147.125879 
L 424.029242 145.69347 
L 428.153586 142.415749 
L 432.277929 145.719455 
L 436.402273 133.690487 
L 440.526616 132.583382 
L 444.65096 130.199378 
L 448.775303 137.835735 
L 452.899646 128.531028 
L 457.02399 129.778038 
L 461.148333 122.122091 
L 465.272677 122.217999 
L 469.39702 127.468304 
L 473.521364 127.468304 
L 477.645707 127.468304 
L 481.770051 120.205999 
L 485.894394 120.205999 
L 490.018737 127.736139 
L 494.143081 127.736139 
L 498.267424 130.176432 
L 502.391768 131.850735 
L 506.516111 131.850735 
L 510.640455 104.442242 
" style="fill:none;stroke:#9467bd;stroke-linecap:square;stroke-width:1.5;"/>
   </g>
   <g id="line2d_20">
    <path clip-path="url(#paf903777be)" d="M 139.449545 101.093636 
L 143.573889 101.093636 
L 147.698232 113.229038 
L 151.822576 131.827886 
L 155.946919 177.810247 
L 160.071263 156.591582 
L 164.195606 162.110468 
L 168.319949 173.092824 
L 172.444293 182.030334 
L 176.568636 211.502089 
L 180.69298 164.091124 
L 184.817323 169.341706 
L 188.941667 173.178863 
L 193.06601 175.750386 
L 197.190354 184.544373 
L 201.314697 194.671519 
L 205.43904 191.725128 
L 209.563384 195.925625 
L 213.687727 197.331202 
L 217.812071 184.633046 
L 221.936414 193.066044 
L 226.060758 202.149097 
L 230.185101 194.20387 
L 234.309444 195.684925 
L 238.433788 200.828845 
L 242.558131 205.525381 
L 246.682475 189.790923 
L 250.806818 199.1555 
L 254.931162 198.32254 
L 259.055505 204.602416 
L 263.179848 199.016435 
L 267.304192 196.859289 
L 271.428535 205.090761 
L 275.552879 203.787854 
L 279.677222 221.659901 
L 283.801566 215.70755 
L 287.925909 195.782677 
L 292.050253 213.880041 
L 296.174596 195.945395 
L 300.298939 199.348299 
L 304.423283 204.871127 
L 308.547626 201.703839 
L 312.67197 203.300281 
L 316.796313 195.44342 
L 320.920657 185.454288 
L 325.045 200.883452 
L 329.169343 211.656185 
L 333.293687 222.591731 
L 337.41803 239.705815 
L 341.542374 227.904416 
L 345.666717 222.901094 
L 349.791061 226.72704 
L 353.915404 222.223902 
L 358.039747 232.24254 
L 362.164091 248.667842 
L 366.288434 230.510594 
L 370.412778 221.338583 
L 374.537121 222.181203 
L 378.661465 222.347074 
L 382.785808 210.128046 
L 386.910152 223.331864 
L 391.034495 213.179649 
L 395.158838 194.324847 
L 399.283182 185.335948 
L 403.407525 181.308944 
L 407.531869 175.159921 
L 411.656212 179.742364 
L 415.780556 206.806015 
L 419.904899 217.693382 
L 424.029242 203.331144 
L 428.153586 192.514626 
L 432.277929 238.562752 
L 436.402273 263.175512 
L 440.526616 229.16515 
L 444.65096 195.616345 
L 448.775303 154.511154 
L 452.899646 140.310009 
L 457.02399 162.419169 
L 461.148333 168.128621 
L 465.272677 143.085362 
L 469.39702 173.004269 
L 473.521364 144.106878 
L 477.645707 198.82463 
L 481.770051 229.124942 
L 485.894394 247.582872 
L 490.018737 142.351603 
L 494.143081 347.115081 
L 498.267424 181.487385 
L 502.391768 181.487385 
L 506.516111 181.487385 
L 510.640455 101.093636 
" style="fill:none;stroke:#8c564b;stroke-linecap:square;stroke-width:1.5;"/>
   </g>
   <g id="line2d_21">
    <path clip-path="url(#paf903777be)" d="M 139.449545 101.093636 
L 143.573889 101.093636 
L 147.698232 102.539498 
L 151.822576 112.404361 
L 155.946919 108.592909 
L 160.071263 123.989556 
L 164.195606 145.932436 
L 168.319949 144.532179 
L 172.444293 139.272581 
L 176.568636 151.326399 
L 180.69298 157.06781 
L 184.817323 156.196536 
L 188.941667 160.183251 
L 193.06601 170.439283 
L 197.190354 178.651967 
L 201.314697 187.472673 
L 205.43904 191.798503 
L 209.563384 190.471933 
L 213.687727 166.231635 
L 217.812071 167.009963 
L 221.936414 178.159917 
L 226.060758 199.099063 
L 230.185101 193.517695 
L 234.309444 190.895715 
L 238.433788 190.944038 
L 242.558131 200.315352 
L 246.682475 192.766066 
L 250.806818 189.020623 
L 254.931162 185.603928 
L 259.055505 173.286278 
L 263.179848 181.589512 
L 267.304192 186.645639 
L 271.428535 210.486063 
L 275.552879 222.517601 
L 279.677222 235.153573 
L 283.801566 232.624442 
L 287.925909 213.906196 
L 292.050253 214.147454 
L 296.174596 206.458684 
L 300.298939 201.554103 
L 304.423283 216.487866 
L 308.547626 215.333393 
L 312.67197 208.508413 
L 316.796313 220.968168 
L 320.920657 210.190699 
L 325.045 205.402307 
L 329.169343 211.523902 
L 333.293687 208.258175 
L 337.41803 212.94652 
L 341.542374 216.624833 
L 345.666717 213.978623 
L 349.791061 242.850425 
L 353.915404 244.710675 
L 358.039747 249.208936 
L 362.164091 245.482981 
L 366.288434 256.815648 
L 370.412778 239.289543 
L 374.537121 222.34801 
L 378.661465 207.968237 
L 382.785808 218.667705 
L 386.910152 197.381333 
L 391.034495 196.327583 
L 395.158838 220.615133 
L 399.283182 224.66651 
L 403.407525 209.919857 
L 407.531869 208.77523 
L 411.656212 225.39307 
L 415.780556 181.775496 
L 419.904899 203.177552 
L 424.029242 188.619447 
L 428.153586 189.336519 
L 432.277929 174.115702 
L 436.402273 183.16051 
L 440.526616 229.679475 
L 444.65096 204.490377 
L 448.775303 201.408143 
L 452.899646 194.936234 
L 457.02399 161.462764 
L 461.148333 157.086195 
L 465.272677 125.316714 
L 469.39702 150.691513 
L 473.521364 172.448438 
L 477.645707 143.127391 
L 481.770051 135.701368 
L 485.894394 135.701368 
L 490.018737 135.327122 
L 494.143081 129.475839 
L 498.267424 101.093636 
L 502.391768 129.854753 
L 506.516111 129.854753 
L 510.640455 101.093636 
" style="fill:none;stroke:#e377c2;stroke-linecap:square;stroke-width:1.5;"/>
   </g>
   <g id="line2d_22">
    <path clip-path="url(#paf903777be)" d="M 139.449545 101.093636 
L 143.573889 101.093636 
L 147.698232 102.050928 
L 151.822576 123.419965 
L 155.946919 151.996586 
L 160.071263 158.04438 
L 164.195606 167.023589 
L 168.319949 180.137683 
L 172.444293 161.110893 
L 176.568636 180.912634 
L 180.69298 156.822833 
L 184.817323 165.838291 
L 188.941667 174.671325 
L 193.06601 169.770837 
L 197.190354 179.878375 
L 201.314697 191.302905 
L 205.43904 186.383469 
L 209.563384 196.500026 
L 213.687727 186.216409 
L 217.812071 183.498356 
L 221.936414 193.135156 
L 226.060758 216.503217 
L 230.185101 221.593316 
L 234.309444 213.411245 
L 238.433788 219.160152 
L 242.558131 207.701298 
L 246.682475 200.76712 
L 250.806818 204.7569 
L 254.931162 202.068062 
L 259.055505 198.407222 
L 263.179848 194.214761 
L 267.304192 190.505129 
L 271.428535 187.222103 
L 275.552879 204.278356 
L 279.677222 210.511781 
L 283.801566 202.420318 
L 287.925909 199.643176 
L 292.050253 215.40594 
L 296.174596 207.794142 
L 300.298939 223.85633 
L 304.423283 228.891069 
L 308.547626 219.160755 
L 312.67197 203.18785 
L 316.796313 195.878937 
L 320.920657 192.437684 
L 325.045 196.554074 
L 329.169343 196.953092 
L 333.293687 213.25263 
L 337.41803 226.716158 
L 341.542374 210.276575 
L 345.666717 208.659716 
L 349.791061 201.46803 
L 353.915404 206.054905 
L 358.039747 221.396405 
L 362.164091 218.467673 
L 366.288434 223.766267 
L 370.412778 215.146864 
L 374.537121 214.733886 
L 378.661465 196.740611 
L 382.785808 201.567145 
L 386.910152 227.418381 
L 391.034495 237.720723 
L 395.158838 249.123439 
L 399.283182 217.060677 
L 403.407525 204.074367 
L 407.531869 184.690455 
L 411.656212 201.40949 
L 415.780556 198.710593 
L 419.904899 221.086957 
L 424.029242 216.828733 
L 428.153586 222.497897 
L 432.277929 237.278738 
L 436.402273 229.548739 
L 440.526616 247.622395 
L 444.65096 267.743867 
L 448.775303 242.628599 
L 452.899646 198.217663 
L 457.02399 134.444096 
L 461.148333 134.699087 
L 465.272677 164.074454 
L 469.39702 164.638256 
L 473.521364 164.638256 
L 477.645707 203.067737 
L 481.770051 173.003245 
L 485.894394 174.704458 
L 490.018737 112.217101 
L 494.143081 112.217101 
L 498.267424 101.093636 
L 502.391768 101.093636 
L 506.516111 101.093636 
L 510.640455 101.093636 
" style="fill:none;stroke:#7f7f7f;stroke-linecap:square;stroke-width:1.5;"/>
   </g>
   <g id="line2d_23">
    <path clip-path="url(#paf903777be)" d="M 139.449545 101.093636 
L 143.573889 101.093636 
L 147.698232 102.050928 
L 151.822576 119.368907 
L 155.946919 170.413968 
L 160.071263 151.438382 
L 164.195606 166.891278 
L 168.319949 169.837972 
L 172.444293 169.191457 
L 176.568636 178.720224 
L 180.69298 172.277812 
L 184.817323 186.651584 
L 188.941667 176.253284 
L 193.06601 176.476024 
L 197.190354 176.92086 
L 201.314697 180.86514 
L 205.43904 181.790037 
L 209.563384 190.094967 
L 213.687727 186.183532 
L 217.812071 175.931055 
L 221.936414 187.162306 
L 226.060758 214.27658 
L 230.185101 217.784774 
L 234.309444 203.514535 
L 238.433788 206.307377 
L 242.558131 214.054639 
L 246.682475 190.662028 
L 250.806818 199.407455 
L 254.931162 201.216764 
L 259.055505 200.025175 
L 263.179848 199.805025 
L 267.304192 203.22898 
L 271.428535 208.585274 
L 275.552879 235.690385 
L 279.677222 247.654009 
L 283.801566 262.549113 
L 287.925909 234.841976 
L 292.050253 229.881843 
L 296.174596 211.116018 
L 300.298939 199.312701 
L 304.423283 223.761839 
L 308.547626 209.662186 
L 312.67197 222.928018 
L 316.796313 199.905536 
L 320.920657 188.772932 
L 325.045 211.310416 
L 329.169343 201.838736 
L 333.293687 202.918742 
L 337.41803 206.823614 
L 341.542374 207.136514 
L 345.666717 207.343988 
L 349.791061 234.075755 
L 353.915404 235.275854 
L 358.039747 253.760447 
L 362.164091 246.021071 
L 366.288434 217.878271 
L 370.412778 196.545633 
L 374.537121 213.032889 
L 378.661465 206.368024 
L 382.785808 217.603521 
L 386.910152 210.94155 
L 391.034495 203.984343 
L 395.158838 191.291791 
L 399.283182 202.729554 
L 403.407525 207.061895 
L 407.531869 188.857316 
L 411.656212 170.909619 
L 415.780556 193.181525 
L 419.904899 169.689805 
L 424.029242 156.29725 
L 428.153586 145.711921 
L 432.277929 181.074698 
L 436.402273 198.600596 
L 440.526616 183.474636 
L 444.65096 198.464277 
L 448.775303 216.8174 
L 452.899646 169.267102 
L 457.02399 129.218372 
L 461.148333 123.206916 
L 465.272677 130.031891 
L 469.39702 157.893307 
L 473.521364 157.893307 
L 477.645707 238.527974 
L 481.770051 256.582483 
L 485.894394 148.107946 
L 490.018737 131.605632 
L 494.143081 120.482167 
L 498.267424 181.487385 
L 502.391768 183.161688 
L 506.516111 147.828962 
L 510.640455 101.093636 
" style="fill:none;stroke:#bcbd22;stroke-linecap:square;stroke-width:1.5;"/>
   </g>
   <g id="patch_3">
    <path d="M 120.89 365.56 
L 120.89 88.5 
" style="fill:none;stroke:#000000;stroke-linecap:square;stroke-linejoin:miter;stroke-width:0.8;"/>
   </g>
   <g id="patch_4">
    <path d="M 529.2 365.56 
L 529.2 88.5 
" style="fill:none;stroke:#000000;stroke-linecap:square;stroke-linejoin:miter;stroke-width:0.8;"/>
   </g>
   <g id="patch_5">
    <path d="M 120.89 365.56 
L 529.2 365.56 
" style="fill:none;stroke:#000000;stroke-linecap:square;stroke-linejoin:miter;stroke-width:0.8;"/>
   </g>
   <g id="patch_6">
    <path d="M 120.89 88.5 
L 529.2 88.5 
" style="fill:none;stroke:#000000;stroke-linecap:square;stroke-linejoin:miter;stroke-width:0.8;"/>
   </g>
   <g id="legend_1">
    <g id="patch_7">
     <path d="M 131.39 81 
L 518.7 81 
Q 521.7 81 521.7 78 
L 521.7 13.448438 
Q 521.7 10.448438 518.7 10.448438 
L 131.39 10.448438 
Q 128.39 10.448438 128.39 13.448438 
L 128.39 78 
Q 128.39 81 131.39 81 
z
" style="fill:#ffffff;opacity:0.8;stroke:#cccccc;stroke-linejoin:miter;"/>
    </g>
    <g id="line2d_24">
     <path d="M 134.39 22.596094 
L 164.39 22.596094 
" style="fill:none;stroke:#1f77b4;stroke-linecap:square;stroke-width:1.5;"/>
    </g>
    <g id="line2d_25"/>
    <g id="text_18">
     <!-- Stra 1 -->
     <defs>
      <path d="M 53.515625 70.515625 
L 53.515625 60.890625 
Q 47.90625 63.578125 42.921875 64.890625 
Q 37.9375 66.21875 33.296875 66.21875 
Q 25.25 66.21875 20.875 63.09375 
Q 16.5 59.96875 16.5 54.203125 
Q 16.5 49.359375 19.40625 46.890625 
Q 22.3125 44.4375 30.421875 42.921875 
L 36.375 41.703125 
Q 47.40625 39.59375 52.65625 34.296875 
Q 57.90625 29 57.90625 20.125 
Q 57.90625 9.515625 50.796875 4.046875 
Q 43.703125 -1.421875 29.984375 -1.421875 
Q 24.8125 -1.421875 18.96875 -0.25 
Q 13.140625 0.921875 6.890625 3.21875 
L 6.890625 13.375 
Q 12.890625 10.015625 18.65625 8.296875 
Q 24.421875 6.59375 29.984375 6.59375 
Q 38.421875 6.59375 43.015625 9.90625 
Q 47.609375 13.234375 47.609375 19.390625 
Q 47.609375 24.75 44.3125 27.78125 
Q 41.015625 30.8125 33.5 32.328125 
L 27.484375 33.5 
Q 16.453125 35.6875 11.515625 40.375 
Q 6.59375 45.0625 6.59375 53.421875 
Q 6.59375 63.09375 13.40625 68.65625 
Q 20.21875 74.21875 32.171875 74.21875 
Q 37.3125 74.21875 42.625 73.28125 
Q 47.953125 72.359375 53.515625 70.515625 
z
" id="DejaVuSans-83"/>
      <path d="M 41.109375 46.296875 
Q 39.59375 47.171875 37.8125 47.578125 
Q 36.03125 48 33.890625 48 
Q 26.265625 48 22.1875 43.046875 
Q 18.109375 38.09375 18.109375 28.8125 
L 18.109375 0 
L 9.078125 0 
L 9.078125 54.6875 
L 18.109375 54.6875 
L 18.109375 46.1875 
Q 20.953125 51.171875 25.484375 53.578125 
Q 30.03125 56 36.53125 56 
Q 37.453125 56 38.578125 55.875 
Q 39.703125 55.765625 41.0625 55.515625 
z
" id="DejaVuSans-114"/>
     </defs>
     <g transform="translate(176.39 27.846094)scale(0.15 -0.15)">
      <use xlink:href="#DejaVuSans-83"/>
      <use x="63.476562" xlink:href="#DejaVuSans-116"/>
      <use x="102.685547" xlink:href="#DejaVuSans-114"/>
      <use x="143.798828" xlink:href="#DejaVuSans-97"/>
      <use x="205.078125" xlink:href="#DejaVuSans-32"/>
      <use x="236.865234" xlink:href="#DejaVuSans-49"/>
     </g>
    </g>
    <g id="line2d_26">
     <path d="M 134.39 44.613281 
L 164.39 44.613281 
" style="fill:none;stroke:#ff7f0e;stroke-linecap:square;stroke-width:1.5;"/>
    </g>
    <g id="line2d_27"/>
    <g id="text_19">
     <!-- Stra 2 -->
     <g transform="translate(176.39 49.863281)scale(0.15 -0.15)">
      <use xlink:href="#DejaVuSans-83"/>
      <use x="63.476562" xlink:href="#DejaVuSans-116"/>
      <use x="102.685547" xlink:href="#DejaVuSans-114"/>
      <use x="143.798828" xlink:href="#DejaVuSans-97"/>
      <use x="205.078125" xlink:href="#DejaVuSans-32"/>
      <use x="236.865234" xlink:href="#DejaVuSans-50"/>
     </g>
    </g>
    <g id="line2d_28">
     <path d="M 134.39 66.630469 
L 164.39 66.630469 
" style="fill:none;stroke:#2ca02c;stroke-linecap:square;stroke-width:1.5;"/>
    </g>
    <g id="line2d_29"/>
    <g id="text_20">
     <!-- Stra 3 -->
     <g transform="translate(176.39 71.880469)scale(0.15 -0.15)">
      <use xlink:href="#DejaVuSans-83"/>
      <use x="63.476562" xlink:href="#DejaVuSans-116"/>
      <use x="102.685547" xlink:href="#DejaVuSans-114"/>
      <use x="143.798828" xlink:href="#DejaVuSans-97"/>
      <use x="205.078125" xlink:href="#DejaVuSans-32"/>
      <use x="236.865234" xlink:href="#DejaVuSans-51"/>
     </g>
    </g>
    <g id="line2d_30">
     <path d="M 232.469115 22.596094 
L 262.469115 22.596094 
" style="fill:none;stroke:#d62728;stroke-linecap:square;stroke-width:1.5;"/>
    </g>
    <g id="line2d_31"/>
    <g id="text_21">
     <!-- Stra 4 -->
     <g transform="translate(274.469115 27.846094)scale(0.15 -0.15)">
      <use xlink:href="#DejaVuSans-83"/>
      <use x="63.476562" xlink:href="#DejaVuSans-116"/>
      <use x="102.685547" xlink:href="#DejaVuSans-114"/>
      <use x="143.798828" xlink:href="#DejaVuSans-97"/>
      <use x="205.078125" xlink:href="#DejaVuSans-32"/>
      <use x="236.865234" xlink:href="#DejaVuSans-52"/>
     </g>
    </g>
    <g id="line2d_32">
     <path d="M 232.469115 44.613281 
L 262.469115 44.613281 
" style="fill:none;stroke:#9467bd;stroke-linecap:square;stroke-width:1.5;"/>
    </g>
    <g id="line2d_33"/>
    <g id="text_22">
     <!-- Stra 5 -->
     <g transform="translate(274.469115 49.863281)scale(0.15 -0.15)">
      <use xlink:href="#DejaVuSans-83"/>
      <use x="63.476562" xlink:href="#DejaVuSans-116"/>
      <use x="102.685547" xlink:href="#DejaVuSans-114"/>
      <use x="143.798828" xlink:href="#DejaVuSans-97"/>
      <use x="205.078125" xlink:href="#DejaVuSans-32"/>
      <use x="236.865234" xlink:href="#DejaVuSans-53"/>
     </g>
    </g>
    <g id="line2d_34">
     <path d="M 330.548229 22.596094 
L 360.548229 22.596094 
" style="fill:none;stroke:#8c564b;stroke-linecap:square;stroke-width:1.5;"/>
    </g>
    <g id="line2d_35"/>
    <g id="text_23">
     <!-- Stra 6 -->
     <g transform="translate(372.548229 27.846094)scale(0.15 -0.15)">
      <use xlink:href="#DejaVuSans-83"/>
      <use x="63.476562" xlink:href="#DejaVuSans-116"/>
      <use x="102.685547" xlink:href="#DejaVuSans-114"/>
      <use x="143.798828" xlink:href="#DejaVuSans-97"/>
      <use x="205.078125" xlink:href="#DejaVuSans-32"/>
      <use x="236.865234" xlink:href="#DejaVuSans-54"/>
     </g>
    </g>
    <g id="line2d_36">
     <path d="M 330.548229 44.613281 
L 360.548229 44.613281 
" style="fill:none;stroke:#e377c2;stroke-linecap:square;stroke-width:1.5;"/>
    </g>
    <g id="line2d_37"/>
    <g id="text_24">
     <!-- Stra 7 -->
     <g transform="translate(372.548229 49.863281)scale(0.15 -0.15)">
      <use xlink:href="#DejaVuSans-83"/>
      <use x="63.476562" xlink:href="#DejaVuSans-116"/>
      <use x="102.685547" xlink:href="#DejaVuSans-114"/>
      <use x="143.798828" xlink:href="#DejaVuSans-97"/>
      <use x="205.078125" xlink:href="#DejaVuSans-32"/>
      <use x="236.865234" xlink:href="#DejaVuSans-55"/>
     </g>
    </g>
    <g id="line2d_38">
     <path d="M 428.627344 22.596094 
L 458.627344 22.596094 
" style="fill:none;stroke:#7f7f7f;stroke-linecap:square;stroke-width:1.5;"/>
    </g>
    <g id="line2d_39"/>
    <g id="text_25">
     <!-- Stra 8 -->
     <g transform="translate(470.627344 27.846094)scale(0.15 -0.15)">
      <use xlink:href="#DejaVuSans-83"/>
      <use x="63.476562" xlink:href="#DejaVuSans-116"/>
      <use x="102.685547" xlink:href="#DejaVuSans-114"/>
      <use x="143.798828" xlink:href="#DejaVuSans-97"/>
      <use x="205.078125" xlink:href="#DejaVuSans-32"/>
      <use x="236.865234" xlink:href="#DejaVuSans-56"/>
     </g>
    </g>
    <g id="line2d_40">
     <path d="M 428.627344 44.613281 
L 458.627344 44.613281 
" style="fill:none;stroke:#bcbd22;stroke-linecap:square;stroke-width:1.5;"/>
    </g>
    <g id="line2d_41"/>
    <g id="text_26">
     <!-- Stra 9 -->
     <g transform="translate(470.627344 49.863281)scale(0.15 -0.15)">
      <use xlink:href="#DejaVuSans-83"/>
      <use x="63.476562" xlink:href="#DejaVuSans-116"/>
      <use x="102.685547" xlink:href="#DejaVuSans-114"/>
      <use x="143.798828" xlink:href="#DejaVuSans-97"/>
      <use x="205.078125" xlink:href="#DejaVuSans-32"/>
      <use x="236.865234" xlink:href="#DejaVuSans-57"/>
     </g>
    </g>
   </g>
  </g>
 </g>
 <defs>
  <clipPath id="paf903777be">
   <rect height="277.06" width="408.31" x="120.89" y="88.5"/>
  </clipPath>
 </defs>
</svg>
