<?xml version="1.0" encoding="utf-8" standalone="no"?>
<!DOCTYPE svg PUBLIC "-//W3C//DTD SVG 1.1//EN"
  "http://www.w3.org/Graphics/SVG/1.1/DTD/svg11.dtd">
<!-- Created with matplotlib (https://matplotlib.org/) -->
<svg height="432pt" version="1.1" viewBox="0 0 540 432" width="540pt" xmlns="http://www.w3.org/2000/svg" xmlns:xlink="http://www.w3.org/1999/xlink">
 <defs>
  <style type="text/css">
*{stroke-linecap:butt;stroke-linejoin:round;}
  </style>
 </defs>
 <g id="figure_1">
  <g id="patch_1">
   <path d="M 0 432 
L 540 432 
L 540 0 
L 0 0 
z
" style="fill:#ffffff;"/>
  </g>
  <g id="axes_1">
   <g id="patch_2">
    <path d="M 51.05 365.56 
L 529.2 365.56 
L 529.2 88.5 
L 51.05 88.5 
z
" style="fill:#ffffff;"/>
   </g>
   <g id="matplotlib.axis_1">
    <g id="xtick_1">
     <g id="line2d_1">
      <defs>
       <path d="M 0 0 
L 0 3.5 
" id="m1ce6f93869" style="stroke:#000000;stroke-width:0.8;"/>
      </defs>
      <g>
       <use style="stroke:#000000;stroke-width:0.8;" x="72.784091" xlink:href="#m1ce6f93869" y="365.56"/>
      </g>
     </g>
     <g id="text_1">
      <!-- 0 -->
      <defs>
       <path d="M 31.78125 66.40625 
Q 24.171875 66.40625 20.328125 58.90625 
Q 16.5 51.421875 16.5 36.375 
Q 16.5 21.390625 20.328125 13.890625 
Q 24.171875 6.390625 31.78125 6.390625 
Q 39.453125 6.390625 43.28125 13.890625 
Q 47.125 21.390625 47.125 36.375 
Q 47.125 51.421875 43.28125 58.90625 
Q 39.453125 66.40625 31.78125 66.40625 
z
M 31.78125 74.21875 
Q 44.046875 74.21875 50.515625 64.515625 
Q 56.984375 54.828125 56.984375 36.375 
Q 56.984375 17.96875 50.515625 8.265625 
Q 44.046875 -1.421875 31.78125 -1.421875 
Q 19.53125 -1.421875 13.0625 8.265625 
Q 6.59375 17.96875 6.59375 36.375 
Q 6.59375 54.828125 13.0625 64.515625 
Q 19.53125 74.21875 31.78125 74.21875 
z
" id="DejaVuSans-48"/>
      </defs>
      <g transform="translate(66.421591 387.756875)scale(0.2 -0.2)">
       <use xlink:href="#DejaVuSans-48"/>
      </g>
     </g>
    </g>
    <g id="xtick_2">
     <g id="line2d_2">
      <g>
       <use style="stroke:#000000;stroke-width:0.8;" x="165.269584" xlink:href="#m1ce6f93869" y="365.56"/>
      </g>
     </g>
     <g id="text_2">
      <!-- 20 -->
      <defs>
       <path d="M 19.1875 8.296875 
L 53.609375 8.296875 
L 53.609375 0 
L 7.328125 0 
L 7.328125 8.296875 
Q 12.9375 14.109375 22.625 23.890625 
Q 32.328125 33.6875 34.8125 36.53125 
Q 39.546875 41.84375 41.421875 45.53125 
Q 43.3125 49.21875 43.3125 52.78125 
Q 43.3125 58.59375 39.234375 62.25 
Q 35.15625 65.921875 28.609375 65.921875 
Q 23.96875 65.921875 18.8125 64.3125 
Q 13.671875 62.703125 7.8125 59.421875 
L 7.8125 69.390625 
Q 13.765625 71.78125 18.9375 73 
Q 24.125 74.21875 28.421875 74.21875 
Q 39.75 74.21875 46.484375 68.546875 
Q 53.21875 62.890625 53.21875 53.421875 
Q 53.21875 48.921875 51.53125 44.890625 
Q 49.859375 40.875 45.40625 35.40625 
Q 44.1875 33.984375 37.640625 27.21875 
Q 31.109375 20.453125 19.1875 8.296875 
z
" id="DejaVuSans-50"/>
      </defs>
      <g transform="translate(152.544584 387.756875)scale(0.2 -0.2)">
       <use xlink:href="#DejaVuSans-50"/>
       <use x="63.623047" xlink:href="#DejaVuSans-48"/>
      </g>
     </g>
    </g>
    <g id="xtick_3">
     <g id="line2d_3">
      <g>
       <use style="stroke:#000000;stroke-width:0.8;" x="257.755077" xlink:href="#m1ce6f93869" y="365.56"/>
      </g>
     </g>
     <g id="text_3">
      <!-- 40 -->
      <defs>
       <path d="M 37.796875 64.3125 
L 12.890625 25.390625 
L 37.796875 25.390625 
z
M 35.203125 72.90625 
L 47.609375 72.90625 
L 47.609375 25.390625 
L 58.015625 25.390625 
L 58.015625 17.1875 
L 47.609375 17.1875 
L 47.609375 0 
L 37.796875 0 
L 37.796875 17.1875 
L 4.890625 17.1875 
L 4.890625 26.703125 
z
" id="DejaVuSans-52"/>
      </defs>
      <g transform="translate(245.030077 387.756875)scale(0.2 -0.2)">
       <use xlink:href="#DejaVuSans-52"/>
       <use x="63.623047" xlink:href="#DejaVuSans-48"/>
      </g>
     </g>
    </g>
    <g id="xtick_4">
     <g id="line2d_4">
      <g>
       <use style="stroke:#000000;stroke-width:0.8;" x="350.240571" xlink:href="#m1ce6f93869" y="365.56"/>
      </g>
     </g>
     <g id="text_4">
      <!-- 60 -->
      <defs>
       <path d="M 33.015625 40.375 
Q 26.375 40.375 22.484375 35.828125 
Q 18.609375 31.296875 18.609375 23.390625 
Q 18.609375 15.53125 22.484375 10.953125 
Q 26.375 6.390625 33.015625 6.390625 
Q 39.65625 6.390625 43.53125 10.953125 
Q 47.40625 15.53125 47.40625 23.390625 
Q 47.40625 31.296875 43.53125 35.828125 
Q 39.65625 40.375 33.015625 40.375 
z
M 52.59375 71.296875 
L 52.59375 62.3125 
Q 48.875 64.0625 45.09375 64.984375 
Q 41.3125 65.921875 37.59375 65.921875 
Q 27.828125 65.921875 22.671875 59.328125 
Q 17.53125 52.734375 16.796875 39.40625 
Q 19.671875 43.65625 24.015625 45.921875 
Q 28.375 48.1875 33.59375 48.1875 
Q 44.578125 48.1875 50.953125 41.515625 
Q 57.328125 34.859375 57.328125 23.390625 
Q 57.328125 12.15625 50.6875 5.359375 
Q 44.046875 -1.421875 33.015625 -1.421875 
Q 20.359375 -1.421875 13.671875 8.265625 
Q 6.984375 17.96875 6.984375 36.375 
Q 6.984375 53.65625 15.1875 63.9375 
Q 23.390625 74.21875 37.203125 74.21875 
Q 40.921875 74.21875 44.703125 73.484375 
Q 48.484375 72.75 52.59375 71.296875 
z
" id="DejaVuSans-54"/>
      </defs>
      <g transform="translate(337.515571 387.756875)scale(0.2 -0.2)">
       <use xlink:href="#DejaVuSans-54"/>
       <use x="63.623047" xlink:href="#DejaVuSans-48"/>
      </g>
     </g>
    </g>
    <g id="xtick_5">
     <g id="line2d_5">
      <g>
       <use style="stroke:#000000;stroke-width:0.8;" x="442.726064" xlink:href="#m1ce6f93869" y="365.56"/>
      </g>
     </g>
     <g id="text_5">
      <!-- 80 -->
      <defs>
       <path d="M 31.78125 34.625 
Q 24.75 34.625 20.71875 30.859375 
Q 16.703125 27.09375 16.703125 20.515625 
Q 16.703125 13.921875 20.71875 10.15625 
Q 24.75 6.390625 31.78125 6.390625 
Q 38.8125 6.390625 42.859375 10.171875 
Q 46.921875 13.96875 46.921875 20.515625 
Q 46.921875 27.09375 42.890625 30.859375 
Q 38.875 34.625 31.78125 34.625 
z
M 21.921875 38.8125 
Q 15.578125 40.375 12.03125 44.71875 
Q 8.5 49.078125 8.5 55.328125 
Q 8.5 64.0625 14.71875 69.140625 
Q 20.953125 74.21875 31.78125 74.21875 
Q 42.671875 74.21875 48.875 69.140625 
Q 55.078125 64.0625 55.078125 55.328125 
Q 55.078125 49.078125 51.53125 44.71875 
Q 48 40.375 41.703125 38.8125 
Q 48.828125 37.15625 52.796875 32.3125 
Q 56.78125 27.484375 56.78125 20.515625 
Q 56.78125 9.90625 50.3125 4.234375 
Q 43.84375 -1.421875 31.78125 -1.421875 
Q 19.734375 -1.421875 13.25 4.234375 
Q 6.78125 9.90625 6.78125 20.515625 
Q 6.78125 27.484375 10.78125 32.3125 
Q 14.796875 37.15625 21.921875 38.8125 
z
M 18.3125 54.390625 
Q 18.3125 48.734375 21.84375 45.5625 
Q 25.390625 42.390625 31.78125 42.390625 
Q 38.140625 42.390625 41.71875 45.5625 
Q 45.3125 48.734375 45.3125 54.390625 
Q 45.3125 60.0625 41.71875 63.234375 
Q 38.140625 66.40625 31.78125 66.40625 
Q 25.390625 66.40625 21.84375 63.234375 
Q 18.3125 60.0625 18.3125 54.390625 
z
" id="DejaVuSans-56"/>
      </defs>
      <g transform="translate(430.001064 387.756875)scale(0.2 -0.2)">
       <use xlink:href="#DejaVuSans-56"/>
       <use x="63.623047" xlink:href="#DejaVuSans-48"/>
      </g>
     </g>
    </g>
    <g id="text_6">
     <!-- # of games -->
     <defs>
      <path d="M 51.125 44 
L 36.921875 44 
L 32.8125 27.6875 
L 47.125 27.6875 
z
M 43.796875 71.78125 
L 38.71875 51.515625 
L 52.984375 51.515625 
L 58.109375 71.78125 
L 65.921875 71.78125 
L 60.890625 51.515625 
L 76.125 51.515625 
L 76.125 44 
L 58.984375 44 
L 54.984375 27.6875 
L 70.515625 27.6875 
L 70.515625 20.21875 
L 53.078125 20.21875 
L 48 0 
L 40.1875 0 
L 45.21875 20.21875 
L 30.90625 20.21875 
L 25.875 0 
L 18.015625 0 
L 23.09375 20.21875 
L 7.71875 20.21875 
L 7.71875 27.6875 
L 24.90625 27.6875 
L 29 44 
L 13.28125 44 
L 13.28125 51.515625 
L 30.90625 51.515625 
L 35.890625 71.78125 
z
" id="DejaVuSans-35"/>
      <path id="DejaVuSans-32"/>
      <path d="M 30.609375 48.390625 
Q 23.390625 48.390625 19.1875 42.75 
Q 14.984375 37.109375 14.984375 27.296875 
Q 14.984375 17.484375 19.15625 11.84375 
Q 23.34375 6.203125 30.609375 6.203125 
Q 37.796875 6.203125 41.984375 11.859375 
Q 46.1875 17.53125 46.1875 27.296875 
Q 46.1875 37.015625 41.984375 42.703125 
Q 37.796875 48.390625 30.609375 48.390625 
z
M 30.609375 56 
Q 42.328125 56 49.015625 48.375 
Q 55.71875 40.765625 55.71875 27.296875 
Q 55.71875 13.875 49.015625 6.21875 
Q 42.328125 -1.421875 30.609375 -1.421875 
Q 18.84375 -1.421875 12.171875 6.21875 
Q 5.515625 13.875 5.515625 27.296875 
Q 5.515625 40.765625 12.171875 48.375 
Q 18.84375 56 30.609375 56 
z
" id="DejaVuSans-111"/>
      <path d="M 37.109375 75.984375 
L 37.109375 68.5 
L 28.515625 68.5 
Q 23.6875 68.5 21.796875 66.546875 
Q 19.921875 64.59375 19.921875 59.515625 
L 19.921875 54.6875 
L 34.71875 54.6875 
L 34.71875 47.703125 
L 19.921875 47.703125 
L 19.921875 0 
L 10.890625 0 
L 10.890625 47.703125 
L 2.296875 47.703125 
L 2.296875 54.6875 
L 10.890625 54.6875 
L 10.890625 58.5 
Q 10.890625 67.625 15.140625 71.796875 
Q 19.390625 75.984375 28.609375 75.984375 
z
" id="DejaVuSans-102"/>
      <path d="M 45.40625 27.984375 
Q 45.40625 37.75 41.375 43.109375 
Q 37.359375 48.484375 30.078125 48.484375 
Q 22.859375 48.484375 18.828125 43.109375 
Q 14.796875 37.75 14.796875 27.984375 
Q 14.796875 18.265625 18.828125 12.890625 
Q 22.859375 7.515625 30.078125 7.515625 
Q 37.359375 7.515625 41.375 12.890625 
Q 45.40625 18.265625 45.40625 27.984375 
z
M 54.390625 6.78125 
Q 54.390625 -7.171875 48.1875 -13.984375 
Q 42 -20.796875 29.203125 -20.796875 
Q 24.46875 -20.796875 20.265625 -20.09375 
Q 16.0625 -19.390625 12.109375 -17.921875 
L 12.109375 -9.1875 
Q 16.0625 -11.328125 19.921875 -12.34375 
Q 23.78125 -13.375 27.78125 -13.375 
Q 36.625 -13.375 41.015625 -8.765625 
Q 45.40625 -4.15625 45.40625 5.171875 
L 45.40625 9.625 
Q 42.625 4.78125 38.28125 2.390625 
Q 33.9375 0 27.875 0 
Q 17.828125 0 11.671875 7.65625 
Q 5.515625 15.328125 5.515625 27.984375 
Q 5.515625 40.671875 11.671875 48.328125 
Q 17.828125 56 27.875 56 
Q 33.9375 56 38.28125 53.609375 
Q 42.625 51.21875 45.40625 46.390625 
L 45.40625 54.6875 
L 54.390625 54.6875 
z
" id="DejaVuSans-103"/>
      <path d="M 34.28125 27.484375 
Q 23.390625 27.484375 19.1875 25 
Q 14.984375 22.515625 14.984375 16.5 
Q 14.984375 11.71875 18.140625 8.90625 
Q 21.296875 6.109375 26.703125 6.109375 
Q 34.1875 6.109375 38.703125 11.40625 
Q 43.21875 16.703125 43.21875 25.484375 
L 43.21875 27.484375 
z
M 52.203125 31.203125 
L 52.203125 0 
L 43.21875 0 
L 43.21875 8.296875 
Q 40.140625 3.328125 35.546875 0.953125 
Q 30.953125 -1.421875 24.3125 -1.421875 
Q 15.921875 -1.421875 10.953125 3.296875 
Q 6 8.015625 6 15.921875 
Q 6 25.140625 12.171875 29.828125 
Q 18.359375 34.515625 30.609375 34.515625 
L 43.21875 34.515625 
L 43.21875 35.40625 
Q 43.21875 41.609375 39.140625 45 
Q 35.0625 48.390625 27.6875 48.390625 
Q 23 48.390625 18.546875 47.265625 
Q 14.109375 46.140625 10.015625 43.890625 
L 10.015625 52.203125 
Q 14.9375 54.109375 19.578125 55.046875 
Q 24.21875 56 28.609375 56 
Q 40.484375 56 46.34375 49.84375 
Q 52.203125 43.703125 52.203125 31.203125 
z
" id="DejaVuSans-97"/>
      <path d="M 52 44.1875 
Q 55.375 50.25 60.0625 53.125 
Q 64.75 56 71.09375 56 
Q 79.640625 56 84.28125 50.015625 
Q 88.921875 44.046875 88.921875 33.015625 
L 88.921875 0 
L 79.890625 0 
L 79.890625 32.71875 
Q 79.890625 40.578125 77.09375 44.375 
Q 74.3125 48.1875 68.609375 48.1875 
Q 61.625 48.1875 57.5625 43.546875 
Q 53.515625 38.921875 53.515625 30.90625 
L 53.515625 0 
L 44.484375 0 
L 44.484375 32.71875 
Q 44.484375 40.625 41.703125 44.40625 
Q 38.921875 48.1875 33.109375 48.1875 
Q 26.21875 48.1875 22.15625 43.53125 
Q 18.109375 38.875 18.109375 30.90625 
L 18.109375 0 
L 9.078125 0 
L 9.078125 54.6875 
L 18.109375 54.6875 
L 18.109375 46.1875 
Q 21.1875 51.21875 25.484375 53.609375 
Q 29.78125 56 35.6875 56 
Q 41.65625 56 45.828125 52.96875 
Q 50 49.953125 52 44.1875 
z
" id="DejaVuSans-109"/>
      <path d="M 56.203125 29.59375 
L 56.203125 25.203125 
L 14.890625 25.203125 
Q 15.484375 15.921875 20.484375 11.0625 
Q 25.484375 6.203125 34.421875 6.203125 
Q 39.59375 6.203125 44.453125 7.46875 
Q 49.3125 8.734375 54.109375 11.28125 
L 54.109375 2.78125 
Q 49.265625 0.734375 44.1875 -0.34375 
Q 39.109375 -1.421875 33.890625 -1.421875 
Q 20.796875 -1.421875 13.15625 6.1875 
Q 5.515625 13.8125 5.515625 26.8125 
Q 5.515625 40.234375 12.765625 48.109375 
Q 20.015625 56 32.328125 56 
Q 43.359375 56 49.78125 48.890625 
Q 56.203125 41.796875 56.203125 29.59375 
z
M 47.21875 32.234375 
Q 47.125 39.59375 43.09375 43.984375 
Q 39.0625 48.390625 32.421875 48.390625 
Q 24.90625 48.390625 20.390625 44.140625 
Q 15.875 39.890625 15.1875 32.171875 
z
" id="DejaVuSans-101"/>
      <path d="M 44.28125 53.078125 
L 44.28125 44.578125 
Q 40.484375 46.53125 36.375 47.5 
Q 32.28125 48.484375 27.875 48.484375 
Q 21.1875 48.484375 17.84375 46.4375 
Q 14.5 44.390625 14.5 40.28125 
Q 14.5 37.15625 16.890625 35.375 
Q 19.28125 33.59375 26.515625 31.984375 
L 29.59375 31.296875 
Q 39.15625 29.25 43.1875 25.515625 
Q 47.21875 21.78125 47.21875 15.09375 
Q 47.21875 7.46875 41.1875 3.015625 
Q 35.15625 -1.421875 24.609375 -1.421875 
Q 20.21875 -1.421875 15.453125 -0.5625 
Q 10.6875 0.296875 5.421875 2 
L 5.421875 11.28125 
Q 10.40625 8.6875 15.234375 7.390625 
Q 20.0625 6.109375 24.8125 6.109375 
Q 31.15625 6.109375 34.5625 8.28125 
Q 37.984375 10.453125 37.984375 14.40625 
Q 37.984375 18.0625 35.515625 20.015625 
Q 33.0625 21.96875 24.703125 23.78125 
L 21.578125 24.515625 
Q 13.234375 26.265625 9.515625 29.90625 
Q 5.8125 33.546875 5.8125 39.890625 
Q 5.8125 47.609375 11.28125 51.796875 
Q 16.75 56 26.8125 56 
Q 31.78125 56 36.171875 55.265625 
Q 40.578125 54.546875 44.28125 53.078125 
z
" id="DejaVuSans-115"/>
     </defs>
     <g transform="translate(217.681641 414.912344)scale(0.25 -0.25)">
      <use xlink:href="#DejaVuSans-35"/>
      <use x="83.789062" xlink:href="#DejaVuSans-32"/>
      <use x="115.576172" xlink:href="#DejaVuSans-111"/>
      <use x="176.757812" xlink:href="#DejaVuSans-102"/>
      <use x="211.962891" xlink:href="#DejaVuSans-32"/>
      <use x="243.75" xlink:href="#DejaVuSans-103"/>
      <use x="307.226562" xlink:href="#DejaVuSans-97"/>
      <use x="368.505859" xlink:href="#DejaVuSans-109"/>
      <use x="465.917969" xlink:href="#DejaVuSans-101"/>
      <use x="527.441406" xlink:href="#DejaVuSans-115"/>
     </g>
    </g>
   </g>
   <g id="matplotlib.axis_2">
    <g id="ytick_1">
     <g id="line2d_6">
      <defs>
       <path d="M 0 0 
L -3.5 0 
" id="m9c5352e602" style="stroke:#000000;stroke-width:0.8;"/>
      </defs>
      <g>
       <use style="stroke:#000000;stroke-width:0.8;" x="51.05" xlink:href="#m9c5352e602" y="352.966364"/>
      </g>
     </g>
     <g id="text_7">
      <!-- 1 -->
      <defs>
       <path d="M 12.40625 8.296875 
L 28.515625 8.296875 
L 28.515625 63.921875 
L 10.984375 60.40625 
L 10.984375 69.390625 
L 28.421875 72.90625 
L 38.28125 72.90625 
L 38.28125 8.296875 
L 54.390625 8.296875 
L 54.390625 0 
L 12.40625 0 
z
" id="DejaVuSans-49"/>
      </defs>
      <g transform="translate(31.325 360.564801)scale(0.2 -0.2)">
       <use xlink:href="#DejaVuSans-49"/>
      </g>
     </g>
    </g>
    <g id="ytick_2">
     <g id="line2d_7">
      <g>
       <use style="stroke:#000000;stroke-width:0.8;" x="51.05" xlink:href="#m9c5352e602" y="321.482273"/>
      </g>
     </g>
     <g id="text_8">
      <!-- 2 -->
      <g transform="translate(31.325 329.08071)scale(0.2 -0.2)">
       <use xlink:href="#DejaVuSans-50"/>
      </g>
     </g>
    </g>
    <g id="ytick_3">
     <g id="line2d_8">
      <g>
       <use style="stroke:#000000;stroke-width:0.8;" x="51.05" xlink:href="#m9c5352e602" y="289.998182"/>
      </g>
     </g>
     <g id="text_9">
      <!-- 3 -->
      <defs>
       <path d="M 40.578125 39.3125 
Q 47.65625 37.796875 51.625 33 
Q 55.609375 28.21875 55.609375 21.1875 
Q 55.609375 10.40625 48.1875 4.484375 
Q 40.765625 -1.421875 27.09375 -1.421875 
Q 22.515625 -1.421875 17.65625 -0.515625 
Q 12.796875 0.390625 7.625 2.203125 
L 7.625 11.71875 
Q 11.71875 9.328125 16.59375 8.109375 
Q 21.484375 6.890625 26.8125 6.890625 
Q 36.078125 6.890625 40.9375 10.546875 
Q 45.796875 14.203125 45.796875 21.1875 
Q 45.796875 27.640625 41.28125 31.265625 
Q 36.765625 34.90625 28.71875 34.90625 
L 20.21875 34.90625 
L 20.21875 43.015625 
L 29.109375 43.015625 
Q 36.375 43.015625 40.234375 45.921875 
Q 44.09375 48.828125 44.09375 54.296875 
Q 44.09375 59.90625 40.109375 62.90625 
Q 36.140625 65.921875 28.71875 65.921875 
Q 24.65625 65.921875 20.015625 65.03125 
Q 15.375 64.15625 9.8125 62.3125 
L 9.8125 71.09375 
Q 15.4375 72.65625 20.34375 73.4375 
Q 25.25 74.21875 29.59375 74.21875 
Q 40.828125 74.21875 47.359375 69.109375 
Q 53.90625 64.015625 53.90625 55.328125 
Q 53.90625 49.265625 50.4375 45.09375 
Q 46.96875 40.921875 40.578125 39.3125 
z
" id="DejaVuSans-51"/>
      </defs>
      <g transform="translate(31.325 297.596619)scale(0.2 -0.2)">
       <use xlink:href="#DejaVuSans-51"/>
      </g>
     </g>
    </g>
    <g id="ytick_4">
     <g id="line2d_9">
      <g>
       <use style="stroke:#000000;stroke-width:0.8;" x="51.05" xlink:href="#m9c5352e602" y="258.514091"/>
      </g>
     </g>
     <g id="text_10">
      <!-- 4 -->
      <g transform="translate(31.325 266.112528)scale(0.2 -0.2)">
       <use xlink:href="#DejaVuSans-52"/>
      </g>
     </g>
    </g>
    <g id="ytick_5">
     <g id="line2d_10">
      <g>
       <use style="stroke:#000000;stroke-width:0.8;" x="51.05" xlink:href="#m9c5352e602" y="227.03"/>
      </g>
     </g>
     <g id="text_11">
      <!-- 5 -->
      <defs>
       <path d="M 10.796875 72.90625 
L 49.515625 72.90625 
L 49.515625 64.59375 
L 19.828125 64.59375 
L 19.828125 46.734375 
Q 21.96875 47.46875 24.109375 47.828125 
Q 26.265625 48.1875 28.421875 48.1875 
Q 40.625 48.1875 47.75 41.5 
Q 54.890625 34.8125 54.890625 23.390625 
Q 54.890625 11.625 47.5625 5.09375 
Q 40.234375 -1.421875 26.90625 -1.421875 
Q 22.3125 -1.421875 17.546875 -0.640625 
Q 12.796875 0.140625 7.71875 1.703125 
L 7.71875 11.625 
Q 12.109375 9.234375 16.796875 8.0625 
Q 21.484375 6.890625 26.703125 6.890625 
Q 35.15625 6.890625 40.078125 11.328125 
Q 45.015625 15.765625 45.015625 23.390625 
Q 45.015625 31 40.078125 35.4375 
Q 35.15625 39.890625 26.703125 39.890625 
Q 22.75 39.890625 18.8125 39.015625 
Q 14.890625 38.140625 10.796875 36.28125 
z
" id="DejaVuSans-53"/>
      </defs>
      <g transform="translate(31.325 234.628437)scale(0.2 -0.2)">
       <use xlink:href="#DejaVuSans-53"/>
      </g>
     </g>
    </g>
    <g id="ytick_6">
     <g id="line2d_11">
      <g>
       <use style="stroke:#000000;stroke-width:0.8;" x="51.05" xlink:href="#m9c5352e602" y="195.545909"/>
      </g>
     </g>
     <g id="text_12">
      <!-- 6 -->
      <g transform="translate(31.325 203.144347)scale(0.2 -0.2)">
       <use xlink:href="#DejaVuSans-54"/>
      </g>
     </g>
    </g>
    <g id="ytick_7">
     <g id="line2d_12">
      <g>
       <use style="stroke:#000000;stroke-width:0.8;" x="51.05" xlink:href="#m9c5352e602" y="164.061818"/>
      </g>
     </g>
     <g id="text_13">
      <!-- 7 -->
      <defs>
       <path d="M 8.203125 72.90625 
L 55.078125 72.90625 
L 55.078125 68.703125 
L 28.609375 0 
L 18.3125 0 
L 43.21875 64.59375 
L 8.203125 64.59375 
z
" id="DejaVuSans-55"/>
      </defs>
      <g transform="translate(31.325 171.660256)scale(0.2 -0.2)">
       <use xlink:href="#DejaVuSans-55"/>
      </g>
     </g>
    </g>
    <g id="ytick_8">
     <g id="line2d_13">
      <g>
       <use style="stroke:#000000;stroke-width:0.8;" x="51.05" xlink:href="#m9c5352e602" y="132.577727"/>
      </g>
     </g>
     <g id="text_14">
      <!-- 8 -->
      <g transform="translate(31.325 140.176165)scale(0.2 -0.2)">
       <use xlink:href="#DejaVuSans-56"/>
      </g>
     </g>
    </g>
    <g id="ytick_9">
     <g id="line2d_14">
      <g>
       <use style="stroke:#000000;stroke-width:0.8;" x="51.05" xlink:href="#m9c5352e602" y="101.093636"/>
      </g>
     </g>
     <g id="text_15">
      <!-- 9 -->
      <defs>
       <path d="M 10.984375 1.515625 
L 10.984375 10.5 
Q 14.703125 8.734375 18.5 7.8125 
Q 22.3125 6.890625 25.984375 6.890625 
Q 35.75 6.890625 40.890625 13.453125 
Q 46.046875 20.015625 46.78125 33.40625 
Q 43.953125 29.203125 39.59375 26.953125 
Q 35.25 24.703125 29.984375 24.703125 
Q 19.046875 24.703125 12.671875 31.3125 
Q 6.296875 37.9375 6.296875 49.421875 
Q 6.296875 60.640625 12.9375 67.421875 
Q 19.578125 74.21875 30.609375 74.21875 
Q 43.265625 74.21875 49.921875 64.515625 
Q 56.59375 54.828125 56.59375 36.375 
Q 56.59375 19.140625 48.40625 8.859375 
Q 40.234375 -1.421875 26.421875 -1.421875 
Q 22.703125 -1.421875 18.890625 -0.6875 
Q 15.09375 0.046875 10.984375 1.515625 
z
M 30.609375 32.421875 
Q 37.25 32.421875 41.125 36.953125 
Q 45.015625 41.5 45.015625 49.421875 
Q 45.015625 57.28125 41.125 61.84375 
Q 37.25 66.40625 30.609375 66.40625 
Q 23.96875 66.40625 20.09375 61.84375 
Q 16.21875 57.28125 16.21875 49.421875 
Q 16.21875 41.5 20.09375 36.953125 
Q 23.96875 32.421875 30.609375 32.421875 
z
" id="DejaVuSans-57"/>
      </defs>
      <g transform="translate(31.325 108.692074)scale(0.2 -0.2)">
       <use xlink:href="#DejaVuSans-57"/>
      </g>
     </g>
    </g>
    <g id="text_16">
     <!-- AHEU Value -->
     <defs>
      <path d="M 34.1875 63.1875 
L 20.796875 26.90625 
L 47.609375 26.90625 
z
M 28.609375 72.90625 
L 39.796875 72.90625 
L 67.578125 0 
L 57.328125 0 
L 50.6875 18.703125 
L 17.828125 18.703125 
L 11.1875 0 
L 0.78125 0 
z
" id="DejaVuSans-65"/>
      <path d="M 9.8125 72.90625 
L 19.671875 72.90625 
L 19.671875 43.015625 
L 55.515625 43.015625 
L 55.515625 72.90625 
L 65.375 72.90625 
L 65.375 0 
L 55.515625 0 
L 55.515625 34.71875 
L 19.671875 34.71875 
L 19.671875 0 
L 9.8125 0 
z
" id="DejaVuSans-72"/>
      <path d="M 9.8125 72.90625 
L 55.90625 72.90625 
L 55.90625 64.59375 
L 19.671875 64.59375 
L 19.671875 43.015625 
L 54.390625 43.015625 
L 54.390625 34.71875 
L 19.671875 34.71875 
L 19.671875 8.296875 
L 56.78125 8.296875 
L 56.78125 0 
L 9.8125 0 
z
" id="DejaVuSans-69"/>
      <path d="M 8.6875 72.90625 
L 18.609375 72.90625 
L 18.609375 28.609375 
Q 18.609375 16.890625 22.84375 11.734375 
Q 27.09375 6.59375 36.625 6.59375 
Q 46.09375 6.59375 50.34375 11.734375 
Q 54.59375 16.890625 54.59375 28.609375 
L 54.59375 72.90625 
L 64.5 72.90625 
L 64.5 27.390625 
Q 64.5 13.140625 57.4375 5.859375 
Q 50.390625 -1.421875 36.625 -1.421875 
Q 22.796875 -1.421875 15.734375 5.859375 
Q 8.6875 13.140625 8.6875 27.390625 
z
" id="DejaVuSans-85"/>
      <path d="M 28.609375 0 
L 0.78125 72.90625 
L 11.078125 72.90625 
L 34.1875 11.53125 
L 57.328125 72.90625 
L 67.578125 72.90625 
L 39.796875 0 
z
" id="DejaVuSans-86"/>
      <path d="M 9.421875 75.984375 
L 18.40625 75.984375 
L 18.40625 0 
L 9.421875 0 
z
" id="DejaVuSans-108"/>
      <path d="M 8.5 21.578125 
L 8.5 54.6875 
L 17.484375 54.6875 
L 17.484375 21.921875 
Q 17.484375 14.15625 20.5 10.265625 
Q 23.53125 6.390625 29.59375 6.390625 
Q 36.859375 6.390625 41.078125 11.03125 
Q 45.3125 15.671875 45.3125 23.6875 
L 45.3125 54.6875 
L 54.296875 54.6875 
L 54.296875 0 
L 45.3125 0 
L 45.3125 8.40625 
Q 42.046875 3.421875 37.71875 1 
Q 33.40625 -1.421875 27.6875 -1.421875 
Q 18.265625 -1.421875 13.375 4.4375 
Q 8.5 10.296875 8.5 21.578125 
z
M 31.109375 56 
z
" id="DejaVuSans-117"/>
     </defs>
     <g transform="translate(23.858854 276.532604)rotate(-90)scale(0.166667 -0.166667)">
      <use xlink:href="#DejaVuSans-65"/>
      <use x="68.408203" xlink:href="#DejaVuSans-72"/>
      <use x="143.603516" xlink:href="#DejaVuSans-69"/>
      <use x="206.787109" xlink:href="#DejaVuSans-85"/>
      <use x="279.980469" xlink:href="#DejaVuSans-32"/>
      <use x="311.767578" xlink:href="#DejaVuSans-86"/>
      <use x="380.066406" xlink:href="#DejaVuSans-97"/>
      <use x="441.345703" xlink:href="#DejaVuSans-108"/>
      <use x="469.128906" xlink:href="#DejaVuSans-117"/>
      <use x="532.507812" xlink:href="#DejaVuSans-101"/>
     </g>
    </g>
   </g>
   <g id="line2d_15">
    <path clip-path="url(#pe2e23f2c36)" d="M 72.784091 333.488206 
L 77.408366 347.711551 
L 82.03264 344.882228 
L 86.656915 336.62875 
L 91.28119 329.893263 
L 95.905464 325.338665 
L 100.529739 317.858656 
L 105.154014 313.884979 
L 109.778288 308.798588 
L 114.402563 305.286605 
L 119.026838 301.67606 
L 123.651112 297.142704 
L 128.275387 294.359976 
L 132.899662 291.019159 
L 137.523936 288.659429 
L 142.148211 286.717569 
L 146.772485 283.379485 
L 151.39676 281.992597 
L 156.021035 279.11877 
L 160.645309 277.32511 
L 165.269584 275.052198 
L 169.893859 274.519032 
L 174.518133 273.551685 
L 179.142408 271.653556 
L 183.766683 270.278967 
L 188.390957 269.370077 
L 193.015232 268.215868 
L 197.639507 266.540068 
L 202.263781 265.512006 
L 206.888056 265.017257 
L 211.512331 264.024469 
L 216.136605 263.400732 
L 220.76088 261.737946 
L 225.385155 261.211611 
L 230.009429 260.942463 
L 234.633704 260.735826 
L 239.257979 260.44951 
L 243.882253 260.063912 
L 248.506528 258.937102 
L 253.130803 257.632378 
L 257.755077 257.111232 
L 262.379352 256.518299 
L 267.003627 256.019267 
L 271.627901 255.455124 
L 276.252176 254.861948 
L 280.876451 254.611614 
L 285.500725 254.343719 
L 290.125 253.596075 
L 294.749275 253.42964 
L 299.373549 253.030557 
L 303.997824 252.783681 
L 308.622099 252.88124 
L 313.246373 252.263023 
L 317.870648 252.314826 
L 322.494923 252.274592 
L 327.119197 252.170943 
L 331.743472 251.655576 
L 336.367747 251.003644 
L 340.992021 250.185924 
L 345.616296 250.078186 
L 350.240571 249.889425 
L 354.864845 249.848999 
L 359.48912 250.558196 
L 364.113395 250.04692 
L 368.737669 249.124073 
L 373.361944 249.611941 
L 377.986219 249.903813 
L 382.610493 249.60357 
L 387.234768 251.167253 
L 391.859043 251.312993 
L 396.483317 250.163229 
L 401.107592 249.008904 
L 405.731867 249.8737 
L 410.356141 251.399201 
L 414.980416 250.678565 
L 419.604691 250.522836 
L 424.228965 247.975533 
L 428.85324 250.733067 
L 433.477515 250.332358 
L 438.101789 251.637712 
L 442.726064 252.747097 
L 447.350338 253.26139 
L 451.974613 253.248883 
L 456.598888 254.622115 
L 461.223162 254.294542 
L 465.847437 253.97827 
L 470.471712 246.557626 
L 475.095986 245.158557 
L 479.720261 245.157723 
L 484.344536 246.621379 
L 488.96881 243.822286 
L 493.593085 242.544654 
L 498.21736 244.000148 
L 502.841634 253.680168 
L 507.465909 253.747319 
" style="fill:none;stroke:#1f77b4;stroke-linecap:square;stroke-width:1.5;"/>
   </g>
   <g id="line2d_16">
    <path clip-path="url(#pe2e23f2c36)" d="M 72.784091 352.966364 
L 77.408366 308.181028 
L 82.03264 306.639269 
L 86.656915 310.539865 
L 91.28119 314.643198 
L 95.905464 317.343211 
L 100.529739 321.268447 
L 105.154014 323.523369 
L 109.778288 325.753865 
L 114.402563 327.963599 
L 119.026838 328.926091 
L 123.651112 330.846082 
L 128.275387 332.286315 
L 132.899662 333.458007 
L 137.523936 334.432241 
L 142.148211 334.900937 
L 146.772485 335.460882 
L 151.39676 336.31731 
L 156.021035 337.519805 
L 160.645309 338.002654 
L 165.269584 338.938937 
L 169.893859 339.171736 
L 174.518133 339.287807 
L 179.142408 339.784506 
L 183.766683 340.429601 
L 188.390957 340.715335 
L 193.015232 341.083368 
L 197.639507 341.597022 
L 202.263781 341.850428 
L 206.888056 342.151712 
L 211.512331 342.414708 
L 216.136605 342.554279 
L 220.76088 343.127678 
L 225.385155 343.315996 
L 230.009429 343.433454 
L 234.633704 343.44695 
L 239.257979 343.214277 
L 243.882253 343.234579 
L 248.506528 343.334632 
L 253.130803 343.947527 
L 257.755077 344.110329 
L 262.379352 344.306092 
L 267.003627 344.573471 
L 271.627901 344.510572 
L 276.252176 344.639438 
L 280.876451 344.497998 
L 285.500725 344.480182 
L 290.125 344.784648 
L 294.749275 344.824783 
L 299.373549 345.307784 
L 303.997824 345.133266 
L 308.622099 345.009425 
L 313.246373 345.252785 
L 317.870648 345.115585 
L 322.494923 344.936148 
L 327.119197 345.202634 
L 331.743472 345.342269 
L 336.367747 345.253494 
L 340.992021 345.507406 
L 345.616296 345.696208 
L 350.240571 345.783151 
L 354.864845 345.742135 
L 359.48912 345.625667 
L 364.113395 346.043179 
L 368.737669 345.850404 
L 373.361944 345.891171 
L 377.986219 346.194818 
L 382.610493 346.249633 
L 387.234768 345.999262 
L 391.859043 345.560871 
L 396.483317 345.976406 
L 401.107592 346.448927 
L 405.731867 346.378046 
L 410.356141 345.814255 
L 414.980416 345.451454 
L 419.604691 345.844017 
L 424.228965 346.160387 
L 428.85324 346.294611 
L 433.477515 346.836191 
L 438.101789 346.398035 
L 442.726064 344.668655 
L 447.350338 344.712962 
L 451.974613 344.413714 
L 456.598888 343.202784 
L 461.223162 344.052987 
L 465.847437 344.154855 
L 470.471712 345.621254 
L 475.095986 347.230907 
L 479.720261 345.797578 
L 484.344536 345.956032 
L 488.96881 344.555223 
L 493.593085 347.475821 
L 498.21736 346.25268 
L 502.841634 342.007318 
L 507.465909 341.508978 
" style="fill:none;stroke:#ff7f0e;stroke-linecap:square;stroke-width:1.5;"/>
   </g>
   <g id="line2d_17">
    <path clip-path="url(#pe2e23f2c36)" d="M 72.784091 352.966364 
L 77.408366 308.181028 
L 82.03264 300.153089 
L 86.656915 292.217704 
L 91.28119 285.662633 
L 95.905464 281.282999 
L 100.529739 277.430753 
L 105.154014 273.887635 
L 109.778288 269.481154 
L 114.402563 267.480185 
L 119.026838 265.430405 
L 123.651112 265.046228 
L 128.275387 264.371139 
L 132.899662 264.864431 
L 137.523936 264.810923 
L 142.148211 264.846305 
L 146.772485 264.795561 
L 151.39676 266.187426 
L 156.021035 266.341582 
L 160.645309 266.064764 
L 165.269584 265.597135 
L 169.893859 266.911556 
L 174.518133 268.103164 
L 179.142408 267.713108 
L 183.766683 269.068766 
L 188.390957 269.838111 
L 193.015232 269.706357 
L 197.639507 269.389404 
L 202.263781 269.933066 
L 206.888056 270.683525 
L 211.512331 271.108135 
L 216.136605 271.595571 
L 220.76088 271.725636 
L 225.385155 271.72416 
L 230.009429 272.865979 
L 234.633704 273.354029 
L 239.257979 273.775028 
L 243.882253 273.051331 
L 248.506528 273.825542 
L 253.130803 273.735965 
L 257.755077 274.105969 
L 262.379352 274.754774 
L 267.003627 274.631375 
L 271.627901 274.831816 
L 276.252176 276.051387 
L 280.876451 275.88615 
L 285.500725 276.502418 
L 290.125 276.331962 
L 294.749275 275.742653 
L 299.373549 275.966542 
L 303.997824 275.661174 
L 308.622099 276.579413 
L 313.246373 277.455297 
L 317.870648 277.817913 
L 322.494923 277.913068 
L 327.119197 278.066164 
L 331.743472 279.04482 
L 336.367747 278.62557 
L 340.992021 277.085194 
L 345.616296 277.484183 
L 350.240571 278.252929 
L 354.864845 277.343836 
L 359.48912 276.686206 
L 364.113395 276.433859 
L 368.737669 277.04824 
L 373.361944 276.455504 
L 377.986219 276.131226 
L 382.610493 277.178739 
L 387.234768 276.411604 
L 391.859043 277.157142 
L 396.483317 279.68767 
L 401.107592 281.167245 
L 405.731867 280.713565 
L 410.356141 280.151487 
L 414.980416 279.557271 
L 419.604691 277.739053 
L 424.228965 279.447677 
L 428.85324 277.945572 
L 433.477515 274.949879 
L 438.101789 276.411852 
L 442.726064 275.45202 
L 447.350338 271.88126 
L 451.974613 270.571612 
L 456.598888 270.956762 
L 461.223162 274.88165 
L 465.847437 281.201916 
L 470.471712 276.807661 
L 475.095986 277.104979 
L 479.720261 275.674604 
L 484.344536 275.993484 
L 488.96881 280.186051 
L 493.593085 279.030485 
L 498.21736 277.923538 
L 502.841634 280.672018 
L 507.465909 272.806899 
" style="fill:none;stroke:#2ca02c;stroke-linecap:square;stroke-width:1.5;"/>
   </g>
   <g id="line2d_18">
    <path clip-path="url(#pe2e23f2c36)" d="M 72.784091 352.966364 
L 77.408366 308.181028 
L 82.03264 300.153089 
L 86.656915 292.100986 
L 91.28119 285.742639 
L 95.905464 280.75996 
L 100.529739 277.307592 
L 105.154014 273.695509 
L 109.778288 268.355348 
L 114.402563 268.101836 
L 119.026838 266.889981 
L 123.651112 266.012158 
L 128.275387 265.665786 
L 132.899662 265.304058 
L 137.523936 265.672643 
L 142.148211 265.46596 
L 146.772485 264.928876 
L 151.39676 266.523733 
L 156.021035 266.180269 
L 160.645309 265.896291 
L 165.269584 265.619261 
L 169.893859 266.774228 
L 174.518133 268.002184 
L 179.142408 268.041814 
L 183.766683 268.521247 
L 188.390957 269.468675 
L 193.015232 269.585517 
L 197.639507 269.914249 
L 202.263781 270.146038 
L 206.888056 271.610847 
L 211.512331 271.363388 
L 216.136605 271.722507 
L 220.76088 271.605738 
L 225.385155 271.626873 
L 230.009429 272.574037 
L 234.633704 273.268067 
L 239.257979 273.551177 
L 243.882253 273.326299 
L 248.506528 273.184183 
L 253.130803 273.14215 
L 257.755077 274.253913 
L 262.379352 274.753782 
L 267.003627 275.158715 
L 271.627901 275.028462 
L 276.252176 275.551028 
L 280.876451 276.150231 
L 285.500725 276.811281 
L 290.125 277.176922 
L 294.749275 277.202806 
L 299.373549 277.332038 
L 303.997824 277.906628 
L 308.622099 277.424603 
L 313.246373 278.109179 
L 317.870648 278.147245 
L 322.494923 277.872914 
L 327.119197 277.754173 
L 331.743472 278.989828 
L 336.367747 278.401903 
L 340.992021 278.285572 
L 345.616296 279.298177 
L 350.240571 278.717745 
L 354.864845 278.688113 
L 359.48912 278.187411 
L 364.113395 276.977932 
L 368.737669 277.912147 
L 373.361944 278.241448 
L 377.986219 279.118276 
L 382.610493 278.866091 
L 387.234768 278.003362 
L 391.859043 277.742635 
L 396.483317 278.024016 
L 401.107592 278.910854 
L 405.731867 278.830248 
L 410.356141 278.905387 
L 414.980416 279.683472 
L 419.604691 276.851404 
L 424.228965 278.313473 
L 428.85324 280.483644 
L 433.477515 277.39893 
L 438.101789 276.52686 
L 442.726064 279.194394 
L 447.350338 277.646041 
L 451.974613 276.261129 
L 456.598888 273.956488 
L 461.223162 274.881167 
L 465.847437 288.532247 
L 470.471712 287.065628 
L 475.095986 287.129706 
L 479.720261 285.696377 
L 484.344536 292.774288 
L 488.96881 291.373243 
L 493.593085 289.974477 
L 498.21736 289.975012 
L 502.841634 287.231338 
L 507.465909 284.243875 
" style="fill:none;stroke:#d62728;stroke-linecap:square;stroke-width:1.5;"/>
   </g>
   <g id="line2d_19">
    <path clip-path="url(#pe2e23f2c36)" d="M 72.784091 333.488206 
L 77.408366 213.355544 
L 82.03264 199.412717 
L 86.656915 191.257422 
L 91.28119 186.070707 
L 95.905464 182.816969 
L 100.529739 180.808587 
L 105.154014 178.127975 
L 109.778288 174.69211 
L 114.402563 175.671452 
L 119.026838 172.788164 
L 123.651112 173.049507 
L 128.275387 173.114444 
L 132.899662 172.241639 
L 137.523936 172.456913 
L 142.148211 170.995423 
L 146.772485 169.233033 
L 151.39676 170.762823 
L 156.021035 169.513645 
L 160.645309 168.382766 
L 165.269584 167.897321 
L 169.893859 168.52052 
L 174.518133 169.029849 
L 179.142408 167.672844 
L 183.766683 167.679765 
L 188.390957 168.046831 
L 193.015232 168.160023 
L 197.639507 167.426031 
L 202.263781 167.005898 
L 206.888056 167.12756 
L 211.512331 166.921149 
L 216.136605 166.726764 
L 220.76088 166.447246 
L 225.385155 166.306015 
L 230.009429 167.218772 
L 234.633704 167.561981 
L 239.257979 166.965939 
L 243.882253 165.989981 
L 248.506528 165.460698 
L 253.130803 165.558234 
L 257.755077 165.977228 
L 262.379352 166.519496 
L 267.003627 166.745715 
L 271.627901 166.81472 
L 276.252176 166.950739 
L 280.876451 166.411038 
L 285.500725 166.908398 
L 290.125 167.042805 
L 294.749275 166.598731 
L 299.373549 168.023654 
L 303.997824 167.205047 
L 308.622099 167.559237 
L 313.246373 167.865157 
L 317.870648 167.777146 
L 322.494923 167.153061 
L 327.119197 167.468107 
L 331.743472 168.280955 
L 336.367747 167.729263 
L 340.992021 167.173444 
L 345.616296 167.14233 
L 350.240571 167.595403 
L 354.864845 167.232034 
L 359.48912 166.326436 
L 364.113395 167.3518 
L 368.737669 165.325363 
L 373.361944 165.181255 
L 377.986219 165.246294 
L 382.610493 166.102473 
L 387.234768 166.34594 
L 391.859043 164.392552 
L 396.483317 165.226943 
L 401.107592 166.374954 
L 405.731867 166.662721 
L 410.356141 167.044594 
L 414.980416 164.941601 
L 419.604691 165.266377 
L 424.228965 163.919596 
L 428.85324 166.957515 
L 433.477515 164.313951 
L 438.101789 165.582391 
L 442.726064 163.556015 
L 447.350338 164.99309 
L 451.974613 164.570617 
L 456.598888 166.276107 
L 461.223162 167.741854 
L 465.847437 171.368281 
L 470.471712 168.925519 
L 475.095986 170.721592 
L 479.720261 166.427474 
L 484.344536 175.237147 
L 488.96881 168.244595 
L 493.593085 171.347734 
L 498.21736 170.298383 
L 502.841634 159.486777 
L 507.465909 162.144739 
" style="fill:none;stroke:#9467bd;stroke-linecap:square;stroke-width:1.5;"/>
   </g>
   <g id="line2d_20">
    <path clip-path="url(#pe2e23f2c36)" d="M 72.784091 352.966364 
L 77.408366 308.181028 
L 82.03264 300.153089 
L 86.656915 291.867557 
L 91.28119 284.440339 
L 95.905464 278.948892 
L 100.529739 274.616723 
L 105.154014 269.200612 
L 109.778288 263.390045 
L 114.402563 259.993229 
L 119.026838 257.15819 
L 123.651112 254.759977 
L 128.275387 252.734566 
L 132.899662 250.779899 
L 137.523936 250.059436 
L 142.148211 248.244695 
L 146.772485 246.110396 
L 151.39676 245.986927 
L 156.021035 245.174741 
L 160.645309 244.807249 
L 165.269584 244.611341 
L 169.893859 244.960624 
L 174.518133 245.815493 
L 179.142408 244.830602 
L 183.766683 245.99594 
L 188.390957 246.210205 
L 193.015232 246.183507 
L 197.639507 246.051101 
L 202.263781 245.220687 
L 206.888056 245.78889 
L 211.512331 246.287361 
L 216.136605 246.507269 
L 220.76088 246.848461 
L 225.385155 246.530468 
L 230.009429 246.941657 
L 234.633704 247.976104 
L 239.257979 248.491364 
L 243.882253 248.416014 
L 248.506528 249.190018 
L 253.130803 248.781057 
L 257.755077 248.356653 
L 262.379352 248.812699 
L 267.003627 249.205071 
L 271.627901 248.963357 
L 276.252176 249.235687 
L 280.876451 249.822831 
L 285.500725 250.640767 
L 290.125 251.053719 
L 294.749275 250.39448 
L 299.373549 250.668881 
L 303.997824 250.709721 
L 308.622099 251.538098 
L 313.246373 252.611248 
L 317.870648 253.713716 
L 322.494923 254.046021 
L 327.119197 254.334936 
L 331.743472 254.973208 
L 336.367747 255.250648 
L 340.992021 255.227816 
L 345.616296 255.347255 
L 350.240571 255.405482 
L 354.864845 255.38493 
L 359.48912 254.90767 
L 364.113395 255.355261 
L 368.737669 254.962517 
L 373.361944 254.40439 
L 377.986219 253.03015 
L 382.610493 253.785191 
L 387.234768 254.565937 
L 391.859043 255.892706 
L 396.483317 255.205758 
L 401.107592 254.519041 
L 405.731867 251.333845 
L 410.356141 255.219255 
L 414.980416 254.193445 
L 419.604691 252.916989 
L 424.228965 255.556607 
L 428.85324 254.863073 
L 433.477515 258.089286 
L 438.101789 258.477447 
L 442.726064 253.002229 
L 447.350338 256.074588 
L 451.974613 254.969196 
L 456.598888 243.670556 
L 461.223162 247.176545 
L 465.847437 235.230937 
L 470.471712 227.02943 
L 475.095986 231.321765 
L 479.720261 241.329394 
L 484.344536 246.609379 
L 488.96881 245.209706 
L 493.593085 255.765483 
L 498.21736 260.512531 
L 502.841634 247.838246 
L 507.465909 238.480683 
" style="fill:none;stroke:#8c564b;stroke-linecap:square;stroke-width:1.5;"/>
   </g>
   <g id="line2d_21">
    <path clip-path="url(#pe2e23f2c36)" d="M 72.784091 343.227285 
L 77.408366 260.768286 
L 82.03264 249.782903 
L 86.656915 241.503787 
L 91.28119 235.099934 
L 95.905464 231.235005 
L 100.529739 228.743658 
L 105.154014 225.674254 
L 109.778288 222.488587 
L 114.402563 221.834779 
L 119.026838 220.047245 
L 123.651112 219.678399 
L 128.275387 219.659353 
L 132.899662 219.66826 
L 137.523936 220.049167 
L 142.148211 219.565081 
L 146.772485 218.712225 
L 151.39676 220.089455 
L 156.021035 219.658156 
L 160.645309 219.550712 
L 165.269584 219.126618 
L 169.893859 219.957259 
L 174.518133 220.515607 
L 179.142408 219.772853 
L 183.766683 219.473995 
L 188.390957 219.678381 
L 193.015232 219.769342 
L 197.639507 219.296634 
L 202.263781 219.556599 
L 206.888056 220.742676 
L 211.512331 220.52207 
L 216.136605 220.014239 
L 220.76088 219.263356 
L 225.385155 218.891165 
L 230.009429 219.770447 
L 234.633704 220.637769 
L 239.257979 220.461929 
L 243.882253 220.410149 
L 248.506528 220.522507 
L 253.130803 220.225109 
L 257.755077 220.149104 
L 262.379352 220.855708 
L 267.003627 221.09705 
L 271.627901 221.013158 
L 276.252176 222.014592 
L 280.876451 222.127149 
L 285.500725 222.695078 
L 290.125 223.096108 
L 294.749275 222.079978 
L 299.373549 222.710868 
L 303.997824 222.522012 
L 308.622099 223.053798 
L 313.246373 223.220391 
L 317.870648 223.620158 
L 322.494923 223.208408 
L 327.119197 223.64549 
L 331.743472 224.803447 
L 336.367747 224.779045 
L 340.992021 224.042039 
L 345.616296 224.58352 
L 350.240571 224.562509 
L 354.864845 223.188036 
L 359.48912 223.653565 
L 364.113395 224.031001 
L 368.737669 222.883676 
L 373.361944 222.433656 
L 377.986219 223.069479 
L 382.610493 223.950072 
L 387.234768 222.639791 
L 391.859043 221.961204 
L 396.483317 222.511954 
L 401.107592 223.449362 
L 405.731867 222.520714 
L 410.356141 223.515685 
L 414.980416 222.032379 
L 419.604691 220.728077 
L 424.228965 220.292555 
L 428.85324 224.213755 
L 433.477515 223.571374 
L 438.101789 222.473416 
L 442.726064 222.461105 
L 447.350338 222.02325 
L 451.974613 221.926811 
L 456.598888 219.532823 
L 461.223162 224.360273 
L 465.847437 225.857596 
L 470.471712 222.14806 
L 475.095986 220.348325 
L 479.720261 217.484998 
L 484.344536 224.227528 
L 488.96881 224.226143 
L 493.593085 227.937088 
L 498.21736 226.126862 
L 502.841634 226.661196 
L 507.465909 223.207311 
" style="fill:none;stroke:#e377c2;stroke-linecap:square;stroke-width:1.5;"/>
   </g>
   <g id="line2d_22">
    <path clip-path="url(#pe2e23f2c36)" d="M 72.784091 352.966364 
L 77.408366 308.181028 
L 82.03264 300.153089 
L 86.656915 291.867557 
L 91.28119 284.440339 
L 95.905464 278.948904 
L 100.529739 274.265079 
L 105.154014 269.091476 
L 109.778288 263.140202 
L 114.402563 259.947687 
L 119.026838 255.956895 
L 123.651112 253.995357 
L 128.275387 252.589667 
L 132.899662 250.346659 
L 137.523936 248.901359 
L 142.148211 247.710722 
L 146.772485 245.669221 
L 151.39676 245.421032 
L 156.021035 244.543127 
L 160.645309 243.778937 
L 165.269584 243.22236 
L 169.893859 245.119093 
L 174.518133 245.838711 
L 179.142408 245.178812 
L 183.766683 246.26937 
L 188.390957 247.491575 
L 193.015232 246.707209 
L 197.639507 246.229953 
L 202.263781 246.211328 
L 206.888056 246.975702 
L 211.512331 246.885105 
L 216.136605 246.976006 
L 220.76088 247.437332 
L 225.385155 247.03392 
L 230.009429 247.983484 
L 234.633704 248.943446 
L 239.257979 249.649769 
L 243.882253 248.63543 
L 248.506528 248.961877 
L 253.130803 248.669676 
L 257.755077 249.444093 
L 262.379352 250.149545 
L 267.003627 249.68316 
L 271.627901 249.391109 
L 276.252176 249.436422 
L 280.876451 250.177995 
L 285.500725 250.16592 
L 290.125 251.600481 
L 294.749275 250.863607 
L 299.373549 251.044526 
L 303.997824 251.176404 
L 308.622099 252.360007 
L 313.246373 254.155623 
L 317.870648 254.209251 
L 322.494923 254.883601 
L 327.119197 256.031886 
L 331.743472 256.785861 
L 336.367747 256.514158 
L 340.992021 256.312089 
L 345.616296 256.493182 
L 350.240571 257.182276 
L 354.864845 256.987408 
L 359.48912 256.086457 
L 364.113395 256.75775 
L 368.737669 255.747266 
L 373.361944 255.667083 
L 377.986219 254.508952 
L 382.610493 253.898509 
L 387.234768 254.001833 
L 391.859043 255.251057 
L 396.483317 255.811568 
L 401.107592 255.537949 
L 405.731867 254.831664 
L 410.356141 256.893709 
L 414.980416 257.215859 
L 419.604691 254.341045 
L 424.228965 255.025521 
L 428.85324 256.720901 
L 433.477515 262.725641 
L 438.101789 261.293499 
L 442.726064 258.744481 
L 447.350338 256.070527 
L 451.974613 258.214988 
L 456.598888 248.166592 
L 461.223162 249.693091 
L 465.847437 246.055641 
L 470.471712 238.731956 
L 475.095986 242.757801 
L 479.720261 244.188764 
L 484.344536 256.396856 
L 488.96881 259.193693 
L 493.593085 263.953829 
L 498.21736 263.167663 
L 502.841634 247.828525 
L 507.465909 238.472016 
" style="fill:none;stroke:#7f7f7f;stroke-linecap:square;stroke-width:1.5;"/>
   </g>
   <g id="line2d_23">
    <path clip-path="url(#pe2e23f2c36)" d="M 72.784091 323.749127 
L 77.408366 165.942802 
L 82.03264 149.042532 
L 86.656915 140.777241 
L 91.28119 136.811163 
L 95.905464 134.808186 
L 100.529739 132.68939 
L 105.154014 130.811669 
L 109.778288 128.099734 
L 114.402563 129.765141 
L 119.026838 126.218386 
L 123.651112 124.927074 
L 128.275387 124.763155 
L 132.899662 124.463953 
L 137.523936 124.389618 
L 142.148211 123.157041 
L 146.772485 119.86902 
L 151.39676 120.815486 
L 156.021035 119.361276 
L 160.645309 117.693685 
L 165.269584 117.27786 
L 169.893859 118.487464 
L 174.518133 117.902851 
L 179.142408 115.986294 
L 183.766683 116.031029 
L 188.390957 115.589838 
L 193.015232 115.511979 
L 197.639507 114.416904 
L 202.263781 114.183858 
L 206.888056 114.79311 
L 211.512331 114.159804 
L 216.136605 113.764351 
L 220.76088 113.218931 
L 225.385155 112.69405 
L 230.009429 113.808634 
L 234.633704 113.928902 
L 239.257979 113.312919 
L 243.882253 112.641741 
L 248.506528 111.298761 
L 253.130803 111.211479 
L 257.755077 111.744256 
L 262.379352 112.150902 
L 267.003627 112.145016 
L 271.627901 111.749561 
L 276.252176 111.45684 
L 280.876451 110.991143 
L 285.500725 111.163824 
L 290.125 111.216781 
L 294.749275 110.441255 
L 299.373549 111.483838 
L 303.997824 110.653155 
L 308.622099 110.885737 
L 313.246373 111.47574 
L 317.870648 111.215527 
L 322.494923 110.031607 
L 327.119197 110.06122 
L 331.743472 110.579748 
L 336.367747 109.5739 
L 340.992021 109.661529 
L 345.616296 110.076455 
L 350.240571 109.727847 
L 354.864845 109.216015 
L 359.48912 109.003589 
L 364.113395 109.514685 
L 368.737669 107.652702 
L 373.361944 107.949275 
L 377.986219 108.994566 
L 382.610493 109.78695 
L 387.234768 110.163288 
L 391.859043 108.283414 
L 396.483317 107.426608 
L 401.107592 106.947888 
L 405.731867 108.785998 
L 410.356141 110.539216 
L 414.980416 106.5067 
L 419.604691 107.181736 
L 424.228965 105.427058 
L 428.85324 109.660881 
L 433.477515 109.138185 
L 438.101789 109.925963 
L 442.726064 105.483929 
L 447.350338 105.456155 
L 451.974613 106.700121 
L 456.598888 104.992146 
L 461.223162 107.168657 
L 465.847437 110.758847 
L 470.471712 102.558013 
L 475.095986 111.111434 
L 479.720261 105.386921 
L 484.344536 109.489394 
L 488.96881 102.492929 
L 493.593085 107.938004 
L 498.21736 109.132128 
L 502.841634 105.474032 
L 507.465909 101.093636 
" style="fill:none;stroke:#bcbd22;stroke-linecap:square;stroke-width:1.5;"/>
   </g>
   <g id="patch_3">
    <path d="M 51.05 365.56 
L 51.05 88.5 
" style="fill:none;stroke:#000000;stroke-linecap:square;stroke-linejoin:miter;stroke-width:0.8;"/>
   </g>
   <g id="patch_4">
    <path d="M 529.2 365.56 
L 529.2 88.5 
" style="fill:none;stroke:#000000;stroke-linecap:square;stroke-linejoin:miter;stroke-width:0.8;"/>
   </g>
   <g id="patch_5">
    <path d="M 51.05 365.56 
L 529.2 365.56 
" style="fill:none;stroke:#000000;stroke-linecap:square;stroke-linejoin:miter;stroke-width:0.8;"/>
   </g>
   <g id="patch_6">
    <path d="M 51.05 88.5 
L 529.2 88.5 
" style="fill:none;stroke:#000000;stroke-linecap:square;stroke-linejoin:miter;stroke-width:0.8;"/>
   </g>
   <g id="legend_1">
    <g id="patch_7">
     <path d="M 61.55 81 
L 518.7 81 
Q 521.7 81 521.7 78 
L 521.7 13.448438 
Q 521.7 10.448438 518.7 10.448438 
L 61.55 10.448438 
Q 58.55 10.448438 58.55 13.448438 
L 58.55 78 
Q 58.55 81 61.55 81 
z
" style="fill:#ffffff;opacity:0.8;stroke:#cccccc;stroke-linejoin:miter;"/>
    </g>
    <g id="line2d_24">
     <path d="M 64.55 22.596094 
L 94.55 22.596094 
" style="fill:none;stroke:#1f77b4;stroke-linecap:square;stroke-width:1.5;"/>
    </g>
    <g id="line2d_25"/>
    <g id="text_17">
     <!-- Stra 1 -->
     <defs>
      <path d="M 53.515625 70.515625 
L 53.515625 60.890625 
Q 47.90625 63.578125 42.921875 64.890625 
Q 37.9375 66.21875 33.296875 66.21875 
Q 25.25 66.21875 20.875 63.09375 
Q 16.5 59.96875 16.5 54.203125 
Q 16.5 49.359375 19.40625 46.890625 
Q 22.3125 44.4375 30.421875 42.921875 
L 36.375 41.703125 
Q 47.40625 39.59375 52.65625 34.296875 
Q 57.90625 29 57.90625 20.125 
Q 57.90625 9.515625 50.796875 4.046875 
Q 43.703125 -1.421875 29.984375 -1.421875 
Q 24.8125 -1.421875 18.96875 -0.25 
Q 13.140625 0.921875 6.890625 3.21875 
L 6.890625 13.375 
Q 12.890625 10.015625 18.65625 8.296875 
Q 24.421875 6.59375 29.984375 6.59375 
Q 38.421875 6.59375 43.015625 9.90625 
Q 47.609375 13.234375 47.609375 19.390625 
Q 47.609375 24.75 44.3125 27.78125 
Q 41.015625 30.8125 33.5 32.328125 
L 27.484375 33.5 
Q 16.453125 35.6875 11.515625 40.375 
Q 6.59375 45.0625 6.59375 53.421875 
Q 6.59375 63.09375 13.40625 68.65625 
Q 20.21875 74.21875 32.171875 74.21875 
Q 37.3125 74.21875 42.625 73.28125 
Q 47.953125 72.359375 53.515625 70.515625 
z
" id="DejaVuSans-83"/>
      <path d="M 18.3125 70.21875 
L 18.3125 54.6875 
L 36.8125 54.6875 
L 36.8125 47.703125 
L 18.3125 47.703125 
L 18.3125 18.015625 
Q 18.3125 11.328125 20.140625 9.421875 
Q 21.96875 7.515625 27.59375 7.515625 
L 36.8125 7.515625 
L 36.8125 0 
L 27.59375 0 
Q 17.1875 0 13.234375 3.875 
Q 9.28125 7.765625 9.28125 18.015625 
L 9.28125 47.703125 
L 2.6875 47.703125 
L 2.6875 54.6875 
L 9.28125 54.6875 
L 9.28125 70.21875 
z
" id="DejaVuSans-116"/>
      <path d="M 41.109375 46.296875 
Q 39.59375 47.171875 37.8125 47.578125 
Q 36.03125 48 33.890625 48 
Q 26.265625 48 22.1875 43.046875 
Q 18.109375 38.09375 18.109375 28.8125 
L 18.109375 0 
L 9.078125 0 
L 9.078125 54.6875 
L 18.109375 54.6875 
L 18.109375 46.1875 
Q 20.953125 51.171875 25.484375 53.578125 
Q 30.03125 56 36.53125 56 
Q 37.453125 56 38.578125 55.875 
Q 39.703125 55.765625 41.0625 55.515625 
z
" id="DejaVuSans-114"/>
     </defs>
     <g transform="translate(106.55 27.846094)scale(0.15 -0.15)">
      <use xlink:href="#DejaVuSans-83"/>
      <use x="63.476562" xlink:href="#DejaVuSans-116"/>
      <use x="102.685547" xlink:href="#DejaVuSans-114"/>
      <use x="143.798828" xlink:href="#DejaVuSans-97"/>
      <use x="205.078125" xlink:href="#DejaVuSans-32"/>
      <use x="236.865234" xlink:href="#DejaVuSans-49"/>
     </g>
    </g>
    <g id="line2d_26">
     <path d="M 64.55 44.613281 
L 94.55 44.613281 
" style="fill:none;stroke:#ff7f0e;stroke-linecap:square;stroke-width:1.5;"/>
    </g>
    <g id="line2d_27"/>
    <g id="text_18">
     <!-- Stra 2 -->
     <g transform="translate(106.55 49.863281)scale(0.15 -0.15)">
      <use xlink:href="#DejaVuSans-83"/>
      <use x="63.476562" xlink:href="#DejaVuSans-116"/>
      <use x="102.685547" xlink:href="#DejaVuSans-114"/>
      <use x="143.798828" xlink:href="#DejaVuSans-97"/>
      <use x="205.078125" xlink:href="#DejaVuSans-32"/>
      <use x="236.865234" xlink:href="#DejaVuSans-50"/>
     </g>
    </g>
    <g id="line2d_28">
     <path d="M 64.55 66.630469 
L 94.55 66.630469 
" style="fill:none;stroke:#2ca02c;stroke-linecap:square;stroke-width:1.5;"/>
    </g>
    <g id="line2d_29"/>
    <g id="text_19">
     <!-- Stra 3 -->
     <g transform="translate(106.55 71.880469)scale(0.15 -0.15)">
      <use xlink:href="#DejaVuSans-83"/>
      <use x="63.476562" xlink:href="#DejaVuSans-116"/>
      <use x="102.685547" xlink:href="#DejaVuSans-114"/>
      <use x="143.798828" xlink:href="#DejaVuSans-97"/>
      <use x="205.078125" xlink:href="#DejaVuSans-32"/>
      <use x="236.865234" xlink:href="#DejaVuSans-51"/>
     </g>
    </g>
    <g id="line2d_30">
     <path d="M 185.909115 22.596094 
L 215.909115 22.596094 
" style="fill:none;stroke:#d62728;stroke-linecap:square;stroke-width:1.5;"/>
    </g>
    <g id="line2d_31"/>
    <g id="text_20">
     <!-- Stra 4 -->
     <g transform="translate(227.909115 27.846094)scale(0.15 -0.15)">
      <use xlink:href="#DejaVuSans-83"/>
      <use x="63.476562" xlink:href="#DejaVuSans-116"/>
      <use x="102.685547" xlink:href="#DejaVuSans-114"/>
      <use x="143.798828" xlink:href="#DejaVuSans-97"/>
      <use x="205.078125" xlink:href="#DejaVuSans-32"/>
      <use x="236.865234" xlink:href="#DejaVuSans-52"/>
     </g>
    </g>
    <g id="line2d_32">
     <path d="M 185.909115 44.613281 
L 215.909115 44.613281 
" style="fill:none;stroke:#9467bd;stroke-linecap:square;stroke-width:1.5;"/>
    </g>
    <g id="line2d_33"/>
    <g id="text_21">
     <!-- Stra 5 -->
     <g transform="translate(227.909115 49.863281)scale(0.15 -0.15)">
      <use xlink:href="#DejaVuSans-83"/>
      <use x="63.476562" xlink:href="#DejaVuSans-116"/>
      <use x="102.685547" xlink:href="#DejaVuSans-114"/>
      <use x="143.798828" xlink:href="#DejaVuSans-97"/>
      <use x="205.078125" xlink:href="#DejaVuSans-32"/>
      <use x="236.865234" xlink:href="#DejaVuSans-53"/>
     </g>
    </g>
    <g id="line2d_34">
     <path d="M 307.268229 22.596094 
L 337.268229 22.596094 
" style="fill:none;stroke:#8c564b;stroke-linecap:square;stroke-width:1.5;"/>
    </g>
    <g id="line2d_35"/>
    <g id="text_22">
     <!-- Stra 6 -->
     <g transform="translate(349.268229 27.846094)scale(0.15 -0.15)">
      <use xlink:href="#DejaVuSans-83"/>
      <use x="63.476562" xlink:href="#DejaVuSans-116"/>
      <use x="102.685547" xlink:href="#DejaVuSans-114"/>
      <use x="143.798828" xlink:href="#DejaVuSans-97"/>
      <use x="205.078125" xlink:href="#DejaVuSans-32"/>
      <use x="236.865234" xlink:href="#DejaVuSans-54"/>
     </g>
    </g>
    <g id="line2d_36">
     <path d="M 307.268229 44.613281 
L 337.268229 44.613281 
" style="fill:none;stroke:#e377c2;stroke-linecap:square;stroke-width:1.5;"/>
    </g>
    <g id="line2d_37"/>
    <g id="text_23">
     <!-- Stra 7 -->
     <g transform="translate(349.268229 49.863281)scale(0.15 -0.15)">
      <use xlink:href="#DejaVuSans-83"/>
      <use x="63.476562" xlink:href="#DejaVuSans-116"/>
      <use x="102.685547" xlink:href="#DejaVuSans-114"/>
      <use x="143.798828" xlink:href="#DejaVuSans-97"/>
      <use x="205.078125" xlink:href="#DejaVuSans-32"/>
      <use x="236.865234" xlink:href="#DejaVuSans-55"/>
     </g>
    </g>
    <g id="line2d_38">
     <path d="M 428.627344 22.596094 
L 458.627344 22.596094 
" style="fill:none;stroke:#7f7f7f;stroke-linecap:square;stroke-width:1.5;"/>
    </g>
    <g id="line2d_39"/>
    <g id="text_24">
     <!-- Stra 8 -->
     <g transform="translate(470.627344 27.846094)scale(0.15 -0.15)">
      <use xlink:href="#DejaVuSans-83"/>
      <use x="63.476562" xlink:href="#DejaVuSans-116"/>
      <use x="102.685547" xlink:href="#DejaVuSans-114"/>
      <use x="143.798828" xlink:href="#DejaVuSans-97"/>
      <use x="205.078125" xlink:href="#DejaVuSans-32"/>
      <use x="236.865234" xlink:href="#DejaVuSans-56"/>
     </g>
    </g>
    <g id="line2d_40">
     <path d="M 428.627344 44.613281 
L 458.627344 44.613281 
" style="fill:none;stroke:#bcbd22;stroke-linecap:square;stroke-width:1.5;"/>
    </g>
    <g id="line2d_41"/>
    <g id="text_25">
     <!-- Stra 9 -->
     <g transform="translate(470.627344 49.863281)scale(0.15 -0.15)">
      <use xlink:href="#DejaVuSans-83"/>
      <use x="63.476562" xlink:href="#DejaVuSans-116"/>
      <use x="102.685547" xlink:href="#DejaVuSans-114"/>
      <use x="143.798828" xlink:href="#DejaVuSans-97"/>
      <use x="205.078125" xlink:href="#DejaVuSans-32"/>
      <use x="236.865234" xlink:href="#DejaVuSans-57"/>
     </g>
    </g>
   </g>
  </g>
 </g>
 <defs>
  <clipPath id="pe2e23f2c36">
   <rect height="277.06" width="478.15" x="51.05" y="88.5"/>
  </clipPath>
 </defs>
</svg>
