<?xml version="1.0" encoding="utf-8" standalone="no"?>
<!DOCTYPE svg PUBLIC "-//W3C//DTD SVG 1.1//EN"
  "http://www.w3.org/Graphics/SVG/1.1/DTD/svg11.dtd">
<!-- Created with matplotlib (https://matplotlib.org/) -->
<svg height="432pt" version="1.1" viewBox="0 0 540 432" width="540pt" xmlns="http://www.w3.org/2000/svg" xmlns:xlink="http://www.w3.org/1999/xlink">
 <defs>
  <style type="text/css">
*{stroke-linecap:butt;stroke-linejoin:round;}
  </style>
 </defs>
 <g id="figure_1">
  <g id="patch_1">
   <path d="M 0 432 
L 540 432 
L 540 0 
L 0 0 
z
" style="fill:#ffffff;"/>
  </g>
  <g id="axes_1">
   <g id="patch_2">
    <path d="M 89.12 365.56 
L 529.2 365.56 
L 529.2 66.6 
L 89.12 66.6 
z
" style="fill:#ffffff;"/>
   </g>
   <g id="matplotlib.axis_1">
    <g id="xtick_1">
     <g id="line2d_1">
      <defs>
       <path d="M 0 0 
L 0 3.5 
" id="mb036b9fb0d" style="stroke:#000000;stroke-width:0.8;"/>
      </defs>
      <g>
       <use style="stroke:#000000;stroke-width:0.8;" x="109.123636" xlink:href="#mb036b9fb0d" y="365.56"/>
      </g>
     </g>
     <g id="text_1">
      <!-- 0 -->
      <defs>
       <path d="M 31.78125 66.40625 
Q 24.171875 66.40625 20.328125 58.90625 
Q 16.5 51.421875 16.5 36.375 
Q 16.5 21.390625 20.328125 13.890625 
Q 24.171875 6.390625 31.78125 6.390625 
Q 39.453125 6.390625 43.28125 13.890625 
Q 47.125 21.390625 47.125 36.375 
Q 47.125 51.421875 43.28125 58.90625 
Q 39.453125 66.40625 31.78125 66.40625 
z
M 31.78125 74.21875 
Q 44.046875 74.21875 50.515625 64.515625 
Q 56.984375 54.828125 56.984375 36.375 
Q 56.984375 17.96875 50.515625 8.265625 
Q 44.046875 -1.421875 31.78125 -1.421875 
Q 19.53125 -1.421875 13.0625 8.265625 
Q 6.59375 17.96875 6.59375 36.375 
Q 6.59375 54.828125 13.0625 64.515625 
Q 19.53125 74.21875 31.78125 74.21875 
z
" id="DejaVuSans-48"/>
      </defs>
      <g transform="translate(102.761136 387.756875)scale(0.2 -0.2)">
       <use xlink:href="#DejaVuSans-48"/>
      </g>
     </g>
    </g>
    <g id="xtick_2">
     <g id="line2d_2">
      <g>
       <use style="stroke:#000000;stroke-width:0.8;" x="194.245493" xlink:href="#mb036b9fb0d" y="365.56"/>
      </g>
     </g>
     <g id="text_2">
      <!-- 20 -->
      <defs>
       <path d="M 19.1875 8.296875 
L 53.609375 8.296875 
L 53.609375 0 
L 7.328125 0 
L 7.328125 8.296875 
Q 12.9375 14.109375 22.625 23.890625 
Q 32.328125 33.6875 34.8125 36.53125 
Q 39.546875 41.84375 41.421875 45.53125 
Q 43.3125 49.21875 43.3125 52.78125 
Q 43.3125 58.59375 39.234375 62.25 
Q 35.15625 65.921875 28.609375 65.921875 
Q 23.96875 65.921875 18.8125 64.3125 
Q 13.671875 62.703125 7.8125 59.421875 
L 7.8125 69.390625 
Q 13.765625 71.78125 18.9375 73 
Q 24.125 74.21875 28.421875 74.21875 
Q 39.75 74.21875 46.484375 68.546875 
Q 53.21875 62.890625 53.21875 53.421875 
Q 53.21875 48.921875 51.53125 44.890625 
Q 49.859375 40.875 45.40625 35.40625 
Q 44.1875 33.984375 37.640625 27.21875 
Q 31.109375 20.453125 19.1875 8.296875 
z
" id="DejaVuSans-50"/>
      </defs>
      <g transform="translate(181.520493 387.756875)scale(0.2 -0.2)">
       <use xlink:href="#DejaVuSans-50"/>
       <use x="63.623047" xlink:href="#DejaVuSans-48"/>
      </g>
     </g>
    </g>
    <g id="xtick_3">
     <g id="line2d_3">
      <g>
       <use style="stroke:#000000;stroke-width:0.8;" x="279.36735" xlink:href="#mb036b9fb0d" y="365.56"/>
      </g>
     </g>
     <g id="text_3">
      <!-- 40 -->
      <defs>
       <path d="M 37.796875 64.3125 
L 12.890625 25.390625 
L 37.796875 25.390625 
z
M 35.203125 72.90625 
L 47.609375 72.90625 
L 47.609375 25.390625 
L 58.015625 25.390625 
L 58.015625 17.1875 
L 47.609375 17.1875 
L 47.609375 0 
L 37.796875 0 
L 37.796875 17.1875 
L 4.890625 17.1875 
L 4.890625 26.703125 
z
" id="DejaVuSans-52"/>
      </defs>
      <g transform="translate(266.64235 387.756875)scale(0.2 -0.2)">
       <use xlink:href="#DejaVuSans-52"/>
       <use x="63.623047" xlink:href="#DejaVuSans-48"/>
      </g>
     </g>
    </g>
    <g id="xtick_4">
     <g id="line2d_4">
      <g>
       <use style="stroke:#000000;stroke-width:0.8;" x="364.489207" xlink:href="#mb036b9fb0d" y="365.56"/>
      </g>
     </g>
     <g id="text_4">
      <!-- 60 -->
      <defs>
       <path d="M 33.015625 40.375 
Q 26.375 40.375 22.484375 35.828125 
Q 18.609375 31.296875 18.609375 23.390625 
Q 18.609375 15.53125 22.484375 10.953125 
Q 26.375 6.390625 33.015625 6.390625 
Q 39.65625 6.390625 43.53125 10.953125 
Q 47.40625 15.53125 47.40625 23.390625 
Q 47.40625 31.296875 43.53125 35.828125 
Q 39.65625 40.375 33.015625 40.375 
z
M 52.59375 71.296875 
L 52.59375 62.3125 
Q 48.875 64.0625 45.09375 64.984375 
Q 41.3125 65.921875 37.59375 65.921875 
Q 27.828125 65.921875 22.671875 59.328125 
Q 17.53125 52.734375 16.796875 39.40625 
Q 19.671875 43.65625 24.015625 45.921875 
Q 28.375 48.1875 33.59375 48.1875 
Q 44.578125 48.1875 50.953125 41.515625 
Q 57.328125 34.859375 57.328125 23.390625 
Q 57.328125 12.15625 50.6875 5.359375 
Q 44.046875 -1.421875 33.015625 -1.421875 
Q 20.359375 -1.421875 13.671875 8.265625 
Q 6.984375 17.96875 6.984375 36.375 
Q 6.984375 53.65625 15.1875 63.9375 
Q 23.390625 74.21875 37.203125 74.21875 
Q 40.921875 74.21875 44.703125 73.484375 
Q 48.484375 72.75 52.59375 71.296875 
z
" id="DejaVuSans-54"/>
      </defs>
      <g transform="translate(351.764207 387.756875)scale(0.2 -0.2)">
       <use xlink:href="#DejaVuSans-54"/>
       <use x="63.623047" xlink:href="#DejaVuSans-48"/>
      </g>
     </g>
    </g>
    <g id="xtick_5">
     <g id="line2d_5">
      <g>
       <use style="stroke:#000000;stroke-width:0.8;" x="449.611064" xlink:href="#mb036b9fb0d" y="365.56"/>
      </g>
     </g>
     <g id="text_5">
      <!-- 80 -->
      <defs>
       <path d="M 31.78125 34.625 
Q 24.75 34.625 20.71875 30.859375 
Q 16.703125 27.09375 16.703125 20.515625 
Q 16.703125 13.921875 20.71875 10.15625 
Q 24.75 6.390625 31.78125 6.390625 
Q 38.8125 6.390625 42.859375 10.171875 
Q 46.921875 13.96875 46.921875 20.515625 
Q 46.921875 27.09375 42.890625 30.859375 
Q 38.875 34.625 31.78125 34.625 
z
M 21.921875 38.8125 
Q 15.578125 40.375 12.03125 44.71875 
Q 8.5 49.078125 8.5 55.328125 
Q 8.5 64.0625 14.71875 69.140625 
Q 20.953125 74.21875 31.78125 74.21875 
Q 42.671875 74.21875 48.875 69.140625 
Q 55.078125 64.0625 55.078125 55.328125 
Q 55.078125 49.078125 51.53125 44.71875 
Q 48 40.375 41.703125 38.8125 
Q 48.828125 37.15625 52.796875 32.3125 
Q 56.78125 27.484375 56.78125 20.515625 
Q 56.78125 9.90625 50.3125 4.234375 
Q 43.84375 -1.421875 31.78125 -1.421875 
Q 19.734375 -1.421875 13.25 4.234375 
Q 6.78125 9.90625 6.78125 20.515625 
Q 6.78125 27.484375 10.78125 32.3125 
Q 14.796875 37.15625 21.921875 38.8125 
z
M 18.3125 54.390625 
Q 18.3125 48.734375 21.84375 45.5625 
Q 25.390625 42.390625 31.78125 42.390625 
Q 38.140625 42.390625 41.71875 45.5625 
Q 45.3125 48.734375 45.3125 54.390625 
Q 45.3125 60.0625 41.71875 63.234375 
Q 38.140625 66.40625 31.78125 66.40625 
Q 25.390625 66.40625 21.84375 63.234375 
Q 18.3125 60.0625 18.3125 54.390625 
z
" id="DejaVuSans-56"/>
      </defs>
      <g transform="translate(436.886064 387.756875)scale(0.2 -0.2)">
       <use xlink:href="#DejaVuSans-56"/>
       <use x="63.623047" xlink:href="#DejaVuSans-48"/>
      </g>
     </g>
    </g>
    <g id="text_6">
     <!-- # of games -->
     <defs>
      <path d="M 51.125 44 
L 36.921875 44 
L 32.8125 27.6875 
L 47.125 27.6875 
z
M 43.796875 71.78125 
L 38.71875 51.515625 
L 52.984375 51.515625 
L 58.109375 71.78125 
L 65.921875 71.78125 
L 60.890625 51.515625 
L 76.125 51.515625 
L 76.125 44 
L 58.984375 44 
L 54.984375 27.6875 
L 70.515625 27.6875 
L 70.515625 20.21875 
L 53.078125 20.21875 
L 48 0 
L 40.1875 0 
L 45.21875 20.21875 
L 30.90625 20.21875 
L 25.875 0 
L 18.015625 0 
L 23.09375 20.21875 
L 7.71875 20.21875 
L 7.71875 27.6875 
L 24.90625 27.6875 
L 29 44 
L 13.28125 44 
L 13.28125 51.515625 
L 30.90625 51.515625 
L 35.890625 71.78125 
z
" id="DejaVuSans-35"/>
      <path id="DejaVuSans-32"/>
      <path d="M 30.609375 48.390625 
Q 23.390625 48.390625 19.1875 42.75 
Q 14.984375 37.109375 14.984375 27.296875 
Q 14.984375 17.484375 19.15625 11.84375 
Q 23.34375 6.203125 30.609375 6.203125 
Q 37.796875 6.203125 41.984375 11.859375 
Q 46.1875 17.53125 46.1875 27.296875 
Q 46.1875 37.015625 41.984375 42.703125 
Q 37.796875 48.390625 30.609375 48.390625 
z
M 30.609375 56 
Q 42.328125 56 49.015625 48.375 
Q 55.71875 40.765625 55.71875 27.296875 
Q 55.71875 13.875 49.015625 6.21875 
Q 42.328125 -1.421875 30.609375 -1.421875 
Q 18.84375 -1.421875 12.171875 6.21875 
Q 5.515625 13.875 5.515625 27.296875 
Q 5.515625 40.765625 12.171875 48.375 
Q 18.84375 56 30.609375 56 
z
" id="DejaVuSans-111"/>
      <path d="M 37.109375 75.984375 
L 37.109375 68.5 
L 28.515625 68.5 
Q 23.6875 68.5 21.796875 66.546875 
Q 19.921875 64.59375 19.921875 59.515625 
L 19.921875 54.6875 
L 34.71875 54.6875 
L 34.71875 47.703125 
L 19.921875 47.703125 
L 19.921875 0 
L 10.890625 0 
L 10.890625 47.703125 
L 2.296875 47.703125 
L 2.296875 54.6875 
L 10.890625 54.6875 
L 10.890625 58.5 
Q 10.890625 67.625 15.140625 71.796875 
Q 19.390625 75.984375 28.609375 75.984375 
z
" id="DejaVuSans-102"/>
      <path d="M 45.40625 27.984375 
Q 45.40625 37.75 41.375 43.109375 
Q 37.359375 48.484375 30.078125 48.484375 
Q 22.859375 48.484375 18.828125 43.109375 
Q 14.796875 37.75 14.796875 27.984375 
Q 14.796875 18.265625 18.828125 12.890625 
Q 22.859375 7.515625 30.078125 7.515625 
Q 37.359375 7.515625 41.375 12.890625 
Q 45.40625 18.265625 45.40625 27.984375 
z
M 54.390625 6.78125 
Q 54.390625 -7.171875 48.1875 -13.984375 
Q 42 -20.796875 29.203125 -20.796875 
Q 24.46875 -20.796875 20.265625 -20.09375 
Q 16.0625 -19.390625 12.109375 -17.921875 
L 12.109375 -9.1875 
Q 16.0625 -11.328125 19.921875 -12.34375 
Q 23.78125 -13.375 27.78125 -13.375 
Q 36.625 -13.375 41.015625 -8.765625 
Q 45.40625 -4.15625 45.40625 5.171875 
L 45.40625 9.625 
Q 42.625 4.78125 38.28125 2.390625 
Q 33.9375 0 27.875 0 
Q 17.828125 0 11.671875 7.65625 
Q 5.515625 15.328125 5.515625 27.984375 
Q 5.515625 40.671875 11.671875 48.328125 
Q 17.828125 56 27.875 56 
Q 33.9375 56 38.28125 53.609375 
Q 42.625 51.21875 45.40625 46.390625 
L 45.40625 54.6875 
L 54.390625 54.6875 
z
" id="DejaVuSans-103"/>
      <path d="M 34.28125 27.484375 
Q 23.390625 27.484375 19.1875 25 
Q 14.984375 22.515625 14.984375 16.5 
Q 14.984375 11.71875 18.140625 8.90625 
Q 21.296875 6.109375 26.703125 6.109375 
Q 34.1875 6.109375 38.703125 11.40625 
Q 43.21875 16.703125 43.21875 25.484375 
L 43.21875 27.484375 
z
M 52.203125 31.203125 
L 52.203125 0 
L 43.21875 0 
L 43.21875 8.296875 
Q 40.140625 3.328125 35.546875 0.953125 
Q 30.953125 -1.421875 24.3125 -1.421875 
Q 15.921875 -1.421875 10.953125 3.296875 
Q 6 8.015625 6 15.921875 
Q 6 25.140625 12.171875 29.828125 
Q 18.359375 34.515625 30.609375 34.515625 
L 43.21875 34.515625 
L 43.21875 35.40625 
Q 43.21875 41.609375 39.140625 45 
Q 35.0625 48.390625 27.6875 48.390625 
Q 23 48.390625 18.546875 47.265625 
Q 14.109375 46.140625 10.015625 43.890625 
L 10.015625 52.203125 
Q 14.9375 54.109375 19.578125 55.046875 
Q 24.21875 56 28.609375 56 
Q 40.484375 56 46.34375 49.84375 
Q 52.203125 43.703125 52.203125 31.203125 
z
" id="DejaVuSans-97"/>
      <path d="M 52 44.1875 
Q 55.375 50.25 60.0625 53.125 
Q 64.75 56 71.09375 56 
Q 79.640625 56 84.28125 50.015625 
Q 88.921875 44.046875 88.921875 33.015625 
L 88.921875 0 
L 79.890625 0 
L 79.890625 32.71875 
Q 79.890625 40.578125 77.09375 44.375 
Q 74.3125 48.1875 68.609375 48.1875 
Q 61.625 48.1875 57.5625 43.546875 
Q 53.515625 38.921875 53.515625 30.90625 
L 53.515625 0 
L 44.484375 0 
L 44.484375 32.71875 
Q 44.484375 40.625 41.703125 44.40625 
Q 38.921875 48.1875 33.109375 48.1875 
Q 26.21875 48.1875 22.15625 43.53125 
Q 18.109375 38.875 18.109375 30.90625 
L 18.109375 0 
L 9.078125 0 
L 9.078125 54.6875 
L 18.109375 54.6875 
L 18.109375 46.1875 
Q 21.1875 51.21875 25.484375 53.609375 
Q 29.78125 56 35.6875 56 
Q 41.65625 56 45.828125 52.96875 
Q 50 49.953125 52 44.1875 
z
" id="DejaVuSans-109"/>
      <path d="M 56.203125 29.59375 
L 56.203125 25.203125 
L 14.890625 25.203125 
Q 15.484375 15.921875 20.484375 11.0625 
Q 25.484375 6.203125 34.421875 6.203125 
Q 39.59375 6.203125 44.453125 7.46875 
Q 49.3125 8.734375 54.109375 11.28125 
L 54.109375 2.78125 
Q 49.265625 0.734375 44.1875 -0.34375 
Q 39.109375 -1.421875 33.890625 -1.421875 
Q 20.796875 -1.421875 13.15625 6.1875 
Q 5.515625 13.8125 5.515625 26.8125 
Q 5.515625 40.234375 12.765625 48.109375 
Q 20.015625 56 32.328125 56 
Q 43.359375 56 49.78125 48.890625 
Q 56.203125 41.796875 56.203125 29.59375 
z
M 47.21875 32.234375 
Q 47.125 39.59375 43.09375 43.984375 
Q 39.0625 48.390625 32.421875 48.390625 
Q 24.90625 48.390625 20.390625 44.140625 
Q 15.875 39.890625 15.1875 32.171875 
z
" id="DejaVuSans-101"/>
      <path d="M 44.28125 53.078125 
L 44.28125 44.578125 
Q 40.484375 46.53125 36.375 47.5 
Q 32.28125 48.484375 27.875 48.484375 
Q 21.1875 48.484375 17.84375 46.4375 
Q 14.5 44.390625 14.5 40.28125 
Q 14.5 37.15625 16.890625 35.375 
Q 19.28125 33.59375 26.515625 31.984375 
L 29.59375 31.296875 
Q 39.15625 29.25 43.1875 25.515625 
Q 47.21875 21.78125 47.21875 15.09375 
Q 47.21875 7.46875 41.1875 3.015625 
Q 35.15625 -1.421875 24.609375 -1.421875 
Q 20.21875 -1.421875 15.453125 -0.5625 
Q 10.6875 0.296875 5.421875 2 
L 5.421875 11.28125 
Q 10.40625 8.6875 15.234375 7.390625 
Q 20.0625 6.109375 24.8125 6.109375 
Q 31.15625 6.109375 34.5625 8.28125 
Q 37.984375 10.453125 37.984375 14.40625 
Q 37.984375 18.0625 35.515625 20.015625 
Q 33.0625 21.96875 24.703125 23.78125 
L 21.578125 24.515625 
Q 13.234375 26.265625 9.515625 29.90625 
Q 5.8125 33.546875 5.8125 39.890625 
Q 5.8125 47.609375 11.28125 51.796875 
Q 16.75 56 26.8125 56 
Q 31.78125 56 36.171875 55.265625 
Q 40.578125 54.546875 44.28125 53.078125 
z
" id="DejaVuSans-115"/>
     </defs>
     <g transform="translate(236.716641 414.912344)scale(0.25 -0.25)">
      <use xlink:href="#DejaVuSans-35"/>
      <use x="83.789062" xlink:href="#DejaVuSans-32"/>
      <use x="115.576172" xlink:href="#DejaVuSans-111"/>
      <use x="176.757812" xlink:href="#DejaVuSans-102"/>
      <use x="211.962891" xlink:href="#DejaVuSans-32"/>
      <use x="243.75" xlink:href="#DejaVuSans-103"/>
      <use x="307.226562" xlink:href="#DejaVuSans-97"/>
      <use x="368.505859" xlink:href="#DejaVuSans-109"/>
      <use x="465.917969" xlink:href="#DejaVuSans-101"/>
      <use x="527.441406" xlink:href="#DejaVuSans-115"/>
     </g>
    </g>
   </g>
   <g id="matplotlib.axis_2">
    <g id="ytick_1">
     <g id="line2d_6">
      <defs>
       <path d="M 0 0 
L -3.5 0 
" id="m51a206a3dd" style="stroke:#000000;stroke-width:0.8;"/>
      </defs>
      <g>
       <use style="stroke:#000000;stroke-width:0.8;" x="89.12" xlink:href="#m51a206a3dd" y="351.970909"/>
      </g>
     </g>
     <g id="text_7">
      <!-- 0 -->
      <g transform="translate(69.395 359.569347)scale(0.2 -0.2)">
       <use xlink:href="#DejaVuSans-48"/>
      </g>
     </g>
    </g>
    <g id="ytick_2">
     <g id="line2d_7">
      <g>
       <use style="stroke:#000000;stroke-width:0.8;" x="89.12" xlink:href="#m51a206a3dd" y="291.11515"/>
      </g>
     </g>
     <g id="text_8">
      <!-- 500 -->
      <defs>
       <path d="M 10.796875 72.90625 
L 49.515625 72.90625 
L 49.515625 64.59375 
L 19.828125 64.59375 
L 19.828125 46.734375 
Q 21.96875 47.46875 24.109375 47.828125 
Q 26.265625 48.1875 28.421875 48.1875 
Q 40.625 48.1875 47.75 41.5 
Q 54.890625 34.8125 54.890625 23.390625 
Q 54.890625 11.625 47.5625 5.09375 
Q 40.234375 -1.421875 26.90625 -1.421875 
Q 22.3125 -1.421875 17.546875 -0.640625 
Q 12.796875 0.140625 7.71875 1.703125 
L 7.71875 11.625 
Q 12.109375 9.234375 16.796875 8.0625 
Q 21.484375 6.890625 26.703125 6.890625 
Q 35.15625 6.890625 40.078125 11.328125 
Q 45.015625 15.765625 45.015625 23.390625 
Q 45.015625 31 40.078125 35.4375 
Q 35.15625 39.890625 26.703125 39.890625 
Q 22.75 39.890625 18.8125 39.015625 
Q 14.890625 38.140625 10.796875 36.28125 
z
" id="DejaVuSans-53"/>
      </defs>
      <g transform="translate(43.945 298.713588)scale(0.2 -0.2)">
       <use xlink:href="#DejaVuSans-53"/>
       <use x="63.623047" xlink:href="#DejaVuSans-48"/>
       <use x="127.246094" xlink:href="#DejaVuSans-48"/>
      </g>
     </g>
    </g>
    <g id="ytick_3">
     <g id="line2d_8">
      <g>
       <use style="stroke:#000000;stroke-width:0.8;" x="89.12" xlink:href="#m51a206a3dd" y="230.259392"/>
      </g>
     </g>
     <g id="text_9">
      <!-- 1000 -->
      <defs>
       <path d="M 12.40625 8.296875 
L 28.515625 8.296875 
L 28.515625 63.921875 
L 10.984375 60.40625 
L 10.984375 69.390625 
L 28.421875 72.90625 
L 38.28125 72.90625 
L 38.28125 8.296875 
L 54.390625 8.296875 
L 54.390625 0 
L 12.40625 0 
z
" id="DejaVuSans-49"/>
      </defs>
      <g transform="translate(31.22 237.857829)scale(0.2 -0.2)">
       <use xlink:href="#DejaVuSans-49"/>
       <use x="63.623047" xlink:href="#DejaVuSans-48"/>
       <use x="127.246094" xlink:href="#DejaVuSans-48"/>
       <use x="190.869141" xlink:href="#DejaVuSans-48"/>
      </g>
     </g>
    </g>
    <g id="ytick_4">
     <g id="line2d_9">
      <g>
       <use style="stroke:#000000;stroke-width:0.8;" x="89.12" xlink:href="#m51a206a3dd" y="169.403633"/>
      </g>
     </g>
     <g id="text_10">
      <!-- 1500 -->
      <g transform="translate(31.22 177.002071)scale(0.2 -0.2)">
       <use xlink:href="#DejaVuSans-49"/>
       <use x="63.623047" xlink:href="#DejaVuSans-53"/>
       <use x="127.246094" xlink:href="#DejaVuSans-48"/>
       <use x="190.869141" xlink:href="#DejaVuSans-48"/>
      </g>
     </g>
    </g>
    <g id="ytick_5">
     <g id="line2d_10">
      <g>
       <use style="stroke:#000000;stroke-width:0.8;" x="89.12" xlink:href="#m51a206a3dd" y="108.547874"/>
      </g>
     </g>
     <g id="text_11">
      <!-- 2000 -->
      <g transform="translate(31.22 116.146312)scale(0.2 -0.2)">
       <use xlink:href="#DejaVuSans-50"/>
       <use x="63.623047" xlink:href="#DejaVuSans-48"/>
       <use x="127.246094" xlink:href="#DejaVuSans-48"/>
       <use x="190.869141" xlink:href="#DejaVuSans-48"/>
      </g>
     </g>
    </g>
    <g id="text_12">
     <!-- Number of Attackers in CKC -->
     <defs>
      <path d="M 9.8125 72.90625 
L 23.09375 72.90625 
L 55.421875 11.921875 
L 55.421875 72.90625 
L 64.984375 72.90625 
L 64.984375 0 
L 51.703125 0 
L 19.390625 60.984375 
L 19.390625 0 
L 9.8125 0 
z
" id="DejaVuSans-78"/>
      <path d="M 8.5 21.578125 
L 8.5 54.6875 
L 17.484375 54.6875 
L 17.484375 21.921875 
Q 17.484375 14.15625 20.5 10.265625 
Q 23.53125 6.390625 29.59375 6.390625 
Q 36.859375 6.390625 41.078125 11.03125 
Q 45.3125 15.671875 45.3125 23.6875 
L 45.3125 54.6875 
L 54.296875 54.6875 
L 54.296875 0 
L 45.3125 0 
L 45.3125 8.40625 
Q 42.046875 3.421875 37.71875 1 
Q 33.40625 -1.421875 27.6875 -1.421875 
Q 18.265625 -1.421875 13.375 4.4375 
Q 8.5 10.296875 8.5 21.578125 
z
M 31.109375 56 
z
" id="DejaVuSans-117"/>
      <path d="M 48.6875 27.296875 
Q 48.6875 37.203125 44.609375 42.84375 
Q 40.53125 48.484375 33.40625 48.484375 
Q 26.265625 48.484375 22.1875 42.84375 
Q 18.109375 37.203125 18.109375 27.296875 
Q 18.109375 17.390625 22.1875 11.75 
Q 26.265625 6.109375 33.40625 6.109375 
Q 40.53125 6.109375 44.609375 11.75 
Q 48.6875 17.390625 48.6875 27.296875 
z
M 18.109375 46.390625 
Q 20.953125 51.265625 25.265625 53.625 
Q 29.59375 56 35.59375 56 
Q 45.5625 56 51.78125 48.09375 
Q 58.015625 40.1875 58.015625 27.296875 
Q 58.015625 14.40625 51.78125 6.484375 
Q 45.5625 -1.421875 35.59375 -1.421875 
Q 29.59375 -1.421875 25.265625 0.953125 
Q 20.953125 3.328125 18.109375 8.203125 
L 18.109375 0 
L 9.078125 0 
L 9.078125 75.984375 
L 18.109375 75.984375 
z
" id="DejaVuSans-98"/>
      <path d="M 41.109375 46.296875 
Q 39.59375 47.171875 37.8125 47.578125 
Q 36.03125 48 33.890625 48 
Q 26.265625 48 22.1875 43.046875 
Q 18.109375 38.09375 18.109375 28.8125 
L 18.109375 0 
L 9.078125 0 
L 9.078125 54.6875 
L 18.109375 54.6875 
L 18.109375 46.1875 
Q 20.953125 51.171875 25.484375 53.578125 
Q 30.03125 56 36.53125 56 
Q 37.453125 56 38.578125 55.875 
Q 39.703125 55.765625 41.0625 55.515625 
z
" id="DejaVuSans-114"/>
      <path d="M 34.1875 63.1875 
L 20.796875 26.90625 
L 47.609375 26.90625 
z
M 28.609375 72.90625 
L 39.796875 72.90625 
L 67.578125 0 
L 57.328125 0 
L 50.6875 18.703125 
L 17.828125 18.703125 
L 11.1875 0 
L 0.78125 0 
z
" id="DejaVuSans-65"/>
      <path d="M 18.3125 70.21875 
L 18.3125 54.6875 
L 36.8125 54.6875 
L 36.8125 47.703125 
L 18.3125 47.703125 
L 18.3125 18.015625 
Q 18.3125 11.328125 20.140625 9.421875 
Q 21.96875 7.515625 27.59375 7.515625 
L 36.8125 7.515625 
L 36.8125 0 
L 27.59375 0 
Q 17.1875 0 13.234375 3.875 
Q 9.28125 7.765625 9.28125 18.015625 
L 9.28125 47.703125 
L 2.6875 47.703125 
L 2.6875 54.6875 
L 9.28125 54.6875 
L 9.28125 70.21875 
z
" id="DejaVuSans-116"/>
      <path d="M 48.78125 52.59375 
L 48.78125 44.1875 
Q 44.96875 46.296875 41.140625 47.34375 
Q 37.3125 48.390625 33.40625 48.390625 
Q 24.65625 48.390625 19.8125 42.84375 
Q 14.984375 37.3125 14.984375 27.296875 
Q 14.984375 17.28125 19.8125 11.734375 
Q 24.65625 6.203125 33.40625 6.203125 
Q 37.3125 6.203125 41.140625 7.25 
Q 44.96875 8.296875 48.78125 10.40625 
L 48.78125 2.09375 
Q 45.015625 0.34375 40.984375 -0.53125 
Q 36.96875 -1.421875 32.421875 -1.421875 
Q 20.0625 -1.421875 12.78125 6.34375 
Q 5.515625 14.109375 5.515625 27.296875 
Q 5.515625 40.671875 12.859375 48.328125 
Q 20.21875 56 33.015625 56 
Q 37.15625 56 41.109375 55.140625 
Q 45.0625 54.296875 48.78125 52.59375 
z
" id="DejaVuSans-99"/>
      <path d="M 9.078125 75.984375 
L 18.109375 75.984375 
L 18.109375 31.109375 
L 44.921875 54.6875 
L 56.390625 54.6875 
L 27.390625 29.109375 
L 57.625 0 
L 45.90625 0 
L 18.109375 26.703125 
L 18.109375 0 
L 9.078125 0 
z
" id="DejaVuSans-107"/>
      <path d="M 9.421875 54.6875 
L 18.40625 54.6875 
L 18.40625 0 
L 9.421875 0 
z
M 9.421875 75.984375 
L 18.40625 75.984375 
L 18.40625 64.59375 
L 9.421875 64.59375 
z
" id="DejaVuSans-105"/>
      <path d="M 54.890625 33.015625 
L 54.890625 0 
L 45.90625 0 
L 45.90625 32.71875 
Q 45.90625 40.484375 42.875 44.328125 
Q 39.84375 48.1875 33.796875 48.1875 
Q 26.515625 48.1875 22.3125 43.546875 
Q 18.109375 38.921875 18.109375 30.90625 
L 18.109375 0 
L 9.078125 0 
L 9.078125 54.6875 
L 18.109375 54.6875 
L 18.109375 46.1875 
Q 21.34375 51.125 25.703125 53.5625 
Q 30.078125 56 35.796875 56 
Q 45.21875 56 50.046875 50.171875 
Q 54.890625 44.34375 54.890625 33.015625 
z
" id="DejaVuSans-110"/>
      <path d="M 64.40625 67.28125 
L 64.40625 56.890625 
Q 59.421875 61.53125 53.78125 63.8125 
Q 48.140625 66.109375 41.796875 66.109375 
Q 29.296875 66.109375 22.65625 58.46875 
Q 16.015625 50.828125 16.015625 36.375 
Q 16.015625 21.96875 22.65625 14.328125 
Q 29.296875 6.6875 41.796875 6.6875 
Q 48.140625 6.6875 53.78125 8.984375 
Q 59.421875 11.28125 64.40625 15.921875 
L 64.40625 5.609375 
Q 59.234375 2.09375 53.4375 0.328125 
Q 47.65625 -1.421875 41.21875 -1.421875 
Q 24.65625 -1.421875 15.125 8.703125 
Q 5.609375 18.84375 5.609375 36.375 
Q 5.609375 53.953125 15.125 64.078125 
Q 24.65625 74.21875 41.21875 74.21875 
Q 47.75 74.21875 53.53125 72.484375 
Q 59.328125 70.75 64.40625 67.28125 
z
" id="DejaVuSans-67"/>
      <path d="M 9.8125 72.90625 
L 19.671875 72.90625 
L 19.671875 42.09375 
L 52.390625 72.90625 
L 65.09375 72.90625 
L 28.90625 38.921875 
L 67.671875 0 
L 54.6875 0 
L 19.671875 35.109375 
L 19.671875 0 
L 9.8125 0 
z
" id="DejaVuSans-75"/>
     </defs>
     <g transform="translate(23.753854 332.513594)rotate(-90)scale(0.166667 -0.166667)">
      <use xlink:href="#DejaVuSans-78"/>
      <use x="74.804688" xlink:href="#DejaVuSans-117"/>
      <use x="138.183594" xlink:href="#DejaVuSans-109"/>
      <use x="235.595703" xlink:href="#DejaVuSans-98"/>
      <use x="299.072266" xlink:href="#DejaVuSans-101"/>
      <use x="360.595703" xlink:href="#DejaVuSans-114"/>
      <use x="401.708984" xlink:href="#DejaVuSans-32"/>
      <use x="433.496094" xlink:href="#DejaVuSans-111"/>
      <use x="494.677734" xlink:href="#DejaVuSans-102"/>
      <use x="529.882812" xlink:href="#DejaVuSans-32"/>
      <use x="561.669922" xlink:href="#DejaVuSans-65"/>
      <use x="630.0625" xlink:href="#DejaVuSans-116"/>
      <use x="669.271484" xlink:href="#DejaVuSans-116"/>
      <use x="708.480469" xlink:href="#DejaVuSans-97"/>
      <use x="769.759766" xlink:href="#DejaVuSans-99"/>
      <use x="824.740234" xlink:href="#DejaVuSans-107"/>
      <use x="882.603516" xlink:href="#DejaVuSans-101"/>
      <use x="944.126953" xlink:href="#DejaVuSans-114"/>
      <use x="985.240234" xlink:href="#DejaVuSans-115"/>
      <use x="1037.339844" xlink:href="#DejaVuSans-32"/>
      <use x="1069.126953" xlink:href="#DejaVuSans-105"/>
      <use x="1096.910156" xlink:href="#DejaVuSans-110"/>
      <use x="1160.289062" xlink:href="#DejaVuSans-32"/>
      <use x="1192.076172" xlink:href="#DejaVuSans-67"/>
      <use x="1261.900391" xlink:href="#DejaVuSans-75"/>
      <use x="1327.398438" xlink:href="#DejaVuSans-67"/>
     </g>
    </g>
   </g>
   <g id="line2d_11">
    <path clip-path="url(#p135a34f01f)" d="M 109.123636 298.174418 
L 113.379729 291.11515 
L 117.635822 287.828939 
L 121.891915 283.569036 
L 126.148008 280.891383 
L 130.404101 281.499941 
L 134.660193 278.943999 
L 138.916286 277.361749 
L 143.172379 275.536076 
L 147.428472 273.832115 
L 151.684565 276.63148 
L 155.940658 277.848595 
L 160.19675 276.144634 
L 164.452843 273.101846 
L 168.708936 270.545904 
L 172.965029 269.4505 
L 177.221122 275.657788 
L 181.477215 276.022922 
L 185.733308 275.657788 
L 189.9894 274.318961 
L 194.245493 275.657788 
L 198.501586 278.578864 
L 202.757679 277.361749 
L 207.013772 278.092018 
L 211.269865 280.039402 
L 215.525957 281.134806 
L 219.78205 281.743364 
L 224.038143 281.134806 
L 228.294236 286.490113 
L 232.550329 285.759844 
L 236.806422 286.490113 
L 241.062515 289.532901 
L 245.318607 287.220382 
L 249.5747 290.993439 
L 253.830793 289.898035 
L 258.086886 287.463805 
L 262.342979 287.828939 
L 266.599072 291.601996 
L 270.855164 292.940823 
L 275.111257 295.8619 
L 279.36735 299.87838 
L 283.623443 299.391534 
L 287.879536 301.095495 
L 292.135629 300.121803 
L 296.391721 299.148111 
L 300.647814 301.095495 
L 304.903907 304.381706 
L 309.16 305.477109 
L 313.416093 307.059359 
L 317.672186 305.963956 
L 321.928279 307.91134 
L 326.184371 311.075839 
L 330.440464 309.615301 
L 334.696557 312.536377 
L 338.95265 316.187723 
L 343.208743 318.256819 
L 347.464836 321.299607 
L 351.720928 323.125279 
L 355.977021 324.829241 
L 360.233114 327.020048 
L 364.489207 328.480586 
L 368.7453 330.427971 
L 373.001393 331.766797 
L 377.257485 334.201028 
L 381.513578 335.904989 
L 385.769671 338.095796 
L 390.025764 340.651738 
L 394.281857 340.530026 
L 398.53795 342.842545 
L 402.794043 343.937949 
L 407.050135 344.303083 
L 411.306228 346.007045 
L 415.562321 346.128756 
L 419.818414 346.737314 
L 424.074507 346.980737 
L 428.3306 347.954429 
L 432.586692 348.684698 
L 436.842785 349.049833 
L 441.098878 349.536679 
L 445.354971 348.928121 
L 449.611064 349.536679 
L 453.867157 349.65839 
L 458.12325 349.65839 
L 462.379342 351.118928 
L 466.635435 351.362352 
L 470.891528 351.484063 
L 475.147621 351.484063 
L 479.403714 351.484063 
L 483.659807 351.484063 
L 487.915899 351.484063 
L 492.171992 351.484063 
L 496.428085 351.362352 
L 500.684178 351.484063 
L 504.940271 351.484063 
L 509.196364 351.484063 
" style="fill:none;stroke:#1f77b4;stroke-linecap:square;stroke-width:1.5;"/>
   </g>
   <g id="line2d_12">
    <path clip-path="url(#p135a34f01f)" d="M 109.123636 344.911641 
L 113.379729 329.454278 
L 117.635822 314.970608 
L 121.891915 302.677745 
L 126.148008 287.585516 
L 130.404101 273.953826 
L 134.660193 260.687271 
L 138.916286 249.976658 
L 143.172379 241.821986 
L 147.428472 229.163988 
L 151.684565 216.50599 
L 155.940658 207.012492 
L 160.19675 197.275571 
L 164.452843 186.686669 
L 168.708936 175.002363 
L 172.965029 164.656884 
L 177.221122 151.633752 
L 181.477215 141.653407 
L 185.733308 134.472428 
L 189.9894 133.011889 
L 194.245493 124.492083 
L 198.501586 118.163084 
L 202.757679 111.103816 
L 207.013772 106.722202 
L 211.269865 99.906357 
L 215.525957 93.577358 
L 219.78205 92.847089 
L 224.038143 88.465474 
L 228.294236 87.978628 
L 232.550329 85.422686 
L 236.806422 82.379898 
L 241.062515 80.189091 
L 245.318607 81.162783 
L 249.5747 82.379898 
L 253.830793 88.708897 
L 258.086886 88.95232 
L 262.342979 85.544398 
L 266.599072 87.613493 
L 270.855164 90.291147 
L 275.111257 89.074032 
L 279.36735 99.541222 
L 283.623443 105.139952 
L 287.879536 102.462299 
L 292.135629 107.939317 
L 296.391721 114.390027 
L 300.647814 117.067681 
L 304.903907 116.945969 
L 309.16 118.771642 
L 313.416093 125.587487 
L 317.672186 133.742159 
L 321.928279 139.097465 
L 326.184371 150.051502 
L 330.440464 162.466077 
L 334.696557 168.308229 
L 338.95265 176.949747 
L 343.208743 182.548477 
L 347.464836 189.97288 
L 351.720928 205.065108 
L 355.977021 210.785549 
L 360.233114 225.512643 
L 364.489207 232.693622 
L 368.7453 237.075237 
L 373.001393 242.308832 
L 377.257485 254.723407 
L 381.513578 263.486636 
L 385.769671 272.980134 
L 390.025764 283.325613 
L 394.281857 292.819112 
L 398.53795 301.704052 
L 402.794043 306.085667 
L 407.050135 310.710705 
L 411.306228 317.161415 
L 415.562321 321.421318 
L 419.818414 324.950952 
L 424.074507 324.707529 
L 428.3306 328.237163 
L 432.586692 328.845721 
L 436.842785 333.714181 
L 441.098878 337.974085 
L 445.354971 337.974085 
L 449.611064 341.747142 
L 453.867157 343.085968 
L 458.12325 343.572814 
L 462.379342 347.22416 
L 466.635435 346.980737 
L 470.891528 349.780102 
L 475.147621 349.780102 
L 479.403714 349.65839 
L 483.659807 349.780102 
L 487.915899 349.65839 
L 492.171992 349.65839 
L 496.428085 349.65839 
L 500.684178 349.536679 
L 504.940271 350.997217 
L 509.196364 351.118928 
" style="fill:none;stroke:#ff7f0e;stroke-linecap:square;stroke-width:1.5;"/>
   </g>
   <g id="line2d_13">
    <path clip-path="url(#p135a34f01f)" d="M 109.123636 351.970909 
L 113.379729 349.780102 
L 117.635822 344.911641 
L 121.891915 339.678046 
L 126.148008 337.365527 
L 130.404101 329.819413 
L 134.660193 324.707529 
L 138.916286 316.309435 
L 143.172379 311.684397 
L 147.428472 309.371878 
L 151.684565 304.990263 
L 155.940658 299.634957 
L 160.19675 294.766496 
L 164.452843 294.036227 
L 168.708936 289.654612 
L 172.965029 288.315786 
L 177.221122 284.177594 
L 181.477215 285.272998 
L 185.733308 282.595344 
L 189.9894 279.06571 
L 194.245493 281.743364 
L 198.501586 278.21373 
L 202.757679 275.657788 
L 207.013772 277.726884 
L 211.269865 275.292653 
L 215.525957 276.022922 
L 219.78205 275.901211 
L 224.038143 274.440673 
L 228.294236 275.170942 
L 232.550329 276.144634 
L 236.806422 276.388057 
L 241.062515 274.318961 
L 245.318607 272.006442 
L 249.5747 275.04923 
L 253.830793 278.335441 
L 258.086886 277.361749 
L 262.342979 279.552556 
L 266.599072 280.039402 
L 270.855164 277.605172 
L 275.111257 276.63148 
L 279.36735 273.223557 
L 283.623443 276.874903 
L 287.879536 278.578864 
L 292.135629 281.378229 
L 296.391721 281.378229 
L 300.647814 282.838767 
L 304.903907 284.66444 
L 309.16 284.907863 
L 313.416093 288.437497 
L 317.672186 287.585516 
L 321.928279 289.411189 
L 326.184371 293.427669 
L 330.440464 297.200726 
L 334.696557 300.852072 
L 338.95265 303.286302 
L 343.208743 304.625129 
L 347.464836 307.91134 
L 351.720928 312.171243 
L 355.977021 312.779801 
L 360.233114 319.108799 
L 364.489207 320.691049 
L 368.7453 323.612126 
L 373.001393 325.072664 
L 377.257485 329.210855 
L 381.513578 330.793105 
L 385.769671 332.01022 
L 390.025764 334.931297 
L 394.281857 336.0267 
L 398.53795 340.04318 
L 402.794043 340.895161 
L 407.050135 341.382007 
L 411.306228 344.05966 
L 415.562321 344.05966 
L 419.818414 345.155064 
L 424.074507 345.64191 
L 428.3306 346.493891 
L 432.586692 347.711006 
L 436.842785 348.928121 
L 441.098878 349.536679 
L 445.354971 349.901813 
L 449.611064 350.266948 
L 453.867157 350.266948 
L 458.12325 349.780102 
L 462.379342 350.510371 
L 466.635435 350.753794 
L 470.891528 351.24064 
L 475.147621 351.362352 
L 479.403714 351.362352 
L 483.659807 351.362352 
L 487.915899 351.484063 
L 492.171992 351.484063 
L 496.428085 351.484063 
L 500.684178 351.362352 
L 504.940271 351.362352 
L 509.196364 351.24064 
" style="fill:none;stroke:#2ca02c;stroke-linecap:square;stroke-width:1.5;"/>
   </g>
   <g id="line2d_14">
    <path clip-path="url(#p135a34f01f)" d="M 109.123636 351.970909 
L 113.379729 351.970909 
L 117.635822 351.484063 
L 121.891915 350.753794 
L 126.148008 349.293256 
L 130.404101 347.711006 
L 134.660193 345.276776 
L 138.916286 344.668218 
L 143.172379 340.651738 
L 147.428472 337.852373 
L 151.684565 335.539854 
L 155.940658 332.983912 
L 160.19675 333.59247 
L 164.452843 331.766797 
L 168.708936 329.819413 
L 172.965029 329.941124 
L 177.221122 330.914817 
L 181.477215 328.237163 
L 185.733308 328.967432 
L 189.9894 328.237163 
L 194.245493 323.490414 
L 198.501586 325.55951 
L 202.757679 323.490414 
L 207.013772 322.029876 
L 211.269865 322.39501 
L 215.525957 320.934472 
L 219.78205 320.812761 
L 224.038143 321.177895 
L 228.294236 323.003568 
L 232.550329 320.691049 
L 236.806422 320.204203 
L 241.062515 319.96078 
L 245.318607 319.595645 
L 249.5747 318.743665 
L 253.830793 317.891684 
L 258.086886 318.500242 
L 262.342979 320.325915 
L 266.599072 320.082492 
L 270.855164 320.934472 
L 275.111257 320.691049 
L 279.36735 322.516722 
L 283.623443 319.230511 
L 287.879536 318.865376 
L 292.135629 320.691049 
L 296.391721 321.786453 
L 300.647814 320.447626 
L 304.903907 320.569338 
L 309.16 321.54303 
L 313.416093 319.717357 
L 317.672186 320.569338 
L 321.928279 318.743665 
L 326.184371 321.664741 
L 330.440464 323.125279 
L 334.696557 324.585818 
L 338.95265 326.654913 
L 343.208743 327.750317 
L 347.464836 328.724009 
L 351.720928 331.401663 
L 355.977021 333.835893 
L 360.233114 333.349047 
L 364.489207 335.539854 
L 368.7453 336.0267 
L 373.001393 336.391835 
L 377.257485 340.286603 
L 381.513578 340.895161 
L 385.769671 341.990565 
L 390.025764 344.181372 
L 394.281857 345.398487 
L 398.53795 345.885333 
L 402.794043 346.980737 
L 407.050135 347.102448 
L 411.306228 347.467583 
L 415.562321 348.684698 
L 419.818414 349.049833 
L 424.074507 348.441275 
L 428.3306 349.293256 
L 432.586692 349.293256 
L 436.842785 350.023525 
L 441.098878 350.875505 
L 445.354971 350.632082 
L 449.611064 350.632082 
L 453.867157 350.875505 
L 458.12325 350.753794 
L 462.379342 351.24064 
L 466.635435 351.118928 
L 470.891528 351.362352 
L 475.147621 351.24064 
L 479.403714 351.362352 
L 483.659807 351.362352 
L 487.915899 351.362352 
L 492.171992 351.484063 
L 496.428085 351.727486 
L 500.684178 351.727486 
L 504.940271 351.970909 
L 509.196364 351.970909 
" style="fill:none;stroke:#d62728;stroke-linecap:square;stroke-width:1.5;"/>
   </g>
   <g id="line2d_15">
    <path clip-path="url(#p135a34f01f)" d="M 109.123636 351.970909 
L 113.379729 351.970909 
L 117.635822 351.970909 
L 121.891915 351.849198 
L 126.148008 351.849198 
L 130.404101 350.997217 
L 134.660193 350.266948 
L 138.916286 347.954429 
L 143.172379 347.345871 
L 147.428472 346.250468 
L 151.684565 344.78993 
L 155.940658 342.720834 
L 160.19675 338.704354 
L 164.452843 337.243815 
L 168.708936 337.852373 
L 172.965029 337.122104 
L 177.221122 334.931297 
L 181.477215 333.835893 
L 185.733308 332.131932 
L 189.9894 333.835893 
L 194.245493 334.444451 
L 198.501586 331.401663 
L 202.757679 330.671394 
L 207.013772 329.697701 
L 211.269865 330.671394 
L 215.525957 330.184547 
L 219.78205 328.237163 
L 224.038143 325.924644 
L 228.294236 325.681221 
L 232.550329 325.072664 
L 236.806422 324.342395 
L 241.062515 323.97726 
L 245.318607 323.246991 
L 249.5747 324.098972 
L 253.830793 324.950952 
L 258.086886 323.855549 
L 262.342979 323.003568 
L 266.599072 324.098972 
L 270.855164 324.950952 
L 275.111257 326.046356 
L 279.36735 325.55951 
L 283.623443 326.654913 
L 287.879536 326.046356 
L 292.135629 323.855549 
L 296.391721 324.098972 
L 300.647814 325.802933 
L 304.903907 324.098972 
L 309.16 325.072664 
L 313.416093 327.385183 
L 317.672186 326.533202 
L 321.928279 327.99374 
L 326.184371 326.898337 
L 330.440464 328.358875 
L 334.696557 329.210855 
L 338.95265 331.645086 
L 343.208743 333.105624 
L 347.464836 332.618778 
L 351.720928 332.862201 
L 355.977021 335.053008 
L 360.233114 337.730662 
L 364.489207 337.730662 
L 368.7453 338.826065 
L 373.001393 340.530026 
L 377.257485 340.530026 
L 381.513578 342.112276 
L 385.769671 343.451103 
L 390.025764 344.546507 
L 394.281857 345.763622 
L 398.53795 347.467583 
L 402.794043 348.319564 
L 407.050135 348.562987 
L 411.306228 349.780102 
L 415.562321 349.536679 
L 419.818414 349.901813 
L 424.074507 349.901813 
L 428.3306 350.266948 
L 432.586692 349.901813 
L 436.842785 350.023525 
L 441.098878 351.118928 
L 445.354971 350.997217 
L 449.611064 351.362352 
L 453.867157 351.727486 
L 458.12325 351.849198 
L 462.379342 351.484063 
L 466.635435 351.605775 
L 470.891528 351.727486 
L 475.147621 351.727486 
L 479.403714 351.605775 
L 483.659807 351.605775 
L 487.915899 351.484063 
L 492.171992 351.484063 
L 496.428085 351.362352 
L 500.684178 351.362352 
L 504.940271 351.605775 
L 509.196364 351.605775 
" style="fill:none;stroke:#9467bd;stroke-linecap:square;stroke-width:1.5;"/>
   </g>
   <g id="line2d_16">
    <path clip-path="url(#p135a34f01f)" d="M 109.123636 351.970909 
L 113.379729 351.970909 
L 117.635822 351.970909 
L 121.891915 351.970909 
L 126.148008 351.849198 
L 130.404101 351.849198 
L 134.660193 351.484063 
L 138.916286 350.875505 
L 143.172379 349.414967 
L 147.428472 347.345871 
L 151.684565 345.033353 
L 155.940658 342.720834 
L 160.19675 341.260296 
L 164.452843 337.487239 
L 168.708936 333.957605 
L 172.965029 329.941124 
L 177.221122 325.55951 
L 181.477215 322.273299 
L 185.733308 319.230511 
L 189.9894 314.483762 
L 194.245493 311.684397 
L 198.501586 310.102147 
L 202.757679 306.207379 
L 207.013772 304.016571 
L 211.269865 299.148111 
L 215.525957 295.009919 
L 219.78205 292.940823 
L 224.038143 290.628304 
L 228.294236 287.828939 
L 232.550329 284.786152 
L 236.806422 282.717056 
L 241.062515 280.891383 
L 245.318607 279.674268 
L 249.5747 279.187422 
L 253.830793 278.457153 
L 258.086886 274.805807 
L 262.342979 271.884731 
L 266.599072 270.667616 
L 270.855164 268.111674 
L 275.111257 265.677443 
L 279.36735 266.772847 
L 283.623443 266.042578 
L 287.879536 264.338617 
L 292.135629 263.973482 
L 296.391721 262.026098 
L 300.647814 260.443848 
L 304.903907 260.808983 
L 309.16 258.618175 
L 313.416093 260.687271 
L 317.672186 261.052406 
L 321.928279 262.99979 
L 326.184371 266.772847 
L 330.440464 267.137982 
L 334.696557 269.693923 
L 338.95265 273.953826 
L 343.208743 276.996614 
L 347.464836 279.187422 
L 351.720928 284.177594 
L 355.977021 284.299305 
L 360.233114 291.11515 
L 364.489207 294.644784 
L 368.7453 298.052707 
L 373.001393 301.460629 
L 377.257485 307.91134 
L 381.513578 311.197551 
L 385.769671 314.483762 
L 390.025764 320.812761 
L 394.281857 323.97726 
L 398.53795 329.941124 
L 402.794043 332.01022 
L 407.050135 333.835893 
L 411.306228 336.391835 
L 415.562321 338.826065 
L 419.818414 340.04318 
L 424.074507 339.799757 
L 428.3306 341.990565 
L 432.586692 342.112276 
L 436.842785 344.303083 
L 441.098878 345.155064 
L 445.354971 345.276776 
L 449.611064 346.980737 
L 453.867157 347.589294 
L 458.12325 347.345871 
L 462.379342 350.023525 
L 466.635435 349.65839 
L 470.891528 350.997217 
L 475.147621 350.997217 
L 479.403714 350.997217 
L 483.659807 350.875505 
L 487.915899 350.875505 
L 492.171992 350.753794 
L 496.428085 350.632082 
L 500.684178 350.632082 
L 504.940271 351.605775 
L 509.196364 351.727486 
" style="fill:none;stroke:#8c564b;stroke-linecap:square;stroke-width:1.5;"/>
   </g>
   <g id="patch_3">
    <path d="M 89.12 365.56 
L 89.12 66.6 
" style="fill:none;stroke:#000000;stroke-linecap:square;stroke-linejoin:miter;stroke-width:0.8;"/>
   </g>
   <g id="patch_4">
    <path d="M 529.2 365.56 
L 529.2 66.6 
" style="fill:none;stroke:#000000;stroke-linecap:square;stroke-linejoin:miter;stroke-width:0.8;"/>
   </g>
   <g id="patch_5">
    <path d="M 89.12 365.56 
L 529.2 365.56 
" style="fill:none;stroke:#000000;stroke-linecap:square;stroke-linejoin:miter;stroke-width:0.8;"/>
   </g>
   <g id="patch_6">
    <path d="M 89.12 66.6 
L 529.2 66.6 
" style="fill:none;stroke:#000000;stroke-linecap:square;stroke-linejoin:miter;stroke-width:0.8;"/>
   </g>
   <g id="legend_1">
    <g id="patch_7">
     <path d="M 99.62 59.1 
L 518.7 59.1 
Q 521.7 59.1 521.7 56.1 
L 521.7 13.565625 
Q 521.7 10.565625 518.7 10.565625 
L 99.62 10.565625 
Q 96.62 10.565625 96.62 13.565625 
L 96.62 56.1 
Q 96.62 59.1 99.62 59.1 
z
" style="fill:#ffffff;opacity:0.8;stroke:#cccccc;stroke-linejoin:miter;"/>
    </g>
    <g id="line2d_17">
     <path d="M 102.62 22.713281 
L 132.62 22.713281 
" style="fill:none;stroke:#1f77b4;stroke-linecap:square;stroke-width:1.5;"/>
    </g>
    <g id="line2d_18"/>
    <g id="text_13">
     <!-- CKC #0 -->
     <g transform="translate(144.62 27.963281)scale(0.15 -0.15)">
      <use xlink:href="#DejaVuSans-67"/>
      <use x="69.824219" xlink:href="#DejaVuSans-75"/>
      <use x="135.322266" xlink:href="#DejaVuSans-67"/>
      <use x="205.146484" xlink:href="#DejaVuSans-32"/>
      <use x="236.933594" xlink:href="#DejaVuSans-35"/>
      <use x="320.722656" xlink:href="#DejaVuSans-48"/>
     </g>
    </g>
    <g id="line2d_19">
     <path d="M 102.62 44.730469 
L 132.62 44.730469 
" style="fill:none;stroke:#ff7f0e;stroke-linecap:square;stroke-width:1.5;"/>
    </g>
    <g id="line2d_20"/>
    <g id="text_14">
     <!-- CKC #1 -->
     <g transform="translate(144.62 49.980469)scale(0.15 -0.15)">
      <use xlink:href="#DejaVuSans-67"/>
      <use x="69.824219" xlink:href="#DejaVuSans-75"/>
      <use x="135.322266" xlink:href="#DejaVuSans-67"/>
      <use x="205.146484" xlink:href="#DejaVuSans-32"/>
      <use x="236.933594" xlink:href="#DejaVuSans-35"/>
      <use x="320.722656" xlink:href="#DejaVuSans-49"/>
     </g>
    </g>
    <g id="line2d_21">
     <path d="M 207.095365 22.713281 
L 237.095365 22.713281 
" style="fill:none;stroke:#2ca02c;stroke-linecap:square;stroke-width:1.5;"/>
    </g>
    <g id="line2d_22"/>
    <g id="text_15">
     <!-- CKC #2 -->
     <g transform="translate(249.095365 27.963281)scale(0.15 -0.15)">
      <use xlink:href="#DejaVuSans-67"/>
      <use x="69.824219" xlink:href="#DejaVuSans-75"/>
      <use x="135.322266" xlink:href="#DejaVuSans-67"/>
      <use x="205.146484" xlink:href="#DejaVuSans-32"/>
      <use x="236.933594" xlink:href="#DejaVuSans-35"/>
      <use x="320.722656" xlink:href="#DejaVuSans-50"/>
     </g>
    </g>
    <g id="line2d_23">
     <path d="M 207.095365 44.730469 
L 237.095365 44.730469 
" style="fill:none;stroke:#d62728;stroke-linecap:square;stroke-width:1.5;"/>
    </g>
    <g id="line2d_24"/>
    <g id="text_16">
     <!-- CKC #3 -->
     <defs>
      <path d="M 40.578125 39.3125 
Q 47.65625 37.796875 51.625 33 
Q 55.609375 28.21875 55.609375 21.1875 
Q 55.609375 10.40625 48.1875 4.484375 
Q 40.765625 -1.421875 27.09375 -1.421875 
Q 22.515625 -1.421875 17.65625 -0.515625 
Q 12.796875 0.390625 7.625 2.203125 
L 7.625 11.71875 
Q 11.71875 9.328125 16.59375 8.109375 
Q 21.484375 6.890625 26.8125 6.890625 
Q 36.078125 6.890625 40.9375 10.546875 
Q 45.796875 14.203125 45.796875 21.1875 
Q 45.796875 27.640625 41.28125 31.265625 
Q 36.765625 34.90625 28.71875 34.90625 
L 20.21875 34.90625 
L 20.21875 43.015625 
L 29.109375 43.015625 
Q 36.375 43.015625 40.234375 45.921875 
Q 44.09375 48.828125 44.09375 54.296875 
Q 44.09375 59.90625 40.109375 62.90625 
Q 36.140625 65.921875 28.71875 65.921875 
Q 24.65625 65.921875 20.015625 65.03125 
Q 15.375 64.15625 9.8125 62.3125 
L 9.8125 71.09375 
Q 15.4375 72.65625 20.34375 73.4375 
Q 25.25 74.21875 29.59375 74.21875 
Q 40.828125 74.21875 47.359375 69.109375 
Q 53.90625 64.015625 53.90625 55.328125 
Q 53.90625 49.265625 50.4375 45.09375 
Q 46.96875 40.921875 40.578125 39.3125 
z
" id="DejaVuSans-51"/>
     </defs>
     <g transform="translate(249.095365 49.980469)scale(0.15 -0.15)">
      <use xlink:href="#DejaVuSans-67"/>
      <use x="69.824219" xlink:href="#DejaVuSans-75"/>
      <use x="135.322266" xlink:href="#DejaVuSans-67"/>
      <use x="205.146484" xlink:href="#DejaVuSans-32"/>
      <use x="236.933594" xlink:href="#DejaVuSans-35"/>
      <use x="320.722656" xlink:href="#DejaVuSans-51"/>
     </g>
    </g>
    <g id="line2d_25">
     <path d="M 311.570729 22.713281 
L 341.570729 22.713281 
" style="fill:none;stroke:#9467bd;stroke-linecap:square;stroke-width:1.5;"/>
    </g>
    <g id="line2d_26"/>
    <g id="text_17">
     <!-- CKC #4 -->
     <g transform="translate(353.570729 27.963281)scale(0.15 -0.15)">
      <use xlink:href="#DejaVuSans-67"/>
      <use x="69.824219" xlink:href="#DejaVuSans-75"/>
      <use x="135.322266" xlink:href="#DejaVuSans-67"/>
      <use x="205.146484" xlink:href="#DejaVuSans-32"/>
      <use x="236.933594" xlink:href="#DejaVuSans-35"/>
      <use x="320.722656" xlink:href="#DejaVuSans-52"/>
     </g>
    </g>
    <g id="line2d_27">
     <path d="M 416.046094 22.713281 
L 446.046094 22.713281 
" style="fill:none;stroke:#8c564b;stroke-linecap:square;stroke-width:1.5;"/>
    </g>
    <g id="line2d_28"/>
    <g id="text_18">
     <!-- CKC #5 -->
     <g transform="translate(458.046094 27.963281)scale(0.15 -0.15)">
      <use xlink:href="#DejaVuSans-67"/>
      <use x="69.824219" xlink:href="#DejaVuSans-75"/>
      <use x="135.322266" xlink:href="#DejaVuSans-67"/>
      <use x="205.146484" xlink:href="#DejaVuSans-32"/>
      <use x="236.933594" xlink:href="#DejaVuSans-35"/>
      <use x="320.722656" xlink:href="#DejaVuSans-53"/>
     </g>
    </g>
   </g>
  </g>
 </g>
 <defs>
  <clipPath id="p135a34f01f">
   <rect height="298.96" width="440.08" x="89.12" y="66.6"/>
  </clipPath>
 </defs>
</svg>
