<?xml version="1.0" encoding="utf-8" standalone="no"?>
<!DOCTYPE svg PUBLIC "-//W3C//DTD SVG 1.1//EN"
  "http://www.w3.org/Graphics/SVG/1.1/DTD/svg11.dtd">
<!-- Created with matplotlib (https://matplotlib.org/) -->
<svg height="432pt" version="1.1" viewBox="0 0 540 432" width="540pt" xmlns="http://www.w3.org/2000/svg" xmlns:xlink="http://www.w3.org/1999/xlink">
 <defs>
  <style type="text/css">
*{stroke-linecap:butt;stroke-linejoin:round;}
  </style>
 </defs>
 <g id="figure_1">
  <g id="patch_1">
   <path d="M 0 432 
L 540 432 
L 540 0 
L 0 0 
z
" style="fill:#ffffff;"/>
  </g>
  <g id="axes_1">
   <g id="patch_2">
    <path d="M 70.13 365.56 
L 529.2 365.56 
L 529.2 66.6 
L 70.13 66.6 
z
" style="fill:#ffffff;"/>
   </g>
   <g id="matplotlib.axis_1">
    <g id="xtick_1">
     <g id="line2d_1">
      <defs>
       <path d="M 0 0 
L 0 3.5 
" id="m33652e30b6" style="stroke:#000000;stroke-width:0.8;"/>
      </defs>
      <g>
       <use style="stroke:#000000;stroke-width:0.8;" x="90.996818" xlink:href="#m33652e30b6" y="365.56"/>
      </g>
     </g>
     <g id="text_1">
      <!-- 0 -->
      <defs>
       <path d="M 31.78125 66.40625 
Q 24.171875 66.40625 20.328125 58.90625 
Q 16.5 51.421875 16.5 36.375 
Q 16.5 21.390625 20.328125 13.890625 
Q 24.171875 6.390625 31.78125 6.390625 
Q 39.453125 6.390625 43.28125 13.890625 
Q 47.125 21.390625 47.125 36.375 
Q 47.125 51.421875 43.28125 58.90625 
Q 39.453125 66.40625 31.78125 66.40625 
z
M 31.78125 74.21875 
Q 44.046875 74.21875 50.515625 64.515625 
Q 56.984375 54.828125 56.984375 36.375 
Q 56.984375 17.96875 50.515625 8.265625 
Q 44.046875 -1.421875 31.78125 -1.421875 
Q 19.53125 -1.421875 13.0625 8.265625 
Q 6.59375 17.96875 6.59375 36.375 
Q 6.59375 54.828125 13.0625 64.515625 
Q 19.53125 74.21875 31.78125 74.21875 
z
" id="DejaVuSans-48"/>
      </defs>
      <g transform="translate(84.634318 387.756875)scale(0.2 -0.2)">
       <use xlink:href="#DejaVuSans-48"/>
      </g>
     </g>
    </g>
    <g id="xtick_2">
     <g id="line2d_2">
      <g>
       <use style="stroke:#000000;stroke-width:0.8;" x="179.791789" xlink:href="#m33652e30b6" y="365.56"/>
      </g>
     </g>
     <g id="text_2">
      <!-- 20 -->
      <defs>
       <path d="M 19.1875 8.296875 
L 53.609375 8.296875 
L 53.609375 0 
L 7.328125 0 
L 7.328125 8.296875 
Q 12.9375 14.109375 22.625 23.890625 
Q 32.328125 33.6875 34.8125 36.53125 
Q 39.546875 41.84375 41.421875 45.53125 
Q 43.3125 49.21875 43.3125 52.78125 
Q 43.3125 58.59375 39.234375 62.25 
Q 35.15625 65.921875 28.609375 65.921875 
Q 23.96875 65.921875 18.8125 64.3125 
Q 13.671875 62.703125 7.8125 59.421875 
L 7.8125 69.390625 
Q 13.765625 71.78125 18.9375 73 
Q 24.125 74.21875 28.421875 74.21875 
Q 39.75 74.21875 46.484375 68.546875 
Q 53.21875 62.890625 53.21875 53.421875 
Q 53.21875 48.921875 51.53125 44.890625 
Q 49.859375 40.875 45.40625 35.40625 
Q 44.1875 33.984375 37.640625 27.21875 
Q 31.109375 20.453125 19.1875 8.296875 
z
" id="DejaVuSans-50"/>
      </defs>
      <g transform="translate(167.066789 387.756875)scale(0.2 -0.2)">
       <use xlink:href="#DejaVuSans-50"/>
       <use x="63.623047" xlink:href="#DejaVuSans-48"/>
      </g>
     </g>
    </g>
    <g id="xtick_3">
     <g id="line2d_3">
      <g>
       <use style="stroke:#000000;stroke-width:0.8;" x="268.58676" xlink:href="#m33652e30b6" y="365.56"/>
      </g>
     </g>
     <g id="text_3">
      <!-- 40 -->
      <defs>
       <path d="M 37.796875 64.3125 
L 12.890625 25.390625 
L 37.796875 25.390625 
z
M 35.203125 72.90625 
L 47.609375 72.90625 
L 47.609375 25.390625 
L 58.015625 25.390625 
L 58.015625 17.1875 
L 47.609375 17.1875 
L 47.609375 0 
L 37.796875 0 
L 37.796875 17.1875 
L 4.890625 17.1875 
L 4.890625 26.703125 
z
" id="DejaVuSans-52"/>
      </defs>
      <g transform="translate(255.86176 387.756875)scale(0.2 -0.2)">
       <use xlink:href="#DejaVuSans-52"/>
       <use x="63.623047" xlink:href="#DejaVuSans-48"/>
      </g>
     </g>
    </g>
    <g id="xtick_4">
     <g id="line2d_4">
      <g>
       <use style="stroke:#000000;stroke-width:0.8;" x="357.381731" xlink:href="#m33652e30b6" y="365.56"/>
      </g>
     </g>
     <g id="text_4">
      <!-- 60 -->
      <defs>
       <path d="M 33.015625 40.375 
Q 26.375 40.375 22.484375 35.828125 
Q 18.609375 31.296875 18.609375 23.390625 
Q 18.609375 15.53125 22.484375 10.953125 
Q 26.375 6.390625 33.015625 6.390625 
Q 39.65625 6.390625 43.53125 10.953125 
Q 47.40625 15.53125 47.40625 23.390625 
Q 47.40625 31.296875 43.53125 35.828125 
Q 39.65625 40.375 33.015625 40.375 
z
M 52.59375 71.296875 
L 52.59375 62.3125 
Q 48.875 64.0625 45.09375 64.984375 
Q 41.3125 65.921875 37.59375 65.921875 
Q 27.828125 65.921875 22.671875 59.328125 
Q 17.53125 52.734375 16.796875 39.40625 
Q 19.671875 43.65625 24.015625 45.921875 
Q 28.375 48.1875 33.59375 48.1875 
Q 44.578125 48.1875 50.953125 41.515625 
Q 57.328125 34.859375 57.328125 23.390625 
Q 57.328125 12.15625 50.6875 5.359375 
Q 44.046875 -1.421875 33.015625 -1.421875 
Q 20.359375 -1.421875 13.671875 8.265625 
Q 6.984375 17.96875 6.984375 36.375 
Q 6.984375 53.65625 15.1875 63.9375 
Q 23.390625 74.21875 37.203125 74.21875 
Q 40.921875 74.21875 44.703125 73.484375 
Q 48.484375 72.75 52.59375 71.296875 
z
" id="DejaVuSans-54"/>
      </defs>
      <g transform="translate(344.656731 387.756875)scale(0.2 -0.2)">
       <use xlink:href="#DejaVuSans-54"/>
       <use x="63.623047" xlink:href="#DejaVuSans-48"/>
      </g>
     </g>
    </g>
    <g id="xtick_5">
     <g id="line2d_5">
      <g>
       <use style="stroke:#000000;stroke-width:0.8;" x="446.176702" xlink:href="#m33652e30b6" y="365.56"/>
      </g>
     </g>
     <g id="text_5">
      <!-- 80 -->
      <defs>
       <path d="M 31.78125 34.625 
Q 24.75 34.625 20.71875 30.859375 
Q 16.703125 27.09375 16.703125 20.515625 
Q 16.703125 13.921875 20.71875 10.15625 
Q 24.75 6.390625 31.78125 6.390625 
Q 38.8125 6.390625 42.859375 10.171875 
Q 46.921875 13.96875 46.921875 20.515625 
Q 46.921875 27.09375 42.890625 30.859375 
Q 38.875 34.625 31.78125 34.625 
z
M 21.921875 38.8125 
Q 15.578125 40.375 12.03125 44.71875 
Q 8.5 49.078125 8.5 55.328125 
Q 8.5 64.0625 14.71875 69.140625 
Q 20.953125 74.21875 31.78125 74.21875 
Q 42.671875 74.21875 48.875 69.140625 
Q 55.078125 64.0625 55.078125 55.328125 
Q 55.078125 49.078125 51.53125 44.71875 
Q 48 40.375 41.703125 38.8125 
Q 48.828125 37.15625 52.796875 32.3125 
Q 56.78125 27.484375 56.78125 20.515625 
Q 56.78125 9.90625 50.3125 4.234375 
Q 43.84375 -1.421875 31.78125 -1.421875 
Q 19.734375 -1.421875 13.25 4.234375 
Q 6.78125 9.90625 6.78125 20.515625 
Q 6.78125 27.484375 10.78125 32.3125 
Q 14.796875 37.15625 21.921875 38.8125 
z
M 18.3125 54.390625 
Q 18.3125 48.734375 21.84375 45.5625 
Q 25.390625 42.390625 31.78125 42.390625 
Q 38.140625 42.390625 41.71875 45.5625 
Q 45.3125 48.734375 45.3125 54.390625 
Q 45.3125 60.0625 41.71875 63.234375 
Q 38.140625 66.40625 31.78125 66.40625 
Q 25.390625 66.40625 21.84375 63.234375 
Q 18.3125 60.0625 18.3125 54.390625 
z
" id="DejaVuSans-56"/>
      </defs>
      <g transform="translate(433.451702 387.756875)scale(0.2 -0.2)">
       <use xlink:href="#DejaVuSans-56"/>
       <use x="63.623047" xlink:href="#DejaVuSans-48"/>
      </g>
     </g>
    </g>
    <g id="text_6">
     <!-- # of games -->
     <defs>
      <path d="M 51.125 44 
L 36.921875 44 
L 32.8125 27.6875 
L 47.125 27.6875 
z
M 43.796875 71.78125 
L 38.71875 51.515625 
L 52.984375 51.515625 
L 58.109375 71.78125 
L 65.921875 71.78125 
L 60.890625 51.515625 
L 76.125 51.515625 
L 76.125 44 
L 58.984375 44 
L 54.984375 27.6875 
L 70.515625 27.6875 
L 70.515625 20.21875 
L 53.078125 20.21875 
L 48 0 
L 40.1875 0 
L 45.21875 20.21875 
L 30.90625 20.21875 
L 25.875 0 
L 18.015625 0 
L 23.09375 20.21875 
L 7.71875 20.21875 
L 7.71875 27.6875 
L 24.90625 27.6875 
L 29 44 
L 13.28125 44 
L 13.28125 51.515625 
L 30.90625 51.515625 
L 35.890625 71.78125 
z
" id="DejaVuSans-35"/>
      <path id="DejaVuSans-32"/>
      <path d="M 30.609375 48.390625 
Q 23.390625 48.390625 19.1875 42.75 
Q 14.984375 37.109375 14.984375 27.296875 
Q 14.984375 17.484375 19.15625 11.84375 
Q 23.34375 6.203125 30.609375 6.203125 
Q 37.796875 6.203125 41.984375 11.859375 
Q 46.1875 17.53125 46.1875 27.296875 
Q 46.1875 37.015625 41.984375 42.703125 
Q 37.796875 48.390625 30.609375 48.390625 
z
M 30.609375 56 
Q 42.328125 56 49.015625 48.375 
Q 55.71875 40.765625 55.71875 27.296875 
Q 55.71875 13.875 49.015625 6.21875 
Q 42.328125 -1.421875 30.609375 -1.421875 
Q 18.84375 -1.421875 12.171875 6.21875 
Q 5.515625 13.875 5.515625 27.296875 
Q 5.515625 40.765625 12.171875 48.375 
Q 18.84375 56 30.609375 56 
z
" id="DejaVuSans-111"/>
      <path d="M 37.109375 75.984375 
L 37.109375 68.5 
L 28.515625 68.5 
Q 23.6875 68.5 21.796875 66.546875 
Q 19.921875 64.59375 19.921875 59.515625 
L 19.921875 54.6875 
L 34.71875 54.6875 
L 34.71875 47.703125 
L 19.921875 47.703125 
L 19.921875 0 
L 10.890625 0 
L 10.890625 47.703125 
L 2.296875 47.703125 
L 2.296875 54.6875 
L 10.890625 54.6875 
L 10.890625 58.5 
Q 10.890625 67.625 15.140625 71.796875 
Q 19.390625 75.984375 28.609375 75.984375 
z
" id="DejaVuSans-102"/>
      <path d="M 45.40625 27.984375 
Q 45.40625 37.75 41.375 43.109375 
Q 37.359375 48.484375 30.078125 48.484375 
Q 22.859375 48.484375 18.828125 43.109375 
Q 14.796875 37.75 14.796875 27.984375 
Q 14.796875 18.265625 18.828125 12.890625 
Q 22.859375 7.515625 30.078125 7.515625 
Q 37.359375 7.515625 41.375 12.890625 
Q 45.40625 18.265625 45.40625 27.984375 
z
M 54.390625 6.78125 
Q 54.390625 -7.171875 48.1875 -13.984375 
Q 42 -20.796875 29.203125 -20.796875 
Q 24.46875 -20.796875 20.265625 -20.09375 
Q 16.0625 -19.390625 12.109375 -17.921875 
L 12.109375 -9.1875 
Q 16.0625 -11.328125 19.921875 -12.34375 
Q 23.78125 -13.375 27.78125 -13.375 
Q 36.625 -13.375 41.015625 -8.765625 
Q 45.40625 -4.15625 45.40625 5.171875 
L 45.40625 9.625 
Q 42.625 4.78125 38.28125 2.390625 
Q 33.9375 0 27.875 0 
Q 17.828125 0 11.671875 7.65625 
Q 5.515625 15.328125 5.515625 27.984375 
Q 5.515625 40.671875 11.671875 48.328125 
Q 17.828125 56 27.875 56 
Q 33.9375 56 38.28125 53.609375 
Q 42.625 51.21875 45.40625 46.390625 
L 45.40625 54.6875 
L 54.390625 54.6875 
z
" id="DejaVuSans-103"/>
      <path d="M 34.28125 27.484375 
Q 23.390625 27.484375 19.1875 25 
Q 14.984375 22.515625 14.984375 16.5 
Q 14.984375 11.71875 18.140625 8.90625 
Q 21.296875 6.109375 26.703125 6.109375 
Q 34.1875 6.109375 38.703125 11.40625 
Q 43.21875 16.703125 43.21875 25.484375 
L 43.21875 27.484375 
z
M 52.203125 31.203125 
L 52.203125 0 
L 43.21875 0 
L 43.21875 8.296875 
Q 40.140625 3.328125 35.546875 0.953125 
Q 30.953125 -1.421875 24.3125 -1.421875 
Q 15.921875 -1.421875 10.953125 3.296875 
Q 6 8.015625 6 15.921875 
Q 6 25.140625 12.171875 29.828125 
Q 18.359375 34.515625 30.609375 34.515625 
L 43.21875 34.515625 
L 43.21875 35.40625 
Q 43.21875 41.609375 39.140625 45 
Q 35.0625 48.390625 27.6875 48.390625 
Q 23 48.390625 18.546875 47.265625 
Q 14.109375 46.140625 10.015625 43.890625 
L 10.015625 52.203125 
Q 14.9375 54.109375 19.578125 55.046875 
Q 24.21875 56 28.609375 56 
Q 40.484375 56 46.34375 49.84375 
Q 52.203125 43.703125 52.203125 31.203125 
z
" id="DejaVuSans-97"/>
      <path d="M 52 44.1875 
Q 55.375 50.25 60.0625 53.125 
Q 64.75 56 71.09375 56 
Q 79.640625 56 84.28125 50.015625 
Q 88.921875 44.046875 88.921875 33.015625 
L 88.921875 0 
L 79.890625 0 
L 79.890625 32.71875 
Q 79.890625 40.578125 77.09375 44.375 
Q 74.3125 48.1875 68.609375 48.1875 
Q 61.625 48.1875 57.5625 43.546875 
Q 53.515625 38.921875 53.515625 30.90625 
L 53.515625 0 
L 44.484375 0 
L 44.484375 32.71875 
Q 44.484375 40.625 41.703125 44.40625 
Q 38.921875 48.1875 33.109375 48.1875 
Q 26.21875 48.1875 22.15625 43.53125 
Q 18.109375 38.875 18.109375 30.90625 
L 18.109375 0 
L 9.078125 0 
L 9.078125 54.6875 
L 18.109375 54.6875 
L 18.109375 46.1875 
Q 21.1875 51.21875 25.484375 53.609375 
Q 29.78125 56 35.6875 56 
Q 41.65625 56 45.828125 52.96875 
Q 50 49.953125 52 44.1875 
z
" id="DejaVuSans-109"/>
      <path d="M 56.203125 29.59375 
L 56.203125 25.203125 
L 14.890625 25.203125 
Q 15.484375 15.921875 20.484375 11.0625 
Q 25.484375 6.203125 34.421875 6.203125 
Q 39.59375 6.203125 44.453125 7.46875 
Q 49.3125 8.734375 54.109375 11.28125 
L 54.109375 2.78125 
Q 49.265625 0.734375 44.1875 -0.34375 
Q 39.109375 -1.421875 33.890625 -1.421875 
Q 20.796875 -1.421875 13.15625 6.1875 
Q 5.515625 13.8125 5.515625 26.8125 
Q 5.515625 40.234375 12.765625 48.109375 
Q 20.015625 56 32.328125 56 
Q 43.359375 56 49.78125 48.890625 
Q 56.203125 41.796875 56.203125 29.59375 
z
M 47.21875 32.234375 
Q 47.125 39.59375 43.09375 43.984375 
Q 39.0625 48.390625 32.421875 48.390625 
Q 24.90625 48.390625 20.390625 44.140625 
Q 15.875 39.890625 15.1875 32.171875 
z
" id="DejaVuSans-101"/>
      <path d="M 44.28125 53.078125 
L 44.28125 44.578125 
Q 40.484375 46.53125 36.375 47.5 
Q 32.28125 48.484375 27.875 48.484375 
Q 21.1875 48.484375 17.84375 46.4375 
Q 14.5 44.390625 14.5 40.28125 
Q 14.5 37.15625 16.890625 35.375 
Q 19.28125 33.59375 26.515625 31.984375 
L 29.59375 31.296875 
Q 39.15625 29.25 43.1875 25.515625 
Q 47.21875 21.78125 47.21875 15.09375 
Q 47.21875 7.46875 41.1875 3.015625 
Q 35.15625 -1.421875 24.609375 -1.421875 
Q 20.21875 -1.421875 15.453125 -0.5625 
Q 10.6875 0.296875 5.421875 2 
L 5.421875 11.28125 
Q 10.40625 8.6875 15.234375 7.390625 
Q 20.0625 6.109375 24.8125 6.109375 
Q 31.15625 6.109375 34.5625 8.28125 
Q 37.984375 10.453125 37.984375 14.40625 
Q 37.984375 18.0625 35.515625 20.015625 
Q 33.0625 21.96875 24.703125 23.78125 
L 21.578125 24.515625 
Q 13.234375 26.265625 9.515625 29.90625 
Q 5.8125 33.546875 5.8125 39.890625 
Q 5.8125 47.609375 11.28125 51.796875 
Q 16.75 56 26.8125 56 
Q 31.78125 56 36.171875 55.265625 
Q 40.578125 54.546875 44.28125 53.078125 
z
" id="DejaVuSans-115"/>
     </defs>
     <g transform="translate(227.221641 414.912344)scale(0.25 -0.25)">
      <use xlink:href="#DejaVuSans-35"/>
      <use x="83.789062" xlink:href="#DejaVuSans-32"/>
      <use x="115.576172" xlink:href="#DejaVuSans-111"/>
      <use x="176.757812" xlink:href="#DejaVuSans-102"/>
      <use x="211.962891" xlink:href="#DejaVuSans-32"/>
      <use x="243.75" xlink:href="#DejaVuSans-103"/>
      <use x="307.226562" xlink:href="#DejaVuSans-97"/>
      <use x="368.505859" xlink:href="#DejaVuSans-109"/>
      <use x="465.917969" xlink:href="#DejaVuSans-101"/>
      <use x="527.441406" xlink:href="#DejaVuSans-115"/>
     </g>
    </g>
   </g>
   <g id="matplotlib.axis_2">
    <g id="ytick_1">
     <g id="line2d_6">
      <defs>
       <path d="M 0 0 
L -3.5 0 
" id="mcfa2496eec" style="stroke:#000000;stroke-width:0.8;"/>
      </defs>
      <g>
       <use style="stroke:#000000;stroke-width:0.8;" x="70.13" xlink:href="#mcfa2496eec" y="351.970909"/>
      </g>
     </g>
     <g id="text_7">
      <!-- 0.0 -->
      <defs>
       <path d="M 10.6875 12.40625 
L 21 12.40625 
L 21 0 
L 10.6875 0 
z
" id="DejaVuSans-46"/>
      </defs>
      <g transform="translate(31.32375 359.569347)scale(0.2 -0.2)">
       <use xlink:href="#DejaVuSans-48"/>
       <use x="63.623047" xlink:href="#DejaVuSans-46"/>
       <use x="95.410156" xlink:href="#DejaVuSans-48"/>
      </g>
     </g>
    </g>
    <g id="ytick_2">
     <g id="line2d_7">
      <g>
       <use style="stroke:#000000;stroke-width:0.8;" x="70.13" xlink:href="#mcfa2496eec" y="290.48181"/>
      </g>
     </g>
     <g id="text_8">
      <!-- 0.2 -->
      <g transform="translate(31.32375 298.080247)scale(0.2 -0.2)">
       <use xlink:href="#DejaVuSans-48"/>
       <use x="63.623047" xlink:href="#DejaVuSans-46"/>
       <use x="95.410156" xlink:href="#DejaVuSans-50"/>
      </g>
     </g>
    </g>
    <g id="ytick_3">
     <g id="line2d_8">
      <g>
       <use style="stroke:#000000;stroke-width:0.8;" x="70.13" xlink:href="#mcfa2496eec" y="228.992711"/>
      </g>
     </g>
     <g id="text_9">
      <!-- 0.4 -->
      <g transform="translate(31.32375 236.591148)scale(0.2 -0.2)">
       <use xlink:href="#DejaVuSans-48"/>
       <use x="63.623047" xlink:href="#DejaVuSans-46"/>
       <use x="95.410156" xlink:href="#DejaVuSans-52"/>
      </g>
     </g>
    </g>
    <g id="ytick_4">
     <g id="line2d_9">
      <g>
       <use style="stroke:#000000;stroke-width:0.8;" x="70.13" xlink:href="#mcfa2496eec" y="167.503612"/>
      </g>
     </g>
     <g id="text_10">
      <!-- 0.6 -->
      <g transform="translate(31.32375 175.102049)scale(0.2 -0.2)">
       <use xlink:href="#DejaVuSans-48"/>
       <use x="63.623047" xlink:href="#DejaVuSans-46"/>
       <use x="95.410156" xlink:href="#DejaVuSans-54"/>
      </g>
     </g>
    </g>
    <g id="ytick_5">
     <g id="line2d_10">
      <g>
       <use style="stroke:#000000;stroke-width:0.8;" x="70.13" xlink:href="#mcfa2496eec" y="106.014513"/>
      </g>
     </g>
     <g id="text_11">
      <!-- 0.8 -->
      <g transform="translate(31.32375 113.61295)scale(0.2 -0.2)">
       <use xlink:href="#DejaVuSans-48"/>
       <use x="63.623047" xlink:href="#DejaVuSans-46"/>
       <use x="95.410156" xlink:href="#DejaVuSans-56"/>
      </g>
     </g>
    </g>
    <g id="text_12">
     <!-- Percentage of Attacker in CKC -->
     <defs>
      <path d="M 19.671875 64.796875 
L 19.671875 37.40625 
L 32.078125 37.40625 
Q 38.96875 37.40625 42.71875 40.96875 
Q 46.484375 44.53125 46.484375 51.125 
Q 46.484375 57.671875 42.71875 61.234375 
Q 38.96875 64.796875 32.078125 64.796875 
z
M 9.8125 72.90625 
L 32.078125 72.90625 
Q 44.34375 72.90625 50.609375 67.359375 
Q 56.890625 61.8125 56.890625 51.125 
Q 56.890625 40.328125 50.609375 34.8125 
Q 44.34375 29.296875 32.078125 29.296875 
L 19.671875 29.296875 
L 19.671875 0 
L 9.8125 0 
z
" id="DejaVuSans-80"/>
      <path d="M 41.109375 46.296875 
Q 39.59375 47.171875 37.8125 47.578125 
Q 36.03125 48 33.890625 48 
Q 26.265625 48 22.1875 43.046875 
Q 18.109375 38.09375 18.109375 28.8125 
L 18.109375 0 
L 9.078125 0 
L 9.078125 54.6875 
L 18.109375 54.6875 
L 18.109375 46.1875 
Q 20.953125 51.171875 25.484375 53.578125 
Q 30.03125 56 36.53125 56 
Q 37.453125 56 38.578125 55.875 
Q 39.703125 55.765625 41.0625 55.515625 
z
" id="DejaVuSans-114"/>
      <path d="M 48.78125 52.59375 
L 48.78125 44.1875 
Q 44.96875 46.296875 41.140625 47.34375 
Q 37.3125 48.390625 33.40625 48.390625 
Q 24.65625 48.390625 19.8125 42.84375 
Q 14.984375 37.3125 14.984375 27.296875 
Q 14.984375 17.28125 19.8125 11.734375 
Q 24.65625 6.203125 33.40625 6.203125 
Q 37.3125 6.203125 41.140625 7.25 
Q 44.96875 8.296875 48.78125 10.40625 
L 48.78125 2.09375 
Q 45.015625 0.34375 40.984375 -0.53125 
Q 36.96875 -1.421875 32.421875 -1.421875 
Q 20.0625 -1.421875 12.78125 6.34375 
Q 5.515625 14.109375 5.515625 27.296875 
Q 5.515625 40.671875 12.859375 48.328125 
Q 20.21875 56 33.015625 56 
Q 37.15625 56 41.109375 55.140625 
Q 45.0625 54.296875 48.78125 52.59375 
z
" id="DejaVuSans-99"/>
      <path d="M 54.890625 33.015625 
L 54.890625 0 
L 45.90625 0 
L 45.90625 32.71875 
Q 45.90625 40.484375 42.875 44.328125 
Q 39.84375 48.1875 33.796875 48.1875 
Q 26.515625 48.1875 22.3125 43.546875 
Q 18.109375 38.921875 18.109375 30.90625 
L 18.109375 0 
L 9.078125 0 
L 9.078125 54.6875 
L 18.109375 54.6875 
L 18.109375 46.1875 
Q 21.34375 51.125 25.703125 53.5625 
Q 30.078125 56 35.796875 56 
Q 45.21875 56 50.046875 50.171875 
Q 54.890625 44.34375 54.890625 33.015625 
z
" id="DejaVuSans-110"/>
      <path d="M 18.3125 70.21875 
L 18.3125 54.6875 
L 36.8125 54.6875 
L 36.8125 47.703125 
L 18.3125 47.703125 
L 18.3125 18.015625 
Q 18.3125 11.328125 20.140625 9.421875 
Q 21.96875 7.515625 27.59375 7.515625 
L 36.8125 7.515625 
L 36.8125 0 
L 27.59375 0 
Q 17.1875 0 13.234375 3.875 
Q 9.28125 7.765625 9.28125 18.015625 
L 9.28125 47.703125 
L 2.6875 47.703125 
L 2.6875 54.6875 
L 9.28125 54.6875 
L 9.28125 70.21875 
z
" id="DejaVuSans-116"/>
      <path d="M 34.1875 63.1875 
L 20.796875 26.90625 
L 47.609375 26.90625 
z
M 28.609375 72.90625 
L 39.796875 72.90625 
L 67.578125 0 
L 57.328125 0 
L 50.6875 18.703125 
L 17.828125 18.703125 
L 11.1875 0 
L 0.78125 0 
z
" id="DejaVuSans-65"/>
      <path d="M 9.078125 75.984375 
L 18.109375 75.984375 
L 18.109375 31.109375 
L 44.921875 54.6875 
L 56.390625 54.6875 
L 27.390625 29.109375 
L 57.625 0 
L 45.90625 0 
L 18.109375 26.703125 
L 18.109375 0 
L 9.078125 0 
z
" id="DejaVuSans-107"/>
      <path d="M 9.421875 54.6875 
L 18.40625 54.6875 
L 18.40625 0 
L 9.421875 0 
z
M 9.421875 75.984375 
L 18.40625 75.984375 
L 18.40625 64.59375 
L 9.421875 64.59375 
z
" id="DejaVuSans-105"/>
      <path d="M 64.40625 67.28125 
L 64.40625 56.890625 
Q 59.421875 61.53125 53.78125 63.8125 
Q 48.140625 66.109375 41.796875 66.109375 
Q 29.296875 66.109375 22.65625 58.46875 
Q 16.015625 50.828125 16.015625 36.375 
Q 16.015625 21.96875 22.65625 14.328125 
Q 29.296875 6.6875 41.796875 6.6875 
Q 48.140625 6.6875 53.78125 8.984375 
Q 59.421875 11.28125 64.40625 15.921875 
L 64.40625 5.609375 
Q 59.234375 2.09375 53.4375 0.328125 
Q 47.65625 -1.421875 41.21875 -1.421875 
Q 24.65625 -1.421875 15.125 8.703125 
Q 5.609375 18.84375 5.609375 36.375 
Q 5.609375 53.953125 15.125 64.078125 
Q 24.65625 74.21875 41.21875 74.21875 
Q 47.75 74.21875 53.53125 72.484375 
Q 59.328125 70.75 64.40625 67.28125 
z
" id="DejaVuSans-67"/>
      <path d="M 9.8125 72.90625 
L 19.671875 72.90625 
L 19.671875 42.09375 
L 52.390625 72.90625 
L 65.09375 72.90625 
L 28.90625 38.921875 
L 67.671875 0 
L 54.6875 0 
L 19.671875 35.109375 
L 19.671875 0 
L 9.8125 0 
z
" id="DejaVuSans-75"/>
     </defs>
     <g transform="translate(23.857604 342.050052)rotate(-90)scale(0.166667 -0.166667)">
      <use xlink:href="#DejaVuSans-80"/>
      <use x="60.255859" xlink:href="#DejaVuSans-101"/>
      <use x="121.779297" xlink:href="#DejaVuSans-114"/>
      <use x="162.861328" xlink:href="#DejaVuSans-99"/>
      <use x="217.841797" xlink:href="#DejaVuSans-101"/>
      <use x="279.365234" xlink:href="#DejaVuSans-110"/>
      <use x="342.744141" xlink:href="#DejaVuSans-116"/>
      <use x="381.953125" xlink:href="#DejaVuSans-97"/>
      <use x="443.232422" xlink:href="#DejaVuSans-103"/>
      <use x="506.708984" xlink:href="#DejaVuSans-101"/>
      <use x="568.232422" xlink:href="#DejaVuSans-32"/>
      <use x="600.019531" xlink:href="#DejaVuSans-111"/>
      <use x="661.201172" xlink:href="#DejaVuSans-102"/>
      <use x="696.40625" xlink:href="#DejaVuSans-32"/>
      <use x="728.193359" xlink:href="#DejaVuSans-65"/>
      <use x="796.585938" xlink:href="#DejaVuSans-116"/>
      <use x="835.794922" xlink:href="#DejaVuSans-116"/>
      <use x="875.003906" xlink:href="#DejaVuSans-97"/>
      <use x="936.283203" xlink:href="#DejaVuSans-99"/>
      <use x="991.263672" xlink:href="#DejaVuSans-107"/>
      <use x="1049.126953" xlink:href="#DejaVuSans-101"/>
      <use x="1110.650391" xlink:href="#DejaVuSans-114"/>
      <use x="1151.763672" xlink:href="#DejaVuSans-32"/>
      <use x="1183.550781" xlink:href="#DejaVuSans-105"/>
      <use x="1211.333984" xlink:href="#DejaVuSans-110"/>
      <use x="1274.712891" xlink:href="#DejaVuSans-32"/>
      <use x="1306.5" xlink:href="#DejaVuSans-67"/>
      <use x="1376.324219" xlink:href="#DejaVuSans-75"/>
      <use x="1441.822266" xlink:href="#DejaVuSans-67"/>
     </g>
    </g>
   </g>
   <g id="line2d_11">
    <path clip-path="url(#p96db8bbb23)" d="M 90.996818 80.189091 
L 95.436567 133.304127 
L 99.876315 170.53331 
L 104.316064 191.837111 
L 108.755812 209.13227 
L 113.195561 228.86514 
L 117.635309 239.968907 
L 122.075058 249.877687 
L 126.514807 256.199197 
L 130.954555 262.334211 
L 135.394304 271.637958 
L 139.834052 278.198527 
L 144.273801 281.344602 
L 148.713549 282.987294 
L 153.153298 285.213026 
L 157.593046 287.315808 
L 162.032795 294.599384 
L 166.472544 296.969192 
L 170.912292 298.498419 
L 175.352041 298.784839 
L 179.791789 301.000966 
L 184.231538 303.942507 
L 188.671286 304.901956 
L 193.111035 305.948858 
L 197.550783 308.124315 
L 201.990532 309.679896 
L 206.43028 310.396958 
L 210.870029 310.884048 
L 215.309778 313.673693 
L 219.749526 313.846827 
L 224.189275 314.641711 
L 228.629023 316.615711 
L 233.068772 315.704611 
L 237.50852 317.341819 
L 241.948269 316.205124 
L 246.388017 315.304367 
L 250.827766 315.699636 
L 255.267515 317.45462 
L 259.707263 318.174203 
L 264.147012 319.897505 
L 268.58676 321.426185 
L 273.026509 320.793338 
L 277.466257 321.916602 
L 281.906006 320.949644 
L 286.345754 320.064801 
L 290.785503 320.944299 
L 295.225251 322.729559 
L 299.665 323.234873 
L 304.104749 323.380338 
L 308.544497 322.278932 
L 312.984246 322.881712 
L 317.423994 323.520982 
L 321.863743 321.252841 
L 326.303491 322.155782 
L 330.74324 323.257766 
L 335.182988 323.845941 
L 339.622737 325.190313 
L 344.062485 324.516281 
L 348.502234 325.073951 
L 352.941983 324.376195 
L 357.381731 324.410769 
L 361.82148 325.243084 
L 366.261228 325.458726 
L 370.700977 325.315896 
L 375.140725 325.618438 
L 379.580474 326.701416 
L 384.020222 327.698896 
L 388.459971 324.341964 
L 392.89972 324.970426 
L 397.339468 325.58417 
L 401.779217 324.535971 
L 406.218965 326.130722 
L 410.658714 323.536644 
L 415.098462 323.231439 
L 419.538211 324.745714 
L 423.977959 326.022824 
L 428.417708 329.656317 
L 432.857456 326.873318 
L 437.297205 324.8832 
L 441.736954 318.697587 
L 446.176702 316.834281 
L 450.616451 313.791403 
L 455.056199 314.284042 
L 459.495948 326.350451 
L 463.935696 333.88588 
L 468.375445 323.371328 
L 472.815193 323.371328 
L 477.254942 324.021319 
L 481.694691 324.021319 
L 486.134439 324.642421 
L 490.574188 324.642421 
L 495.013936 318.55292 
L 499.453685 325.805335 
L 503.893433 298.502127 
L 508.333182 296.071728 
" style="fill:none;stroke:#1f77b4;stroke-linecap:square;stroke-width:1.5;"/>
   </g>
   <g id="line2d_12">
    <path clip-path="url(#p96db8bbb23)" d="M 90.996818 316.307232 
L 95.436567 271.0642 
L 99.876315 247.308613 
L 104.316064 236.571997 
L 108.755812 222.584539 
L 113.195561 215.68283 
L 117.635309 211.968407 
L 122.075058 212.404644 
L 126.514807 213.955942 
L 130.954555 211.093295 
L 135.394304 207.527331 
L 139.834052 207.696841 
L 144.273801 207.884174 
L 148.713549 207.403394 
L 153.153298 206.879786 
L 157.593046 205.209551 
L 162.032795 201.359217 
L 166.472544 199.658462 
L 170.912292 199.570049 
L 175.352041 201.99953 
L 179.791789 200.03658 
L 184.231538 198.965003 
L 188.671286 200.014207 
L 193.111035 199.195897 
L 197.550783 198.322352 
L 201.990532 197.703174 
L 206.43028 198.572395 
L 210.870029 199.130611 
L 215.309778 197.571909 
L 219.749526 198.493445 
L 224.189275 198.282854 
L 228.629023 198.075865 
L 233.068772 200.293253 
L 237.50852 198.870241 
L 241.948269 200.281902 
L 246.388017 202.468273 
L 250.827766 201.310916 
L 255.267515 200.822965 
L 259.707263 202.150461 
L 264.147012 201.692052 
L 268.58676 203.957456 
L 273.026509 205.609532 
L 277.466257 204.575384 
L 281.906006 205.967068 
L 286.345754 208.466938 
L 290.785503 208.714075 
L 295.225251 207.559026 
L 299.665 207.839377 
L 304.104749 207.855833 
L 308.544497 211.130395 
L 312.984246 211.426693 
L 317.423994 211.499392 
L 321.863743 214.534034 
L 326.303491 213.109714 
L 330.74324 211.530432 
L 335.182988 210.635331 
L 339.622737 210.522601 
L 344.062485 212.149239 
L 348.502234 212.058483 
L 352.941983 212.112822 
L 357.381731 212.028231 
L 361.82148 209.422506 
L 366.261228 208.070446 
L 370.700977 206.09861 
L 375.140725 206.832678 
L 379.580474 208.11213 
L 384.020222 204.772896 
L 388.459971 209.123384 
L 392.89972 203.288251 
L 397.339468 201.246654 
L 401.779217 204.344814 
L 406.218965 201.14859 
L 410.658714 203.283396 
L 415.098462 203.595039 
L 419.538211 203.22838 
L 423.977959 198.641314 
L 428.417708 194.942296 
L 432.857456 195.110962 
L 437.297205 196.216583 
L 441.736954 198.913628 
L 446.176702 204.397071 
L 450.616451 205.281228 
L 455.056199 215.108076 
L 459.495948 209.228358 
L 463.935696 203.67367 
L 468.375445 223.272795 
L 472.815193 223.272795 
L 477.254942 219.210354 
L 481.694691 226.197752 
L 486.134439 222.160589 
L 490.574188 222.160589 
L 495.013936 224.982552 
L 499.453685 221.143039 
L 503.893433 245.033345 
L 508.333182 254.147342 
" style="fill:none;stroke:#ff7f0e;stroke-linecap:square;stroke-width:1.5;"/>
   </g>
   <g id="line2d_13">
    <path clip-path="url(#p96db8bbb23)" d="M 90.996818 351.970909 
L 95.436567 344.098905 
L 99.876315 332.002445 
L 104.316064 323.192415 
L 108.755812 322.620504 
L 113.195561 313.27445 
L 117.635309 310.156828 
L 122.075058 303.17268 
L 126.514807 301.492507 
L 130.954555 303.103551 
L 135.394304 301.876371 
L 139.834052 299.882035 
L 144.273801 298.689426 
L 148.713549 301.29776 
L 153.153298 300.879674 
L 157.593046 302.096841 
L 162.032795 301.004498 
L 166.472544 303.668119 
L 170.912292 303.359555 
L 175.352041 302.036025 
L 179.791789 305.065555 
L 184.231538 303.703559 
L 188.671286 303.826972 
L 193.111035 305.721402 
L 197.550783 305.230884 
L 201.990532 306.627967 
L 206.43028 306.938466 
L 210.870029 307.001269 
L 215.309778 307.053542 
L 219.749526 308.310425 
L 224.189275 308.882746 
L 228.629023 308.000896 
L 233.068772 307.183395 
L 237.50852 308.287107 
L 241.948269 309.54287 
L 246.388017 309.562248 
L 250.827766 311.019472 
L 255.267515 310.843637 
L 259.707263 309.394028 
L 264.147012 308.904885 
L 268.58676 305.796992 
L 273.026509 307.441831 
L 277.466257 308.615055 
L 281.906006 309.735384 
L 286.345754 309.331409 
L 290.785503 309.810349 
L 295.225251 310.614218 
L 299.665 310.52181 
L 304.104749 311.52571 
L 308.544497 310.417852 
L 312.984246 310.667463 
L 317.423994 311.243483 
L 321.863743 312.249269 
L 326.303491 313.32167 
L 330.74324 312.905408 
L 335.182988 312.474113 
L 339.622737 313.50037 
L 344.062485 314.090473 
L 348.502234 313.133149 
L 352.941983 315.626652 
L 357.381731 315.271656 
L 361.82148 316.786822 
L 366.261228 316.674569 
L 370.700977 317.830584 
L 375.140725 317.233561 
L 379.580474 315.618305 
L 384.020222 315.432395 
L 388.459971 313.466741 
L 392.89972 316.690278 
L 397.339468 315.589192 
L 401.779217 314.084566 
L 406.218965 317.693109 
L 410.658714 313.466175 
L 415.098462 314.542762 
L 419.538211 317.441393 
L 423.977959 316.587156 
L 428.417708 323.044586 
L 432.857456 325.827585 
L 437.297205 324.8832 
L 441.736954 329.34505 
L 446.176702 327.375269 
L 450.616451 323.838642 
L 455.056199 316.267561 
L 459.495948 308.050124 
L 463.935696 315.800851 
L 468.375445 309.071538 
L 472.815193 316.221433 
L 477.254942 317.033921 
L 481.694691 317.033921 
L 486.134439 324.642421 
L 490.574188 324.642421 
L 495.013936 325.236518 
L 499.453685 319.263941 
L 503.893433 285.134932 
L 508.333182 268.122138 
" style="fill:none;stroke:#2ca02c;stroke-linecap:square;stroke-width:1.5;"/>
   </g>
   <g id="line2d_14">
    <path clip-path="url(#p96db8bbb23)" d="M 90.996818 351.970909 
L 95.436567 351.970909 
L 99.876315 350.593774 
L 104.316064 349.121553 
L 108.755812 346.590001 
L 113.195561 344.529282 
L 117.635309 341.704059 
L 122.075058 341.978098 
L 126.514807 337.788156 
L 130.954555 335.77487 
L 135.394304 334.450799 
L 139.834052 333.07355 
L 144.273801 334.852815 
L 148.713549 334.29918 
L 153.153298 333.809572 
L 157.593046 334.710476 
L 162.032795 336.141126 
L 166.472544 334.782872 
L 170.912292 335.852407 
L 175.352041 335.714979 
L 179.791789 332.948634 
L 184.231538 334.687056 
L 188.671286 334.003315 
L 193.111035 333.319468 
L 197.550783 333.942614 
L 201.990532 333.441341 
L 206.43028 333.52562 
L 210.870029 334.110126 
L 215.309778 335.029018 
L 219.749526 333.960083 
L 224.189275 333.861391 
L 228.629023 333.84534 
L 233.068772 333.83776 
L 237.50852 333.101165 
L 241.948269 332.334792 
L 246.388017 332.945817 
L 250.827766 334.076163 
L 255.267515 333.738514 
L 259.707263 334.201507 
L 264.147012 334.090508 
L 268.58676 334.700294 
L 273.026509 332.557097 
L 277.466257 332.414039 
L 281.906006 333.256202 
L 286.345754 333.738847 
L 290.785503 332.746287 
L 295.225251 332.676105 
L 299.665 333.164603 
L 304.104749 331.438385 
L 308.544497 331.704957 
L 312.984246 330.033476 
L 317.423994 330.887481 
L 321.863743 331.050845 
L 326.303491 331.26596 
L 330.74324 331.656848 
L 335.182988 331.765607 
L 339.622737 331.672917 
L 344.062485 332.393558 
L 348.502234 333.999399 
L 352.941983 331.37583 
L 357.381731 332.693091 
L 361.82148 332.189298 
L 366.261228 331.52778 
L 370.700977 334.444325 
L 375.140725 333.803675 
L 379.580474 333.794607 
L 384.020222 335.267588 
L 388.459971 336.098962 
L 392.89972 333.970587 
L 397.339468 335.579147 
L 401.779217 334.551901 
L 406.218965 332.458931 
L 410.658714 335.976635 
L 415.098462 335.930275 
L 419.538211 332.714064 
L 423.977959 334.672186 
L 428.417708 333.788649 
L 432.857456 335.239181 
L 437.297205 339.78144 
L 441.736954 337.330647 
L 446.176702 332.645764 
L 450.616451 333.88588 
L 455.056199 332.135716 
L 459.495948 330.010517 
L 463.935696 326.651868 
L 468.375445 316.221433 
L 472.815193 309.071538 
L 477.254942 317.033921 
L 481.694691 317.033921 
L 486.134439 317.810298 
L 490.574188 324.642421 
L 495.013936 338.603714 
L 499.453685 338.888122 
L 503.893433 351.970909 
L 508.333182 351.970909 
" style="fill:none;stroke:#d62728;stroke-linecap:square;stroke-width:1.5;"/>
   </g>
   <g id="line2d_15">
    <path clip-path="url(#p96db8bbb23)" d="M 90.996818 351.970909 
L 95.436567 351.970909 
L 99.876315 351.970909 
L 104.316064 351.685974 
L 108.755812 351.726322 
L 113.195561 350.269966 
L 117.635309 349.357529 
L 122.075058 346.474863 
L 126.514807 346.175806 
L 130.954555 345.408721 
L 135.394304 344.313972 
L 139.834052 342.764503 
L 144.273801 339.61414 
L 148.713549 339.089709 
L 153.153298 340.395551 
L 157.593046 340.336805 
L 162.032795 339.16068 
L 166.472544 338.837486 
L 170.912292 338.069767 
L 175.352041 339.549711 
L 179.791789 340.264893 
L 184.231538 338.510213 
L 188.671286 338.533606 
L 193.111035 338.096057 
L 197.550783 338.987569 
L 201.990532 338.963879 
L 206.43028 337.920787 
L 210.870029 336.863369 
L 215.309778 336.595075 
L 219.749526 336.483001 
L 224.189275 336.220485 
L 228.629023 336.119651 
L 233.068772 335.882852 
L 237.50852 336.142443 
L 241.948269 336.402273 
L 246.388017 335.989831 
L 250.827766 335.590334 
L 255.267515 336.034961 
L 259.707263 336.501077 
L 264.147012 337.151744 
L 268.58676 336.484448 
L 273.026509 336.959486 
L 277.466257 336.656155 
L 281.906006 335.149519 
L 286.345754 335.135658 
L 290.785503 336.012246 
L 295.225251 334.844901 
L 299.665 335.346134 
L 304.104749 336.319702 
L 308.544497 335.553917 
L 312.984246 336.1406 
L 317.423994 334.528394 
L 321.863743 334.846469 
L 326.303491 334.762795 
L 330.74324 335.661062 
L 335.182988 336.233111 
L 339.622737 335.073628 
L 344.062485 333.783666 
L 348.502234 335.205541 
L 352.941983 336.221731 
L 357.381731 335.263467 
L 361.82148 335.662405 
L 366.261228 336.957986 
L 370.700977 334.809462 
L 375.140725 335.800075 
L 379.580474 336.454554 
L 384.020222 336.050557 
L 388.459971 336.980737 
L 392.89972 338.650671 
L 397.339468 339.976937 
L 401.779217 339.777603 
L 406.218965 342.478595 
L 410.658714 340.123298 
L 415.098462 340.608793 
L 419.538211 340.682414 
L 423.977959 340.96263 
L 428.417708 337.920981 
L 432.857456 335.239181 
L 437.297205 342.490211 
L 441.736954 341.323446 
L 446.176702 343.186752 
L 450.616451 347.952014 
L 455.056199 349.98739 
L 459.495948 337.330647 
L 463.935696 341.119892 
L 468.375445 337.671119 
L 472.815193 337.671119 
L 477.254942 331.008716 
L 481.694691 331.008716 
L 486.134439 324.642421 
L 490.574188 324.642421 
L 495.013936 318.55292 
L 499.453685 319.263941 
L 503.893433 311.869323 
L 508.333182 310.046523 
" style="fill:none;stroke:#9467bd;stroke-linecap:square;stroke-width:1.5;"/>
   </g>
   <g id="line2d_16">
    <path clip-path="url(#p96db8bbb23)" d="M 90.996818 351.970909 
L 95.436567 351.970909 
L 99.876315 351.970909 
L 104.316064 351.970909 
L 108.755812 351.726322 
L 113.195561 351.758291 
L 117.635309 351.224229 
L 122.075058 350.471987 
L 126.514807 348.768352 
L 130.954555 346.66531 
L 135.394304 344.573529 
L 139.834052 342.764503 
L 144.273801 341.994802 
L 148.713549 339.302622 
L 153.153298 337.202349 
L 157.593046 334.710476 
L 162.032795 332.115054 
L 166.472544 330.463827 
L 170.912292 329.029761 
L 175.352041 326.294875 
L 179.791789 325.063331 
L 184.231538 324.571621 
L 188.671286 323.099904 
L 193.111035 322.098276 
L 197.550783 319.772225 
L 201.990532 317.963702 
L 206.43028 317.025733 
L 210.870029 316.390535 
L 215.309778 314.456721 
L 219.749526 313.286178 
L 224.189275 312.490772 
L 228.629023 311.722496 
L 233.068772 311.478088 
L 237.50852 310.637185 
L 241.948269 309.612999 
L 246.388017 308.109423 
L 250.827766 306.683437 
L 255.267515 305.485261 
L 259.707263 303.958682 
L 264.147012 302.643266 
L 268.58676 302.014584 
L 273.026509 301.018674 
L 277.466257 300.202725 
L 281.906006 299.322142 
L 286.345754 297.642305 
L 290.785503 296.152702 
L 295.225251 295.95615 
L 299.665 294.273161 
L 304.104749 293.859991 
L 308.544497 293.293907 
L 312.984246 293.230016 
L 317.423994 292.700227 
L 321.863743 290.446502 
L 326.303491 289.764038 
L 330.74324 289.368443 
L 335.182988 289.425854 
L 339.622737 288.420129 
L 344.062485 287.446741 
L 348.502234 284.909436 
L 352.941983 284.666729 
L 357.381731 284.712744 
L 361.82148 285.075843 
L 366.261228 285.690452 
L 370.700977 285.881082 
L 375.140725 285.091532 
L 379.580474 283.698946 
L 384.020222 285.157626 
L 388.459971 284.368171 
L 392.89972 286.809744 
L 397.339468 286.403859 
L 401.779217 287.085103 
L 406.218965 284.470011 
L 410.658714 287.993812 
L 415.098462 286.471651 
L 419.538211 285.567994 
L 423.977959 287.493849 
L 428.417708 285.027132 
L 432.857456 286.089731 
L 437.297205 276.125324 
L 441.736954 278.769601 
L 446.176702 279.940822 
L 450.616451 279.630792 
L 455.056199 276.597175 
L 459.495948 293.409862 
L 463.935696 283.247798 
L 468.375445 294.771747 
L 472.815193 294.771747 
L 477.254942 296.071728 
L 481.694691 289.08433 
L 486.134439 290.48181 
L 490.574188 283.649688 
L 495.013936 278.451334 
L 499.453685 280.01558 
L 503.893433 311.869323 
L 508.333182 324.021319 
" style="fill:none;stroke:#8c564b;stroke-linecap:square;stroke-width:1.5;"/>
   </g>
   <g id="patch_3">
    <path d="M 70.13 365.56 
L 70.13 66.6 
" style="fill:none;stroke:#000000;stroke-linecap:square;stroke-linejoin:miter;stroke-width:0.8;"/>
   </g>
   <g id="patch_4">
    <path d="M 529.2 365.56 
L 529.2 66.6 
" style="fill:none;stroke:#000000;stroke-linecap:square;stroke-linejoin:miter;stroke-width:0.8;"/>
   </g>
   <g id="patch_5">
    <path d="M 70.13 365.56 
L 529.2 365.56 
" style="fill:none;stroke:#000000;stroke-linecap:square;stroke-linejoin:miter;stroke-width:0.8;"/>
   </g>
   <g id="patch_6">
    <path d="M 70.13 66.6 
L 529.2 66.6 
" style="fill:none;stroke:#000000;stroke-linecap:square;stroke-linejoin:miter;stroke-width:0.8;"/>
   </g>
   <g id="legend_1">
    <g id="patch_7">
     <path d="M 80.63 59.1 
L 518.7 59.1 
Q 521.7 59.1 521.7 56.1 
L 521.7 13.565625 
Q 521.7 10.565625 518.7 10.565625 
L 80.63 10.565625 
Q 77.63 10.565625 77.63 13.565625 
L 77.63 56.1 
Q 77.63 59.1 80.63 59.1 
z
" style="fill:#ffffff;opacity:0.8;stroke:#cccccc;stroke-linejoin:miter;"/>
    </g>
    <g id="line2d_17">
     <path d="M 83.63 22.713281 
L 113.63 22.713281 
" style="fill:none;stroke:#1f77b4;stroke-linecap:square;stroke-width:1.5;"/>
    </g>
    <g id="line2d_18"/>
    <g id="text_13">
     <!-- CKC #0 -->
     <g transform="translate(125.63 27.963281)scale(0.15 -0.15)">
      <use xlink:href="#DejaVuSans-67"/>
      <use x="69.824219" xlink:href="#DejaVuSans-75"/>
      <use x="135.322266" xlink:href="#DejaVuSans-67"/>
      <use x="205.146484" xlink:href="#DejaVuSans-32"/>
      <use x="236.933594" xlink:href="#DejaVuSans-35"/>
      <use x="320.722656" xlink:href="#DejaVuSans-48"/>
     </g>
    </g>
    <g id="line2d_19">
     <path d="M 83.63 44.730469 
L 113.63 44.730469 
" style="fill:none;stroke:#ff7f0e;stroke-linecap:square;stroke-width:1.5;"/>
    </g>
    <g id="line2d_20"/>
    <g id="text_14">
     <!-- CKC #1 -->
     <defs>
      <path d="M 12.40625 8.296875 
L 28.515625 8.296875 
L 28.515625 63.921875 
L 10.984375 60.40625 
L 10.984375 69.390625 
L 28.421875 72.90625 
L 38.28125 72.90625 
L 38.28125 8.296875 
L 54.390625 8.296875 
L 54.390625 0 
L 12.40625 0 
z
" id="DejaVuSans-49"/>
     </defs>
     <g transform="translate(125.63 49.980469)scale(0.15 -0.15)">
      <use xlink:href="#DejaVuSans-67"/>
      <use x="69.824219" xlink:href="#DejaVuSans-75"/>
      <use x="135.322266" xlink:href="#DejaVuSans-67"/>
      <use x="205.146484" xlink:href="#DejaVuSans-32"/>
      <use x="236.933594" xlink:href="#DejaVuSans-35"/>
      <use x="320.722656" xlink:href="#DejaVuSans-49"/>
     </g>
    </g>
    <g id="line2d_21">
     <path d="M 194.435365 22.713281 
L 224.435365 22.713281 
" style="fill:none;stroke:#2ca02c;stroke-linecap:square;stroke-width:1.5;"/>
    </g>
    <g id="line2d_22"/>
    <g id="text_15">
     <!-- CKC #2 -->
     <g transform="translate(236.435365 27.963281)scale(0.15 -0.15)">
      <use xlink:href="#DejaVuSans-67"/>
      <use x="69.824219" xlink:href="#DejaVuSans-75"/>
      <use x="135.322266" xlink:href="#DejaVuSans-67"/>
      <use x="205.146484" xlink:href="#DejaVuSans-32"/>
      <use x="236.933594" xlink:href="#DejaVuSans-35"/>
      <use x="320.722656" xlink:href="#DejaVuSans-50"/>
     </g>
    </g>
    <g id="line2d_23">
     <path d="M 194.435365 44.730469 
L 224.435365 44.730469 
" style="fill:none;stroke:#d62728;stroke-linecap:square;stroke-width:1.5;"/>
    </g>
    <g id="line2d_24"/>
    <g id="text_16">
     <!-- CKC #3 -->
     <defs>
      <path d="M 40.578125 39.3125 
Q 47.65625 37.796875 51.625 33 
Q 55.609375 28.21875 55.609375 21.1875 
Q 55.609375 10.40625 48.1875 4.484375 
Q 40.765625 -1.421875 27.09375 -1.421875 
Q 22.515625 -1.421875 17.65625 -0.515625 
Q 12.796875 0.390625 7.625 2.203125 
L 7.625 11.71875 
Q 11.71875 9.328125 16.59375 8.109375 
Q 21.484375 6.890625 26.8125 6.890625 
Q 36.078125 6.890625 40.9375 10.546875 
Q 45.796875 14.203125 45.796875 21.1875 
Q 45.796875 27.640625 41.28125 31.265625 
Q 36.765625 34.90625 28.71875 34.90625 
L 20.21875 34.90625 
L 20.21875 43.015625 
L 29.109375 43.015625 
Q 36.375 43.015625 40.234375 45.921875 
Q 44.09375 48.828125 44.09375 54.296875 
Q 44.09375 59.90625 40.109375 62.90625 
Q 36.140625 65.921875 28.71875 65.921875 
Q 24.65625 65.921875 20.015625 65.03125 
Q 15.375 64.15625 9.8125 62.3125 
L 9.8125 71.09375 
Q 15.4375 72.65625 20.34375 73.4375 
Q 25.25 74.21875 29.59375 74.21875 
Q 40.828125 74.21875 47.359375 69.109375 
Q 53.90625 64.015625 53.90625 55.328125 
Q 53.90625 49.265625 50.4375 45.09375 
Q 46.96875 40.921875 40.578125 39.3125 
z
" id="DejaVuSans-51"/>
     </defs>
     <g transform="translate(236.435365 49.980469)scale(0.15 -0.15)">
      <use xlink:href="#DejaVuSans-67"/>
      <use x="69.824219" xlink:href="#DejaVuSans-75"/>
      <use x="135.322266" xlink:href="#DejaVuSans-67"/>
      <use x="205.146484" xlink:href="#DejaVuSans-32"/>
      <use x="236.933594" xlink:href="#DejaVuSans-35"/>
      <use x="320.722656" xlink:href="#DejaVuSans-51"/>
     </g>
    </g>
    <g id="line2d_25">
     <path d="M 305.240729 22.713281 
L 335.240729 22.713281 
" style="fill:none;stroke:#9467bd;stroke-linecap:square;stroke-width:1.5;"/>
    </g>
    <g id="line2d_26"/>
    <g id="text_17">
     <!-- CKC #4 -->
     <g transform="translate(347.240729 27.963281)scale(0.15 -0.15)">
      <use xlink:href="#DejaVuSans-67"/>
      <use x="69.824219" xlink:href="#DejaVuSans-75"/>
      <use x="135.322266" xlink:href="#DejaVuSans-67"/>
      <use x="205.146484" xlink:href="#DejaVuSans-32"/>
      <use x="236.933594" xlink:href="#DejaVuSans-35"/>
      <use x="320.722656" xlink:href="#DejaVuSans-52"/>
     </g>
    </g>
    <g id="line2d_27">
     <path d="M 416.046094 22.713281 
L 446.046094 22.713281 
" style="fill:none;stroke:#8c564b;stroke-linecap:square;stroke-width:1.5;"/>
    </g>
    <g id="line2d_28"/>
    <g id="text_18">
     <!-- CKC #5 -->
     <defs>
      <path d="M 10.796875 72.90625 
L 49.515625 72.90625 
L 49.515625 64.59375 
L 19.828125 64.59375 
L 19.828125 46.734375 
Q 21.96875 47.46875 24.109375 47.828125 
Q 26.265625 48.1875 28.421875 48.1875 
Q 40.625 48.1875 47.75 41.5 
Q 54.890625 34.8125 54.890625 23.390625 
Q 54.890625 11.625 47.5625 5.09375 
Q 40.234375 -1.421875 26.90625 -1.421875 
Q 22.3125 -1.421875 17.546875 -0.640625 
Q 12.796875 0.140625 7.71875 1.703125 
L 7.71875 11.625 
Q 12.109375 9.234375 16.796875 8.0625 
Q 21.484375 6.890625 26.703125 6.890625 
Q 35.15625 6.890625 40.078125 11.328125 
Q 45.015625 15.765625 45.015625 23.390625 
Q 45.015625 31 40.078125 35.4375 
Q 35.15625 39.890625 26.703125 39.890625 
Q 22.75 39.890625 18.8125 39.015625 
Q 14.890625 38.140625 10.796875 36.28125 
z
" id="DejaVuSans-53"/>
     </defs>
     <g transform="translate(458.046094 27.963281)scale(0.15 -0.15)">
      <use xlink:href="#DejaVuSans-67"/>
      <use x="69.824219" xlink:href="#DejaVuSans-75"/>
      <use x="135.322266" xlink:href="#DejaVuSans-67"/>
      <use x="205.146484" xlink:href="#DejaVuSans-32"/>
      <use x="236.933594" xlink:href="#DejaVuSans-35"/>
      <use x="320.722656" xlink:href="#DejaVuSans-53"/>
     </g>
    </g>
   </g>
  </g>
 </g>
 <defs>
  <clipPath id="p96db8bbb23">
   <rect height="298.96" width="459.07" x="70.13" y="66.6"/>
  </clipPath>
 </defs>
</svg>
