<?xml version="1.0" encoding="utf-8" standalone="no"?>
<!DOCTYPE svg PUBLIC "-//W3C//DTD SVG 1.1//EN"
  "http://www.w3.org/Graphics/SVG/1.1/DTD/svg11.dtd">
<!-- Created with matplotlib (https://matplotlib.org/) -->
<svg height="432pt" version="1.1" viewBox="0 0 540 432" width="540pt" xmlns="http://www.w3.org/2000/svg" xmlns:xlink="http://www.w3.org/1999/xlink">
 <defs>
  <style type="text/css">
*{stroke-linecap:butt;stroke-linejoin:round;}
  </style>
 </defs>
 <g id="figure_1">
  <g id="patch_1">
   <path d="M 0 432 
L 540 432 
L 540 0 
L 0 0 
z
" style="fill:#ffffff;"/>
  </g>
  <g id="axes_1">
   <g id="patch_2">
    <path d="M 89.12 365.56 
L 529.2 365.56 
L 529.2 88.5 
L 89.12 88.5 
z
" style="fill:#ffffff;"/>
   </g>
   <g id="matplotlib.axis_1">
    <g id="xtick_1">
     <g id="line2d_1">
      <defs>
       <path d="M 0 0 
L 0 3.5 
" id="ma8cd100131" style="stroke:#000000;stroke-width:0.8;"/>
      </defs>
      <g>
       <use style="stroke:#000000;stroke-width:0.8;" x="109.123636" xlink:href="#ma8cd100131" y="365.56"/>
      </g>
     </g>
     <g id="text_1">
      <!-- 0 -->
      <defs>
       <path d="M 31.78125 66.40625 
Q 24.171875 66.40625 20.328125 58.90625 
Q 16.5 51.421875 16.5 36.375 
Q 16.5 21.390625 20.328125 13.890625 
Q 24.171875 6.390625 31.78125 6.390625 
Q 39.453125 6.390625 43.28125 13.890625 
Q 47.125 21.390625 47.125 36.375 
Q 47.125 51.421875 43.28125 58.90625 
Q 39.453125 66.40625 31.78125 66.40625 
z
M 31.78125 74.21875 
Q 44.046875 74.21875 50.515625 64.515625 
Q 56.984375 54.828125 56.984375 36.375 
Q 56.984375 17.96875 50.515625 8.265625 
Q 44.046875 -1.421875 31.78125 -1.421875 
Q 19.53125 -1.421875 13.0625 8.265625 
Q 6.59375 17.96875 6.59375 36.375 
Q 6.59375 54.828125 13.0625 64.515625 
Q 19.53125 74.21875 31.78125 74.21875 
z
" id="DejaVuSans-48"/>
      </defs>
      <g transform="translate(102.761136 387.756875)scale(0.2 -0.2)">
       <use xlink:href="#DejaVuSans-48"/>
      </g>
     </g>
    </g>
    <g id="xtick_2">
     <g id="line2d_2">
      <g>
       <use style="stroke:#000000;stroke-width:0.8;" x="194.245493" xlink:href="#ma8cd100131" y="365.56"/>
      </g>
     </g>
     <g id="text_2">
      <!-- 20 -->
      <defs>
       <path d="M 19.1875 8.296875 
L 53.609375 8.296875 
L 53.609375 0 
L 7.328125 0 
L 7.328125 8.296875 
Q 12.9375 14.109375 22.625 23.890625 
Q 32.328125 33.6875 34.8125 36.53125 
Q 39.546875 41.84375 41.421875 45.53125 
Q 43.3125 49.21875 43.3125 52.78125 
Q 43.3125 58.59375 39.234375 62.25 
Q 35.15625 65.921875 28.609375 65.921875 
Q 23.96875 65.921875 18.8125 64.3125 
Q 13.671875 62.703125 7.8125 59.421875 
L 7.8125 69.390625 
Q 13.765625 71.78125 18.9375 73 
Q 24.125 74.21875 28.421875 74.21875 
Q 39.75 74.21875 46.484375 68.546875 
Q 53.21875 62.890625 53.21875 53.421875 
Q 53.21875 48.921875 51.53125 44.890625 
Q 49.859375 40.875 45.40625 35.40625 
Q 44.1875 33.984375 37.640625 27.21875 
Q 31.109375 20.453125 19.1875 8.296875 
z
" id="DejaVuSans-50"/>
      </defs>
      <g transform="translate(181.520493 387.756875)scale(0.2 -0.2)">
       <use xlink:href="#DejaVuSans-50"/>
       <use x="63.623047" xlink:href="#DejaVuSans-48"/>
      </g>
     </g>
    </g>
    <g id="xtick_3">
     <g id="line2d_3">
      <g>
       <use style="stroke:#000000;stroke-width:0.8;" x="279.36735" xlink:href="#ma8cd100131" y="365.56"/>
      </g>
     </g>
     <g id="text_3">
      <!-- 40 -->
      <defs>
       <path d="M 37.796875 64.3125 
L 12.890625 25.390625 
L 37.796875 25.390625 
z
M 35.203125 72.90625 
L 47.609375 72.90625 
L 47.609375 25.390625 
L 58.015625 25.390625 
L 58.015625 17.1875 
L 47.609375 17.1875 
L 47.609375 0 
L 37.796875 0 
L 37.796875 17.1875 
L 4.890625 17.1875 
L 4.890625 26.703125 
z
" id="DejaVuSans-52"/>
      </defs>
      <g transform="translate(266.64235 387.756875)scale(0.2 -0.2)">
       <use xlink:href="#DejaVuSans-52"/>
       <use x="63.623047" xlink:href="#DejaVuSans-48"/>
      </g>
     </g>
    </g>
    <g id="xtick_4">
     <g id="line2d_4">
      <g>
       <use style="stroke:#000000;stroke-width:0.8;" x="364.489207" xlink:href="#ma8cd100131" y="365.56"/>
      </g>
     </g>
     <g id="text_4">
      <!-- 60 -->
      <defs>
       <path d="M 33.015625 40.375 
Q 26.375 40.375 22.484375 35.828125 
Q 18.609375 31.296875 18.609375 23.390625 
Q 18.609375 15.53125 22.484375 10.953125 
Q 26.375 6.390625 33.015625 6.390625 
Q 39.65625 6.390625 43.53125 10.953125 
Q 47.40625 15.53125 47.40625 23.390625 
Q 47.40625 31.296875 43.53125 35.828125 
Q 39.65625 40.375 33.015625 40.375 
z
M 52.59375 71.296875 
L 52.59375 62.3125 
Q 48.875 64.0625 45.09375 64.984375 
Q 41.3125 65.921875 37.59375 65.921875 
Q 27.828125 65.921875 22.671875 59.328125 
Q 17.53125 52.734375 16.796875 39.40625 
Q 19.671875 43.65625 24.015625 45.921875 
Q 28.375 48.1875 33.59375 48.1875 
Q 44.578125 48.1875 50.953125 41.515625 
Q 57.328125 34.859375 57.328125 23.390625 
Q 57.328125 12.15625 50.6875 5.359375 
Q 44.046875 -1.421875 33.015625 -1.421875 
Q 20.359375 -1.421875 13.671875 8.265625 
Q 6.984375 17.96875 6.984375 36.375 
Q 6.984375 53.65625 15.1875 63.9375 
Q 23.390625 74.21875 37.203125 74.21875 
Q 40.921875 74.21875 44.703125 73.484375 
Q 48.484375 72.75 52.59375 71.296875 
z
" id="DejaVuSans-54"/>
      </defs>
      <g transform="translate(351.764207 387.756875)scale(0.2 -0.2)">
       <use xlink:href="#DejaVuSans-54"/>
       <use x="63.623047" xlink:href="#DejaVuSans-48"/>
      </g>
     </g>
    </g>
    <g id="xtick_5">
     <g id="line2d_5">
      <g>
       <use style="stroke:#000000;stroke-width:0.8;" x="449.611064" xlink:href="#ma8cd100131" y="365.56"/>
      </g>
     </g>
     <g id="text_5">
      <!-- 80 -->
      <defs>
       <path d="M 31.78125 34.625 
Q 24.75 34.625 20.71875 30.859375 
Q 16.703125 27.09375 16.703125 20.515625 
Q 16.703125 13.921875 20.71875 10.15625 
Q 24.75 6.390625 31.78125 6.390625 
Q 38.8125 6.390625 42.859375 10.171875 
Q 46.921875 13.96875 46.921875 20.515625 
Q 46.921875 27.09375 42.890625 30.859375 
Q 38.875 34.625 31.78125 34.625 
z
M 21.921875 38.8125 
Q 15.578125 40.375 12.03125 44.71875 
Q 8.5 49.078125 8.5 55.328125 
Q 8.5 64.0625 14.71875 69.140625 
Q 20.953125 74.21875 31.78125 74.21875 
Q 42.671875 74.21875 48.875 69.140625 
Q 55.078125 64.0625 55.078125 55.328125 
Q 55.078125 49.078125 51.53125 44.71875 
Q 48 40.375 41.703125 38.8125 
Q 48.828125 37.15625 52.796875 32.3125 
Q 56.78125 27.484375 56.78125 20.515625 
Q 56.78125 9.90625 50.3125 4.234375 
Q 43.84375 -1.421875 31.78125 -1.421875 
Q 19.734375 -1.421875 13.25 4.234375 
Q 6.78125 9.90625 6.78125 20.515625 
Q 6.78125 27.484375 10.78125 32.3125 
Q 14.796875 37.15625 21.921875 38.8125 
z
M 18.3125 54.390625 
Q 18.3125 48.734375 21.84375 45.5625 
Q 25.390625 42.390625 31.78125 42.390625 
Q 38.140625 42.390625 41.71875 45.5625 
Q 45.3125 48.734375 45.3125 54.390625 
Q 45.3125 60.0625 41.71875 63.234375 
Q 38.140625 66.40625 31.78125 66.40625 
Q 25.390625 66.40625 21.84375 63.234375 
Q 18.3125 60.0625 18.3125 54.390625 
z
" id="DejaVuSans-56"/>
      </defs>
      <g transform="translate(436.886064 387.756875)scale(0.2 -0.2)">
       <use xlink:href="#DejaVuSans-56"/>
       <use x="63.623047" xlink:href="#DejaVuSans-48"/>
      </g>
     </g>
    </g>
    <g id="text_6">
     <!-- # of games -->
     <defs>
      <path d="M 51.125 44 
L 36.921875 44 
L 32.8125 27.6875 
L 47.125 27.6875 
z
M 43.796875 71.78125 
L 38.71875 51.515625 
L 52.984375 51.515625 
L 58.109375 71.78125 
L 65.921875 71.78125 
L 60.890625 51.515625 
L 76.125 51.515625 
L 76.125 44 
L 58.984375 44 
L 54.984375 27.6875 
L 70.515625 27.6875 
L 70.515625 20.21875 
L 53.078125 20.21875 
L 48 0 
L 40.1875 0 
L 45.21875 20.21875 
L 30.90625 20.21875 
L 25.875 0 
L 18.015625 0 
L 23.09375 20.21875 
L 7.71875 20.21875 
L 7.71875 27.6875 
L 24.90625 27.6875 
L 29 44 
L 13.28125 44 
L 13.28125 51.515625 
L 30.90625 51.515625 
L 35.890625 71.78125 
z
" id="DejaVuSans-35"/>
      <path id="DejaVuSans-32"/>
      <path d="M 30.609375 48.390625 
Q 23.390625 48.390625 19.1875 42.75 
Q 14.984375 37.109375 14.984375 27.296875 
Q 14.984375 17.484375 19.15625 11.84375 
Q 23.34375 6.203125 30.609375 6.203125 
Q 37.796875 6.203125 41.984375 11.859375 
Q 46.1875 17.53125 46.1875 27.296875 
Q 46.1875 37.015625 41.984375 42.703125 
Q 37.796875 48.390625 30.609375 48.390625 
z
M 30.609375 56 
Q 42.328125 56 49.015625 48.375 
Q 55.71875 40.765625 55.71875 27.296875 
Q 55.71875 13.875 49.015625 6.21875 
Q 42.328125 -1.421875 30.609375 -1.421875 
Q 18.84375 -1.421875 12.171875 6.21875 
Q 5.515625 13.875 5.515625 27.296875 
Q 5.515625 40.765625 12.171875 48.375 
Q 18.84375 56 30.609375 56 
z
" id="DejaVuSans-111"/>
      <path d="M 37.109375 75.984375 
L 37.109375 68.5 
L 28.515625 68.5 
Q 23.6875 68.5 21.796875 66.546875 
Q 19.921875 64.59375 19.921875 59.515625 
L 19.921875 54.6875 
L 34.71875 54.6875 
L 34.71875 47.703125 
L 19.921875 47.703125 
L 19.921875 0 
L 10.890625 0 
L 10.890625 47.703125 
L 2.296875 47.703125 
L 2.296875 54.6875 
L 10.890625 54.6875 
L 10.890625 58.5 
Q 10.890625 67.625 15.140625 71.796875 
Q 19.390625 75.984375 28.609375 75.984375 
z
" id="DejaVuSans-102"/>
      <path d="M 45.40625 27.984375 
Q 45.40625 37.75 41.375 43.109375 
Q 37.359375 48.484375 30.078125 48.484375 
Q 22.859375 48.484375 18.828125 43.109375 
Q 14.796875 37.75 14.796875 27.984375 
Q 14.796875 18.265625 18.828125 12.890625 
Q 22.859375 7.515625 30.078125 7.515625 
Q 37.359375 7.515625 41.375 12.890625 
Q 45.40625 18.265625 45.40625 27.984375 
z
M 54.390625 6.78125 
Q 54.390625 -7.171875 48.1875 -13.984375 
Q 42 -20.796875 29.203125 -20.796875 
Q 24.46875 -20.796875 20.265625 -20.09375 
Q 16.0625 -19.390625 12.109375 -17.921875 
L 12.109375 -9.1875 
Q 16.0625 -11.328125 19.921875 -12.34375 
Q 23.78125 -13.375 27.78125 -13.375 
Q 36.625 -13.375 41.015625 -8.765625 
Q 45.40625 -4.15625 45.40625 5.171875 
L 45.40625 9.625 
Q 42.625 4.78125 38.28125 2.390625 
Q 33.9375 0 27.875 0 
Q 17.828125 0 11.671875 7.65625 
Q 5.515625 15.328125 5.515625 27.984375 
Q 5.515625 40.671875 11.671875 48.328125 
Q 17.828125 56 27.875 56 
Q 33.9375 56 38.28125 53.609375 
Q 42.625 51.21875 45.40625 46.390625 
L 45.40625 54.6875 
L 54.390625 54.6875 
z
" id="DejaVuSans-103"/>
      <path d="M 34.28125 27.484375 
Q 23.390625 27.484375 19.1875 25 
Q 14.984375 22.515625 14.984375 16.5 
Q 14.984375 11.71875 18.140625 8.90625 
Q 21.296875 6.109375 26.703125 6.109375 
Q 34.1875 6.109375 38.703125 11.40625 
Q 43.21875 16.703125 43.21875 25.484375 
L 43.21875 27.484375 
z
M 52.203125 31.203125 
L 52.203125 0 
L 43.21875 0 
L 43.21875 8.296875 
Q 40.140625 3.328125 35.546875 0.953125 
Q 30.953125 -1.421875 24.3125 -1.421875 
Q 15.921875 -1.421875 10.953125 3.296875 
Q 6 8.015625 6 15.921875 
Q 6 25.140625 12.171875 29.828125 
Q 18.359375 34.515625 30.609375 34.515625 
L 43.21875 34.515625 
L 43.21875 35.40625 
Q 43.21875 41.609375 39.140625 45 
Q 35.0625 48.390625 27.6875 48.390625 
Q 23 48.390625 18.546875 47.265625 
Q 14.109375 46.140625 10.015625 43.890625 
L 10.015625 52.203125 
Q 14.9375 54.109375 19.578125 55.046875 
Q 24.21875 56 28.609375 56 
Q 40.484375 56 46.34375 49.84375 
Q 52.203125 43.703125 52.203125 31.203125 
z
" id="DejaVuSans-97"/>
      <path d="M 52 44.1875 
Q 55.375 50.25 60.0625 53.125 
Q 64.75 56 71.09375 56 
Q 79.640625 56 84.28125 50.015625 
Q 88.921875 44.046875 88.921875 33.015625 
L 88.921875 0 
L 79.890625 0 
L 79.890625 32.71875 
Q 79.890625 40.578125 77.09375 44.375 
Q 74.3125 48.1875 68.609375 48.1875 
Q 61.625 48.1875 57.5625 43.546875 
Q 53.515625 38.921875 53.515625 30.90625 
L 53.515625 0 
L 44.484375 0 
L 44.484375 32.71875 
Q 44.484375 40.625 41.703125 44.40625 
Q 38.921875 48.1875 33.109375 48.1875 
Q 26.21875 48.1875 22.15625 43.53125 
Q 18.109375 38.875 18.109375 30.90625 
L 18.109375 0 
L 9.078125 0 
L 9.078125 54.6875 
L 18.109375 54.6875 
L 18.109375 46.1875 
Q 21.1875 51.21875 25.484375 53.609375 
Q 29.78125 56 35.6875 56 
Q 41.65625 56 45.828125 52.96875 
Q 50 49.953125 52 44.1875 
z
" id="DejaVuSans-109"/>
      <path d="M 56.203125 29.59375 
L 56.203125 25.203125 
L 14.890625 25.203125 
Q 15.484375 15.921875 20.484375 11.0625 
Q 25.484375 6.203125 34.421875 6.203125 
Q 39.59375 6.203125 44.453125 7.46875 
Q 49.3125 8.734375 54.109375 11.28125 
L 54.109375 2.78125 
Q 49.265625 0.734375 44.1875 -0.34375 
Q 39.109375 -1.421875 33.890625 -1.421875 
Q 20.796875 -1.421875 13.15625 6.1875 
Q 5.515625 13.8125 5.515625 26.8125 
Q 5.515625 40.234375 12.765625 48.109375 
Q 20.015625 56 32.328125 56 
Q 43.359375 56 49.78125 48.890625 
Q 56.203125 41.796875 56.203125 29.59375 
z
M 47.21875 32.234375 
Q 47.125 39.59375 43.09375 43.984375 
Q 39.0625 48.390625 32.421875 48.390625 
Q 24.90625 48.390625 20.390625 44.140625 
Q 15.875 39.890625 15.1875 32.171875 
z
" id="DejaVuSans-101"/>
      <path d="M 44.28125 53.078125 
L 44.28125 44.578125 
Q 40.484375 46.53125 36.375 47.5 
Q 32.28125 48.484375 27.875 48.484375 
Q 21.1875 48.484375 17.84375 46.4375 
Q 14.5 44.390625 14.5 40.28125 
Q 14.5 37.15625 16.890625 35.375 
Q 19.28125 33.59375 26.515625 31.984375 
L 29.59375 31.296875 
Q 39.15625 29.25 43.1875 25.515625 
Q 47.21875 21.78125 47.21875 15.09375 
Q 47.21875 7.46875 41.1875 3.015625 
Q 35.15625 -1.421875 24.609375 -1.421875 
Q 20.21875 -1.421875 15.453125 -0.5625 
Q 10.6875 0.296875 5.421875 2 
L 5.421875 11.28125 
Q 10.40625 8.6875 15.234375 7.390625 
Q 20.0625 6.109375 24.8125 6.109375 
Q 31.15625 6.109375 34.5625 8.28125 
Q 37.984375 10.453125 37.984375 14.40625 
Q 37.984375 18.0625 35.515625 20.015625 
Q 33.0625 21.96875 24.703125 23.78125 
L 21.578125 24.515625 
Q 13.234375 26.265625 9.515625 29.90625 
Q 5.8125 33.546875 5.8125 39.890625 
Q 5.8125 47.609375 11.28125 51.796875 
Q 16.75 56 26.8125 56 
Q 31.78125 56 36.171875 55.265625 
Q 40.578125 54.546875 44.28125 53.078125 
z
" id="DejaVuSans-115"/>
     </defs>
     <g transform="translate(236.716641 414.912344)scale(0.25 -0.25)">
      <use xlink:href="#DejaVuSans-35"/>
      <use x="83.789062" xlink:href="#DejaVuSans-32"/>
      <use x="115.576172" xlink:href="#DejaVuSans-111"/>
      <use x="176.757812" xlink:href="#DejaVuSans-102"/>
      <use x="211.962891" xlink:href="#DejaVuSans-32"/>
      <use x="243.75" xlink:href="#DejaVuSans-103"/>
      <use x="307.226562" xlink:href="#DejaVuSans-97"/>
      <use x="368.505859" xlink:href="#DejaVuSans-109"/>
      <use x="465.917969" xlink:href="#DejaVuSans-101"/>
      <use x="527.441406" xlink:href="#DejaVuSans-115"/>
     </g>
    </g>
   </g>
   <g id="matplotlib.axis_2">
    <g id="ytick_1">
     <g id="line2d_6">
      <defs>
       <path d="M 0 0 
L -3.5 0 
" id="ma99608fa68" style="stroke:#000000;stroke-width:0.8;"/>
      </defs>
      <g>
       <use style="stroke:#000000;stroke-width:0.8;" x="89.12" xlink:href="#ma99608fa68" y="352.966364"/>
      </g>
     </g>
     <g id="text_7">
      <!-- 0 -->
      <g transform="translate(69.395 360.564801)scale(0.2 -0.2)">
       <use xlink:href="#DejaVuSans-48"/>
      </g>
     </g>
    </g>
    <g id="ytick_2">
     <g id="line2d_7">
      <g>
       <use style="stroke:#000000;stroke-width:0.8;" x="89.12" xlink:href="#ma99608fa68" y="301.626631"/>
      </g>
     </g>
     <g id="text_8">
      <!-- 500 -->
      <defs>
       <path d="M 10.796875 72.90625 
L 49.515625 72.90625 
L 49.515625 64.59375 
L 19.828125 64.59375 
L 19.828125 46.734375 
Q 21.96875 47.46875 24.109375 47.828125 
Q 26.265625 48.1875 28.421875 48.1875 
Q 40.625 48.1875 47.75 41.5 
Q 54.890625 34.8125 54.890625 23.390625 
Q 54.890625 11.625 47.5625 5.09375 
Q 40.234375 -1.421875 26.90625 -1.421875 
Q 22.3125 -1.421875 17.546875 -0.640625 
Q 12.796875 0.140625 7.71875 1.703125 
L 7.71875 11.625 
Q 12.109375 9.234375 16.796875 8.0625 
Q 21.484375 6.890625 26.703125 6.890625 
Q 35.15625 6.890625 40.078125 11.328125 
Q 45.015625 15.765625 45.015625 23.390625 
Q 45.015625 31 40.078125 35.4375 
Q 35.15625 39.890625 26.703125 39.890625 
Q 22.75 39.890625 18.8125 39.015625 
Q 14.890625 38.140625 10.796875 36.28125 
z
" id="DejaVuSans-53"/>
      </defs>
      <g transform="translate(43.945 309.225069)scale(0.2 -0.2)">
       <use xlink:href="#DejaVuSans-53"/>
       <use x="63.623047" xlink:href="#DejaVuSans-48"/>
       <use x="127.246094" xlink:href="#DejaVuSans-48"/>
      </g>
     </g>
    </g>
    <g id="ytick_3">
     <g id="line2d_8">
      <g>
       <use style="stroke:#000000;stroke-width:0.8;" x="89.12" xlink:href="#ma99608fa68" y="250.286899"/>
      </g>
     </g>
     <g id="text_9">
      <!-- 1000 -->
      <defs>
       <path d="M 12.40625 8.296875 
L 28.515625 8.296875 
L 28.515625 63.921875 
L 10.984375 60.40625 
L 10.984375 69.390625 
L 28.421875 72.90625 
L 38.28125 72.90625 
L 38.28125 8.296875 
L 54.390625 8.296875 
L 54.390625 0 
L 12.40625 0 
z
" id="DejaVuSans-49"/>
      </defs>
      <g transform="translate(31.22 257.885336)scale(0.2 -0.2)">
       <use xlink:href="#DejaVuSans-49"/>
       <use x="63.623047" xlink:href="#DejaVuSans-48"/>
       <use x="127.246094" xlink:href="#DejaVuSans-48"/>
       <use x="190.869141" xlink:href="#DejaVuSans-48"/>
      </g>
     </g>
    </g>
    <g id="ytick_4">
     <g id="line2d_9">
      <g>
       <use style="stroke:#000000;stroke-width:0.8;" x="89.12" xlink:href="#ma99608fa68" y="198.947166"/>
      </g>
     </g>
     <g id="text_10">
      <!-- 1500 -->
      <g transform="translate(31.22 206.545604)scale(0.2 -0.2)">
       <use xlink:href="#DejaVuSans-49"/>
       <use x="63.623047" xlink:href="#DejaVuSans-53"/>
       <use x="127.246094" xlink:href="#DejaVuSans-48"/>
       <use x="190.869141" xlink:href="#DejaVuSans-48"/>
      </g>
     </g>
    </g>
    <g id="ytick_5">
     <g id="line2d_10">
      <g>
       <use style="stroke:#000000;stroke-width:0.8;" x="89.12" xlink:href="#ma99608fa68" y="147.607434"/>
      </g>
     </g>
     <g id="text_11">
      <!-- 2000 -->
      <g transform="translate(31.22 155.205871)scale(0.2 -0.2)">
       <use xlink:href="#DejaVuSans-50"/>
       <use x="63.623047" xlink:href="#DejaVuSans-48"/>
       <use x="127.246094" xlink:href="#DejaVuSans-48"/>
       <use x="190.869141" xlink:href="#DejaVuSans-48"/>
      </g>
     </g>
    </g>
    <g id="ytick_6">
     <g id="line2d_11">
      <g>
       <use style="stroke:#000000;stroke-width:0.8;" x="89.12" xlink:href="#ma99608fa68" y="96.267702"/>
      </g>
     </g>
     <g id="text_12">
      <!-- 2500 -->
      <g transform="translate(31.22 103.866139)scale(0.2 -0.2)">
       <use xlink:href="#DejaVuSans-50"/>
       <use x="63.623047" xlink:href="#DejaVuSans-53"/>
       <use x="127.246094" xlink:href="#DejaVuSans-48"/>
       <use x="190.869141" xlink:href="#DejaVuSans-48"/>
      </g>
     </g>
    </g>
    <g id="text_13">
     <!-- Number of Att strategy used -->
     <defs>
      <path d="M 9.8125 72.90625 
L 23.09375 72.90625 
L 55.421875 11.921875 
L 55.421875 72.90625 
L 64.984375 72.90625 
L 64.984375 0 
L 51.703125 0 
L 19.390625 60.984375 
L 19.390625 0 
L 9.8125 0 
z
" id="DejaVuSans-78"/>
      <path d="M 8.5 21.578125 
L 8.5 54.6875 
L 17.484375 54.6875 
L 17.484375 21.921875 
Q 17.484375 14.15625 20.5 10.265625 
Q 23.53125 6.390625 29.59375 6.390625 
Q 36.859375 6.390625 41.078125 11.03125 
Q 45.3125 15.671875 45.3125 23.6875 
L 45.3125 54.6875 
L 54.296875 54.6875 
L 54.296875 0 
L 45.3125 0 
L 45.3125 8.40625 
Q 42.046875 3.421875 37.71875 1 
Q 33.40625 -1.421875 27.6875 -1.421875 
Q 18.265625 -1.421875 13.375 4.4375 
Q 8.5 10.296875 8.5 21.578125 
z
M 31.109375 56 
z
" id="DejaVuSans-117"/>
      <path d="M 48.6875 27.296875 
Q 48.6875 37.203125 44.609375 42.84375 
Q 40.53125 48.484375 33.40625 48.484375 
Q 26.265625 48.484375 22.1875 42.84375 
Q 18.109375 37.203125 18.109375 27.296875 
Q 18.109375 17.390625 22.1875 11.75 
Q 26.265625 6.109375 33.40625 6.109375 
Q 40.53125 6.109375 44.609375 11.75 
Q 48.6875 17.390625 48.6875 27.296875 
z
M 18.109375 46.390625 
Q 20.953125 51.265625 25.265625 53.625 
Q 29.59375 56 35.59375 56 
Q 45.5625 56 51.78125 48.09375 
Q 58.015625 40.1875 58.015625 27.296875 
Q 58.015625 14.40625 51.78125 6.484375 
Q 45.5625 -1.421875 35.59375 -1.421875 
Q 29.59375 -1.421875 25.265625 0.953125 
Q 20.953125 3.328125 18.109375 8.203125 
L 18.109375 0 
L 9.078125 0 
L 9.078125 75.984375 
L 18.109375 75.984375 
z
" id="DejaVuSans-98"/>
      <path d="M 41.109375 46.296875 
Q 39.59375 47.171875 37.8125 47.578125 
Q 36.03125 48 33.890625 48 
Q 26.265625 48 22.1875 43.046875 
Q 18.109375 38.09375 18.109375 28.8125 
L 18.109375 0 
L 9.078125 0 
L 9.078125 54.6875 
L 18.109375 54.6875 
L 18.109375 46.1875 
Q 20.953125 51.171875 25.484375 53.578125 
Q 30.03125 56 36.53125 56 
Q 37.453125 56 38.578125 55.875 
Q 39.703125 55.765625 41.0625 55.515625 
z
" id="DejaVuSans-114"/>
      <path d="M 34.1875 63.1875 
L 20.796875 26.90625 
L 47.609375 26.90625 
z
M 28.609375 72.90625 
L 39.796875 72.90625 
L 67.578125 0 
L 57.328125 0 
L 50.6875 18.703125 
L 17.828125 18.703125 
L 11.1875 0 
L 0.78125 0 
z
" id="DejaVuSans-65"/>
      <path d="M 18.3125 70.21875 
L 18.3125 54.6875 
L 36.8125 54.6875 
L 36.8125 47.703125 
L 18.3125 47.703125 
L 18.3125 18.015625 
Q 18.3125 11.328125 20.140625 9.421875 
Q 21.96875 7.515625 27.59375 7.515625 
L 36.8125 7.515625 
L 36.8125 0 
L 27.59375 0 
Q 17.1875 0 13.234375 3.875 
Q 9.28125 7.765625 9.28125 18.015625 
L 9.28125 47.703125 
L 2.6875 47.703125 
L 2.6875 54.6875 
L 9.28125 54.6875 
L 9.28125 70.21875 
z
" id="DejaVuSans-116"/>
      <path d="M 32.171875 -5.078125 
Q 28.375 -14.84375 24.75 -17.8125 
Q 21.140625 -20.796875 15.09375 -20.796875 
L 7.90625 -20.796875 
L 7.90625 -13.28125 
L 13.1875 -13.28125 
Q 16.890625 -13.28125 18.9375 -11.515625 
Q 21 -9.765625 23.484375 -3.21875 
L 25.09375 0.875 
L 2.984375 54.6875 
L 12.5 54.6875 
L 29.59375 11.921875 
L 46.6875 54.6875 
L 56.203125 54.6875 
z
" id="DejaVuSans-121"/>
      <path d="M 45.40625 46.390625 
L 45.40625 75.984375 
L 54.390625 75.984375 
L 54.390625 0 
L 45.40625 0 
L 45.40625 8.203125 
Q 42.578125 3.328125 38.25 0.953125 
Q 33.9375 -1.421875 27.875 -1.421875 
Q 17.96875 -1.421875 11.734375 6.484375 
Q 5.515625 14.40625 5.515625 27.296875 
Q 5.515625 40.1875 11.734375 48.09375 
Q 17.96875 56 27.875 56 
Q 33.9375 56 38.25 53.625 
Q 42.578125 51.265625 45.40625 46.390625 
z
M 14.796875 27.296875 
Q 14.796875 17.390625 18.875 11.75 
Q 22.953125 6.109375 30.078125 6.109375 
Q 37.203125 6.109375 41.296875 11.75 
Q 45.40625 17.390625 45.40625 27.296875 
Q 45.40625 37.203125 41.296875 42.84375 
Q 37.203125 48.484375 30.078125 48.484375 
Q 22.953125 48.484375 18.875 42.84375 
Q 14.796875 37.203125 14.796875 27.296875 
z
" id="DejaVuSans-100"/>
     </defs>
     <g transform="translate(23.753854 346.164115)rotate(-90)scale(0.166667 -0.166667)">
      <use xlink:href="#DejaVuSans-78"/>
      <use x="74.804688" xlink:href="#DejaVuSans-117"/>
      <use x="138.183594" xlink:href="#DejaVuSans-109"/>
      <use x="235.595703" xlink:href="#DejaVuSans-98"/>
      <use x="299.072266" xlink:href="#DejaVuSans-101"/>
      <use x="360.595703" xlink:href="#DejaVuSans-114"/>
      <use x="401.708984" xlink:href="#DejaVuSans-32"/>
      <use x="433.496094" xlink:href="#DejaVuSans-111"/>
      <use x="494.677734" xlink:href="#DejaVuSans-102"/>
      <use x="529.882812" xlink:href="#DejaVuSans-32"/>
      <use x="561.669922" xlink:href="#DejaVuSans-65"/>
      <use x="630.0625" xlink:href="#DejaVuSans-116"/>
      <use x="669.271484" xlink:href="#DejaVuSans-116"/>
      <use x="708.480469" xlink:href="#DejaVuSans-32"/>
      <use x="740.267578" xlink:href="#DejaVuSans-115"/>
      <use x="792.367188" xlink:href="#DejaVuSans-116"/>
      <use x="831.576172" xlink:href="#DejaVuSans-114"/>
      <use x="872.689453" xlink:href="#DejaVuSans-97"/>
      <use x="933.96875" xlink:href="#DejaVuSans-116"/>
      <use x="973.177734" xlink:href="#DejaVuSans-101"/>
      <use x="1034.701172" xlink:href="#DejaVuSans-103"/>
      <use x="1098.177734" xlink:href="#DejaVuSans-121"/>
      <use x="1157.357422" xlink:href="#DejaVuSans-32"/>
      <use x="1189.144531" xlink:href="#DejaVuSans-117"/>
      <use x="1252.523438" xlink:href="#DejaVuSans-115"/>
      <use x="1304.623047" xlink:href="#DejaVuSans-101"/>
      <use x="1366.146484" xlink:href="#DejaVuSans-100"/>
     </g>
    </g>
   </g>
   <g id="line2d_12">
    <path clip-path="url(#p2fcf9a5d0e)" d="M 109.123636 301.626631 
L 113.379729 285.505955 
L 117.635822 276.264803 
L 121.891915 265.894177 
L 126.148008 252.03245 
L 130.404101 243.407375 
L 134.660193 232.523351 
L 138.916286 225.02775 
L 143.172379 216.299996 
L 147.428472 204.183819 
L 151.684565 199.768602 
L 155.940658 193.710514 
L 160.19675 184.264003 
L 164.452843 174.817492 
L 168.708936 163.933469 
L 172.965029 155.513753 
L 177.221122 147.402075 
L 181.477215 147.710113 
L 185.733308 134.464462 
L 189.9894 132.102835 
L 194.245493 128.714412 
L 198.501586 125.839387 
L 202.757679 123.991157 
L 207.013772 115.982159 
L 211.269865 108.589237 
L 215.525957 106.432969 
L 219.78205 110.848186 
L 224.038143 103.660623 
L 228.294236 104.687418 
L 232.550329 111.361583 
L 236.806422 101.709713 
L 241.062515 101.709713 
L 245.318607 101.093636 
L 249.5747 101.607034 
L 253.830793 109.821391 
L 258.086886 107.254404 
L 262.342979 102.22311 
L 266.599072 106.843686 
L 270.855164 110.232109 
L 275.111257 111.258903 
L 279.36735 122.142927 
L 283.623443 119.883978 
L 287.879536 121.732209 
L 292.135629 126.558144 
L 296.391721 130.665322 
L 300.647814 130.768002 
L 304.903907 134.772501 
L 309.16 136.210013 
L 313.416093 142.268102 
L 317.672186 148.531549 
L 321.928279 150.482459 
L 326.184371 163.933469 
L 330.440464 174.098736 
L 334.696557 181.286298 
L 338.95265 187.139028 
L 343.208743 193.299796 
L 347.464836 203.259704 
L 351.720928 214.862483 
L 355.977021 220.407175 
L 360.233114 231.496557 
L 364.489207 238.273401 
L 368.7453 245.152926 
L 373.001393 251.92977 
L 377.257485 265.996857 
L 381.513578 272.157625 
L 385.769671 281.706815 
L 390.025764 290.023852 
L 394.281857 298.443568 
L 398.53795 309.122232 
L 402.794043 312.202616 
L 407.050135 316.001756 
L 411.306228 320.725012 
L 415.562321 323.702716 
L 419.818414 328.220613 
L 424.074507 328.220613 
L 428.3306 332.63583 
L 432.586692 332.327791 
L 436.842785 336.33229 
L 441.098878 340.23411 
L 445.354971 340.131431 
L 449.611064 342.903776 
L 453.867157 344.238609 
L 458.12325 344.649327 
L 462.379342 349.475262 
L 466.635435 348.961865 
L 470.891528 351.118133 
L 475.147621 351.015454 
L 479.403714 350.502056 
L 483.659807 350.502056 
L 487.915899 351.015454 
L 492.171992 351.118133 
L 496.428085 350.707415 
L 500.684178 350.502056 
L 504.940271 351.83689 
L 509.196364 351.939569 
" style="fill:none;stroke:#1f77b4;stroke-linecap:square;stroke-width:1.5;"/>
   </g>
   <g id="line2d_13">
    <path clip-path="url(#p2fcf9a5d0e)" d="M 109.123636 352.966364 
L 113.379729 348.243108 
L 117.635822 339.823392 
L 121.891915 334.689419 
L 126.148008 334.48406 
L 130.404101 327.296497 
L 134.660193 324.524152 
L 138.916286 318.363384 
L 143.172379 318.466063 
L 147.428472 319.800896 
L 151.684565 314.974962 
L 155.940658 310.149027 
L 160.19675 309.738309 
L 164.452843 308.608835 
L 168.708936 306.247207 
L 172.965029 303.7829 
L 177.221122 304.912374 
L 181.477215 297.108735 
L 185.733308 300.291798 
L 189.9894 298.956965 
L 194.245493 298.340888 
L 198.501586 296.18462 
L 202.757679 289.921172 
L 207.013772 295.363184 
L 211.269865 295.055145 
L 215.525957 293.309595 
L 219.78205 286.53275 
L 224.038143 290.537249 
L 228.294236 289.407775 
L 232.550329 282.014853 
L 236.806422 290.43457 
L 241.062515 286.738109 
L 245.318607 287.354186 
L 249.5747 293.412274 
L 253.830793 288.38098 
L 258.086886 287.559545 
L 262.342979 290.229211 
L 266.599072 291.256005 
L 270.855164 289.613134 
L 275.111257 294.849787 
L 279.36735 291.872082 
L 283.623443 295.671222 
L 287.879536 297.416773 
L 292.135629 295.260504 
L 296.391721 294.23371 
L 300.647814 297.724812 
L 304.903907 298.443568 
L 309.16 298.03285 
L 313.416093 299.265004 
L 317.672186 296.903376 
L 321.928279 303.372182 
L 326.184371 303.577541 
L 330.440464 305.117733 
L 334.696557 308.403476 
L 338.95265 312.716013 
L 343.208743 312.510654 
L 347.464836 314.358885 
L 351.720928 315.591038 
L 355.977021 319.903576 
L 360.233114 326.167023 
L 364.489207 326.680421 
L 368.7453 327.296497 
L 373.001393 326.475062 
L 377.257485 328.836689 
L 381.513578 331.506355 
L 385.769671 333.662624 
L 390.025764 338.2832 
L 394.281857 338.38588 
L 398.53795 338.693918 
L 402.794043 340.644828 
L 407.050135 341.876981 
L 411.306228 345.676122 
L 415.562321 346.394878 
L 419.818414 346.908275 
L 424.074507 346.497557 
L 428.3306 346.600237 
L 432.586692 348.448467 
L 436.842785 349.269903 
L 441.098878 349.475262 
L 445.354971 349.7833 
L 449.611064 350.912774 
L 453.867157 351.220813 
L 458.12325 350.810095 
L 462.379342 351.528851 
L 466.635435 351.528851 
L 470.891528 352.247607 
L 475.147621 352.452966 
L 479.403714 352.555646 
L 483.659807 352.658325 
L 487.915899 352.350287 
L 492.171992 352.350287 
L 496.428085 352.247607 
L 500.684178 352.555646 
L 504.940271 352.555646 
L 509.196364 352.555646 
" style="fill:none;stroke:#ff7f0e;stroke-linecap:square;stroke-width:1.5;"/>
   </g>
   <g id="line2d_14">
    <path clip-path="url(#p2fcf9a5d0e)" d="M 109.123636 352.966364 
L 113.379729 352.966364 
L 117.635822 352.658325 
L 121.891915 352.042248 
L 126.148008 351.220813 
L 130.404101 351.528851 
L 134.660193 350.091339 
L 138.916286 349.475262 
L 143.172379 349.167223 
L 147.428472 347.421673 
L 151.684565 345.881481 
L 155.940658 346.600237 
L 160.19675 343.930571 
L 164.452843 344.752006 
L 168.708936 342.698417 
L 172.965029 344.238609 
L 177.221122 341.363584 
L 181.477215 341.876981 
L 185.733308 343.725212 
L 189.9894 343.211814 
L 194.245493 343.109135 
L 198.501586 342.18502 
L 202.757679 340.850187 
L 207.013772 340.336789 
L 211.269865 342.493058 
L 215.525957 342.595738 
L 219.78205 341.876981 
L 224.038143 340.336789 
L 228.294236 342.390379 
L 232.550329 340.131431 
L 236.806422 341.568943 
L 241.062515 340.850187 
L 245.318607 339.720713 
L 249.5747 339.618033 
L 253.830793 341.158225 
L 258.086886 343.314494 
L 262.342979 342.18502 
L 266.599072 341.158225 
L 270.855164 342.493058 
L 275.111257 340.131431 
L 279.36735 341.260905 
L 283.623443 341.055546 
L 287.879536 341.363584 
L 292.135629 339.926072 
L 296.391721 342.903776 
L 300.647814 340.952866 
L 304.903907 343.519853 
L 309.16 343.006456 
L 313.416093 343.827891 
L 317.672186 343.417173 
L 321.928279 341.260905 
L 326.184371 341.774302 
L 330.440464 343.519853 
L 334.696557 343.211814 
L 338.95265 344.649327 
L 343.208743 343.725212 
L 347.464836 346.702916 
L 351.720928 347.113634 
L 355.977021 345.573442 
L 360.233114 347.318993 
L 364.489207 348.448467 
L 368.7453 347.627031 
L 373.001393 348.140429 
L 377.257485 348.037749 
L 381.513578 348.756506 
L 385.769671 349.577941 
L 390.025764 349.680621 
L 394.281857 350.296698 
L 398.53795 350.810095 
L 402.794043 350.399377 
L 407.050135 351.220813 
L 411.306228 351.426172 
L 415.562321 351.631531 
L 419.818414 351.118133 
L 424.074507 352.042248 
L 428.3306 351.939569 
L 432.586692 352.452966 
L 436.842785 352.658325 
L 441.098878 352.452966 
L 445.354971 352.247607 
L 449.611064 352.658325 
L 453.867157 352.761005 
L 458.12325 352.658325 
L 462.379342 352.658325 
L 466.635435 352.555646 
L 470.891528 352.863684 
L 475.147621 352.966364 
L 479.403714 352.863684 
L 483.659807 352.966364 
L 487.915899 352.761005 
L 492.171992 352.966364 
L 496.428085 352.761005 
L 500.684178 352.658325 
L 504.940271 352.966364 
L 509.196364 352.966364 
" style="fill:none;stroke:#2ca02c;stroke-linecap:square;stroke-width:1.5;"/>
   </g>
   <g id="line2d_15">
    <path clip-path="url(#p2fcf9a5d0e)" d="M 109.123636 352.966364 
L 113.379729 352.966364 
L 117.635822 352.658325 
L 121.891915 351.73421 
L 126.148008 351.73421 
L 130.404101 350.912774 
L 134.660193 349.988659 
L 138.916286 350.707415 
L 143.172379 346.394878 
L 147.428472 346.394878 
L 151.684565 346.189519 
L 155.940658 345.778801 
L 160.19675 344.957365 
L 164.452843 343.211814 
L 168.708936 344.546648 
L 172.965029 343.930571 
L 177.221122 343.211814 
L 181.477215 342.08234 
L 185.733308 342.698417 
L 189.9894 342.287699 
L 194.245493 342.595738 
L 198.501586 341.363584 
L 202.757679 340.747507 
L 207.013772 341.466264 
L 211.269865 340.850187 
L 215.525957 342.595738 
L 219.78205 341.671623 
L 224.038143 342.493058 
L 228.294236 340.131431 
L 232.550329 341.671623 
L 236.806422 340.131431 
L 241.062515 341.568943 
L 245.318607 340.028751 
L 249.5747 340.952866 
L 253.830793 341.055546 
L 258.086886 342.287699 
L 262.342979 341.568943 
L 266.599072 341.363584 
L 270.855164 342.390379 
L 275.111257 340.850187 
L 279.36735 341.055546 
L 283.623443 341.363584 
L 287.879536 342.493058 
L 292.135629 341.671623 
L 296.391721 341.876981 
L 300.647814 340.850187 
L 304.903907 342.698417 
L 309.16 340.336789 
L 313.416093 341.671623 
L 317.672186 341.568943 
L 321.928279 342.698417 
L 326.184371 344.13593 
L 330.440464 344.854686 
L 334.696557 343.725212 
L 338.95265 343.622532 
L 343.208743 345.470763 
L 347.464836 345.573442 
L 351.720928 346.394878 
L 355.977021 345.162724 
L 360.233114 347.318993 
L 364.489207 346.600237 
L 368.7453 346.600237 
L 373.001393 347.524352 
L 377.257485 347.93507 
L 381.513578 348.140429 
L 385.769671 349.167223 
L 390.025764 350.502056 
L 394.281857 350.399377 
L 398.53795 351.015454 
L 402.794043 351.323492 
L 407.050135 351.528851 
L 411.306228 351.118133 
L 415.562321 351.631531 
L 419.818414 351.631531 
L 424.074507 352.144928 
L 428.3306 351.939569 
L 432.586692 352.247607 
L 436.842785 352.555646 
L 441.098878 352.555646 
L 445.354971 352.555646 
L 449.611064 352.658325 
L 453.867157 352.761005 
L 458.12325 352.761005 
L 462.379342 352.658325 
L 466.635435 352.247607 
L 470.891528 352.761005 
L 475.147621 352.761005 
L 479.403714 352.966364 
L 483.659807 352.658325 
L 487.915899 352.761005 
L 492.171992 352.863684 
L 496.428085 352.761005 
L 500.684178 352.863684 
L 504.940271 352.966364 
L 509.196364 352.863684 
" style="fill:none;stroke:#d62728;stroke-linecap:square;stroke-width:1.5;"/>
   </g>
   <g id="line2d_16">
    <path clip-path="url(#p2fcf9a5d0e)" d="M 109.123636 352.966364 
L 113.379729 352.966364 
L 117.635822 352.452966 
L 121.891915 351.83689 
L 126.148008 351.015454 
L 130.404101 349.680621 
L 134.660193 349.064544 
L 138.916286 346.086839 
L 143.172379 344.649327 
L 147.428472 343.519853 
L 151.684565 340.028751 
L 155.940658 340.131431 
L 160.19675 338.899277 
L 164.452843 336.024252 
L 168.708936 335.613534 
L 172.965029 333.457265 
L 177.221122 332.019753 
L 181.477215 334.278701 
L 185.733308 329.452766 
L 189.9894 328.939369 
L 194.245493 328.73401 
L 198.501586 325.037549 
L 202.757679 328.220613 
L 207.013772 326.7831 
L 211.269865 322.470563 
L 215.525957 321.03305 
L 219.78205 322.573242 
L 224.038143 325.140229 
L 228.294236 322.367883 
L 232.550329 319.08214 
L 236.806422 321.238409 
L 241.062515 320.827691 
L 245.318607 317.747307 
L 249.5747 318.055346 
L 253.830793 319.492858 
L 258.086886 313.742808 
L 262.342979 318.055346 
L 266.599072 317.644628 
L 270.855164 315.693718 
L 275.111257 312.613334 
L 279.36735 315.899077 
L 283.623443 317.028551 
L 287.879536 314.050846 
L 292.135629 318.466063 
L 296.391721 316.001756 
L 300.647814 317.439269 
L 304.903907 320.211614 
L 309.16 315.180321 
L 313.416093 315.077641 
L 317.672186 316.720513 
L 321.928279 318.158025 
L 326.184371 321.751806 
L 330.440464 321.238409 
L 334.696557 322.059845 
L 338.95265 323.702716 
L 343.208743 324.113434 
L 347.464836 325.961664 
L 351.720928 329.247407 
L 355.977021 329.658125 
L 360.233114 331.711714 
L 364.489207 330.58224 
L 368.7453 334.792098 
L 373.001393 334.586739 
L 377.257485 338.488559 
L 381.513578 337.769803 
L 385.769671 340.952866 
L 390.025764 342.08234 
L 394.281857 341.876981 
L 398.53795 345.676122 
L 402.794043 346.908275 
L 407.050135 345.881481 
L 411.306228 348.551147 
L 415.562321 349.475262 
L 419.818414 347.83239 
L 424.074507 348.551147 
L 428.3306 349.577941 
L 432.586692 350.707415 
L 436.842785 349.988659 
L 441.098878 350.810095 
L 445.354971 351.528851 
L 449.611064 351.220813 
L 453.867157 351.323492 
L 458.12325 351.015454 
L 462.379342 352.144928 
L 466.635435 352.452966 
L 470.891528 352.452966 
L 475.147621 352.350287 
L 479.403714 352.863684 
L 483.659807 352.452966 
L 487.915899 352.452966 
L 492.171992 352.555646 
L 496.428085 352.555646 
L 500.684178 352.555646 
L 504.940271 352.555646 
L 509.196364 352.863684 
" style="fill:none;stroke:#9467bd;stroke-linecap:square;stroke-width:1.5;"/>
   </g>
   <g id="line2d_17">
    <path clip-path="url(#p2fcf9a5d0e)" d="M 109.123636 352.966364 
L 113.379729 352.966364 
L 117.635822 352.966364 
L 121.891915 352.966364 
L 126.148008 352.863684 
L 130.404101 352.452966 
L 134.660193 352.761005 
L 138.916286 352.144928 
L 143.172379 352.144928 
L 147.428472 350.091339 
L 151.684565 350.296698 
L 155.940658 350.194018 
L 160.19675 350.091339 
L 164.452843 348.345788 
L 168.708936 349.269903 
L 172.965029 348.653826 
L 177.221122 348.448467 
L 181.477215 347.010955 
L 185.733308 346.394878 
L 189.9894 346.292198 
L 194.245493 347.93507 
L 198.501586 347.421673 
L 202.757679 346.292198 
L 207.013772 344.854686 
L 211.269865 347.010955 
L 215.525957 345.368083 
L 219.78205 345.368083 
L 224.038143 346.908275 
L 228.294236 346.600237 
L 232.550329 345.470763 
L 236.806422 345.470763 
L 241.062515 344.649327 
L 245.318607 345.265404 
L 249.5747 347.524352 
L 253.830793 344.752006 
L 258.086886 345.470763 
L 262.342979 345.060045 
L 266.599072 344.238609 
L 270.855164 345.676122 
L 275.111257 346.189519 
L 279.36735 345.778801 
L 283.623443 344.443968 
L 287.879536 345.778801 
L 292.135629 344.854686 
L 296.391721 345.368083 
L 300.647814 344.443968 
L 304.903907 345.573442 
L 309.16 345.265404 
L 313.416093 345.778801 
L 317.672186 345.265404 
L 321.928279 345.368083 
L 326.184371 345.265404 
L 330.440464 345.368083 
L 334.696557 347.318993 
L 338.95265 347.216314 
L 343.208743 347.421673 
L 347.464836 347.524352 
L 351.720928 347.524352 
L 355.977021 348.345788 
L 360.233114 348.243108 
L 364.489207 348.448467 
L 368.7453 349.372582 
L 373.001393 349.475262 
L 377.257485 349.372582 
L 381.513578 350.502056 
L 385.769671 350.604736 
L 390.025764 350.399377 
L 394.281857 350.707415 
L 398.53795 350.296698 
L 402.794043 351.939569 
L 407.050135 351.528851 
L 411.306228 352.452966 
L 415.562321 351.83689 
L 419.818414 352.144928 
L 424.074507 352.247607 
L 428.3306 352.350287 
L 432.586692 352.555646 
L 436.842785 352.247607 
L 441.098878 352.452966 
L 445.354971 352.658325 
L 449.611064 351.939569 
L 453.867157 352.761005 
L 458.12325 352.761005 
L 462.379342 352.658325 
L 466.635435 352.863684 
L 470.891528 352.966364 
L 475.147621 352.863684 
L 479.403714 352.555646 
L 483.659807 352.761005 
L 487.915899 352.761005 
L 492.171992 352.761005 
L 496.428085 352.863684 
L 500.684178 352.966364 
L 504.940271 352.966364 
L 509.196364 352.863684 
" style="fill:none;stroke:#8c564b;stroke-linecap:square;stroke-width:1.5;"/>
   </g>
   <g id="line2d_18">
    <path clip-path="url(#p2fcf9a5d0e)" d="M 109.123636 352.966364 
L 113.379729 352.966364 
L 117.635822 352.761005 
L 121.891915 352.350287 
L 126.148008 351.426172 
L 130.404101 350.194018 
L 134.660193 348.859185 
L 138.916286 347.113634 
L 143.172379 346.702916 
L 147.428472 345.060045 
L 151.684565 344.546648 
L 155.940658 341.671623 
L 160.19675 341.055546 
L 164.452843 340.23411 
L 168.708936 340.439469 
L 172.965029 337.564444 
L 177.221122 338.2832 
L 181.477215 337.461764 
L 185.733308 335.613534 
L 189.9894 335.921572 
L 194.245493 335.100137 
L 198.501586 336.024252 
L 202.757679 332.225112 
L 207.013772 333.149227 
L 211.269865 332.738509 
L 215.525957 331.095638 
L 219.78205 331.198317 
L 224.038143 330.890279 
L 228.294236 329.042048 
L 232.550329 331.095638 
L 236.806422 331.095638 
L 241.062515 331.198317 
L 245.318607 329.144728 
L 249.5747 330.171522 
L 253.830793 329.042048 
L 258.086886 329.658125 
L 262.342979 329.966164 
L 266.599072 332.327791 
L 270.855164 329.452766 
L 275.111257 331.814394 
L 279.36735 328.323292 
L 283.623443 327.707215 
L 287.879536 327.912574 
L 292.135629 328.117933 
L 296.391721 328.528651 
L 300.647814 330.376881 
L 304.903907 327.296497 
L 309.16 330.68492 
L 313.416093 331.198317 
L 317.672186 329.555446 
L 321.928279 329.658125 
L 326.184371 330.787599 
L 330.440464 331.506355 
L 334.696557 332.53315 
L 338.95265 333.867983 
L 343.208743 334.997457 
L 347.464836 334.278701 
L 351.720928 336.229611 
L 355.977021 337.769803 
L 360.233114 337.667123 
L 364.489207 341.876981 
L 368.7453 341.979661 
L 373.001393 343.109135 
L 377.257485 344.649327 
L 381.513578 345.470763 
L 385.769671 343.827891 
L 390.025764 347.524352 
L 394.281857 348.243108 
L 398.53795 348.653826 
L 402.794043 348.653826 
L 407.050135 349.064544 
L 411.306228 349.475262 
L 415.562321 350.502056 
L 419.818414 351.015454 
L 424.074507 350.194018 
L 428.3306 350.707415 
L 432.586692 350.091339 
L 436.842785 351.83689 
L 441.098878 351.73421 
L 445.354971 351.528851 
L 449.611064 352.555646 
L 453.867157 352.247607 
L 458.12325 352.350287 
L 462.379342 352.042248 
L 466.635435 352.247607 
L 470.891528 352.555646 
L 475.147621 352.658325 
L 479.403714 352.761005 
L 483.659807 352.658325 
L 487.915899 352.761005 
L 492.171992 352.658325 
L 496.428085 352.863684 
L 500.684178 352.761005 
L 504.940271 352.658325 
L 509.196364 352.863684 
" style="fill:none;stroke:#e377c2;stroke-linecap:square;stroke-width:1.5;"/>
   </g>
   <g id="line2d_19">
    <path clip-path="url(#p2fcf9a5d0e)" d="M 109.123636 352.966364 
L 113.379729 352.966364 
L 117.635822 352.966364 
L 121.891915 352.863684 
L 126.148008 352.863684 
L 130.404101 352.863684 
L 134.660193 352.452966 
L 138.916286 352.555646 
L 143.172379 351.73421 
L 147.428472 351.83689 
L 151.684565 350.296698 
L 155.940658 349.680621 
L 160.19675 350.604736 
L 164.452843 349.88598 
L 168.708936 348.243108 
L 172.965029 348.756506 
L 177.221122 348.653826 
L 181.477215 347.524352 
L 185.733308 347.421673 
L 189.9894 347.421673 
L 194.245493 344.13593 
L 198.501586 345.573442 
L 202.757679 346.394878 
L 207.013772 345.573442 
L 211.269865 344.649327 
L 215.525957 347.216314 
L 219.78205 345.573442 
L 224.038143 345.676122 
L 228.294236 345.162724 
L 232.550329 346.086839 
L 236.806422 345.470763 
L 241.062515 344.03325 
L 245.318607 345.778801 
L 249.5747 344.443968 
L 253.830793 345.470763 
L 258.086886 344.957365 
L 262.342979 346.086839 
L 266.599072 345.881481 
L 270.855164 344.854686 
L 275.111257 343.519853 
L 279.36735 346.189519 
L 283.623443 346.394878 
L 287.879536 346.497557 
L 292.135629 345.98416 
L 296.391721 345.573442 
L 300.647814 347.318993 
L 304.903907 343.314494 
L 309.16 345.060045 
L 313.416093 345.162724 
L 317.672186 345.162724 
L 321.928279 344.649327 
L 326.184371 345.162724 
L 330.440464 346.292198 
L 334.696557 345.265404 
L 338.95265 346.189519 
L 343.208743 347.113634 
L 347.464836 347.010955 
L 351.720928 347.318993 
L 355.977021 348.859185 
L 360.233114 347.524352 
L 364.489207 349.475262 
L 368.7453 349.577941 
L 373.001393 348.756506 
L 377.257485 350.194018 
L 381.513578 350.194018 
L 385.769671 350.912774 
L 390.025764 350.912774 
L 394.281857 350.912774 
L 398.53795 351.220813 
L 402.794043 351.220813 
L 407.050135 351.631531 
L 411.306228 351.73421 
L 415.562321 351.939569 
L 419.818414 352.042248 
L 424.074507 352.555646 
L 428.3306 352.350287 
L 432.586692 352.555646 
L 436.842785 352.144928 
L 441.098878 352.452966 
L 445.354971 352.555646 
L 449.611064 352.863684 
L 453.867157 352.555646 
L 458.12325 352.761005 
L 462.379342 352.863684 
L 466.635435 352.863684 
L 470.891528 352.966364 
L 475.147621 352.761005 
L 479.403714 352.863684 
L 483.659807 352.761005 
L 487.915899 352.863684 
L 492.171992 352.658325 
L 496.428085 352.966364 
L 500.684178 352.863684 
L 504.940271 352.966364 
L 509.196364 352.966364 
" style="fill:none;stroke:#7f7f7f;stroke-linecap:square;stroke-width:1.5;"/>
   </g>
   <g id="line2d_20">
    <path clip-path="url(#p2fcf9a5d0e)" d="M 109.123636 352.966364 
L 113.379729 352.966364 
L 117.635822 352.452966 
L 121.891915 351.528851 
L 126.148008 349.988659 
L 130.404101 349.88598 
L 134.660193 347.318993 
L 138.916286 345.676122 
L 143.172379 344.13593 
L 147.428472 342.287699 
L 151.684565 341.466264 
L 155.940658 338.180521 
L 160.19675 334.689419 
L 164.452843 334.278701 
L 168.708936 329.350087 
L 172.965029 329.760805 
L 177.221122 327.399177 
L 181.477215 323.497357 
L 185.733308 326.475062 
L 189.9894 322.88128 
L 194.245493 319.698217 
L 198.501586 320.725012 
L 202.757679 316.925871 
L 207.013772 316.823192 
L 211.269865 317.336589 
L 215.525957 312.613334 
L 219.78205 312.921372 
L 224.038143 303.885579 
L 228.294236 313.43477 
L 232.550329 309.327591 
L 236.806422 304.604336 
L 241.062515 307.068643 
L 245.318607 307.479361 
L 249.5747 304.193618 
L 253.830793 307.376681 
L 258.086886 306.144528 
L 262.342979 302.653426 
L 266.599072 302.345387 
L 270.855164 303.269503 
L 275.111257 301.729311 
L 279.36735 301.83199 
L 283.623443 305.73381 
L 287.879536 300.394478 
L 292.135629 302.345387 
L 296.391721 302.140029 
L 300.647814 301.523952 
L 304.903907 298.751606 
L 309.16 303.269503 
L 313.416093 305.015054 
L 317.672186 307.68472 
L 321.928279 308.198117 
L 326.184371 307.479361 
L 330.440464 307.068643 
L 334.696557 309.840988 
L 338.95265 314.358885 
L 343.208743 317.13123 
L 347.464836 314.974962 
L 351.720928 319.903576 
L 355.977021 319.287499 
L 360.233114 324.729511 
L 364.489207 325.242908 
L 368.7453 325.242908 
L 373.001393 329.042048 
L 377.257485 330.274202 
L 381.513578 334.073342 
L 385.769671 333.867983 
L 390.025764 336.33229 
L 394.281857 340.028751 
L 398.53795 343.519853 
L 402.794043 344.443968 
L 407.050135 345.470763 
L 411.306228 345.676122 
L 415.562321 346.292198 
L 419.818414 348.551147 
L 424.074507 346.702916 
L 428.3306 348.448467 
L 432.586692 347.113634 
L 436.842785 349.475262 
L 441.098878 351.220813 
L 445.354971 349.988659 
L 449.611064 351.015454 
L 453.867157 351.118133 
L 458.12325 351.015454 
L 462.379342 352.042248 
L 466.635435 352.247607 
L 470.891528 352.350287 
L 475.147621 352.452966 
L 479.403714 352.247607 
L 483.659807 352.761005 
L 487.915899 352.350287 
L 492.171992 352.144928 
L 496.428085 352.247607 
L 500.684178 352.144928 
L 504.940271 352.863684 
L 509.196364 352.555646 
" style="fill:none;stroke:#bcbd22;stroke-linecap:square;stroke-width:1.5;"/>
   </g>
   <g id="patch_3">
    <path d="M 89.12 365.56 
L 89.12 88.5 
" style="fill:none;stroke:#000000;stroke-linecap:square;stroke-linejoin:miter;stroke-width:0.8;"/>
   </g>
   <g id="patch_4">
    <path d="M 529.2 365.56 
L 529.2 88.5 
" style="fill:none;stroke:#000000;stroke-linecap:square;stroke-linejoin:miter;stroke-width:0.8;"/>
   </g>
   <g id="patch_5">
    <path d="M 89.12 365.56 
L 529.2 365.56 
" style="fill:none;stroke:#000000;stroke-linecap:square;stroke-linejoin:miter;stroke-width:0.8;"/>
   </g>
   <g id="patch_6">
    <path d="M 89.12 88.5 
L 529.2 88.5 
" style="fill:none;stroke:#000000;stroke-linecap:square;stroke-linejoin:miter;stroke-width:0.8;"/>
   </g>
   <g id="legend_1">
    <g id="patch_7">
     <path d="M 99.62 81 
L 518.7 81 
Q 521.7 81 521.7 78 
L 521.7 13.448438 
Q 521.7 10.448438 518.7 10.448438 
L 99.62 10.448438 
Q 96.62 10.448438 96.62 13.448438 
L 96.62 78 
Q 96.62 81 99.62 81 
z
" style="fill:#ffffff;opacity:0.8;stroke:#cccccc;stroke-linejoin:miter;"/>
    </g>
    <g id="line2d_21">
     <path d="M 102.62 22.596094 
L 132.62 22.596094 
" style="fill:none;stroke:#1f77b4;stroke-linecap:square;stroke-width:1.5;"/>
    </g>
    <g id="line2d_22"/>
    <g id="text_14">
     <!-- Stra 1 -->
     <defs>
      <path d="M 53.515625 70.515625 
L 53.515625 60.890625 
Q 47.90625 63.578125 42.921875 64.890625 
Q 37.9375 66.21875 33.296875 66.21875 
Q 25.25 66.21875 20.875 63.09375 
Q 16.5 59.96875 16.5 54.203125 
Q 16.5 49.359375 19.40625 46.890625 
Q 22.3125 44.4375 30.421875 42.921875 
L 36.375 41.703125 
Q 47.40625 39.59375 52.65625 34.296875 
Q 57.90625 29 57.90625 20.125 
Q 57.90625 9.515625 50.796875 4.046875 
Q 43.703125 -1.421875 29.984375 -1.421875 
Q 24.8125 -1.421875 18.96875 -0.25 
Q 13.140625 0.921875 6.890625 3.21875 
L 6.890625 13.375 
Q 12.890625 10.015625 18.65625 8.296875 
Q 24.421875 6.59375 29.984375 6.59375 
Q 38.421875 6.59375 43.015625 9.90625 
Q 47.609375 13.234375 47.609375 19.390625 
Q 47.609375 24.75 44.3125 27.78125 
Q 41.015625 30.8125 33.5 32.328125 
L 27.484375 33.5 
Q 16.453125 35.6875 11.515625 40.375 
Q 6.59375 45.0625 6.59375 53.421875 
Q 6.59375 63.09375 13.40625 68.65625 
Q 20.21875 74.21875 32.171875 74.21875 
Q 37.3125 74.21875 42.625 73.28125 
Q 47.953125 72.359375 53.515625 70.515625 
z
" id="DejaVuSans-83"/>
     </defs>
     <g transform="translate(144.62 27.846094)scale(0.15 -0.15)">
      <use xlink:href="#DejaVuSans-83"/>
      <use x="63.476562" xlink:href="#DejaVuSans-116"/>
      <use x="102.685547" xlink:href="#DejaVuSans-114"/>
      <use x="143.798828" xlink:href="#DejaVuSans-97"/>
      <use x="205.078125" xlink:href="#DejaVuSans-32"/>
      <use x="236.865234" xlink:href="#DejaVuSans-49"/>
     </g>
    </g>
    <g id="line2d_23">
     <path d="M 102.62 44.613281 
L 132.62 44.613281 
" style="fill:none;stroke:#ff7f0e;stroke-linecap:square;stroke-width:1.5;"/>
    </g>
    <g id="line2d_24"/>
    <g id="text_15">
     <!-- Stra 2 -->
     <g transform="translate(144.62 49.863281)scale(0.15 -0.15)">
      <use xlink:href="#DejaVuSans-83"/>
      <use x="63.476562" xlink:href="#DejaVuSans-116"/>
      <use x="102.685547" xlink:href="#DejaVuSans-114"/>
      <use x="143.798828" xlink:href="#DejaVuSans-97"/>
      <use x="205.078125" xlink:href="#DejaVuSans-32"/>
      <use x="236.865234" xlink:href="#DejaVuSans-50"/>
     </g>
    </g>
    <g id="line2d_25">
     <path d="M 102.62 66.630469 
L 132.62 66.630469 
" style="fill:none;stroke:#2ca02c;stroke-linecap:square;stroke-width:1.5;"/>
    </g>
    <g id="line2d_26"/>
    <g id="text_16">
     <!-- Stra 3 -->
     <defs>
      <path d="M 40.578125 39.3125 
Q 47.65625 37.796875 51.625 33 
Q 55.609375 28.21875 55.609375 21.1875 
Q 55.609375 10.40625 48.1875 4.484375 
Q 40.765625 -1.421875 27.09375 -1.421875 
Q 22.515625 -1.421875 17.65625 -0.515625 
Q 12.796875 0.390625 7.625 2.203125 
L 7.625 11.71875 
Q 11.71875 9.328125 16.59375 8.109375 
Q 21.484375 6.890625 26.8125 6.890625 
Q 36.078125 6.890625 40.9375 10.546875 
Q 45.796875 14.203125 45.796875 21.1875 
Q 45.796875 27.640625 41.28125 31.265625 
Q 36.765625 34.90625 28.71875 34.90625 
L 20.21875 34.90625 
L 20.21875 43.015625 
L 29.109375 43.015625 
Q 36.375 43.015625 40.234375 45.921875 
Q 44.09375 48.828125 44.09375 54.296875 
Q 44.09375 59.90625 40.109375 62.90625 
Q 36.140625 65.921875 28.71875 65.921875 
Q 24.65625 65.921875 20.015625 65.03125 
Q 15.375 64.15625 9.8125 62.3125 
L 9.8125 71.09375 
Q 15.4375 72.65625 20.34375 73.4375 
Q 25.25 74.21875 29.59375 74.21875 
Q 40.828125 74.21875 47.359375 69.109375 
Q 53.90625 64.015625 53.90625 55.328125 
Q 53.90625 49.265625 50.4375 45.09375 
Q 46.96875 40.921875 40.578125 39.3125 
z
" id="DejaVuSans-51"/>
     </defs>
     <g transform="translate(144.62 71.880469)scale(0.15 -0.15)">
      <use xlink:href="#DejaVuSans-83"/>
      <use x="63.476562" xlink:href="#DejaVuSans-116"/>
      <use x="102.685547" xlink:href="#DejaVuSans-114"/>
      <use x="143.798828" xlink:href="#DejaVuSans-97"/>
      <use x="205.078125" xlink:href="#DejaVuSans-32"/>
      <use x="236.865234" xlink:href="#DejaVuSans-51"/>
     </g>
    </g>
    <g id="line2d_27">
     <path d="M 211.289115 22.596094 
L 241.289115 22.596094 
" style="fill:none;stroke:#d62728;stroke-linecap:square;stroke-width:1.5;"/>
    </g>
    <g id="line2d_28"/>
    <g id="text_17">
     <!-- Stra 4 -->
     <g transform="translate(253.289115 27.846094)scale(0.15 -0.15)">
      <use xlink:href="#DejaVuSans-83"/>
      <use x="63.476562" xlink:href="#DejaVuSans-116"/>
      <use x="102.685547" xlink:href="#DejaVuSans-114"/>
      <use x="143.798828" xlink:href="#DejaVuSans-97"/>
      <use x="205.078125" xlink:href="#DejaVuSans-32"/>
      <use x="236.865234" xlink:href="#DejaVuSans-52"/>
     </g>
    </g>
    <g id="line2d_29">
     <path d="M 211.289115 44.613281 
L 241.289115 44.613281 
" style="fill:none;stroke:#9467bd;stroke-linecap:square;stroke-width:1.5;"/>
    </g>
    <g id="line2d_30"/>
    <g id="text_18">
     <!-- Stra 5 -->
     <g transform="translate(253.289115 49.863281)scale(0.15 -0.15)">
      <use xlink:href="#DejaVuSans-83"/>
      <use x="63.476562" xlink:href="#DejaVuSans-116"/>
      <use x="102.685547" xlink:href="#DejaVuSans-114"/>
      <use x="143.798828" xlink:href="#DejaVuSans-97"/>
      <use x="205.078125" xlink:href="#DejaVuSans-32"/>
      <use x="236.865234" xlink:href="#DejaVuSans-53"/>
     </g>
    </g>
    <g id="line2d_31">
     <path d="M 319.958229 22.596094 
L 349.958229 22.596094 
" style="fill:none;stroke:#8c564b;stroke-linecap:square;stroke-width:1.5;"/>
    </g>
    <g id="line2d_32"/>
    <g id="text_19">
     <!-- Stra 6 -->
     <g transform="translate(361.958229 27.846094)scale(0.15 -0.15)">
      <use xlink:href="#DejaVuSans-83"/>
      <use x="63.476562" xlink:href="#DejaVuSans-116"/>
      <use x="102.685547" xlink:href="#DejaVuSans-114"/>
      <use x="143.798828" xlink:href="#DejaVuSans-97"/>
      <use x="205.078125" xlink:href="#DejaVuSans-32"/>
      <use x="236.865234" xlink:href="#DejaVuSans-54"/>
     </g>
    </g>
    <g id="line2d_33">
     <path d="M 319.958229 44.613281 
L 349.958229 44.613281 
" style="fill:none;stroke:#e377c2;stroke-linecap:square;stroke-width:1.5;"/>
    </g>
    <g id="line2d_34"/>
    <g id="text_20">
     <!-- Stra 7 -->
     <defs>
      <path d="M 8.203125 72.90625 
L 55.078125 72.90625 
L 55.078125 68.703125 
L 28.609375 0 
L 18.3125 0 
L 43.21875 64.59375 
L 8.203125 64.59375 
z
" id="DejaVuSans-55"/>
     </defs>
     <g transform="translate(361.958229 49.863281)scale(0.15 -0.15)">
      <use xlink:href="#DejaVuSans-83"/>
      <use x="63.476562" xlink:href="#DejaVuSans-116"/>
      <use x="102.685547" xlink:href="#DejaVuSans-114"/>
      <use x="143.798828" xlink:href="#DejaVuSans-97"/>
      <use x="205.078125" xlink:href="#DejaVuSans-32"/>
      <use x="236.865234" xlink:href="#DejaVuSans-55"/>
     </g>
    </g>
    <g id="line2d_35">
     <path d="M 428.627344 22.596094 
L 458.627344 22.596094 
" style="fill:none;stroke:#7f7f7f;stroke-linecap:square;stroke-width:1.5;"/>
    </g>
    <g id="line2d_36"/>
    <g id="text_21">
     <!-- Stra 8 -->
     <g transform="translate(470.627344 27.846094)scale(0.15 -0.15)">
      <use xlink:href="#DejaVuSans-83"/>
      <use x="63.476562" xlink:href="#DejaVuSans-116"/>
      <use x="102.685547" xlink:href="#DejaVuSans-114"/>
      <use x="143.798828" xlink:href="#DejaVuSans-97"/>
      <use x="205.078125" xlink:href="#DejaVuSans-32"/>
      <use x="236.865234" xlink:href="#DejaVuSans-56"/>
     </g>
    </g>
    <g id="line2d_37">
     <path d="M 428.627344 44.613281 
L 458.627344 44.613281 
" style="fill:none;stroke:#bcbd22;stroke-linecap:square;stroke-width:1.5;"/>
    </g>
    <g id="line2d_38"/>
    <g id="text_22">
     <!-- Stra 9 -->
     <defs>
      <path d="M 10.984375 1.515625 
L 10.984375 10.5 
Q 14.703125 8.734375 18.5 7.8125 
Q 22.3125 6.890625 25.984375 6.890625 
Q 35.75 6.890625 40.890625 13.453125 
Q 46.046875 20.015625 46.78125 33.40625 
Q 43.953125 29.203125 39.59375 26.953125 
Q 35.25 24.703125 29.984375 24.703125 
Q 19.046875 24.703125 12.671875 31.3125 
Q 6.296875 37.9375 6.296875 49.421875 
Q 6.296875 60.640625 12.9375 67.421875 
Q 19.578125 74.21875 30.609375 74.21875 
Q 43.265625 74.21875 49.921875 64.515625 
Q 56.59375 54.828125 56.59375 36.375 
Q 56.59375 19.140625 48.40625 8.859375 
Q 40.234375 -1.421875 26.421875 -1.421875 
Q 22.703125 -1.421875 18.890625 -0.6875 
Q 15.09375 0.046875 10.984375 1.515625 
z
M 30.609375 32.421875 
Q 37.25 32.421875 41.125 36.953125 
Q 45.015625 41.5 45.015625 49.421875 
Q 45.015625 57.28125 41.125 61.84375 
Q 37.25 66.40625 30.609375 66.40625 
Q 23.96875 66.40625 20.09375 61.84375 
Q 16.21875 57.28125 16.21875 49.421875 
Q 16.21875 41.5 20.09375 36.953125 
Q 23.96875 32.421875 30.609375 32.421875 
z
" id="DejaVuSans-57"/>
     </defs>
     <g transform="translate(470.627344 49.863281)scale(0.15 -0.15)">
      <use xlink:href="#DejaVuSans-83"/>
      <use x="63.476562" xlink:href="#DejaVuSans-116"/>
      <use x="102.685547" xlink:href="#DejaVuSans-114"/>
      <use x="143.798828" xlink:href="#DejaVuSans-97"/>
      <use x="205.078125" xlink:href="#DejaVuSans-32"/>
      <use x="236.865234" xlink:href="#DejaVuSans-57"/>
     </g>
    </g>
   </g>
  </g>
 </g>
 <defs>
  <clipPath id="p2fcf9a5d0e">
   <rect height="277.06" width="440.08" x="89.12" y="88.5"/>
  </clipPath>
 </defs>
</svg>
