<?xml version="1.0" encoding="utf-8" standalone="no"?>
<!DOCTYPE svg PUBLIC "-//W3C//DTD SVG 1.1//EN"
  "http://www.w3.org/Graphics/SVG/1.1/DTD/svg11.dtd">
<!-- Created with matplotlib (https://matplotlib.org/) -->
<svg height="432pt" version="1.1" viewBox="0 0 540 432" width="540pt" xmlns="http://www.w3.org/2000/svg" xmlns:xlink="http://www.w3.org/1999/xlink">
 <defs>
  <style type="text/css">
*{stroke-linecap:butt;stroke-linejoin:round;}
  </style>
 </defs>
 <g id="figure_1">
  <g id="patch_1">
   <path d="M 0 432 
L 540 432 
L 540 0 
L 0 0 
z
" style="fill:#ffffff;"/>
  </g>
  <g id="axes_1">
   <g id="patch_2">
    <path d="M 70.13 365.56 
L 529.2 365.56 
L 529.2 88.5 
L 70.13 88.5 
z
" style="fill:#ffffff;"/>
   </g>
   <g id="matplotlib.axis_1">
    <g id="xtick_1">
     <g id="line2d_1">
      <defs>
       <path d="M 0 0 
L 0 3.5 
" id="m0b8a56cdcf" style="stroke:#000000;stroke-width:0.8;"/>
      </defs>
      <g>
       <use style="stroke:#000000;stroke-width:0.8;" x="90.996818" xlink:href="#m0b8a56cdcf" y="365.56"/>
      </g>
     </g>
     <g id="text_1">
      <!-- 0 -->
      <defs>
       <path d="M 31.78125 66.40625 
Q 24.171875 66.40625 20.328125 58.90625 
Q 16.5 51.421875 16.5 36.375 
Q 16.5 21.390625 20.328125 13.890625 
Q 24.171875 6.390625 31.78125 6.390625 
Q 39.453125 6.390625 43.28125 13.890625 
Q 47.125 21.390625 47.125 36.375 
Q 47.125 51.421875 43.28125 58.90625 
Q 39.453125 66.40625 31.78125 66.40625 
z
M 31.78125 74.21875 
Q 44.046875 74.21875 50.515625 64.515625 
Q 56.984375 54.828125 56.984375 36.375 
Q 56.984375 17.96875 50.515625 8.265625 
Q 44.046875 -1.421875 31.78125 -1.421875 
Q 19.53125 -1.421875 13.0625 8.265625 
Q 6.59375 17.96875 6.59375 36.375 
Q 6.59375 54.828125 13.0625 64.515625 
Q 19.53125 74.21875 31.78125 74.21875 
z
" id="DejaVuSans-48"/>
      </defs>
      <g transform="translate(84.634318 387.756875)scale(0.2 -0.2)">
       <use xlink:href="#DejaVuSans-48"/>
      </g>
     </g>
    </g>
    <g id="xtick_2">
     <g id="line2d_2">
      <g>
       <use style="stroke:#000000;stroke-width:0.8;" x="179.791789" xlink:href="#m0b8a56cdcf" y="365.56"/>
      </g>
     </g>
     <g id="text_2">
      <!-- 20 -->
      <defs>
       <path d="M 19.1875 8.296875 
L 53.609375 8.296875 
L 53.609375 0 
L 7.328125 0 
L 7.328125 8.296875 
Q 12.9375 14.109375 22.625 23.890625 
Q 32.328125 33.6875 34.8125 36.53125 
Q 39.546875 41.84375 41.421875 45.53125 
Q 43.3125 49.21875 43.3125 52.78125 
Q 43.3125 58.59375 39.234375 62.25 
Q 35.15625 65.921875 28.609375 65.921875 
Q 23.96875 65.921875 18.8125 64.3125 
Q 13.671875 62.703125 7.8125 59.421875 
L 7.8125 69.390625 
Q 13.765625 71.78125 18.9375 73 
Q 24.125 74.21875 28.421875 74.21875 
Q 39.75 74.21875 46.484375 68.546875 
Q 53.21875 62.890625 53.21875 53.421875 
Q 53.21875 48.921875 51.53125 44.890625 
Q 49.859375 40.875 45.40625 35.40625 
Q 44.1875 33.984375 37.640625 27.21875 
Q 31.109375 20.453125 19.1875 8.296875 
z
" id="DejaVuSans-50"/>
      </defs>
      <g transform="translate(167.066789 387.756875)scale(0.2 -0.2)">
       <use xlink:href="#DejaVuSans-50"/>
       <use x="63.623047" xlink:href="#DejaVuSans-48"/>
      </g>
     </g>
    </g>
    <g id="xtick_3">
     <g id="line2d_3">
      <g>
       <use style="stroke:#000000;stroke-width:0.8;" x="268.58676" xlink:href="#m0b8a56cdcf" y="365.56"/>
      </g>
     </g>
     <g id="text_3">
      <!-- 40 -->
      <defs>
       <path d="M 37.796875 64.3125 
L 12.890625 25.390625 
L 37.796875 25.390625 
z
M 35.203125 72.90625 
L 47.609375 72.90625 
L 47.609375 25.390625 
L 58.015625 25.390625 
L 58.015625 17.1875 
L 47.609375 17.1875 
L 47.609375 0 
L 37.796875 0 
L 37.796875 17.1875 
L 4.890625 17.1875 
L 4.890625 26.703125 
z
" id="DejaVuSans-52"/>
      </defs>
      <g transform="translate(255.86176 387.756875)scale(0.2 -0.2)">
       <use xlink:href="#DejaVuSans-52"/>
       <use x="63.623047" xlink:href="#DejaVuSans-48"/>
      </g>
     </g>
    </g>
    <g id="xtick_4">
     <g id="line2d_4">
      <g>
       <use style="stroke:#000000;stroke-width:0.8;" x="357.381731" xlink:href="#m0b8a56cdcf" y="365.56"/>
      </g>
     </g>
     <g id="text_4">
      <!-- 60 -->
      <defs>
       <path d="M 33.015625 40.375 
Q 26.375 40.375 22.484375 35.828125 
Q 18.609375 31.296875 18.609375 23.390625 
Q 18.609375 15.53125 22.484375 10.953125 
Q 26.375 6.390625 33.015625 6.390625 
Q 39.65625 6.390625 43.53125 10.953125 
Q 47.40625 15.53125 47.40625 23.390625 
Q 47.40625 31.296875 43.53125 35.828125 
Q 39.65625 40.375 33.015625 40.375 
z
M 52.59375 71.296875 
L 52.59375 62.3125 
Q 48.875 64.0625 45.09375 64.984375 
Q 41.3125 65.921875 37.59375 65.921875 
Q 27.828125 65.921875 22.671875 59.328125 
Q 17.53125 52.734375 16.796875 39.40625 
Q 19.671875 43.65625 24.015625 45.921875 
Q 28.375 48.1875 33.59375 48.1875 
Q 44.578125 48.1875 50.953125 41.515625 
Q 57.328125 34.859375 57.328125 23.390625 
Q 57.328125 12.15625 50.6875 5.359375 
Q 44.046875 -1.421875 33.015625 -1.421875 
Q 20.359375 -1.421875 13.671875 8.265625 
Q 6.984375 17.96875 6.984375 36.375 
Q 6.984375 53.65625 15.1875 63.9375 
Q 23.390625 74.21875 37.203125 74.21875 
Q 40.921875 74.21875 44.703125 73.484375 
Q 48.484375 72.75 52.59375 71.296875 
z
" id="DejaVuSans-54"/>
      </defs>
      <g transform="translate(344.656731 387.756875)scale(0.2 -0.2)">
       <use xlink:href="#DejaVuSans-54"/>
       <use x="63.623047" xlink:href="#DejaVuSans-48"/>
      </g>
     </g>
    </g>
    <g id="xtick_5">
     <g id="line2d_5">
      <g>
       <use style="stroke:#000000;stroke-width:0.8;" x="446.176702" xlink:href="#m0b8a56cdcf" y="365.56"/>
      </g>
     </g>
     <g id="text_5">
      <!-- 80 -->
      <defs>
       <path d="M 31.78125 34.625 
Q 24.75 34.625 20.71875 30.859375 
Q 16.703125 27.09375 16.703125 20.515625 
Q 16.703125 13.921875 20.71875 10.15625 
Q 24.75 6.390625 31.78125 6.390625 
Q 38.8125 6.390625 42.859375 10.171875 
Q 46.921875 13.96875 46.921875 20.515625 
Q 46.921875 27.09375 42.890625 30.859375 
Q 38.875 34.625 31.78125 34.625 
z
M 21.921875 38.8125 
Q 15.578125 40.375 12.03125 44.71875 
Q 8.5 49.078125 8.5 55.328125 
Q 8.5 64.0625 14.71875 69.140625 
Q 20.953125 74.21875 31.78125 74.21875 
Q 42.671875 74.21875 48.875 69.140625 
Q 55.078125 64.0625 55.078125 55.328125 
Q 55.078125 49.078125 51.53125 44.71875 
Q 48 40.375 41.703125 38.8125 
Q 48.828125 37.15625 52.796875 32.3125 
Q 56.78125 27.484375 56.78125 20.515625 
Q 56.78125 9.90625 50.3125 4.234375 
Q 43.84375 -1.421875 31.78125 -1.421875 
Q 19.734375 -1.421875 13.25 4.234375 
Q 6.78125 9.90625 6.78125 20.515625 
Q 6.78125 27.484375 10.78125 32.3125 
Q 14.796875 37.15625 21.921875 38.8125 
z
M 18.3125 54.390625 
Q 18.3125 48.734375 21.84375 45.5625 
Q 25.390625 42.390625 31.78125 42.390625 
Q 38.140625 42.390625 41.71875 45.5625 
Q 45.3125 48.734375 45.3125 54.390625 
Q 45.3125 60.0625 41.71875 63.234375 
Q 38.140625 66.40625 31.78125 66.40625 
Q 25.390625 66.40625 21.84375 63.234375 
Q 18.3125 60.0625 18.3125 54.390625 
z
" id="DejaVuSans-56"/>
      </defs>
      <g transform="translate(433.451702 387.756875)scale(0.2 -0.2)">
       <use xlink:href="#DejaVuSans-56"/>
       <use x="63.623047" xlink:href="#DejaVuSans-48"/>
      </g>
     </g>
    </g>
    <g id="text_6">
     <!-- # of games -->
     <defs>
      <path d="M 51.125 44 
L 36.921875 44 
L 32.8125 27.6875 
L 47.125 27.6875 
z
M 43.796875 71.78125 
L 38.71875 51.515625 
L 52.984375 51.515625 
L 58.109375 71.78125 
L 65.921875 71.78125 
L 60.890625 51.515625 
L 76.125 51.515625 
L 76.125 44 
L 58.984375 44 
L 54.984375 27.6875 
L 70.515625 27.6875 
L 70.515625 20.21875 
L 53.078125 20.21875 
L 48 0 
L 40.1875 0 
L 45.21875 20.21875 
L 30.90625 20.21875 
L 25.875 0 
L 18.015625 0 
L 23.09375 20.21875 
L 7.71875 20.21875 
L 7.71875 27.6875 
L 24.90625 27.6875 
L 29 44 
L 13.28125 44 
L 13.28125 51.515625 
L 30.90625 51.515625 
L 35.890625 71.78125 
z
" id="DejaVuSans-35"/>
      <path id="DejaVuSans-32"/>
      <path d="M 30.609375 48.390625 
Q 23.390625 48.390625 19.1875 42.75 
Q 14.984375 37.109375 14.984375 27.296875 
Q 14.984375 17.484375 19.15625 11.84375 
Q 23.34375 6.203125 30.609375 6.203125 
Q 37.796875 6.203125 41.984375 11.859375 
Q 46.1875 17.53125 46.1875 27.296875 
Q 46.1875 37.015625 41.984375 42.703125 
Q 37.796875 48.390625 30.609375 48.390625 
z
M 30.609375 56 
Q 42.328125 56 49.015625 48.375 
Q 55.71875 40.765625 55.71875 27.296875 
Q 55.71875 13.875 49.015625 6.21875 
Q 42.328125 -1.421875 30.609375 -1.421875 
Q 18.84375 -1.421875 12.171875 6.21875 
Q 5.515625 13.875 5.515625 27.296875 
Q 5.515625 40.765625 12.171875 48.375 
Q 18.84375 56 30.609375 56 
z
" id="DejaVuSans-111"/>
      <path d="M 37.109375 75.984375 
L 37.109375 68.5 
L 28.515625 68.5 
Q 23.6875 68.5 21.796875 66.546875 
Q 19.921875 64.59375 19.921875 59.515625 
L 19.921875 54.6875 
L 34.71875 54.6875 
L 34.71875 47.703125 
L 19.921875 47.703125 
L 19.921875 0 
L 10.890625 0 
L 10.890625 47.703125 
L 2.296875 47.703125 
L 2.296875 54.6875 
L 10.890625 54.6875 
L 10.890625 58.5 
Q 10.890625 67.625 15.140625 71.796875 
Q 19.390625 75.984375 28.609375 75.984375 
z
" id="DejaVuSans-102"/>
      <path d="M 45.40625 27.984375 
Q 45.40625 37.75 41.375 43.109375 
Q 37.359375 48.484375 30.078125 48.484375 
Q 22.859375 48.484375 18.828125 43.109375 
Q 14.796875 37.75 14.796875 27.984375 
Q 14.796875 18.265625 18.828125 12.890625 
Q 22.859375 7.515625 30.078125 7.515625 
Q 37.359375 7.515625 41.375 12.890625 
Q 45.40625 18.265625 45.40625 27.984375 
z
M 54.390625 6.78125 
Q 54.390625 -7.171875 48.1875 -13.984375 
Q 42 -20.796875 29.203125 -20.796875 
Q 24.46875 -20.796875 20.265625 -20.09375 
Q 16.0625 -19.390625 12.109375 -17.921875 
L 12.109375 -9.1875 
Q 16.0625 -11.328125 19.921875 -12.34375 
Q 23.78125 -13.375 27.78125 -13.375 
Q 36.625 -13.375 41.015625 -8.765625 
Q 45.40625 -4.15625 45.40625 5.171875 
L 45.40625 9.625 
Q 42.625 4.78125 38.28125 2.390625 
Q 33.9375 0 27.875 0 
Q 17.828125 0 11.671875 7.65625 
Q 5.515625 15.328125 5.515625 27.984375 
Q 5.515625 40.671875 11.671875 48.328125 
Q 17.828125 56 27.875 56 
Q 33.9375 56 38.28125 53.609375 
Q 42.625 51.21875 45.40625 46.390625 
L 45.40625 54.6875 
L 54.390625 54.6875 
z
" id="DejaVuSans-103"/>
      <path d="M 34.28125 27.484375 
Q 23.390625 27.484375 19.1875 25 
Q 14.984375 22.515625 14.984375 16.5 
Q 14.984375 11.71875 18.140625 8.90625 
Q 21.296875 6.109375 26.703125 6.109375 
Q 34.1875 6.109375 38.703125 11.40625 
Q 43.21875 16.703125 43.21875 25.484375 
L 43.21875 27.484375 
z
M 52.203125 31.203125 
L 52.203125 0 
L 43.21875 0 
L 43.21875 8.296875 
Q 40.140625 3.328125 35.546875 0.953125 
Q 30.953125 -1.421875 24.3125 -1.421875 
Q 15.921875 -1.421875 10.953125 3.296875 
Q 6 8.015625 6 15.921875 
Q 6 25.140625 12.171875 29.828125 
Q 18.359375 34.515625 30.609375 34.515625 
L 43.21875 34.515625 
L 43.21875 35.40625 
Q 43.21875 41.609375 39.140625 45 
Q 35.0625 48.390625 27.6875 48.390625 
Q 23 48.390625 18.546875 47.265625 
Q 14.109375 46.140625 10.015625 43.890625 
L 10.015625 52.203125 
Q 14.9375 54.109375 19.578125 55.046875 
Q 24.21875 56 28.609375 56 
Q 40.484375 56 46.34375 49.84375 
Q 52.203125 43.703125 52.203125 31.203125 
z
" id="DejaVuSans-97"/>
      <path d="M 52 44.1875 
Q 55.375 50.25 60.0625 53.125 
Q 64.75 56 71.09375 56 
Q 79.640625 56 84.28125 50.015625 
Q 88.921875 44.046875 88.921875 33.015625 
L 88.921875 0 
L 79.890625 0 
L 79.890625 32.71875 
Q 79.890625 40.578125 77.09375 44.375 
Q 74.3125 48.1875 68.609375 48.1875 
Q 61.625 48.1875 57.5625 43.546875 
Q 53.515625 38.921875 53.515625 30.90625 
L 53.515625 0 
L 44.484375 0 
L 44.484375 32.71875 
Q 44.484375 40.625 41.703125 44.40625 
Q 38.921875 48.1875 33.109375 48.1875 
Q 26.21875 48.1875 22.15625 43.53125 
Q 18.109375 38.875 18.109375 30.90625 
L 18.109375 0 
L 9.078125 0 
L 9.078125 54.6875 
L 18.109375 54.6875 
L 18.109375 46.1875 
Q 21.1875 51.21875 25.484375 53.609375 
Q 29.78125 56 35.6875 56 
Q 41.65625 56 45.828125 52.96875 
Q 50 49.953125 52 44.1875 
z
" id="DejaVuSans-109"/>
      <path d="M 56.203125 29.59375 
L 56.203125 25.203125 
L 14.890625 25.203125 
Q 15.484375 15.921875 20.484375 11.0625 
Q 25.484375 6.203125 34.421875 6.203125 
Q 39.59375 6.203125 44.453125 7.46875 
Q 49.3125 8.734375 54.109375 11.28125 
L 54.109375 2.78125 
Q 49.265625 0.734375 44.1875 -0.34375 
Q 39.109375 -1.421875 33.890625 -1.421875 
Q 20.796875 -1.421875 13.15625 6.1875 
Q 5.515625 13.8125 5.515625 26.8125 
Q 5.515625 40.234375 12.765625 48.109375 
Q 20.015625 56 32.328125 56 
Q 43.359375 56 49.78125 48.890625 
Q 56.203125 41.796875 56.203125 29.59375 
z
M 47.21875 32.234375 
Q 47.125 39.59375 43.09375 43.984375 
Q 39.0625 48.390625 32.421875 48.390625 
Q 24.90625 48.390625 20.390625 44.140625 
Q 15.875 39.890625 15.1875 32.171875 
z
" id="DejaVuSans-101"/>
      <path d="M 44.28125 53.078125 
L 44.28125 44.578125 
Q 40.484375 46.53125 36.375 47.5 
Q 32.28125 48.484375 27.875 48.484375 
Q 21.1875 48.484375 17.84375 46.4375 
Q 14.5 44.390625 14.5 40.28125 
Q 14.5 37.15625 16.890625 35.375 
Q 19.28125 33.59375 26.515625 31.984375 
L 29.59375 31.296875 
Q 39.15625 29.25 43.1875 25.515625 
Q 47.21875 21.78125 47.21875 15.09375 
Q 47.21875 7.46875 41.1875 3.015625 
Q 35.15625 -1.421875 24.609375 -1.421875 
Q 20.21875 -1.421875 15.453125 -0.5625 
Q 10.6875 0.296875 5.421875 2 
L 5.421875 11.28125 
Q 10.40625 8.6875 15.234375 7.390625 
Q 20.0625 6.109375 24.8125 6.109375 
Q 31.15625 6.109375 34.5625 8.28125 
Q 37.984375 10.453125 37.984375 14.40625 
Q 37.984375 18.0625 35.515625 20.015625 
Q 33.0625 21.96875 24.703125 23.78125 
L 21.578125 24.515625 
Q 13.234375 26.265625 9.515625 29.90625 
Q 5.8125 33.546875 5.8125 39.890625 
Q 5.8125 47.609375 11.28125 51.796875 
Q 16.75 56 26.8125 56 
Q 31.78125 56 36.171875 55.265625 
Q 40.578125 54.546875 44.28125 53.078125 
z
" id="DejaVuSans-115"/>
     </defs>
     <g transform="translate(227.221641 414.912344)scale(0.25 -0.25)">
      <use xlink:href="#DejaVuSans-35"/>
      <use x="83.789062" xlink:href="#DejaVuSans-32"/>
      <use x="115.576172" xlink:href="#DejaVuSans-111"/>
      <use x="176.757812" xlink:href="#DejaVuSans-102"/>
      <use x="211.962891" xlink:href="#DejaVuSans-32"/>
      <use x="243.75" xlink:href="#DejaVuSans-103"/>
      <use x="307.226562" xlink:href="#DejaVuSans-97"/>
      <use x="368.505859" xlink:href="#DejaVuSans-109"/>
      <use x="465.917969" xlink:href="#DejaVuSans-101"/>
      <use x="527.441406" xlink:href="#DejaVuSans-115"/>
     </g>
    </g>
   </g>
   <g id="matplotlib.axis_2">
    <g id="ytick_1">
     <g id="line2d_6">
      <defs>
       <path d="M 0 0 
L -3.5 0 
" id="mb29984269a" style="stroke:#000000;stroke-width:0.8;"/>
      </defs>
      <g>
       <use style="stroke:#000000;stroke-width:0.8;" x="70.13" xlink:href="#mb29984269a" y="352.966364"/>
      </g>
     </g>
     <g id="text_7">
      <!-- 0.0 -->
      <defs>
       <path d="M 10.6875 12.40625 
L 21 12.40625 
L 21 0 
L 10.6875 0 
z
" id="DejaVuSans-46"/>
      </defs>
      <g transform="translate(31.32375 360.564801)scale(0.2 -0.2)">
       <use xlink:href="#DejaVuSans-48"/>
       <use x="63.623047" xlink:href="#DejaVuSans-46"/>
       <use x="95.410156" xlink:href="#DejaVuSans-48"/>
      </g>
     </g>
    </g>
    <g id="ytick_2">
     <g id="line2d_7">
      <g>
       <use style="stroke:#000000;stroke-width:0.8;" x="70.13" xlink:href="#mb29984269a" y="302.591818"/>
      </g>
     </g>
     <g id="text_8">
      <!-- 0.2 -->
      <g transform="translate(31.32375 310.190256)scale(0.2 -0.2)">
       <use xlink:href="#DejaVuSans-48"/>
       <use x="63.623047" xlink:href="#DejaVuSans-46"/>
       <use x="95.410156" xlink:href="#DejaVuSans-50"/>
      </g>
     </g>
    </g>
    <g id="ytick_3">
     <g id="line2d_8">
      <g>
       <use style="stroke:#000000;stroke-width:0.8;" x="70.13" xlink:href="#mb29984269a" y="252.217273"/>
      </g>
     </g>
     <g id="text_9">
      <!-- 0.4 -->
      <g transform="translate(31.32375 259.81571)scale(0.2 -0.2)">
       <use xlink:href="#DejaVuSans-48"/>
       <use x="63.623047" xlink:href="#DejaVuSans-46"/>
       <use x="95.410156" xlink:href="#DejaVuSans-52"/>
      </g>
     </g>
    </g>
    <g id="ytick_4">
     <g id="line2d_9">
      <g>
       <use style="stroke:#000000;stroke-width:0.8;" x="70.13" xlink:href="#mb29984269a" y="201.842727"/>
      </g>
     </g>
     <g id="text_10">
      <!-- 0.6 -->
      <g transform="translate(31.32375 209.441165)scale(0.2 -0.2)">
       <use xlink:href="#DejaVuSans-48"/>
       <use x="63.623047" xlink:href="#DejaVuSans-46"/>
       <use x="95.410156" xlink:href="#DejaVuSans-54"/>
      </g>
     </g>
    </g>
    <g id="ytick_5">
     <g id="line2d_10">
      <g>
       <use style="stroke:#000000;stroke-width:0.8;" x="70.13" xlink:href="#mb29984269a" y="151.468182"/>
      </g>
     </g>
     <g id="text_11">
      <!-- 0.8 -->
      <g transform="translate(31.32375 159.066619)scale(0.2 -0.2)">
       <use xlink:href="#DejaVuSans-48"/>
       <use x="63.623047" xlink:href="#DejaVuSans-46"/>
       <use x="95.410156" xlink:href="#DejaVuSans-56"/>
      </g>
     </g>
    </g>
    <g id="ytick_6">
     <g id="line2d_11">
      <g>
       <use style="stroke:#000000;stroke-width:0.8;" x="70.13" xlink:href="#mb29984269a" y="101.093636"/>
      </g>
     </g>
     <g id="text_12">
      <!-- 1.0 -->
      <defs>
       <path d="M 12.40625 8.296875 
L 28.515625 8.296875 
L 28.515625 63.921875 
L 10.984375 60.40625 
L 10.984375 69.390625 
L 28.421875 72.90625 
L 38.28125 72.90625 
L 38.28125 8.296875 
L 54.390625 8.296875 
L 54.390625 0 
L 12.40625 0 
z
" id="DejaVuSans-49"/>
      </defs>
      <g transform="translate(31.32375 108.692074)scale(0.2 -0.2)">
       <use xlink:href="#DejaVuSans-49"/>
       <use x="63.623047" xlink:href="#DejaVuSans-46"/>
       <use x="95.410156" xlink:href="#DejaVuSans-48"/>
      </g>
     </g>
    </g>
    <g id="text_13">
     <!-- Percentage of Def strategy used -->
     <defs>
      <path d="M 19.671875 64.796875 
L 19.671875 37.40625 
L 32.078125 37.40625 
Q 38.96875 37.40625 42.71875 40.96875 
Q 46.484375 44.53125 46.484375 51.125 
Q 46.484375 57.671875 42.71875 61.234375 
Q 38.96875 64.796875 32.078125 64.796875 
z
M 9.8125 72.90625 
L 32.078125 72.90625 
Q 44.34375 72.90625 50.609375 67.359375 
Q 56.890625 61.8125 56.890625 51.125 
Q 56.890625 40.328125 50.609375 34.8125 
Q 44.34375 29.296875 32.078125 29.296875 
L 19.671875 29.296875 
L 19.671875 0 
L 9.8125 0 
z
" id="DejaVuSans-80"/>
      <path d="M 41.109375 46.296875 
Q 39.59375 47.171875 37.8125 47.578125 
Q 36.03125 48 33.890625 48 
Q 26.265625 48 22.1875 43.046875 
Q 18.109375 38.09375 18.109375 28.8125 
L 18.109375 0 
L 9.078125 0 
L 9.078125 54.6875 
L 18.109375 54.6875 
L 18.109375 46.1875 
Q 20.953125 51.171875 25.484375 53.578125 
Q 30.03125 56 36.53125 56 
Q 37.453125 56 38.578125 55.875 
Q 39.703125 55.765625 41.0625 55.515625 
z
" id="DejaVuSans-114"/>
      <path d="M 48.78125 52.59375 
L 48.78125 44.1875 
Q 44.96875 46.296875 41.140625 47.34375 
Q 37.3125 48.390625 33.40625 48.390625 
Q 24.65625 48.390625 19.8125 42.84375 
Q 14.984375 37.3125 14.984375 27.296875 
Q 14.984375 17.28125 19.8125 11.734375 
Q 24.65625 6.203125 33.40625 6.203125 
Q 37.3125 6.203125 41.140625 7.25 
Q 44.96875 8.296875 48.78125 10.40625 
L 48.78125 2.09375 
Q 45.015625 0.34375 40.984375 -0.53125 
Q 36.96875 -1.421875 32.421875 -1.421875 
Q 20.0625 -1.421875 12.78125 6.34375 
Q 5.515625 14.109375 5.515625 27.296875 
Q 5.515625 40.671875 12.859375 48.328125 
Q 20.21875 56 33.015625 56 
Q 37.15625 56 41.109375 55.140625 
Q 45.0625 54.296875 48.78125 52.59375 
z
" id="DejaVuSans-99"/>
      <path d="M 54.890625 33.015625 
L 54.890625 0 
L 45.90625 0 
L 45.90625 32.71875 
Q 45.90625 40.484375 42.875 44.328125 
Q 39.84375 48.1875 33.796875 48.1875 
Q 26.515625 48.1875 22.3125 43.546875 
Q 18.109375 38.921875 18.109375 30.90625 
L 18.109375 0 
L 9.078125 0 
L 9.078125 54.6875 
L 18.109375 54.6875 
L 18.109375 46.1875 
Q 21.34375 51.125 25.703125 53.5625 
Q 30.078125 56 35.796875 56 
Q 45.21875 56 50.046875 50.171875 
Q 54.890625 44.34375 54.890625 33.015625 
z
" id="DejaVuSans-110"/>
      <path d="M 18.3125 70.21875 
L 18.3125 54.6875 
L 36.8125 54.6875 
L 36.8125 47.703125 
L 18.3125 47.703125 
L 18.3125 18.015625 
Q 18.3125 11.328125 20.140625 9.421875 
Q 21.96875 7.515625 27.59375 7.515625 
L 36.8125 7.515625 
L 36.8125 0 
L 27.59375 0 
Q 17.1875 0 13.234375 3.875 
Q 9.28125 7.765625 9.28125 18.015625 
L 9.28125 47.703125 
L 2.6875 47.703125 
L 2.6875 54.6875 
L 9.28125 54.6875 
L 9.28125 70.21875 
z
" id="DejaVuSans-116"/>
      <path d="M 19.671875 64.796875 
L 19.671875 8.109375 
L 31.59375 8.109375 
Q 46.6875 8.109375 53.6875 14.9375 
Q 60.6875 21.78125 60.6875 36.53125 
Q 60.6875 51.171875 53.6875 57.984375 
Q 46.6875 64.796875 31.59375 64.796875 
z
M 9.8125 72.90625 
L 30.078125 72.90625 
Q 51.265625 72.90625 61.171875 64.09375 
Q 71.09375 55.28125 71.09375 36.53125 
Q 71.09375 17.671875 61.125 8.828125 
Q 51.171875 0 30.078125 0 
L 9.8125 0 
z
" id="DejaVuSans-68"/>
      <path d="M 32.171875 -5.078125 
Q 28.375 -14.84375 24.75 -17.8125 
Q 21.140625 -20.796875 15.09375 -20.796875 
L 7.90625 -20.796875 
L 7.90625 -13.28125 
L 13.1875 -13.28125 
Q 16.890625 -13.28125 18.9375 -11.515625 
Q 21 -9.765625 23.484375 -3.21875 
L 25.09375 0.875 
L 2.984375 54.6875 
L 12.5 54.6875 
L 29.59375 11.921875 
L 46.6875 54.6875 
L 56.203125 54.6875 
z
" id="DejaVuSans-121"/>
      <path d="M 8.5 21.578125 
L 8.5 54.6875 
L 17.484375 54.6875 
L 17.484375 21.921875 
Q 17.484375 14.15625 20.5 10.265625 
Q 23.53125 6.390625 29.59375 6.390625 
Q 36.859375 6.390625 41.078125 11.03125 
Q 45.3125 15.671875 45.3125 23.6875 
L 45.3125 54.6875 
L 54.296875 54.6875 
L 54.296875 0 
L 45.3125 0 
L 45.3125 8.40625 
Q 42.046875 3.421875 37.71875 1 
Q 33.40625 -1.421875 27.6875 -1.421875 
Q 18.265625 -1.421875 13.375 4.4375 
Q 8.5 10.296875 8.5 21.578125 
z
M 31.109375 56 
z
" id="DejaVuSans-117"/>
      <path d="M 45.40625 46.390625 
L 45.40625 75.984375 
L 54.390625 75.984375 
L 54.390625 0 
L 45.40625 0 
L 45.40625 8.203125 
Q 42.578125 3.328125 38.25 0.953125 
Q 33.9375 -1.421875 27.875 -1.421875 
Q 17.96875 -1.421875 11.734375 6.484375 
Q 5.515625 14.40625 5.515625 27.296875 
Q 5.515625 40.1875 11.734375 48.09375 
Q 17.96875 56 27.875 56 
Q 33.9375 56 38.25 53.625 
Q 42.578125 51.265625 45.40625 46.390625 
z
M 14.796875 27.296875 
Q 14.796875 17.390625 18.875 11.75 
Q 22.953125 6.109375 30.078125 6.109375 
Q 37.203125 6.109375 41.296875 11.75 
Q 45.40625 17.390625 45.40625 27.296875 
Q 45.40625 37.203125 41.296875 42.84375 
Q 37.203125 48.484375 30.078125 48.484375 
Q 22.953125 48.484375 18.875 42.84375 
Q 14.796875 37.203125 14.796875 27.296875 
z
" id="DejaVuSans-100"/>
     </defs>
     <g transform="translate(23.857604 362.28651)rotate(-90)scale(0.166667 -0.166667)">
      <use xlink:href="#DejaVuSans-80"/>
      <use x="60.255859" xlink:href="#DejaVuSans-101"/>
      <use x="121.779297" xlink:href="#DejaVuSans-114"/>
      <use x="162.861328" xlink:href="#DejaVuSans-99"/>
      <use x="217.841797" xlink:href="#DejaVuSans-101"/>
      <use x="279.365234" xlink:href="#DejaVuSans-110"/>
      <use x="342.744141" xlink:href="#DejaVuSans-116"/>
      <use x="381.953125" xlink:href="#DejaVuSans-97"/>
      <use x="443.232422" xlink:href="#DejaVuSans-103"/>
      <use x="506.708984" xlink:href="#DejaVuSans-101"/>
      <use x="568.232422" xlink:href="#DejaVuSans-32"/>
      <use x="600.019531" xlink:href="#DejaVuSans-111"/>
      <use x="661.201172" xlink:href="#DejaVuSans-102"/>
      <use x="696.40625" xlink:href="#DejaVuSans-32"/>
      <use x="728.193359" xlink:href="#DejaVuSans-68"/>
      <use x="805.195312" xlink:href="#DejaVuSans-101"/>
      <use x="866.71875" xlink:href="#DejaVuSans-102"/>
      <use x="901.923828" xlink:href="#DejaVuSans-32"/>
      <use x="933.710938" xlink:href="#DejaVuSans-115"/>
      <use x="985.810547" xlink:href="#DejaVuSans-116"/>
      <use x="1025.019531" xlink:href="#DejaVuSans-114"/>
      <use x="1066.132812" xlink:href="#DejaVuSans-97"/>
      <use x="1127.412109" xlink:href="#DejaVuSans-116"/>
      <use x="1166.621094" xlink:href="#DejaVuSans-101"/>
      <use x="1228.144531" xlink:href="#DejaVuSans-103"/>
      <use x="1291.621094" xlink:href="#DejaVuSans-121"/>
      <use x="1350.800781" xlink:href="#DejaVuSans-32"/>
      <use x="1382.587891" xlink:href="#DejaVuSans-117"/>
      <use x="1445.966797" xlink:href="#DejaVuSans-115"/>
      <use x="1498.066406" xlink:href="#DejaVuSans-101"/>
      <use x="1559.589844" xlink:href="#DejaVuSans-100"/>
     </g>
    </g>
   </g>
   <g id="line2d_12">
    <path clip-path="url(#p33bb846345)" d="M 90.996818 321.913562 
L 95.436567 288.971527 
L 99.876315 285.266469 
L 104.316064 286.370768 
L 108.755812 288.199091 
L 113.195561 284.205856 
L 117.635309 286.60896 
L 122.075058 295.945177 
L 126.514807 299.659966 
L 130.954555 302.918926 
L 135.394304 300.295927 
L 139.834052 302.656734 
L 144.273801 310.033512 
L 148.713549 306.774091 
L 153.153298 307.9009 
L 157.593046 311.143631 
L 162.032795 308.499944 
L 166.472544 311.838159 
L 170.912292 312.088143 
L 175.352041 313.132477 
L 179.791789 315.349008 
L 184.231538 312.510122 
L 188.671286 307.113427 
L 193.111035 314.567162 
L 197.550783 315.169163 
L 201.990532 316.221006 
L 206.43028 310.932845 
L 210.870029 310.538605 
L 215.309778 317.585076 
L 219.749526 315.720177 
L 224.189275 321.818744 
L 228.629023 313.770031 
L 233.068772 314.926934 
L 237.50852 313.623304 
L 241.948269 317.762854 
L 246.388017 313.069724 
L 250.827766 318.486291 
L 255.267515 321.198632 
L 259.707263 310.687727 
L 264.147012 319.559161 
L 268.58676 320.316195 
L 273.026509 315.600629 
L 277.466257 311.070702 
L 281.906006 314.758126 
L 286.345754 313.251992 
L 290.785503 327.297805 
L 295.225251 312.820711 
L 299.665 322.076312 
L 304.104749 308.687368 
L 308.544497 314.913649 
L 312.984246 315.029978 
L 317.423994 314.623534 
L 321.863743 316.984545 
L 326.303491 318.692543 
L 330.74324 315.711877 
L 335.182988 316.630626 
L 339.622737 326.013194 
L 344.062485 313.035322 
L 348.502234 325.099594 
L 352.941983 315.651886 
L 357.381731 324.001 
L 361.82148 319.383333 
L 366.261228 319.285708 
L 370.700977 325.518695 
L 375.140725 324.980505 
L 379.580474 312.063955 
L 384.020222 323.040891 
L 388.459971 308.18899 
L 392.89972 320.113399 
L 397.339468 311.614125 
L 401.779217 308.518235 
L 406.218965 320.113399 
L 410.658714 328.393415 
L 415.098462 326.910564 
L 419.538211 300.854765 
L 423.977959 307.171322 
L 428.417708 328.591584 
L 432.857456 318.620083 
L 437.297205 313.196986 
L 441.736954 324.980505 
L 446.176702 314.216713 
L 450.616451 333.591538 
L 455.056199 352.966364 
L 459.495948 289.998182 
L 463.935696 352.966364 
L 468.375445 269.008788 
L 472.815193 352.966364 
L 477.254942 352.966364 
L 481.694691 352.966364 
L 486.134439 352.966364 
L 490.574188 269.008788 
L 495.013936 310.987576 
L 499.453685 289.998182 
L 503.893433 352.966364 
L 508.333182 352.966364 
" style="fill:none;stroke:#1f77b4;stroke-linecap:square;stroke-width:1.5;"/>
   </g>
   <g id="line2d_13">
    <path clip-path="url(#p33bb846345)" d="M 90.996818 327.376555 
L 95.436567 335.855445 
L 99.876315 339.135202 
L 104.316064 331.01586 
L 108.755812 319.503273 
L 113.195561 326.807475 
L 117.635309 323.355264 
L 122.075058 319.733157 
L 126.514807 318.65037 
L 130.954555 322.872479 
L 135.394304 319.540894 
L 139.834052 320.18396 
L 144.273801 324.662484 
L 148.713549 323.940139 
L 153.153298 322.716943 
L 157.593046 323.628029 
L 162.032795 326.224321 
L 166.472544 325.047217 
L 170.912292 323.722714 
L 175.352041 325.389058 
L 179.791789 323.853802 
L 184.231538 327.191823 
L 188.671286 326.855664 
L 193.111035 326.282173 
L 197.550783 323.966787 
L 201.990532 327.244613 
L 206.43028 322.426385 
L 210.870029 327.711745 
L 215.309778 325.291892 
L 219.749526 327.889723 
L 224.189275 324.510514 
L 228.629023 325.02083 
L 233.068772 324.898435 
L 237.50852 330.59482 
L 241.948269 330.754626 
L 246.388017 332.010553 
L 250.827766 323.952644 
L 255.267515 330.275127 
L 259.707263 321.932045 
L 264.147012 322.63614 
L 268.58676 322.181919 
L 273.026509 329.43979 
L 277.466257 327.030954 
L 281.906006 328.332105 
L 286.345754 331.018948 
L 290.785503 324.623997 
L 295.225251 329.868865 
L 299.665 326.234588 
L 304.104749 328.239132 
L 308.544497 320.953763 
L 312.984246 328.711953 
L 317.423994 336.439282 
L 321.863743 328.525883 
L 326.303491 329.054396 
L 330.74324 322.190918 
L 335.182988 332.321058 
L 339.622737 324.154354 
L 344.062485 333.512779 
L 348.502234 332.602186 
L 352.941983 322.64835 
L 357.381731 327.779091 
L 361.82148 329.178384 
L 366.261228 329.536342 
L 370.700977 333.591538 
L 375.140725 338.040572 
L 379.580474 327.133263 
L 384.020222 333.016049 
L 388.459971 324.980505 
L 392.89972 320.113399 
L 397.339468 311.614125 
L 401.779217 338.150321 
L 406.218965 331.064387 
L 410.658714 303.820466 
L 415.098462 326.910564 
L 419.538211 335.595831 
L 423.977959 322.436336 
L 428.417708 320.466657 
L 432.857456 341.517603 
L 437.297205 339.709904 
L 441.736954 338.973434 
L 446.176702 333.591538 
L 450.616451 352.966364 
L 455.056199 324.980505 
L 459.495948 289.998182 
L 463.935696 352.966364 
L 468.375445 269.008788 
L 472.815193 352.966364 
L 477.254942 352.966364 
L 481.694691 352.966364 
L 486.134439 302.591818 
L 490.574188 269.008788 
L 495.013936 310.987576 
L 499.453685 352.966364 
L 503.893433 352.966364 
L 508.333182 352.966364 
" style="fill:none;stroke:#ff7f0e;stroke-linecap:square;stroke-width:1.5;"/>
   </g>
   <g id="line2d_14">
    <path clip-path="url(#p33bb846345)" d="M 90.996818 324.501295 
L 95.436567 337.224318 
L 99.876315 342.411004 
L 104.316064 345.897557 
L 108.755812 342.531636 
L 113.195561 342.502808 
L 117.635309 341.550036 
L 122.075058 337.574141 
L 126.514807 336.308114 
L 130.954555 334.975455 
L 135.394304 334.396659 
L 139.834052 330.245886 
L 144.273801 326.570611 
L 148.713549 329.558118 
L 153.153298 331.050967 
L 157.593046 327.061238 
L 162.032795 328.090045 
L 166.472544 328.349482 
L 170.912292 332.841701 
L 175.352041 329.066032 
L 179.791789 323.199587 
L 184.231538 327.844343 
L 188.671286 327.174087 
L 193.111035 326.282173 
L 197.550783 326.247653 
L 201.990532 324.238175 
L 206.43028 329.979283 
L 210.870029 326.701561 
L 215.309778 325.291892 
L 219.749526 328.627271 
L 224.189275 325.664129 
L 228.629023 327.198405 
L 233.068772 328.960898 
L 237.50852 321.723345 
L 241.948269 329.078268 
L 246.388017 327.174596 
L 250.827766 331.100952 
L 255.267515 327.552179 
L 259.707263 331.827045 
L 264.147012 330.108804 
L 268.58676 327.31266 
L 273.026509 326.671958 
L 277.466257 323.539649 
L 281.906006 330.845805 
L 286.345754 324.2257 
L 290.785503 323.554474 
L 295.225251 327.119162 
L 299.665 318.512075 
L 304.104749 329.964288 
L 308.544497 330.013933 
L 312.984246 329.333861 
L 317.423994 321.89545 
L 321.863743 327.168079 
L 326.303491 331.445593 
L 330.74324 331.90948 
L 335.182988 329.017809 
L 339.622737 321.366095 
L 344.062485 326.345669 
L 348.502234 329.386789 
L 352.941983 321.482273 
L 357.381731 325.260364 
L 361.82148 330.577677 
L 366.261228 335.393848 
L 370.700977 315.831282 
L 375.140725 319.383333 
L 379.580474 318.52223 
L 384.020222 320.547102 
L 388.459971 330.577677 
L 392.89972 331.064387 
L 397.339468 341.68848 
L 401.779217 328.272959 
L 406.218965 331.064387 
L 410.658714 334.536652 
L 415.098462 335.595831 
L 419.538211 326.910564 
L 423.977959 299.538815 
L 428.417708 328.591584 
L 432.857456 352.966364 
L 437.297205 286.684067 
L 441.736954 310.987576 
L 446.176702 314.216713 
L 450.616451 294.841888 
L 455.056199 324.980505 
L 459.495948 352.966364 
L 463.935696 281.002727 
L 468.375445 352.966364 
L 472.815193 227.03 
L 477.254942 269.008788 
L 481.694691 352.966364 
L 486.134439 352.966364 
L 490.574188 352.966364 
L 495.013936 310.987576 
L 499.453685 352.966364 
L 503.893433 352.966364 
L 508.333182 352.966364 
" style="fill:none;stroke:#2ca02c;stroke-linecap:square;stroke-width:1.5;"/>
   </g>
   <g id="line2d_15">
    <path clip-path="url(#p33bb846345)" d="M 90.996818 338.30254 
L 95.436567 345.779778 
L 99.876315 347.142717 
L 104.316064 347.385727 
L 108.755812 347.928909 
L 113.195561 348.108284 
L 117.635309 346.90144 
L 122.075058 344.920429 
L 126.514807 346.969394 
L 130.954555 342.826033 
L 135.394304 342.499803 
L 139.834052 343.229016 
L 144.273801 341.199582 
L 148.713549 338.921416 
L 153.153298 339.693659 
L 157.593046 338.609306 
L 162.032795 341.461066 
L 166.472544 339.457099 
L 170.912292 340.38845 
L 175.352041 337.952053 
L 179.791789 339.227851 
L 184.231538 342.199783 
L 188.671286 335.771512 
L 193.111035 339.298851 
L 197.550783 342.213712 
L 201.990532 337.600123 
L 206.43028 342.129597 
L 210.870029 337.813593 
L 215.309778 338.953973 
L 219.749526 338.952947 
L 224.189275 339.892054 
L 228.629023 338.449204 
L 233.068772 338.19377 
L 237.50852 335.223415 
L 241.948269 342.070039 
L 246.388017 340.07048 
L 250.827766 336.987793 
L 255.267515 337.536323 
L 259.707263 338.123864 
L 264.147012 339.77931 
L 268.58676 337.574141 
L 273.026509 340.972424 
L 277.466257 337.006112 
L 281.906006 341.403344 
L 286.345754 337.812195 
L 290.785503 342.805893 
L 295.225251 344.167316 
L 299.665 336.333259 
L 304.104749 340.315222 
L 308.544497 342.698171 
L 312.984246 338.66248 
L 317.423994 337.100365 
L 321.863743 339.388319 
L 326.303491 338.619183 
L 330.74324 339.198401 
L 335.182988 342.230805 
L 339.622737 337.166229 
L 344.062485 338.632143 
L 348.502234 334.745783 
L 352.941983 341.305589 
L 357.381731 336.594636 
L 361.82148 334.775556 
L 366.261228 331.000719 
L 370.700977 343.278951 
L 375.140725 345.503468 
L 379.580474 344.35533 
L 384.020222 338.003627 
L 388.459971 333.376263 
L 392.89972 345.665705 
L 397.339468 330.410597 
L 401.779217 343.089002 
L 406.218965 347.49087 
L 410.658714 322.250177 
L 415.098462 352.966364 
L 419.538211 352.966364 
L 423.977959 352.966364 
L 428.417708 328.591584 
L 432.857456 295.722562 
L 437.297205 339.709904 
L 441.736954 352.966364 
L 446.176702 352.966364 
L 450.616451 352.966364 
L 455.056199 352.966364 
L 459.495948 352.966364 
L 463.935696 352.966364 
L 468.375445 352.966364 
L 472.815193 352.966364 
L 477.254942 352.966364 
L 481.694691 269.008788 
L 486.134439 352.966364 
L 490.574188 352.966364 
L 495.013936 352.966364 
L 499.453685 289.998182 
L 503.893433 352.966364 
L 508.333182 227.03 
" style="fill:none;stroke:#d62728;stroke-linecap:square;stroke-width:1.5;"/>
   </g>
   <g id="line2d_16">
    <path clip-path="url(#p33bb846345)" d="M 90.996818 338.30254 
L 95.436567 345.095341 
L 99.876315 348.598628 
L 104.316064 349.245939 
L 108.755812 348.648545 
L 113.195561 348.855681 
L 117.635309 347.61496 
L 122.075058 345.969899 
L 126.514807 343.304579 
L 130.954555 343.807355 
L 135.394304 343.512696 
L 139.834052 343.878172 
L 144.273801 342.153646 
L 148.713549 338.921416 
L 153.153298 339.693659 
L 157.593046 340.794076 
L 162.032795 338.351526 
L 166.472544 337.95607 
L 170.912292 341.331793 
L 175.352041 338.871296 
L 179.791789 339.227851 
L 184.231538 339.915963 
L 188.671286 342.458399 
L 193.111035 340.600519 
L 197.550783 339.28117 
L 201.990532 336.597977 
L 206.43028 340.159276 
L 210.870029 340.507419 
L 215.309778 338.603663 
L 219.749526 340.428043 
L 224.189275 338.738439 
L 228.629023 340.263849 
L 233.068772 336.347195 
L 237.50852 341.394875 
L 241.948269 339.555503 
L 246.388017 337.249505 
L 250.827766 336.987793 
L 255.267515 339.351622 
L 259.707263 338.123864 
L 264.147012 338.460604 
L 268.58676 341.77202 
L 273.026509 340.511119 
L 277.466257 340.497417 
L 281.906006 332.856765 
L 286.345754 342.515213 
L 290.785503 339.597323 
L 295.225251 335.91821 
L 299.665 338.115377 
L 304.104749 342.61543 
L 308.544497 340.886137 
L 312.984246 340.528204 
L 317.423994 341.727948 
L 321.863743 337.351612 
L 326.303491 340.213314 
L 330.74324 336.768761 
L 335.182988 337.275931 
L 339.622737 334.37797 
L 344.062485 340.679889 
L 348.502234 339.032979 
L 352.941983 343.637744 
L 357.381731 335.335273 
L 361.82148 344.570606 
L 366.261228 335.393848 
L 370.700977 336.820676 
L 375.140725 334.309125 
L 379.580474 340.049814 
L 384.020222 333.016049 
L 388.459971 347.369192 
L 392.89972 345.665705 
L 397.339468 337.929186 
L 401.779217 338.150321 
L 406.218965 331.064387 
L 410.658714 340.679889 
L 415.098462 318.225298 
L 419.538211 344.281097 
L 423.977959 352.966364 
L 428.417708 344.841437 
L 432.857456 330.068843 
L 437.297205 339.709904 
L 441.736954 352.966364 
L 446.176702 333.591538 
L 450.616451 352.966364 
L 455.056199 324.980505 
L 459.495948 352.966364 
L 463.935696 352.966364 
L 468.375445 352.966364 
L 472.815193 352.966364 
L 477.254942 352.966364 
L 481.694691 352.966364 
L 486.134439 352.966364 
L 490.574188 352.966364 
L 495.013936 352.966364 
L 499.453685 352.966364 
L 503.893433 101.093636 
L 508.333182 352.966364 
" style="fill:none;stroke:#9467bd;stroke-linecap:square;stroke-width:1.5;"/>
   </g>
   <g id="line2d_17">
    <path clip-path="url(#p33bb846345)" d="M 90.996818 317.025621 
L 95.436567 335.513226 
L 99.876315 340.955092 
L 104.316064 346.2696 
L 108.755812 348.288727 
L 113.195561 349.976776 
L 117.635309 349.755522 
L 122.075058 344.920429 
L 126.514807 345.303569 
L 130.954555 345.442893 
L 135.394304 341.48691 
L 139.834052 342.579859 
L 144.273801 337.70135 
L 148.713549 339.233526 
L 153.153298 331.97697 
L 157.593046 332.367107 
L 162.032795 329.955769 
L 166.472544 330.751129 
L 170.912292 327.810536 
L 175.352041 323.550571 
L 179.791789 322.872479 
L 184.231538 325.234263 
L 188.671286 329.721472 
L 193.111035 322.702586 
L 197.550783 319.405056 
L 201.990532 321.899834 
L 206.43028 319.142516 
L 210.870029 321.650637 
L 215.309778 321.788794 
L 219.749526 322.726885 
L 224.189275 318.357897 
L 228.629023 319.213966 
L 233.068772 321.205287 
L 237.50852 318.637615 
L 241.948269 313.152871 
L 246.388017 320.726655 
L 250.827766 319.327268 
L 255.267515 310.306839 
L 259.707263 320.582727 
L 264.147012 317.800887 
L 268.58676 318.916902 
L 273.026509 312.371492 
L 277.466257 320.547102 
L 281.906006 318.780045 
L 286.345754 317.955009 
L 290.785503 312.32448 
L 295.225251 310.071008 
L 299.665 317.323997 
L 304.104749 317.888198 
L 308.544497 316.725683 
L 312.984246 318.761425 
L 317.423994 312.640284 
L 321.863743 316.305643 
L 326.303491 307.533625 
L 330.74324 314.901996 
L 335.182988 314.153189 
L 339.622737 318.577836 
L 344.062485 317.130813 
L 348.502234 314.381605 
L 352.941983 320.316195 
L 357.381731 300.073091 
L 361.82148 305.390404 
L 366.261228 320.750085 
L 370.700977 310.987576 
L 375.140725 311.920438 
L 379.580474 329.286022 
L 384.020222 308.078155 
L 388.459971 322.181919 
L 392.89972 309.162411 
L 397.339468 319.132714 
L 401.779217 298.640873 
L 406.218965 320.113399 
L 410.658714 316.10694 
L 415.098462 335.595831 
L 419.538211 309.540031 
L 423.977959 314.803829 
L 428.417708 328.591584 
L 432.857456 341.517603 
L 437.297205 326.453445 
L 441.736954 283.001717 
L 446.176702 333.591538 
L 450.616451 314.216713 
L 455.056199 269.008788 
L 459.495948 289.998182 
L 463.935696 281.002727 
L 468.375445 352.966364 
L 472.815193 352.966364 
L 477.254942 352.966364 
L 481.694691 269.008788 
L 486.134439 302.591818 
L 490.574188 352.966364 
L 495.013936 310.987576 
L 499.453685 289.998182 
L 503.893433 352.966364 
L 508.333182 352.966364 
" style="fill:none;stroke:#8c564b;stroke-linecap:square;stroke-width:1.5;"/>
   </g>
   <g id="line2d_18">
    <path clip-path="url(#p33bb846345)" d="M 90.996818 327.376555 
L 95.436567 340.304284 
L 99.876315 342.411004 
L 104.316064 343.665303 
L 108.755812 346.489636 
L 113.195561 342.502808 
L 117.635309 342.977077 
L 122.075058 339.323258 
L 126.514807 336.641279 
L 130.954555 334.648347 
L 135.394304 332.370873 
L 139.834052 331.868777 
L 144.273801 326.888632 
L 148.713549 326.749128 
L 153.153298 331.97697 
L 157.593046 327.685458 
L 162.032795 326.535275 
L 166.472544 326.548247 
L 170.912292 329.068327 
L 175.352041 326.308301 
L 179.791789 330.39595 
L 184.231538 327.191823 
L 188.671286 324.308278 
L 193.111035 330.512593 
L 197.550783 327.225166 
L 201.990532 328.246759 
L 206.43028 328.994122 
L 210.870029 325.691376 
L 215.309778 324.941582 
L 219.749526 324.570756 
L 224.189275 329.124976 
L 228.629023 325.383759 
L 233.068772 326.745009 
L 237.50852 330.59482 
L 241.948269 325.725553 
L 246.388017 325.159615 
L 250.827766 330.259974 
L 255.267515 326.190704 
L 259.707263 331.827045 
L 264.147012 332.306646 
L 268.58676 326.379798 
L 273.026509 328.978485 
L 277.466257 330.023501 
L 281.906006 329.840325 
L 286.345754 329.451275 
L 290.785503 321.950189 
L 295.225251 328.219043 
L 299.665 327.422667 
L 304.104749 331.114392 
L 308.544497 328.80591 
L 312.984246 326.224321 
L 317.423994 328.506283 
L 321.863743 323.773568 
L 326.303491 323.474937 
L 330.74324 329.479839 
L 335.182988 317.456438 
L 339.622737 325.083774 
L 344.062485 327.369542 
L 348.502234 330.458588 
L 352.941983 324.980505 
L 357.381731 327.779091 
L 361.82148 333.376263 
L 366.261228 320.750085 
L 370.700977 327.133263 
L 375.140725 324.980505 
L 379.580474 318.52223 
L 384.020222 330.522259 
L 388.459971 330.577677 
L 392.89972 327.414058 
L 397.339468 341.68848 
L 401.779217 323.334278 
L 406.218965 325.588893 
L 410.658714 346.823126 
L 415.098462 292.169498 
L 419.538211 344.281097 
L 423.977959 337.70135 
L 428.417708 320.466657 
L 432.857456 318.620083 
L 437.297205 352.966364 
L 441.736954 338.973434 
L 446.176702 333.591538 
L 450.616451 314.216713 
L 455.056199 352.966364 
L 459.495948 352.966364 
L 463.935696 352.966364 
L 468.375445 269.008788 
L 472.815193 352.966364 
L 477.254942 269.008788 
L 481.694691 269.008788 
L 486.134439 352.966364 
L 490.574188 269.008788 
L 495.013936 310.987576 
L 499.453685 352.966364 
L 503.893433 352.966364 
L 508.333182 352.966364 
" style="fill:none;stroke:#e377c2;stroke-linecap:square;stroke-width:1.5;"/>
   </g>
   <g id="line2d_19">
    <path clip-path="url(#p33bb846345)" d="M 90.996818 327.376555 
L 95.436567 315.66456 
L 99.876315 311.108902 
L 104.316064 315.018035 
L 108.755812 313.386364 
L 113.195561 315.222824 
L 117.635309 315.149779 
L 122.075058 320.08298 
L 126.514807 318.65037 
L 130.954555 318.292975 
L 135.394304 321.229049 
L 139.834052 317.911912 
L 144.273801 325.616547 
L 148.713549 323.315919 
L 153.153298 326.420954 
L 157.593046 326.124908 
L 162.032795 327.779091 
L 166.472544 325.947835 
L 170.912292 325.609401 
L 175.352041 326.614716 
L 179.791789 331.377273 
L 184.231538 323.276703 
L 188.671286 329.403049 
L 193.111035 327.583841 
L 197.550783 324.292625 
L 201.990532 326.242467 
L 206.43028 327.352188 
L 210.870029 328.385202 
L 215.309778 329.495609 
L 219.749526 326.783401 
L 224.189275 326.433206 
L 228.629023 328.650121 
L 233.068772 329.330213 
L 237.50852 330.980536 
L 241.948269 325.725553 
L 246.388017 326.368604 
L 250.827766 328.578019 
L 255.267515 329.821302 
L 259.707263 325.530227 
L 264.147012 322.63614 
L 268.58676 321.715488 
L 273.026509 325.288042 
L 277.466257 329.524743 
L 281.906006 326.823885 
L 286.345754 322.658027 
L 290.785503 324.623997 
L 295.225251 328.768984 
L 299.665 331.580943 
L 304.104749 322.488614 
L 308.544497 326.993876 
L 312.984246 323.736689 
L 317.423994 329.167366 
L 321.863743 329.204786 
L 326.303491 329.054396 
L 330.74324 331.90948 
L 335.182988 327.366185 
L 339.622737 328.801453 
L 344.062485 324.297923 
L 348.502234 327.243191 
L 352.941983 324.980505 
L 357.381731 339.113364 
L 361.82148 327.779091 
L 366.261228 335.393848 
L 370.700977 325.518695 
L 375.140725 324.980505 
L 379.580474 322.827747 
L 384.020222 338.003627 
L 388.459971 324.980505 
L 392.89972 338.365046 
L 397.339468 337.929186 
L 401.779217 333.21164 
L 406.218965 320.113399 
L 410.658714 328.393415 
L 415.098462 318.225298 
L 419.538211 309.540031 
L 423.977959 330.068843 
L 428.417708 312.34173 
L 432.857456 307.171322 
L 437.297205 299.940526 
L 441.736954 338.973434 
L 446.176702 333.591538 
L 450.616451 314.216713 
L 455.056199 296.994646 
L 459.495948 321.482273 
L 463.935696 316.984545 
L 468.375445 352.966364 
L 472.815193 352.966364 
L 477.254942 352.966364 
L 481.694691 352.966364 
L 486.134439 252.217273 
L 490.574188 352.966364 
L 495.013936 352.966364 
L 499.453685 289.998182 
L 503.893433 352.966364 
L 508.333182 352.966364 
" style="fill:none;stroke:#7f7f7f;stroke-linecap:square;stroke-width:1.5;"/>
   </g>
   <g id="line2d_20">
    <path clip-path="url(#p33bb846345)" d="M 90.996818 302.649323 
L 95.436567 280.416067 
L 99.876315 267.795528 
L 104.316064 259.955755 
L 108.755812 269.848364 
L 113.195561 266.642031 
L 117.635309 270.911509 
L 122.075058 276.355076 
L 126.514807 279.336902 
L 130.954555 279.040083 
L 135.394304 289.491735 
L 139.834052 292.27023 
L 144.273801 289.998182 
L 148.713549 297.410793 
L 153.153298 293.393525 
L 157.593046 297.410793 
L 162.032795 297.927508 
L 166.472544 298.929307 
L 170.912292 291.963481 
L 175.352041 303.940042 
L 179.791789 299.320744 
L 184.231538 299.459722 
L 188.671286 302.018656 
L 193.111035 296.994646 
L 197.550783 307.023214 
L 201.990532 306.533593 
L 206.43028 303.708334 
L 210.870029 305.824409 
L 215.309778 302.872066 
L 219.749526 299.125341 
L 224.189275 300.284587 
L 228.629023 306.87438 
L 233.068772 304.216804 
L 237.50852 302.051815 
L 241.948269 300.999278 
L 246.388017 302.994815 
L 250.827766 299.143811 
L 255.267515 302.591818 
L 259.707263 306.19 
L 264.147012 301.536854 
L 268.58676 308.655421 
L 273.026509 304.990606 
L 277.466257 305.584365 
L 281.906006 301.184146 
L 286.345754 305.936186 
L 290.785503 308.046387 
L 295.225251 307.871247 
L 299.665 307.225326 
L 304.104749 303.511901 
L 308.544497 302.833423 
L 312.984246 303.835634 
L 317.423994 302.724035 
L 321.863743 306.12211 
L 326.303491 306.736559 
L 330.74324 302.753794 
L 335.182988 308.372504 
L 339.622737 309.28364 
L 344.062485 303.820466 
L 348.502234 291.87383 
L 352.941983 309.821498 
L 357.381731 308.888636 
L 361.82148 299.793232 
L 366.261228 297.320063 
L 370.700977 306.143869 
L 375.140725 300.726094 
L 379.580474 312.063955 
L 384.020222 300.596787 
L 388.459971 302.591818 
L 392.89972 287.260435 
L 397.339468 292.817653 
L 401.779217 313.456916 
L 406.218965 298.211423 
L 410.658714 303.820466 
L 415.098462 318.225298 
L 419.538211 300.854765 
L 423.977959 307.171322 
L 428.417708 312.34173 
L 432.857456 318.620083 
L 437.297205 326.453445 
L 441.736954 283.001717 
L 446.176702 275.467063 
L 450.616451 294.841888 
L 455.056199 324.980505 
L 459.495948 321.482273 
L 463.935696 281.002727 
L 468.375445 352.966364 
L 472.815193 227.03 
L 477.254942 269.008788 
L 481.694691 352.966364 
L 486.134439 302.591818 
L 490.574188 352.966364 
L 495.013936 310.987576 
L 499.453685 352.966364 
L 503.893433 352.966364 
L 508.333182 227.03 
" style="fill:none;stroke:#bcbd22;stroke-linecap:square;stroke-width:1.5;"/>
   </g>
   <g id="patch_3">
    <path d="M 70.13 365.56 
L 70.13 88.5 
" style="fill:none;stroke:#000000;stroke-linecap:square;stroke-linejoin:miter;stroke-width:0.8;"/>
   </g>
   <g id="patch_4">
    <path d="M 529.2 365.56 
L 529.2 88.5 
" style="fill:none;stroke:#000000;stroke-linecap:square;stroke-linejoin:miter;stroke-width:0.8;"/>
   </g>
   <g id="patch_5">
    <path d="M 70.13 365.56 
L 529.2 365.56 
" style="fill:none;stroke:#000000;stroke-linecap:square;stroke-linejoin:miter;stroke-width:0.8;"/>
   </g>
   <g id="patch_6">
    <path d="M 70.13 88.5 
L 529.2 88.5 
" style="fill:none;stroke:#000000;stroke-linecap:square;stroke-linejoin:miter;stroke-width:0.8;"/>
   </g>
   <g id="legend_1">
    <g id="patch_7">
     <path d="M 80.63 81 
L 518.7 81 
Q 521.7 81 521.7 78 
L 521.7 13.448438 
Q 521.7 10.448438 518.7 10.448438 
L 80.63 10.448438 
Q 77.63 10.448438 77.63 13.448438 
L 77.63 78 
Q 77.63 81 80.63 81 
z
" style="fill:#ffffff;opacity:0.8;stroke:#cccccc;stroke-linejoin:miter;"/>
    </g>
    <g id="line2d_21">
     <path d="M 83.63 22.596094 
L 113.63 22.596094 
" style="fill:none;stroke:#1f77b4;stroke-linecap:square;stroke-width:1.5;"/>
    </g>
    <g id="line2d_22"/>
    <g id="text_14">
     <!-- Stra 1 -->
     <defs>
      <path d="M 53.515625 70.515625 
L 53.515625 60.890625 
Q 47.90625 63.578125 42.921875 64.890625 
Q 37.9375 66.21875 33.296875 66.21875 
Q 25.25 66.21875 20.875 63.09375 
Q 16.5 59.96875 16.5 54.203125 
Q 16.5 49.359375 19.40625 46.890625 
Q 22.3125 44.4375 30.421875 42.921875 
L 36.375 41.703125 
Q 47.40625 39.59375 52.65625 34.296875 
Q 57.90625 29 57.90625 20.125 
Q 57.90625 9.515625 50.796875 4.046875 
Q 43.703125 -1.421875 29.984375 -1.421875 
Q 24.8125 -1.421875 18.96875 -0.25 
Q 13.140625 0.921875 6.890625 3.21875 
L 6.890625 13.375 
Q 12.890625 10.015625 18.65625 8.296875 
Q 24.421875 6.59375 29.984375 6.59375 
Q 38.421875 6.59375 43.015625 9.90625 
Q 47.609375 13.234375 47.609375 19.390625 
Q 47.609375 24.75 44.3125 27.78125 
Q 41.015625 30.8125 33.5 32.328125 
L 27.484375 33.5 
Q 16.453125 35.6875 11.515625 40.375 
Q 6.59375 45.0625 6.59375 53.421875 
Q 6.59375 63.09375 13.40625 68.65625 
Q 20.21875 74.21875 32.171875 74.21875 
Q 37.3125 74.21875 42.625 73.28125 
Q 47.953125 72.359375 53.515625 70.515625 
z
" id="DejaVuSans-83"/>
     </defs>
     <g transform="translate(125.63 27.846094)scale(0.15 -0.15)">
      <use xlink:href="#DejaVuSans-83"/>
      <use x="63.476562" xlink:href="#DejaVuSans-116"/>
      <use x="102.685547" xlink:href="#DejaVuSans-114"/>
      <use x="143.798828" xlink:href="#DejaVuSans-97"/>
      <use x="205.078125" xlink:href="#DejaVuSans-32"/>
      <use x="236.865234" xlink:href="#DejaVuSans-49"/>
     </g>
    </g>
    <g id="line2d_23">
     <path d="M 83.63 44.613281 
L 113.63 44.613281 
" style="fill:none;stroke:#ff7f0e;stroke-linecap:square;stroke-width:1.5;"/>
    </g>
    <g id="line2d_24"/>
    <g id="text_15">
     <!-- Stra 2 -->
     <g transform="translate(125.63 49.863281)scale(0.15 -0.15)">
      <use xlink:href="#DejaVuSans-83"/>
      <use x="63.476562" xlink:href="#DejaVuSans-116"/>
      <use x="102.685547" xlink:href="#DejaVuSans-114"/>
      <use x="143.798828" xlink:href="#DejaVuSans-97"/>
      <use x="205.078125" xlink:href="#DejaVuSans-32"/>
      <use x="236.865234" xlink:href="#DejaVuSans-50"/>
     </g>
    </g>
    <g id="line2d_25">
     <path d="M 83.63 66.630469 
L 113.63 66.630469 
" style="fill:none;stroke:#2ca02c;stroke-linecap:square;stroke-width:1.5;"/>
    </g>
    <g id="line2d_26"/>
    <g id="text_16">
     <!-- Stra 3 -->
     <defs>
      <path d="M 40.578125 39.3125 
Q 47.65625 37.796875 51.625 33 
Q 55.609375 28.21875 55.609375 21.1875 
Q 55.609375 10.40625 48.1875 4.484375 
Q 40.765625 -1.421875 27.09375 -1.421875 
Q 22.515625 -1.421875 17.65625 -0.515625 
Q 12.796875 0.390625 7.625 2.203125 
L 7.625 11.71875 
Q 11.71875 9.328125 16.59375 8.109375 
Q 21.484375 6.890625 26.8125 6.890625 
Q 36.078125 6.890625 40.9375 10.546875 
Q 45.796875 14.203125 45.796875 21.1875 
Q 45.796875 27.640625 41.28125 31.265625 
Q 36.765625 34.90625 28.71875 34.90625 
L 20.21875 34.90625 
L 20.21875 43.015625 
L 29.109375 43.015625 
Q 36.375 43.015625 40.234375 45.921875 
Q 44.09375 48.828125 44.09375 54.296875 
Q 44.09375 59.90625 40.109375 62.90625 
Q 36.140625 65.921875 28.71875 65.921875 
Q 24.65625 65.921875 20.015625 65.03125 
Q 15.375 64.15625 9.8125 62.3125 
L 9.8125 71.09375 
Q 15.4375 72.65625 20.34375 73.4375 
Q 25.25 74.21875 29.59375 74.21875 
Q 40.828125 74.21875 47.359375 69.109375 
Q 53.90625 64.015625 53.90625 55.328125 
Q 53.90625 49.265625 50.4375 45.09375 
Q 46.96875 40.921875 40.578125 39.3125 
z
" id="DejaVuSans-51"/>
     </defs>
     <g transform="translate(125.63 71.880469)scale(0.15 -0.15)">
      <use xlink:href="#DejaVuSans-83"/>
      <use x="63.476562" xlink:href="#DejaVuSans-116"/>
      <use x="102.685547" xlink:href="#DejaVuSans-114"/>
      <use x="143.798828" xlink:href="#DejaVuSans-97"/>
      <use x="205.078125" xlink:href="#DejaVuSans-32"/>
      <use x="236.865234" xlink:href="#DejaVuSans-51"/>
     </g>
    </g>
    <g id="line2d_27">
     <path d="M 198.629115 22.596094 
L 228.629115 22.596094 
" style="fill:none;stroke:#d62728;stroke-linecap:square;stroke-width:1.5;"/>
    </g>
    <g id="line2d_28"/>
    <g id="text_17">
     <!-- Stra 4 -->
     <g transform="translate(240.629115 27.846094)scale(0.15 -0.15)">
      <use xlink:href="#DejaVuSans-83"/>
      <use x="63.476562" xlink:href="#DejaVuSans-116"/>
      <use x="102.685547" xlink:href="#DejaVuSans-114"/>
      <use x="143.798828" xlink:href="#DejaVuSans-97"/>
      <use x="205.078125" xlink:href="#DejaVuSans-32"/>
      <use x="236.865234" xlink:href="#DejaVuSans-52"/>
     </g>
    </g>
    <g id="line2d_29">
     <path d="M 198.629115 44.613281 
L 228.629115 44.613281 
" style="fill:none;stroke:#9467bd;stroke-linecap:square;stroke-width:1.5;"/>
    </g>
    <g id="line2d_30"/>
    <g id="text_18">
     <!-- Stra 5 -->
     <defs>
      <path d="M 10.796875 72.90625 
L 49.515625 72.90625 
L 49.515625 64.59375 
L 19.828125 64.59375 
L 19.828125 46.734375 
Q 21.96875 47.46875 24.109375 47.828125 
Q 26.265625 48.1875 28.421875 48.1875 
Q 40.625 48.1875 47.75 41.5 
Q 54.890625 34.8125 54.890625 23.390625 
Q 54.890625 11.625 47.5625 5.09375 
Q 40.234375 -1.421875 26.90625 -1.421875 
Q 22.3125 -1.421875 17.546875 -0.640625 
Q 12.796875 0.140625 7.71875 1.703125 
L 7.71875 11.625 
Q 12.109375 9.234375 16.796875 8.0625 
Q 21.484375 6.890625 26.703125 6.890625 
Q 35.15625 6.890625 40.078125 11.328125 
Q 45.015625 15.765625 45.015625 23.390625 
Q 45.015625 31 40.078125 35.4375 
Q 35.15625 39.890625 26.703125 39.890625 
Q 22.75 39.890625 18.8125 39.015625 
Q 14.890625 38.140625 10.796875 36.28125 
z
" id="DejaVuSans-53"/>
     </defs>
     <g transform="translate(240.629115 49.863281)scale(0.15 -0.15)">
      <use xlink:href="#DejaVuSans-83"/>
      <use x="63.476562" xlink:href="#DejaVuSans-116"/>
      <use x="102.685547" xlink:href="#DejaVuSans-114"/>
      <use x="143.798828" xlink:href="#DejaVuSans-97"/>
      <use x="205.078125" xlink:href="#DejaVuSans-32"/>
      <use x="236.865234" xlink:href="#DejaVuSans-53"/>
     </g>
    </g>
    <g id="line2d_31">
     <path d="M 313.628229 22.596094 
L 343.628229 22.596094 
" style="fill:none;stroke:#8c564b;stroke-linecap:square;stroke-width:1.5;"/>
    </g>
    <g id="line2d_32"/>
    <g id="text_19">
     <!-- Stra 6 -->
     <g transform="translate(355.628229 27.846094)scale(0.15 -0.15)">
      <use xlink:href="#DejaVuSans-83"/>
      <use x="63.476562" xlink:href="#DejaVuSans-116"/>
      <use x="102.685547" xlink:href="#DejaVuSans-114"/>
      <use x="143.798828" xlink:href="#DejaVuSans-97"/>
      <use x="205.078125" xlink:href="#DejaVuSans-32"/>
      <use x="236.865234" xlink:href="#DejaVuSans-54"/>
     </g>
    </g>
    <g id="line2d_33">
     <path d="M 313.628229 44.613281 
L 343.628229 44.613281 
" style="fill:none;stroke:#e377c2;stroke-linecap:square;stroke-width:1.5;"/>
    </g>
    <g id="line2d_34"/>
    <g id="text_20">
     <!-- Stra 7 -->
     <defs>
      <path d="M 8.203125 72.90625 
L 55.078125 72.90625 
L 55.078125 68.703125 
L 28.609375 0 
L 18.3125 0 
L 43.21875 64.59375 
L 8.203125 64.59375 
z
" id="DejaVuSans-55"/>
     </defs>
     <g transform="translate(355.628229 49.863281)scale(0.15 -0.15)">
      <use xlink:href="#DejaVuSans-83"/>
      <use x="63.476562" xlink:href="#DejaVuSans-116"/>
      <use x="102.685547" xlink:href="#DejaVuSans-114"/>
      <use x="143.798828" xlink:href="#DejaVuSans-97"/>
      <use x="205.078125" xlink:href="#DejaVuSans-32"/>
      <use x="236.865234" xlink:href="#DejaVuSans-55"/>
     </g>
    </g>
    <g id="line2d_35">
     <path d="M 428.627344 22.596094 
L 458.627344 22.596094 
" style="fill:none;stroke:#7f7f7f;stroke-linecap:square;stroke-width:1.5;"/>
    </g>
    <g id="line2d_36"/>
    <g id="text_21">
     <!-- Stra 8 -->
     <g transform="translate(470.627344 27.846094)scale(0.15 -0.15)">
      <use xlink:href="#DejaVuSans-83"/>
      <use x="63.476562" xlink:href="#DejaVuSans-116"/>
      <use x="102.685547" xlink:href="#DejaVuSans-114"/>
      <use x="143.798828" xlink:href="#DejaVuSans-97"/>
      <use x="205.078125" xlink:href="#DejaVuSans-32"/>
      <use x="236.865234" xlink:href="#DejaVuSans-56"/>
     </g>
    </g>
    <g id="line2d_37">
     <path d="M 428.627344 44.613281 
L 458.627344 44.613281 
" style="fill:none;stroke:#bcbd22;stroke-linecap:square;stroke-width:1.5;"/>
    </g>
    <g id="line2d_38"/>
    <g id="text_22">
     <!-- Stra 9 -->
     <defs>
      <path d="M 10.984375 1.515625 
L 10.984375 10.5 
Q 14.703125 8.734375 18.5 7.8125 
Q 22.3125 6.890625 25.984375 6.890625 
Q 35.75 6.890625 40.890625 13.453125 
Q 46.046875 20.015625 46.78125 33.40625 
Q 43.953125 29.203125 39.59375 26.953125 
Q 35.25 24.703125 29.984375 24.703125 
Q 19.046875 24.703125 12.671875 31.3125 
Q 6.296875 37.9375 6.296875 49.421875 
Q 6.296875 60.640625 12.9375 67.421875 
Q 19.578125 74.21875 30.609375 74.21875 
Q 43.265625 74.21875 49.921875 64.515625 
Q 56.59375 54.828125 56.59375 36.375 
Q 56.59375 19.140625 48.40625 8.859375 
Q 40.234375 -1.421875 26.421875 -1.421875 
Q 22.703125 -1.421875 18.890625 -0.6875 
Q 15.09375 0.046875 10.984375 1.515625 
z
M 30.609375 32.421875 
Q 37.25 32.421875 41.125 36.953125 
Q 45.015625 41.5 45.015625 49.421875 
Q 45.015625 57.28125 41.125 61.84375 
Q 37.25 66.40625 30.609375 66.40625 
Q 23.96875 66.40625 20.09375 61.84375 
Q 16.21875 57.28125 16.21875 49.421875 
Q 16.21875 41.5 20.09375 36.953125 
Q 23.96875 32.421875 30.609375 32.421875 
z
" id="DejaVuSans-57"/>
     </defs>
     <g transform="translate(470.627344 49.863281)scale(0.15 -0.15)">
      <use xlink:href="#DejaVuSans-83"/>
      <use x="63.476562" xlink:href="#DejaVuSans-116"/>
      <use x="102.685547" xlink:href="#DejaVuSans-114"/>
      <use x="143.798828" xlink:href="#DejaVuSans-97"/>
      <use x="205.078125" xlink:href="#DejaVuSans-32"/>
      <use x="236.865234" xlink:href="#DejaVuSans-57"/>
     </g>
    </g>
   </g>
  </g>
 </g>
 <defs>
  <clipPath id="p33bb846345">
   <rect height="277.06" width="459.07" x="70.13" y="88.5"/>
  </clipPath>
 </defs>
</svg>
