<?xml version="1.0" encoding="utf-8" standalone="no"?>
<!DOCTYPE svg PUBLIC "-//W3C//DTD SVG 1.1//EN"
  "http://www.w3.org/Graphics/SVG/1.1/DTD/svg11.dtd">
<!-- Created with matplotlib (https://matplotlib.org/) -->
<svg height="432pt" version="1.1" viewBox="0 0 540 432" width="540pt" xmlns="http://www.w3.org/2000/svg" xmlns:xlink="http://www.w3.org/1999/xlink">
 <defs>
  <style type="text/css">
*{stroke-linecap:butt;stroke-linejoin:round;}
  </style>
 </defs>
 <g id="figure_1">
  <g id="patch_1">
   <path d="M 0 432 
L 540 432 
L 540 0 
L 0 0 
z
" style="fill:#ffffff;"/>
  </g>
  <g id="axes_1">
   <g id="patch_2">
    <path d="M 51.05 365.56 
L 529.2 365.56 
L 529.2 88.5 
L 51.05 88.5 
z
" style="fill:#ffffff;"/>
   </g>
   <g id="matplotlib.axis_1">
    <g id="xtick_1">
     <g id="line2d_1">
      <defs>
       <path d="M 0 0 
L 0 3.5 
" id="m31c61568b2" style="stroke:#000000;stroke-width:0.8;"/>
      </defs>
      <g>
       <use style="stroke:#000000;stroke-width:0.8;" x="72.784091" xlink:href="#m31c61568b2" y="365.56"/>
      </g>
     </g>
     <g id="text_1">
      <!-- 0 -->
      <defs>
       <path d="M 31.78125 66.40625 
Q 24.171875 66.40625 20.328125 58.90625 
Q 16.5 51.421875 16.5 36.375 
Q 16.5 21.390625 20.328125 13.890625 
Q 24.171875 6.390625 31.78125 6.390625 
Q 39.453125 6.390625 43.28125 13.890625 
Q 47.125 21.390625 47.125 36.375 
Q 47.125 51.421875 43.28125 58.90625 
Q 39.453125 66.40625 31.78125 66.40625 
z
M 31.78125 74.21875 
Q 44.046875 74.21875 50.515625 64.515625 
Q 56.984375 54.828125 56.984375 36.375 
Q 56.984375 17.96875 50.515625 8.265625 
Q 44.046875 -1.421875 31.78125 -1.421875 
Q 19.53125 -1.421875 13.0625 8.265625 
Q 6.59375 17.96875 6.59375 36.375 
Q 6.59375 54.828125 13.0625 64.515625 
Q 19.53125 74.21875 31.78125 74.21875 
z
" id="DejaVuSans-48"/>
      </defs>
      <g transform="translate(66.421591 387.756875)scale(0.2 -0.2)">
       <use xlink:href="#DejaVuSans-48"/>
      </g>
     </g>
    </g>
    <g id="xtick_2">
     <g id="line2d_2">
      <g>
       <use style="stroke:#000000;stroke-width:0.8;" x="165.269584" xlink:href="#m31c61568b2" y="365.56"/>
      </g>
     </g>
     <g id="text_2">
      <!-- 20 -->
      <defs>
       <path d="M 19.1875 8.296875 
L 53.609375 8.296875 
L 53.609375 0 
L 7.328125 0 
L 7.328125 8.296875 
Q 12.9375 14.109375 22.625 23.890625 
Q 32.328125 33.6875 34.8125 36.53125 
Q 39.546875 41.84375 41.421875 45.53125 
Q 43.3125 49.21875 43.3125 52.78125 
Q 43.3125 58.59375 39.234375 62.25 
Q 35.15625 65.921875 28.609375 65.921875 
Q 23.96875 65.921875 18.8125 64.3125 
Q 13.671875 62.703125 7.8125 59.421875 
L 7.8125 69.390625 
Q 13.765625 71.78125 18.9375 73 
Q 24.125 74.21875 28.421875 74.21875 
Q 39.75 74.21875 46.484375 68.546875 
Q 53.21875 62.890625 53.21875 53.421875 
Q 53.21875 48.921875 51.53125 44.890625 
Q 49.859375 40.875 45.40625 35.40625 
Q 44.1875 33.984375 37.640625 27.21875 
Q 31.109375 20.453125 19.1875 8.296875 
z
" id="DejaVuSans-50"/>
      </defs>
      <g transform="translate(152.544584 387.756875)scale(0.2 -0.2)">
       <use xlink:href="#DejaVuSans-50"/>
       <use x="63.623047" xlink:href="#DejaVuSans-48"/>
      </g>
     </g>
    </g>
    <g id="xtick_3">
     <g id="line2d_3">
      <g>
       <use style="stroke:#000000;stroke-width:0.8;" x="257.755077" xlink:href="#m31c61568b2" y="365.56"/>
      </g>
     </g>
     <g id="text_3">
      <!-- 40 -->
      <defs>
       <path d="M 37.796875 64.3125 
L 12.890625 25.390625 
L 37.796875 25.390625 
z
M 35.203125 72.90625 
L 47.609375 72.90625 
L 47.609375 25.390625 
L 58.015625 25.390625 
L 58.015625 17.1875 
L 47.609375 17.1875 
L 47.609375 0 
L 37.796875 0 
L 37.796875 17.1875 
L 4.890625 17.1875 
L 4.890625 26.703125 
z
" id="DejaVuSans-52"/>
      </defs>
      <g transform="translate(245.030077 387.756875)scale(0.2 -0.2)">
       <use xlink:href="#DejaVuSans-52"/>
       <use x="63.623047" xlink:href="#DejaVuSans-48"/>
      </g>
     </g>
    </g>
    <g id="xtick_4">
     <g id="line2d_4">
      <g>
       <use style="stroke:#000000;stroke-width:0.8;" x="350.240571" xlink:href="#m31c61568b2" y="365.56"/>
      </g>
     </g>
     <g id="text_4">
      <!-- 60 -->
      <defs>
       <path d="M 33.015625 40.375 
Q 26.375 40.375 22.484375 35.828125 
Q 18.609375 31.296875 18.609375 23.390625 
Q 18.609375 15.53125 22.484375 10.953125 
Q 26.375 6.390625 33.015625 6.390625 
Q 39.65625 6.390625 43.53125 10.953125 
Q 47.40625 15.53125 47.40625 23.390625 
Q 47.40625 31.296875 43.53125 35.828125 
Q 39.65625 40.375 33.015625 40.375 
z
M 52.59375 71.296875 
L 52.59375 62.3125 
Q 48.875 64.0625 45.09375 64.984375 
Q 41.3125 65.921875 37.59375 65.921875 
Q 27.828125 65.921875 22.671875 59.328125 
Q 17.53125 52.734375 16.796875 39.40625 
Q 19.671875 43.65625 24.015625 45.921875 
Q 28.375 48.1875 33.59375 48.1875 
Q 44.578125 48.1875 50.953125 41.515625 
Q 57.328125 34.859375 57.328125 23.390625 
Q 57.328125 12.15625 50.6875 5.359375 
Q 44.046875 -1.421875 33.015625 -1.421875 
Q 20.359375 -1.421875 13.671875 8.265625 
Q 6.984375 17.96875 6.984375 36.375 
Q 6.984375 53.65625 15.1875 63.9375 
Q 23.390625 74.21875 37.203125 74.21875 
Q 40.921875 74.21875 44.703125 73.484375 
Q 48.484375 72.75 52.59375 71.296875 
z
" id="DejaVuSans-54"/>
      </defs>
      <g transform="translate(337.515571 387.756875)scale(0.2 -0.2)">
       <use xlink:href="#DejaVuSans-54"/>
       <use x="63.623047" xlink:href="#DejaVuSans-48"/>
      </g>
     </g>
    </g>
    <g id="xtick_5">
     <g id="line2d_5">
      <g>
       <use style="stroke:#000000;stroke-width:0.8;" x="442.726064" xlink:href="#m31c61568b2" y="365.56"/>
      </g>
     </g>
     <g id="text_5">
      <!-- 80 -->
      <defs>
       <path d="M 31.78125 34.625 
Q 24.75 34.625 20.71875 30.859375 
Q 16.703125 27.09375 16.703125 20.515625 
Q 16.703125 13.921875 20.71875 10.15625 
Q 24.75 6.390625 31.78125 6.390625 
Q 38.8125 6.390625 42.859375 10.171875 
Q 46.921875 13.96875 46.921875 20.515625 
Q 46.921875 27.09375 42.890625 30.859375 
Q 38.875 34.625 31.78125 34.625 
z
M 21.921875 38.8125 
Q 15.578125 40.375 12.03125 44.71875 
Q 8.5 49.078125 8.5 55.328125 
Q 8.5 64.0625 14.71875 69.140625 
Q 20.953125 74.21875 31.78125 74.21875 
Q 42.671875 74.21875 48.875 69.140625 
Q 55.078125 64.0625 55.078125 55.328125 
Q 55.078125 49.078125 51.53125 44.71875 
Q 48 40.375 41.703125 38.8125 
Q 48.828125 37.15625 52.796875 32.3125 
Q 56.78125 27.484375 56.78125 20.515625 
Q 56.78125 9.90625 50.3125 4.234375 
Q 43.84375 -1.421875 31.78125 -1.421875 
Q 19.734375 -1.421875 13.25 4.234375 
Q 6.78125 9.90625 6.78125 20.515625 
Q 6.78125 27.484375 10.78125 32.3125 
Q 14.796875 37.15625 21.921875 38.8125 
z
M 18.3125 54.390625 
Q 18.3125 48.734375 21.84375 45.5625 
Q 25.390625 42.390625 31.78125 42.390625 
Q 38.140625 42.390625 41.71875 45.5625 
Q 45.3125 48.734375 45.3125 54.390625 
Q 45.3125 60.0625 41.71875 63.234375 
Q 38.140625 66.40625 31.78125 66.40625 
Q 25.390625 66.40625 21.84375 63.234375 
Q 18.3125 60.0625 18.3125 54.390625 
z
" id="DejaVuSans-56"/>
      </defs>
      <g transform="translate(430.001064 387.756875)scale(0.2 -0.2)">
       <use xlink:href="#DejaVuSans-56"/>
       <use x="63.623047" xlink:href="#DejaVuSans-48"/>
      </g>
     </g>
    </g>
    <g id="text_6">
     <!-- # of games -->
     <defs>
      <path d="M 51.125 44 
L 36.921875 44 
L 32.8125 27.6875 
L 47.125 27.6875 
z
M 43.796875 71.78125 
L 38.71875 51.515625 
L 52.984375 51.515625 
L 58.109375 71.78125 
L 65.921875 71.78125 
L 60.890625 51.515625 
L 76.125 51.515625 
L 76.125 44 
L 58.984375 44 
L 54.984375 27.6875 
L 70.515625 27.6875 
L 70.515625 20.21875 
L 53.078125 20.21875 
L 48 0 
L 40.1875 0 
L 45.21875 20.21875 
L 30.90625 20.21875 
L 25.875 0 
L 18.015625 0 
L 23.09375 20.21875 
L 7.71875 20.21875 
L 7.71875 27.6875 
L 24.90625 27.6875 
L 29 44 
L 13.28125 44 
L 13.28125 51.515625 
L 30.90625 51.515625 
L 35.890625 71.78125 
z
" id="DejaVuSans-35"/>
      <path id="DejaVuSans-32"/>
      <path d="M 30.609375 48.390625 
Q 23.390625 48.390625 19.1875 42.75 
Q 14.984375 37.109375 14.984375 27.296875 
Q 14.984375 17.484375 19.15625 11.84375 
Q 23.34375 6.203125 30.609375 6.203125 
Q 37.796875 6.203125 41.984375 11.859375 
Q 46.1875 17.53125 46.1875 27.296875 
Q 46.1875 37.015625 41.984375 42.703125 
Q 37.796875 48.390625 30.609375 48.390625 
z
M 30.609375 56 
Q 42.328125 56 49.015625 48.375 
Q 55.71875 40.765625 55.71875 27.296875 
Q 55.71875 13.875 49.015625 6.21875 
Q 42.328125 -1.421875 30.609375 -1.421875 
Q 18.84375 -1.421875 12.171875 6.21875 
Q 5.515625 13.875 5.515625 27.296875 
Q 5.515625 40.765625 12.171875 48.375 
Q 18.84375 56 30.609375 56 
z
" id="DejaVuSans-111"/>
      <path d="M 37.109375 75.984375 
L 37.109375 68.5 
L 28.515625 68.5 
Q 23.6875 68.5 21.796875 66.546875 
Q 19.921875 64.59375 19.921875 59.515625 
L 19.921875 54.6875 
L 34.71875 54.6875 
L 34.71875 47.703125 
L 19.921875 47.703125 
L 19.921875 0 
L 10.890625 0 
L 10.890625 47.703125 
L 2.296875 47.703125 
L 2.296875 54.6875 
L 10.890625 54.6875 
L 10.890625 58.5 
Q 10.890625 67.625 15.140625 71.796875 
Q 19.390625 75.984375 28.609375 75.984375 
z
" id="DejaVuSans-102"/>
      <path d="M 45.40625 27.984375 
Q 45.40625 37.75 41.375 43.109375 
Q 37.359375 48.484375 30.078125 48.484375 
Q 22.859375 48.484375 18.828125 43.109375 
Q 14.796875 37.75 14.796875 27.984375 
Q 14.796875 18.265625 18.828125 12.890625 
Q 22.859375 7.515625 30.078125 7.515625 
Q 37.359375 7.515625 41.375 12.890625 
Q 45.40625 18.265625 45.40625 27.984375 
z
M 54.390625 6.78125 
Q 54.390625 -7.171875 48.1875 -13.984375 
Q 42 -20.796875 29.203125 -20.796875 
Q 24.46875 -20.796875 20.265625 -20.09375 
Q 16.0625 -19.390625 12.109375 -17.921875 
L 12.109375 -9.1875 
Q 16.0625 -11.328125 19.921875 -12.34375 
Q 23.78125 -13.375 27.78125 -13.375 
Q 36.625 -13.375 41.015625 -8.765625 
Q 45.40625 -4.15625 45.40625 5.171875 
L 45.40625 9.625 
Q 42.625 4.78125 38.28125 2.390625 
Q 33.9375 0 27.875 0 
Q 17.828125 0 11.671875 7.65625 
Q 5.515625 15.328125 5.515625 27.984375 
Q 5.515625 40.671875 11.671875 48.328125 
Q 17.828125 56 27.875 56 
Q 33.9375 56 38.28125 53.609375 
Q 42.625 51.21875 45.40625 46.390625 
L 45.40625 54.6875 
L 54.390625 54.6875 
z
" id="DejaVuSans-103"/>
      <path d="M 34.28125 27.484375 
Q 23.390625 27.484375 19.1875 25 
Q 14.984375 22.515625 14.984375 16.5 
Q 14.984375 11.71875 18.140625 8.90625 
Q 21.296875 6.109375 26.703125 6.109375 
Q 34.1875 6.109375 38.703125 11.40625 
Q 43.21875 16.703125 43.21875 25.484375 
L 43.21875 27.484375 
z
M 52.203125 31.203125 
L 52.203125 0 
L 43.21875 0 
L 43.21875 8.296875 
Q 40.140625 3.328125 35.546875 0.953125 
Q 30.953125 -1.421875 24.3125 -1.421875 
Q 15.921875 -1.421875 10.953125 3.296875 
Q 6 8.015625 6 15.921875 
Q 6 25.140625 12.171875 29.828125 
Q 18.359375 34.515625 30.609375 34.515625 
L 43.21875 34.515625 
L 43.21875 35.40625 
Q 43.21875 41.609375 39.140625 45 
Q 35.0625 48.390625 27.6875 48.390625 
Q 23 48.390625 18.546875 47.265625 
Q 14.109375 46.140625 10.015625 43.890625 
L 10.015625 52.203125 
Q 14.9375 54.109375 19.578125 55.046875 
Q 24.21875 56 28.609375 56 
Q 40.484375 56 46.34375 49.84375 
Q 52.203125 43.703125 52.203125 31.203125 
z
" id="DejaVuSans-97"/>
      <path d="M 52 44.1875 
Q 55.375 50.25 60.0625 53.125 
Q 64.75 56 71.09375 56 
Q 79.640625 56 84.28125 50.015625 
Q 88.921875 44.046875 88.921875 33.015625 
L 88.921875 0 
L 79.890625 0 
L 79.890625 32.71875 
Q 79.890625 40.578125 77.09375 44.375 
Q 74.3125 48.1875 68.609375 48.1875 
Q 61.625 48.1875 57.5625 43.546875 
Q 53.515625 38.921875 53.515625 30.90625 
L 53.515625 0 
L 44.484375 0 
L 44.484375 32.71875 
Q 44.484375 40.625 41.703125 44.40625 
Q 38.921875 48.1875 33.109375 48.1875 
Q 26.21875 48.1875 22.15625 43.53125 
Q 18.109375 38.875 18.109375 30.90625 
L 18.109375 0 
L 9.078125 0 
L 9.078125 54.6875 
L 18.109375 54.6875 
L 18.109375 46.1875 
Q 21.1875 51.21875 25.484375 53.609375 
Q 29.78125 56 35.6875 56 
Q 41.65625 56 45.828125 52.96875 
Q 50 49.953125 52 44.1875 
z
" id="DejaVuSans-109"/>
      <path d="M 56.203125 29.59375 
L 56.203125 25.203125 
L 14.890625 25.203125 
Q 15.484375 15.921875 20.484375 11.0625 
Q 25.484375 6.203125 34.421875 6.203125 
Q 39.59375 6.203125 44.453125 7.46875 
Q 49.3125 8.734375 54.109375 11.28125 
L 54.109375 2.78125 
Q 49.265625 0.734375 44.1875 -0.34375 
Q 39.109375 -1.421875 33.890625 -1.421875 
Q 20.796875 -1.421875 13.15625 6.1875 
Q 5.515625 13.8125 5.515625 26.8125 
Q 5.515625 40.234375 12.765625 48.109375 
Q 20.015625 56 32.328125 56 
Q 43.359375 56 49.78125 48.890625 
Q 56.203125 41.796875 56.203125 29.59375 
z
M 47.21875 32.234375 
Q 47.125 39.59375 43.09375 43.984375 
Q 39.0625 48.390625 32.421875 48.390625 
Q 24.90625 48.390625 20.390625 44.140625 
Q 15.875 39.890625 15.1875 32.171875 
z
" id="DejaVuSans-101"/>
      <path d="M 44.28125 53.078125 
L 44.28125 44.578125 
Q 40.484375 46.53125 36.375 47.5 
Q 32.28125 48.484375 27.875 48.484375 
Q 21.1875 48.484375 17.84375 46.4375 
Q 14.5 44.390625 14.5 40.28125 
Q 14.5 37.15625 16.890625 35.375 
Q 19.28125 33.59375 26.515625 31.984375 
L 29.59375 31.296875 
Q 39.15625 29.25 43.1875 25.515625 
Q 47.21875 21.78125 47.21875 15.09375 
Q 47.21875 7.46875 41.1875 3.015625 
Q 35.15625 -1.421875 24.609375 -1.421875 
Q 20.21875 -1.421875 15.453125 -0.5625 
Q 10.6875 0.296875 5.421875 2 
L 5.421875 11.28125 
Q 10.40625 8.6875 15.234375 7.390625 
Q 20.0625 6.109375 24.8125 6.109375 
Q 31.15625 6.109375 34.5625 8.28125 
Q 37.984375 10.453125 37.984375 14.40625 
Q 37.984375 18.0625 35.515625 20.015625 
Q 33.0625 21.96875 24.703125 23.78125 
L 21.578125 24.515625 
Q 13.234375 26.265625 9.515625 29.90625 
Q 5.8125 33.546875 5.8125 39.890625 
Q 5.8125 47.609375 11.28125 51.796875 
Q 16.75 56 26.8125 56 
Q 31.78125 56 36.171875 55.265625 
Q 40.578125 54.546875 44.28125 53.078125 
z
" id="DejaVuSans-115"/>
     </defs>
     <g transform="translate(217.681641 414.912344)scale(0.25 -0.25)">
      <use xlink:href="#DejaVuSans-35"/>
      <use x="83.789062" xlink:href="#DejaVuSans-32"/>
      <use x="115.576172" xlink:href="#DejaVuSans-111"/>
      <use x="176.757812" xlink:href="#DejaVuSans-102"/>
      <use x="211.962891" xlink:href="#DejaVuSans-32"/>
      <use x="243.75" xlink:href="#DejaVuSans-103"/>
      <use x="307.226562" xlink:href="#DejaVuSans-97"/>
      <use x="368.505859" xlink:href="#DejaVuSans-109"/>
      <use x="465.917969" xlink:href="#DejaVuSans-101"/>
      <use x="527.441406" xlink:href="#DejaVuSans-115"/>
     </g>
    </g>
   </g>
   <g id="matplotlib.axis_2">
    <g id="ytick_1">
     <g id="line2d_6">
      <defs>
       <path d="M 0 0 
L -3.5 0 
" id="m22d89fe77c" style="stroke:#000000;stroke-width:0.8;"/>
      </defs>
      <g>
       <use style="stroke:#000000;stroke-width:0.8;" x="51.05" xlink:href="#m22d89fe77c" y="352.966364"/>
      </g>
     </g>
     <g id="text_7">
      <!-- 1 -->
      <defs>
       <path d="M 12.40625 8.296875 
L 28.515625 8.296875 
L 28.515625 63.921875 
L 10.984375 60.40625 
L 10.984375 69.390625 
L 28.421875 72.90625 
L 38.28125 72.90625 
L 38.28125 8.296875 
L 54.390625 8.296875 
L 54.390625 0 
L 12.40625 0 
z
" id="DejaVuSans-49"/>
      </defs>
      <g transform="translate(31.325 360.564801)scale(0.2 -0.2)">
       <use xlink:href="#DejaVuSans-49"/>
      </g>
     </g>
    </g>
    <g id="ytick_2">
     <g id="line2d_7">
      <g>
       <use style="stroke:#000000;stroke-width:0.8;" x="51.05" xlink:href="#m22d89fe77c" y="321.482273"/>
      </g>
     </g>
     <g id="text_8">
      <!-- 2 -->
      <g transform="translate(31.325 329.08071)scale(0.2 -0.2)">
       <use xlink:href="#DejaVuSans-50"/>
      </g>
     </g>
    </g>
    <g id="ytick_3">
     <g id="line2d_8">
      <g>
       <use style="stroke:#000000;stroke-width:0.8;" x="51.05" xlink:href="#m22d89fe77c" y="289.998182"/>
      </g>
     </g>
     <g id="text_9">
      <!-- 3 -->
      <defs>
       <path d="M 40.578125 39.3125 
Q 47.65625 37.796875 51.625 33 
Q 55.609375 28.21875 55.609375 21.1875 
Q 55.609375 10.40625 48.1875 4.484375 
Q 40.765625 -1.421875 27.09375 -1.421875 
Q 22.515625 -1.421875 17.65625 -0.515625 
Q 12.796875 0.390625 7.625 2.203125 
L 7.625 11.71875 
Q 11.71875 9.328125 16.59375 8.109375 
Q 21.484375 6.890625 26.8125 6.890625 
Q 36.078125 6.890625 40.9375 10.546875 
Q 45.796875 14.203125 45.796875 21.1875 
Q 45.796875 27.640625 41.28125 31.265625 
Q 36.765625 34.90625 28.71875 34.90625 
L 20.21875 34.90625 
L 20.21875 43.015625 
L 29.109375 43.015625 
Q 36.375 43.015625 40.234375 45.921875 
Q 44.09375 48.828125 44.09375 54.296875 
Q 44.09375 59.90625 40.109375 62.90625 
Q 36.140625 65.921875 28.71875 65.921875 
Q 24.65625 65.921875 20.015625 65.03125 
Q 15.375 64.15625 9.8125 62.3125 
L 9.8125 71.09375 
Q 15.4375 72.65625 20.34375 73.4375 
Q 25.25 74.21875 29.59375 74.21875 
Q 40.828125 74.21875 47.359375 69.109375 
Q 53.90625 64.015625 53.90625 55.328125 
Q 53.90625 49.265625 50.4375 45.09375 
Q 46.96875 40.921875 40.578125 39.3125 
z
" id="DejaVuSans-51"/>
      </defs>
      <g transform="translate(31.325 297.596619)scale(0.2 -0.2)">
       <use xlink:href="#DejaVuSans-51"/>
      </g>
     </g>
    </g>
    <g id="ytick_4">
     <g id="line2d_9">
      <g>
       <use style="stroke:#000000;stroke-width:0.8;" x="51.05" xlink:href="#m22d89fe77c" y="258.514091"/>
      </g>
     </g>
     <g id="text_10">
      <!-- 4 -->
      <g transform="translate(31.325 266.112528)scale(0.2 -0.2)">
       <use xlink:href="#DejaVuSans-52"/>
      </g>
     </g>
    </g>
    <g id="ytick_5">
     <g id="line2d_10">
      <g>
       <use style="stroke:#000000;stroke-width:0.8;" x="51.05" xlink:href="#m22d89fe77c" y="227.03"/>
      </g>
     </g>
     <g id="text_11">
      <!-- 5 -->
      <defs>
       <path d="M 10.796875 72.90625 
L 49.515625 72.90625 
L 49.515625 64.59375 
L 19.828125 64.59375 
L 19.828125 46.734375 
Q 21.96875 47.46875 24.109375 47.828125 
Q 26.265625 48.1875 28.421875 48.1875 
Q 40.625 48.1875 47.75 41.5 
Q 54.890625 34.8125 54.890625 23.390625 
Q 54.890625 11.625 47.5625 5.09375 
Q 40.234375 -1.421875 26.90625 -1.421875 
Q 22.3125 -1.421875 17.546875 -0.640625 
Q 12.796875 0.140625 7.71875 1.703125 
L 7.71875 11.625 
Q 12.109375 9.234375 16.796875 8.0625 
Q 21.484375 6.890625 26.703125 6.890625 
Q 35.15625 6.890625 40.078125 11.328125 
Q 45.015625 15.765625 45.015625 23.390625 
Q 45.015625 31 40.078125 35.4375 
Q 35.15625 39.890625 26.703125 39.890625 
Q 22.75 39.890625 18.8125 39.015625 
Q 14.890625 38.140625 10.796875 36.28125 
z
" id="DejaVuSans-53"/>
      </defs>
      <g transform="translate(31.325 234.628437)scale(0.2 -0.2)">
       <use xlink:href="#DejaVuSans-53"/>
      </g>
     </g>
    </g>
    <g id="ytick_6">
     <g id="line2d_11">
      <g>
       <use style="stroke:#000000;stroke-width:0.8;" x="51.05" xlink:href="#m22d89fe77c" y="195.545909"/>
      </g>
     </g>
     <g id="text_12">
      <!-- 6 -->
      <g transform="translate(31.325 203.144347)scale(0.2 -0.2)">
       <use xlink:href="#DejaVuSans-54"/>
      </g>
     </g>
    </g>
    <g id="ytick_7">
     <g id="line2d_12">
      <g>
       <use style="stroke:#000000;stroke-width:0.8;" x="51.05" xlink:href="#m22d89fe77c" y="164.061818"/>
      </g>
     </g>
     <g id="text_13">
      <!-- 7 -->
      <defs>
       <path d="M 8.203125 72.90625 
L 55.078125 72.90625 
L 55.078125 68.703125 
L 28.609375 0 
L 18.3125 0 
L 43.21875 64.59375 
L 8.203125 64.59375 
z
" id="DejaVuSans-55"/>
      </defs>
      <g transform="translate(31.325 171.660256)scale(0.2 -0.2)">
       <use xlink:href="#DejaVuSans-55"/>
      </g>
     </g>
    </g>
    <g id="ytick_8">
     <g id="line2d_13">
      <g>
       <use style="stroke:#000000;stroke-width:0.8;" x="51.05" xlink:href="#m22d89fe77c" y="132.577727"/>
      </g>
     </g>
     <g id="text_14">
      <!-- 8 -->
      <g transform="translate(31.325 140.176165)scale(0.2 -0.2)">
       <use xlink:href="#DejaVuSans-56"/>
      </g>
     </g>
    </g>
    <g id="ytick_9">
     <g id="line2d_14">
      <g>
       <use style="stroke:#000000;stroke-width:0.8;" x="51.05" xlink:href="#m22d89fe77c" y="101.093636"/>
      </g>
     </g>
     <g id="text_15">
      <!-- 9 -->
      <defs>
       <path d="M 10.984375 1.515625 
L 10.984375 10.5 
Q 14.703125 8.734375 18.5 7.8125 
Q 22.3125 6.890625 25.984375 6.890625 
Q 35.75 6.890625 40.890625 13.453125 
Q 46.046875 20.015625 46.78125 33.40625 
Q 43.953125 29.203125 39.59375 26.953125 
Q 35.25 24.703125 29.984375 24.703125 
Q 19.046875 24.703125 12.671875 31.3125 
Q 6.296875 37.9375 6.296875 49.421875 
Q 6.296875 60.640625 12.9375 67.421875 
Q 19.578125 74.21875 30.609375 74.21875 
Q 43.265625 74.21875 49.921875 64.515625 
Q 56.59375 54.828125 56.59375 36.375 
Q 56.59375 19.140625 48.40625 8.859375 
Q 40.234375 -1.421875 26.421875 -1.421875 
Q 22.703125 -1.421875 18.890625 -0.6875 
Q 15.09375 0.046875 10.984375 1.515625 
z
M 30.609375 32.421875 
Q 37.25 32.421875 41.125 36.953125 
Q 45.015625 41.5 45.015625 49.421875 
Q 45.015625 57.28125 41.125 61.84375 
Q 37.25 66.40625 30.609375 66.40625 
Q 23.96875 66.40625 20.09375 61.84375 
Q 16.21875 57.28125 16.21875 49.421875 
Q 16.21875 41.5 20.09375 36.953125 
Q 23.96875 32.421875 30.609375 32.421875 
z
" id="DejaVuSans-57"/>
      </defs>
      <g transform="translate(31.325 108.692074)scale(0.2 -0.2)">
       <use xlink:href="#DejaVuSans-57"/>
      </g>
     </g>
    </g>
    <g id="text_16">
     <!-- DHEU Value -->
     <defs>
      <path d="M 19.671875 64.796875 
L 19.671875 8.109375 
L 31.59375 8.109375 
Q 46.6875 8.109375 53.6875 14.9375 
Q 60.6875 21.78125 60.6875 36.53125 
Q 60.6875 51.171875 53.6875 57.984375 
Q 46.6875 64.796875 31.59375 64.796875 
z
M 9.8125 72.90625 
L 30.078125 72.90625 
Q 51.265625 72.90625 61.171875 64.09375 
Q 71.09375 55.28125 71.09375 36.53125 
Q 71.09375 17.671875 61.125 8.828125 
Q 51.171875 0 30.078125 0 
L 9.8125 0 
z
" id="DejaVuSans-68"/>
      <path d="M 9.8125 72.90625 
L 19.671875 72.90625 
L 19.671875 43.015625 
L 55.515625 43.015625 
L 55.515625 72.90625 
L 65.375 72.90625 
L 65.375 0 
L 55.515625 0 
L 55.515625 34.71875 
L 19.671875 34.71875 
L 19.671875 0 
L 9.8125 0 
z
" id="DejaVuSans-72"/>
      <path d="M 9.8125 72.90625 
L 55.90625 72.90625 
L 55.90625 64.59375 
L 19.671875 64.59375 
L 19.671875 43.015625 
L 54.390625 43.015625 
L 54.390625 34.71875 
L 19.671875 34.71875 
L 19.671875 8.296875 
L 56.78125 8.296875 
L 56.78125 0 
L 9.8125 0 
z
" id="DejaVuSans-69"/>
      <path d="M 8.6875 72.90625 
L 18.609375 72.90625 
L 18.609375 28.609375 
Q 18.609375 16.890625 22.84375 11.734375 
Q 27.09375 6.59375 36.625 6.59375 
Q 46.09375 6.59375 50.34375 11.734375 
Q 54.59375 16.890625 54.59375 28.609375 
L 54.59375 72.90625 
L 64.5 72.90625 
L 64.5 27.390625 
Q 64.5 13.140625 57.4375 5.859375 
Q 50.390625 -1.421875 36.625 -1.421875 
Q 22.796875 -1.421875 15.734375 5.859375 
Q 8.6875 13.140625 8.6875 27.390625 
z
" id="DejaVuSans-85"/>
      <path d="M 28.609375 0 
L 0.78125 72.90625 
L 11.078125 72.90625 
L 34.1875 11.53125 
L 57.328125 72.90625 
L 67.578125 72.90625 
L 39.796875 0 
z
" id="DejaVuSans-86"/>
      <path d="M 9.421875 75.984375 
L 18.40625 75.984375 
L 18.40625 0 
L 9.421875 0 
z
" id="DejaVuSans-108"/>
      <path d="M 8.5 21.578125 
L 8.5 54.6875 
L 17.484375 54.6875 
L 17.484375 21.921875 
Q 17.484375 14.15625 20.5 10.265625 
Q 23.53125 6.390625 29.59375 6.390625 
Q 36.859375 6.390625 41.078125 11.03125 
Q 45.3125 15.671875 45.3125 23.6875 
L 45.3125 54.6875 
L 54.296875 54.6875 
L 54.296875 0 
L 45.3125 0 
L 45.3125 8.40625 
Q 42.046875 3.421875 37.71875 1 
Q 33.40625 -1.421875 27.6875 -1.421875 
Q 18.265625 -1.421875 13.375 4.4375 
Q 8.5 10.296875 8.5 21.578125 
z
M 31.109375 56 
z
" id="DejaVuSans-117"/>
     </defs>
     <g transform="translate(23.858854 277.24875)rotate(-90)scale(0.166667 -0.166667)">
      <use xlink:href="#DejaVuSans-68"/>
      <use x="77.001953" xlink:href="#DejaVuSans-72"/>
      <use x="152.197266" xlink:href="#DejaVuSans-69"/>
      <use x="215.380859" xlink:href="#DejaVuSans-85"/>
      <use x="288.574219" xlink:href="#DejaVuSans-32"/>
      <use x="320.361328" xlink:href="#DejaVuSans-86"/>
      <use x="388.660156" xlink:href="#DejaVuSans-97"/>
      <use x="449.939453" xlink:href="#DejaVuSans-108"/>
      <use x="477.722656" xlink:href="#DejaVuSans-117"/>
      <use x="541.101562" xlink:href="#DejaVuSans-101"/>
     </g>
    </g>
   </g>
   <g id="line2d_15">
    <path clip-path="url(#p874da9a1e3)" d="M 72.784091 185.051212 
L 77.408366 185.051212 
L 82.03264 185.051319 
L 86.656915 185.051627 
L 91.28119 185.050187 
L 95.905464 185.048505 
L 100.529739 185.0377 
L 105.154014 185.039783 
L 109.778288 185.051114 
L 114.402563 185.049261 
L 119.026838 185.026799 
L 123.651112 185.058158 
L 128.275387 185.058747 
L 132.899662 185.052871 
L 137.523936 185.048853 
L 142.148211 185.048708 
L 146.772485 185.051311 
L 151.39676 185.050357 
L 156.021035 185.044993 
L 160.645309 185.049882 
L 165.269584 185.048908 
L 169.893859 185.050102 
L 174.518133 185.049143 
L 179.142408 185.049909 
L 183.766683 185.049499 
L 188.390957 185.051104 
L 193.015232 185.051895 
L 197.639507 185.05042 
L 202.263781 185.049552 
L 206.888056 185.050821 
L 211.512331 185.050881 
L 216.136605 185.050533 
L 220.76088 185.051166 
L 225.385155 185.051519 
L 230.009429 185.052268 
L 234.633704 185.051301 
L 239.257979 185.050555 
L 243.882253 185.051178 
L 248.506528 185.050379 
L 253.130803 185.050934 
L 257.755077 185.050653 
L 262.379352 185.0505 
L 267.003627 185.051121 
L 271.627901 185.051587 
L 276.252176 185.051176 
L 280.876451 185.050523 
L 285.500725 185.04986 
L 290.125 185.051291 
L 294.749275 185.051207 
L 299.373549 185.051395 
L 303.997824 185.052541 
L 308.622099 185.051877 
L 313.246373 185.053047 
L 317.870648 185.054146 
L 322.494923 185.053073 
L 327.119197 185.051491 
L 331.743472 185.052771 
L 336.367747 185.051792 
L 340.992021 185.052668 
L 345.616296 185.053653 
L 350.240571 185.051893 
L 354.864845 185.050167 
L 359.48912 185.048255 
L 364.113395 185.049819 
L 368.737669 185.050043 
L 373.361944 185.052956 
L 377.986219 185.052308 
L 382.610493 185.05127 
L 387.234768 185.051618 
L 391.859043 185.04896 
L 396.483317 185.051538 
L 401.107592 185.049195 
L 405.731867 185.051414 
L 410.356141 185.052313 
L 414.980416 185.052244 
L 419.604691 185.053146 
L 424.228965 185.053224 
L 428.85324 185.048606 
L 433.477515 185.048213 
L 438.101789 185.048929 
L 442.726064 185.047661 
L 447.350338 185.049741 
L 451.974613 185.052817 
L 456.598888 185.054117 
L 461.223162 185.056601 
L 465.847437 185.050017 
L 470.471712 185.050598 
L 475.095986 185.051597 
L 479.720261 185.052159 
L 484.344536 185.048129 
L 488.96881 185.048101 
L 493.593085 185.054666 
L 498.21736 185.051016 
L 502.841634 185.047781 
L 507.465909 185.047781 
" style="fill:none;stroke:#1f77b4;stroke-linecap:square;stroke-width:1.5;"/>
   </g>
   <g id="line2d_16">
    <path clip-path="url(#p874da9a1e3)" d="M 72.784091 269.008788 
L 77.408366 269.008788 
L 82.03264 269.008635 
L 86.656915 268.99473 
L 91.28119 268.99773 
L 95.905464 268.984808 
L 100.529739 268.96599 
L 105.154014 268.971369 
L 109.778288 268.97928 
L 114.402563 269.011719 
L 119.026838 269.006964 
L 123.651112 269.013299 
L 128.275387 269.008791 
L 132.899662 269.009907 
L 137.523936 269.013946 
L 142.148211 269.008688 
L 146.772485 269.011626 
L 151.39676 269.01506 
L 156.021035 269.014564 
L 160.645309 269.013061 
L 165.269584 269.008539 
L 169.893859 269.011933 
L 174.518133 269.012652 
L 179.142408 269.01323 
L 183.766683 269.014132 
L 188.390957 269.013993 
L 193.015232 269.011443 
L 197.639507 269.013288 
L 202.263781 269.014679 
L 206.888056 269.0134 
L 211.512331 269.013477 
L 216.136605 269.013295 
L 220.76088 269.013344 
L 225.385155 269.008852 
L 230.009429 269.010228 
L 234.633704 269.008595 
L 239.257979 269.009162 
L 243.882253 269.010119 
L 248.506528 269.009435 
L 253.130803 269.009791 
L 257.755077 269.00927 
L 262.379352 269.007564 
L 267.003627 269.009714 
L 271.627901 269.010321 
L 276.252176 269.01003 
L 280.876451 269.011195 
L 285.500725 269.010487 
L 290.125 269.010737 
L 294.749275 269.010357 
L 299.373549 269.011375 
L 303.997824 269.011281 
L 308.622099 269.011929 
L 313.246373 269.010663 
L 317.870648 269.00951 
L 322.494923 269.01079 
L 327.119197 269.009756 
L 331.743472 269.010197 
L 336.367747 269.01026 
L 340.992021 269.009497 
L 345.616296 269.009907 
L 350.240571 269.011856 
L 354.864845 269.009932 
L 359.48912 269.009842 
L 364.113395 269.006881 
L 368.737669 269.007732 
L 373.361944 269.009125 
L 377.986219 269.009584 
L 382.610493 269.009677 
L 387.234768 269.007891 
L 391.859043 269.008734 
L 396.483317 269.008698 
L 401.107592 269.006532 
L 405.731867 269.006772 
L 410.356141 269.011787 
L 414.980416 269.01266 
L 419.604691 269.011015 
L 424.228965 269.01017 
L 428.85324 269.010798 
L 433.477515 269.011964 
L 438.101789 269.011104 
L 442.726064 269.010644 
L 447.350338 269.011376 
L 451.974613 269.011344 
L 456.598888 269.00854 
L 461.223162 269.014556 
L 465.847437 269.020277 
L 470.471712 269.016754 
L 475.095986 269.017254 
L 479.720261 269.017534 
L 484.344536 269.009476 
L 488.96881 269.014457 
L 493.593085 269.008732 
L 498.21736 269.007681 
L 502.841634 268.993047 
L 507.465909 268.993047 
" style="fill:none;stroke:#ff7f0e;stroke-linecap:square;stroke-width:1.5;"/>
   </g>
   <g id="line2d_17">
    <path clip-path="url(#p874da9a1e3)" d="M 72.784091 269.008788 
L 77.408366 269.008788 
L 82.03264 269.008345 
L 86.656915 269.00802 
L 91.28119 269.007501 
L 95.905464 269.005968 
L 100.529739 268.99951 
L 105.154014 268.989081 
L 109.778288 268.9976 
L 114.402563 268.998343 
L 119.026838 269.001201 
L 123.651112 269.005355 
L 128.275387 269.000318 
L 132.899662 269.004557 
L 137.523936 268.999468 
L 142.148211 269.007076 
L 146.772485 269.002662 
L 151.39676 269.005978 
L 156.021035 269.004596 
L 160.645309 269.004658 
L 165.269584 269.005385 
L 169.893859 269.00602 
L 174.518133 269.006913 
L 179.142408 269.008034 
L 183.766683 269.009002 
L 188.390957 269.010076 
L 193.015232 269.011371 
L 197.639507 269.01039 
L 202.263781 269.01024 
L 206.888056 269.01046 
L 211.512331 269.009479 
L 216.136605 269.01009 
L 220.76088 269.009706 
L 225.385155 269.008653 
L 230.009429 269.009798 
L 234.633704 269.009338 
L 239.257979 269.00878 
L 243.882253 269.009029 
L 248.506528 269.009886 
L 253.130803 269.009825 
L 257.755077 269.010836 
L 262.379352 269.010801 
L 267.003627 269.011648 
L 271.627901 269.012246 
L 276.252176 269.010797 
L 280.876451 269.010966 
L 285.500725 269.009602 
L 290.125 269.010232 
L 294.749275 269.008803 
L 299.373549 269.008498 
L 303.997824 269.008656 
L 308.622099 269.009908 
L 313.246373 269.009034 
L 317.870648 269.00876 
L 322.494923 269.008268 
L 327.119197 269.007948 
L 331.743472 269.007563 
L 336.367747 269.007827 
L 340.992021 269.008811 
L 345.616296 269.00879 
L 350.240571 269.008912 
L 354.864845 269.008821 
L 359.48912 269.009271 
L 364.113395 269.007423 
L 368.737669 269.010292 
L 373.361944 269.010787 
L 377.986219 269.010535 
L 382.610493 269.008206 
L 387.234768 269.01002 
L 391.859043 269.012549 
L 396.483317 269.013326 
L 401.107592 269.010377 
L 405.731867 269.009397 
L 410.356141 269.010026 
L 414.980416 269.012402 
L 419.604691 269.008703 
L 424.228965 269.012171 
L 428.85324 269.011694 
L 433.477515 269.009198 
L 438.101789 269.007808 
L 442.726064 269.007602 
L 447.350338 269.009521 
L 451.974613 269.008977 
L 456.598888 269.008739 
L 461.223162 269.00849 
L 465.847437 269.014359 
L 470.471712 269.014359 
L 475.095986 269.016548 
L 479.720261 269.015139 
L 484.344536 269.007081 
L 488.96881 269.007067 
L 493.593085 269.007067 
L 498.21736 269.002415 
L 502.841634 268.992484 
L 507.465909 268.992484 
" style="fill:none;stroke:#2ca02c;stroke-linecap:square;stroke-width:1.5;"/>
   </g>
   <g id="line2d_18">
    <path clip-path="url(#p874da9a1e3)" d="M 72.784091 352.966364 
L 77.408366 352.966364 
L 82.03264 352.966311 
L 86.656915 352.966332 
L 91.28119 352.966318 
L 95.905464 352.965858 
L 100.529739 352.965075 
L 105.154014 352.964873 
L 109.778288 352.964551 
L 114.402563 352.963639 
L 119.026838 352.962945 
L 123.651112 352.962708 
L 128.275387 352.962433 
L 132.899662 352.961906 
L 137.523936 352.960888 
L 142.148211 352.960952 
L 146.772485 352.960892 
L 151.39676 352.960566 
L 156.021035 352.959799 
L 160.645309 352.960157 
L 165.269584 352.960463 
L 169.893859 352.959681 
L 174.518133 352.959962 
L 179.142408 352.960082 
L 183.766683 352.960541 
L 188.390957 352.960266 
L 193.015232 352.959562 
L 197.639507 352.959317 
L 202.263781 352.959508 
L 206.888056 352.959636 
L 211.512331 352.95996 
L 216.136605 352.96005 
L 220.76088 352.960144 
L 225.385155 352.960281 
L 230.009429 352.960847 
L 234.633704 352.961832 
L 239.257979 352.962241 
L 243.882253 352.961848 
L 248.506528 352.961878 
L 253.130803 352.961821 
L 257.755077 352.961347 
L 262.379352 352.961679 
L 267.003627 352.961626 
L 271.627901 352.962013 
L 276.252176 352.962559 
L 280.876451 352.96223 
L 285.500725 352.962068 
L 290.125 352.962146 
L 294.749275 352.96209 
L 299.373549 352.962323 
L 303.997824 352.962421 
L 308.622099 352.962611 
L 313.246373 352.961784 
L 317.870648 352.961615 
L 322.494923 352.961438 
L 327.119197 352.961562 
L 331.743472 352.961302 
L 336.367747 352.961773 
L 340.992021 352.961818 
L 345.616296 352.961963 
L 350.240571 352.961803 
L 354.864845 352.961798 
L 359.48912 352.962215 
L 364.113395 352.962735 
L 368.737669 352.962747 
L 373.361944 352.962847 
L 377.986219 352.96301 
L 382.610493 352.964167 
L 387.234768 352.965295 
L 391.859043 352.965138 
L 396.483317 352.965128 
L 401.107592 352.964763 
L 405.731867 352.964082 
L 410.356141 352.96385 
L 414.980416 352.963799 
L 419.604691 352.963253 
L 424.228965 352.964537 
L 428.85324 352.964438 
L 433.477515 352.964284 
L 438.101789 352.964348 
L 442.726064 352.964394 
L 447.350338 352.963853 
L 451.974613 352.963853 
L 456.598888 352.965262 
L 461.223162 352.965262 
L 465.847437 352.965266 
L 470.471712 352.965266 
L 475.095986 352.965266 
L 479.720261 352.965266 
L 484.344536 352.965266 
L 488.96881 352.965266 
L 493.593085 352.965266 
L 498.21736 352.965266 
L 502.841634 352.966364 
L 507.465909 352.966364 
" style="fill:none;stroke:#d62728;stroke-linecap:square;stroke-width:1.5;"/>
   </g>
   <g id="line2d_19">
    <path clip-path="url(#p874da9a1e3)" d="M 72.784091 352.966364 
L 77.408366 352.966364 
L 82.03264 352.966364 
L 86.656915 352.96573 
L 91.28119 352.965414 
L 95.905464 352.963972 
L 100.529739 352.963506 
L 105.154014 352.963976 
L 109.778288 352.963809 
L 114.402563 352.96269 
L 119.026838 352.962366 
L 123.651112 352.962467 
L 128.275387 352.961793 
L 132.899662 352.960773 
L 137.523936 352.960016 
L 142.148211 352.95974 
L 146.772485 352.959008 
L 151.39676 352.959652 
L 156.021035 352.95918 
L 160.645309 352.958222 
L 165.269584 352.958003 
L 169.893859 352.957007 
L 174.518133 352.957782 
L 179.142408 352.958307 
L 183.766683 352.957976 
L 188.390957 352.958468 
L 193.015232 352.958604 
L 197.639507 352.958323 
L 202.263781 352.958759 
L 206.888056 352.958648 
L 211.512331 352.958482 
L 216.136605 352.958584 
L 220.76088 352.95814 
L 225.385155 352.957977 
L 230.009429 352.9577 
L 234.633704 352.957285 
L 239.257979 352.957099 
L 243.882253 352.957553 
L 248.506528 352.956904 
L 253.130803 352.957212 
L 257.755077 352.95871 
L 262.379352 352.959054 
L 267.003627 352.959156 
L 271.627901 352.959202 
L 276.252176 352.959151 
L 280.876451 352.959225 
L 285.500725 352.95901 
L 290.125 352.95926 
L 294.749275 352.958744 
L 299.373549 352.959805 
L 303.997824 352.960564 
L 308.622099 352.96054 
L 313.246373 352.959526 
L 317.870648 352.960196 
L 322.494923 352.960449 
L 327.119197 352.959695 
L 331.743472 352.959573 
L 336.367747 352.959228 
L 340.992021 352.960025 
L 345.616296 352.960946 
L 350.240571 352.961035 
L 354.864845 352.961075 
L 359.48912 352.960334 
L 364.113395 352.958984 
L 368.737669 352.959302 
L 373.361944 352.959863 
L 377.986219 352.959872 
L 382.610493 352.959353 
L 387.234768 352.958212 
L 391.859043 352.959384 
L 396.483317 352.959488 
L 401.107592 352.960088 
L 405.731867 352.960706 
L 410.356141 352.962153 
L 414.980416 352.962398 
L 419.604691 352.961874 
L 424.228965 352.96161 
L 428.85324 352.962327 
L 433.477515 352.963638 
L 438.101789 352.962731 
L 442.726064 352.96326 
L 447.350338 352.96414 
L 451.974613 352.96414 
L 456.598888 352.963404 
L 461.223162 352.963404 
L 465.847437 352.966364 
L 470.471712 352.966364 
L 475.095986 352.966364 
L 479.720261 352.966364 
L 484.344536 352.954276 
L 488.96881 352.954276 
L 493.593085 352.954276 
L 498.21736 352.954276 
L 502.841634 352.942189 
L 507.465909 352.947552 
" style="fill:none;stroke:#9467bd;stroke-linecap:square;stroke-width:1.5;"/>
   </g>
   <g id="line2d_20">
    <path clip-path="url(#p874da9a1e3)" d="M 72.784091 185.051212 
L 77.408366 185.051212 
L 82.03264 185.049524 
L 86.656915 185.048505 
L 91.28119 185.046466 
L 95.905464 185.044221 
L 100.529739 185.03072 
L 105.154014 185.032434 
L 109.778288 185.042588 
L 114.402563 185.040836 
L 119.026838 185.016856 
L 123.651112 185.046112 
L 128.275387 185.046663 
L 132.899662 185.043689 
L 137.523936 185.042797 
L 142.148211 185.044862 
L 146.772485 185.046054 
L 151.39676 185.046796 
L 156.021035 185.039997 
L 160.645309 185.046993 
L 165.269584 185.046763 
L 169.893859 185.048417 
L 174.518133 185.049413 
L 179.142408 185.050847 
L 183.766683 185.051147 
L 188.390957 185.051744 
L 193.015232 185.051227 
L 197.639507 185.050605 
L 202.263781 185.050148 
L 206.888056 185.049749 
L 211.512331 185.050066 
L 216.136605 185.048975 
L 220.76088 185.049786 
L 225.385155 185.049696 
L 230.009429 185.051143 
L 234.633704 185.05093 
L 239.257979 185.052142 
L 243.882253 185.052118 
L 248.506528 185.051245 
L 253.130803 185.050999 
L 257.755077 185.051845 
L 262.379352 185.050595 
L 267.003627 185.051177 
L 271.627901 185.051662 
L 276.252176 185.051295 
L 280.876451 185.05121 
L 285.500725 185.050737 
L 290.125 185.051069 
L 294.749275 185.05197 
L 299.373549 185.052505 
L 303.997824 185.053152 
L 308.622099 185.053255 
L 313.246373 185.051788 
L 317.870648 185.053601 
L 322.494923 185.050934 
L 327.119197 185.051069 
L 331.743472 185.051236 
L 336.367747 185.051896 
L 340.992021 185.052328 
L 345.616296 185.053606 
L 350.240571 185.053799 
L 354.864845 185.05138 
L 359.48912 185.049179 
L 364.113395 185.04843 
L 368.737669 185.050889 
L 373.361944 185.051326 
L 377.986219 185.052589 
L 382.610493 185.052261 
L 387.234768 185.051619 
L 391.859043 185.052646 
L 396.483317 185.056107 
L 401.107592 185.053001 
L 405.731867 185.049123 
L 410.356141 185.052049 
L 414.980416 185.052982 
L 419.604691 185.052535 
L 424.228965 185.055306 
L 428.85324 185.053322 
L 433.477515 185.049765 
L 438.101789 185.051259 
L 442.726064 185.05132 
L 447.350338 185.049335 
L 451.974613 185.052286 
L 456.598888 185.055419 
L 461.223162 185.053723 
L 465.847437 185.056417 
L 470.471712 185.056417 
L 475.095986 185.057416 
L 479.720261 185.057977 
L 484.344536 185.064845 
L 488.96881 185.060226 
L 493.593085 185.060226 
L 498.21736 185.053887 
L 502.841634 185.046921 
L 507.465909 185.046921 
" style="fill:none;stroke:#8c564b;stroke-linecap:square;stroke-width:1.5;"/>
   </g>
   <g id="line2d_21">
    <path clip-path="url(#p874da9a1e3)" d="M 72.784091 269.008788 
L 77.408366 269.008788 
L 82.03264 269.008257 
L 86.656915 269.007342 
L 91.28119 269.005726 
L 95.905464 269.003719 
L 100.529739 268.989145 
L 105.154014 268.997269 
L 109.778288 269.002305 
L 114.402563 268.993936 
L 119.026838 269.001209 
L 123.651112 269.00003 
L 128.275387 268.994796 
L 132.899662 268.99785 
L 137.523936 269.001893 
L 142.148211 269.002527 
L 146.772485 269.002571 
L 151.39676 269.003922 
L 156.021035 269.005148 
L 160.645309 269.003744 
L 165.269584 269.003461 
L 169.893859 269.002802 
L 174.518133 269.003308 
L 179.142408 269.003489 
L 183.766683 269.005238 
L 188.390957 269.006195 
L 193.015232 269.005453 
L 197.639507 269.00594 
L 202.263781 269.004368 
L 206.888056 269.003458 
L 211.512331 269.005008 
L 216.136605 269.005683 
L 220.76088 269.007114 
L 225.385155 269.006347 
L 230.009429 269.007387 
L 234.633704 269.007428 
L 239.257979 269.008559 
L 243.882253 269.008584 
L 248.506528 269.008902 
L 253.130803 269.008724 
L 257.755077 269.008079 
L 262.379352 269.008015 
L 267.003627 269.009235 
L 271.627901 269.009743 
L 276.252176 269.009803 
L 280.876451 269.009403 
L 285.500725 269.007515 
L 290.125 269.007945 
L 294.749275 269.007116 
L 299.373549 269.007933 
L 303.997824 269.008678 
L 308.622099 269.007819 
L 313.246373 269.006904 
L 317.870648 269.006963 
L 322.494923 269.007878 
L 327.119197 269.007278 
L 331.743472 269.006236 
L 336.367747 269.006822 
L 340.992021 269.007336 
L 345.616296 269.009163 
L 350.240571 269.009922 
L 354.864845 269.008713 
L 359.48912 269.008302 
L 364.113395 269.007583 
L 368.737669 269.011289 
L 373.361944 269.009709 
L 377.986219 269.007639 
L 382.610493 269.005405 
L 387.234768 269.003898 
L 391.859043 269.008085 
L 396.483317 269.009918 
L 401.107592 269.012069 
L 405.731867 269.014772 
L 410.356141 269.016783 
L 414.980416 269.014931 
L 419.604691 269.011932 
L 424.228965 269.012651 
L 428.85324 269.009019 
L 433.477515 269.00788 
L 438.101789 269.007984 
L 442.726064 269.007059 
L 447.350338 269.008043 
L 451.974613 269.010241 
L 456.598888 269.007947 
L 461.223162 269.007698 
L 465.847437 269.008594 
L 470.471712 269.008493 
L 475.095986 269.008993 
L 479.720261 269.006943 
L 484.344536 269.002003 
L 488.96881 269.001989 
L 493.593085 269.006503 
L 498.21736 269.002415 
L 502.841634 268.992484 
L 507.465909 268.992484 
" style="fill:none;stroke:#e377c2;stroke-linecap:square;stroke-width:1.5;"/>
   </g>
   <g id="line2d_22">
    <path clip-path="url(#p874da9a1e3)" d="M 72.784091 269.008788 
L 77.408366 269.008788 
L 82.03264 269.008373 
L 86.656915 268.993563 
L 91.28119 268.972002 
L 95.905464 268.997874 
L 100.529739 268.982233 
L 105.154014 268.991628 
L 109.778288 269.002453 
L 114.402563 269.000365 
L 119.026838 269.002715 
L 123.651112 269.008345 
L 128.275387 268.994261 
L 132.899662 269.003795 
L 137.523936 269.001326 
L 142.148211 269.007446 
L 146.772485 269.007304 
L 151.39676 269.007557 
L 156.021035 269.007962 
L 160.645309 269.003058 
L 165.269584 269.007238 
L 169.893859 269.006566 
L 174.518133 269.006564 
L 179.142408 269.006998 
L 183.766683 269.007305 
L 188.390957 269.007126 
L 193.015232 269.004544 
L 197.639507 269.007412 
L 202.263781 269.007351 
L 206.888056 269.006619 
L 211.512331 269.007705 
L 216.136605 269.007444 
L 220.76088 269.006056 
L 225.385155 269.006637 
L 230.009429 269.007409 
L 234.633704 269.008279 
L 239.257979 269.008656 
L 243.882253 269.008462 
L 248.506528 269.00753 
L 253.130803 269.007534 
L 257.755077 269.008628 
L 262.379352 269.007599 
L 267.003627 269.008395 
L 271.627901 269.008317 
L 276.252176 269.007988 
L 280.876451 269.007542 
L 285.500725 269.007293 
L 290.125 269.007835 
L 294.749275 269.008374 
L 299.373549 269.009709 
L 303.997824 269.011091 
L 308.622099 269.010609 
L 313.246373 269.008834 
L 317.870648 269.009383 
L 322.494923 269.008253 
L 327.119197 269.007443 
L 331.743472 269.007996 
L 336.367747 269.007883 
L 340.992021 269.007057 
L 345.616296 269.006587 
L 350.240571 269.007293 
L 354.864845 269.007529 
L 359.48912 269.007289 
L 364.113395 269.00673 
L 368.737669 269.007108 
L 373.361944 269.00764 
L 377.986219 269.007136 
L 382.610493 269.007597 
L 387.234768 269.007786 
L 391.859043 269.008896 
L 396.483317 269.009658 
L 401.107592 269.009342 
L 405.731867 269.007981 
L 410.356141 269.008863 
L 414.980416 269.011864 
L 419.604691 269.011519 
L 424.228965 269.011785 
L 428.85324 269.012775 
L 433.477515 269.010463 
L 438.101789 269.008572 
L 442.726064 269.010704 
L 447.350338 269.009046 
L 451.974613 269.006854 
L 456.598888 269.007796 
L 461.223162 269.008656 
L 465.847437 269.015455 
L 470.471712 269.015455 
L 475.095986 269.015954 
L 479.720261 269.016234 
L 484.344536 269.008176 
L 488.96881 269.008212 
L 493.593085 269.008212 
L 498.21736 269.008651 
L 502.841634 268.996627 
L 507.465909 268.996627 
" style="fill:none;stroke:#7f7f7f;stroke-linecap:square;stroke-width:1.5;"/>
   </g>
   <g id="line2d_23">
    <path clip-path="url(#p874da9a1e3)" d="M 72.784091 101.093636 
L 77.408366 101.093636 
L 82.03264 101.093636 
L 86.656915 101.093636 
L 91.28119 101.093636 
L 95.905464 101.093636 
L 100.529739 101.093636 
L 105.154014 101.093636 
L 109.778288 101.093636 
L 114.402563 101.093636 
L 119.026838 101.093636 
L 123.651112 101.093636 
L 128.275387 101.093636 
L 132.899662 101.093636 
L 137.523936 101.093636 
L 142.148211 101.093636 
L 146.772485 101.093636 
L 151.39676 101.093636 
L 156.021035 101.093636 
L 160.645309 101.093636 
L 165.269584 101.093636 
L 169.893859 101.093636 
L 174.518133 101.093636 
L 179.142408 101.093636 
L 183.766683 101.093636 
L 188.390957 101.093636 
L 193.015232 101.093636 
L 197.639507 101.093636 
L 202.263781 101.093636 
L 206.888056 101.093636 
L 211.512331 101.093636 
L 216.136605 101.093636 
L 220.76088 101.093636 
L 225.385155 101.093636 
L 230.009429 101.093636 
L 234.633704 101.093636 
L 239.257979 101.093636 
L 243.882253 101.093636 
L 248.506528 101.093636 
L 253.130803 101.093636 
L 257.755077 101.093636 
L 262.379352 101.093636 
L 267.003627 101.093636 
L 271.627901 101.093636 
L 276.252176 101.093636 
L 280.876451 101.093636 
L 285.500725 101.093636 
L 290.125 101.093636 
L 294.749275 101.093636 
L 299.373549 101.093636 
L 303.997824 101.093636 
L 308.622099 101.093636 
L 313.246373 101.093636 
L 317.870648 101.093636 
L 322.494923 101.093636 
L 327.119197 101.093636 
L 331.743472 101.093636 
L 336.367747 101.093636 
L 340.992021 101.093636 
L 345.616296 101.093636 
L 350.240571 101.093636 
L 354.864845 101.093636 
L 359.48912 101.093636 
L 364.113395 101.093636 
L 368.737669 101.093636 
L 373.361944 101.093636 
L 377.986219 101.093636 
L 382.610493 101.093636 
L 387.234768 101.093636 
L 391.859043 101.093636 
L 396.483317 101.093636 
L 401.107592 101.093636 
L 405.731867 101.093636 
L 410.356141 101.093636 
L 414.980416 101.093636 
L 419.604691 101.093636 
L 424.228965 101.093636 
L 428.85324 101.093636 
L 433.477515 101.093636 
L 438.101789 101.093636 
L 442.726064 101.093636 
L 447.350338 101.093636 
L 451.974613 101.093636 
L 456.598888 101.093636 
L 461.223162 101.093636 
L 465.847437 101.093636 
L 470.471712 101.093636 
L 475.095986 101.093636 
L 479.720261 101.093636 
L 484.344536 101.093636 
L 488.96881 101.093636 
L 493.593085 101.093636 
L 498.21736 101.093636 
L 502.841634 101.093636 
L 507.465909 101.093636 
" style="fill:none;stroke:#bcbd22;stroke-linecap:square;stroke-width:1.5;"/>
   </g>
   <g id="patch_3">
    <path d="M 51.05 365.56 
L 51.05 88.5 
" style="fill:none;stroke:#000000;stroke-linecap:square;stroke-linejoin:miter;stroke-width:0.8;"/>
   </g>
   <g id="patch_4">
    <path d="M 529.2 365.56 
L 529.2 88.5 
" style="fill:none;stroke:#000000;stroke-linecap:square;stroke-linejoin:miter;stroke-width:0.8;"/>
   </g>
   <g id="patch_5">
    <path d="M 51.05 365.56 
L 529.2 365.56 
" style="fill:none;stroke:#000000;stroke-linecap:square;stroke-linejoin:miter;stroke-width:0.8;"/>
   </g>
   <g id="patch_6">
    <path d="M 51.05 88.5 
L 529.2 88.5 
" style="fill:none;stroke:#000000;stroke-linecap:square;stroke-linejoin:miter;stroke-width:0.8;"/>
   </g>
   <g id="legend_1">
    <g id="patch_7">
     <path d="M 61.55 81 
L 518.7 81 
Q 521.7 81 521.7 78 
L 521.7 13.448438 
Q 521.7 10.448438 518.7 10.448438 
L 61.55 10.448438 
Q 58.55 10.448438 58.55 13.448438 
L 58.55 78 
Q 58.55 81 61.55 81 
z
" style="fill:#ffffff;opacity:0.8;stroke:#cccccc;stroke-linejoin:miter;"/>
    </g>
    <g id="line2d_24">
     <path d="M 64.55 22.596094 
L 94.55 22.596094 
" style="fill:none;stroke:#1f77b4;stroke-linecap:square;stroke-width:1.5;"/>
    </g>
    <g id="line2d_25"/>
    <g id="text_17">
     <!-- Stra 1 -->
     <defs>
      <path d="M 53.515625 70.515625 
L 53.515625 60.890625 
Q 47.90625 63.578125 42.921875 64.890625 
Q 37.9375 66.21875 33.296875 66.21875 
Q 25.25 66.21875 20.875 63.09375 
Q 16.5 59.96875 16.5 54.203125 
Q 16.5 49.359375 19.40625 46.890625 
Q 22.3125 44.4375 30.421875 42.921875 
L 36.375 41.703125 
Q 47.40625 39.59375 52.65625 34.296875 
Q 57.90625 29 57.90625 20.125 
Q 57.90625 9.515625 50.796875 4.046875 
Q 43.703125 -1.421875 29.984375 -1.421875 
Q 24.8125 -1.421875 18.96875 -0.25 
Q 13.140625 0.921875 6.890625 3.21875 
L 6.890625 13.375 
Q 12.890625 10.015625 18.65625 8.296875 
Q 24.421875 6.59375 29.984375 6.59375 
Q 38.421875 6.59375 43.015625 9.90625 
Q 47.609375 13.234375 47.609375 19.390625 
Q 47.609375 24.75 44.3125 27.78125 
Q 41.015625 30.8125 33.5 32.328125 
L 27.484375 33.5 
Q 16.453125 35.6875 11.515625 40.375 
Q 6.59375 45.0625 6.59375 53.421875 
Q 6.59375 63.09375 13.40625 68.65625 
Q 20.21875 74.21875 32.171875 74.21875 
Q 37.3125 74.21875 42.625 73.28125 
Q 47.953125 72.359375 53.515625 70.515625 
z
" id="DejaVuSans-83"/>
      <path d="M 18.3125 70.21875 
L 18.3125 54.6875 
L 36.8125 54.6875 
L 36.8125 47.703125 
L 18.3125 47.703125 
L 18.3125 18.015625 
Q 18.3125 11.328125 20.140625 9.421875 
Q 21.96875 7.515625 27.59375 7.515625 
L 36.8125 7.515625 
L 36.8125 0 
L 27.59375 0 
Q 17.1875 0 13.234375 3.875 
Q 9.28125 7.765625 9.28125 18.015625 
L 9.28125 47.703125 
L 2.6875 47.703125 
L 2.6875 54.6875 
L 9.28125 54.6875 
L 9.28125 70.21875 
z
" id="DejaVuSans-116"/>
      <path d="M 41.109375 46.296875 
Q 39.59375 47.171875 37.8125 47.578125 
Q 36.03125 48 33.890625 48 
Q 26.265625 48 22.1875 43.046875 
Q 18.109375 38.09375 18.109375 28.8125 
L 18.109375 0 
L 9.078125 0 
L 9.078125 54.6875 
L 18.109375 54.6875 
L 18.109375 46.1875 
Q 20.953125 51.171875 25.484375 53.578125 
Q 30.03125 56 36.53125 56 
Q 37.453125 56 38.578125 55.875 
Q 39.703125 55.765625 41.0625 55.515625 
z
" id="DejaVuSans-114"/>
     </defs>
     <g transform="translate(106.55 27.846094)scale(0.15 -0.15)">
      <use xlink:href="#DejaVuSans-83"/>
      <use x="63.476562" xlink:href="#DejaVuSans-116"/>
      <use x="102.685547" xlink:href="#DejaVuSans-114"/>
      <use x="143.798828" xlink:href="#DejaVuSans-97"/>
      <use x="205.078125" xlink:href="#DejaVuSans-32"/>
      <use x="236.865234" xlink:href="#DejaVuSans-49"/>
     </g>
    </g>
    <g id="line2d_26">
     <path d="M 64.55 44.613281 
L 94.55 44.613281 
" style="fill:none;stroke:#ff7f0e;stroke-linecap:square;stroke-width:1.5;"/>
    </g>
    <g id="line2d_27"/>
    <g id="text_18">
     <!-- Stra 2 -->
     <g transform="translate(106.55 49.863281)scale(0.15 -0.15)">
      <use xlink:href="#DejaVuSans-83"/>
      <use x="63.476562" xlink:href="#DejaVuSans-116"/>
      <use x="102.685547" xlink:href="#DejaVuSans-114"/>
      <use x="143.798828" xlink:href="#DejaVuSans-97"/>
      <use x="205.078125" xlink:href="#DejaVuSans-32"/>
      <use x="236.865234" xlink:href="#DejaVuSans-50"/>
     </g>
    </g>
    <g id="line2d_28">
     <path d="M 64.55 66.630469 
L 94.55 66.630469 
" style="fill:none;stroke:#2ca02c;stroke-linecap:square;stroke-width:1.5;"/>
    </g>
    <g id="line2d_29"/>
    <g id="text_19">
     <!-- Stra 3 -->
     <g transform="translate(106.55 71.880469)scale(0.15 -0.15)">
      <use xlink:href="#DejaVuSans-83"/>
      <use x="63.476562" xlink:href="#DejaVuSans-116"/>
      <use x="102.685547" xlink:href="#DejaVuSans-114"/>
      <use x="143.798828" xlink:href="#DejaVuSans-97"/>
      <use x="205.078125" xlink:href="#DejaVuSans-32"/>
      <use x="236.865234" xlink:href="#DejaVuSans-51"/>
     </g>
    </g>
    <g id="line2d_30">
     <path d="M 185.909115 22.596094 
L 215.909115 22.596094 
" style="fill:none;stroke:#d62728;stroke-linecap:square;stroke-width:1.5;"/>
    </g>
    <g id="line2d_31"/>
    <g id="text_20">
     <!-- Stra 4 -->
     <g transform="translate(227.909115 27.846094)scale(0.15 -0.15)">
      <use xlink:href="#DejaVuSans-83"/>
      <use x="63.476562" xlink:href="#DejaVuSans-116"/>
      <use x="102.685547" xlink:href="#DejaVuSans-114"/>
      <use x="143.798828" xlink:href="#DejaVuSans-97"/>
      <use x="205.078125" xlink:href="#DejaVuSans-32"/>
      <use x="236.865234" xlink:href="#DejaVuSans-52"/>
     </g>
    </g>
    <g id="line2d_32">
     <path d="M 185.909115 44.613281 
L 215.909115 44.613281 
" style="fill:none;stroke:#9467bd;stroke-linecap:square;stroke-width:1.5;"/>
    </g>
    <g id="line2d_33"/>
    <g id="text_21">
     <!-- Stra 5 -->
     <g transform="translate(227.909115 49.863281)scale(0.15 -0.15)">
      <use xlink:href="#DejaVuSans-83"/>
      <use x="63.476562" xlink:href="#DejaVuSans-116"/>
      <use x="102.685547" xlink:href="#DejaVuSans-114"/>
      <use x="143.798828" xlink:href="#DejaVuSans-97"/>
      <use x="205.078125" xlink:href="#DejaVuSans-32"/>
      <use x="236.865234" xlink:href="#DejaVuSans-53"/>
     </g>
    </g>
    <g id="line2d_34">
     <path d="M 307.268229 22.596094 
L 337.268229 22.596094 
" style="fill:none;stroke:#8c564b;stroke-linecap:square;stroke-width:1.5;"/>
    </g>
    <g id="line2d_35"/>
    <g id="text_22">
     <!-- Stra 6 -->
     <g transform="translate(349.268229 27.846094)scale(0.15 -0.15)">
      <use xlink:href="#DejaVuSans-83"/>
      <use x="63.476562" xlink:href="#DejaVuSans-116"/>
      <use x="102.685547" xlink:href="#DejaVuSans-114"/>
      <use x="143.798828" xlink:href="#DejaVuSans-97"/>
      <use x="205.078125" xlink:href="#DejaVuSans-32"/>
      <use x="236.865234" xlink:href="#DejaVuSans-54"/>
     </g>
    </g>
    <g id="line2d_36">
     <path d="M 307.268229 44.613281 
L 337.268229 44.613281 
" style="fill:none;stroke:#e377c2;stroke-linecap:square;stroke-width:1.5;"/>
    </g>
    <g id="line2d_37"/>
    <g id="text_23">
     <!-- Stra 7 -->
     <g transform="translate(349.268229 49.863281)scale(0.15 -0.15)">
      <use xlink:href="#DejaVuSans-83"/>
      <use x="63.476562" xlink:href="#DejaVuSans-116"/>
      <use x="102.685547" xlink:href="#DejaVuSans-114"/>
      <use x="143.798828" xlink:href="#DejaVuSans-97"/>
      <use x="205.078125" xlink:href="#DejaVuSans-32"/>
      <use x="236.865234" xlink:href="#DejaVuSans-55"/>
     </g>
    </g>
    <g id="line2d_38">
     <path d="M 428.627344 22.596094 
L 458.627344 22.596094 
" style="fill:none;stroke:#7f7f7f;stroke-linecap:square;stroke-width:1.5;"/>
    </g>
    <g id="line2d_39"/>
    <g id="text_24">
     <!-- Stra 8 -->
     <g transform="translate(470.627344 27.846094)scale(0.15 -0.15)">
      <use xlink:href="#DejaVuSans-83"/>
      <use x="63.476562" xlink:href="#DejaVuSans-116"/>
      <use x="102.685547" xlink:href="#DejaVuSans-114"/>
      <use x="143.798828" xlink:href="#DejaVuSans-97"/>
      <use x="205.078125" xlink:href="#DejaVuSans-32"/>
      <use x="236.865234" xlink:href="#DejaVuSans-56"/>
     </g>
    </g>
    <g id="line2d_40">
     <path d="M 428.627344 44.613281 
L 458.627344 44.613281 
" style="fill:none;stroke:#bcbd22;stroke-linecap:square;stroke-width:1.5;"/>
    </g>
    <g id="line2d_41"/>
    <g id="text_25">
     <!-- Stra 9 -->
     <g transform="translate(470.627344 49.863281)scale(0.15 -0.15)">
      <use xlink:href="#DejaVuSans-83"/>
      <use x="63.476562" xlink:href="#DejaVuSans-116"/>
      <use x="102.685547" xlink:href="#DejaVuSans-114"/>
      <use x="143.798828" xlink:href="#DejaVuSans-97"/>
      <use x="205.078125" xlink:href="#DejaVuSans-32"/>
      <use x="236.865234" xlink:href="#DejaVuSans-57"/>
     </g>
    </g>
   </g>
  </g>
 </g>
 <defs>
  <clipPath id="p874da9a1e3">
   <rect height="277.06" width="478.15" x="51.05" y="88.5"/>
  </clipPath>
 </defs>
</svg>
